<?xml version="1.0" encoding="UTF-8" standalone="no"?>
<!DOCTYPE svg PUBLIC "-//W3C//DTD SVG 1.1//EN"
 "http://www.w3.org/Graphics/SVG/1.1/DTD/svg11.dtd">
<!-- Generated by graphviz version 8.1.0 (20230707.2238)
 -->
<!-- Pages: 1 -->
<svg width="834pt" height="116pt"
 viewBox="0.00 0.00 834.41 116.00" xmlns="http://www.w3.org/2000/svg" xmlns:xlink="http://www.w3.org/1999/xlink">
<g id="graph0" class="graph" transform="scale(1 1) rotate(0) translate(4 112)">
<polygon fill="white" stroke="none" points="-4,4 -4,-112 830.41,-112 830.41,4 -4,4"/>
<!-- octave -->
<g id="node1" class="node">
<title>octave</title>
<g id="a_node1"><a xlink:href="https://github.com/conda-forge/octave-feedstock" xlink:title="octave">
<ellipse fill="#fde725" stroke="black" cx="197.09" cy="-18" rx="43.84" ry="18"/>
<text text-anchor="middle" x="197.09" y="-13.32" font-family="Times,serif" font-size="14.00">octave</text>
</a>
</g>
</g>
<!-- mlt -->
<g id="node2" class="node">
<title>mlt</title>
<g id="a_node2"><a xlink:href="https://github.com/conda-forge/mlt-feedstock/pull/25" xlink:title="mlt ❎">
<ellipse fill="#31688e" stroke="black" cx="783.09" cy="-54" rx="43.32" ry="18"/>
<text text-anchor="middle" x="783.09" y="-49.33" font-family="Times,serif" font-size="14.00" fill="white">mlt ❎</text>
</a>
</g>
</g>
<!-- gnuradio -->
<g id="node3" class="node">
<title>gnuradio</title>
<g id="a_node3"><a xlink:href="https://github.com/conda-forge/gnuradio-feedstock" xlink:title="gnuradio">
<ellipse fill="#fde725" stroke="black" cx="79.09" cy="-18" rx="55.94" ry="18"/>
<text text-anchor="middle" x="79.09" y="-13.32" font-family="Times,serif" font-size="14.00">gnuradio</text>
</a>
</g>
</g>
<!-- alsa&#45;plugins -->
<g id="node4" class="node">
<title>alsa&#45;plugins</title>
<g id="a_node4"><a xlink:href="https://github.com/conda-forge/alsa-plugins-feedstock/pull/23" xlink:title="alsa plugins ✓">
<ellipse fill="#31688e" stroke="black" cx="79.09" cy="-90" rx="79.09" ry="18"/>
<text text-anchor="middle" x="79.09" y="-85.33" font-family="Times,serif" font-size="14.00" fill="white">alsa plugins ✓</text>
</a>
</g>
</g>
<!-- alsa&#45;plugins&#45;&gt;gnuradio -->
<g id="edge1" class="edge">
<title>alsa&#45;plugins&#45;&gt;gnuradio</title>
<path fill="none" stroke="black" d="M79.09,-71.7C79.09,-64.24 79.09,-55.32 79.09,-46.97"/>
<polygon fill="black" stroke="black" points="82.59,-47.1 79.09,-37.1 75.59,-47.1 82.59,-47.1"/>
</g>
<!-- qt&#45;main -->
<g id="node5" class="node">
<title>qt&#45;main</title>
<g id="a_node5"><a xlink:href="https://github.com/conda-forge/qt-main-feedstock/pull/183" xlink:title="qt main ❎">
<ellipse fill="#31688e" stroke="black" cx="289.09" cy="-90" rx="64.89" ry="18"/>
<text text-anchor="middle" x="289.09" y="-85.33" font-family="Times,serif" font-size="14.00" fill="white">qt main ❎</text>
</a>
</g>
</g>
<!-- qt&#45;main&#45;&gt;octave -->
<g id="edge4" class="edge">
<title>qt&#45;main&#45;&gt;octave</title>
<path fill="none" stroke="black" d="M267.75,-72.76C255.3,-63.29 239.42,-51.21 225.87,-40.9"/>
<polygon fill="black" stroke="black" points="228.44,-37.7 218.37,-34.43 224.21,-43.27 228.44,-37.7"/>
</g>
<!-- qt&#45;main&#45;&gt;gnuradio -->
<g id="edge2" class="edge">
<title>qt&#45;main&#45;&gt;gnuradio</title>
<path fill="none" stroke="black" d="M248.6,-75.5C213.85,-63.92 163.7,-47.2 126.97,-34.96"/>
<polygon fill="black" stroke="black" points="128.58,-31.47 117.98,-31.63 126.36,-38.11 128.58,-31.47"/>
</g>
<!-- qt&#45;webengine -->
<g id="node6" class="node">
<title>qt&#45;webengine</title>
<g id="a_node6"><a xlink:href="https://github.com/conda-forge/qt-webengine-feedstock" xlink:title="qt webengine">
<ellipse fill="#fde725" stroke="black" cx="338.09" cy="-18" rx="79.09" ry="18"/>
<text text-anchor="middle" x="338.09" y="-13.32" font-family="Times,serif" font-size="14.00">qt webengine</text>
</a>
</g>
</g>
<!-- qt&#45;main&#45;&gt;qt&#45;webengine -->
<g id="edge5" class="edge">
<title>qt&#45;main&#45;&gt;qt&#45;webengine</title>
<path fill="none" stroke="black" d="M300.95,-72.05C306.59,-64.01 313.45,-54.2 319.73,-45.23"/>
<polygon fill="black" stroke="black" points="323.13,-47.47 326,-37.28 317.4,-43.46 323.13,-47.47"/>
</g>
<!-- nsight&#45;compute -->
<g id="node8" class="node">
<title>nsight&#45;compute</title>
<g id="a_node8"><a xlink:href="https://github.com/conda-forge/nsight-compute-feedstock" xlink:title="nsight compute">
<ellipse fill="#fde725" stroke="black" cx="524.09" cy="-18" rx="89.09" ry="18"/>
<text text-anchor="middle" x="524.09" y="-13.32" font-family="Times,serif" font-size="14.00">nsight compute</text>
</a>
</g>
</g>
<!-- qt&#45;main&#45;&gt;nsight&#45;compute -->
<g id="edge3" class="edge">
<title>qt&#45;main&#45;&gt;nsight&#45;compute</title>
<path fill="none" stroke="black" d="M332.19,-76.16C369.49,-65.05 423.79,-48.88 465.11,-36.57"/>
<polygon fill="black" stroke="black" points="466,-39.66 474.59,-33.45 464,-32.95 466,-39.66"/>
</g>
<!-- rtaudio -->
<g id="node7" class="node">
<title>rtaudio</title>
<g id="a_node7"><a xlink:href="https://github.com/conda-forge/rtaudio-feedstock/pull/6" xlink:title="rtaudio ✓">
<ellipse fill="#31688e" stroke="black" cx="676.09" cy="-54" rx="55.42" ry="18"/>
<text text-anchor="middle" x="676.09" y="-49.33" font-family="Times,serif" font-size="14.00" fill="white">rtaudio ✓</text>
</a>
</g>
</g>
</g>
</svg>
