<?xml version="1.0" encoding="UTF-8" standalone="no"?>
<!DOCTYPE svg PUBLIC "-//W3C//DTD SVG 1.1//EN"
 "http://www.w3.org/Graphics/SVG/1.1/DTD/svg11.dtd">
<!-- Generated by graphviz version 8.1.0 (20230707.2238)
 -->
<!-- Pages: 1 -->
<svg width="741pt" height="188pt"
 viewBox="0.00 0.00 741.29 188.00" xmlns="http://www.w3.org/2000/svg" xmlns:xlink="http://www.w3.org/1999/xlink">
<g id="graph0" class="graph" transform="scale(1 1) rotate(0) translate(4 184)">
<polygon fill="white" stroke="none" points="-4,4 -4,-184 737.29,-184 737.29,4 -4,4"/>
<!-- gstreamer -->
<g id="node1" class="node">
<title>gstreamer</title>
<g id="a_node1"><a xlink:href="https://github.com/conda-forge/gstreamer-feedstock/pull/102" xlink:title="gstreamer ❎">
<ellipse fill="#31688e" stroke="black" cx="144.09" cy="-162" rx="78.57" ry="18"/>
<text text-anchor="middle" x="144.09" y="-157.32" font-family="Times,serif" font-size="14.00" fill="white">gstreamer ❎</text>
</a>
</g>
</g>
<!-- qt&#45;main -->
<g id="node8" class="node">
<title>qt&#45;main</title>
<g id="a_node8"><a xlink:href="https://github.com/conda-forge/qt-main-feedstock" xlink:title="qt main">
<ellipse fill="#fde725" stroke="black" cx="195.09" cy="-90" rx="49.63" ry="18"/>
<text text-anchor="middle" x="195.09" y="-85.33" font-family="Times,serif" font-size="14.00">qt main</text>
</a>
</g>
</g>
<!-- gstreamer&#45;&gt;qt&#45;main -->
<g id="edge1" class="edge">
<title>gstreamer&#45;&gt;qt&#45;main</title>
<path fill="none" stroke="black" d="M156.44,-144.05C162.45,-135.8 169.81,-125.7 176.49,-116.54"/>
<polygon fill="black" stroke="black" points="179.8,-118.93 182.86,-108.79 174.14,-114.81 179.8,-118.93"/>
</g>
<!-- qt&#45;webengine -->
<g id="node9" class="node">
<title>qt&#45;webengine</title>
<g id="a_node9"><a xlink:href="https://github.com/conda-forge/qt-webengine-feedstock" xlink:title="qt webengine">
<ellipse fill="#fde725" stroke="black" cx="79.09" cy="-18" rx="79.09" ry="18"/>
<text text-anchor="middle" x="79.09" y="-13.32" font-family="Times,serif" font-size="14.00">qt webengine</text>
</a>
</g>
</g>
<!-- gstreamer&#45;&gt;qt&#45;webengine -->
<g id="edge2" class="edge">
<title>gstreamer&#45;&gt;qt&#45;webengine</title>
<path fill="none" stroke="black" d="M128.15,-144.04C119.65,-134.17 109.61,-121.13 103.09,-108 93.53,-88.74 87.39,-65.19 83.72,-47.15"/>
<polygon fill="black" stroke="black" points="87,-46.63 81.7,-37.45 80.12,-47.93 87,-46.63"/>
</g>
<!-- octave -->
<g id="node2" class="node">
<title>octave</title>
<g id="a_node2"><a xlink:href="https://github.com/conda-forge/octave-feedstock" xlink:title="octave">
<ellipse fill="#fde725" stroke="black" cx="416.09" cy="-18" rx="43.84" ry="18"/>
<text text-anchor="middle" x="416.09" y="-13.32" font-family="Times,serif" font-size="14.00">octave</text>
</a>
</g>
</g>
<!-- fluidsynth -->
<g id="node3" class="node">
<title>fluidsynth</title>
<g id="a_node3"><a xlink:href="https://github.com/conda-forge/fluidsynth-feedstock" xlink:title="fluidsynth">
<ellipse fill="#fde725" stroke="black" cx="512.09" cy="-90" rx="61.2" ry="18"/>
<text text-anchor="middle" x="512.09" y="-85.33" font-family="Times,serif" font-size="14.00">fluidsynth</text>
</a>
</g>
</g>
<!-- pulseaudio -->
<g id="node4" class="node">
<title>pulseaudio</title>
<g id="a_node4"><a xlink:href="https://github.com/conda-forge/pulseaudio-feedstock/pull/35" xlink:title="pulseaudio ❎">
<ellipse fill="#31688e" stroke="black" cx="338.09" cy="-162" rx="80.67" ry="18"/>
<text text-anchor="middle" x="338.09" y="-157.32" font-family="Times,serif" font-size="14.00" fill="white">pulseaudio ❎</text>
</a>
</g>
</g>
<!-- pulseaudio&#45;&gt;fluidsynth -->
<g id="edge4" class="edge">
<title>pulseaudio&#45;&gt;fluidsynth</title>
<path fill="none" stroke="black" d="M375.85,-145.81C402.64,-135.03 438.73,-120.51 467.03,-109.13"/>
<polygon fill="black" stroke="black" points="468.1,-112.07 476.07,-105.09 465.49,-105.57 468.1,-112.07"/>
</g>
<!-- mlt -->
<g id="node5" class="node">
<title>mlt</title>
<g id="a_node5"><a xlink:href="https://github.com/conda-forge/mlt-feedstock" xlink:title="mlt">
<ellipse fill="#fde725" stroke="black" cx="291.09" cy="-90" rx="28.06" ry="18"/>
<text text-anchor="middle" x="291.09" y="-85.33" font-family="Times,serif" font-size="14.00">mlt</text>
</a>
</g>
</g>
<!-- pulseaudio&#45;&gt;mlt -->
<g id="edge5" class="edge">
<title>pulseaudio&#45;&gt;mlt</title>
<path fill="none" stroke="black" d="M326.47,-143.7C320.82,-135.28 313.93,-125.02 307.74,-115.79"/>
<polygon fill="black" stroke="black" points="310.09,-114.02 301.61,-107.67 304.28,-117.92 310.09,-114.02"/>
</g>
<!-- alsa&#45;plugins -->
<g id="node7" class="node">
<title>alsa&#45;plugins</title>
<g id="a_node7"><a xlink:href="https://github.com/conda-forge/alsa-plugins-feedstock" xlink:title="alsa plugins">
<ellipse fill="#fde725" stroke="black" cx="662.09" cy="-90" rx="71.2" ry="18"/>
<text text-anchor="middle" x="662.09" y="-85.33" font-family="Times,serif" font-size="14.00">alsa plugins</text>
</a>
</g>
</g>
<!-- pulseaudio&#45;&gt;alsa&#45;plugins -->
<g id="edge3" class="edge">
<title>pulseaudio&#45;&gt;alsa&#45;plugins</title>
<path fill="none" stroke="black" d="M394.53,-148.81C451.45,-136.51 539.17,-117.56 598.52,-104.74"/>
<polygon fill="black" stroke="black" points="599.22,-107.95 608.25,-102.42 597.74,-101.11 599.22,-107.95"/>
</g>
<!-- pulseaudio&#45;&gt;qt&#45;main -->
<g id="edge6" class="edge">
<title>pulseaudio&#45;&gt;qt&#45;main</title>
<path fill="none" stroke="black" d="M305.64,-145.12C284.11,-134.57 255.76,-120.7 233.16,-109.63"/>
<polygon fill="black" stroke="black" points="235.06,-106.18 224.54,-104.93 231.98,-112.47 235.06,-106.18"/>
</g>
<!-- pulseaudio&#45;&gt;qt&#45;webengine -->
<g id="edge7" class="edge">
<title>pulseaudio&#45;&gt;qt&#45;webengine</title>
<path fill="none" stroke="black" d="M276.7,-149.99C225.85,-139.96 158.45,-124.26 136.09,-108 114.61,-92.37 99.2,-65.96 89.86,-45.96"/>
<polygon fill="black" stroke="black" points="92.77,-44.9 85.53,-37.17 86.37,-47.73 92.77,-44.9"/>
</g>
<!-- rtaudio -->
<g id="node10" class="node">
<title>rtaudio</title>
<g id="a_node10"><a xlink:href="https://github.com/conda-forge/rtaudio-feedstock" xlink:title="rtaudio">
<ellipse fill="#fde725" stroke="black" cx="385.09" cy="-90" rx="47.53" ry="18"/>
<text text-anchor="middle" x="385.09" y="-85.33" font-family="Times,serif" font-size="14.00">rtaudio</text>
</a>
</g>
</g>
<!-- pulseaudio&#45;&gt;rtaudio -->
<g id="edge8" class="edge">
<title>pulseaudio&#45;&gt;rtaudio</title>
<path fill="none" stroke="black" d="M349.71,-143.7C355.2,-135.52 361.86,-125.6 367.91,-116.58"/>
<polygon fill="black" stroke="black" points="371.26,-118.88 373.93,-108.62 365.45,-114.97 371.26,-118.88"/>
</g>
<!-- gnuradio -->
<g id="node6" class="node">
<title>gnuradio</title>
<g id="a_node6"><a xlink:href="https://github.com/conda-forge/gnuradio-feedstock" xlink:title="gnuradio">
<ellipse fill="#fde725" stroke="black" cx="598.09" cy="-18" rx="55.94" ry="18"/>
<text text-anchor="middle" x="598.09" y="-13.32" font-family="Times,serif" font-size="14.00">gnuradio</text>
</a>
</g>
</g>
<!-- alsa&#45;plugins&#45;&gt;gnuradio -->
<g id="edge9" class="edge">
<title>alsa&#45;plugins&#45;&gt;gnuradio</title>
<path fill="none" stroke="black" d="M646.6,-72.05C638.82,-63.54 629.24,-53.07 620.66,-43.68"/>
<polygon fill="black" stroke="black" points="623.77,-41.81 614.44,-36.79 618.61,-46.53 623.77,-41.81"/>
</g>
<!-- qt&#45;main&#45;&gt;octave -->
<g id="edge12" class="edge">
<title>qt&#45;main&#45;&gt;octave</title>
<path fill="none" stroke="black" d="M231.81,-77.47C265.86,-66.77 317.92,-50.37 363.09,-36 365.98,-35.08 368.96,-34.13 371.97,-33.17"/>
<polygon fill="black" stroke="black" points="372.71,-36.29 381.17,-29.91 370.58,-29.62 372.71,-36.29"/>
</g>
<!-- qt&#45;main&#45;&gt;gnuradio -->
<g id="edge10" class="edge">
<title>qt&#45;main&#45;&gt;gnuradio</title>
<path fill="none" stroke="black" d="M232.05,-77.57C239.31,-75.55 246.91,-73.58 254.09,-72 306.67,-60.42 452.72,-39.29 536.64,-27.5"/>
<polygon fill="black" stroke="black" points="536.89,-30.86 546.31,-26.01 535.92,-23.93 536.89,-30.86"/>
</g>
<!-- qt&#45;main&#45;&gt;qt&#45;webengine -->
<g id="edge13" class="edge">
<title>qt&#45;main&#45;&gt;qt&#45;webengine</title>
<path fill="none" stroke="black" d="M170.21,-73.98C154.11,-64.27 132.89,-51.46 114.98,-40.65"/>
<polygon fill="black" stroke="black" points="117.33,-37.38 106.96,-35.21 113.71,-43.38 117.33,-37.38"/>
</g>
<!-- nsight&#45;compute -->
<g id="node11" class="node">
<title>nsight&#45;compute</title>
<g id="a_node11"><a xlink:href="https://github.com/conda-forge/nsight-compute-feedstock" xlink:title="nsight compute">
<ellipse fill="#fde725" stroke="black" cx="265.09" cy="-18" rx="89.09" ry="18"/>
<text text-anchor="middle" x="265.09" y="-13.32" font-family="Times,serif" font-size="14.00">nsight compute</text>
</a>
</g>
</g>
<!-- qt&#45;main&#45;&gt;nsight&#45;compute -->
<g id="edge11" class="edge">
<title>qt&#45;main&#45;&gt;nsight&#45;compute</title>
<path fill="none" stroke="black" d="M211.33,-72.76C219.91,-64.18 230.63,-53.46 240.23,-43.86"/>
<polygon fill="black" stroke="black" points="242.37,-46.67 246.97,-37.12 237.42,-41.72 242.37,-46.67"/>
</g>
</g>
</svg>
