<?xml version="1.0" encoding="UTF-8" standalone="no"?>
<!DOCTYPE svg PUBLIC "-//W3C//DTD SVG 1.1//EN"
 "http://www.w3.org/Graphics/SVG/1.1/DTD/svg11.dtd">
<!-- Generated by graphviz version 8.1.0 (20230707.2238)
 -->
<!-- Pages: 1 -->
<svg width="866pt" height="188pt"
 viewBox="0.00 0.00 865.67 188.00" xmlns="http://www.w3.org/2000/svg" xmlns:xlink="http://www.w3.org/1999/xlink">
<g id="graph0" class="graph" transform="scale(1 1) rotate(0) translate(4 184)">
<polygon fill="white" stroke="none" points="-4,4 -4,-184 861.67,-184 861.67,4 -4,4"/>
<!-- gstreamer -->
<g id="node1" class="node">
<title>gstreamer</title>
<g id="a_node1"><a xlink:href="https://github.com/conda-forge/gstreamer-feedstock" xlink:title="gstreamer">
<ellipse fill="#35b779" stroke="black" cx="153.09" cy="-162" rx="63.31" ry="18"/>
<text text-anchor="middle" x="153.09" y="-157.32" font-family="Times,serif" font-size="14.00">gstreamer</text>
</a>
</g>
</g>
<!-- qt&#45;main -->
<g id="node9" class="node">
<title>qt&#45;main</title>
<g id="a_node9"><a xlink:href="https://github.com/conda-forge/qt-main-feedstock" xlink:title="qt main">
<ellipse fill="#fde725" stroke="black" cx="195.09" cy="-90" rx="49.63" ry="18"/>
<text text-anchor="middle" x="195.09" y="-85.33" font-family="Times,serif" font-size="14.00">qt main</text>
</a>
</g>
</g>
<!-- gstreamer&#45;&gt;qt&#45;main -->
<g id="edge1" class="edge">
<title>gstreamer&#45;&gt;qt&#45;main</title>
<path fill="none" stroke="black" d="M163.26,-144.05C168.11,-135.97 174.02,-126.12 179.42,-117.11"/>
<polygon fill="black" stroke="black" points="182.87,-119.16 185.02,-108.79 176.87,-115.56 182.87,-119.16"/>
</g>
<!-- qt&#45;webengine -->
<g id="node10" class="node">
<title>qt&#45;webengine</title>
<g id="a_node10"><a xlink:href="https://github.com/conda-forge/qt-webengine-feedstock" xlink:title="qt webengine">
<ellipse fill="#fde725" stroke="black" cx="79.09" cy="-18" rx="79.09" ry="18"/>
<text text-anchor="middle" x="79.09" y="-13.32" font-family="Times,serif" font-size="14.00">qt webengine</text>
</a>
</g>
</g>
<!-- gstreamer&#45;&gt;qt&#45;webengine -->
<g id="edge2" class="edge">
<title>gstreamer&#45;&gt;qt&#45;webengine</title>
<path fill="none" stroke="black" d="M133.52,-144.64C123.1,-134.97 110.87,-121.91 103.09,-108 92.53,-89.12 86.43,-65.36 83.03,-47.15"/>
<polygon fill="black" stroke="black" points="86.32,-46.62 81.2,-37.35 79.42,-47.79 86.32,-46.62"/>
</g>
<!-- octave -->
<g id="node2" class="node">
<title>octave</title>
<g id="a_node2"><a xlink:href="https://github.com/conda-forge/octave-feedstock" xlink:title="octave">
<ellipse fill="#fde725" stroke="black" cx="416.09" cy="-18" rx="43.84" ry="18"/>
<text text-anchor="middle" x="416.09" y="-13.32" font-family="Times,serif" font-size="14.00">octave</text>
</a>
</g>
</g>
<!-- openjdk -->
<g id="node3" class="node">
<title>openjdk</title>
<g id="a_node3"><a xlink:href="https://github.com/conda-forge/openjdk-feedstock/pull/131" xlink:title="openjdk ✓">
<ellipse fill="#31688e" stroke="black" cx="799.09" cy="-90" rx="58.57" ry="18"/>
<text text-anchor="middle" x="799.09" y="-85.33" font-family="Times,serif" font-size="14.00" fill="white">openjdk ✓</text>
</a>
</g>
</g>
<!-- fluidsynth -->
<g id="node4" class="node">
<title>fluidsynth</title>
<g id="a_node4"><a xlink:href="https://github.com/conda-forge/fluidsynth-feedstock" xlink:title="fluidsynth">
<ellipse fill="#fde725" stroke="black" cx="512.09" cy="-90" rx="61.2" ry="18"/>
<text text-anchor="middle" x="512.09" y="-85.33" font-family="Times,serif" font-size="14.00">fluidsynth</text>
</a>
</g>
</g>
<!-- pulseaudio -->
<g id="node5" class="node">
<title>pulseaudio</title>
<g id="a_node5"><a xlink:href="https://github.com/conda-forge/pulseaudio-feedstock" xlink:title="pulseaudio">
<ellipse fill="#35b779" stroke="black" cx="332.09" cy="-162" rx="65.41" ry="18"/>
<text text-anchor="middle" x="332.09" y="-157.32" font-family="Times,serif" font-size="14.00">pulseaudio</text>
</a>
</g>
</g>
<!-- pulseaudio&#45;&gt;fluidsynth -->
<g id="edge4" class="edge">
<title>pulseaudio&#45;&gt;fluidsynth</title>
<path fill="none" stroke="black" d="M368.95,-146.67C397.14,-135.7 436.15,-120.53 466.33,-108.79"/>
<polygon fill="black" stroke="black" points="467.15,-111.84 475.2,-104.96 464.61,-105.32 467.15,-111.84"/>
</g>
<!-- mlt -->
<g id="node6" class="node">
<title>mlt</title>
<g id="a_node6"><a xlink:href="https://github.com/conda-forge/mlt-feedstock" xlink:title="mlt">
<ellipse fill="#fde725" stroke="black" cx="291.09" cy="-90" rx="28.06" ry="18"/>
<text text-anchor="middle" x="291.09" y="-85.33" font-family="Times,serif" font-size="14.00">mlt</text>
</a>
</g>
</g>
<!-- pulseaudio&#45;&gt;mlt -->
<g id="edge5" class="edge">
<title>pulseaudio&#45;&gt;mlt</title>
<path fill="none" stroke="black" d="M322.17,-144.05C317.36,-135.85 311.49,-125.83 306.15,-116.71"/>
<polygon fill="black" stroke="black" points="308.72,-115.17 300.64,-108.31 302.68,-118.7 308.72,-115.17"/>
</g>
<!-- alsa&#45;plugins -->
<g id="node8" class="node">
<title>alsa&#45;plugins</title>
<g id="a_node8"><a xlink:href="https://github.com/conda-forge/alsa-plugins-feedstock" xlink:title="alsa plugins">
<ellipse fill="#fde725" stroke="black" cx="662.09" cy="-90" rx="71.2" ry="18"/>
<text text-anchor="middle" x="662.09" y="-85.33" font-family="Times,serif" font-size="14.00">alsa plugins</text>
</a>
</g>
</g>
<!-- pulseaudio&#45;&gt;alsa&#45;plugins -->
<g id="edge3" class="edge">
<title>pulseaudio&#45;&gt;alsa&#45;plugins</title>
<path fill="none" stroke="black" d="M382.85,-150.25C433.36,-139.54 513.08,-122.65 582.09,-108 587.34,-106.89 592.78,-105.73 598.24,-104.57"/>
<polygon fill="black" stroke="black" points="598.68,-107.84 607.73,-102.34 597.22,-101 598.68,-107.84"/>
</g>
<!-- pulseaudio&#45;&gt;qt&#45;main -->
<g id="edge6" class="edge">
<title>pulseaudio&#45;&gt;qt&#45;main</title>
<path fill="none" stroke="black" d="M302.03,-145.64C281.54,-135.17 254.26,-121.23 232.38,-110.05"/>
<polygon fill="black" stroke="black" points="234.25,-106.57 223.76,-105.14 231.07,-112.8 234.25,-106.57"/>
</g>
<!-- pulseaudio&#45;&gt;qt&#45;webengine -->
<g id="edge7" class="edge">
<title>pulseaudio&#45;&gt;qt&#45;webengine</title>
<path fill="none" stroke="black" d="M279.2,-151.17C229.27,-141.11 158.76,-124.62 136.09,-108 114.77,-92.37 99.39,-66.13 90.02,-46.19"/>
<polygon fill="black" stroke="black" points="92.81,-44.85 85.55,-37.14 86.42,-47.7 92.81,-44.85"/>
</g>
<!-- rtaudio -->
<g id="node11" class="node">
<title>rtaudio</title>
<g id="a_node11"><a xlink:href="https://github.com/conda-forge/rtaudio-feedstock" xlink:title="rtaudio">
<ellipse fill="#fde725" stroke="black" cx="385.09" cy="-90" rx="47.53" ry="18"/>
<text text-anchor="middle" x="385.09" y="-85.33" font-family="Times,serif" font-size="14.00">rtaudio</text>
</a>
</g>
</g>
<!-- pulseaudio&#45;&gt;rtaudio -->
<g id="edge8" class="edge">
<title>pulseaudio&#45;&gt;rtaudio</title>
<path fill="none" stroke="black" d="M344.92,-144.05C351.17,-135.8 358.82,-125.7 365.76,-116.54"/>
<polygon fill="black" stroke="black" points="369.13,-118.87 372.38,-108.79 363.55,-114.65 369.13,-118.87"/>
</g>
<!-- gnuradio -->
<g id="node7" class="node">
<title>gnuradio</title>
<g id="a_node7"><a xlink:href="https://github.com/conda-forge/gnuradio-feedstock" xlink:title="gnuradio">
<ellipse fill="#fde725" stroke="black" cx="598.09" cy="-18" rx="55.94" ry="18"/>
<text text-anchor="middle" x="598.09" y="-13.32" font-family="Times,serif" font-size="14.00">gnuradio</text>
</a>
</g>
</g>
<!-- alsa&#45;plugins&#45;&gt;gnuradio -->
<g id="edge9" class="edge">
<title>alsa&#45;plugins&#45;&gt;gnuradio</title>
<path fill="none" stroke="black" d="M646.6,-72.05C638.82,-63.54 629.24,-53.07 620.66,-43.68"/>
<polygon fill="black" stroke="black" points="623.77,-41.81 614.44,-36.79 618.61,-46.53 623.77,-41.81"/>
</g>
<!-- qt&#45;main&#45;&gt;octave -->
<g id="edge12" class="edge">
<title>qt&#45;main&#45;&gt;octave</title>
<path fill="none" stroke="black" d="M231.81,-77.47C265.86,-66.77 317.92,-50.37 363.09,-36 365.98,-35.08 368.96,-34.13 371.97,-33.17"/>
<polygon fill="black" stroke="black" points="372.71,-36.29 381.17,-29.91 370.58,-29.62 372.71,-36.29"/>
</g>
<!-- qt&#45;main&#45;&gt;gnuradio -->
<g id="edge10" class="edge">
<title>qt&#45;main&#45;&gt;gnuradio</title>
<path fill="none" stroke="black" d="M232.05,-77.57C239.31,-75.55 246.91,-73.58 254.09,-72 306.67,-60.42 452.72,-39.29 536.64,-27.5"/>
<polygon fill="black" stroke="black" points="536.89,-30.86 546.31,-26.01 535.92,-23.93 536.89,-30.86"/>
</g>
<!-- qt&#45;main&#45;&gt;qt&#45;webengine -->
<g id="edge13" class="edge">
<title>qt&#45;main&#45;&gt;qt&#45;webengine</title>
<path fill="none" stroke="black" d="M170.21,-73.98C154.11,-64.27 132.89,-51.46 114.98,-40.65"/>
<polygon fill="black" stroke="black" points="117.33,-37.38 106.96,-35.21 113.71,-43.38 117.33,-37.38"/>
</g>
<!-- nsight&#45;compute -->
<g id="node12" class="node">
<title>nsight&#45;compute</title>
<g id="a_node12"><a xlink:href="https://github.com/conda-forge/nsight-compute-feedstock" xlink:title="nsight compute">
<ellipse fill="#fde725" stroke="black" cx="265.09" cy="-18" rx="89.09" ry="18"/>
<text text-anchor="middle" x="265.09" y="-13.32" font-family="Times,serif" font-size="14.00">nsight compute</text>
</a>
</g>
</g>
<!-- qt&#45;main&#45;&gt;nsight&#45;compute -->
<g id="edge11" class="edge">
<title>qt&#45;main&#45;&gt;nsight&#45;compute</title>
<path fill="none" stroke="black" d="M211.33,-72.76C219.91,-64.18 230.63,-53.46 240.23,-43.86"/>
<polygon fill="black" stroke="black" points="242.37,-46.67 246.97,-37.12 237.42,-41.72 242.37,-46.67"/>
</g>
</g>
</svg>
