<?xml version="1.0" encoding="UTF-8" standalone="no"?>
<!DOCTYPE svg PUBLIC "-//W3C//DTD SVG 1.1//EN"
 "http://www.w3.org/Graphics/SVG/1.1/DTD/svg11.dtd">
<!-- Generated by graphviz version 8.1.0 (20230707.2238)
 -->
<!-- Pages: 1 -->
<svg width="693pt" height="116pt"
 viewBox="0.00 0.00 693.16 116.00" xmlns="http://www.w3.org/2000/svg" xmlns:xlink="http://www.w3.org/1999/xlink">
<g id="graph0" class="graph" transform="scale(1 1) rotate(0) translate(4 112)">
<polygon fill="white" stroke="none" points="-4,4 -4,-112 689.16,-112 689.16,4 -4,4"/>
<!-- octave -->
<g id="node1" class="node">
<title>octave</title>
<g id="a_node1"><a xlink:href="https://github.com/conda-forge/octave-feedstock" xlink:title="octave">
<ellipse fill="#fde725" stroke="black" cx="43.84" cy="-18" rx="43.84" ry="18"/>
<text text-anchor="middle" x="43.84" y="-13.32" font-family="Times,serif" font-size="14.00">octave</text>
</a>
</g>
</g>
<!-- mlt -->
<g id="node2" class="node">
<title>mlt</title>
<g id="a_node2"><a xlink:href="https://github.com/conda-forge/mlt-feedstock/pull/25" xlink:title="mlt ❎">
<ellipse fill="#31688e" stroke="black" cx="641.84" cy="-54" rx="43.32" ry="18"/>
<text text-anchor="middle" x="641.84" y="-49.33" font-family="Times,serif" font-size="14.00" fill="white">mlt ❎</text>
</a>
</g>
</g>
<!-- gnuradio -->
<g id="node3" class="node">
<title>gnuradio</title>
<g id="a_node3"><a xlink:href="https://github.com/conda-forge/gnuradio-feedstock" xlink:title="gnuradio">
<ellipse fill="#fde725" stroke="black" cx="161.84" cy="-18" rx="55.94" ry="18"/>
<text text-anchor="middle" x="161.84" y="-13.32" font-family="Times,serif" font-size="14.00">gnuradio</text>
</a>
</g>
</g>
<!-- qt&#45;main -->
<g id="node4" class="node">
<title>qt&#45;main</title>
<g id="a_node4"><a xlink:href="https://github.com/conda-forge/qt-main-feedstock/pull/183" xlink:title="qt main ❎">
<ellipse fill="#31688e" stroke="black" cx="237.84" cy="-90" rx="64.89" ry="18"/>
<text text-anchor="middle" x="237.84" y="-85.33" font-family="Times,serif" font-size="14.00" fill="white">qt main ❎</text>
</a>
</g>
</g>
<!-- qt&#45;main&#45;&gt;octave -->
<g id="edge3" class="edge">
<title>qt&#45;main&#45;&gt;octave</title>
<path fill="none" stroke="black" d="M199.51,-75.17C166.79,-63.36 119.8,-46.41 86.01,-34.22"/>
<polygon fill="black" stroke="black" points="87.58,-30.7 76.98,-30.6 85.2,-37.28 87.58,-30.7"/>
</g>
<!-- qt&#45;main&#45;&gt;gnuradio -->
<g id="edge1" class="edge">
<title>qt&#45;main&#45;&gt;gnuradio</title>
<path fill="none" stroke="black" d="M219.83,-72.41C210.27,-63.61 198.35,-52.63 187.81,-42.92"/>
<polygon fill="black" stroke="black" points="190.45,-40.67 180.72,-36.47 185.71,-45.82 190.45,-40.67"/>
</g>
<!-- qt&#45;webengine -->
<g id="node5" class="node">
<title>qt&#45;webengine</title>
<g id="a_node5"><a xlink:href="https://github.com/conda-forge/qt-webengine-feedstock" xlink:title="qt webengine">
<ellipse fill="#fde725" stroke="black" cx="314.84" cy="-18" rx="79.09" ry="18"/>
<text text-anchor="middle" x="314.84" y="-13.32" font-family="Times,serif" font-size="14.00">qt webengine</text>
</a>
</g>
</g>
<!-- qt&#45;main&#45;&gt;qt&#45;webengine -->
<g id="edge4" class="edge">
<title>qt&#45;main&#45;&gt;qt&#45;webengine</title>
<path fill="none" stroke="black" d="M256.09,-72.41C265.64,-63.73 277.5,-52.95 288.07,-43.34"/>
<polygon fill="black" stroke="black" points="290.15,-46.27 295.19,-36.96 285.44,-41.09 290.15,-46.27"/>
</g>
<!-- nsight&#45;compute -->
<g id="node6" class="node">
<title>nsight&#45;compute</title>
<g id="a_node6"><a xlink:href="https://github.com/conda-forge/nsight-compute-feedstock" xlink:title="nsight compute">
<ellipse fill="#fde725" stroke="black" cx="500.84" cy="-18" rx="89.09" ry="18"/>
<text text-anchor="middle" x="500.84" y="-13.32" font-family="Times,serif" font-size="14.00">nsight compute</text>
</a>
</g>
</g>
<!-- qt&#45;main&#45;&gt;nsight&#45;compute -->
<g id="edge2" class="edge">
<title>qt&#45;main&#45;&gt;nsight&#45;compute</title>
<path fill="none" stroke="black" d="M283.65,-76.81C326.34,-65.44 390.37,-48.4 437.86,-35.76"/>
<polygon fill="black" stroke="black" points="438.57,-38.93 447.33,-32.98 436.77,-32.17 438.57,-38.93"/>
</g>
</g>
</svg>
