<?xml version="1.0" encoding="UTF-8" standalone="no"?>
<!DOCTYPE svg PUBLIC "-//W3C//DTD SVG 1.1//EN"
 "http://www.w3.org/Graphics/SVG/1.1/DTD/svg11.dtd">
<!-- Generated by graphviz version 8.1.0 (20230707.2238)
 -->
<!-- Pages: 1 -->
<svg width="780pt" height="116pt"
 viewBox="0.00 0.00 780.26 116.00" xmlns="http://www.w3.org/2000/svg" xmlns:xlink="http://www.w3.org/1999/xlink">
<g id="graph0" class="graph" transform="scale(1 1) rotate(0) translate(4 112)">
<polygon fill="white" stroke="none" points="-4,4 -4,-112 776.26,-112 776.26,4 -4,4"/>
<!-- octave -->
<g id="node1" class="node">
<title>octave</title>
<g id="a_node1"><a xlink:href="https://github.com/conda-forge/octave-feedstock" xlink:title="octave">
<ellipse fill="#fde725" stroke="black" cx="189.2" cy="-18" rx="43.84" ry="18"/>
<text text-anchor="middle" x="189.2" y="-13.32" font-family="Times,serif" font-size="14.00">octave</text>
</a>
</g>
</g>
<!-- mlt -->
<g id="node2" class="node">
<title>mlt</title>
<g id="a_node2"><a xlink:href="https://github.com/conda-forge/mlt-feedstock" xlink:title="mlt">
<ellipse fill="#35b779" stroke="black" cx="744.2" cy="-54" rx="28.06" ry="18"/>
<text text-anchor="middle" x="744.2" y="-49.33" font-family="Times,serif" font-size="14.00">mlt</text>
</a>
</g>
</g>
<!-- gnuradio -->
<g id="node3" class="node">
<title>gnuradio</title>
<g id="a_node3"><a xlink:href="https://github.com/conda-forge/gnuradio-feedstock" xlink:title="gnuradio">
<ellipse fill="#fde725" stroke="black" cx="71.2" cy="-18" rx="55.94" ry="18"/>
<text text-anchor="middle" x="71.2" y="-13.32" font-family="Times,serif" font-size="14.00">gnuradio</text>
</a>
</g>
</g>
<!-- alsa&#45;plugins -->
<g id="node4" class="node">
<title>alsa&#45;plugins</title>
<g id="a_node4"><a xlink:href="https://github.com/conda-forge/alsa-plugins-feedstock" xlink:title="alsa plugins">
<ellipse fill="#35b779" stroke="black" cx="71.2" cy="-90" rx="71.2" ry="18"/>
<text text-anchor="middle" x="71.2" y="-85.33" font-family="Times,serif" font-size="14.00">alsa plugins</text>
</a>
</g>
</g>
<!-- alsa&#45;plugins&#45;&gt;gnuradio -->
<g id="edge1" class="edge">
<title>alsa&#45;plugins&#45;&gt;gnuradio</title>
<path fill="none" stroke="black" d="M71.2,-71.7C71.2,-64.24 71.2,-55.32 71.2,-46.97"/>
<polygon fill="black" stroke="black" points="74.7,-47.1 71.2,-37.1 67.7,-47.1 74.7,-47.1"/>
</g>
<!-- qt&#45;main -->
<g id="node5" class="node">
<title>qt&#45;main</title>
<g id="a_node5"><a xlink:href="https://github.com/conda-forge/qt-main-feedstock/pull/183" xlink:title="qt main ❎">
<ellipse fill="#31688e" stroke="black" cx="277.2" cy="-90" rx="64.89" ry="18"/>
<text text-anchor="middle" x="277.2" y="-85.33" font-family="Times,serif" font-size="14.00" fill="white">qt main ❎</text>
</a>
</g>
</g>
<!-- qt&#45;main&#45;&gt;octave -->
<g id="edge4" class="edge">
<title>qt&#45;main&#45;&gt;octave</title>
<path fill="none" stroke="black" d="M256.79,-72.76C244.99,-63.38 229.98,-51.44 217.1,-41.2"/>
<polygon fill="black" stroke="black" points="219.6,-37.91 209.59,-34.43 215.24,-43.39 219.6,-37.91"/>
</g>
<!-- qt&#45;main&#45;&gt;gnuradio -->
<g id="edge2" class="edge">
<title>qt&#45;main&#45;&gt;gnuradio</title>
<path fill="none" stroke="black" d="M237.48,-75.5C203.64,-64 154.93,-47.45 118.96,-35.23"/>
<polygon fill="black" stroke="black" points="120.31,-31.65 109.71,-31.75 118.06,-38.28 120.31,-31.65"/>
</g>
<!-- qt&#45;webengine -->
<g id="node6" class="node">
<title>qt&#45;webengine</title>
<g id="a_node6"><a xlink:href="https://github.com/conda-forge/qt-webengine-feedstock" xlink:title="qt webengine">
<ellipse fill="#fde725" stroke="black" cx="330.2" cy="-18" rx="79.09" ry="18"/>
<text text-anchor="middle" x="330.2" y="-13.32" font-family="Times,serif" font-size="14.00">qt webengine</text>
</a>
</g>
</g>
<!-- qt&#45;main&#45;&gt;qt&#45;webengine -->
<g id="edge5" class="edge">
<title>qt&#45;main&#45;&gt;qt&#45;webengine</title>
<path fill="none" stroke="black" d="M290.03,-72.05C296.28,-63.8 303.93,-53.7 310.86,-44.54"/>
<polygon fill="black" stroke="black" points="314.24,-46.87 317.49,-36.79 308.66,-42.65 314.24,-46.87"/>
</g>
<!-- nsight&#45;compute -->
<g id="node8" class="node">
<title>nsight&#45;compute</title>
<g id="a_node8"><a xlink:href="https://github.com/conda-forge/nsight-compute-feedstock" xlink:title="nsight compute">
<ellipse fill="#fde725" stroke="black" cx="516.2" cy="-18" rx="89.09" ry="18"/>
<text text-anchor="middle" x="516.2" y="-13.32" font-family="Times,serif" font-size="14.00">nsight compute</text>
</a>
</g>
</g>
<!-- qt&#45;main&#45;&gt;nsight&#45;compute -->
<g id="edge3" class="edge">
<title>qt&#45;main&#45;&gt;nsight&#45;compute</title>
<path fill="none" stroke="black" d="M320.76,-76.24C358.86,-65.08 414.56,-48.77 456.76,-36.41"/>
<polygon fill="black" stroke="black" points="457.56,-39.53 466.17,-33.36 455.59,-32.81 457.56,-39.53"/>
</g>
<!-- rtaudio -->
<g id="node7" class="node">
<title>rtaudio</title>
<g id="a_node7"><a xlink:href="https://github.com/conda-forge/rtaudio-feedstock" xlink:title="rtaudio">
<ellipse fill="#35b779" stroke="black" cx="660.2" cy="-54" rx="47.53" ry="18"/>
<text text-anchor="middle" x="660.2" y="-49.33" font-family="Times,serif" font-size="14.00">rtaudio</text>
</a>
</g>
</g>
</g>
</svg>
