<?xml version="1.0" encoding="UTF-8" standalone="no"?>
<!DOCTYPE svg PUBLIC "-//W3C//DTD SVG 1.1//EN"
 "http://www.w3.org/Graphics/SVG/1.1/DTD/svg11.dtd">
<!-- Generated by graphviz version 8.0.5 (20230506.1012)
 -->
<!-- Pages: 1 -->
<svg width="994pt" height="188pt"
 viewBox="0.00 0.00 993.67 188.00" xmlns="http://www.w3.org/2000/svg" xmlns:xlink="http://www.w3.org/1999/xlink">
<g id="graph0" class="graph" transform="scale(1 1) rotate(0) translate(4 184)">
<polygon fill="white" stroke="none" points="-4,4 -4,-184 989.67,-184 989.67,4 -4,4"/>
<!-- gstreamer -->
<g id="node1" class="node">
<title>gstreamer</title>
<g id="a_node1"><a xlink:href="https://github.com/conda-forge/gstreamer-feedstock/pull/96" xlink:title="gstreamer ❎">
<ellipse fill="#31688e" stroke="black" cx="137.09" cy="-162" rx="78.57" ry="18"/>
<text text-anchor="middle" x="137.09" y="-157.32" font-family="Times,serif" font-size="14.00" fill="white">gstreamer ❎</text>
</a>
</g>
</g>
<!-- qt&#45;main -->
<g id="node9" class="node">
<title>qt&#45;main</title>
<g id="a_node9"><a xlink:href="https://github.com/conda-forge/qt-main-feedstock" xlink:title="qt main">
<ellipse fill="#fde725" stroke="black" cx="176.09" cy="-90" rx="49.63" ry="18"/>
<text text-anchor="middle" x="176.09" y="-85.33" font-family="Times,serif" font-size="14.00">qt main</text>
</a>
</g>
</g>
<!-- gstreamer&#45;&gt;qt&#45;main -->
<g id="edge1" class="edge">
<title>gstreamer&#45;&gt;qt&#45;main</title>
<path fill="none" stroke="black" d="M146.73,-143.7C151.12,-135.81 156.42,-126.3 161.3,-117.55"/>
<polygon fill="black" stroke="black" points="164.75,-119.54 166.56,-109.1 158.64,-116.14 164.75,-119.54"/>
</g>
<!-- qt&#45;webengine -->
<g id="node10" class="node">
<title>qt&#45;webengine</title>
<g id="a_node10"><a xlink:href="https://github.com/conda-forge/qt-webengine-feedstock" xlink:title="qt webengine">
<ellipse fill="#fde725" stroke="black" cx="79.09" cy="-18" rx="79.09" ry="18"/>
<text text-anchor="middle" x="79.09" y="-13.32" font-family="Times,serif" font-size="14.00">qt webengine</text>
</a>
</g>
</g>
<!-- gstreamer&#45;&gt;qt&#45;webengine -->
<g id="edge2" class="edge">
<title>gstreamer&#45;&gt;qt&#45;webengine</title>
<path fill="none" stroke="black" d="M114.06,-144.55C102.92,-135.21 90.58,-122.49 84.09,-108 75.55,-88.91 74.63,-65.16 75.67,-47"/>
<polygon fill="black" stroke="black" points="79.22,-47.5 76.55,-37.25 72.25,-46.93 79.22,-47.5"/>
</g>
<!-- octave -->
<g id="node2" class="node">
<title>octave</title>
<g id="a_node2"><a xlink:href="https://github.com/conda-forge/octave-feedstock" xlink:title="octave">
<ellipse fill="#fde725" stroke="black" cx="220.09" cy="-18" rx="43.84" ry="18"/>
<text text-anchor="middle" x="220.09" y="-13.32" font-family="Times,serif" font-size="14.00">octave</text>
</a>
</g>
</g>
<!-- openjdk -->
<g id="node3" class="node">
<title>openjdk</title>
<g id="a_node3"><a xlink:href="https://github.com/conda-forge/openjdk-feedstock/pull/121" xlink:title="openjdk ✓">
<ellipse fill="#31688e" stroke="black" cx="927.09" cy="-90" rx="58.57" ry="18"/>
<text text-anchor="middle" x="927.09" y="-85.33" font-family="Times,serif" font-size="14.00" fill="white">openjdk ✓</text>
</a>
</g>
</g>
<!-- fluidsynth -->
<g id="node4" class="node">
<title>fluidsynth</title>
<g id="a_node4"><a xlink:href="https://github.com/conda-forge/fluidsynth-feedstock" xlink:title="fluidsynth">
<ellipse fill="#fde725" stroke="black" cx="305.09" cy="-90" rx="61.2" ry="18"/>
<text text-anchor="middle" x="305.09" y="-85.33" font-family="Times,serif" font-size="14.00">fluidsynth</text>
</a>
</g>
</g>
<!-- pulseaudio -->
<g id="node5" class="node">
<title>pulseaudio</title>
<g id="a_node5"><a xlink:href="https://github.com/conda-forge/pulseaudio-feedstock/pull/34" xlink:title="pulseaudio ✓">
<ellipse fill="#31688e" stroke="black" cx="344.09" cy="-162" rx="73.3" ry="18"/>
<text text-anchor="middle" x="344.09" y="-157.32" font-family="Times,serif" font-size="14.00" fill="white">pulseaudio ✓</text>
</a>
</g>
</g>
<!-- pulseaudio&#45;&gt;fluidsynth -->
<g id="edge4" class="edge">
<title>pulseaudio&#45;&gt;fluidsynth</title>
<path fill="none" stroke="black" d="M334.45,-143.7C330.06,-135.81 324.76,-126.3 319.88,-117.55"/>
<polygon fill="black" stroke="black" points="322.55,-116.14 314.62,-109.1 316.43,-119.54 322.55,-116.14"/>
</g>
<!-- mlt -->
<g id="node6" class="node">
<title>mlt</title>
<g id="a_node6"><a xlink:href="https://github.com/conda-forge/mlt-feedstock" xlink:title="mlt">
<ellipse fill="#fde725" stroke="black" cx="412.09" cy="-90" rx="28.06" ry="18"/>
<text text-anchor="middle" x="412.09" y="-85.33" font-family="Times,serif" font-size="14.00">mlt</text>
</a>
</g>
</g>
<!-- pulseaudio&#45;&gt;mlt -->
<g id="edge5" class="edge">
<title>pulseaudio&#45;&gt;mlt</title>
<path fill="none" stroke="black" d="M360.55,-144.05C369.4,-134.95 380.42,-123.6 390,-113.74"/>
<polygon fill="black" stroke="black" points="392.17,-116.5 396.63,-106.89 387.15,-111.62 392.17,-116.5"/>
</g>
<!-- alsa&#45;plugins -->
<g id="node8" class="node">
<title>alsa&#45;plugins</title>
<g id="a_node8"><a xlink:href="https://github.com/conda-forge/alsa-plugins-feedstock" xlink:title="alsa plugins">
<ellipse fill="#fde725" stroke="black" cx="529.09" cy="-90" rx="71.2" ry="18"/>
<text text-anchor="middle" x="529.09" y="-85.33" font-family="Times,serif" font-size="14.00">alsa plugins</text>
</a>
</g>
</g>
<!-- pulseaudio&#45;&gt;alsa&#45;plugins -->
<g id="edge3" class="edge">
<title>pulseaudio&#45;&gt;alsa&#45;plugins</title>
<path fill="none" stroke="black" d="M382.87,-146.33C411.34,-135.56 450.18,-120.86 480.68,-109.32"/>
<polygon fill="black" stroke="black" points="481.56,-112.35 489.68,-105.53 479.09,-105.8 481.56,-112.35"/>
</g>
<!-- pulseaudio&#45;&gt;qt&#45;main -->
<g id="edge6" class="edge">
<title>pulseaudio&#45;&gt;qt&#45;main</title>
<path fill="none" stroke="black" d="M308.05,-145.98C281.52,-134.93 245.38,-119.87 217.64,-108.31"/>
<polygon fill="black" stroke="black" points="219.4,-104.84 208.82,-104.22 216.71,-111.3 219.4,-104.84"/>
</g>
<!-- pulseaudio&#45;&gt;qt&#45;webengine -->
<g id="edge7" class="edge">
<title>pulseaudio&#45;&gt;qt&#45;webengine</title>
<path fill="none" stroke="black" d="M280.53,-152.68C222.31,-143.93 141.58,-128.56 117.09,-108 98.72,-92.58 89.02,-66.68 84.03,-46.78"/>
<polygon fill="black" stroke="black" points="87.26,-46.17 81.67,-37.17 80.43,-47.69 87.26,-46.17"/>
</g>
<!-- rtaudio -->
<g id="node12" class="node">
<title>rtaudio</title>
<g id="a_node12"><a xlink:href="https://github.com/conda-forge/rtaudio-feedstock" xlink:title="rtaudio">
<ellipse fill="#fde725" stroke="black" cx="666.09" cy="-90" rx="47.53" ry="18"/>
<text text-anchor="middle" x="666.09" y="-85.33" font-family="Times,serif" font-size="14.00">rtaudio</text>
</a>
</g>
</g>
<!-- pulseaudio&#45;&gt;rtaudio -->
<g id="edge8" class="edge">
<title>pulseaudio&#45;&gt;rtaudio</title>
<path fill="none" stroke="black" d="M402.86,-150.86C456.79,-141.17 538.74,-125.49 609.09,-108 612.66,-107.11 616.33,-106.15 620.02,-105.14"/>
<polygon fill="black" stroke="black" points="620.68,-108.3 629.35,-102.21 618.78,-101.57 620.68,-108.3"/>
</g>
<!-- gnuradio -->
<g id="node7" class="node">
<title>gnuradio</title>
<g id="a_node7"><a xlink:href="https://github.com/conda-forge/gnuradio-feedstock" xlink:title="gnuradio">
<ellipse fill="#fde725" stroke="black" cx="433.09" cy="-18" rx="55.94" ry="18"/>
<text text-anchor="middle" x="433.09" y="-13.32" font-family="Times,serif" font-size="14.00">gnuradio</text>
</a>
</g>
</g>
<!-- alsa&#45;plugins&#45;&gt;gnuradio -->
<g id="edge9" class="edge">
<title>alsa&#45;plugins&#45;&gt;gnuradio</title>
<path fill="none" stroke="black" d="M506.83,-72.76C494.01,-63.42 477.73,-51.55 463.72,-41.33"/>
<polygon fill="black" stroke="black" points="466.05,-37.97 455.91,-34.91 461.92,-43.63 466.05,-37.97"/>
</g>
<!-- qt&#45;main&#45;&gt;octave -->
<g id="edge11" class="edge">
<title>qt&#45;main&#45;&gt;octave</title>
<path fill="none" stroke="black" d="M186.74,-72.05C191.88,-63.89 198.15,-53.91 203.86,-44.82"/>
<polygon fill="black" stroke="black" points="207.18,-47.12 209.54,-36.79 201.25,-43.39 207.18,-47.12"/>
</g>
<!-- qt&#45;main&#45;&gt;gnuradio -->
<g id="edge10" class="edge">
<title>qt&#45;main&#45;&gt;gnuradio</title>
<path fill="none" stroke="black" d="M213.83,-78.01C220.89,-75.99 228.21,-73.91 235.09,-72 284.09,-58.39 340.08,-43.46 379.99,-32.92"/>
<polygon fill="black" stroke="black" points="380.76,-36.07 389.54,-30.14 378.98,-29.3 380.76,-36.07"/>
</g>
<!-- qt&#45;main&#45;&gt;qt&#45;webengine -->
<g id="edge12" class="edge">
<title>qt&#45;main&#45;&gt;qt&#45;webengine</title>
<path fill="none" stroke="black" d="M154.56,-73.46C141.62,-64.13 124.92,-52.07 110.52,-41.68"/>
<polygon fill="black" stroke="black" points="113.07,-38.48 102.91,-35.47 108.97,-44.16 113.07,-38.48"/>
</g>
<!-- portmidi -->
<g id="node11" class="node">
<title>portmidi</title>
<g id="a_node11"><a xlink:href="https://github.com/conda-forge/portmidi-feedstock/pull/5" xlink:title="portmidi ❎">
<ellipse fill="#31688e" stroke="black" cx="791.09" cy="-90" rx="69.62" ry="18"/>
<text text-anchor="middle" x="791.09" y="-85.33" font-family="Times,serif" font-size="14.00" fill="white">portmidi ❎</text>
</a>
</g>
</g>
</g>
</svg>
