<?xml version="1.0" encoding="UTF-8" standalone="no"?>
<!DOCTYPE svg PUBLIC "-//W3C//DTD SVG 1.1//EN"
 "http://www.w3.org/Graphics/SVG/1.1/DTD/svg11.dtd">
<!-- Generated by graphviz version 3.0.0 (20220315.2325)
 -->
<!-- Pages: 1 -->
<svg width="512pt" height="476pt"
 viewBox="0.00 0.00 512.34 476.00" xmlns="http://www.w3.org/2000/svg" xmlns:xlink="http://www.w3.org/1999/xlink">
<g id="graph0" class="graph" transform="scale(1 1) rotate(0) translate(4 472)">
<polygon fill="white" stroke="transparent" points="-4,4 -4,-472 508.34,-472 508.34,4 -4,4"/>
<!-- hpp&#45;core -->
<g id="node1" class="node">
<title>hpp&#45;core</title>
<g id="a_node1"><a xlink:href="https://github.com/conda-forge/hpp-core-feedstock" xlink:title="hpp core">
<ellipse fill="#fde725" stroke="black" cx="70.34" cy="-306" rx="51.5" ry="18"/>
<text text-anchor="middle" x="70.34" y="-302.3" font-family="Times,serif" font-size="14.00">hpp core</text>
</a>
</g>
</g>
<!-- hpp&#45;manipulation&#45;urdf -->
<g id="node2" class="node">
<title>hpp&#45;manipulation&#45;urdf</title>
<g id="a_node2"><a xlink:href="https://github.com/conda-forge/hpp-manipulation-urdf-feedstock" xlink:title="hpp manipulation urdf">
<ellipse fill="#fde725" stroke="black" cx="247.34" cy="-162" rx="114.5" ry="18"/>
<text text-anchor="middle" x="247.34" y="-158.3" font-family="Times,serif" font-size="14.00">hpp manipulation urdf</text>
</a>
</g>
</g>
<!-- hpp&#45;core&#45;&gt;hpp&#45;manipulation&#45;urdf -->
<g id="edge1" class="edge">
<title>hpp&#45;core&#45;&gt;hpp&#45;manipulation&#45;urdf</title>
<path fill="none" stroke="black" d="M86.24,-288.68C104.69,-270.13 136.43,-239.38 166.34,-216 180.37,-205.03 196.67,-194.06 210.95,-184.97"/>
<polygon fill="black" stroke="black" points="212.94,-187.85 219.55,-179.56 209.22,-181.92 212.94,-187.85"/>
</g>
<!-- hpp&#45;manipulation -->
<g id="node3" class="node">
<title>hpp&#45;manipulation</title>
<g id="a_node3"><a xlink:href="https://github.com/conda-forge/hpp-manipulation-feedstock" xlink:title="hpp manipulation">
<ellipse fill="#fde725" stroke="black" cx="346.34" cy="-234" rx="92.5" ry="18"/>
<text text-anchor="middle" x="346.34" y="-230.3" font-family="Times,serif" font-size="14.00">hpp manipulation</text>
</a>
</g>
</g>
<!-- hpp&#45;core&#45;&gt;hpp&#45;manipulation -->
<g id="edge2" class="edge">
<title>hpp&#45;core&#45;&gt;hpp&#45;manipulation</title>
<path fill="none" stroke="black" d="M110.76,-294.75C155.92,-283.29 229.6,-264.61 282.55,-251.18"/>
<polygon fill="black" stroke="black" points="283.68,-254.5 292.51,-248.65 281.96,-247.72 283.68,-254.5"/>
</g>
<!-- hpp&#45;manipulation&#45;corba -->
<g id="node4" class="node">
<title>hpp&#45;manipulation&#45;corba</title>
<g id="a_node4"><a xlink:href="https://github.com/conda-forge/hpp-manipulation-corba-feedstock" xlink:title="hpp manipulation corba">
<ellipse fill="#fde725" stroke="black" cx="190.34" cy="-90" rx="121" ry="18"/>
<text text-anchor="middle" x="190.34" y="-86.3" font-family="Times,serif" font-size="14.00">hpp manipulation corba</text>
</a>
</g>
</g>
<!-- hpp&#45;core&#45;&gt;hpp&#45;manipulation&#45;corba -->
<g id="edge3" class="edge">
<title>hpp&#45;core&#45;&gt;hpp&#45;manipulation&#45;corba</title>
<path fill="none" stroke="black" d="M67.64,-287.7C63.7,-256.11 59.8,-188.29 90.34,-144 100.26,-129.6 115.38,-118.8 130.88,-110.85"/>
<polygon fill="black" stroke="black" points="132.49,-113.95 140.01,-106.49 129.48,-107.64 132.49,-113.95"/>
</g>
<!-- hpp&#45;gepetto&#45;viewer -->
<g id="node5" class="node">
<title>hpp&#45;gepetto&#45;viewer</title>
<g id="a_node5"><a xlink:href="https://github.com/conda-forge/hpp-gepetto-viewer-feedstock" xlink:title="hpp gepetto viewer">
<ellipse fill="#fde725" stroke="black" cx="396.34" cy="-18" rx="100.98" ry="18"/>
<text text-anchor="middle" x="396.34" y="-14.3" font-family="Times,serif" font-size="14.00">hpp gepetto viewer</text>
</a>
</g>
</g>
<!-- hpp&#45;core&#45;&gt;hpp&#45;gepetto&#45;viewer -->
<g id="edge4" class="edge">
<title>hpp&#45;core&#45;&gt;hpp&#45;gepetto&#45;viewer</title>
<path fill="none" stroke="black" d="M62.75,-288.15C45.07,-246.01 6.54,-134.94 60.34,-72 89.17,-38.26 199.96,-25.87 286.54,-21.39"/>
<polygon fill="black" stroke="black" points="286.89,-24.88 296.7,-20.89 286.54,-17.89 286.89,-24.88"/>
</g>
<!-- hpp&#45;manipulation&#45;urdf&#45;&gt;hpp&#45;manipulation&#45;corba -->
<g id="edge5" class="edge">
<title>hpp&#45;manipulation&#45;urdf&#45;&gt;hpp&#45;manipulation&#45;corba</title>
<path fill="none" stroke="black" d="M233.54,-144.05C226.71,-135.67 218.33,-125.38 210.77,-116.1"/>
<polygon fill="black" stroke="black" points="213.43,-113.82 204.4,-108.28 208,-118.24 213.43,-113.82"/>
</g>
<!-- hpp&#45;manipulation&#45;urdf&#45;&gt;hpp&#45;gepetto&#45;viewer -->
<g id="edge6" class="edge">
<title>hpp&#45;manipulation&#45;urdf&#45;&gt;hpp&#45;gepetto&#45;viewer</title>
<path fill="none" stroke="black" d="M273.48,-144.24C287.93,-134.44 305.84,-121.39 320.34,-108 341.69,-88.27 362.91,-62.79 377.48,-44.15"/>
<polygon fill="black" stroke="black" points="380.35,-46.17 383.69,-36.12 374.81,-41.89 380.35,-46.17"/>
</g>
<!-- hpp&#45;manipulation&#45;&gt;hpp&#45;manipulation&#45;urdf -->
<g id="edge7" class="edge">
<title>hpp&#45;manipulation&#45;&gt;hpp&#45;manipulation&#45;urdf</title>
<path fill="none" stroke="black" d="M322.87,-216.41C309.9,-207.24 293.59,-195.7 279.45,-185.71"/>
<polygon fill="black" stroke="black" points="281.16,-182.63 270.97,-179.71 277.12,-188.34 281.16,-182.63"/>
</g>
<!-- hpp&#45;manipulation&#45;&gt;hpp&#45;manipulation&#45;corba -->
<g id="edge8" class="edge">
<title>hpp&#45;manipulation&#45;&gt;hpp&#45;manipulation&#45;corba</title>
<path fill="none" stroke="black" d="M359.13,-215.99C371.87,-196.79 387.41,-165.45 371.34,-144 359.32,-127.96 317.41,-115.14 276.95,-106.13"/>
<polygon fill="black" stroke="black" points="277.5,-102.67 266.98,-103.98 276.02,-109.51 277.5,-102.67"/>
</g>
<!-- hpp&#45;manipulation&#45;&gt;hpp&#45;gepetto&#45;viewer -->
<g id="edge9" class="edge">
<title>hpp&#45;manipulation&#45;&gt;hpp&#45;gepetto&#45;viewer</title>
<path fill="none" stroke="black" d="M364.23,-216.13C373.19,-206.49 383.21,-193.63 388.34,-180 405.07,-135.52 403.13,-79.21 399.92,-46.34"/>
<polygon fill="black" stroke="black" points="403.37,-45.7 398.81,-36.14 396.41,-46.46 403.37,-45.7"/>
</g>
<!-- hpp&#45;manipulation&#45;corba&#45;&gt;hpp&#45;gepetto&#45;viewer -->
<g id="edge10" class="edge">
<title>hpp&#45;manipulation&#45;corba&#45;&gt;hpp&#45;gepetto&#45;viewer</title>
<path fill="none" stroke="black" d="M236.57,-73.29C267.74,-62.7 309.01,-48.67 341.79,-37.53"/>
<polygon fill="black" stroke="black" points="343.33,-40.71 351.67,-34.18 341.08,-34.08 343.33,-40.71"/>
</g>
<!-- hpp&#45;constraints -->
<g id="node6" class="node">
<title>hpp&#45;constraints</title>
<g id="a_node6"><a xlink:href="https://github.com/conda-forge/hpp-constraints-feedstock" xlink:title="hpp constraints">
<ellipse fill="#fde725" stroke="black" cx="261.34" cy="-378" rx="83.39" ry="18"/>
<text text-anchor="middle" x="261.34" y="-374.3" font-family="Times,serif" font-size="14.00">hpp constraints</text>
</a>
</g>
</g>
<!-- hpp&#45;constraints&#45;&gt;hpp&#45;core -->
<g id="edge11" class="edge">
<title>hpp&#45;constraints&#45;&gt;hpp&#45;core</title>
<path fill="none" stroke="black" d="M220.83,-362.15C189.57,-350.7 146.38,-334.87 114.29,-323.11"/>
<polygon fill="black" stroke="black" points="115.3,-319.75 104.71,-319.6 112.9,-326.33 115.3,-319.75"/>
</g>
<!-- hpp&#45;constraints&#45;&gt;hpp&#45;manipulation&#45;urdf -->
<g id="edge12" class="edge">
<title>hpp&#45;constraints&#45;&gt;hpp&#45;manipulation&#45;urdf</title>
<path fill="none" stroke="black" d="M258.41,-359.68C254.51,-335.61 247.8,-290.65 245.34,-252 244.32,-236.03 245.03,-232 245.34,-216 245.49,-207.68 245.79,-198.63 246.11,-190.4"/>
<polygon fill="black" stroke="black" points="249.61,-190.32 246.52,-180.18 242.62,-190.03 249.61,-190.32"/>
</g>
<!-- hpp&#45;constraints&#45;&gt;hpp&#45;manipulation -->
<g id="edge13" class="edge">
<title>hpp&#45;constraints&#45;&gt;hpp&#45;manipulation</title>
<path fill="none" stroke="black" d="M271.59,-359.87C286.33,-335.24 313.63,-289.64 330.84,-260.88"/>
<polygon fill="black" stroke="black" points="333.91,-262.57 336.05,-252.19 327.91,-258.97 333.91,-262.57"/>
</g>
<!-- hpp&#45;constraints&#45;&gt;hpp&#45;manipulation&#45;corba -->
<g id="edge14" class="edge">
<title>hpp&#45;constraints&#45;&gt;hpp&#45;manipulation&#45;corba</title>
<path fill="none" stroke="black" d="M244.17,-360.28C213.02,-328.59 148.2,-256.12 124.34,-180 119.55,-164.73 117.42,-158.43 124.34,-144 130.21,-131.75 140.45,-121.44 151.13,-113.26"/>
<polygon fill="black" stroke="black" points="153.21,-116.08 159.32,-107.42 149.15,-110.38 153.21,-116.08"/>
</g>
<!-- hpp&#45;constraints&#45;&gt;hpp&#45;gepetto&#45;viewer -->
<g id="edge15" class="edge">
<title>hpp&#45;constraints&#45;&gt;hpp&#45;gepetto&#45;viewer</title>
<path fill="none" stroke="black" d="M316,-364.38C376.73,-346.73 466.34,-308.28 466.34,-235 466.34,-235 466.34,-235 466.34,-161 466.34,-116.36 438.16,-71.2 417.56,-44.16"/>
<polygon fill="black" stroke="black" points="420.11,-41.74 411.18,-36.03 414.6,-46.06 420.11,-41.74"/>
</g>
<!-- hpp&#45;pinocchio -->
<g id="node7" class="node">
<title>hpp&#45;pinocchio</title>
<g id="a_node7"><a xlink:href="https://github.com/conda-forge/hpp-pinocchio-feedstock/pull/6" xlink:title="hpp pinocchio ❎">
<ellipse fill="#31688e" stroke="black" cx="205.34" cy="-450" rx="89.08" ry="18"/>
<text text-anchor="middle" x="205.34" y="-446.3" font-family="Times,serif" font-size="14.00" fill="white">hpp pinocchio ❎</text>
</a>
</g>
</g>
<!-- hpp&#45;pinocchio&#45;&gt;hpp&#45;core -->
<g id="edge16" class="edge">
<title>hpp&#45;pinocchio&#45;&gt;hpp&#45;core</title>
<path fill="none" stroke="black" d="M180.68,-432.61C166.87,-422.83 149.79,-409.68 136.34,-396 117.1,-376.43 98.8,-351.04 86.38,-332.38"/>
<polygon fill="black" stroke="black" points="89.18,-330.27 80.77,-323.82 83.32,-334.11 89.18,-330.27"/>
</g>
<!-- hpp&#45;pinocchio&#45;&gt;hpp&#45;manipulation&#45;urdf -->
<g id="edge17" class="edge">
<title>hpp&#45;pinocchio&#45;&gt;hpp&#45;manipulation&#45;urdf</title>
<path fill="none" stroke="black" d="M190.1,-432.24C182.24,-422.44 173.46,-409.4 169.34,-396 164.63,-380.71 166.34,-375.72 169.34,-360 181.58,-295.82 214.38,-225.86 233.32,-189.04"/>
<polygon fill="black" stroke="black" points="236.52,-190.48 238.04,-179.99 230.32,-187.24 236.52,-190.48"/>
</g>
<!-- hpp&#45;pinocchio&#45;&gt;hpp&#45;manipulation -->
<g id="edge18" class="edge">
<title>hpp&#45;pinocchio&#45;&gt;hpp&#45;manipulation</title>
<path fill="none" stroke="black" d="M280.69,-440.2C308.18,-432.93 336.6,-419.77 353.34,-396 381.29,-356.3 368.13,-296.43 356.75,-261.99"/>
<polygon fill="black" stroke="black" points="359.92,-260.46 353.32,-252.17 353.31,-262.76 359.92,-260.46"/>
</g>
<!-- hpp&#45;pinocchio&#45;&gt;hpp&#45;manipulation&#45;corba -->
<g id="edge19" class="edge">
<title>hpp&#45;pinocchio&#45;&gt;hpp&#45;manipulation&#45;corba</title>
<path fill="none" stroke="black" d="M157.56,-434.72C109.41,-417.38 38.22,-382.88 9.34,-324 -20.06,-264.07 28.11,-185.97 69.34,-144 84.25,-128.81 104.26,-117.67 123.7,-109.64"/>
<polygon fill="black" stroke="black" points="125.13,-112.84 133.17,-105.94 122.59,-106.32 125.13,-112.84"/>
</g>
<!-- hpp&#45;pinocchio&#45;&gt;hpp&#45;gepetto&#45;viewer -->
<g id="edge20" class="edge">
<title>hpp&#45;pinocchio&#45;&gt;hpp&#45;gepetto&#45;viewer</title>
<path fill="none" stroke="black" d="M289.82,-444.11C378.24,-433.88 504.34,-402.54 504.34,-307 504.34,-307 504.34,-307 504.34,-161 504.34,-110.68 460.83,-67.03 429.04,-41.86"/>
<polygon fill="black" stroke="black" points="430.91,-38.87 420.84,-35.56 426.64,-44.43 430.91,-38.87"/>
</g>
<!-- hpp&#45;pinocchio&#45;&gt;hpp&#45;constraints -->
<g id="edge21" class="edge">
<title>hpp&#45;pinocchio&#45;&gt;hpp&#45;constraints</title>
<path fill="none" stroke="black" d="M218.89,-432.05C225.7,-423.54 234.08,-413.07 241.59,-403.68"/>
<polygon fill="black" stroke="black" points="244.39,-405.78 247.9,-395.79 238.92,-401.41 244.39,-405.78"/>
</g>
</g>
</svg>
