<?xml version="1.0" encoding="UTF-8" standalone="no"?>
<!DOCTYPE svg PUBLIC "-//W3C//DTD SVG 1.1//EN"
 "http://www.w3.org/Graphics/SVG/1.1/DTD/svg11.dtd">
<!-- Generated by graphviz version 8.1.0 (20230707.2238)
 -->
<!-- Pages: 1 -->
<svg width="405pt" height="260pt"
 viewBox="0.00 0.00 404.68 260.00" xmlns="http://www.w3.org/2000/svg" xmlns:xlink="http://www.w3.org/1999/xlink">
<g id="graph0" class="graph" transform="scale(1 1) rotate(0) translate(4 256)">
<polygon fill="white" stroke="none" points="-4,4 -4,-256 400.68,-256 400.68,4 -4,4"/>
<!-- hpp&#45;manipulation&#45;urdf -->
<g id="node1" class="node">
<title>hpp&#45;manipulation&#45;urdf</title>
<g id="a_node1"><a xlink:href="https://github.com/conda-forge/hpp-manipulation-urdf-feedstock" xlink:title="hpp manipulation urdf">
<ellipse fill="#fde725" stroke="black" cx="228.12" cy="-162" rx="123.29" ry="18"/>
<text text-anchor="middle" x="228.12" y="-157.32" font-family="Times,serif" font-size="14.00">hpp manipulation urdf</text>
</a>
</g>
</g>
<!-- hpp&#45;manipulation&#45;corba -->
<g id="node3" class="node">
<title>hpp&#45;manipulation&#45;corba</title>
<g id="a_node3"><a xlink:href="https://github.com/conda-forge/hpp-manipulation-corba-feedstock" xlink:title="hpp manipulation corba">
<ellipse fill="#fde725" stroke="black" cx="130.12" cy="-90" rx="130.12" ry="18"/>
<text text-anchor="middle" x="130.12" y="-85.33" font-family="Times,serif" font-size="14.00">hpp manipulation corba</text>
</a>
</g>
</g>
<!-- hpp&#45;manipulation&#45;urdf&#45;&gt;hpp&#45;manipulation&#45;corba -->
<g id="edge2" class="edge">
<title>hpp&#45;manipulation&#45;urdf&#45;&gt;hpp&#45;manipulation&#45;corba</title>
<path fill="none" stroke="black" d="M204.15,-143.88C191.6,-134.91 176.06,-123.81 162.46,-114.09"/>
<polygon fill="black" stroke="black" points="165.02,-110.91 154.85,-107.95 160.95,-116.61 165.02,-110.91"/>
</g>
<!-- hpp&#45;gepetto&#45;viewer -->
<g id="node4" class="node">
<title>hpp&#45;gepetto&#45;viewer</title>
<g id="a_node4"><a xlink:href="https://github.com/conda-forge/hpp-gepetto-viewer-feedstock" xlink:title="hpp gepetto viewer">
<ellipse fill="#fde725" stroke="black" cx="288.12" cy="-18" rx="108.55" ry="18"/>
<text text-anchor="middle" x="288.12" y="-13.32" font-family="Times,serif" font-size="14.00">hpp gepetto viewer</text>
</a>
</g>
</g>
<!-- hpp&#45;manipulation&#45;urdf&#45;&gt;hpp&#45;gepetto&#45;viewer -->
<g id="edge1" class="edge">
<title>hpp&#45;manipulation&#45;urdf&#45;&gt;hpp&#45;gepetto&#45;viewer</title>
<path fill="none" stroke="black" d="M244.74,-143.7C253.24,-133.93 263.05,-121.09 269.12,-108 278.06,-88.74 282.85,-65.19 285.38,-47.15"/>
<polygon fill="black" stroke="black" points="288.95,-47.81 286.71,-37.45 282.01,-46.94 288.95,-47.81"/>
</g>
<!-- hpp&#45;manipulation -->
<g id="node2" class="node">
<title>hpp&#45;manipulation</title>
<g id="a_node2"><a xlink:href="https://github.com/conda-forge/hpp-manipulation-feedstock" xlink:title="hpp manipulation">
<ellipse fill="#ff8c00" stroke="black" cx="228.12" cy="-234" rx="99.08" ry="18"/>
<text text-anchor="middle" x="228.12" y="-229.32" font-family="Times,serif" font-size="14.00">hpp manipulation</text>
</a>
</g>
</g>
<!-- hpp&#45;manipulation&#45;&gt;hpp&#45;manipulation&#45;urdf -->
<g id="edge5" class="edge">
<title>hpp&#45;manipulation&#45;&gt;hpp&#45;manipulation&#45;urdf</title>
<path fill="none" stroke="black" d="M228.12,-215.7C228.12,-208.24 228.12,-199.32 228.12,-190.97"/>
<polygon fill="black" stroke="black" points="231.62,-191.1 228.12,-181.1 224.62,-191.1 231.62,-191.1"/>
</g>
<!-- hpp&#45;manipulation&#45;&gt;hpp&#45;manipulation&#45;corba -->
<g id="edge4" class="edge">
<title>hpp&#45;manipulation&#45;&gt;hpp&#45;manipulation&#45;corba</title>
<path fill="none" stroke="black" d="M157.26,-221.08C133.82,-213.4 110.16,-200.76 96.12,-180 82.99,-160.57 94.84,-135.36 108.02,-116.73"/>
<polygon fill="black" stroke="black" points="111.25,-119.26 114.5,-109.17 105.67,-115.04 111.25,-119.26"/>
</g>
<!-- hpp&#45;manipulation&#45;&gt;hpp&#45;gepetto&#45;viewer -->
<g id="edge3" class="edge">
<title>hpp&#45;manipulation&#45;&gt;hpp&#45;gepetto&#45;viewer</title>
<path fill="none" stroke="black" d="M298.99,-221.08C322.43,-213.4 346.09,-200.76 360.12,-180 390.16,-135.57 345.39,-76.57 314.12,-43.73"/>
<polygon fill="black" stroke="black" points="317.01,-41.67 307.51,-36.98 312.01,-46.57 317.01,-41.67"/>
</g>
<!-- hpp&#45;manipulation&#45;corba&#45;&gt;hpp&#45;gepetto&#45;viewer -->
<g id="edge6" class="edge">
<title>hpp&#45;manipulation&#45;corba&#45;&gt;hpp&#45;gepetto&#45;viewer</title>
<path fill="none" stroke="black" d="M167.57,-72.41C189.69,-62.61 217.88,-50.12 241.44,-39.68"/>
<polygon fill="black" stroke="black" points="242.5,-42.6 250.22,-35.35 239.66,-36.2 242.5,-42.6"/>
</g>
</g>
</svg>
