<?xml version="1.0" encoding="UTF-8" standalone="no"?>
<!DOCTYPE svg PUBLIC "-//W3C//DTD SVG 1.1//EN"
 "http://www.w3.org/Graphics/SVG/1.1/DTD/svg11.dtd">
<!-- Generated by graphviz version 8.1.0 (20230707.2238)
 -->
<!-- Pages: 1 -->
<svg width="1338pt" height="476pt"
 viewBox="0.00 0.00 1337.86 476.00" xmlns="http://www.w3.org/2000/svg" xmlns:xlink="http://www.w3.org/1999/xlink">
<g id="graph0" class="graph" transform="scale(1 1) rotate(0) translate(4 472)">
<polygon fill="white" stroke="none" points="-4,4 -4,-472 1333.86,-472 1333.86,4 -4,4"/>
<!-- gazebo -->
<g id="node1" class="node">
<title>gazebo</title>
<g id="a_node1"><a xlink:href="https://github.com/conda-forge/gazebo-feedstock" xlink:title="gazebo">
<ellipse fill="#fde725" stroke="black" cx="934.5" cy="-234" rx="46.47" ry="18"/>
<text text-anchor="middle" x="934.5" y="-229.32" font-family="Times,serif" font-size="14.00">gazebo</text>
</a>
</g>
</g>
<!-- libignition&#45;physics -->
<g id="node2" class="node">
<title>libignition&#45;physics</title>
<g id="a_node2"><a xlink:href="https://github.com/conda-forge/libignition-physics-feedstock" xlink:title="libignition physics">
<ellipse fill="#fde725" stroke="black" cx="1008.5" cy="-162" rx="102.77" ry="18"/>
<text text-anchor="middle" x="1008.5" y="-157.32" font-family="Times,serif" font-size="14.00">libignition physics</text>
</a>
</g>
</g>
<!-- dartsim -->
<g id="node3" class="node">
<title>dartsim</title>
<g id="a_node3"><a xlink:href="https://github.com/conda-forge/dartsim-feedstock/pull/41" xlink:title="dartsim ❎">
<ellipse fill="#31688e" stroke="black" cx="993.5" cy="-306" rx="65.41" ry="18"/>
<text text-anchor="middle" x="993.5" y="-301.32" font-family="Times,serif" font-size="14.00" fill="white">dartsim ❎</text>
</a>
</g>
</g>
<!-- dartsim&#45;&gt;gazebo -->
<g id="edge1" class="edge">
<title>dartsim&#45;&gt;gazebo</title>
<path fill="none" stroke="black" d="M979.22,-288.05C972.01,-279.5 963.13,-268.97 955.2,-259.56"/>
<polygon fill="black" stroke="black" points="957.36,-257.7 948.24,-252.31 952.01,-262.21 957.36,-257.7"/>
</g>
<!-- dartsim&#45;&gt;libignition&#45;physics -->
<g id="edge2" class="edge">
<title>dartsim&#45;&gt;libignition&#45;physics</title>
<path fill="none" stroke="black" d="M995.34,-287.59C997.88,-263.5 1002.5,-219.75 1005.54,-191.03"/>
<polygon fill="black" stroke="black" points="1009.12,-191.42 1006.69,-181.11 1002.16,-190.69 1009.12,-191.42"/>
</g>
<!-- gz&#45;physics -->
<g id="node4" class="node">
<title>gz&#45;physics</title>
<g id="a_node4"><a xlink:href="https://github.com/conda-forge/gz-physics-feedstock" xlink:title="gz physics">
<ellipse fill="#fde725" stroke="black" cx="1114.5" cy="-234" rx="63.31" ry="18"/>
<text text-anchor="middle" x="1114.5" y="-229.32" font-family="Times,serif" font-size="14.00">gz physics</text>
</a>
</g>
</g>
<!-- dartsim&#45;&gt;gz&#45;physics -->
<g id="edge3" class="edge">
<title>dartsim&#45;&gt;gz&#45;physics</title>
<path fill="none" stroke="black" d="M1020.65,-289.29C1037.62,-279.47 1059.68,-266.71 1078.15,-256.03"/>
<polygon fill="black" stroke="black" points="1079.53,-258.69 1086.43,-250.66 1076.03,-252.63 1079.53,-258.69"/>
</g>
<!-- gepetto&#45;viewer -->
<g id="node5" class="node">
<title>gepetto&#45;viewer</title>
<g id="a_node5"><a xlink:href="https://github.com/conda-forge/gepetto-viewer-feedstock" xlink:title="gepetto viewer">
<ellipse fill="#35b779" stroke="black" cx="152.5" cy="-162" rx="86.46" ry="18"/>
<text text-anchor="middle" x="152.5" y="-157.32" font-family="Times,serif" font-size="14.00">gepetto viewer</text>
</a>
</g>
</g>
<!-- gepetto&#45;viewer&#45;corba -->
<g id="node6" class="node">
<title>gepetto&#45;viewer&#45;corba</title>
<g id="a_node6"><a xlink:href="https://github.com/conda-forge/gepetto-viewer-corba-feedstock" xlink:title="gepetto viewer corba">
<ellipse fill="#fde725" stroke="black" cx="117.5" cy="-90" rx="117.5" ry="18"/>
<text text-anchor="middle" x="117.5" y="-85.33" font-family="Times,serif" font-size="14.00">gepetto viewer corba</text>
</a>
</g>
</g>
<!-- gepetto&#45;viewer&#45;&gt;gepetto&#45;viewer&#45;corba -->
<g id="edge4" class="edge">
<title>gepetto&#45;viewer&#45;&gt;gepetto&#45;viewer&#45;corba</title>
<path fill="none" stroke="black" d="M143.85,-143.7C139.95,-135.9 135.25,-126.51 130.91,-117.83"/>
<polygon fill="black" stroke="black" points="133.65,-116.48 126.05,-109.1 127.39,-119.61 133.65,-116.48"/>
</g>
<!-- hpp&#45;gepetto&#45;viewer -->
<g id="node7" class="node">
<title>hpp&#45;gepetto&#45;viewer</title>
<g id="a_node7"><a xlink:href="https://github.com/conda-forge/hpp-gepetto-viewer-feedstock" xlink:title="hpp gepetto viewer">
<ellipse fill="#fde725" stroke="black" cx="468.5" cy="-18" rx="108.55" ry="18"/>
<text text-anchor="middle" x="468.5" y="-13.32" font-family="Times,serif" font-size="14.00">hpp gepetto viewer</text>
</a>
</g>
</g>
<!-- gepetto&#45;viewer&#45;&gt;hpp&#45;gepetto&#45;viewer -->
<g id="edge5" class="edge">
<title>gepetto&#45;viewer&#45;&gt;hpp&#45;gepetto&#45;viewer</title>
<path fill="none" stroke="black" d="M183.21,-144.82C201.24,-134.91 224.2,-121.55 243.5,-108 263.9,-93.68 264.51,-83.73 286.5,-72 318.07,-55.15 355.65,-43.06 388.45,-34.71"/>
<polygon fill="black" stroke="black" points="389.04,-37.93 397.91,-32.13 387.37,-31.13 389.04,-37.93"/>
</g>
<!-- gepetto&#45;viewer&#45;corba&#45;&gt;hpp&#45;gepetto&#45;viewer -->
<g id="edge6" class="edge">
<title>gepetto&#45;viewer&#45;corba&#45;&gt;hpp&#45;gepetto&#45;viewer</title>
<path fill="none" stroke="black" d="M187.26,-75.09C245.82,-63.41 329.43,-46.73 390.25,-34.6"/>
<polygon fill="black" stroke="black" points="390.83,-37.86 399.95,-32.47 389.46,-30.99 390.83,-37.86"/>
</g>
<!-- panda3d -->
<g id="node8" class="node">
<title>panda3d</title>
<g id="a_node8"><a xlink:href="https://github.com/conda-forge/panda3d-feedstock" xlink:title="panda3d">
<ellipse fill="#35b779" stroke="black" cx="1275.5" cy="-306" rx="54.36" ry="18"/>
<text text-anchor="middle" x="1275.5" y="-301.32" font-family="Times,serif" font-size="14.00">panda3d</text>
</a>
</g>
</g>
<!-- idyntree -->
<g id="node9" class="node">
<title>idyntree</title>
<g id="a_node9"><a xlink:href="https://github.com/conda-forge/idyntree-feedstock" xlink:title="idyntree">
<ellipse fill="#35b779" stroke="black" cx="1275.5" cy="-234" rx="53.31" ry="18"/>
<text text-anchor="middle" x="1275.5" y="-229.32" font-family="Times,serif" font-size="14.00">idyntree</text>
</a>
</g>
</g>
<!-- panda3d&#45;&gt;idyntree -->
<!-- qt&#45;3d -->
<g id="node16" class="node">
<title>qt&#45;3d</title>
<g id="a_node16"><a xlink:href="https://github.com/conda-forge/qt-3d-feedstock" xlink:title="qt 3d">
<ellipse fill="#35b779" stroke="black" cx="1275.5" cy="-162" rx="37.53" ry="18"/>
<text text-anchor="middle" x="1275.5" y="-157.32" font-family="Times,serif" font-size="14.00">qt 3d</text>
</a>
</g>
</g>
<!-- idyntree&#45;&gt;qt&#45;3d -->
<!-- hpp&#45;core -->
<g id="node10" class="node">
<title>hpp&#45;core</title>
<g id="a_node10"><a xlink:href="https://github.com/conda-forge/hpp-core-feedstock" xlink:title="hpp core">
<ellipse fill="#fde725" stroke="black" cx="675.5" cy="-306" rx="54.89" ry="18"/>
<text text-anchor="middle" x="675.5" y="-301.32" font-family="Times,serif" font-size="14.00">hpp core</text>
</a>
</g>
</g>
<!-- hpp&#45;core&#45;&gt;hpp&#45;gepetto&#45;viewer -->
<g id="edge8" class="edge">
<title>hpp&#45;core&#45;&gt;hpp&#45;gepetto&#45;viewer</title>
<path fill="none" stroke="black" d="M694.45,-288.67C739.19,-248.21 843.35,-141.54 784.5,-72 758.88,-41.72 663.75,-28.73 584.5,-23.16"/>
<polygon fill="black" stroke="black" points="585.14,-19.63 574.93,-22.46 584.68,-26.62 585.14,-19.63"/>
</g>
<!-- hpp&#45;manipulation&#45;urdf -->
<g id="node11" class="node">
<title>hpp&#45;manipulation&#45;urdf</title>
<g id="a_node11"><a xlink:href="https://github.com/conda-forge/hpp-manipulation-urdf-feedstock" xlink:title="hpp manipulation urdf">
<ellipse fill="#fde725" stroke="black" cx="451.5" cy="-162" rx="123.29" ry="18"/>
<text text-anchor="middle" x="451.5" y="-157.32" font-family="Times,serif" font-size="14.00">hpp manipulation urdf</text>
</a>
</g>
</g>
<!-- hpp&#45;core&#45;&gt;hpp&#45;manipulation&#45;urdf -->
<g id="edge9" class="edge">
<title>hpp&#45;core&#45;&gt;hpp&#45;manipulation&#45;urdf</title>
<path fill="none" stroke="black" d="M622.54,-300.94C583.25,-295.44 530.48,-282.48 494.5,-252 475.91,-236.26 464.72,-210.61 458.43,-190.89"/>
<polygon fill="black" stroke="black" points="461.52,-189.97 455.35,-181.36 454.8,-191.94 461.52,-189.97"/>
</g>
<!-- hpp&#45;manipulation -->
<g id="node12" class="node">
<title>hpp&#45;manipulation</title>
<g id="a_node12"><a xlink:href="https://github.com/conda-forge/hpp-manipulation-feedstock" xlink:title="hpp manipulation">
<ellipse fill="#fde725" stroke="black" cx="602.5" cy="-234" rx="99.08" ry="18"/>
<text text-anchor="middle" x="602.5" y="-229.32" font-family="Times,serif" font-size="14.00">hpp manipulation</text>
</a>
</g>
</g>
<!-- hpp&#45;core&#45;&gt;hpp&#45;manipulation -->
<g id="edge10" class="edge">
<title>hpp&#45;core&#45;&gt;hpp&#45;manipulation</title>
<path fill="none" stroke="black" d="M658.57,-288.76C649.53,-280.1 638.21,-269.25 628.12,-259.57"/>
<polygon fill="black" stroke="black" points="631,-257.52 621.36,-253.12 626.15,-262.57 631,-257.52"/>
</g>
<!-- hpp&#45;manipulation&#45;corba -->
<g id="node13" class="node">
<title>hpp&#45;manipulation&#45;corba</title>
<g id="a_node13"><a xlink:href="https://github.com/conda-forge/hpp-manipulation-corba-feedstock" xlink:title="hpp manipulation corba">
<ellipse fill="#fde725" stroke="black" cx="645.5" cy="-90" rx="130.13" ry="18"/>
<text text-anchor="middle" x="645.5" y="-85.33" font-family="Times,serif" font-size="14.00">hpp manipulation corba</text>
</a>
</g>
</g>
<!-- hpp&#45;core&#45;&gt;hpp&#45;manipulation&#45;corba -->
<g id="edge11" class="edge">
<title>hpp&#45;core&#45;&gt;hpp&#45;manipulation&#45;corba</title>
<path fill="none" stroke="black" d="M689.95,-288.64C697.69,-278.77 706.44,-265.52 710.5,-252 715.1,-236.68 714.3,-231.54 710.5,-216 701.52,-179.29 679.71,-141.37 663.82,-117.06"/>
<polygon fill="black" stroke="black" points="666.32,-115.5 657.85,-109.13 660.5,-119.39 666.32,-115.5"/>
</g>
<!-- hpp&#45;manipulation&#45;urdf&#45;&gt;hpp&#45;gepetto&#45;viewer -->
<g id="edge12" class="edge">
<title>hpp&#45;manipulation&#45;urdf&#45;&gt;hpp&#45;gepetto&#45;viewer</title>
<path fill="none" stroke="black" d="M453.58,-143.59C456.48,-119.4 461.75,-75.36 465.19,-46.65"/>
<polygon fill="black" stroke="black" points="468.74,-47.46 466.45,-37.11 461.79,-46.62 468.74,-47.46"/>
</g>
<!-- hpp&#45;manipulation&#45;urdf&#45;&gt;hpp&#45;manipulation&#45;corba -->
<g id="edge13" class="edge">
<title>hpp&#45;manipulation&#45;urdf&#45;&gt;hpp&#45;manipulation&#45;corba</title>
<path fill="none" stroke="black" d="M496.01,-144.94C523.92,-134.87 560.15,-121.8 589.94,-111.05"/>
<polygon fill="black" stroke="black" points="590.97,-114.04 599.19,-107.35 588.59,-107.45 590.97,-114.04"/>
</g>
<!-- hpp&#45;manipulation&#45;&gt;hpp&#45;gepetto&#45;viewer -->
<g id="edge14" class="edge">
<title>hpp&#45;manipulation&#45;&gt;hpp&#45;gepetto&#45;viewer</title>
<path fill="none" stroke="black" d="M603.16,-215.7C603,-196.23 599.92,-164.65 583.5,-144 559.98,-114.43 532.76,-135.16 506.5,-108 490.2,-91.14 480.37,-66.2 474.81,-47.01"/>
<polygon fill="black" stroke="black" points="477.96,-46.24 472.01,-37.48 471.2,-48.04 477.96,-46.24"/>
</g>
<!-- hpp&#45;manipulation&#45;&gt;hpp&#45;manipulation&#45;urdf -->
<g id="edge15" class="edge">
<title>hpp&#45;manipulation&#45;&gt;hpp&#45;manipulation&#45;urdf</title>
<path fill="none" stroke="black" d="M567.48,-216.76C546.53,-207.05 519.68,-194.61 497.09,-184.14"/>
<polygon fill="black" stroke="black" points="498.92,-180.66 488.38,-179.63 495.98,-187.01 498.92,-180.66"/>
</g>
<!-- hpp&#45;manipulation&#45;&gt;hpp&#45;manipulation&#45;corba -->
<g id="edge16" class="edge">
<title>hpp&#45;manipulation&#45;&gt;hpp&#45;manipulation&#45;corba</title>
<path fill="none" stroke="black" d="M607.77,-215.59C615.13,-191.29 628.55,-146.97 637.24,-118.27"/>
<polygon fill="black" stroke="black" points="640.77,-119.7 640.32,-109.11 634.07,-117.67 640.77,-119.7"/>
</g>
<!-- hpp&#45;manipulation&#45;corba&#45;&gt;hpp&#45;gepetto&#45;viewer -->
<g id="edge17" class="edge">
<title>hpp&#45;manipulation&#45;corba&#45;&gt;hpp&#45;gepetto&#45;viewer</title>
<path fill="none" stroke="black" d="M604,-72.59C578.63,-62.56 546,-49.65 519.12,-39.02"/>
<polygon fill="black" stroke="black" points="520.71,-35.49 510.13,-35.07 518.14,-42 520.71,-35.49"/>
</g>
<!-- hpp&#45;constraints -->
<g id="node14" class="node">
<title>hpp&#45;constraints</title>
<g id="a_node14"><a xlink:href="https://github.com/conda-forge/hpp-constraints-feedstock" xlink:title="hpp constraints">
<ellipse fill="#fde725" stroke="black" cx="574.5" cy="-378" rx="89.61" ry="18"/>
<text text-anchor="middle" x="574.5" y="-373.32" font-family="Times,serif" font-size="14.00">hpp constraints</text>
</a>
</g>
</g>
<!-- hpp&#45;constraints&#45;&gt;hpp&#45;gepetto&#45;viewer -->
<g id="edge18" class="edge">
<title>hpp&#45;constraints&#45;&gt;hpp&#45;gepetto&#45;viewer</title>
<path fill="none" stroke="black" d="M660.05,-372.23C696.38,-365.81 736.3,-352.2 762.5,-324 839.87,-240.69 880.4,-158.4 806.5,-72 778.31,-39.05 672.33,-26.44 586.46,-21.7"/>
<polygon fill="black" stroke="black" points="586.73,-18.15 576.56,-21.13 586.37,-25.14 586.73,-18.15"/>
</g>
<!-- hpp&#45;constraints&#45;&gt;hpp&#45;core -->
<g id="edge19" class="edge">
<title>hpp&#45;constraints&#45;&gt;hpp&#45;core</title>
<path fill="none" stroke="black" d="M598.69,-360.23C612.32,-350.79 629.49,-338.88 644.15,-328.73"/>
<polygon fill="black" stroke="black" points="645.66,-331.24 651.89,-322.67 641.67,-325.49 645.66,-331.24"/>
</g>
<!-- hpp&#45;constraints&#45;&gt;hpp&#45;manipulation&#45;urdf -->
<g id="edge20" class="edge">
<title>hpp&#45;constraints&#45;&gt;hpp&#45;manipulation&#45;urdf</title>
<path fill="none" stroke="black" d="M554.2,-360.34C528.93,-338.36 486.56,-297.14 465.5,-252 456.56,-232.84 453.16,-209.1 451.94,-190.96"/>
<polygon fill="black" stroke="black" points="455.4,-191.04 451.42,-181.21 448.4,-191.37 455.4,-191.04"/>
</g>
<!-- hpp&#45;constraints&#45;&gt;hpp&#45;manipulation -->
<g id="edge21" class="edge">
<title>hpp&#45;constraints&#45;&gt;hpp&#45;manipulation</title>
<path fill="none" stroke="black" d="M577.93,-359.59C582.7,-335.4 591.38,-291.36 597.05,-262.65"/>
<polygon fill="black" stroke="black" points="600.62,-263.6 599.12,-253.11 593.76,-262.24 600.62,-263.6"/>
</g>
<!-- hpp&#45;constraints&#45;&gt;hpp&#45;manipulation&#45;corba -->
<g id="edge22" class="edge">
<title>hpp&#45;constraints&#45;&gt;hpp&#45;manipulation&#45;corba</title>
<path fill="none" stroke="black" d="M656.98,-370.67C688,-363.79 720.35,-350.26 739.5,-324 787.51,-258.15 748.32,-212.71 704.5,-144 697.57,-133.14 687.82,-123.13 678.24,-114.81"/>
<polygon fill="black" stroke="black" points="680.88,-111.62 670.94,-107.95 676.42,-117.02 680.88,-111.62"/>
</g>
<!-- hpp&#45;pinocchio -->
<g id="node15" class="node">
<title>hpp&#45;pinocchio</title>
<g id="a_node15"><a xlink:href="https://github.com/conda-forge/hpp-pinocchio-feedstock" xlink:title="hpp pinocchio">
<ellipse fill="#35b779" stroke="black" cx="519.5" cy="-450" rx="80.67" ry="18"/>
<text text-anchor="middle" x="519.5" y="-445.32" font-family="Times,serif" font-size="14.00">hpp pinocchio</text>
</a>
</g>
</g>
<!-- hpp&#45;pinocchio&#45;&gt;hpp&#45;gepetto&#45;viewer -->
<g id="edge23" class="edge">
<title>hpp&#45;pinocchio&#45;&gt;hpp&#45;gepetto&#45;viewer</title>
<path fill="none" stroke="black" d="M460.52,-437.41C395.66,-420.82 300.5,-383.47 300.5,-307 300.5,-307 300.5,-307 300.5,-161 300.5,-100.62 364.58,-60.66 413.59,-38.92"/>
<polygon fill="black" stroke="black" points="414.66,-41.84 422.48,-34.69 411.91,-35.41 414.66,-41.84"/>
</g>
<!-- hpp&#45;pinocchio&#45;&gt;hpp&#45;core -->
<g id="edge24" class="edge">
<title>hpp&#45;pinocchio&#45;&gt;hpp&#45;core</title>
<path fill="none" stroke="black" d="M592.33,-442.01C622.44,-435.15 654.65,-421.8 673.5,-396 686.17,-378.66 685.67,-353.92 682.57,-334.93"/>
<polygon fill="black" stroke="black" points="685.83,-334.37 680.46,-325.23 678.96,-335.72 685.83,-334.37"/>
</g>
<!-- hpp&#45;pinocchio&#45;&gt;hpp&#45;manipulation&#45;urdf -->
<g id="edge25" class="edge">
<title>hpp&#45;pinocchio&#45;&gt;hpp&#45;manipulation&#45;urdf</title>
<path fill="none" stroke="black" d="M497.22,-432.32C486.37,-422.91 474.24,-410.21 467.5,-396 435.34,-328.27 441.29,-236.83 447.07,-191.26"/>
<polygon fill="black" stroke="black" points="450.67,-191.83 448.56,-181.45 443.73,-190.88 450.67,-191.83"/>
</g>
<!-- hpp&#45;pinocchio&#45;&gt;hpp&#45;manipulation -->
<g id="edge26" class="edge">
<title>hpp&#45;pinocchio&#45;&gt;hpp&#45;manipulation</title>
<path fill="none" stroke="black" d="M500.48,-432.38C491.01,-422.82 480.53,-409.95 475.5,-396 470.07,-380.95 469.32,-374.76 475.5,-360 493.88,-316.11 536.02,-279.83 566.74,-257.87"/>
<polygon fill="black" stroke="black" points="568.26,-260.38 574.46,-251.79 564.26,-254.63 568.26,-260.38"/>
</g>
<!-- hpp&#45;pinocchio&#45;&gt;hpp&#45;manipulation&#45;corba -->
<g id="edge27" class="edge">
<title>hpp&#45;pinocchio&#45;&gt;hpp&#45;manipulation&#45;corba</title>
<path fill="none" stroke="black" d="M583.22,-438.64C644.17,-424.73 731.29,-393.2 762.5,-324 795.9,-249.93 785.85,-203.48 730.5,-144 719.24,-131.9 704.62,-121.47 690.69,-113.15"/>
<polygon fill="black" stroke="black" points="692.62,-109.66 682.2,-107.73 689.15,-115.73 692.62,-109.66"/>
</g>
<!-- hpp&#45;pinocchio&#45;&gt;hpp&#45;constraints -->
<g id="edge28" class="edge">
<title>hpp&#45;pinocchio&#45;&gt;hpp&#45;constraints</title>
<path fill="none" stroke="black" d="M532.81,-432.05C539.27,-423.84 547.16,-413.79 554.34,-404.66"/>
<polygon fill="black" stroke="black" points="557.5,-407.3 560.92,-397.28 551.99,-402.98 557.5,-407.3"/>
</g>
<!-- gz&#45;common -->
<g id="node17" class="node">
<title>gz&#45;common</title>
<g id="a_node17"><a xlink:href="https://github.com/conda-forge/gz-common-feedstock" xlink:title="gz common">
<ellipse fill="#35b779" stroke="black" cx="1144.5" cy="-306" rx="68.04" ry="18"/>
<text text-anchor="middle" x="1144.5" y="-301.32" font-family="Times,serif" font-size="14.00">gz common</text>
</a>
</g>
</g>
<!-- gz&#45;common&#45;&gt;gz&#45;physics -->
<g id="edge30" class="edge">
<title>gz&#45;common&#45;&gt;gz&#45;physics</title>
<path fill="none" stroke="black" d="M1137.08,-287.7C1133.78,-279.98 1129.8,-270.71 1126.12,-262.11"/>
<polygon fill="black" stroke="black" points="1128.98,-260.92 1121.83,-253.1 1122.55,-263.67 1128.98,-260.92"/>
</g>
</g>
</svg>
