<?xml version="1.0" encoding="UTF-8" standalone="no"?>
<!DOCTYPE svg PUBLIC "-//W3C//DTD SVG 1.1//EN"
 "http://www.w3.org/Graphics/SVG/1.1/DTD/svg11.dtd">
<!-- Generated by graphviz version 8.1.0 (20230707.2238)
 -->
<!-- Pages: 1 -->
<svg width="439pt" height="404pt"
 viewBox="0.00 0.00 439.37 404.00" xmlns="http://www.w3.org/2000/svg" xmlns:xlink="http://www.w3.org/1999/xlink">
<g id="graph0" class="graph" transform="scale(1 1) rotate(0) translate(4 400)">
<polygon fill="white" stroke="none" points="-4,4 -4,-400 435.37,-400 435.37,4 -4,4"/>
<!-- hpp&#45;core -->
<g id="node1" class="node">
<title>hpp&#45;core</title>
<g id="a_node1"><a xlink:href="https://github.com/conda-forge/hpp-core-feedstock" xlink:title="hpp core">
<ellipse fill="#fde725" stroke="black" cx="82.81" cy="-306" rx="54.89" ry="18"/>
<text text-anchor="middle" x="82.81" y="-301.32" font-family="Times,serif" font-size="14.00">hpp core</text>
</a>
</g>
</g>
<!-- hpp&#45;manipulation&#45;urdf -->
<g id="node2" class="node">
<title>hpp&#45;manipulation&#45;urdf</title>
<g id="a_node2"><a xlink:href="https://github.com/conda-forge/hpp-manipulation-urdf-feedstock" xlink:title="hpp manipulation urdf">
<ellipse fill="#fde725" stroke="black" cx="233.81" cy="-162" rx="123.29" ry="18"/>
<text text-anchor="middle" x="233.81" y="-157.32" font-family="Times,serif" font-size="14.00">hpp manipulation urdf</text>
</a>
</g>
</g>
<!-- hpp&#45;core&#45;&gt;hpp&#45;manipulation&#45;urdf -->
<g id="edge4" class="edge">
<title>hpp&#45;core&#45;&gt;hpp&#45;manipulation&#45;urdf</title>
<path fill="none" stroke="black" d="M81.95,-287.53C81.91,-267.91 84.82,-236.19 101.81,-216 115.29,-199.99 134.3,-188.77 153.72,-180.93"/>
<polygon fill="black" stroke="black" points="154.74,-183.91 162.88,-177.13 152.28,-177.35 154.74,-183.91"/>
</g>
<!-- hpp&#45;manipulation -->
<g id="node3" class="node">
<title>hpp&#45;manipulation</title>
<g id="a_node3"><a xlink:href="https://github.com/conda-forge/hpp-manipulation-feedstock" xlink:title="hpp manipulation">
<ellipse fill="#fde725" stroke="black" cx="209.81" cy="-234" rx="99.08" ry="18"/>
<text text-anchor="middle" x="209.81" y="-229.32" font-family="Times,serif" font-size="14.00">hpp manipulation</text>
</a>
</g>
</g>
<!-- hpp&#45;core&#45;&gt;hpp&#45;manipulation -->
<g id="edge2" class="edge">
<title>hpp&#45;core&#45;&gt;hpp&#45;manipulation</title>
<path fill="none" stroke="black" d="M110.06,-289.98C127.64,-280.29 150.8,-267.53 170.38,-256.74"/>
<polygon fill="black" stroke="black" points="171.88,-259.35 178.95,-251.46 168.5,-253.22 171.88,-259.35"/>
</g>
<!-- hpp&#45;manipulation&#45;corba -->
<g id="node5" class="node">
<title>hpp&#45;manipulation&#45;corba</title>
<g id="a_node5"><a xlink:href="https://github.com/conda-forge/hpp-manipulation-corba-feedstock" xlink:title="hpp manipulation corba">
<ellipse fill="#fde725" stroke="black" cx="164.81" cy="-90" rx="130.12" ry="18"/>
<text text-anchor="middle" x="164.81" y="-85.33" font-family="Times,serif" font-size="14.00">hpp manipulation corba</text>
</a>
</g>
</g>
<!-- hpp&#45;core&#45;&gt;hpp&#45;manipulation&#45;corba -->
<g id="edge3" class="edge">
<title>hpp&#45;core&#45;&gt;hpp&#45;manipulation&#45;corba</title>
<path fill="none" stroke="black" d="M78.88,-287.96C72.68,-256.81 63.99,-189.66 91.81,-144 99.14,-131.97 110.34,-121.85 121.77,-113.78"/>
<polygon fill="black" stroke="black" points="123.5,-116.18 129.92,-107.76 119.65,-110.33 123.5,-116.18"/>
</g>
<!-- hpp&#45;gepetto&#45;viewer -->
<g id="node6" class="node">
<title>hpp&#45;gepetto&#45;viewer</title>
<g id="a_node6"><a xlink:href="https://github.com/conda-forge/hpp-gepetto-viewer-feedstock" xlink:title="hpp gepetto viewer">
<ellipse fill="#fde725" stroke="black" cx="322.81" cy="-18" rx="108.55" ry="18"/>
<text text-anchor="middle" x="322.81" y="-13.32" font-family="Times,serif" font-size="14.00">hpp gepetto viewer</text>
</a>
</g>
</g>
<!-- hpp&#45;core&#45;&gt;hpp&#45;gepetto&#45;viewer -->
<g id="edge1" class="edge">
<title>hpp&#45;core&#45;&gt;hpp&#45;gepetto&#45;viewer</title>
<path fill="none" stroke="black" d="M69.96,-288.13C39.85,-246.42 -28.73,-137.13 25.81,-72 49.25,-44.01 135.22,-30.79 208.68,-24.55"/>
<polygon fill="black" stroke="black" points="208.73,-27.98 218.42,-23.68 208.17,-21 208.73,-27.98"/>
</g>
<!-- hpp&#45;manipulation&#45;urdf&#45;&gt;hpp&#45;manipulation&#45;corba -->
<g id="edge6" class="edge">
<title>hpp&#45;manipulation&#45;urdf&#45;&gt;hpp&#45;manipulation&#45;corba</title>
<path fill="none" stroke="black" d="M216.76,-143.7C208.49,-135.3 198.4,-125.07 189.32,-115.86"/>
<polygon fill="black" stroke="black" points="192.19,-113.77 182.67,-109.1 187.2,-118.68 192.19,-113.77"/>
</g>
<!-- hpp&#45;manipulation&#45;urdf&#45;&gt;hpp&#45;gepetto&#45;viewer -->
<g id="edge5" class="edge">
<title>hpp&#45;manipulation&#45;urdf&#45;&gt;hpp&#45;gepetto&#45;viewer</title>
<path fill="none" stroke="black" d="M265.21,-144.17C279.06,-135.2 294.32,-122.92 303.81,-108 315.4,-89.78 320.03,-65.66 321.83,-47.12"/>
<polygon fill="black" stroke="black" points="325.38,-47.63 322.62,-37.4 318.4,-47.12 325.38,-47.63"/>
</g>
<!-- hpp&#45;manipulation&#45;&gt;hpp&#45;manipulation&#45;urdf -->
<g id="edge9" class="edge">
<title>hpp&#45;manipulation&#45;&gt;hpp&#45;manipulation&#45;urdf</title>
<path fill="none" stroke="black" d="M215.75,-215.7C218.36,-208.07 221.5,-198.92 224.42,-190.4"/>
<polygon fill="black" stroke="black" points="228.02,-191.7 227.95,-181.1 221.4,-189.43 228.02,-191.7"/>
</g>
<!-- hpp&#45;manipulation&#45;&gt;hpp&#45;manipulation&#45;corba -->
<g id="edge8" class="edge">
<title>hpp&#45;manipulation&#45;&gt;hpp&#45;manipulation&#45;corba</title>
<path fill="none" stroke="black" d="M153.52,-218.86C133.67,-210.87 113.41,-198.61 101.81,-180 93.35,-166.42 95.06,-158.51 101.81,-144 107.18,-132.47 116.42,-122.56 126.2,-114.53"/>
<polygon fill="black" stroke="black" points="128,-116.8 133.85,-107.96 123.76,-111.22 128,-116.8"/>
</g>
<!-- hpp&#45;manipulation&#45;&gt;hpp&#45;gepetto&#45;viewer -->
<g id="edge7" class="edge">
<title>hpp&#45;manipulation&#45;&gt;hpp&#45;gepetto&#45;viewer</title>
<path fill="none" stroke="black" d="M293.62,-224.07C321.16,-216.69 348.99,-203.49 365.81,-180 395.23,-138.94 364.52,-79 342.02,-45.03"/>
<polygon fill="black" stroke="black" points="344.49,-43.45 335.95,-37.18 338.72,-47.41 344.49,-43.45"/>
</g>
<!-- hpp&#45;constraints -->
<g id="node4" class="node">
<title>hpp&#45;constraints</title>
<g id="a_node4"><a xlink:href="https://github.com/conda-forge/hpp-constraints-feedstock" xlink:title="hpp constraints">
<ellipse fill="#35b779" stroke="black" cx="209.81" cy="-378" rx="89.61" ry="18"/>
<text text-anchor="middle" x="209.81" y="-373.32" font-family="Times,serif" font-size="14.00">hpp constraints</text>
</a>
</g>
</g>
<!-- hpp&#45;constraints&#45;&gt;hpp&#45;core -->
<g id="edge10" class="edge">
<title>hpp&#45;constraints&#45;&gt;hpp&#45;core</title>
<path fill="none" stroke="black" d="M180.04,-360.59C161.85,-350.56 138.46,-337.67 119.18,-327.05"/>
<polygon fill="black" stroke="black" points="121.25,-323.64 110.81,-321.88 117.88,-329.77 121.25,-323.64"/>
</g>
<!-- hpp&#45;constraints&#45;&gt;hpp&#45;manipulation&#45;urdf -->
<g id="edge14" class="edge">
<title>hpp&#45;constraints&#45;&gt;hpp&#45;manipulation&#45;urdf</title>
<path fill="none" stroke="black" d="M231.51,-360.39C257.77,-338.77 300.61,-298.23 317.81,-252 323.39,-237 325.54,-230.01 317.81,-216 310.58,-202.88 298.57,-192.56 285.87,-184.65"/>
<polygon fill="black" stroke="black" points="287.98,-181.25 277.56,-179.31 284.5,-187.32 287.98,-181.25"/>
</g>
<!-- hpp&#45;constraints&#45;&gt;hpp&#45;manipulation -->
<g id="edge12" class="edge">
<title>hpp&#45;constraints&#45;&gt;hpp&#45;manipulation</title>
<path fill="none" stroke="black" d="M209.81,-359.59C209.81,-335.5 209.81,-291.75 209.81,-263.03"/>
<polygon fill="black" stroke="black" points="213.31,-263.11 209.81,-253.11 206.31,-263.11 213.31,-263.11"/>
</g>
<!-- hpp&#45;constraints&#45;&gt;hpp&#45;manipulation&#45;corba -->
<g id="edge13" class="edge">
<title>hpp&#45;constraints&#45;&gt;hpp&#45;manipulation&#45;corba</title>
<path fill="none" stroke="black" d="M139.48,-366.54C91.36,-357.78 33.68,-343.55 18.81,-324 -17.26,-276.56 -1.59,-232.78 73.81,-144 84.79,-131.08 99.74,-120.57 114.36,-112.42"/>
<polygon fill="black" stroke="black" points="115.66,-115.16 122.87,-107.4 112.39,-108.97 115.66,-115.16"/>
</g>
<!-- hpp&#45;constraints&#45;&gt;hpp&#45;gepetto&#45;viewer -->
<g id="edge11" class="edge">
<title>hpp&#45;constraints&#45;&gt;hpp&#45;gepetto&#45;viewer</title>
<path fill="none" stroke="black" d="M269.71,-364.2C332.71,-346.81 422.81,-309 422.81,-235 422.81,-235 422.81,-235 422.81,-161 422.81,-112.43 383.21,-68.75 353.85,-43.05"/>
<polygon fill="black" stroke="black" points="356.4,-39.77 346.51,-35.97 351.87,-45.11 356.4,-39.77"/>
</g>
<!-- hpp&#45;manipulation&#45;corba&#45;&gt;hpp&#45;gepetto&#45;viewer -->
<g id="edge15" class="edge">
<title>hpp&#45;manipulation&#45;corba&#45;&gt;hpp&#45;gepetto&#45;viewer</title>
<path fill="none" stroke="black" d="M202.26,-72.41C224.38,-62.61 252.57,-50.12 276.13,-39.68"/>
<polygon fill="black" stroke="black" points="277.19,-42.6 284.91,-35.35 274.35,-36.2 277.19,-42.6"/>
</g>
</g>
</svg>
