<?xml version="1.0" encoding="UTF-8" standalone="no"?>
<!DOCTYPE svg PUBLIC "-//W3C//DTD SVG 1.1//EN"
 "http://www.w3.org/Graphics/SVG/1.1/DTD/svg11.dtd">
<!-- Generated by graphviz version 7.1.0 (20230122.1345)
 -->
<!-- Pages: 1 -->
<svg width="319pt" height="260pt"
 viewBox="0.00 0.00 318.53 260.00" xmlns="http://www.w3.org/2000/svg" xmlns:xlink="http://www.w3.org/1999/xlink">
<g id="graph0" class="graph" transform="scale(1 1) rotate(0) translate(4 256)">
<polygon fill="white" stroke="none" points="-4,4 -4,-256 314.53,-256 314.53,4 -4,4"/>
<!-- aws&#45;sdk&#45;cpp -->
<g id="node1" class="node">
<title>aws&#45;sdk&#45;cpp</title>
<g id="a_node1"><a xlink:href="https://github.com/conda-forge/aws-sdk-cpp-feedstock" xlink:title="aws sdk cpp">
<ellipse fill="#fde725" stroke="black" cx="74.74" cy="-18" rx="67.69" ry="18"/>
<text text-anchor="middle" x="74.74" y="-14.3" font-family="Times,serif" font-size="14.00">aws sdk cpp</text>
</a>
</g>
</g>
<!-- aws&#45;c&#45;mqtt -->
<g id="node2" class="node">
<title>aws&#45;c&#45;mqtt</title>
<g id="a_node2"><a xlink:href="https://github.com/conda-forge/aws-c-mqtt-feedstock/pull/121" xlink:title="aws c mqtt ❎">
<ellipse fill="#31688e" stroke="black" cx="218.74" cy="-162" rx="76.09" ry="18"/>
<text text-anchor="middle" x="218.74" y="-158.3" font-family="Times,serif" font-size="14.00" fill="white">aws c mqtt ❎</text>
</a>
</g>
</g>
<!-- aws&#45;crt&#45;cpp -->
<g id="node4" class="node">
<title>aws&#45;crt&#45;cpp</title>
<g id="a_node4"><a xlink:href="https://github.com/conda-forge/aws-crt-cpp-feedstock" xlink:title="aws crt cpp">
<ellipse fill="#fde725" stroke="black" cx="74.74" cy="-90" rx="64.19" ry="18"/>
<text text-anchor="middle" x="74.74" y="-86.3" font-family="Times,serif" font-size="14.00">aws crt cpp</text>
</a>
</g>
</g>
<!-- aws&#45;c&#45;mqtt&#45;&gt;aws&#45;crt&#45;cpp -->
<g id="edge1" class="edge">
<title>aws&#45;c&#45;mqtt&#45;&gt;aws&#45;crt&#45;cpp</title>
<path fill="none" stroke="black" d="M186.43,-145.29C165.67,-135.2 138.51,-122 116.17,-111.14"/>
<polygon fill="black" stroke="black" points="117.85,-108.06 107.32,-106.84 114.79,-114.36 117.85,-108.06"/>
</g>
<!-- awscrt -->
<g id="node6" class="node">
<title>awscrt</title>
<g id="a_node6"><a xlink:href="https://github.com/conda-forge/awscrt-feedstock" xlink:title="awscrt">
<ellipse fill="#fde725" stroke="black" cx="218.74" cy="-90" rx="42.49" ry="18"/>
<text text-anchor="middle" x="218.74" y="-86.3" font-family="Times,serif" font-size="14.00">awscrt</text>
</a>
</g>
</g>
<!-- aws&#45;c&#45;mqtt&#45;&gt;awscrt -->
<g id="edge2" class="edge">
<title>aws&#45;c&#45;mqtt&#45;&gt;awscrt</title>
<path fill="none" stroke="black" d="M218.74,-143.7C218.74,-136.41 218.74,-127.73 218.74,-119.54"/>
<polygon fill="black" stroke="black" points="222.24,-119.62 218.74,-109.62 215.24,-119.62 222.24,-119.62"/>
</g>
<!-- aws&#45;c&#45;auth -->
<g id="node3" class="node">
<title>aws&#45;c&#45;auth</title>
<g id="a_node3"><a xlink:href="https://github.com/conda-forge/aws-c-auth-feedstock/pull/145" xlink:title="aws c auth ❎">
<ellipse fill="#31688e" stroke="black" cx="74.74" cy="-234" rx="74.99" ry="18"/>
<text text-anchor="middle" x="74.74" y="-230.3" font-family="Times,serif" font-size="14.00" fill="white">aws c auth ❎</text>
</a>
</g>
</g>
<!-- aws&#45;c&#45;auth&#45;&gt;aws&#45;crt&#45;cpp -->
<g id="edge4" class="edge">
<title>aws&#45;c&#45;auth&#45;&gt;aws&#45;crt&#45;cpp</title>
<path fill="none" stroke="black" d="M48.18,-216.8C35.86,-207.68 22.47,-195.09 15.74,-180 9.23,-165.39 9.23,-158.61 15.74,-144 20.98,-132.25 30.25,-122.02 39.91,-113.77"/>
<polygon fill="black" stroke="black" points="41.93,-116.64 47.61,-107.69 37.59,-111.14 41.93,-116.64"/>
</g>
<!-- aws&#45;c&#45;s3 -->
<g id="node5" class="node">
<title>aws&#45;c&#45;s3</title>
<g id="a_node5"><a xlink:href="https://github.com/conda-forge/aws-c-s3-feedstock" xlink:title="aws c s3">
<ellipse fill="#fde725" stroke="black" cx="74.74" cy="-162" rx="50.09" ry="18"/>
<text text-anchor="middle" x="74.74" y="-158.3" font-family="Times,serif" font-size="14.00">aws c s3</text>
</a>
</g>
</g>
<!-- aws&#45;c&#45;auth&#45;&gt;aws&#45;c&#45;s3 -->
<g id="edge3" class="edge">
<title>aws&#45;c&#45;auth&#45;&gt;aws&#45;c&#45;s3</title>
<path fill="none" stroke="black" d="M74.74,-215.7C74.74,-208.41 74.74,-199.73 74.74,-191.54"/>
<polygon fill="black" stroke="black" points="78.24,-191.62 74.74,-181.62 71.24,-191.62 78.24,-191.62"/>
</g>
<!-- aws&#45;c&#45;auth&#45;&gt;awscrt -->
<g id="edge5" class="edge">
<title>aws&#45;c&#45;auth&#45;&gt;awscrt</title>
<path fill="none" stroke="black" d="M143.49,-226.43C203.49,-219.1 283.97,-204.88 303.74,-180 313.7,-167.48 311.51,-157.99 303.74,-144 294.45,-127.25 277.42,-115.1 261.03,-106.7"/>
<polygon fill="black" stroke="black" points="262.89,-103.71 252.35,-102.59 259.89,-110.03 262.89,-103.71"/>
</g>
<!-- aws&#45;crt&#45;cpp&#45;&gt;aws&#45;sdk&#45;cpp -->
<g id="edge6" class="edge">
<title>aws&#45;crt&#45;cpp&#45;&gt;aws&#45;sdk&#45;cpp</title>
<path fill="none" stroke="black" d="M74.74,-71.7C74.74,-64.41 74.74,-55.73 74.74,-47.54"/>
<polygon fill="black" stroke="black" points="78.24,-47.62 74.74,-37.62 71.24,-47.62 78.24,-47.62"/>
</g>
<!-- aws&#45;c&#45;s3&#45;&gt;aws&#45;crt&#45;cpp -->
<g id="edge7" class="edge">
<title>aws&#45;c&#45;s3&#45;&gt;aws&#45;crt&#45;cpp</title>
<path fill="none" stroke="black" d="M74.74,-143.7C74.74,-136.41 74.74,-127.73 74.74,-119.54"/>
<polygon fill="black" stroke="black" points="78.24,-119.62 74.74,-109.62 71.24,-119.62 78.24,-119.62"/>
</g>
<!-- aws&#45;c&#45;s3&#45;&gt;awscrt -->
<g id="edge8" class="edge">
<title>aws&#45;c&#45;s3&#45;&gt;awscrt</title>
<path fill="none" stroke="black" d="M103.54,-147C125.84,-136.16 156.93,-121.05 181.19,-109.25"/>
<polygon fill="black" stroke="black" points="182.64,-112.44 190.1,-104.92 179.58,-106.15 182.64,-112.44"/>
</g>
</g>
</svg>
