<?xml version="1.0" encoding="UTF-8" standalone="no"?>
<!DOCTYPE svg PUBLIC "-//W3C//DTD SVG 1.1//EN"
 "http://www.w3.org/Graphics/SVG/1.1/DTD/svg11.dtd">
<!-- Generated by graphviz version 8.1.0 (20230707.2238)
 -->
<!-- Pages: 1 -->
<svg width="976pt" height="476pt"
 viewBox="0.00 0.00 976.00 476.00" xmlns="http://www.w3.org/2000/svg" xmlns:xlink="http://www.w3.org/1999/xlink">
<g id="graph0" class="graph" transform="scale(1 1) rotate(0) translate(4 472)">
<polygon fill="white" stroke="none" points="-4,4 -4,-472 972,-472 972,4 -4,4"/>
<!-- aws&#45;sdk&#45;cpp -->
<g id="node1" class="node">
<title>aws&#45;sdk&#45;cpp</title>
<g id="a_node1"><a xlink:href="https://github.com/conda-forge/aws-sdk-cpp-feedstock" xlink:title="aws sdk cpp">
<ellipse fill="#fde725" stroke="black" cx="553" cy="-18" rx="72.25" ry="18"/>
<text text-anchor="middle" x="553" y="-13.32" font-family="Times,serif" font-size="14.00">aws sdk cpp</text>
</a>
</g>
</g>
<!-- aws&#45;c&#45;event&#45;stream -->
<g id="node2" class="node">
<title>aws&#45;c&#45;event&#45;stream</title>
<g id="a_node2"><a xlink:href="https://github.com/conda-forge/aws-c-event-stream-feedstock" xlink:title="aws c event stream">
<ellipse fill="#fde725" stroke="black" cx="793" cy="-162" rx="108.55" ry="18"/>
<text text-anchor="middle" x="793" y="-157.32" font-family="Times,serif" font-size="14.00">aws c event stream</text>
</a>
</g>
</g>
<!-- aws&#45;c&#45;event&#45;stream&#45;&gt;aws&#45;sdk&#45;cpp -->
<g id="edge1" class="edge">
<title>aws&#45;c&#45;event&#45;stream&#45;&gt;aws&#45;sdk&#45;cpp</title>
<path fill="none" stroke="black" d="M781.15,-143.86C766.57,-123.94 740,-91.36 710,-72 682,-53.93 647.19,-41.37 617.47,-33.02"/>
<polygon fill="black" stroke="black" points="618.75,-29.47 608.19,-30.24 616.93,-36.23 618.75,-29.47"/>
</g>
<!-- aws&#45;crt&#45;cpp -->
<g id="node3" class="node">
<title>aws&#45;crt&#45;cpp</title>
<g id="a_node3"><a xlink:href="https://github.com/conda-forge/aws-crt-cpp-feedstock" xlink:title="aws crt cpp">
<ellipse fill="#fde725" stroke="black" cx="378" cy="-90" rx="69.1" ry="18"/>
<text text-anchor="middle" x="378" y="-85.33" font-family="Times,serif" font-size="14.00">aws crt cpp</text>
</a>
</g>
</g>
<!-- aws&#45;c&#45;event&#45;stream&#45;&gt;aws&#45;crt&#45;cpp -->
<g id="edge2" class="edge">
<title>aws&#45;c&#45;event&#45;stream&#45;&gt;aws&#45;crt&#45;cpp</title>
<path fill="none" stroke="black" d="M718.81,-148.49C641.25,-135.4 520.62,-115.06 445.62,-102.41"/>
<polygon fill="black" stroke="black" points="446.33,-98.81 435.89,-100.6 445.17,-105.71 446.33,-98.81"/>
</g>
<!-- awscrt -->
<g id="node4" class="node">
<title>awscrt</title>
<g id="a_node4"><a xlink:href="https://github.com/conda-forge/awscrt-feedstock" xlink:title="awscrt">
<ellipse fill="#fde725" stroke="black" cx="656" cy="-90" rx="44.9" ry="18"/>
<text text-anchor="middle" x="656" y="-85.33" font-family="Times,serif" font-size="14.00">awscrt</text>
</a>
</g>
</g>
<!-- aws&#45;c&#45;event&#45;stream&#45;&gt;awscrt -->
<g id="edge3" class="edge">
<title>aws&#45;c&#45;event&#45;stream&#45;&gt;awscrt</title>
<path fill="none" stroke="black" d="M760.53,-144.41C740.04,-133.94 713.53,-120.4 692.34,-109.57"/>
<polygon fill="black" stroke="black" points="694.21,-106.08 683.71,-104.65 691.03,-112.32 694.21,-106.08"/>
</g>
<!-- aws&#45;crt&#45;cpp&#45;&gt;aws&#45;sdk&#45;cpp -->
<g id="edge4" class="edge">
<title>aws&#45;crt&#45;cpp&#45;&gt;aws&#45;sdk&#45;cpp</title>
<path fill="none" stroke="black" d="M414.69,-74.33C441.2,-63.72 477.23,-49.31 505.87,-37.85"/>
<polygon fill="black" stroke="black" points="507.08,-40.74 515.06,-33.78 504.48,-34.24 507.08,-40.74"/>
</g>
<!-- aws&#45;c&#45;io -->
<g id="node5" class="node">
<title>aws&#45;c&#45;io</title>
<g id="a_node5"><a xlink:href="https://github.com/conda-forge/aws-c-io-feedstock" xlink:title="aws c io">
<ellipse fill="#fde725" stroke="black" cx="624" cy="-378" rx="51.21" ry="18"/>
<text text-anchor="middle" x="624" y="-373.32" font-family="Times,serif" font-size="14.00">aws c io</text>
</a>
</g>
</g>
<!-- aws&#45;c&#45;io&#45;&gt;aws&#45;c&#45;event&#45;stream -->
<g id="edge5" class="edge">
<title>aws&#45;c&#45;io&#45;&gt;aws&#45;c&#45;event&#45;stream</title>
<path fill="none" stroke="black" d="M639.29,-360.52C660.79,-337.07 700.83,-292.43 732,-252 747.87,-231.41 764.47,-206.98 776.33,-188.93"/>
<polygon fill="black" stroke="black" points="779.54,-191.42 782.08,-181.13 773.68,-187.59 779.54,-191.42"/>
</g>
<!-- aws&#45;c&#45;io&#45;&gt;aws&#45;crt&#45;cpp -->
<g id="edge6" class="edge">
<title>aws&#45;c&#45;io&#45;&gt;aws&#45;crt&#45;cpp</title>
<path fill="none" stroke="black" d="M580.23,-368.49C563.34,-365.45 543.82,-362.22 526,-360 474.14,-353.53 92.51,-362.34 57,-324 -35.23,-224.42 204.84,-140.06 320.19,-106.51"/>
<polygon fill="black" stroke="black" points="320.97,-109.65 329.61,-103.52 319.04,-102.92 320.97,-109.65"/>
</g>
<!-- aws&#45;c&#45;io&#45;&gt;awscrt -->
<g id="edge7" class="edge">
<title>aws&#45;c&#45;io&#45;&gt;awscrt</title>
<path fill="none" stroke="black" d="M660.22,-364.92C724.63,-341.22 857.36,-281.87 911,-180 918.45,-165.84 921.1,-156.41 911,-144 886.3,-113.64 778.4,-100.1 711.12,-94.52"/>
<polygon fill="black" stroke="black" points="711.53,-90.96 701.28,-93.66 710.97,-97.94 711.53,-90.96"/>
</g>
<!-- aws&#45;c&#45;http -->
<g id="node6" class="node">
<title>aws&#45;c&#45;http</title>
<g id="a_node6"><a xlink:href="https://github.com/conda-forge/aws-c-http-feedstock" xlink:title="aws c http">
<ellipse fill="#fde725" stroke="black" cx="417" cy="-306" rx="63.31" ry="18"/>
<text text-anchor="middle" x="417" y="-301.32" font-family="Times,serif" font-size="14.00">aws c http</text>
</a>
</g>
</g>
<!-- aws&#45;c&#45;io&#45;&gt;aws&#45;c&#45;http -->
<g id="edge8" class="edge">
<title>aws&#45;c&#45;io&#45;&gt;aws&#45;c&#45;http</title>
<path fill="none" stroke="black" d="M587.94,-364.81C554.38,-353.46 504.06,-336.44 466.69,-323.8"/>
<polygon fill="black" stroke="black" points="468.12,-320.25 457.52,-320.36 465.87,-326.88 468.12,-320.25"/>
</g>
<!-- aws&#45;c&#45;mqtt -->
<g id="node7" class="node">
<title>aws&#45;c&#45;mqtt</title>
<g id="a_node7"><a xlink:href="https://github.com/conda-forge/aws-c-mqtt-feedstock" xlink:title="aws c mqtt">
<ellipse fill="#fde725" stroke="black" cx="624" cy="-234" rx="66.47" ry="18"/>
<text text-anchor="middle" x="624" y="-229.32" font-family="Times,serif" font-size="14.00">aws c mqtt</text>
</a>
</g>
</g>
<!-- aws&#45;c&#45;io&#45;&gt;aws&#45;c&#45;mqtt -->
<g id="edge9" class="edge">
<title>aws&#45;c&#45;io&#45;&gt;aws&#45;c&#45;mqtt</title>
<path fill="none" stroke="black" d="M624,-359.59C624,-335.5 624,-291.75 624,-263.03"/>
<polygon fill="black" stroke="black" points="627.5,-263.11 624,-253.11 620.5,-263.11 627.5,-263.11"/>
</g>
<!-- aws&#45;c&#45;auth -->
<g id="node8" class="node">
<title>aws&#45;c&#45;auth</title>
<g id="a_node8"><a xlink:href="https://github.com/conda-forge/aws-c-auth-feedstock" xlink:title="aws c auth">
<ellipse fill="#fde725" stroke="black" cx="293" cy="-234" rx="64.89" ry="18"/>
<text text-anchor="middle" x="293" y="-229.32" font-family="Times,serif" font-size="14.00">aws c auth</text>
</a>
</g>
</g>
<!-- aws&#45;c&#45;io&#45;&gt;aws&#45;c&#45;auth -->
<g id="edge10" class="edge">
<title>aws&#45;c&#45;io&#45;&gt;aws&#45;c&#45;auth</title>
<path fill="none" stroke="black" d="M579.19,-368.98C501.55,-355.01 349.79,-327.38 345,-324 323.81,-309.04 309.95,-282.49 301.9,-262.27"/>
<polygon fill="black" stroke="black" points="304.89,-261.24 298.12,-253.08 298.32,-263.67 304.89,-261.24"/>
</g>
<!-- aws&#45;c&#45;s3 -->
<g id="node9" class="node">
<title>aws&#45;c&#45;s3</title>
<g id="a_node9"><a xlink:href="https://github.com/conda-forge/aws-c-s3-feedstock" xlink:title="aws c s3">
<ellipse fill="#fde725" stroke="black" cx="498" cy="-162" rx="53.84" ry="18"/>
<text text-anchor="middle" x="498" y="-157.32" font-family="Times,serif" font-size="14.00">aws c s3</text>
</a>
</g>
</g>
<!-- aws&#45;c&#45;io&#45;&gt;aws&#45;c&#45;s3 -->
<g id="edge11" class="edge">
<title>aws&#45;c&#45;io&#45;&gt;aws&#45;c&#45;s3</title>
<path fill="none" stroke="black" d="M613.7,-360.08C599.15,-336.11 571.79,-290.86 549,-252 536.69,-231 522.98,-207.05 512.88,-189.29"/>
<polygon fill="black" stroke="black" points="515.66,-188.09 507.68,-181.12 509.57,-191.54 515.66,-188.09"/>
</g>
<!-- aws&#45;c&#45;http&#45;&gt;aws&#45;crt&#45;cpp -->
<g id="edge12" class="edge">
<title>aws&#45;c&#45;http&#45;&gt;aws&#45;crt&#45;cpp</title>
<path fill="none" stroke="black" d="M413.87,-287.85C407.16,-250.99 391.29,-163.92 383.09,-118.96"/>
<polygon fill="black" stroke="black" points="386.38,-118.44 381.14,-109.23 379.49,-119.7 386.38,-118.44"/>
</g>
<!-- aws&#45;c&#45;http&#45;&gt;awscrt -->
<g id="edge13" class="edge">
<title>aws&#45;c&#45;http&#45;&gt;awscrt</title>
<path fill="none" stroke="black" d="M479.33,-302.28C553.75,-297.56 671.65,-284.97 699,-252 709.22,-239.69 703.64,-231.31 699,-216 693.43,-197.6 682.47,-197.72 675,-180 666.79,-160.54 661.97,-137.12 659.24,-119.2"/>
<polygon fill="black" stroke="black" points="662.57,-118.73 657.74,-109.31 655.64,-119.69 662.57,-118.73"/>
</g>
<!-- aws&#45;c&#45;http&#45;&gt;aws&#45;c&#45;mqtt -->
<g id="edge14" class="edge">
<title>aws&#45;c&#45;http&#45;&gt;aws&#45;c&#45;mqtt</title>
<path fill="none" stroke="black" d="M456.42,-291.67C489.63,-280.44 537.34,-264.31 573.36,-252.12"/>
<polygon fill="black" stroke="black" points="574.31,-255.16 582.67,-248.64 572.07,-248.53 574.31,-255.16"/>
</g>
<!-- aws&#45;c&#45;http&#45;&gt;aws&#45;c&#45;auth -->
<g id="edge15" class="edge">
<title>aws&#45;c&#45;http&#45;&gt;aws&#45;c&#45;auth</title>
<path fill="none" stroke="black" d="M389.48,-289.46C372.1,-279.66 349.43,-266.85 330.43,-256.13"/>
<polygon fill="black" stroke="black" points="332.3,-252.6 321.87,-250.73 328.86,-258.7 332.3,-252.6"/>
</g>
<!-- aws&#45;c&#45;http&#45;&gt;aws&#45;c&#45;s3 -->
<g id="edge16" class="edge">
<title>aws&#45;c&#45;http&#45;&gt;aws&#45;c&#45;s3</title>
<path fill="none" stroke="black" d="M426.77,-287.87C440.7,-263.46 466.38,-218.43 482.81,-189.64"/>
<polygon fill="black" stroke="black" points="486.28,-191.61 488.19,-181.19 480.2,-188.14 486.28,-191.61"/>
</g>
<!-- aws&#45;c&#45;mqtt&#45;&gt;aws&#45;crt&#45;cpp -->
<g id="edge17" class="edge">
<title>aws&#45;c&#45;mqtt&#45;&gt;aws&#45;crt&#45;cpp</title>
<path fill="none" stroke="black" d="M616.33,-215.93C606.4,-195.78 587.22,-162.66 561,-144 528.5,-120.88 486.01,-107.78 450.15,-100.39"/>
<polygon fill="black" stroke="black" points="451.23,-96.84 440.74,-98.36 449.89,-103.71 451.23,-96.84"/>
</g>
<!-- aws&#45;c&#45;mqtt&#45;&gt;awscrt -->
<g id="edge18" class="edge">
<title>aws&#45;c&#45;mqtt&#45;&gt;awscrt</title>
<path fill="none" stroke="black" d="M627.22,-215.54C630.61,-197.55 636.24,-168.72 642,-144 643.93,-135.72 646.22,-126.76 648.38,-118.6"/>
<polygon fill="black" stroke="black" points="651.98,-119.69 651.2,-109.12 645.22,-117.87 651.98,-119.69"/>
</g>
<!-- aws&#45;c&#45;auth&#45;&gt;aws&#45;crt&#45;cpp -->
<g id="edge19" class="edge">
<title>aws&#45;c&#45;auth&#45;&gt;aws&#45;crt&#45;cpp</title>
<path fill="none" stroke="black" d="M303.25,-215.87C317.93,-191.35 345.06,-146.03 362.28,-117.26"/>
<polygon fill="black" stroke="black" points="365.58,-119.57 367.71,-109.19 359.57,-115.97 365.58,-119.57"/>
</g>
<!-- aws&#45;c&#45;auth&#45;&gt;awscrt -->
<g id="edge20" class="edge">
<title>aws&#45;c&#45;auth&#45;&gt;awscrt</title>
<path fill="none" stroke="black" d="M313.93,-216.8C340.62,-196.89 388.86,-163.38 435,-144 490.23,-120.8 557.69,-106.48 603.44,-98.66"/>
<polygon fill="black" stroke="black" points="603.71,-102 613,-96.91 602.56,-95.09 603.71,-102"/>
</g>
<!-- aws&#45;c&#45;auth&#45;&gt;aws&#45;c&#45;s3 -->
<g id="edge21" class="edge">
<title>aws&#45;c&#45;auth&#45;&gt;aws&#45;c&#45;s3</title>
<path fill="none" stroke="black" d="M332.53,-219.5C366.41,-207.93 415.29,-191.24 451.14,-179"/>
<polygon fill="black" stroke="black" points="452.02,-182.06 460.35,-175.51 449.76,-175.43 452.02,-182.06"/>
</g>
<!-- aws&#45;c&#45;s3&#45;&gt;aws&#45;crt&#45;cpp -->
<g id="edge22" class="edge">
<title>aws&#45;c&#45;s3&#45;&gt;aws&#45;crt&#45;cpp</title>
<path fill="none" stroke="black" d="M471.96,-145.81C455.17,-136.02 433.1,-123.14 414.56,-112.33"/>
<polygon fill="black" stroke="black" points="416.64,-108.9 406.24,-106.89 413.11,-114.95 416.64,-108.9"/>
</g>
<!-- aws&#45;c&#45;s3&#45;&gt;awscrt -->
<g id="edge23" class="edge">
<title>aws&#45;c&#45;s3&#45;&gt;awscrt</title>
<path fill="none" stroke="black" d="M529.59,-147C554.67,-135.89 589.85,-120.31 616.74,-108.4"/>
<polygon fill="black" stroke="black" points="617.87,-111.28 625.6,-104.03 615.03,-104.88 617.87,-111.28"/>
</g>
<!-- aws&#45;c&#45;cal -->
<g id="node10" class="node">
<title>aws&#45;c&#45;cal</title>
<g id="a_node10"><a xlink:href="https://github.com/conda-forge/aws-c-cal-feedstock" xlink:title="aws c cal">
<ellipse fill="#ff8c00" stroke="black" cx="412" cy="-450" rx="56.47" ry="18"/>
<text text-anchor="middle" x="412" y="-445.32" font-family="Times,serif" font-size="14.00">aws c cal</text>
</a>
</g>
</g>
<!-- aws&#45;c&#45;cal&#45;&gt;aws&#45;crt&#45;cpp -->
<g id="edge24" class="edge">
<title>aws&#45;c&#45;cal&#45;&gt;aws&#45;crt&#45;cpp</title>
<path fill="none" stroke="black" d="M360.65,-442.33C250.21,-426.55 0,-382.47 0,-307 0,-307 0,-307 0,-233 0,-164.44 63.15,-171.4 126,-144 182.72,-119.27 251.77,-105.79 303.24,-98.62"/>
<polygon fill="black" stroke="black" points="303.49,-101.98 312.94,-97.19 302.56,-95.05 303.49,-101.98"/>
</g>
<!-- aws&#45;c&#45;cal&#45;&gt;awscrt -->
<g id="edge25" class="edge">
<title>aws&#45;c&#45;cal&#45;&gt;awscrt</title>
<path fill="none" stroke="black" d="M467.86,-446.58C608.85,-438.96 968,-409.49 968,-307 968,-307 968,-307 968,-233 968,-189.63 961.98,-170.94 928,-144 894.99,-117.83 779.85,-102.66 710.4,-95.69"/>
<polygon fill="black" stroke="black" points="710.96,-92.13 700.66,-94.64 710.28,-99.1 710.96,-92.13"/>
</g>
<!-- aws&#45;c&#45;cal&#45;&gt;aws&#45;c&#45;io -->
<g id="edge26" class="edge">
<title>aws&#45;c&#45;cal&#45;&gt;aws&#45;c&#45;io</title>
<path fill="none" stroke="black" d="M449.9,-436.49C485.5,-424.73 538.87,-407.11 577.13,-394.48"/>
<polygon fill="black" stroke="black" points="578.09,-397.51 586.49,-391.06 575.9,-390.87 578.09,-397.51"/>
</g>
<!-- aws&#45;c&#45;cal&#45;&gt;aws&#45;c&#45;http -->
<g id="edge27" class="edge">
<title>aws&#45;c&#45;cal&#45;&gt;aws&#45;c&#45;http</title>
<path fill="none" stroke="black" d="M364.81,-439.73C340.42,-432.28 312.73,-419.09 298,-396 289.4,-382.51 289.29,-373.42 298,-360 310.81,-340.27 332.86,-327.82 354.52,-320"/>
<polygon fill="black" stroke="black" points="355.35,-323.08 363.75,-316.62 353.16,-316.43 355.35,-323.08"/>
</g>
<!-- aws&#45;c&#45;cal&#45;&gt;aws&#45;c&#45;auth -->
<g id="edge28" class="edge">
<title>aws&#45;c&#45;cal&#45;&gt;aws&#45;c&#45;auth</title>
<path fill="none" stroke="black" d="M361.99,-441.37C334.91,-434.41 303.66,-421.16 287,-396 260.38,-355.81 272.33,-296.76 282.97,-262.46"/>
<polygon fill="black" stroke="black" points="286.53,-263.85 286.33,-253.25 279.88,-261.66 286.53,-263.85"/>
</g>
<!-- aws&#45;c&#45;cal&#45;&gt;aws&#45;c&#45;s3 -->
<g id="edge29" class="edge">
<title>aws&#45;c&#45;cal&#45;&gt;aws&#45;c&#45;s3</title>
<path fill="none" stroke="black" d="M459.19,-439.73C483.58,-432.28 511.27,-419.09 526,-396 547.32,-362.57 520.03,-245.27 505.73,-190.97"/>
<polygon fill="black" stroke="black" points="508.86,-190.14 502.89,-181.39 502.1,-191.95 508.86,-190.14"/>
</g>
<!-- aws&#45;c&#45;compression -->
<g id="node11" class="node">
<title>aws&#45;c&#45;compression</title>
<g id="a_node11"><a xlink:href="https://github.com/conda-forge/aws-c-compression-feedstock" xlink:title="aws c compression">
<ellipse fill="#ff8c00" stroke="black" cx="412" cy="-378" rx="105.4" ry="18"/>
<text text-anchor="middle" x="412" y="-373.32" font-family="Times,serif" font-size="14.00">aws c compression</text>
</a>
</g>
</g>
<!-- aws&#45;c&#45;compression&#45;&gt;aws&#45;c&#45;http -->
<g id="edge30" class="edge">
<title>aws&#45;c&#45;compression&#45;&gt;aws&#45;c&#45;http</title>
<path fill="none" stroke="black" d="M413.24,-359.7C413.77,-352.24 414.41,-343.32 415,-334.97"/>
<polygon fill="black" stroke="black" points="418.56,-335.33 415.78,-325.1 411.57,-334.83 418.56,-335.33"/>
</g>
<!-- aws&#45;c&#45;sdkutils -->
<g id="node12" class="node">
<title>aws&#45;c&#45;sdkutils</title>
<g id="a_node12"><a xlink:href="https://github.com/conda-forge/aws-c-sdkutils-feedstock/pull/45" xlink:title="aws c sdkutils ❎">
<ellipse fill="#31688e" stroke="black" cx="163" cy="-306" rx="96.98" ry="18"/>
<text text-anchor="middle" x="163" y="-301.32" font-family="Times,serif" font-size="14.00" fill="white">aws c sdkutils ❎</text>
</a>
</g>
</g>
<!-- aws&#45;c&#45;sdkutils&#45;&gt;aws&#45;crt&#45;cpp -->
<g id="edge31" class="edge">
<title>aws&#45;c&#45;sdkutils&#45;&gt;aws&#45;crt&#45;cpp</title>
<path fill="none" stroke="black" d="M171.56,-287.74C181.41,-268.89 198.84,-238.38 219,-216 256.48,-174.38 308.98,-136.1 343.23,-113.15"/>
<polygon fill="black" stroke="black" points="344.97,-115.53 351.38,-107.1 341.11,-109.7 344.97,-115.53"/>
</g>
<!-- aws&#45;c&#45;sdkutils&#45;&gt;aws&#45;c&#45;auth -->
<g id="edge32" class="edge">
<title>aws&#45;c&#45;sdkutils&#45;&gt;aws&#45;c&#45;auth</title>
<path fill="none" stroke="black" d="M193.48,-288.59C211.84,-278.7 235.38,-266.03 254.95,-255.49"/>
<polygon fill="black" stroke="black" points="256.35,-258.17 263.49,-250.35 253.03,-252.01 256.35,-258.17"/>
</g>
</g>
</svg>
