<?xml version="1.0" encoding="UTF-8" standalone="no"?>
<!DOCTYPE svg PUBLIC "-//W3C//DTD SVG 1.1//EN"
 "http://www.w3.org/Graphics/SVG/1.1/DTD/svg11.dtd">
<!-- Generated by graphviz version 2.49.1 (20211004.0028)
 -->
<!-- Pages: 1 -->
<svg width="240pt" height="116pt"
 viewBox="0.00 0.00 239.59 116.00" xmlns="http://www.w3.org/2000/svg" xmlns:xlink="http://www.w3.org/1999/xlink">
<g id="graph0" class="graph" transform="scale(1 1) rotate(0) translate(4 112)">
<polygon fill="white" stroke="transparent" points="-4,4 -4,-112 235.59,-112 235.59,4 -4,4"/>
<!-- aws&#45;crt&#45;cpp -->
<g id="node1" class="node">
<title>aws&#45;crt&#45;cpp</title>
<g id="a_node1"><a xlink:href="https://github.com/conda-forge/aws-crt-cpp-feedstock" xlink:title="aws crt cpp">
<ellipse fill="#fde725" stroke="black" cx="64.34" cy="-18" rx="64.19" ry="18"/>
<text text-anchor="middle" x="64.34" y="-14.3" font-family="Times,serif" font-size="14.00">aws crt cpp</text>
</a>
</g>
</g>
<!-- aws&#45;c&#45;s3 -->
<g id="node2" class="node">
<title>aws&#45;c&#45;s3</title>
<g id="a_node2"><a xlink:href="https://github.com/conda-forge/aws-c-s3-feedstock/pull/203" xlink:title="aws c s3 ❎">
<ellipse fill="#31688e" stroke="black" cx="126.34" cy="-90" rx="64.19" ry="18"/>
<text text-anchor="middle" x="126.34" y="-86.3" font-family="Times,serif" font-size="14.00" fill="white">aws c s3 ❎</text>
</a>
</g>
</g>
<!-- aws&#45;c&#45;s3&#45;&gt;aws&#45;crt&#45;cpp -->
<g id="edge1" class="edge">
<title>aws&#45;c&#45;s3&#45;&gt;aws&#45;crt&#45;cpp</title>
<path fill="none" stroke="black" d="M111.65,-72.41C104.04,-63.82 94.6,-53.16 86.16,-43.63"/>
<polygon fill="black" stroke="black" points="88.61,-41.12 79.36,-35.96 83.37,-45.76 88.61,-41.12"/>
</g>
<!-- awscrt -->
<g id="node3" class="node">
<title>awscrt</title>
<g id="a_node3"><a xlink:href="https://github.com/conda-forge/awscrt-feedstock" xlink:title="awscrt">
<ellipse fill="#fde725" stroke="black" cx="189.34" cy="-18" rx="42.49" ry="18"/>
<text text-anchor="middle" x="189.34" y="-14.3" font-family="Times,serif" font-size="14.00">awscrt</text>
</a>
</g>
</g>
<!-- aws&#45;c&#45;s3&#45;&gt;awscrt -->
<g id="edge2" class="edge">
<title>aws&#45;c&#45;s3&#45;&gt;awscrt</title>
<path fill="none" stroke="black" d="M141.27,-72.41C149.31,-63.48 159.37,-52.31 168.2,-42.5"/>
<polygon fill="black" stroke="black" points="170.87,-44.76 174.95,-34.99 165.66,-40.08 170.87,-44.76"/>
</g>
</g>
</svg>
