<?xml version="1.0" encoding="UTF-8" standalone="no"?>
<!DOCTYPE svg PUBLIC "-//W3C//DTD SVG 1.1//EN"
 "http://www.w3.org/Graphics/SVG/1.1/DTD/svg11.dtd">
<!-- Generated by graphviz version 8.1.0 (20230707.2238)
 -->
<!-- Pages: 1 -->
<svg width="630pt" height="332pt"
 viewBox="0.00 0.00 630.31 332.00" xmlns="http://www.w3.org/2000/svg" xmlns:xlink="http://www.w3.org/1999/xlink">
<g id="graph0" class="graph" transform="scale(1 1) rotate(0) translate(4 328)">
<polygon fill="white" stroke="none" points="-4,4 -4,-328 626.31,-328 626.31,4 -4,4"/>
<!-- aws&#45;sdk&#45;cpp -->
<g id="node1" class="node">
<title>aws&#45;sdk&#45;cpp</title>
<g id="a_node1"><a xlink:href="https://github.com/conda-forge/aws-sdk-cpp-feedstock" xlink:title="aws sdk cpp">
<ellipse fill="#fde725" stroke="black" cx="223.55" cy="-18" rx="72.25" ry="18"/>
<text text-anchor="middle" x="223.55" y="-13.32" font-family="Times,serif" font-size="14.00">aws sdk cpp</text>
</a>
</g>
</g>
<!-- aws&#45;c&#45;event&#45;stream -->
<g id="node2" class="node">
<title>aws&#45;c&#45;event&#45;stream</title>
<g id="a_node2"><a xlink:href="https://github.com/conda-forge/aws-c-event-stream-feedstock" xlink:title="aws c event stream">
<ellipse fill="#35b779" stroke="black" cx="108.55" cy="-162" rx="108.55" ry="18"/>
<text text-anchor="middle" x="108.55" y="-157.32" font-family="Times,serif" font-size="14.00">aws c event stream</text>
</a>
</g>
</g>
<!-- aws&#45;c&#45;event&#45;stream&#45;&gt;aws&#45;sdk&#45;cpp -->
<g id="edge2" class="edge">
<title>aws&#45;c&#45;event&#45;stream&#45;&gt;aws&#45;sdk&#45;cpp</title>
<path fill="none" stroke="black" d="M122.43,-143.87C142.57,-119 180.03,-72.75 203.27,-44.05"/>
<polygon fill="black" stroke="black" points="206.42,-46.72 209.99,-36.75 200.98,-42.32 206.42,-46.72"/>
</g>
<!-- aws&#45;crt&#45;cpp -->
<g id="node6" class="node">
<title>aws&#45;crt&#45;cpp</title>
<g id="a_node6"><a xlink:href="https://github.com/conda-forge/aws-crt-cpp-feedstock" xlink:title="aws crt cpp">
<ellipse fill="#fde725" stroke="black" cx="292.55" cy="-90" rx="69.1" ry="18"/>
<text text-anchor="middle" x="292.55" y="-85.33" font-family="Times,serif" font-size="14.00">aws crt cpp</text>
</a>
</g>
</g>
<!-- aws&#45;c&#45;event&#45;stream&#45;&gt;aws&#45;crt&#45;cpp -->
<g id="edge1" class="edge">
<title>aws&#45;c&#45;event&#45;stream&#45;&gt;aws&#45;crt&#45;cpp</title>
<path fill="none" stroke="black" d="M150.31,-145.12C178.38,-134.44 215.46,-120.33 244.72,-109.2"/>
<polygon fill="black" stroke="black" points="245.62,-112.22 253.72,-105.39 243.13,-105.68 245.62,-112.22"/>
</g>
<!-- awscrt -->
<g id="node8" class="node">
<title>awscrt</title>
<g id="a_node8"><a xlink:href="https://github.com/conda-forge/awscrt-feedstock" xlink:title="awscrt">
<ellipse fill="#fde725" stroke="black" cx="471.55" cy="-90" rx="44.89" ry="18"/>
<text text-anchor="middle" x="471.55" y="-85.33" font-family="Times,serif" font-size="14.00">awscrt</text>
</a>
</g>
</g>
<!-- aws&#45;c&#45;event&#45;stream&#45;&gt;awscrt -->
<g id="edge3" class="edge">
<title>aws&#45;c&#45;event&#45;stream&#45;&gt;awscrt</title>
<path fill="none" stroke="black" d="M177.26,-147.75C248.37,-134.04 357.76,-112.94 421.23,-100.71"/>
<polygon fill="black" stroke="black" points="421.61,-104 430.76,-98.67 420.28,-97.13 421.61,-104"/>
</g>
<!-- aws&#45;c&#45;http -->
<g id="node3" class="node">
<title>aws&#45;c&#45;http</title>
<g id="a_node3"><a xlink:href="https://github.com/conda-forge/aws-c-http-feedstock" xlink:title="aws c http">
<ellipse fill="#35b779" stroke="black" cx="460.55" cy="-306" rx="63.31" ry="18"/>
<text text-anchor="middle" x="460.55" y="-301.32" font-family="Times,serif" font-size="14.00">aws c http</text>
</a>
</g>
</g>
<!-- aws&#45;c&#45;mqtt -->
<g id="node4" class="node">
<title>aws&#45;c&#45;mqtt</title>
<g id="a_node4"><a xlink:href="https://github.com/conda-forge/aws-c-mqtt-feedstock" xlink:title="aws c mqtt">
<ellipse fill="#fde725" stroke="black" cx="339.55" cy="-162" rx="66.47" ry="18"/>
<text text-anchor="middle" x="339.55" y="-157.32" font-family="Times,serif" font-size="14.00">aws c mqtt</text>
</a>
</g>
</g>
<!-- aws&#45;c&#45;http&#45;&gt;aws&#45;c&#45;mqtt -->
<g id="edge5" class="edge">
<title>aws&#45;c&#45;http&#45;&gt;aws&#45;c&#45;mqtt</title>
<path fill="none" stroke="black" d="M432.82,-289.48C417.78,-280.07 399.65,-267 386.55,-252 370.54,-233.65 358.02,-208.89 349.95,-190.14"/>
<polygon fill="black" stroke="black" points="352.88,-189.07 345.82,-181.16 346.41,-191.74 352.88,-189.07"/>
</g>
<!-- aws&#45;c&#45;auth -->
<g id="node5" class="node">
<title>aws&#45;c&#45;auth</title>
<g id="a_node5"><a xlink:href="https://github.com/conda-forge/aws-c-auth-feedstock" xlink:title="aws c auth">
<ellipse fill="#fde725" stroke="black" cx="460.55" cy="-234" rx="64.89" ry="18"/>
<text text-anchor="middle" x="460.55" y="-229.32" font-family="Times,serif" font-size="14.00">aws c auth</text>
</a>
</g>
</g>
<!-- aws&#45;c&#45;http&#45;&gt;aws&#45;c&#45;auth -->
<g id="edge4" class="edge">
<title>aws&#45;c&#45;http&#45;&gt;aws&#45;c&#45;auth</title>
<path fill="none" stroke="black" d="M460.55,-287.7C460.55,-280.24 460.55,-271.32 460.55,-262.97"/>
<polygon fill="black" stroke="black" points="464.05,-263.1 460.55,-253.1 457.05,-263.1 464.05,-263.1"/>
</g>
<!-- aws&#45;c&#45;http&#45;&gt;aws&#45;crt&#45;cpp -->
<g id="edge7" class="edge">
<title>aws&#45;c&#45;http&#45;&gt;aws&#45;crt&#45;cpp</title>
<path fill="none" stroke="black" d="M417.69,-292.37C369.71,-275.58 294.72,-240.72 264.55,-180 254.49,-159.74 263.74,-135.1 274.22,-116.89"/>
<polygon fill="black" stroke="black" points="277.43,-119.35 279.72,-109 271.48,-115.66 277.43,-119.35"/>
</g>
<!-- aws&#45;c&#45;s3 -->
<g id="node7" class="node">
<title>aws&#45;c&#45;s3</title>
<g id="a_node7"><a xlink:href="https://github.com/conda-forge/aws-c-s3-feedstock" xlink:title="aws c s3">
<ellipse fill="#fde725" stroke="black" cx="553.55" cy="-162" rx="53.84" ry="18"/>
<text text-anchor="middle" x="553.55" y="-157.32" font-family="Times,serif" font-size="14.00">aws c s3</text>
</a>
</g>
</g>
<!-- aws&#45;c&#45;http&#45;&gt;aws&#45;c&#45;s3 -->
<g id="edge6" class="edge">
<title>aws&#45;c&#45;http&#45;&gt;aws&#45;c&#45;s3</title>
<path fill="none" stroke="black" d="M491.47,-289.89C506.69,-280.92 523.99,-268.13 534.55,-252 546.38,-233.94 551,-209.8 552.73,-191.22"/>
<polygon fill="black" stroke="black" points="556.27,-191.69 553.47,-181.48 549.29,-191.21 556.27,-191.69"/>
</g>
<!-- aws&#45;c&#45;http&#45;&gt;awscrt -->
<g id="edge8" class="edge">
<title>aws&#45;c&#45;http&#45;&gt;awscrt</title>
<path fill="none" stroke="black" d="M495.29,-290.55C534.69,-271.85 596.14,-234.99 616.55,-180 622.12,-165 625.72,-157.11 616.55,-144 596.27,-114.99 558.32,-101.81 526.34,-95.84"/>
<polygon fill="black" stroke="black" points="527.19,-92.27 516.75,-94.08 526.04,-99.17 527.19,-92.27"/>
</g>
<!-- aws&#45;c&#45;mqtt&#45;&gt;aws&#45;crt&#45;cpp -->
<g id="edge9" class="edge">
<title>aws&#45;c&#45;mqtt&#45;&gt;aws&#45;crt&#45;cpp</title>
<path fill="none" stroke="black" d="M328.18,-144.05C322.69,-135.89 315.99,-125.91 309.89,-116.82"/>
<polygon fill="black" stroke="black" points="312.31,-115.14 303.83,-108.79 306.5,-119.04 312.31,-115.14"/>
</g>
<!-- aws&#45;c&#45;mqtt&#45;&gt;awscrt -->
<g id="edge10" class="edge">
<title>aws&#45;c&#45;mqtt&#45;&gt;awscrt</title>
<path fill="none" stroke="black" d="M368.85,-145.46C388.65,-134.96 414.92,-121.04 435.93,-109.89"/>
<polygon fill="black" stroke="black" points="437.28,-112.61 444.47,-104.83 434,-106.43 437.28,-112.61"/>
</g>
<!-- aws&#45;c&#45;auth&#45;&gt;aws&#45;crt&#45;cpp -->
<g id="edge12" class="edge">
<title>aws&#45;c&#45;auth&#45;&gt;aws&#45;crt&#45;cpp</title>
<path fill="none" stroke="black" d="M455.55,-215.75C449.04,-196.05 435.9,-163.96 414.55,-144 396.64,-127.25 372.6,-115.28 350.6,-107"/>
<polygon fill="black" stroke="black" points="351.92,-103.4 341.33,-103.34 349.57,-110 351.92,-103.4"/>
</g>
<!-- aws&#45;c&#45;auth&#45;&gt;aws&#45;c&#45;s3 -->
<g id="edge11" class="edge">
<title>aws&#45;c&#45;auth&#45;&gt;aws&#45;c&#45;s3</title>
<path fill="none" stroke="black" d="M482.12,-216.76C494.54,-207.42 510.31,-195.55 523.88,-185.33"/>
<polygon fill="black" stroke="black" points="525.54,-187.72 531.42,-178.91 521.33,-182.12 525.54,-187.72"/>
</g>
<!-- aws&#45;c&#45;auth&#45;&gt;awscrt -->
<g id="edge13" class="edge">
<title>aws&#45;c&#45;auth&#45;&gt;awscrt</title>
<path fill="none" stroke="black" d="M461.9,-215.59C463.77,-191.5 467.16,-147.75 469.38,-119.03"/>
<polygon fill="black" stroke="black" points="472.95,-119.35 470.23,-109.11 465.97,-118.81 472.95,-119.35"/>
</g>
<!-- aws&#45;crt&#45;cpp&#45;&gt;aws&#45;sdk&#45;cpp -->
<g id="edge14" class="edge">
<title>aws&#45;crt&#45;cpp&#45;&gt;aws&#45;sdk&#45;cpp</title>
<path fill="none" stroke="black" d="M275.85,-72.05C267.38,-63.46 256.93,-52.86 247.6,-43.4"/>
<polygon fill="black" stroke="black" points="250.62,-41.45 241.1,-36.79 245.63,-46.37 250.62,-41.45"/>
</g>
<!-- aws&#45;c&#45;s3&#45;&gt;aws&#45;crt&#45;cpp -->
<g id="edge15" class="edge">
<title>aws&#45;c&#45;s3&#45;&gt;aws&#45;crt&#45;cpp</title>
<path fill="none" stroke="black" d="M512.49,-149.99C468.75,-138.26 399.2,-119.6 350.03,-106.42"/>
<polygon fill="black" stroke="black" points="351.12,-102.82 340.56,-103.61 349.31,-109.58 351.12,-102.82"/>
</g>
<!-- aws&#45;c&#45;s3&#45;&gt;awscrt -->
<g id="edge16" class="edge">
<title>aws&#45;c&#45;s3&#45;&gt;awscrt</title>
<path fill="none" stroke="black" d="M534.54,-144.76C523.72,-135.53 510.02,-123.83 498.15,-113.7"/>
<polygon fill="black" stroke="black" points="500.78,-110.5 490.91,-106.67 496.24,-115.82 500.78,-110.5"/>
</g>
</g>
</svg>
