<?xml version="1.0" encoding="UTF-8" standalone="no"?>
<!DOCTYPE svg PUBLIC "-//W3C//DTD SVG 1.1//EN"
 "http://www.w3.org/Graphics/SVG/1.1/DTD/svg11.dtd">
<!-- Generated by graphviz version 8.1.0 (20230707.2238)
 -->
<!-- Pages: 1 -->
<svg width="558pt" height="260pt"
 viewBox="0.00 0.00 558.46 260.00" xmlns="http://www.w3.org/2000/svg" xmlns:xlink="http://www.w3.org/1999/xlink">
<g id="graph0" class="graph" transform="scale(1 1) rotate(0) translate(4 256)">
<polygon fill="white" stroke="none" points="-4,4 -4,-256 554.46,-256 554.46,4 -4,4"/>
<!-- aws&#45;c&#45;event&#45;stream -->
<g id="node1" class="node">
<title>aws&#45;c&#45;event&#45;stream</title>
<g id="a_node1"><a xlink:href="https://github.com/conda-forge/aws-c-event-stream-feedstock" xlink:title="aws c event stream">
<ellipse fill="#35b779" stroke="black" cx="408.58" cy="-90" rx="108.55" ry="18"/>
<text text-anchor="middle" x="408.58" y="-85.33" font-family="Times,serif" font-size="14.00">aws c event stream</text>
</a>
</g>
</g>
<!-- aws&#45;crt&#45;cpp -->
<g id="node5" class="node">
<title>aws&#45;crt&#45;cpp</title>
<g id="a_node5"><a xlink:href="https://github.com/conda-forge/aws-crt-cpp-feedstock" xlink:title="aws crt cpp">
<ellipse fill="#fde725" stroke="black" cx="90.58" cy="-18" rx="69.1" ry="18"/>
<text text-anchor="middle" x="90.58" y="-13.32" font-family="Times,serif" font-size="14.00">aws crt cpp</text>
</a>
</g>
</g>
<!-- aws&#45;c&#45;event&#45;stream&#45;&gt;aws&#45;crt&#45;cpp -->
<g id="edge1" class="edge">
<title>aws&#45;c&#45;event&#45;stream&#45;&gt;aws&#45;crt&#45;cpp</title>
<path fill="none" stroke="black" d="M345,-75C289.18,-62.72 208.46,-44.95 153,-32.74"/>
<polygon fill="black" stroke="black" points="153.77,-29.11 143.25,-30.37 152.27,-35.94 153.77,-29.11"/>
</g>
<!-- awscrt -->
<g id="node7" class="node">
<title>awscrt</title>
<g id="a_node7"><a xlink:href="https://github.com/conda-forge/awscrt-feedstock" xlink:title="awscrt">
<ellipse fill="#fde725" stroke="black" cx="408.58" cy="-18" rx="44.89" ry="18"/>
<text text-anchor="middle" x="408.58" y="-13.32" font-family="Times,serif" font-size="14.00">awscrt</text>
</a>
</g>
</g>
<!-- aws&#45;c&#45;event&#45;stream&#45;&gt;awscrt -->
<g id="edge2" class="edge">
<title>aws&#45;c&#45;event&#45;stream&#45;&gt;awscrt</title>
<path fill="none" stroke="black" d="M408.58,-71.7C408.58,-64.24 408.58,-55.32 408.58,-46.97"/>
<polygon fill="black" stroke="black" points="412.08,-47.1 408.58,-37.1 405.08,-47.1 412.08,-47.1"/>
</g>
<!-- aws&#45;c&#45;http -->
<g id="node2" class="node">
<title>aws&#45;c&#45;http</title>
<g id="a_node2"><a xlink:href="https://github.com/conda-forge/aws-c-http-feedstock" xlink:title="aws c http">
<ellipse fill="#35b779" stroke="black" cx="183.58" cy="-234" rx="63.31" ry="18"/>
<text text-anchor="middle" x="183.58" y="-229.32" font-family="Times,serif" font-size="14.00">aws c http</text>
</a>
</g>
</g>
<!-- aws&#45;c&#45;mqtt -->
<g id="node3" class="node">
<title>aws&#45;c&#45;mqtt</title>
<g id="a_node3"><a xlink:href="https://github.com/conda-forge/aws-c-mqtt-feedstock" xlink:title="aws c mqtt">
<ellipse fill="#fde725" stroke="black" cx="90.58" cy="-90" rx="66.47" ry="18"/>
<text text-anchor="middle" x="90.58" y="-85.33" font-family="Times,serif" font-size="14.00">aws c mqtt</text>
</a>
</g>
</g>
<!-- aws&#45;c&#45;http&#45;&gt;aws&#45;c&#45;mqtt -->
<g id="edge4" class="edge">
<title>aws&#45;c&#45;http&#45;&gt;aws&#45;c&#45;mqtt</title>
<path fill="none" stroke="black" d="M152.67,-217.89C137.45,-208.92 120.15,-196.13 109.58,-180 97.76,-161.94 93.14,-137.8 91.41,-119.22"/>
<polygon fill="black" stroke="black" points="94.85,-119.21 90.67,-109.48 87.87,-119.69 94.85,-119.21"/>
</g>
<!-- aws&#45;c&#45;auth -->
<g id="node4" class="node">
<title>aws&#45;c&#45;auth</title>
<g id="a_node4"><a xlink:href="https://github.com/conda-forge/aws-c-auth-feedstock" xlink:title="aws c auth">
<ellipse fill="#fde725" stroke="black" cx="183.58" cy="-162" rx="64.89" ry="18"/>
<text text-anchor="middle" x="183.58" y="-157.32" font-family="Times,serif" font-size="14.00">aws c auth</text>
</a>
</g>
</g>
<!-- aws&#45;c&#45;http&#45;&gt;aws&#45;c&#45;auth -->
<g id="edge3" class="edge">
<title>aws&#45;c&#45;http&#45;&gt;aws&#45;c&#45;auth</title>
<path fill="none" stroke="black" d="M183.58,-215.7C183.58,-208.24 183.58,-199.32 183.58,-190.97"/>
<polygon fill="black" stroke="black" points="187.08,-191.1 183.58,-181.1 180.08,-191.1 187.08,-191.1"/>
</g>
<!-- aws&#45;c&#45;http&#45;&gt;aws&#45;crt&#45;cpp -->
<g id="edge6" class="edge">
<title>aws&#45;c&#45;http&#45;&gt;aws&#45;crt&#45;cpp</title>
<path fill="none" stroke="black" d="M144.91,-219.35C101.22,-201.51 32.67,-165.57 5.58,-108 -1.23,-93.52 -2.18,-85.99 5.58,-72 13.68,-57.41 27.66,-46.3 41.96,-38.13"/>
<polygon fill="black" stroke="black" points="43.14,-40.94 50.35,-33.17 39.87,-34.75 43.14,-40.94"/>
</g>
<!-- aws&#45;c&#45;s3 -->
<g id="node6" class="node">
<title>aws&#45;c&#45;s3</title>
<g id="a_node6"><a xlink:href="https://github.com/conda-forge/aws-c-s3-feedstock" xlink:title="aws c s3">
<ellipse fill="#fde725" stroke="black" cx="228.58" cy="-90" rx="53.84" ry="18"/>
<text text-anchor="middle" x="228.58" y="-85.33" font-family="Times,serif" font-size="14.00">aws c s3</text>
</a>
</g>
</g>
<!-- aws&#45;c&#45;http&#45;&gt;aws&#45;c&#45;s3 -->
<g id="edge5" class="edge">
<title>aws&#45;c&#45;http&#45;&gt;aws&#45;c&#45;s3</title>
<path fill="none" stroke="black" d="M216.71,-218.3C232.12,-209.57 248.92,-196.87 257.58,-180 267.97,-159.78 258.35,-135.09 247.49,-116.85"/>
<polygon fill="black" stroke="black" points="249.96,-115.23 241.62,-108.7 244.07,-119.01 249.96,-115.23"/>
</g>
<!-- aws&#45;c&#45;http&#45;&gt;awscrt -->
<g id="edge7" class="edge">
<title>aws&#45;c&#45;http&#45;&gt;awscrt</title>
<path fill="none" stroke="black" d="M246.95,-231.83C330.83,-226.45 475.99,-203.02 543.58,-108 552.86,-94.96 552.6,-85.22 543.58,-72 525.4,-45.32 491.55,-32.07 462.3,-25.49"/>
<polygon fill="black" stroke="black" points="463.26,-21.91 452.77,-23.35 461.87,-28.77 463.26,-21.91"/>
</g>
<!-- aws&#45;c&#45;mqtt&#45;&gt;aws&#45;crt&#45;cpp -->
<g id="edge8" class="edge">
<title>aws&#45;c&#45;mqtt&#45;&gt;aws&#45;crt&#45;cpp</title>
<path fill="none" stroke="black" d="M90.58,-71.7C90.58,-64.24 90.58,-55.32 90.58,-46.97"/>
<polygon fill="black" stroke="black" points="94.08,-47.1 90.58,-37.1 87.08,-47.1 94.08,-47.1"/>
</g>
<!-- aws&#45;c&#45;mqtt&#45;&gt;awscrt -->
<g id="edge9" class="edge">
<title>aws&#45;c&#45;mqtt&#45;&gt;awscrt</title>
<path fill="none" stroke="black" d="M140.19,-77.7C148.66,-75.78 157.37,-73.83 165.58,-72 232.59,-57.1 310.09,-40.27 359.2,-29.65"/>
<polygon fill="black" stroke="black" points="359.81,-32.88 368.84,-27.35 358.33,-26.04 359.81,-32.88"/>
</g>
<!-- aws&#45;c&#45;auth&#45;&gt;aws&#45;crt&#45;cpp -->
<g id="edge11" class="edge">
<title>aws&#45;c&#45;auth&#45;&gt;aws&#45;crt&#45;cpp</title>
<path fill="none" stroke="black" d="M119.48,-158.54C82.71,-153.43 39.27,-140.31 15.58,-108 6.12,-95.1 8.23,-86.21 15.58,-72 22.55,-58.56 34.66,-47.79 47.15,-39.57"/>
<polygon fill="black" stroke="black" points="48.52,-42.23 55.24,-34.03 44.88,-36.25 48.52,-42.23"/>
</g>
<!-- aws&#45;c&#45;auth&#45;&gt;aws&#45;c&#45;s3 -->
<g id="edge10" class="edge">
<title>aws&#45;c&#45;auth&#45;&gt;aws&#45;c&#45;s3</title>
<path fill="none" stroke="black" d="M194.48,-144.05C199.73,-135.89 206.14,-125.91 211.98,-116.82"/>
<polygon fill="black" stroke="black" points="215.33,-119.09 217.79,-108.79 209.44,-115.31 215.33,-119.09"/>
</g>
<!-- aws&#45;c&#45;auth&#45;&gt;awscrt -->
<g id="edge12" class="edge">
<title>aws&#45;c&#45;auth&#45;&gt;awscrt</title>
<path fill="none" stroke="black" d="M248.48,-160.61C337.77,-158.54 491.48,-148.94 526.58,-108 537,-95.85 535.28,-85.43 526.58,-72 511.8,-49.15 484.57,-36.06 459.99,-28.6"/>
<polygon fill="black" stroke="black" points="461.23,-25.04 450.66,-25.74 459.36,-31.79 461.23,-25.04"/>
</g>
<!-- aws&#45;c&#45;s3&#45;&gt;aws&#45;crt&#45;cpp -->
<g id="edge13" class="edge">
<title>aws&#45;c&#45;s3&#45;&gt;aws&#45;crt&#45;cpp</title>
<path fill="none" stroke="black" d="M199.99,-74.5C180,-64.36 153.02,-50.67 130.86,-39.43"/>
<polygon fill="black" stroke="black" points="132.56,-35.86 122.06,-34.46 129.39,-42.1 132.56,-35.86"/>
</g>
<!-- aws&#45;c&#45;s3&#45;&gt;awscrt -->
<g id="edge14" class="edge">
<title>aws&#45;c&#45;s3&#45;&gt;awscrt</title>
<path fill="none" stroke="black" d="M262.86,-75.67C292.47,-64.16 335.32,-47.49 366.9,-35.21"/>
<polygon fill="black" stroke="black" points="368.09,-38.11 376.14,-31.23 365.55,-31.59 368.09,-38.11"/>
</g>
</g>
</svg>
