<?xml version="1.0" encoding="UTF-8" standalone="no"?>
<!DOCTYPE svg PUBLIC "-//W3C//DTD SVG 1.1//EN"
 "http://www.w3.org/Graphics/SVG/1.1/DTD/svg11.dtd">
<!-- Generated by graphviz version 8.1.0 (20230707.2238)
 -->
<!-- Pages: 1 -->
<svg width="377pt" height="332pt"
 viewBox="0.00 0.00 377.09 332.00" xmlns="http://www.w3.org/2000/svg" xmlns:xlink="http://www.w3.org/1999/xlink">
<g id="graph0" class="graph" transform="scale(1 1) rotate(0) translate(4 328)">
<polygon fill="white" stroke="none" points="-4,4 -4,-328 373.09,-328 373.09,4 -4,4"/>
<!-- aws&#45;sdk&#45;cpp -->
<g id="node1" class="node">
<title>aws&#45;sdk&#45;cpp</title>
<g id="a_node1"><a xlink:href="https://github.com/conda-forge/aws-sdk-cpp-feedstock" xlink:title="aws sdk cpp">
<ellipse fill="#fde725" stroke="black" cx="144.31" cy="-18" rx="72.25" ry="18"/>
<text text-anchor="middle" x="144.31" y="-13.32" font-family="Times,serif" font-size="14.00">aws sdk cpp</text>
</a>
</g>
</g>
<!-- aws&#45;c&#45;http -->
<g id="node2" class="node">
<title>aws&#45;c&#45;http</title>
<g id="a_node2"><a xlink:href="https://github.com/conda-forge/aws-c-http-feedstock/pull/147" xlink:title="aws c http ❎">
<ellipse fill="#31688e" stroke="black" cx="191.31" cy="-306" rx="78.57" ry="18"/>
<text text-anchor="middle" x="191.31" y="-301.32" font-family="Times,serif" font-size="14.00" fill="white">aws c http ❎</text>
</a>
</g>
</g>
<!-- aws&#45;c&#45;mqtt -->
<g id="node3" class="node">
<title>aws&#45;c&#45;mqtt</title>
<g id="a_node3"><a xlink:href="https://github.com/conda-forge/aws-c-mqtt-feedstock" xlink:title="aws c mqtt">
<ellipse fill="#fde725" stroke="black" cx="81.31" cy="-162" rx="66.47" ry="18"/>
<text text-anchor="middle" x="81.31" y="-157.32" font-family="Times,serif" font-size="14.00">aws c mqtt</text>
</a>
</g>
</g>
<!-- aws&#45;c&#45;http&#45;&gt;aws&#45;c&#45;mqtt -->
<g id="edge2" class="edge">
<title>aws&#45;c&#45;http&#45;&gt;aws&#45;c&#45;mqtt</title>
<path fill="none" stroke="black" d="M178.04,-287.87C158.86,-263.11 123.25,-217.14 101,-188.42"/>
<polygon fill="black" stroke="black" points="103.17,-186.51 94.28,-180.75 97.64,-190.8 103.17,-186.51"/>
</g>
<!-- aws&#45;c&#45;auth -->
<g id="node4" class="node">
<title>aws&#45;c&#45;auth</title>
<g id="a_node4"><a xlink:href="https://github.com/conda-forge/aws-c-auth-feedstock" xlink:title="aws c auth">
<ellipse fill="#fde725" stroke="black" cx="284.31" cy="-234" rx="64.89" ry="18"/>
<text text-anchor="middle" x="284.31" y="-229.32" font-family="Times,serif" font-size="14.00">aws c auth</text>
</a>
</g>
</g>
<!-- aws&#45;c&#45;http&#45;&gt;aws&#45;c&#45;auth -->
<g id="edge1" class="edge">
<title>aws&#45;c&#45;http&#45;&gt;aws&#45;c&#45;auth</title>
<path fill="none" stroke="black" d="M213.35,-288.41C225.48,-279.28 240.72,-267.81 253.96,-257.84"/>
<polygon fill="black" stroke="black" points="255.86,-260.04 261.75,-251.23 251.65,-254.45 255.86,-260.04"/>
</g>
<!-- aws&#45;crt&#45;cpp -->
<g id="node5" class="node">
<title>aws&#45;crt&#45;cpp</title>
<g id="a_node5"><a xlink:href="https://github.com/conda-forge/aws-crt-cpp-feedstock" xlink:title="aws crt cpp">
<ellipse fill="#fde725" stroke="black" cx="144.31" cy="-90" rx="69.1" ry="18"/>
<text text-anchor="middle" x="144.31" y="-85.33" font-family="Times,serif" font-size="14.00">aws crt cpp</text>
</a>
</g>
</g>
<!-- aws&#45;c&#45;http&#45;&gt;aws&#45;crt&#45;cpp -->
<g id="edge4" class="edge">
<title>aws&#45;c&#45;http&#45;&gt;aws&#45;crt&#45;cpp</title>
<path fill="none" stroke="black" d="M149.58,-290.42C104.91,-272.3 36.4,-236.65 6.31,-180 -1.2,-165.87 -2.75,-157.19 6.31,-144 21.51,-121.88 47.33,-108.98 72.54,-101.47"/>
<polygon fill="black" stroke="black" points="73.17,-104.66 81.91,-98.66 71.34,-97.9 73.17,-104.66"/>
</g>
<!-- aws&#45;c&#45;s3 -->
<g id="node6" class="node">
<title>aws&#45;c&#45;s3</title>
<g id="a_node6"><a xlink:href="https://github.com/conda-forge/aws-c-s3-feedstock" xlink:title="aws c s3">
<ellipse fill="#fde725" stroke="black" cx="219.31" cy="-162" rx="53.84" ry="18"/>
<text text-anchor="middle" x="219.31" y="-157.32" font-family="Times,serif" font-size="14.00">aws c s3</text>
</a>
</g>
</g>
<!-- aws&#45;c&#45;http&#45;&gt;aws&#45;c&#45;s3 -->
<g id="edge3" class="edge">
<title>aws&#45;c&#45;http&#45;&gt;aws&#45;c&#45;s3</title>
<path fill="none" stroke="black" d="M194.74,-287.59C199.51,-263.4 208.2,-219.36 213.86,-190.65"/>
<polygon fill="black" stroke="black" points="217.44,-191.6 215.94,-181.11 210.57,-190.24 217.44,-191.6"/>
</g>
<!-- awscrt -->
<g id="node7" class="node">
<title>awscrt</title>
<g id="a_node7"><a xlink:href="https://github.com/conda-forge/awscrt-feedstock" xlink:title="awscrt">
<ellipse fill="#fde725" stroke="black" cx="279.31" cy="-90" rx="44.89" ry="18"/>
<text text-anchor="middle" x="279.31" y="-85.33" font-family="Times,serif" font-size="14.00">awscrt</text>
</a>
</g>
</g>
<!-- aws&#45;c&#45;http&#45;&gt;awscrt -->
<g id="edge5" class="edge">
<title>aws&#45;c&#45;http&#45;&gt;awscrt</title>
<path fill="none" stroke="black" d="M266.53,-300.57C300.29,-294.37 337.2,-280.84 358.31,-252 391.16,-207.11 339.67,-146.45 305.57,-113.9"/>
<polygon fill="black" stroke="black" points="308.46,-111.89 298.76,-107.64 303.7,-117.01 308.46,-111.89"/>
</g>
<!-- aws&#45;c&#45;mqtt&#45;&gt;aws&#45;crt&#45;cpp -->
<g id="edge6" class="edge">
<title>aws&#45;c&#45;mqtt&#45;&gt;aws&#45;crt&#45;cpp</title>
<path fill="none" stroke="black" d="M96.56,-144.05C104.22,-135.54 113.65,-125.07 122.1,-115.68"/>
<polygon fill="black" stroke="black" points="124.11,-118.56 128.2,-108.79 118.91,-113.88 124.11,-118.56"/>
</g>
<!-- aws&#45;c&#45;mqtt&#45;&gt;awscrt -->
<g id="edge7" class="edge">
<title>aws&#45;c&#45;mqtt&#45;&gt;awscrt</title>
<path fill="none" stroke="black" d="M120.43,-147.17C153.83,-135.36 201.79,-118.41 236.27,-106.22"/>
<polygon fill="black" stroke="black" points="237.24,-109.23 245.5,-102.6 234.91,-102.63 237.24,-109.23"/>
</g>
<!-- aws&#45;c&#45;auth&#45;&gt;aws&#45;crt&#45;cpp -->
<g id="edge9" class="edge">
<title>aws&#45;c&#45;auth&#45;&gt;aws&#45;crt&#45;cpp</title>
<path fill="none" stroke="black" d="M289.14,-215.86C293.49,-196.55 297.17,-165.11 282.31,-144 272.47,-130.02 235.5,-116.24 202.3,-106.23"/>
<polygon fill="black" stroke="black" points="203.74,-102.71 193.15,-103.25 201.76,-109.43 203.74,-102.71"/>
</g>
<!-- aws&#45;c&#45;auth&#45;&gt;aws&#45;c&#45;s3 -->
<g id="edge8" class="edge">
<title>aws&#45;c&#45;auth&#45;&gt;aws&#45;c&#45;s3</title>
<path fill="none" stroke="black" d="M268.58,-216.05C260.55,-207.42 250.66,-196.76 241.84,-187.27"/>
<polygon fill="black" stroke="black" points="244.82,-185.25 235.45,-180.31 239.69,-190.02 244.82,-185.25"/>
</g>
<!-- aws&#45;c&#45;auth&#45;&gt;awscrt -->
<g id="edge10" class="edge">
<title>aws&#45;c&#45;auth&#45;&gt;awscrt</title>
<path fill="none" stroke="black" d="M297.46,-215.91C304.23,-206.01 311.8,-192.96 315.31,-180 319.49,-164.56 320.01,-159.29 315.31,-144 312.24,-134.01 306.57,-124.21 300.62,-115.8"/>
<polygon fill="black" stroke="black" points="303,-114.15 294.17,-108.29 297.42,-118.38 303,-114.15"/>
</g>
<!-- aws&#45;crt&#45;cpp&#45;&gt;aws&#45;sdk&#45;cpp -->
<g id="edge11" class="edge">
<title>aws&#45;crt&#45;cpp&#45;&gt;aws&#45;sdk&#45;cpp</title>
<path fill="none" stroke="black" d="M144.31,-71.7C144.31,-64.24 144.31,-55.32 144.31,-46.97"/>
<polygon fill="black" stroke="black" points="147.81,-47.1 144.31,-37.1 140.81,-47.1 147.81,-47.1"/>
</g>
<!-- aws&#45;c&#45;s3&#45;&gt;aws&#45;crt&#45;cpp -->
<g id="edge12" class="edge">
<title>aws&#45;c&#45;s3&#45;&gt;aws&#45;crt&#45;cpp</title>
<path fill="none" stroke="black" d="M201.91,-144.76C192.4,-135.88 180.43,-124.71 169.87,-114.85"/>
<polygon fill="black" stroke="black" points="172.83,-112.9 163.13,-108.63 168.05,-118.02 172.83,-112.9"/>
</g>
<!-- aws&#45;c&#45;s3&#45;&gt;awscrt -->
<g id="edge13" class="edge">
<title>aws&#45;c&#45;s3&#45;&gt;awscrt</title>
<path fill="none" stroke="black" d="M233.53,-144.41C240.85,-135.87 249.93,-125.28 258.06,-115.79"/>
<polygon fill="black" stroke="black" points="261.34,-118.34 265.19,-108.47 256.03,-113.78 261.34,-118.34"/>
</g>
</g>
</svg>
