<?xml version="1.0" encoding="UTF-8" standalone="no"?>
<!DOCTYPE svg PUBLIC "-//W3C//DTD SVG 1.1//EN"
 "http://www.w3.org/Graphics/SVG/1.1/DTD/svg11.dtd">
<!-- Generated by graphviz version 8.1.0 (20230707.2238)
 -->
<!-- Pages: 1 -->
<svg width="340pt" height="188pt"
 viewBox="0.00 0.00 340.03 188.00" xmlns="http://www.w3.org/2000/svg" xmlns:xlink="http://www.w3.org/1999/xlink">
<g id="graph0" class="graph" transform="scale(1 1) rotate(0) translate(4 184)">
<polygon fill="white" stroke="none" points="-4,4 -4,-184 336.03,-184 336.03,4 -4,4"/>
<!-- aws&#45;c&#45;mqtt -->
<g id="node1" class="node">
<title>aws&#45;c&#45;mqtt</title>
<g id="a_node1"><a xlink:href="https://github.com/conda-forge/aws-c-mqtt-feedstock/pull/156" xlink:title="aws c mqtt ❎">
<ellipse fill="#31688e" stroke="black" cx="234.14" cy="-90" rx="81.72" ry="18"/>
<text text-anchor="middle" x="234.14" y="-85.33" font-family="Times,serif" font-size="14.00" fill="white">aws c mqtt ❎</text>
</a>
</g>
</g>
<!-- aws&#45;crt&#45;cpp -->
<g id="node3" class="node">
<title>aws&#45;crt&#45;cpp</title>
<g id="a_node3"><a xlink:href="https://github.com/conda-forge/aws-crt-cpp-feedstock" xlink:title="aws crt cpp">
<ellipse fill="#fde725" stroke="black" cx="80.14" cy="-18" rx="69.1" ry="18"/>
<text text-anchor="middle" x="80.14" y="-13.32" font-family="Times,serif" font-size="14.00">aws crt cpp</text>
</a>
</g>
</g>
<!-- aws&#45;c&#45;mqtt&#45;&gt;aws&#45;crt&#45;cpp -->
<g id="edge1" class="edge">
<title>aws&#45;c&#45;mqtt&#45;&gt;aws&#45;crt&#45;cpp</title>
<path fill="none" stroke="black" d="M199.58,-73.29C177.08,-63.06 147.55,-49.64 123.48,-38.7"/>
<polygon fill="black" stroke="black" points="125.08,-35.13 114.53,-34.18 122.19,-41.5 125.08,-35.13"/>
</g>
<!-- awscrt -->
<g id="node5" class="node">
<title>awscrt</title>
<g id="a_node5"><a xlink:href="https://github.com/conda-forge/awscrt-feedstock" xlink:title="awscrt">
<ellipse fill="#fde725" stroke="black" cx="234.14" cy="-18" rx="44.89" ry="18"/>
<text text-anchor="middle" x="234.14" y="-13.32" font-family="Times,serif" font-size="14.00">awscrt</text>
</a>
</g>
</g>
<!-- aws&#45;c&#45;mqtt&#45;&gt;awscrt -->
<g id="edge2" class="edge">
<title>aws&#45;c&#45;mqtt&#45;&gt;awscrt</title>
<path fill="none" stroke="black" d="M234.14,-71.7C234.14,-64.24 234.14,-55.32 234.14,-46.97"/>
<polygon fill="black" stroke="black" points="237.64,-47.1 234.14,-37.1 230.64,-47.1 237.64,-47.1"/>
</g>
<!-- aws&#45;c&#45;auth -->
<g id="node2" class="node">
<title>aws&#45;c&#45;auth</title>
<g id="a_node2"><a xlink:href="https://github.com/conda-forge/aws-c-auth-feedstock/pull/186" xlink:title="aws c auth ❎">
<ellipse fill="#31688e" stroke="black" cx="80.14" cy="-162" rx="80.14" ry="18"/>
<text text-anchor="middle" x="80.14" y="-157.32" font-family="Times,serif" font-size="14.00" fill="white">aws c auth ❎</text>
</a>
</g>
</g>
<!-- aws&#45;c&#45;auth&#45;&gt;aws&#45;crt&#45;cpp -->
<g id="edge4" class="edge">
<title>aws&#45;c&#45;auth&#45;&gt;aws&#45;crt&#45;cpp</title>
<path fill="none" stroke="black" d="M51.49,-144.96C38.44,-135.96 24.32,-123.42 17.14,-108 10.39,-93.49 10.39,-86.51 17.14,-72 22.8,-59.85 32.76,-49.49 43.12,-41.24"/>
<polygon fill="black" stroke="black" points="44.86,-43.57 50.82,-34.82 40.7,-37.94 44.86,-43.57"/>
</g>
<!-- aws&#45;c&#45;s3 -->
<g id="node4" class="node">
<title>aws&#45;c&#45;s3</title>
<g id="a_node4"><a xlink:href="https://github.com/conda-forge/aws-c-s3-feedstock" xlink:title="aws c s3">
<ellipse fill="#fde725" stroke="black" cx="80.14" cy="-90" rx="53.84" ry="18"/>
<text text-anchor="middle" x="80.14" y="-85.33" font-family="Times,serif" font-size="14.00">aws c s3</text>
</a>
</g>
</g>
<!-- aws&#45;c&#45;auth&#45;&gt;aws&#45;c&#45;s3 -->
<g id="edge3" class="edge">
<title>aws&#45;c&#45;auth&#45;&gt;aws&#45;c&#45;s3</title>
<path fill="none" stroke="black" d="M80.14,-143.7C80.14,-136.24 80.14,-127.32 80.14,-118.97"/>
<polygon fill="black" stroke="black" points="83.64,-119.1 80.14,-109.1 76.64,-119.1 83.64,-119.1"/>
</g>
<!-- aws&#45;c&#45;auth&#45;&gt;awscrt -->
<g id="edge5" class="edge">
<title>aws&#45;c&#45;auth&#45;&gt;awscrt</title>
<path fill="none" stroke="black" d="M154.57,-155.02C218.62,-148.14 303.97,-134.25 325.14,-108 335.19,-95.55 333.12,-85.87 325.14,-72 315,-54.35 296.45,-42.02 278.74,-33.73"/>
<polygon fill="black" stroke="black" points="280.61,-30.29 270.05,-29.53 277.83,-36.72 280.61,-30.29"/>
</g>
<!-- aws&#45;c&#45;s3&#45;&gt;aws&#45;crt&#45;cpp -->
<g id="edge6" class="edge">
<title>aws&#45;c&#45;s3&#45;&gt;aws&#45;crt&#45;cpp</title>
<path fill="none" stroke="black" d="M80.14,-71.7C80.14,-64.24 80.14,-55.32 80.14,-46.97"/>
<polygon fill="black" stroke="black" points="83.64,-47.1 80.14,-37.1 76.64,-47.1 83.64,-47.1"/>
</g>
<!-- aws&#45;c&#45;s3&#45;&gt;awscrt -->
<g id="edge7" class="edge">
<title>aws&#45;c&#45;s3&#45;&gt;awscrt</title>
<path fill="none" stroke="black" d="M110.94,-75C135.19,-63.98 169.15,-48.54 195.28,-36.67"/>
<polygon fill="black" stroke="black" points="196.57,-39.47 204.23,-32.14 193.67,-33.1 196.57,-39.47"/>
</g>
</g>
</svg>
