<?xml version="1.0" encoding="UTF-8" standalone="no"?>
<!DOCTYPE svg PUBLIC "-//W3C//DTD SVG 1.1//EN"
 "http://www.w3.org/Graphics/SVG/1.1/DTD/svg11.dtd">
<!-- Generated by graphviz version 8.0.5 (20230506.1012)
 -->
<!-- Pages: 1 -->
<svg width="870pt" height="476pt"
 viewBox="0.00 0.00 870.00 476.00" xmlns="http://www.w3.org/2000/svg" xmlns:xlink="http://www.w3.org/1999/xlink">
<g id="graph0" class="graph" transform="scale(1 1) rotate(0) translate(4 472)">
<polygon fill="white" stroke="none" points="-4,4 -4,-472 866,-472 866,4 -4,4"/>
<!-- aws&#45;sdk&#45;cpp -->
<g id="node1" class="node">
<title>aws&#45;sdk&#45;cpp</title>
<g id="a_node1"><a xlink:href="https://github.com/conda-forge/aws-sdk-cpp-feedstock" xlink:title="aws sdk cpp">
<ellipse fill="#fde725" stroke="black" cx="412" cy="-18" rx="72.25" ry="18"/>
<text text-anchor="middle" x="412" y="-13.32" font-family="Times,serif" font-size="14.00">aws sdk cpp</text>
</a>
</g>
</g>
<!-- aws&#45;checksums -->
<g id="node2" class="node">
<title>aws&#45;checksums</title>
<g id="a_node2"><a xlink:href="https://github.com/conda-forge/aws-checksums-feedstock" xlink:title="aws checksums">
<ellipse fill="#35b779" stroke="black" cx="624" cy="-234" rx="88.56" ry="18"/>
<text text-anchor="middle" x="624" y="-229.32" font-family="Times,serif" font-size="14.00">aws checksums</text>
</a>
</g>
</g>
<!-- aws&#45;c&#45;event&#45;stream -->
<g id="node3" class="node">
<title>aws&#45;c&#45;event&#45;stream</title>
<g id="a_node3"><a xlink:href="https://github.com/conda-forge/aws-c-event-stream-feedstock" xlink:title="aws c event stream">
<ellipse fill="#fde725" stroke="black" cx="687" cy="-162" rx="108.55" ry="18"/>
<text text-anchor="middle" x="687" y="-157.32" font-family="Times,serif" font-size="14.00">aws c event stream</text>
</a>
</g>
</g>
<!-- aws&#45;checksums&#45;&gt;aws&#45;c&#45;event&#45;stream -->
<g id="edge1" class="edge">
<title>aws&#45;checksums&#45;&gt;aws&#45;c&#45;event&#45;stream</title>
<path fill="none" stroke="black" d="M639.25,-216.05C646.72,-207.75 655.87,-197.58 664.16,-188.38"/>
<polygon fill="black" stroke="black" points="666.36,-191.05 670.45,-181.28 661.16,-186.37 666.36,-191.05"/>
</g>
<!-- aws&#45;crt&#45;cpp -->
<g id="node4" class="node">
<title>aws&#45;crt&#45;cpp</title>
<g id="a_node4"><a xlink:href="https://github.com/conda-forge/aws-crt-cpp-feedstock" xlink:title="aws crt cpp">
<ellipse fill="#fde725" stroke="black" cx="310" cy="-90" rx="69.1" ry="18"/>
<text text-anchor="middle" x="310" y="-85.33" font-family="Times,serif" font-size="14.00">aws crt cpp</text>
</a>
</g>
</g>
<!-- aws&#45;checksums&#45;&gt;aws&#45;crt&#45;cpp -->
<g id="edge2" class="edge">
<title>aws&#45;checksums&#45;&gt;aws&#45;crt&#45;cpp</title>
<path fill="none" stroke="black" d="M592.68,-216.84C574.66,-207.04 551.91,-193.79 533,-180 513.68,-165.91 513.9,-155.62 493,-144 457.08,-124.03 412.93,-110.96 376.99,-102.8"/>
<polygon fill="black" stroke="black" points="378.12,-99.25 367.6,-100.52 376.62,-106.08 378.12,-99.25"/>
</g>
<!-- aws&#45;c&#45;s3 -->
<g id="node5" class="node">
<title>aws&#45;c&#45;s3</title>
<g id="a_node5"><a xlink:href="https://github.com/conda-forge/aws-c-s3-feedstock" xlink:title="aws c s3">
<ellipse fill="#fde725" stroke="black" cx="430" cy="-162" rx="53.84" ry="18"/>
<text text-anchor="middle" x="430" y="-157.32" font-family="Times,serif" font-size="14.00">aws c s3</text>
</a>
</g>
</g>
<!-- aws&#45;checksums&#45;&gt;aws&#45;c&#45;s3 -->
<g id="edge3" class="edge">
<title>aws&#45;checksums&#45;&gt;aws&#45;c&#45;s3</title>
<path fill="none" stroke="black" d="M581.9,-217.81C550.53,-206.49 507.73,-191.05 475.56,-179.44"/>
<polygon fill="black" stroke="black" points="477.11,-175.92 466.51,-175.81 474.73,-182.5 477.11,-175.92"/>
</g>
<!-- awscrt -->
<g id="node6" class="node">
<title>awscrt</title>
<g id="a_node6"><a xlink:href="https://github.com/conda-forge/awscrt-feedstock" xlink:title="awscrt">
<ellipse fill="#fde725" stroke="black" cx="496" cy="-90" rx="44.9" ry="18"/>
<text text-anchor="middle" x="496" y="-85.33" font-family="Times,serif" font-size="14.00">awscrt</text>
</a>
</g>
</g>
<!-- aws&#45;checksums&#45;&gt;awscrt -->
<g id="edge4" class="edge">
<title>aws&#45;checksums&#45;&gt;awscrt</title>
<path fill="none" stroke="black" d="M605.39,-216.09C594.48,-205.93 580.6,-192.57 569,-180 549.78,-159.18 529.45,-134.12 515.15,-115.9"/>
<polygon fill="black" stroke="black" points="517.55,-114.29 508.64,-108.56 512.03,-118.6 517.55,-114.29"/>
</g>
<!-- aws&#45;c&#45;event&#45;stream&#45;&gt;aws&#45;sdk&#45;cpp -->
<g id="edge5" class="edge">
<title>aws&#45;c&#45;event&#45;stream&#45;&gt;aws&#45;sdk&#45;cpp</title>
<path fill="none" stroke="black" d="M664.14,-144.01C637.64,-124.83 592.2,-93.51 550,-72 522.85,-58.16 491.2,-45.76 465.06,-36.44"/>
<polygon fill="black" stroke="black" points="466.56,-32.9 455.97,-32.89 464.24,-39.51 466.56,-32.9"/>
</g>
<!-- aws&#45;c&#45;event&#45;stream&#45;&gt;aws&#45;crt&#45;cpp -->
<g id="edge6" class="edge">
<title>aws&#45;c&#45;event&#45;stream&#45;&gt;aws&#45;crt&#45;cpp</title>
<path fill="none" stroke="black" d="M616.53,-147.92C547.45,-135.09 442.97,-115.69 375.61,-103.18"/>
<polygon fill="black" stroke="black" points="376.6,-99.62 366.13,-101.24 375.32,-106.5 376.6,-99.62"/>
</g>
<!-- aws&#45;c&#45;event&#45;stream&#45;&gt;awscrt -->
<g id="edge7" class="edge">
<title>aws&#45;c&#45;event&#45;stream&#45;&gt;awscrt</title>
<path fill="none" stroke="black" d="M643.66,-145.12C612.21,-133.59 569.88,-118.08 538.61,-106.62"/>
<polygon fill="black" stroke="black" points="540.05,-103.05 529.46,-102.9 537.64,-109.62 540.05,-103.05"/>
</g>
<!-- aws&#45;crt&#45;cpp&#45;&gt;aws&#45;sdk&#45;cpp -->
<g id="edge8" class="edge">
<title>aws&#45;crt&#45;cpp&#45;&gt;aws&#45;sdk&#45;cpp</title>
<path fill="none" stroke="black" d="M333.66,-72.76C347.21,-63.47 364.41,-51.66 379.24,-41.48"/>
<polygon fill="black" stroke="black" points="380.85,-43.93 387.12,-35.39 376.89,-38.16 380.85,-43.93"/>
</g>
<!-- aws&#45;c&#45;s3&#45;&gt;aws&#45;crt&#45;cpp -->
<g id="edge9" class="edge">
<title>aws&#45;c&#45;s3&#45;&gt;aws&#45;crt&#45;cpp</title>
<path fill="none" stroke="black" d="M403.96,-145.81C387.17,-136.02 365.1,-123.14 346.56,-112.33"/>
<polygon fill="black" stroke="black" points="348.64,-108.9 338.24,-106.89 345.11,-114.95 348.64,-108.9"/>
</g>
<!-- aws&#45;c&#45;s3&#45;&gt;awscrt -->
<g id="edge10" class="edge">
<title>aws&#45;c&#45;s3&#45;&gt;awscrt</title>
<path fill="none" stroke="black" d="M445.64,-144.41C453.98,-135.57 464.39,-124.53 473.57,-114.79"/>
<polygon fill="black" stroke="black" points="475.61,-117.67 479.93,-107.99 470.52,-112.86 475.61,-117.67"/>
</g>
<!-- aws&#45;c&#45;io -->
<g id="node7" class="node">
<title>aws&#45;c&#45;io</title>
<g id="a_node7"><a xlink:href="https://github.com/conda-forge/aws-c-io-feedstock" xlink:title="aws c io">
<ellipse fill="#fde725" stroke="black" cx="457" cy="-378" rx="51.21" ry="18"/>
<text text-anchor="middle" x="457" y="-373.32" font-family="Times,serif" font-size="14.00">aws c io</text>
</a>
</g>
</g>
<!-- aws&#45;c&#45;io&#45;&gt;aws&#45;c&#45;event&#45;stream -->
<g id="edge11" class="edge">
<title>aws&#45;c&#45;io&#45;&gt;aws&#45;c&#45;event&#45;stream</title>
<path fill="none" stroke="black" d="M503.89,-370.26C566.18,-358.51 673.93,-327.83 722,-252 734.61,-232.12 722.51,-206.95 709.21,-188.46"/>
<polygon fill="black" stroke="black" points="711.55,-186.77 702.68,-180.97 706,-191.03 711.55,-186.77"/>
</g>
<!-- aws&#45;c&#45;io&#45;&gt;aws&#45;crt&#45;cpp -->
<g id="edge12" class="edge">
<title>aws&#45;c&#45;io&#45;&gt;aws&#45;crt&#45;cpp</title>
<path fill="none" stroke="black" d="M409.18,-371.06C309.3,-358.56 87.34,-330.15 82,-324 55.75,-293.78 -10.83,-263.49 87,-144 105.8,-121.04 178.38,-106.84 235.7,-98.99"/>
<polygon fill="black" stroke="black" points="236.12,-102.34 245.57,-97.55 235.2,-95.4 236.12,-102.34"/>
</g>
<!-- aws&#45;c&#45;io&#45;&gt;aws&#45;c&#45;s3 -->
<g id="edge13" class="edge">
<title>aws&#45;c&#45;io&#45;&gt;aws&#45;c&#45;s3</title>
<path fill="none" stroke="black" d="M475.14,-360.76C484.52,-351.13 495.01,-338.07 500,-324 505.35,-308.92 504.04,-303.48 500,-288 490.24,-250.61 466.54,-212.56 449.42,-188.42"/>
<polygon fill="black" stroke="black" points="451.71,-186.62 443,-180.58 446.04,-190.73 451.71,-186.62"/>
</g>
<!-- aws&#45;c&#45;io&#45;&gt;awscrt -->
<g id="edge14" class="edge">
<title>aws&#45;c&#45;io&#45;&gt;awscrt</title>
<path fill="none" stroke="black" d="M507.28,-373.87C554.8,-368.97 626.56,-356.37 680,-324 752.49,-280.09 775.35,-259.39 805,-180 810.6,-165.01 815.31,-156.23 805,-144 773.25,-106.34 631.95,-95.44 551.87,-92.29"/>
<polygon fill="black" stroke="black" points="552.11,-88.76 541.99,-91.89 551.86,-95.75 552.11,-88.76"/>
</g>
<!-- aws&#45;c&#45;http -->
<g id="node8" class="node">
<title>aws&#45;c&#45;http</title>
<g id="a_node8"><a xlink:href="https://github.com/conda-forge/aws-c-http-feedstock" xlink:title="aws c http">
<ellipse fill="#fde725" stroke="black" cx="154" cy="-306" rx="63.31" ry="18"/>
<text text-anchor="middle" x="154" y="-301.32" font-family="Times,serif" font-size="14.00">aws c http</text>
</a>
</g>
</g>
<!-- aws&#45;c&#45;io&#45;&gt;aws&#45;c&#45;http -->
<g id="edge15" class="edge">
<title>aws&#45;c&#45;io&#45;&gt;aws&#45;c&#45;http</title>
<path fill="none" stroke="black" d="M415.19,-367.34C362.58,-355.19 271.94,-334.25 212.48,-320.51"/>
<polygon fill="black" stroke="black" points="213.66,-316.96 203.13,-318.12 212.08,-323.78 213.66,-316.96"/>
</g>
<!-- aws&#45;c&#45;mqtt -->
<g id="node9" class="node">
<title>aws&#45;c&#45;mqtt</title>
<g id="a_node9"><a xlink:href="https://github.com/conda-forge/aws-c-mqtt-feedstock" xlink:title="aws c mqtt">
<ellipse fill="#fde725" stroke="black" cx="178" cy="-162" rx="66.47" ry="18"/>
<text text-anchor="middle" x="178" y="-157.32" font-family="Times,serif" font-size="14.00">aws c mqtt</text>
</a>
</g>
</g>
<!-- aws&#45;c&#45;io&#45;&gt;aws&#45;c&#45;mqtt -->
<g id="edge16" class="edge">
<title>aws&#45;c&#45;io&#45;&gt;aws&#45;c&#45;mqtt</title>
<path fill="none" stroke="black" d="M412.04,-368.91C379.23,-361.36 334.94,-347.61 302,-324 251.42,-287.74 211.66,-225 191.84,-189.49"/>
<polygon fill="black" stroke="black" points="194.65,-188.34 186.78,-181.24 188.51,-191.7 194.65,-188.34"/>
</g>
<!-- aws&#45;c&#45;auth -->
<g id="node10" class="node">
<title>aws&#45;c&#45;auth</title>
<g id="a_node10"><a xlink:href="https://github.com/conda-forge/aws-c-auth-feedstock" xlink:title="aws c auth">
<ellipse fill="#fde725" stroke="black" cx="376" cy="-234" rx="64.89" ry="18"/>
<text text-anchor="middle" x="376" y="-229.32" font-family="Times,serif" font-size="14.00">aws c auth</text>
</a>
</g>
</g>
<!-- aws&#45;c&#45;io&#45;&gt;aws&#45;c&#45;auth -->
<g id="edge17" class="edge">
<title>aws&#45;c&#45;io&#45;&gt;aws&#45;c&#45;auth</title>
<path fill="none" stroke="black" d="M469.92,-360.17C482.61,-341.42 498.18,-310.75 484,-288 472.9,-270.19 453.89,-258.2 434.88,-250.2"/>
<polygon fill="black" stroke="black" points="436.26,-246.6 425.67,-246.27 433.74,-253.13 436.26,-246.6"/>
</g>
<!-- aws&#45;c&#45;http&#45;&gt;aws&#45;crt&#45;cpp -->
<g id="edge18" class="edge">
<title>aws&#45;c&#45;http&#45;&gt;aws&#45;crt&#45;cpp</title>
<path fill="none" stroke="black" d="M139.56,-288.18C114.43,-256.8 68.48,-188.47 103,-144 119.63,-122.58 184.76,-108.34 237.58,-100.07"/>
<polygon fill="black" stroke="black" points="237.94,-103.4 247.3,-98.44 236.89,-96.48 237.94,-103.4"/>
</g>
<!-- aws&#45;c&#45;http&#45;&gt;aws&#45;c&#45;s3 -->
<g id="edge19" class="edge">
<title>aws&#45;c&#45;http&#45;&gt;aws&#45;c&#45;s3</title>
<path fill="none" stroke="black" d="M177.98,-289.05C206.75,-270.29 256.76,-238.81 302,-216 328.68,-202.55 359.62,-189.67 384.39,-179.97"/>
<polygon fill="black" stroke="black" points="385.54,-182.9 393.6,-176.02 383.01,-176.37 385.54,-182.9"/>
</g>
<!-- aws&#45;c&#45;http&#45;&gt;awscrt -->
<g id="edge20" class="edge">
<title>aws&#45;c&#45;http&#45;&gt;awscrt</title>
<path fill="none" stroke="black" d="M167.27,-287.92C182.53,-268.94 209,-238.07 236,-216 302.49,-161.66 396.54,-124.04 451.41,-105.12"/>
<polygon fill="black" stroke="black" points="452.16,-108.22 460.51,-101.69 449.92,-101.59 452.16,-108.22"/>
</g>
<!-- aws&#45;c&#45;http&#45;&gt;aws&#45;c&#45;mqtt -->
<g id="edge21" class="edge">
<title>aws&#45;c&#45;http&#45;&gt;aws&#45;c&#45;mqtt</title>
<path fill="none" stroke="black" d="M156.94,-287.59C161.03,-263.4 168.47,-219.36 173.33,-190.65"/>
<polygon fill="black" stroke="black" points="176.89,-191.55 175.11,-181.11 169.99,-190.39 176.89,-191.55"/>
</g>
<!-- aws&#45;c&#45;http&#45;&gt;aws&#45;c&#45;auth -->
<g id="edge22" class="edge">
<title>aws&#45;c&#45;http&#45;&gt;aws&#45;c&#45;auth</title>
<path fill="none" stroke="black" d="M195.24,-292C231.53,-280.55 284.56,-263.83 323.81,-251.46"/>
<polygon fill="black" stroke="black" points="324.75,-254.52 333.23,-248.17 322.64,-247.84 324.75,-254.52"/>
</g>
<!-- aws&#45;c&#45;mqtt&#45;&gt;aws&#45;crt&#45;cpp -->
<g id="edge23" class="edge">
<title>aws&#45;c&#45;mqtt&#45;&gt;aws&#45;crt&#45;cpp</title>
<path fill="none" stroke="black" d="M207.3,-145.46C225.96,-135.57 250.38,-122.62 270.72,-111.83"/>
<polygon fill="black" stroke="black" points="272.14,-114.51 279.33,-106.73 268.86,-108.33 272.14,-114.51"/>
</g>
<!-- aws&#45;c&#45;mqtt&#45;&gt;awscrt -->
<g id="edge24" class="edge">
<title>aws&#45;c&#45;mqtt&#45;&gt;awscrt</title>
<path fill="none" stroke="black" d="M228.39,-149.91C288.24,-136.73 387.41,-114.9 446.75,-101.84"/>
<polygon fill="black" stroke="black" points="447.34,-105.08 456.35,-99.51 445.83,-98.24 447.34,-105.08"/>
</g>
<!-- aws&#45;c&#45;auth&#45;&gt;aws&#45;crt&#45;cpp -->
<g id="edge25" class="edge">
<title>aws&#45;c&#45;auth&#45;&gt;aws&#45;crt&#45;cpp</title>
<path fill="none" stroke="black" d="M359.66,-216.1C350.94,-206.26 340.66,-193.21 334,-180 324.33,-160.8 318.2,-137.24 314.55,-119.19"/>
<polygon fill="black" stroke="black" points="317.83,-118.67 312.55,-109.48 310.95,-119.95 317.83,-118.67"/>
</g>
<!-- aws&#45;c&#45;auth&#45;&gt;aws&#45;c&#45;s3 -->
<g id="edge26" class="edge">
<title>aws&#45;c&#45;auth&#45;&gt;aws&#45;c&#45;s3</title>
<path fill="none" stroke="black" d="M389.07,-216.05C395.51,-207.71 403.39,-197.49 410.52,-188.25"/>
<polygon fill="black" stroke="black" points="413.71,-190.84 417.05,-180.79 408.17,-186.57 413.71,-190.84"/>
</g>
<!-- aws&#45;c&#45;auth&#45;&gt;awscrt -->
<g id="edge27" class="edge">
<title>aws&#45;c&#45;auth&#45;&gt;awscrt</title>
<path fill="none" stroke="black" d="M368.12,-215.67C360.69,-196.48 352.65,-165.41 367,-144 383.9,-118.79 415.18,-105.56 442.71,-98.62"/>
<polygon fill="black" stroke="black" points="443.46,-101.81 452.43,-96.18 441.9,-94.99 443.46,-101.81"/>
</g>
<!-- aws&#45;c&#45;cal -->
<g id="node11" class="node">
<title>aws&#45;c&#45;cal</title>
<g id="a_node11"><a xlink:href="https://github.com/conda-forge/aws-c-cal-feedstock/pull/81" xlink:title="aws c cal ❎">
<ellipse fill="#31688e" stroke="black" cx="427" cy="-450" rx="71.73" ry="18"/>
<text text-anchor="middle" x="427" y="-445.32" font-family="Times,serif" font-size="14.00" fill="white">aws c cal ❎</text>
</a>
</g>
</g>
<!-- aws&#45;c&#45;cal&#45;&gt;aws&#45;crt&#45;cpp -->
<g id="edge28" class="edge">
<title>aws&#45;c&#45;cal&#45;&gt;aws&#45;crt&#45;cpp</title>
<path fill="none" stroke="black" d="M355.95,-446.8C259.76,-442.55 94.51,-430.34 46,-396 9.66,-370.27 0,-351.53 0,-307 0,-307 0,-307 0,-233 0,-131.6 138.78,-102.32 230.63,-94.05"/>
<polygon fill="black" stroke="black" points="230.91,-97.45 240.59,-93.14 230.33,-90.48 230.91,-97.45"/>
</g>
<!-- aws&#45;c&#45;cal&#45;&gt;aws&#45;c&#45;s3 -->
<g id="edge29" class="edge">
<title>aws&#45;c&#45;cal&#45;&gt;aws&#45;c&#45;s3</title>
<path fill="none" stroke="black" d="M468.94,-435.17C487.1,-426.86 506.56,-414.26 517,-396 557.11,-325.83 535.88,-283.23 491,-216 483.27,-204.42 472.37,-193.86 461.92,-185.26"/>
<polygon fill="black" stroke="black" points="464.35,-181.94 454.32,-178.52 460.03,-187.45 464.35,-181.94"/>
</g>
<!-- aws&#45;c&#45;cal&#45;&gt;awscrt -->
<g id="edge30" class="edge">
<title>aws&#45;c&#45;cal&#45;&gt;awscrt</title>
<path fill="none" stroke="black" d="M491.19,-441.61C612.19,-425.87 862,-384.06 862,-307 862,-307 862,-307 862,-233 862,-189.63 856.4,-170.41 822,-144 780.58,-112.2 633.09,-98.82 551.42,-93.75"/>
<polygon fill="black" stroke="black" points="551.79,-90.2 541.6,-93.1 551.37,-97.19 551.79,-90.2"/>
</g>
<!-- aws&#45;c&#45;cal&#45;&gt;aws&#45;c&#45;io -->
<g id="edge31" class="edge">
<title>aws&#45;c&#45;cal&#45;&gt;aws&#45;c&#45;io</title>
<path fill="none" stroke="black" d="M434.42,-431.7C437.72,-423.98 441.69,-414.71 445.38,-406.11"/>
<polygon fill="black" stroke="black" points="448.95,-407.67 449.67,-397.1 442.51,-404.92 448.95,-407.67"/>
</g>
<!-- aws&#45;c&#45;cal&#45;&gt;aws&#45;c&#45;http -->
<g id="edge32" class="edge">
<title>aws&#45;c&#45;cal&#45;&gt;aws&#45;c&#45;http</title>
<path fill="none" stroke="black" d="M355.01,-449.39C258.47,-448.19 94.78,-439.58 57,-396 46.52,-383.91 48.84,-373.76 57,-360 66.74,-343.58 83.56,-331.92 100.48,-323.8"/>
<polygon fill="black" stroke="black" points="101.67,-326.66 109.4,-319.42 98.84,-320.25 101.67,-326.66"/>
</g>
<!-- aws&#45;c&#45;cal&#45;&gt;aws&#45;c&#45;auth -->
<g id="edge33" class="edge">
<title>aws&#45;c&#45;cal&#45;&gt;aws&#45;c&#45;auth</title>
<path fill="none" stroke="black" d="M401.45,-432.85C371.11,-411.97 322.08,-372.49 302,-324 295.88,-309.22 294.69,-302.23 302,-288 308.97,-274.43 321.21,-263.55 333.76,-255.27"/>
<polygon fill="black" stroke="black" points="335.17,-257.9 341.87,-249.7 331.52,-251.93 335.17,-257.9"/>
</g>
<!-- aws&#45;c&#45;compression -->
<g id="node12" class="node">
<title>aws&#45;c&#45;compression</title>
<g id="a_node12"><a xlink:href="https://github.com/conda-forge/aws-c-compression-feedstock/pull/42" xlink:title="aws c compression ❎">
<ellipse fill="#31688e" stroke="black" cx="187" cy="-378" rx="120.65" ry="18"/>
<text text-anchor="middle" x="187" y="-373.32" font-family="Times,serif" font-size="14.00" fill="white">aws c compression ❎</text>
</a>
</g>
</g>
<!-- aws&#45;c&#45;compression&#45;&gt;aws&#45;c&#45;http -->
<g id="edge34" class="edge">
<title>aws&#45;c&#45;compression&#45;&gt;aws&#45;c&#45;http</title>
<path fill="none" stroke="black" d="M178.84,-359.7C175.17,-351.9 170.74,-342.51 166.65,-333.83"/>
<polygon fill="black" stroke="black" points="169.49,-332.66 162.06,-325.1 163.16,-335.64 169.49,-332.66"/>
</g>
<!-- aws&#45;c&#45;sdkutils -->
<g id="node13" class="node">
<title>aws&#45;c&#45;sdkutils</title>
<g id="a_node13"><a xlink:href="https://github.com/conda-forge/aws-c-sdkutils-feedstock" xlink:title="aws c sdkutils">
<ellipse fill="#35b779" stroke="black" cx="393" cy="-306" rx="81.72" ry="18"/>
<text text-anchor="middle" x="393" y="-301.32" font-family="Times,serif" font-size="14.00">aws c sdkutils</text>
</a>
</g>
</g>
<!-- aws&#45;c&#45;sdkutils&#45;&gt;aws&#45;c&#45;auth -->
<g id="edge35" class="edge">
<title>aws&#45;c&#45;sdkutils&#45;&gt;aws&#45;c&#45;auth</title>
<path fill="none" stroke="black" d="M388.8,-287.7C386.97,-280.15 384.77,-271.12 382.72,-262.68"/>
<polygon fill="black" stroke="black" points="385.92,-262 380.15,-253.1 379.11,-263.65 385.92,-262"/>
</g>
</g>
</svg>
