<?xml version="1.0" encoding="UTF-8" standalone="no"?>
<!DOCTYPE svg PUBLIC "-//W3C//DTD SVG 1.1//EN"
 "http://www.w3.org/Graphics/SVG/1.1/DTD/svg11.dtd">
<!-- Generated by graphviz version 2.49.1 (20211004.0028)
 -->
<!-- Pages: 1 -->
<svg width="248pt" height="188pt"
 viewBox="0.00 0.00 247.59 188.00" xmlns="http://www.w3.org/2000/svg" xmlns:xlink="http://www.w3.org/1999/xlink">
<g id="graph0" class="graph" transform="scale(1 1) rotate(0) translate(4 184)">
<polygon fill="white" stroke="transparent" points="-4,4 -4,-184 243.59,-184 243.59,4 -4,4"/>
<!-- aws&#45;c&#45;auth -->
<g id="node1" class="node">
<title>aws&#45;c&#45;auth</title>
<g id="a_node1"><a xlink:href="https://github.com/conda-forge/aws-c-auth-feedstock/pull/165" xlink:title="aws c auth ❎">
<ellipse fill="#31688e" stroke="black" cx="127.34" cy="-162" rx="74.99" ry="18"/>
<text text-anchor="middle" x="127.34" y="-158.3" font-family="Times,serif" font-size="14.00" fill="white">aws c auth ❎</text>
</a>
</g>
</g>
<!-- aws&#45;crt&#45;cpp -->
<g id="node2" class="node">
<title>aws&#45;crt&#45;cpp</title>
<g id="a_node2"><a xlink:href="https://github.com/conda-forge/aws-crt-cpp-feedstock" xlink:title="aws crt cpp">
<ellipse fill="#fde725" stroke="black" cx="64.34" cy="-18" rx="64.19" ry="18"/>
<text text-anchor="middle" x="64.34" y="-14.3" font-family="Times,serif" font-size="14.00">aws crt cpp</text>
</a>
</g>
</g>
<!-- aws&#45;c&#45;auth&#45;&gt;aws&#45;crt&#45;cpp -->
<g id="edge2" class="edge">
<title>aws&#45;c&#45;auth&#45;&gt;aws&#45;crt&#45;cpp</title>
<path fill="none" stroke="black" d="M101.37,-144.89C89.04,-135.72 75.47,-123.06 68.34,-108 59.22,-88.72 58.77,-64.38 60.29,-46.03"/>
<polygon fill="black" stroke="black" points="63.78,-46.31 61.36,-36 56.82,-45.57 63.78,-46.31"/>
</g>
<!-- aws&#45;c&#45;s3 -->
<g id="node3" class="node">
<title>aws&#45;c&#45;s3</title>
<g id="a_node3"><a xlink:href="https://github.com/conda-forge/aws-c-s3-feedstock" xlink:title="aws c s3">
<ellipse fill="#fde725" stroke="black" cx="127.34" cy="-90" rx="50.09" ry="18"/>
<text text-anchor="middle" x="127.34" y="-86.3" font-family="Times,serif" font-size="14.00">aws c s3</text>
</a>
</g>
</g>
<!-- aws&#45;c&#45;auth&#45;&gt;aws&#45;c&#45;s3 -->
<g id="edge1" class="edge">
<title>aws&#45;c&#45;auth&#45;&gt;aws&#45;c&#45;s3</title>
<path fill="none" stroke="black" d="M127.34,-143.7C127.34,-135.98 127.34,-126.71 127.34,-118.11"/>
<polygon fill="black" stroke="black" points="130.84,-118.1 127.34,-108.1 123.84,-118.1 130.84,-118.1"/>
</g>
<!-- awscrt -->
<g id="node4" class="node">
<title>awscrt</title>
<g id="a_node4"><a xlink:href="https://github.com/conda-forge/awscrt-feedstock" xlink:title="awscrt">
<ellipse fill="#fde725" stroke="black" cx="197.34" cy="-18" rx="42.49" ry="18"/>
<text text-anchor="middle" x="197.34" y="-14.3" font-family="Times,serif" font-size="14.00">awscrt</text>
</a>
</g>
</g>
<!-- aws&#45;c&#45;auth&#45;&gt;awscrt -->
<g id="edge3" class="edge">
<title>aws&#45;c&#45;auth&#45;&gt;awscrt</title>
<path fill="none" stroke="black" d="M152.53,-144.88C164.81,-135.63 178.57,-122.89 186.34,-108 196.28,-88.96 198.7,-64.6 198.82,-46.18"/>
<polygon fill="black" stroke="black" points="202.32,-46.05 198.67,-36.11 195.32,-46.16 202.32,-46.05"/>
</g>
<!-- aws&#45;c&#45;s3&#45;&gt;aws&#45;crt&#45;cpp -->
<g id="edge4" class="edge">
<title>aws&#45;c&#45;s3&#45;&gt;aws&#45;crt&#45;cpp</title>
<path fill="none" stroke="black" d="M112.73,-72.76C104.82,-63.97 94.88,-52.93 86.07,-43.14"/>
<polygon fill="black" stroke="black" points="88.61,-40.72 79.31,-35.63 83.4,-45.41 88.61,-40.72"/>
</g>
<!-- aws&#45;c&#45;s3&#45;&gt;awscrt -->
<g id="edge5" class="edge">
<title>aws&#45;c&#45;s3&#45;&gt;awscrt</title>
<path fill="none" stroke="black" d="M143.58,-72.76C152.59,-63.75 163.96,-52.39 173.92,-42.43"/>
<polygon fill="black" stroke="black" points="176.6,-44.69 181.2,-35.15 171.65,-39.74 176.6,-44.69"/>
</g>
</g>
</svg>
