<?xml version="1.0" encoding="UTF-8" standalone="no"?>
<!DOCTYPE svg PUBLIC "-//W3C//DTD SVG 1.1//EN"
 "http://www.w3.org/Graphics/SVG/1.1/DTD/svg11.dtd">
<!-- Generated by graphviz version 7.1.0 (20230122.1345)
 -->
<!-- Pages: 1 -->
<svg width="741pt" height="404pt"
 viewBox="0.00 0.00 740.85 404.00" xmlns="http://www.w3.org/2000/svg" xmlns:xlink="http://www.w3.org/1999/xlink">
<g id="graph0" class="graph" transform="scale(1 1) rotate(0) translate(4 400)">
<polygon fill="white" stroke="none" points="-4,4 -4,-400 736.85,-400 736.85,4 -4,4"/>
<!-- aws&#45;sdk&#45;cpp -->
<g id="node1" class="node">
<title>aws&#45;sdk&#45;cpp</title>
<g id="a_node1"><a xlink:href="https://github.com/conda-forge/aws-sdk-cpp-feedstock" xlink:title="aws sdk cpp">
<ellipse fill="#fde725" stroke="black" cx="316.46" cy="-18" rx="67.69" ry="18"/>
<text text-anchor="middle" x="316.46" y="-14.3" font-family="Times,serif" font-size="14.00">aws sdk cpp</text>
</a>
</g>
</g>
<!-- aws&#45;checksums -->
<g id="node2" class="node">
<title>aws&#45;checksums</title>
<g id="a_node2"><a xlink:href="https://github.com/conda-forge/aws-checksums-feedstock" xlink:title="aws checksums">
<ellipse fill="#35b779" stroke="black" cx="523.46" cy="-234" rx="82.59" ry="18"/>
<text text-anchor="middle" x="523.46" y="-230.3" font-family="Times,serif" font-size="14.00">aws checksums</text>
</a>
</g>
</g>
<!-- aws&#45;c&#45;event&#45;stream -->
<g id="node3" class="node">
<title>aws&#45;c&#45;event&#45;stream</title>
<g id="a_node3"><a xlink:href="https://github.com/conda-forge/aws-c-event-stream-feedstock" xlink:title="aws c event stream">
<ellipse fill="#fde725" stroke="black" cx="603.46" cy="-162" rx="100.98" ry="18"/>
<text text-anchor="middle" x="603.46" y="-158.3" font-family="Times,serif" font-size="14.00">aws c event stream</text>
</a>
</g>
</g>
<!-- aws&#45;checksums&#45;&gt;aws&#45;c&#45;event&#45;stream -->
<g id="edge1" class="edge">
<title>aws&#45;checksums&#45;&gt;aws&#45;c&#45;event&#45;stream</title>
<path fill="none" stroke="black" d="M542.82,-216.05C552.58,-207.52 564.59,-197.01 575.34,-187.61"/>
<polygon fill="black" stroke="black" points="577.63,-190.25 582.85,-181.03 573.02,-184.98 577.63,-190.25"/>
</g>
<!-- aws&#45;crt&#45;cpp -->
<g id="node4" class="node">
<title>aws&#45;crt&#45;cpp</title>
<g id="a_node4"><a xlink:href="https://github.com/conda-forge/aws-crt-cpp-feedstock" xlink:title="aws crt cpp">
<ellipse fill="#fde725" stroke="black" cx="219.46" cy="-90" rx="64.5" ry="18"/>
<text text-anchor="middle" x="219.46" y="-86.3" font-family="Times,serif" font-size="14.00">aws crt cpp</text>
</a>
</g>
</g>
<!-- aws&#45;checksums&#45;&gt;aws&#45;crt&#45;cpp -->
<g id="edge2" class="edge">
<title>aws&#45;checksums&#45;&gt;aws&#45;crt&#45;cpp</title>
<path fill="none" stroke="black" d="M498.18,-216.51C483.67,-206.59 465.42,-193.34 450.46,-180 434.26,-165.55 436.02,-155.26 417.46,-144 394.66,-130.18 330.73,-114.38 281.62,-103.65"/>
<polygon fill="black" stroke="black" points="282.43,-100.25 271.92,-101.56 280.95,-107.09 282.43,-100.25"/>
</g>
<!-- aws&#45;c&#45;s3 -->
<g id="node5" class="node">
<title>aws&#45;c&#45;s3</title>
<g id="a_node5"><a xlink:href="https://github.com/conda-forge/aws-c-s3-feedstock" xlink:title="aws c s3">
<ellipse fill="#fde725" stroke="black" cx="358.46" cy="-162" rx="50.09" ry="18"/>
<text text-anchor="middle" x="358.46" y="-158.3" font-family="Times,serif" font-size="14.00">aws c s3</text>
</a>
</g>
</g>
<!-- aws&#45;checksums&#45;&gt;aws&#45;c&#45;s3 -->
<g id="edge3" class="edge">
<title>aws&#45;checksums&#45;&gt;aws&#45;c&#45;s3</title>
<path fill="none" stroke="black" d="M486.84,-217.46C461.3,-206.63 427.17,-192.15 400.52,-180.84"/>
<polygon fill="black" stroke="black" points="401.94,-177.64 391.37,-176.96 399.2,-184.09 401.94,-177.64"/>
</g>
<!-- awscrt -->
<g id="node6" class="node">
<title>awscrt</title>
<g id="a_node6"><a xlink:href="https://github.com/conda-forge/awscrt-feedstock" xlink:title="awscrt">
<ellipse fill="#fde725" stroke="black" cx="358.46" cy="-90" rx="42.49" ry="18"/>
<text text-anchor="middle" x="358.46" y="-86.3" font-family="Times,serif" font-size="14.00">awscrt</text>
</a>
</g>
</g>
<!-- aws&#45;checksums&#45;&gt;awscrt -->
<g id="edge4" class="edge">
<title>aws&#45;checksums&#45;&gt;awscrt</title>
<path fill="none" stroke="black" d="M512.12,-215.69C498.94,-196.51 475.76,-165.45 450.46,-144 434.24,-130.25 413.95,-118.13 396.56,-108.96"/>
<polygon fill="black" stroke="black" points="398.55,-106.05 388.06,-104.61 395.36,-112.28 398.55,-106.05"/>
</g>
<!-- aws&#45;c&#45;event&#45;stream&#45;&gt;aws&#45;sdk&#45;cpp -->
<g id="edge5" class="edge">
<title>aws&#45;c&#45;event&#45;stream&#45;&gt;aws&#45;sdk&#45;cpp</title>
<path fill="none" stroke="black" d="M570.25,-144.57C517.61,-118.52 415.09,-67.8 357.77,-39.44"/>
<polygon fill="black" stroke="black" points="359.49,-36.39 348.97,-35.09 356.38,-42.66 359.49,-36.39"/>
</g>
<!-- aws&#45;c&#45;event&#45;stream&#45;&gt;aws&#45;crt&#45;cpp -->
<g id="edge6" class="edge">
<title>aws&#45;c&#45;event&#45;stream&#45;&gt;aws&#45;crt&#45;cpp</title>
<path fill="none" stroke="black" d="M533.14,-148.69C473.13,-138.11 384.57,-122.35 307.46,-108 299.27,-106.48 290.65,-104.85 282.15,-103.22"/>
<polygon fill="black" stroke="black" points="283.05,-99.83 272.57,-101.38 281.73,-106.7 283.05,-99.83"/>
</g>
<!-- aws&#45;c&#45;event&#45;stream&#45;&gt;awscrt -->
<g id="edge7" class="edge">
<title>aws&#45;c&#45;event&#45;stream&#45;&gt;awscrt</title>
<path fill="none" stroke="black" d="M551.5,-146.15C507.75,-133.66 445.8,-115.95 403.97,-104"/>
<polygon fill="black" stroke="black" points="405.04,-100.67 394.46,-101.29 403.12,-107.4 405.04,-100.67"/>
</g>
<!-- aws&#45;crt&#45;cpp&#45;&gt;aws&#45;sdk&#45;cpp -->
<g id="edge8" class="edge">
<title>aws&#45;crt&#45;cpp&#45;&gt;aws&#45;sdk&#45;cpp</title>
<path fill="none" stroke="black" d="M241.95,-72.76C254.6,-63.64 270.58,-52.1 284.5,-42.06"/>
<polygon fill="black" stroke="black" points="286.46,-44.97 292.52,-36.28 282.36,-39.29 286.46,-44.97"/>
</g>
<!-- aws&#45;c&#45;s3&#45;&gt;aws&#45;crt&#45;cpp -->
<g id="edge9" class="edge">
<title>aws&#45;c&#45;s3&#45;&gt;aws&#45;crt&#45;cpp</title>
<path fill="none" stroke="black" d="M330.33,-146.83C309.97,-136.58 282.15,-122.57 259.48,-111.16"/>
<polygon fill="black" stroke="black" points="261.33,-108.17 250.82,-106.79 258.18,-114.42 261.33,-108.17"/>
</g>
<!-- aws&#45;c&#45;s3&#45;&gt;awscrt -->
<g id="edge10" class="edge">
<title>aws&#45;c&#45;s3&#45;&gt;awscrt</title>
<path fill="none" stroke="black" d="M358.46,-143.7C358.46,-136.41 358.46,-127.73 358.46,-119.54"/>
<polygon fill="black" stroke="black" points="361.96,-119.62 358.46,-109.62 354.96,-119.62 361.96,-119.62"/>
</g>
<!-- aws&#45;c&#45;io -->
<g id="node7" class="node">
<title>aws&#45;c&#45;io</title>
<g id="a_node7"><a xlink:href="https://github.com/conda-forge/aws-c-io-feedstock" xlink:title="aws c io">
<ellipse fill="#35b779" stroke="black" cx="395.46" cy="-378" rx="48.19" ry="18"/>
<text text-anchor="middle" x="395.46" y="-374.3" font-family="Times,serif" font-size="14.00">aws c io</text>
</a>
</g>
</g>
<!-- aws&#45;c&#45;io&#45;&gt;aws&#45;c&#45;event&#45;stream -->
<g id="edge11" class="edge">
<title>aws&#45;c&#45;io&#45;&gt;aws&#45;c&#45;event&#45;stream</title>
<path fill="none" stroke="black" d="M435.09,-367.59C487.17,-352.85 576.57,-318.82 615.46,-252 626.17,-233.59 622.03,-209.47 615.84,-190.99"/>
<polygon fill="black" stroke="black" points="619.15,-189.86 612.36,-181.73 612.6,-192.32 619.15,-189.86"/>
</g>
<!-- aws&#45;c&#45;io&#45;&gt;aws&#45;crt&#45;cpp -->
<g id="edge12" class="edge">
<title>aws&#45;c&#45;io&#45;&gt;aws&#45;crt&#45;cpp</title>
<path fill="none" stroke="black" d="M350.32,-371.42C259.83,-360.05 63.95,-334.38 53.46,-324 -3.94,-267.26 -19.35,-208.28 29.46,-144 44.49,-124.2 103.59,-109.81 151.93,-101.06"/>
<polygon fill="black" stroke="black" points="152.27,-104.56 161.51,-99.38 151.06,-97.66 152.27,-104.56"/>
</g>
<!-- aws&#45;c&#45;io&#45;&gt;aws&#45;c&#45;s3 -->
<g id="edge13" class="edge">
<title>aws&#45;c&#45;io&#45;&gt;aws&#45;c&#45;s3</title>
<path fill="none" stroke="black" d="M396.27,-359.82C396.72,-349.45 397.23,-335.97 397.46,-324 397.76,-308 399.87,-303.82 397.46,-288 392.2,-253.5 379.23,-215.44 369.68,-190.48"/>
<polygon fill="black" stroke="black" points="373.03,-189.44 366.13,-181.41 366.51,-192 373.03,-189.44"/>
</g>
<!-- aws&#45;c&#45;io&#45;&gt;awscrt -->
<g id="edge14" class="edge">
<title>aws&#45;c&#45;io&#45;&gt;awscrt</title>
<path fill="none" stroke="black" d="M440.03,-370.78C478.62,-363.88 534.78,-350.09 577.46,-324 663.01,-271.71 778.91,-219.95 713.46,-144 675.26,-99.68 502.11,-91.86 412.53,-90.84"/>
<polygon fill="black" stroke="black" points="412.79,-87.35 402.76,-90.76 412.73,-94.35 412.79,-87.35"/>
</g>
<!-- aws&#45;c&#45;http -->
<g id="node8" class="node">
<title>aws&#45;c&#45;http</title>
<g id="a_node8"><a xlink:href="https://github.com/conda-forge/aws-c-http-feedstock" xlink:title="aws c http">
<ellipse fill="#fde725" stroke="black" cx="138.46" cy="-306" rx="59.29" ry="18"/>
<text text-anchor="middle" x="138.46" y="-302.3" font-family="Times,serif" font-size="14.00">aws c http</text>
</a>
</g>
</g>
<!-- aws&#45;c&#45;io&#45;&gt;aws&#45;c&#45;http -->
<g id="edge15" class="edge">
<title>aws&#45;c&#45;io&#45;&gt;aws&#45;c&#45;http</title>
<path fill="none" stroke="black" d="M357.26,-366.6C313.67,-354.72 242.06,-335.22 192.7,-321.77"/>
<polygon fill="black" stroke="black" points="193.62,-318.4 183.05,-319.15 191.78,-325.15 193.62,-318.4"/>
</g>
<!-- aws&#45;c&#45;mqtt -->
<g id="node9" class="node">
<title>aws&#45;c&#45;mqtt</title>
<g id="a_node9"><a xlink:href="https://github.com/conda-forge/aws-c-mqtt-feedstock" xlink:title="aws c mqtt">
<ellipse fill="#fde725" stroke="black" cx="114.46" cy="-162" rx="61.99" ry="18"/>
<text text-anchor="middle" x="114.46" y="-158.3" font-family="Times,serif" font-size="14.00">aws c mqtt</text>
</a>
</g>
</g>
<!-- aws&#45;c&#45;io&#45;&gt;aws&#45;c&#45;mqtt -->
<g id="edge16" class="edge">
<title>aws&#45;c&#45;io&#45;&gt;aws&#45;c&#45;mqtt</title>
<path fill="none" stroke="black" d="M350.43,-371.21C263.33,-359.81 79.48,-334.62 70.46,-324 37.35,-285.05 70.77,-223.33 94.74,-188.71"/>
<polygon fill="black" stroke="black" points="97.33,-191.11 100.31,-180.94 91.64,-187.03 97.33,-191.11"/>
</g>
<!-- aws&#45;c&#45;auth -->
<g id="node10" class="node">
<title>aws&#45;c&#45;auth</title>
<g id="a_node10"><a xlink:href="https://github.com/conda-forge/aws-c-auth-feedstock" xlink:title="aws c auth">
<ellipse fill="#fde725" stroke="black" cx="285.46" cy="-234" rx="60.5" ry="18"/>
<text text-anchor="middle" x="285.46" y="-230.3" font-family="Times,serif" font-size="14.00">aws c auth</text>
</a>
</g>
</g>
<!-- aws&#45;c&#45;io&#45;&gt;aws&#45;c&#45;auth -->
<g id="edge17" class="edge">
<title>aws&#45;c&#45;io&#45;&gt;aws&#45;c&#45;auth</title>
<path fill="none" stroke="black" d="M395.77,-359.61C395.26,-340.36 391.84,-309.24 376.46,-288 365.64,-273.06 349.21,-261.66 333.28,-253.34"/>
<polygon fill="black" stroke="black" points="334.82,-250.2 324.3,-248.97 331.76,-256.49 334.82,-250.2"/>
</g>
<!-- aws&#45;c&#45;http&#45;&gt;aws&#45;crt&#45;cpp -->
<g id="edge18" class="edge">
<title>aws&#45;c&#45;http&#45;&gt;aws&#45;crt&#45;cpp</title>
<path fill="none" stroke="black" d="M116.34,-288.99C77.94,-259.23 6.38,-193.88 43.46,-144 66.57,-112.9 107.36,-99.38 143.86,-93.76"/>
<polygon fill="black" stroke="black" points="144.08,-97.26 153.52,-92.46 143.14,-90.32 144.08,-97.26"/>
</g>
<!-- aws&#45;c&#45;http&#45;&gt;aws&#45;c&#45;s3 -->
<g id="edge19" class="edge">
<title>aws&#45;c&#45;http&#45;&gt;aws&#45;c&#45;s3</title>
<path fill="none" stroke="black" d="M183.07,-293.79C190.86,-291.85 198.89,-289.86 206.46,-288 272.62,-271.74 312.42,-304.81 355.46,-252 369.04,-235.33 368.75,-210.49 365.65,-191.29"/>
<polygon fill="black" stroke="black" points="369.12,-190.8 363.75,-181.67 362.25,-192.16 369.12,-190.8"/>
</g>
<!-- aws&#45;c&#45;http&#45;&gt;awscrt -->
<g id="edge20" class="edge">
<title>aws&#45;c&#45;http&#45;&gt;awscrt</title>
<path fill="none" stroke="black" d="M151.26,-288.24C175.18,-257.53 229.19,-191.08 283.46,-144 296.73,-132.48 312.48,-121.06 326.12,-111.78"/>
<polygon fill="black" stroke="black" points="327.98,-114.74 334.34,-106.27 324.09,-108.92 327.98,-114.74"/>
</g>
<!-- aws&#45;c&#45;http&#45;&gt;aws&#45;c&#45;mqtt -->
<g id="edge21" class="edge">
<title>aws&#45;c&#45;http&#45;&gt;aws&#45;c&#45;mqtt</title>
<path fill="none" stroke="black" d="M135.51,-287.59C131.46,-263.61 124.12,-220.14 119.26,-191.42"/>
<polygon fill="black" stroke="black" points="122.72,-190.88 117.6,-181.6 115.82,-192.05 122.72,-190.88"/>
</g>
<!-- aws&#45;c&#45;http&#45;&gt;aws&#45;c&#45;auth -->
<g id="edge22" class="edge">
<title>aws&#45;c&#45;http&#45;&gt;aws&#45;c&#45;auth</title>
<path fill="none" stroke="black" d="M169.27,-290.33C191.05,-279.95 220.49,-265.94 244.28,-254.61"/>
<polygon fill="black" stroke="black" points="245.54,-257.89 253.06,-250.43 242.53,-251.57 245.54,-257.89"/>
</g>
<!-- aws&#45;c&#45;mqtt&#45;&gt;aws&#45;crt&#45;cpp -->
<g id="edge23" class="edge">
<title>aws&#45;c&#45;mqtt&#45;&gt;aws&#45;crt&#45;cpp</title>
<path fill="none" stroke="black" d="M138.55,-144.94C152.69,-135.51 170.76,-123.47 186.24,-113.15"/>
<polygon fill="black" stroke="black" points="187.84,-116.28 194.22,-107.82 183.96,-110.46 187.84,-116.28"/>
</g>
<!-- aws&#45;c&#45;mqtt&#45;&gt;awscrt -->
<g id="edge24" class="edge">
<title>aws&#45;c&#45;mqtt&#45;&gt;awscrt</title>
<path fill="none" stroke="black" d="M157.52,-148.65C201.28,-136.09 268.8,-116.72 313.3,-103.95"/>
<polygon fill="black" stroke="black" points="313.99,-107.4 322.64,-101.28 312.06,-100.67 313.99,-107.4"/>
</g>
<!-- aws&#45;c&#45;auth&#45;&gt;aws&#45;crt&#45;cpp -->
<g id="edge25" class="edge">
<title>aws&#45;c&#45;auth&#45;&gt;aws&#45;crt&#45;cpp</title>
<path fill="none" stroke="black" d="M277.5,-215.87C266.25,-191.67 245.58,-147.21 232.19,-118.39"/>
<polygon fill="black" stroke="black" points="235.47,-117.15 228.08,-109.56 229.13,-120.11 235.47,-117.15"/>
</g>
<!-- aws&#45;c&#45;auth&#45;&gt;aws&#45;c&#45;s3 -->
<g id="edge26" class="edge">
<title>aws&#45;c&#45;auth&#45;&gt;aws&#45;c&#45;s3</title>
<path fill="none" stroke="black" d="M302.76,-216.41C311.91,-207.63 323.33,-196.69 333.43,-187"/>
<polygon fill="black" stroke="black" points="335.65,-189.72 340.44,-180.28 330.8,-184.67 335.65,-189.72"/>
</g>
<!-- aws&#45;c&#45;auth&#45;&gt;awscrt -->
<g id="edge27" class="edge">
<title>aws&#45;c&#45;auth&#45;&gt;awscrt</title>
<path fill="none" stroke="black" d="M284.84,-215.51C284.91,-196.73 287.22,-166.54 299.46,-144 306.06,-131.83 316.58,-121.05 326.92,-112.44"/>
<polygon fill="black" stroke="black" points="328.94,-115.3 334.66,-106.38 324.63,-109.78 328.94,-115.3"/>
</g>
<!-- aws&#45;c&#45;compression -->
<g id="node11" class="node">
<title>aws&#45;c&#45;compression</title>
<g id="a_node11"><a xlink:href="https://github.com/conda-forge/aws-c-compression-feedstock/pull/40" xlink:title="aws c compression ❎">
<ellipse fill="#31688e" stroke="black" cx="138.46" cy="-378" rx="112.5" ry="18"/>
<text text-anchor="middle" x="138.46" y="-374.3" font-family="Times,serif" font-size="14.00" fill="white">aws c compression ❎</text>
</a>
</g>
</g>
<!-- aws&#45;c&#45;compression&#45;&gt;aws&#45;c&#45;http -->
<g id="edge28" class="edge">
<title>aws&#45;c&#45;compression&#45;&gt;aws&#45;c&#45;http</title>
<path fill="none" stroke="black" d="M138.46,-359.7C138.46,-352.41 138.46,-343.73 138.46,-335.54"/>
<polygon fill="black" stroke="black" points="141.96,-335.62 138.46,-325.62 134.96,-335.62 141.96,-335.62"/>
</g>
<!-- aws&#45;c&#45;sdkutils -->
<g id="node12" class="node">
<title>aws&#45;c&#45;sdkutils</title>
<g id="a_node12"><a xlink:href="https://github.com/conda-forge/aws-c-sdkutils-feedstock" xlink:title="aws c sdkutils">
<ellipse fill="#35b779" stroke="black" cx="291.46" cy="-306" rx="76.09" ry="18"/>
<text text-anchor="middle" x="291.46" y="-302.3" font-family="Times,serif" font-size="14.00">aws c sdkutils</text>
</a>
</g>
</g>
<!-- aws&#45;c&#45;sdkutils&#45;&gt;aws&#45;c&#45;auth -->
<g id="edge29" class="edge">
<title>aws&#45;c&#45;sdkutils&#45;&gt;aws&#45;c&#45;auth</title>
<path fill="none" stroke="black" d="M289.97,-287.7C289.35,-280.41 288.61,-271.73 287.9,-263.54"/>
<polygon fill="black" stroke="black" points="291.39,-263.28 287.05,-253.61 284.42,-263.87 291.39,-263.28"/>
</g>
</g>
</svg>
