<?xml version="1.0" encoding="UTF-8" standalone="no"?>
<!DOCTYPE svg PUBLIC "-//W3C//DTD SVG 1.1//EN"
 "http://www.w3.org/Graphics/SVG/1.1/DTD/svg11.dtd">
<!-- Generated by graphviz version 7.1.0 (20230122.1345)
 -->
<!-- Pages: 1 -->
<svg width="836pt" height="476pt"
 viewBox="0.00 0.00 836.00 476.00" xmlns="http://www.w3.org/2000/svg" xmlns:xlink="http://www.w3.org/1999/xlink">
<g id="graph0" class="graph" transform="scale(1 1) rotate(0) translate(4 472)">
<polygon fill="white" stroke="none" points="-4,4 -4,-472 832,-472 832,4 -4,4"/>
<!-- aws&#45;sdk&#45;cpp -->
<g id="node1" class="node">
<title>aws&#45;sdk&#45;cpp</title>
<g id="a_node1"><a xlink:href="https://github.com/conda-forge/aws-sdk-cpp-feedstock" xlink:title="aws sdk cpp">
<ellipse fill="#fde725" stroke="black" cx="397" cy="-18" rx="67.69" ry="18"/>
<text text-anchor="middle" x="397" y="-14.3" font-family="Times,serif" font-size="14.00">aws sdk cpp</text>
</a>
</g>
</g>
<!-- aws&#45;checksums -->
<g id="node2" class="node">
<title>aws&#45;checksums</title>
<g id="a_node2"><a xlink:href="https://github.com/conda-forge/aws-checksums-feedstock" xlink:title="aws checksums">
<ellipse fill="#35b779" stroke="black" cx="601" cy="-234" rx="82.59" ry="18"/>
<text text-anchor="middle" x="601" y="-230.3" font-family="Times,serif" font-size="14.00">aws checksums</text>
</a>
</g>
</g>
<!-- aws&#45;c&#45;event&#45;stream -->
<g id="node3" class="node">
<title>aws&#45;c&#45;event&#45;stream</title>
<g id="a_node3"><a xlink:href="https://github.com/conda-forge/aws-c-event-stream-feedstock" xlink:title="aws c event stream">
<ellipse fill="#fde725" stroke="black" cx="661" cy="-162" rx="100.98" ry="18"/>
<text text-anchor="middle" x="661" y="-158.3" font-family="Times,serif" font-size="14.00">aws c event stream</text>
</a>
</g>
</g>
<!-- aws&#45;checksums&#45;&gt;aws&#45;c&#45;event&#45;stream -->
<g id="edge1" class="edge">
<title>aws&#45;checksums&#45;&gt;aws&#45;c&#45;event&#45;stream</title>
<path fill="none" stroke="black" d="M615.52,-216.05C622.5,-207.92 631,-198 638.76,-188.94"/>
<polygon fill="black" stroke="black" points="641.36,-191.29 645.21,-181.42 636.04,-186.74 641.36,-191.29"/>
</g>
<!-- aws&#45;crt&#45;cpp -->
<g id="node4" class="node">
<title>aws&#45;crt&#45;cpp</title>
<g id="a_node4"><a xlink:href="https://github.com/conda-forge/aws-crt-cpp-feedstock" xlink:title="aws crt cpp">
<ellipse fill="#fde725" stroke="black" cx="300" cy="-90" rx="64.5" ry="18"/>
<text text-anchor="middle" x="300" y="-86.3" font-family="Times,serif" font-size="14.00">aws crt cpp</text>
</a>
</g>
</g>
<!-- aws&#45;checksums&#45;&gt;aws&#45;crt&#45;cpp -->
<g id="edge2" class="edge">
<title>aws&#45;checksums&#45;&gt;aws&#45;crt&#45;cpp</title>
<path fill="none" stroke="black" d="M573.5,-216.67C557.05,-206.6 535.92,-193.14 518,-180 497.9,-165.26 496.93,-155.85 475,-144 439.97,-125.07 397.26,-111.96 362.8,-103.52"/>
<polygon fill="black" stroke="black" points="363.93,-100.19 353.4,-101.29 362.32,-107.01 363.93,-100.19"/>
</g>
<!-- aws&#45;c&#45;s3 -->
<g id="node5" class="node">
<title>aws&#45;c&#45;s3</title>
<g id="a_node5"><a xlink:href="https://github.com/conda-forge/aws-c-s3-feedstock" xlink:title="aws c s3">
<ellipse fill="#fde725" stroke="black" cx="416" cy="-162" rx="50.09" ry="18"/>
<text text-anchor="middle" x="416" y="-158.3" font-family="Times,serif" font-size="14.00">aws c s3</text>
</a>
</g>
</g>
<!-- aws&#45;checksums&#45;&gt;aws&#45;c&#45;s3 -->
<g id="edge3" class="edge">
<title>aws&#45;checksums&#45;&gt;aws&#45;c&#45;s3</title>
<path fill="none" stroke="black" d="M560.86,-217.81C531.1,-206.55 490.57,-191.22 459.95,-179.63"/>
<polygon fill="black" stroke="black" points="461.57,-176.5 450.98,-176.24 459.09,-183.05 461.57,-176.5"/>
</g>
<!-- awscrt -->
<g id="node6" class="node">
<title>awscrt</title>
<g id="a_node6"><a xlink:href="https://github.com/conda-forge/awscrt-feedstock" xlink:title="awscrt">
<ellipse fill="#fde725" stroke="black" cx="478" cy="-90" rx="42.49" ry="18"/>
<text text-anchor="middle" x="478" y="-86.3" font-family="Times,serif" font-size="14.00">awscrt</text>
</a>
</g>
</g>
<!-- aws&#45;checksums&#45;&gt;awscrt -->
<g id="edge4" class="edge">
<title>aws&#45;checksums&#45;&gt;awscrt</title>
<path fill="none" stroke="black" d="M584.48,-216.09C574.59,-205.82 561.86,-192.35 551,-180 532.45,-158.92 512.27,-134.17 497.84,-116.13"/>
<polygon fill="black" stroke="black" points="500.77,-114.18 491.8,-108.54 495.29,-118.55 500.77,-114.18"/>
</g>
<!-- aws&#45;c&#45;event&#45;stream&#45;&gt;aws&#45;sdk&#45;cpp -->
<g id="edge5" class="edge">
<title>aws&#45;c&#45;event&#45;stream&#45;&gt;aws&#45;sdk&#45;cpp</title>
<path fill="none" stroke="black" d="M639.02,-144.05C613.53,-124.91 569.78,-93.62 529,-72 503.25,-58.35 473.18,-46.02 448.25,-36.69"/>
<polygon fill="black" stroke="black" points="449.57,-33.45 438.98,-33.28 447.15,-40.02 449.57,-33.45"/>
</g>
<!-- aws&#45;c&#45;event&#45;stream&#45;&gt;aws&#45;crt&#45;cpp -->
<g id="edge6" class="edge">
<title>aws&#45;c&#45;event&#45;stream&#45;&gt;aws&#45;crt&#45;cpp</title>
<path fill="none" stroke="black" d="M594.37,-148.08C528.35,-135.28 427.99,-115.82 363.19,-103.25"/>
<polygon fill="black" stroke="black" points="363.89,-99.82 353.41,-101.36 362.56,-106.7 363.89,-99.82"/>
</g>
<!-- aws&#45;c&#45;event&#45;stream&#45;&gt;awscrt -->
<g id="edge7" class="edge">
<title>aws&#45;c&#45;event&#45;stream&#45;&gt;awscrt</title>
<path fill="none" stroke="black" d="M619.93,-145.29C589.9,-133.8 549.32,-118.28 519.25,-106.78"/>
<polygon fill="black" stroke="black" points="520.69,-103.58 510.1,-103.28 518.18,-110.12 520.69,-103.58"/>
</g>
<!-- aws&#45;crt&#45;cpp&#45;&gt;aws&#45;sdk&#45;cpp -->
<g id="edge8" class="edge">
<title>aws&#45;crt&#45;cpp&#45;&gt;aws&#45;sdk&#45;cpp</title>
<path fill="none" stroke="black" d="M322.5,-72.76C335.14,-63.64 351.13,-52.1 365.05,-42.06"/>
<polygon fill="black" stroke="black" points="367,-44.97 373.06,-36.28 362.9,-39.29 367,-44.97"/>
</g>
<!-- aws&#45;c&#45;s3&#45;&gt;aws&#45;crt&#45;cpp -->
<g id="edge9" class="edge">
<title>aws&#45;c&#45;s3&#45;&gt;aws&#45;crt&#45;cpp</title>
<path fill="none" stroke="black" d="M391.12,-145.98C375.01,-136.27 353.79,-123.46 335.88,-112.65"/>
<polygon fill="black" stroke="black" points="337.72,-109.67 327.35,-107.5 334.1,-115.67 337.72,-109.67"/>
</g>
<!-- aws&#45;c&#45;s3&#45;&gt;awscrt -->
<g id="edge10" class="edge">
<title>aws&#45;c&#45;s3&#45;&gt;awscrt</title>
<path fill="none" stroke="black" d="M430.69,-144.41C438.37,-135.74 447.91,-124.97 456.41,-115.38"/>
<polygon fill="black" stroke="black" points="458.83,-117.93 462.84,-108.12 453.59,-113.29 458.83,-117.93"/>
</g>
<!-- aws&#45;c&#45;io -->
<g id="node7" class="node">
<title>aws&#45;c&#45;io</title>
<g id="a_node7"><a xlink:href="https://github.com/conda-forge/aws-c-io-feedstock" xlink:title="aws c io">
<ellipse fill="#fde725" stroke="black" cx="437" cy="-378" rx="48.19" ry="18"/>
<text text-anchor="middle" x="437" y="-374.3" font-family="Times,serif" font-size="14.00">aws c io</text>
</a>
</g>
</g>
<!-- aws&#45;c&#45;io&#45;&gt;aws&#45;c&#45;event&#45;stream -->
<g id="edge11" class="edge">
<title>aws&#45;c&#45;io&#45;&gt;aws&#45;c&#45;event&#45;stream</title>
<path fill="none" stroke="black" d="M480.83,-370.05C540.82,-357.94 646.36,-326.67 693,-252 705.17,-232.52 694.49,-207.76 682.29,-189.3"/>
<polygon fill="black" stroke="black" points="685.22,-187.38 676.57,-181.27 679.52,-191.44 685.22,-187.38"/>
</g>
<!-- aws&#45;c&#45;io&#45;&gt;aws&#45;crt&#45;cpp -->
<g id="edge12" class="edge">
<title>aws&#45;c&#45;io&#45;&gt;aws&#45;crt&#45;cpp</title>
<path fill="none" stroke="black" d="M391.95,-371.07C297.31,-358.5 86.06,-329.87 81,-324 55.24,-294.12 -12.3,-264.71 85,-144 103.14,-121.49 174.17,-107.14 229.68,-99.13"/>
<polygon fill="black" stroke="black" points="229.99,-102.62 239.41,-97.77 229.02,-95.68 229.99,-102.62"/>
</g>
<!-- aws&#45;c&#45;io&#45;&gt;aws&#45;c&#45;s3 -->
<g id="edge13" class="edge">
<title>aws&#45;c&#45;io&#45;&gt;aws&#45;c&#45;s3</title>
<path fill="none" stroke="black" d="M454.29,-361.14C463.56,-351.44 474.06,-338.19 479,-324 484.26,-308.89 482.7,-303.57 479,-288 470.34,-251.59 449.3,-213.75 433.91,-189.38"/>
<polygon fill="black" stroke="black" points="436.91,-187.57 428.54,-181.07 431.03,-191.37 436.91,-187.57"/>
</g>
<!-- aws&#45;c&#45;io&#45;&gt;awscrt -->
<g id="edge14" class="edge">
<title>aws&#45;c&#45;io&#45;&gt;awscrt</title>
<path fill="none" stroke="black" d="M484.1,-373.8C529.8,-368.84 599.58,-356.2 651,-324 721.61,-279.79 742.64,-258.33 771,-180 776.45,-164.96 781.26,-156.28 771,-144 741.09,-108.2 607.72,-96.53 531.64,-92.77"/>
<polygon fill="black" stroke="black" points="532.06,-89.28 521.91,-92.32 531.73,-96.28 532.06,-89.28"/>
</g>
<!-- aws&#45;c&#45;http -->
<g id="node8" class="node">
<title>aws&#45;c&#45;http</title>
<g id="a_node8"><a xlink:href="https://github.com/conda-forge/aws-c-http-feedstock" xlink:title="aws c http">
<ellipse fill="#fde725" stroke="black" cx="149" cy="-306" rx="59.29" ry="18"/>
<text text-anchor="middle" x="149" y="-302.3" font-family="Times,serif" font-size="14.00">aws c http</text>
</a>
</g>
</g>
<!-- aws&#45;c&#45;io&#45;&gt;aws&#45;c&#45;http -->
<g id="edge15" class="edge">
<title>aws&#45;c&#45;io&#45;&gt;aws&#45;c&#45;http</title>
<path fill="none" stroke="black" d="M397.26,-367.34C347.35,-355.21 261.43,-334.33 204.91,-320.59"/>
<polygon fill="black" stroke="black" points="206.03,-317.26 195.48,-318.3 204.38,-324.06 206.03,-317.26"/>
</g>
<!-- aws&#45;c&#45;mqtt -->
<g id="node9" class="node">
<title>aws&#45;c&#45;mqtt</title>
<g id="a_node9"><a xlink:href="https://github.com/conda-forge/aws-c-mqtt-feedstock" xlink:title="aws c mqtt">
<ellipse fill="#fde725" stroke="black" cx="172" cy="-162" rx="61.99" ry="18"/>
<text text-anchor="middle" x="172" y="-158.3" font-family="Times,serif" font-size="14.00">aws c mqtt</text>
</a>
</g>
</g>
<!-- aws&#45;c&#45;io&#45;&gt;aws&#45;c&#45;mqtt -->
<g id="edge16" class="edge">
<title>aws&#45;c&#45;io&#45;&gt;aws&#45;c&#45;mqtt</title>
<path fill="none" stroke="black" d="M395.47,-368.43C364.92,-360.61 323.57,-346.73 293,-324 243.93,-287.5 205.43,-225.72 185.96,-190.24"/>
<polygon fill="black" stroke="black" points="189.07,-188.63 181.25,-181.47 182.9,-191.94 189.07,-188.63"/>
</g>
<!-- aws&#45;c&#45;auth -->
<g id="node10" class="node">
<title>aws&#45;c&#45;auth</title>
<g id="a_node10"><a xlink:href="https://github.com/conda-forge/aws-c-auth-feedstock" xlink:title="aws c auth">
<ellipse fill="#fde725" stroke="black" cx="363" cy="-234" rx="60.5" ry="18"/>
<text text-anchor="middle" x="363" y="-230.3" font-family="Times,serif" font-size="14.00">aws c auth</text>
</a>
</g>
</g>
<!-- aws&#45;c&#45;io&#45;&gt;aws&#45;c&#45;auth -->
<g id="edge17" class="edge">
<title>aws&#45;c&#45;io&#45;&gt;aws&#45;c&#45;auth</title>
<path fill="none" stroke="black" d="M449.49,-360.22C461.76,-341.52 476.78,-310.9 463,-288 452.75,-270.97 434.99,-259.12 417.25,-251.02"/>
<polygon fill="black" stroke="black" points="418.84,-247.89 408.27,-247.26 416.14,-254.35 418.84,-247.89"/>
</g>
<!-- aws&#45;c&#45;http&#45;&gt;aws&#45;crt&#45;cpp -->
<g id="edge18" class="edge">
<title>aws&#45;c&#45;http&#45;&gt;aws&#45;crt&#45;cpp</title>
<path fill="none" stroke="black" d="M135.1,-288.17C110.94,-256.76 66.88,-188.4 101,-144 117,-123.18 180.16,-108.8 231.09,-100.33"/>
<polygon fill="black" stroke="black" points="231.6,-103.79 240.91,-98.75 230.48,-96.88 231.6,-103.79"/>
</g>
<!-- aws&#45;c&#45;http&#45;&gt;aws&#45;c&#45;s3 -->
<g id="edge19" class="edge">
<title>aws&#45;c&#45;http&#45;&gt;aws&#45;c&#45;s3</title>
<path fill="none" stroke="black" d="M172.33,-289.1C200.3,-270.38 248.95,-238.95 293,-216 318.66,-202.63 348.44,-189.74 372.27,-180.01"/>
<polygon fill="black" stroke="black" points="373.39,-183.33 381.36,-176.35 370.77,-176.84 373.39,-183.33"/>
</g>
<!-- aws&#45;c&#45;http&#45;&gt;awscrt -->
<g id="edge20" class="edge">
<title>aws&#45;c&#45;http&#45;&gt;awscrt</title>
<path fill="none" stroke="black" d="M161.92,-287.96C176.8,-269.03 202.6,-238.19 229,-216 275.16,-177.2 290.18,-171.2 344,-144 373.53,-129.07 408.32,-115.42 435.05,-105.71"/>
<polygon fill="black" stroke="black" points="435.95,-109.11 444.18,-102.44 433.59,-102.52 435.95,-109.11"/>
</g>
<!-- aws&#45;c&#45;http&#45;&gt;aws&#45;c&#45;mqtt -->
<g id="edge21" class="edge">
<title>aws&#45;c&#45;http&#45;&gt;aws&#45;c&#45;mqtt</title>
<path fill="none" stroke="black" d="M151.82,-287.59C155.7,-263.61 162.74,-220.14 167.4,-191.42"/>
<polygon fill="black" stroke="black" points="170.84,-192.04 168.99,-181.6 163.93,-190.92 170.84,-192.04"/>
</g>
<!-- aws&#45;c&#45;http&#45;&gt;aws&#45;c&#45;auth -->
<g id="edge22" class="edge">
<title>aws&#45;c&#45;http&#45;&gt;aws&#45;c&#45;auth</title>
<path fill="none" stroke="black" d="M188.25,-292.16C223.17,-280.74 274.46,-263.96 312.44,-251.54"/>
<polygon fill="black" stroke="black" points="313.42,-254.9 321.83,-248.47 311.24,-248.25 313.42,-254.9"/>
</g>
<!-- aws&#45;c&#45;mqtt&#45;&gt;aws&#45;crt&#45;cpp -->
<g id="edge23" class="edge">
<title>aws&#45;c&#45;mqtt&#45;&gt;aws&#45;crt&#45;cpp</title>
<path fill="none" stroke="black" d="M200.09,-145.64C218.14,-135.77 241.82,-122.82 261.6,-112"/>
<polygon fill="black" stroke="black" points="263.11,-115.16 270.21,-107.29 259.75,-109.02 263.11,-115.16"/>
</g>
<!-- aws&#45;c&#45;mqtt&#45;&gt;awscrt -->
<g id="edge24" class="edge">
<title>aws&#45;c&#45;mqtt&#45;&gt;awscrt</title>
<path fill="none" stroke="black" d="M219.48,-150.14C276.92,-137 373.06,-115.01 430.51,-101.86"/>
<polygon fill="black" stroke="black" points="431.01,-105.34 439.98,-99.7 429.45,-98.52 431.01,-105.34"/>
</g>
<!-- aws&#45;c&#45;auth&#45;&gt;aws&#45;crt&#45;cpp -->
<g id="edge25" class="edge">
<title>aws&#45;c&#45;auth&#45;&gt;aws&#45;crt&#45;cpp</title>
<path fill="none" stroke="black" d="M348.26,-216.38C340.1,-206.42 330.35,-193.17 324,-180 314.76,-160.81 308.64,-137.53 304.89,-119.58"/>
<polygon fill="black" stroke="black" points="308.35,-119.03 303.01,-109.88 301.48,-120.37 308.35,-119.03"/>
</g>
<!-- aws&#45;c&#45;auth&#45;&gt;aws&#45;c&#45;s3 -->
<g id="edge26" class="edge">
<title>aws&#45;c&#45;auth&#45;&gt;aws&#45;c&#45;s3</title>
<path fill="none" stroke="black" d="M375.83,-216.05C382.01,-207.89 389.57,-197.91 396.45,-188.82"/>
<polygon fill="black" stroke="black" points="399.13,-191.08 402.37,-181 393.55,-186.86 399.13,-191.08"/>
</g>
<!-- aws&#45;c&#45;auth&#45;&gt;awscrt -->
<g id="edge27" class="edge">
<title>aws&#45;c&#45;auth&#45;&gt;awscrt</title>
<path fill="none" stroke="black" d="M356.08,-215.71C349.63,-196.55 342.93,-165.52 357,-144 372.58,-120.17 401.5,-106.99 427.16,-99.73"/>
<polygon fill="black" stroke="black" points="428,-103.13 436.81,-97.26 426.26,-96.35 428,-103.13"/>
</g>
<!-- aws&#45;c&#45;cal -->
<g id="node11" class="node">
<title>aws&#45;c&#45;cal</title>
<g id="a_node11"><a xlink:href="https://github.com/conda-forge/aws-c-cal-feedstock/pull/75" xlink:title="aws c cal ❎">
<ellipse fill="#31688e" stroke="black" cx="409" cy="-450" rx="67" ry="18"/>
<text text-anchor="middle" x="409" y="-446.3" font-family="Times,serif" font-size="14.00" fill="white">aws c cal ❎</text>
</a>
</g>
</g>
<!-- aws&#45;c&#45;cal&#45;&gt;aws&#45;crt&#45;cpp -->
<g id="edge28" class="edge">
<title>aws&#45;c&#45;cal&#45;&gt;aws&#45;crt&#45;cpp</title>
<path fill="none" stroke="black" d="M343.05,-446.4C251.91,-441.65 93.43,-428.81 47,-396 10.47,-370.19 0,-351.73 0,-307 0,-307 0,-307 0,-233 0,-133.63 136.12,-103.7 224.98,-94.75"/>
<polygon fill="black" stroke="black" points="225.24,-98.24 234.87,-93.83 224.59,-91.27 225.24,-98.24"/>
</g>
<!-- aws&#45;c&#45;cal&#45;&gt;aws&#45;c&#45;s3 -->
<g id="edge29" class="edge">
<title>aws&#45;c&#45;cal&#45;&gt;aws&#45;c&#45;s3</title>
<path fill="none" stroke="black" d="M447.79,-435.04C465.21,-426.61 484.04,-413.94 494,-396 533.11,-325.53 514.45,-284.51 472,-216 465.09,-204.85 455.26,-194.47 445.77,-185.9"/>
<polygon fill="black" stroke="black" points="448.25,-183.42 438.38,-179.56 443.69,-188.73 448.25,-183.42"/>
</g>
<!-- aws&#45;c&#45;cal&#45;&gt;awscrt -->
<g id="edge30" class="edge">
<title>aws&#45;c&#45;cal&#45;&gt;awscrt</title>
<path fill="none" stroke="black" d="M468.59,-441.47C584.27,-425.19 828,-381.98 828,-307 828,-307 828,-307 828,-233 828,-189.63 822.29,-170.55 788,-144 748.84,-113.68 609.47,-99.71 531.61,-94.15"/>
<polygon fill="black" stroke="black" points="531.85,-90.66 521.64,-93.46 531.37,-97.64 531.85,-90.66"/>
</g>
<!-- aws&#45;c&#45;cal&#45;&gt;aws&#45;c&#45;io -->
<g id="edge31" class="edge">
<title>aws&#45;c&#45;cal&#45;&gt;aws&#45;c&#45;io</title>
<path fill="none" stroke="black" d="M415.92,-431.7C418.94,-424.15 422.55,-415.12 425.93,-406.68"/>
<polygon fill="black" stroke="black" points="429.13,-408.09 429.6,-397.51 422.63,-405.49 429.13,-408.09"/>
</g>
<!-- aws&#45;c&#45;cal&#45;&gt;aws&#45;c&#45;http -->
<g id="edge32" class="edge">
<title>aws&#45;c&#45;cal&#45;&gt;aws&#45;c&#45;http</title>
<path fill="none" stroke="black" d="M341.64,-448.86C249.92,-447.08 92.98,-437.8 57,-396 46.56,-383.87 48.99,-373.85 57,-360 66.24,-344.01 82.35,-332.42 98.52,-324.23"/>
<polygon fill="black" stroke="black" points="99.58,-327.59 107.17,-320.2 96.63,-321.25 99.58,-327.59"/>
</g>
<!-- aws&#45;c&#45;cal&#45;&gt;aws&#45;c&#45;auth -->
<g id="edge33" class="edge">
<title>aws&#45;c&#45;cal&#45;&gt;aws&#45;c&#45;auth</title>
<path fill="none" stroke="black" d="M385.74,-432.77C357.57,-411.53 311.61,-371.4 293,-324 287.15,-309.11 285.88,-302.33 293,-288 299.48,-274.97 310.86,-264.28 322.59,-256.01"/>
<polygon fill="black" stroke="black" points="324.24,-259.11 330.71,-250.72 320.42,-253.24 324.24,-259.11"/>
</g>
<!-- aws&#45;c&#45;compression -->
<g id="node12" class="node">
<title>aws&#45;c&#45;compression</title>
<g id="a_node12"><a xlink:href="https://github.com/conda-forge/aws-c-compression-feedstock/pull/40" xlink:title="aws c compression ❎">
<ellipse fill="#31688e" stroke="black" cx="179" cy="-378" rx="112.5" ry="18"/>
<text text-anchor="middle" x="179" y="-374.3" font-family="Times,serif" font-size="14.00" fill="white">aws c compression ❎</text>
</a>
</g>
</g>
<!-- aws&#45;c&#45;compression&#45;&gt;aws&#45;c&#45;http -->
<g id="edge34" class="edge">
<title>aws&#45;c&#45;compression&#45;&gt;aws&#45;c&#45;http</title>
<path fill="none" stroke="black" d="M171.58,-359.7C168.35,-352.15 164.48,-343.12 160.86,-334.68"/>
<polygon fill="black" stroke="black" points="164.08,-333.31 156.93,-325.5 157.65,-336.07 164.08,-333.31"/>
</g>
<!-- aws&#45;c&#45;sdkutils -->
<g id="node13" class="node">
<title>aws&#45;c&#45;sdkutils</title>
<g id="a_node13"><a xlink:href="https://github.com/conda-forge/aws-c-sdkutils-feedstock" xlink:title="aws c sdkutils">
<ellipse fill="#35b779" stroke="black" cx="378" cy="-306" rx="76.09" ry="18"/>
<text text-anchor="middle" x="378" y="-302.3" font-family="Times,serif" font-size="14.00">aws c sdkutils</text>
</a>
</g>
</g>
<!-- aws&#45;c&#45;sdkutils&#45;&gt;aws&#45;c&#45;auth -->
<g id="edge35" class="edge">
<title>aws&#45;c&#45;sdkutils&#45;&gt;aws&#45;c&#45;auth</title>
<path fill="none" stroke="black" d="M374.29,-287.7C372.71,-280.32 370.83,-271.52 369.05,-263.25"/>
<polygon fill="black" stroke="black" points="372.5,-262.63 366.98,-253.58 365.66,-264.1 372.5,-262.63"/>
</g>
</g>
</svg>
