<?xml version="1.0" encoding="UTF-8" standalone="no"?>
<!DOCTYPE svg PUBLIC "-//W3C//DTD SVG 1.1//EN"
 "http://www.w3.org/Graphics/SVG/1.1/DTD/svg11.dtd">
<!-- Generated by graphviz version 2.49.1 (20211004.0028)
 -->
<!-- Pages: 1 -->
<svg width="733pt" height="404pt"
 viewBox="0.00 0.00 732.52 404.00" xmlns="http://www.w3.org/2000/svg" xmlns:xlink="http://www.w3.org/1999/xlink">
<g id="graph0" class="graph" transform="scale(1 1) rotate(0) translate(4 400)">
<polygon fill="white" stroke="transparent" points="-4,4 -4,-400 728.52,-400 728.52,4 -4,4"/>
<!-- aws&#45;sdk&#45;cpp -->
<g id="node1" class="node">
<title>aws&#45;sdk&#45;cpp</title>
<g id="a_node1"><a xlink:href="https://github.com/conda-forge/aws-sdk-cpp-feedstock" xlink:title="aws sdk cpp">
<ellipse fill="#fde725" stroke="black" cx="275.74" cy="-18" rx="67.69" ry="18"/>
<text text-anchor="middle" x="275.74" y="-14.3" font-family="Times,serif" font-size="14.00">aws sdk cpp</text>
</a>
</g>
</g>
<!-- aws&#45;c&#45;event&#45;stream -->
<g id="node2" class="node">
<title>aws&#45;c&#45;event&#45;stream</title>
<g id="a_node2"><a xlink:href="https://github.com/conda-forge/aws-c-event-stream-feedstock" xlink:title="aws c event stream">
<ellipse fill="#fde725" stroke="black" cx="100.74" cy="-162" rx="100.98" ry="18"/>
<text text-anchor="middle" x="100.74" y="-158.3" font-family="Times,serif" font-size="14.00">aws c event stream</text>
</a>
</g>
</g>
<!-- aws&#45;c&#45;event&#45;stream&#45;&gt;aws&#45;sdk&#45;cpp -->
<g id="edge1" class="edge">
<title>aws&#45;c&#45;event&#45;stream&#45;&gt;aws&#45;sdk&#45;cpp</title>
<path fill="none" stroke="black" d="M121.5,-144.15C152.85,-118.72 212.34,-70.45 247.57,-41.86"/>
<polygon fill="black" stroke="black" points="249.99,-44.41 255.55,-35.39 245.58,-38.97 249.99,-44.41"/>
</g>
<!-- aws&#45;crt&#45;cpp -->
<g id="node3" class="node">
<title>aws&#45;crt&#45;cpp</title>
<g id="a_node3"><a xlink:href="https://github.com/conda-forge/aws-crt-cpp-feedstock" xlink:title="aws crt cpp">
<ellipse fill="#fde725" stroke="black" cx="479.74" cy="-90" rx="64.5" ry="18"/>
<text text-anchor="middle" x="479.74" y="-86.3" font-family="Times,serif" font-size="14.00">aws crt cpp</text>
</a>
</g>
</g>
<!-- aws&#45;c&#45;event&#45;stream&#45;&gt;aws&#45;crt&#45;cpp -->
<g id="edge2" class="edge">
<title>aws&#45;c&#45;event&#45;stream&#45;&gt;aws&#45;crt&#45;cpp</title>
<path fill="none" stroke="black" d="M168.06,-148.57C238.67,-135.52 348.74,-115.2 417.42,-102.51"/>
<polygon fill="black" stroke="black" points="418.46,-105.88 427.66,-100.62 417.19,-98.99 418.46,-105.88"/>
</g>
<!-- awscrt -->
<g id="node4" class="node">
<title>awscrt</title>
<g id="a_node4"><a xlink:href="https://github.com/conda-forge/awscrt-feedstock" xlink:title="awscrt">
<ellipse fill="#fde725" stroke="black" cx="281.74" cy="-90" rx="42.49" ry="18"/>
<text text-anchor="middle" x="281.74" y="-86.3" font-family="Times,serif" font-size="14.00">awscrt</text>
</a>
</g>
</g>
<!-- aws&#45;c&#45;event&#45;stream&#45;&gt;awscrt -->
<g id="edge3" class="edge">
<title>aws&#45;c&#45;event&#45;stream&#45;&gt;awscrt</title>
<path fill="none" stroke="black" d="M140.91,-145.46C171.08,-133.8 212.18,-117.9 242.2,-106.29"/>
<polygon fill="black" stroke="black" points="243.46,-109.56 251.53,-102.69 240.94,-103.03 243.46,-109.56"/>
</g>
<!-- aws&#45;crt&#45;cpp&#45;&gt;aws&#45;sdk&#45;cpp -->
<g id="edge4" class="edge">
<title>aws&#45;crt&#45;cpp&#45;&gt;aws&#45;sdk&#45;cpp</title>
<path fill="none" stroke="black" d="M440.41,-75.5C407.6,-64.25 360.67,-48.14 325.3,-36"/>
<polygon fill="black" stroke="black" points="326.24,-32.63 315.65,-32.69 323.97,-39.25 326.24,-32.63"/>
</g>
<!-- aws&#45;c&#45;io -->
<g id="node5" class="node">
<title>aws&#45;c&#45;io</title>
<g id="a_node5"><a xlink:href="https://github.com/conda-forge/aws-c-io-feedstock" xlink:title="aws c io">
<ellipse fill="#35b779" stroke="black" cx="294.74" cy="-378" rx="48.19" ry="18"/>
<text text-anchor="middle" x="294.74" y="-374.3" font-family="Times,serif" font-size="14.00">aws c io</text>
</a>
</g>
</g>
<!-- aws&#45;c&#45;io&#45;&gt;aws&#45;c&#45;event&#45;stream -->
<g id="edge5" class="edge">
<title>aws&#45;c&#45;io&#45;&gt;aws&#45;c&#45;event&#45;stream</title>
<path fill="none" stroke="black" d="M249.99,-371.34C217.95,-365.02 176,-351.74 149.74,-324 114.61,-286.89 104.61,-225.33 101.8,-190.06"/>
<polygon fill="black" stroke="black" points="105.29,-189.76 101.14,-180.01 98.31,-190.22 105.29,-189.76"/>
</g>
<!-- aws&#45;c&#45;io&#45;&gt;aws&#45;crt&#45;cpp -->
<g id="edge6" class="edge">
<title>aws&#45;c&#45;io&#45;&gt;aws&#45;crt&#45;cpp</title>
<path fill="none" stroke="black" d="M329.45,-365.53C336.75,-363.44 344.45,-361.45 351.74,-360 427.33,-344.92 645.14,-381.26 696.74,-324 752.11,-262.55 725.44,-250.54 597.74,-144 578.51,-127.96 553.65,-115.84 531.71,-107.26"/>
<polygon fill="black" stroke="black" points="532.78,-103.93 522.19,-103.69 530.32,-110.48 532.78,-103.93"/>
</g>
<!-- aws&#45;c&#45;io&#45;&gt;awscrt -->
<g id="edge7" class="edge">
<title>aws&#45;c&#45;io&#45;&gt;awscrt</title>
<path fill="none" stroke="black" d="M273.67,-361.68C246.61,-340.55 200.96,-299.63 182.74,-252 177.03,-237.06 177.48,-231.11 182.74,-216 183.26,-214.51 233.54,-151.38 262.23,-115.42"/>
<polygon fill="black" stroke="black" points="265.18,-117.35 268.68,-107.35 259.71,-112.98 265.18,-117.35"/>
</g>
<!-- aws&#45;c&#45;http -->
<g id="node6" class="node">
<title>aws&#45;c&#45;http</title>
<g id="a_node6"><a xlink:href="https://github.com/conda-forge/aws-c-http-feedstock" xlink:title="aws c http">
<ellipse fill="#fde725" stroke="black" cx="420.74" cy="-306" rx="59.29" ry="18"/>
<text text-anchor="middle" x="420.74" y="-302.3" font-family="Times,serif" font-size="14.00">aws c http</text>
</a>
</g>
</g>
<!-- aws&#45;c&#45;io&#45;&gt;aws&#45;c&#45;http -->
<g id="edge8" class="edge">
<title>aws&#45;c&#45;io&#45;&gt;aws&#45;c&#45;http</title>
<path fill="none" stroke="black" d="M320.54,-362.67C339.11,-352.35 364.39,-338.31 384.91,-326.91"/>
<polygon fill="black" stroke="black" points="386.63,-329.96 393.67,-322.04 383.23,-323.84 386.63,-329.96"/>
</g>
<!-- aws&#45;c&#45;mqtt -->
<g id="node7" class="node">
<title>aws&#45;c&#45;mqtt</title>
<g id="a_node7"><a xlink:href="https://github.com/conda-forge/aws-c-mqtt-feedstock" xlink:title="aws c mqtt">
<ellipse fill="#fde725" stroke="black" cx="253.74" cy="-234" rx="61.99" ry="18"/>
<text text-anchor="middle" x="253.74" y="-230.3" font-family="Times,serif" font-size="14.00">aws c mqtt</text>
</a>
</g>
</g>
<!-- aws&#45;c&#45;io&#45;&gt;aws&#45;c&#45;mqtt -->
<g id="edge9" class="edge">
<title>aws&#45;c&#45;io&#45;&gt;aws&#45;c&#45;mqtt</title>
<path fill="none" stroke="black" d="M289.8,-359.87C282.78,-335.56 269.86,-290.82 261.54,-262.01"/>
<polygon fill="black" stroke="black" points="264.84,-260.83 258.7,-252.19 258.12,-262.77 264.84,-260.83"/>
</g>
<!-- aws&#45;c&#45;auth -->
<g id="node8" class="node">
<title>aws&#45;c&#45;auth</title>
<g id="a_node8"><a xlink:href="https://github.com/conda-forge/aws-c-auth-feedstock" xlink:title="aws c auth">
<ellipse fill="#fde725" stroke="black" cx="508.74" cy="-234" rx="60.5" ry="18"/>
<text text-anchor="middle" x="508.74" y="-230.3" font-family="Times,serif" font-size="14.00">aws c auth</text>
</a>
</g>
</g>
<!-- aws&#45;c&#45;io&#45;&gt;aws&#45;c&#45;auth -->
<g id="edge10" class="edge">
<title>aws&#45;c&#45;io&#45;&gt;aws&#45;c&#45;auth</title>
<path fill="none" stroke="black" d="M330.87,-366.03C337.79,-363.98 344.98,-361.9 351.74,-360 412.36,-343 445.03,-369.31 488.74,-324 504.42,-307.75 508.84,-281.99 509.67,-262.35"/>
<polygon fill="black" stroke="black" points="513.18,-262.23 509.82,-252.18 506.18,-262.13 513.18,-262.23"/>
</g>
<!-- aws&#45;c&#45;s3 -->
<g id="node9" class="node">
<title>aws&#45;c&#45;s3</title>
<g id="a_node9"><a xlink:href="https://github.com/conda-forge/aws-c-s3-feedstock" xlink:title="aws c s3">
<ellipse fill="#fde725" stroke="black" cx="421.74" cy="-162" rx="50.09" ry="18"/>
<text text-anchor="middle" x="421.74" y="-158.3" font-family="Times,serif" font-size="14.00">aws c s3</text>
</a>
</g>
</g>
<!-- aws&#45;c&#45;io&#45;&gt;aws&#45;c&#45;s3 -->
<g id="edge11" class="edge">
<title>aws&#45;c&#45;io&#45;&gt;aws&#45;c&#45;s3</title>
<path fill="none" stroke="black" d="M304.71,-360.21C326.87,-322.86 380.36,-232.73 406.65,-188.43"/>
<polygon fill="black" stroke="black" points="409.73,-190.1 411.82,-179.71 403.71,-186.53 409.73,-190.1"/>
</g>
<!-- aws&#45;c&#45;http&#45;&gt;aws&#45;crt&#45;cpp -->
<g id="edge12" class="edge">
<title>aws&#45;c&#45;http&#45;&gt;aws&#45;crt&#45;cpp</title>
<path fill="none" stroke="black" d="M468.6,-295.35C510.13,-285.89 565.61,-270.26 578.74,-252 612.98,-204.4 551.19,-144.81 510.74,-113.16"/>
<polygon fill="black" stroke="black" points="512.79,-110.32 502.73,-107.03 508.54,-115.88 512.79,-110.32"/>
</g>
<!-- aws&#45;c&#45;http&#45;&gt;awscrt -->
<g id="edge13" class="edge">
<title>aws&#45;c&#45;http&#45;&gt;awscrt</title>
<path fill="none" stroke="black" d="M409.83,-288.21C385.46,-250.69 326.5,-159.91 297.87,-115.83"/>
<polygon fill="black" stroke="black" points="300.79,-113.9 292.41,-107.42 294.92,-117.71 300.79,-113.9"/>
</g>
<!-- aws&#45;c&#45;http&#45;&gt;aws&#45;c&#45;mqtt -->
<g id="edge14" class="edge">
<title>aws&#45;c&#45;http&#45;&gt;aws&#45;c&#45;mqtt</title>
<path fill="none" stroke="black" d="M387.35,-291C361.35,-280.11 325.07,-264.9 296.87,-253.08"/>
<polygon fill="black" stroke="black" points="298.22,-249.85 287.65,-249.21 295.52,-256.31 298.22,-249.85"/>
</g>
<!-- aws&#45;c&#45;http&#45;&gt;aws&#45;c&#45;auth -->
<g id="edge15" class="edge">
<title>aws&#45;c&#45;http&#45;&gt;aws&#45;c&#45;auth</title>
<path fill="none" stroke="black" d="M441.15,-288.76C452.81,-279.49 467.61,-267.71 480.39,-257.55"/>
<polygon fill="black" stroke="black" points="482.79,-260.11 488.44,-251.15 478.44,-254.63 482.79,-260.11"/>
</g>
<!-- aws&#45;c&#45;http&#45;&gt;aws&#45;c&#45;s3 -->
<g id="edge16" class="edge">
<title>aws&#45;c&#45;http&#45;&gt;aws&#45;c&#45;s3</title>
<path fill="none" stroke="black" d="M420.86,-287.87C421.03,-263.67 421.35,-219.21 421.55,-190.39"/>
<polygon fill="black" stroke="black" points="425.05,-190.21 421.62,-180.19 418.05,-190.16 425.05,-190.21"/>
</g>
<!-- aws&#45;c&#45;mqtt&#45;&gt;aws&#45;crt&#45;cpp -->
<g id="edge17" class="edge">
<title>aws&#45;c&#45;mqtt&#45;&gt;aws&#45;crt&#45;cpp</title>
<path fill="none" stroke="black" d="M270.79,-216.69C291.39,-197.57 327.65,-165.76 362.74,-144 384.95,-130.23 411.33,-117.97 433.42,-108.71"/>
<polygon fill="black" stroke="black" points="435,-111.84 442.92,-104.8 432.34,-105.37 435,-111.84"/>
</g>
<!-- aws&#45;c&#45;mqtt&#45;&gt;awscrt -->
<g id="edge18" class="edge">
<title>aws&#45;c&#45;mqtt&#45;&gt;awscrt</title>
<path fill="none" stroke="black" d="M257.12,-215.87C261.91,-191.56 270.73,-146.82 276.41,-118.01"/>
<polygon fill="black" stroke="black" points="279.85,-118.68 278.35,-108.19 272.98,-117.32 279.85,-118.68"/>
</g>
<!-- aws&#45;c&#45;auth&#45;&gt;aws&#45;crt&#45;cpp -->
<g id="edge19" class="edge">
<title>aws&#45;c&#45;auth&#45;&gt;aws&#45;crt&#45;cpp</title>
<path fill="none" stroke="black" d="M513.05,-215.88C516.87,-197.67 520.84,-168.21 513.74,-144 510.86,-134.19 505.55,-124.47 499.97,-116.09"/>
<polygon fill="black" stroke="black" points="502.79,-114.02 494.14,-107.9 497.08,-118.07 502.79,-114.02"/>
</g>
<!-- aws&#45;c&#45;auth&#45;&gt;awscrt -->
<g id="edge20" class="edge">
<title>aws&#45;c&#45;auth&#45;&gt;awscrt</title>
<path fill="none" stroke="black" d="M508.09,-215.71C506.39,-195.65 500.52,-162.92 480.74,-144 459.43,-123.61 382.92,-107.49 331.22,-98.6"/>
<polygon fill="black" stroke="black" points="331.68,-95.13 321.23,-96.92 330.52,-102.03 331.68,-95.13"/>
</g>
<!-- aws&#45;c&#45;auth&#45;&gt;aws&#45;c&#45;s3 -->
<g id="edge21" class="edge">
<title>aws&#45;c&#45;auth&#45;&gt;aws&#45;c&#45;s3</title>
<path fill="none" stroke="black" d="M488.56,-216.76C476.87,-207.36 461.98,-195.38 449.23,-185.12"/>
<polygon fill="black" stroke="black" points="451.2,-182.21 441.21,-178.67 446.81,-187.66 451.2,-182.21"/>
</g>
<!-- aws&#45;c&#45;s3&#45;&gt;aws&#45;crt&#45;cpp -->
<g id="edge22" class="edge">
<title>aws&#45;c&#45;s3&#45;&gt;aws&#45;crt&#45;cpp</title>
<path fill="none" stroke="black" d="M435.49,-144.41C442.53,-135.91 451.26,-125.37 459.1,-115.91"/>
<polygon fill="black" stroke="black" points="462.01,-117.89 465.69,-107.96 456.62,-113.42 462.01,-117.89"/>
</g>
<!-- aws&#45;c&#45;s3&#45;&gt;awscrt -->
<g id="edge23" class="edge">
<title>aws&#45;c&#45;s3&#45;&gt;awscrt</title>
<path fill="none" stroke="black" d="M393.75,-147C371.77,-136.01 341.02,-120.64 317.3,-108.78"/>
<polygon fill="black" stroke="black" points="318.77,-105.6 308.26,-104.26 315.64,-111.86 318.77,-105.6"/>
</g>
<!-- aws&#45;c&#45;compression -->
<g id="node10" class="node">
<title>aws&#45;c&#45;compression</title>
<g id="a_node10"><a xlink:href="https://github.com/conda-forge/aws-c-compression-feedstock" xlink:title="aws c compression">
<ellipse fill="#000000" stroke="black" cx="458.74" cy="-378" rx="98.28" ry="18"/>
<text text-anchor="middle" x="458.74" y="-374.3" font-family="Times,serif" font-size="14.00" fill="white">aws c compression</text>
</a>
</g>
</g>
<!-- aws&#45;c&#45;compression&#45;&gt;aws&#45;c&#45;http -->
<g id="edge24" class="edge">
<title>aws&#45;c&#45;compression&#45;&gt;aws&#45;c&#45;http</title>
<path fill="none" stroke="black" d="M449.54,-360.05C445.11,-351.89 439.69,-341.91 434.76,-332.82"/>
<polygon fill="black" stroke="black" points="437.7,-330.91 429.86,-323.79 431.55,-334.25 437.7,-330.91"/>
</g>
<!-- aws&#45;c&#45;sdkutils -->
<g id="node11" class="node">
<title>aws&#45;c&#45;sdkutils</title>
<g id="a_node11"><a xlink:href="https://github.com/conda-forge/aws-c-sdkutils-feedstock" xlink:title="aws c sdkutils">
<ellipse fill="#000000" stroke="black" cx="611.74" cy="-306" rx="76.09" ry="18"/>
<text text-anchor="middle" x="611.74" y="-302.3" font-family="Times,serif" font-size="14.00" fill="white">aws c sdkutils</text>
</a>
</g>
</g>
<!-- aws&#45;c&#45;sdkutils&#45;&gt;aws&#45;crt&#45;cpp -->
<g id="edge25" class="edge">
<title>aws&#45;c&#45;sdkutils&#45;&gt;aws&#45;crt&#45;cpp</title>
<path fill="none" stroke="black" d="M612.33,-287.86C612.52,-255.94 608.55,-186.76 573.74,-144 561.47,-128.92 543.69,-117.36 526.9,-108.94"/>
<polygon fill="black" stroke="black" points="528.25,-105.7 517.71,-104.58 525.25,-112.03 528.25,-105.7"/>
</g>
<!-- aws&#45;c&#45;sdkutils&#45;&gt;aws&#45;c&#45;auth -->
<g id="edge26" class="edge">
<title>aws&#45;c&#45;sdkutils&#45;&gt;aws&#45;c&#45;auth</title>
<path fill="none" stroke="black" d="M587.85,-288.76C573.74,-279.18 555.71,-266.92 540.42,-256.53"/>
<polygon fill="black" stroke="black" points="542.03,-253.39 531.79,-250.67 538.1,-259.18 542.03,-253.39"/>
</g>
</g>
</svg>
