<?xml version="1.0" encoding="UTF-8" standalone="no"?>
<!DOCTYPE svg PUBLIC "-//W3C//DTD SVG 1.1//EN"
 "http://www.w3.org/Graphics/SVG/1.1/DTD/svg11.dtd">
<!-- Generated by graphviz version 2.49.1 (20211004.0028)
 -->
<!-- Pages: 1 -->
<svg width="555pt" height="260pt"
 viewBox="0.00 0.00 555.38 260.00" xmlns="http://www.w3.org/2000/svg" xmlns:xlink="http://www.w3.org/1999/xlink">
<g id="graph0" class="graph" transform="scale(1 1) rotate(0) translate(4 256)">
<polygon fill="white" stroke="transparent" points="-4,4 -4,-256 551.38,-256 551.38,4 -4,4"/>
<!-- aws&#45;c&#45;event&#45;stream -->
<g id="node1" class="node">
<title>aws&#45;c&#45;event&#45;stream</title>
<g id="a_node1"><a xlink:href="https://github.com/conda-forge/aws-c-event-stream-feedstock/pull/130" xlink:title="aws c event stream ❎">
<ellipse fill="#31688e" stroke="black" cx="399.47" cy="-90" rx="115.08" ry="18"/>
<text text-anchor="middle" x="399.47" y="-86.3" font-family="Times,serif" font-size="14.00" fill="white">aws c event stream ❎</text>
</a>
</g>
</g>
<!-- aws&#45;crt&#45;cpp -->
<g id="node5" class="node">
<title>aws&#45;crt&#45;cpp</title>
<g id="a_node5"><a xlink:href="https://github.com/conda-forge/aws-crt-cpp-feedstock" xlink:title="aws crt cpp">
<ellipse fill="#fde725" stroke="black" cx="86.47" cy="-18" rx="64.19" ry="18"/>
<text text-anchor="middle" x="86.47" y="-14.3" font-family="Times,serif" font-size="14.00">aws crt cpp</text>
</a>
</g>
</g>
<!-- aws&#45;c&#45;event&#45;stream&#45;&gt;aws&#45;crt&#45;cpp -->
<g id="edge1" class="edge">
<title>aws&#45;c&#45;event&#45;stream&#45;&gt;aws&#45;crt&#45;cpp</title>
<path fill="none" stroke="black" d="M336.5,-74.92C280.54,-62.4 199.37,-44.25 144.84,-32.06"/>
<polygon fill="black" stroke="black" points="145.51,-28.62 134.98,-29.85 143.98,-35.45 145.51,-28.62"/>
</g>
<!-- awscrt -->
<g id="node7" class="node">
<title>awscrt</title>
<g id="a_node7"><a xlink:href="https://github.com/conda-forge/awscrt-feedstock" xlink:title="awscrt">
<ellipse fill="#fde725" stroke="black" cx="399.47" cy="-18" rx="42.49" ry="18"/>
<text text-anchor="middle" x="399.47" y="-14.3" font-family="Times,serif" font-size="14.00">awscrt</text>
</a>
</g>
</g>
<!-- aws&#45;c&#45;event&#45;stream&#45;&gt;awscrt -->
<g id="edge2" class="edge">
<title>aws&#45;c&#45;event&#45;stream&#45;&gt;awscrt</title>
<path fill="none" stroke="black" d="M399.47,-71.7C399.47,-63.98 399.47,-54.71 399.47,-46.11"/>
<polygon fill="black" stroke="black" points="402.97,-46.1 399.47,-36.1 395.97,-46.1 402.97,-46.1"/>
</g>
<!-- aws&#45;c&#45;http -->
<g id="node2" class="node">
<title>aws&#45;c&#45;http</title>
<g id="a_node2"><a xlink:href="https://github.com/conda-forge/aws-c-http-feedstock/pull/132" xlink:title="aws c http ❎">
<ellipse fill="#31688e" stroke="black" cx="174.47" cy="-234" rx="73.39" ry="18"/>
<text text-anchor="middle" x="174.47" y="-230.3" font-family="Times,serif" font-size="14.00" fill="white">aws c http ❎</text>
</a>
</g>
</g>
<!-- aws&#45;c&#45;mqtt -->
<g id="node3" class="node">
<title>aws&#45;c&#45;mqtt</title>
<g id="a_node3"><a xlink:href="https://github.com/conda-forge/aws-c-mqtt-feedstock" xlink:title="aws c mqtt">
<ellipse fill="#fde725" stroke="black" cx="86.47" cy="-90" rx="61.99" ry="18"/>
<text text-anchor="middle" x="86.47" y="-86.3" font-family="Times,serif" font-size="14.00">aws c mqtt</text>
</a>
</g>
</g>
<!-- aws&#45;c&#45;http&#45;&gt;aws&#45;c&#45;mqtt -->
<g id="edge4" class="edge">
<title>aws&#45;c&#45;http&#45;&gt;aws&#45;c&#45;mqtt</title>
<path fill="none" stroke="black" d="M145.28,-217.22C131.17,-208.14 115.22,-195.46 105.47,-180 93.76,-161.46 89.16,-136.87 87.41,-118.23"/>
<polygon fill="black" stroke="black" points="90.88,-117.76 86.67,-108.04 83.9,-118.27 90.88,-117.76"/>
</g>
<!-- aws&#45;c&#45;auth -->
<g id="node4" class="node">
<title>aws&#45;c&#45;auth</title>
<g id="a_node4"><a xlink:href="https://github.com/conda-forge/aws-c-auth-feedstock" xlink:title="aws c auth">
<ellipse fill="#fde725" stroke="black" cx="174.47" cy="-162" rx="60.39" ry="18"/>
<text text-anchor="middle" x="174.47" y="-158.3" font-family="Times,serif" font-size="14.00">aws c auth</text>
</a>
</g>
</g>
<!-- aws&#45;c&#45;http&#45;&gt;aws&#45;c&#45;auth -->
<g id="edge3" class="edge">
<title>aws&#45;c&#45;http&#45;&gt;aws&#45;c&#45;auth</title>
<path fill="none" stroke="black" d="M174.47,-215.7C174.47,-207.98 174.47,-198.71 174.47,-190.11"/>
<polygon fill="black" stroke="black" points="177.97,-190.1 174.47,-180.1 170.97,-190.1 177.97,-190.1"/>
</g>
<!-- aws&#45;c&#45;http&#45;&gt;aws&#45;crt&#45;cpp -->
<g id="edge6" class="edge">
<title>aws&#45;c&#45;http&#45;&gt;aws&#45;crt&#45;cpp</title>
<path fill="none" stroke="black" d="M136.94,-218.45C95.36,-199.96 30.84,-163.61 5.47,-108 -1.18,-93.44 -2.14,-86.07 5.47,-72 13.33,-57.45 27.13,-46.25 41.13,-37.98"/>
<polygon fill="black" stroke="black" points="43.2,-40.83 50.3,-32.96 39.84,-34.69 43.2,-40.83"/>
</g>
<!-- aws&#45;c&#45;s3 -->
<g id="node6" class="node">
<title>aws&#45;c&#45;s3</title>
<g id="a_node6"><a xlink:href="https://github.com/conda-forge/aws-c-s3-feedstock" xlink:title="aws c s3">
<ellipse fill="#fde725" stroke="black" cx="216.47" cy="-90" rx="50.09" ry="18"/>
<text text-anchor="middle" x="216.47" y="-86.3" font-family="Times,serif" font-size="14.00">aws c s3</text>
</a>
</g>
</g>
<!-- aws&#45;c&#45;http&#45;&gt;aws&#45;c&#45;s3 -->
<g id="edge5" class="edge">
<title>aws&#45;c&#45;http&#45;&gt;aws&#45;c&#45;s3</title>
<path fill="none" stroke="black" d="M205.77,-217.56C220.05,-208.71 235.52,-196.12 243.47,-180 253.54,-159.56 244.3,-134.6 233.98,-116.32"/>
<polygon fill="black" stroke="black" points="236.92,-114.42 228.74,-107.68 230.93,-118.05 236.92,-114.42"/>
</g>
<!-- aws&#45;c&#45;http&#45;&gt;awscrt -->
<g id="edge7" class="edge">
<title>aws&#45;c&#45;http&#45;&gt;awscrt</title>
<path fill="none" stroke="black" d="M247.39,-231.65C333.63,-225.65 473.87,-201.12 540.47,-108 549.77,-94.99 549.57,-85.15 540.47,-72 520.38,-43 482.31,-29.84 450.79,-23.89"/>
<polygon fill="black" stroke="black" points="451.26,-20.42 440.81,-22.2 450.09,-27.32 451.26,-20.42"/>
</g>
<!-- aws&#45;c&#45;mqtt&#45;&gt;aws&#45;crt&#45;cpp -->
<g id="edge8" class="edge">
<title>aws&#45;c&#45;mqtt&#45;&gt;aws&#45;crt&#45;cpp</title>
<path fill="none" stroke="black" d="M86.47,-71.7C86.47,-63.98 86.47,-54.71 86.47,-46.11"/>
<polygon fill="black" stroke="black" points="89.97,-46.1 86.47,-36.1 82.97,-46.1 89.97,-46.1"/>
</g>
<!-- aws&#45;c&#45;mqtt&#45;&gt;awscrt -->
<g id="edge9" class="edge">
<title>aws&#45;c&#45;mqtt&#45;&gt;awscrt</title>
<path fill="none" stroke="black" d="M132.27,-77.9C140.64,-75.9 149.31,-73.87 157.47,-72 225.18,-56.48 303.77,-39.45 352.57,-28.99"/>
<polygon fill="black" stroke="black" points="353.47,-32.37 362.52,-26.86 352.01,-25.53 353.47,-32.37"/>
</g>
<!-- aws&#45;c&#45;auth&#45;&gt;aws&#45;crt&#45;cpp -->
<g id="edge11" class="edge">
<title>aws&#45;c&#45;auth&#45;&gt;aws&#45;crt&#45;cpp</title>
<path fill="none" stroke="black" d="M115.29,-157.79C80.13,-152.47 38.09,-139.39 15.47,-108 6.11,-95.02 8.29,-86.3 15.47,-72 22.24,-58.48 34.29,-47.53 46.55,-39.17"/>
<polygon fill="black" stroke="black" points="48.45,-42.11 55.02,-33.79 44.7,-36.2 48.45,-42.11"/>
</g>
<!-- aws&#45;c&#45;auth&#45;&gt;aws&#45;c&#45;s3 -->
<g id="edge10" class="edge">
<title>aws&#45;c&#45;auth&#45;&gt;aws&#45;c&#45;s3</title>
<path fill="none" stroke="black" d="M184.63,-144.05C189.59,-135.8 195.64,-125.7 201.14,-116.54"/>
<polygon fill="black" stroke="black" points="204.25,-118.16 206.39,-107.79 198.25,-114.56 204.25,-118.16"/>
</g>
<!-- aws&#45;c&#45;auth&#45;&gt;awscrt -->
<g id="edge12" class="edge">
<title>aws&#45;c&#45;auth&#45;&gt;awscrt</title>
<path fill="none" stroke="black" d="M234.87,-160.9C324.72,-159.31 486.96,-150.47 523.47,-108 533.9,-95.87 532.28,-85.35 523.47,-72 507,-47.05 476.11,-33.81 449.28,-26.79"/>
<polygon fill="black" stroke="black" points="449.78,-23.31 439.24,-24.4 448.15,-30.12 449.78,-23.31"/>
</g>
<!-- aws&#45;c&#45;s3&#45;&gt;aws&#45;crt&#45;cpp -->
<g id="edge13" class="edge">
<title>aws&#45;c&#45;s3&#45;&gt;aws&#45;crt&#45;cpp</title>
<path fill="none" stroke="black" d="M189.84,-74.67C170.82,-64.42 144.96,-50.5 123.87,-39.14"/>
<polygon fill="black" stroke="black" points="125.32,-35.94 114.85,-34.29 122,-42.11 125.32,-35.94"/>
</g>
<!-- aws&#45;c&#45;s3&#45;&gt;awscrt -->
<g id="edge14" class="edge">
<title>aws&#45;c&#45;s3&#45;&gt;awscrt</title>
<path fill="none" stroke="black" d="M249.61,-76.32C280.41,-64.54 326.36,-46.97 359.25,-34.38"/>
<polygon fill="black" stroke="black" points="360.92,-37.49 369,-30.65 358.41,-30.96 360.92,-37.49"/>
</g>
</g>
</svg>
