<?xml version="1.0" encoding="UTF-8" standalone="no"?>
<!DOCTYPE svg PUBLIC "-//W3C//DTD SVG 1.1//EN"
 "http://www.w3.org/Graphics/SVG/1.1/DTD/svg11.dtd">
<!-- Generated by graphviz version 2.49.1 (20211004.0028)
 -->
<!-- Pages: 1 -->
<svg width="311pt" height="260pt"
 viewBox="0.00 0.00 311.38 260.00" xmlns="http://www.w3.org/2000/svg" xmlns:xlink="http://www.w3.org/1999/xlink">
<g id="graph0" class="graph" transform="scale(1 1) rotate(0) translate(4 256)">
<polygon fill="white" stroke="transparent" points="-4,4 -4,-256 307.38,-256 307.38,4 -4,4"/>
<!-- aws&#45;sdk&#45;cpp -->
<g id="node1" class="node">
<title>aws&#45;sdk&#45;cpp</title>
<g id="a_node1"><a xlink:href="https://github.com/conda-forge/aws-sdk-cpp-feedstock" xlink:title="aws sdk cpp">
<ellipse fill="#fde725" stroke="black" cx="67.59" cy="-18" rx="67.69" ry="18"/>
<text text-anchor="middle" x="67.59" y="-14.3" font-family="Times,serif" font-size="14.00">aws sdk cpp</text>
</a>
</g>
</g>
<!-- aws&#45;c&#45;mqtt -->
<g id="node2" class="node">
<title>aws&#45;c&#45;mqtt</title>
<g id="a_node2"><a xlink:href="https://github.com/conda-forge/aws-c-mqtt-feedstock/pull/144" xlink:title="aws c mqtt ❎">
<ellipse fill="#31688e" stroke="black" cx="211.59" cy="-162" rx="76.09" ry="18"/>
<text text-anchor="middle" x="211.59" y="-158.3" font-family="Times,serif" font-size="14.00" fill="white">aws c mqtt ❎</text>
</a>
</g>
</g>
<!-- aws&#45;crt&#45;cpp -->
<g id="node4" class="node">
<title>aws&#45;crt&#45;cpp</title>
<g id="a_node4"><a xlink:href="https://github.com/conda-forge/aws-crt-cpp-feedstock" xlink:title="aws crt cpp">
<ellipse fill="#fde725" stroke="black" cx="67.59" cy="-90" rx="64.19" ry="18"/>
<text text-anchor="middle" x="67.59" y="-86.3" font-family="Times,serif" font-size="14.00">aws crt cpp</text>
</a>
</g>
</g>
<!-- aws&#45;c&#45;mqtt&#45;&gt;aws&#45;crt&#45;cpp -->
<g id="edge1" class="edge">
<title>aws&#45;c&#45;mqtt&#45;&gt;aws&#45;crt&#45;cpp</title>
<path fill="none" stroke="black" d="M179.64,-145.46C158.37,-135.13 130.27,-121.47 107.54,-110.42"/>
<polygon fill="black" stroke="black" points="109,-107.24 98.47,-106.01 105.94,-113.53 109,-107.24"/>
</g>
<!-- awscrt -->
<g id="node6" class="node">
<title>awscrt</title>
<g id="a_node6"><a xlink:href="https://github.com/conda-forge/awscrt-feedstock" xlink:title="awscrt">
<ellipse fill="#fde725" stroke="black" cx="211.59" cy="-90" rx="42.49" ry="18"/>
<text text-anchor="middle" x="211.59" y="-86.3" font-family="Times,serif" font-size="14.00">awscrt</text>
</a>
</g>
</g>
<!-- aws&#45;c&#45;mqtt&#45;&gt;awscrt -->
<g id="edge2" class="edge">
<title>aws&#45;c&#45;mqtt&#45;&gt;awscrt</title>
<path fill="none" stroke="black" d="M211.59,-143.7C211.59,-135.98 211.59,-126.71 211.59,-118.11"/>
<polygon fill="black" stroke="black" points="215.09,-118.1 211.59,-108.1 208.09,-118.1 215.09,-118.1"/>
</g>
<!-- aws&#45;c&#45;auth -->
<g id="node3" class="node">
<title>aws&#45;c&#45;auth</title>
<g id="a_node3"><a xlink:href="https://github.com/conda-forge/aws-c-auth-feedstock" xlink:title="aws c auth">
<ellipse fill="#ff8c00" stroke="black" cx="67.59" cy="-234" rx="60.39" ry="18"/>
<text text-anchor="middle" x="67.59" y="-230.3" font-family="Times,serif" font-size="14.00">aws c auth</text>
</a>
</g>
</g>
<!-- aws&#45;c&#45;auth&#45;&gt;aws&#45;crt&#45;cpp -->
<g id="edge4" class="edge">
<title>aws&#45;c&#45;auth&#45;&gt;aws&#45;crt&#45;cpp</title>
<path fill="none" stroke="black" d="M41.95,-217.47C29.38,-208.31 15.49,-195.47 8.59,-180 2.08,-165.39 2.08,-158.61 8.59,-144 14.04,-131.8 23.83,-121.23 33.9,-112.81"/>
<polygon fill="black" stroke="black" points="36.22,-115.44 41.95,-106.53 31.91,-109.92 36.22,-115.44"/>
</g>
<!-- aws&#45;c&#45;s3 -->
<g id="node5" class="node">
<title>aws&#45;c&#45;s3</title>
<g id="a_node5"><a xlink:href="https://github.com/conda-forge/aws-c-s3-feedstock" xlink:title="aws c s3">
<ellipse fill="#fde725" stroke="black" cx="67.59" cy="-162" rx="50.09" ry="18"/>
<text text-anchor="middle" x="67.59" y="-158.3" font-family="Times,serif" font-size="14.00">aws c s3</text>
</a>
</g>
</g>
<!-- aws&#45;c&#45;auth&#45;&gt;aws&#45;c&#45;s3 -->
<g id="edge3" class="edge">
<title>aws&#45;c&#45;auth&#45;&gt;aws&#45;c&#45;s3</title>
<path fill="none" stroke="black" d="M67.59,-215.7C67.59,-207.98 67.59,-198.71 67.59,-190.11"/>
<polygon fill="black" stroke="black" points="71.09,-190.1 67.59,-180.1 64.09,-190.1 71.09,-190.1"/>
</g>
<!-- aws&#45;c&#45;auth&#45;&gt;awscrt -->
<g id="edge5" class="edge">
<title>aws&#45;c&#45;auth&#45;&gt;awscrt</title>
<path fill="none" stroke="black" d="M124.51,-227.82C185.21,-220.97 275.48,-206.55 296.59,-180 306.55,-167.48 304.36,-157.99 296.59,-144 287.12,-126.94 269.62,-114.65 252.95,-106.23"/>
<polygon fill="black" stroke="black" points="254.37,-103.03 243.83,-101.94 251.39,-109.36 254.37,-103.03"/>
</g>
<!-- aws&#45;crt&#45;cpp&#45;&gt;aws&#45;sdk&#45;cpp -->
<g id="edge6" class="edge">
<title>aws&#45;crt&#45;cpp&#45;&gt;aws&#45;sdk&#45;cpp</title>
<path fill="none" stroke="black" d="M67.59,-71.7C67.59,-63.98 67.59,-54.71 67.59,-46.11"/>
<polygon fill="black" stroke="black" points="71.09,-46.1 67.59,-36.1 64.09,-46.1 71.09,-46.1"/>
</g>
<!-- aws&#45;c&#45;s3&#45;&gt;aws&#45;crt&#45;cpp -->
<g id="edge7" class="edge">
<title>aws&#45;c&#45;s3&#45;&gt;aws&#45;crt&#45;cpp</title>
<path fill="none" stroke="black" d="M67.59,-143.7C67.59,-135.98 67.59,-126.71 67.59,-118.11"/>
<polygon fill="black" stroke="black" points="71.09,-118.1 67.59,-108.1 64.09,-118.1 71.09,-118.1"/>
</g>
<!-- aws&#45;c&#45;s3&#45;&gt;awscrt -->
<g id="edge8" class="edge">
<title>aws&#45;c&#45;s3&#45;&gt;awscrt</title>
<path fill="none" stroke="black" d="M96.04,-147.17C118.87,-136.08 151.04,-120.44 175.64,-108.48"/>
<polygon fill="black" stroke="black" points="177.2,-111.61 184.66,-104.09 174.14,-105.31 177.2,-111.61"/>
</g>
</g>
</svg>
