<?xml version="1.0" encoding="UTF-8" standalone="no"?>
<!DOCTYPE svg PUBLIC "-//W3C//DTD SVG 1.1//EN"
 "http://www.w3.org/Graphics/SVG/1.1/DTD/svg11.dtd">
<!-- Generated by graphviz version 8.0.5 (20230506.1012)
 -->
<!-- Pages: 1 -->
<svg width="862pt" height="476pt"
 viewBox="0.00 0.00 862.00 476.00" xmlns="http://www.w3.org/2000/svg" xmlns:xlink="http://www.w3.org/1999/xlink">
<g id="graph0" class="graph" transform="scale(1 1) rotate(0) translate(4 472)">
<polygon fill="white" stroke="none" points="-4,4 -4,-472 858,-472 858,4 -4,4"/>
<!-- aws&#45;sdk&#45;cpp -->
<g id="node1" class="node">
<title>aws&#45;sdk&#45;cpp</title>
<g id="a_node1"><a xlink:href="https://github.com/conda-forge/aws-sdk-cpp-feedstock" xlink:title="aws sdk cpp">
<ellipse fill="#fde725" stroke="black" cx="404" cy="-18" rx="72.25" ry="18"/>
<text text-anchor="middle" x="404" y="-13.32" font-family="Times,serif" font-size="14.00">aws sdk cpp</text>
</a>
</g>
</g>
<!-- aws&#45;checksums -->
<g id="node2" class="node">
<title>aws&#45;checksums</title>
<g id="a_node2"><a xlink:href="https://github.com/conda-forge/aws-checksums-feedstock" xlink:title="aws checksums">
<ellipse fill="#35b779" stroke="black" cx="616" cy="-234" rx="88.56" ry="18"/>
<text text-anchor="middle" x="616" y="-229.32" font-family="Times,serif" font-size="14.00">aws checksums</text>
</a>
</g>
</g>
<!-- aws&#45;c&#45;event&#45;stream -->
<g id="node3" class="node">
<title>aws&#45;c&#45;event&#45;stream</title>
<g id="a_node3"><a xlink:href="https://github.com/conda-forge/aws-c-event-stream-feedstock" xlink:title="aws c event stream">
<ellipse fill="#fde725" stroke="black" cx="679" cy="-162" rx="108.55" ry="18"/>
<text text-anchor="middle" x="679" y="-157.32" font-family="Times,serif" font-size="14.00">aws c event stream</text>
</a>
</g>
</g>
<!-- aws&#45;checksums&#45;&gt;aws&#45;c&#45;event&#45;stream -->
<g id="edge1" class="edge">
<title>aws&#45;checksums&#45;&gt;aws&#45;c&#45;event&#45;stream</title>
<path fill="none" stroke="black" d="M631.25,-216.05C638.72,-207.75 647.87,-197.58 656.16,-188.38"/>
<polygon fill="black" stroke="black" points="658.36,-191.05 662.45,-181.28 653.16,-186.37 658.36,-191.05"/>
</g>
<!-- aws&#45;crt&#45;cpp -->
<g id="node4" class="node">
<title>aws&#45;crt&#45;cpp</title>
<g id="a_node4"><a xlink:href="https://github.com/conda-forge/aws-crt-cpp-feedstock" xlink:title="aws crt cpp">
<ellipse fill="#fde725" stroke="black" cx="302" cy="-90" rx="69.1" ry="18"/>
<text text-anchor="middle" x="302" y="-85.33" font-family="Times,serif" font-size="14.00">aws crt cpp</text>
</a>
</g>
</g>
<!-- aws&#45;checksums&#45;&gt;aws&#45;crt&#45;cpp -->
<g id="edge2" class="edge">
<title>aws&#45;checksums&#45;&gt;aws&#45;crt&#45;cpp</title>
<path fill="none" stroke="black" d="M584.68,-216.84C566.66,-207.04 543.91,-193.79 525,-180 505.68,-165.91 505.9,-155.62 485,-144 449.08,-124.03 404.93,-110.96 368.99,-102.8"/>
<polygon fill="black" stroke="black" points="370.12,-99.25 359.6,-100.52 368.62,-106.08 370.12,-99.25"/>
</g>
<!-- aws&#45;c&#45;s3 -->
<g id="node5" class="node">
<title>aws&#45;c&#45;s3</title>
<g id="a_node5"><a xlink:href="https://github.com/conda-forge/aws-c-s3-feedstock" xlink:title="aws c s3">
<ellipse fill="#fde725" stroke="black" cx="422" cy="-162" rx="53.84" ry="18"/>
<text text-anchor="middle" x="422" y="-157.32" font-family="Times,serif" font-size="14.00">aws c s3</text>
</a>
</g>
</g>
<!-- aws&#45;checksums&#45;&gt;aws&#45;c&#45;s3 -->
<g id="edge3" class="edge">
<title>aws&#45;checksums&#45;&gt;aws&#45;c&#45;s3</title>
<path fill="none" stroke="black" d="M573.9,-217.81C542.53,-206.49 499.73,-191.05 467.56,-179.44"/>
<polygon fill="black" stroke="black" points="469.11,-175.92 458.51,-175.81 466.73,-182.5 469.11,-175.92"/>
</g>
<!-- awscrt -->
<g id="node6" class="node">
<title>awscrt</title>
<g id="a_node6"><a xlink:href="https://github.com/conda-forge/awscrt-feedstock" xlink:title="awscrt">
<ellipse fill="#fde725" stroke="black" cx="488" cy="-90" rx="44.9" ry="18"/>
<text text-anchor="middle" x="488" y="-85.33" font-family="Times,serif" font-size="14.00">awscrt</text>
</a>
</g>
</g>
<!-- aws&#45;checksums&#45;&gt;awscrt -->
<g id="edge4" class="edge">
<title>aws&#45;checksums&#45;&gt;awscrt</title>
<path fill="none" stroke="black" d="M597.39,-216.09C586.48,-205.93 572.6,-192.57 561,-180 541.78,-159.18 521.45,-134.12 507.15,-115.9"/>
<polygon fill="black" stroke="black" points="509.55,-114.29 500.64,-108.56 504.03,-118.6 509.55,-114.29"/>
</g>
<!-- aws&#45;c&#45;event&#45;stream&#45;&gt;aws&#45;sdk&#45;cpp -->
<g id="edge5" class="edge">
<title>aws&#45;c&#45;event&#45;stream&#45;&gt;aws&#45;sdk&#45;cpp</title>
<path fill="none" stroke="black" d="M656.14,-144.01C629.64,-124.83 584.2,-93.51 542,-72 514.85,-58.16 483.2,-45.76 457.06,-36.44"/>
<polygon fill="black" stroke="black" points="458.56,-32.9 447.97,-32.89 456.24,-39.51 458.56,-32.9"/>
</g>
<!-- aws&#45;c&#45;event&#45;stream&#45;&gt;aws&#45;crt&#45;cpp -->
<g id="edge6" class="edge">
<title>aws&#45;c&#45;event&#45;stream&#45;&gt;aws&#45;crt&#45;cpp</title>
<path fill="none" stroke="black" d="M608.53,-147.92C539.45,-135.09 434.97,-115.69 367.61,-103.18"/>
<polygon fill="black" stroke="black" points="368.6,-99.62 358.13,-101.24 367.32,-106.5 368.6,-99.62"/>
</g>
<!-- aws&#45;c&#45;event&#45;stream&#45;&gt;awscrt -->
<g id="edge7" class="edge">
<title>aws&#45;c&#45;event&#45;stream&#45;&gt;awscrt</title>
<path fill="none" stroke="black" d="M635.66,-145.12C604.21,-133.59 561.88,-118.08 530.61,-106.62"/>
<polygon fill="black" stroke="black" points="532.05,-103.05 521.46,-102.9 529.64,-109.62 532.05,-103.05"/>
</g>
<!-- aws&#45;crt&#45;cpp&#45;&gt;aws&#45;sdk&#45;cpp -->
<g id="edge8" class="edge">
<title>aws&#45;crt&#45;cpp&#45;&gt;aws&#45;sdk&#45;cpp</title>
<path fill="none" stroke="black" d="M325.66,-72.76C339.21,-63.47 356.41,-51.66 371.24,-41.48"/>
<polygon fill="black" stroke="black" points="372.85,-43.93 379.12,-35.39 368.89,-38.16 372.85,-43.93"/>
</g>
<!-- aws&#45;c&#45;s3&#45;&gt;aws&#45;crt&#45;cpp -->
<g id="edge9" class="edge">
<title>aws&#45;c&#45;s3&#45;&gt;aws&#45;crt&#45;cpp</title>
<path fill="none" stroke="black" d="M395.96,-145.81C379.17,-136.02 357.1,-123.14 338.56,-112.33"/>
<polygon fill="black" stroke="black" points="340.64,-108.9 330.24,-106.89 337.11,-114.95 340.64,-108.9"/>
</g>
<!-- aws&#45;c&#45;s3&#45;&gt;awscrt -->
<g id="edge10" class="edge">
<title>aws&#45;c&#45;s3&#45;&gt;awscrt</title>
<path fill="none" stroke="black" d="M437.64,-144.41C445.98,-135.57 456.39,-124.53 465.57,-114.79"/>
<polygon fill="black" stroke="black" points="467.61,-117.67 471.93,-107.99 462.52,-112.86 467.61,-117.67"/>
</g>
<!-- aws&#45;c&#45;io -->
<g id="node7" class="node">
<title>aws&#45;c&#45;io</title>
<g id="a_node7"><a xlink:href="https://github.com/conda-forge/aws-c-io-feedstock" xlink:title="aws c io">
<ellipse fill="#fde725" stroke="black" cx="441" cy="-378" rx="51.21" ry="18"/>
<text text-anchor="middle" x="441" y="-373.32" font-family="Times,serif" font-size="14.00">aws c io</text>
</a>
</g>
</g>
<!-- aws&#45;c&#45;io&#45;&gt;aws&#45;c&#45;event&#45;stream -->
<g id="edge11" class="edge">
<title>aws&#45;c&#45;io&#45;&gt;aws&#45;c&#45;event&#45;stream</title>
<path fill="none" stroke="black" d="M488.44,-370.86C552.42,-359.76 664.08,-329.75 714,-252 726.72,-232.19 714.61,-207.02 701.27,-188.5"/>
<polygon fill="black" stroke="black" points="703.61,-186.79 694.73,-181 698.06,-191.06 703.61,-186.79"/>
</g>
<!-- aws&#45;c&#45;io&#45;&gt;aws&#45;crt&#45;cpp -->
<g id="edge12" class="edge">
<title>aws&#45;c&#45;io&#45;&gt;aws&#45;crt&#45;cpp</title>
<path fill="none" stroke="black" d="M392.42,-371.68C295.04,-360.78 84.35,-335.95 74,-324 47.79,-293.73 -18.68,-263.3 79,-144 97.8,-121.04 170.38,-106.84 227.7,-98.99"/>
<polygon fill="black" stroke="black" points="228.12,-102.34 237.57,-97.55 227.2,-95.4 228.12,-102.34"/>
</g>
<!-- aws&#45;c&#45;io&#45;&gt;aws&#45;c&#45;s3 -->
<g id="edge13" class="edge">
<title>aws&#45;c&#45;io&#45;&gt;aws&#45;c&#45;s3</title>
<path fill="none" stroke="black" d="M462.45,-361.42C473.54,-352 485.99,-338.92 492,-324 497.98,-309.16 496.04,-303.48 492,-288 482.24,-250.61 458.54,-212.56 441.42,-188.42"/>
<polygon fill="black" stroke="black" points="443.71,-186.62 435,-180.58 438.04,-190.73 443.71,-186.62"/>
</g>
<!-- aws&#45;c&#45;io&#45;&gt;awscrt -->
<g id="edge14" class="edge">
<title>aws&#45;c&#45;io&#45;&gt;awscrt</title>
<path fill="none" stroke="black" d="M491.18,-374.21C539.9,-369.55 614.45,-357.13 670,-324 743.29,-280.29 766.83,-259.82 797,-180 802.66,-165.03 807.31,-156.23 797,-144 765.25,-106.34 623.95,-95.44 543.87,-92.29"/>
<polygon fill="black" stroke="black" points="544.11,-88.76 533.99,-91.89 543.86,-95.75 544.11,-88.76"/>
</g>
<!-- aws&#45;c&#45;http -->
<g id="node8" class="node">
<title>aws&#45;c&#45;http</title>
<g id="a_node8"><a xlink:href="https://github.com/conda-forge/aws-c-http-feedstock" xlink:title="aws c http">
<ellipse fill="#fde725" stroke="black" cx="146" cy="-306" rx="63.31" ry="18"/>
<text text-anchor="middle" x="146" y="-301.32" font-family="Times,serif" font-size="14.00">aws c http</text>
</a>
</g>
</g>
<!-- aws&#45;c&#45;io&#45;&gt;aws&#45;c&#45;http -->
<g id="edge15" class="edge">
<title>aws&#45;c&#45;io&#45;&gt;aws&#45;c&#45;http</title>
<path fill="none" stroke="black" d="M399.36,-367.12C348.3,-355 261.47,-334.4 203.92,-320.74"/>
<polygon fill="black" stroke="black" points="205.07,-317.18 194.53,-318.28 203.45,-323.99 205.07,-317.18"/>
</g>
<!-- aws&#45;c&#45;mqtt -->
<g id="node9" class="node">
<title>aws&#45;c&#45;mqtt</title>
<g id="a_node9"><a xlink:href="https://github.com/conda-forge/aws-c-mqtt-feedstock" xlink:title="aws c mqtt">
<ellipse fill="#fde725" stroke="black" cx="170" cy="-162" rx="66.47" ry="18"/>
<text text-anchor="middle" x="170" y="-157.32" font-family="Times,serif" font-size="14.00">aws c mqtt</text>
</a>
</g>
</g>
<!-- aws&#45;c&#45;io&#45;&gt;aws&#45;c&#45;mqtt -->
<g id="edge16" class="edge">
<title>aws&#45;c&#45;io&#45;&gt;aws&#45;c&#45;mqtt</title>
<path fill="none" stroke="black" d="M397.37,-368.17C366.36,-360.33 324.9,-346.54 294,-324 243.72,-287.32 203.85,-224.74 183.92,-189.37"/>
<polygon fill="black" stroke="black" points="186.74,-188.22 178.84,-181.16 180.61,-191.61 186.74,-188.22"/>
</g>
<!-- aws&#45;c&#45;auth -->
<g id="node10" class="node">
<title>aws&#45;c&#45;auth</title>
<g id="a_node10"><a xlink:href="https://github.com/conda-forge/aws-c-auth-feedstock" xlink:title="aws c auth">
<ellipse fill="#fde725" stroke="black" cx="368" cy="-234" rx="64.89" ry="18"/>
<text text-anchor="middle" x="368" y="-229.32" font-family="Times,serif" font-size="14.00">aws c auth</text>
</a>
</g>
</g>
<!-- aws&#45;c&#45;io&#45;&gt;aws&#45;c&#45;auth -->
<g id="edge17" class="edge">
<title>aws&#45;c&#45;io&#45;&gt;aws&#45;c&#45;auth</title>
<path fill="none" stroke="black" d="M456.34,-360.41C471.53,-341.87 490.58,-311.39 476,-288 464.9,-270.19 445.89,-258.2 426.88,-250.2"/>
<polygon fill="black" stroke="black" points="428.26,-246.6 417.67,-246.27 425.74,-253.13 428.26,-246.6"/>
</g>
<!-- aws&#45;c&#45;http&#45;&gt;aws&#45;crt&#45;cpp -->
<g id="edge18" class="edge">
<title>aws&#45;c&#45;http&#45;&gt;aws&#45;crt&#45;cpp</title>
<path fill="none" stroke="black" d="M131.56,-288.18C106.43,-256.8 60.48,-188.47 95,-144 111.63,-122.58 176.76,-108.34 229.58,-100.07"/>
<polygon fill="black" stroke="black" points="229.94,-103.4 239.3,-98.44 228.89,-96.48 229.94,-103.4"/>
</g>
<!-- aws&#45;c&#45;http&#45;&gt;aws&#45;c&#45;s3 -->
<g id="edge19" class="edge">
<title>aws&#45;c&#45;http&#45;&gt;aws&#45;c&#45;s3</title>
<path fill="none" stroke="black" d="M169.98,-289.05C198.75,-270.29 248.76,-238.81 294,-216 320.68,-202.55 351.62,-189.67 376.39,-179.97"/>
<polygon fill="black" stroke="black" points="377.54,-182.9 385.6,-176.02 375.01,-176.37 377.54,-182.9"/>
</g>
<!-- aws&#45;c&#45;http&#45;&gt;awscrt -->
<g id="edge20" class="edge">
<title>aws&#45;c&#45;http&#45;&gt;awscrt</title>
<path fill="none" stroke="black" d="M159.27,-287.92C174.53,-268.94 201,-238.07 228,-216 294.49,-161.66 388.54,-124.04 443.41,-105.12"/>
<polygon fill="black" stroke="black" points="444.16,-108.22 452.51,-101.69 441.92,-101.59 444.16,-108.22"/>
</g>
<!-- aws&#45;c&#45;http&#45;&gt;aws&#45;c&#45;mqtt -->
<g id="edge21" class="edge">
<title>aws&#45;c&#45;http&#45;&gt;aws&#45;c&#45;mqtt</title>
<path fill="none" stroke="black" d="M148.94,-287.59C153.03,-263.4 160.47,-219.36 165.33,-190.65"/>
<polygon fill="black" stroke="black" points="168.89,-191.55 167.11,-181.11 161.99,-190.39 168.89,-191.55"/>
</g>
<!-- aws&#45;c&#45;http&#45;&gt;aws&#45;c&#45;auth -->
<g id="edge22" class="edge">
<title>aws&#45;c&#45;http&#45;&gt;aws&#45;c&#45;auth</title>
<path fill="none" stroke="black" d="M187.24,-292C223.53,-280.55 276.56,-263.83 315.81,-251.46"/>
<polygon fill="black" stroke="black" points="316.75,-254.52 325.23,-248.17 314.64,-247.84 316.75,-254.52"/>
</g>
<!-- aws&#45;c&#45;mqtt&#45;&gt;aws&#45;crt&#45;cpp -->
<g id="edge23" class="edge">
<title>aws&#45;c&#45;mqtt&#45;&gt;aws&#45;crt&#45;cpp</title>
<path fill="none" stroke="black" d="M199.3,-145.46C217.96,-135.57 242.38,-122.62 262.72,-111.83"/>
<polygon fill="black" stroke="black" points="264.14,-114.51 271.33,-106.73 260.86,-108.33 264.14,-114.51"/>
</g>
<!-- aws&#45;c&#45;mqtt&#45;&gt;awscrt -->
<g id="edge24" class="edge">
<title>aws&#45;c&#45;mqtt&#45;&gt;awscrt</title>
<path fill="none" stroke="black" d="M220.39,-149.91C280.24,-136.73 379.41,-114.9 438.75,-101.84"/>
<polygon fill="black" stroke="black" points="439.34,-105.08 448.35,-99.51 437.83,-98.24 439.34,-105.08"/>
</g>
<!-- aws&#45;c&#45;auth&#45;&gt;aws&#45;crt&#45;cpp -->
<g id="edge25" class="edge">
<title>aws&#45;c&#45;auth&#45;&gt;aws&#45;crt&#45;cpp</title>
<path fill="none" stroke="black" d="M351.66,-216.1C342.94,-206.26 332.66,-193.21 326,-180 316.33,-160.8 310.2,-137.24 306.55,-119.19"/>
<polygon fill="black" stroke="black" points="309.83,-118.67 304.55,-109.48 302.95,-119.95 309.83,-118.67"/>
</g>
<!-- aws&#45;c&#45;auth&#45;&gt;aws&#45;c&#45;s3 -->
<g id="edge26" class="edge">
<title>aws&#45;c&#45;auth&#45;&gt;aws&#45;c&#45;s3</title>
<path fill="none" stroke="black" d="M381.07,-216.05C387.51,-207.71 395.39,-197.49 402.52,-188.25"/>
<polygon fill="black" stroke="black" points="405.71,-190.84 409.05,-180.79 400.17,-186.57 405.71,-190.84"/>
</g>
<!-- aws&#45;c&#45;auth&#45;&gt;awscrt -->
<g id="edge27" class="edge">
<title>aws&#45;c&#45;auth&#45;&gt;awscrt</title>
<path fill="none" stroke="black" d="M360.12,-215.67C352.69,-196.48 344.65,-165.41 359,-144 375.9,-118.79 407.18,-105.56 434.71,-98.62"/>
<polygon fill="black" stroke="black" points="435.46,-101.81 444.43,-96.18 433.9,-94.99 435.46,-101.81"/>
</g>
<!-- aws&#45;c&#45;cal -->
<g id="node11" class="node">
<title>aws&#45;c&#45;cal</title>
<g id="a_node11"><a xlink:href="https://github.com/conda-forge/aws-c-cal-feedstock" xlink:title="aws c cal">
<ellipse fill="#35b779" stroke="black" cx="411" cy="-450" rx="56.47" ry="18"/>
<text text-anchor="middle" x="411" y="-445.32" font-family="Times,serif" font-size="14.00">aws c cal</text>
</a>
</g>
</g>
<!-- aws&#45;c&#45;cal&#45;&gt;aws&#45;crt&#45;cpp -->
<g id="edge28" class="edge">
<title>aws&#45;c&#45;cal&#45;&gt;aws&#45;crt&#45;cpp</title>
<path fill="none" stroke="black" d="M355.12,-446.96C265.69,-442.71 95.52,-430.25 47,-396 10.46,-370.2 0,-351.73 0,-307 0,-307 0,-307 0,-233 0,-187.41 14.14,-170.83 51,-144 78.95,-123.65 165.33,-108.49 228.98,-99.71"/>
<polygon fill="black" stroke="black" points="229.34,-103.06 238.78,-98.25 228.4,-96.12 229.34,-103.06"/>
</g>
<!-- aws&#45;c&#45;cal&#45;&gt;aws&#45;c&#45;s3 -->
<g id="edge29" class="edge">
<title>aws&#45;c&#45;cal&#45;&gt;aws&#45;c&#45;s3</title>
<path fill="none" stroke="black" d="M449.03,-436.24C467.9,-427.86 489.14,-414.89 501,-396 518.08,-368.81 505.67,-356.08 507,-324 509.04,-274.87 510.3,-256.9 483,-216 475.27,-204.42 464.37,-193.86 453.92,-185.26"/>
<polygon fill="black" stroke="black" points="456.35,-181.94 446.32,-178.52 452.03,-187.45 456.35,-181.94"/>
</g>
<!-- aws&#45;c&#45;cal&#45;&gt;awscrt -->
<g id="edge30" class="edge">
<title>aws&#45;c&#45;cal&#45;&gt;awscrt</title>
<path fill="none" stroke="black" d="M464,-443.34C581.58,-429.31 854,-388.07 854,-307 854,-307 854,-307 854,-233 854,-189.63 848.4,-170.41 814,-144 772.58,-112.2 625.09,-98.82 543.42,-93.75"/>
<polygon fill="black" stroke="black" points="543.79,-90.2 533.6,-93.1 543.37,-97.19 543.79,-90.2"/>
</g>
<!-- aws&#45;c&#45;cal&#45;&gt;aws&#45;c&#45;io -->
<g id="edge31" class="edge">
<title>aws&#45;c&#45;cal&#45;&gt;aws&#45;c&#45;io</title>
<path fill="none" stroke="black" d="M418.42,-431.7C421.72,-423.98 425.69,-414.71 429.38,-406.11"/>
<polygon fill="black" stroke="black" points="432.95,-407.67 433.67,-397.1 426.51,-404.92 432.95,-407.67"/>
</g>
<!-- aws&#45;c&#45;cal&#45;&gt;aws&#45;c&#45;http -->
<g id="edge32" class="edge">
<title>aws&#45;c&#45;cal&#45;&gt;aws&#45;c&#45;http</title>
<path fill="none" stroke="black" d="M354.17,-449.1C264.05,-447.9 94.67,-439.73 57,-396 46.56,-383.88 49.09,-373.91 57,-360 65.76,-344.59 80.96,-333.19 96.35,-325"/>
<polygon fill="black" stroke="black" points="97.47,-327.86 104.9,-320.31 94.38,-321.58 97.47,-327.86"/>
</g>
<!-- aws&#45;c&#45;cal&#45;&gt;aws&#45;c&#45;auth -->
<g id="edge33" class="edge">
<title>aws&#45;c&#45;cal&#45;&gt;aws&#45;c&#45;auth</title>
<path fill="none" stroke="black" d="M388.04,-433.18C359.68,-412.1 312.89,-371.83 294,-324 288.12,-309.12 286.69,-302.23 294,-288 300.97,-274.43 313.21,-263.55 325.76,-255.27"/>
<polygon fill="black" stroke="black" points="327.17,-257.9 333.87,-249.7 323.52,-251.93 327.17,-257.9"/>
</g>
<!-- aws&#45;c&#45;compression -->
<g id="node12" class="node">
<title>aws&#45;c&#45;compression</title>
<g id="a_node12"><a xlink:href="https://github.com/conda-forge/aws-c-compression-feedstock" xlink:title="aws c compression">
<ellipse fill="#35b779" stroke="black" cx="171" cy="-378" rx="105.4" ry="18"/>
<text text-anchor="middle" x="171" y="-373.32" font-family="Times,serif" font-size="14.00">aws c compression</text>
</a>
</g>
</g>
<!-- aws&#45;c&#45;compression&#45;&gt;aws&#45;c&#45;http -->
<g id="edge34" class="edge">
<title>aws&#45;c&#45;compression&#45;&gt;aws&#45;c&#45;http</title>
<path fill="none" stroke="black" d="M164.82,-359.7C162.1,-352.07 158.83,-342.92 155.78,-334.4"/>
<polygon fill="black" stroke="black" points="158.77,-333.34 152.11,-325.1 152.18,-335.7 158.77,-333.34"/>
</g>
<!-- aws&#45;c&#45;sdkutils -->
<g id="node13" class="node">
<title>aws&#45;c&#45;sdkutils</title>
<g id="a_node13"><a xlink:href="https://github.com/conda-forge/aws-c-sdkutils-feedstock" xlink:title="aws c sdkutils">
<ellipse fill="#35b779" stroke="black" cx="385" cy="-306" rx="81.72" ry="18"/>
<text text-anchor="middle" x="385" y="-301.32" font-family="Times,serif" font-size="14.00">aws c sdkutils</text>
</a>
</g>
</g>
<!-- aws&#45;c&#45;sdkutils&#45;&gt;aws&#45;c&#45;auth -->
<g id="edge35" class="edge">
<title>aws&#45;c&#45;sdkutils&#45;&gt;aws&#45;c&#45;auth</title>
<path fill="none" stroke="black" d="M380.8,-287.7C378.97,-280.15 376.77,-271.12 374.72,-262.68"/>
<polygon fill="black" stroke="black" points="377.92,-262 372.15,-253.1 371.11,-263.65 377.92,-262"/>
</g>
</g>
</svg>
