<?xml version="1.0" encoding="UTF-8" standalone="no"?>
<!DOCTYPE svg PUBLIC "-//W3C//DTD SVG 1.1//EN"
 "http://www.w3.org/Graphics/SVG/1.1/DTD/svg11.dtd">
<!-- Generated by graphviz version 2.49.1 (20211004.0028)
 -->
<!-- Pages: 1 -->
<svg width="283pt" height="260pt"
 viewBox="0.00 0.00 283.11 260.00" xmlns="http://www.w3.org/2000/svg" xmlns:xlink="http://www.w3.org/1999/xlink">
<g id="graph0" class="graph" transform="scale(1 1) rotate(0) translate(4 256)">
<polygon fill="white" stroke="transparent" points="-4,4 -4,-256 279.11,-256 279.11,4 -4,4"/>
<!-- aws&#45;sdk&#45;cpp -->
<g id="node1" class="node">
<title>aws&#45;sdk&#45;cpp</title>
<g id="a_node1"><a xlink:href="https://github.com/conda-forge/aws-sdk-cpp-feedstock" xlink:title="aws sdk cpp">
<ellipse fill="#fde725" stroke="black" cx="67.59" cy="-18" rx="67.69" ry="18"/>
<text text-anchor="middle" x="67.59" y="-14.3" font-family="Times,serif" font-size="14.00">aws sdk cpp</text>
</a>
</g>
</g>
<!-- aws&#45;c&#45;mqtt -->
<g id="node2" class="node">
<title>aws&#45;c&#45;mqtt</title>
<g id="a_node2"><a xlink:href="https://github.com/conda-forge/aws-c-mqtt-feedstock" xlink:title="aws c mqtt">
<ellipse fill="#35b779" stroke="black" cx="197.59" cy="-162" rx="61.99" ry="18"/>
<text text-anchor="middle" x="197.59" y="-158.3" font-family="Times,serif" font-size="14.00">aws c mqtt</text>
</a>
</g>
</g>
<!-- aws&#45;crt&#45;cpp -->
<g id="node4" class="node">
<title>aws&#45;crt&#45;cpp</title>
<g id="a_node4"><a xlink:href="https://github.com/conda-forge/aws-crt-cpp-feedstock" xlink:title="aws crt cpp">
<ellipse fill="#fde725" stroke="black" cx="67.59" cy="-90" rx="64.19" ry="18"/>
<text text-anchor="middle" x="67.59" y="-86.3" font-family="Times,serif" font-size="14.00">aws crt cpp</text>
</a>
</g>
</g>
<!-- aws&#45;c&#45;mqtt&#45;&gt;aws&#45;crt&#45;cpp -->
<g id="edge1" class="edge">
<title>aws&#45;c&#45;mqtt&#45;&gt;aws&#45;crt&#45;cpp</title>
<path fill="none" stroke="black" d="M169.39,-145.81C150.61,-135.7 125.72,-122.3 105.25,-111.28"/>
<polygon fill="black" stroke="black" points="106.66,-108.06 96.2,-106.4 103.34,-114.22 106.66,-108.06"/>
</g>
<!-- awscrt -->
<g id="node6" class="node">
<title>awscrt</title>
<g id="a_node6"><a xlink:href="https://github.com/conda-forge/awscrt-feedstock" xlink:title="awscrt">
<ellipse fill="#fde725" stroke="black" cx="197.59" cy="-90" rx="42.49" ry="18"/>
<text text-anchor="middle" x="197.59" y="-86.3" font-family="Times,serif" font-size="14.00">awscrt</text>
</a>
</g>
</g>
<!-- aws&#45;c&#45;mqtt&#45;&gt;awscrt -->
<g id="edge2" class="edge">
<title>aws&#45;c&#45;mqtt&#45;&gt;awscrt</title>
<path fill="none" stroke="black" d="M197.59,-143.7C197.59,-135.98 197.59,-126.71 197.59,-118.11"/>
<polygon fill="black" stroke="black" points="201.09,-118.1 197.59,-108.1 194.09,-118.1 201.09,-118.1"/>
</g>
<!-- aws&#45;c&#45;auth -->
<g id="node3" class="node">
<title>aws&#45;c&#45;auth</title>
<g id="a_node3"><a xlink:href="https://github.com/conda-forge/aws-c-auth-feedstock" xlink:title="aws c auth">
<ellipse fill="#35b779" stroke="black" cx="67.59" cy="-234" rx="60.39" ry="18"/>
<text text-anchor="middle" x="67.59" y="-230.3" font-family="Times,serif" font-size="14.00">aws c auth</text>
</a>
</g>
</g>
<!-- aws&#45;c&#45;auth&#45;&gt;aws&#45;crt&#45;cpp -->
<g id="edge4" class="edge">
<title>aws&#45;c&#45;auth&#45;&gt;aws&#45;crt&#45;cpp</title>
<path fill="none" stroke="black" d="M41.95,-217.47C29.38,-208.31 15.49,-195.47 8.59,-180 2.08,-165.39 2.08,-158.61 8.59,-144 14.04,-131.8 23.83,-121.23 33.9,-112.81"/>
<polygon fill="black" stroke="black" points="36.22,-115.44 41.95,-106.53 31.91,-109.92 36.22,-115.44"/>
</g>
<!-- aws&#45;c&#45;s3 -->
<g id="node5" class="node">
<title>aws&#45;c&#45;s3</title>
<g id="a_node5"><a xlink:href="https://github.com/conda-forge/aws-c-s3-feedstock" xlink:title="aws c s3">
<ellipse fill="#fde725" stroke="black" cx="67.59" cy="-162" rx="50.09" ry="18"/>
<text text-anchor="middle" x="67.59" y="-158.3" font-family="Times,serif" font-size="14.00">aws c s3</text>
</a>
</g>
</g>
<!-- aws&#45;c&#45;auth&#45;&gt;aws&#45;c&#45;s3 -->
<g id="edge3" class="edge">
<title>aws&#45;c&#45;auth&#45;&gt;aws&#45;c&#45;s3</title>
<path fill="none" stroke="black" d="M67.59,-215.7C67.59,-207.98 67.59,-198.71 67.59,-190.11"/>
<polygon fill="black" stroke="black" points="71.09,-190.1 67.59,-180.1 64.09,-190.1 71.09,-190.1"/>
</g>
<!-- aws&#45;c&#45;auth&#45;&gt;awscrt -->
<g id="edge5" class="edge">
<title>aws&#45;c&#45;auth&#45;&gt;awscrt</title>
<path fill="none" stroke="black" d="M122.27,-226.1C175.47,-218.14 250.81,-203.08 268.59,-180 278.36,-167.33 275.77,-158.3 268.59,-144 261.19,-129.22 247.49,-117.51 234.08,-108.9"/>
<polygon fill="black" stroke="black" points="235.76,-105.83 225.39,-103.68 232.16,-111.83 235.76,-105.83"/>
</g>
<!-- aws&#45;crt&#45;cpp&#45;&gt;aws&#45;sdk&#45;cpp -->
<g id="edge6" class="edge">
<title>aws&#45;crt&#45;cpp&#45;&gt;aws&#45;sdk&#45;cpp</title>
<path fill="none" stroke="black" d="M67.59,-71.7C67.59,-63.98 67.59,-54.71 67.59,-46.11"/>
<polygon fill="black" stroke="black" points="71.09,-46.1 67.59,-36.1 64.09,-46.1 71.09,-46.1"/>
</g>
<!-- aws&#45;c&#45;s3&#45;&gt;aws&#45;crt&#45;cpp -->
<g id="edge7" class="edge">
<title>aws&#45;c&#45;s3&#45;&gt;aws&#45;crt&#45;cpp</title>
<path fill="none" stroke="black" d="M67.59,-143.7C67.59,-135.98 67.59,-126.71 67.59,-118.11"/>
<polygon fill="black" stroke="black" points="71.09,-118.1 67.59,-108.1 64.09,-118.1 71.09,-118.1"/>
</g>
<!-- aws&#45;c&#45;s3&#45;&gt;awscrt -->
<g id="edge8" class="edge">
<title>aws&#45;c&#45;s3&#45;&gt;awscrt</title>
<path fill="none" stroke="black" d="M94.22,-146.67C114.23,-135.89 141.82,-121.03 163.46,-109.38"/>
<polygon fill="black" stroke="black" points="165.19,-112.42 172.33,-104.6 161.87,-106.26 165.19,-112.42"/>
</g>
</g>
</svg>
