<?xml version="1.0" encoding="UTF-8" standalone="no"?>
<!DOCTYPE svg PUBLIC "-//W3C//DTD SVG 1.1//EN"
 "http://www.w3.org/Graphics/SVG/1.1/DTD/svg11.dtd">
<!-- Generated by graphviz version 8.0.3 (20230418.1244)
 -->
<!-- Pages: 1 -->
<svg width="570pt" height="404pt"
 viewBox="0.00 0.00 570.48 404.00" xmlns="http://www.w3.org/2000/svg" xmlns:xlink="http://www.w3.org/1999/xlink">
<g id="graph0" class="graph" transform="scale(1 1) rotate(0) translate(4 400)">
<polygon fill="white" stroke="none" points="-4,4 -4,-400 566.48,-400 566.48,4 -4,4"/>
<!-- aws&#45;sdk&#45;cpp -->
<g id="node1" class="node">
<title>aws&#45;sdk&#45;cpp</title>
<g id="a_node1"><a xlink:href="https://github.com/conda-forge/aws-sdk-cpp-feedstock" xlink:title="aws sdk cpp">
<ellipse fill="#fde725" stroke="black" cx="179.09" cy="-18" rx="67.69" ry="18"/>
<text text-anchor="middle" x="179.09" y="-14.3" font-family="Times,serif" font-size="14.00">aws sdk cpp</text>
</a>
</g>
</g>
<!-- aws&#45;c&#45;event&#45;stream -->
<g id="node2" class="node">
<title>aws&#45;c&#45;event&#45;stream</title>
<g id="a_node2"><a xlink:href="https://github.com/conda-forge/aws-c-event-stream-feedstock" xlink:title="aws c event stream">
<ellipse fill="#fde725" stroke="black" cx="115.09" cy="-162" rx="100.98" ry="18"/>
<text text-anchor="middle" x="115.09" y="-158.3" font-family="Times,serif" font-size="14.00">aws c event stream</text>
</a>
</g>
</g>
<!-- aws&#45;c&#45;event&#45;stream&#45;&gt;aws&#45;sdk&#45;cpp -->
<g id="edge1" class="edge">
<title>aws&#45;c&#45;event&#45;stream&#45;&gt;aws&#45;sdk&#45;cpp</title>
<path fill="none" stroke="black" d="M122.94,-143.59C133.94,-119.18 154.04,-74.58 166.97,-45.89"/>
<polygon fill="black" stroke="black" points="170.46,-47.67 171.38,-37.11 164.08,-44.79 170.46,-47.67"/>
</g>
<!-- aws&#45;crt&#45;cpp -->
<g id="node3" class="node">
<title>aws&#45;crt&#45;cpp</title>
<g id="a_node3"><a xlink:href="https://github.com/conda-forge/aws-crt-cpp-feedstock" xlink:title="aws crt cpp">
<ellipse fill="#fde725" stroke="black" cx="244.09" cy="-90" rx="64.5" ry="18"/>
<text text-anchor="middle" x="244.09" y="-86.3" font-family="Times,serif" font-size="14.00">aws crt cpp</text>
</a>
</g>
</g>
<!-- aws&#45;c&#45;event&#45;stream&#45;&gt;aws&#45;crt&#45;cpp -->
<g id="edge2" class="edge">
<title>aws&#45;c&#45;event&#45;stream&#45;&gt;aws&#45;crt&#45;cpp</title>
<path fill="none" stroke="black" d="M145.66,-144.41C163.68,-134.63 186.64,-122.18 205.85,-111.75"/>
<polygon fill="black" stroke="black" points="207.38,-114.36 214.5,-106.51 204.05,-108.2 207.38,-114.36"/>
</g>
<!-- awscrt -->
<g id="node4" class="node">
<title>awscrt</title>
<g id="a_node4"><a xlink:href="https://github.com/conda-forge/awscrt-feedstock" xlink:title="awscrt">
<ellipse fill="#fde725" stroke="black" cx="456.09" cy="-90" rx="42.49" ry="18"/>
<text text-anchor="middle" x="456.09" y="-86.3" font-family="Times,serif" font-size="14.00">awscrt</text>
</a>
</g>
</g>
<!-- aws&#45;c&#45;event&#45;stream&#45;&gt;awscrt -->
<g id="edge3" class="edge">
<title>aws&#45;c&#45;event&#45;stream&#45;&gt;awscrt</title>
<path fill="none" stroke="black" d="M179.63,-147.75C245.98,-134.13 347.79,-113.23 407.58,-100.96"/>
<polygon fill="black" stroke="black" points="408.14,-104.21 417.24,-98.77 406.74,-97.35 408.14,-104.21"/>
</g>
<!-- aws&#45;crt&#45;cpp&#45;&gt;aws&#45;sdk&#45;cpp -->
<g id="edge4" class="edge">
<title>aws&#45;crt&#45;cpp&#45;&gt;aws&#45;sdk&#45;cpp</title>
<path fill="none" stroke="black" d="M228.35,-72.05C220.45,-63.54 210.72,-53.07 202.01,-43.68"/>
<polygon fill="black" stroke="black" points="205.05,-41.74 195.68,-36.79 199.92,-46.5 205.05,-41.74"/>
</g>
<!-- aws&#45;c&#45;io -->
<g id="node5" class="node">
<title>aws&#45;c&#45;io</title>
<g id="a_node5"><a xlink:href="https://github.com/conda-forge/aws-c-io-feedstock" xlink:title="aws c io">
<ellipse fill="#35b779" stroke="black" cx="304.09" cy="-378" rx="48.19" ry="18"/>
<text text-anchor="middle" x="304.09" y="-374.3" font-family="Times,serif" font-size="14.00">aws c io</text>
</a>
</g>
</g>
<!-- aws&#45;c&#45;io&#45;&gt;aws&#45;c&#45;event&#45;stream -->
<g id="edge5" class="edge">
<title>aws&#45;c&#45;io&#45;&gt;aws&#45;c&#45;event&#45;stream</title>
<path fill="none" stroke="black" d="M272.04,-364.13C231,-345.82 161.12,-308.14 127.09,-252 116.1,-233.87 113.4,-209.88 113.28,-191.38"/>
<polygon fill="black" stroke="black" points="116.8,-191.47 113.5,-181.4 109.8,-191.33 116.8,-191.47"/>
</g>
<!-- aws&#45;c&#45;io&#45;&gt;aws&#45;crt&#45;cpp -->
<g id="edge6" class="edge">
<title>aws&#45;c&#45;io&#45;&gt;aws&#45;crt&#45;cpp</title>
<path fill="none" stroke="black" d="M263.77,-367.64C232.56,-359.25 189.07,-345 155.09,-324 76.47,-275.43 41.32,-265.01 5.09,-180 -24.11,-111.49 88.23,-94.59 168.73,-91.05"/>
<polygon fill="black" stroke="black" points="168.5,-94.52 178.36,-90.65 168.24,-87.53 168.5,-94.52"/>
</g>
<!-- aws&#45;c&#45;io&#45;&gt;awscrt -->
<g id="edge7" class="edge">
<title>aws&#45;c&#45;io&#45;&gt;awscrt</title>
<path fill="none" stroke="black" d="M349.38,-371.4C411.41,-360.85 518.88,-331.4 552.09,-252 570.87,-207.11 561.94,-183.9 534.09,-144 523.94,-129.46 508.42,-117.74 493.89,-109.06"/>
<polygon fill="black" stroke="black" points="495.98,-105.65 485.55,-103.79 492.54,-111.75 495.98,-105.65"/>
</g>
<!-- aws&#45;c&#45;http -->
<g id="node6" class="node">
<title>aws&#45;c&#45;http</title>
<g id="a_node6"><a xlink:href="https://github.com/conda-forge/aws-c-http-feedstock" xlink:title="aws c http">
<ellipse fill="#fde725" stroke="black" cx="391.09" cy="-306" rx="59.29" ry="18"/>
<text text-anchor="middle" x="391.09" y="-302.3" font-family="Times,serif" font-size="14.00">aws c http</text>
</a>
</g>
</g>
<!-- aws&#45;c&#45;io&#45;&gt;aws&#45;c&#45;http -->
<g id="edge8" class="edge">
<title>aws&#45;c&#45;io&#45;&gt;aws&#45;c&#45;http</title>
<path fill="none" stroke="black" d="M323.83,-361.12C335.24,-351.94 349.78,-340.23 362.43,-330.06"/>
<polygon fill="black" stroke="black" points="364.22,-332.3 369.82,-323.31 359.84,-326.85 364.22,-332.3"/>
</g>
<!-- aws&#45;c&#45;mqtt -->
<g id="node7" class="node">
<title>aws&#45;c&#45;mqtt</title>
<g id="a_node7"><a xlink:href="https://github.com/conda-forge/aws-c-mqtt-feedstock" xlink:title="aws c mqtt">
<ellipse fill="#fde725" stroke="black" cx="198.09" cy="-234" rx="61.99" ry="18"/>
<text text-anchor="middle" x="198.09" y="-230.3" font-family="Times,serif" font-size="14.00">aws c mqtt</text>
</a>
</g>
</g>
<!-- aws&#45;c&#45;io&#45;&gt;aws&#45;c&#45;mqtt -->
<g id="edge9" class="edge">
<title>aws&#45;c&#45;io&#45;&gt;aws&#45;c&#45;mqtt</title>
<path fill="none" stroke="black" d="M291.51,-360.15C273.1,-335.49 238.68,-289.37 217.15,-260.53"/>
<polygon fill="black" stroke="black" points="219.43,-258.74 210.65,-252.82 213.83,-262.93 219.43,-258.74"/>
</g>
<!-- aws&#45;c&#45;auth -->
<g id="node8" class="node">
<title>aws&#45;c&#45;auth</title>
<g id="a_node8"><a xlink:href="https://github.com/conda-forge/aws-c-auth-feedstock" xlink:title="aws c auth">
<ellipse fill="#fde725" stroke="black" cx="463.09" cy="-234" rx="60.5" ry="18"/>
<text text-anchor="middle" x="463.09" y="-230.3" font-family="Times,serif" font-size="14.00">aws c auth</text>
</a>
</g>
</g>
<!-- aws&#45;c&#45;io&#45;&gt;aws&#45;c&#45;auth -->
<g id="edge10" class="edge">
<title>aws&#45;c&#45;io&#45;&gt;aws&#45;c&#45;auth</title>
<path fill="none" stroke="black" d="M351.56,-374.46C387.28,-369.79 434.19,-357.23 459.09,-324 471.98,-306.8 472.05,-282.05 469.43,-263.02"/>
<polygon fill="black" stroke="black" points="472.73,-262.56 467.59,-253.3 465.83,-263.74 472.73,-262.56"/>
</g>
<!-- aws&#45;c&#45;s3 -->
<g id="node9" class="node">
<title>aws&#45;c&#45;s3</title>
<g id="a_node9"><a xlink:href="https://github.com/conda-forge/aws-c-s3-feedstock" xlink:title="aws c s3">
<ellipse fill="#fde725" stroke="black" cx="398.09" cy="-162" rx="50.09" ry="18"/>
<text text-anchor="middle" x="398.09" y="-158.3" font-family="Times,serif" font-size="14.00">aws c s3</text>
</a>
</g>
</g>
<!-- aws&#45;c&#45;io&#45;&gt;aws&#45;c&#45;s3 -->
<g id="edge11" class="edge">
<title>aws&#45;c&#45;io&#45;&gt;aws&#45;c&#45;s3</title>
<path fill="none" stroke="black" d="M306.05,-359.78C308.53,-341.49 313.65,-311.96 323.09,-288 337.5,-251.42 362.05,-213.19 379.12,-188.8"/>
<polygon fill="black" stroke="black" points="382.54,-191.03 385.48,-180.85 376.83,-186.97 382.54,-191.03"/>
</g>
<!-- aws&#45;c&#45;http&#45;&gt;aws&#45;crt&#45;cpp -->
<g id="edge12" class="edge">
<title>aws&#45;c&#45;http&#45;&gt;aws&#45;crt&#45;cpp</title>
<path fill="none" stroke="black" d="M379.55,-288.21C354.02,-251.03 292.55,-161.55 261.98,-117.04"/>
<polygon fill="black" stroke="black" points="264.32,-115.27 255.77,-109.01 258.55,-119.23 264.32,-115.27"/>
</g>
<!-- aws&#45;c&#45;http&#45;&gt;awscrt -->
<g id="edge13" class="edge">
<title>aws&#45;c&#45;http&#45;&gt;awscrt</title>
<path fill="none" stroke="black" d="M446.61,-299.47C477.55,-293.23 513.66,-279.99 533.09,-252 564.66,-206.52 514.65,-146.1 481.56,-113.75"/>
<polygon fill="black" stroke="black" points="484.63,-111.89 474.98,-107.53 479.81,-116.96 484.63,-111.89"/>
</g>
<!-- aws&#45;c&#45;http&#45;&gt;aws&#45;c&#45;mqtt -->
<g id="edge14" class="edge">
<title>aws&#45;c&#45;http&#45;&gt;aws&#45;c&#45;mqtt</title>
<path fill="none" stroke="black" d="M354.33,-291.67C323.51,-280.49 279.27,-264.45 245.73,-252.28"/>
<polygon fill="black" stroke="black" points="247.29,-248.76 236.7,-248.64 244.9,-255.34 247.29,-248.76"/>
</g>
<!-- aws&#45;c&#45;http&#45;&gt;aws&#45;c&#45;auth -->
<g id="edge15" class="edge">
<title>aws&#45;c&#45;http&#45;&gt;aws&#45;c&#45;auth</title>
<path fill="none" stroke="black" d="M408.15,-288.41C417.21,-279.61 428.5,-268.63 438.49,-258.92"/>
<polygon fill="black" stroke="black" points="440.42,-261.95 445.15,-252.47 435.54,-256.93 440.42,-261.95"/>
</g>
<!-- aws&#45;c&#45;http&#45;&gt;aws&#45;c&#45;s3 -->
<g id="edge16" class="edge">
<title>aws&#45;c&#45;http&#45;&gt;aws&#45;c&#45;s3</title>
<path fill="none" stroke="black" d="M391.11,-287.59C391.22,-269.64 391.64,-240.84 393.09,-216 393.56,-207.85 394.31,-199.01 395.08,-190.93"/>
<polygon fill="black" stroke="black" points="398.64,-191.46 396.16,-181.16 391.68,-190.76 398.64,-191.46"/>
</g>
<!-- aws&#45;c&#45;mqtt&#45;&gt;aws&#45;crt&#45;cpp -->
<g id="edge17" class="edge">
<title>aws&#45;c&#45;mqtt&#45;&gt;aws&#45;crt&#45;cpp</title>
<path fill="none" stroke="black" d="M208.28,-215.84C213.92,-205.71 220.67,-192.46 225.09,-180 232.11,-160.21 236.96,-136.98 240,-119.22"/>
<polygon fill="black" stroke="black" points="243.6,-119.86 241.74,-109.43 236.69,-118.74 243.6,-119.86"/>
</g>
<!-- aws&#45;c&#45;mqtt&#45;&gt;awscrt -->
<g id="edge18" class="edge">
<title>aws&#45;c&#45;mqtt&#45;&gt;awscrt</title>
<path fill="none" stroke="black" d="M221.44,-216.86C248.93,-198.19 296.27,-167.07 339.09,-144 364.11,-130.52 393.23,-117.32 416.15,-107.47"/>
<polygon fill="black" stroke="black" points="417.38,-110.32 425.21,-103.19 414.64,-103.88 417.38,-110.32"/>
</g>
<!-- aws&#45;c&#45;auth&#45;&gt;aws&#45;crt&#45;cpp -->
<g id="edge19" class="edge">
<title>aws&#45;c&#45;auth&#45;&gt;aws&#45;crt&#45;cpp</title>
<path fill="none" stroke="black" d="M467.37,-215.75C471.16,-196.04 473.79,-163.95 457.09,-144 438.68,-122.02 368.33,-107.57 313.45,-99.39"/>
<polygon fill="black" stroke="black" points="314.1,-95.8 303.7,-97.84 313.1,-102.73 314.1,-95.8"/>
</g>
<!-- aws&#45;c&#45;auth&#45;&gt;awscrt -->
<g id="edge20" class="edge">
<title>aws&#45;c&#45;auth&#45;&gt;awscrt</title>
<path fill="none" stroke="black" d="M474.27,-216.14C480.25,-206.1 487,-192.85 490.09,-180 493.82,-164.44 494.59,-159.35 490.09,-144 487.23,-134.24 481.96,-124.58 476.41,-116.23"/>
<polygon fill="black" stroke="black" points="478.79,-114.54 470.14,-108.43 473.09,-118.6 478.79,-114.54"/>
</g>
<!-- aws&#45;c&#45;auth&#45;&gt;aws&#45;c&#45;s3 -->
<g id="edge21" class="edge">
<title>aws&#45;c&#45;auth&#45;&gt;aws&#45;c&#45;s3</title>
<path fill="none" stroke="black" d="M447.68,-216.41C439.67,-207.78 429.72,-197.06 420.84,-187.5"/>
<polygon fill="black" stroke="black" points="423.75,-185.42 414.38,-180.47 418.62,-190.18 423.75,-185.42"/>
</g>
<!-- aws&#45;c&#45;s3&#45;&gt;aws&#45;crt&#45;cpp -->
<g id="edge22" class="edge">
<title>aws&#45;c&#45;s3&#45;&gt;aws&#45;crt&#45;cpp</title>
<path fill="none" stroke="black" d="M368.03,-147.34C344.85,-136.8 312.49,-122.09 286.64,-110.34"/>
<polygon fill="black" stroke="black" points="288.29,-106.79 277.73,-105.84 285.39,-113.16 288.29,-106.79"/>
</g>
<!-- aws&#45;c&#45;s3&#45;&gt;awscrt -->
<g id="edge23" class="edge">
<title>aws&#45;c&#45;s3&#45;&gt;awscrt</title>
<path fill="none" stroke="black" d="M411.83,-144.41C418.91,-135.87 427.69,-125.28 435.55,-115.79"/>
<polygon fill="black" stroke="black" points="438.76,-118.4 442.44,-108.47 433.37,-113.94 438.76,-118.4"/>
</g>
</g>
</svg>
