<?xml version="1.0" encoding="UTF-8" standalone="no"?>
<!DOCTYPE svg PUBLIC "-//W3C//DTD SVG 1.1//EN"
 "http://www.w3.org/Graphics/SVG/1.1/DTD/svg11.dtd">
<!-- Generated by graphviz version 8.0.5 (20230506.1012)
 -->
<!-- Pages: 1 -->
<svg width="262pt" height="188pt"
 viewBox="0.00 0.00 261.99 188.00" xmlns="http://www.w3.org/2000/svg" xmlns:xlink="http://www.w3.org/1999/xlink">
<g id="graph0" class="graph" transform="scale(1 1) rotate(0) translate(4 184)">
<polygon fill="white" stroke="none" points="-4,4 -4,-184 257.99,-184 257.99,4 -4,4"/>
<!-- aws&#45;c&#45;auth -->
<g id="node1" class="node">
<title>aws&#45;c&#45;auth</title>
<g id="a_node1"><a xlink:href="https://github.com/conda-forge/aws-c-auth-feedstock/pull/164" xlink:title="aws c auth ❎">
<ellipse fill="#31688e" stroke="black" cx="135.1" cy="-162" rx="80.14" ry="18"/>
<text text-anchor="middle" x="135.1" y="-157.32" font-family="Times,serif" font-size="14.00" fill="white">aws c auth ❎</text>
</a>
</g>
</g>
<!-- aws&#45;crt&#45;cpp -->
<g id="node2" class="node">
<title>aws&#45;crt&#45;cpp</title>
<g id="a_node2"><a xlink:href="https://github.com/conda-forge/aws-crt-cpp-feedstock" xlink:title="aws crt cpp">
<ellipse fill="#fde725" stroke="black" cx="69.1" cy="-18" rx="69.1" ry="18"/>
<text text-anchor="middle" x="69.1" y="-13.32" font-family="Times,serif" font-size="14.00">aws crt cpp</text>
</a>
</g>
</g>
<!-- aws&#45;c&#45;auth&#45;&gt;aws&#45;crt&#45;cpp -->
<g id="edge2" class="edge">
<title>aws&#45;c&#45;auth&#45;&gt;aws&#45;crt&#45;cpp</title>
<path fill="none" stroke="black" d="M106.67,-144.85C93.67,-135.82 79.53,-123.3 72.1,-108 62.96,-89.21 62.63,-65.45 64.36,-47.2"/>
<polygon fill="black" stroke="black" points="67.95,-47.74 65.68,-37.39 61,-46.89 67.95,-47.74"/>
</g>
<!-- aws&#45;c&#45;s3 -->
<g id="node3" class="node">
<title>aws&#45;c&#45;s3</title>
<g id="a_node3"><a xlink:href="https://github.com/conda-forge/aws-c-s3-feedstock" xlink:title="aws c s3">
<ellipse fill="#fde725" stroke="black" cx="135.1" cy="-90" rx="53.84" ry="18"/>
<text text-anchor="middle" x="135.1" y="-85.33" font-family="Times,serif" font-size="14.00">aws c s3</text>
</a>
</g>
</g>
<!-- aws&#45;c&#45;auth&#45;&gt;aws&#45;c&#45;s3 -->
<g id="edge1" class="edge">
<title>aws&#45;c&#45;auth&#45;&gt;aws&#45;c&#45;s3</title>
<path fill="none" stroke="black" d="M135.1,-143.7C135.1,-136.24 135.1,-127.32 135.1,-118.97"/>
<polygon fill="black" stroke="black" points="138.6,-119.1 135.1,-109.1 131.6,-119.1 138.6,-119.1"/>
</g>
<!-- awscrt -->
<g id="node4" class="node">
<title>awscrt</title>
<g id="a_node4"><a xlink:href="https://github.com/conda-forge/awscrt-feedstock" xlink:title="awscrt">
<ellipse fill="#fde725" stroke="black" cx="209.1" cy="-18" rx="44.89" ry="18"/>
<text text-anchor="middle" x="209.1" y="-13.32" font-family="Times,serif" font-size="14.00">awscrt</text>
</a>
</g>
</g>
<!-- aws&#45;c&#45;auth&#45;&gt;awscrt -->
<g id="edge3" class="edge">
<title>aws&#45;c&#45;auth&#45;&gt;awscrt</title>
<path fill="none" stroke="black" d="M162.62,-144.78C175.56,-135.66 189.92,-123.08 198.1,-108 208.19,-89.39 210.67,-65.44 210.77,-47.07"/>
<polygon fill="black" stroke="black" points="214.25,-47.11 210.56,-37.18 207.25,-47.25 214.25,-47.11"/>
</g>
<!-- aws&#45;c&#45;s3&#45;&gt;aws&#45;crt&#45;cpp -->
<g id="edge4" class="edge">
<title>aws&#45;c&#45;s3&#45;&gt;aws&#45;crt&#45;cpp</title>
<path fill="none" stroke="black" d="M119.45,-72.41C111.44,-63.91 101.5,-53.37 92.59,-43.91"/>
<polygon fill="black" stroke="black" points="95.49,-41.83 86.08,-36.96 90.4,-46.63 95.49,-41.83"/>
</g>
<!-- aws&#45;c&#45;s3&#45;&gt;awscrt -->
<g id="edge5" class="edge">
<title>aws&#45;c&#45;s3&#45;&gt;awscrt</title>
<path fill="none" stroke="black" d="M152.26,-72.76C161.85,-63.69 173.97,-52.22 184.56,-42.21"/>
<polygon fill="black" stroke="black" points="186.42,-45.32 191.28,-35.91 181.61,-40.24 186.42,-45.32"/>
</g>
</g>
</svg>
