<?xml version="1.0" encoding="UTF-8" standalone="no"?>
<!DOCTYPE svg PUBLIC "-//W3C//DTD SVG 1.1//EN"
 "http://www.w3.org/Graphics/SVG/1.1/DTD/svg11.dtd">
<!-- Generated by graphviz version 8.1.0 (20230707.2238)
 -->
<!-- Pages: 1 -->
<svg width="596pt" height="404pt"
 viewBox="0.00 0.00 596.01 404.00" xmlns="http://www.w3.org/2000/svg" xmlns:xlink="http://www.w3.org/1999/xlink">
<g id="graph0" class="graph" transform="scale(1 1) rotate(0) translate(4 400)">
<polygon fill="white" stroke="none" points="-4,4 -4,-400 592.01,-400 592.01,4 -4,4"/>
<!-- aws&#45;sdk&#45;cpp -->
<g id="node1" class="node">
<title>aws&#45;sdk&#45;cpp</title>
<g id="a_node1"><a xlink:href="https://github.com/conda-forge/aws-sdk-cpp-feedstock" xlink:title="aws sdk cpp">
<ellipse fill="#fde725" stroke="black" cx="192.42" cy="-18" rx="72.25" ry="18"/>
<text text-anchor="middle" x="192.42" y="-13.32" font-family="Times,serif" font-size="14.00">aws sdk cpp</text>
</a>
</g>
</g>
<!-- aws&#45;c&#45;event&#45;stream -->
<g id="node2" class="node">
<title>aws&#45;c&#45;event&#45;stream</title>
<g id="a_node2"><a xlink:href="https://github.com/conda-forge/aws-c-event-stream-feedstock" xlink:title="aws c event stream">
<ellipse fill="#fde725" stroke="black" cx="124.42" cy="-162" rx="108.55" ry="18"/>
<text text-anchor="middle" x="124.42" y="-157.32" font-family="Times,serif" font-size="14.00">aws c event stream</text>
</a>
</g>
</g>
<!-- aws&#45;c&#45;event&#45;stream&#45;&gt;aws&#45;sdk&#45;cpp -->
<g id="edge1" class="edge">
<title>aws&#45;c&#45;event&#45;stream&#45;&gt;aws&#45;sdk&#45;cpp</title>
<path fill="none" stroke="black" d="M132.76,-143.59C144.45,-119.18 165.81,-74.58 179.54,-45.89"/>
<polygon fill="black" stroke="black" points="183.07,-47.64 184.23,-37.11 176.75,-44.62 183.07,-47.64"/>
</g>
<!-- aws&#45;crt&#45;cpp -->
<g id="node3" class="node">
<title>aws&#45;crt&#45;cpp</title>
<g id="a_node3"><a xlink:href="https://github.com/conda-forge/aws-crt-cpp-feedstock" xlink:title="aws crt cpp">
<ellipse fill="#fde725" stroke="black" cx="261.42" cy="-90" rx="69.1" ry="18"/>
<text text-anchor="middle" x="261.42" y="-85.33" font-family="Times,serif" font-size="14.00">aws crt cpp</text>
</a>
</g>
</g>
<!-- aws&#45;c&#45;event&#45;stream&#45;&gt;aws&#45;crt&#45;cpp -->
<g id="edge2" class="edge">
<title>aws&#45;c&#45;event&#45;stream&#45;&gt;aws&#45;crt&#45;cpp</title>
<path fill="none" stroke="black" d="M156.89,-144.41C176.2,-134.54 200.86,-121.95 221.37,-111.47"/>
<polygon fill="black" stroke="black" points="222.75,-114.18 230.07,-106.51 219.57,-107.94 222.75,-114.18"/>
</g>
<!-- awscrt -->
<g id="node4" class="node">
<title>awscrt</title>
<g id="a_node4"><a xlink:href="https://github.com/conda-forge/awscrt-feedstock" xlink:title="awscrt">
<ellipse fill="#fde725" stroke="black" cx="479.42" cy="-90" rx="44.9" ry="18"/>
<text text-anchor="middle" x="479.42" y="-85.33" font-family="Times,serif" font-size="14.00">awscrt</text>
</a>
</g>
</g>
<!-- aws&#45;c&#45;event&#45;stream&#45;&gt;awscrt -->
<g id="edge3" class="edge">
<title>aws&#45;c&#45;event&#45;stream&#45;&gt;awscrt</title>
<path fill="none" stroke="black" d="M192.45,-147.59C261.58,-133.95 367.07,-113.16 429.04,-100.93"/>
<polygon fill="black" stroke="black" points="429.59,-104.2 438.72,-98.83 428.23,-97.33 429.59,-104.2"/>
</g>
<!-- aws&#45;crt&#45;cpp&#45;&gt;aws&#45;sdk&#45;cpp -->
<g id="edge4" class="edge">
<title>aws&#45;crt&#45;cpp&#45;&gt;aws&#45;sdk&#45;cpp</title>
<path fill="none" stroke="black" d="M244.72,-72.05C236.24,-63.46 225.8,-52.86 216.47,-43.4"/>
<polygon fill="black" stroke="black" points="219.48,-41.45 209.97,-36.79 214.5,-46.37 219.48,-41.45"/>
</g>
<!-- aws&#45;c&#45;io -->
<g id="node5" class="node">
<title>aws&#45;c&#45;io</title>
<g id="a_node5"><a xlink:href="https://github.com/conda-forge/aws-c-io-feedstock/pull/235" xlink:title="aws c io ❎">
<ellipse fill="#31688e" stroke="black" cx="319.42" cy="-378" rx="66.47" ry="18"/>
<text text-anchor="middle" x="319.42" y="-373.32" font-family="Times,serif" font-size="14.00" fill="white">aws c io ❎</text>
</a>
</g>
</g>
<!-- aws&#45;c&#45;io&#45;&gt;aws&#45;c&#45;event&#45;stream -->
<g id="edge5" class="edge">
<title>aws&#45;c&#45;io&#45;&gt;aws&#45;c&#45;event&#45;stream</title>
<path fill="none" stroke="black" d="M282.21,-362.68C239.38,-344.09 170.56,-307.34 136.42,-252 125.29,-233.95 122.6,-209.96 122.52,-191.44"/>
<polygon fill="black" stroke="black" points="126.04,-191.52 122.77,-181.44 119.05,-191.36 126.04,-191.52"/>
</g>
<!-- aws&#45;c&#45;io&#45;&gt;aws&#45;crt&#45;cpp -->
<g id="edge6" class="edge">
<title>aws&#45;c&#45;io&#45;&gt;aws&#45;crt&#45;cpp</title>
<path fill="none" stroke="black" d="M269.38,-365.86C237.35,-357.37 195.7,-343.74 162.42,-324 81.27,-275.85 44.27,-266.43 6.42,-180 0.01,-165.34 -3.67,-156.41 6.42,-144 28.55,-116.8 117.49,-103.1 184.14,-96.53"/>
<polygon fill="black" stroke="black" points="184.42,-99.93 194.05,-95.5 183.77,-92.96 184.42,-99.93"/>
</g>
<!-- aws&#45;c&#45;io&#45;&gt;awscrt -->
<g id="edge7" class="edge">
<title>aws&#45;c&#45;io&#45;&gt;awscrt</title>
<path fill="none" stroke="black" d="M379.47,-369.91C444.97,-358.36 544.83,-328.46 577.42,-252 596.5,-207.23 587.51,-183.74 559.42,-144 549.09,-129.38 533.33,-117.7 518.53,-109.06"/>
<polygon fill="black" stroke="black" points="520.46,-105.57 510.01,-103.82 517.08,-111.71 520.46,-105.57"/>
</g>
<!-- aws&#45;c&#45;http -->
<g id="node6" class="node">
<title>aws&#45;c&#45;http</title>
<g id="a_node6"><a xlink:href="https://github.com/conda-forge/aws-c-http-feedstock" xlink:title="aws c http">
<ellipse fill="#fde725" stroke="black" cx="410.42" cy="-306" rx="63.31" ry="18"/>
<text text-anchor="middle" x="410.42" y="-301.32" font-family="Times,serif" font-size="14.00">aws c http</text>
</a>
</g>
</g>
<!-- aws&#45;c&#45;io&#45;&gt;aws&#45;c&#45;http -->
<g id="edge8" class="edge">
<title>aws&#45;c&#45;io&#45;&gt;aws&#45;c&#45;http</title>
<path fill="none" stroke="black" d="M340.53,-360.76C352.39,-351.64 367.39,-340.1 380.45,-330.06"/>
<polygon fill="black" stroke="black" points="382.32,-332.26 388.12,-323.39 378.06,-326.71 382.32,-332.26"/>
</g>
<!-- aws&#45;c&#45;mqtt -->
<g id="node7" class="node">
<title>aws&#45;c&#45;mqtt</title>
<g id="a_node7"><a xlink:href="https://github.com/conda-forge/aws-c-mqtt-feedstock" xlink:title="aws c mqtt">
<ellipse fill="#fde725" stroke="black" cx="211.42" cy="-234" rx="66.47" ry="18"/>
<text text-anchor="middle" x="211.42" y="-229.32" font-family="Times,serif" font-size="14.00">aws c mqtt</text>
</a>
</g>
</g>
<!-- aws&#45;c&#45;io&#45;&gt;aws&#45;c&#45;mqtt -->
<g id="edge9" class="edge">
<title>aws&#45;c&#45;io&#45;&gt;aws&#45;c&#45;mqtt</title>
<path fill="none" stroke="black" d="M306.4,-359.87C287.56,-335.11 252.6,-289.14 230.76,-260.42"/>
<polygon fill="black" stroke="black" points="233,-258.59 224.16,-252.75 227.43,-262.83 233,-258.59"/>
</g>
<!-- aws&#45;c&#45;auth -->
<g id="node8" class="node">
<title>aws&#45;c&#45;auth</title>
<g id="a_node8"><a xlink:href="https://github.com/conda-forge/aws-c-auth-feedstock" xlink:title="aws c auth">
<ellipse fill="#fde725" stroke="black" cx="484.42" cy="-234" rx="64.89" ry="18"/>
<text text-anchor="middle" x="484.42" y="-229.32" font-family="Times,serif" font-size="14.00">aws c auth</text>
</a>
</g>
</g>
<!-- aws&#45;c&#45;io&#45;&gt;aws&#45;c&#45;auth -->
<g id="edge10" class="edge">
<title>aws&#45;c&#45;io&#45;&gt;aws&#45;c&#45;auth</title>
<path fill="none" stroke="black" d="M383.88,-373.42C418.94,-367.81 459.69,-354.56 482.42,-324 495.24,-306.77 494.73,-282.02 491.59,-263"/>
<polygon fill="black" stroke="black" points="494.84,-262.4 489.45,-253.28 487.97,-263.77 494.84,-262.4"/>
</g>
<!-- aws&#45;c&#45;s3 -->
<g id="node9" class="node">
<title>aws&#45;c&#45;s3</title>
<g id="a_node9"><a xlink:href="https://github.com/conda-forge/aws-c-s3-feedstock" xlink:title="aws c s3">
<ellipse fill="#fde725" stroke="black" cx="419.42" cy="-162" rx="53.84" ry="18"/>
<text text-anchor="middle" x="419.42" y="-157.32" font-family="Times,serif" font-size="14.00">aws c s3</text>
</a>
</g>
</g>
<!-- aws&#45;c&#45;io&#45;&gt;aws&#45;c&#45;s3 -->
<g id="edge11" class="edge">
<title>aws&#45;c&#45;io&#45;&gt;aws&#45;c&#45;s3</title>
<path fill="none" stroke="black" d="M321.22,-359.72C323.56,-341.37 328.57,-311.79 338.42,-288 353.86,-250.71 380.58,-212.43 399.09,-188.23"/>
<polygon fill="black" stroke="black" points="402.37,-190.72 405.74,-180.67 396.84,-186.42 402.37,-190.72"/>
</g>
<!-- aws&#45;c&#45;http&#45;&gt;aws&#45;crt&#45;cpp -->
<g id="edge12" class="edge">
<title>aws&#45;c&#45;http&#45;&gt;aws&#45;crt&#45;cpp</title>
<path fill="none" stroke="black" d="M398.48,-287.85C372.43,-250.43 310.34,-161.25 279.48,-116.93"/>
<polygon fill="black" stroke="black" points="281.8,-115.14 273.21,-108.94 276.06,-119.14 281.8,-115.14"/>
</g>
<!-- aws&#45;c&#45;http&#45;&gt;awscrt -->
<g id="edge13" class="edge">
<title>aws&#45;c&#45;http&#45;&gt;awscrt</title>
<path fill="none" stroke="black" d="M470.09,-299.78C501.89,-293.61 538.47,-280.34 558.42,-252 590.37,-206.63 539.55,-146.41 505.72,-113.99"/>
<polygon fill="black" stroke="black" points="508.66,-112.02 498.96,-107.76 503.89,-117.14 508.66,-112.02"/>
</g>
<!-- aws&#45;c&#45;http&#45;&gt;aws&#45;c&#45;mqtt -->
<g id="edge14" class="edge">
<title>aws&#45;c&#45;http&#45;&gt;aws&#45;c&#45;mqtt</title>
<path fill="none" stroke="black" d="M371.58,-291.34C340.01,-280.23 295.26,-264.49 261.09,-252.47"/>
<polygon fill="black" stroke="black" points="262.44,-248.88 251.85,-248.87 260.12,-255.49 262.44,-248.88"/>
</g>
<!-- aws&#45;c&#45;http&#45;&gt;aws&#45;c&#45;auth -->
<g id="edge15" class="edge">
<title>aws&#45;c&#45;http&#45;&gt;aws&#45;c&#45;auth</title>
<path fill="none" stroke="black" d="M427.96,-288.41C437.2,-279.67 448.7,-268.79 458.91,-259.13"/>
<polygon fill="black" stroke="black" points="460.9,-262.13 465.76,-252.71 456.09,-257.04 460.9,-262.13"/>
</g>
<!-- aws&#45;c&#45;http&#45;&gt;aws&#45;c&#45;s3 -->
<g id="edge16" class="edge">
<title>aws&#45;c&#45;http&#45;&gt;aws&#45;c&#45;s3</title>
<path fill="none" stroke="black" d="M409.56,-287.57C408.87,-269.6 408.33,-240.79 410.42,-216 411.12,-207.78 412.4,-198.92 413.79,-190.85"/>
<polygon fill="black" stroke="black" points="417.4,-191.56 415.77,-181.09 410.52,-190.29 417.4,-191.56"/>
</g>
<!-- aws&#45;c&#45;mqtt&#45;&gt;aws&#45;crt&#45;cpp -->
<g id="edge17" class="edge">
<title>aws&#45;c&#45;mqtt&#45;&gt;aws&#45;crt&#45;cpp</title>
<path fill="none" stroke="black" d="M223.22,-216.04C229.74,-205.97 237.49,-192.72 242.42,-180 250.06,-160.3 254.9,-136.9 257.79,-119.04"/>
<polygon fill="black" stroke="black" points="261.39,-119.6 259.41,-109.2 254.47,-118.57 261.39,-119.6"/>
</g>
<!-- aws&#45;c&#45;mqtt&#45;&gt;awscrt -->
<g id="edge18" class="edge">
<title>aws&#45;c&#45;mqtt&#45;&gt;awscrt</title>
<path fill="none" stroke="black" d="M235.43,-216.78C263.7,-198.04 312.38,-166.86 356.42,-144 382.88,-130.27 413.68,-117 437.84,-107.18"/>
<polygon fill="black" stroke="black" points="438.79,-110.16 446.76,-103.18 436.17,-103.67 438.79,-110.16"/>
</g>
<!-- aws&#45;c&#45;auth&#45;&gt;aws&#45;crt&#45;cpp -->
<g id="edge19" class="edge">
<title>aws&#45;c&#45;auth&#45;&gt;aws&#45;crt&#45;cpp</title>
<path fill="none" stroke="black" d="M489.66,-215.84C494.49,-196.22 498.73,-164.21 482.42,-144 463.98,-121.14 392.22,-106.94 335.41,-99.06"/>
<polygon fill="black" stroke="black" points="336.01,-95.48 325.63,-97.62 335.08,-102.42 336.01,-95.48"/>
</g>
<!-- aws&#45;c&#45;auth&#45;&gt;awscrt -->
<g id="edge20" class="edge">
<title>aws&#45;c&#45;auth&#45;&gt;awscrt</title>
<path fill="none" stroke="black" d="M497.57,-215.91C504.35,-206.01 511.91,-192.96 515.42,-180 519.61,-164.56 520.13,-159.29 515.42,-144 512.35,-134.01 506.68,-124.21 500.73,-115.8"/>
<polygon fill="black" stroke="black" points="503.11,-114.15 494.28,-108.29 497.53,-118.38 503.11,-114.15"/>
</g>
<!-- aws&#45;c&#45;auth&#45;&gt;aws&#45;c&#45;s3 -->
<g id="edge21" class="edge">
<title>aws&#45;c&#45;auth&#45;&gt;aws&#45;c&#45;s3</title>
<path fill="none" stroke="black" d="M468.69,-216.05C460.67,-207.42 450.77,-196.76 441.96,-187.27"/>
<polygon fill="black" stroke="black" points="444.93,-185.25 435.57,-180.31 439.8,-190.02 444.93,-185.25"/>
</g>
<!-- aws&#45;c&#45;s3&#45;&gt;aws&#45;crt&#45;cpp -->
<g id="edge22" class="edge">
<title>aws&#45;c&#45;s3&#45;&gt;aws&#45;crt&#45;cpp</title>
<path fill="none" stroke="black" d="M387.83,-147C364.22,-136.54 331.64,-122.11 305.47,-110.51"/>
<polygon fill="black" stroke="black" points="306.98,-106.91 296.42,-106.06 304.15,-113.31 306.98,-106.91"/>
</g>
<!-- aws&#45;c&#45;s3&#45;&gt;awscrt -->
<g id="edge23" class="edge">
<title>aws&#45;c&#45;s3&#45;&gt;awscrt</title>
<path fill="none" stroke="black" d="M433.64,-144.41C440.96,-135.87 450.04,-125.28 458.18,-115.79"/>
<polygon fill="black" stroke="black" points="461.46,-118.34 465.31,-108.47 456.14,-113.78 461.46,-118.34"/>
</g>
</g>
</svg>
