<?xml version="1.0" encoding="UTF-8" standalone="no"?>
<!DOCTYPE svg PUBLIC "-//W3C//DTD SVG 1.1//EN"
 "http://www.w3.org/Graphics/SVG/1.1/DTD/svg11.dtd">
<!-- Generated by graphviz version 2.49.1 (20211004.0028)
 -->
<!-- Pages: 1 -->
<svg width="319pt" height="188pt"
 viewBox="0.00 0.00 318.53 188.00" xmlns="http://www.w3.org/2000/svg" xmlns:xlink="http://www.w3.org/1999/xlink">
<g id="graph0" class="graph" transform="scale(1 1) rotate(0) translate(4 184)">
<polygon fill="white" stroke="transparent" points="-4,4 -4,-184 314.53,-184 314.53,4 -4,4"/>
<!-- aws&#45;c&#45;mqtt -->
<g id="node1" class="node">
<title>aws&#45;c&#45;mqtt</title>
<g id="a_node1"><a xlink:href="https://github.com/conda-forge/aws-c-mqtt-feedstock/pull/140" xlink:title="aws c mqtt ❎">
<ellipse fill="#31688e" stroke="black" cx="218.74" cy="-90" rx="76.09" ry="18"/>
<text text-anchor="middle" x="218.74" y="-86.3" font-family="Times,serif" font-size="14.00" fill="white">aws c mqtt ❎</text>
</a>
</g>
</g>
<!-- aws&#45;crt&#45;cpp -->
<g id="node3" class="node">
<title>aws&#45;crt&#45;cpp</title>
<g id="a_node3"><a xlink:href="https://github.com/conda-forge/aws-crt-cpp-feedstock" xlink:title="aws crt cpp">
<ellipse fill="#fde725" stroke="black" cx="74.74" cy="-18" rx="64.19" ry="18"/>
<text text-anchor="middle" x="74.74" y="-14.3" font-family="Times,serif" font-size="14.00">aws crt cpp</text>
</a>
</g>
</g>
<!-- aws&#45;c&#45;mqtt&#45;&gt;aws&#45;crt&#45;cpp -->
<g id="edge1" class="edge">
<title>aws&#45;c&#45;mqtt&#45;&gt;aws&#45;crt&#45;cpp</title>
<path fill="none" stroke="black" d="M186.79,-73.46C165.52,-63.13 137.42,-49.47 114.69,-38.42"/>
<polygon fill="black" stroke="black" points="116.15,-35.24 105.62,-34.01 113.09,-41.53 116.15,-35.24"/>
</g>
<!-- awscrt -->
<g id="node5" class="node">
<title>awscrt</title>
<g id="a_node5"><a xlink:href="https://github.com/conda-forge/awscrt-feedstock" xlink:title="awscrt">
<ellipse fill="#fde725" stroke="black" cx="218.74" cy="-18" rx="42.49" ry="18"/>
<text text-anchor="middle" x="218.74" y="-14.3" font-family="Times,serif" font-size="14.00">awscrt</text>
</a>
</g>
</g>
<!-- aws&#45;c&#45;mqtt&#45;&gt;awscrt -->
<g id="edge2" class="edge">
<title>aws&#45;c&#45;mqtt&#45;&gt;awscrt</title>
<path fill="none" stroke="black" d="M218.74,-71.7C218.74,-63.98 218.74,-54.71 218.74,-46.11"/>
<polygon fill="black" stroke="black" points="222.24,-46.1 218.74,-36.1 215.24,-46.1 222.24,-46.1"/>
</g>
<!-- aws&#45;c&#45;auth -->
<g id="node2" class="node">
<title>aws&#45;c&#45;auth</title>
<g id="a_node2"><a xlink:href="https://github.com/conda-forge/aws-c-auth-feedstock/pull/165" xlink:title="aws c auth ❎">
<ellipse fill="#31688e" stroke="black" cx="74.74" cy="-162" rx="74.99" ry="18"/>
<text text-anchor="middle" x="74.74" y="-158.3" font-family="Times,serif" font-size="14.00" fill="white">aws c auth ❎</text>
</a>
</g>
</g>
<!-- aws&#45;c&#45;auth&#45;&gt;aws&#45;crt&#45;cpp -->
<g id="edge4" class="edge">
<title>aws&#45;c&#45;auth&#45;&gt;aws&#45;crt&#45;cpp</title>
<path fill="none" stroke="black" d="M48.49,-145.02C36.08,-135.89 22.53,-123.22 15.74,-108 9.23,-93.39 9.23,-86.61 15.74,-72 21.19,-59.8 30.98,-49.23 41.05,-40.81"/>
<polygon fill="black" stroke="black" points="43.37,-43.44 49.1,-34.53 39.06,-37.92 43.37,-43.44"/>
</g>
<!-- aws&#45;c&#45;s3 -->
<g id="node4" class="node">
<title>aws&#45;c&#45;s3</title>
<g id="a_node4"><a xlink:href="https://github.com/conda-forge/aws-c-s3-feedstock" xlink:title="aws c s3">
<ellipse fill="#fde725" stroke="black" cx="74.74" cy="-90" rx="50.09" ry="18"/>
<text text-anchor="middle" x="74.74" y="-86.3" font-family="Times,serif" font-size="14.00">aws c s3</text>
</a>
</g>
</g>
<!-- aws&#45;c&#45;auth&#45;&gt;aws&#45;c&#45;s3 -->
<g id="edge3" class="edge">
<title>aws&#45;c&#45;auth&#45;&gt;aws&#45;c&#45;s3</title>
<path fill="none" stroke="black" d="M74.74,-143.7C74.74,-135.98 74.74,-126.71 74.74,-118.11"/>
<polygon fill="black" stroke="black" points="78.24,-118.1 74.74,-108.1 71.24,-118.1 78.24,-118.1"/>
</g>
<!-- aws&#45;c&#45;auth&#45;&gt;awscrt -->
<g id="edge5" class="edge">
<title>aws&#45;c&#45;auth&#45;&gt;awscrt</title>
<path fill="none" stroke="black" d="M142.92,-154.5C202.97,-147.19 283.9,-132.96 303.74,-108 313.7,-95.48 311.51,-85.99 303.74,-72 294.27,-54.94 276.77,-42.65 260.1,-34.23"/>
<polygon fill="black" stroke="black" points="261.52,-31.03 250.98,-29.94 258.54,-37.36 261.52,-31.03"/>
</g>
<!-- aws&#45;c&#45;s3&#45;&gt;aws&#45;crt&#45;cpp -->
<g id="edge6" class="edge">
<title>aws&#45;c&#45;s3&#45;&gt;aws&#45;crt&#45;cpp</title>
<path fill="none" stroke="black" d="M74.74,-71.7C74.74,-63.98 74.74,-54.71 74.74,-46.11"/>
<polygon fill="black" stroke="black" points="78.24,-46.1 74.74,-36.1 71.24,-46.1 78.24,-46.1"/>
</g>
<!-- aws&#45;c&#45;s3&#45;&gt;awscrt -->
<g id="edge7" class="edge">
<title>aws&#45;c&#45;s3&#45;&gt;awscrt</title>
<path fill="none" stroke="black" d="M103.19,-75.17C126.01,-64.08 158.19,-48.44 182.79,-36.48"/>
<polygon fill="black" stroke="black" points="184.35,-39.61 191.81,-32.09 181.29,-33.31 184.35,-39.61"/>
</g>
</g>
</svg>
