<?xml version="1.0" encoding="UTF-8" standalone="no"?>
<!DOCTYPE svg PUBLIC "-//W3C//DTD SVG 1.1//EN"
 "http://www.w3.org/Graphics/SVG/1.1/DTD/svg11.dtd">
<!-- Generated by graphviz version 7.1.0 (20230122.1345)
 -->
<!-- Pages: 1 -->
<svg width="849pt" height="476pt"
 viewBox="0.00 0.00 849.00 476.00" xmlns="http://www.w3.org/2000/svg" xmlns:xlink="http://www.w3.org/1999/xlink">
<g id="graph0" class="graph" transform="scale(1 1) rotate(0) translate(4 472)">
<polygon fill="white" stroke="none" points="-4,4 -4,-472 845,-472 845,4 -4,4"/>
<!-- aws&#45;sdk&#45;cpp -->
<g id="node1" class="node">
<title>aws&#45;sdk&#45;cpp</title>
<g id="a_node1"><a xlink:href="https://github.com/conda-forge/aws-sdk-cpp-feedstock" xlink:title="aws sdk cpp">
<ellipse fill="#fde725" stroke="black" cx="410" cy="-18" rx="67.69" ry="18"/>
<text text-anchor="middle" x="410" y="-14.3" font-family="Times,serif" font-size="14.00">aws sdk cpp</text>
</a>
</g>
</g>
<!-- aws&#45;checksums -->
<g id="node2" class="node">
<title>aws&#45;checksums</title>
<g id="a_node2"><a xlink:href="https://github.com/conda-forge/aws-checksums-feedstock" xlink:title="aws checksums">
<ellipse fill="#35b779" stroke="black" cx="606" cy="-234" rx="82.59" ry="18"/>
<text text-anchor="middle" x="606" y="-230.3" font-family="Times,serif" font-size="14.00">aws checksums</text>
</a>
</g>
</g>
<!-- aws&#45;c&#45;event&#45;stream -->
<g id="node3" class="node">
<title>aws&#45;c&#45;event&#45;stream</title>
<g id="a_node3"><a xlink:href="https://github.com/conda-forge/aws-c-event-stream-feedstock" xlink:title="aws c event stream">
<ellipse fill="#fde725" stroke="black" cx="674" cy="-162" rx="100.98" ry="18"/>
<text text-anchor="middle" x="674" y="-158.3" font-family="Times,serif" font-size="14.00">aws c event stream</text>
</a>
</g>
</g>
<!-- aws&#45;checksums&#45;&gt;aws&#45;c&#45;event&#45;stream -->
<g id="edge1" class="edge">
<title>aws&#45;checksums&#45;&gt;aws&#45;c&#45;event&#45;stream</title>
<path fill="none" stroke="black" d="M622.46,-216.05C630.65,-207.63 640.7,-197.28 649.75,-187.97"/>
<polygon fill="black" stroke="black" points="652.18,-190.49 656.64,-180.87 647.16,-185.61 652.18,-190.49"/>
</g>
<!-- aws&#45;crt&#45;cpp -->
<g id="node4" class="node">
<title>aws&#45;crt&#45;cpp</title>
<g id="a_node4"><a xlink:href="https://github.com/conda-forge/aws-crt-cpp-feedstock" xlink:title="aws crt cpp">
<ellipse fill="#fde725" stroke="black" cx="313" cy="-90" rx="64.5" ry="18"/>
<text text-anchor="middle" x="313" y="-86.3" font-family="Times,serif" font-size="14.00">aws crt cpp</text>
</a>
</g>
</g>
<!-- aws&#45;checksums&#45;&gt;aws&#45;crt&#45;cpp -->
<g id="edge2" class="edge">
<title>aws&#45;checksums&#45;&gt;aws&#45;crt&#45;cpp</title>
<path fill="none" stroke="black" d="M580.91,-216.42C565.88,-206.27 546.54,-192.8 530,-180 510.56,-164.95 509.56,-155.82 488,-144 453.21,-124.93 410.68,-111.85 376.26,-103.45"/>
<polygon fill="black" stroke="black" points="377.4,-100.13 366.86,-101.24 375.79,-106.94 377.4,-100.13"/>
</g>
<!-- aws&#45;c&#45;s3 -->
<g id="node5" class="node">
<title>aws&#45;c&#45;s3</title>
<g id="a_node5"><a xlink:href="https://github.com/conda-forge/aws-c-s3-feedstock" xlink:title="aws c s3">
<ellipse fill="#fde725" stroke="black" cx="429" cy="-162" rx="50.09" ry="18"/>
<text text-anchor="middle" x="429" y="-158.3" font-family="Times,serif" font-size="14.00">aws c s3</text>
</a>
</g>
</g>
<!-- aws&#45;checksums&#45;&gt;aws&#45;c&#45;s3 -->
<g id="edge3" class="edge">
<title>aws&#45;checksums&#45;&gt;aws&#45;c&#45;s3</title>
<path fill="none" stroke="black" d="M567.59,-217.81C539.56,-206.72 501.51,-191.68 472.38,-180.16"/>
<polygon fill="black" stroke="black" points="473.68,-176.91 463.1,-176.48 471.11,-183.42 473.68,-176.91"/>
</g>
<!-- awscrt -->
<g id="node6" class="node">
<title>awscrt</title>
<g id="a_node6"><a xlink:href="https://github.com/conda-forge/awscrt-feedstock" xlink:title="awscrt">
<ellipse fill="#fde725" stroke="black" cx="491" cy="-90" rx="42.49" ry="18"/>
<text text-anchor="middle" x="491" y="-86.3" font-family="Times,serif" font-size="14.00">awscrt</text>
</a>
</g>
</g>
<!-- aws&#45;checksums&#45;&gt;awscrt -->
<g id="edge4" class="edge">
<title>aws&#45;checksums&#45;&gt;awscrt</title>
<path fill="none" stroke="black" d="M592.13,-215.87C571.97,-190.98 534.45,-144.65 511.21,-115.96"/>
<polygon fill="black" stroke="black" points="514.18,-114.06 505.16,-108.49 508.74,-118.46 514.18,-114.06"/>
</g>
<!-- aws&#45;c&#45;event&#45;stream&#45;&gt;aws&#45;sdk&#45;cpp -->
<g id="edge5" class="edge">
<title>aws&#45;c&#45;event&#45;stream&#45;&gt;aws&#45;sdk&#45;cpp</title>
<path fill="none" stroke="black" d="M652.02,-144.05C626.53,-124.91 582.78,-93.62 542,-72 516.25,-58.35 486.18,-46.02 461.25,-36.69"/>
<polygon fill="black" stroke="black" points="462.57,-33.45 451.98,-33.28 460.15,-40.02 462.57,-33.45"/>
</g>
<!-- aws&#45;c&#45;event&#45;stream&#45;&gt;aws&#45;crt&#45;cpp -->
<g id="edge6" class="edge">
<title>aws&#45;c&#45;event&#45;stream&#45;&gt;aws&#45;crt&#45;cpp</title>
<path fill="none" stroke="black" d="M607.37,-148.08C541.35,-135.28 440.99,-115.82 376.19,-103.25"/>
<polygon fill="black" stroke="black" points="376.89,-99.82 366.41,-101.36 375.56,-106.7 376.89,-99.82"/>
</g>
<!-- aws&#45;c&#45;event&#45;stream&#45;&gt;awscrt -->
<g id="edge7" class="edge">
<title>aws&#45;c&#45;event&#45;stream&#45;&gt;awscrt</title>
<path fill="none" stroke="black" d="M632.93,-145.29C602.9,-133.8 562.32,-118.28 532.25,-106.78"/>
<polygon fill="black" stroke="black" points="533.69,-103.58 523.1,-103.28 531.18,-110.12 533.69,-103.58"/>
</g>
<!-- aws&#45;crt&#45;cpp&#45;&gt;aws&#45;sdk&#45;cpp -->
<g id="edge8" class="edge">
<title>aws&#45;crt&#45;cpp&#45;&gt;aws&#45;sdk&#45;cpp</title>
<path fill="none" stroke="black" d="M335.5,-72.76C348.14,-63.64 364.13,-52.1 378.05,-42.06"/>
<polygon fill="black" stroke="black" points="380,-44.97 386.06,-36.28 375.9,-39.29 380,-44.97"/>
</g>
<!-- aws&#45;c&#45;s3&#45;&gt;aws&#45;crt&#45;cpp -->
<g id="edge9" class="edge">
<title>aws&#45;c&#45;s3&#45;&gt;aws&#45;crt&#45;cpp</title>
<path fill="none" stroke="black" d="M404.12,-145.98C388.01,-136.27 366.79,-123.46 348.88,-112.65"/>
<polygon fill="black" stroke="black" points="350.72,-109.67 340.35,-107.5 347.1,-115.67 350.72,-109.67"/>
</g>
<!-- aws&#45;c&#45;s3&#45;&gt;awscrt -->
<g id="edge10" class="edge">
<title>aws&#45;c&#45;s3&#45;&gt;awscrt</title>
<path fill="none" stroke="black" d="M443.69,-144.41C451.37,-135.74 460.91,-124.97 469.41,-115.38"/>
<polygon fill="black" stroke="black" points="471.83,-117.93 475.84,-108.12 466.59,-113.29 471.83,-117.93"/>
</g>
<!-- aws&#45;c&#45;io -->
<g id="node7" class="node">
<title>aws&#45;c&#45;io</title>
<g id="a_node7"><a xlink:href="https://github.com/conda-forge/aws-c-io-feedstock" xlink:title="aws c io">
<ellipse fill="#fde725" stroke="black" cx="435" cy="-378" rx="48.19" ry="18"/>
<text text-anchor="middle" x="435" y="-374.3" font-family="Times,serif" font-size="14.00">aws c io</text>
</a>
</g>
</g>
<!-- aws&#45;c&#45;io&#45;&gt;aws&#45;c&#45;event&#45;stream -->
<g id="edge11" class="edge">
<title>aws&#45;c&#45;io&#45;&gt;aws&#45;c&#45;event&#45;stream</title>
<path fill="none" stroke="black" d="M479.46,-370.54C540.95,-358.96 649.79,-328.29 698,-252 709.85,-233.25 701.84,-208.72 691.99,-190.17"/>
<polygon fill="black" stroke="black" points="695.08,-188.5 687.05,-181.59 689.01,-192 695.08,-188.5"/>
</g>
<!-- aws&#45;c&#45;io&#45;&gt;aws&#45;crt&#45;cpp -->
<g id="edge12" class="edge">
<title>aws&#45;c&#45;io&#45;&gt;aws&#45;crt&#45;cpp</title>
<path fill="none" stroke="black" d="M389.5,-371.68C297.2,-360.66 95.84,-335.44 86,-324 57.97,-291.39 2.82,-255.61 98,-144 116.76,-122 187.67,-107.56 242.99,-99.39"/>
<polygon fill="black" stroke="black" points="243.28,-102.88 252.69,-98 242.29,-95.95 243.28,-102.88"/>
</g>
<!-- aws&#45;c&#45;io&#45;&gt;aws&#45;c&#45;s3 -->
<g id="edge13" class="edge">
<title>aws&#45;c&#45;io&#45;&gt;aws&#45;c&#45;s3</title>
<path fill="none" stroke="black" d="M455.62,-361.25C466.28,-351.77 478.24,-338.7 484,-324 489.83,-309.1 487.29,-303.66 484,-288 476.52,-252.43 458.27,-214.63 444.84,-190.03"/>
<polygon fill="black" stroke="black" points="447.92,-188.37 439.98,-181.35 441.81,-191.78 447.92,-188.37"/>
</g>
<!-- aws&#45;c&#45;io&#45;&gt;awscrt -->
<g id="edge14" class="edge">
<title>aws&#45;c&#45;io&#45;&gt;awscrt</title>
<path fill="none" stroke="black" d="M482.32,-374.01C529.53,-369.2 602.66,-356.66 657,-324 730.14,-280.04 753.83,-259.82 784,-180 789.66,-165.03 794.26,-156.28 784,-144 754.09,-108.2 620.72,-96.53 544.64,-92.77"/>
<polygon fill="black" stroke="black" points="545.06,-89.28 534.91,-92.32 544.73,-96.28 545.06,-89.28"/>
</g>
<!-- aws&#45;c&#45;http -->
<g id="node8" class="node">
<title>aws&#45;c&#45;http</title>
<g id="a_node8"><a xlink:href="https://github.com/conda-forge/aws-c-http-feedstock" xlink:title="aws c http">
<ellipse fill="#fde725" stroke="black" cx="154" cy="-306" rx="59.29" ry="18"/>
<text text-anchor="middle" x="154" y="-302.3" font-family="Times,serif" font-size="14.00">aws c http</text>
</a>
</g>
</g>
<!-- aws&#45;c&#45;io&#45;&gt;aws&#45;c&#45;http -->
<g id="edge15" class="edge">
<title>aws&#45;c&#45;io&#45;&gt;aws&#45;c&#45;http</title>
<path fill="none" stroke="black" d="M395.63,-367.19C347.16,-355.12 264.53,-334.54 209.6,-320.85"/>
<polygon fill="black" stroke="black" points="210.68,-317.51 200.13,-318.49 208.99,-324.31 210.68,-317.51"/>
</g>
<!-- aws&#45;c&#45;mqtt -->
<g id="node9" class="node">
<title>aws&#45;c&#45;mqtt</title>
<g id="a_node9"><a xlink:href="https://github.com/conda-forge/aws-c-mqtt-feedstock" xlink:title="aws c mqtt">
<ellipse fill="#fde725" stroke="black" cx="185" cy="-162" rx="61.99" ry="18"/>
<text text-anchor="middle" x="185" y="-158.3" font-family="Times,serif" font-size="14.00">aws c mqtt</text>
</a>
</g>
</g>
<!-- aws&#45;c&#45;io&#45;&gt;aws&#45;c&#45;mqtt -->
<g id="edge16" class="edge">
<title>aws&#45;c&#45;io&#45;&gt;aws&#45;c&#45;mqtt</title>
<path fill="none" stroke="black" d="M394.35,-368.02C365.28,-360.08 326.42,-346.24 298,-324 251.08,-287.29 215.63,-225.85 197.81,-190.43"/>
<polygon fill="black" stroke="black" points="201.07,-189.12 193.52,-181.68 194.78,-192.2 201.07,-189.12"/>
</g>
<!-- aws&#45;c&#45;auth -->
<g id="node10" class="node">
<title>aws&#45;c&#45;auth</title>
<g id="a_node10"><a xlink:href="https://github.com/conda-forge/aws-c-auth-feedstock" xlink:title="aws c auth">
<ellipse fill="#fde725" stroke="black" cx="368" cy="-234" rx="60.5" ry="18"/>
<text text-anchor="middle" x="368" y="-230.3" font-family="Times,serif" font-size="14.00">aws c auth</text>
</a>
</g>
</g>
<!-- aws&#45;c&#45;io&#45;&gt;aws&#45;c&#45;auth -->
<g id="edge17" class="edge">
<title>aws&#45;c&#45;io&#45;&gt;aws&#45;c&#45;auth</title>
<path fill="none" stroke="black" d="M449.6,-360.43C464.04,-341.9 482.1,-311.44 468,-288 457.75,-270.97 439.99,-259.12 422.25,-251.02"/>
<polygon fill="black" stroke="black" points="423.84,-247.89 413.27,-247.26 421.14,-254.35 423.84,-247.89"/>
</g>
<!-- aws&#45;c&#45;http&#45;&gt;aws&#45;crt&#45;cpp -->
<g id="edge18" class="edge">
<title>aws&#45;c&#45;http&#45;&gt;aws&#45;crt&#45;cpp</title>
<path fill="none" stroke="black" d="M141.43,-288.06C119.65,-256.49 80.3,-187.85 114,-144 130,-123.18 193.16,-108.8 244.09,-100.33"/>
<polygon fill="black" stroke="black" points="244.6,-103.79 253.91,-98.75 243.48,-96.88 244.6,-103.79"/>
</g>
<!-- aws&#45;c&#45;http&#45;&gt;aws&#45;c&#45;s3 -->
<g id="edge19" class="edge">
<title>aws&#45;c&#45;http&#45;&gt;aws&#45;c&#45;s3</title>
<path fill="none" stroke="black" d="M176.75,-289.26C204.56,-270.42 253.43,-238.58 298,-216 325.67,-201.98 357.96,-188.88 383.56,-179.21"/>
<polygon fill="black" stroke="black" points="384.53,-182.59 392.67,-175.81 382.08,-176.03 384.53,-182.59"/>
</g>
<!-- aws&#45;c&#45;http&#45;&gt;awscrt -->
<g id="edge20" class="edge">
<title>aws&#45;c&#45;http&#45;&gt;awscrt</title>
<path fill="none" stroke="black" d="M166.56,-288.19C181.31,-269.19 207.19,-238.02 234,-216 299.82,-161.93 392.93,-124.17 447.14,-105.15"/>
<polygon fill="black" stroke="black" points="448.02,-108.55 456.33,-101.99 445.74,-101.93 448.02,-108.55"/>
</g>
<!-- aws&#45;c&#45;http&#45;&gt;aws&#45;c&#45;mqtt -->
<g id="edge21" class="edge">
<title>aws&#45;c&#45;http&#45;&gt;aws&#45;c&#45;mqtt</title>
<path fill="none" stroke="black" d="M157.8,-287.59C163.06,-263.5 172.61,-219.75 178.88,-191.03"/>
<polygon fill="black" stroke="black" points="182.23,-192.11 180.94,-181.59 175.39,-190.61 182.23,-192.11"/>
</g>
<!-- aws&#45;c&#45;http&#45;&gt;aws&#45;c&#45;auth -->
<g id="edge22" class="edge">
<title>aws&#45;c&#45;http&#45;&gt;aws&#45;c&#45;auth</title>
<path fill="none" stroke="black" d="M193.25,-292.16C228.17,-280.74 279.46,-263.96 317.44,-251.54"/>
<polygon fill="black" stroke="black" points="318.42,-254.9 326.83,-248.47 316.24,-248.25 318.42,-254.9"/>
</g>
<!-- aws&#45;c&#45;mqtt&#45;&gt;aws&#45;crt&#45;cpp -->
<g id="edge23" class="edge">
<title>aws&#45;c&#45;mqtt&#45;&gt;aws&#45;crt&#45;cpp</title>
<path fill="none" stroke="black" d="M213.09,-145.64C231.14,-135.77 254.82,-122.82 274.6,-112"/>
<polygon fill="black" stroke="black" points="276.11,-115.16 283.21,-107.29 272.75,-109.02 276.11,-115.16"/>
</g>
<!-- aws&#45;c&#45;mqtt&#45;&gt;awscrt -->
<g id="edge24" class="edge">
<title>aws&#45;c&#45;mqtt&#45;&gt;awscrt</title>
<path fill="none" stroke="black" d="M232.48,-150.14C289.92,-137 386.06,-115.01 443.51,-101.86"/>
<polygon fill="black" stroke="black" points="444.01,-105.34 452.98,-99.7 442.45,-98.52 444.01,-105.34"/>
</g>
<!-- aws&#45;c&#45;auth&#45;&gt;aws&#45;crt&#45;cpp -->
<g id="edge25" class="edge">
<title>aws&#45;c&#45;auth&#45;&gt;aws&#45;crt&#45;cpp</title>
<path fill="none" stroke="black" d="M356.45,-215.94C350.02,-205.84 342.27,-192.59 337,-180 328.78,-160.35 322.62,-137.08 318.6,-119.27"/>
<polygon fill="black" stroke="black" points="322.06,-118.7 316.53,-109.66 315.21,-120.17 322.06,-118.7"/>
</g>
<!-- aws&#45;c&#45;auth&#45;&gt;aws&#45;c&#45;s3 -->
<g id="edge26" class="edge">
<title>aws&#45;c&#45;auth&#45;&gt;aws&#45;c&#45;s3</title>
<path fill="none" stroke="black" d="M382.77,-216.05C390.14,-207.59 399.21,-197.19 407.35,-187.84"/>
<polygon fill="black" stroke="black" points="409.86,-190.29 413.8,-180.45 404.59,-185.69 409.86,-190.29"/>
</g>
<!-- aws&#45;c&#45;auth&#45;&gt;awscrt -->
<g id="edge27" class="edge">
<title>aws&#45;c&#45;auth&#45;&gt;awscrt</title>
<path fill="none" stroke="black" d="M363.27,-215.64C359.12,-196.41 355.72,-165.32 370,-144 385.84,-120.35 414.77,-107.17 440.37,-99.87"/>
<polygon fill="black" stroke="black" points="441.19,-103.28 450,-97.38 439.44,-96.5 441.19,-103.28"/>
</g>
<!-- aws&#45;c&#45;cal -->
<g id="node11" class="node">
<title>aws&#45;c&#45;cal</title>
<g id="a_node11"><a xlink:href="https://github.com/conda-forge/aws-c-cal-feedstock" xlink:title="aws c cal">
<ellipse fill="#35b779" stroke="black" cx="393" cy="-450" rx="52.79" ry="18"/>
<text text-anchor="middle" x="393" y="-446.3" font-family="Times,serif" font-size="14.00">aws c cal</text>
</a>
</g>
</g>
<!-- aws&#45;c&#45;cal&#45;&gt;aws&#45;crt&#45;cpp -->
<g id="edge28" class="edge">
<title>aws&#45;c&#45;cal&#45;&gt;aws&#45;crt&#45;cpp</title>
<path fill="none" stroke="black" d="M340.89,-446.69C256.14,-442 93.23,-428.9 47,-396 10.55,-370.06 0,-351.73 0,-307 0,-307 0,-307 0,-233 0,-129.03 144.99,-100.81 237.6,-93.39"/>
<polygon fill="black" stroke="black" points="237.68,-96.89 247.39,-92.67 237.17,-89.91 237.68,-96.89"/>
</g>
<!-- aws&#45;c&#45;cal&#45;&gt;aws&#45;c&#45;s3 -->
<g id="edge29" class="edge">
<title>aws&#45;c&#45;cal&#45;&gt;aws&#45;c&#45;s3</title>
<path fill="none" stroke="black" d="M432.87,-437.79C453.98,-429.7 478.32,-416.52 492,-396 536.5,-329.27 518.41,-285.86 479,-216 473.03,-205.42 464.51,-195.33 456.19,-186.84"/>
<polygon fill="black" stroke="black" points="458.73,-184.43 449.12,-179.98 453.86,-189.45 458.73,-184.43"/>
</g>
<!-- aws&#45;c&#45;cal&#45;&gt;awscrt -->
<g id="edge30" class="edge">
<title>aws&#45;c&#45;cal&#45;&gt;awscrt</title>
<path fill="none" stroke="black" d="M443.09,-443.86C559.99,-430.48 841,-389.71 841,-307 841,-307 841,-307 841,-233 841,-189.63 835.29,-170.55 801,-144 761.84,-113.68 622.47,-99.71 544.61,-94.15"/>
<polygon fill="black" stroke="black" points="544.85,-90.66 534.64,-93.46 544.37,-97.64 544.85,-90.66"/>
</g>
<!-- aws&#45;c&#45;cal&#45;&gt;aws&#45;c&#45;io -->
<g id="edge31" class="edge">
<title>aws&#45;c&#45;cal&#45;&gt;aws&#45;c&#45;io</title>
<path fill="none" stroke="black" d="M403.17,-432.05C407.96,-424.06 413.8,-414.33 419.16,-405.4"/>
<polygon fill="black" stroke="black" points="422,-407.46 424.15,-397.09 416,-403.86 422,-407.46"/>
</g>
<!-- aws&#45;c&#45;cal&#45;&gt;aws&#45;c&#45;http -->
<g id="edge32" class="edge">
<title>aws&#45;c&#45;cal&#45;&gt;aws&#45;c&#45;http</title>
<path fill="none" stroke="black" d="M340.06,-448.66C254.75,-446.86 92.78,-437.86 57,-396 46.6,-383.84 48.84,-373.76 57,-360 66.94,-343.24 84.27,-331.43 101.55,-323.29"/>
<polygon fill="black" stroke="black" points="102.48,-326.7 110.27,-319.51 99.7,-320.27 102.48,-326.7"/>
</g>
<!-- aws&#45;c&#45;cal&#45;&gt;aws&#45;c&#45;auth -->
<g id="edge33" class="edge">
<title>aws&#45;c&#45;cal&#45;&gt;aws&#45;c&#45;auth</title>
<path fill="none" stroke="black" d="M375.06,-432.95C352.03,-411.02 313.23,-369.2 298,-324 292.89,-308.84 290.88,-302.33 298,-288 304.48,-274.97 315.86,-264.28 327.59,-256.01"/>
<polygon fill="black" stroke="black" points="329.24,-259.11 335.71,-250.72 325.42,-253.24 329.24,-259.11"/>
</g>
<!-- aws&#45;c&#45;compression -->
<g id="node12" class="node">
<title>aws&#45;c&#45;compression</title>
<g id="a_node12"><a xlink:href="https://github.com/conda-forge/aws-c-compression-feedstock" xlink:title="aws c compression">
<ellipse fill="#35b779" stroke="black" cx="164" cy="-378" rx="98.28" ry="18"/>
<text text-anchor="middle" x="164" y="-374.3" font-family="Times,serif" font-size="14.00">aws c compression</text>
</a>
</g>
</g>
<!-- aws&#45;c&#45;compression&#45;&gt;aws&#45;c&#45;http -->
<g id="edge34" class="edge">
<title>aws&#45;c&#45;compression&#45;&gt;aws&#45;c&#45;http</title>
<path fill="none" stroke="black" d="M161.53,-359.7C160.47,-352.32 159.22,-343.52 158.04,-335.25"/>
<polygon fill="black" stroke="black" points="161.54,-335.01 156.66,-325.6 154.61,-336 161.54,-335.01"/>
</g>
<!-- aws&#45;c&#45;sdkutils -->
<g id="node13" class="node">
<title>aws&#45;c&#45;sdkutils</title>
<g id="a_node13"><a xlink:href="https://github.com/conda-forge/aws-c-sdkutils-feedstock" xlink:title="aws c sdkutils">
<ellipse fill="#35b779" stroke="black" cx="383" cy="-306" rx="76.09" ry="18"/>
<text text-anchor="middle" x="383" y="-302.3" font-family="Times,serif" font-size="14.00">aws c sdkutils</text>
</a>
</g>
</g>
<!-- aws&#45;c&#45;sdkutils&#45;&gt;aws&#45;c&#45;auth -->
<g id="edge35" class="edge">
<title>aws&#45;c&#45;sdkutils&#45;&gt;aws&#45;c&#45;auth</title>
<path fill="none" stroke="black" d="M379.29,-287.7C377.71,-280.32 375.83,-271.52 374.05,-263.25"/>
<polygon fill="black" stroke="black" points="377.5,-262.63 371.98,-253.58 370.66,-264.1 377.5,-262.63"/>
</g>
</g>
</svg>
