<?xml version="1.0" encoding="UTF-8" standalone="no"?>
<!DOCTYPE svg PUBLIC "-//W3C//DTD SVG 1.1//EN"
 "http://www.w3.org/Graphics/SVG/1.1/DTD/svg11.dtd">
<!-- Generated by graphviz version 2.49.1 (20211004.0028)
 -->
<!-- Pages: 1 -->
<svg width="598pt" height="332pt"
 viewBox="0.00 0.00 598.36 332.00" xmlns="http://www.w3.org/2000/svg" xmlns:xlink="http://www.w3.org/1999/xlink">
<g id="graph0" class="graph" transform="scale(1 1) rotate(0) translate(4 328)">
<polygon fill="white" stroke="transparent" points="-4,4 -4,-328 594.36,-328 594.36,4 -4,4"/>
<!-- aws&#45;sdk&#45;cpp -->
<g id="node1" class="node">
<title>aws&#45;sdk&#45;cpp</title>
<g id="a_node1"><a xlink:href="https://github.com/conda-forge/aws-sdk-cpp-feedstock" xlink:title="aws sdk cpp">
<ellipse fill="#fde725" stroke="black" cx="210.74" cy="-18" rx="67.69" ry="18"/>
<text text-anchor="middle" x="210.74" y="-14.3" font-family="Times,serif" font-size="14.00">aws sdk cpp</text>
</a>
</g>
</g>
<!-- aws&#45;c&#45;event&#45;stream -->
<g id="node2" class="node">
<title>aws&#45;c&#45;event&#45;stream</title>
<g id="a_node2"><a xlink:href="https://github.com/conda-forge/aws-c-event-stream-feedstock" xlink:title="aws c event stream">
<ellipse fill="#ff8c00" stroke="black" cx="100.74" cy="-162" rx="100.98" ry="18"/>
<text text-anchor="middle" x="100.74" y="-158.3" font-family="Times,serif" font-size="14.00">aws c event stream</text>
</a>
</g>
</g>
<!-- aws&#45;c&#45;event&#45;stream&#45;&gt;aws&#45;sdk&#45;cpp -->
<g id="edge2" class="edge">
<title>aws&#45;c&#45;event&#45;stream&#45;&gt;aws&#45;sdk&#45;cpp</title>
<path fill="none" stroke="black" d="M114.01,-143.87C133.36,-118.9 169.42,-72.35 191.62,-43.68"/>
<polygon fill="black" stroke="black" points="194.41,-45.8 197.77,-35.75 188.88,-41.51 194.41,-45.8"/>
</g>
<!-- aws&#45;crt&#45;cpp -->
<g id="node6" class="node">
<title>aws&#45;crt&#45;cpp</title>
<g id="a_node6"><a xlink:href="https://github.com/conda-forge/aws-crt-cpp-feedstock" xlink:title="aws crt cpp">
<ellipse fill="#fde725" stroke="black" cx="274.74" cy="-90" rx="64.19" ry="18"/>
<text text-anchor="middle" x="274.74" y="-86.3" font-family="Times,serif" font-size="14.00">aws crt cpp</text>
</a>
</g>
</g>
<!-- aws&#45;c&#45;event&#45;stream&#45;&gt;aws&#45;crt&#45;cpp -->
<g id="edge1" class="edge">
<title>aws&#45;c&#45;event&#45;stream&#45;&gt;aws&#45;crt&#45;cpp</title>
<path fill="none" stroke="black" d="M139.79,-145.29C166.59,-134.51 202.22,-120.18 230.13,-108.95"/>
<polygon fill="black" stroke="black" points="231.69,-112.09 239.66,-105.11 229.08,-105.6 231.69,-112.09"/>
</g>
<!-- awscrt -->
<g id="node8" class="node">
<title>awscrt</title>
<g id="a_node8"><a xlink:href="https://github.com/conda-forge/awscrt-feedstock" xlink:title="awscrt">
<ellipse fill="#fde725" stroke="black" cx="447.74" cy="-90" rx="42.49" ry="18"/>
<text text-anchor="middle" x="447.74" y="-86.3" font-family="Times,serif" font-size="14.00">awscrt</text>
</a>
</g>
</g>
<!-- aws&#45;c&#45;event&#45;stream&#45;&gt;awscrt -->
<g id="edge3" class="edge">
<title>aws&#45;c&#45;event&#45;stream&#45;&gt;awscrt</title>
<path fill="none" stroke="black" d="M164.79,-148.08C232.91,-134.34 339.09,-112.92 400.16,-100.6"/>
<polygon fill="black" stroke="black" points="401.18,-103.96 410.29,-98.56 399.79,-97.1 401.18,-103.96"/>
</g>
<!-- aws&#45;c&#45;http -->
<g id="node3" class="node">
<title>aws&#45;c&#45;http</title>
<g id="a_node3"><a xlink:href="https://github.com/conda-forge/aws-c-http-feedstock" xlink:title="aws c http">
<ellipse fill="#ff8c00" stroke="black" cx="437.74" cy="-306" rx="59.29" ry="18"/>
<text text-anchor="middle" x="437.74" y="-302.3" font-family="Times,serif" font-size="14.00">aws c http</text>
</a>
</g>
</g>
<!-- aws&#45;c&#45;mqtt -->
<g id="node4" class="node">
<title>aws&#45;c&#45;mqtt</title>
<g id="a_node4"><a xlink:href="https://github.com/conda-forge/aws-c-mqtt-feedstock" xlink:title="aws c mqtt">
<ellipse fill="#fde725" stroke="black" cx="319.74" cy="-162" rx="61.99" ry="18"/>
<text text-anchor="middle" x="319.74" y="-158.3" font-family="Times,serif" font-size="14.00">aws c mqtt</text>
</a>
</g>
</g>
<!-- aws&#45;c&#45;http&#45;&gt;aws&#45;c&#45;mqtt -->
<g id="edge5" class="edge">
<title>aws&#45;c&#45;http&#45;&gt;aws&#45;c&#45;mqtt</title>
<path fill="none" stroke="black" d="M412.69,-289.5C398.59,-279.92 381.34,-266.67 368.74,-252 352.5,-233.08 339.25,-207.92 330.65,-189.18"/>
<polygon fill="black" stroke="black" points="333.84,-187.74 326.58,-180.03 327.44,-190.59 333.84,-187.74"/>
</g>
<!-- aws&#45;c&#45;auth -->
<g id="node5" class="node">
<title>aws&#45;c&#45;auth</title>
<g id="a_node5"><a xlink:href="https://github.com/conda-forge/aws-c-auth-feedstock" xlink:title="aws c auth">
<ellipse fill="#fde725" stroke="black" cx="437.74" cy="-234" rx="60.39" ry="18"/>
<text text-anchor="middle" x="437.74" y="-230.3" font-family="Times,serif" font-size="14.00">aws c auth</text>
</a>
</g>
</g>
<!-- aws&#45;c&#45;http&#45;&gt;aws&#45;c&#45;auth -->
<g id="edge4" class="edge">
<title>aws&#45;c&#45;http&#45;&gt;aws&#45;c&#45;auth</title>
<path fill="none" stroke="black" d="M437.74,-287.7C437.74,-279.98 437.74,-270.71 437.74,-262.11"/>
<polygon fill="black" stroke="black" points="441.24,-262.1 437.74,-252.1 434.24,-262.1 441.24,-262.1"/>
</g>
<!-- aws&#45;c&#45;http&#45;&gt;aws&#45;crt&#45;cpp -->
<g id="edge7" class="edge">
<title>aws&#45;c&#45;http&#45;&gt;aws&#45;crt&#45;cpp</title>
<path fill="none" stroke="black" d="M398.05,-292.49C351.87,-275.46 278.19,-240.04 248.74,-180 238.74,-159.6 247.67,-134.64 257.7,-116.35"/>
<polygon fill="black" stroke="black" points="260.73,-118.1 262.79,-107.7 254.7,-114.54 260.73,-118.1"/>
</g>
<!-- aws&#45;c&#45;s3 -->
<g id="node7" class="node">
<title>aws&#45;c&#45;s3</title>
<g id="a_node7"><a xlink:href="https://github.com/conda-forge/aws-c-s3-feedstock" xlink:title="aws c s3">
<ellipse fill="#fde725" stroke="black" cx="525.74" cy="-162" rx="50.09" ry="18"/>
<text text-anchor="middle" x="525.74" y="-158.3" font-family="Times,serif" font-size="14.00">aws c s3</text>
</a>
</g>
</g>
<!-- aws&#45;c&#45;http&#45;&gt;aws&#45;c&#45;s3 -->
<g id="edge6" class="edge">
<title>aws&#45;c&#45;http&#45;&gt;aws&#45;c&#45;s3</title>
<path fill="none" stroke="black" d="M465.54,-290.11C479.98,-280.98 496.66,-267.97 506.74,-252 518.44,-233.46 523.04,-208.87 524.8,-190.23"/>
<polygon fill="black" stroke="black" points="528.31,-190.27 525.54,-180.04 521.32,-189.76 528.31,-190.27"/>
</g>
<!-- aws&#45;c&#45;http&#45;&gt;awscrt -->
<g id="edge8" class="edge">
<title>aws&#45;c&#45;http&#45;&gt;awscrt</title>
<path fill="none" stroke="black" d="M469.3,-290.68C506.5,-271.65 565.69,-234.02 584.74,-180 590.06,-164.91 593.79,-157.2 584.74,-144 565.51,-115.93 529.11,-102.73 498.66,-96.51"/>
<polygon fill="black" stroke="black" points="499.07,-93.03 488.6,-94.66 497.8,-99.91 499.07,-93.03"/>
</g>
<!-- aws&#45;c&#45;mqtt&#45;&gt;aws&#45;crt&#45;cpp -->
<g id="edge9" class="edge">
<title>aws&#45;c&#45;mqtt&#45;&gt;aws&#45;crt&#45;cpp</title>
<path fill="none" stroke="black" d="M308.85,-144.05C303.49,-135.71 296.91,-125.49 290.97,-116.25"/>
<polygon fill="black" stroke="black" points="293.89,-114.31 285.53,-107.79 288,-118.09 293.89,-114.31"/>
</g>
<!-- aws&#45;c&#45;mqtt&#45;&gt;awscrt -->
<g id="edge10" class="edge">
<title>aws&#45;c&#45;mqtt&#45;&gt;awscrt</title>
<path fill="none" stroke="black" d="M347.52,-145.81C366.99,-135.16 393.13,-120.87 413.83,-109.55"/>
<polygon fill="black" stroke="black" points="415.53,-112.6 422.62,-104.74 412.17,-106.46 415.53,-112.6"/>
</g>
<!-- aws&#45;c&#45;auth&#45;&gt;aws&#45;crt&#45;cpp -->
<g id="edge12" class="edge">
<title>aws&#45;c&#45;auth&#45;&gt;aws&#45;crt&#45;cpp</title>
<path fill="none" stroke="black" d="M432.46,-215.82C425.66,-196.19 412.08,-164.15 390.74,-144 373.15,-127.39 349.44,-115.3 328.05,-106.91"/>
<polygon fill="black" stroke="black" points="329,-103.53 318.41,-103.3 326.55,-110.08 329,-103.53"/>
</g>
<!-- aws&#45;c&#45;auth&#45;&gt;aws&#45;c&#45;s3 -->
<g id="edge11" class="edge">
<title>aws&#45;c&#45;auth&#45;&gt;aws&#45;c&#45;s3</title>
<path fill="none" stroke="black" d="M458.15,-216.76C469.98,-207.36 485.04,-195.38 497.94,-185.12"/>
<polygon fill="black" stroke="black" points="500.4,-187.63 506.05,-178.67 496.04,-182.15 500.4,-187.63"/>
</g>
<!-- aws&#45;c&#45;auth&#45;&gt;awscrt -->
<g id="edge13" class="edge">
<title>aws&#45;c&#45;auth&#45;&gt;awscrt</title>
<path fill="none" stroke="black" d="M438.95,-215.87C440.65,-191.67 443.78,-147.21 445.81,-118.39"/>
<polygon fill="black" stroke="black" points="449.32,-118.41 446.53,-108.19 442.34,-117.92 449.32,-118.41"/>
</g>
<!-- aws&#45;crt&#45;cpp&#45;&gt;aws&#45;sdk&#45;cpp -->
<g id="edge14" class="edge">
<title>aws&#45;crt&#45;cpp&#45;&gt;aws&#45;sdk&#45;cpp</title>
<path fill="none" stroke="black" d="M259.57,-72.41C251.64,-63.73 241.78,-52.95 233,-43.34"/>
<polygon fill="black" stroke="black" points="235.57,-40.97 226.24,-35.96 230.41,-45.7 235.57,-40.97"/>
</g>
<!-- aws&#45;c&#45;s3&#45;&gt;aws&#45;crt&#45;cpp -->
<g id="edge15" class="edge">
<title>aws&#45;c&#45;s3&#45;&gt;aws&#45;crt&#45;cpp</title>
<path fill="none" stroke="black" d="M487.35,-150.29C444.91,-138.46 376.25,-119.31 328.48,-105.99"/>
<polygon fill="black" stroke="black" points="329.2,-102.55 318.62,-103.24 327.32,-109.3 329.2,-102.55"/>
</g>
<!-- aws&#45;c&#45;s3&#45;&gt;awscrt -->
<g id="edge16" class="edge">
<title>aws&#45;c&#45;s3&#45;&gt;awscrt</title>
<path fill="none" stroke="black" d="M508.04,-145.12C497.6,-135.74 484.21,-123.73 472.71,-113.41"/>
<polygon fill="black" stroke="black" points="474.88,-110.65 465.1,-106.58 470.21,-115.86 474.88,-110.65"/>
</g>
</g>
</svg>
