<?xml version="1.0" encoding="UTF-8" standalone="no"?>
<!DOCTYPE svg PUBLIC "-//W3C//DTD SVG 1.1//EN"
 "http://www.w3.org/Graphics/SVG/1.1/DTD/svg11.dtd">
<!-- Generated by graphviz version 8.1.0 (20230707.2238)
 -->
<!-- Pages: 1 -->
<svg width="379pt" height="116pt"
 viewBox="0.00 0.00 378.73 116.00" xmlns="http://www.w3.org/2000/svg" xmlns:xlink="http://www.w3.org/1999/xlink">
<g id="graph0" class="graph" transform="scale(1 1) rotate(0) translate(4 112)">
<polygon fill="white" stroke="none" points="-4,4 -4,-112 374.73,-112 374.73,4 -4,4"/>
<!-- gazebo -->
<g id="node1" class="node">
<title>gazebo</title>
<g id="a_node1"><a xlink:href="https://github.com/conda-forge/gazebo-feedstock" xlink:title="gazebo">
<ellipse fill="#fde725" stroke="black" cx="46.47" cy="-18" rx="46.47" ry="18"/>
<text text-anchor="middle" x="46.47" y="-13.32" font-family="Times,serif" font-size="14.00">gazebo</text>
</a>
</g>
</g>
<!-- dartsim -->
<g id="node2" class="node">
<title>dartsim</title>
<g id="a_node2"><a xlink:href="https://github.com/conda-forge/dartsim-feedstock/pull/49" xlink:title="dartsim ❎">
<ellipse fill="#31688e" stroke="black" cx="110.47" cy="-90" rx="65.41" ry="18"/>
<text text-anchor="middle" x="110.47" y="-85.33" font-family="Times,serif" font-size="14.00" fill="white">dartsim ❎</text>
</a>
</g>
</g>
<!-- dartsim&#45;&gt;gazebo -->
<g id="edge1" class="edge">
<title>dartsim&#45;&gt;gazebo</title>
<path fill="none" stroke="black" d="M94.98,-72.05C87.08,-63.42 77.34,-52.76 68.66,-43.27"/>
<polygon fill="black" stroke="black" points="71.71,-41.33 62.38,-36.31 66.55,-46.05 71.71,-41.33"/>
</g>
<!-- gz&#45;physics -->
<g id="node4" class="node">
<title>gz&#45;physics</title>
<g id="a_node4"><a xlink:href="https://github.com/conda-forge/gz-physics-feedstock" xlink:title="gz physics">
<ellipse fill="#fde725" stroke="black" cx="174.47" cy="-18" rx="63.31" ry="18"/>
<text text-anchor="middle" x="174.47" y="-13.32" font-family="Times,serif" font-size="14.00">gz physics</text>
</a>
</g>
</g>
<!-- dartsim&#45;&gt;gz&#45;physics -->
<g id="edge2" class="edge">
<title>dartsim&#45;&gt;gz&#45;physics</title>
<path fill="none" stroke="black" d="M125.97,-72.05C133.75,-63.54 143.32,-53.07 151.91,-43.68"/>
<polygon fill="black" stroke="black" points="153.96,-46.53 158.12,-36.79 148.79,-41.81 153.96,-46.53"/>
</g>
<!-- panda3d -->
<g id="node3" class="node">
<title>panda3d</title>
<g id="a_node3"><a xlink:href="https://github.com/conda-forge/panda3d-feedstock/pull/40" xlink:title="panda3d ✓">
<ellipse fill="#31688e" stroke="black" cx="308.47" cy="-54" rx="62.26" ry="18"/>
<text text-anchor="middle" x="308.47" y="-49.33" font-family="Times,serif" font-size="14.00" fill="white">panda3d ✓</text>
</a>
</g>
</g>
</g>
</svg>
