<?xml version="1.0" encoding="UTF-8" standalone="no"?>
<!DOCTYPE svg PUBLIC "-//W3C//DTD SVG 1.1//EN"
 "http://www.w3.org/Graphics/SVG/1.1/DTD/svg11.dtd">
<!-- Generated by graphviz version 8.1.0 (20230707.2238)
 -->
<!-- Pages: 1 -->
<svg width="1038pt" height="808pt"
 viewBox="0.00 0.00 1038.05 808.00" xmlns="http://www.w3.org/2000/svg" xmlns:xlink="http://www.w3.org/1999/xlink">
<g id="graph0" class="graph" transform="scale(1 1) rotate(0) translate(4 804)">
<polygon fill="white" stroke="none" points="-4,4 -4,-804 1034.05,-804 1034.05,4 -4,4"/>
<!-- casacore -->
<g id="node1" class="node">
<title>casacore</title>
<g id="a_node1"><a xlink:href="https://github.com/conda-forge/casacore-feedstock" xlink:title="casacore">
<ellipse fill="#ff8c00" stroke="black" cx="158.53" cy="-782" rx="54.89" ry="18"/>
<text text-anchor="middle" x="158.53" y="-777.33" font-family="Times,serif" font-size="14.00">casacore</text>
</a>
</g>
</g>
<!-- healpix_cxx -->
<g id="node2" class="node">
<title>healpix_cxx</title>
<g id="a_node2"><a xlink:href="https://github.com/conda-forge/healpix_cxx-feedstock/pull/28" xlink:title="healpix_cxx ✓">
<ellipse fill="#31688e" stroke="black" cx="158.53" cy="-710" rx="76.99" ry="18"/>
<text text-anchor="middle" x="158.53" y="-705.33" font-family="Times,serif" font-size="14.00" fill="white">healpix_cxx ✓</text>
</a>
</g>
</g>
<!-- casacore&#45;&gt;healpix_cxx -->
<!-- ccfits -->
<g id="node3" class="node">
<title>ccfits</title>
<g id="a_node3"><a xlink:href="https://github.com/conda-forge/ccfits-feedstock/pull/12" xlink:title="ccfits ✓">
<ellipse fill="#31688e" stroke="black" cx="158.53" cy="-638" rx="45.42" ry="18"/>
<text text-anchor="middle" x="158.53" y="-633.33" font-family="Times,serif" font-size="14.00" fill="white">ccfits ✓</text>
</a>
</g>
</g>
<!-- healpix_cxx&#45;&gt;ccfits -->
<!-- numcosmo -->
<g id="node10" class="node">
<title>numcosmo</title>
<g id="a_node10"><a xlink:href="https://github.com/conda-forge/numcosmo-feedstock/pull/38" xlink:title="numcosmo ✓">
<ellipse fill="#31688e" stroke="black" cx="158.53" cy="-566" rx="72.78" ry="18"/>
<text text-anchor="middle" x="158.53" y="-561.33" font-family="Times,serif" font-size="14.00" fill="white">numcosmo ✓</text>
</a>
</g>
</g>
<!-- ccfits&#45;&gt;numcosmo -->
<!-- healpy -->
<g id="node4" class="node">
<title>healpy</title>
<g id="a_node4"><a xlink:href="https://github.com/conda-forge/healpy-feedstock/pull/57" xlink:title="healpy ❎">
<ellipse fill="#31688e" stroke="black" cx="599.53" cy="-494" rx="59.63" ry="18"/>
<text text-anchor="middle" x="599.53" y="-489.32" font-family="Times,serif" font-size="14.00" fill="white">healpy ❎</text>
</a>
</g>
</g>
<!-- lalpulsar -->
<g id="node5" class="node">
<title>lalpulsar</title>
<g id="a_node5"><a xlink:href="https://github.com/conda-forge/lalpulsar-feedstock" xlink:title="lalpulsar">
<ellipse fill="#fde725" stroke="black" cx="516.53" cy="-422" rx="54.89" ry="18"/>
<text text-anchor="middle" x="516.53" y="-417.32" font-family="Times,serif" font-size="14.00">lalpulsar</text>
</a>
</g>
</g>
<!-- healpy&#45;&gt;lalpulsar -->
<g id="edge3" class="edge">
<title>healpy&#45;&gt;lalpulsar</title>
<path fill="none" stroke="black" d="M580.28,-476.76C569.49,-467.66 555.86,-456.16 543.96,-446.13"/>
<polygon fill="black" stroke="black" points="546.58,-442.92 536.68,-439.15 542.07,-448.27 546.58,-442.92"/>
</g>
<!-- namaster -->
<g id="node6" class="node">
<title>namaster</title>
<g id="a_node6"><a xlink:href="https://github.com/conda-forge/namaster-feedstock" xlink:title="namaster">
<ellipse fill="#fde725" stroke="black" cx="385.53" cy="-422" rx="58.57" ry="18"/>
<text text-anchor="middle" x="385.53" y="-417.32" font-family="Times,serif" font-size="14.00">namaster</text>
</a>
</g>
</g>
<!-- healpy&#45;&gt;namaster -->
<g id="edge4" class="edge">
<title>healpy&#45;&gt;namaster</title>
<path fill="none" stroke="black" d="M560.03,-480.08C524.71,-468.52 472.79,-451.54 434.77,-439.11"/>
<polygon fill="black" stroke="black" points="436.04,-435.51 425.44,-435.73 433.86,-442.16 436.04,-435.51"/>
</g>
<!-- lalapps -->
<g id="node7" class="node">
<title>lalapps</title>
<g id="a_node7"><a xlink:href="https://github.com/conda-forge/lalapps-feedstock" xlink:title="lalapps">
<ellipse fill="#fde725" stroke="black" cx="514.53" cy="-350" rx="47" ry="18"/>
<text text-anchor="middle" x="514.53" y="-345.32" font-family="Times,serif" font-size="14.00">lalapps</text>
</a>
</g>
</g>
<!-- healpy&#45;&gt;lalapps -->
<g id="edge5" class="edge">
<title>healpy&#45;&gt;lalapps</title>
<path fill="none" stroke="black" d="M599.22,-475.67C598.15,-456.75 594.21,-426.19 580.53,-404 572.67,-391.24 560.6,-380.23 548.91,-371.61"/>
<polygon fill="black" stroke="black" points="551.34,-368.34 541.13,-365.49 547.34,-374.08 551.34,-368.34"/>
</g>
<!-- rubinenv -->
<g id="node8" class="node">
<title>rubinenv</title>
<g id="a_node8"><a xlink:href="https://github.com/conda-forge/rubinenv-feedstock" xlink:title="rubinenv">
<ellipse fill="#fde725" stroke="black" cx="734.53" cy="-422" rx="55.94" ry="18"/>
<text text-anchor="middle" x="734.53" y="-417.32" font-family="Times,serif" font-size="14.00">rubinenv</text>
</a>
</g>
</g>
<!-- healpy&#45;&gt;rubinenv -->
<g id="edge6" class="edge">
<title>healpy&#45;&gt;rubinenv</title>
<path fill="none" stroke="black" d="M628.5,-477.98C648.38,-467.67 674.98,-453.88 696.56,-442.69"/>
<polygon fill="black" stroke="black" points="697.82,-445.46 705.08,-437.75 694.6,-439.25 697.82,-445.46"/>
</g>
<!-- des&#45;eastlake -->
<g id="node9" class="node">
<title>des&#45;eastlake</title>
<g id="a_node9"><a xlink:href="https://github.com/conda-forge/des-eastlake-feedstock" xlink:title="des eastlake">
<ellipse fill="#fde725" stroke="black" cx="652.53" cy="-350" rx="73.3" ry="18"/>
<text text-anchor="middle" x="652.53" y="-345.32" font-family="Times,serif" font-size="14.00">des eastlake</text>
</a>
</g>
</g>
<!-- healpy&#45;&gt;des&#45;eastlake -->
<g id="edge7" class="edge">
<title>healpy&#45;&gt;des&#45;eastlake</title>
<path fill="none" stroke="black" d="M605.93,-475.87C614.96,-451.67 631.55,-407.21 642.31,-378.39"/>
<polygon fill="black" stroke="black" points="645.9,-379.78 646.12,-369.19 639.34,-377.33 645.9,-379.78"/>
</g>
<!-- lalpulsar&#45;&gt;lalapps -->
<g id="edge8" class="edge">
<title>lalpulsar&#45;&gt;lalapps</title>
<path fill="none" stroke="black" d="M516.04,-403.7C515.83,-396.24 515.57,-387.32 515.33,-378.97"/>
<polygon fill="black" stroke="black" points="518.81,-379 515.02,-369.1 511.81,-379.2 518.81,-379"/>
</g>
<!-- astrometry -->
<g id="node11" class="node">
<title>astrometry</title>
<g id="a_node11"><a xlink:href="https://github.com/conda-forge/astrometry-feedstock" xlink:title="astrometry">
<ellipse fill="#ff8c00" stroke="black" cx="158.53" cy="-494" rx="66.99" ry="18"/>
<text text-anchor="middle" x="158.53" y="-489.32" font-family="Times,serif" font-size="14.00">astrometry</text>
</a>
</g>
</g>
<!-- numcosmo&#45;&gt;astrometry -->
<!-- astromatic&#45;source&#45;extractor -->
<g id="node16" class="node">
<title>astromatic&#45;source&#45;extractor</title>
<g id="a_node16"><a xlink:href="https://github.com/conda-forge/astromatic-source-extractor-feedstock/pull/10" xlink:title="astromatic source extractor ✓">
<ellipse fill="#31688e" stroke="black" cx="158.53" cy="-422" rx="158.53" ry="18"/>
<text text-anchor="middle" x="158.53" y="-417.32" font-family="Times,serif" font-size="14.00" fill="white">astromatic source extractor ✓</text>
</a>
</g>
</g>
<!-- astrometry&#45;&gt;astromatic&#45;source&#45;extractor -->
<!-- chealpix -->
<g id="node12" class="node">
<title>chealpix</title>
<g id="a_node12"><a xlink:href="https://github.com/conda-forge/chealpix-feedstock/pull/10" xlink:title="chealpix ✓">
<ellipse fill="#31688e" stroke="black" cx="385.53" cy="-494" rx="60.68" ry="18"/>
<text text-anchor="middle" x="385.53" y="-489.32" font-family="Times,serif" font-size="14.00" fill="white">chealpix ✓</text>
</a>
</g>
</g>
<!-- chealpix&#45;&gt;namaster -->
<g id="edge11" class="edge">
<title>chealpix&#45;&gt;namaster</title>
<path fill="none" stroke="black" d="M385.53,-475.7C385.53,-468.24 385.53,-459.32 385.53,-450.97"/>
<polygon fill="black" stroke="black" points="389.03,-451.1 385.53,-441.1 382.03,-451.1 389.03,-451.1"/>
</g>
<!-- root -->
<g id="node13" class="node">
<title>root</title>
<g id="a_node13"><a xlink:href="https://github.com/conda-forge/root-feedstock/pull/211" xlink:title="root ❎">
<ellipse fill="#31688e" stroke="black" cx="727.53" cy="-494" rx="47" ry="18"/>
<text text-anchor="middle" x="727.53" y="-489.32" font-family="Times,serif" font-size="14.00" fill="white">root ❎</text>
</a>
</g>
</g>
<!-- root&#45;&gt;rubinenv -->
<g id="edge12" class="edge">
<title>root&#45;&gt;rubinenv</title>
<path fill="none" stroke="black" d="M729.26,-475.7C730.01,-468.24 730.9,-459.32 731.74,-450.97"/>
<polygon fill="black" stroke="black" points="735.31,-451.4 732.82,-441.1 728.35,-450.71 735.31,-451.4"/>
</g>
<!-- photospline -->
<g id="node14" class="node">
<title>photospline</title>
<g id="a_node14"><a xlink:href="https://github.com/conda-forge/photospline-feedstock/pull/27" xlink:title="photospline ✓">
<ellipse fill="#31688e" stroke="black" cx="952.53" cy="-494" rx="77.52" ry="18"/>
<text text-anchor="middle" x="952.53" y="-489.32" font-family="Times,serif" font-size="14.00" fill="white">photospline ✓</text>
</a>
</g>
</g>
<!-- nuflux -->
<g id="node15" class="node">
<title>nuflux</title>
<g id="a_node15"><a xlink:href="https://github.com/conda-forge/nuflux-feedstock" xlink:title="nuflux">
<ellipse fill="#fde725" stroke="black" cx="952.53" cy="-422" rx="42.26" ry="18"/>
<text text-anchor="middle" x="952.53" y="-417.32" font-family="Times,serif" font-size="14.00">nuflux</text>
</a>
</g>
</g>
<!-- photospline&#45;&gt;nuflux -->
<g id="edge13" class="edge">
<title>photospline&#45;&gt;nuflux</title>
<path fill="none" stroke="black" d="M952.53,-475.7C952.53,-468.24 952.53,-459.32 952.53,-450.97"/>
<polygon fill="black" stroke="black" points="956.03,-451.1 952.53,-441.1 949.03,-451.1 956.03,-451.1"/>
</g>
<!-- gnuastro -->
<g id="node17" class="node">
<title>gnuastro</title>
<g id="a_node17"><a xlink:href="https://github.com/conda-forge/gnuastro-feedstock/pull/33" xlink:title="gnuastro ✓">
<ellipse fill="#31688e" stroke="black" cx="158.53" cy="-350" rx="63.84" ry="18"/>
<text text-anchor="middle" x="158.53" y="-345.32" font-family="Times,serif" font-size="14.00" fill="white">gnuastro ✓</text>
</a>
</g>
</g>
<!-- astromatic&#45;source&#45;extractor&#45;&gt;gnuastro -->
<!-- hstcal -->
<g id="node18" class="node">
<title>hstcal</title>
<g id="a_node18"><a xlink:href="https://github.com/conda-forge/hstcal-feedstock/pull/12" xlink:title="hstcal ✓">
<ellipse fill="#31688e" stroke="black" cx="158.53" cy="-278" rx="49.1" ry="18"/>
<text text-anchor="middle" x="158.53" y="-273.32" font-family="Times,serif" font-size="14.00" fill="white">hstcal ✓</text>
</a>
</g>
</g>
<!-- gnuastro&#45;&gt;hstcal -->
<!-- cpl -->
<g id="node21" class="node">
<title>cpl</title>
<g id="a_node21"><a xlink:href="https://github.com/conda-forge/cpl-feedstock/pull/16" xlink:title="cpl ✓">
<ellipse fill="#31688e" stroke="black" cx="158.53" cy="-206" rx="33.85" ry="18"/>
<text text-anchor="middle" x="158.53" y="-201.33" font-family="Times,serif" font-size="14.00" fill="white">cpl ✓</text>
</a>
</g>
</g>
<!-- hstcal&#45;&gt;cpl -->
<!-- psrchive -->
<g id="node19" class="node">
<title>psrchive</title>
<g id="a_node19"><a xlink:href="https://github.com/conda-forge/psrchive-feedstock/pull/37" xlink:title="psrchive ❎">
<ellipse fill="#31688e" stroke="black" cx="158.53" cy="-90" rx="69.1" ry="18"/>
<text text-anchor="middle" x="158.53" y="-85.33" font-family="Times,serif" font-size="14.00" fill="white">psrchive ❎</text>
</a>
</g>
</g>
<!-- dspsr -->
<g id="node20" class="node">
<title>dspsr</title>
<g id="a_node20"><a xlink:href="https://github.com/conda-forge/dspsr-feedstock" xlink:title="dspsr">
<ellipse fill="#fde725" stroke="black" cx="158.53" cy="-18" rx="39.11" ry="18"/>
<text text-anchor="middle" x="158.53" y="-13.32" font-family="Times,serif" font-size="14.00">dspsr</text>
</a>
</g>
</g>
<!-- psrchive&#45;&gt;dspsr -->
<g id="edge17" class="edge">
<title>psrchive&#45;&gt;dspsr</title>
<path fill="none" stroke="black" d="M158.53,-71.7C158.53,-64.24 158.53,-55.32 158.53,-46.97"/>
<polygon fill="black" stroke="black" points="162.03,-47.1 158.53,-37.1 155.03,-47.1 162.03,-47.1"/>
</g>
<!-- lenstool -->
<g id="node23" class="node">
<title>lenstool</title>
<g id="a_node23"><a xlink:href="https://github.com/conda-forge/lenstool-feedstock" xlink:title="lenstool">
<ellipse fill="#ff8c00" stroke="black" cx="158.53" cy="-134" rx="50.68" ry="18"/>
<text text-anchor="middle" x="158.53" y="-129.32" font-family="Times,serif" font-size="14.00">lenstool</text>
</a>
</g>
</g>
<!-- cpl&#45;&gt;lenstool -->
<!-- fitsverify -->
<g id="node22" class="node">
<title>fitsverify</title>
<g id="a_node22"><a xlink:href="https://github.com/conda-forge/fitsverify-feedstock/pull/10" xlink:title="fitsverify ✓">
<ellipse fill="#31688e" stroke="black" cx="802.53" cy="-566" rx="63.84" ry="18"/>
<text text-anchor="middle" x="802.53" y="-561.33" font-family="Times,serif" font-size="14.00" fill="white">fitsverify ✓</text>
</a>
</g>
</g>
<!-- fitsverify&#45;&gt;rubinenv -->
<g id="edge19" class="edge">
<title>fitsverify&#45;&gt;rubinenv</title>
<path fill="none" stroke="black" d="M801.56,-547.69C799.9,-529.06 795.46,-499 783.53,-476 778.03,-465.38 769.81,-455.31 761.67,-446.85"/>
<polygon fill="black" stroke="black" points="764.57,-444.8 754.99,-440.28 759.65,-449.79 764.57,-444.8"/>
</g>
</g>
</svg>
