<?xml version="1.0" encoding="UTF-8" standalone="no"?>
<!DOCTYPE svg PUBLIC "-//W3C//DTD SVG 1.1//EN"
 "http://www.w3.org/Graphics/SVG/1.1/DTD/svg11.dtd">
<!-- Generated by graphviz version 9.0.0 (20231125.0833)
 -->
<!-- Pages: 1 -->
<svg width="1225pt" height="664pt"
 viewBox="0.00 0.00 1224.73 664.00" xmlns="http://www.w3.org/2000/svg" xmlns:xlink="http://www.w3.org/1999/xlink">
<g id="graph0" class="graph" transform="scale(1 1) rotate(0) translate(4 660)">
<polygon fill="white" stroke="none" points="-4,4 -4,-660 1220.73,-660 1220.73,4 -4,4"/>
<!-- casacore -->
<g id="node1" class="node">
<title>casacore</title>
<g id="a_node1"><a xlink:href="https://github.com/conda-forge/casacore-feedstock" xlink:title="casacore">
<ellipse fill="#fde725" stroke="black" cx="54.89" cy="-422" rx="54.89" ry="18"/>
<text text-anchor="middle" x="54.89" y="-417.32" font-family="Times,serif" font-size="14.00">casacore</text>
</a>
</g>
</g>
<!-- gdal -->
<g id="node2" class="node">
<title>gdal</title>
<g id="a_node2"><a xlink:href="https://github.com/conda-forge/gdal-feedstock/pull/860" xlink:title="gdal ❎">
<ellipse fill="#31688e" stroke="black" cx="313.89" cy="-494" rx="48.05" ry="18"/>
<text text-anchor="middle" x="313.89" y="-489.32" font-family="Times,serif" font-size="14.00" fill="white">gdal ❎</text>
</a>
</g>
</g>
<!-- rubinenv -->
<g id="node3" class="node">
<title>rubinenv</title>
<g id="a_node3"><a xlink:href="https://github.com/conda-forge/rubinenv-feedstock" xlink:title="rubinenv">
<ellipse fill="#fde725" stroke="black" cx="387.89" cy="-422" rx="55.94" ry="18"/>
<text text-anchor="middle" x="387.89" y="-417.32" font-family="Times,serif" font-size="14.00">rubinenv</text>
</a>
</g>
</g>
<!-- gdal&#45;&gt;rubinenv -->
<g id="edge1" class="edge">
<title>gdal&#45;&gt;rubinenv</title>
<path fill="none" stroke="black" d="M331.05,-476.76C340.33,-467.99 351.96,-456.99 362.28,-447.22"/>
<polygon fill="black" stroke="black" points="364.61,-449.84 369.46,-440.43 359.79,-444.76 364.61,-449.84"/>
</g>
<!-- healpix_cxx -->
<g id="node4" class="node">
<title>healpix_cxx</title>
<g id="a_node4"><a xlink:href="https://github.com/conda-forge/healpix_cxx-feedstock" xlink:title="healpix_cxx">
<ellipse fill="#35b779" stroke="black" cx="950.89" cy="-566" rx="69.1" ry="18"/>
<text text-anchor="middle" x="950.89" y="-561.33" font-family="Times,serif" font-size="14.00">healpix_cxx</text>
</a>
</g>
</g>
<!-- ccfits -->
<g id="node5" class="node">
<title>ccfits</title>
<g id="a_node5"><a xlink:href="https://github.com/conda-forge/ccfits-feedstock" xlink:title="ccfits">
<ellipse fill="#35b779" stroke="black" cx="950.89" cy="-494" rx="37.53" ry="18"/>
<text text-anchor="middle" x="950.89" y="-489.32" font-family="Times,serif" font-size="14.00">ccfits</text>
</a>
</g>
</g>
<!-- healpix_cxx&#45;&gt;ccfits -->
<!-- numcosmo -->
<g id="node16" class="node">
<title>numcosmo</title>
<g id="a_node16"><a xlink:href="https://github.com/conda-forge/numcosmo-feedstock" xlink:title="numcosmo">
<ellipse fill="#35b779" stroke="black" cx="950.89" cy="-422" rx="64.89" ry="18"/>
<text text-anchor="middle" x="950.89" y="-417.32" font-family="Times,serif" font-size="14.00">numcosmo</text>
</a>
</g>
</g>
<!-- ccfits&#45;&gt;numcosmo -->
<!-- healpy -->
<g id="node6" class="node">
<title>healpy</title>
<g id="a_node6"><a xlink:href="https://github.com/conda-forge/healpy-feedstock" xlink:title="healpy">
<ellipse fill="#35b779" stroke="black" cx="599.89" cy="-494" rx="44.37" ry="18"/>
<text text-anchor="middle" x="599.89" y="-489.32" font-family="Times,serif" font-size="14.00">healpy</text>
</a>
</g>
</g>
<!-- healpy&#45;&gt;rubinenv -->
<g id="edge3" class="edge">
<title>healpy&#45;&gt;rubinenv</title>
<path fill="none" stroke="black" d="M566.3,-481.91C531.4,-470.39 476.45,-452.24 436.75,-439.13"/>
<polygon fill="black" stroke="black" points="438.01,-435.86 427.42,-436.05 435.82,-442.51 438.01,-435.86"/>
</g>
<!-- lalpulsar -->
<g id="node7" class="node">
<title>lalpulsar</title>
<g id="a_node7"><a xlink:href="https://github.com/conda-forge/lalpulsar-feedstock" xlink:title="lalpulsar">
<ellipse fill="#fde725" stroke="black" cx="516.89" cy="-422" rx="54.89" ry="18"/>
<text text-anchor="middle" x="516.89" y="-417.32" font-family="Times,serif" font-size="14.00">lalpulsar</text>
</a>
</g>
</g>
<!-- healpy&#45;&gt;lalpulsar -->
<g id="edge4" class="edge">
<title>healpy&#45;&gt;lalpulsar</title>
<path fill="none" stroke="black" d="M581.47,-477.46C570.63,-468.32 556.72,-456.59 544.58,-446.35"/>
<polygon fill="black" stroke="black" points="547.18,-443.97 537.28,-440.2 542.67,-449.32 547.18,-443.97"/>
</g>
<!-- namaster -->
<g id="node8" class="node">
<title>namaster</title>
<g id="a_node8"><a xlink:href="https://github.com/conda-forge/namaster-feedstock" xlink:title="namaster">
<ellipse fill="#fde725" stroke="black" cx="732.89" cy="-422" rx="58.57" ry="18"/>
<text text-anchor="middle" x="732.89" y="-417.32" font-family="Times,serif" font-size="14.00">namaster</text>
</a>
</g>
</g>
<!-- healpy&#45;&gt;namaster -->
<g id="edge5" class="edge">
<title>healpy&#45;&gt;namaster</title>
<path fill="none" stroke="black" d="M626.17,-479.17C645.64,-468.92 672.49,-454.79 694.39,-443.27"/>
<polygon fill="black" stroke="black" points="695.81,-446.47 703.03,-438.72 692.55,-440.28 695.81,-446.47"/>
</g>
<!-- lalapps -->
<g id="node9" class="node">
<title>lalapps</title>
<g id="a_node9"><a xlink:href="https://github.com/conda-forge/lalapps-feedstock" xlink:title="lalapps">
<ellipse fill="#fde725" stroke="black" cx="511.89" cy="-350" rx="47" ry="18"/>
<text text-anchor="middle" x="511.89" y="-345.32" font-family="Times,serif" font-size="14.00">lalapps</text>
</a>
</g>
</g>
<!-- healpy&#45;&gt;lalapps -->
<g id="edge6" class="edge">
<title>healpy&#45;&gt;lalapps</title>
<path fill="none" stroke="black" d="M599.67,-475.61C598.68,-456.64 594.81,-426.04 580.89,-404 572.75,-391.1 560.29,-380.13 548.19,-371.57"/>
<polygon fill="black" stroke="black" points="550.18,-368.69 539.91,-366.07 546.31,-374.52 550.18,-368.69"/>
</g>
<!-- des&#45;eastlake -->
<g id="node10" class="node">
<title>des&#45;eastlake</title>
<g id="a_node10"><a xlink:href="https://github.com/conda-forge/des-eastlake-feedstock" xlink:title="des eastlake">
<ellipse fill="#fde725" stroke="black" cx="649.89" cy="-350" rx="73.3" ry="18"/>
<text text-anchor="middle" x="649.89" y="-345.32" font-family="Times,serif" font-size="14.00">des eastlake</text>
</a>
</g>
</g>
<!-- healpy&#45;&gt;des&#45;eastlake -->
<g id="edge7" class="edge">
<title>healpy&#45;&gt;des&#45;eastlake</title>
<path fill="none" stroke="black" d="M605.92,-475.87C614.41,-451.78 629.96,-407.6 640.11,-378.77"/>
<polygon fill="black" stroke="black" points="643.32,-380.21 643.34,-369.62 636.71,-377.89 643.32,-380.21"/>
</g>
<!-- lalpulsar&#45;&gt;lalapps -->
<g id="edge8" class="edge">
<title>lalpulsar&#45;&gt;lalapps</title>
<path fill="none" stroke="black" d="M515.65,-403.7C515.13,-396.41 514.51,-387.73 513.93,-379.54"/>
<polygon fill="black" stroke="black" points="517.42,-379.34 513.22,-369.61 510.44,-379.84 517.42,-379.34"/>
</g>
<!-- wcslib -->
<g id="node11" class="node">
<title>wcslib</title>
<g id="a_node11"><a xlink:href="https://github.com/conda-forge/wcslib-feedstock" xlink:title="wcslib">
<ellipse fill="#35b779" stroke="black" cx="204.89" cy="-494" rx="42.79" ry="18"/>
<text text-anchor="middle" x="204.89" y="-489.32" font-family="Times,serif" font-size="14.00">wcslib</text>
</a>
</g>
</g>
<!-- wcslib&#45;&gt;casacore -->
<g id="edge9" class="edge">
<title>wcslib&#45;&gt;casacore</title>
<path fill="none" stroke="black" d="M177.03,-480C154.17,-469.33 121.48,-454.08 95.67,-442.03"/>
<polygon fill="black" stroke="black" points="97.36,-438.95 86.81,-437.9 94.4,-445.3 97.36,-438.95"/>
</g>
<!-- wcslib&#45;&gt;rubinenv -->
<g id="edge10" class="edge">
<title>wcslib&#45;&gt;rubinenv</title>
<path fill="none" stroke="black" d="M235.93,-481.13C265.2,-469.93 309.39,-453.03 342.58,-440.33"/>
<polygon fill="black" stroke="black" points="343.44,-443.75 351.53,-436.91 340.94,-437.21 343.44,-443.75"/>
</g>
<!-- astrometry -->
<g id="node12" class="node">
<title>astrometry</title>
<g id="a_node12"><a xlink:href="https://github.com/conda-forge/astrometry-feedstock" xlink:title="astrometry">
<ellipse fill="#fde725" stroke="black" cx="109.89" cy="-350" rx="66.99" ry="18"/>
<text text-anchor="middle" x="109.89" y="-345.32" font-family="Times,serif" font-size="14.00">astrometry</text>
</a>
</g>
</g>
<!-- wcslib&#45;&gt;astrometry -->
<g id="edge11" class="edge">
<title>wcslib&#45;&gt;astrometry</title>
<path fill="none" stroke="black" d="M193.62,-476.15C177.26,-451.71 146.8,-406.17 127.48,-377.29"/>
<polygon fill="black" stroke="black" points="130.46,-375.45 121.99,-369.08 124.64,-379.34 130.46,-375.45"/>
</g>
<!-- gnuastro -->
<g id="node13" class="node">
<title>gnuastro</title>
<g id="a_node13"><a xlink:href="https://github.com/conda-forge/gnuastro-feedstock" xlink:title="gnuastro">
<ellipse fill="#fde725" stroke="black" cx="162.89" cy="-278" rx="55.94" ry="18"/>
<text text-anchor="middle" x="162.89" y="-273.32" font-family="Times,serif" font-size="14.00">gnuastro</text>
</a>
</g>
</g>
<!-- wcslib&#45;&gt;gnuastro -->
<g id="edge12" class="edge">
<title>wcslib&#45;&gt;gnuastro</title>
<path fill="none" stroke="black" d="M204.5,-475.77C203.46,-445.97 199.67,-383.09 185.89,-332 183.59,-323.48 180.16,-314.55 176.64,-306.51"/>
<polygon fill="black" stroke="black" points="179.88,-305.19 172.52,-297.58 173.53,-308.12 179.88,-305.19"/>
</g>
<!-- cpl -->
<g id="node14" class="node">
<title>cpl</title>
<g id="a_node14"><a xlink:href="https://github.com/conda-forge/cpl-feedstock" xlink:title="cpl">
<ellipse fill="#fde725" stroke="black" cx="246.89" cy="-206" rx="27" ry="18"/>
<text text-anchor="middle" x="246.89" y="-201.33" font-family="Times,serif" font-size="14.00">cpl</text>
</a>
</g>
</g>
<!-- wcslib&#45;&gt;cpl -->
<g id="edge13" class="edge">
<title>wcslib&#45;&gt;cpl</title>
<path fill="none" stroke="black" d="M208.77,-475.87C211.04,-465.52 213.84,-452.04 215.89,-440 228.37,-366.64 238.8,-279.57 243.77,-235.54"/>
<polygon fill="black" stroke="black" points="247.22,-236.14 244.85,-225.81 240.27,-235.36 247.22,-236.14"/>
</g>
<!-- lenstool -->
<g id="node15" class="node">
<title>lenstool</title>
<g id="a_node15"><a xlink:href="https://github.com/conda-forge/lenstool-feedstock" xlink:title="lenstool">
<ellipse fill="#fde725" stroke="black" cx="301.89" cy="-134" rx="50.68" ry="18"/>
<text text-anchor="middle" x="301.89" y="-129.32" font-family="Times,serif" font-size="14.00">lenstool</text>
</a>
</g>
</g>
<!-- wcslib&#45;&gt;lenstool -->
<g id="edge14" class="edge">
<title>wcslib&#45;&gt;lenstool</title>
<path fill="none" stroke="black" d="M224.52,-477.88C252.86,-454.19 301.89,-405.34 301.89,-351 301.89,-351 301.89,-351 301.89,-277 301.89,-237.74 301.89,-192.38 301.89,-163.69"/>
<polygon fill="black" stroke="black" points="305.39,-164 301.89,-154 298.39,-164 305.39,-164"/>
</g>
<!-- libvips -->
<g id="node17" class="node">
<title>libvips</title>
<g id="a_node17"><a xlink:href="https://github.com/conda-forge/libvips-feedstock" xlink:title="libvips">
<ellipse fill="#35b779" stroke="black" cx="950.89" cy="-350" rx="44.37" ry="18"/>
<text text-anchor="middle" x="950.89" y="-345.32" font-family="Times,serif" font-size="14.00">libvips</text>
</a>
</g>
</g>
<!-- numcosmo&#45;&gt;libvips -->
<!-- astromatic&#45;source&#45;extractor -->
<g id="node22" class="node">
<title>astromatic&#45;source&#45;extractor</title>
<g id="a_node22"><a xlink:href="https://github.com/conda-forge/astromatic-source-extractor-feedstock" xlink:title="astromatic source extractor">
<ellipse fill="#35b779" stroke="black" cx="950.89" cy="-278" rx="150.64" ry="18"/>
<text text-anchor="middle" x="950.89" y="-273.32" font-family="Times,serif" font-size="14.00">astromatic source extractor</text>
</a>
</g>
</g>
<!-- libvips&#45;&gt;astromatic&#45;source&#45;extractor -->
<!-- chealpix -->
<g id="node18" class="node">
<title>chealpix</title>
<g id="a_node18"><a xlink:href="https://github.com/conda-forge/chealpix-feedstock" xlink:title="chealpix">
<ellipse fill="#35b779" stroke="black" cx="732.89" cy="-494" rx="52.79" ry="18"/>
<text text-anchor="middle" x="732.89" y="-489.32" font-family="Times,serif" font-size="14.00">chealpix</text>
</a>
</g>
</g>
<!-- chealpix&#45;&gt;namaster -->
<g id="edge17" class="edge">
<title>chealpix&#45;&gt;namaster</title>
<path fill="none" stroke="black" d="M732.89,-475.7C732.89,-468.41 732.89,-459.73 732.89,-451.54"/>
<polygon fill="black" stroke="black" points="736.39,-451.62 732.89,-441.62 729.39,-451.62 736.39,-451.62"/>
</g>
<!-- root -->
<g id="node19" class="node">
<title>root</title>
<g id="a_node19"><a xlink:href="https://github.com/conda-forge/root-feedstock" xlink:title="root">
<ellipse fill="#35b779" stroke="black" cx="389.89" cy="-566" rx="31.74" ry="18"/>
<text text-anchor="middle" x="389.89" y="-561.33" font-family="Times,serif" font-size="14.00">root</text>
</a>
</g>
</g>
<!-- root&#45;&gt;rubinenv -->
<g id="edge18" class="edge">
<title>root&#45;&gt;rubinenv</title>
<path fill="none" stroke="black" d="M389.65,-547.59C389.31,-523.61 388.7,-480.14 388.29,-451.42"/>
<polygon fill="black" stroke="black" points="391.79,-451.57 388.15,-441.62 384.79,-451.67 391.79,-451.57"/>
</g>
<!-- photospline -->
<g id="node20" class="node">
<title>photospline</title>
<g id="a_node20"><a xlink:href="https://github.com/conda-forge/photospline-feedstock" xlink:title="photospline">
<ellipse fill="#35b779" stroke="black" cx="395.89" cy="-90" rx="69.62" ry="18"/>
<text text-anchor="middle" x="395.89" y="-85.33" font-family="Times,serif" font-size="14.00">photospline</text>
</a>
</g>
</g>
<!-- nuflux -->
<g id="node21" class="node">
<title>nuflux</title>
<g id="a_node21"><a xlink:href="https://github.com/conda-forge/nuflux-feedstock" xlink:title="nuflux">
<ellipse fill="#fde725" stroke="black" cx="395.89" cy="-18" rx="42.26" ry="18"/>
<text text-anchor="middle" x="395.89" y="-13.32" font-family="Times,serif" font-size="14.00">nuflux</text>
</a>
</g>
</g>
<!-- photospline&#45;&gt;nuflux -->
<g id="edge19" class="edge">
<title>photospline&#45;&gt;nuflux</title>
<path fill="none" stroke="black" d="M395.89,-71.7C395.89,-64.41 395.89,-55.73 395.89,-47.54"/>
<polygon fill="black" stroke="black" points="399.39,-47.62 395.89,-37.62 392.39,-47.62 399.39,-47.62"/>
</g>
<!-- hstcal -->
<g id="node23" class="node">
<title>hstcal</title>
<g id="a_node23"><a xlink:href="https://github.com/conda-forge/hstcal-feedstock" xlink:title="hstcal">
<ellipse fill="#35b779" stroke="black" cx="950.89" cy="-206" rx="41.21" ry="18"/>
<text text-anchor="middle" x="950.89" y="-201.32" font-family="Times,serif" font-size="14.00">hstcal</text>
</a>
</g>
</g>
<!-- astromatic&#45;source&#45;extractor&#45;&gt;hstcal -->
<!-- tempo2 -->
<g id="node24" class="node">
<title>tempo2</title>
<g id="a_node24"><a xlink:href="https://github.com/conda-forge/tempo2-feedstock" xlink:title="tempo2">
<ellipse fill="#35b779" stroke="black" cx="1162.89" cy="-458" rx="49.1" ry="18"/>
<text text-anchor="middle" x="1162.89" y="-453.32" font-family="Times,serif" font-size="14.00">tempo2</text>
</a>
</g>
</g>
<!-- psrchive -->
<g id="node25" class="node">
<title>psrchive</title>
<g id="a_node25"><a xlink:href="https://github.com/conda-forge/psrchive-feedstock" xlink:title="psrchive">
<ellipse fill="#fde725" stroke="black" cx="1162.89" cy="-386" rx="53.84" ry="18"/>
<text text-anchor="middle" x="1162.89" y="-381.32" font-family="Times,serif" font-size="14.00">psrchive</text>
</a>
</g>
</g>
<!-- tempo2&#45;&gt;psrchive -->
<g id="edge22" class="edge">
<title>tempo2&#45;&gt;psrchive</title>
<path fill="none" stroke="black" d="M1162.89,-439.7C1162.89,-432.41 1162.89,-423.73 1162.89,-415.54"/>
<polygon fill="black" stroke="black" points="1166.39,-415.62 1162.89,-405.62 1159.39,-415.62 1166.39,-415.62"/>
</g>
<!-- dspsr -->
<g id="node26" class="node">
<title>dspsr</title>
<g id="a_node26"><a xlink:href="https://github.com/conda-forge/dspsr-feedstock" xlink:title="dspsr">
<ellipse fill="#fde725" stroke="black" cx="1162.89" cy="-314" rx="39.11" ry="18"/>
<text text-anchor="middle" x="1162.89" y="-309.32" font-family="Times,serif" font-size="14.00">dspsr</text>
</a>
</g>
</g>
<!-- psrchive&#45;&gt;dspsr -->
<g id="edge23" class="edge">
<title>psrchive&#45;&gt;dspsr</title>
<path fill="none" stroke="black" d="M1162.89,-367.7C1162.89,-360.41 1162.89,-351.73 1162.89,-343.54"/>
<polygon fill="black" stroke="black" points="1166.39,-343.62 1162.89,-333.62 1159.39,-343.62 1166.39,-343.62"/>
</g>
<!-- fitsverify -->
<g id="node27" class="node">
<title>fitsverify</title>
<g id="a_node27"><a xlink:href="https://github.com/conda-forge/fitsverify-feedstock" xlink:title="fitsverify">
<ellipse fill="#35b779" stroke="black" cx="449.89" cy="-638" rx="55.94" ry="18"/>
<text text-anchor="middle" x="449.89" y="-633.33" font-family="Times,serif" font-size="14.00">fitsverify</text>
</a>
</g>
</g>
<!-- fitsverify&#45;&gt;rubinenv -->
<g id="edge24" class="edge">
<title>fitsverify&#45;&gt;rubinenv</title>
<path fill="none" stroke="black" d="M446.86,-619.79C443.53,-601.75 437.74,-572.66 430.89,-548 421.47,-514.06 407.89,-475.88 398.52,-450.75"/>
<polygon fill="black" stroke="black" points="401.87,-449.73 395.08,-441.6 395.32,-452.19 401.87,-449.73"/>
</g>
</g>
</svg>
