<?xml version="1.0" encoding="UTF-8" standalone="no"?>
<!DOCTYPE svg PUBLIC "-//W3C//DTD SVG 1.1//EN"
 "http://www.w3.org/Graphics/SVG/1.1/DTD/svg11.dtd">
<!-- Generated by graphviz version 8.1.0 (20230707.2238)
 -->
<!-- Pages: 1 -->
<svg width="1270pt" height="736pt"
 viewBox="0.00 0.00 1269.89 736.00" xmlns="http://www.w3.org/2000/svg" xmlns:xlink="http://www.w3.org/1999/xlink">
<g id="graph0" class="graph" transform="scale(1 1) rotate(0) translate(4 732)">
<polygon fill="white" stroke="none" points="-4,4 -4,-732 1265.89,-732 1265.89,4 -4,4"/>
<!-- casacore -->
<g id="node1" class="node">
<title>casacore</title>
<g id="a_node1"><a xlink:href="https://github.com/conda-forge/casacore-feedstock" xlink:title="casacore">
<ellipse fill="#fde725" stroke="black" cx="54.89" cy="-422" rx="54.89" ry="18"/>
<text text-anchor="middle" x="54.89" y="-417.32" font-family="Times,serif" font-size="14.00">casacore</text>
</a>
</g>
</g>
<!-- gdal -->
<g id="node2" class="node">
<title>gdal</title>
<g id="a_node2"><a xlink:href="https://github.com/conda-forge/gdal-feedstock/pull/789" xlink:title="gdal ❎">
<ellipse fill="#31688e" stroke="black" cx="321.89" cy="-494" rx="48.05" ry="18"/>
<text text-anchor="middle" x="321.89" y="-489.32" font-family="Times,serif" font-size="14.00" fill="white">gdal ❎</text>
</a>
</g>
</g>
<!-- rubinenv -->
<g id="node3" class="node">
<title>rubinenv</title>
<g id="a_node3"><a xlink:href="https://github.com/conda-forge/rubinenv-feedstock" xlink:title="rubinenv">
<ellipse fill="#fde725" stroke="black" cx="406.89" cy="-422" rx="55.94" ry="18"/>
<text text-anchor="middle" x="406.89" y="-417.32" font-family="Times,serif" font-size="14.00">rubinenv</text>
</a>
</g>
</g>
<!-- gdal&#45;&gt;rubinenv -->
<g id="edge1" class="edge">
<title>gdal&#45;&gt;rubinenv</title>
<path fill="none" stroke="black" d="M341.18,-477.12C352.32,-467.94 366.54,-456.23 378.89,-446.06"/>
<polygon fill="black" stroke="black" points="380.6,-448.37 386.09,-439.31 376.15,-442.96 380.6,-448.37"/>
</g>
<!-- healpix_cxx -->
<g id="node4" class="node">
<title>healpix_cxx</title>
<g id="a_node4"><a xlink:href="https://github.com/conda-forge/healpix_cxx-feedstock" xlink:title="healpix_cxx">
<ellipse fill="#35b779" stroke="black" cx="989.89" cy="-602" rx="69.1" ry="18"/>
<text text-anchor="middle" x="989.89" y="-597.33" font-family="Times,serif" font-size="14.00">healpix_cxx</text>
</a>
</g>
</g>
<!-- ccfits -->
<g id="node5" class="node">
<title>ccfits</title>
<g id="a_node5"><a xlink:href="https://github.com/conda-forge/ccfits-feedstock" xlink:title="ccfits">
<ellipse fill="#35b779" stroke="black" cx="989.89" cy="-530" rx="37.53" ry="18"/>
<text text-anchor="middle" x="989.89" y="-525.33" font-family="Times,serif" font-size="14.00">ccfits</text>
</a>
</g>
</g>
<!-- healpix_cxx&#45;&gt;ccfits -->
<!-- numcosmo -->
<g id="node16" class="node">
<title>numcosmo</title>
<g id="a_node16"><a xlink:href="https://github.com/conda-forge/numcosmo-feedstock" xlink:title="numcosmo">
<ellipse fill="#35b779" stroke="black" cx="989.89" cy="-458" rx="64.89" ry="18"/>
<text text-anchor="middle" x="989.89" y="-453.32" font-family="Times,serif" font-size="14.00">numcosmo</text>
</a>
</g>
</g>
<!-- ccfits&#45;&gt;numcosmo -->
<!-- healpy -->
<g id="node6" class="node">
<title>healpy</title>
<g id="a_node6"><a xlink:href="https://github.com/conda-forge/healpy-feedstock/pull/57" xlink:title="healpy ❎">
<ellipse fill="#31688e" stroke="black" cx="630.89" cy="-494" rx="59.63" ry="18"/>
<text text-anchor="middle" x="630.89" y="-489.32" font-family="Times,serif" font-size="14.00" fill="white">healpy ❎</text>
</a>
</g>
</g>
<!-- healpy&#45;&gt;rubinenv -->
<g id="edge3" class="edge">
<title>healpy&#45;&gt;rubinenv</title>
<path fill="none" stroke="black" d="M590.59,-480.4C553.01,-468.66 496.85,-451.11 456.53,-438.51"/>
<polygon fill="black" stroke="black" points="457.71,-434.9 447.12,-435.26 455.62,-441.58 457.71,-434.9"/>
</g>
<!-- lalpulsar -->
<g id="node7" class="node">
<title>lalpulsar</title>
<g id="a_node7"><a xlink:href="https://github.com/conda-forge/lalpulsar-feedstock" xlink:title="lalpulsar">
<ellipse fill="#fde725" stroke="black" cx="545.89" cy="-422" rx="54.89" ry="18"/>
<text text-anchor="middle" x="545.89" y="-417.32" font-family="Times,serif" font-size="14.00">lalpulsar</text>
</a>
</g>
</g>
<!-- healpy&#45;&gt;lalpulsar -->
<g id="edge4" class="edge">
<title>healpy&#45;&gt;lalpulsar</title>
<path fill="none" stroke="black" d="M611.18,-476.76C600.13,-467.66 586.16,-456.16 573.98,-446.13"/>
<polygon fill="black" stroke="black" points="576.44,-442.8 566.5,-439.15 571.99,-448.21 576.44,-442.8"/>
</g>
<!-- namaster -->
<g id="node8" class="node">
<title>namaster</title>
<g id="a_node8"><a xlink:href="https://github.com/conda-forge/namaster-feedstock" xlink:title="namaster">
<ellipse fill="#fde725" stroke="black" cx="769.89" cy="-422" rx="58.57" ry="18"/>
<text text-anchor="middle" x="769.89" y="-417.32" font-family="Times,serif" font-size="14.00">namaster</text>
</a>
</g>
</g>
<!-- healpy&#45;&gt;namaster -->
<g id="edge5" class="edge">
<title>healpy&#45;&gt;namaster</title>
<path fill="none" stroke="black" d="M660.71,-477.98C681.19,-467.67 708.57,-453.88 730.8,-442.69"/>
<polygon fill="black" stroke="black" points="732.24,-445.38 739.6,-437.75 729.09,-439.12 732.24,-445.38"/>
</g>
<!-- lalapps -->
<g id="node9" class="node">
<title>lalapps</title>
<g id="a_node9"><a xlink:href="https://github.com/conda-forge/lalapps-feedstock" xlink:title="lalapps">
<ellipse fill="#fde725" stroke="black" cx="544.89" cy="-350" rx="47" ry="18"/>
<text text-anchor="middle" x="544.89" y="-345.32" font-family="Times,serif" font-size="14.00">lalapps</text>
</a>
</g>
</g>
<!-- healpy&#45;&gt;lalapps -->
<g id="edge6" class="edge">
<title>healpy&#45;&gt;lalapps</title>
<path fill="none" stroke="black" d="M630.08,-475.67C628.49,-456.76 623.79,-426.2 609.89,-404 602.01,-391.41 590.09,-380.44 578.6,-371.8"/>
<polygon fill="black" stroke="black" points="581.15,-368.6 570.97,-365.65 577.09,-374.3 581.15,-368.6"/>
</g>
<!-- des&#45;eastlake -->
<g id="node10" class="node">
<title>des&#45;eastlake</title>
<g id="a_node10"><a xlink:href="https://github.com/conda-forge/des-eastlake-feedstock" xlink:title="des eastlake">
<ellipse fill="#fde725" stroke="black" cx="682.89" cy="-350" rx="73.3" ry="18"/>
<text text-anchor="middle" x="682.89" y="-345.32" font-family="Times,serif" font-size="14.00">des eastlake</text>
</a>
</g>
</g>
<!-- healpy&#45;&gt;des&#45;eastlake -->
<g id="edge7" class="edge">
<title>healpy&#45;&gt;des&#45;eastlake</title>
<path fill="none" stroke="black" d="M637.16,-475.87C646.03,-451.67 662.31,-407.21 672.86,-378.39"/>
<polygon fill="black" stroke="black" points="676.44,-379.78 676.6,-369.19 669.87,-377.38 676.44,-379.78"/>
</g>
<!-- lalpulsar&#45;&gt;lalapps -->
<g id="edge8" class="edge">
<title>lalpulsar&#45;&gt;lalapps</title>
<path fill="none" stroke="black" d="M545.64,-403.7C545.54,-396.24 545.41,-387.32 545.29,-378.97"/>
<polygon fill="black" stroke="black" points="548.78,-379.05 545.14,-369.1 541.78,-379.15 548.78,-379.05"/>
</g>
<!-- wcslib -->
<g id="node11" class="node">
<title>wcslib</title>
<g id="a_node11"><a xlink:href="https://github.com/conda-forge/wcslib-feedstock/pull/27" xlink:title="wcslib ✓">
<ellipse fill="#31688e" stroke="black" cx="204.89" cy="-494" rx="50.68" ry="18"/>
<text text-anchor="middle" x="204.89" y="-489.32" font-family="Times,serif" font-size="14.00" fill="white">wcslib ✓</text>
</a>
</g>
</g>
<!-- wcslib&#45;&gt;casacore -->
<g id="edge9" class="edge">
<title>wcslib&#45;&gt;casacore</title>
<path fill="none" stroke="black" d="M175.26,-479.17C152.34,-468.48 120.38,-453.56 95.15,-441.79"/>
<polygon fill="black" stroke="black" points="97.04,-438.34 86.49,-437.28 94.08,-444.68 97.04,-438.34"/>
</g>
<!-- wcslib&#45;&gt;rubinenv -->
<g id="edge10" class="edge">
<title>wcslib&#45;&gt;rubinenv</title>
<path fill="none" stroke="black" d="M240.08,-480.81C273.24,-469.31 323.18,-452.01 359.77,-439.33"/>
<polygon fill="black" stroke="black" points="360.41,-442.46 368.72,-435.88 358.12,-435.85 360.41,-442.46"/>
</g>
<!-- astrometry -->
<g id="node12" class="node">
<title>astrometry</title>
<g id="a_node12"><a xlink:href="https://github.com/conda-forge/astrometry-feedstock" xlink:title="astrometry">
<ellipse fill="#fde725" stroke="black" cx="109.89" cy="-350" rx="66.99" ry="18"/>
<text text-anchor="middle" x="109.89" y="-345.32" font-family="Times,serif" font-size="14.00">astrometry</text>
</a>
</g>
</g>
<!-- wcslib&#45;&gt;astrometry -->
<g id="edge11" class="edge">
<title>wcslib&#45;&gt;astrometry</title>
<path fill="none" stroke="black" d="M193.62,-476.15C177.19,-451.6 146.53,-405.77 127.22,-376.91"/>
<polygon fill="black" stroke="black" points="129.62,-375.19 121.15,-368.82 123.8,-379.08 129.62,-375.19"/>
</g>
<!-- gnuastro -->
<g id="node13" class="node">
<title>gnuastro</title>
<g id="a_node13"><a xlink:href="https://github.com/conda-forge/gnuastro-feedstock" xlink:title="gnuastro">
<ellipse fill="#fde725" stroke="black" cx="163.89" cy="-278" rx="55.94" ry="18"/>
<text text-anchor="middle" x="163.89" y="-273.32" font-family="Times,serif" font-size="14.00">gnuastro</text>
</a>
</g>
</g>
<!-- wcslib&#45;&gt;gnuastro -->
<g id="edge12" class="edge">
<title>wcslib&#45;&gt;gnuastro</title>
<path fill="none" stroke="black" d="M204.41,-475.79C203.24,-446.03 199.26,-383.2 185.89,-332 183.65,-323.42 180.31,-314.4 176.9,-306.28"/>
<polygon fill="black" stroke="black" points="179.71,-304.98 172.47,-297.25 173.31,-307.81 179.71,-304.98"/>
</g>
<!-- cpl -->
<g id="node14" class="node">
<title>cpl</title>
<g id="a_node14"><a xlink:href="https://github.com/conda-forge/cpl-feedstock" xlink:title="cpl">
<ellipse fill="#fde725" stroke="black" cx="247.89" cy="-206" rx="27" ry="18"/>
<text text-anchor="middle" x="247.89" y="-201.33" font-family="Times,serif" font-size="14.00">cpl</text>
</a>
</g>
</g>
<!-- wcslib&#45;&gt;cpl -->
<g id="edge13" class="edge">
<title>wcslib&#45;&gt;cpl</title>
<path fill="none" stroke="black" d="M208.33,-475.85C210.36,-465.49 212.91,-452.01 214.89,-440 227.08,-366.18 238.72,-278.74 244.35,-234.94"/>
<polygon fill="black" stroke="black" points="247.92,-235.65 245.72,-225.29 240.98,-234.76 247.92,-235.65"/>
</g>
<!-- lenstool -->
<g id="node15" class="node">
<title>lenstool</title>
<g id="a_node15"><a xlink:href="https://github.com/conda-forge/lenstool-feedstock" xlink:title="lenstool">
<ellipse fill="#fde725" stroke="black" cx="302.89" cy="-134" rx="50.68" ry="18"/>
<text text-anchor="middle" x="302.89" y="-129.32" font-family="Times,serif" font-size="14.00">lenstool</text>
</a>
</g>
</g>
<!-- wcslib&#45;&gt;lenstool -->
<g id="edge14" class="edge">
<title>wcslib&#45;&gt;lenstool</title>
<path fill="none" stroke="black" d="M225.67,-477.14C254.44,-453.22 302.89,-404.92 302.89,-351 302.89,-351 302.89,-351 302.89,-277 302.89,-237.57 302.89,-191.97 302.89,-163.31"/>
<polygon fill="black" stroke="black" points="306.39,-163.49 302.89,-153.49 299.39,-163.49 306.39,-163.49"/>
</g>
<!-- libvips -->
<g id="node17" class="node">
<title>libvips</title>
<g id="a_node17"><a xlink:href="https://github.com/conda-forge/libvips-feedstock/pull/84" xlink:title="libvips ✓">
<ellipse fill="#31688e" stroke="black" cx="989.89" cy="-386" rx="52.26" ry="18"/>
<text text-anchor="middle" x="989.89" y="-381.32" font-family="Times,serif" font-size="14.00" fill="white">libvips ✓</text>
</a>
</g>
</g>
<!-- numcosmo&#45;&gt;libvips -->
<!-- astromatic&#45;source&#45;extractor -->
<g id="node22" class="node">
<title>astromatic&#45;source&#45;extractor</title>
<g id="a_node22"><a xlink:href="https://github.com/conda-forge/astromatic-source-extractor-feedstock" xlink:title="astromatic source extractor">
<ellipse fill="#35b779" stroke="black" cx="989.89" cy="-314" rx="150.64" ry="18"/>
<text text-anchor="middle" x="989.89" y="-309.32" font-family="Times,serif" font-size="14.00">astromatic source extractor</text>
</a>
</g>
</g>
<!-- libvips&#45;&gt;astromatic&#45;source&#45;extractor -->
<!-- chealpix -->
<g id="node18" class="node">
<title>chealpix</title>
<g id="a_node18"><a xlink:href="https://github.com/conda-forge/chealpix-feedstock/pull/10" xlink:title="chealpix ✓">
<ellipse fill="#31688e" stroke="black" cx="769.89" cy="-494" rx="60.68" ry="18"/>
<text text-anchor="middle" x="769.89" y="-489.32" font-family="Times,serif" font-size="14.00" fill="white">chealpix ✓</text>
</a>
</g>
</g>
<!-- chealpix&#45;&gt;namaster -->
<g id="edge17" class="edge">
<title>chealpix&#45;&gt;namaster</title>
<path fill="none" stroke="black" d="M769.89,-475.7C769.89,-468.24 769.89,-459.32 769.89,-450.97"/>
<polygon fill="black" stroke="black" points="773.39,-451.1 769.89,-441.1 766.39,-451.1 773.39,-451.1"/>
</g>
<!-- root -->
<g id="node19" class="node">
<title>root</title>
<g id="a_node19"><a xlink:href="https://github.com/conda-forge/root-feedstock/pull/211" xlink:title="root ❎">
<ellipse fill="#31688e" stroke="black" cx="360.89" cy="-566" rx="47" ry="18"/>
<text text-anchor="middle" x="360.89" y="-561.33" font-family="Times,serif" font-size="14.00" fill="white">root ❎</text>
</a>
</g>
</g>
<!-- root&#45;&gt;rubinenv -->
<g id="edge18" class="edge">
<title>root&#45;&gt;rubinenv</title>
<path fill="none" stroke="black" d="M366.83,-547.85C370.38,-537.49 374.96,-524.01 378.89,-512 385.61,-491.44 392.94,-468.12 398.41,-450.51"/>
<polygon fill="black" stroke="black" points="402.02,-451.69 401.64,-441.1 395.33,-449.61 402.02,-451.69"/>
</g>
<!-- photospline -->
<g id="node20" class="node">
<title>photospline</title>
<g id="a_node20"><a xlink:href="https://github.com/conda-forge/photospline-feedstock" xlink:title="photospline">
<ellipse fill="#35b779" stroke="black" cx="415.89" cy="-90" rx="69.62" ry="18"/>
<text text-anchor="middle" x="415.89" y="-85.33" font-family="Times,serif" font-size="14.00">photospline</text>
</a>
</g>
</g>
<!-- nuflux -->
<g id="node21" class="node">
<title>nuflux</title>
<g id="a_node21"><a xlink:href="https://github.com/conda-forge/nuflux-feedstock" xlink:title="nuflux">
<ellipse fill="#fde725" stroke="black" cx="415.89" cy="-18" rx="42.26" ry="18"/>
<text text-anchor="middle" x="415.89" y="-13.32" font-family="Times,serif" font-size="14.00">nuflux</text>
</a>
</g>
</g>
<!-- photospline&#45;&gt;nuflux -->
<g id="edge19" class="edge">
<title>photospline&#45;&gt;nuflux</title>
<path fill="none" stroke="black" d="M415.89,-71.7C415.89,-64.24 415.89,-55.32 415.89,-46.97"/>
<polygon fill="black" stroke="black" points="419.39,-47.1 415.89,-37.1 412.39,-47.1 419.39,-47.1"/>
</g>
<!-- hstcal -->
<g id="node23" class="node">
<title>hstcal</title>
<g id="a_node23"><a xlink:href="https://github.com/conda-forge/hstcal-feedstock" xlink:title="hstcal">
<ellipse fill="#35b779" stroke="black" cx="989.89" cy="-242" rx="41.21" ry="18"/>
<text text-anchor="middle" x="989.89" y="-237.32" font-family="Times,serif" font-size="14.00">hstcal</text>
</a>
</g>
</g>
<!-- astromatic&#45;source&#45;extractor&#45;&gt;hstcal -->
<!-- imagecodecs -->
<g id="node24" class="node">
<title>imagecodecs</title>
<g id="a_node24"><a xlink:href="https://github.com/conda-forge/imagecodecs-feedstock/pull/83" xlink:title="imagecodecs ✓">
<ellipse fill="#31688e" stroke="black" cx="431.89" cy="-638" rx="83.3" ry="18"/>
<text text-anchor="middle" x="431.89" y="-633.33" font-family="Times,serif" font-size="14.00" fill="white">imagecodecs ✓</text>
</a>
</g>
</g>
<!-- imagecodecs&#45;&gt;rubinenv -->
<g id="edge22" class="edge">
<title>imagecodecs&#45;&gt;rubinenv</title>
<path fill="none" stroke="black" d="M429.89,-619.85C425.58,-582.99 415.41,-495.92 410.16,-450.96"/>
<polygon fill="black" stroke="black" points="413.54,-450.76 408.9,-441.23 406.59,-451.57 413.54,-450.76"/>
</g>
<!-- tempo2 -->
<g id="node25" class="node">
<title>tempo2</title>
<g id="a_node25"><a xlink:href="https://github.com/conda-forge/tempo2-feedstock/pull/25" xlink:title="tempo2 ✓">
<ellipse fill="#31688e" stroke="black" cx="1204.89" cy="-494" rx="57" ry="18"/>
<text text-anchor="middle" x="1204.89" y="-489.32" font-family="Times,serif" font-size="14.00" fill="white">tempo2 ✓</text>
</a>
</g>
</g>
<!-- psrchive -->
<g id="node26" class="node">
<title>psrchive</title>
<g id="a_node26"><a xlink:href="https://github.com/conda-forge/psrchive-feedstock" xlink:title="psrchive">
<ellipse fill="#fde725" stroke="black" cx="1204.89" cy="-422" rx="53.84" ry="18"/>
<text text-anchor="middle" x="1204.89" y="-417.32" font-family="Times,serif" font-size="14.00">psrchive</text>
</a>
</g>
</g>
<!-- tempo2&#45;&gt;psrchive -->
<g id="edge23" class="edge">
<title>tempo2&#45;&gt;psrchive</title>
<path fill="none" stroke="black" d="M1204.89,-475.7C1204.89,-468.24 1204.89,-459.32 1204.89,-450.97"/>
<polygon fill="black" stroke="black" points="1208.39,-451.1 1204.89,-441.1 1201.39,-451.1 1208.39,-451.1"/>
</g>
<!-- dspsr -->
<g id="node27" class="node">
<title>dspsr</title>
<g id="a_node27"><a xlink:href="https://github.com/conda-forge/dspsr-feedstock" xlink:title="dspsr">
<ellipse fill="#fde725" stroke="black" cx="1204.89" cy="-350" rx="39.11" ry="18"/>
<text text-anchor="middle" x="1204.89" y="-345.32" font-family="Times,serif" font-size="14.00">dspsr</text>
</a>
</g>
</g>
<!-- psrchive&#45;&gt;dspsr -->
<g id="edge24" class="edge">
<title>psrchive&#45;&gt;dspsr</title>
<path fill="none" stroke="black" d="M1204.89,-403.7C1204.89,-396.24 1204.89,-387.32 1204.89,-378.97"/>
<polygon fill="black" stroke="black" points="1208.39,-379.1 1204.89,-369.1 1201.39,-379.1 1208.39,-379.1"/>
</g>
<!-- fitsverify -->
<g id="node28" class="node">
<title>fitsverify</title>
<g id="a_node28"><a xlink:href="https://github.com/conda-forge/fitsverify-feedstock/pull/10" xlink:title="fitsverify ✓">
<ellipse fill="#31688e" stroke="black" cx="542.89" cy="-710" rx="63.84" ry="18"/>
<text text-anchor="middle" x="542.89" y="-705.33" font-family="Times,serif" font-size="14.00" fill="white">fitsverify ✓</text>
</a>
</g>
</g>
<!-- fitsverify&#45;&gt;rubinenv -->
<g id="edge25" class="edge">
<title>fitsverify&#45;&gt;rubinenv</title>
<path fill="none" stroke="black" d="M540.91,-691.79C538.41,-673.51 533.28,-643.98 523.89,-620 498.09,-554.1 451.64,-484.64 425.7,-448.41"/>
<polygon fill="black" stroke="black" points="428.27,-446.98 419.58,-440.93 422.6,-451.09 428.27,-446.98"/>
</g>
</g>
</svg>
