<?xml version="1.0" encoding="UTF-8" standalone="no"?>
<!DOCTYPE svg PUBLIC "-//W3C//DTD SVG 1.1//EN"
 "http://www.w3.org/Graphics/SVG/1.1/DTD/svg11.dtd">
<!-- Generated by graphviz version 9.0.0 (20231125.0833)
 -->
<!-- Pages: 1 -->
<svg width="947pt" height="476pt"
 viewBox="0.00 0.00 946.63 476.00" xmlns="http://www.w3.org/2000/svg" xmlns:xlink="http://www.w3.org/1999/xlink">
<g id="graph0" class="graph" transform="scale(1 1) rotate(0) translate(4 472)">
<polygon fill="white" stroke="none" points="-4,4 -4,-472 942.63,-472 942.63,4 -4,4"/>
<!-- casacore -->
<g id="node1" class="node">
<title>casacore</title>
<g id="a_node1"><a xlink:href="https://github.com/conda-forge/casacore-feedstock/pull/86" xlink:title="casacore ✓">
<ellipse fill="#31688e" stroke="black" cx="663.79" cy="-450" rx="62.78" ry="18"/>
<text text-anchor="middle" x="663.79" y="-445.32" font-family="Times,serif" font-size="14.00" fill="white">casacore ✓</text>
</a>
</g>
</g>
<!-- healpix_cxx -->
<g id="node2" class="node">
<title>healpix_cxx</title>
<g id="a_node2"><a xlink:href="https://github.com/conda-forge/healpix_cxx-feedstock" xlink:title="healpix_cxx">
<ellipse fill="#ff8c00" stroke="black" cx="663.79" cy="-378" rx="69.1" ry="18"/>
<text text-anchor="middle" x="663.79" y="-373.32" font-family="Times,serif" font-size="14.00">healpix_cxx</text>
</a>
</g>
</g>
<!-- casacore&#45;&gt;healpix_cxx -->
<!-- ccfits -->
<g id="node5" class="node">
<title>ccfits</title>
<g id="a_node5"><a xlink:href="https://github.com/conda-forge/ccfits-feedstock/pull/14" xlink:title="ccfits ✓">
<ellipse fill="#31688e" stroke="black" cx="663.79" cy="-306" rx="45.42" ry="18"/>
<text text-anchor="middle" x="663.79" y="-301.32" font-family="Times,serif" font-size="14.00" fill="white">ccfits ✓</text>
</a>
</g>
</g>
<!-- healpix_cxx&#45;&gt;ccfits -->
<!-- gdal -->
<g id="node3" class="node">
<title>gdal</title>
<g id="a_node3"><a xlink:href="https://github.com/conda-forge/gdal-feedstock" xlink:title="gdal">
<ellipse fill="#ff8c00" stroke="black" cx="32.79" cy="-234" rx="32.79" ry="18"/>
<text text-anchor="middle" x="32.79" y="-229.32" font-family="Times,serif" font-size="14.00">gdal</text>
</a>
</g>
</g>
<!-- rubinenv -->
<g id="node4" class="node">
<title>rubinenv</title>
<g id="a_node4"><a xlink:href="https://github.com/conda-forge/rubinenv-feedstock" xlink:title="rubinenv">
<ellipse fill="#fde725" stroke="black" cx="93.79" cy="-162" rx="55.94" ry="18"/>
<text text-anchor="middle" x="93.79" y="-157.32" font-family="Times,serif" font-size="14.00">rubinenv</text>
</a>
</g>
</g>
<!-- gdal&#45;&gt;rubinenv -->
<g id="edge2" class="edge">
<title>gdal&#45;&gt;rubinenv</title>
<path fill="none" stroke="black" d="M46.33,-217.46C53.86,-208.83 63.4,-197.88 71.95,-188.06"/>
<polygon fill="black" stroke="black" points="74.52,-190.45 78.45,-180.61 69.24,-185.85 74.52,-190.45"/>
</g>
<!-- numcosmo -->
<g id="node11" class="node">
<title>numcosmo</title>
<g id="a_node11"><a xlink:href="https://github.com/conda-forge/numcosmo-feedstock/pull/59" xlink:title="numcosmo ✓">
<ellipse fill="#31688e" stroke="black" cx="663.79" cy="-234" rx="72.78" ry="18"/>
<text text-anchor="middle" x="663.79" y="-229.32" font-family="Times,serif" font-size="14.00" fill="white">numcosmo ✓</text>
</a>
</g>
</g>
<!-- ccfits&#45;&gt;numcosmo -->
<!-- healpy -->
<g id="node6" class="node">
<title>healpy</title>
<g id="a_node6"><a xlink:href="https://github.com/conda-forge/healpy-feedstock" xlink:title="healpy">
<ellipse fill="#ff8c00" stroke="black" cx="305.79" cy="-234" rx="44.37" ry="18"/>
<text text-anchor="middle" x="305.79" y="-229.32" font-family="Times,serif" font-size="14.00">healpy</text>
</a>
</g>
</g>
<!-- healpy&#45;&gt;rubinenv -->
<g id="edge4" class="edge">
<title>healpy&#45;&gt;rubinenv</title>
<path fill="none" stroke="black" d="M272.2,-221.91C237.3,-210.39 182.35,-192.24 142.65,-179.13"/>
<polygon fill="black" stroke="black" points="143.92,-175.86 133.32,-176.05 141.72,-182.51 143.92,-175.86"/>
</g>
<!-- lalpulsar -->
<g id="node7" class="node">
<title>lalpulsar</title>
<g id="a_node7"><a xlink:href="https://github.com/conda-forge/lalpulsar-feedstock" xlink:title="lalpulsar">
<ellipse fill="#fde725" stroke="black" cx="222.79" cy="-162" rx="54.89" ry="18"/>
<text text-anchor="middle" x="222.79" y="-157.32" font-family="Times,serif" font-size="14.00">lalpulsar</text>
</a>
</g>
</g>
<!-- healpy&#45;&gt;lalpulsar -->
<g id="edge5" class="edge">
<title>healpy&#45;&gt;lalpulsar</title>
<path fill="none" stroke="black" d="M287.37,-217.46C276.54,-208.32 262.62,-196.59 250.48,-186.35"/>
<polygon fill="black" stroke="black" points="253.09,-183.97 243.19,-180.2 248.57,-189.32 253.09,-183.97"/>
</g>
<!-- namaster -->
<g id="node8" class="node">
<title>namaster</title>
<g id="a_node8"><a xlink:href="https://github.com/conda-forge/namaster-feedstock" xlink:title="namaster">
<ellipse fill="#fde725" stroke="black" cx="438.79" cy="-162" rx="58.57" ry="18"/>
<text text-anchor="middle" x="438.79" y="-157.32" font-family="Times,serif" font-size="14.00">namaster</text>
</a>
</g>
</g>
<!-- healpy&#45;&gt;namaster -->
<g id="edge6" class="edge">
<title>healpy&#45;&gt;namaster</title>
<path fill="none" stroke="black" d="M332.07,-219.17C351.55,-208.92 378.39,-194.79 400.29,-183.27"/>
<polygon fill="black" stroke="black" points="401.71,-186.47 408.93,-178.72 398.45,-180.28 401.71,-186.47"/>
</g>
<!-- lalapps -->
<g id="node9" class="node">
<title>lalapps</title>
<g id="a_node9"><a xlink:href="https://github.com/conda-forge/lalapps-feedstock" xlink:title="lalapps">
<ellipse fill="#fde725" stroke="black" cx="218.79" cy="-90" rx="47" ry="18"/>
<text text-anchor="middle" x="218.79" y="-85.33" font-family="Times,serif" font-size="14.00">lalapps</text>
</a>
</g>
</g>
<!-- healpy&#45;&gt;lalapps -->
<g id="edge7" class="edge">
<title>healpy&#45;&gt;lalapps</title>
<path fill="none" stroke="black" d="M305.54,-215.63C304.52,-196.68 300.63,-166.09 286.79,-144 278.77,-131.19 266.49,-120.24 254.57,-111.67"/>
<polygon fill="black" stroke="black" points="256.67,-108.86 246.42,-106.17 252.75,-114.67 256.67,-108.86"/>
</g>
<!-- des&#45;eastlake -->
<g id="node10" class="node">
<title>des&#45;eastlake</title>
<g id="a_node10"><a xlink:href="https://github.com/conda-forge/des-eastlake-feedstock" xlink:title="des eastlake">
<ellipse fill="#fde725" stroke="black" cx="356.79" cy="-90" rx="73.3" ry="18"/>
<text text-anchor="middle" x="356.79" y="-85.33" font-family="Times,serif" font-size="14.00">des eastlake</text>
</a>
</g>
</g>
<!-- healpy&#45;&gt;des&#45;eastlake -->
<g id="edge8" class="edge">
<title>healpy&#45;&gt;des&#45;eastlake</title>
<path fill="none" stroke="black" d="M311.95,-215.87C320.6,-191.78 336.47,-147.6 346.82,-118.77"/>
<polygon fill="black" stroke="black" points="350.02,-120.21 350.11,-109.61 343.43,-117.84 350.02,-120.21"/>
</g>
<!-- lalpulsar&#45;&gt;lalapps -->
<g id="edge9" class="edge">
<title>lalpulsar&#45;&gt;lalapps</title>
<path fill="none" stroke="black" d="M221.81,-143.7C221.39,-136.41 220.89,-127.73 220.42,-119.54"/>
<polygon fill="black" stroke="black" points="223.92,-119.4 219.86,-109.62 216.93,-119.8 223.92,-119.4"/>
</g>
<!-- libvips -->
<g id="node12" class="node">
<title>libvips</title>
<g id="a_node12"><a xlink:href="https://github.com/conda-forge/libvips-feedstock" xlink:title="libvips">
<ellipse fill="#ff8c00" stroke="black" cx="663.79" cy="-162" rx="44.37" ry="18"/>
<text text-anchor="middle" x="663.79" y="-157.32" font-family="Times,serif" font-size="14.00">libvips</text>
</a>
</g>
</g>
<!-- numcosmo&#45;&gt;libvips -->
<!-- astromatic&#45;source&#45;extractor -->
<g id="node15" class="node">
<title>astromatic&#45;source&#45;extractor</title>
<g id="a_node15"><a xlink:href="https://github.com/conda-forge/astromatic-source-extractor-feedstock/pull/14" xlink:title="astromatic source extractor ✓">
<ellipse fill="#31688e" stroke="black" cx="663.79" cy="-90" rx="158.53" ry="18"/>
<text text-anchor="middle" x="663.79" y="-85.33" font-family="Times,serif" font-size="14.00" fill="white">astromatic source extractor ✓</text>
</a>
</g>
</g>
<!-- libvips&#45;&gt;astromatic&#45;source&#45;extractor -->
<!-- chealpix -->
<g id="node13" class="node">
<title>chealpix</title>
<g id="a_node13"><a xlink:href="https://github.com/conda-forge/chealpix-feedstock" xlink:title="chealpix">
<ellipse fill="#ff8c00" stroke="black" cx="438.79" cy="-234" rx="52.79" ry="18"/>
<text text-anchor="middle" x="438.79" y="-229.32" font-family="Times,serif" font-size="14.00">chealpix</text>
</a>
</g>
</g>
<!-- chealpix&#45;&gt;namaster -->
<g id="edge12" class="edge">
<title>chealpix&#45;&gt;namaster</title>
<path fill="none" stroke="black" d="M438.79,-215.7C438.79,-208.41 438.79,-199.73 438.79,-191.54"/>
<polygon fill="black" stroke="black" points="442.29,-191.62 438.79,-181.62 435.29,-191.62 442.29,-191.62"/>
</g>
<!-- root -->
<g id="node14" class="node">
<title>root</title>
<g id="a_node14"><a xlink:href="https://github.com/conda-forge/root-feedstock" xlink:title="root">
<ellipse fill="#ff8c00" stroke="black" cx="93.79" cy="-306" rx="31.74" ry="18"/>
<text text-anchor="middle" x="93.79" y="-301.32" font-family="Times,serif" font-size="14.00">root</text>
</a>
</g>
</g>
<!-- root&#45;&gt;rubinenv -->
<g id="edge13" class="edge">
<title>root&#45;&gt;rubinenv</title>
<path fill="none" stroke="black" d="M93.79,-287.59C93.79,-263.61 93.79,-220.14 93.79,-191.42"/>
<polygon fill="black" stroke="black" points="97.29,-191.62 93.79,-181.62 90.29,-191.62 97.29,-191.62"/>
</g>
<!-- hstcal -->
<g id="node16" class="node">
<title>hstcal</title>
<g id="a_node16"><a xlink:href="https://github.com/conda-forge/hstcal-feedstock/pull/17" xlink:title="hstcal ✓">
<ellipse fill="#31688e" stroke="black" cx="663.79" cy="-18" rx="49.1" ry="18"/>
<text text-anchor="middle" x="663.79" y="-13.32" font-family="Times,serif" font-size="14.00" fill="white">hstcal ✓</text>
</a>
</g>
</g>
<!-- astromatic&#45;source&#45;extractor&#45;&gt;hstcal -->
<!-- tempo2 -->
<g id="node17" class="node">
<title>tempo2</title>
<g id="a_node17"><a xlink:href="https://github.com/conda-forge/tempo2-feedstock" xlink:title="tempo2">
<ellipse fill="#ff8c00" stroke="black" cx="884.79" cy="-306" rx="49.1" ry="18"/>
<text text-anchor="middle" x="884.79" y="-301.32" font-family="Times,serif" font-size="14.00">tempo2</text>
</a>
</g>
</g>
<!-- psrchive -->
<g id="node18" class="node">
<title>psrchive</title>
<g id="a_node18"><a xlink:href="https://github.com/conda-forge/psrchive-feedstock" xlink:title="psrchive">
<ellipse fill="#fde725" stroke="black" cx="884.79" cy="-234" rx="53.84" ry="18"/>
<text text-anchor="middle" x="884.79" y="-229.32" font-family="Times,serif" font-size="14.00">psrchive</text>
</a>
</g>
</g>
<!-- tempo2&#45;&gt;psrchive -->
<g id="edge16" class="edge">
<title>tempo2&#45;&gt;psrchive</title>
<path fill="none" stroke="black" d="M884.79,-287.7C884.79,-280.41 884.79,-271.73 884.79,-263.54"/>
<polygon fill="black" stroke="black" points="888.29,-263.62 884.79,-253.62 881.29,-263.62 888.29,-263.62"/>
</g>
<!-- dspsr -->
<g id="node19" class="node">
<title>dspsr</title>
<g id="a_node19"><a xlink:href="https://github.com/conda-forge/dspsr-feedstock" xlink:title="dspsr">
<ellipse fill="#fde725" stroke="black" cx="884.79" cy="-162" rx="39.11" ry="18"/>
<text text-anchor="middle" x="884.79" y="-157.32" font-family="Times,serif" font-size="14.00">dspsr</text>
</a>
</g>
</g>
<!-- psrchive&#45;&gt;dspsr -->
<g id="edge17" class="edge">
<title>psrchive&#45;&gt;dspsr</title>
<path fill="none" stroke="black" d="M884.79,-215.7C884.79,-208.41 884.79,-199.73 884.79,-191.54"/>
<polygon fill="black" stroke="black" points="888.29,-191.62 884.79,-181.62 881.29,-191.62 888.29,-191.62"/>
</g>
<!-- fitsverify -->
<g id="node20" class="node">
<title>fitsverify</title>
<g id="a_node20"><a xlink:href="https://github.com/conda-forge/fitsverify-feedstock/pull/15" xlink:title="fitsverify ✓">
<ellipse fill="#31688e" stroke="black" cx="153.79" cy="-378" rx="63.84" ry="18"/>
<text text-anchor="middle" x="153.79" y="-373.32" font-family="Times,serif" font-size="14.00" fill="white">fitsverify ✓</text>
</a>
</g>
</g>
<!-- fitsverify&#45;&gt;rubinenv -->
<g id="edge18" class="edge">
<title>fitsverify&#45;&gt;rubinenv</title>
<path fill="none" stroke="black" d="M150.69,-359.81C147.3,-341.79 141.46,-312.71 134.79,-288 125.66,-254.16 112.74,-215.96 103.86,-190.8"/>
<polygon fill="black" stroke="black" points="107.25,-189.89 100.6,-181.64 100.65,-192.23 107.25,-189.89"/>
</g>
</g>
</svg>
