<?xml version="1.0" encoding="UTF-8" standalone="no"?>
<!DOCTYPE svg PUBLIC "-//W3C//DTD SVG 1.1//EN"
 "http://www.w3.org/Graphics/SVG/1.1/DTD/svg11.dtd">
<!-- Generated by graphviz version 8.1.0 (20230707.2238)
 -->
<!-- Pages: 1 -->
<svg width="1258pt" height="736pt"
 viewBox="0.00 0.00 1257.73 736.00" xmlns="http://www.w3.org/2000/svg" xmlns:xlink="http://www.w3.org/1999/xlink">
<g id="graph0" class="graph" transform="scale(1 1) rotate(0) translate(4 732)">
<polygon fill="white" stroke="none" points="-4,4 -4,-732 1253.73,-732 1253.73,4 -4,4"/>
<!-- casacore -->
<g id="node1" class="node">
<title>casacore</title>
<g id="a_node1"><a xlink:href="https://github.com/conda-forge/casacore-feedstock" xlink:title="casacore">
<ellipse fill="#fde725" stroke="black" cx="54.89" cy="-422" rx="54.89" ry="18"/>
<text text-anchor="middle" x="54.89" y="-417.32" font-family="Times,serif" font-size="14.00">casacore</text>
</a>
</g>
</g>
<!-- gdal -->
<g id="node2" class="node">
<title>gdal</title>
<g id="a_node2"><a xlink:href="https://github.com/conda-forge/gdal-feedstock/pull/789" xlink:title="gdal ❎">
<ellipse fill="#31688e" stroke="black" cx="313.89" cy="-494" rx="48.05" ry="18"/>
<text text-anchor="middle" x="313.89" y="-489.32" font-family="Times,serif" font-size="14.00" fill="white">gdal ❎</text>
</a>
</g>
</g>
<!-- rubinenv -->
<g id="node3" class="node">
<title>rubinenv</title>
<g id="a_node3"><a xlink:href="https://github.com/conda-forge/rubinenv-feedstock" xlink:title="rubinenv">
<ellipse fill="#fde725" stroke="black" cx="403.89" cy="-422" rx="55.94" ry="18"/>
<text text-anchor="middle" x="403.89" y="-417.32" font-family="Times,serif" font-size="14.00">rubinenv</text>
</a>
</g>
</g>
<!-- gdal&#45;&gt;rubinenv -->
<g id="edge1" class="edge">
<title>gdal&#45;&gt;rubinenv</title>
<path fill="none" stroke="black" d="M333.86,-477.46C345.93,-468.08 361.51,-455.96 374.92,-445.54"/>
<polygon fill="black" stroke="black" points="376.6,-447.88 382.35,-438.98 372.31,-442.35 376.6,-447.88"/>
</g>
<!-- healpix_cxx -->
<g id="node4" class="node">
<title>healpix_cxx</title>
<g id="a_node4"><a xlink:href="https://github.com/conda-forge/healpix_cxx-feedstock" xlink:title="healpix_cxx">
<ellipse fill="#35b779" stroke="black" cx="983.89" cy="-602" rx="69.1" ry="18"/>
<text text-anchor="middle" x="983.89" y="-597.33" font-family="Times,serif" font-size="14.00">healpix_cxx</text>
</a>
</g>
</g>
<!-- ccfits -->
<g id="node5" class="node">
<title>ccfits</title>
<g id="a_node5"><a xlink:href="https://github.com/conda-forge/ccfits-feedstock" xlink:title="ccfits">
<ellipse fill="#35b779" stroke="black" cx="983.89" cy="-530" rx="37.53" ry="18"/>
<text text-anchor="middle" x="983.89" y="-525.33" font-family="Times,serif" font-size="14.00">ccfits</text>
</a>
</g>
</g>
<!-- healpix_cxx&#45;&gt;ccfits -->
<!-- numcosmo -->
<g id="node16" class="node">
<title>numcosmo</title>
<g id="a_node16"><a xlink:href="https://github.com/conda-forge/numcosmo-feedstock" xlink:title="numcosmo">
<ellipse fill="#35b779" stroke="black" cx="983.89" cy="-458" rx="64.89" ry="18"/>
<text text-anchor="middle" x="983.89" y="-453.32" font-family="Times,serif" font-size="14.00">numcosmo</text>
</a>
</g>
</g>
<!-- ccfits&#45;&gt;numcosmo -->
<!-- healpy -->
<g id="node6" class="node">
<title>healpy</title>
<g id="a_node6"><a xlink:href="https://github.com/conda-forge/healpy-feedstock/pull/57" xlink:title="healpy ❎">
<ellipse fill="#31688e" stroke="black" cx="632.89" cy="-494" rx="59.63" ry="18"/>
<text text-anchor="middle" x="632.89" y="-489.32" font-family="Times,serif" font-size="14.00" fill="white">healpy ❎</text>
</a>
</g>
</g>
<!-- healpy&#45;&gt;rubinenv -->
<g id="edge3" class="edge">
<title>healpy&#45;&gt;rubinenv</title>
<path fill="none" stroke="black" d="M591.95,-480.49C553.25,-468.66 495.11,-450.88 453.73,-438.23"/>
<polygon fill="black" stroke="black" points="454.91,-434.63 444.33,-435.06 452.87,-441.33 454.91,-434.63"/>
</g>
<!-- lalpulsar -->
<g id="node7" class="node">
<title>lalpulsar</title>
<g id="a_node7"><a xlink:href="https://github.com/conda-forge/lalpulsar-feedstock" xlink:title="lalpulsar">
<ellipse fill="#fde725" stroke="black" cx="542.89" cy="-422" rx="54.89" ry="18"/>
<text text-anchor="middle" x="542.89" y="-417.32" font-family="Times,serif" font-size="14.00">lalpulsar</text>
</a>
</g>
</g>
<!-- healpy&#45;&gt;lalpulsar -->
<g id="edge4" class="edge">
<title>healpy&#45;&gt;lalpulsar</title>
<path fill="none" stroke="black" d="M612.02,-476.76C600.2,-467.58 585.24,-455.94 572.26,-445.84"/>
<polygon fill="black" stroke="black" points="574.69,-442.52 564.65,-439.15 570.4,-448.05 574.69,-442.52"/>
</g>
<!-- namaster -->
<g id="node8" class="node">
<title>namaster</title>
<g id="a_node8"><a xlink:href="https://github.com/conda-forge/namaster-feedstock" xlink:title="namaster">
<ellipse fill="#fde725" stroke="black" cx="765.89" cy="-422" rx="58.57" ry="18"/>
<text text-anchor="middle" x="765.89" y="-417.32" font-family="Times,serif" font-size="14.00">namaster</text>
</a>
</g>
</g>
<!-- healpy&#45;&gt;namaster -->
<g id="edge5" class="edge">
<title>healpy&#45;&gt;namaster</title>
<path fill="none" stroke="black" d="M661.75,-477.81C681.14,-467.61 706.9,-454.05 727.94,-442.97"/>
<polygon fill="black" stroke="black" points="729.33,-445.67 736.55,-437.92 726.07,-439.48 729.33,-445.67"/>
</g>
<!-- lalapps -->
<g id="node9" class="node">
<title>lalapps</title>
<g id="a_node9"><a xlink:href="https://github.com/conda-forge/lalapps-feedstock" xlink:title="lalapps">
<ellipse fill="#fde725" stroke="black" cx="541.89" cy="-350" rx="47" ry="18"/>
<text text-anchor="middle" x="541.89" y="-345.32" font-family="Times,serif" font-size="14.00">lalapps</text>
</a>
</g>
</g>
<!-- healpy&#45;&gt;lalapps -->
<g id="edge6" class="edge">
<title>healpy&#45;&gt;lalapps</title>
<path fill="none" stroke="black" d="M630.93,-475.65C628.13,-456.71 621.57,-426.14 606.89,-404 598.62,-391.53 586.51,-380.52 574.98,-371.82"/>
<polygon fill="black" stroke="black" points="577.51,-368.62 567.35,-365.63 573.43,-374.3 577.51,-368.62"/>
</g>
<!-- des&#45;eastlake -->
<g id="node10" class="node">
<title>des&#45;eastlake</title>
<g id="a_node10"><a xlink:href="https://github.com/conda-forge/des-eastlake-feedstock" xlink:title="des eastlake">
<ellipse fill="#fde725" stroke="black" cx="679.89" cy="-350" rx="73.3" ry="18"/>
<text text-anchor="middle" x="679.89" y="-345.32" font-family="Times,serif" font-size="14.00">des eastlake</text>
</a>
</g>
</g>
<!-- healpy&#45;&gt;des&#45;eastlake -->
<g id="edge7" class="edge">
<title>healpy&#45;&gt;des&#45;eastlake</title>
<path fill="none" stroke="black" d="M638.65,-475.59C646.7,-451.29 661.36,-406.97 670.86,-378.27"/>
<polygon fill="black" stroke="black" points="674.41,-379.7 674.23,-369.11 667.76,-377.5 674.41,-379.7"/>
</g>
<!-- lalpulsar&#45;&gt;lalapps -->
<g id="edge8" class="edge">
<title>lalpulsar&#45;&gt;lalapps</title>
<path fill="none" stroke="black" d="M542.64,-403.7C542.54,-396.24 542.41,-387.32 542.29,-378.97"/>
<polygon fill="black" stroke="black" points="545.78,-379.05 542.14,-369.1 538.78,-379.15 545.78,-379.05"/>
</g>
<!-- wcslib -->
<g id="node11" class="node">
<title>wcslib</title>
<g id="a_node11"><a xlink:href="https://github.com/conda-forge/wcslib-feedstock" xlink:title="wcslib">
<ellipse fill="#35b779" stroke="black" cx="204.89" cy="-494" rx="42.79" ry="18"/>
<text text-anchor="middle" x="204.89" y="-489.32" font-family="Times,serif" font-size="14.00">wcslib</text>
</a>
</g>
</g>
<!-- wcslib&#45;&gt;casacore -->
<g id="edge9" class="edge">
<title>wcslib&#45;&gt;casacore</title>
<path fill="none" stroke="black" d="M177.03,-480C154.07,-469.28 121.19,-453.94 95.33,-441.87"/>
<polygon fill="black" stroke="black" points="96.98,-438.31 86.44,-437.26 94.02,-444.66 96.98,-438.31"/>
</g>
<!-- wcslib&#45;&gt;rubinenv -->
<g id="edge10" class="edge">
<title>wcslib&#45;&gt;rubinenv</title>
<path fill="none" stroke="black" d="M236.86,-481.75C269.4,-470.31 320.18,-452.45 357.21,-439.42"/>
<polygon fill="black" stroke="black" points="358,-442.5 366.27,-435.88 355.67,-435.9 358,-442.5"/>
</g>
<!-- astrometry -->
<g id="node12" class="node">
<title>astrometry</title>
<g id="a_node12"><a xlink:href="https://github.com/conda-forge/astrometry-feedstock" xlink:title="astrometry">
<ellipse fill="#fde725" stroke="black" cx="109.89" cy="-350" rx="66.99" ry="18"/>
<text text-anchor="middle" x="109.89" y="-345.32" font-family="Times,serif" font-size="14.00">astrometry</text>
</a>
</g>
</g>
<!-- wcslib&#45;&gt;astrometry -->
<g id="edge11" class="edge">
<title>wcslib&#45;&gt;astrometry</title>
<path fill="none" stroke="black" d="M193.62,-476.15C177.19,-451.6 146.53,-405.77 127.22,-376.91"/>
<polygon fill="black" stroke="black" points="129.62,-375.19 121.15,-368.82 123.8,-379.08 129.62,-375.19"/>
</g>
<!-- gnuastro -->
<g id="node13" class="node">
<title>gnuastro</title>
<g id="a_node13"><a xlink:href="https://github.com/conda-forge/gnuastro-feedstock" xlink:title="gnuastro">
<ellipse fill="#fde725" stroke="black" cx="160.89" cy="-278" rx="55.94" ry="18"/>
<text text-anchor="middle" x="160.89" y="-273.32" font-family="Times,serif" font-size="14.00">gnuastro</text>
</a>
</g>
</g>
<!-- wcslib&#45;&gt;gnuastro -->
<g id="edge12" class="edge">
<title>wcslib&#45;&gt;gnuastro</title>
<path fill="none" stroke="black" d="M204.67,-475.72C203.88,-445.85 200.47,-382.87 185.89,-332 183.37,-323.2 179.53,-314.03 175.61,-305.85"/>
<polygon fill="black" stroke="black" points="178.33,-304.46 170.7,-297.11 172.08,-307.62 178.33,-304.46"/>
</g>
<!-- cpl -->
<g id="node14" class="node">
<title>cpl</title>
<g id="a_node14"><a xlink:href="https://github.com/conda-forge/cpl-feedstock" xlink:title="cpl">
<ellipse fill="#fde725" stroke="black" cx="244.89" cy="-206" rx="27" ry="18"/>
<text text-anchor="middle" x="244.89" y="-201.33" font-family="Times,serif" font-size="14.00">cpl</text>
</a>
</g>
</g>
<!-- wcslib&#45;&gt;cpl -->
<g id="edge13" class="edge">
<title>wcslib&#45;&gt;cpl</title>
<path fill="none" stroke="black" d="M208.81,-475.88C211.09,-465.53 213.89,-452.05 215.89,-440 228.1,-366.35 237.68,-278.84 242.15,-234.98"/>
<polygon fill="black" stroke="black" points="245.7,-235.61 243.22,-225.31 238.74,-234.91 245.7,-235.61"/>
</g>
<!-- lenstool -->
<g id="node15" class="node">
<title>lenstool</title>
<g id="a_node15"><a xlink:href="https://github.com/conda-forge/lenstool-feedstock" xlink:title="lenstool">
<ellipse fill="#fde725" stroke="black" cx="299.89" cy="-134" rx="50.68" ry="18"/>
<text text-anchor="middle" x="299.89" y="-129.32" font-family="Times,serif" font-size="14.00">lenstool</text>
</a>
</g>
</g>
<!-- wcslib&#45;&gt;lenstool -->
<g id="edge14" class="edge">
<title>wcslib&#45;&gt;lenstool</title>
<path fill="none" stroke="black" d="M224.12,-477.8C251.87,-453.98 299.89,-404.98 299.89,-351 299.89,-351 299.89,-351 299.89,-277 299.89,-237.57 299.89,-191.97 299.89,-163.31"/>
<polygon fill="black" stroke="black" points="303.39,-163.49 299.89,-153.49 296.39,-163.49 303.39,-163.49"/>
</g>
<!-- libvips -->
<g id="node17" class="node">
<title>libvips</title>
<g id="a_node17"><a xlink:href="https://github.com/conda-forge/libvips-feedstock" xlink:title="libvips">
<ellipse fill="#35b779" stroke="black" cx="983.89" cy="-386" rx="44.37" ry="18"/>
<text text-anchor="middle" x="983.89" y="-381.32" font-family="Times,serif" font-size="14.00">libvips</text>
</a>
</g>
</g>
<!-- numcosmo&#45;&gt;libvips -->
<!-- astromatic&#45;source&#45;extractor -->
<g id="node22" class="node">
<title>astromatic&#45;source&#45;extractor</title>
<g id="a_node22"><a xlink:href="https://github.com/conda-forge/astromatic-source-extractor-feedstock" xlink:title="astromatic source extractor">
<ellipse fill="#35b779" stroke="black" cx="983.89" cy="-314" rx="150.64" ry="18"/>
<text text-anchor="middle" x="983.89" y="-309.32" font-family="Times,serif" font-size="14.00">astromatic source extractor</text>
</a>
</g>
</g>
<!-- libvips&#45;&gt;astromatic&#45;source&#45;extractor -->
<!-- chealpix -->
<g id="node18" class="node">
<title>chealpix</title>
<g id="a_node18"><a xlink:href="https://github.com/conda-forge/chealpix-feedstock" xlink:title="chealpix">
<ellipse fill="#35b779" stroke="black" cx="765.89" cy="-494" rx="52.79" ry="18"/>
<text text-anchor="middle" x="765.89" y="-489.32" font-family="Times,serif" font-size="14.00">chealpix</text>
</a>
</g>
</g>
<!-- chealpix&#45;&gt;namaster -->
<g id="edge17" class="edge">
<title>chealpix&#45;&gt;namaster</title>
<path fill="none" stroke="black" d="M765.89,-475.7C765.89,-468.24 765.89,-459.32 765.89,-450.97"/>
<polygon fill="black" stroke="black" points="769.39,-451.1 765.89,-441.1 762.39,-451.1 769.39,-451.1"/>
</g>
<!-- root -->
<g id="node19" class="node">
<title>root</title>
<g id="a_node19"><a xlink:href="https://github.com/conda-forge/root-feedstock/pull/211" xlink:title="root ❎">
<ellipse fill="#31688e" stroke="black" cx="352.89" cy="-566" rx="47" ry="18"/>
<text text-anchor="middle" x="352.89" y="-561.33" font-family="Times,serif" font-size="14.00" fill="white">root ❎</text>
</a>
</g>
</g>
<!-- root&#45;&gt;rubinenv -->
<g id="edge18" class="edge">
<title>root&#45;&gt;rubinenv</title>
<path fill="none" stroke="black" d="M359.04,-547.87C367.73,-523.67 383.7,-479.21 394.05,-450.39"/>
<polygon fill="black" stroke="black" points="397.63,-451.78 397.72,-441.19 391.04,-449.42 397.63,-451.78"/>
</g>
<!-- photospline -->
<g id="node20" class="node">
<title>photospline</title>
<g id="a_node20"><a xlink:href="https://github.com/conda-forge/photospline-feedstock" xlink:title="photospline">
<ellipse fill="#35b779" stroke="black" cx="412.89" cy="-90" rx="69.62" ry="18"/>
<text text-anchor="middle" x="412.89" y="-85.33" font-family="Times,serif" font-size="14.00">photospline</text>
</a>
</g>
</g>
<!-- nuflux -->
<g id="node21" class="node">
<title>nuflux</title>
<g id="a_node21"><a xlink:href="https://github.com/conda-forge/nuflux-feedstock" xlink:title="nuflux">
<ellipse fill="#fde725" stroke="black" cx="412.89" cy="-18" rx="42.26" ry="18"/>
<text text-anchor="middle" x="412.89" y="-13.32" font-family="Times,serif" font-size="14.00">nuflux</text>
</a>
</g>
</g>
<!-- photospline&#45;&gt;nuflux -->
<g id="edge19" class="edge">
<title>photospline&#45;&gt;nuflux</title>
<path fill="none" stroke="black" d="M412.89,-71.7C412.89,-64.24 412.89,-55.32 412.89,-46.97"/>
<polygon fill="black" stroke="black" points="416.39,-47.1 412.89,-37.1 409.39,-47.1 416.39,-47.1"/>
</g>
<!-- hstcal -->
<g id="node23" class="node">
<title>hstcal</title>
<g id="a_node23"><a xlink:href="https://github.com/conda-forge/hstcal-feedstock" xlink:title="hstcal">
<ellipse fill="#35b779" stroke="black" cx="983.89" cy="-242" rx="41.21" ry="18"/>
<text text-anchor="middle" x="983.89" y="-237.32" font-family="Times,serif" font-size="14.00">hstcal</text>
</a>
</g>
</g>
<!-- astromatic&#45;source&#45;extractor&#45;&gt;hstcal -->
<!-- imagecodecs -->
<g id="node24" class="node">
<title>imagecodecs</title>
<g id="a_node24"><a xlink:href="https://github.com/conda-forge/imagecodecs-feedstock/pull/83" xlink:title="imagecodecs ❎">
<ellipse fill="#31688e" stroke="black" cx="425.89" cy="-638" rx="90.67" ry="18"/>
<text text-anchor="middle" x="425.89" y="-633.33" font-family="Times,serif" font-size="14.00" fill="white">imagecodecs ❎</text>
</a>
</g>
</g>
<!-- imagecodecs&#45;&gt;rubinenv -->
<g id="edge22" class="edge">
<title>imagecodecs&#45;&gt;rubinenv</title>
<path fill="none" stroke="black" d="M424.13,-619.85C420.34,-582.99 411.39,-495.92 406.76,-450.96"/>
<polygon fill="black" stroke="black" points="410.17,-450.82 405.66,-441.23 403.2,-451.54 410.17,-450.82"/>
</g>
<!-- tempo2 -->
<g id="node25" class="node">
<title>tempo2</title>
<g id="a_node25"><a xlink:href="https://github.com/conda-forge/tempo2-feedstock" xlink:title="tempo2">
<ellipse fill="#35b779" stroke="black" cx="1195.89" cy="-494" rx="49.1" ry="18"/>
<text text-anchor="middle" x="1195.89" y="-489.32" font-family="Times,serif" font-size="14.00">tempo2</text>
</a>
</g>
</g>
<!-- psrchive -->
<g id="node26" class="node">
<title>psrchive</title>
<g id="a_node26"><a xlink:href="https://github.com/conda-forge/psrchive-feedstock" xlink:title="psrchive">
<ellipse fill="#fde725" stroke="black" cx="1195.89" cy="-422" rx="53.84" ry="18"/>
<text text-anchor="middle" x="1195.89" y="-417.32" font-family="Times,serif" font-size="14.00">psrchive</text>
</a>
</g>
</g>
<!-- tempo2&#45;&gt;psrchive -->
<g id="edge23" class="edge">
<title>tempo2&#45;&gt;psrchive</title>
<path fill="none" stroke="black" d="M1195.89,-475.7C1195.89,-468.24 1195.89,-459.32 1195.89,-450.97"/>
<polygon fill="black" stroke="black" points="1199.39,-451.1 1195.89,-441.1 1192.39,-451.1 1199.39,-451.1"/>
</g>
<!-- dspsr -->
<g id="node27" class="node">
<title>dspsr</title>
<g id="a_node27"><a xlink:href="https://github.com/conda-forge/dspsr-feedstock" xlink:title="dspsr">
<ellipse fill="#fde725" stroke="black" cx="1195.89" cy="-350" rx="39.11" ry="18"/>
<text text-anchor="middle" x="1195.89" y="-345.32" font-family="Times,serif" font-size="14.00">dspsr</text>
</a>
</g>
</g>
<!-- psrchive&#45;&gt;dspsr -->
<g id="edge24" class="edge">
<title>psrchive&#45;&gt;dspsr</title>
<path fill="none" stroke="black" d="M1195.89,-403.7C1195.89,-396.24 1195.89,-387.32 1195.89,-378.97"/>
<polygon fill="black" stroke="black" points="1199.39,-379.1 1195.89,-369.1 1192.39,-379.1 1199.39,-379.1"/>
</g>
<!-- fitsverify -->
<g id="node28" class="node">
<title>fitsverify</title>
<g id="a_node28"><a xlink:href="https://github.com/conda-forge/fitsverify-feedstock" xlink:title="fitsverify">
<ellipse fill="#35b779" stroke="black" cx="544.89" cy="-710" rx="55.94" ry="18"/>
<text text-anchor="middle" x="544.89" y="-705.33" font-family="Times,serif" font-size="14.00">fitsverify</text>
</a>
</g>
</g>
<!-- fitsverify&#45;&gt;rubinenv -->
<g id="edge25" class="edge">
<title>fitsverify&#45;&gt;rubinenv</title>
<path fill="none" stroke="black" d="M542.99,-691.76C540.58,-673.44 535.5,-643.89 525.89,-620 499.18,-553.59 450.67,-484.34 423.56,-448.27"/>
<polygon fill="black" stroke="black" points="425.99,-446.68 417.16,-440.83 420.42,-450.91 425.99,-446.68"/>
</g>
</g>
</svg>
