<?xml version="1.0" encoding="UTF-8" standalone="no"?>
<!DOCTYPE svg PUBLIC "-//W3C//DTD SVG 1.1//EN"
 "http://www.w3.org/Graphics/SVG/1.1/DTD/svg11.dtd">
<!-- Generated by graphviz version 8.1.0 (20230707.2238)
 -->
<!-- Pages: 1 -->
<svg width="1252pt" height="736pt"
 viewBox="0.00 0.00 1251.73 736.00" xmlns="http://www.w3.org/2000/svg" xmlns:xlink="http://www.w3.org/1999/xlink">
<g id="graph0" class="graph" transform="scale(1 1) rotate(0) translate(4 732)">
<polygon fill="white" stroke="none" points="-4,4 -4,-732 1247.73,-732 1247.73,4 -4,4"/>
<!-- casacore -->
<g id="node1" class="node">
<title>casacore</title>
<g id="a_node1"><a xlink:href="https://github.com/conda-forge/casacore-feedstock" xlink:title="casacore">
<ellipse fill="#fde725" stroke="black" cx="54.89" cy="-422" rx="54.89" ry="18"/>
<text text-anchor="middle" x="54.89" y="-417.32" font-family="Times,serif" font-size="14.00">casacore</text>
</a>
</g>
</g>
<!-- gdal -->
<g id="node2" class="node">
<title>gdal</title>
<g id="a_node2"><a xlink:href="https://github.com/conda-forge/gdal-feedstock/pull/789" xlink:title="gdal ❎">
<ellipse fill="#31688e" stroke="black" cx="313.89" cy="-494" rx="48.05" ry="18"/>
<text text-anchor="middle" x="313.89" y="-489.32" font-family="Times,serif" font-size="14.00" fill="white">gdal ❎</text>
</a>
</g>
</g>
<!-- rubinenv -->
<g id="node3" class="node">
<title>rubinenv</title>
<g id="a_node3"><a xlink:href="https://github.com/conda-forge/rubinenv-feedstock" xlink:title="rubinenv">
<ellipse fill="#fde725" stroke="black" cx="399.89" cy="-422" rx="55.94" ry="18"/>
<text text-anchor="middle" x="399.89" y="-417.32" font-family="Times,serif" font-size="14.00">rubinenv</text>
</a>
</g>
</g>
<!-- gdal&#45;&gt;rubinenv -->
<g id="edge1" class="edge">
<title>gdal&#45;&gt;rubinenv</title>
<path fill="none" stroke="black" d="M333.41,-477.12C344.76,-467.87 359.27,-456.07 371.83,-445.84"/>
<polygon fill="black" stroke="black" points="373.61,-448.09 379.16,-439.06 369.19,-442.66 373.61,-448.09"/>
</g>
<!-- healpix_cxx -->
<g id="node4" class="node">
<title>healpix_cxx</title>
<g id="a_node4"><a xlink:href="https://github.com/conda-forge/healpix_cxx-feedstock" xlink:title="healpix_cxx">
<ellipse fill="#35b779" stroke="black" cx="977.89" cy="-602" rx="69.1" ry="18"/>
<text text-anchor="middle" x="977.89" y="-597.33" font-family="Times,serif" font-size="14.00">healpix_cxx</text>
</a>
</g>
</g>
<!-- ccfits -->
<g id="node5" class="node">
<title>ccfits</title>
<g id="a_node5"><a xlink:href="https://github.com/conda-forge/ccfits-feedstock" xlink:title="ccfits">
<ellipse fill="#35b779" stroke="black" cx="977.89" cy="-530" rx="37.53" ry="18"/>
<text text-anchor="middle" x="977.89" y="-525.33" font-family="Times,serif" font-size="14.00">ccfits</text>
</a>
</g>
</g>
<!-- healpix_cxx&#45;&gt;ccfits -->
<!-- numcosmo -->
<g id="node16" class="node">
<title>numcosmo</title>
<g id="a_node16"><a xlink:href="https://github.com/conda-forge/numcosmo-feedstock" xlink:title="numcosmo">
<ellipse fill="#35b779" stroke="black" cx="977.89" cy="-458" rx="64.89" ry="18"/>
<text text-anchor="middle" x="977.89" y="-453.32" font-family="Times,serif" font-size="14.00">numcosmo</text>
</a>
</g>
</g>
<!-- ccfits&#45;&gt;numcosmo -->
<!-- healpy -->
<g id="node6" class="node">
<title>healpy</title>
<g id="a_node6"><a xlink:href="https://github.com/conda-forge/healpy-feedstock/pull/57" xlink:title="healpy ❎">
<ellipse fill="#31688e" stroke="black" cx="625.89" cy="-494" rx="59.63" ry="18"/>
<text text-anchor="middle" x="625.89" y="-489.32" font-family="Times,serif" font-size="14.00" fill="white">healpy ❎</text>
</a>
</g>
</g>
<!-- healpy&#45;&gt;rubinenv -->
<g id="edge3" class="edge">
<title>healpy&#45;&gt;rubinenv</title>
<path fill="none" stroke="black" d="M585.23,-480.4C547.19,-468.63 490.31,-451 449.6,-438.4"/>
<polygon fill="black" stroke="black" points="450.68,-434.76 440.09,-435.14 448.61,-441.44 450.68,-434.76"/>
</g>
<!-- lalpulsar -->
<g id="node7" class="node">
<title>lalpulsar</title>
<g id="a_node7"><a xlink:href="https://github.com/conda-forge/lalpulsar-feedstock" xlink:title="lalpulsar">
<ellipse fill="#fde725" stroke="black" cx="536.89" cy="-422" rx="54.89" ry="18"/>
<text text-anchor="middle" x="536.89" y="-417.32" font-family="Times,serif" font-size="14.00">lalpulsar</text>
</a>
</g>
</g>
<!-- healpy&#45;&gt;lalpulsar -->
<g id="edge4" class="edge">
<title>healpy&#45;&gt;lalpulsar</title>
<path fill="none" stroke="black" d="M605.25,-476.76C593.57,-467.58 578.77,-455.94 565.93,-445.84"/>
<polygon fill="black" stroke="black" points="568.44,-442.58 558.42,-439.15 564.12,-448.08 568.44,-442.58"/>
</g>
<!-- namaster -->
<g id="node8" class="node">
<title>namaster</title>
<g id="a_node8"><a xlink:href="https://github.com/conda-forge/namaster-feedstock" xlink:title="namaster">
<ellipse fill="#fde725" stroke="black" cx="759.89" cy="-422" rx="58.57" ry="18"/>
<text text-anchor="middle" x="759.89" y="-417.32" font-family="Times,serif" font-size="14.00">namaster</text>
</a>
</g>
</g>
<!-- healpy&#45;&gt;namaster -->
<g id="edge5" class="edge">
<title>healpy&#45;&gt;namaster</title>
<path fill="none" stroke="black" d="M654.97,-477.81C674.5,-467.61 700.45,-454.05 721.66,-442.97"/>
<polygon fill="black" stroke="black" points="723.09,-445.65 730.33,-437.92 719.85,-439.45 723.09,-445.65"/>
</g>
<!-- lalapps -->
<g id="node9" class="node">
<title>lalapps</title>
<g id="a_node9"><a xlink:href="https://github.com/conda-forge/lalapps-feedstock" xlink:title="lalapps">
<ellipse fill="#fde725" stroke="black" cx="535.89" cy="-350" rx="47" ry="18"/>
<text text-anchor="middle" x="535.89" y="-345.32" font-family="Times,serif" font-size="14.00">lalapps</text>
</a>
</g>
</g>
<!-- healpy&#45;&gt;lalapps -->
<g id="edge6" class="edge">
<title>healpy&#45;&gt;lalapps</title>
<path fill="none" stroke="black" d="M624.16,-475.65C621.6,-456.72 615.41,-426.15 600.89,-404 592.68,-391.48 580.59,-380.47 569.05,-371.78"/>
<polygon fill="black" stroke="black" points="571.58,-368.57 561.41,-365.59 567.5,-374.26 571.58,-368.57"/>
</g>
<!-- des&#45;eastlake -->
<g id="node10" class="node">
<title>des&#45;eastlake</title>
<g id="a_node10"><a xlink:href="https://github.com/conda-forge/des-eastlake-feedstock" xlink:title="des eastlake">
<ellipse fill="#fde725" stroke="black" cx="673.89" cy="-350" rx="73.3" ry="18"/>
<text text-anchor="middle" x="673.89" y="-345.32" font-family="Times,serif" font-size="14.00">des eastlake</text>
</a>
</g>
</g>
<!-- healpy&#45;&gt;des&#45;eastlake -->
<g id="edge7" class="edge">
<title>healpy&#45;&gt;des&#45;eastlake</title>
<path fill="none" stroke="black" d="M631.68,-475.87C639.86,-451.67 654.89,-407.21 664.63,-378.39"/>
<polygon fill="black" stroke="black" points="668.19,-379.78 668.08,-369.19 661.56,-377.54 668.19,-379.78"/>
</g>
<!-- lalpulsar&#45;&gt;lalapps -->
<g id="edge8" class="edge">
<title>lalpulsar&#45;&gt;lalapps</title>
<path fill="none" stroke="black" d="M536.64,-403.7C536.54,-396.24 536.41,-387.32 536.29,-378.97"/>
<polygon fill="black" stroke="black" points="539.78,-379.05 536.14,-369.1 532.78,-379.15 539.78,-379.05"/>
</g>
<!-- wcslib -->
<g id="node11" class="node">
<title>wcslib</title>
<g id="a_node11"><a xlink:href="https://github.com/conda-forge/wcslib-feedstock" xlink:title="wcslib">
<ellipse fill="#35b779" stroke="black" cx="204.89" cy="-494" rx="42.79" ry="18"/>
<text text-anchor="middle" x="204.89" y="-489.32" font-family="Times,serif" font-size="14.00">wcslib</text>
</a>
</g>
</g>
<!-- wcslib&#45;&gt;casacore -->
<g id="edge9" class="edge">
<title>wcslib&#45;&gt;casacore</title>
<path fill="none" stroke="black" d="M177.03,-480C154.07,-469.28 121.19,-453.94 95.33,-441.87"/>
<polygon fill="black" stroke="black" points="96.98,-438.31 86.44,-437.26 94.02,-444.66 96.98,-438.31"/>
</g>
<!-- wcslib&#45;&gt;rubinenv -->
<g id="edge10" class="edge">
<title>wcslib&#45;&gt;rubinenv</title>
<path fill="none" stroke="black" d="M236.65,-481.6C268.28,-470.24 317.19,-452.69 353.23,-439.75"/>
<polygon fill="black" stroke="black" points="354.26,-442.74 362.49,-436.07 351.9,-436.15 354.26,-442.74"/>
</g>
<!-- astrometry -->
<g id="node12" class="node">
<title>astrometry</title>
<g id="a_node12"><a xlink:href="https://github.com/conda-forge/astrometry-feedstock" xlink:title="astrometry">
<ellipse fill="#fde725" stroke="black" cx="109.89" cy="-350" rx="66.99" ry="18"/>
<text text-anchor="middle" x="109.89" y="-345.32" font-family="Times,serif" font-size="14.00">astrometry</text>
</a>
</g>
</g>
<!-- wcslib&#45;&gt;astrometry -->
<g id="edge11" class="edge">
<title>wcslib&#45;&gt;astrometry</title>
<path fill="none" stroke="black" d="M193.62,-476.15C177.19,-451.6 146.53,-405.77 127.22,-376.91"/>
<polygon fill="black" stroke="black" points="129.62,-375.19 121.15,-368.82 123.8,-379.08 129.62,-375.19"/>
</g>
<!-- gnuastro -->
<g id="node13" class="node">
<title>gnuastro</title>
<g id="a_node13"><a xlink:href="https://github.com/conda-forge/gnuastro-feedstock" xlink:title="gnuastro">
<ellipse fill="#fde725" stroke="black" cx="160.89" cy="-278" rx="55.94" ry="18"/>
<text text-anchor="middle" x="160.89" y="-273.32" font-family="Times,serif" font-size="14.00">gnuastro</text>
</a>
</g>
</g>
<!-- wcslib&#45;&gt;gnuastro -->
<g id="edge12" class="edge">
<title>wcslib&#45;&gt;gnuastro</title>
<path fill="none" stroke="black" d="M204.67,-475.72C203.88,-445.85 200.47,-382.87 185.89,-332 183.37,-323.2 179.53,-314.03 175.61,-305.85"/>
<polygon fill="black" stroke="black" points="178.33,-304.46 170.7,-297.11 172.08,-307.62 178.33,-304.46"/>
</g>
<!-- cpl -->
<g id="node14" class="node">
<title>cpl</title>
<g id="a_node14"><a xlink:href="https://github.com/conda-forge/cpl-feedstock" xlink:title="cpl">
<ellipse fill="#fde725" stroke="black" cx="244.89" cy="-206" rx="27" ry="18"/>
<text text-anchor="middle" x="244.89" y="-201.33" font-family="Times,serif" font-size="14.00">cpl</text>
</a>
</g>
</g>
<!-- wcslib&#45;&gt;cpl -->
<g id="edge13" class="edge">
<title>wcslib&#45;&gt;cpl</title>
<path fill="none" stroke="black" d="M208.81,-475.88C211.09,-465.53 213.89,-452.05 215.89,-440 228.1,-366.35 237.68,-278.84 242.15,-234.98"/>
<polygon fill="black" stroke="black" points="245.7,-235.61 243.22,-225.31 238.74,-234.91 245.7,-235.61"/>
</g>
<!-- lenstool -->
<g id="node15" class="node">
<title>lenstool</title>
<g id="a_node15"><a xlink:href="https://github.com/conda-forge/lenstool-feedstock" xlink:title="lenstool">
<ellipse fill="#fde725" stroke="black" cx="299.89" cy="-134" rx="50.68" ry="18"/>
<text text-anchor="middle" x="299.89" y="-129.32" font-family="Times,serif" font-size="14.00">lenstool</text>
</a>
</g>
</g>
<!-- wcslib&#45;&gt;lenstool -->
<g id="edge14" class="edge">
<title>wcslib&#45;&gt;lenstool</title>
<path fill="none" stroke="black" d="M224.12,-477.8C251.87,-453.98 299.89,-404.98 299.89,-351 299.89,-351 299.89,-351 299.89,-277 299.89,-237.57 299.89,-191.97 299.89,-163.31"/>
<polygon fill="black" stroke="black" points="303.39,-163.49 299.89,-153.49 296.39,-163.49 303.39,-163.49"/>
</g>
<!-- libvips -->
<g id="node17" class="node">
<title>libvips</title>
<g id="a_node17"><a xlink:href="https://github.com/conda-forge/libvips-feedstock" xlink:title="libvips">
<ellipse fill="#35b779" stroke="black" cx="977.89" cy="-386" rx="44.37" ry="18"/>
<text text-anchor="middle" x="977.89" y="-381.32" font-family="Times,serif" font-size="14.00">libvips</text>
</a>
</g>
</g>
<!-- numcosmo&#45;&gt;libvips -->
<!-- astromatic&#45;source&#45;extractor -->
<g id="node22" class="node">
<title>astromatic&#45;source&#45;extractor</title>
<g id="a_node22"><a xlink:href="https://github.com/conda-forge/astromatic-source-extractor-feedstock" xlink:title="astromatic source extractor">
<ellipse fill="#35b779" stroke="black" cx="977.89" cy="-314" rx="150.64" ry="18"/>
<text text-anchor="middle" x="977.89" y="-309.32" font-family="Times,serif" font-size="14.00">astromatic source extractor</text>
</a>
</g>
</g>
<!-- libvips&#45;&gt;astromatic&#45;source&#45;extractor -->
<!-- chealpix -->
<g id="node18" class="node">
<title>chealpix</title>
<g id="a_node18"><a xlink:href="https://github.com/conda-forge/chealpix-feedstock" xlink:title="chealpix">
<ellipse fill="#35b779" stroke="black" cx="759.89" cy="-494" rx="52.79" ry="18"/>
<text text-anchor="middle" x="759.89" y="-489.32" font-family="Times,serif" font-size="14.00">chealpix</text>
</a>
</g>
</g>
<!-- chealpix&#45;&gt;namaster -->
<g id="edge17" class="edge">
<title>chealpix&#45;&gt;namaster</title>
<path fill="none" stroke="black" d="M759.89,-475.7C759.89,-468.24 759.89,-459.32 759.89,-450.97"/>
<polygon fill="black" stroke="black" points="763.39,-451.1 759.89,-441.1 756.39,-451.1 763.39,-451.1"/>
</g>
<!-- root -->
<g id="node19" class="node">
<title>root</title>
<g id="a_node19"><a xlink:href="https://github.com/conda-forge/root-feedstock/pull/211" xlink:title="root ❎">
<ellipse fill="#31688e" stroke="black" cx="352.89" cy="-566" rx="47" ry="18"/>
<text text-anchor="middle" x="352.89" y="-561.33" font-family="Times,serif" font-size="14.00" fill="white">root ❎</text>
</a>
</g>
</g>
<!-- root&#45;&gt;rubinenv -->
<g id="edge18" class="edge">
<title>root&#45;&gt;rubinenv</title>
<path fill="none" stroke="black" d="M358.78,-547.83C362.32,-537.47 366.9,-523.99 370.89,-512 377.74,-491.41 385.33,-468.09 391.03,-450.48"/>
<polygon fill="black" stroke="black" points="394.65,-451.67 394.39,-441.08 387.99,-449.52 394.65,-451.67"/>
</g>
<!-- photospline -->
<g id="node20" class="node">
<title>photospline</title>
<g id="a_node20"><a xlink:href="https://github.com/conda-forge/photospline-feedstock" xlink:title="photospline">
<ellipse fill="#35b779" stroke="black" cx="409.89" cy="-90" rx="69.62" ry="18"/>
<text text-anchor="middle" x="409.89" y="-85.33" font-family="Times,serif" font-size="14.00">photospline</text>
</a>
</g>
</g>
<!-- nuflux -->
<g id="node21" class="node">
<title>nuflux</title>
<g id="a_node21"><a xlink:href="https://github.com/conda-forge/nuflux-feedstock" xlink:title="nuflux">
<ellipse fill="#fde725" stroke="black" cx="409.89" cy="-18" rx="42.26" ry="18"/>
<text text-anchor="middle" x="409.89" y="-13.32" font-family="Times,serif" font-size="14.00">nuflux</text>
</a>
</g>
</g>
<!-- photospline&#45;&gt;nuflux -->
<g id="edge19" class="edge">
<title>photospline&#45;&gt;nuflux</title>
<path fill="none" stroke="black" d="M409.89,-71.7C409.89,-64.24 409.89,-55.32 409.89,-46.97"/>
<polygon fill="black" stroke="black" points="413.39,-47.1 409.89,-37.1 406.39,-47.1 413.39,-47.1"/>
</g>
<!-- hstcal -->
<g id="node23" class="node">
<title>hstcal</title>
<g id="a_node23"><a xlink:href="https://github.com/conda-forge/hstcal-feedstock" xlink:title="hstcal">
<ellipse fill="#35b779" stroke="black" cx="977.89" cy="-242" rx="41.21" ry="18"/>
<text text-anchor="middle" x="977.89" y="-237.32" font-family="Times,serif" font-size="14.00">hstcal</text>
</a>
</g>
</g>
<!-- astromatic&#45;source&#45;extractor&#45;&gt;hstcal -->
<!-- imagecodecs -->
<g id="node24" class="node">
<title>imagecodecs</title>
<g id="a_node24"><a xlink:href="https://github.com/conda-forge/imagecodecs-feedstock/pull/83" xlink:title="imagecodecs ✓">
<ellipse fill="#31688e" stroke="black" cx="426.89" cy="-638" rx="83.3" ry="18"/>
<text text-anchor="middle" x="426.89" y="-633.33" font-family="Times,serif" font-size="14.00" fill="white">imagecodecs ✓</text>
</a>
</g>
</g>
<!-- imagecodecs&#45;&gt;rubinenv -->
<g id="edge22" class="edge">
<title>imagecodecs&#45;&gt;rubinenv</title>
<path fill="none" stroke="black" d="M424.73,-619.85C420.08,-582.99 409.09,-495.92 403.42,-450.96"/>
<polygon fill="black" stroke="black" points="406.79,-450.72 402.06,-441.23 399.84,-451.59 406.79,-450.72"/>
</g>
<!-- tempo2 -->
<g id="node25" class="node">
<title>tempo2</title>
<g id="a_node25"><a xlink:href="https://github.com/conda-forge/tempo2-feedstock" xlink:title="tempo2">
<ellipse fill="#35b779" stroke="black" cx="1189.89" cy="-494" rx="49.1" ry="18"/>
<text text-anchor="middle" x="1189.89" y="-489.32" font-family="Times,serif" font-size="14.00">tempo2</text>
</a>
</g>
</g>
<!-- psrchive -->
<g id="node26" class="node">
<title>psrchive</title>
<g id="a_node26"><a xlink:href="https://github.com/conda-forge/psrchive-feedstock" xlink:title="psrchive">
<ellipse fill="#fde725" stroke="black" cx="1189.89" cy="-422" rx="53.84" ry="18"/>
<text text-anchor="middle" x="1189.89" y="-417.32" font-family="Times,serif" font-size="14.00">psrchive</text>
</a>
</g>
</g>
<!-- tempo2&#45;&gt;psrchive -->
<g id="edge23" class="edge">
<title>tempo2&#45;&gt;psrchive</title>
<path fill="none" stroke="black" d="M1189.89,-475.7C1189.89,-468.24 1189.89,-459.32 1189.89,-450.97"/>
<polygon fill="black" stroke="black" points="1193.39,-451.1 1189.89,-441.1 1186.39,-451.1 1193.39,-451.1"/>
</g>
<!-- dspsr -->
<g id="node27" class="node">
<title>dspsr</title>
<g id="a_node27"><a xlink:href="https://github.com/conda-forge/dspsr-feedstock" xlink:title="dspsr">
<ellipse fill="#fde725" stroke="black" cx="1189.89" cy="-350" rx="39.11" ry="18"/>
<text text-anchor="middle" x="1189.89" y="-345.32" font-family="Times,serif" font-size="14.00">dspsr</text>
</a>
</g>
</g>
<!-- psrchive&#45;&gt;dspsr -->
<g id="edge24" class="edge">
<title>psrchive&#45;&gt;dspsr</title>
<path fill="none" stroke="black" d="M1189.89,-403.7C1189.89,-396.24 1189.89,-387.32 1189.89,-378.97"/>
<polygon fill="black" stroke="black" points="1193.39,-379.1 1189.89,-369.1 1186.39,-379.1 1193.39,-379.1"/>
</g>
<!-- fitsverify -->
<g id="node28" class="node">
<title>fitsverify</title>
<g id="a_node28"><a xlink:href="https://github.com/conda-forge/fitsverify-feedstock" xlink:title="fitsverify">
<ellipse fill="#35b779" stroke="black" cx="537.89" cy="-710" rx="55.94" ry="18"/>
<text text-anchor="middle" x="537.89" y="-705.33" font-family="Times,serif" font-size="14.00">fitsverify</text>
</a>
</g>
</g>
<!-- fitsverify&#45;&gt;rubinenv -->
<g id="edge25" class="edge">
<title>fitsverify&#45;&gt;rubinenv</title>
<path fill="none" stroke="black" d="M535.94,-691.78C533.48,-673.48 528.37,-643.95 518.89,-620 492.73,-553.9 445.45,-484.52 419.05,-448.35"/>
<polygon fill="black" stroke="black" points="421.56,-446.86 412.81,-440.89 415.93,-451.02 421.56,-446.86"/>
</g>
</g>
</svg>
