<?xml version="1.0" encoding="UTF-8" standalone="no"?>
<!DOCTYPE svg PUBLIC "-//W3C//DTD SVG 1.1//EN"
 "http://www.w3.org/Graphics/SVG/1.1/DTD/svg11.dtd">
<!-- Generated by graphviz version 9.0.0 (20231125.0833)
 -->
<!-- Pages: 1 -->
<svg width="907pt" height="592pt"
 viewBox="0.00 0.00 907.25 592.00" xmlns="http://www.w3.org/2000/svg" xmlns:xlink="http://www.w3.org/1999/xlink">
<g id="graph0" class="graph" transform="scale(1 1) rotate(0) translate(4 588)">
<polygon fill="white" stroke="none" points="-4,4 -4,-588 903.25,-588 903.25,4 -4,4"/>
<!-- casacore -->
<g id="node1" class="node">
<title>casacore</title>
<g id="a_node1"><a xlink:href="https://github.com/conda-forge/casacore-feedstock" xlink:title="casacore">
<ellipse fill="#fde725" stroke="black" cx="54.89" cy="-422" rx="54.89" ry="18"/>
<text text-anchor="middle" x="54.89" y="-417.32" font-family="Times,serif" font-size="14.00">casacore</text>
</a>
</g>
</g>
<!-- healpix_cxx -->
<g id="node2" class="node">
<title>healpix_cxx</title>
<g id="a_node2"><a xlink:href="https://github.com/conda-forge/healpix_cxx-feedstock" xlink:title="healpix_cxx">
<ellipse fill="#35b779" stroke="black" cx="611.89" cy="-566" rx="69.1" ry="18"/>
<text text-anchor="middle" x="611.89" y="-561.33" font-family="Times,serif" font-size="14.00">healpix_cxx</text>
</a>
</g>
</g>
<!-- ccfits -->
<g id="node3" class="node">
<title>ccfits</title>
<g id="a_node3"><a xlink:href="https://github.com/conda-forge/ccfits-feedstock" xlink:title="ccfits">
<ellipse fill="#35b779" stroke="black" cx="611.89" cy="-494" rx="37.53" ry="18"/>
<text text-anchor="middle" x="611.89" y="-489.32" font-family="Times,serif" font-size="14.00">ccfits</text>
</a>
</g>
</g>
<!-- healpix_cxx&#45;&gt;ccfits -->
<!-- numcosmo -->
<g id="node10" class="node">
<title>numcosmo</title>
<g id="a_node10"><a xlink:href="https://github.com/conda-forge/numcosmo-feedstock" xlink:title="numcosmo">
<ellipse fill="#35b779" stroke="black" cx="611.89" cy="-422" rx="64.89" ry="18"/>
<text text-anchor="middle" x="611.89" y="-417.32" font-family="Times,serif" font-size="14.00">numcosmo</text>
</a>
</g>
</g>
<!-- ccfits&#45;&gt;numcosmo -->
<!-- wcslib -->
<g id="node4" class="node">
<title>wcslib</title>
<g id="a_node4"><a xlink:href="https://github.com/conda-forge/wcslib-feedstock/pull/30" xlink:title="wcslib ✓">
<ellipse fill="#31688e" stroke="black" cx="224.89" cy="-494" rx="50.68" ry="18"/>
<text text-anchor="middle" x="224.89" y="-489.32" font-family="Times,serif" font-size="14.00" fill="white">wcslib ✓</text>
</a>
</g>
</g>
<!-- wcslib&#45;&gt;casacore -->
<g id="edge2" class="edge">
<title>wcslib&#45;&gt;casacore</title>
<path fill="none" stroke="black" d="M192.92,-479.83C166.27,-468.86 128.06,-453.13 98.6,-441"/>
<polygon fill="black" stroke="black" points="100.15,-437.85 89.57,-437.28 97.49,-444.33 100.15,-437.85"/>
</g>
<!-- astrometry -->
<g id="node5" class="node">
<title>astrometry</title>
<g id="a_node5"><a xlink:href="https://github.com/conda-forge/astrometry-feedstock" xlink:title="astrometry">
<ellipse fill="#fde725" stroke="black" cx="108.89" cy="-350" rx="66.99" ry="18"/>
<text text-anchor="middle" x="108.89" y="-345.32" font-family="Times,serif" font-size="14.00">astrometry</text>
</a>
</g>
</g>
<!-- wcslib&#45;&gt;astrometry -->
<g id="edge3" class="edge">
<title>wcslib&#45;&gt;astrometry</title>
<path fill="none" stroke="black" d="M211.36,-476.43C191.3,-451.88 153.5,-405.6 129.84,-376.65"/>
<polygon fill="black" stroke="black" points="132.69,-374.6 123.66,-369.07 127.27,-379.03 132.69,-374.6"/>
</g>
<!-- gnuastro -->
<g id="node6" class="node">
<title>gnuastro</title>
<g id="a_node6"><a xlink:href="https://github.com/conda-forge/gnuastro-feedstock" xlink:title="gnuastro">
<ellipse fill="#fde725" stroke="black" cx="157.89" cy="-278" rx="55.94" ry="18"/>
<text text-anchor="middle" x="157.89" y="-273.32" font-family="Times,serif" font-size="14.00">gnuastro</text>
</a>
</g>
</g>
<!-- wcslib&#45;&gt;gnuastro -->
<g id="edge4" class="edge">
<title>wcslib&#45;&gt;gnuastro</title>
<path fill="none" stroke="black" d="M221.93,-475.69C216.52,-445.78 203.83,-382.73 184.89,-332 181.63,-323.26 177.3,-314.08 173.07,-305.86"/>
<polygon fill="black" stroke="black" points="176.17,-304.25 168.37,-297.07 170,-307.54 176.17,-304.25"/>
</g>
<!-- rubinenv -->
<g id="node7" class="node">
<title>rubinenv</title>
<g id="a_node7"><a xlink:href="https://github.com/conda-forge/rubinenv-feedstock" xlink:title="rubinenv">
<ellipse fill="#fde725" stroke="black" cx="371.89" cy="-422" rx="55.94" ry="18"/>
<text text-anchor="middle" x="371.89" y="-417.32" font-family="Times,serif" font-size="14.00">rubinenv</text>
</a>
</g>
</g>
<!-- wcslib&#45;&gt;rubinenv -->
<g id="edge5" class="edge">
<title>wcslib&#45;&gt;rubinenv</title>
<path fill="none" stroke="black" d="M254.29,-479C276.33,-468.51 306.77,-454.01 331.15,-442.4"/>
<polygon fill="black" stroke="black" points="332.65,-445.56 340.17,-438.11 329.64,-439.24 332.65,-445.56"/>
</g>
<!-- cpl -->
<g id="node8" class="node">
<title>cpl</title>
<g id="a_node8"><a xlink:href="https://github.com/conda-forge/cpl-feedstock" xlink:title="cpl">
<ellipse fill="#fde725" stroke="black" cx="232.89" cy="-206" rx="27" ry="18"/>
<text text-anchor="middle" x="232.89" y="-201.33" font-family="Times,serif" font-size="14.00">cpl</text>
</a>
</g>
</g>
<!-- wcslib&#45;&gt;cpl -->
<g id="edge6" class="edge">
<title>wcslib&#45;&gt;cpl</title>
<path fill="none" stroke="black" d="M225.38,-475.54C226.72,-427.76 230.44,-294.51 232.09,-235.61"/>
<polygon fill="black" stroke="black" points="235.59,-235.84 232.37,-225.74 228.59,-235.64 235.59,-235.84"/>
</g>
<!-- lenstool -->
<g id="node9" class="node">
<title>lenstool</title>
<g id="a_node9"><a xlink:href="https://github.com/conda-forge/lenstool-feedstock" xlink:title="lenstool">
<ellipse fill="#fde725" stroke="black" cx="287.89" cy="-134" rx="50.68" ry="18"/>
<text text-anchor="middle" x="287.89" y="-129.32" font-family="Times,serif" font-size="14.00">lenstool</text>
</a>
</g>
</g>
<!-- wcslib&#45;&gt;lenstool -->
<g id="edge7" class="edge">
<title>wcslib&#45;&gt;lenstool</title>
<path fill="none" stroke="black" d="M237.94,-476.15C256.4,-450.59 287.89,-399.82 287.89,-351 287.89,-351 287.89,-351 287.89,-277 287.89,-237.74 287.89,-192.38 287.89,-163.69"/>
<polygon fill="black" stroke="black" points="291.39,-164 287.89,-154 284.39,-164 291.39,-164"/>
</g>
<!-- libvips -->
<g id="node11" class="node">
<title>libvips</title>
<g id="a_node11"><a xlink:href="https://github.com/conda-forge/libvips-feedstock" xlink:title="libvips">
<ellipse fill="#35b779" stroke="black" cx="611.89" cy="-350" rx="44.37" ry="18"/>
<text text-anchor="middle" x="611.89" y="-345.32" font-family="Times,serif" font-size="14.00">libvips</text>
</a>
</g>
</g>
<!-- numcosmo&#45;&gt;libvips -->
<!-- astromatic&#45;source&#45;extractor -->
<g id="node19" class="node">
<title>astromatic&#45;source&#45;extractor</title>
<g id="a_node19"><a xlink:href="https://github.com/conda-forge/astromatic-source-extractor-feedstock" xlink:title="astromatic source extractor">
<ellipse fill="#35b779" stroke="black" cx="611.89" cy="-278" rx="150.64" ry="18"/>
<text text-anchor="middle" x="611.89" y="-273.32" font-family="Times,serif" font-size="14.00">astromatic source extractor</text>
</a>
</g>
</g>
<!-- libvips&#45;&gt;astromatic&#45;source&#45;extractor -->
<!-- lalpulsar -->
<g id="node12" class="node">
<title>lalpulsar</title>
<g id="a_node12"><a xlink:href="https://github.com/conda-forge/lalpulsar-feedstock" xlink:title="lalpulsar">
<ellipse fill="#ff8c00" stroke="black" cx="834.89" cy="-90" rx="54.89" ry="18"/>
<text text-anchor="middle" x="834.89" y="-85.33" font-family="Times,serif" font-size="14.00">lalpulsar</text>
</a>
</g>
</g>
<!-- lalapps -->
<g id="node13" class="node">
<title>lalapps</title>
<g id="a_node13"><a xlink:href="https://github.com/conda-forge/lalapps-feedstock" xlink:title="lalapps">
<ellipse fill="#fde725" stroke="black" cx="834.89" cy="-18" rx="47" ry="18"/>
<text text-anchor="middle" x="834.89" y="-13.32" font-family="Times,serif" font-size="14.00">lalapps</text>
</a>
</g>
</g>
<!-- lalpulsar&#45;&gt;lalapps -->
<g id="edge10" class="edge">
<title>lalpulsar&#45;&gt;lalapps</title>
<path fill="none" stroke="black" d="M834.89,-71.7C834.89,-64.41 834.89,-55.73 834.89,-47.54"/>
<polygon fill="black" stroke="black" points="838.39,-47.62 834.89,-37.62 831.39,-47.62 838.39,-47.62"/>
</g>
<!-- chealpix -->
<g id="node14" class="node">
<title>chealpix</title>
<g id="a_node14"><a xlink:href="https://github.com/conda-forge/chealpix-feedstock/pull/11" xlink:title="chealpix ✓">
<ellipse fill="#31688e" stroke="black" cx="611.89" cy="-90" rx="60.68" ry="18"/>
<text text-anchor="middle" x="611.89" y="-85.33" font-family="Times,serif" font-size="14.00" fill="white">chealpix ✓</text>
</a>
</g>
</g>
<!-- namaster -->
<g id="node15" class="node">
<title>namaster</title>
<g id="a_node15"><a xlink:href="https://github.com/conda-forge/namaster-feedstock" xlink:title="namaster">
<ellipse fill="#fde725" stroke="black" cx="611.89" cy="-18" rx="58.57" ry="18"/>
<text text-anchor="middle" x="611.89" y="-13.32" font-family="Times,serif" font-size="14.00">namaster</text>
</a>
</g>
</g>
<!-- chealpix&#45;&gt;namaster -->
<g id="edge11" class="edge">
<title>chealpix&#45;&gt;namaster</title>
<path fill="none" stroke="black" d="M611.89,-71.7C611.89,-64.41 611.89,-55.73 611.89,-47.54"/>
<polygon fill="black" stroke="black" points="615.39,-47.62 611.89,-37.62 608.39,-47.62 615.39,-47.62"/>
</g>
<!-- root -->
<g id="node16" class="node">
<title>root</title>
<g id="a_node16"><a xlink:href="https://github.com/conda-forge/root-feedstock" xlink:title="root">
<ellipse fill="#ff8c00" stroke="black" cx="328.89" cy="-494" rx="31.74" ry="18"/>
<text text-anchor="middle" x="328.89" y="-489.32" font-family="Times,serif" font-size="14.00">root</text>
</a>
</g>
</g>
<!-- root&#45;&gt;rubinenv -->
<g id="edge12" class="edge">
<title>root&#45;&gt;rubinenv</title>
<path fill="none" stroke="black" d="M338.86,-476.76C343.77,-468.78 349.81,-458.95 355.37,-449.89"/>
<polygon fill="black" stroke="black" points="358.33,-451.77 360.58,-441.41 352.36,-448.1 358.33,-451.77"/>
</g>
<!-- photospline -->
<g id="node17" class="node">
<title>photospline</title>
<g id="a_node17"><a xlink:href="https://github.com/conda-forge/photospline-feedstock" xlink:title="photospline">
<ellipse fill="#35b779" stroke="black" cx="226.89" cy="-90" rx="69.62" ry="18"/>
<text text-anchor="middle" x="226.89" y="-85.33" font-family="Times,serif" font-size="14.00">photospline</text>
</a>
</g>
</g>
<!-- nuflux -->
<g id="node18" class="node">
<title>nuflux</title>
<g id="a_node18"><a xlink:href="https://github.com/conda-forge/nuflux-feedstock" xlink:title="nuflux">
<ellipse fill="#fde725" stroke="black" cx="226.89" cy="-18" rx="42.26" ry="18"/>
<text text-anchor="middle" x="226.89" y="-13.32" font-family="Times,serif" font-size="14.00">nuflux</text>
</a>
</g>
</g>
<!-- photospline&#45;&gt;nuflux -->
<g id="edge13" class="edge">
<title>photospline&#45;&gt;nuflux</title>
<path fill="none" stroke="black" d="M226.89,-71.7C226.89,-64.41 226.89,-55.73 226.89,-47.54"/>
<polygon fill="black" stroke="black" points="230.39,-47.62 226.89,-37.62 223.39,-47.62 230.39,-47.62"/>
</g>
<!-- hstcal -->
<g id="node20" class="node">
<title>hstcal</title>
<g id="a_node20"><a xlink:href="https://github.com/conda-forge/hstcal-feedstock" xlink:title="hstcal">
<ellipse fill="#35b779" stroke="black" cx="611.89" cy="-206" rx="41.21" ry="18"/>
<text text-anchor="middle" x="611.89" y="-201.33" font-family="Times,serif" font-size="14.00">hstcal</text>
</a>
</g>
</g>
<!-- astromatic&#45;source&#45;extractor&#45;&gt;hstcal -->
<!-- des&#45;eastlake -->
<g id="node24" class="node">
<title>des&#45;eastlake</title>
<g id="a_node24"><a xlink:href="https://github.com/conda-forge/des-eastlake-feedstock" xlink:title="des eastlake">
<ellipse fill="#35b779" stroke="black" cx="611.89" cy="-134" rx="73.3" ry="18"/>
<text text-anchor="middle" x="611.89" y="-129.32" font-family="Times,serif" font-size="14.00">des eastlake</text>
</a>
</g>
</g>
<!-- hstcal&#45;&gt;des&#45;eastlake -->
<!-- tempo2 -->
<g id="node21" class="node">
<title>tempo2</title>
<g id="a_node21"><a xlink:href="https://github.com/conda-forge/tempo2-feedstock/pull/26" xlink:title="tempo2 ❎">
<ellipse fill="#31688e" stroke="black" cx="834.89" cy="-422" rx="64.36" ry="18"/>
<text text-anchor="middle" x="834.89" y="-417.32" font-family="Times,serif" font-size="14.00" fill="white">tempo2 ❎</text>
</a>
</g>
</g>
<!-- psrchive -->
<g id="node22" class="node">
<title>psrchive</title>
<g id="a_node22"><a xlink:href="https://github.com/conda-forge/psrchive-feedstock" xlink:title="psrchive">
<ellipse fill="#fde725" stroke="black" cx="834.89" cy="-350" rx="53.84" ry="18"/>
<text text-anchor="middle" x="834.89" y="-345.32" font-family="Times,serif" font-size="14.00">psrchive</text>
</a>
</g>
</g>
<!-- tempo2&#45;&gt;psrchive -->
<g id="edge16" class="edge">
<title>tempo2&#45;&gt;psrchive</title>
<path fill="none" stroke="black" d="M834.89,-403.7C834.89,-396.41 834.89,-387.73 834.89,-379.54"/>
<polygon fill="black" stroke="black" points="838.39,-379.62 834.89,-369.62 831.39,-379.62 838.39,-379.62"/>
</g>
<!-- dspsr -->
<g id="node23" class="node">
<title>dspsr</title>
<g id="a_node23"><a xlink:href="https://github.com/conda-forge/dspsr-feedstock" xlink:title="dspsr">
<ellipse fill="#fde725" stroke="black" cx="834.89" cy="-278" rx="39.11" ry="18"/>
<text text-anchor="middle" x="834.89" y="-273.32" font-family="Times,serif" font-size="14.00">dspsr</text>
</a>
</g>
</g>
<!-- psrchive&#45;&gt;dspsr -->
<g id="edge17" class="edge">
<title>psrchive&#45;&gt;dspsr</title>
<path fill="none" stroke="black" d="M834.89,-331.7C834.89,-324.41 834.89,-315.73 834.89,-307.54"/>
<polygon fill="black" stroke="black" points="838.39,-307.62 834.89,-297.62 831.39,-307.62 838.39,-307.62"/>
</g>
<!-- fitsverify -->
<g id="node25" class="node">
<title>fitsverify</title>
<g id="a_node25"><a xlink:href="https://github.com/conda-forge/fitsverify-feedstock/pull/12" xlink:title="fitsverify ✓">
<ellipse fill="#31688e" stroke="black" cx="388.89" cy="-566" rx="63.84" ry="18"/>
<text text-anchor="middle" x="388.89" y="-561.33" font-family="Times,serif" font-size="14.00" fill="white">fitsverify ✓</text>
</a>
</g>
</g>
<!-- fitsverify&#45;&gt;rubinenv -->
<g id="edge19" class="edge">
<title>fitsverify&#45;&gt;rubinenv</title>
<path fill="none" stroke="black" d="M386.81,-547.59C383.94,-523.61 378.73,-480.14 375.29,-451.42"/>
<polygon fill="black" stroke="black" points="378.78,-451.13 374.12,-441.61 371.83,-451.96 378.78,-451.13"/>
</g>
</g>
</svg>
