<?xml version="1.0" encoding="UTF-8" standalone="no"?>
<!DOCTYPE svg PUBLIC "-//W3C//DTD SVG 1.1//EN"
 "http://www.w3.org/Graphics/SVG/1.1/DTD/svg11.dtd">
<!-- Generated by graphviz version 8.1.0 (20230707.2238)
 -->
<!-- Pages: 1 -->
<svg width="1210pt" height="736pt"
 viewBox="0.00 0.00 1209.73 736.00" xmlns="http://www.w3.org/2000/svg" xmlns:xlink="http://www.w3.org/1999/xlink">
<g id="graph0" class="graph" transform="scale(1 1) rotate(0) translate(4 732)">
<polygon fill="white" stroke="none" points="-4,4 -4,-732 1205.73,-732 1205.73,4 -4,4"/>
<!-- casacore -->
<g id="node1" class="node">
<title>casacore</title>
<g id="a_node1"><a xlink:href="https://github.com/conda-forge/casacore-feedstock" xlink:title="casacore">
<ellipse fill="#fde725" stroke="black" cx="54.89" cy="-422" rx="54.89" ry="18"/>
<text text-anchor="middle" x="54.89" y="-417.32" font-family="Times,serif" font-size="14.00">casacore</text>
</a>
</g>
</g>
<!-- gdal -->
<g id="node2" class="node">
<title>gdal</title>
<g id="a_node2"><a xlink:href="https://github.com/conda-forge/gdal-feedstock" xlink:title="gdal">
<ellipse fill="#35b779" stroke="black" cx="306.89" cy="-494" rx="32.79" ry="18"/>
<text text-anchor="middle" x="306.89" y="-489.32" font-family="Times,serif" font-size="14.00">gdal</text>
</a>
</g>
</g>
<!-- rubinenv -->
<g id="node3" class="node">
<title>rubinenv</title>
<g id="a_node3"><a xlink:href="https://github.com/conda-forge/rubinenv-feedstock" xlink:title="rubinenv">
<ellipse fill="#fde725" stroke="black" cx="372.89" cy="-422" rx="55.94" ry="18"/>
<text text-anchor="middle" x="372.89" y="-417.32" font-family="Times,serif" font-size="14.00">rubinenv</text>
</a>
</g>
</g>
<!-- gdal&#45;&gt;rubinenv -->
<g id="edge1" class="edge">
<title>gdal&#45;&gt;rubinenv</title>
<path fill="none" stroke="black" d="M321.54,-477.46C329.85,-468.65 340.43,-457.43 349.83,-447.46"/>
<polygon fill="black" stroke="black" points="352.05,-450.14 356.36,-440.47 346.96,-445.34 352.05,-450.14"/>
</g>
<!-- healpix_cxx -->
<g id="node4" class="node">
<title>healpix_cxx</title>
<g id="a_node4"><a xlink:href="https://github.com/conda-forge/healpix_cxx-feedstock" xlink:title="healpix_cxx">
<ellipse fill="#35b779" stroke="black" cx="935.89" cy="-602" rx="69.1" ry="18"/>
<text text-anchor="middle" x="935.89" y="-597.33" font-family="Times,serif" font-size="14.00">healpix_cxx</text>
</a>
</g>
</g>
<!-- ccfits -->
<g id="node5" class="node">
<title>ccfits</title>
<g id="a_node5"><a xlink:href="https://github.com/conda-forge/ccfits-feedstock" xlink:title="ccfits">
<ellipse fill="#35b779" stroke="black" cx="935.89" cy="-530" rx="37.53" ry="18"/>
<text text-anchor="middle" x="935.89" y="-525.33" font-family="Times,serif" font-size="14.00">ccfits</text>
</a>
</g>
</g>
<!-- healpix_cxx&#45;&gt;ccfits -->
<!-- numcosmo -->
<g id="node16" class="node">
<title>numcosmo</title>
<g id="a_node16"><a xlink:href="https://github.com/conda-forge/numcosmo-feedstock" xlink:title="numcosmo">
<ellipse fill="#35b779" stroke="black" cx="935.89" cy="-458" rx="64.89" ry="18"/>
<text text-anchor="middle" x="935.89" y="-453.32" font-family="Times,serif" font-size="14.00">numcosmo</text>
</a>
</g>
</g>
<!-- ccfits&#45;&gt;numcosmo -->
<!-- healpy -->
<g id="node6" class="node">
<title>healpy</title>
<g id="a_node6"><a xlink:href="https://github.com/conda-forge/healpy-feedstock" xlink:title="healpy">
<ellipse fill="#35b779" stroke="black" cx="584.89" cy="-494" rx="44.37" ry="18"/>
<text text-anchor="middle" x="584.89" y="-489.32" font-family="Times,serif" font-size="14.00">healpy</text>
</a>
</g>
</g>
<!-- healpy&#45;&gt;rubinenv -->
<g id="edge3" class="edge">
<title>healpy&#45;&gt;rubinenv</title>
<path fill="none" stroke="black" d="M551.3,-481.91C516.25,-470.34 460.98,-452.08 421.24,-438.96"/>
<polygon fill="black" stroke="black" points="422.58,-435.39 411.98,-435.58 420.38,-442.04 422.58,-435.39"/>
</g>
<!-- lalpulsar -->
<g id="node7" class="node">
<title>lalpulsar</title>
<g id="a_node7"><a xlink:href="https://github.com/conda-forge/lalpulsar-feedstock" xlink:title="lalpulsar">
<ellipse fill="#fde725" stroke="black" cx="501.89" cy="-422" rx="54.89" ry="18"/>
<text text-anchor="middle" x="501.89" y="-417.32" font-family="Times,serif" font-size="14.00">lalpulsar</text>
</a>
</g>
</g>
<!-- healpy&#45;&gt;lalpulsar -->
<g id="edge4" class="edge">
<title>healpy&#45;&gt;lalpulsar</title>
<path fill="none" stroke="black" d="M566.47,-477.46C555.53,-468.24 541.45,-456.36 529.23,-446.05"/>
<polygon fill="black" stroke="black" points="532.03,-442.99 522.12,-439.22 527.51,-448.34 532.03,-442.99"/>
</g>
<!-- namaster -->
<g id="node8" class="node">
<title>namaster</title>
<g id="a_node8"><a xlink:href="https://github.com/conda-forge/namaster-feedstock" xlink:title="namaster">
<ellipse fill="#fde725" stroke="black" cx="717.89" cy="-422" rx="58.57" ry="18"/>
<text text-anchor="middle" x="717.89" y="-417.32" font-family="Times,serif" font-size="14.00">namaster</text>
</a>
</g>
</g>
<!-- healpy&#45;&gt;namaster -->
<g id="edge5" class="edge">
<title>healpy&#45;&gt;namaster</title>
<path fill="none" stroke="black" d="M611.17,-479.17C630.73,-468.87 657.73,-454.66 679.68,-443.11"/>
<polygon fill="black" stroke="black" points="681.15,-445.77 688.37,-438.01 677.89,-439.57 681.15,-445.77"/>
</g>
<!-- lalapps -->
<g id="node9" class="node">
<title>lalapps</title>
<g id="a_node9"><a xlink:href="https://github.com/conda-forge/lalapps-feedstock" xlink:title="lalapps">
<ellipse fill="#fde725" stroke="black" cx="496.89" cy="-350" rx="47" ry="18"/>
<text text-anchor="middle" x="496.89" y="-345.32" font-family="Times,serif" font-size="14.00">lalapps</text>
</a>
</g>
</g>
<!-- healpy&#45;&gt;lalapps -->
<g id="edge6" class="edge">
<title>healpy&#45;&gt;lalapps</title>
<path fill="none" stroke="black" d="M584.67,-475.61C583.68,-456.64 579.81,-426.04 565.89,-404 557.59,-390.84 544.79,-379.69 532.47,-371.07"/>
<polygon fill="black" stroke="black" points="534.92,-367.83 524.65,-365.24 531.06,-373.67 534.92,-367.83"/>
</g>
<!-- des&#45;eastlake -->
<g id="node10" class="node">
<title>des&#45;eastlake</title>
<g id="a_node10"><a xlink:href="https://github.com/conda-forge/des-eastlake-feedstock" xlink:title="des eastlake">
<ellipse fill="#fde725" stroke="black" cx="634.89" cy="-350" rx="73.3" ry="18"/>
<text text-anchor="middle" x="634.89" y="-345.32" font-family="Times,serif" font-size="14.00">des eastlake</text>
</a>
</g>
</g>
<!-- healpy&#45;&gt;des&#45;eastlake -->
<g id="edge7" class="edge">
<title>healpy&#45;&gt;des&#45;eastlake</title>
<path fill="none" stroke="black" d="M590.92,-475.87C599.44,-451.67 615.1,-407.21 625.25,-378.39"/>
<polygon fill="black" stroke="black" points="628.82,-379.78 628.84,-369.19 622.22,-377.46 628.82,-379.78"/>
</g>
<!-- lalpulsar&#45;&gt;lalapps -->
<g id="edge8" class="edge">
<title>lalpulsar&#45;&gt;lalapps</title>
<path fill="none" stroke="black" d="M500.65,-403.7C500.12,-396.24 499.49,-387.32 498.89,-378.97"/>
<polygon fill="black" stroke="black" points="502.32,-378.83 498.11,-369.1 495.33,-379.33 502.32,-378.83"/>
</g>
<!-- wcslib -->
<g id="node11" class="node">
<title>wcslib</title>
<g id="a_node11"><a xlink:href="https://github.com/conda-forge/wcslib-feedstock" xlink:title="wcslib">
<ellipse fill="#35b779" stroke="black" cx="206.89" cy="-494" rx="42.79" ry="18"/>
<text text-anchor="middle" x="206.89" y="-489.32" font-family="Times,serif" font-size="14.00">wcslib</text>
</a>
</g>
</g>
<!-- wcslib&#45;&gt;casacore -->
<g id="edge9" class="edge">
<title>wcslib&#45;&gt;casacore</title>
<path fill="none" stroke="black" d="M178.66,-480C155.29,-469.23 121.78,-453.8 95.52,-441.71"/>
<polygon fill="black" stroke="black" points="97.4,-438.26 86.85,-437.26 94.47,-444.62 97.4,-438.26"/>
</g>
<!-- wcslib&#45;&gt;rubinenv -->
<g id="edge10" class="edge">
<title>wcslib&#45;&gt;rubinenv</title>
<path fill="none" stroke="black" d="M236.19,-480.65C262.16,-469.69 300.44,-453.55 329.89,-441.13"/>
<polygon fill="black" stroke="black" points="331.05,-444.02 338.9,-436.91 328.33,-437.57 331.05,-444.02"/>
</g>
<!-- astrometry -->
<g id="node12" class="node">
<title>astrometry</title>
<g id="a_node12"><a xlink:href="https://github.com/conda-forge/astrometry-feedstock" xlink:title="astrometry">
<ellipse fill="#fde725" stroke="black" cx="109.89" cy="-350" rx="66.99" ry="18"/>
<text text-anchor="middle" x="109.89" y="-345.32" font-family="Times,serif" font-size="14.00">astrometry</text>
</a>
</g>
</g>
<!-- wcslib&#45;&gt;astrometry -->
<g id="edge11" class="edge">
<title>wcslib&#45;&gt;astrometry</title>
<path fill="none" stroke="black" d="M195.57,-476.43C178.8,-451.88 147.19,-405.6 127.41,-376.65"/>
<polygon fill="black" stroke="black" points="129.97,-375.18 121.44,-368.9 124.19,-379.13 129.97,-375.18"/>
</g>
<!-- gnuastro -->
<g id="node13" class="node">
<title>gnuastro</title>
<g id="a_node13"><a xlink:href="https://github.com/conda-forge/gnuastro-feedstock" xlink:title="gnuastro">
<ellipse fill="#fde725" stroke="black" cx="158.89" cy="-278" rx="55.94" ry="18"/>
<text text-anchor="middle" x="158.89" y="-273.32" font-family="Times,serif" font-size="14.00">gnuastro</text>
</a>
</g>
</g>
<!-- wcslib&#45;&gt;gnuastro -->
<g id="edge12" class="edge">
<title>wcslib&#45;&gt;gnuastro</title>
<path fill="none" stroke="black" d="M206.55,-475.67C205.55,-445.72 201.57,-382.62 185.89,-332 183.11,-323.02 178.89,-313.73 174.62,-305.48"/>
<polygon fill="black" stroke="black" points="177.32,-304.13 169.46,-297.03 171.17,-307.49 177.32,-304.13"/>
</g>
<!-- cpl -->
<g id="node14" class="node">
<title>cpl</title>
<g id="a_node14"><a xlink:href="https://github.com/conda-forge/cpl-feedstock" xlink:title="cpl">
<ellipse fill="#fde725" stroke="black" cx="233.89" cy="-206" rx="27" ry="18"/>
<text text-anchor="middle" x="233.89" y="-201.33" font-family="Times,serif" font-size="14.00">cpl</text>
</a>
</g>
</g>
<!-- wcslib&#45;&gt;cpl -->
<g id="edge13" class="edge">
<title>wcslib&#45;&gt;cpl</title>
<path fill="none" stroke="black" d="M210.63,-475.89C212.76,-465.55 215.32,-452.07 216.89,-440 226.47,-366.5 231.04,-279.21 232.87,-235.26"/>
<polygon fill="black" stroke="black" points="236.4,-235.44 233.3,-225.31 229.41,-235.17 236.4,-235.44"/>
</g>
<!-- lenstool -->
<g id="node15" class="node">
<title>lenstool</title>
<g id="a_node15"><a xlink:href="https://github.com/conda-forge/lenstool-feedstock" xlink:title="lenstool">
<ellipse fill="#fde725" stroke="black" cx="288.89" cy="-134" rx="50.68" ry="18"/>
<text text-anchor="middle" x="288.89" y="-129.32" font-family="Times,serif" font-size="14.00">lenstool</text>
</a>
</g>
</g>
<!-- wcslib&#45;&gt;lenstool -->
<g id="edge14" class="edge">
<title>wcslib&#45;&gt;lenstool</title>
<path fill="none" stroke="black" d="M223.48,-477.25C247.45,-452.73 288.89,-402.81 288.89,-351 288.89,-351 288.89,-351 288.89,-277 288.89,-237.57 288.89,-191.97 288.89,-163.31"/>
<polygon fill="black" stroke="black" points="292.39,-163.49 288.89,-153.49 285.39,-163.49 292.39,-163.49"/>
</g>
<!-- libvips -->
<g id="node17" class="node">
<title>libvips</title>
<g id="a_node17"><a xlink:href="https://github.com/conda-forge/libvips-feedstock" xlink:title="libvips">
<ellipse fill="#35b779" stroke="black" cx="935.89" cy="-386" rx="44.37" ry="18"/>
<text text-anchor="middle" x="935.89" y="-381.32" font-family="Times,serif" font-size="14.00">libvips</text>
</a>
</g>
</g>
<!-- numcosmo&#45;&gt;libvips -->
<!-- astromatic&#45;source&#45;extractor -->
<g id="node22" class="node">
<title>astromatic&#45;source&#45;extractor</title>
<g id="a_node22"><a xlink:href="https://github.com/conda-forge/astromatic-source-extractor-feedstock" xlink:title="astromatic source extractor">
<ellipse fill="#35b779" stroke="black" cx="935.89" cy="-314" rx="150.64" ry="18"/>
<text text-anchor="middle" x="935.89" y="-309.32" font-family="Times,serif" font-size="14.00">astromatic source extractor</text>
</a>
</g>
</g>
<!-- libvips&#45;&gt;astromatic&#45;source&#45;extractor -->
<!-- chealpix -->
<g id="node18" class="node">
<title>chealpix</title>
<g id="a_node18"><a xlink:href="https://github.com/conda-forge/chealpix-feedstock" xlink:title="chealpix">
<ellipse fill="#35b779" stroke="black" cx="717.89" cy="-494" rx="52.79" ry="18"/>
<text text-anchor="middle" x="717.89" y="-489.32" font-family="Times,serif" font-size="14.00">chealpix</text>
</a>
</g>
</g>
<!-- chealpix&#45;&gt;namaster -->
<g id="edge17" class="edge">
<title>chealpix&#45;&gt;namaster</title>
<path fill="none" stroke="black" d="M717.89,-475.7C717.89,-468.24 717.89,-459.32 717.89,-450.97"/>
<polygon fill="black" stroke="black" points="721.39,-451.1 717.89,-441.1 714.39,-451.1 721.39,-451.1"/>
</g>
<!-- root -->
<g id="node19" class="node">
<title>root</title>
<g id="a_node19"><a xlink:href="https://github.com/conda-forge/root-feedstock" xlink:title="root">
<ellipse fill="#35b779" stroke="black" cx="348.89" cy="-566" rx="31.74" ry="18"/>
<text text-anchor="middle" x="348.89" y="-561.33" font-family="Times,serif" font-size="14.00">root</text>
</a>
</g>
</g>
<!-- root&#45;&gt;rubinenv -->
<g id="edge18" class="edge">
<title>root&#45;&gt;rubinenv</title>
<path fill="none" stroke="black" d="M351.83,-547.59C355.92,-523.4 363.36,-479.36 368.22,-450.65"/>
<polygon fill="black" stroke="black" points="371.78,-451.55 370,-441.11 364.88,-450.39 371.78,-451.55"/>
</g>
<!-- photospline -->
<g id="node20" class="node">
<title>photospline</title>
<g id="a_node20"><a xlink:href="https://github.com/conda-forge/photospline-feedstock" xlink:title="photospline">
<ellipse fill="#35b779" stroke="black" cx="388.89" cy="-90" rx="69.62" ry="18"/>
<text text-anchor="middle" x="388.89" y="-85.33" font-family="Times,serif" font-size="14.00">photospline</text>
</a>
</g>
</g>
<!-- nuflux -->
<g id="node21" class="node">
<title>nuflux</title>
<g id="a_node21"><a xlink:href="https://github.com/conda-forge/nuflux-feedstock" xlink:title="nuflux">
<ellipse fill="#fde725" stroke="black" cx="388.89" cy="-18" rx="42.26" ry="18"/>
<text text-anchor="middle" x="388.89" y="-13.32" font-family="Times,serif" font-size="14.00">nuflux</text>
</a>
</g>
</g>
<!-- photospline&#45;&gt;nuflux -->
<g id="edge19" class="edge">
<title>photospline&#45;&gt;nuflux</title>
<path fill="none" stroke="black" d="M388.89,-71.7C388.89,-64.24 388.89,-55.32 388.89,-46.97"/>
<polygon fill="black" stroke="black" points="392.39,-47.1 388.89,-37.1 385.39,-47.1 392.39,-47.1"/>
</g>
<!-- hstcal -->
<g id="node23" class="node">
<title>hstcal</title>
<g id="a_node23"><a xlink:href="https://github.com/conda-forge/hstcal-feedstock" xlink:title="hstcal">
<ellipse fill="#35b779" stroke="black" cx="935.89" cy="-242" rx="41.21" ry="18"/>
<text text-anchor="middle" x="935.89" y="-237.32" font-family="Times,serif" font-size="14.00">hstcal</text>
</a>
</g>
</g>
<!-- astromatic&#45;source&#45;extractor&#45;&gt;hstcal -->
<!-- imagecodecs -->
<g id="node24" class="node">
<title>imagecodecs</title>
<g id="a_node24"><a xlink:href="https://github.com/conda-forge/imagecodecs-feedstock" xlink:title="imagecodecs">
<ellipse fill="#35b779" stroke="black" cx="408.89" cy="-638" rx="75.41" ry="18"/>
<text text-anchor="middle" x="408.89" y="-633.33" font-family="Times,serif" font-size="14.00">imagecodecs</text>
</a>
</g>
</g>
<!-- imagecodecs&#45;&gt;rubinenv -->
<g id="edge22" class="edge">
<title>imagecodecs&#45;&gt;rubinenv</title>
<path fill="none" stroke="black" d="M406.01,-619.85C399.8,-582.99 385.16,-495.92 377.59,-450.96"/>
<polygon fill="black" stroke="black" points="380.9,-450.51 375.79,-441.23 374,-451.67 380.9,-450.51"/>
</g>
<!-- tempo2 -->
<g id="node25" class="node">
<title>tempo2</title>
<g id="a_node25"><a xlink:href="https://github.com/conda-forge/tempo2-feedstock" xlink:title="tempo2">
<ellipse fill="#35b779" stroke="black" cx="1147.89" cy="-494" rx="49.1" ry="18"/>
<text text-anchor="middle" x="1147.89" y="-489.32" font-family="Times,serif" font-size="14.00">tempo2</text>
</a>
</g>
</g>
<!-- psrchive -->
<g id="node26" class="node">
<title>psrchive</title>
<g id="a_node26"><a xlink:href="https://github.com/conda-forge/psrchive-feedstock" xlink:title="psrchive">
<ellipse fill="#fde725" stroke="black" cx="1147.89" cy="-422" rx="53.84" ry="18"/>
<text text-anchor="middle" x="1147.89" y="-417.32" font-family="Times,serif" font-size="14.00">psrchive</text>
</a>
</g>
</g>
<!-- tempo2&#45;&gt;psrchive -->
<g id="edge23" class="edge">
<title>tempo2&#45;&gt;psrchive</title>
<path fill="none" stroke="black" d="M1147.89,-475.7C1147.89,-468.24 1147.89,-459.32 1147.89,-450.97"/>
<polygon fill="black" stroke="black" points="1151.39,-451.1 1147.89,-441.1 1144.39,-451.1 1151.39,-451.1"/>
</g>
<!-- dspsr -->
<g id="node27" class="node">
<title>dspsr</title>
<g id="a_node27"><a xlink:href="https://github.com/conda-forge/dspsr-feedstock" xlink:title="dspsr">
<ellipse fill="#fde725" stroke="black" cx="1147.89" cy="-350" rx="39.11" ry="18"/>
<text text-anchor="middle" x="1147.89" y="-345.32" font-family="Times,serif" font-size="14.00">dspsr</text>
</a>
</g>
</g>
<!-- psrchive&#45;&gt;dspsr -->
<g id="edge24" class="edge">
<title>psrchive&#45;&gt;dspsr</title>
<path fill="none" stroke="black" d="M1147.89,-403.7C1147.89,-396.24 1147.89,-387.32 1147.89,-378.97"/>
<polygon fill="black" stroke="black" points="1151.39,-379.1 1147.89,-369.1 1144.39,-379.1 1151.39,-379.1"/>
</g>
<!-- fitsverify -->
<g id="node28" class="node">
<title>fitsverify</title>
<g id="a_node28"><a xlink:href="https://github.com/conda-forge/fitsverify-feedstock" xlink:title="fitsverify">
<ellipse fill="#35b779" stroke="black" cx="511.89" cy="-710" rx="55.94" ry="18"/>
<text text-anchor="middle" x="511.89" y="-705.33" font-family="Times,serif" font-size="14.00">fitsverify</text>
</a>
</g>
</g>
<!-- fitsverify&#45;&gt;rubinenv -->
<g id="edge25" class="edge">
<title>fitsverify&#45;&gt;rubinenv</title>
<path fill="none" stroke="black" d="M509.96,-691.77C507.51,-673.47 502.41,-643.93 492.89,-620 466.55,-553.8 418.86,-484.46 392.22,-448.32"/>
<polygon fill="black" stroke="black" points="394.7,-446.8 385.92,-440.87 389.09,-450.98 394.7,-446.8"/>
</g>
</g>
</svg>
