<?xml version="1.0" encoding="UTF-8" standalone="no"?>
<!DOCTYPE svg PUBLIC "-//W3C//DTD SVG 1.1//EN"
 "http://www.w3.org/Graphics/SVG/1.1/DTD/svg11.dtd">
<!-- Generated by graphviz version 8.1.0 (20230707.2238)
 -->
<!-- Pages: 1 -->
<svg width="3859pt" height="880pt"
 viewBox="0.00 0.00 3858.80 880.00" xmlns="http://www.w3.org/2000/svg" xmlns:xlink="http://www.w3.org/1999/xlink">
<g id="graph0" class="graph" transform="scale(1 1) rotate(0) translate(4 876)">
<polygon fill="white" stroke="none" points="-4,4 -4,-876 3854.8,-876 3854.8,4 -4,4"/>
<!-- torchvision -->
<g id="node1" class="node">
<title>torchvision</title>
<g id="a_node1"><a xlink:href="https://github.com/conda-forge/torchvision-feedstock" xlink:title="torchvision">
<ellipse fill="#fde725" stroke="black" cx="1295.24" cy="-602" rx="66.99" ry="18"/>
<text text-anchor="middle" x="1295.24" y="-597.33" font-family="Times,serif" font-size="14.00">torchvision</text>
</a>
</g>
</g>
<!-- detectron2 -->
<g id="node2" class="node">
<title>detectron2</title>
<g id="a_node2"><a xlink:href="https://github.com/conda-forge/detectron2-feedstock" xlink:title="detectron2">
<ellipse fill="#fde725" stroke="black" cx="1114.24" cy="-530" rx="65.94" ry="18"/>
<text text-anchor="middle" x="1114.24" y="-525.33" font-family="Times,serif" font-size="14.00">detectron2</text>
</a>
</g>
</g>
<!-- torchvision&#45;&gt;detectron2 -->
<g id="edge1" class="edge">
<title>torchvision&#45;&gt;detectron2</title>
<path fill="none" stroke="black" d="M1258.17,-586.67C1230.11,-575.81 1191.37,-560.83 1161.15,-549.14"/>
<polygon fill="black" stroke="black" points="1162.84,-545.66 1152.25,-545.32 1160.32,-552.19 1162.84,-545.66"/>
</g>
<!-- fcos -->
<g id="node3" class="node">
<title>fcos</title>
<g id="a_node3"><a xlink:href="https://github.com/conda-forge/fcos-feedstock" xlink:title="fcos">
<ellipse fill="#fde725" stroke="black" cx="1229.24" cy="-530" rx="31.22" ry="18"/>
<text text-anchor="middle" x="1229.24" y="-525.33" font-family="Times,serif" font-size="14.00">fcos</text>
</a>
</g>
</g>
<!-- torchvision&#45;&gt;fcos -->
<g id="edge2" class="edge">
<title>torchvision&#45;&gt;fcos</title>
<path fill="none" stroke="black" d="M1279.26,-584.05C1270.8,-575.08 1260.27,-563.92 1251.07,-554.15"/>
<polygon fill="black" stroke="black" points="1254.12,-552.23 1244.72,-547.36 1249.03,-557.03 1254.12,-552.23"/>
</g>
<!-- fairscale -->
<g id="node4" class="node">
<title>fairscale</title>
<g id="a_node4"><a xlink:href="https://github.com/conda-forge/fairscale-feedstock" xlink:title="fairscale">
<ellipse fill="#fde725" stroke="black" cx="1332.24" cy="-530" rx="53.84" ry="18"/>
<text text-anchor="middle" x="1332.24" y="-525.33" font-family="Times,serif" font-size="14.00">fairscale</text>
</a>
</g>
</g>
<!-- torchvision&#45;&gt;fairscale -->
<g id="edge3" class="edge">
<title>torchvision&#45;&gt;fairscale</title>
<path fill="none" stroke="black" d="M1304.38,-583.7C1308.51,-575.9 1313.47,-566.51 1318.06,-557.83"/>
<polygon fill="black" stroke="black" points="1321.62,-559.58 1323.2,-549.1 1315.43,-556.31 1321.62,-559.58"/>
</g>
<!-- graphvite -->
<g id="node5" class="node">
<title>graphvite</title>
<g id="a_node5"><a xlink:href="https://github.com/conda-forge/graphvite-feedstock" xlink:title="graphvite">
<ellipse fill="#fde725" stroke="black" cx="1775.24" cy="-530" rx="59.63" ry="18"/>
<text text-anchor="middle" x="1775.24" y="-525.33" font-family="Times,serif" font-size="14.00">graphvite</text>
</a>
</g>
</g>
<!-- torchvision&#45;&gt;graphvite -->
<g id="edge4" class="edge">
<title>torchvision&#45;&gt;graphvite</title>
<path fill="none" stroke="black" d="M1355.87,-594.04C1453.31,-582.71 1640.47,-560.3 1706.24,-548 1711.13,-547.08 1716.2,-546.03 1721.27,-544.92"/>
<polygon fill="black" stroke="black" points="1721.63,-548.19 1730.6,-542.54 1720.07,-541.37 1721.63,-548.19"/>
</g>
<!-- mmcv&#45;recipe -->
<g id="node6" class="node">
<title>mmcv&#45;recipe</title>
<g id="a_node6"><a xlink:href="https://github.com/conda-forge/mmcv-recipe-feedstock" xlink:title="mmcv recipe">
<ellipse fill="#fde725" stroke="black" cx="1479.24" cy="-530" rx="75.41" ry="18"/>
<text text-anchor="middle" x="1479.24" y="-525.33" font-family="Times,serif" font-size="14.00">mmcv recipe</text>
</a>
</g>
</g>
<!-- torchvision&#45;&gt;mmcv&#45;recipe -->
<g id="edge5" class="edge">
<title>torchvision&#45;&gt;mmcv&#45;recipe</title>
<path fill="none" stroke="black" d="M1332.92,-586.67C1361.07,-575.96 1399.79,-561.23 1430.32,-549.61"/>
<polygon fill="black" stroke="black" points="1431.24,-552.62 1439.34,-545.8 1428.75,-546.08 1431.24,-552.62"/>
</g>
<!-- pytorch3d -->
<g id="node7" class="node">
<title>pytorch3d</title>
<g id="a_node7"><a xlink:href="https://github.com/conda-forge/pytorch3d-feedstock" xlink:title="pytorch3d">
<ellipse fill="#fde725" stroke="black" cx="1635.24" cy="-530" rx="62.26" ry="18"/>
<text text-anchor="middle" x="1635.24" y="-525.33" font-family="Times,serif" font-size="14.00">pytorch3d</text>
</a>
</g>
</g>
<!-- torchvision&#45;&gt;pytorch3d -->
<g id="edge6" class="edge">
<title>torchvision&#45;&gt;pytorch3d</title>
<path fill="none" stroke="black" d="M1349.26,-590.92C1403.47,-580.66 1489.31,-564.03 1563.24,-548 1567.95,-546.98 1572.84,-545.89 1577.74,-544.77"/>
<polygon fill="black" stroke="black" points="1578.47,-547.97 1587.43,-542.31 1576.9,-541.15 1578.47,-547.97"/>
</g>
<!-- tensorflow -->
<g id="node8" class="node">
<title>tensorflow</title>
<g id="a_node8"><a xlink:href="https://github.com/conda-forge/tensorflow-feedstock" xlink:title="tensorflow">
<ellipse fill="#fde725" stroke="black" cx="2262.24" cy="-674" rx="63.84" ry="18"/>
<text text-anchor="middle" x="2262.24" y="-669.33" font-family="Times,serif" font-size="14.00">tensorflow</text>
</a>
</g>
</g>
<!-- deepmd&#45;kit -->
<g id="node9" class="node">
<title>deepmd&#45;kit</title>
<g id="a_node9"><a xlink:href="https://github.com/conda-forge/deepmd-kit-feedstock" xlink:title="deepmd kit">
<ellipse fill="#fde725" stroke="black" cx="2318.24" cy="-602" rx="67.52" ry="18"/>
<text text-anchor="middle" x="2318.24" y="-597.33" font-family="Times,serif" font-size="14.00">deepmd kit</text>
</a>
</g>
</g>
<!-- tensorflow&#45;&gt;deepmd&#45;kit -->
<g id="edge7" class="edge">
<title>tensorflow&#45;&gt;deepmd&#45;kit</title>
<path fill="none" stroke="black" d="M2275.79,-656.05C2282.47,-647.71 2290.64,-637.49 2298.04,-628.25"/>
<polygon fill="black" stroke="black" points="2301.29,-630.78 2304.81,-620.79 2295.83,-626.41 2301.29,-630.78"/>
</g>
<!-- dgl -->
<g id="node10" class="node">
<title>dgl</title>
<g id="a_node10"><a xlink:href="https://github.com/conda-forge/dgl-feedstock" xlink:title="dgl">
<ellipse fill="#fde725" stroke="black" cx="2205.24" cy="-602" rx="27.01" ry="18"/>
<text text-anchor="middle" x="2205.24" y="-597.33" font-family="Times,serif" font-size="14.00">dgl</text>
</a>
</g>
</g>
<!-- tensorflow&#45;&gt;dgl -->
<g id="edge8" class="edge">
<title>tensorflow&#45;&gt;dgl</title>
<path fill="none" stroke="black" d="M2248.44,-656.05C2241.27,-647.26 2232.4,-636.36 2224.57,-626.74"/>
<polygon fill="black" stroke="black" points="2226.77,-624.9 2217.74,-619.36 2221.34,-629.32 2226.77,-624.9"/>
</g>
<!-- pytorch&#45;cpu -->
<g id="node11" class="node">
<title>pytorch&#45;cpu</title>
<g id="a_node11"><a xlink:href="https://github.com/conda-forge/pytorch-cpu-feedstock/pull/171" xlink:title="pytorch cpu ❎">
<ellipse fill="#31688e" stroke="black" cx="1001.24" cy="-674" rx="85.93" ry="18"/>
<text text-anchor="middle" x="1001.24" y="-669.33" font-family="Times,serif" font-size="14.00" fill="white">pytorch cpu ❎</text>
</a>
</g>
</g>
<!-- pytorch&#45;cpu&#45;&gt;torchvision -->
<g id="edge9" class="edge">
<title>pytorch&#45;cpu&#45;&gt;torchvision</title>
<path fill="none" stroke="black" d="M1056.54,-659.83C1107.73,-647.64 1183.64,-629.57 1236.05,-617.09"/>
<polygon fill="black" stroke="black" points="1236.61,-620.32 1245.53,-614.6 1234.99,-613.51 1236.61,-620.32"/>
</g>
<!-- pytorch&#45;cpu&#45;&gt;detectron2 -->
<g id="edge10" class="edge">
<title>pytorch&#45;cpu&#45;&gt;detectron2</title>
<path fill="none" stroke="black" d="M1014.87,-655.87C1034.66,-631 1071.47,-584.75 1094.3,-556.05"/>
<polygon fill="black" stroke="black" points="1097.42,-558.75 1100.91,-548.75 1091.94,-554.39 1097.42,-558.75"/>
</g>
<!-- pytorch&#45;cpu&#45;&gt;fcos -->
<g id="edge11" class="edge">
<title>pytorch&#45;cpu&#45;&gt;fcos</title>
<path fill="none" stroke="black" d="M1027.84,-656.43C1070.63,-629.78 1154.48,-577.56 1199.3,-549.65"/>
<polygon fill="black" stroke="black" points="1200.87,-552.17 1207.5,-543.91 1197.17,-546.23 1200.87,-552.17"/>
</g>
<!-- pytorch&#45;cpu&#45;&gt;fairscale -->
<g id="edge12" class="edge">
<title>pytorch&#45;cpu&#45;&gt;fairscale</title>
<path fill="none" stroke="black" d="M1039.41,-657.43C1064.9,-646.98 1099.15,-632.82 1129.24,-620 1185.53,-596.01 1250.22,-567.48 1291.15,-549.31"/>
<polygon fill="black" stroke="black" points="1292.31,-552.18 1300.03,-544.92 1289.47,-545.78 1292.31,-552.18"/>
</g>
<!-- pytorch&#45;cpu&#45;&gt;graphvite -->
<g id="edge13" class="edge">
<title>pytorch&#45;cpu&#45;&gt;graphvite</title>
<path fill="none" stroke="black" d="M1084.34,-668.93C1194.36,-662.54 1381.73,-647.9 1444.24,-620 1466.38,-610.12 1463.31,-594.35 1485.24,-584 1575.23,-541.52 1608.73,-567.92 1706.24,-548 1710.92,-547.04 1715.76,-545.99 1720.62,-544.88"/>
<polygon fill="black" stroke="black" points="1721.25,-548.1 1730.19,-542.41 1719.65,-541.28 1721.25,-548.1"/>
</g>
<!-- pytorch&#45;cpu&#45;&gt;mmcv&#45;recipe -->
<g id="edge14" class="edge">
<title>pytorch&#45;cpu&#45;&gt;mmcv&#45;recipe</title>
<path fill="none" stroke="black" d="M1080.58,-666.76C1173.37,-658.57 1320.72,-642.54 1371.24,-620 1394,-609.84 1395.02,-599.88 1414.24,-584 1426.04,-574.24 1439.12,-563.56 1450.43,-554.35"/>
<polygon fill="black" stroke="black" points="1452.14,-556.67 1457.69,-547.64 1447.72,-551.23 1452.14,-556.67"/>
</g>
<!-- pytorch&#45;cpu&#45;&gt;pytorch3d -->
<g id="edge15" class="edge">
<title>pytorch&#45;cpu&#45;&gt;pytorch3d</title>
<path fill="none" stroke="black" d="M1082,-667.62C1183.22,-660 1350.33,-644.21 1407.24,-620 1430.81,-609.97 1429.5,-595.79 1452.24,-584 1474.19,-572.62 1532.92,-556.45 1577.98,-544.97"/>
<polygon fill="black" stroke="black" points="1578.69,-548.15 1587.53,-542.31 1576.98,-541.37 1578.69,-548.15"/>
</g>
<!-- pytorch&#45;cpu&#45;&gt;dgl -->
<g id="edge16" class="edge">
<title>pytorch&#45;cpu&#45;&gt;dgl</title>
<path fill="none" stroke="black" d="M1087.35,-672.93C1320.31,-672.13 1959.19,-665.7 2164.24,-620 2167.44,-619.29 2170.72,-618.34 2173.95,-617.25"/>
<polygon fill="black" stroke="black" points="2174.88,-620.27 2182.99,-613.45 2172.4,-613.72 2174.88,-620.27"/>
</g>
<!-- nvidia&#45;apex -->
<g id="node12" class="node">
<title>nvidia&#45;apex</title>
<g id="a_node12"><a xlink:href="https://github.com/conda-forge/nvidia-apex-feedstock" xlink:title="nvidia apex">
<ellipse fill="#fde725" stroke="black" cx="1563.24" cy="-602" rx="68.57" ry="18"/>
<text text-anchor="middle" x="1563.24" y="-597.33" font-family="Times,serif" font-size="14.00">nvidia apex</text>
</a>
</g>
</g>
<!-- pytorch&#45;cpu&#45;&gt;nvidia&#45;apex -->
<g id="edge17" class="edge">
<title>pytorch&#45;cpu&#45;&gt;nvidia&#45;apex</title>
<path fill="none" stroke="black" d="M1079.94,-666.53C1175.09,-658.18 1339.94,-642.08 1480.24,-620 1487.09,-618.92 1494.23,-617.66 1501.33,-616.33"/>
<polygon fill="black" stroke="black" points="1501.86,-619.6 1511.01,-614.26 1500.53,-612.73 1501.86,-619.6"/>
</g>
<!-- pytorch_cluster -->
<g id="node13" class="node">
<title>pytorch_cluster</title>
<g id="a_node13"><a xlink:href="https://github.com/conda-forge/pytorch_cluster-feedstock" xlink:title="pytorch_cluster">
<ellipse fill="#fde725" stroke="black" cx="2073.24" cy="-530" rx="89.09" ry="18"/>
<text text-anchor="middle" x="2073.24" y="-525.33" font-family="Times,serif" font-size="14.00">pytorch_cluster</text>
</a>
</g>
</g>
<!-- pytorch&#45;cpu&#45;&gt;pytorch_cluster -->
<g id="edge18" class="edge">
<title>pytorch&#45;cpu&#45;&gt;pytorch_cluster</title>
<path fill="none" stroke="black" d="M1087.37,-673.35C1286.06,-673.29 1771.26,-668.08 1926.24,-620 1970.98,-606.12 2016.13,-575.79 2044.36,-554.41"/>
<polygon fill="black" stroke="black" points="2046.13,-556.69 2051.91,-547.81 2041.86,-551.15 2046.13,-556.69"/>
</g>
<!-- pytorch_scatter -->
<g id="node14" class="node">
<title>pytorch_scatter</title>
<g id="a_node14"><a xlink:href="https://github.com/conda-forge/pytorch_scatter-feedstock" xlink:title="pytorch_scatter">
<ellipse fill="#fde725" stroke="black" cx="758.24" cy="-458" rx="89.61" ry="18"/>
<text text-anchor="middle" x="758.24" y="-453.32" font-family="Times,serif" font-size="14.00">pytorch_scatter</text>
</a>
</g>
</g>
<!-- pytorch&#45;cpu&#45;&gt;pytorch_scatter -->
<g id="edge19" class="edge">
<title>pytorch&#45;cpu&#45;&gt;pytorch_scatter</title>
<path fill="none" stroke="black" d="M950.51,-659.04C898.3,-641.88 818.87,-607.46 777.24,-548 764.78,-530.21 760.22,-505.86 758.67,-487.13"/>
<polygon fill="black" stroke="black" points="762.12,-487.08 758.05,-477.3 755.13,-487.48 762.12,-487.08"/>
</g>
<!-- pytorch_spline_conv -->
<g id="node15" class="node">
<title>pytorch_spline_conv</title>
<g id="a_node15"><a xlink:href="https://github.com/conda-forge/pytorch_spline_conv-feedstock" xlink:title="pytorch_spline_conv">
<ellipse fill="#fde725" stroke="black" cx="112.24" cy="-386" rx="112.24" ry="18"/>
<text text-anchor="middle" x="112.24" y="-381.32" font-family="Times,serif" font-size="14.00">pytorch_spline_conv</text>
</a>
</g>
</g>
<!-- pytorch&#45;cpu&#45;&gt;pytorch_spline_conv -->
<g id="edge20" class="edge">
<title>pytorch&#45;cpu&#45;&gt;pytorch_spline_conv</title>
<path fill="none" stroke="black" d="M915.69,-671.66C728.36,-668.08 294.05,-655.95 238.24,-620 164.19,-572.31 130.42,-465.57 118.1,-414.83"/>
<polygon fill="black" stroke="black" points="121.33,-414.27 115.66,-405.32 114.51,-415.85 121.33,-414.27"/>
</g>
<!-- pytorch_sparse -->
<g id="node16" class="node">
<title>pytorch_sparse</title>
<g id="a_node16"><a xlink:href="https://github.com/conda-forge/pytorch_sparse-feedstock" xlink:title="pytorch_sparse">
<ellipse fill="#fde725" stroke="black" cx="738.24" cy="-386" rx="87.51" ry="18"/>
<text text-anchor="middle" x="738.24" y="-381.32" font-family="Times,serif" font-size="14.00">pytorch_sparse</text>
</a>
</g>
</g>
<!-- pytorch&#45;cpu&#45;&gt;pytorch_sparse -->
<g id="edge21" class="edge">
<title>pytorch&#45;cpu&#45;&gt;pytorch_sparse</title>
<path fill="none" stroke="black" d="M915.36,-671.97C825.05,-668.84 691.59,-657.75 659.24,-620 607.18,-559.25 621.59,-510.59 659.24,-440 666.37,-426.63 678.53,-416.04 691.21,-407.95"/>
<polygon fill="black" stroke="black" points="692.62,-410.59 699.46,-402.5 689.07,-404.56 692.62,-410.59"/>
</g>
<!-- torchani -->
<g id="node17" class="node">
<title>torchani</title>
<g id="a_node17"><a xlink:href="https://github.com/conda-forge/torchani-feedstock" xlink:title="torchani">
<ellipse fill="#fde725" stroke="black" cx="209.24" cy="-314" rx="52.79" ry="18"/>
<text text-anchor="middle" x="209.24" y="-309.32" font-family="Times,serif" font-size="14.00">torchani</text>
</a>
</g>
</g>
<!-- pytorch&#45;cpu&#45;&gt;torchani -->
<g id="edge22" class="edge">
<title>pytorch&#45;cpu&#45;&gt;torchani</title>
<path fill="none" stroke="black" d="M915.25,-672.21C733.82,-669.78 324.53,-659.87 276.24,-620 244.65,-593.92 252.24,-571.97 252.24,-531 252.24,-531 252.24,-531 252.24,-457 252.24,-415.43 235.15,-369.84 222.52,-341.82"/>
<polygon fill="black" stroke="black" points="225.33,-340.57 217.94,-332.98 218.99,-343.53 225.33,-340.57"/>
</g>
<!-- openmm&#45;torch -->
<g id="node18" class="node">
<title>openmm&#45;torch</title>
<g id="a_node18"><a xlink:href="https://github.com/conda-forge/openmm-torch-feedstock" xlink:title="openmm torch">
<ellipse fill="#fde725" stroke="black" cx="2487.24" cy="-602" rx="83.83" ry="18"/>
<text text-anchor="middle" x="2487.24" y="-597.33" font-family="Times,serif" font-size="14.00">openmm torch</text>
</a>
</g>
</g>
<!-- pytorch&#45;cpu&#45;&gt;openmm&#45;torch -->
<g id="edge23" class="edge">
<title>pytorch&#45;cpu&#45;&gt;openmm&#45;torch</title>
<path fill="none" stroke="black" d="M1086.62,-671.37C1348.74,-666.13 2139.63,-648.32 2395.24,-620 2402.59,-619.19 2410.24,-618.12 2417.84,-616.93"/>
<polygon fill="black" stroke="black" points="2418.24,-620.24 2427.53,-615.16 2417.09,-613.34 2418.24,-620.24"/>
</g>
<!-- torchsparse -->
<g id="node19" class="node">
<title>torchsparse</title>
<g id="a_node19"><a xlink:href="https://github.com/conda-forge/torchsparse-feedstock" xlink:title="torchsparse">
<ellipse fill="#fde725" stroke="black" cx="389.24" cy="-602" rx="70.68" ry="18"/>
<text text-anchor="middle" x="389.24" y="-597.33" font-family="Times,serif" font-size="14.00">torchsparse</text>
</a>
</g>
</g>
<!-- pytorch&#45;cpu&#45;&gt;torchsparse -->
<g id="edge24" class="edge">
<title>pytorch&#45;cpu&#45;&gt;torchsparse</title>
<path fill="none" stroke="black" d="M921.03,-667.37C817.46,-659.54 631.79,-643.62 474.24,-620 467.14,-618.94 459.73,-617.68 452.38,-616.34"/>
<polygon fill="black" stroke="black" points="453.17,-612.73 442.69,-614.32 451.87,-619.61 453.17,-612.73"/>
</g>
<!-- torch&#45;scatter -->
<g id="node20" class="node">
<title>torch&#45;scatter</title>
<g id="a_node20"><a xlink:href="https://github.com/conda-forge/torch-scatter-feedstock" xlink:title="torch scatter">
<ellipse fill="#fde725" stroke="black" cx="422.24" cy="-530" rx="75.94" ry="18"/>
<text text-anchor="middle" x="422.24" y="-525.33" font-family="Times,serif" font-size="14.00">torch scatter</text>
</a>
</g>
</g>
<!-- pytorch&#45;cpu&#45;&gt;torch&#45;scatter -->
<g id="edge25" class="edge">
<title>pytorch&#45;cpu&#45;&gt;torch&#45;scatter</title>
<path fill="none" stroke="black" d="M916.39,-670.51C795.79,-665.83 581.74,-653.05 512.24,-620 496.42,-612.48 465.4,-579.81 444.25,-556.23"/>
<polygon fill="black" stroke="black" points="447.21,-554.17 437.95,-549.02 441.97,-558.82 447.21,-554.17"/>
</g>
<!-- kaolin -->
<g id="node21" class="node">
<title>kaolin</title>
<g id="a_node21"><a xlink:href="https://github.com/conda-forge/kaolin-feedstock" xlink:title="kaolin">
<ellipse fill="#fde725" stroke="black" cx="495.24" cy="-458" rx="41.21" ry="18"/>
<text text-anchor="middle" x="495.24" y="-453.32" font-family="Times,serif" font-size="14.00">kaolin</text>
</a>
</g>
</g>
<!-- pytorch&#45;cpu&#45;&gt;kaolin -->
<g id="edge26" class="edge">
<title>pytorch&#45;cpu&#45;&gt;kaolin</title>
<path fill="none" stroke="black" d="M914.89,-673.5C799.89,-672.41 604.6,-663.9 550.24,-620 539.56,-611.38 515.4,-530.44 502.96,-486.72"/>
<polygon fill="black" stroke="black" points="506.08,-485.89 500,-477.22 499.35,-487.79 506.08,-485.89"/>
</g>
<!-- nnpops -->
<g id="node22" class="node">
<title>nnpops</title>
<g id="a_node22"><a xlink:href="https://github.com/conda-forge/nnpops-feedstock" xlink:title="nnpops">
<ellipse fill="#fde725" stroke="black" cx="249.24" cy="-242" rx="47.53" ry="18"/>
<text text-anchor="middle" x="249.24" y="-237.32" font-family="Times,serif" font-size="14.00">nnpops</text>
</a>
</g>
</g>
<!-- pytorch&#45;cpu&#45;&gt;nnpops -->
<g id="edge27" class="edge">
<title>pytorch&#45;cpu&#45;&gt;nnpops</title>
<path fill="none" stroke="black" d="M915.36,-672.08C740.11,-669.4 353.94,-659.08 309.24,-620 278.79,-593.38 290.24,-571.45 290.24,-531 290.24,-531 290.24,-531 290.24,-385 290.24,-343.59 273.94,-297.96 261.9,-269.88"/>
<polygon fill="black" stroke="black" points="264.78,-268.75 257.53,-261.03 258.38,-271.59 264.78,-268.75"/>
</g>
<!-- triton -->
<g id="node23" class="node">
<title>triton</title>
<g id="a_node23"><a xlink:href="https://github.com/conda-forge/triton-feedstock" xlink:title="triton">
<ellipse fill="#fde725" stroke="black" cx="932.24" cy="-386" rx="39.63" ry="18"/>
<text text-anchor="middle" x="932.24" y="-381.32" font-family="Times,serif" font-size="14.00">triton</text>
</a>
</g>
</g>
<!-- pytorch&#45;cpu&#45;&gt;triton -->
<g id="edge28" class="edge">
<title>pytorch&#45;cpu&#45;&gt;triton</title>
<path fill="none" stroke="black" d="M999.04,-655.65C995.83,-625.67 991.73,-562.53 1006.24,-512 1011.35,-494.2 1022.4,-493.88 1027.24,-476 1031.41,-460.55 1035.34,-453.8 1027.24,-440 1016.05,-420.95 995.25,-408.24 975.96,-400.06"/>
<polygon fill="black" stroke="black" points="977.36,-396.46 966.77,-396.08 974.81,-402.98 977.36,-396.46"/>
</g>
<!-- openmmtorchplugin -->
<g id="node24" class="node">
<title>openmmtorchplugin</title>
<g id="a_node24"><a xlink:href="https://github.com/conda-forge/openmmtorchplugin-feedstock" xlink:title="openmmtorchplugin">
<ellipse fill="#fde725" stroke="black" cx="2701.24" cy="-602" rx="112.24" ry="18"/>
<text text-anchor="middle" x="2701.24" y="-597.33" font-family="Times,serif" font-size="14.00">openmmtorchplugin</text>
</a>
</g>
</g>
<!-- pytorch&#45;cpu&#45;&gt;openmmtorchplugin -->
<g id="edge29" class="edge">
<title>pytorch&#45;cpu&#45;&gt;openmmtorchplugin</title>
<path fill="none" stroke="black" d="M1087.44,-673.31C1325.53,-673.48 2012.2,-669.3 2580.24,-620 2590.62,-619.1 2601.47,-617.92 2612.23,-616.6"/>
<polygon fill="black" stroke="black" points="2612.46,-619.97 2621.94,-615.24 2611.58,-613.02 2612.46,-619.97"/>
</g>
<!-- molgrid -->
<g id="node25" class="node">
<title>molgrid</title>
<g id="a_node25"><a xlink:href="https://github.com/conda-forge/molgrid-feedstock" xlink:title="molgrid">
<ellipse fill="#fde725" stroke="black" cx="564.24" cy="-314" rx="50.16" ry="18"/>
<text text-anchor="middle" x="564.24" y="-309.32" font-family="Times,serif" font-size="14.00">molgrid</text>
</a>
</g>
</g>
<!-- pytorch&#45;cpu&#45;&gt;molgrid -->
<g id="edge30" class="edge">
<title>pytorch&#45;cpu&#45;&gt;molgrid</title>
<path fill="none" stroke="black" d="M916.01,-671.37C813.76,-667.78 650.09,-656.35 602.24,-620 567.99,-593.98 564.24,-574.01 564.24,-531 564.24,-531 564.24,-531 564.24,-457 564.24,-417.57 564.24,-371.97 564.24,-343.31"/>
<polygon fill="black" stroke="black" points="567.74,-343.49 564.24,-333.49 560.74,-343.49 567.74,-343.49"/>
</g>
<!-- theseus&#45;ai -->
<g id="node26" class="node">
<title>theseus&#45;ai</title>
<g id="a_node26"><a xlink:href="https://github.com/conda-forge/theseus-ai-feedstock" xlink:title="theseus ai">
<ellipse fill="#fde725" stroke="black" cx="730.24" cy="-602" rx="62.26" ry="18"/>
<text text-anchor="middle" x="730.24" y="-597.33" font-family="Times,serif" font-size="14.00">theseus ai</text>
</a>
</g>
</g>
<!-- pytorch&#45;cpu&#45;&gt;theseus&#45;ai -->
<g id="edge31" class="edge">
<title>pytorch&#45;cpu&#45;&gt;theseus&#45;ai</title>
<path fill="none" stroke="black" d="M948.66,-659.42C901.87,-647.33 833.64,-629.71 785.92,-617.38"/>
<polygon fill="black" stroke="black" points="787.02,-613.8 776.47,-614.68 785.27,-620.57 787.02,-613.8"/>
</g>
<!-- pyg&#45;lib -->
<g id="node27" class="node">
<title>pyg&#45;lib</title>
<g id="a_node27"><a xlink:href="https://github.com/conda-forge/pyg-lib-feedstock" xlink:title="pyg lib">
<ellipse fill="#fde725" stroke="black" cx="781.24" cy="-314" rx="45.42" ry="18"/>
<text text-anchor="middle" x="781.24" y="-309.32" font-family="Times,serif" font-size="14.00">pyg lib</text>
</a>
</g>
</g>
<!-- pytorch&#45;cpu&#45;&gt;pyg&#45;lib -->
<g id="edge32" class="edge">
<title>pytorch&#45;cpu&#45;&gt;pyg&#45;lib</title>
<path fill="none" stroke="black" d="M916.07,-670.88C820.75,-666.81 674.15,-654.88 632.24,-620 600.15,-593.3 602.24,-572.74 602.24,-531 602.24,-531 602.24,-531 602.24,-457 602.24,-413.81 609.93,-397.75 641.24,-368 665.4,-345.04 700.49,-331.78 729.49,-324.27"/>
<polygon fill="black" stroke="black" points="729.98,-327.51 738.87,-321.75 728.33,-320.71 729.98,-327.51"/>
</g>
<!-- deepspeed -->
<g id="node28" class="node">
<title>deepspeed</title>
<g id="a_node28"><a xlink:href="https://github.com/conda-forge/deepspeed-feedstock" xlink:title="deepspeed">
<ellipse fill="#fde725" stroke="black" cx="851.24" cy="-530" rx="64.89" ry="18"/>
<text text-anchor="middle" x="851.24" y="-525.33" font-family="Times,serif" font-size="14.00">deepspeed</text>
</a>
</g>
</g>
<!-- pytorch&#45;cpu&#45;&gt;deepspeed -->
<g id="edge33" class="edge">
<title>pytorch&#45;cpu&#45;&gt;deepspeed</title>
<path fill="none" stroke="black" d="M976.61,-656.49C962.49,-646.57 944.74,-633.32 930.24,-620 908.66,-600.18 886.75,-575.01 871.5,-556.5"/>
<polygon fill="black" stroke="black" points="873.6,-554.54 864.57,-549 868.17,-558.96 873.6,-554.54"/>
</g>
<!-- bitsandbytes -->
<g id="node29" class="node">
<title>bitsandbytes</title>
<g id="a_node29"><a xlink:href="https://github.com/conda-forge/bitsandbytes-feedstock" xlink:title="bitsandbytes">
<ellipse fill="#fde725" stroke="black" cx="942.24" cy="-458" rx="75.94" ry="18"/>
<text text-anchor="middle" x="942.24" y="-453.32" font-family="Times,serif" font-size="14.00">bitsandbytes</text>
</a>
</g>
</g>
<!-- pytorch&#45;cpu&#45;&gt;bitsandbytes -->
<g id="edge34" class="edge">
<title>pytorch&#45;cpu&#45;&gt;bitsandbytes</title>
<path fill="none" stroke="black" d="M988.06,-655.77C981.1,-645.83 973.03,-632.79 968.24,-620 951.53,-575.41 945.55,-519.93 943.42,-487.1"/>
<polygon fill="black" stroke="black" points="946.88,-487.28 942.81,-477.49 939.89,-487.68 946.88,-487.28"/>
</g>
<!-- abacus -->
<g id="node30" class="node">
<title>abacus</title>
<g id="a_node30"><a xlink:href="https://github.com/conda-forge/abacus-feedstock" xlink:title="abacus">
<ellipse fill="#fde725" stroke="black" cx="1084.24" cy="-386" rx="45.95" ry="18"/>
<text text-anchor="middle" x="1084.24" y="-381.32" font-family="Times,serif" font-size="14.00">abacus</text>
</a>
</g>
</g>
<!-- pytorch&#45;cpu&#45;&gt;abacus -->
<g id="edge35" class="edge">
<title>pytorch&#45;cpu&#45;&gt;abacus</title>
<path fill="none" stroke="black" d="M1004.6,-655.91C1010.58,-626.33 1023.87,-563.76 1039.24,-512 1049.36,-477.91 1063.61,-439.54 1073.35,-414.41"/>
<polygon fill="black" stroke="black" points="1076.97,-415.77 1077.35,-405.18 1070.45,-413.22 1076.97,-415.77"/>
</g>
<!-- carterbox&#45;torch&#45;radon -->
<g id="node31" class="node">
<title>carterbox&#45;torch&#45;radon</title>
<g id="a_node31"><a xlink:href="https://github.com/conda-forge/carterbox-torch-radon-feedstock" xlink:title="carterbox torch radon">
<ellipse fill="#fde725" stroke="black" cx="2190.24" cy="-314" rx="121.18" ry="18"/>
<text text-anchor="middle" x="2190.24" y="-309.32" font-family="Times,serif" font-size="14.00">carterbox torch radon</text>
</a>
</g>
</g>
<!-- pytorch&#45;cpu&#45;&gt;carterbox&#45;torch&#45;radon -->
<g id="edge36" class="edge">
<title>pytorch&#45;cpu&#45;&gt;carterbox&#45;torch&#45;radon</title>
<path fill="none" stroke="black" d="M1086.88,-671.62C1292.12,-667.79 1807.53,-654.9 1976.24,-620 2066.71,-601.28 2115.38,-621.59 2171.24,-548 2217.25,-487.37 2206.05,-390.53 2196.76,-343.07"/>
<polygon fill="black" stroke="black" points="2200,-342.46 2194.54,-333.39 2193.15,-343.89 2200,-342.46"/>
</g>
<!-- pytorch_scatter&#45;&gt;pytorch_sparse -->
<g id="edge37" class="edge">
<title>pytorch_scatter&#45;&gt;pytorch_sparse</title>
<path fill="none" stroke="black" d="M753.29,-439.7C751.14,-432.15 748.56,-423.12 746.15,-414.68"/>
<polygon fill="black" stroke="black" points="749.24,-413.76 743.12,-405.1 742.51,-415.68 749.24,-413.76"/>
</g>
<!-- torchani&#45;&gt;nnpops -->
<g id="edge38" class="edge">
<title>torchani&#45;&gt;nnpops</title>
<path fill="none" stroke="black" d="M218.92,-296.05C223.54,-287.97 229.17,-278.12 234.32,-269.11"/>
<polygon fill="black" stroke="black" points="237.72,-271.21 239.64,-260.79 231.64,-267.73 237.72,-271.21"/>
</g>
<!-- triton&#45;&gt;pyg&#45;lib -->
<g id="edge39" class="edge">
<title>triton&#45;&gt;pyg&#45;lib</title>
<path fill="none" stroke="black" d="M905.24,-372.49C881.47,-361.47 846.58,-345.29 819.86,-332.9"/>
<polygon fill="black" stroke="black" points="821.6,-329.39 811.06,-328.36 818.66,-335.74 821.6,-329.39"/>
</g>
<!-- stir -->
<g id="node32" class="node">
<title>stir</title>
<g id="a_node32"><a xlink:href="https://github.com/conda-forge/stir-feedstock/pull/82" xlink:title="stir ❎">
<ellipse fill="#31688e" stroke="black" cx="3565.24" cy="-854" rx="43.84" ry="18"/>
<text text-anchor="middle" x="3565.24" y="-849.33" font-family="Times,serif" font-size="14.00" fill="white">stir ❎</text>
</a>
</g>
</g>
<!-- prismatic_split -->
<g id="node33" class="node">
<title>prismatic_split</title>
<g id="a_node33"><a xlink:href="https://github.com/conda-forge/prismatic_split-feedstock/pull/43" xlink:title="prismatic_split ❎">
<ellipse fill="#31688e" stroke="black" cx="3565.24" cy="-782" rx="100.66" ry="18"/>
<text text-anchor="middle" x="3565.24" y="-777.33" font-family="Times,serif" font-size="14.00" fill="white">prismatic_split ❎</text>
</a>
</g>
</g>
<!-- stir&#45;&gt;prismatic_split -->
<!-- pycuda -->
<g id="node41" class="node">
<title>pycuda</title>
<g id="a_node41"><a xlink:href="https://github.com/conda-forge/pycuda-feedstock/pull/25" xlink:title="pycuda ❎">
<ellipse fill="#31688e" stroke="black" cx="3565.24" cy="-710" rx="62.26" ry="18"/>
<text text-anchor="middle" x="3565.24" y="-705.33" font-family="Times,serif" font-size="14.00" fill="white">pycuda ❎</text>
</a>
</g>
</g>
<!-- prismatic_split&#45;&gt;pycuda -->
<!-- jaxlib -->
<g id="node34" class="node">
<title>jaxlib</title>
<g id="a_node34"><a xlink:href="https://github.com/conda-forge/jaxlib-feedstock/pull/181" xlink:title="jaxlib ❎">
<ellipse fill="#31688e" stroke="black" cx="2262.24" cy="-746" rx="53.84" ry="18"/>
<text text-anchor="middle" x="2262.24" y="-741.33" font-family="Times,serif" font-size="14.00" fill="white">jaxlib ❎</text>
</a>
</g>
</g>
<!-- jaxlib&#45;&gt;tensorflow -->
<g id="edge41" class="edge">
<title>jaxlib&#45;&gt;tensorflow</title>
<path fill="none" stroke="black" d="M2262.24,-727.7C2262.24,-720.24 2262.24,-711.32 2262.24,-702.97"/>
<polygon fill="black" stroke="black" points="2265.74,-703.1 2262.24,-693.1 2258.74,-703.1 2265.74,-703.1"/>
</g>
<!-- openmm -->
<g id="node35" class="node">
<title>openmm</title>
<g id="a_node35"><a xlink:href="https://github.com/conda-forge/openmm-feedstock/pull/107" xlink:title="openmm ❎">
<ellipse fill="#31688e" stroke="black" cx="3049.24" cy="-674" rx="69.62" ry="18"/>
<text text-anchor="middle" x="3049.24" y="-669.33" font-family="Times,serif" font-size="14.00" fill="white">openmm ❎</text>
</a>
</g>
</g>
<!-- openmm&#45;&gt;openmm&#45;torch -->
<g id="edge42" class="edge">
<title>openmm&#45;&gt;openmm&#45;torch</title>
<path fill="none" stroke="black" d="M2984.57,-667.1C2893.95,-658.52 2724.12,-641.26 2580.24,-620 2573.34,-618.98 2566.16,-617.83 2559,-616.62"/>
<polygon fill="black" stroke="black" points="2559.62,-613.01 2549.17,-614.75 2558.43,-619.9 2559.62,-613.01"/>
</g>
<!-- openmm&#45;&gt;openmmtorchplugin -->
<g id="edge43" class="edge">
<title>openmm&#45;&gt;openmmtorchplugin</title>
<path fill="none" stroke="black" d="M2995.62,-662.22C2938.01,-650.63 2845.86,-632.09 2780.01,-618.84"/>
<polygon fill="black" stroke="black" points="2780.76,-615.22 2770.27,-616.68 2779.38,-622.09 2780.76,-615.22"/>
</g>
<!-- openmm&#45;plumed -->
<g id="node36" class="node">
<title>openmm&#45;plumed</title>
<g id="a_node36"><a xlink:href="https://github.com/conda-forge/openmm-plumed-feedstock" xlink:title="openmm plumed">
<ellipse fill="#fde725" stroke="black" cx="2926.24" cy="-602" rx="94.88" ry="18"/>
<text text-anchor="middle" x="2926.24" y="-597.33" font-family="Times,serif" font-size="14.00">openmm plumed</text>
</a>
</g>
</g>
<!-- openmm&#45;&gt;openmm&#45;plumed -->
<g id="edge44" class="edge">
<title>openmm&#45;&gt;openmm&#45;plumed</title>
<path fill="none" stroke="black" d="M3021.33,-657.12C3004.62,-647.61 2983.15,-635.39 2964.84,-624.97"/>
<polygon fill="black" stroke="black" points="2966.74,-621.46 2956.32,-619.55 2963.28,-627.54 2966.74,-621.46"/>
</g>
<!-- meld -->
<g id="node37" class="node">
<title>meld</title>
<g id="a_node37"><a xlink:href="https://github.com/conda-forge/meld-feedstock" xlink:title="meld">
<ellipse fill="#fde725" stroke="black" cx="3023.24" cy="-530" rx="35.95" ry="18"/>
<text text-anchor="middle" x="3023.24" y="-525.33" font-family="Times,serif" font-size="14.00">meld</text>
</a>
</g>
</g>
<!-- openmm&#45;&gt;meld -->
<g id="edge45" class="edge">
<title>openmm&#45;&gt;meld</title>
<path fill="none" stroke="black" d="M3046.05,-655.59C3041.62,-631.4 3033.56,-587.36 3028.3,-558.65"/>
<polygon fill="black" stroke="black" points="3031.61,-558.32 3026.37,-549.11 3024.73,-559.58 3031.61,-558.32"/>
</g>
<!-- seekr2_openmm_plugin -->
<g id="node38" class="node">
<title>seekr2_openmm_plugin</title>
<g id="a_node38"><a xlink:href="https://github.com/conda-forge/seekr2_openmm_plugin-feedstock" xlink:title="seekr2_openmm_plugin">
<ellipse fill="#fde725" stroke="black" cx="3027.24" cy="-458" rx="129.07" ry="18"/>
<text text-anchor="middle" x="3027.24" y="-453.32" font-family="Times,serif" font-size="14.00">seekr2_openmm_plugin</text>
</a>
</g>
</g>
<!-- openmm&#45;&gt;seekr2_openmm_plugin -->
<g id="edge46" class="edge">
<title>openmm&#45;&gt;seekr2_openmm_plugin</title>
<path fill="none" stroke="black" d="M3055.99,-656.03C3066.88,-626.1 3085.43,-562.34 3068.24,-512 3064.81,-501.98 3058.64,-492.38 3052.1,-484.17"/>
<polygon fill="black" stroke="black" points="3054.14,-482.17 3044.98,-476.85 3048.82,-486.73 3054.14,-482.17"/>
</g>
<!-- openmm&#45;atmmetaforce&#45;plugin -->
<g id="node39" class="node">
<title>openmm&#45;atmmetaforce&#45;plugin</title>
<g id="a_node39"><a xlink:href="https://github.com/conda-forge/openmm-atmmetaforce-plugin-feedstock" xlink:title="openmm atmmetaforce plugin">
<ellipse fill="#fde725" stroke="black" cx="3184.24" cy="-386" rx="162.22" ry="18"/>
<text text-anchor="middle" x="3184.24" y="-381.32" font-family="Times,serif" font-size="14.00">openmm atmmetaforce plugin</text>
</a>
</g>
</g>
<!-- openmm&#45;&gt;openmm&#45;atmmetaforce&#45;plugin -->
<g id="edge47" class="edge">
<title>openmm&#45;&gt;openmm&#45;atmmetaforce&#45;plugin</title>
<path fill="none" stroke="black" d="M3062.12,-655.84C3086.25,-622.85 3138.23,-547.47 3165.24,-476 3172.71,-456.24 3177.56,-432.84 3180.49,-415"/>
<polygon fill="black" stroke="black" points="3184.09,-415.58 3182.14,-405.17 3177.17,-414.52 3184.09,-415.58"/>
</g>
<!-- openmm&#45;dlext -->
<g id="node40" class="node">
<title>openmm&#45;dlext</title>
<g id="a_node40"><a xlink:href="https://github.com/conda-forge/openmm-dlext-feedstock" xlink:title="openmm dlext">
<ellipse fill="#fde725" stroke="black" cx="3374.24" cy="-314" rx="82.77" ry="18"/>
<text text-anchor="middle" x="3374.24" y="-309.32" font-family="Times,serif" font-size="14.00">openmm dlext</text>
</a>
</g>
</g>
<!-- openmm&#45;&gt;openmm&#45;dlext -->
<g id="edge48" class="edge">
<title>openmm&#45;&gt;openmm&#45;dlext</title>
<path fill="none" stroke="black" d="M3118.96,-672.15C3214.45,-666.87 3374.24,-641.53 3374.24,-531 3374.24,-531 3374.24,-531 3374.24,-457 3374.24,-417.57 3374.24,-371.97 3374.24,-343.31"/>
<polygon fill="black" stroke="black" points="3377.74,-343.49 3374.24,-333.49 3370.74,-343.49 3377.74,-343.49"/>
</g>
<!-- onnxruntime -->
<g id="node46" class="node">
<title>onnxruntime</title>
<g id="a_node46"><a xlink:href="https://github.com/conda-forge/onnxruntime-feedstock/pull/65" xlink:title="onnxruntime ❎">
<ellipse fill="#31688e" stroke="black" cx="3565.24" cy="-638" rx="90.67" ry="18"/>
<text text-anchor="middle" x="3565.24" y="-633.33" font-family="Times,serif" font-size="14.00" fill="white">onnxruntime ❎</text>
</a>
</g>
</g>
<!-- pycuda&#45;&gt;onnxruntime -->
<!-- faiss&#45;split -->
<g id="node42" class="node">
<title>faiss&#45;split</title>
<g id="a_node42"><a xlink:href="https://github.com/conda-forge/faiss-split-feedstock/pull/68" xlink:title="faiss split ❎">
<ellipse fill="#31688e" stroke="black" cx="1842.24" cy="-602" rx="74.88" ry="18"/>
<text text-anchor="middle" x="1842.24" y="-597.33" font-family="Times,serif" font-size="14.00" fill="white">faiss split ❎</text>
</a>
</g>
</g>
<!-- faiss&#45;split&#45;&gt;graphvite -->
<g id="edge50" class="edge">
<title>faiss&#45;split&#45;&gt;graphvite</title>
<path fill="none" stroke="black" d="M1826.02,-584.05C1817.87,-575.54 1807.85,-565.07 1798.86,-555.68"/>
<polygon fill="black" stroke="black" points="1801.75,-553.59 1792.31,-548.79 1796.69,-558.43 1801.75,-553.59"/>
</g>
<!-- tsnecuda -->
<g id="node43" class="node">
<title>tsnecuda</title>
<g id="a_node43"><a xlink:href="https://github.com/conda-forge/tsnecuda-feedstock" xlink:title="tsnecuda">
<ellipse fill="#fde725" stroke="black" cx="1909.24" cy="-530" rx="56.47" ry="18"/>
<text text-anchor="middle" x="1909.24" y="-525.33" font-family="Times,serif" font-size="14.00">tsnecuda</text>
</a>
</g>
</g>
<!-- faiss&#45;split&#45;&gt;tsnecuda -->
<g id="edge51" class="edge">
<title>faiss&#45;split&#45;&gt;tsnecuda</title>
<path fill="none" stroke="black" d="M1858.46,-584.05C1866.81,-575.33 1877.13,-564.54 1886.28,-554.98"/>
<polygon fill="black" stroke="black" points="1888.24,-557.95 1892.63,-548.31 1883.19,-553.11 1888.24,-557.95"/>
</g>
<!-- libtvm -->
<g id="node44" class="node">
<title>libtvm</title>
<g id="a_node44"><a xlink:href="https://github.com/conda-forge/libtvm-feedstock/pull/30" xlink:title="libtvm ❎">
<ellipse fill="#31688e" stroke="black" cx="1728.24" cy="-90" rx="58.57" ry="18"/>
<text text-anchor="middle" x="1728.24" y="-85.33" font-family="Times,serif" font-size="14.00" fill="white">libtvm ❎</text>
</a>
</g>
</g>
<!-- tvm&#45;py -->
<g id="node45" class="node">
<title>tvm&#45;py</title>
<g id="a_node45"><a xlink:href="https://github.com/conda-forge/tvm-py-feedstock" xlink:title="tvm py">
<ellipse fill="#fde725" stroke="black" cx="1728.24" cy="-18" rx="45.95" ry="18"/>
<text text-anchor="middle" x="1728.24" y="-13.32" font-family="Times,serif" font-size="14.00">tvm py</text>
</a>
</g>
</g>
<!-- libtvm&#45;&gt;tvm&#45;py -->
<g id="edge52" class="edge">
<title>libtvm&#45;&gt;tvm&#45;py</title>
<path fill="none" stroke="black" d="M1728.24,-71.7C1728.24,-64.24 1728.24,-55.32 1728.24,-46.97"/>
<polygon fill="black" stroke="black" points="1731.74,-47.1 1728.24,-37.1 1724.74,-47.1 1731.74,-47.1"/>
</g>
<!-- cudadecon -->
<g id="node47" class="node">
<title>cudadecon</title>
<g id="a_node47"><a xlink:href="https://github.com/conda-forge/cudadecon-feedstock/pull/18" xlink:title="cudadecon ❎">
<ellipse fill="#31688e" stroke="black" cx="3565.24" cy="-566" rx="79.62" ry="18"/>
<text text-anchor="middle" x="3565.24" y="-561.33" font-family="Times,serif" font-size="14.00" fill="white">cudadecon ❎</text>
</a>
</g>
</g>
<!-- onnxruntime&#45;&gt;cudadecon -->
<!-- timemory -->
<g id="node48" class="node">
<title>timemory</title>
<g id="a_node48"><a xlink:href="https://github.com/conda-forge/timemory-feedstock/pull/17" xlink:title="timemory ❎">
<ellipse fill="#31688e" stroke="black" cx="3565.24" cy="-494" rx="74.88" ry="18"/>
<text text-anchor="middle" x="3565.24" y="-489.32" font-family="Times,serif" font-size="14.00" fill="white">timemory ❎</text>
</a>
</g>
</g>
<!-- cudadecon&#45;&gt;timemory -->
<!-- mandrake -->
<g id="node49" class="node">
<title>mandrake</title>
<g id="a_node49"><a xlink:href="https://github.com/conda-forge/mandrake-feedstock/pull/7" xlink:title="mandrake ❎">
<ellipse fill="#31688e" stroke="black" cx="3565.24" cy="-422" rx="76.46" ry="18"/>
<text text-anchor="middle" x="3565.24" y="-417.32" font-family="Times,serif" font-size="14.00" fill="white">mandrake ❎</text>
</a>
</g>
</g>
<!-- timemory&#45;&gt;mandrake -->
<!-- rmm -->
<g id="node50" class="node">
<title>rmm</title>
<g id="a_node50"><a xlink:href="https://github.com/conda-forge/rmm-feedstock/pull/25" xlink:title="rmm ❎">
<ellipse fill="#31688e" stroke="black" cx="3565.24" cy="-350" rx="50.16" ry="18"/>
<text text-anchor="middle" x="3565.24" y="-345.32" font-family="Times,serif" font-size="14.00" fill="white">rmm ❎</text>
</a>
</g>
</g>
<!-- mandrake&#45;&gt;rmm -->
<!-- ptxcompiler -->
<g id="node51" class="node">
<title>ptxcompiler</title>
<g id="a_node51"><a xlink:href="https://github.com/conda-forge/ptxcompiler-feedstock" xlink:title="ptxcompiler">
<ellipse fill="#000000" stroke="black" cx="3565.24" cy="-278" rx="71.2" ry="18"/>
<text text-anchor="middle" x="3565.24" y="-273.32" font-family="Times,serif" font-size="14.00" fill="white">ptxcompiler</text>
</a>
</g>
</g>
<!-- rmm&#45;&gt;ptxcompiler -->
<!-- pyscamp&#45;gpu -->
<g id="node52" class="node">
<title>pyscamp&#45;gpu</title>
<g id="a_node52"><a xlink:href="https://github.com/conda-forge/pyscamp-gpu-feedstock/pull/6" xlink:title="pyscamp gpu ❎">
<ellipse fill="#31688e" stroke="black" cx="3565.24" cy="-206" rx="92.77" ry="18"/>
<text text-anchor="middle" x="3565.24" y="-201.33" font-family="Times,serif" font-size="14.00" fill="white">pyscamp gpu ❎</text>
</a>
</g>
</g>
<!-- ptxcompiler&#45;&gt;pyscamp&#45;gpu -->
<!-- heavydb&#45;ext -->
<g id="node53" class="node">
<title>heavydb&#45;ext</title>
<g id="a_node53"><a xlink:href="https://github.com/conda-forge/heavydb-ext-feedstock/pull/49" xlink:title="heavydb ext ❎">
<ellipse fill="#31688e" stroke="black" cx="3565.24" cy="-134" rx="87.51" ry="18"/>
<text text-anchor="middle" x="3565.24" y="-129.32" font-family="Times,serif" font-size="14.00" fill="white">heavydb ext ❎</text>
</a>
</g>
</g>
<!-- pyscamp&#45;gpu&#45;&gt;heavydb&#45;ext -->
<!-- cyrsoxs -->
<g id="node54" class="node">
<title>cyrsoxs</title>
<g id="a_node54"><a xlink:href="https://github.com/conda-forge/cyrsoxs-feedstock/pull/9" xlink:title="cyrsoxs ❎">
<ellipse fill="#31688e" stroke="black" cx="3762.24" cy="-566" rx="64.36" ry="18"/>
<text text-anchor="middle" x="3762.24" y="-561.33" font-family="Times,serif" font-size="14.00" fill="white">cyrsoxs ❎</text>
</a>
</g>
</g>
<!-- katago -->
<g id="node55" class="node">
<title>katago</title>
<g id="a_node55"><a xlink:href="https://github.com/conda-forge/katago-feedstock/pull/5" xlink:title="katago ❎">
<ellipse fill="#31688e" stroke="black" cx="3762.24" cy="-494" rx="60.15" ry="18"/>
<text text-anchor="middle" x="3762.24" y="-489.32" font-family="Times,serif" font-size="14.00" fill="white">katago ❎</text>
</a>
</g>
</g>
<!-- cyrsoxs&#45;&gt;katago -->
<!-- hoomd&#45;dlext -->
<g id="node56" class="node">
<title>hoomd&#45;dlext</title>
<g id="a_node56"><a xlink:href="https://github.com/conda-forge/hoomd-dlext-feedstock/pull/7" xlink:title="hoomd dlext ❎">
<ellipse fill="#31688e" stroke="black" cx="3762.24" cy="-422" rx="88.56" ry="18"/>
<text text-anchor="middle" x="3762.24" y="-417.32" font-family="Times,serif" font-size="14.00" fill="white">hoomd dlext ❎</text>
</a>
</g>
</g>
<!-- katago&#45;&gt;hoomd&#45;dlext -->
</g>
</svg>
