<?xml version="1.0" encoding="UTF-8" standalone="no"?>
<!DOCTYPE svg PUBLIC "-//W3C//DTD SVG 1.1//EN"
 "http://www.w3.org/Graphics/SVG/1.1/DTD/svg11.dtd">
<!-- Generated by graphviz version 8.0.5 (20230506.1012)
 -->
<!-- Pages: 1 -->
<svg width="3208pt" height="952pt"
 viewBox="0.00 0.00 3207.77 952.00" xmlns="http://www.w3.org/2000/svg" xmlns:xlink="http://www.w3.org/1999/xlink">
<g id="graph0" class="graph" transform="scale(1 1) rotate(0) translate(4 948)">
<polygon fill="white" stroke="none" points="-4,4 -4,-948 3203.77,-948 3203.77,4 -4,4"/>
<!-- arrow&#45;cpp -->
<g id="node1" class="node">
<title>arrow&#45;cpp</title>
<g id="a_node1"><a xlink:href="https://github.com/conda-forge/arrow-cpp-feedstock" xlink:title="arrow cpp">
<ellipse fill="#fde725" stroke="black" cx="1176.09" cy="-710" rx="61.73" ry="18"/>
<text text-anchor="middle" x="1176.09" y="-705.33" font-family="Times,serif" font-size="14.00">arrow cpp</text>
</a>
</g>
</g>
<!-- heavydb&#45;ext -->
<g id="node2" class="node">
<title>heavydb&#45;ext</title>
<g id="a_node2"><a xlink:href="https://github.com/conda-forge/heavydb-ext-feedstock/pull/49" xlink:title="heavydb ext ❎">
<ellipse fill="#31688e" stroke="black" cx="1240.09" cy="-638" rx="87.51" ry="18"/>
<text text-anchor="middle" x="1240.09" y="-633.33" font-family="Times,serif" font-size="14.00" fill="white">heavydb ext ❎</text>
</a>
</g>
</g>
<!-- arrow&#45;cpp&#45;&gt;heavydb&#45;ext -->
<g id="edge1" class="edge">
<title>arrow&#45;cpp&#45;&gt;heavydb&#45;ext</title>
<path fill="none" stroke="black" d="M1191.26,-692.41C1199.03,-683.91 1208.66,-673.37 1217.31,-663.91"/>
<polygon fill="black" stroke="black" points="1219.42,-666.7 1223.59,-656.96 1214.26,-661.97 1219.42,-666.7"/>
</g>
<!-- hdk -->
<g id="node3" class="node">
<title>hdk</title>
<g id="a_node3"><a xlink:href="https://github.com/conda-forge/hdk-feedstock" xlink:title="hdk">
<ellipse fill="#fde725" stroke="black" cx="1169.09" cy="-566" rx="29.64" ry="18"/>
<text text-anchor="middle" x="1169.09" y="-561.33" font-family="Times,serif" font-size="14.00">hdk</text>
</a>
</g>
</g>
<!-- arrow&#45;cpp&#45;&gt;hdk -->
<g id="edge2" class="edge">
<title>arrow&#45;cpp&#45;&gt;hdk</title>
<path fill="none" stroke="black" d="M1162.11,-692.04C1154.9,-682.18 1146.84,-669.13 1143.09,-656 1138.69,-640.62 1139.47,-635.59 1143.09,-620 1145.26,-610.63 1149.34,-601.01 1153.63,-592.58"/>
<polygon fill="black" stroke="black" points="1157.14,-594.44 1158.85,-583.98 1151,-591.09 1157.14,-594.44"/>
</g>
<!-- kaldi -->
<g id="node4" class="node">
<title>kaldi</title>
<g id="a_node4"><a xlink:href="https://github.com/conda-forge/kaldi-feedstock/pull/39" xlink:title="kaldi ❎">
<ellipse fill="#31688e" stroke="black" cx="2826.09" cy="-926" rx="50.68" ry="18"/>
<text text-anchor="middle" x="2826.09" y="-921.33" font-family="Times,serif" font-size="14.00" fill="white">kaldi ❎</text>
</a>
</g>
</g>
<!-- conda&#45;forge&#45;ci&#45;setup -->
<g id="node5" class="node">
<title>conda&#45;forge&#45;ci&#45;setup</title>
<g id="a_node5"><a xlink:href="https://github.com/conda-forge/conda-forge-ci-setup-feedstock/pull/244" xlink:title="conda forge ci setup ❎">
<ellipse fill="#31688e" stroke="black" cx="2826.09" cy="-854" rx="128.02" ry="18"/>
<text text-anchor="middle" x="2826.09" y="-849.33" font-family="Times,serif" font-size="14.00" fill="white">conda forge ci setup ❎</text>
</a>
</g>
</g>
<!-- kaldi&#45;&gt;conda&#45;forge&#45;ci&#45;setup -->
<!-- stir -->
<g id="node14" class="node">
<title>stir</title>
<g id="a_node14"><a xlink:href="https://github.com/conda-forge/stir-feedstock/pull/82" xlink:title="stir ❎">
<ellipse fill="#31688e" stroke="black" cx="2826.09" cy="-782" rx="43.84" ry="18"/>
<text text-anchor="middle" x="2826.09" y="-777.33" font-family="Times,serif" font-size="14.00" fill="white">stir ❎</text>
</a>
</g>
</g>
<!-- conda&#45;forge&#45;ci&#45;setup&#45;&gt;stir -->
<!-- torchvision -->
<g id="node6" class="node">
<title>torchvision</title>
<g id="a_node6"><a xlink:href="https://github.com/conda-forge/torchvision-feedstock" xlink:title="torchvision">
<ellipse fill="#fde725" stroke="black" cx="1399.09" cy="-710" rx="66.99" ry="18"/>
<text text-anchor="middle" x="1399.09" y="-705.33" font-family="Times,serif" font-size="14.00">torchvision</text>
</a>
</g>
</g>
<!-- detectron2 -->
<g id="node7" class="node">
<title>detectron2</title>
<g id="a_node7"><a xlink:href="https://github.com/conda-forge/detectron2-feedstock" xlink:title="detectron2">
<ellipse fill="#fde725" stroke="black" cx="1411.09" cy="-638" rx="65.94" ry="18"/>
<text text-anchor="middle" x="1411.09" y="-633.33" font-family="Times,serif" font-size="14.00">detectron2</text>
</a>
</g>
</g>
<!-- torchvision&#45;&gt;detectron2 -->
<g id="edge4" class="edge">
<title>torchvision&#45;&gt;detectron2</title>
<path fill="none" stroke="black" d="M1402.06,-691.7C1403.35,-684.15 1404.9,-675.12 1406.34,-666.68"/>
<polygon fill="black" stroke="black" points="1409.92,-667.55 1408.16,-657.1 1403.02,-666.37 1409.92,-667.55"/>
</g>
<!-- fcos -->
<g id="node8" class="node">
<title>fcos</title>
<g id="a_node8"><a xlink:href="https://github.com/conda-forge/fcos-feedstock" xlink:title="fcos">
<ellipse fill="#fde725" stroke="black" cx="1526.09" cy="-638" rx="31.22" ry="18"/>
<text text-anchor="middle" x="1526.09" y="-633.33" font-family="Times,serif" font-size="14.00">fcos</text>
</a>
</g>
</g>
<!-- torchvision&#45;&gt;fcos -->
<g id="edge5" class="edge">
<title>torchvision&#45;&gt;fcos</title>
<path fill="none" stroke="black" d="M1427.59,-693.29C1447.45,-682.34 1473.95,-667.74 1494.46,-656.43"/>
<polygon fill="black" stroke="black" points="1495.93,-659.07 1503,-651.18 1492.55,-652.94 1495.93,-659.07"/>
</g>
<!-- fairscale -->
<g id="node9" class="node">
<title>fairscale</title>
<g id="a_node9"><a xlink:href="https://github.com/conda-forge/fairscale-feedstock" xlink:title="fairscale">
<ellipse fill="#fde725" stroke="black" cx="1629.09" cy="-638" rx="53.84" ry="18"/>
<text text-anchor="middle" x="1629.09" y="-633.33" font-family="Times,serif" font-size="14.00">fairscale</text>
</a>
</g>
</g>
<!-- torchvision&#45;&gt;fairscale -->
<g id="edge6" class="edge">
<title>torchvision&#45;&gt;fairscale</title>
<path fill="none" stroke="black" d="M1442.35,-695.83C1481.49,-683.92 1539.1,-666.39 1579.97,-653.95"/>
<polygon fill="black" stroke="black" points="1580.69,-657.09 1589.23,-650.83 1578.65,-650.39 1580.69,-657.09"/>
</g>
<!-- graphvite -->
<g id="node10" class="node">
<title>graphvite</title>
<g id="a_node10"><a xlink:href="https://github.com/conda-forge/graphvite-feedstock" xlink:title="graphvite">
<ellipse fill="#fde725" stroke="black" cx="1929.09" cy="-638" rx="59.63" ry="18"/>
<text text-anchor="middle" x="1929.09" y="-633.33" font-family="Times,serif" font-size="14.00">graphvite</text>
</a>
</g>
</g>
<!-- torchvision&#45;&gt;graphvite -->
<g id="edge7" class="edge">
<title>torchvision&#45;&gt;graphvite</title>
<path fill="none" stroke="black" d="M1460.34,-702.4C1576.72,-689.79 1821.63,-662.92 1860.09,-656 1864.99,-655.12 1870.06,-654.09 1875.13,-652.99"/>
<polygon fill="black" stroke="black" points="1875.49,-656.27 1884.47,-650.64 1873.94,-649.44 1875.49,-656.27"/>
</g>
<!-- mmcv&#45;recipe -->
<g id="node11" class="node">
<title>mmcv&#45;recipe</title>
<g id="a_node11"><a xlink:href="https://github.com/conda-forge/mmcv-recipe-feedstock" xlink:title="mmcv recipe">
<ellipse fill="#fde725" stroke="black" cx="1776.09" cy="-638" rx="75.41" ry="18"/>
<text text-anchor="middle" x="1776.09" y="-633.33" font-family="Times,serif" font-size="14.00">mmcv recipe</text>
</a>
</g>
</g>
<!-- torchvision&#45;&gt;mmcv&#45;recipe -->
<g id="edge8" class="edge">
<title>torchvision&#45;&gt;mmcv&#45;recipe</title>
<path fill="none" stroke="black" d="M1454.23,-699.38C1513.18,-689.01 1609.33,-671.86 1692.09,-656 1697.84,-654.9 1703.81,-653.73 1709.8,-652.55"/>
<polygon fill="black" stroke="black" points="1710.42,-655.79 1719.54,-650.41 1709.05,-648.93 1710.42,-655.79"/>
</g>
<!-- tensorflow -->
<g id="node12" class="node">
<title>tensorflow</title>
<g id="a_node12"><a xlink:href="https://github.com/conda-forge/tensorflow-feedstock/pull/322" xlink:title="tensorflow ❎">
<ellipse fill="#31688e" stroke="black" cx="3042.09" cy="-566" rx="79.09" ry="18"/>
<text text-anchor="middle" x="3042.09" y="-561.33" font-family="Times,serif" font-size="14.00" fill="white">tensorflow ❎</text>
</a>
</g>
</g>
<!-- deepmd&#45;kit -->
<g id="node13" class="node">
<title>deepmd&#45;kit</title>
<g id="a_node13"><a xlink:href="https://github.com/conda-forge/deepmd-kit-feedstock" xlink:title="deepmd kit">
<ellipse fill="#fde725" stroke="black" cx="3095.09" cy="-494" rx="67.52" ry="18"/>
<text text-anchor="middle" x="3095.09" y="-489.32" font-family="Times,serif" font-size="14.00">deepmd kit</text>
</a>
</g>
</g>
<!-- tensorflow&#45;&gt;deepmd&#45;kit -->
<g id="edge9" class="edge">
<title>tensorflow&#45;&gt;deepmd&#45;kit</title>
<path fill="none" stroke="black" d="M3054.92,-548.05C3061.17,-539.8 3068.82,-529.7 3075.75,-520.54"/>
<polygon fill="black" stroke="black" points="3079.13,-522.87 3082.38,-512.79 3073.55,-518.65 3079.13,-522.87"/>
</g>
<!-- jaxlib -->
<g id="node37" class="node">
<title>jaxlib</title>
<g id="a_node37"><a xlink:href="https://github.com/conda-forge/jaxlib-feedstock/pull/181" xlink:title="jaxlib ❎">
<ellipse fill="#31688e" stroke="black" cx="2826.09" cy="-710" rx="53.84" ry="18"/>
<text text-anchor="middle" x="2826.09" y="-705.33" font-family="Times,serif" font-size="14.00" fill="white">jaxlib ❎</text>
</a>
</g>
</g>
<!-- stir&#45;&gt;jaxlib -->
<!-- lammps -->
<g id="node15" class="node">
<title>lammps</title>
<g id="a_node15"><a xlink:href="https://github.com/conda-forge/lammps-feedstock" xlink:title="lammps">
<ellipse fill="#000000" stroke="black" cx="3149.09" cy="-638" rx="50.68" ry="18"/>
<text text-anchor="middle" x="3149.09" y="-633.33" font-family="Times,serif" font-size="14.00" fill="white">lammps</text>
</a>
</g>
</g>
<!-- lammps&#45;&gt;deepmd&#45;kit -->
<g id="edge11" class="edge">
<title>lammps&#45;&gt;deepmd&#45;kit</title>
<path fill="none" stroke="black" d="M3147.33,-619.7C3145.03,-601.34 3140.05,-571.75 3130.09,-548 3126.12,-538.54 3120.42,-528.96 3114.77,-520.6"/>
<polygon fill="black" stroke="black" points="3117.13,-518.88 3108.5,-512.74 3111.42,-522.92 3117.13,-518.88"/>
</g>
<!-- hoomd -->
<g id="node16" class="node">
<title>hoomd</title>
<g id="a_node16"><a xlink:href="https://github.com/conda-forge/hoomd-feedstock/pull/88" xlink:title="hoomd ❎">
<ellipse fill="#31688e" stroke="black" cx="2826.09" cy="-126" rx="60.15" ry="18"/>
<text text-anchor="middle" x="2826.09" y="-121.33" font-family="Times,serif" font-size="14.00" fill="white">hoomd ❎</text>
</a>
</g>
</g>
<!-- hoomd&#45;dlext -->
<g id="node17" class="node">
<title>hoomd&#45;dlext</title>
<g id="a_node17"><a xlink:href="https://github.com/conda-forge/hoomd-dlext-feedstock" xlink:title="hoomd dlext">
<ellipse fill="#fde725" stroke="black" cx="2826.09" cy="-54" rx="73.3" ry="18"/>
<text text-anchor="middle" x="2826.09" y="-49.33" font-family="Times,serif" font-size="14.00">hoomd dlext</text>
</a>
</g>
</g>
<!-- hoomd&#45;&gt;hoomd&#45;dlext -->
<g id="edge12" class="edge">
<title>hoomd&#45;&gt;hoomd&#45;dlext</title>
<path fill="none" stroke="black" d="M2826.09,-107.7C2826.09,-100.24 2826.09,-91.32 2826.09,-82.97"/>
<polygon fill="black" stroke="black" points="2829.59,-83.1 2826.09,-73.1 2822.59,-83.1 2829.59,-83.1"/>
</g>
<!-- pytorch&#45;cpu -->
<g id="node18" class="node">
<title>pytorch&#45;cpu</title>
<g id="a_node18"><a xlink:href="https://github.com/conda-forge/pytorch-cpu-feedstock/pull/171" xlink:title="pytorch cpu ❎">
<ellipse fill="#31688e" stroke="black" cx="1010.09" cy="-782" rx="85.93" ry="18"/>
<text text-anchor="middle" x="1010.09" y="-777.33" font-family="Times,serif" font-size="14.00" fill="white">pytorch cpu ❎</text>
</a>
</g>
</g>
<!-- pytorch&#45;cpu&#45;&gt;arrow&#45;cpp -->
<g id="edge13" class="edge">
<title>pytorch&#45;cpu&#45;&gt;arrow&#45;cpp</title>
<path fill="none" stroke="black" d="M1046.93,-765.46C1072.09,-754.86 1105.53,-740.75 1132.09,-729.55"/>
<polygon fill="black" stroke="black" points="1133.04,-732.53 1140.9,-725.42 1130.32,-726.08 1133.04,-732.53"/>
</g>
<!-- pytorch&#45;cpu&#45;&gt;torchvision -->
<g id="edge14" class="edge">
<title>pytorch&#45;cpu&#45;&gt;torchvision</title>
<path fill="none" stroke="black" d="M1076.61,-770.27C1139.07,-760.03 1235.08,-743.85 1318.09,-728 1324.48,-726.78 1331.14,-725.46 1337.79,-724.11"/>
<polygon fill="black" stroke="black" points="1338.07,-727.42 1347.16,-721.98 1336.66,-720.57 1338.07,-727.42"/>
</g>
<!-- pytorch&#45;cpu&#45;&gt;detectron2 -->
<g id="edge15" class="edge">
<title>pytorch&#45;cpu&#45;&gt;detectron2</title>
<path fill="none" stroke="black" d="M1086.28,-773.32C1134.33,-766.26 1196.62,-752.91 1247.09,-728 1269.44,-716.97 1268.9,-705.13 1290.09,-692 1312.57,-678.06 1339.36,-665.93 1362,-656.8"/>
<polygon fill="black" stroke="black" points="1363.07,-659.74 1371.09,-652.82 1360.5,-653.23 1363.07,-659.74"/>
</g>
<!-- pytorch&#45;cpu&#45;&gt;fcos -->
<g id="edge16" class="edge">
<title>pytorch&#45;cpu&#45;&gt;fcos</title>
<path fill="none" stroke="black" d="M1092.2,-776.25C1148.11,-770.38 1222.5,-757.27 1282.09,-728 1303.86,-717.31 1301.46,-702.96 1323.09,-692 1389.27,-658.47 1415.43,-678.61 1486.09,-656 1488.08,-655.36 1490.12,-654.66 1492.15,-653.92"/>
<polygon fill="black" stroke="black" points="1493.21,-656.88 1501.25,-649.98 1490.66,-650.36 1493.21,-656.88"/>
</g>
<!-- pytorch&#45;cpu&#45;&gt;fairscale -->
<g id="edge17" class="edge">
<title>pytorch&#45;cpu&#45;&gt;fairscale</title>
<path fill="none" stroke="black" d="M1093.33,-777.26C1208.11,-771.12 1408.35,-756.63 1475.09,-728 1497.99,-718.17 1497.12,-705.48 1518.09,-692 1539.24,-678.41 1564.41,-666.11 1585.44,-656.78"/>
<polygon fill="black" stroke="black" points="1586.61,-659.65 1594.39,-652.46 1583.82,-653.24 1586.61,-659.65"/>
</g>
<!-- pytorch&#45;cpu&#45;&gt;graphvite -->
<g id="edge18" class="edge">
<title>pytorch&#45;cpu&#45;&gt;graphvite</title>
<path fill="none" stroke="black" d="M1095.08,-778.8C1225.42,-774.4 1467.88,-761.82 1547.09,-728 1569.7,-718.35 1566.64,-702.03 1589.09,-692 1700.01,-642.42 1740.7,-678.57 1860.09,-656 1864.98,-655.07 1870.05,-654.02 1875.11,-652.9"/>
<polygon fill="black" stroke="black" points="1875.49,-656.17 1884.45,-650.52 1873.92,-649.35 1875.49,-656.17"/>
</g>
<!-- pytorch&#45;cpu&#45;&gt;mmcv&#45;recipe -->
<g id="edge19" class="edge">
<title>pytorch&#45;cpu&#45;&gt;mmcv&#45;recipe</title>
<path fill="none" stroke="black" d="M1094.08,-777.69C1216.33,-771.93 1436.72,-757.72 1510.09,-728 1534.15,-718.25 1532.72,-703.3 1556.09,-692 1570.15,-685.21 1651.57,-666.42 1711.28,-653.15"/>
<polygon fill="black" stroke="black" points="1711.77,-656.4 1720.78,-650.82 1710.26,-649.56 1711.77,-656.4"/>
</g>
<!-- nvidia&#45;apex -->
<g id="node19" class="node">
<title>nvidia&#45;apex</title>
<g id="a_node19"><a xlink:href="https://github.com/conda-forge/nvidia-apex-feedstock" xlink:title="nvidia apex">
<ellipse fill="#fde725" stroke="black" cx="1667.09" cy="-710" rx="68.57" ry="18"/>
<text text-anchor="middle" x="1667.09" y="-705.33" font-family="Times,serif" font-size="14.00">nvidia apex</text>
</a>
</g>
</g>
<!-- pytorch&#45;cpu&#45;&gt;nvidia&#45;apex -->
<g id="edge20" class="edge">
<title>pytorch&#45;cpu&#45;&gt;nvidia&#45;apex</title>
<path fill="none" stroke="black" d="M1092.17,-776.27C1203.89,-769.18 1409.86,-753.81 1584.09,-728 1590.95,-726.98 1598.1,-725.77 1605.2,-724.45"/>
<polygon fill="black" stroke="black" points="1605.72,-727.72 1614.89,-722.41 1604.41,-720.85 1605.72,-727.72"/>
</g>
<!-- pytorch_cluster -->
<g id="node20" class="node">
<title>pytorch_cluster</title>
<g id="a_node20"><a xlink:href="https://github.com/conda-forge/pytorch_cluster-feedstock" xlink:title="pytorch_cluster">
<ellipse fill="#fde725" stroke="black" cx="89.09" cy="-638" rx="89.09" ry="18"/>
<text text-anchor="middle" x="89.09" y="-633.33" font-family="Times,serif" font-size="14.00">pytorch_cluster</text>
</a>
</g>
</g>
<!-- pytorch&#45;cpu&#45;&gt;pytorch_cluster -->
<g id="edge21" class="edge">
<title>pytorch&#45;cpu&#45;&gt;pytorch_cluster</title>
<path fill="none" stroke="black" d="M925.49,-778.57C730.03,-772.51 258.64,-755.25 192.09,-728 158.84,-714.38 128.75,-685.54 109.8,-664.37"/>
<polygon fill="black" stroke="black" points="111.82,-662.36 102.62,-657.11 106.54,-666.96 111.82,-662.36"/>
</g>
<!-- pytorch_scatter -->
<g id="node21" class="node">
<title>pytorch_scatter</title>
<g id="a_node21"><a xlink:href="https://github.com/conda-forge/pytorch_scatter-feedstock" xlink:title="pytorch_scatter">
<ellipse fill="#fde725" stroke="black" cx="324.09" cy="-566" rx="89.61" ry="18"/>
<text text-anchor="middle" x="324.09" y="-561.33" font-family="Times,serif" font-size="14.00">pytorch_scatter</text>
</a>
</g>
</g>
<!-- pytorch&#45;cpu&#45;&gt;pytorch_scatter -->
<g id="edge22" class="edge">
<title>pytorch&#45;cpu&#45;&gt;pytorch_scatter</title>
<path fill="none" stroke="black" d="M926.38,-777.42C775.5,-770.37 469.7,-753.17 428.09,-728 377.56,-697.43 347.1,-631.87 333.18,-594.52"/>
<polygon fill="black" stroke="black" points="336.2,-593.58 329.53,-585.35 329.61,-595.94 336.2,-593.58"/>
</g>
<!-- pytorch_spline_conv -->
<g id="node22" class="node">
<title>pytorch_spline_conv</title>
<g id="a_node22"><a xlink:href="https://github.com/conda-forge/pytorch_spline_conv-feedstock" xlink:title="pytorch_spline_conv">
<ellipse fill="#fde725" stroke="black" cx="424.09" cy="-494" rx="112.24" ry="18"/>
<text text-anchor="middle" x="424.09" y="-489.32" font-family="Times,serif" font-size="14.00">pytorch_spline_conv</text>
</a>
</g>
</g>
<!-- pytorch&#45;cpu&#45;&gt;pytorch_spline_conv -->
<g id="edge23" class="edge">
<title>pytorch&#45;cpu&#45;&gt;pytorch_spline_conv</title>
<path fill="none" stroke="black" d="M925.44,-778.29C780.97,-772.85 499.12,-758.45 466.09,-728 436.54,-700.75 427.62,-579.13 425.06,-523.25"/>
<polygon fill="black" stroke="black" points="428.52,-523.23 424.61,-513.38 421.53,-523.52 428.52,-523.23"/>
</g>
<!-- pytorch_sparse -->
<g id="node23" class="node">
<title>pytorch_sparse</title>
<g id="a_node23"><a xlink:href="https://github.com/conda-forge/pytorch_sparse-feedstock" xlink:title="pytorch_sparse">
<ellipse fill="#fde725" stroke="black" cx="206.09" cy="-494" rx="87.51" ry="18"/>
<text text-anchor="middle" x="206.09" y="-489.32" font-family="Times,serif" font-size="14.00">pytorch_sparse</text>
</a>
</g>
</g>
<!-- pytorch&#45;cpu&#45;&gt;pytorch_sparse -->
<g id="edge24" class="edge">
<title>pytorch&#45;cpu&#45;&gt;pytorch_sparse</title>
<path fill="none" stroke="black" d="M924.21,-780.38C776.37,-778.21 480.56,-768.75 386.09,-728 297.94,-689.98 273.26,-667.04 225.09,-584 214.31,-565.41 209.62,-541.46 207.59,-523.08"/>
<polygon fill="black" stroke="black" points="211,-522.85 206.63,-513.19 204.02,-523.46 211,-522.85"/>
</g>
<!-- torchani -->
<g id="node24" class="node">
<title>torchani</title>
<g id="a_node24"><a xlink:href="https://github.com/conda-forge/torchani-feedstock" xlink:title="torchani">
<ellipse fill="#fde725" stroke="black" cx="606.09" cy="-422" rx="52.79" ry="18"/>
<text text-anchor="middle" x="606.09" y="-417.32" font-family="Times,serif" font-size="14.00">torchani</text>
</a>
</g>
</g>
<!-- pytorch&#45;cpu&#45;&gt;torchani -->
<g id="edge25" class="edge">
<title>pytorch&#45;cpu&#45;&gt;torchani</title>
<path fill="none" stroke="black" d="M925.65,-778.31C787.85,-773.03 527.07,-759.03 499.09,-728 460.58,-685.29 552.34,-515.44 590.44,-449.43"/>
<polygon fill="black" stroke="black" points="593.86,-451.52 595.86,-441.11 587.81,-448 593.86,-451.52"/>
</g>
<!-- openmm&#45;torch -->
<g id="node25" class="node">
<title>openmm&#45;torch</title>
<g id="a_node25"><a xlink:href="https://github.com/conda-forge/openmm-torch-feedstock" xlink:title="openmm torch">
<ellipse fill="#fde725" stroke="black" cx="1837.09" cy="-710" rx="83.83" ry="18"/>
<text text-anchor="middle" x="1837.09" y="-705.33" font-family="Times,serif" font-size="14.00">openmm torch</text>
</a>
</g>
</g>
<!-- pytorch&#45;cpu&#45;&gt;openmm&#45;torch -->
<g id="edge26" class="edge">
<title>pytorch&#45;cpu&#45;&gt;openmm&#45;torch</title>
<path fill="none" stroke="black" d="M1094.16,-777.97C1231.03,-772.35 1510.33,-758.06 1745.09,-728 1752.13,-727.1 1759.44,-726.01 1766.73,-724.83"/>
<polygon fill="black" stroke="black" points="1767.08,-728.15 1776.36,-723.03 1765.92,-721.24 1767.08,-728.15"/>
</g>
<!-- torchsparse -->
<g id="node26" class="node">
<title>torchsparse</title>
<g id="a_node26"><a xlink:href="https://github.com/conda-forge/torchsparse-feedstock" xlink:title="torchsparse">
<ellipse fill="#fde725" stroke="black" cx="579.09" cy="-710" rx="70.68" ry="18"/>
<text text-anchor="middle" x="579.09" y="-705.33" font-family="Times,serif" font-size="14.00">torchsparse</text>
</a>
</g>
</g>
<!-- pytorch&#45;cpu&#45;&gt;torchsparse -->
<g id="edge27" class="edge">
<title>pytorch&#45;cpu&#45;&gt;torchsparse</title>
<path fill="none" stroke="black" d="M940.02,-771.22C870.02,-761.22 759.39,-744.82 664.09,-728 657.22,-726.79 650.05,-725.46 642.91,-724.09"/>
<polygon fill="black" stroke="black" points="644.01,-720.54 633.52,-722.07 642.67,-727.41 644.01,-720.54"/>
</g>
<!-- torch&#45;scatter -->
<g id="node27" class="node">
<title>torch&#45;scatter</title>
<g id="a_node27"><a xlink:href="https://github.com/conda-forge/torch-scatter-feedstock" xlink:title="torch scatter">
<ellipse fill="#fde725" stroke="black" cx="612.09" cy="-638" rx="75.94" ry="18"/>
<text text-anchor="middle" x="612.09" y="-633.33" font-family="Times,serif" font-size="14.00">torch scatter</text>
</a>
</g>
</g>
<!-- pytorch&#45;cpu&#45;&gt;torch&#45;scatter -->
<g id="edge28" class="edge">
<title>pytorch&#45;cpu&#45;&gt;torch&#45;scatter</title>
<path fill="none" stroke="black" d="M924.37,-779.95C860.03,-776 771.45,-763.68 702.09,-728 686.51,-719.99 655.43,-687.44 634.2,-664.02"/>
<polygon fill="black" stroke="black" points="637.16,-661.97 627.87,-656.87 631.95,-666.65 637.16,-661.97"/>
</g>
<!-- kaolin -->
<g id="node28" class="node">
<title>kaolin</title>
<g id="a_node28"><a xlink:href="https://github.com/conda-forge/kaolin-feedstock" xlink:title="kaolin">
<ellipse fill="#fde725" stroke="black" cx="685.09" cy="-566" rx="41.21" ry="18"/>
<text text-anchor="middle" x="685.09" y="-561.33" font-family="Times,serif" font-size="14.00">kaolin</text>
</a>
</g>
</g>
<!-- pytorch&#45;cpu&#45;&gt;kaolin -->
<g id="edge29" class="edge">
<title>pytorch&#45;cpu&#45;&gt;kaolin</title>
<path fill="none" stroke="black" d="M931.86,-774.31C862.58,-766.87 768.2,-752.54 740.09,-728 719.8,-710.29 700.51,-636.12 691.09,-594.91"/>
<polygon fill="black" stroke="black" points="694.3,-594.23 688.7,-585.23 687.47,-595.76 694.3,-594.23"/>
</g>
<!-- nnpops -->
<g id="node29" class="node">
<title>nnpops</title>
<g id="a_node29"><a xlink:href="https://github.com/conda-forge/nnpops-feedstock" xlink:title="nnpops">
<ellipse fill="#fde725" stroke="black" cx="701.09" cy="-350" rx="47.53" ry="18"/>
<text text-anchor="middle" x="701.09" y="-345.32" font-family="Times,serif" font-size="14.00">nnpops</text>
</a>
</g>
</g>
<!-- pytorch&#45;cpu&#45;&gt;nnpops -->
<g id="edge30" class="edge">
<title>pytorch&#45;cpu&#45;&gt;nnpops</title>
<path fill="none" stroke="black" d="M939.23,-771.42C885.01,-762.68 816.23,-748.05 796.09,-728 770.8,-702.81 722.43,-461.81 706.4,-378.87"/>
<polygon fill="black" stroke="black" points="709.68,-378.42 704.36,-369.26 702.81,-379.74 709.68,-378.42"/>
</g>
<!-- triton -->
<g id="node30" class="node">
<title>triton</title>
<g id="a_node30"><a xlink:href="https://github.com/conda-forge/triton-feedstock" xlink:title="triton">
<ellipse fill="#fde725" stroke="black" cx="860.09" cy="-494" rx="39.63" ry="18"/>
<text text-anchor="middle" x="860.09" y="-489.32" font-family="Times,serif" font-size="14.00">triton</text>
</a>
</g>
</g>
<!-- pytorch&#45;cpu&#45;&gt;triton -->
<g id="edge31" class="edge">
<title>pytorch&#45;cpu&#45;&gt;triton</title>
<path fill="none" stroke="black" d="M931.24,-774.54C900.46,-767.7 868.07,-754.22 849.09,-728 804.27,-666.06 831.54,-568.76 848.95,-521.94"/>
<polygon fill="black" stroke="black" points="852.46,-523.54 852.8,-512.95 845.93,-521.03 852.46,-523.54"/>
</g>
<!-- openmmtorchplugin -->
<g id="node31" class="node">
<title>openmmtorchplugin</title>
<g id="a_node31"><a xlink:href="https://github.com/conda-forge/openmmtorchplugin-feedstock" xlink:title="openmmtorchplugin">
<ellipse fill="#fde725" stroke="black" cx="2051.09" cy="-710" rx="112.24" ry="18"/>
<text text-anchor="middle" x="2051.09" y="-705.33" font-family="Times,serif" font-size="14.00">openmmtorchplugin</text>
</a>
</g>
</g>
<!-- pytorch&#45;cpu&#45;&gt;openmmtorchplugin -->
<g id="edge32" class="edge">
<title>pytorch&#45;cpu&#45;&gt;openmmtorchplugin</title>
<path fill="none" stroke="black" d="M1094.62,-778.45C1256.9,-773.04 1623.21,-758.35 1930.09,-728 1940.12,-727.01 1950.59,-725.8 1961,-724.49"/>
<polygon fill="black" stroke="black" points="1961.33,-727.84 1970.79,-723.09 1960.43,-720.9 1961.33,-727.84"/>
</g>
<!-- molgrid -->
<g id="node32" class="node">
<title>molgrid</title>
<g id="a_node32"><a xlink:href="https://github.com/conda-forge/molgrid-feedstock" xlink:title="molgrid">
<ellipse fill="#fde725" stroke="black" cx="819.09" cy="-422" rx="50.16" ry="18"/>
<text text-anchor="middle" x="819.09" y="-417.32" font-family="Times,serif" font-size="14.00">molgrid</text>
</a>
</g>
</g>
<!-- pytorch&#45;cpu&#45;&gt;molgrid -->
<g id="edge33" class="edge">
<title>pytorch&#45;cpu&#45;&gt;molgrid</title>
<path fill="none" stroke="black" d="M933.18,-773.71C897.87,-766.84 857.62,-753.57 829.09,-728 797.19,-699.41 792.09,-681.84 792.09,-639 792.09,-639 792.09,-639 792.09,-565 792.09,-524.68 802.72,-479.04 810.65,-450.63"/>
<polygon fill="black" stroke="black" points="814.22,-451.87 813.63,-441.29 807.49,-449.93 814.22,-451.87"/>
</g>
<!-- theseus&#45;ai -->
<g id="node33" class="node">
<title>theseus&#45;ai</title>
<g id="a_node33"><a xlink:href="https://github.com/conda-forge/theseus-ai-feedstock" xlink:title="theseus ai">
<ellipse fill="#fde725" stroke="black" cx="920.09" cy="-710" rx="62.26" ry="18"/>
<text text-anchor="middle" x="920.09" y="-705.33" font-family="Times,serif" font-size="14.00">theseus ai</text>
</a>
</g>
</g>
<!-- pytorch&#45;cpu&#45;&gt;theseus&#45;ai -->
<g id="edge34" class="edge">
<title>pytorch&#45;cpu&#45;&gt;theseus&#45;ai</title>
<path fill="none" stroke="black" d="M988.76,-764.41C977.02,-755.28 962.27,-743.81 949.46,-733.84"/>
<polygon fill="black" stroke="black" points="952,-730.61 941.95,-727.23 947.7,-736.13 952,-730.61"/>
</g>
<!-- pyg&#45;lib -->
<g id="node34" class="node">
<title>pyg&#45;lib</title>
<g id="a_node34"><a xlink:href="https://github.com/conda-forge/pyg-lib-feedstock" xlink:title="pyg lib">
<ellipse fill="#fde725" stroke="black" cx="933.09" cy="-422" rx="45.42" ry="18"/>
<text text-anchor="middle" x="933.09" y="-417.32" font-family="Times,serif" font-size="14.00">pyg lib</text>
</a>
</g>
</g>
<!-- pytorch&#45;cpu&#45;&gt;pyg&#45;lib -->
<g id="edge35" class="edge">
<title>pytorch&#45;cpu&#45;&gt;pyg&#45;lib</title>
<path fill="none" stroke="black" d="M1010.65,-763.77C1010.4,-744.38 1007.24,-712.86 991.09,-692 969.19,-663.71 937.9,-686.43 919.09,-656 898.35,-622.45 917.25,-505.21 927.49,-450.95"/>
<polygon fill="black" stroke="black" points="931.07,-451.86 929.53,-441.38 924.2,-450.53 931.07,-451.86"/>
</g>
<!-- deepspeed -->
<g id="node35" class="node">
<title>deepspeed</title>
<g id="a_node35"><a xlink:href="https://github.com/conda-forge/deepspeed-feedstock" xlink:title="deepspeed">
<ellipse fill="#fde725" stroke="black" cx="993.09" cy="-638" rx="64.89" ry="18"/>
<text text-anchor="middle" x="993.09" y="-633.33" font-family="Times,serif" font-size="14.00">deepspeed</text>
</a>
</g>
</g>
<!-- pytorch&#45;cpu&#45;&gt;deepspeed -->
<g id="edge36" class="edge">
<title>pytorch&#45;cpu&#45;&gt;deepspeed</title>
<path fill="none" stroke="black" d="M1017.05,-763.71C1023.35,-745.6 1030.72,-716.46 1024.09,-692 1021.56,-682.68 1016.95,-673.32 1012.03,-665.12"/>
<polygon fill="black" stroke="black" points="1014.58,-663.62 1006.23,-657.09 1008.69,-667.4 1014.58,-663.62"/>
</g>
<!-- bitsandbytes -->
<g id="node36" class="node">
<title>bitsandbytes</title>
<g id="a_node36"><a xlink:href="https://github.com/conda-forge/bitsandbytes-feedstock" xlink:title="bitsandbytes">
<ellipse fill="#fde725" stroke="black" cx="1045.09" cy="-566" rx="75.94" ry="18"/>
<text text-anchor="middle" x="1045.09" y="-561.33" font-family="Times,serif" font-size="14.00">bitsandbytes</text>
</a>
</g>
</g>
<!-- pytorch&#45;cpu&#45;&gt;bitsandbytes -->
<g id="edge37" class="edge">
<title>pytorch&#45;cpu&#45;&gt;bitsandbytes</title>
<path fill="none" stroke="black" d="M1021.36,-763.71C1035.74,-740.4 1059.64,-697.07 1067.09,-656 1069.94,-640.26 1070.22,-635.69 1067.09,-620 1065.36,-611.3 1062.17,-602.25 1058.75,-594.14"/>
<polygon fill="black" stroke="black" points="1061.53,-592.79 1054.22,-585.12 1055.15,-595.67 1061.53,-592.79"/>
</g>
<!-- pytorch_scatter&#45;&gt;pytorch_sparse -->
<g id="edge38" class="edge">
<title>pytorch_scatter&#45;&gt;pytorch_sparse</title>
<path fill="none" stroke="black" d="M296.42,-548.59C280.45,-539.11 260.15,-527.07 242.84,-516.8"/>
<polygon fill="black" stroke="black" points="244.97,-513.4 234.58,-511.31 241.4,-519.42 244.97,-513.4"/>
</g>
<!-- torchani&#45;&gt;nnpops -->
<g id="edge39" class="edge">
<title>torchani&#45;&gt;nnpops</title>
<path fill="none" stroke="black" d="M627.65,-405.12C640.61,-395.56 657.3,-383.27 671.49,-372.81"/>
<polygon fill="black" stroke="black" points="672.97,-375.33 678.94,-366.58 668.82,-369.69 672.97,-375.33"/>
</g>
<!-- triton&#45;&gt;pyg&#45;lib -->
<g id="edge40" class="edge">
<title>triton&#45;&gt;pyg&#45;lib</title>
<path fill="none" stroke="black" d="M876.29,-477.46C885.8,-468.35 898,-456.65 908.65,-446.43"/>
<polygon fill="black" stroke="black" points="910.63,-449.42 915.43,-439.98 905.79,-444.37 910.63,-449.42"/>
</g>
<!-- prismatic_split -->
<g id="node38" class="node">
<title>prismatic_split</title>
<g id="a_node38"><a xlink:href="https://github.com/conda-forge/prismatic_split-feedstock/pull/38" xlink:title="prismatic_split ❎">
<ellipse fill="#31688e" stroke="black" cx="2826.09" cy="-638" rx="100.66" ry="18"/>
<text text-anchor="middle" x="2826.09" y="-633.33" font-family="Times,serif" font-size="14.00" fill="white">prismatic_split ❎</text>
</a>
</g>
</g>
<!-- jaxlib&#45;&gt;prismatic_split -->
<!-- pycuda -->
<g id="node45" class="node">
<title>pycuda</title>
<g id="a_node45"><a xlink:href="https://github.com/conda-forge/pycuda-feedstock/pull/25" xlink:title="pycuda ❎">
<ellipse fill="#31688e" stroke="black" cx="2826.09" cy="-566" rx="62.26" ry="18"/>
<text text-anchor="middle" x="2826.09" y="-561.33" font-family="Times,serif" font-size="14.00" fill="white">pycuda ❎</text>
</a>
</g>
</g>
<!-- prismatic_split&#45;&gt;pycuda -->
<!-- openmm -->
<g id="node39" class="node">
<title>openmm</title>
<g id="a_node39"><a xlink:href="https://github.com/conda-forge/openmm-feedstock/pull/107" xlink:title="openmm ❎">
<ellipse fill="#31688e" stroke="black" cx="2397.09" cy="-782" rx="69.62" ry="18"/>
<text text-anchor="middle" x="2397.09" y="-777.33" font-family="Times,serif" font-size="14.00" fill="white">openmm ❎</text>
</a>
</g>
</g>
<!-- openmm&#45;&gt;openmm&#45;torch -->
<g id="edge43" class="edge">
<title>openmm&#45;&gt;openmm&#45;torch</title>
<path fill="none" stroke="black" d="M2332.32,-775.05C2241.99,-766.43 2073.16,-749.17 1930.09,-728 1923.19,-726.98 1916.02,-725.83 1908.85,-724.62"/>
<polygon fill="black" stroke="black" points="1909.47,-721 1899.02,-722.75 1908.28,-727.9 1909.47,-721"/>
</g>
<!-- openmm&#45;&gt;openmmtorchplugin -->
<g id="edge44" class="edge">
<title>openmm&#45;&gt;openmmtorchplugin</title>
<path fill="none" stroke="black" d="M2343.41,-770.14C2286.14,-758.55 2194.86,-740.09 2129.54,-726.87"/>
<polygon fill="black" stroke="black" points="2130.38,-723.27 2119.88,-724.72 2128.99,-730.13 2130.38,-723.27"/>
</g>
<!-- openmm&#45;plumed -->
<g id="node40" class="node">
<title>openmm&#45;plumed</title>
<g id="a_node40"><a xlink:href="https://github.com/conda-forge/openmm-plumed-feedstock" xlink:title="openmm plumed">
<ellipse fill="#fde725" stroke="black" cx="2596.09" cy="-710" rx="94.88" ry="18"/>
<text text-anchor="middle" x="2596.09" y="-705.33" font-family="Times,serif" font-size="14.00">openmm plumed</text>
</a>
</g>
</g>
<!-- openmm&#45;&gt;openmm&#45;plumed -->
<g id="edge45" class="edge">
<title>openmm&#45;&gt;openmm&#45;plumed</title>
<path fill="none" stroke="black" d="M2436.88,-767C2467.2,-756.34 2509.27,-741.54 2542.54,-729.83"/>
<polygon fill="black" stroke="black" points="2543.29,-732.93 2551.57,-726.31 2540.97,-726.33 2543.29,-732.93"/>
</g>
<!-- meld -->
<g id="node41" class="node">
<title>meld</title>
<g id="a_node41"><a xlink:href="https://github.com/conda-forge/meld-feedstock" xlink:title="meld">
<ellipse fill="#fde725" stroke="black" cx="2333.09" cy="-638" rx="35.95" ry="18"/>
<text text-anchor="middle" x="2333.09" y="-633.33" font-family="Times,serif" font-size="14.00">meld</text>
</a>
</g>
</g>
<!-- openmm&#45;&gt;meld -->
<g id="edge46" class="edge">
<title>openmm&#45;&gt;meld</title>
<path fill="none" stroke="black" d="M2389.37,-763.87C2378.35,-739.43 2358.03,-694.33 2345.05,-665.55"/>
<polygon fill="black" stroke="black" points="2347.94,-664.43 2340.64,-656.75 2341.56,-667.3 2347.94,-664.43"/>
</g>
<!-- seekr2_openmm_plugin -->
<g id="node42" class="node">
<title>seekr2_openmm_plugin</title>
<g id="a_node42"><a xlink:href="https://github.com/conda-forge/seekr2_openmm_plugin-feedstock" xlink:title="seekr2_openmm_plugin">
<ellipse fill="#fde725" stroke="black" cx="2278.09" cy="-566" rx="129.07" ry="18"/>
<text text-anchor="middle" x="2278.09" y="-561.33" font-family="Times,serif" font-size="14.00">seekr2_openmm_plugin</text>
</a>
</g>
</g>
<!-- openmm&#45;&gt;seekr2_openmm_plugin -->
<g id="edge47" class="edge">
<title>openmm&#45;&gt;seekr2_openmm_plugin</title>
<path fill="none" stroke="black" d="M2399.91,-763.71C2404.09,-732.15 2408.46,-664.35 2378.09,-620 2368.57,-606.1 2354.22,-595.57 2339.33,-587.71"/>
<polygon fill="black" stroke="black" points="2341.04,-584.16 2330.51,-582.92 2337.97,-590.45 2341.04,-584.16"/>
</g>
<!-- openmm&#45;atmmetaforce&#45;plugin -->
<g id="node43" class="node">
<title>openmm&#45;atmmetaforce&#45;plugin</title>
<g id="a_node43"><a xlink:href="https://github.com/conda-forge/openmm-atmmetaforce-plugin-feedstock" xlink:title="openmm atmmetaforce plugin">
<ellipse fill="#fde725" stroke="black" cx="2114.09" cy="-494" rx="162.22" ry="18"/>
<text text-anchor="middle" x="2114.09" y="-489.32" font-family="Times,serif" font-size="14.00">openmm atmmetaforce plugin</text>
</a>
</g>
</g>
<!-- openmm&#45;&gt;openmm&#45;atmmetaforce&#45;plugin -->
<g id="edge48" class="edge">
<title>openmm&#45;&gt;openmm&#45;atmmetaforce&#45;plugin</title>
<path fill="none" stroke="black" d="M2405.71,-763.91C2425.65,-721.71 2469.33,-611.4 2416.09,-548 2404.05,-533.66 2314.04,-519.08 2235.39,-508.85"/>
<polygon fill="black" stroke="black" points="2236.24,-505.3 2225.87,-507.5 2235.35,-512.24 2236.24,-505.3"/>
</g>
<!-- openmm&#45;dlext -->
<g id="node44" class="node">
<title>openmm&#45;dlext</title>
<g id="a_node44"><a xlink:href="https://github.com/conda-forge/openmm-dlext-feedstock" xlink:title="openmm dlext">
<ellipse fill="#fde725" stroke="black" cx="2473.09" cy="-422" rx="82.77" ry="18"/>
<text text-anchor="middle" x="2473.09" y="-417.32" font-family="Times,serif" font-size="14.00">openmm dlext</text>
</a>
</g>
</g>
<!-- openmm&#45;&gt;openmm&#45;dlext -->
<g id="edge49" class="edge">
<title>openmm&#45;&gt;openmm&#45;dlext</title>
<path fill="none" stroke="black" d="M2413.21,-764.19C2435.52,-739.09 2473.09,-689.33 2473.09,-639 2473.09,-639 2473.09,-639 2473.09,-565 2473.09,-525.57 2473.09,-479.97 2473.09,-451.31"/>
<polygon fill="black" stroke="black" points="2476.59,-451.49 2473.09,-441.49 2469.59,-451.49 2476.59,-451.49"/>
</g>
<!-- cudadecon -->
<g id="node50" class="node">
<title>cudadecon</title>
<g id="a_node50"><a xlink:href="https://github.com/conda-forge/cudadecon-feedstock/pull/18" xlink:title="cudadecon ❎">
<ellipse fill="#31688e" stroke="black" cx="2826.09" cy="-494" rx="79.62" ry="18"/>
<text text-anchor="middle" x="2826.09" y="-489.32" font-family="Times,serif" font-size="14.00" fill="white">cudadecon ❎</text>
</a>
</g>
</g>
<!-- pycuda&#45;&gt;cudadecon -->
<!-- faiss&#45;split -->
<g id="node46" class="node">
<title>faiss&#45;split</title>
<g id="a_node46"><a xlink:href="https://github.com/conda-forge/faiss-split-feedstock/pull/68" xlink:title="faiss split ❎">
<ellipse fill="#31688e" stroke="black" cx="2256.09" cy="-710" rx="74.88" ry="18"/>
<text text-anchor="middle" x="2256.09" y="-705.33" font-family="Times,serif" font-size="14.00" fill="white">faiss split ❎</text>
</a>
</g>
</g>
<!-- faiss&#45;split&#45;&gt;graphvite -->
<g id="edge51" class="edge">
<title>faiss&#45;split&#45;&gt;graphvite</title>
<path fill="none" stroke="black" d="M2201.36,-697.28C2142.1,-684.6 2047.95,-664.44 1987.35,-651.47"/>
<polygon fill="black" stroke="black" points="1988.32,-647.89 1977.81,-649.22 1986.86,-654.73 1988.32,-647.89"/>
</g>
<!-- tsnecuda -->
<g id="node47" class="node">
<title>tsnecuda</title>
<g id="a_node47"><a xlink:href="https://github.com/conda-forge/tsnecuda-feedstock" xlink:title="tsnecuda">
<ellipse fill="#fde725" stroke="black" cx="2223.09" cy="-638" rx="56.47" ry="18"/>
<text text-anchor="middle" x="2223.09" y="-633.33" font-family="Times,serif" font-size="14.00">tsnecuda</text>
</a>
</g>
</g>
<!-- faiss&#45;split&#45;&gt;tsnecuda -->
<g id="edge52" class="edge">
<title>faiss&#45;split&#45;&gt;tsnecuda</title>
<path fill="none" stroke="black" d="M2247.93,-691.7C2244.26,-683.9 2239.83,-674.51 2235.74,-665.83"/>
<polygon fill="black" stroke="black" points="2238.58,-664.66 2231.15,-657.1 2232.25,-667.64 2238.58,-664.66"/>
</g>
<!-- libtvm -->
<g id="node48" class="node">
<title>libtvm</title>
<g id="a_node48"><a xlink:href="https://github.com/conda-forge/libtvm-feedstock" xlink:title="libtvm">
<ellipse fill="#fde725" stroke="black" cx="2329.09" cy="-422" rx="43.32" ry="18"/>
<text text-anchor="middle" x="2329.09" y="-417.32" font-family="Times,serif" font-size="14.00">libtvm</text>
</a>
</g>
</g>
<!-- tvm&#45;py -->
<g id="node49" class="node">
<title>tvm&#45;py</title>
<g id="a_node49"><a xlink:href="https://github.com/conda-forge/tvm-py-feedstock" xlink:title="tvm py">
<ellipse fill="#fde725" stroke="black" cx="2329.09" cy="-350" rx="45.95" ry="18"/>
<text text-anchor="middle" x="2329.09" y="-345.32" font-family="Times,serif" font-size="14.00">tvm py</text>
</a>
</g>
</g>
<!-- libtvm&#45;&gt;tvm&#45;py -->
<g id="edge53" class="edge">
<title>libtvm&#45;&gt;tvm&#45;py</title>
<path fill="none" stroke="black" d="M2329.09,-403.7C2329.09,-396.24 2329.09,-387.32 2329.09,-378.97"/>
<polygon fill="black" stroke="black" points="2332.59,-379.1 2329.09,-369.1 2325.59,-379.1 2332.59,-379.1"/>
</g>
<!-- timemory -->
<g id="node51" class="node">
<title>timemory</title>
<g id="a_node51"><a xlink:href="https://github.com/conda-forge/timemory-feedstock/pull/17" xlink:title="timemory ❎">
<ellipse fill="#31688e" stroke="black" cx="2826.09" cy="-422" rx="74.88" ry="18"/>
<text text-anchor="middle" x="2826.09" y="-417.32" font-family="Times,serif" font-size="14.00" fill="white">timemory ❎</text>
</a>
</g>
</g>
<!-- cudadecon&#45;&gt;timemory -->
<!-- mandrake -->
<g id="node52" class="node">
<title>mandrake</title>
<g id="a_node52"><a xlink:href="https://github.com/conda-forge/mandrake-feedstock/pull/7" xlink:title="mandrake ❎">
<ellipse fill="#31688e" stroke="black" cx="2826.09" cy="-350" rx="76.46" ry="18"/>
<text text-anchor="middle" x="2826.09" y="-345.32" font-family="Times,serif" font-size="14.00" fill="white">mandrake ❎</text>
</a>
</g>
</g>
<!-- timemory&#45;&gt;mandrake -->
<!-- rmm -->
<g id="node53" class="node">
<title>rmm</title>
<g id="a_node53"><a xlink:href="https://github.com/conda-forge/rmm-feedstock/pull/25" xlink:title="rmm ❎">
<ellipse fill="#31688e" stroke="black" cx="2826.09" cy="-278" rx="50.16" ry="18"/>
<text text-anchor="middle" x="2826.09" y="-273.32" font-family="Times,serif" font-size="14.00" fill="white">rmm ❎</text>
</a>
</g>
</g>
<!-- mandrake&#45;&gt;rmm -->
<!-- ptxcompiler -->
<g id="node54" class="node">
<title>ptxcompiler</title>
<g id="a_node54"><a xlink:href="https://github.com/conda-forge/ptxcompiler-feedstock" xlink:title="ptxcompiler">
<ellipse fill="#000000" stroke="black" cx="2826.09" cy="-206" rx="71.2" ry="18"/>
<text text-anchor="middle" x="2826.09" y="-201.32" font-family="Times,serif" font-size="14.00" fill="white">ptxcompiler</text>
</a>
</g>
</g>
<!-- rmm&#45;&gt;ptxcompiler -->
<!-- cutlass -->
<g id="node55" class="node">
<title>cutlass</title>
<g id="a_node55"><a xlink:href="https://github.com/conda-forge/cutlass-feedstock/pull/10" xlink:title="cutlass ❎">
<ellipse fill="#31688e" stroke="black" cx="2356.09" cy="-494" rx="61.73" ry="18"/>
<text text-anchor="middle" x="2356.09" y="-489.32" font-family="Times,serif" font-size="14.00" fill="white">cutlass ❎</text>
</a>
</g>
</g>
<!-- cutlass&#45;&gt;pyg&#45;lib -->
<g id="edge59" class="edge">
<title>cutlass&#45;&gt;pyg&#45;lib</title>
<path fill="none" stroke="black" d="M2312.03,-481.04C2303.17,-479.03 2293.88,-477.21 2285.09,-476 2028.65,-440.62 1211.62,-426.88 989.36,-423.74"/>
<polygon fill="black" stroke="black" points="989.67,-420.23 979.62,-423.59 989.57,-427.23 989.67,-420.23"/>
</g>
<!-- cutlass&#45;&gt;libtvm -->
<g id="edge60" class="edge">
<title>cutlass&#45;&gt;libtvm</title>
<path fill="none" stroke="black" d="M2349.42,-475.7C2346.44,-467.98 2342.86,-458.71 2339.55,-450.11"/>
<polygon fill="black" stroke="black" points="2342.55,-449.17 2335.69,-441.1 2336.02,-451.69 2342.55,-449.17"/>
</g>
<!-- pyscamp&#45;gpu -->
<g id="node56" class="node">
<title>pyscamp&#45;gpu</title>
<g id="a_node56"><a xlink:href="https://github.com/conda-forge/pyscamp-gpu-feedstock/pull/6" xlink:title="pyscamp gpu ❎">
<ellipse fill="#31688e" stroke="black" cx="1345.09" cy="-162" rx="92.77" ry="18"/>
<text text-anchor="middle" x="1345.09" y="-157.32" font-family="Times,serif" font-size="14.00" fill="white">pyscamp gpu ❎</text>
</a>
</g>
</g>
<!-- cyrsoxs -->
<g id="node57" class="node">
<title>cyrsoxs</title>
<g id="a_node57"><a xlink:href="https://github.com/conda-forge/cyrsoxs-feedstock/pull/9" xlink:title="cyrsoxs ❎">
<ellipse fill="#31688e" stroke="black" cx="1345.09" cy="-90" rx="64.36" ry="18"/>
<text text-anchor="middle" x="1345.09" y="-85.33" font-family="Times,serif" font-size="14.00" fill="white">cyrsoxs ❎</text>
</a>
</g>
</g>
<!-- pyscamp&#45;gpu&#45;&gt;cyrsoxs -->
<!-- katago -->
<g id="node58" class="node">
<title>katago</title>
<g id="a_node58"><a xlink:href="https://github.com/conda-forge/katago-feedstock/pull/5" xlink:title="katago ❎">
<ellipse fill="#31688e" stroke="black" cx="1345.09" cy="-18" rx="60.15" ry="18"/>
<text text-anchor="middle" x="1345.09" y="-13.32" font-family="Times,serif" font-size="14.00" fill="white">katago ❎</text>
</a>
</g>
</g>
<!-- cyrsoxs&#45;&gt;katago -->
</g>
</svg>
