<?xml version="1.0" encoding="UTF-8" standalone="no"?>
<!DOCTYPE svg PUBLIC "-//W3C//DTD SVG 1.1//EN"
 "http://www.w3.org/Graphics/SVG/1.1/DTD/svg11.dtd">
<!-- Generated by graphviz version 8.1.0 (20230707.2238)
 -->
<!-- Pages: 1 -->
<svg width="4011pt" height="880pt"
 viewBox="0.00 0.00 4011.36 880.00" xmlns="http://www.w3.org/2000/svg" xmlns:xlink="http://www.w3.org/1999/xlink">
<g id="graph0" class="graph" transform="scale(1 1) rotate(0) translate(4 876)">
<polygon fill="white" stroke="none" points="-4,4 -4,-876 4007.36,-876 4007.36,4 -4,4"/>
<!-- implicit -->
<g id="node1" class="node">
<title>implicit</title>
<g id="a_node1"><a xlink:href="https://github.com/conda-forge/implicit-feedstock/pull/98" xlink:title="implicit ❎">
<ellipse fill="#31688e" stroke="black" cx="3636.07" cy="-854" rx="64.36" ry="18"/>
<text text-anchor="middle" x="3636.07" y="-849.33" font-family="Times,serif" font-size="14.00" fill="white">implicit ❎</text>
</a>
</g>
</g>
<!-- xgboost -->
<g id="node2" class="node">
<title>xgboost</title>
<g id="a_node2"><a xlink:href="https://github.com/conda-forge/xgboost-feedstock/pull/135" xlink:title="xgboost ❎">
<ellipse fill="#31688e" stroke="black" cx="3636.07" cy="-782" rx="65.94" ry="18"/>
<text text-anchor="middle" x="3636.07" y="-777.33" font-family="Times,serif" font-size="14.00" fill="white">xgboost ❎</text>
</a>
</g>
</g>
<!-- implicit&#45;&gt;xgboost -->
<!-- onnxruntime -->
<g id="node21" class="node">
<title>onnxruntime</title>
<g id="a_node21"><a xlink:href="https://github.com/conda-forge/onnxruntime-feedstock/pull/75" xlink:title="onnxruntime ❎">
<ellipse fill="#31688e" stroke="black" cx="3636.07" cy="-710" rx="90.67" ry="18"/>
<text text-anchor="middle" x="3636.07" y="-705.33" font-family="Times,serif" font-size="14.00" fill="white">onnxruntime ❎</text>
</a>
</g>
</g>
<!-- xgboost&#45;&gt;onnxruntime -->
<!-- libhwloc -->
<g id="node3" class="node">
<title>libhwloc</title>
<g id="a_node3"><a xlink:href="https://github.com/conda-forge/libhwloc-feedstock/pull/67" xlink:title="libhwloc ❎">
<ellipse fill="#31688e" stroke="black" cx="343.07" cy="-746" rx="68.04" ry="18"/>
<text text-anchor="middle" x="343.07" y="-741.33" font-family="Times,serif" font-size="14.00" fill="white">libhwloc ❎</text>
</a>
</g>
</g>
<!-- openmm -->
<g id="node4" class="node">
<title>openmm</title>
<g id="a_node4"><a xlink:href="https://github.com/conda-forge/openmm-feedstock" xlink:title="openmm">
<ellipse fill="#fde725" stroke="black" cx="343.07" cy="-674" rx="54.36" ry="18"/>
<text text-anchor="middle" x="343.07" y="-669.33" font-family="Times,serif" font-size="14.00">openmm</text>
</a>
</g>
</g>
<!-- libhwloc&#45;&gt;openmm -->
<g id="edge2" class="edge">
<title>libhwloc&#45;&gt;openmm</title>
<path fill="none" stroke="black" d="M343.07,-727.7C343.07,-720.24 343.07,-711.32 343.07,-702.97"/>
<polygon fill="black" stroke="black" points="346.57,-703.1 343.07,-693.1 339.57,-703.1 346.57,-703.1"/>
</g>
<!-- seekr2_openmm_plugin -->
<g id="node5" class="node">
<title>seekr2_openmm_plugin</title>
<g id="a_node5"><a xlink:href="https://github.com/conda-forge/seekr2_openmm_plugin-feedstock" xlink:title="seekr2_openmm_plugin">
<ellipse fill="#fde725" stroke="black" cx="129.07" cy="-602" rx="129.07" ry="18"/>
<text text-anchor="middle" x="129.07" y="-597.33" font-family="Times,serif" font-size="14.00">seekr2_openmm_plugin</text>
</a>
</g>
</g>
<!-- libhwloc&#45;&gt;seekr2_openmm_plugin -->
<g id="edge3" class="edge">
<title>libhwloc&#45;&gt;seekr2_openmm_plugin</title>
<path fill="none" stroke="black" d="M318.94,-728.99C281.06,-703.85 207.46,-655.02 163.86,-626.09"/>
<polygon fill="black" stroke="black" points="166.04,-622.67 155.78,-620.06 162.17,-628.5 166.04,-622.67"/>
</g>
<!-- gromacs -->
<g id="node6" class="node">
<title>gromacs</title>
<g id="a_node6"><a xlink:href="https://github.com/conda-forge/gromacs-feedstock" xlink:title="gromacs">
<ellipse fill="#fde725" stroke="black" cx="469.07" cy="-674" rx="53.84" ry="18"/>
<text text-anchor="middle" x="469.07" y="-669.33" font-family="Times,serif" font-size="14.00">gromacs</text>
</a>
</g>
</g>
<!-- libhwloc&#45;&gt;gromacs -->
<g id="edge4" class="edge">
<title>libhwloc&#45;&gt;gromacs</title>
<path fill="none" stroke="black" d="M371.35,-729.29C389.47,-719.22 413.17,-706.05 432.7,-695.21"/>
<polygon fill="black" stroke="black" points="434.14,-697.85 441.18,-689.94 430.74,-691.73 434.14,-697.85"/>
</g>
<!-- openmm&#45;&gt;seekr2_openmm_plugin -->
<g id="edge5" class="edge">
<title>openmm&#45;&gt;seekr2_openmm_plugin</title>
<path fill="none" stroke="black" d="M305.31,-660.65C272.95,-650.06 225.79,-634.64 188.4,-622.41"/>
<polygon fill="black" stroke="black" points="189.73,-618.83 179.13,-619.05 187.55,-625.48 189.73,-618.83"/>
</g>
<!-- openmm&#45;torch -->
<g id="node7" class="node">
<title>openmm&#45;torch</title>
<g id="a_node7"><a xlink:href="https://github.com/conda-forge/openmm-torch-feedstock" xlink:title="openmm torch">
<ellipse fill="#fde725" stroke="black" cx="924.07" cy="-602" rx="83.83" ry="18"/>
<text text-anchor="middle" x="924.07" y="-597.33" font-family="Times,serif" font-size="14.00">openmm torch</text>
</a>
</g>
</g>
<!-- openmm&#45;&gt;openmm&#45;torch -->
<g id="edge6" class="edge">
<title>openmm&#45;&gt;openmm&#45;torch</title>
<path fill="none" stroke="black" d="M382.49,-661.21C390.25,-659.21 398.37,-657.35 406.07,-656 592.77,-623.18 643.17,-645.07 831.07,-620 838.37,-619.03 845.97,-617.87 853.53,-616.63"/>
<polygon fill="black" stroke="black" points="853.9,-619.95 863.17,-614.83 852.73,-613.05 853.9,-619.95"/>
</g>
<!-- openmmtorchplugin -->
<g id="node8" class="node">
<title>openmmtorchplugin</title>
<g id="a_node8"><a xlink:href="https://github.com/conda-forge/openmmtorchplugin-feedstock" xlink:title="openmmtorchplugin">
<ellipse fill="#fde725" stroke="black" cx="710.07" cy="-602" rx="112.24" ry="18"/>
<text text-anchor="middle" x="710.07" y="-597.33" font-family="Times,serif" font-size="14.00">openmmtorchplugin</text>
</a>
</g>
</g>
<!-- openmm&#45;&gt;openmmtorchplugin -->
<g id="edge7" class="edge">
<title>openmm&#45;&gt;openmmtorchplugin</title>
<path fill="none" stroke="black" d="M383.27,-661.57C390.82,-659.59 398.66,-657.64 406.07,-656 477.25,-640.23 558.65,-626.25 619.3,-616.61"/>
<polygon fill="black" stroke="black" points="619.66,-619.94 628.99,-614.92 618.57,-613.02 619.66,-619.94"/>
</g>
<!-- openmm&#45;plumed -->
<g id="node9" class="node">
<title>openmm&#45;plumed</title>
<g id="a_node9"><a xlink:href="https://github.com/conda-forge/openmm-plumed-feedstock" xlink:title="openmm plumed">
<ellipse fill="#fde725" stroke="black" cx="485.07" cy="-602" rx="94.88" ry="18"/>
<text text-anchor="middle" x="485.07" y="-597.33" font-family="Times,serif" font-size="14.00">openmm plumed</text>
</a>
</g>
</g>
<!-- openmm&#45;&gt;openmm&#45;plumed -->
<g id="edge8" class="edge">
<title>openmm&#45;&gt;openmm&#45;plumed</title>
<path fill="none" stroke="black" d="M372.49,-658.5C392.66,-648.55 419.74,-635.21 442.29,-624.09"/>
<polygon fill="black" stroke="black" points="443.54,-626.88 450.96,-619.32 440.44,-620.61 443.54,-626.88"/>
</g>
<!-- meld -->
<g id="node10" class="node">
<title>meld</title>
<g id="a_node10"><a xlink:href="https://github.com/conda-forge/meld-feedstock" xlink:title="meld">
<ellipse fill="#fde725" stroke="black" cx="260.07" cy="-530" rx="35.95" ry="18"/>
<text text-anchor="middle" x="260.07" y="-525.33" font-family="Times,serif" font-size="14.00">meld</text>
</a>
</g>
</g>
<!-- openmm&#45;&gt;meld -->
<g id="edge9" class="edge">
<title>openmm&#45;&gt;meld</title>
<path fill="none" stroke="black" d="M332.17,-655.93C325.65,-645.6 317.25,-632.13 310.07,-620 297.72,-599.12 284.28,-575.12 274.45,-557.31"/>
<polygon fill="black" stroke="black" points="277.13,-555.94 269.25,-548.86 271,-559.31 277.13,-555.94"/>
</g>
<!-- openmm&#45;atmmetaforce&#45;plugin -->
<g id="node11" class="node">
<title>openmm&#45;atmmetaforce&#45;plugin</title>
<g id="a_node11"><a xlink:href="https://github.com/conda-forge/openmm-atmmetaforce-plugin-feedstock" xlink:title="openmm atmmetaforce plugin">
<ellipse fill="#fde725" stroke="black" cx="172.07" cy="-458" rx="162.22" ry="18"/>
<text text-anchor="middle" x="172.07" y="-453.32" font-family="Times,serif" font-size="14.00">openmm atmmetaforce plugin</text>
</a>
</g>
</g>
<!-- openmm&#45;&gt;openmm&#45;atmmetaforce&#45;plugin -->
<g id="edge10" class="edge">
<title>openmm&#45;&gt;openmm&#45;atmmetaforce&#45;plugin</title>
<path fill="none" stroke="black" d="M343.89,-655.67C344.45,-623.44 341.09,-553.76 305.07,-512 292.13,-496.99 274.35,-486.19 255.99,-478.43"/>
<polygon fill="black" stroke="black" points="257.35,-474.82 246.77,-474.43 254.8,-481.33 257.35,-474.82"/>
</g>
<!-- openmm&#45;dlext -->
<g id="node12" class="node">
<title>openmm&#45;dlext</title>
<g id="a_node12"><a xlink:href="https://github.com/conda-forge/openmm-dlext-feedstock" xlink:title="openmm dlext">
<ellipse fill="#fde725" stroke="black" cx="362.07" cy="-386" rx="82.77" ry="18"/>
<text text-anchor="middle" x="362.07" y="-381.32" font-family="Times,serif" font-size="14.00">openmm dlext</text>
</a>
</g>
</g>
<!-- openmm&#45;&gt;openmm&#45;dlext -->
<g id="edge11" class="edge">
<title>openmm&#45;&gt;openmm&#45;dlext</title>
<path fill="none" stroke="black" d="M344.84,-655.83C345.87,-645.46 347.15,-631.98 348.07,-620 353.77,-546.16 358.47,-459.01 360.69,-415.18"/>
<polygon fill="black" stroke="black" points="364.23,-415.42 361.24,-405.26 357.24,-415.07 364.23,-415.42"/>
</g>
<!-- torchvision -->
<g id="node13" class="node">
<title>torchvision</title>
<g id="a_node13"><a xlink:href="https://github.com/conda-forge/torchvision-feedstock" xlink:title="torchvision">
<ellipse fill="#fde725" stroke="black" cx="2174.07" cy="-602" rx="66.99" ry="18"/>
<text text-anchor="middle" x="2174.07" y="-597.33" font-family="Times,serif" font-size="14.00">torchvision</text>
</a>
</g>
</g>
<!-- detectron2 -->
<g id="node14" class="node">
<title>detectron2</title>
<g id="a_node14"><a xlink:href="https://github.com/conda-forge/detectron2-feedstock" xlink:title="detectron2">
<ellipse fill="#fde725" stroke="black" cx="1956.07" cy="-530" rx="65.94" ry="18"/>
<text text-anchor="middle" x="1956.07" y="-525.33" font-family="Times,serif" font-size="14.00">detectron2</text>
</a>
</g>
</g>
<!-- torchvision&#45;&gt;detectron2 -->
<g id="edge12" class="edge">
<title>torchvision&#45;&gt;detectron2</title>
<path fill="none" stroke="black" d="M2132.3,-587.59C2096.93,-576.23 2046.06,-559.89 2008.06,-547.69"/>
<polygon fill="black" stroke="black" points="2009.3,-544.09 1998.71,-544.37 2007.16,-550.76 2009.3,-544.09"/>
</g>
<!-- fcos -->
<g id="node15" class="node">
<title>fcos</title>
<g id="a_node15"><a xlink:href="https://github.com/conda-forge/fcos-feedstock" xlink:title="fcos">
<ellipse fill="#fde725" stroke="black" cx="2071.07" cy="-530" rx="31.22" ry="18"/>
<text text-anchor="middle" x="2071.07" y="-525.33" font-family="Times,serif" font-size="14.00">fcos</text>
</a>
</g>
</g>
<!-- torchvision&#45;&gt;fcos -->
<g id="edge13" class="edge">
<title>torchvision&#45;&gt;fcos</title>
<path fill="none" stroke="black" d="M2150.18,-584.76C2135.08,-574.5 2115.48,-561.18 2099.57,-550.37"/>
<polygon fill="black" stroke="black" points="2101.93,-547.06 2091.69,-544.33 2097.99,-552.85 2101.93,-547.06"/>
</g>
<!-- fairscale -->
<g id="node16" class="node">
<title>fairscale</title>
<g id="a_node16"><a xlink:href="https://github.com/conda-forge/fairscale-feedstock" xlink:title="fairscale">
<ellipse fill="#fde725" stroke="black" cx="2174.07" cy="-530" rx="53.84" ry="18"/>
<text text-anchor="middle" x="2174.07" y="-525.33" font-family="Times,serif" font-size="14.00">fairscale</text>
</a>
</g>
</g>
<!-- torchvision&#45;&gt;fairscale -->
<g id="edge14" class="edge">
<title>torchvision&#45;&gt;fairscale</title>
<path fill="none" stroke="black" d="M2174.07,-583.7C2174.07,-576.24 2174.07,-567.32 2174.07,-558.97"/>
<polygon fill="black" stroke="black" points="2177.57,-559.1 2174.07,-549.1 2170.57,-559.1 2177.57,-559.1"/>
</g>
<!-- graphvite -->
<g id="node17" class="node">
<title>graphvite</title>
<g id="a_node17"><a xlink:href="https://github.com/conda-forge/graphvite-feedstock" xlink:title="graphvite">
<ellipse fill="#fde725" stroke="black" cx="2775.07" cy="-530" rx="59.63" ry="18"/>
<text text-anchor="middle" x="2775.07" y="-525.33" font-family="Times,serif" font-size="14.00">graphvite</text>
</a>
</g>
</g>
<!-- torchvision&#45;&gt;graphvite -->
<g id="edge15" class="edge">
<title>torchvision&#45;&gt;graphvite</title>
<path fill="none" stroke="black" d="M2236.65,-595.27C2367.31,-583.24 2660.79,-555.79 2706.07,-548 2710.98,-547.16 2716.06,-546.15 2721.13,-545.07"/>
<polygon fill="black" stroke="black" points="2721.48,-548.35 2730.47,-542.74 2719.94,-541.52 2721.48,-548.35"/>
</g>
<!-- mmcv&#45;recipe -->
<g id="node18" class="node">
<title>mmcv&#45;recipe</title>
<g id="a_node18"><a xlink:href="https://github.com/conda-forge/mmcv-recipe-feedstock" xlink:title="mmcv recipe">
<ellipse fill="#fde725" stroke="black" cx="2321.07" cy="-530" rx="75.41" ry="18"/>
<text text-anchor="middle" x="2321.07" y="-525.33" font-family="Times,serif" font-size="14.00">mmcv recipe</text>
</a>
</g>
</g>
<!-- torchvision&#45;&gt;mmcv&#45;recipe -->
<g id="edge16" class="edge">
<title>torchvision&#45;&gt;mmcv&#45;recipe</title>
<path fill="none" stroke="black" d="M2205.97,-585.81C2227.15,-575.72 2255.21,-562.36 2278.32,-551.36"/>
<polygon fill="black" stroke="black" points="2279.7,-554.1 2287.22,-546.64 2276.69,-547.78 2279.7,-554.1"/>
</g>
<!-- pytorch3d -->
<g id="node19" class="node">
<title>pytorch3d</title>
<g id="a_node19"><a xlink:href="https://github.com/conda-forge/pytorch3d-feedstock" xlink:title="pytorch3d">
<ellipse fill="#fde725" stroke="black" cx="2477.07" cy="-530" rx="62.26" ry="18"/>
<text text-anchor="middle" x="2477.07" y="-525.33" font-family="Times,serif" font-size="14.00">pytorch3d</text>
</a>
</g>
</g>
<!-- torchvision&#45;&gt;pytorch3d -->
<g id="edge17" class="edge">
<title>torchvision&#45;&gt;pytorch3d</title>
<path fill="none" stroke="black" d="M2224.11,-589.62C2270.91,-578.94 2342.76,-562.51 2405.07,-548 2409.77,-546.91 2414.65,-545.77 2419.54,-544.62"/>
<polygon fill="black" stroke="black" points="2420.29,-547.8 2429.22,-542.11 2418.68,-540.99 2420.29,-547.8"/>
</g>
<!-- aihwkit&#45;gpu -->
<g id="node20" class="node">
<title>aihwkit&#45;gpu</title>
<g id="a_node20"><a xlink:href="https://github.com/conda-forge/aihwkit-gpu-feedstock" xlink:title="aihwkit gpu">
<ellipse fill="#fde725" stroke="black" cx="2627.07" cy="-530" rx="70.15" ry="18"/>
<text text-anchor="middle" x="2627.07" y="-525.33" font-family="Times,serif" font-size="14.00">aihwkit gpu</text>
</a>
</g>
</g>
<!-- torchvision&#45;&gt;aihwkit&#45;gpu -->
<g id="edge18" class="edge">
<title>torchvision&#45;&gt;aihwkit&#45;gpu</title>
<path fill="none" stroke="black" d="M2234.52,-593.78C2308.65,-584.61 2437.99,-567.62 2548.07,-548 2553.68,-547 2559.5,-545.89 2565.32,-544.73"/>
<polygon fill="black" stroke="black" points="2565.66,-548.03 2574.76,-542.6 2564.26,-541.17 2565.66,-548.03"/>
</g>
<!-- cudadecon -->
<g id="node53" class="node">
<title>cudadecon</title>
<g id="a_node53"><a xlink:href="https://github.com/conda-forge/cudadecon-feedstock/pull/22" xlink:title="cudadecon ❎">
<ellipse fill="#31688e" stroke="black" cx="3636.07" cy="-638" rx="79.62" ry="18"/>
<text text-anchor="middle" x="3636.07" y="-633.33" font-family="Times,serif" font-size="14.00" fill="white">cudadecon ❎</text>
</a>
</g>
</g>
<!-- onnxruntime&#45;&gt;cudadecon -->
<!-- tensorflow -->
<g id="node22" class="node">
<title>tensorflow</title>
<g id="a_node22"><a xlink:href="https://github.com/conda-forge/tensorflow-feedstock" xlink:title="tensorflow">
<ellipse fill="#fde725" stroke="black" cx="3428.07" cy="-674" rx="63.84" ry="18"/>
<text text-anchor="middle" x="3428.07" y="-669.33" font-family="Times,serif" font-size="14.00">tensorflow</text>
</a>
</g>
</g>
<!-- deepmd&#45;kit -->
<g id="node23" class="node">
<title>deepmd&#45;kit</title>
<g id="a_node23"><a xlink:href="https://github.com/conda-forge/deepmd-kit-feedstock" xlink:title="deepmd kit">
<ellipse fill="#fde725" stroke="black" cx="3468.07" cy="-602" rx="67.52" ry="18"/>
<text text-anchor="middle" x="3468.07" y="-597.33" font-family="Times,serif" font-size="14.00">deepmd kit</text>
</a>
</g>
</g>
<!-- tensorflow&#45;&gt;deepmd&#45;kit -->
<g id="edge20" class="edge">
<title>tensorflow&#45;&gt;deepmd&#45;kit</title>
<path fill="none" stroke="black" d="M3437.76,-656.05C3442.26,-648.18 3447.72,-638.62 3452.76,-629.79"/>
<polygon fill="black" stroke="black" points="3456.28,-631.69 3458.2,-621.28 3450.2,-628.22 3456.28,-631.69"/>
</g>
<!-- dgl -->
<g id="node24" class="node">
<title>dgl</title>
<g id="a_node24"><a xlink:href="https://github.com/conda-forge/dgl-feedstock" xlink:title="dgl">
<ellipse fill="#fde725" stroke="black" cx="3355.07" cy="-602" rx="27.01" ry="18"/>
<text text-anchor="middle" x="3355.07" y="-597.33" font-family="Times,serif" font-size="14.00">dgl</text>
</a>
</g>
</g>
<!-- tensorflow&#45;&gt;dgl -->
<g id="edge21" class="edge">
<title>tensorflow&#45;&gt;dgl</title>
<path fill="none" stroke="black" d="M3410.77,-656.41C3400.83,-646.87 3388.22,-634.79 3377.52,-624.53"/>
<polygon fill="black" stroke="black" points="3380.42,-622.5 3370.78,-618.11 3375.58,-627.56 3380.42,-622.5"/>
</g>
<!-- pytorch&#45;cpu -->
<g id="node25" class="node">
<title>pytorch&#45;cpu</title>
<g id="a_node25"><a xlink:href="https://github.com/conda-forge/pytorch-cpu-feedstock/pull/191" xlink:title="pytorch cpu ❎">
<ellipse fill="#31688e" stroke="black" cx="1805.07" cy="-674" rx="85.93" ry="18"/>
<text text-anchor="middle" x="1805.07" y="-669.33" font-family="Times,serif" font-size="14.00" fill="white">pytorch cpu ❎</text>
</a>
</g>
</g>
<!-- pytorch&#45;cpu&#45;&gt;openmm&#45;torch -->
<g id="edge37" class="edge">
<title>pytorch&#45;cpu&#45;&gt;openmm&#45;torch</title>
<path fill="none" stroke="black" d="M1720.8,-670.18C1577.04,-664.72 1275.37,-650.46 1022.07,-620 1013.6,-618.98 1004.75,-617.72 995.98,-616.35"/>
<polygon fill="black" stroke="black" points="996.78,-612.78 986.35,-614.64 995.67,-619.69 996.78,-612.78"/>
</g>
<!-- pytorch&#45;cpu&#45;&gt;openmmtorchplugin -->
<g id="edge43" class="edge">
<title>pytorch&#45;cpu&#45;&gt;openmmtorchplugin</title>
<path fill="none" stroke="black" d="M1720.2,-670.81C1550.82,-665.92 1158.91,-651.89 831.07,-620 821.04,-619.02 810.57,-617.83 800.16,-616.52"/>
<polygon fill="black" stroke="black" points="800.73,-612.93 790.36,-615.13 799.83,-619.88 800.73,-612.93"/>
</g>
<!-- pytorch&#45;cpu&#45;&gt;torchvision -->
<g id="edge22" class="edge">
<title>pytorch&#45;cpu&#45;&gt;torchvision</title>
<path fill="none" stroke="black" d="M1867.25,-661.2C1934.61,-648.43 2041.56,-628.14 2109.75,-615.2"/>
<polygon fill="black" stroke="black" points="2110.18,-618.49 2119.35,-613.19 2108.87,-611.62 2110.18,-618.49"/>
</g>
<!-- pytorch&#45;cpu&#45;&gt;detectron2 -->
<g id="edge23" class="edge">
<title>pytorch&#45;cpu&#45;&gt;detectron2</title>
<path fill="none" stroke="black" d="M1829.67,-656.46C1843.78,-646.52 1861.53,-633.27 1876.07,-620 1897.93,-600.05 1920.23,-574.74 1935.71,-556.22"/>
<polygon fill="black" stroke="black" points="1938.85,-558.92 1942.53,-548.98 1933.46,-554.46 1938.85,-558.92"/>
</g>
<!-- pytorch&#45;cpu&#45;&gt;fcos -->
<g id="edge24" class="edge">
<title>pytorch&#45;cpu&#45;&gt;fcos</title>
<path fill="none" stroke="black" d="M1836.4,-656.91C1856.62,-646.48 1883.46,-632.54 1907.07,-620 1953.35,-595.42 2006.63,-566.37 2039.58,-548.31"/>
<polygon fill="black" stroke="black" points="2041.04,-550.95 2048.12,-543.07 2037.67,-544.81 2041.04,-550.95"/>
</g>
<!-- pytorch&#45;cpu&#45;&gt;fairscale -->
<g id="edge25" class="edge">
<title>pytorch&#45;cpu&#45;&gt;fairscale</title>
<path fill="none" stroke="black" d="M1847.99,-657.97C1877.39,-647.57 1917.21,-633.27 1952.07,-620 2014.72,-596.16 2086.63,-567 2131.21,-548.7"/>
<polygon fill="black" stroke="black" points="2132.2,-551.67 2140.12,-544.63 2129.54,-545.2 2132.2,-551.67"/>
</g>
<!-- pytorch&#45;cpu&#45;&gt;graphvite -->
<g id="edge26" class="edge">
<title>pytorch&#45;cpu&#45;&gt;graphvite</title>
<path fill="none" stroke="black" d="M1890.25,-670.99C2024.02,-666.81 2276.62,-654.49 2359.07,-620 2382.07,-610.38 2379.19,-593.88 2402.07,-584 2526.99,-530.09 2572.21,-572.32 2706.07,-548 2710.97,-547.11 2716.04,-546.08 2721.11,-544.97"/>
<polygon fill="black" stroke="black" points="2721.47,-548.25 2730.45,-542.61 2719.92,-541.42 2721.47,-548.25"/>
</g>
<!-- pytorch&#45;cpu&#45;&gt;mmcv&#45;recipe -->
<g id="edge27" class="edge">
<title>pytorch&#45;cpu&#45;&gt;mmcv&#45;recipe</title>
<path fill="none" stroke="black" d="M1889.81,-670.5C2001.28,-665.94 2190.08,-653.4 2250.07,-620 2275.6,-605.79 2295.32,-578.32 2307.43,-557.64"/>
<polygon fill="black" stroke="black" points="2310.92,-559.55 2312.75,-549.12 2304.81,-556.14 2310.92,-559.55"/>
</g>
<!-- pytorch&#45;cpu&#45;&gt;pytorch3d -->
<g id="edge28" class="edge">
<title>pytorch&#45;cpu&#45;&gt;pytorch3d</title>
<path fill="none" stroke="black" d="M1887.97,-669.07C2005.27,-662.63 2213.2,-647.66 2283.07,-620 2307.87,-610.18 2307.62,-596.69 2331.07,-584 2360.1,-568.3 2394.73,-555.5 2422.98,-546.41"/>
<polygon fill="black" stroke="black" points="2423.98,-549.45 2432.47,-543.12 2421.88,-542.78 2423.98,-549.45"/>
</g>
<!-- pytorch&#45;cpu&#45;&gt;aihwkit&#45;gpu -->
<g id="edge29" class="edge">
<title>pytorch&#45;cpu&#45;&gt;aihwkit&#45;gpu</title>
<path fill="none" stroke="black" d="M1889.07,-669.82C2014.58,-664.15 2244.49,-649.96 2321.07,-620 2345.91,-610.28 2344.73,-594.9 2369.07,-584 2443.14,-550.84 2468.63,-564.54 2548.07,-548 2553.35,-546.9 2558.81,-545.75 2564.3,-544.59"/>
<polygon fill="black" stroke="black" points="2564.77,-547.85 2573.83,-542.35 2563.32,-541.01 2564.77,-547.85"/>
</g>
<!-- pytorch&#45;cpu&#45;&gt;dgl -->
<g id="edge30" class="edge">
<title>pytorch&#45;cpu&#45;&gt;dgl</title>
<path fill="none" stroke="black" d="M1890.9,-672.02C2190.7,-668.31 3180.54,-653.62 3319.07,-620 3320.87,-619.56 3322.69,-619.03 3324.5,-618.43"/>
<polygon fill="black" stroke="black" points="3325.67,-621.34 3333.66,-614.38 3323.08,-614.83 3325.67,-621.34"/>
</g>
<!-- nvidia&#45;apex -->
<g id="node26" class="node">
<title>nvidia&#45;apex</title>
<g id="a_node26"><a xlink:href="https://github.com/conda-forge/nvidia-apex-feedstock" xlink:title="nvidia apex">
<ellipse fill="#fde725" stroke="black" cx="2480.07" cy="-602" rx="68.57" ry="18"/>
<text text-anchor="middle" x="2480.07" y="-597.33" font-family="Times,serif" font-size="14.00">nvidia apex</text>
</a>
</g>
</g>
<!-- pytorch&#45;cpu&#45;&gt;nvidia&#45;apex -->
<g id="edge31" class="edge">
<title>pytorch&#45;cpu&#45;&gt;nvidia&#45;apex</title>
<path fill="none" stroke="black" d="M1887.29,-668.58C2001.93,-661.74 2216.11,-646.55 2397.07,-620 2404.11,-618.97 2411.46,-617.72 2418.74,-616.37"/>
<polygon fill="black" stroke="black" points="2419.15,-619.66 2428.31,-614.34 2417.83,-612.79 2419.15,-619.66"/>
</g>
<!-- pytorch_cluster -->
<g id="node27" class="node">
<title>pytorch_cluster</title>
<g id="a_node27"><a xlink:href="https://github.com/conda-forge/pytorch_cluster-feedstock" xlink:title="pytorch_cluster">
<ellipse fill="#fde725" stroke="black" cx="3073.07" cy="-530" rx="89.09" ry="18"/>
<text text-anchor="middle" x="3073.07" y="-525.33" font-family="Times,serif" font-size="14.00">pytorch_cluster</text>
</a>
</g>
</g>
<!-- pytorch&#45;cpu&#45;&gt;pytorch_cluster -->
<g id="edge32" class="edge">
<title>pytorch&#45;cpu&#45;&gt;pytorch_cluster</title>
<path fill="none" stroke="black" d="M1890.3,-671.39C2134.93,-666.42 2828.11,-649.86 2926.07,-620 2970.88,-606.34 3016.02,-575.96 3044.23,-554.51"/>
<polygon fill="black" stroke="black" points="3046.01,-556.78 3051.77,-547.89 3041.72,-551.25 3046.01,-556.78"/>
</g>
<!-- pytorch_scatter -->
<g id="node28" class="node">
<title>pytorch_scatter</title>
<g id="a_node28"><a xlink:href="https://github.com/conda-forge/pytorch_scatter-feedstock" xlink:title="pytorch_scatter">
<ellipse fill="#fde725" stroke="black" cx="1538.07" cy="-458" rx="89.61" ry="18"/>
<text text-anchor="middle" x="1538.07" y="-453.32" font-family="Times,serif" font-size="14.00">pytorch_scatter</text>
</a>
</g>
</g>
<!-- pytorch&#45;cpu&#45;&gt;pytorch_scatter -->
<g id="edge33" class="edge">
<title>pytorch&#45;cpu&#45;&gt;pytorch_scatter</title>
<path fill="none" stroke="black" d="M1719.91,-670.86C1635.78,-666.74 1515.52,-654.74 1486.07,-620 1452.6,-580.51 1489.87,-519.08 1516.33,-484.64"/>
<polygon fill="black" stroke="black" points="1519.64,-487.1 1523.11,-477.09 1514.16,-482.75 1519.64,-487.1"/>
</g>
<!-- pytorch_spline_conv -->
<g id="node29" class="node">
<title>pytorch_spline_conv</title>
<g id="a_node29"><a xlink:href="https://github.com/conda-forge/pytorch_spline_conv-feedstock" xlink:title="pytorch_spline_conv">
<ellipse fill="#fde725" stroke="black" cx="934.07" cy="-386" rx="112.24" ry="18"/>
<text text-anchor="middle" x="934.07" y="-381.32" font-family="Times,serif" font-size="14.00">pytorch_spline_conv</text>
</a>
</g>
</g>
<!-- pytorch&#45;cpu&#45;&gt;pytorch_spline_conv -->
<g id="edge34" class="edge">
<title>pytorch&#45;cpu&#45;&gt;pytorch_spline_conv</title>
<path fill="none" stroke="black" d="M1719.47,-671.5C1535.44,-667.63 1114.34,-655.02 1060.07,-620 986.07,-572.25 952.27,-465.54 939.94,-414.81"/>
<polygon fill="black" stroke="black" points="943.18,-414.26 937.5,-405.31 936.36,-415.85 943.18,-414.26"/>
</g>
<!-- pytorch_sparse -->
<g id="node30" class="node">
<title>pytorch_sparse</title>
<g id="a_node30"><a xlink:href="https://github.com/conda-forge/pytorch_sparse-feedstock" xlink:title="pytorch_sparse">
<ellipse fill="#fde725" stroke="black" cx="1502.07" cy="-386" rx="87.51" ry="18"/>
<text text-anchor="middle" x="1502.07" y="-381.32" font-family="Times,serif" font-size="14.00">pytorch_sparse</text>
</a>
</g>
</g>
<!-- pytorch&#45;cpu&#45;&gt;pytorch_sparse -->
<g id="edge35" class="edge">
<title>pytorch&#45;cpu&#45;&gt;pytorch_sparse</title>
<path fill="none" stroke="black" d="M1720.57,-670.46C1632.76,-666.01 1503.3,-653.75 1468.07,-620 1409.56,-563.94 1404.87,-513.46 1439.07,-440 1444.63,-428.05 1454.36,-417.84 1464.53,-409.66"/>
<polygon fill="black" stroke="black" points="1466.17,-412.05 1472.09,-403.27 1461.99,-406.44 1466.17,-412.05"/>
</g>
<!-- torchani -->
<g id="node31" class="node">
<title>torchani</title>
<g id="a_node31"><a xlink:href="https://github.com/conda-forge/torchani-feedstock" xlink:title="torchani">
<ellipse fill="#fde725" stroke="black" cx="1155.07" cy="-314" rx="52.79" ry="18"/>
<text text-anchor="middle" x="1155.07" y="-309.32" font-family="Times,serif" font-size="14.00">torchani</text>
</a>
</g>
</g>
<!-- pytorch&#45;cpu&#45;&gt;torchani -->
<g id="edge36" class="edge">
<title>pytorch&#45;cpu&#45;&gt;torchani</title>
<path fill="none" stroke="black" d="M1719.47,-671.89C1547.86,-668.88 1174.41,-657.97 1131.07,-620 1100.65,-593.35 1112.07,-571.45 1112.07,-531 1112.07,-531 1112.07,-531 1112.07,-457 1112.07,-415.43 1129.16,-369.84 1141.79,-341.82"/>
<polygon fill="black" stroke="black" points="1145.32,-343.53 1146.37,-332.98 1138.98,-340.57 1145.32,-343.53"/>
</g>
<!-- torchsparse -->
<g id="node32" class="node">
<title>torchsparse</title>
<g id="a_node32"><a xlink:href="https://github.com/conda-forge/torchsparse-feedstock" xlink:title="torchsparse">
<ellipse fill="#fde725" stroke="black" cx="1211.07" cy="-602" rx="70.68" ry="18"/>
<text text-anchor="middle" x="1211.07" y="-597.33" font-family="Times,serif" font-size="14.00">torchsparse</text>
</a>
</g>
</g>
<!-- pytorch&#45;cpu&#45;&gt;torchsparse -->
<g id="edge38" class="edge">
<title>pytorch&#45;cpu&#45;&gt;torchsparse</title>
<path fill="none" stroke="black" d="M1725.43,-667.03C1624.99,-658.97 1447.16,-642.92 1296.07,-620 1288.97,-618.92 1281.57,-617.66 1274.22,-616.31"/>
<polygon fill="black" stroke="black" points="1275.01,-612.71 1264.53,-614.29 1273.71,-619.59 1275.01,-612.71"/>
</g>
<!-- torch&#45;scatter -->
<g id="node33" class="node">
<title>torch&#45;scatter</title>
<g id="a_node33"><a xlink:href="https://github.com/conda-forge/torch-scatter-feedstock" xlink:title="torch scatter">
<ellipse fill="#fde725" stroke="black" cx="1244.07" cy="-530" rx="75.94" ry="18"/>
<text text-anchor="middle" x="1244.07" y="-525.33" font-family="Times,serif" font-size="14.00">torch scatter</text>
</a>
</g>
</g>
<!-- pytorch&#45;cpu&#45;&gt;torch&#45;scatter -->
<g id="edge39" class="edge">
<title>pytorch&#45;cpu&#45;&gt;torch&#45;scatter</title>
<path fill="none" stroke="black" d="M1720.91,-670.12C1604.32,-665.02 1400.52,-651.76 1334.07,-620 1318.27,-612.45 1287.25,-579.78 1266.09,-556.22"/>
<polygon fill="black" stroke="black" points="1269.05,-554.15 1259.79,-549.01 1263.82,-558.81 1269.05,-554.15"/>
</g>
<!-- kaolin -->
<g id="node34" class="node">
<title>kaolin</title>
<g id="a_node34"><a xlink:href="https://github.com/conda-forge/kaolin-feedstock" xlink:title="kaolin">
<ellipse fill="#fde725" stroke="black" cx="1313.07" cy="-458" rx="41.21" ry="18"/>
<text text-anchor="middle" x="1313.07" y="-453.32" font-family="Times,serif" font-size="14.00">kaolin</text>
</a>
</g>
</g>
<!-- pytorch&#45;cpu&#45;&gt;kaolin -->
<g id="edge40" class="edge">
<title>pytorch&#45;cpu&#45;&gt;kaolin</title>
<path fill="none" stroke="black" d="M1719,-672.83C1608.31,-670.88 1424.14,-661.3 1372.07,-620 1361.24,-611.4 1335.05,-530.46 1321.5,-486.72"/>
<polygon fill="black" stroke="black" points="1324.55,-485.75 1318.27,-477.22 1317.86,-487.81 1324.55,-485.75"/>
</g>
<!-- nnpops -->
<g id="node35" class="node">
<title>nnpops</title>
<g id="a_node35"><a xlink:href="https://github.com/conda-forge/nnpops-feedstock" xlink:title="nnpops">
<ellipse fill="#fde725" stroke="black" cx="1114.07" cy="-242" rx="47.53" ry="18"/>
<text text-anchor="middle" x="1114.07" y="-237.32" font-family="Times,serif" font-size="14.00">nnpops</text>
</a>
</g>
</g>
<!-- pytorch&#45;cpu&#45;&gt;nnpops -->
<g id="edge41" class="edge">
<title>pytorch&#45;cpu&#45;&gt;nnpops</title>
<path fill="none" stroke="black" d="M1719.41,-671.66C1543.47,-668.16 1153.86,-656.37 1106.07,-620 1072.63,-594.54 1074.07,-573.03 1074.07,-531 1074.07,-531 1074.07,-531 1074.07,-385 1074.07,-343.67 1089.97,-298.01 1101.72,-269.92"/>
<polygon fill="black" stroke="black" points="1105.23,-271.62 1105.98,-261.05 1098.8,-268.84 1105.23,-271.62"/>
</g>
<!-- triton -->
<g id="node36" class="node">
<title>triton</title>
<g id="a_node36"><a xlink:href="https://github.com/conda-forge/triton-feedstock" xlink:title="triton">
<ellipse fill="#fde725" stroke="black" cx="1653.07" cy="-386" rx="39.63" ry="18"/>
<text text-anchor="middle" x="1653.07" y="-381.32" font-family="Times,serif" font-size="14.00">triton</text>
</a>
</g>
</g>
<!-- pytorch&#45;cpu&#45;&gt;triton -->
<g id="edge42" class="edge">
<title>pytorch&#45;cpu&#45;&gt;triton</title>
<path fill="none" stroke="black" d="M1761.9,-657.99C1716.97,-639.77 1649.08,-604.31 1619.07,-548 1611.55,-533.88 1615.4,-527.57 1619.07,-512 1623.18,-494.59 1631.43,-492.98 1637.07,-476 1643.65,-456.2 1647.71,-432.98 1650.09,-415.21"/>
<polygon fill="black" stroke="black" points="1653.67,-415.78 1651.43,-405.42 1646.73,-414.92 1653.67,-415.78"/>
</g>
<!-- molgrid -->
<g id="node37" class="node">
<title>molgrid</title>
<g id="a_node37"><a xlink:href="https://github.com/conda-forge/molgrid-feedstock" xlink:title="molgrid">
<ellipse fill="#fde725" stroke="black" cx="1824.07" cy="-314" rx="50.16" ry="18"/>
<text text-anchor="middle" x="1824.07" y="-309.32" font-family="Times,serif" font-size="14.00">molgrid</text>
</a>
</g>
</g>
<!-- pytorch&#45;cpu&#45;&gt;molgrid -->
<g id="edge44" class="edge">
<title>pytorch&#45;cpu&#45;&gt;molgrid</title>
<path fill="none" stroke="black" d="M1808.92,-655.61C1814.47,-628.94 1824.07,-576.27 1824.07,-531 1824.07,-531 1824.07,-531 1824.07,-457 1824.07,-417.57 1824.07,-371.97 1824.07,-343.31"/>
<polygon fill="black" stroke="black" points="1827.57,-343.49 1824.07,-333.49 1820.57,-343.49 1827.57,-343.49"/>
</g>
<!-- theseus&#45;ai -->
<g id="node38" class="node">
<title>theseus&#45;ai</title>
<g id="a_node38"><a xlink:href="https://github.com/conda-forge/theseus-ai-feedstock" xlink:title="theseus ai">
<ellipse fill="#fde725" stroke="black" cx="1557.07" cy="-602" rx="62.26" ry="18"/>
<text text-anchor="middle" x="1557.07" y="-597.33" font-family="Times,serif" font-size="14.00">theseus ai</text>
</a>
</g>
</g>
<!-- pytorch&#45;cpu&#45;&gt;theseus&#45;ai -->
<g id="edge45" class="edge">
<title>pytorch&#45;cpu&#45;&gt;theseus&#45;ai</title>
<path fill="none" stroke="black" d="M1755.18,-658.92C1713.46,-647.14 1654.05,-630.37 1611.18,-618.27"/>
<polygon fill="black" stroke="black" points="1612.24,-614.65 1601.66,-615.3 1610.33,-621.39 1612.24,-614.65"/>
</g>
<!-- pyg&#45;lib -->
<g id="node39" class="node">
<title>pyg&#45;lib</title>
<g id="a_node39"><a xlink:href="https://github.com/conda-forge/pyg-lib-feedstock" xlink:title="pyg lib">
<ellipse fill="#fde725" stroke="black" cx="1517.07" cy="-314" rx="45.42" ry="18"/>
<text text-anchor="middle" x="1517.07" y="-309.32" font-family="Times,serif" font-size="14.00">pyg lib</text>
</a>
</g>
</g>
<!-- pytorch&#45;cpu&#45;&gt;pyg&#45;lib -->
<g id="edge46" class="edge">
<title>pytorch&#45;cpu&#45;&gt;pyg&#45;lib</title>
<path fill="none" stroke="black" d="M1719.73,-671.4C1623.34,-667.82 1474.49,-656.38 1433.07,-620 1348.4,-545.64 1344.79,-463.21 1405.07,-368 1418.64,-346.56 1443.48,-333.63 1466.32,-325.91"/>
<polygon fill="black" stroke="black" points="1467.11,-329.02 1475.63,-322.72 1465.04,-322.34 1467.11,-329.02"/>
</g>
<!-- deepspeed -->
<g id="node40" class="node">
<title>deepspeed</title>
<g id="a_node40"><a xlink:href="https://github.com/conda-forge/deepspeed-feedstock" xlink:title="deepspeed">
<ellipse fill="#fde725" stroke="black" cx="1693.07" cy="-530" rx="64.89" ry="18"/>
<text text-anchor="middle" x="1693.07" y="-525.33" font-family="Times,serif" font-size="14.00">deepspeed</text>
</a>
</g>
</g>
<!-- pytorch&#45;cpu&#45;&gt;deepspeed -->
<g id="edge47" class="edge">
<title>pytorch&#45;cpu&#45;&gt;deepspeed</title>
<path fill="none" stroke="black" d="M1791.56,-655.87C1771.95,-631 1735.46,-584.75 1712.83,-556.05"/>
<polygon fill="black" stroke="black" points="1715.22,-554.43 1706.28,-548.75 1709.73,-558.77 1715.22,-554.43"/>
</g>
<!-- xformers -->
<g id="node41" class="node">
<title>xformers</title>
<g id="a_node41"><a xlink:href="https://github.com/conda-forge/xformers-feedstock" xlink:title="xformers">
<ellipse fill="#fde725" stroke="black" cx="1740.07" cy="-458" rx="56.47" ry="18"/>
<text text-anchor="middle" x="1740.07" y="-453.32" font-family="Times,serif" font-size="14.00">xformers</text>
</a>
</g>
</g>
<!-- pytorch&#45;cpu&#45;&gt;xformers -->
<g id="edge48" class="edge">
<title>pytorch&#45;cpu&#45;&gt;xformers</title>
<path fill="none" stroke="black" d="M1802.39,-655.69C1797.44,-625.76 1785.66,-562.69 1767.07,-512 1763.84,-503.18 1759.49,-493.93 1755.23,-485.67"/>
<polygon fill="black" stroke="black" points="1757.96,-484.36 1750.16,-477.19 1751.79,-487.66 1757.96,-484.36"/>
</g>
<!-- bitsandbytes -->
<g id="node42" class="node">
<title>bitsandbytes</title>
<g id="a_node42"><a xlink:href="https://github.com/conda-forge/bitsandbytes-feedstock" xlink:title="bitsandbytes">
<ellipse fill="#fde725" stroke="black" cx="1928.07" cy="-386" rx="75.94" ry="18"/>
<text text-anchor="middle" x="1928.07" y="-381.32" font-family="Times,serif" font-size="14.00">bitsandbytes</text>
</a>
</g>
</g>
<!-- pytorch&#45;cpu&#45;&gt;bitsandbytes -->
<g id="edge49" class="edge">
<title>pytorch&#45;cpu&#45;&gt;bitsandbytes</title>
<path fill="none" stroke="black" d="M1816.93,-655.81C1823.63,-645.67 1831.88,-632.42 1838.07,-620 1847.67,-600.77 1896.36,-471.62 1917.86,-414.31"/>
<polygon fill="black" stroke="black" points="1921.42,-415.76 1921.65,-405.17 1914.87,-413.31 1921.42,-415.76"/>
</g>
<!-- abacus -->
<g id="node43" class="node">
<title>abacus</title>
<g id="a_node43"><a xlink:href="https://github.com/conda-forge/abacus-feedstock" xlink:title="abacus">
<ellipse fill="#fde725" stroke="black" cx="3264.07" cy="-602" rx="45.95" ry="18"/>
<text text-anchor="middle" x="3264.07" y="-597.33" font-family="Times,serif" font-size="14.00">abacus</text>
</a>
</g>
</g>
<!-- pytorch&#45;cpu&#45;&gt;abacus -->
<g id="edge50" class="edge">
<title>pytorch&#45;cpu&#45;&gt;abacus</title>
<path fill="none" stroke="black" d="M1890.9,-672.42C2154.37,-670.23 2949.15,-660.35 3204.07,-620 3209.02,-619.22 3214.15,-618.16 3219.22,-616.95"/>
<polygon fill="black" stroke="black" points="3219.67,-620.19 3228.49,-614.31 3217.93,-613.42 3219.67,-620.19"/>
</g>
<!-- carterbox&#45;torch&#45;radon -->
<g id="node44" class="node">
<title>carterbox&#45;torch&#45;radon</title>
<g id="a_node44"><a xlink:href="https://github.com/conda-forge/carterbox-torch-radon-feedstock" xlink:title="carterbox torch radon">
<ellipse fill="#fde725" stroke="black" cx="3190.07" cy="-314" rx="121.18" ry="18"/>
<text text-anchor="middle" x="3190.07" y="-309.32" font-family="Times,serif" font-size="14.00">carterbox torch radon</text>
</a>
</g>
</g>
<!-- pytorch&#45;cpu&#45;&gt;carterbox&#45;torch&#45;radon -->
<g id="edge51" class="edge">
<title>pytorch&#45;cpu&#45;&gt;carterbox&#45;torch&#45;radon</title>
<path fill="none" stroke="black" d="M1891.18,-672.51C2124.95,-670.64 2767.76,-661.73 2975.07,-620 3076.46,-599.59 3190.07,-634.42 3190.07,-531 3190.07,-531 3190.07,-531 3190.07,-457 3190.07,-417.57 3190.07,-371.97 3190.07,-343.31"/>
<polygon fill="black" stroke="black" points="3193.57,-343.49 3190.07,-333.49 3186.57,-343.49 3193.57,-343.49"/>
</g>
<!-- pytorch_scatter&#45;&gt;pytorch_sparse -->
<g id="edge52" class="edge">
<title>pytorch_scatter&#45;&gt;pytorch_sparse</title>
<path fill="none" stroke="black" d="M1529.17,-439.7C1525.16,-431.9 1520.33,-422.51 1515.87,-413.83"/>
<polygon fill="black" stroke="black" points="1518.55,-412.4 1510.87,-405.1 1512.33,-415.6 1518.55,-412.4"/>
</g>
<!-- torchani&#45;&gt;nnpops -->
<g id="edge53" class="edge">
<title>torchani&#45;&gt;nnpops</title>
<path fill="none" stroke="black" d="M1145.15,-296.05C1140.41,-287.97 1134.64,-278.12 1129.37,-269.11"/>
<polygon fill="black" stroke="black" points="1131.98,-267.65 1123.91,-260.79 1125.94,-271.19 1131.98,-267.65"/>
</g>
<!-- triton&#45;&gt;pyg&#45;lib -->
<g id="edge54" class="edge">
<title>triton&#45;&gt;pyg&#45;lib</title>
<path fill="none" stroke="black" d="M1627.49,-371.83C1606.62,-361.09 1576.87,-345.78 1553.51,-333.75"/>
<polygon fill="black" stroke="black" points="1555.43,-330.29 1544.93,-328.83 1552.22,-336.51 1555.43,-330.29"/>
</g>
<!-- libxc -->
<g id="node45" class="node">
<title>libxc</title>
<g id="a_node45"><a xlink:href="https://github.com/conda-forge/libxc-feedstock/pull/58" xlink:title="libxc ✓">
<ellipse fill="#31688e" stroke="black" cx="3264.07" cy="-674" rx="42.79" ry="18"/>
<text text-anchor="middle" x="3264.07" y="-669.33" font-family="Times,serif" font-size="14.00" fill="white">libxc ✓</text>
</a>
</g>
</g>
<!-- libxc&#45;&gt;abacus -->
<g id="edge55" class="edge">
<title>libxc&#45;&gt;abacus</title>
<path fill="none" stroke="black" d="M3264.07,-655.7C3264.07,-648.24 3264.07,-639.32 3264.07,-630.97"/>
<polygon fill="black" stroke="black" points="3267.57,-631.1 3264.07,-621.1 3260.57,-631.1 3267.57,-631.1"/>
</g>
<!-- jaxlib -->
<g id="node46" class="node">
<title>jaxlib</title>
<g id="a_node46"><a xlink:href="https://github.com/conda-forge/jaxlib-feedstock/pull/191" xlink:title="jaxlib ❎">
<ellipse fill="#31688e" stroke="black" cx="3428.07" cy="-746" rx="53.84" ry="18"/>
<text text-anchor="middle" x="3428.07" y="-741.33" font-family="Times,serif" font-size="14.00" fill="white">jaxlib ❎</text>
</a>
</g>
</g>
<!-- jaxlib&#45;&gt;tensorflow -->
<g id="edge56" class="edge">
<title>jaxlib&#45;&gt;tensorflow</title>
<path fill="none" stroke="black" d="M3428.07,-727.7C3428.07,-720.24 3428.07,-711.32 3428.07,-702.97"/>
<polygon fill="black" stroke="black" points="3431.57,-703.1 3428.07,-693.1 3424.57,-703.1 3431.57,-703.1"/>
</g>
<!-- pp&#45;sketchlib -->
<g id="node47" class="node">
<title>pp&#45;sketchlib</title>
<g id="a_node47"><a xlink:href="https://github.com/conda-forge/pp-sketchlib-feedstock/pull/45" xlink:title="pp sketchlib ❎">
<ellipse fill="#31688e" stroke="black" cx="1767.07" cy="-90" rx="87.51" ry="18"/>
<text text-anchor="middle" x="1767.07" y="-85.33" font-family="Times,serif" font-size="14.00" fill="white">pp sketchlib ❎</text>
</a>
</g>
</g>
<!-- mandrake -->
<g id="node48" class="node">
<title>mandrake</title>
<g id="a_node48"><a xlink:href="https://github.com/conda-forge/mandrake-feedstock" xlink:title="mandrake">
<ellipse fill="#fde725" stroke="black" cx="1767.07" cy="-18" rx="61.2" ry="18"/>
<text text-anchor="middle" x="1767.07" y="-13.32" font-family="Times,serif" font-size="14.00">mandrake</text>
</a>
</g>
</g>
<!-- pp&#45;sketchlib&#45;&gt;mandrake -->
<g id="edge57" class="edge">
<title>pp&#45;sketchlib&#45;&gt;mandrake</title>
<path fill="none" stroke="black" d="M1767.07,-71.7C1767.07,-64.24 1767.07,-55.32 1767.07,-46.97"/>
<polygon fill="black" stroke="black" points="1770.57,-47.1 1767.07,-37.1 1763.57,-47.1 1770.57,-47.1"/>
</g>
<!-- faiss&#45;split -->
<g id="node49" class="node">
<title>faiss&#45;split</title>
<g id="a_node49"><a xlink:href="https://github.com/conda-forge/faiss-split-feedstock/pull/70" xlink:title="faiss split ❎">
<ellipse fill="#31688e" stroke="black" cx="2842.07" cy="-602" rx="74.88" ry="18"/>
<text text-anchor="middle" x="2842.07" y="-597.33" font-family="Times,serif" font-size="14.00" fill="white">faiss split ❎</text>
</a>
</g>
</g>
<!-- faiss&#45;split&#45;&gt;graphvite -->
<g id="edge58" class="edge">
<title>faiss&#45;split&#45;&gt;graphvite</title>
<path fill="none" stroke="black" d="M2825.85,-584.05C2817.71,-575.54 2807.68,-565.07 2798.7,-555.68"/>
<polygon fill="black" stroke="black" points="2801.58,-553.59 2792.14,-548.79 2796.53,-558.43 2801.58,-553.59"/>
</g>
<!-- tsnecuda -->
<g id="node50" class="node">
<title>tsnecuda</title>
<g id="a_node50"><a xlink:href="https://github.com/conda-forge/tsnecuda-feedstock" xlink:title="tsnecuda">
<ellipse fill="#fde725" stroke="black" cx="2909.07" cy="-530" rx="56.47" ry="18"/>
<text text-anchor="middle" x="2909.07" y="-525.33" font-family="Times,serif" font-size="14.00">tsnecuda</text>
</a>
</g>
</g>
<!-- faiss&#45;split&#45;&gt;tsnecuda -->
<g id="edge59" class="edge">
<title>faiss&#45;split&#45;&gt;tsnecuda</title>
<path fill="none" stroke="black" d="M2858.29,-584.05C2866.64,-575.33 2876.97,-564.54 2886.12,-554.98"/>
<polygon fill="black" stroke="black" points="2888.08,-557.95 2892.46,-548.31 2883.02,-553.11 2888.08,-557.95"/>
</g>
<!-- libtvm -->
<g id="node51" class="node">
<title>libtvm</title>
<g id="a_node51"><a xlink:href="https://github.com/conda-forge/libtvm-feedstock/pull/32" xlink:title="libtvm ❎">
<ellipse fill="#31688e" stroke="black" cx="3636.07" cy="-90" rx="58.57" ry="18"/>
<text text-anchor="middle" x="3636.07" y="-85.33" font-family="Times,serif" font-size="14.00" fill="white">libtvm ❎</text>
</a>
</g>
</g>
<!-- tvm&#45;py -->
<g id="node52" class="node">
<title>tvm&#45;py</title>
<g id="a_node52"><a xlink:href="https://github.com/conda-forge/tvm-py-feedstock" xlink:title="tvm py">
<ellipse fill="#fde725" stroke="black" cx="3636.07" cy="-18" rx="45.95" ry="18"/>
<text text-anchor="middle" x="3636.07" y="-13.32" font-family="Times,serif" font-size="14.00">tvm py</text>
</a>
</g>
</g>
<!-- libtvm&#45;&gt;tvm&#45;py -->
<g id="edge60" class="edge">
<title>libtvm&#45;&gt;tvm&#45;py</title>
<path fill="none" stroke="black" d="M3636.07,-71.7C3636.07,-64.24 3636.07,-55.32 3636.07,-46.97"/>
<polygon fill="black" stroke="black" points="3639.57,-47.1 3636.07,-37.1 3632.57,-47.1 3639.57,-47.1"/>
</g>
<!-- timemory -->
<g id="node54" class="node">
<title>timemory</title>
<g id="a_node54"><a xlink:href="https://github.com/conda-forge/timemory-feedstock" xlink:title="timemory">
<ellipse fill="#000000" stroke="black" cx="3636.07" cy="-566" rx="59.63" ry="18"/>
<text text-anchor="middle" x="3636.07" y="-561.33" font-family="Times,serif" font-size="14.00" fill="white">timemory</text>
</a>
</g>
</g>
<!-- cudadecon&#45;&gt;timemory -->
<!-- rmm -->
<g id="node55" class="node">
<title>rmm</title>
<g id="a_node55"><a xlink:href="https://github.com/conda-forge/rmm-feedstock" xlink:title="rmm">
<ellipse fill="#ff8c00" stroke="black" cx="3636.07" cy="-494" rx="34.9" ry="18"/>
<text text-anchor="middle" x="3636.07" y="-489.32" font-family="Times,serif" font-size="14.00">rmm</text>
</a>
</g>
</g>
<!-- timemory&#45;&gt;rmm -->
<!-- pyscamp&#45;gpu -->
<g id="node58" class="node">
<title>pyscamp&#45;gpu</title>
<g id="a_node58"><a xlink:href="https://github.com/conda-forge/pyscamp-gpu-feedstock/pull/8" xlink:title="pyscamp gpu ❎">
<ellipse fill="#31688e" stroke="black" cx="3636.07" cy="-422" rx="92.77" ry="18"/>
<text text-anchor="middle" x="3636.07" y="-417.32" font-family="Times,serif" font-size="14.00" fill="white">pyscamp gpu ❎</text>
</a>
</g>
</g>
<!-- rmm&#45;&gt;pyscamp&#45;gpu -->
<!-- cuquantum -->
<g id="node56" class="node">
<title>cuquantum</title>
<g id="a_node56"><a xlink:href="https://github.com/conda-forge/cuquantum-feedstock/pull/49" xlink:title="cuquantum ✓">
<ellipse fill="#31688e" stroke="black" cx="3870.07" cy="-530" rx="75.41" ry="18"/>
<text text-anchor="middle" x="3870.07" y="-525.33" font-family="Times,serif" font-size="14.00" fill="white">cuquantum ✓</text>
</a>
</g>
</g>
<!-- pennylane&#45;lightning&#45;gpu -->
<g id="node57" class="node">
<title>pennylane&#45;lightning&#45;gpu</title>
<g id="a_node57"><a xlink:href="https://github.com/conda-forge/pennylane-lightning-gpu-feedstock" xlink:title="pennylane lightning gpu">
<ellipse fill="#fde725" stroke="black" cx="3870.07" cy="-458" rx="133.28" ry="18"/>
<text text-anchor="middle" x="3870.07" y="-453.32" font-family="Times,serif" font-size="14.00">pennylane lightning gpu</text>
</a>
</g>
</g>
<!-- cuquantum&#45;&gt;pennylane&#45;lightning&#45;gpu -->
<g id="edge64" class="edge">
<title>cuquantum&#45;&gt;pennylane&#45;lightning&#45;gpu</title>
<path fill="none" stroke="black" d="M3870.07,-511.7C3870.07,-504.24 3870.07,-495.32 3870.07,-486.97"/>
<polygon fill="black" stroke="black" points="3873.57,-487.1 3870.07,-477.1 3866.57,-487.1 3873.57,-487.1"/>
</g>
<!-- heavydb&#45;ext -->
<g id="node59" class="node">
<title>heavydb&#45;ext</title>
<g id="a_node59"><a xlink:href="https://github.com/conda-forge/heavydb-ext-feedstock/pull/55" xlink:title="heavydb ext ❎">
<ellipse fill="#31688e" stroke="black" cx="3636.07" cy="-350" rx="87.51" ry="18"/>
<text text-anchor="middle" x="3636.07" y="-345.32" font-family="Times,serif" font-size="14.00" fill="white">heavydb ext ❎</text>
</a>
</g>
</g>
<!-- pyscamp&#45;gpu&#45;&gt;heavydb&#45;ext -->
<!-- hdk -->
<g id="node60" class="node">
<title>hdk</title>
<g id="a_node60"><a xlink:href="https://github.com/conda-forge/hdk-feedstock/pull/49" xlink:title="hdk ✓">
<ellipse fill="#31688e" stroke="black" cx="3636.07" cy="-278" rx="37.53" ry="18"/>
<text text-anchor="middle" x="3636.07" y="-273.32" font-family="Times,serif" font-size="14.00" fill="white">hdk ✓</text>
</a>
</g>
</g>
<!-- heavydb&#45;ext&#45;&gt;hdk -->
<!-- katago -->
<g id="node61" class="node">
<title>katago</title>
<g id="a_node61"><a xlink:href="https://github.com/conda-forge/katago-feedstock/pull/7" xlink:title="katago ✓">
<ellipse fill="#31688e" stroke="black" cx="3636.07" cy="-206" rx="52.79" ry="18"/>
<text text-anchor="middle" x="3636.07" y="-201.33" font-family="Times,serif" font-size="14.00" fill="white">katago ✓</text>
</a>
</g>
</g>
<!-- hdk&#45;&gt;katago -->
<!-- pycolmap -->
<g id="node62" class="node">
<title>pycolmap</title>
<g id="a_node62"><a xlink:href="https://github.com/conda-forge/pycolmap-feedstock/pull/9" xlink:title="pycolmap ❎">
<ellipse fill="#31688e" stroke="black" cx="3636.07" cy="-134" rx="74.36" ry="18"/>
<text text-anchor="middle" x="3636.07" y="-129.32" font-family="Times,serif" font-size="14.00" fill="white">pycolmap ❎</text>
</a>
</g>
</g>
<!-- katago&#45;&gt;pycolmap -->
<!-- tomocupy -->
<g id="node63" class="node">
<title>tomocupy</title>
<g id="a_node63"><a xlink:href="https://github.com/conda-forge/tomocupy-feedstock/pull/19" xlink:title="tomocupy ✓">
<ellipse fill="#31688e" stroke="black" cx="3870.07" cy="-54" rx="68.04" ry="18"/>
<text text-anchor="middle" x="3870.07" y="-49.33" font-family="Times,serif" font-size="14.00" fill="white">tomocupy ✓</text>
</a>
</g>
</g>
</g>
</svg>
