<?xml version="1.0" encoding="UTF-8" standalone="no"?>
<!DOCTYPE svg PUBLIC "-//W3C//DTD SVG 1.1//EN"
 "http://www.w3.org/Graphics/SVG/1.1/DTD/svg11.dtd">
<!-- Generated by graphviz version 2.49.1 (20211004.0028)
 -->
<!-- Pages: 1 -->
<svg width="2709pt" height="1068pt"
 viewBox="0.00 0.00 2709.26 1068.00" xmlns="http://www.w3.org/2000/svg" xmlns:xlink="http://www.w3.org/1999/xlink">
<g id="graph0" class="graph" transform="scale(1 1) rotate(0) translate(4 1064)">
<polygon fill="white" stroke="transparent" points="-4,4 -4,-1064 2705.26,-1064 2705.26,4 -4,4"/>
<!-- implicit -->
<g id="node1" class="node">
<title>implicit</title>
<g id="a_node1"><a xlink:href="https://github.com/conda-forge/implicit-feedstock" xlink:title="implicit">
<ellipse fill="#35b779" stroke="black" cx="2271.26" cy="-1042" rx="46.29" ry="18"/>
<text text-anchor="middle" x="2271.26" y="-1038.3" font-family="Times,serif" font-size="14.00">implicit</text>
</a>
</g>
</g>
<!-- kaldi -->
<g id="node2" class="node">
<title>kaldi</title>
<g id="a_node2"><a xlink:href="https://github.com/conda-forge/kaldi-feedstock" xlink:title="kaldi">
<ellipse fill="#fde725" stroke="black" cx="2271.26" cy="-970" rx="33.29" ry="18"/>
<text text-anchor="middle" x="2271.26" y="-966.3" font-family="Times,serif" font-size="14.00">kaldi</text>
</a>
</g>
</g>
<!-- implicit&#45;&gt;kaldi -->
<!-- conda&#45;forge&#45;ci&#45;setup -->
<g id="node3" class="node">
<title>conda&#45;forge&#45;ci&#45;setup</title>
<g id="a_node3"><a xlink:href="https://github.com/conda-forge/conda-forge-ci-setup-feedstock/pull/245" xlink:title="conda forge ci setup ✓">
<ellipse fill="#31688e" stroke="black" cx="2271.26" cy="-898" rx="112.5" ry="18"/>
<text text-anchor="middle" x="2271.26" y="-894.3" font-family="Times,serif" font-size="14.00" fill="white">conda forge ci setup ✓</text>
</a>
</g>
</g>
<!-- kaldi&#45;&gt;conda&#45;forge&#45;ci&#45;setup -->
<!-- prismatic_split -->
<g id="node13" class="node">
<title>prismatic_split</title>
<g id="a_node13"><a xlink:href="https://github.com/conda-forge/prismatic_split-feedstock" xlink:title="prismatic_split">
<ellipse fill="#fde725" stroke="black" cx="2271.26" cy="-826" rx="79.5" ry="18"/>
<text text-anchor="middle" x="2271.26" y="-822.3" font-family="Times,serif" font-size="14.00">prismatic_split</text>
</a>
</g>
</g>
<!-- conda&#45;forge&#45;ci&#45;setup&#45;&gt;prismatic_split -->
<!-- torchvision -->
<g id="node4" class="node">
<title>torchvision</title>
<g id="a_node4"><a xlink:href="https://github.com/conda-forge/torchvision-feedstock" xlink:title="torchvision">
<ellipse fill="#fde725" stroke="black" cx="487.26" cy="-862" rx="62.5" ry="18"/>
<text text-anchor="middle" x="487.26" y="-858.3" font-family="Times,serif" font-size="14.00">torchvision</text>
</a>
</g>
</g>
<!-- detectron2 -->
<g id="node5" class="node">
<title>detectron2</title>
<g id="a_node5"><a xlink:href="https://github.com/conda-forge/detectron2-feedstock" xlink:title="detectron2">
<ellipse fill="#fde725" stroke="black" cx="471.26" cy="-790" rx="61.99" ry="18"/>
<text text-anchor="middle" x="471.26" y="-786.3" font-family="Times,serif" font-size="14.00">detectron2</text>
</a>
</g>
</g>
<!-- torchvision&#45;&gt;detectron2 -->
<g id="edge3" class="edge">
<title>torchvision&#45;&gt;detectron2</title>
<path fill="none" stroke="black" d="M483.3,-843.7C481.54,-835.98 479.42,-826.71 477.45,-818.11"/>
<polygon fill="black" stroke="black" points="480.81,-817.07 475.17,-808.1 473.98,-818.63 480.81,-817.07"/>
</g>
<!-- fcos -->
<g id="node6" class="node">
<title>fcos</title>
<g id="a_node6"><a xlink:href="https://github.com/conda-forge/fcos-feedstock" xlink:title="fcos">
<ellipse fill="#fde725" stroke="black" cx="48.26" cy="-790" rx="29.5" ry="18"/>
<text text-anchor="middle" x="48.26" y="-786.3" font-family="Times,serif" font-size="14.00">fcos</text>
</a>
</g>
</g>
<!-- torchvision&#45;&gt;fcos -->
<g id="edge4" class="edge">
<title>torchvision&#45;&gt;fcos</title>
<path fill="none" stroke="black" d="M442.36,-849.35C433.74,-847.36 424.75,-845.47 416.26,-844 270.89,-818.77 228.66,-846.59 86.26,-808 83.96,-807.38 81.63,-806.63 79.31,-805.81"/>
<polygon fill="black" stroke="black" points="80.52,-802.53 69.93,-802.09 77.93,-809.03 80.52,-802.53"/>
</g>
<!-- fairscale -->
<g id="node7" class="node">
<title>fairscale</title>
<g id="a_node7"><a xlink:href="https://github.com/conda-forge/fairscale-feedstock" xlink:title="fairscale">
<ellipse fill="#fde725" stroke="black" cx="303.26" cy="-790" rx="50.09" ry="18"/>
<text text-anchor="middle" x="303.26" y="-786.3" font-family="Times,serif" font-size="14.00">fairscale</text>
</a>
</g>
</g>
<!-- torchvision&#45;&gt;fairscale -->
<g id="edge5" class="edge">
<title>torchvision&#45;&gt;fairscale</title>
<path fill="none" stroke="black" d="M450.91,-847.17C420.72,-835.69 377.74,-819.34 345.93,-807.23"/>
<polygon fill="black" stroke="black" points="347.03,-803.91 336.44,-803.62 344.54,-810.45 347.03,-803.91"/>
</g>
<!-- graphvite -->
<g id="node8" class="node">
<title>graphvite</title>
<g id="a_node8"><a xlink:href="https://github.com/conda-forge/graphvite-feedstock" xlink:title="graphvite">
<ellipse fill="#fde725" stroke="black" cx="607.26" cy="-790" rx="56" ry="18"/>
<text text-anchor="middle" x="607.26" y="-786.3" font-family="Times,serif" font-size="14.00">graphvite</text>
</a>
</g>
</g>
<!-- torchvision&#45;&gt;graphvite -->
<g id="edge6" class="edge">
<title>torchvision&#45;&gt;graphvite</title>
<path fill="none" stroke="black" d="M513.59,-845.64C530.9,-835.54 553.75,-822.21 572.54,-811.25"/>
<polygon fill="black" stroke="black" points="574.52,-814.15 581.4,-806.09 571,-808.1 574.52,-814.15"/>
</g>
<!-- mmcv&#45;recipe -->
<g id="node9" class="node">
<title>mmcv&#45;recipe</title>
<g id="a_node9"><a xlink:href="https://github.com/conda-forge/mmcv-recipe-feedstock" xlink:title="mmcv recipe">
<ellipse fill="#fde725" stroke="black" cx="165.26" cy="-790" rx="70.39" ry="18"/>
<text text-anchor="middle" x="165.26" y="-786.3" font-family="Times,serif" font-size="14.00">mmcv recipe</text>
</a>
</g>
</g>
<!-- torchvision&#45;&gt;mmcv&#45;recipe -->
<g id="edge7" class="edge">
<title>torchvision&#45;&gt;mmcv&#45;recipe</title>
<path fill="none" stroke="black" d="M441.09,-849.74C432.83,-847.79 424.3,-845.8 416.26,-844 340.05,-826.91 320.66,-824.22 244.26,-808 238.63,-806.81 232.78,-805.56 226.92,-804.3"/>
<polygon fill="black" stroke="black" points="227.6,-800.87 217.09,-802.2 226.14,-807.72 227.6,-800.87"/>
</g>
<!-- autogluon.multimodal -->
<g id="node10" class="node">
<title>autogluon.multimodal</title>
<g id="a_node10"><a xlink:href="https://github.com/conda-forge/autogluon.multimodal-feedstock" xlink:title="autogluon multimodal">
<ellipse fill="#fde725" stroke="black" cx="303.26" cy="-718" rx="112.5" ry="18"/>
<text text-anchor="middle" x="303.26" y="-714.3" font-family="Times,serif" font-size="14.00">autogluon multimodal</text>
</a>
</g>
</g>
<!-- torchvision&#45;&gt;autogluon.multimodal -->
<g id="edge8" class="edge">
<title>torchvision&#45;&gt;autogluon.multimodal</title>
<path fill="none" stroke="black" d="M458.85,-845.72C441.35,-835.83 418.8,-822.18 400.26,-808 381.78,-793.87 379.36,-787.77 362.26,-772 351.69,-762.25 339.93,-751.64 329.71,-742.49"/>
<polygon fill="black" stroke="black" points="332.03,-739.87 322.24,-735.82 327.37,-745.09 332.03,-739.87"/>
</g>
<!-- fairscale&#45;&gt;autogluon.multimodal -->
<g id="edge9" class="edge">
<title>fairscale&#45;&gt;autogluon.multimodal</title>
<path fill="none" stroke="black" d="M303.26,-771.7C303.26,-763.98 303.26,-754.71 303.26,-746.11"/>
<polygon fill="black" stroke="black" points="306.76,-746.1 303.26,-736.1 299.76,-746.1 306.76,-746.1"/>
</g>
<!-- tensorflow -->
<g id="node11" class="node">
<title>tensorflow</title>
<g id="a_node11"><a xlink:href="https://github.com/conda-forge/tensorflow-feedstock" xlink:title="tensorflow">
<ellipse fill="#fde725" stroke="black" cx="1033.26" cy="-206" rx="60" ry="18"/>
<text text-anchor="middle" x="1033.26" y="-202.3" font-family="Times,serif" font-size="14.00">tensorflow</text>
</a>
</g>
</g>
<!-- deepmd&#45;kit -->
<g id="node12" class="node">
<title>deepmd&#45;kit</title>
<g id="a_node12"><a xlink:href="https://github.com/conda-forge/deepmd-kit-feedstock" xlink:title="deepmd kit">
<ellipse fill="#fde725" stroke="black" cx="1077.26" cy="-134" rx="63.09" ry="18"/>
<text text-anchor="middle" x="1077.26" y="-130.3" font-family="Times,serif" font-size="14.00">deepmd kit</text>
</a>
</g>
</g>
<!-- tensorflow&#45;&gt;deepmd&#45;kit -->
<g id="edge10" class="edge">
<title>tensorflow&#45;&gt;deepmd&#45;kit</title>
<path fill="none" stroke="black" d="M1043.91,-188.05C1049.1,-179.8 1055.45,-169.7 1061.21,-160.54"/>
<polygon fill="black" stroke="black" points="1064.35,-162.12 1066.7,-151.79 1058.42,-158.39 1064.35,-162.12"/>
</g>
<!-- openmm&#45;plumed -->
<g id="node37" class="node">
<title>openmm&#45;plumed</title>
<g id="a_node37"><a xlink:href="https://github.com/conda-forge/openmm-plumed-feedstock" xlink:title="openmm plumed">
<ellipse fill="#fde725" stroke="black" cx="2271.26" cy="-754" rx="88.5" ry="18"/>
<text text-anchor="middle" x="2271.26" y="-750.3" font-family="Times,serif" font-size="14.00">openmm plumed</text>
</a>
</g>
</g>
<!-- prismatic_split&#45;&gt;openmm&#45;plumed -->
<!-- lammps -->
<g id="node14" class="node">
<title>lammps</title>
<g id="a_node14"><a xlink:href="https://github.com/conda-forge/lammps-feedstock" xlink:title="lammps">
<ellipse fill="#fde725" stroke="black" cx="1121.26" cy="-278" rx="47.5" ry="18"/>
<text text-anchor="middle" x="1121.26" y="-274.3" font-family="Times,serif" font-size="14.00">lammps</text>
</a>
</g>
</g>
<!-- lammps&#45;&gt;deepmd&#45;kit -->
<g id="edge12" class="edge">
<title>lammps&#45;&gt;deepmd&#45;kit</title>
<path fill="none" stroke="black" d="M1118.82,-259.96C1115.94,-241.81 1110.49,-212.4 1102.26,-188 1099.26,-179.13 1095.19,-169.79 1091.21,-161.47"/>
<polygon fill="black" stroke="black" points="1094.21,-159.65 1086.63,-152.25 1087.94,-162.76 1094.21,-159.65"/>
</g>
<!-- hoomd -->
<g id="node15" class="node">
<title>hoomd</title>
<g id="a_node15"><a xlink:href="https://github.com/conda-forge/hoomd-feedstock" xlink:title="hoomd">
<ellipse fill="#fde725" stroke="black" cx="2271.26" cy="-242" rx="42.49" ry="18"/>
<text text-anchor="middle" x="2271.26" y="-238.3" font-family="Times,serif" font-size="14.00">hoomd</text>
</a>
</g>
</g>
<!-- hoomd&#45;dlext -->
<g id="node16" class="node">
<title>hoomd&#45;dlext</title>
<g id="a_node16"><a xlink:href="https://github.com/conda-forge/hoomd-dlext-feedstock" xlink:title="hoomd dlext">
<ellipse fill="#fde725" stroke="black" cx="2271.26" cy="-170" rx="68.49" ry="18"/>
<text text-anchor="middle" x="2271.26" y="-166.3" font-family="Times,serif" font-size="14.00">hoomd dlext</text>
</a>
</g>
</g>
<!-- hoomd&#45;&gt;hoomd&#45;dlext -->
<g id="edge13" class="edge">
<title>hoomd&#45;&gt;hoomd&#45;dlext</title>
<path fill="none" stroke="black" d="M2271.26,-223.7C2271.26,-215.98 2271.26,-206.71 2271.26,-198.11"/>
<polygon fill="black" stroke="black" points="2274.76,-198.1 2271.26,-188.1 2267.76,-198.1 2274.76,-198.1"/>
</g>
<!-- pytorch&#45;cpu -->
<g id="node17" class="node">
<title>pytorch&#45;cpu</title>
<g id="a_node17"><a xlink:href="https://github.com/conda-forge/pytorch-cpu-feedstock" xlink:title="pytorch cpu">
<ellipse fill="#fde725" stroke="black" cx="1242.26" cy="-934" rx="65.79" ry="18"/>
<text text-anchor="middle" x="1242.26" y="-930.3" font-family="Times,serif" font-size="14.00">pytorch cpu</text>
</a>
</g>
</g>
<!-- pytorch&#45;cpu&#45;&gt;torchvision -->
<g id="edge14" class="edge">
<title>pytorch&#45;cpu&#45;&gt;torchvision</title>
<path fill="none" stroke="black" d="M1177.26,-930.73C1056.53,-925.89 789.75,-912.23 567.26,-880 559.65,-878.9 551.68,-877.5 543.85,-875.98"/>
<polygon fill="black" stroke="black" points="544.52,-872.55 534.03,-874.01 543.14,-879.41 544.52,-872.55"/>
</g>
<!-- pytorch&#45;cpu&#45;&gt;detectron2 -->
<g id="edge15" class="edge">
<title>pytorch&#45;cpu&#45;&gt;detectron2</title>
<path fill="none" stroke="black" d="M1177.23,-931.22C1039.12,-926.85 720.81,-913.37 618.26,-880 616.71,-879.5 548.54,-838.07 505.59,-811.92"/>
<polygon fill="black" stroke="black" points="507.2,-808.8 496.84,-806.59 503.56,-814.78 507.2,-808.8"/>
</g>
<!-- pytorch&#45;cpu&#45;&gt;fcos -->
<g id="edge16" class="edge">
<title>pytorch&#45;cpu&#45;&gt;fcos</title>
<path fill="none" stroke="black" d="M1176.58,-933.53C978.65,-934.51 390.29,-932.78 207.26,-880 156.63,-865.4 104.58,-832.13 74.38,-810.65"/>
<polygon fill="black" stroke="black" points="76.26,-807.69 66.1,-804.67 72.16,-813.37 76.26,-807.69"/>
</g>
<!-- pytorch&#45;cpu&#45;&gt;fairscale -->
<g id="edge17" class="edge">
<title>pytorch&#45;cpu&#45;&gt;fairscale</title>
<path fill="none" stroke="black" d="M1176.74,-931.87C963.53,-927.89 301.43,-912.92 270.26,-880 253.4,-862.2 267.28,-835.04 281.86,-815.4"/>
<polygon fill="black" stroke="black" points="284.64,-817.52 288.07,-807.5 279.14,-813.2 284.64,-817.52"/>
</g>
<!-- pytorch&#45;cpu&#45;&gt;graphvite -->
<g id="edge18" class="edge">
<title>pytorch&#45;cpu&#45;&gt;graphvite</title>
<path fill="none" stroke="black" d="M1177.4,-930.85C1032.29,-925.53 690.75,-909.96 648.26,-880 627.8,-865.58 617.31,-838.33 612.1,-817.77"/>
<polygon fill="black" stroke="black" points="615.51,-816.99 609.88,-808.01 608.68,-818.54 615.51,-816.99"/>
</g>
<!-- pytorch&#45;cpu&#45;&gt;mmcv&#45;recipe -->
<g id="edge19" class="edge">
<title>pytorch&#45;cpu&#45;&gt;mmcv&#45;recipe</title>
<path fill="none" stroke="black" d="M1176.9,-932.08C970.79,-928.82 343.06,-916.02 259.26,-880 227.54,-866.37 200.04,-837.05 183.12,-815.78"/>
<polygon fill="black" stroke="black" points="185.83,-813.57 176.95,-807.79 180.29,-817.85 185.83,-813.57"/>
</g>
<!-- pytorch&#45;cpu&#45;&gt;autogluon.multimodal -->
<g id="edge20" class="edge">
<title>pytorch&#45;cpu&#45;&gt;autogluon.multimodal</title>
<path fill="none" stroke="black" d="M1176.75,-931.81C952.85,-927.47 226.33,-911.12 126.26,-880 68.31,-861.98 39.76,-861.03 10.26,-808 2.48,-794.02 0,-784.28 10.26,-772 33.01,-744.77 115.63,-731.5 187.36,-725.05"/>
<polygon fill="black" stroke="black" points="187.74,-728.53 197.4,-724.19 187.14,-721.56 187.74,-728.53"/>
</g>
<!-- nvidia&#45;apex -->
<g id="node18" class="node">
<title>nvidia&#45;apex</title>
<g id="a_node18"><a xlink:href="https://github.com/conda-forge/nvidia-apex-feedstock" xlink:title="nvidia apex">
<ellipse fill="#fde725" stroke="black" cx="343.26" cy="-862" rx="63.89" ry="18"/>
<text text-anchor="middle" x="343.26" y="-858.3" font-family="Times,serif" font-size="14.00">nvidia apex</text>
</a>
</g>
</g>
<!-- pytorch&#45;cpu&#45;&gt;nvidia&#45;apex -->
<g id="edge21" class="edge">
<title>pytorch&#45;cpu&#45;&gt;nvidia&#45;apex</title>
<path fill="none" stroke="black" d="M1176.73,-932.53C1036.35,-930.7 696.48,-921.91 415.26,-880 409.78,-879.18 404.1,-878.16 398.45,-877.02"/>
<polygon fill="black" stroke="black" points="398.86,-873.53 388.35,-874.87 397.4,-880.38 398.86,-873.53"/>
</g>
<!-- pytorch_cluster -->
<g id="node19" class="node">
<title>pytorch_cluster</title>
<g id="a_node19"><a xlink:href="https://github.com/conda-forge/pytorch_cluster-feedstock" xlink:title="pytorch_cluster">
<ellipse fill="#fde725" stroke="black" cx="888.26" cy="-790" rx="83.39" ry="18"/>
<text text-anchor="middle" x="888.26" y="-786.3" font-family="Times,serif" font-size="14.00">pytorch_cluster</text>
</a>
</g>
</g>
<!-- pytorch&#45;cpu&#45;&gt;pytorch_cluster -->
<g id="edge22" class="edge">
<title>pytorch&#45;cpu&#45;&gt;pytorch_cluster</title>
<path fill="none" stroke="black" d="M1177.73,-930.37C1122.03,-925.76 1040.88,-913.32 978.26,-880 949.1,-864.49 923.16,-836.51 906.71,-816.06"/>
<polygon fill="black" stroke="black" points="909.38,-813.8 900.46,-808.08 903.87,-818.11 909.38,-813.8"/>
</g>
<!-- pytorch_scatter -->
<g id="node20" class="node">
<title>pytorch_scatter</title>
<g id="a_node20"><a xlink:href="https://github.com/conda-forge/pytorch_scatter-feedstock" xlink:title="pytorch_scatter">
<ellipse fill="#fde725" stroke="black" cx="926.26" cy="-718" rx="83.39" ry="18"/>
<text text-anchor="middle" x="926.26" y="-714.3" font-family="Times,serif" font-size="14.00">pytorch_scatter</text>
</a>
</g>
</g>
<!-- pytorch&#45;cpu&#45;&gt;pytorch_scatter -->
<g id="edge23" class="edge">
<title>pytorch&#45;cpu&#45;&gt;pytorch_scatter</title>
<path fill="none" stroke="black" d="M1183.52,-925.79C1124.99,-917.48 1040.44,-902.07 1016.26,-880 978.88,-845.89 1007.06,-814.92 980.26,-772 973.46,-761.12 963.99,-750.83 954.88,-742.26"/>
<polygon fill="black" stroke="black" points="957.14,-739.59 947.37,-735.49 952.46,-744.79 957.14,-739.59"/>
</g>
<!-- pytorch_spline_conv -->
<g id="node21" class="node">
<title>pytorch_spline_conv</title>
<g id="a_node21"><a xlink:href="https://github.com/conda-forge/pytorch_spline_conv-feedstock" xlink:title="pytorch_spline_conv">
<ellipse fill="#fde725" stroke="black" cx="1130.26" cy="-646" rx="104.78" ry="18"/>
<text text-anchor="middle" x="1130.26" y="-642.3" font-family="Times,serif" font-size="14.00">pytorch_spline_conv</text>
</a>
</g>
</g>
<!-- pytorch&#45;cpu&#45;&gt;pytorch_spline_conv -->
<g id="edge24" class="edge">
<title>pytorch&#45;cpu&#45;&gt;pytorch_spline_conv</title>
<path fill="none" stroke="black" d="M1242.86,-915.74C1242.65,-896.32 1239.52,-864.78 1223.26,-844 1200.71,-815.2 1170.44,-837.81 1149.26,-808 1121.09,-768.35 1122.29,-708.87 1126.05,-674.4"/>
<polygon fill="black" stroke="black" points="1129.56,-674.5 1127.32,-664.14 1122.62,-673.64 1129.56,-674.5"/>
</g>
<!-- pytorch_sparse -->
<g id="node22" class="node">
<title>pytorch_sparse</title>
<g id="a_node22"><a xlink:href="https://github.com/conda-forge/pytorch_sparse-feedstock" xlink:title="pytorch_sparse">
<ellipse fill="#fde725" stroke="black" cx="926.26" cy="-646" rx="81.49" ry="18"/>
<text text-anchor="middle" x="926.26" y="-642.3" font-family="Times,serif" font-size="14.00">pytorch_sparse</text>
</a>
</g>
</g>
<!-- pytorch&#45;cpu&#45;&gt;pytorch_sparse -->
<g id="edge25" class="edge">
<title>pytorch&#45;cpu&#45;&gt;pytorch_sparse</title>
<path fill="none" stroke="black" d="M1186.21,-924.42C1136.02,-915.56 1067.58,-900.2 1049.26,-880 994.72,-819.87 1064.72,-766.57 1018.26,-700 1008.03,-685.34 992.35,-674.18 976.81,-665.98"/>
<polygon fill="black" stroke="black" points="978.24,-662.78 967.73,-661.48 975.14,-669.05 978.24,-662.78"/>
</g>
<!-- torchani -->
<g id="node23" class="node">
<title>torchani</title>
<g id="a_node23"><a xlink:href="https://github.com/conda-forge/torchani-feedstock" xlink:title="torchani">
<ellipse fill="#fde725" stroke="black" cx="1396.26" cy="-574" rx="49.5" ry="18"/>
<text text-anchor="middle" x="1396.26" y="-570.3" font-family="Times,serif" font-size="14.00">torchani</text>
</a>
</g>
</g>
<!-- pytorch&#45;cpu&#45;&gt;torchani -->
<g id="edge26" class="edge">
<title>pytorch&#45;cpu&#45;&gt;torchani</title>
<path fill="none" stroke="black" d="M1279.4,-919.1C1297.78,-910.46 1318.85,-897.6 1332.26,-880 1357.08,-847.41 1356.26,-831.97 1356.26,-791 1356.26,-791 1356.26,-791 1356.26,-717 1356.26,-675.48 1372.29,-629.61 1384.06,-601.54"/>
<polygon fill="black" stroke="black" points="1387.41,-602.62 1388.16,-592.05 1380.98,-599.84 1387.41,-602.62"/>
</g>
<!-- openmm&#45;torch -->
<g id="node24" class="node">
<title>openmm&#45;torch</title>
<g id="a_node24"><a xlink:href="https://github.com/conda-forge/openmm-torch-feedstock" xlink:title="openmm torch">
<ellipse fill="#fde725" stroke="black" cx="1136.26" cy="-862" rx="78" ry="18"/>
<text text-anchor="middle" x="1136.26" y="-858.3" font-family="Times,serif" font-size="14.00">openmm torch</text>
</a>
</g>
</g>
<!-- pytorch&#45;cpu&#45;&gt;openmm&#45;torch -->
<g id="edge27" class="edge">
<title>pytorch&#45;cpu&#45;&gt;openmm&#45;torch</title>
<path fill="none" stroke="black" d="M1218.2,-917.12C1203.77,-907.59 1185.21,-895.33 1169.41,-884.89"/>
<polygon fill="black" stroke="black" points="1171.22,-881.9 1160.95,-879.31 1167.37,-887.74 1171.22,-881.9"/>
</g>
<!-- torchsparse -->
<g id="node25" class="node">
<title>torchsparse</title>
<g id="a_node25"><a xlink:href="https://github.com/conda-forge/torchsparse-feedstock" xlink:title="torchsparse">
<ellipse fill="#fde725" stroke="black" cx="1224.26" cy="-790" rx="65.79" ry="18"/>
<text text-anchor="middle" x="1224.26" y="-786.3" font-family="Times,serif" font-size="14.00">torchsparse</text>
</a>
</g>
</g>
<!-- pytorch&#45;cpu&#45;&gt;torchsparse -->
<g id="edge28" class="edge">
<title>pytorch&#45;cpu&#45;&gt;torchsparse</title>
<path fill="none" stroke="black" d="M1249.17,-916.02C1255.55,-897.93 1263.1,-868.56 1256.26,-844 1253.59,-834.42 1248.67,-824.84 1243.47,-816.51"/>
<polygon fill="black" stroke="black" points="1246.28,-814.41 1237.82,-808.03 1240.45,-818.29 1246.28,-814.41"/>
</g>
<!-- torch&#45;scatter -->
<g id="node26" class="node">
<title>torch&#45;scatter</title>
<g id="a_node26"><a xlink:href="https://github.com/conda-forge/torch-scatter-feedstock" xlink:title="torch scatter">
<ellipse fill="#fde725" stroke="black" cx="1455.26" cy="-718" rx="71" ry="18"/>
<text text-anchor="middle" x="1455.26" y="-714.3" font-family="Times,serif" font-size="14.00">torch scatter</text>
</a>
</g>
</g>
<!-- pytorch&#45;cpu&#45;&gt;torch&#45;scatter -->
<g id="edge29" class="edge">
<title>pytorch&#45;cpu&#45;&gt;torch&#45;scatter</title>
<path fill="none" stroke="black" d="M1290.43,-921.67C1316.5,-913.57 1347.85,-900.41 1370.26,-880 1411.3,-842.61 1436.04,-780.73 1447.53,-745.57"/>
<polygon fill="black" stroke="black" points="1450.88,-746.58 1450.54,-735.99 1444.2,-744.48 1450.88,-746.58"/>
</g>
<!-- kaolin -->
<g id="node27" class="node">
<title>kaolin</title>
<g id="a_node27"><a xlink:href="https://github.com/conda-forge/kaolin-feedstock" xlink:title="kaolin">
<ellipse fill="#fde725" stroke="black" cx="1623.26" cy="-646" rx="38.5" ry="18"/>
<text text-anchor="middle" x="1623.26" y="-642.3" font-family="Times,serif" font-size="14.00">kaolin</text>
</a>
</g>
</g>
<!-- pytorch&#45;cpu&#45;&gt;kaolin -->
<g id="edge30" class="edge">
<title>pytorch&#45;cpu&#45;&gt;kaolin</title>
<path fill="none" stroke="black" d="M1305.47,-929.11C1412.39,-921.89 1619.5,-904.84 1641.26,-880 1647.94,-872.37 1633.19,-734.38 1626.42,-674.43"/>
<polygon fill="black" stroke="black" points="1629.86,-673.73 1625.26,-664.19 1622.91,-674.53 1629.86,-673.73"/>
</g>
<!-- nnpops -->
<g id="node28" class="node">
<title>nnpops</title>
<g id="a_node28"><a xlink:href="https://github.com/conda-forge/nnpops-feedstock" xlink:title="nnpops">
<ellipse fill="#fde725" stroke="black" cx="1357.26" cy="-502" rx="44.39" ry="18"/>
<text text-anchor="middle" x="1357.26" y="-498.3" font-family="Times,serif" font-size="14.00">nnpops</text>
</a>
</g>
</g>
<!-- pytorch&#45;cpu&#45;&gt;nnpops -->
<g id="edge31" class="edge">
<title>pytorch&#45;cpu&#45;&gt;nnpops</title>
<path fill="none" stroke="black" d="M1258.38,-916.19C1280.68,-891.09 1318.26,-841.33 1318.26,-791 1318.26,-791 1318.26,-791 1318.26,-645 1318.26,-603.56 1333.89,-557.67 1345.36,-529.58"/>
<polygon fill="black" stroke="black" points="1348.71,-530.65 1349.37,-520.07 1342.26,-527.93 1348.71,-530.65"/>
</g>
<!-- triton -->
<g id="node29" class="node">
<title>triton</title>
<g id="a_node29"><a xlink:href="https://github.com/conda-forge/triton-feedstock" xlink:title="triton">
<ellipse fill="#fde725" stroke="black" cx="1838.26" cy="-574" rx="37.09" ry="18"/>
<text text-anchor="middle" x="1838.26" y="-570.3" font-family="Times,serif" font-size="14.00">triton</text>
</a>
</g>
</g>
<!-- pytorch&#45;cpu&#45;&gt;triton -->
<g id="edge32" class="edge">
<title>pytorch&#45;cpu&#45;&gt;triton</title>
<path fill="none" stroke="black" d="M1306.94,-930.79C1443.41,-925.55 1751.24,-910.47 1787.26,-880 1818.53,-853.54 1811.26,-831.97 1811.26,-791 1811.26,-791 1811.26,-791 1811.26,-717 1811.26,-676.28 1822.11,-630.13 1830.05,-601.79"/>
<polygon fill="black" stroke="black" points="1833.51,-602.43 1832.92,-591.85 1826.78,-600.49 1833.51,-602.43"/>
</g>
<!-- openmmtorchplugin -->
<g id="node30" class="node">
<title>openmmtorchplugin</title>
<g id="a_node30"><a xlink:href="https://github.com/conda-forge/openmmtorchplugin-feedstock" xlink:title="openmmtorchplugin">
<ellipse fill="#fde725" stroke="black" cx="1527.26" cy="-862" rx="104.78" ry="18"/>
<text text-anchor="middle" x="1527.26" y="-858.3" font-family="Times,serif" font-size="14.00">openmmtorchplugin</text>
</a>
</g>
</g>
<!-- pytorch&#45;cpu&#45;&gt;openmmtorchplugin -->
<g id="edge33" class="edge">
<title>pytorch&#45;cpu&#45;&gt;openmmtorchplugin</title>
<path fill="none" stroke="black" d="M1289.32,-921.44C1335.81,-910.02 1407.38,-892.44 1459.89,-879.55"/>
<polygon fill="black" stroke="black" points="1460.92,-882.9 1469.79,-877.11 1459.25,-876.1 1460.92,-882.9"/>
</g>
<!-- molgrid -->
<g id="node31" class="node">
<title>molgrid</title>
<g id="a_node31"><a xlink:href="https://github.com/conda-forge/molgrid-feedstock" xlink:title="molgrid">
<ellipse fill="#fde725" stroke="black" cx="1698.26" cy="-790" rx="47" ry="18"/>
<text text-anchor="middle" x="1698.26" y="-786.3" font-family="Times,serif" font-size="14.00">molgrid</text>
</a>
</g>
</g>
<!-- pytorch&#45;cpu&#45;&gt;molgrid -->
<g id="edge34" class="edge">
<title>pytorch&#45;cpu&#45;&gt;molgrid</title>
<path fill="none" stroke="black" d="M1308.29,-933.62C1415.53,-933.22 1620.97,-926.24 1674.26,-880 1691.67,-864.89 1697.09,-838.59 1698.49,-818.48"/>
<polygon fill="black" stroke="black" points="1702,-818.48 1698.91,-808.35 1695,-818.2 1702,-818.48"/>
</g>
<!-- theseus&#45;ai -->
<g id="node32" class="node">
<title>theseus&#45;ai</title>
<g id="a_node32"><a xlink:href="https://github.com/conda-forge/theseus-ai-feedstock" xlink:title="theseus ai">
<ellipse fill="#fde725" stroke="black" cx="1897.26" cy="-718" rx="58" ry="18"/>
<text text-anchor="middle" x="1897.26" y="-714.3" font-family="Times,serif" font-size="14.00">theseus ai</text>
</a>
</g>
</g>
<!-- pytorch&#45;cpu&#45;&gt;theseus&#45;ai -->
<g id="edge35" class="edge">
<title>pytorch&#45;cpu&#45;&gt;theseus&#45;ai</title>
<path fill="none" stroke="black" d="M1307,-930.77C1450.09,-925.33 1783.84,-909.6 1825.26,-880 1869.47,-848.4 1886.99,-783.23 1893.57,-746.23"/>
<polygon fill="black" stroke="black" points="1897.06,-746.59 1895.22,-736.15 1890.15,-745.46 1897.06,-746.59"/>
</g>
<!-- pyg&#45;lib -->
<g id="node33" class="node">
<title>pyg&#45;lib</title>
<g id="a_node33"><a xlink:href="https://github.com/conda-forge/pyg-lib-feedstock" xlink:title="pyg lib">
<ellipse fill="#fde725" stroke="black" cx="1837.26" cy="-502" rx="42.49" ry="18"/>
<text text-anchor="middle" x="1837.26" y="-498.3" font-family="Times,serif" font-size="14.00">pyg lib</text>
</a>
</g>
</g>
<!-- pytorch&#45;cpu&#45;&gt;pyg&#45;lib -->
<g id="edge36" class="edge">
<title>pytorch&#45;cpu&#45;&gt;pyg&#45;lib</title>
<path fill="none" stroke="black" d="M1307.45,-931.35C1417.15,-927.61 1633.15,-915.8 1699.26,-880 1744.49,-855.5 1773.26,-842.44 1773.26,-791 1773.26,-791 1773.26,-791 1773.26,-645 1773.26,-604.55 1774.41,-592.29 1792.26,-556 1797.56,-545.22 1805.54,-534.81 1813.32,-526.11"/>
<polygon fill="black" stroke="black" points="1816.03,-528.34 1820.32,-518.65 1810.93,-523.55 1816.03,-528.34"/>
</g>
<!-- deepspeed -->
<g id="node34" class="node">
<title>deepspeed</title>
<g id="a_node34"><a xlink:href="https://github.com/conda-forge/deepspeed-feedstock" xlink:title="deepspeed">
<ellipse fill="#fde725" stroke="black" cx="1983.26" cy="-646" rx="60.5" ry="18"/>
<text text-anchor="middle" x="1983.26" y="-642.3" font-family="Times,serif" font-size="14.00">deepspeed</text>
</a>
</g>
</g>
<!-- pytorch&#45;cpu&#45;&gt;deepspeed -->
<g id="edge37" class="edge">
<title>pytorch&#45;cpu&#45;&gt;deepspeed</title>
<path fill="none" stroke="black" d="M1306.82,-930.38C1454.55,-923.96 1808.09,-906.05 1855.26,-880 1925.52,-841.2 1930.86,-808.99 1964.26,-736 1973.27,-716.3 1978.08,-692.18 1980.6,-674.02"/>
<polygon fill="black" stroke="black" points="1984.07,-674.45 1981.84,-664.09 1977.13,-673.58 1984.07,-674.45"/>
</g>
<!-- bitsandbytes -->
<g id="node35" class="node">
<title>bitsandbytes</title>
<g id="a_node35"><a xlink:href="https://github.com/conda-forge/bitsandbytes-feedstock" xlink:title="bitsandbytes">
<ellipse fill="#fde725" stroke="black" cx="2072.26" cy="-574" rx="71" ry="18"/>
<text text-anchor="middle" x="2072.26" y="-570.3" font-family="Times,serif" font-size="14.00">bitsandbytes</text>
</a>
</g>
</g>
<!-- pytorch&#45;cpu&#45;&gt;bitsandbytes -->
<g id="edge38" class="edge">
<title>pytorch&#45;cpu&#45;&gt;bitsandbytes</title>
<path fill="none" stroke="black" d="M1307.04,-930.87C1449.29,-925.68 1785.01,-910.51 1894.26,-880 1979.45,-856.21 2072.26,-879.45 2072.26,-791 2072.26,-791 2072.26,-791 2072.26,-717 2072.26,-677 2072.26,-630.65 2072.26,-602.08"/>
<polygon fill="black" stroke="black" points="2075.76,-602.05 2072.26,-592.05 2068.76,-602.05 2075.76,-602.05"/>
</g>
<!-- pytorch_scatter&#45;&gt;pytorch_sparse -->
<g id="edge39" class="edge">
<title>pytorch_scatter&#45;&gt;pytorch_sparse</title>
<path fill="none" stroke="black" d="M926.26,-699.7C926.26,-691.98 926.26,-682.71 926.26,-674.11"/>
<polygon fill="black" stroke="black" points="929.76,-674.1 926.26,-664.1 922.76,-674.1 929.76,-674.1"/>
</g>
<!-- torchani&#45;&gt;nnpops -->
<g id="edge40" class="edge">
<title>torchani&#45;&gt;nnpops</title>
<path fill="none" stroke="black" d="M1386.82,-556.05C1382.22,-547.8 1376.59,-537.7 1371.49,-528.54"/>
<polygon fill="black" stroke="black" points="1374.54,-526.82 1366.61,-519.79 1368.42,-530.23 1374.54,-526.82"/>
</g>
<!-- triton&#45;&gt;pyg&#45;lib -->
<g id="edge41" class="edge">
<title>triton&#45;&gt;pyg&#45;lib</title>
<path fill="none" stroke="black" d="M1838.01,-555.7C1837.9,-547.98 1837.77,-538.71 1837.64,-530.11"/>
<polygon fill="black" stroke="black" points="1841.14,-530.05 1837.5,-520.1 1834.15,-530.15 1841.14,-530.05"/>
</g>
<!-- stir -->
<g id="node36" class="node">
<title>stir</title>
<g id="a_node36"><a xlink:href="https://github.com/conda-forge/stir-feedstock" xlink:title="stir">
<ellipse fill="#fde725" stroke="black" cx="1071.26" cy="-18" rx="27" ry="18"/>
<text text-anchor="middle" x="1071.26" y="-14.3" font-family="Times,serif" font-size="14.00">stir</text>
</a>
</g>
</g>
<!-- meld -->
<g id="node44" class="node">
<title>meld</title>
<g id="a_node44"><a xlink:href="https://github.com/conda-forge/meld-feedstock" xlink:title="meld">
<ellipse fill="#fde725" stroke="black" cx="2271.26" cy="-682" rx="34" ry="18"/>
<text text-anchor="middle" x="2271.26" y="-678.3" font-family="Times,serif" font-size="14.00">meld</text>
</a>
</g>
</g>
<!-- openmm&#45;plumed&#45;&gt;meld -->
<!-- pp&#45;sketchlib -->
<g id="node38" class="node">
<title>pp&#45;sketchlib</title>
<g id="a_node38"><a xlink:href="https://github.com/conda-forge/pp-sketchlib-feedstock" xlink:title="pp sketchlib">
<ellipse fill="#fde725" stroke="black" cx="2550.26" cy="-242" rx="67.69" ry="18"/>
<text text-anchor="middle" x="2550.26" y="-238.3" font-family="Times,serif" font-size="14.00">pp sketchlib</text>
</a>
</g>
</g>
<!-- mandrake -->
<g id="node39" class="node">
<title>mandrake</title>
<g id="a_node39"><a xlink:href="https://github.com/conda-forge/mandrake-feedstock" xlink:title="mandrake">
<ellipse fill="#fde725" stroke="black" cx="2550.26" cy="-170" rx="57.39" ry="18"/>
<text text-anchor="middle" x="2550.26" y="-166.3" font-family="Times,serif" font-size="14.00">mandrake</text>
</a>
</g>
</g>
<!-- pp&#45;sketchlib&#45;&gt;mandrake -->
<g id="edge43" class="edge">
<title>pp&#45;sketchlib&#45;&gt;mandrake</title>
<path fill="none" stroke="black" d="M2550.26,-223.7C2550.26,-215.98 2550.26,-206.71 2550.26,-198.11"/>
<polygon fill="black" stroke="black" points="2553.76,-198.1 2550.26,-188.1 2546.76,-198.1 2553.76,-198.1"/>
</g>
<!-- faiss&#45;split -->
<g id="node40" class="node">
<title>faiss&#45;split</title>
<g id="a_node40"><a xlink:href="https://github.com/conda-forge/faiss-split-feedstock/pull/62" xlink:title="faiss split ❎">
<ellipse fill="#31688e" stroke="black" cx="727.26" cy="-862" rx="69.59" ry="18"/>
<text text-anchor="middle" x="727.26" y="-858.3" font-family="Times,serif" font-size="14.00" fill="white">faiss split ❎</text>
</a>
</g>
</g>
<!-- faiss&#45;split&#45;&gt;graphvite -->
<g id="edge44" class="edge">
<title>faiss&#45;split&#45;&gt;graphvite</title>
<path fill="none" stroke="black" d="M700.33,-845.29C683.11,-835.24 660.6,-822.12 642.03,-811.28"/>
<polygon fill="black" stroke="black" points="643.68,-808.19 633.27,-806.18 640.15,-814.24 643.68,-808.19"/>
</g>
<!-- tsnecuda -->
<g id="node41" class="node">
<title>tsnecuda</title>
<g id="a_node41"><a xlink:href="https://github.com/conda-forge/tsnecuda-feedstock" xlink:title="tsnecuda">
<ellipse fill="#fde725" stroke="black" cx="734.26" cy="-790" rx="52.79" ry="18"/>
<text text-anchor="middle" x="734.26" y="-786.3" font-family="Times,serif" font-size="14.00">tsnecuda</text>
</a>
</g>
</g>
<!-- faiss&#45;split&#45;&gt;tsnecuda -->
<g id="edge45" class="edge">
<title>faiss&#45;split&#45;&gt;tsnecuda</title>
<path fill="none" stroke="black" d="M728.99,-843.7C729.76,-835.98 730.69,-826.71 731.55,-818.11"/>
<polygon fill="black" stroke="black" points="735.03,-818.4 732.55,-808.1 728.07,-817.71 735.03,-818.4"/>
</g>
<!-- libtvm -->
<g id="node42" class="node">
<title>libtvm</title>
<g id="a_node42"><a xlink:href="https://github.com/conda-forge/libtvm-feedstock" xlink:title="libtvm">
<ellipse fill="#fde725" stroke="black" cx="1938.26" cy="-502" rx="40.5" ry="18"/>
<text text-anchor="middle" x="1938.26" y="-498.3" font-family="Times,serif" font-size="14.00">libtvm</text>
</a>
</g>
</g>
<!-- tvm&#45;py -->
<g id="node43" class="node">
<title>tvm&#45;py</title>
<g id="a_node43"><a xlink:href="https://github.com/conda-forge/tvm-py-feedstock" xlink:title="tvm py">
<ellipse fill="#fde725" stroke="black" cx="1938.26" cy="-430" rx="43" ry="18"/>
<text text-anchor="middle" x="1938.26" y="-426.3" font-family="Times,serif" font-size="14.00">tvm py</text>
</a>
</g>
</g>
<!-- libtvm&#45;&gt;tvm&#45;py -->
<g id="edge46" class="edge">
<title>libtvm&#45;&gt;tvm&#45;py</title>
<path fill="none" stroke="black" d="M1938.26,-483.7C1938.26,-475.98 1938.26,-466.71 1938.26,-458.11"/>
<polygon fill="black" stroke="black" points="1941.76,-458.1 1938.26,-448.1 1934.76,-458.1 1941.76,-458.1"/>
</g>
<!-- cudadecon -->
<g id="node45" class="node">
<title>cudadecon</title>
<g id="a_node45"><a xlink:href="https://github.com/conda-forge/cudadecon-feedstock" xlink:title="cudadecon">
<ellipse fill="#fde725" stroke="black" cx="2271.26" cy="-610" rx="60" ry="18"/>
<text text-anchor="middle" x="2271.26" y="-606.3" font-family="Times,serif" font-size="14.00">cudadecon</text>
</a>
</g>
</g>
<!-- meld&#45;&gt;cudadecon -->
<!-- cudasirecon -->
<g id="node46" class="node">
<title>cudasirecon</title>
<g id="a_node46"><a xlink:href="https://github.com/conda-forge/cudasirecon-feedstock" xlink:title="cudasirecon">
<ellipse fill="#fde725" stroke="black" cx="2271.26" cy="-538" rx="66.5" ry="18"/>
<text text-anchor="middle" x="2271.26" y="-534.3" font-family="Times,serif" font-size="14.00">cudasirecon</text>
</a>
</g>
</g>
<!-- cudadecon&#45;&gt;cudasirecon -->
<!-- timemory -->
<g id="node47" class="node">
<title>timemory</title>
<g id="a_node47"><a xlink:href="https://github.com/conda-forge/timemory-feedstock" xlink:title="timemory">
<ellipse fill="#fde725" stroke="black" cx="2271.26" cy="-466" rx="56" ry="18"/>
<text text-anchor="middle" x="2271.26" y="-462.3" font-family="Times,serif" font-size="14.00">timemory</text>
</a>
</g>
</g>
<!-- cudasirecon&#45;&gt;timemory -->
<!-- seekr2_openmm_plugin -->
<g id="node48" class="node">
<title>seekr2_openmm_plugin</title>
<g id="a_node48"><a xlink:href="https://github.com/conda-forge/seekr2_openmm_plugin-feedstock" xlink:title="seekr2_openmm_plugin">
<ellipse fill="#fde725" stroke="black" cx="2271.26" cy="-394" rx="120.48" ry="18"/>
<text text-anchor="middle" x="2271.26" y="-390.3" font-family="Times,serif" font-size="14.00">seekr2_openmm_plugin</text>
</a>
</g>
</g>
<!-- timemory&#45;&gt;seekr2_openmm_plugin -->
<!-- gromacs -->
<g id="node51" class="node">
<title>gromacs</title>
<g id="a_node51"><a xlink:href="https://github.com/conda-forge/gromacs-feedstock" xlink:title="gromacs">
<ellipse fill="#fde725" stroke="black" cx="2271.26" cy="-322" rx="50.09" ry="18"/>
<text text-anchor="middle" x="2271.26" y="-318.3" font-family="Times,serif" font-size="14.00">gromacs</text>
</a>
</g>
</g>
<!-- seekr2_openmm_plugin&#45;&gt;gromacs -->
<!-- colmap -->
<g id="node49" class="node">
<title>colmap</title>
<g id="a_node49"><a xlink:href="https://github.com/conda-forge/colmap-feedstock" xlink:title="colmap">
<ellipse fill="#fde725" stroke="black" cx="2271.26" cy="-90" rx="44.39" ry="18"/>
<text text-anchor="middle" x="2271.26" y="-86.3" font-family="Times,serif" font-size="14.00">colmap</text>
</a>
</g>
</g>
<!-- pycolmap -->
<g id="node50" class="node">
<title>pycolmap</title>
<g id="a_node50"><a xlink:href="https://github.com/conda-forge/pycolmap-feedstock" xlink:title="pycolmap">
<ellipse fill="#fde725" stroke="black" cx="2271.26" cy="-18" rx="55.49" ry="18"/>
<text text-anchor="middle" x="2271.26" y="-14.3" font-family="Times,serif" font-size="14.00">pycolmap</text>
</a>
</g>
</g>
<!-- colmap&#45;&gt;pycolmap -->
<g id="edge52" class="edge">
<title>colmap&#45;&gt;pycolmap</title>
<path fill="none" stroke="black" d="M2271.26,-71.7C2271.26,-63.98 2271.26,-54.71 2271.26,-46.11"/>
<polygon fill="black" stroke="black" points="2274.76,-46.1 2271.26,-36.1 2267.76,-46.1 2274.76,-46.1"/>
</g>
<!-- cutlass -->
<g id="node52" class="node">
<title>cutlass</title>
<g id="a_node52"><a xlink:href="https://github.com/conda-forge/cutlass-feedstock" xlink:title="cutlass">
<ellipse fill="#fde725" stroke="black" cx="1938.26" cy="-574" rx="43.59" ry="18"/>
<text text-anchor="middle" x="1938.26" y="-570.3" font-family="Times,serif" font-size="14.00">cutlass</text>
</a>
</g>
</g>
<!-- cutlass&#45;&gt;pyg&#45;lib -->
<g id="edge54" class="edge">
<title>cutlass&#45;&gt;pyg&#45;lib</title>
<path fill="none" stroke="black" d="M1916.84,-558.15C1902.38,-548.13 1883.09,-534.76 1867.12,-523.7"/>
<polygon fill="black" stroke="black" points="1868.86,-520.64 1858.65,-517.82 1864.87,-526.4 1868.86,-520.64"/>
</g>
<!-- cutlass&#45;&gt;libtvm -->
<g id="edge55" class="edge">
<title>cutlass&#45;&gt;libtvm</title>
<path fill="none" stroke="black" d="M1938.26,-555.7C1938.26,-547.98 1938.26,-538.71 1938.26,-530.11"/>
<polygon fill="black" stroke="black" points="1941.76,-530.1 1938.26,-520.1 1934.76,-530.1 1941.76,-530.1"/>
</g>
<!-- pyscamp&#45;gpu -->
<g id="node53" class="node">
<title>pyscamp&#45;gpu</title>
<g id="a_node53"><a xlink:href="https://github.com/conda-forge/pyscamp-gpu-feedstock" xlink:title="pyscamp gpu">
<ellipse fill="#fde725" stroke="black" cx="2550.26" cy="-970" rx="72.29" ry="18"/>
<text text-anchor="middle" x="2550.26" y="-966.3" font-family="Times,serif" font-size="14.00">pyscamp gpu</text>
</a>
</g>
</g>
<!-- openmm&#45;atmmetaforce&#45;plugin -->
<g id="node54" class="node">
<title>openmm&#45;atmmetaforce&#45;plugin</title>
<g id="a_node54"><a xlink:href="https://github.com/conda-forge/openmm-atmmetaforce-plugin-feedstock" xlink:title="openmm atmmetaforce plugin">
<ellipse fill="#fde725" stroke="black" cx="2550.26" cy="-898" rx="151" ry="18"/>
<text text-anchor="middle" x="2550.26" y="-894.3" font-family="Times,serif" font-size="14.00">openmm atmmetaforce plugin</text>
</a>
</g>
</g>
<!-- pyscamp&#45;gpu&#45;&gt;openmm&#45;atmmetaforce&#45;plugin -->
<!-- heavydb&#45;ext -->
<g id="node55" class="node">
<title>heavydb&#45;ext</title>
<g id="a_node55"><a xlink:href="https://github.com/conda-forge/heavydb-ext-feedstock" xlink:title="heavydb ext">
<ellipse fill="#fde725" stroke="black" cx="2550.26" cy="-826" rx="67.69" ry="18"/>
<text text-anchor="middle" x="2550.26" y="-822.3" font-family="Times,serif" font-size="14.00">heavydb ext</text>
</a>
</g>
</g>
<!-- openmm&#45;atmmetaforce&#45;plugin&#45;&gt;heavydb&#45;ext -->
<!-- openmm&#45;dlext -->
<g id="node56" class="node">
<title>openmm&#45;dlext</title>
<g id="a_node56"><a xlink:href="https://github.com/conda-forge/openmm-dlext-feedstock" xlink:title="openmm dlext">
<ellipse fill="#fde725" stroke="black" cx="2550.26" cy="-754" rx="77.5" ry="18"/>
<text text-anchor="middle" x="2550.26" y="-750.3" font-family="Times,serif" font-size="14.00">openmm dlext</text>
</a>
</g>
</g>
<!-- heavydb&#45;ext&#45;&gt;openmm&#45;dlext -->
<!-- hdk -->
<g id="node57" class="node">
<title>hdk</title>
<g id="a_node57"><a xlink:href="https://github.com/conda-forge/hdk-feedstock" xlink:title="hdk">
<ellipse fill="#fde725" stroke="black" cx="2550.26" cy="-682" rx="28" ry="18"/>
<text text-anchor="middle" x="2550.26" y="-678.3" font-family="Times,serif" font-size="14.00">hdk</text>
</a>
</g>
</g>
<!-- openmm&#45;dlext&#45;&gt;hdk -->
<!-- cyrsoxs -->
<g id="node58" class="node">
<title>cyrsoxs</title>
<g id="a_node58"><a xlink:href="https://github.com/conda-forge/cyrsoxs-feedstock" xlink:title="cyrsoxs">
<ellipse fill="#fde725" stroke="black" cx="2550.26" cy="-610" rx="46.29" ry="18"/>
<text text-anchor="middle" x="2550.26" y="-606.3" font-family="Times,serif" font-size="14.00">cyrsoxs</text>
</a>
</g>
</g>
<!-- hdk&#45;&gt;cyrsoxs -->
<!-- katago -->
<g id="node59" class="node">
<title>katago</title>
<g id="a_node59"><a xlink:href="https://github.com/conda-forge/katago-feedstock" xlink:title="katago">
<ellipse fill="#fde725" stroke="black" cx="2550.26" cy="-538" rx="42.49" ry="18"/>
<text text-anchor="middle" x="2550.26" y="-534.3" font-family="Times,serif" font-size="14.00">katago</text>
</a>
</g>
</g>
<!-- cyrsoxs&#45;&gt;katago -->
<!-- nyxus -->
<g id="node60" class="node">
<title>nyxus</title>
<g id="a_node60"><a xlink:href="https://github.com/conda-forge/nyxus-feedstock" xlink:title="nyxus">
<ellipse fill="#fde725" stroke="black" cx="2550.26" cy="-466" rx="38.5" ry="18"/>
<text text-anchor="middle" x="2550.26" y="-462.3" font-family="Times,serif" font-size="14.00">nyxus</text>
</a>
</g>
</g>
<!-- katago&#45;&gt;nyxus -->
<!-- tomocupy -->
<g id="node61" class="node">
<title>tomocupy</title>
<g id="a_node61"><a xlink:href="https://github.com/conda-forge/tomocupy-feedstock" xlink:title="tomocupy">
<ellipse fill="#fde725" stroke="black" cx="2550.26" cy="-394" rx="56" ry="18"/>
<text text-anchor="middle" x="2550.26" y="-390.3" font-family="Times,serif" font-size="14.00">tomocupy</text>
</a>
</g>
</g>
<!-- nyxus&#45;&gt;tomocupy -->
<!-- parallelproj -->
<g id="node62" class="node">
<title>parallelproj</title>
<g id="a_node62"><a xlink:href="https://github.com/conda-forge/parallelproj-feedstock" xlink:title="parallelproj">
<ellipse fill="#fde725" stroke="black" cx="1071.26" cy="-90" rx="64.5" ry="18"/>
<text text-anchor="middle" x="1071.26" y="-86.3" font-family="Times,serif" font-size="14.00">parallelproj</text>
</a>
</g>
</g>
<!-- parallelproj&#45;&gt;stir -->
<g id="edge64" class="edge">
<title>parallelproj&#45;&gt;stir</title>
<path fill="none" stroke="black" d="M1071.26,-71.7C1071.26,-63.98 1071.26,-54.71 1071.26,-46.11"/>
<polygon fill="black" stroke="black" points="1074.76,-46.1 1071.26,-36.1 1067.76,-46.1 1074.76,-46.1"/>
</g>
</g>
</svg>
