<?xml version="1.0" encoding="UTF-8" standalone="no"?>
<!DOCTYPE svg PUBLIC "-//W3C//DTD SVG 1.1//EN"
 "http://www.w3.org/Graphics/SVG/1.1/DTD/svg11.dtd">
<!-- Generated by graphviz version 7.1.0 (20230122.1345)
 -->
<!-- Pages: 1 -->
<svg width="2860pt" height="996pt"
 viewBox="0.00 0.00 2859.74 996.00" xmlns="http://www.w3.org/2000/svg" xmlns:xlink="http://www.w3.org/1999/xlink">
<g id="graph0" class="graph" transform="scale(1 1) rotate(0) translate(4 992)">
<polygon fill="white" stroke="none" points="-4,4 -4,-992 2855.74,-992 2855.74,4 -4,4"/>
<!-- implicit -->
<g id="node1" class="node">
<title>implicit</title>
<g id="a_node1"><a xlink:href="https://github.com/conda-forge/implicit-feedstock" xlink:title="implicit">
<ellipse fill="#fde725" stroke="black" cx="2610.24" cy="-970" rx="46.29" ry="18"/>
<text text-anchor="middle" x="2610.24" y="-966.3" font-family="Times,serif" font-size="14.00">implicit</text>
</a>
</g>
</g>
<!-- xgboost -->
<g id="node2" class="node">
<title>xgboost</title>
<g id="a_node2"><a xlink:href="https://github.com/conda-forge/xgboost-feedstock" xlink:title="xgboost">
<ellipse fill="#000000" stroke="black" cx="2610.24" cy="-898" rx="47.5" ry="18"/>
<text text-anchor="middle" x="2610.24" y="-894.3" font-family="Times,serif" font-size="14.00" fill="white">xgboost</text>
</a>
</g>
</g>
<!-- implicit&#45;&gt;xgboost -->
<!-- conda&#45;forge&#45;ci&#45;setup -->
<g id="node11" class="node">
<title>conda&#45;forge&#45;ci&#45;setup</title>
<g id="a_node11"><a xlink:href="https://github.com/conda-forge/conda-forge-ci-setup-feedstock" xlink:title="conda forge ci setup">
<ellipse fill="#000000" stroke="black" cx="2610.24" cy="-826" rx="104.78" ry="18"/>
<text text-anchor="middle" x="2610.24" y="-822.3" font-family="Times,serif" font-size="14.00" fill="white">conda forge ci setup</text>
</a>
</g>
</g>
<!-- xgboost&#45;&gt;conda&#45;forge&#45;ci&#45;setup -->
<!-- kaldi -->
<g id="node3" class="node">
<title>kaldi</title>
<g id="a_node3"><a xlink:href="https://github.com/conda-forge/kaldi-feedstock" xlink:title="kaldi">
<ellipse fill="#fde725" stroke="black" cx="909.24" cy="-790" rx="33.29" ry="18"/>
<text text-anchor="middle" x="909.24" y="-786.3" font-family="Times,serif" font-size="14.00">kaldi</text>
</a>
</g>
</g>
<!-- torchvision -->
<g id="node4" class="node">
<title>torchvision</title>
<g id="a_node4"><a xlink:href="https://github.com/conda-forge/torchvision-feedstock" xlink:title="torchvision">
<ellipse fill="#fde725" stroke="black" cx="1078.24" cy="-718" rx="62.5" ry="18"/>
<text text-anchor="middle" x="1078.24" y="-714.3" font-family="Times,serif" font-size="14.00">torchvision</text>
</a>
</g>
</g>
<!-- detectron2 -->
<g id="node5" class="node">
<title>detectron2</title>
<g id="a_node5"><a xlink:href="https://github.com/conda-forge/detectron2-feedstock" xlink:title="detectron2">
<ellipse fill="#fde725" stroke="black" cx="950.24" cy="-646" rx="61.99" ry="18"/>
<text text-anchor="middle" x="950.24" y="-642.3" font-family="Times,serif" font-size="14.00">detectron2</text>
</a>
</g>
</g>
<!-- torchvision&#45;&gt;detectron2 -->
<g id="edge2" class="edge">
<title>torchvision&#45;&gt;detectron2</title>
<path fill="none" stroke="black" d="M1050.15,-701.64C1031.98,-691.7 1008.09,-678.64 988.23,-667.78"/>
<polygon fill="black" stroke="black" points="990.05,-664.78 979.6,-663.05 986.69,-670.92 990.05,-664.78"/>
</g>
<!-- fcos -->
<g id="node6" class="node">
<title>fcos</title>
<g id="a_node6"><a xlink:href="https://github.com/conda-forge/fcos-feedstock" xlink:title="fcos">
<ellipse fill="#fde725" stroke="black" cx="1059.24" cy="-646" rx="29.5" ry="18"/>
<text text-anchor="middle" x="1059.24" y="-642.3" font-family="Times,serif" font-size="14.00">fcos</text>
</a>
</g>
</g>
<!-- torchvision&#45;&gt;fcos -->
<g id="edge3" class="edge">
<title>torchvision&#45;&gt;fcos</title>
<path fill="none" stroke="black" d="M1073.55,-699.7C1071.52,-692.24 1069.1,-683.32 1066.83,-674.97"/>
<polygon fill="black" stroke="black" points="1070.28,-674.3 1064.28,-665.57 1063.52,-676.13 1070.28,-674.3"/>
</g>
<!-- fairscale -->
<g id="node7" class="node">
<title>fairscale</title>
<g id="a_node7"><a xlink:href="https://github.com/conda-forge/fairscale-feedstock" xlink:title="fairscale">
<ellipse fill="#fde725" stroke="black" cx="1156.24" cy="-646" rx="50.09" ry="18"/>
<text text-anchor="middle" x="1156.24" y="-642.3" font-family="Times,serif" font-size="14.00">fairscale</text>
</a>
</g>
</g>
<!-- torchvision&#45;&gt;fairscale -->
<g id="edge4" class="edge">
<title>torchvision&#45;&gt;fairscale</title>
<path fill="none" stroke="black" d="M1096.73,-700.41C1106.61,-691.54 1118.95,-680.47 1129.83,-670.71"/>
<polygon fill="black" stroke="black" points="1131.93,-673.52 1137.03,-664.24 1127.25,-668.31 1131.93,-673.52"/>
</g>
<!-- graphvite -->
<g id="node8" class="node">
<title>graphvite</title>
<g id="a_node8"><a xlink:href="https://github.com/conda-forge/graphvite-feedstock" xlink:title="graphvite">
<ellipse fill="#fde725" stroke="black" cx="1476.24" cy="-646" rx="56" ry="18"/>
<text text-anchor="middle" x="1476.24" y="-642.3" font-family="Times,serif" font-size="14.00">graphvite</text>
</a>
</g>
</g>
<!-- torchvision&#45;&gt;graphvite -->
<g id="edge5" class="edge">
<title>torchvision&#45;&gt;graphvite</title>
<path fill="none" stroke="black" d="M1132.89,-708.97C1213.19,-697.05 1359.18,-674.92 1411.24,-664 1415.31,-663.15 1419.5,-662.2 1423.7,-661.21"/>
<polygon fill="black" stroke="black" points="1424.43,-664.63 1433.31,-658.85 1422.76,-657.84 1424.43,-664.63"/>
</g>
<!-- mmcv&#45;recipe -->
<g id="node9" class="node">
<title>mmcv&#45;recipe</title>
<g id="a_node9"><a xlink:href="https://github.com/conda-forge/mmcv-recipe-feedstock" xlink:title="mmcv recipe">
<ellipse fill="#fde725" stroke="black" cx="1332.24" cy="-646" rx="70.39" ry="18"/>
<text text-anchor="middle" x="1332.24" y="-642.3" font-family="Times,serif" font-size="14.00">mmcv recipe</text>
</a>
</g>
</g>
<!-- torchvision&#45;&gt;mmcv&#45;recipe -->
<g id="edge6" class="edge">
<title>torchvision&#45;&gt;mmcv&#45;recipe</title>
<path fill="none" stroke="black" d="M1122.2,-704.89C1164.43,-693.25 1228.5,-675.59 1274.76,-662.84"/>
<polygon fill="black" stroke="black" points="1275.65,-666.23 1284.36,-660.2 1273.79,-659.48 1275.65,-666.23"/>
</g>
<!-- autogluon.multimodal -->
<g id="node10" class="node">
<title>autogluon.multimodal</title>
<g id="a_node10"><a xlink:href="https://github.com/conda-forge/autogluon.multimodal-feedstock" xlink:title="autogluon multimodal">
<ellipse fill="#fde725" stroke="black" cx="1234.24" cy="-574" rx="112.5" ry="18"/>
<text text-anchor="middle" x="1234.24" y="-570.3" font-family="Times,serif" font-size="14.00">autogluon multimodal</text>
</a>
</g>
</g>
<!-- torchvision&#45;&gt;autogluon.multimodal -->
<g id="edge7" class="edge">
<title>torchvision&#45;&gt;autogluon.multimodal</title>
<path fill="none" stroke="black" d="M1122.52,-704.86C1157.63,-694.35 1202.79,-678.6 1215.24,-664 1229.44,-647.35 1233.83,-622.68 1234.88,-603.53"/>
<polygon fill="black" stroke="black" points="1238.38,-603.75 1235.12,-593.67 1231.38,-603.59 1238.38,-603.75"/>
</g>
<!-- fairscale&#45;&gt;autogluon.multimodal -->
<g id="edge8" class="edge">
<title>fairscale&#45;&gt;autogluon.multimodal</title>
<path fill="none" stroke="black" d="M1174.33,-628.76C1183.99,-620.1 1196.08,-609.25 1206.86,-599.57"/>
<polygon fill="black" stroke="black" points="1208.93,-602.42 1214.04,-593.13 1204.26,-597.21 1208.93,-602.42"/>
</g>
<!-- libxc -->
<g id="node14" class="node">
<title>libxc</title>
<g id="a_node14"><a xlink:href="https://github.com/conda-forge/libxc-feedstock" xlink:title="libxc">
<ellipse fill="#000000" stroke="black" cx="2610.24" cy="-754" rx="32.5" ry="18"/>
<text text-anchor="middle" x="2610.24" y="-750.3" font-family="Times,serif" font-size="14.00" fill="white">libxc</text>
</a>
</g>
</g>
<!-- conda&#45;forge&#45;ci&#45;setup&#45;&gt;libxc -->
<!-- tensorflow -->
<g id="node12" class="node">
<title>tensorflow</title>
<g id="a_node12"><a xlink:href="https://github.com/conda-forge/tensorflow-feedstock" xlink:title="tensorflow">
<ellipse fill="#fde725" stroke="black" cx="1248.24" cy="-90" rx="60" ry="18"/>
<text text-anchor="middle" x="1248.24" y="-86.3" font-family="Times,serif" font-size="14.00">tensorflow</text>
</a>
</g>
</g>
<!-- deepmd&#45;kit -->
<g id="node13" class="node">
<title>deepmd&#45;kit</title>
<g id="a_node13"><a xlink:href="https://github.com/conda-forge/deepmd-kit-feedstock" xlink:title="deepmd kit">
<ellipse fill="#fde725" stroke="black" cx="1248.24" cy="-18" rx="63.09" ry="18"/>
<text text-anchor="middle" x="1248.24" y="-14.3" font-family="Times,serif" font-size="14.00">deepmd kit</text>
</a>
</g>
</g>
<!-- tensorflow&#45;&gt;deepmd&#45;kit -->
<g id="edge10" class="edge">
<title>tensorflow&#45;&gt;deepmd&#45;kit</title>
<path fill="none" stroke="black" d="M1248.24,-71.7C1248.24,-64.41 1248.24,-55.73 1248.24,-47.54"/>
<polygon fill="black" stroke="black" points="1251.74,-47.62 1248.24,-37.62 1244.74,-47.62 1251.74,-47.62"/>
</g>
<!-- prismatic_split -->
<g id="node36" class="node">
<title>prismatic_split</title>
<g id="a_node36"><a xlink:href="https://github.com/conda-forge/prismatic_split-feedstock" xlink:title="prismatic_split">
<ellipse fill="#fde725" stroke="black" cx="2610.24" cy="-682" rx="79.5" ry="18"/>
<text text-anchor="middle" x="2610.24" y="-678.3" font-family="Times,serif" font-size="14.00">prismatic_split</text>
</a>
</g>
</g>
<!-- libxc&#45;&gt;prismatic_split -->
<!-- hoomd -->
<g id="node15" class="node">
<title>hoomd</title>
<g id="a_node15"><a xlink:href="https://github.com/conda-forge/hoomd-feedstock" xlink:title="hoomd">
<ellipse fill="#fde725" stroke="black" cx="1248.24" cy="-206" rx="42.49" ry="18"/>
<text text-anchor="middle" x="1248.24" y="-202.3" font-family="Times,serif" font-size="14.00">hoomd</text>
</a>
</g>
</g>
<!-- hoomd&#45;dlext -->
<g id="node16" class="node">
<title>hoomd&#45;dlext</title>
<g id="a_node16"><a xlink:href="https://github.com/conda-forge/hoomd-dlext-feedstock" xlink:title="hoomd dlext">
<ellipse fill="#fde725" stroke="black" cx="1248.24" cy="-134" rx="68.49" ry="18"/>
<text text-anchor="middle" x="1248.24" y="-130.3" font-family="Times,serif" font-size="14.00">hoomd dlext</text>
</a>
</g>
</g>
<!-- hoomd&#45;&gt;hoomd&#45;dlext -->
<g id="edge12" class="edge">
<title>hoomd&#45;&gt;hoomd&#45;dlext</title>
<path fill="none" stroke="black" d="M1248.24,-187.7C1248.24,-180.41 1248.24,-171.73 1248.24,-163.54"/>
<polygon fill="black" stroke="black" points="1251.74,-163.62 1248.24,-153.62 1244.74,-163.62 1251.74,-163.62"/>
</g>
<!-- pytorch&#45;cpu -->
<g id="node17" class="node">
<title>pytorch&#45;cpu</title>
<g id="a_node17"><a xlink:href="https://github.com/conda-forge/pytorch-cpu-feedstock" xlink:title="pytorch cpu">
<ellipse fill="#fde725" stroke="black" cx="792.24" cy="-790" rx="65.79" ry="18"/>
<text text-anchor="middle" x="792.24" y="-786.3" font-family="Times,serif" font-size="14.00">pytorch cpu</text>
</a>
</g>
</g>
<!-- pytorch&#45;cpu&#45;&gt;torchvision -->
<g id="edge13" class="edge">
<title>pytorch&#45;cpu&#45;&gt;torchvision</title>
<path fill="none" stroke="black" d="M840.11,-777.28C889.85,-765.11 967.68,-746.06 1020.72,-733.08"/>
<polygon fill="black" stroke="black" points="1021.29,-736.54 1030.17,-730.77 1019.63,-729.74 1021.29,-736.54"/>
</g>
<!-- pytorch&#45;cpu&#45;&gt;detectron2 -->
<g id="edge14" class="edge">
<title>pytorch&#45;cpu&#45;&gt;detectron2</title>
<path fill="none" stroke="black" d="M816.75,-772.86C831.33,-762.86 849.91,-749.4 865.24,-736 888.06,-716.06 911.68,-690.91 928.21,-672.43"/>
<polygon fill="black" stroke="black" points="930.71,-674.89 934.72,-665.08 925.47,-670.25 930.71,-674.89"/>
</g>
<!-- pytorch&#45;cpu&#45;&gt;fcos -->
<g id="edge15" class="edge">
<title>pytorch&#45;cpu&#45;&gt;fcos</title>
<path fill="none" stroke="black" d="M823.17,-773.74C844.16,-763.3 872.49,-749.04 897.24,-736 943.23,-711.77 995.87,-682.58 1028.34,-664.4"/>
<polygon fill="black" stroke="black" points="1029.81,-667.58 1036.82,-659.64 1026.39,-661.48 1029.81,-667.58"/>
</g>
<!-- pytorch&#45;cpu&#45;&gt;fairscale -->
<g id="edge16" class="edge">
<title>pytorch&#45;cpu&#45;&gt;fairscale</title>
<path fill="none" stroke="black" d="M835.01,-775.99C865.42,-766.23 906.98,-751.86 942.24,-736 972.36,-722.45 977.14,-713.58 1007.24,-700 1040.09,-685.18 1078.41,-671.63 1107.97,-661.94"/>
<polygon fill="black" stroke="black" points="1108.96,-665.3 1117.4,-658.88 1106.81,-658.64 1108.96,-665.3"/>
</g>
<!-- pytorch&#45;cpu&#45;&gt;graphvite -->
<g id="edge17" class="edge">
<title>pytorch&#45;cpu&#45;&gt;graphvite</title>
<path fill="none" stroke="black" d="M840.1,-777.33C849.08,-775.37 858.42,-773.49 867.24,-772 1007.48,-748.24 1053.6,-789.86 1185.24,-736 1209.27,-726.17 1207.65,-710.84 1231.24,-700 1305.38,-665.94 1331.74,-682.33 1411.24,-664 1415.23,-663.08 1419.34,-662.1 1423.47,-661.08"/>
<polygon fill="black" stroke="black" points="1424.06,-664.54 1432.91,-658.7 1422.35,-657.75 1424.06,-664.54"/>
</g>
<!-- pytorch&#45;cpu&#45;&gt;mmcv&#45;recipe -->
<g id="edge18" class="edge">
<title>pytorch&#45;cpu&#45;&gt;mmcv&#45;recipe</title>
<path fill="none" stroke="black" d="M840.52,-777.34C849.38,-775.4 858.57,-773.53 867.24,-772 992.1,-749.96 1034.05,-786.75 1150.24,-736 1173.08,-726.02 1171.75,-712.61 1193.24,-700 1218.97,-684.9 1249.78,-672.64 1275.84,-663.73"/>
<polygon fill="black" stroke="black" points="1276.88,-667.07 1285.26,-660.59 1274.67,-660.43 1276.88,-667.07"/>
</g>
<!-- pytorch&#45;cpu&#45;&gt;autogluon.multimodal -->
<g id="edge19" class="edge">
<title>pytorch&#45;cpu&#45;&gt;autogluon.multimodal</title>
<path fill="none" stroke="black" d="M840.08,-777.24C849.07,-775.29 858.41,-773.44 867.24,-772 1023.75,-746.42 1076.48,-798.46 1222.24,-736 1244.84,-726.32 1241.78,-710 1264.24,-700 1320.95,-674.75 1500.28,-710.64 1541.24,-664 1551.8,-651.98 1551.55,-640.24 1541.24,-628 1517.08,-599.31 1429.01,-586.15 1353.36,-580.12"/>
<polygon fill="black" stroke="black" points="1354.04,-576.66 1343.8,-579.39 1353.51,-583.64 1354.04,-576.66"/>
</g>
<!-- nvidia&#45;apex -->
<g id="node18" class="node">
<title>nvidia&#45;apex</title>
<g id="a_node18"><a xlink:href="https://github.com/conda-forge/nvidia-apex-feedstock" xlink:title="nvidia apex">
<ellipse fill="#fde725" stroke="black" cx="1337.24" cy="-718" rx="63.89" ry="18"/>
<text text-anchor="middle" x="1337.24" y="-714.3" font-family="Times,serif" font-size="14.00">nvidia apex</text>
</a>
</g>
</g>
<!-- pytorch&#45;cpu&#45;&gt;nvidia&#45;apex -->
<g id="edge20" class="edge">
<title>pytorch&#45;cpu&#45;&gt;nvidia&#45;apex</title>
<path fill="none" stroke="black" d="M839.67,-777.26C848.78,-775.29 858.28,-773.42 867.24,-772 1040.04,-744.6 1086.33,-762.68 1259.24,-736 1265.56,-735.03 1272.13,-733.85 1278.67,-732.58"/>
<polygon fill="black" stroke="black" points="1278.98,-736.09 1288.08,-730.67 1277.59,-729.23 1278.98,-736.09"/>
</g>
<!-- pytorch_cluster -->
<g id="node19" class="node">
<title>pytorch_cluster</title>
<g id="a_node19"><a xlink:href="https://github.com/conda-forge/pytorch_cluster-feedstock" xlink:title="pytorch_cluster">
<ellipse fill="#fde725" stroke="black" cx="98.24" cy="-646" rx="83.39" ry="18"/>
<text text-anchor="middle" x="98.24" y="-642.3" font-family="Times,serif" font-size="14.00">pytorch_cluster</text>
</a>
</g>
</g>
<!-- pytorch&#45;cpu&#45;&gt;pytorch_cluster -->
<g id="edge21" class="edge">
<title>pytorch&#45;cpu&#45;&gt;pytorch_cluster</title>
<path fill="none" stroke="black" d="M726.41,-788.44C591.61,-786.44 288.96,-777.34 195.24,-736 163.73,-722.1 135.71,-693.72 117.98,-672.73"/>
<polygon fill="black" stroke="black" points="120.81,-670.66 111.77,-665.14 115.39,-675.09 120.81,-670.66"/>
</g>
<!-- pytorch_scatter -->
<g id="node20" class="node">
<title>pytorch_scatter</title>
<g id="a_node20"><a xlink:href="https://github.com/conda-forge/pytorch_scatter-feedstock" xlink:title="pytorch_scatter">
<ellipse fill="#fde725" stroke="black" cx="109.24" cy="-574" rx="83.39" ry="18"/>
<text text-anchor="middle" x="109.24" y="-570.3" font-family="Times,serif" font-size="14.00">pytorch_scatter</text>
</a>
</g>
</g>
<!-- pytorch&#45;cpu&#45;&gt;pytorch_scatter -->
<g id="edge22" class="edge">
<title>pytorch&#45;cpu&#45;&gt;pytorch_scatter</title>
<path fill="none" stroke="black" d="M727.22,-786.61C588.31,-780.98 272.05,-765.09 233.24,-736 191.9,-705.01 222.94,-668.01 190.24,-628 179.97,-615.43 165.93,-604.81 152.41,-596.44"/>
<polygon fill="black" stroke="black" points="154.43,-593.57 144.04,-591.53 150.89,-599.61 154.43,-593.57"/>
</g>
<!-- pytorch_spline_conv -->
<g id="node21" class="node">
<title>pytorch_spline_conv</title>
<g id="a_node21"><a xlink:href="https://github.com/conda-forge/pytorch_spline_conv-feedstock" xlink:title="pytorch_spline_conv">
<ellipse fill="#fde725" stroke="black" cx="285.24" cy="-502" rx="104.78" ry="18"/>
<text text-anchor="middle" x="285.24" y="-498.3" font-family="Times,serif" font-size="14.00">pytorch_spline_conv</text>
</a>
</g>
</g>
<!-- pytorch&#45;cpu&#45;&gt;pytorch_spline_conv -->
<g id="edge23" class="edge">
<title>pytorch&#45;cpu&#45;&gt;pytorch_spline_conv</title>
<path fill="none" stroke="black" d="M727.5,-786.35C602.62,-780.62 338.19,-765.14 309.24,-736 255.1,-681.5 267.8,-580.54 278.17,-531.38"/>
<polygon fill="black" stroke="black" points="281.54,-532.33 280.32,-521.81 274.71,-530.8 281.54,-532.33"/>
</g>
<!-- pytorch_sparse -->
<g id="node22" class="node">
<title>pytorch_sparse</title>
<g id="a_node22"><a xlink:href="https://github.com/conda-forge/pytorch_sparse-feedstock" xlink:title="pytorch_sparse">
<ellipse fill="#fde725" stroke="black" cx="81.24" cy="-502" rx="81.49" ry="18"/>
<text text-anchor="middle" x="81.24" y="-498.3" font-family="Times,serif" font-size="14.00">pytorch_sparse</text>
</a>
</g>
</g>
<!-- pytorch&#45;cpu&#45;&gt;pytorch_sparse -->
<g id="edge24" class="edge">
<title>pytorch&#45;cpu&#45;&gt;pytorch_sparse</title>
<path fill="none" stroke="black" d="M727.65,-785.87C598.48,-779.09 317.64,-761.58 282.24,-736 211.14,-684.62 263.49,-617.82 201.24,-556 185.21,-540.08 163.58,-528.54 143.1,-520.37"/>
<polygon fill="black" stroke="black" points="144.55,-517.18 133.95,-516.94 142.09,-523.73 144.55,-517.18"/>
</g>
<!-- torchani -->
<g id="node23" class="node">
<title>torchani</title>
<g id="a_node23"><a xlink:href="https://github.com/conda-forge/torchani-feedstock" xlink:title="torchani">
<ellipse fill="#fde725" stroke="black" cx="454.24" cy="-430" rx="49.5" ry="18"/>
<text text-anchor="middle" x="454.24" y="-426.3" font-family="Times,serif" font-size="14.00">torchani</text>
</a>
</g>
</g>
<!-- pytorch&#45;cpu&#45;&gt;torchani -->
<g id="edge25" class="edge">
<title>pytorch&#45;cpu&#45;&gt;torchani</title>
<path fill="none" stroke="black" d="M727.56,-786.06C609.17,-780 367.4,-764.29 342.24,-736 303.91,-692.88 398.35,-523.94 437.85,-457.78"/>
<polygon fill="black" stroke="black" points="440.75,-459.74 442.91,-449.37 434.75,-456.13 440.75,-459.74"/>
</g>
<!-- openmm&#45;torch -->
<g id="node24" class="node">
<title>openmm&#45;torch</title>
<g id="a_node24"><a xlink:href="https://github.com/conda-forge/openmm-torch-feedstock" xlink:title="openmm torch">
<ellipse fill="#fde725" stroke="black" cx="1724.24" cy="-718" rx="78" ry="18"/>
<text text-anchor="middle" x="1724.24" y="-714.3" font-family="Times,serif" font-size="14.00">openmm torch</text>
</a>
</g>
</g>
<!-- pytorch&#45;cpu&#45;&gt;openmm&#45;torch -->
<g id="edge26" class="edge">
<title>pytorch&#45;cpu&#45;&gt;openmm&#45;torch</title>
<path fill="none" stroke="black" d="M839.22,-777.02C848.46,-775.04 858.11,-773.24 867.24,-772 1206.73,-725.95 1297.1,-776.96 1637.24,-736 1643.98,-735.19 1650.98,-734.15 1657.95,-732.99"/>
<polygon fill="black" stroke="black" points="1658.47,-736.45 1667.72,-731.28 1657.26,-729.56 1658.47,-736.45"/>
</g>
<!-- torchsparse -->
<g id="node25" class="node">
<title>torchsparse</title>
<g id="a_node25"><a xlink:href="https://github.com/conda-forge/torchsparse-feedstock" xlink:title="torchsparse">
<ellipse fill="#fde725" stroke="black" cx="417.24" cy="-718" rx="65.79" ry="18"/>
<text text-anchor="middle" x="417.24" y="-714.3" font-family="Times,serif" font-size="14.00">torchsparse</text>
</a>
</g>
</g>
<!-- pytorch&#45;cpu&#45;&gt;torchsparse -->
<g id="edge27" class="edge">
<title>pytorch&#45;cpu&#45;&gt;torchsparse</title>
<path fill="none" stroke="black" d="M737.5,-779.7C678.2,-769.5 580.86,-752.39 497.24,-736 491.23,-734.82 484.98,-733.56 478.73,-732.27"/>
<polygon fill="black" stroke="black" points="479.54,-728.86 469.03,-730.25 478.11,-735.72 479.54,-728.86"/>
</g>
<!-- torch&#45;scatter -->
<g id="node26" class="node">
<title>torch&#45;scatter</title>
<g id="a_node26"><a xlink:href="https://github.com/conda-forge/torch-scatter-feedstock" xlink:title="torch scatter">
<ellipse fill="#fde725" stroke="black" cx="450.24" cy="-646" rx="71" ry="18"/>
<text text-anchor="middle" x="450.24" y="-642.3" font-family="Times,serif" font-size="14.00">torch scatter</text>
</a>
</g>
</g>
<!-- pytorch&#45;cpu&#45;&gt;torch&#45;scatter -->
<g id="edge28" class="edge">
<title>pytorch&#45;cpu&#45;&gt;torch&#45;scatter</title>
<path fill="none" stroke="black" d="M727.56,-786.32C673.24,-781.66 595.12,-769.17 535.24,-736 520.48,-727.82 491.55,-695.83 471.57,-672.54"/>
<polygon fill="black" stroke="black" points="474.27,-670.3 465.13,-664.95 468.94,-674.84 474.27,-670.3"/>
</g>
<!-- kaolin -->
<g id="node27" class="node">
<title>kaolin</title>
<g id="a_node27"><a xlink:href="https://github.com/conda-forge/kaolin-feedstock" xlink:title="kaolin">
<ellipse fill="#fde725" stroke="black" cx="520.24" cy="-574" rx="38.5" ry="18"/>
<text text-anchor="middle" x="520.24" y="-570.3" font-family="Times,serif" font-size="14.00">kaolin</text>
</a>
</g>
</g>
<!-- pytorch&#45;cpu&#45;&gt;kaolin -->
<g id="edge29" class="edge">
<title>pytorch&#45;cpu&#45;&gt;kaolin</title>
<path fill="none" stroke="black" d="M733.71,-781.34C677.04,-772.81 596.39,-757.35 573.24,-736 553.61,-717.89 535.16,-644.47 526.1,-603.32"/>
<polygon fill="black" stroke="black" points="529.54,-602.68 524.01,-593.64 522.7,-604.15 529.54,-602.68"/>
</g>
<!-- nnpops -->
<g id="node28" class="node">
<title>nnpops</title>
<g id="a_node28"><a xlink:href="https://github.com/conda-forge/nnpops-feedstock" xlink:title="nnpops">
<ellipse fill="#fde725" stroke="black" cx="538.24" cy="-358" rx="44.39" ry="18"/>
<text text-anchor="middle" x="538.24" y="-354.3" font-family="Times,serif" font-size="14.00">nnpops</text>
</a>
</g>
</g>
<!-- pytorch&#45;cpu&#45;&gt;nnpops -->
<g id="edge30" class="edge">
<title>pytorch&#45;cpu&#45;&gt;nnpops</title>
<path fill="none" stroke="black" d="M730.54,-783.34C696.48,-777.04 655.98,-763.79 630.24,-736 582.45,-684.38 551.41,-466.11 541.59,-387.43"/>
<polygon fill="black" stroke="black" points="545.07,-387.05 540.39,-377.55 538.13,-387.9 545.07,-387.05"/>
</g>
<!-- triton -->
<g id="node29" class="node">
<title>triton</title>
<g id="a_node29"><a xlink:href="https://github.com/conda-forge/triton-feedstock" xlink:title="triton">
<ellipse fill="#fde725" stroke="black" cx="690.24" cy="-502" rx="37.09" ry="18"/>
<text text-anchor="middle" x="690.24" y="-498.3" font-family="Times,serif" font-size="14.00">triton</text>
</a>
</g>
</g>
<!-- pytorch&#45;cpu&#45;&gt;triton -->
<g id="edge31" class="edge">
<title>pytorch&#45;cpu&#45;&gt;triton</title>
<path fill="none" stroke="black" d="M742.41,-777.87C719.96,-770.1 695.55,-757.18 682.24,-736 642.05,-672.02 664.73,-577.45 679.96,-530.93"/>
<polygon fill="black" stroke="black" points="683.22,-532.21 683.14,-521.61 676.6,-529.95 683.22,-532.21"/>
</g>
<!-- openmmtorchplugin -->
<g id="node30" class="node">
<title>openmmtorchplugin</title>
<g id="a_node30"><a xlink:href="https://github.com/conda-forge/openmmtorchplugin-feedstock" xlink:title="openmmtorchplugin">
<ellipse fill="#fde725" stroke="black" cx="1523.24" cy="-718" rx="104.78" ry="18"/>
<text text-anchor="middle" x="1523.24" y="-714.3" font-family="Times,serif" font-size="14.00">openmmtorchplugin</text>
</a>
</g>
</g>
<!-- pytorch&#45;cpu&#45;&gt;openmmtorchplugin -->
<g id="edge32" class="edge">
<title>pytorch&#45;cpu&#45;&gt;openmmtorchplugin</title>
<path fill="none" stroke="black" d="M839.64,-777.08C848.76,-775.12 858.26,-773.31 867.24,-772 1106.58,-737.16 1169.78,-762.01 1410.24,-736 1419.15,-735.04 1428.42,-733.88 1437.67,-732.64"/>
<polygon fill="black" stroke="black" points="1437.97,-736.13 1447.4,-731.29 1437.01,-729.2 1437.97,-736.13"/>
</g>
<!-- molgrid -->
<g id="node31" class="node">
<title>molgrid</title>
<g id="a_node31"><a xlink:href="https://github.com/conda-forge/molgrid-feedstock" xlink:title="molgrid">
<ellipse fill="#fde725" stroke="black" cx="652.24" cy="-430" rx="47" ry="18"/>
<text text-anchor="middle" x="652.24" y="-426.3" font-family="Times,serif" font-size="14.00">molgrid</text>
</a>
</g>
</g>
<!-- pytorch&#45;cpu&#45;&gt;molgrid -->
<g id="edge33" class="edge">
<title>pytorch&#45;cpu&#45;&gt;molgrid</title>
<path fill="none" stroke="black" d="M741.3,-778.24C714.86,-770.4 683.69,-757.3 662.24,-736 631.85,-705.81 625.24,-689.84 625.24,-647 625.24,-647 625.24,-647 625.24,-573 625.24,-532.86 635.78,-487.44 643.69,-459.01"/>
<polygon fill="black" stroke="black" points="646.96,-460.32 646.36,-449.74 640.23,-458.38 646.96,-460.32"/>
</g>
<!-- theseus&#45;ai -->
<g id="node32" class="node">
<title>theseus&#45;ai</title>
<g id="a_node32"><a xlink:href="https://github.com/conda-forge/theseus-ai-feedstock" xlink:title="theseus ai">
<ellipse fill="#fde725" stroke="black" cx="749.24" cy="-718" rx="58" ry="18"/>
<text text-anchor="middle" x="749.24" y="-714.3" font-family="Times,serif" font-size="14.00">theseus ai</text>
</a>
</g>
</g>
<!-- pytorch&#45;cpu&#45;&gt;theseus&#45;ai -->
<g id="edge34" class="edge">
<title>pytorch&#45;cpu&#45;&gt;theseus&#45;ai</title>
<path fill="none" stroke="black" d="M781.83,-772.05C776.92,-764.06 770.95,-754.33 765.46,-745.4"/>
<polygon fill="black" stroke="black" points="768.56,-743.77 760.35,-737.08 762.6,-747.43 768.56,-743.77"/>
</g>
<!-- pyg&#45;lib -->
<g id="node33" class="node">
<title>pyg&#45;lib</title>
<g id="a_node33"><a xlink:href="https://github.com/conda-forge/pyg-lib-feedstock" xlink:title="pyg lib">
<ellipse fill="#fde725" stroke="black" cx="759.24" cy="-430" rx="42.49" ry="18"/>
<text text-anchor="middle" x="759.24" y="-426.3" font-family="Times,serif" font-size="14.00">pyg lib</text>
</a>
</g>
</g>
<!-- pytorch&#45;cpu&#45;&gt;pyg&#45;lib -->
<g id="edge35" class="edge">
<title>pytorch&#45;cpu&#45;&gt;pyg&#45;lib</title>
<path fill="none" stroke="black" d="M804.3,-772.07C816.1,-753.23 830.39,-722.48 816.24,-700 796.55,-668.71 760.93,-695.29 741.24,-664 720.26,-630.65 741.48,-513.76 752.94,-459.31"/>
<polygon fill="black" stroke="black" points="756.29,-460.38 754.97,-449.87 749.45,-458.91 756.29,-460.38"/>
</g>
<!-- deepspeed -->
<g id="node34" class="node">
<title>deepspeed</title>
<g id="a_node34"><a xlink:href="https://github.com/conda-forge/deepspeed-feedstock" xlink:title="deepspeed">
<ellipse fill="#fde725" stroke="black" cx="810.24" cy="-646" rx="60.5" ry="18"/>
<text text-anchor="middle" x="810.24" y="-642.3" font-family="Times,serif" font-size="14.00">deepspeed</text>
</a>
</g>
</g>
<!-- pytorch&#45;cpu&#45;&gt;deepspeed -->
<g id="edge36" class="edge">
<title>pytorch&#45;cpu&#45;&gt;deepspeed</title>
<path fill="none" stroke="black" d="M817.33,-773.06C829.4,-763.86 842.66,-751.11 849.24,-736 855.63,-721.33 854.23,-715.2 849.24,-700 845.98,-690.06 840.06,-680.46 833.81,-672.21"/>
<polygon fill="black" stroke="black" points="836.72,-670.24 827.68,-664.71 831.3,-674.67 836.72,-670.24"/>
</g>
<!-- pytorch_scatter&#45;&gt;pytorch_sparse -->
<g id="edge37" class="edge">
<title>pytorch_scatter&#45;&gt;pytorch_sparse</title>
<path fill="none" stroke="black" d="M102.32,-555.7C99.3,-548.15 95.69,-539.12 92.31,-530.68"/>
<polygon fill="black" stroke="black" points="95.61,-529.49 88.65,-521.51 89.11,-532.09 95.61,-529.49"/>
</g>
<!-- torchani&#45;&gt;nnpops -->
<g id="edge38" class="edge">
<title>torchani&#45;&gt;nnpops</title>
<path fill="none" stroke="black" d="M473.3,-413.12C484.44,-403.83 498.69,-391.96 511,-381.7"/>
<polygon fill="black" stroke="black" points="512.94,-384.64 518.38,-375.55 508.46,-379.26 512.94,-384.64"/>
</g>
<!-- triton&#45;&gt;pyg&#45;lib -->
<g id="edge39" class="edge">
<title>triton&#45;&gt;pyg&#45;lib</title>
<path fill="none" stroke="black" d="M705.56,-485.46C714.37,-476.53 725.62,-465.11 735.55,-455.04"/>
<polygon fill="black" stroke="black" points="737.9,-457.63 742.43,-448.06 732.92,-452.72 737.9,-457.63"/>
</g>
<!-- stir -->
<g id="node35" class="node">
<title>stir</title>
<g id="a_node35"><a xlink:href="https://github.com/conda-forge/stir-feedstock" xlink:title="stir">
<ellipse fill="#fde725" stroke="black" cx="2787.24" cy="-134" rx="27" ry="18"/>
<text text-anchor="middle" x="2787.24" y="-130.3" font-family="Times,serif" font-size="14.00">stir</text>
</a>
</g>
</g>
<!-- cudadecon -->
<g id="node43" class="node">
<title>cudadecon</title>
<g id="a_node43"><a xlink:href="https://github.com/conda-forge/cudadecon-feedstock" xlink:title="cudadecon">
<ellipse fill="#fde725" stroke="black" cx="2610.24" cy="-610" rx="60" ry="18"/>
<text text-anchor="middle" x="2610.24" y="-606.3" font-family="Times,serif" font-size="14.00">cudadecon</text>
</a>
</g>
</g>
<!-- prismatic_split&#45;&gt;cudadecon -->
<!-- openmm -->
<g id="node37" class="node">
<title>openmm</title>
<g id="a_node37"><a xlink:href="https://github.com/conda-forge/openmm-feedstock" xlink:title="openmm">
<ellipse fill="#000000" stroke="black" cx="2183.24" cy="-790" rx="50.89" ry="18"/>
<text text-anchor="middle" x="2183.24" y="-786.3" font-family="Times,serif" font-size="14.00" fill="white">openmm</text>
</a>
</g>
</g>
<!-- openmm&#45;&gt;openmm&#45;torch -->
<g id="edge41" class="edge">
<title>openmm&#45;&gt;openmm&#45;torch</title>
<path fill="none" stroke="black" d="M2135.85,-783.04C2065.04,-773.96 1927.51,-755.63 1811.24,-736 1805.17,-734.98 1798.88,-733.86 1792.57,-732.7"/>
<polygon fill="black" stroke="black" points="1793.22,-729.26 1782.75,-730.86 1791.93,-736.14 1793.22,-729.26"/>
</g>
<!-- openmm&#45;&gt;openmmtorchplugin -->
<g id="edge42" class="edge">
<title>openmm&#45;&gt;openmmtorchplugin</title>
<path fill="none" stroke="black" d="M2133.84,-785.06C2037.93,-777.22 1819.91,-758.47 1637.24,-736 1628.42,-734.91 1619.22,-733.69 1610.05,-732.42"/>
<polygon fill="black" stroke="black" points="1610.79,-728.99 1600.4,-731.05 1609.81,-735.92 1610.79,-728.99"/>
</g>
<!-- openmm&#45;plumed -->
<g id="node38" class="node">
<title>openmm&#45;plumed</title>
<g id="a_node38"><a xlink:href="https://github.com/conda-forge/openmm-plumed-feedstock" xlink:title="openmm plumed">
<ellipse fill="#fde725" stroke="black" cx="2066.24" cy="-718" rx="88.5" ry="18"/>
<text text-anchor="middle" x="2066.24" y="-714.3" font-family="Times,serif" font-size="14.00">openmm plumed</text>
</a>
</g>
</g>
<!-- openmm&#45;&gt;openmm&#45;plumed -->
<g id="edge43" class="edge">
<title>openmm&#45;&gt;openmm&#45;plumed</title>
<path fill="none" stroke="black" d="M2158.14,-773.98C2142.17,-764.42 2121.19,-751.88 2103.32,-741.18"/>
<polygon fill="black" stroke="black" points="2105.43,-738.37 2095.05,-736.24 2101.84,-744.37 2105.43,-738.37"/>
</g>
<!-- meld -->
<g id="node39" class="node">
<title>meld</title>
<g id="a_node39"><a xlink:href="https://github.com/conda-forge/meld-feedstock" xlink:title="meld">
<ellipse fill="#fde725" stroke="black" cx="2159.24" cy="-646" rx="34" ry="18"/>
<text text-anchor="middle" x="2159.24" y="-642.3" font-family="Times,serif" font-size="14.00">meld</text>
</a>
</g>
</g>
<!-- openmm&#45;&gt;meld -->
<g id="edge44" class="edge">
<title>openmm&#45;&gt;meld</title>
<path fill="none" stroke="black" d="M2180.3,-771.59C2176.25,-747.61 2168.9,-704.14 2164.05,-675.42"/>
<polygon fill="black" stroke="black" points="2167.5,-674.88 2162.39,-665.6 2160.6,-676.05 2167.5,-674.88"/>
</g>
<!-- seekr2_openmm_plugin -->
<g id="node40" class="node">
<title>seekr2_openmm_plugin</title>
<g id="a_node40"><a xlink:href="https://github.com/conda-forge/seekr2_openmm_plugin-feedstock" xlink:title="seekr2_openmm_plugin">
<ellipse fill="#fde725" stroke="black" cx="2111.24" cy="-574" rx="120.48" ry="18"/>
<text text-anchor="middle" x="2111.24" y="-570.3" font-family="Times,serif" font-size="14.00">seekr2_openmm_plugin</text>
</a>
</g>
</g>
<!-- openmm&#45;&gt;seekr2_openmm_plugin -->
<g id="edge45" class="edge">
<title>openmm&#45;&gt;seekr2_openmm_plugin</title>
<path fill="none" stroke="black" d="M2191.48,-772.15C2205.27,-741.29 2229.03,-674.61 2202.24,-628 2194.47,-614.48 2181.78,-604.09 2168.3,-596.23"/>
<polygon fill="black" stroke="black" points="2170.22,-593.29 2159.75,-591.67 2166.92,-599.47 2170.22,-593.29"/>
</g>
<!-- openmm&#45;atmmetaforce&#45;plugin -->
<g id="node41" class="node">
<title>openmm&#45;atmmetaforce&#45;plugin</title>
<g id="a_node41"><a xlink:href="https://github.com/conda-forge/openmm-atmmetaforce-plugin-feedstock" xlink:title="openmm atmmetaforce plugin">
<ellipse fill="#fde725" stroke="black" cx="2103.24" cy="-502" rx="151" ry="18"/>
<text text-anchor="middle" x="2103.24" y="-498.3" font-family="Times,serif" font-size="14.00">openmm atmmetaforce plugin</text>
</a>
</g>
</g>
<!-- openmm&#45;&gt;openmm&#45;atmmetaforce&#45;plugin -->
<g id="edge46" class="edge">
<title>openmm&#45;&gt;openmm&#45;atmmetaforce&#45;plugin</title>
<path fill="none" stroke="black" d="M2198.68,-772.69C2207.08,-762.83 2216.83,-749.58 2222.24,-736 2252.02,-661.32 2285.69,-622.32 2240.24,-556 2229.58,-540.44 2213.63,-529.44 2196.36,-521.68"/>
<polygon fill="black" stroke="black" points="2198.04,-518.58 2187.46,-518.04 2195.39,-525.06 2198.04,-518.58"/>
</g>
<!-- openmm&#45;dlext -->
<g id="node42" class="node">
<title>openmm&#45;dlext</title>
<g id="a_node42"><a xlink:href="https://github.com/conda-forge/openmm-dlext-feedstock" xlink:title="openmm dlext">
<ellipse fill="#fde725" stroke="black" cx="2420.24" cy="-430" rx="77.5" ry="18"/>
<text text-anchor="middle" x="2420.24" y="-426.3" font-family="Times,serif" font-size="14.00">openmm dlext</text>
</a>
</g>
</g>
<!-- openmm&#45;&gt;openmm&#45;dlext -->
<g id="edge47" class="edge">
<title>openmm&#45;&gt;openmm&#45;dlext</title>
<path fill="none" stroke="black" d="M2229.78,-782.41C2298.8,-769.72 2420.24,-734.9 2420.24,-647 2420.24,-647 2420.24,-647 2420.24,-573 2420.24,-533.74 2420.24,-488.38 2420.24,-459.69"/>
<polygon fill="black" stroke="black" points="2423.74,-460 2420.24,-450 2416.74,-460 2423.74,-460"/>
</g>
<!-- cudasirecon -->
<g id="node51" class="node">
<title>cudasirecon</title>
<g id="a_node51"><a xlink:href="https://github.com/conda-forge/cudasirecon-feedstock" xlink:title="cudasirecon">
<ellipse fill="#fde725" stroke="black" cx="2610.24" cy="-538" rx="66.5" ry="18"/>
<text text-anchor="middle" x="2610.24" y="-534.3" font-family="Times,serif" font-size="14.00">cudasirecon</text>
</a>
</g>
</g>
<!-- cudadecon&#45;&gt;cudasirecon -->
<!-- pp&#45;sketchlib -->
<g id="node44" class="node">
<title>pp&#45;sketchlib</title>
<g id="a_node44"><a xlink:href="https://github.com/conda-forge/pp-sketchlib-feedstock" xlink:title="pp sketchlib">
<ellipse fill="#fde725" stroke="black" cx="2610.24" cy="-206" rx="67.69" ry="18"/>
<text text-anchor="middle" x="2610.24" y="-202.3" font-family="Times,serif" font-size="14.00">pp sketchlib</text>
</a>
</g>
</g>
<!-- mandrake -->
<g id="node45" class="node">
<title>mandrake</title>
<g id="a_node45"><a xlink:href="https://github.com/conda-forge/mandrake-feedstock" xlink:title="mandrake">
<ellipse fill="#fde725" stroke="black" cx="2610.24" cy="-134" rx="57.39" ry="18"/>
<text text-anchor="middle" x="2610.24" y="-130.3" font-family="Times,serif" font-size="14.00">mandrake</text>
</a>
</g>
</g>
<!-- pp&#45;sketchlib&#45;&gt;mandrake -->
<g id="edge49" class="edge">
<title>pp&#45;sketchlib&#45;&gt;mandrake</title>
<path fill="none" stroke="black" d="M2610.24,-187.7C2610.24,-180.41 2610.24,-171.73 2610.24,-163.54"/>
<polygon fill="black" stroke="black" points="2613.74,-163.62 2610.24,-153.62 2606.74,-163.62 2613.74,-163.62"/>
</g>
<!-- faiss&#45;split -->
<g id="node46" class="node">
<title>faiss&#45;split</title>
<g id="a_node46"><a xlink:href="https://github.com/conda-forge/faiss-split-feedstock/pull/62" xlink:title="faiss split ❎">
<ellipse fill="#31688e" stroke="black" cx="1890.24" cy="-718" rx="69.59" ry="18"/>
<text text-anchor="middle" x="1890.24" y="-714.3" font-family="Times,serif" font-size="14.00" fill="white">faiss split ❎</text>
</a>
</g>
</g>
<!-- faiss&#45;split&#45;&gt;graphvite -->
<g id="edge50" class="edge">
<title>faiss&#45;split&#45;&gt;graphvite</title>
<path fill="none" stroke="black" d="M1838.91,-705.52C1829.71,-703.59 1820.21,-701.67 1811.24,-700 1716.31,-682.29 1605.51,-665.52 1538.15,-655.75"/>
<polygon fill="black" stroke="black" points="1538.8,-652.31 1528.4,-654.34 1537.8,-659.24 1538.8,-652.31"/>
</g>
<!-- tsnecuda -->
<g id="node47" class="node">
<title>tsnecuda</title>
<g id="a_node47"><a xlink:href="https://github.com/conda-forge/tsnecuda-feedstock" xlink:title="tsnecuda">
<ellipse fill="#fde725" stroke="black" cx="1890.24" cy="-646" rx="52.79" ry="18"/>
<text text-anchor="middle" x="1890.24" y="-642.3" font-family="Times,serif" font-size="14.00">tsnecuda</text>
</a>
</g>
</g>
<!-- faiss&#45;split&#45;&gt;tsnecuda -->
<g id="edge51" class="edge">
<title>faiss&#45;split&#45;&gt;tsnecuda</title>
<path fill="none" stroke="black" d="M1890.24,-699.7C1890.24,-692.41 1890.24,-683.73 1890.24,-675.54"/>
<polygon fill="black" stroke="black" points="1893.74,-675.62 1890.24,-665.62 1886.74,-675.62 1893.74,-675.62"/>
</g>
<!-- libtvm -->
<g id="node48" class="node">
<title>libtvm</title>
<g id="a_node48"><a xlink:href="https://github.com/conda-forge/libtvm-feedstock" xlink:title="libtvm">
<ellipse fill="#fde725" stroke="black" cx="2284.24" cy="-430" rx="40.5" ry="18"/>
<text text-anchor="middle" x="2284.24" y="-426.3" font-family="Times,serif" font-size="14.00">libtvm</text>
</a>
</g>
</g>
<!-- tvm&#45;py -->
<g id="node49" class="node">
<title>tvm&#45;py</title>
<g id="a_node49"><a xlink:href="https://github.com/conda-forge/tvm-py-feedstock" xlink:title="tvm py">
<ellipse fill="#fde725" stroke="black" cx="2284.24" cy="-358" rx="43" ry="18"/>
<text text-anchor="middle" x="2284.24" y="-354.3" font-family="Times,serif" font-size="14.00">tvm py</text>
</a>
</g>
</g>
<!-- libtvm&#45;&gt;tvm&#45;py -->
<g id="edge52" class="edge">
<title>libtvm&#45;&gt;tvm&#45;py</title>
<path fill="none" stroke="black" d="M2284.24,-411.7C2284.24,-404.41 2284.24,-395.73 2284.24,-387.54"/>
<polygon fill="black" stroke="black" points="2287.74,-387.62 2284.24,-377.62 2280.74,-387.62 2287.74,-387.62"/>
</g>
<!-- magma -->
<g id="node50" class="node">
<title>magma</title>
<g id="a_node50"><a xlink:href="https://github.com/conda-forge/magma-feedstock/pull/17" xlink:title="magma ❎">
<ellipse fill="#31688e" stroke="black" cx="850.24" cy="-862" rx="59.29" ry="18"/>
<text text-anchor="middle" x="850.24" y="-858.3" font-family="Times,serif" font-size="14.00" fill="white">magma ❎</text>
</a>
</g>
</g>
<!-- magma&#45;&gt;kaldi -->
<g id="edge53" class="edge">
<title>magma&#45;&gt;kaldi</title>
<path fill="none" stroke="black" d="M864.53,-844.05C871.76,-835.47 880.68,-824.89 888.64,-815.44"/>
<polygon fill="black" stroke="black" points="891.16,-817.89 894.93,-807.99 885.8,-813.38 891.16,-817.89"/>
</g>
<!-- magma&#45;&gt;pytorch&#45;cpu -->
<g id="edge54" class="edge">
<title>magma&#45;&gt;pytorch&#45;cpu</title>
<path fill="none" stroke="black" d="M836.2,-844.05C829.36,-835.8 821,-825.7 813.4,-816.54"/>
<polygon fill="black" stroke="black" points="816.19,-814.42 807.12,-808.95 810.8,-818.89 816.19,-814.42"/>
</g>
<!-- timemory -->
<g id="node52" class="node">
<title>timemory</title>
<g id="a_node52"><a xlink:href="https://github.com/conda-forge/timemory-feedstock" xlink:title="timemory">
<ellipse fill="#fde725" stroke="black" cx="2610.24" cy="-466" rx="56" ry="18"/>
<text text-anchor="middle" x="2610.24" y="-462.3" font-family="Times,serif" font-size="14.00">timemory</text>
</a>
</g>
</g>
<!-- cudasirecon&#45;&gt;timemory -->
<!-- gromacs -->
<g id="node53" class="node">
<title>gromacs</title>
<g id="a_node53"><a xlink:href="https://github.com/conda-forge/gromacs-feedstock" xlink:title="gromacs">
<ellipse fill="#fde725" stroke="black" cx="2610.24" cy="-394" rx="50.09" ry="18"/>
<text text-anchor="middle" x="2610.24" y="-390.3" font-family="Times,serif" font-size="14.00">gromacs</text>
</a>
</g>
</g>
<!-- timemory&#45;&gt;gromacs -->
<!-- pyscamp&#45;gpu -->
<g id="node57" class="node">
<title>pyscamp&#45;gpu</title>
<g id="a_node57"><a xlink:href="https://github.com/conda-forge/pyscamp-gpu-feedstock" xlink:title="pyscamp gpu">
<ellipse fill="#fde725" stroke="black" cx="2610.24" cy="-322" rx="72.29" ry="18"/>
<text text-anchor="middle" x="2610.24" y="-318.3" font-family="Times,serif" font-size="14.00">pyscamp gpu</text>
</a>
</g>
</g>
<!-- gromacs&#45;&gt;pyscamp&#45;gpu -->
<!-- colmap -->
<g id="node54" class="node">
<title>colmap</title>
<g id="a_node54"><a xlink:href="https://github.com/conda-forge/colmap-feedstock" xlink:title="colmap">
<ellipse fill="#fde725" stroke="black" cx="2610.24" cy="-90" rx="44.39" ry="18"/>
<text text-anchor="middle" x="2610.24" y="-86.3" font-family="Times,serif" font-size="14.00">colmap</text>
</a>
</g>
</g>
<!-- pycolmap -->
<g id="node55" class="node">
<title>pycolmap</title>
<g id="a_node55"><a xlink:href="https://github.com/conda-forge/pycolmap-feedstock" xlink:title="pycolmap">
<ellipse fill="#fde725" stroke="black" cx="2610.24" cy="-18" rx="55.49" ry="18"/>
<text text-anchor="middle" x="2610.24" y="-14.3" font-family="Times,serif" font-size="14.00">pycolmap</text>
</a>
</g>
</g>
<!-- colmap&#45;&gt;pycolmap -->
<g id="edge58" class="edge">
<title>colmap&#45;&gt;pycolmap</title>
<path fill="none" stroke="black" d="M2610.24,-71.7C2610.24,-64.41 2610.24,-55.73 2610.24,-47.54"/>
<polygon fill="black" stroke="black" points="2613.74,-47.62 2610.24,-37.62 2606.74,-47.62 2613.74,-47.62"/>
</g>
<!-- cutlass -->
<g id="node56" class="node">
<title>cutlass</title>
<g id="a_node56"><a xlink:href="https://github.com/conda-forge/cutlass-feedstock" xlink:title="cutlass">
<ellipse fill="#fde725" stroke="black" cx="2316.24" cy="-502" rx="43.59" ry="18"/>
<text text-anchor="middle" x="2316.24" y="-498.3" font-family="Times,serif" font-size="14.00">cutlass</text>
</a>
</g>
</g>
<!-- cutlass&#45;&gt;pyg&#45;lib -->
<g id="edge59" class="edge">
<title>cutlass&#45;&gt;pyg&#45;lib</title>
<path fill="none" stroke="black" d="M2284.37,-489.22C2277.49,-487.12 2270.19,-485.21 2263.24,-484 1976.12,-433.88 1047.11,-430.87 813.13,-430.92"/>
<polygon fill="black" stroke="black" points="813.39,-427.42 803.39,-430.92 813.39,-434.42 813.39,-427.42"/>
</g>
<!-- cutlass&#45;&gt;libtvm -->
<g id="edge60" class="edge">
<title>cutlass&#45;&gt;libtvm</title>
<path fill="none" stroke="black" d="M2308.5,-484.05C2304.92,-476.23 2300.58,-466.75 2296.58,-457.98"/>
<polygon fill="black" stroke="black" points="2299.89,-456.81 2292.55,-449.17 2293.52,-459.72 2299.89,-456.81"/>
</g>
<!-- heavydb&#45;ext -->
<g id="node58" class="node">
<title>heavydb&#45;ext</title>
<g id="a_node58"><a xlink:href="https://github.com/conda-forge/heavydb-ext-feedstock" xlink:title="heavydb ext">
<ellipse fill="#fde725" stroke="black" cx="2610.24" cy="-250" rx="67.69" ry="18"/>
<text text-anchor="middle" x="2610.24" y="-246.3" font-family="Times,serif" font-size="14.00">heavydb ext</text>
</a>
</g>
</g>
<!-- pyscamp&#45;gpu&#45;&gt;heavydb&#45;ext -->
<!-- hdk -->
<g id="node59" class="node">
<title>hdk</title>
<g id="a_node59"><a xlink:href="https://github.com/conda-forge/hdk-feedstock" xlink:title="hdk">
<ellipse fill="#fde725" stroke="black" cx="2787.24" cy="-754" rx="28" ry="18"/>
<text text-anchor="middle" x="2787.24" y="-750.3" font-family="Times,serif" font-size="14.00">hdk</text>
</a>
</g>
</g>
<!-- cyrsoxs -->
<g id="node60" class="node">
<title>cyrsoxs</title>
<g id="a_node60"><a xlink:href="https://github.com/conda-forge/cyrsoxs-feedstock" xlink:title="cyrsoxs">
<ellipse fill="#fde725" stroke="black" cx="2787.24" cy="-682" rx="46.29" ry="18"/>
<text text-anchor="middle" x="2787.24" y="-678.3" font-family="Times,serif" font-size="14.00">cyrsoxs</text>
</a>
</g>
</g>
<!-- hdk&#45;&gt;cyrsoxs -->
<!-- katago -->
<g id="node61" class="node">
<title>katago</title>
<g id="a_node61"><a xlink:href="https://github.com/conda-forge/katago-feedstock" xlink:title="katago">
<ellipse fill="#fde725" stroke="black" cx="2787.24" cy="-610" rx="42.49" ry="18"/>
<text text-anchor="middle" x="2787.24" y="-606.3" font-family="Times,serif" font-size="14.00">katago</text>
</a>
</g>
</g>
<!-- cyrsoxs&#45;&gt;katago -->
<!-- nyxus -->
<g id="node62" class="node">
<title>nyxus</title>
<g id="a_node62"><a xlink:href="https://github.com/conda-forge/nyxus-feedstock" xlink:title="nyxus">
<ellipse fill="#fde725" stroke="black" cx="2787.24" cy="-538" rx="38.5" ry="18"/>
<text text-anchor="middle" x="2787.24" y="-534.3" font-family="Times,serif" font-size="14.00">nyxus</text>
</a>
</g>
</g>
<!-- katago&#45;&gt;nyxus -->
<!-- libmagma -->
<g id="node63" class="node">
<title>libmagma</title>
<g id="a_node63"><a xlink:href="https://github.com/conda-forge/libmagma-feedstock" xlink:title="libmagma">
<ellipse fill="#fde725" stroke="black" cx="2787.24" cy="-466" rx="56.59" ry="18"/>
<text text-anchor="middle" x="2787.24" y="-462.3" font-family="Times,serif" font-size="14.00">libmagma</text>
</a>
</g>
</g>
<!-- nyxus&#45;&gt;libmagma -->
<!-- parallelproj -->
<g id="node64" class="node">
<title>parallelproj</title>
<g id="a_node64"><a xlink:href="https://github.com/conda-forge/parallelproj-feedstock" xlink:title="parallelproj">
<ellipse fill="#fde725" stroke="black" cx="2787.24" cy="-206" rx="64.5" ry="18"/>
<text text-anchor="middle" x="2787.24" y="-202.3" font-family="Times,serif" font-size="14.00">parallelproj</text>
</a>
</g>
</g>
<!-- parallelproj&#45;&gt;stir -->
<g id="edge67" class="edge">
<title>parallelproj&#45;&gt;stir</title>
<path fill="none" stroke="black" d="M2787.24,-187.7C2787.24,-180.41 2787.24,-171.73 2787.24,-163.54"/>
<polygon fill="black" stroke="black" points="2790.74,-163.62 2787.24,-153.62 2783.74,-163.62 2790.74,-163.62"/>
</g>
</g>
</svg>
