<?xml version="1.0" encoding="UTF-8" standalone="no"?>
<!DOCTYPE svg PUBLIC "-//W3C//DTD SVG 1.1//EN"
 "http://www.w3.org/Graphics/SVG/1.1/DTD/svg11.dtd">
<!-- Generated by graphviz version 8.1.0 (20230707.2238)
 -->
<!-- Pages: 1 -->
<svg width="3453pt" height="880pt"
 viewBox="0.00 0.00 3453.06 880.00" xmlns="http://www.w3.org/2000/svg" xmlns:xlink="http://www.w3.org/1999/xlink">
<g id="graph0" class="graph" transform="scale(1 1) rotate(0) translate(4 876)">
<polygon fill="white" stroke="none" points="-4,4 -4,-876 3449.06,-876 3449.06,4 -4,4"/>
<!-- torchvision -->
<g id="node1" class="node">
<title>torchvision</title>
<g id="a_node1"><a xlink:href="https://github.com/conda-forge/torchvision-feedstock" xlink:title="torchvision">
<ellipse fill="#fde725" stroke="black" cx="1366.52" cy="-602" rx="66.99" ry="18"/>
<text text-anchor="middle" x="1366.52" y="-597.33" font-family="Times,serif" font-size="14.00">torchvision</text>
</a>
</g>
</g>
<!-- detectron2 -->
<g id="node2" class="node">
<title>detectron2</title>
<g id="a_node2"><a xlink:href="https://github.com/conda-forge/detectron2-feedstock" xlink:title="detectron2">
<ellipse fill="#fde725" stroke="black" cx="1382.52" cy="-530" rx="65.94" ry="18"/>
<text text-anchor="middle" x="1382.52" y="-525.33" font-family="Times,serif" font-size="14.00">detectron2</text>
</a>
</g>
</g>
<!-- torchvision&#45;&gt;detectron2 -->
<g id="edge1" class="edge">
<title>torchvision&#45;&gt;detectron2</title>
<path fill="none" stroke="black" d="M1370.47,-583.7C1372.2,-576.15 1374.26,-567.12 1376.19,-558.68"/>
<polygon fill="black" stroke="black" points="1379.79,-559.63 1378.61,-549.1 1372.97,-558.07 1379.79,-559.63"/>
</g>
<!-- fcos -->
<g id="node3" class="node">
<title>fcos</title>
<g id="a_node3"><a xlink:href="https://github.com/conda-forge/fcos-feedstock" xlink:title="fcos">
<ellipse fill="#fde725" stroke="black" cx="1497.52" cy="-530" rx="31.22" ry="18"/>
<text text-anchor="middle" x="1497.52" y="-525.33" font-family="Times,serif" font-size="14.00">fcos</text>
</a>
</g>
</g>
<!-- torchvision&#45;&gt;fcos -->
<g id="edge2" class="edge">
<title>torchvision&#45;&gt;fcos</title>
<path fill="none" stroke="black" d="M1395.59,-585.46C1416.28,-574.41 1444.09,-559.55 1465.43,-548.15"/>
<polygon fill="black" stroke="black" points="1466.86,-550.82 1474.03,-543.02 1463.56,-544.64 1466.86,-550.82"/>
</g>
<!-- fairscale -->
<g id="node4" class="node">
<title>fairscale</title>
<g id="a_node4"><a xlink:href="https://github.com/conda-forge/fairscale-feedstock" xlink:title="fairscale">
<ellipse fill="#fde725" stroke="black" cx="775.52" cy="-530" rx="53.84" ry="18"/>
<text text-anchor="middle" x="775.52" y="-525.33" font-family="Times,serif" font-size="14.00">fairscale</text>
</a>
</g>
</g>
<!-- torchvision&#45;&gt;fairscale -->
<g id="edge3" class="edge">
<title>torchvision&#45;&gt;fairscale</title>
<path fill="none" stroke="black" d="M1318.46,-589.18C1309.23,-587.21 1299.61,-585.37 1290.52,-584 1091.25,-553.93 1037.09,-582.4 838.52,-548 834.12,-547.24 829.59,-546.31 825.06,-545.28"/>
<polygon fill="black" stroke="black" points="826.13,-541.7 815.59,-542.74 824.48,-548.5 826.13,-541.7"/>
</g>
<!-- graphvite -->
<g id="node5" class="node">
<title>graphvite</title>
<g id="a_node5"><a xlink:href="https://github.com/conda-forge/graphvite-feedstock" xlink:title="graphvite">
<ellipse fill="#fde725" stroke="black" cx="1606.52" cy="-530" rx="59.63" ry="18"/>
<text text-anchor="middle" x="1606.52" y="-525.33" font-family="Times,serif" font-size="14.00">graphvite</text>
</a>
</g>
</g>
<!-- torchvision&#45;&gt;graphvite -->
<g id="edge4" class="edge">
<title>torchvision&#45;&gt;graphvite</title>
<path fill="none" stroke="black" d="M1410.82,-588.08C1451.4,-576.24 1511.5,-558.71 1554.38,-546.21"/>
<polygon fill="black" stroke="black" points="1555.27,-549.3 1563.89,-543.14 1553.31,-542.58 1555.27,-549.3"/>
</g>
<!-- mmcv&#45;recipe -->
<g id="node6" class="node">
<title>mmcv&#45;recipe</title>
<g id="a_node6"><a xlink:href="https://github.com/conda-forge/mmcv-recipe-feedstock" xlink:title="mmcv recipe">
<ellipse fill="#fde725" stroke="black" cx="922.52" cy="-530" rx="75.41" ry="18"/>
<text text-anchor="middle" x="922.52" y="-525.33" font-family="Times,serif" font-size="14.00">mmcv recipe</text>
</a>
</g>
</g>
<!-- torchvision&#45;&gt;mmcv&#45;recipe -->
<g id="edge5" class="edge">
<title>torchvision&#45;&gt;mmcv&#45;recipe</title>
<path fill="none" stroke="black" d="M1317.59,-589.35C1308.62,-587.41 1299.31,-585.54 1290.52,-584 1165.63,-562.14 1132.65,-568.45 1007.52,-548 1001.33,-546.99 994.91,-545.86 988.49,-544.67"/>
<polygon fill="black" stroke="black" points="989.22,-541.06 978.74,-542.63 987.91,-547.93 989.22,-541.06"/>
</g>
<!-- pytorch3d -->
<g id="node7" class="node">
<title>pytorch3d</title>
<g id="a_node7"><a xlink:href="https://github.com/conda-forge/pytorch3d-feedstock" xlink:title="pytorch3d">
<ellipse fill="#fde725" stroke="black" cx="1078.52" cy="-530" rx="62.26" ry="18"/>
<text text-anchor="middle" x="1078.52" y="-525.33" font-family="Times,serif" font-size="14.00">pytorch3d</text>
</a>
</g>
</g>
<!-- torchvision&#45;&gt;pytorch3d -->
<g id="edge6" class="edge">
<title>torchvision&#45;&gt;pytorch3d</title>
<path fill="none" stroke="black" d="M1317.99,-589.2C1267.6,-576.96 1188.82,-557.81 1135.5,-544.85"/>
<polygon fill="black" stroke="black" points="1136.4,-541.22 1125.86,-542.26 1134.75,-548.03 1136.4,-541.22"/>
</g>
<!-- aihwkit&#45;gpu -->
<g id="node8" class="node">
<title>aihwkit&#45;gpu</title>
<g id="a_node8"><a xlink:href="https://github.com/conda-forge/aihwkit-gpu-feedstock" xlink:title="aihwkit gpu">
<ellipse fill="#fde725" stroke="black" cx="1228.52" cy="-530" rx="70.15" ry="18"/>
<text text-anchor="middle" x="1228.52" y="-525.33" font-family="Times,serif" font-size="14.00">aihwkit gpu</text>
</a>
</g>
</g>
<!-- torchvision&#45;&gt;aihwkit&#45;gpu -->
<g id="edge7" class="edge">
<title>torchvision&#45;&gt;aihwkit&#45;gpu</title>
<path fill="none" stroke="black" d="M1336.23,-585.64C1316.42,-575.59 1290.3,-562.34 1268.75,-551.41"/>
<polygon fill="black" stroke="black" points="1270.71,-547.97 1260.21,-546.57 1267.54,-554.21 1270.71,-547.97"/>
</g>
<!-- tensorflow -->
<g id="node9" class="node">
<title>tensorflow</title>
<g id="a_node9"><a xlink:href="https://github.com/conda-forge/tensorflow-feedstock" xlink:title="tensorflow">
<ellipse fill="#fde725" stroke="black" cx="103.52" cy="-674" rx="63.84" ry="18"/>
<text text-anchor="middle" x="103.52" y="-669.33" font-family="Times,serif" font-size="14.00">tensorflow</text>
</a>
</g>
</g>
<!-- deepmd&#45;kit -->
<g id="node10" class="node">
<title>deepmd&#45;kit</title>
<g id="a_node10"><a xlink:href="https://github.com/conda-forge/deepmd-kit-feedstock" xlink:title="deepmd kit">
<ellipse fill="#fde725" stroke="black" cx="67.52" cy="-602" rx="67.52" ry="18"/>
<text text-anchor="middle" x="67.52" y="-597.33" font-family="Times,serif" font-size="14.00">deepmd kit</text>
</a>
</g>
</g>
<!-- tensorflow&#45;&gt;deepmd&#45;kit -->
<g id="edge8" class="edge">
<title>tensorflow&#45;&gt;deepmd&#45;kit</title>
<path fill="none" stroke="black" d="M94.62,-655.7C90.61,-647.9 85.78,-638.51 81.32,-629.83"/>
<polygon fill="black" stroke="black" points="84,-628.4 76.31,-621.1 77.78,-631.6 84,-628.4"/>
</g>
<!-- dgl -->
<g id="node11" class="node">
<title>dgl</title>
<g id="a_node11"><a xlink:href="https://github.com/conda-forge/dgl-feedstock" xlink:title="dgl">
<ellipse fill="#fde725" stroke="black" cx="180.52" cy="-602" rx="27.01" ry="18"/>
<text text-anchor="middle" x="180.52" y="-597.33" font-family="Times,serif" font-size="14.00">dgl</text>
</a>
</g>
</g>
<!-- tensorflow&#45;&gt;dgl -->
<g id="edge9" class="edge">
<title>tensorflow&#45;&gt;dgl</title>
<path fill="none" stroke="black" d="M121.77,-656.41C132.36,-646.78 145.81,-634.55 157.17,-624.23"/>
<polygon fill="black" stroke="black" points="158.95,-627.42 164,-618.11 154.25,-622.24 158.95,-627.42"/>
</g>
<!-- conda&#45;forge&#45;ci&#45;setup -->
<g id="node12" class="node">
<title>conda&#45;forge&#45;ci&#45;setup</title>
<g id="a_node12"><a xlink:href="https://github.com/conda-forge/conda-forge-ci-setup-feedstock/pull/282" xlink:title="conda forge ci setup ✓">
<ellipse fill="#31688e" stroke="black" cx="3011.52" cy="-854" rx="120.65" ry="18"/>
<text text-anchor="middle" x="3011.52" y="-849.33" font-family="Times,serif" font-size="14.00" fill="white">conda forge ci setup ✓</text>
</a>
</g>
</g>
<!-- prismatic_split -->
<g id="node13" class="node">
<title>prismatic_split</title>
<g id="a_node13"><a xlink:href="https://github.com/conda-forge/prismatic_split-feedstock/pull/44" xlink:title="prismatic_split ❎">
<ellipse fill="#31688e" stroke="black" cx="3011.52" cy="-782" rx="100.66" ry="18"/>
<text text-anchor="middle" x="3011.52" y="-777.33" font-family="Times,serif" font-size="14.00" fill="white">prismatic_split ❎</text>
</a>
</g>
</g>
<!-- conda&#45;forge&#45;ci&#45;setup&#45;&gt;prismatic_split -->
<!-- librealsense -->
<g id="node38" class="node">
<title>librealsense</title>
<g id="a_node38"><a xlink:href="https://github.com/conda-forge/librealsense-feedstock/pull/53" xlink:title="librealsense ❎">
<ellipse fill="#31688e" stroke="black" cx="3011.52" cy="-710" rx="86.98" ry="18"/>
<text text-anchor="middle" x="3011.52" y="-705.33" font-family="Times,serif" font-size="14.00" fill="white">librealsense ❎</text>
</a>
</g>
</g>
<!-- prismatic_split&#45;&gt;librealsense -->
<!-- pytorch&#45;cpu -->
<g id="node14" class="node">
<title>pytorch&#45;cpu</title>
<g id="a_node14"><a xlink:href="https://github.com/conda-forge/pytorch-cpu-feedstock" xlink:title="pytorch cpu">
<ellipse fill="#fde725" stroke="black" cx="1267.52" cy="-674" rx="70.68" ry="18"/>
<text text-anchor="middle" x="1267.52" y="-669.33" font-family="Times,serif" font-size="14.00">pytorch cpu</text>
</a>
</g>
</g>
<!-- pytorch&#45;cpu&#45;&gt;torchvision -->
<g id="edge11" class="edge">
<title>pytorch&#45;cpu&#45;&gt;torchvision</title>
<path fill="none" stroke="black" d="M1290.73,-656.59C1303.89,-647.28 1320.53,-635.51 1334.87,-625.37"/>
<polygon fill="black" stroke="black" points="1336.31,-627.94 1342.45,-619.31 1332.27,-622.22 1336.31,-627.94"/>
</g>
<!-- pytorch&#45;cpu&#45;&gt;detectron2 -->
<g id="edge12" class="edge">
<title>pytorch&#45;cpu&#45;&gt;detectron2</title>
<path fill="none" stroke="black" d="M1337.3,-670.91C1374.9,-665.78 1418.4,-652.5 1442.52,-620 1452.05,-607.15 1449.1,-598.59 1442.52,-584 1437.17,-572.14 1427.72,-561.87 1417.87,-553.61"/>
<polygon fill="black" stroke="black" points="1420.25,-550.25 1410.21,-546.88 1415.96,-555.78 1420.25,-550.25"/>
</g>
<!-- pytorch&#45;cpu&#45;&gt;fcos -->
<g id="edge13" class="edge">
<title>pytorch&#45;cpu&#45;&gt;fcos</title>
<path fill="none" stroke="black" d="M1335.74,-669.02C1376.25,-663.37 1426.24,-650.21 1460.52,-620 1478.34,-604.3 1487.77,-578.65 1492.64,-558.91"/>
<polygon fill="black" stroke="black" points="1496.23,-559.89 1494.95,-549.37 1489.39,-558.39 1496.23,-559.89"/>
</g>
<!-- pytorch&#45;cpu&#45;&gt;fairscale -->
<g id="edge14" class="edge">
<title>pytorch&#45;cpu&#45;&gt;fairscale</title>
<path fill="none" stroke="black" d="M1202.78,-666.51C1141.98,-659.23 1049.02,-645.03 971.52,-620 936.33,-608.64 930.12,-599.42 896.52,-584 870.46,-572.04 841,-559.13 817.68,-549.04"/>
<polygon fill="black" stroke="black" points="819.32,-545.51 808.75,-544.76 816.55,-551.93 819.32,-545.51"/>
</g>
<!-- pytorch&#45;cpu&#45;&gt;graphvite -->
<g id="edge15" class="edge">
<title>pytorch&#45;cpu&#45;&gt;graphvite</title>
<path fill="none" stroke="black" d="M1329.2,-664.84C1374.33,-657.28 1436.21,-643.55 1486.52,-620 1522.35,-603.23 1558.08,-574.85 1581.11,-554.65"/>
<polygon fill="black" stroke="black" points="1583.16,-557.62 1588.29,-548.35 1578.5,-552.4 1583.16,-557.62"/>
</g>
<!-- pytorch&#45;cpu&#45;&gt;mmcv&#45;recipe -->
<g id="edge16" class="edge">
<title>pytorch&#45;cpu&#45;&gt;mmcv&#45;recipe</title>
<path fill="none" stroke="black" d="M1201.51,-667.11C1151.63,-660.65 1082.57,-647.29 1027.52,-620 995.34,-604.05 964.75,-576.15 944.98,-555.83"/>
<polygon fill="black" stroke="black" points="947.88,-553.75 938.45,-548.92 942.81,-558.57 947.88,-553.75"/>
</g>
<!-- pytorch&#45;cpu&#45;&gt;pytorch3d -->
<g id="edge17" class="edge">
<title>pytorch&#45;cpu&#45;&gt;pytorch3d</title>
<path fill="none" stroke="black" d="M1201.93,-666.88C1141.35,-659.72 1057.77,-645.45 1037.52,-620 1022.18,-600.72 1037.31,-574.77 1053.36,-555.87"/>
<polygon fill="black" stroke="black" points="1055.59,-558.5 1059.68,-548.73 1050.39,-553.82 1055.59,-558.5"/>
</g>
<!-- pytorch&#45;cpu&#45;&gt;aihwkit&#45;gpu -->
<g id="edge18" class="edge">
<title>pytorch&#45;cpu&#45;&gt;aihwkit&#45;gpu</title>
<path fill="none" stroke="black" d="M1203.11,-666.18C1145.57,-658.6 1067.51,-644.13 1048.52,-620 1038.62,-607.43 1038.93,-596.81 1048.52,-584 1055.93,-574.1 1117.88,-557.29 1167.07,-545.26"/>
<polygon fill="black" stroke="black" points="1167.77,-548.45 1176.66,-542.69 1166.12,-541.65 1167.77,-548.45"/>
</g>
<!-- pytorch&#45;cpu&#45;&gt;dgl -->
<g id="edge19" class="edge">
<title>pytorch&#45;cpu&#45;&gt;dgl</title>
<path fill="none" stroke="black" d="M1196.66,-673C992.02,-672.45 402.81,-666.73 216.52,-620 214.72,-619.55 212.9,-619.01 211.09,-618.4"/>
<polygon fill="black" stroke="black" points="212.53,-614.8 201.94,-614.32 209.92,-621.3 212.53,-614.8"/>
</g>
<!-- nvidia&#45;apex -->
<g id="node15" class="node">
<title>nvidia&#45;apex</title>
<g id="a_node15"><a xlink:href="https://github.com/conda-forge/nvidia-apex-feedstock" xlink:title="nvidia apex">
<ellipse fill="#fde725" stroke="black" cx="442.52" cy="-602" rx="68.57" ry="18"/>
<text text-anchor="middle" x="442.52" y="-597.33" font-family="Times,serif" font-size="14.00">nvidia apex</text>
</a>
</g>
</g>
<!-- pytorch&#45;cpu&#45;&gt;nvidia&#45;apex -->
<g id="edge20" class="edge">
<title>pytorch&#45;cpu&#45;&gt;nvidia&#45;apex</title>
<path fill="none" stroke="black" d="M1197.38,-671.04C1065.34,-666.69 771.01,-653.76 525.52,-620 518.47,-619.03 511.12,-617.82 503.84,-616.5"/>
<polygon fill="black" stroke="black" points="504.73,-612.91 494.25,-614.49 503.43,-619.79 504.73,-612.91"/>
</g>
<!-- pytorch_cluster -->
<g id="node16" class="node">
<title>pytorch_cluster</title>
<g id="a_node16"><a xlink:href="https://github.com/conda-forge/pytorch_cluster-feedstock" xlink:title="pytorch_cluster">
<ellipse fill="#fde725" stroke="black" cx="2442.52" cy="-530" rx="89.09" ry="18"/>
<text text-anchor="middle" x="2442.52" y="-525.33" font-family="Times,serif" font-size="14.00">pytorch_cluster</text>
</a>
</g>
</g>
<!-- pytorch&#45;cpu&#45;&gt;pytorch_cluster -->
<g id="edge21" class="edge">
<title>pytorch&#45;cpu&#45;&gt;pytorch_cluster</title>
<path fill="none" stroke="black" d="M1338.61,-673.73C1486.57,-674.13 1837.92,-669.25 2127.52,-620 2221.52,-604.01 2327.62,-570.75 2389.58,-549.72"/>
<polygon fill="black" stroke="black" points="2390.55,-552.75 2398.88,-546.2 2388.28,-546.13 2390.55,-552.75"/>
</g>
<!-- pytorch_scatter -->
<g id="node17" class="node">
<title>pytorch_scatter</title>
<g id="a_node17"><a xlink:href="https://github.com/conda-forge/pytorch_scatter-feedstock" xlink:title="pytorch_scatter">
<ellipse fill="#fde725" stroke="black" cx="2677.52" cy="-458" rx="89.61" ry="18"/>
<text text-anchor="middle" x="2677.52" y="-453.32" font-family="Times,serif" font-size="14.00">pytorch_scatter</text>
</a>
</g>
</g>
<!-- pytorch&#45;cpu&#45;&gt;pytorch_scatter -->
<g id="edge22" class="edge">
<title>pytorch&#45;cpu&#45;&gt;pytorch_scatter</title>
<path fill="none" stroke="black" d="M1338.1,-671.93C1602.16,-667.69 2519.58,-650.81 2573.52,-620 2624.93,-590.64 2655.12,-524.31 2668.75,-486.59"/>
<polygon fill="black" stroke="black" points="2672.34,-487.91 2672.3,-477.32 2665.72,-485.62 2672.34,-487.91"/>
</g>
<!-- pytorch_spline_conv -->
<g id="node18" class="node">
<title>pytorch_spline_conv</title>
<g id="a_node18"><a xlink:href="https://github.com/conda-forge/pytorch_spline_conv-feedstock" xlink:title="pytorch_spline_conv">
<ellipse fill="#fde725" stroke="black" cx="2559.52" cy="-386" rx="112.24" ry="18"/>
<text text-anchor="middle" x="2559.52" y="-381.32" font-family="Times,serif" font-size="14.00">pytorch_spline_conv</text>
</a>
</g>
</g>
<!-- pytorch&#45;cpu&#45;&gt;pytorch_spline_conv -->
<g id="edge23" class="edge">
<title>pytorch&#45;cpu&#45;&gt;pytorch_spline_conv</title>
<path fill="none" stroke="black" d="M1338.43,-672.97C1496.73,-672.06 1890.61,-665.01 2216.52,-620 2362.64,-599.82 2441.62,-657.45 2540.52,-548 2573.29,-511.73 2570.34,-450.55 2565.05,-414.97"/>
<polygon fill="black" stroke="black" points="2568.38,-414.68 2563.3,-405.38 2561.48,-415.82 2568.38,-414.68"/>
</g>
<!-- pytorch_sparse -->
<g id="node19" class="node">
<title>pytorch_sparse</title>
<g id="a_node19"><a xlink:href="https://github.com/conda-forge/pytorch_sparse-feedstock" xlink:title="pytorch_sparse">
<ellipse fill="#fde725" stroke="black" cx="2786.52" cy="-386" rx="87.51" ry="18"/>
<text text-anchor="middle" x="2786.52" y="-381.32" font-family="Times,serif" font-size="14.00">pytorch_sparse</text>
</a>
</g>
</g>
<!-- pytorch&#45;cpu&#45;&gt;pytorch_sparse -->
<g id="edge24" class="edge">
<title>pytorch&#45;cpu&#45;&gt;pytorch_sparse</title>
<path fill="none" stroke="black" d="M1338.23,-672.91C1597.93,-672.23 2490.11,-666.48 2608.52,-620 2700.06,-584.07 2730.49,-562.91 2776.52,-476 2786.35,-457.43 2788.59,-433.65 2788.51,-415.35"/>
<polygon fill="black" stroke="black" points="2791.98,-415.38 2788.2,-405.49 2784.99,-415.59 2791.98,-415.38"/>
</g>
<!-- torchani -->
<g id="node20" class="node">
<title>torchani</title>
<g id="a_node20"><a xlink:href="https://github.com/conda-forge/torchani-feedstock" xlink:title="torchani">
<ellipse fill="#fde725" stroke="black" cx="459.52" cy="-314" rx="52.79" ry="18"/>
<text text-anchor="middle" x="459.52" y="-309.32" font-family="Times,serif" font-size="14.00">torchani</text>
</a>
</g>
</g>
<!-- pytorch&#45;cpu&#45;&gt;torchani -->
<g id="edge25" class="edge">
<title>pytorch&#45;cpu&#45;&gt;torchani</title>
<path fill="none" stroke="black" d="M1196.59,-673.68C994.64,-674.97 427.07,-673.71 364.52,-620 333.83,-593.65 345.52,-571.45 345.52,-531 345.52,-531 345.52,-531 345.52,-457 345.52,-404.91 392.75,-361.04 426.41,-336.4"/>
<polygon fill="black" stroke="black" points="427.93,-338.9 434.06,-330.26 423.88,-333.19 427.93,-338.9"/>
</g>
<!-- openmm&#45;torch -->
<g id="node21" class="node">
<title>openmm&#45;torch</title>
<g id="a_node21"><a xlink:href="https://github.com/conda-forge/openmm-torch-feedstock" xlink:title="openmm torch">
<ellipse fill="#fde725" stroke="black" cx="803.52" cy="-602" rx="83.83" ry="18"/>
<text text-anchor="middle" x="803.52" y="-597.33" font-family="Times,serif" font-size="14.00">openmm torch</text>
</a>
</g>
</g>
<!-- pytorch&#45;cpu&#45;&gt;openmm&#45;torch -->
<g id="edge26" class="edge">
<title>pytorch&#45;cpu&#45;&gt;openmm&#45;torch</title>
<path fill="none" stroke="black" d="M1206.24,-664.66C1133.49,-654.63 1008.52,-637.02 901.52,-620 893.69,-618.75 885.52,-617.41 877.38,-616.04"/>
<polygon fill="black" stroke="black" points="878.18,-612.46 867.74,-614.23 877.01,-619.36 878.18,-612.46"/>
</g>
<!-- torchsparse -->
<g id="node22" class="node">
<title>torchsparse</title>
<g id="a_node22"><a xlink:href="https://github.com/conda-forge/torchsparse-feedstock" xlink:title="torchsparse">
<ellipse fill="#fde725" stroke="black" cx="478.52" cy="-530" rx="70.68" ry="18"/>
<text text-anchor="middle" x="478.52" y="-525.33" font-family="Times,serif" font-size="14.00">torchsparse</text>
</a>
</g>
</g>
<!-- pytorch&#45;cpu&#45;&gt;torchsparse -->
<g id="edge27" class="edge">
<title>pytorch&#45;cpu&#45;&gt;torchsparse</title>
<path fill="none" stroke="black" d="M1197.64,-670.58C1030.99,-664.4 619.85,-646.64 563.52,-620 548.12,-612.72 518.94,-579.99 499.11,-556.33"/>
<polygon fill="black" stroke="black" points="501.35,-554.55 492.27,-549.09 495.96,-559.02 501.35,-554.55"/>
</g>
<!-- torch&#45;scatter -->
<g id="node23" class="node">
<title>torch&#45;scatter</title>
<g id="a_node23"><a xlink:href="https://github.com/conda-forge/torch-scatter-feedstock" xlink:title="torch scatter">
<ellipse fill="#fde725" stroke="black" cx="511.52" cy="-458" rx="75.94" ry="18"/>
<text text-anchor="middle" x="511.52" y="-453.32" font-family="Times,serif" font-size="14.00">torch scatter</text>
</a>
</g>
</g>
<!-- pytorch&#45;cpu&#45;&gt;torch&#45;scatter -->
<g id="edge28" class="edge">
<title>pytorch&#45;cpu&#45;&gt;torch&#45;scatter</title>
<path fill="none" stroke="black" d="M1197.11,-671.56C1035.59,-667.65 648.62,-654.75 601.52,-620 559.94,-589.33 585.62,-555.99 558.52,-512 552.42,-502.11 544.42,-492.29 536.75,-483.85"/>
<polygon fill="black" stroke="black" points="539.68,-481.8 530.28,-476.91 534.59,-486.59 539.68,-481.8"/>
</g>
<!-- kaolin -->
<g id="node24" class="node">
<title>kaolin</title>
<g id="a_node24"><a xlink:href="https://github.com/conda-forge/kaolin-feedstock" xlink:title="kaolin">
<ellipse fill="#fde725" stroke="black" cx="584.52" cy="-386" rx="41.21" ry="18"/>
<text text-anchor="middle" x="584.52" y="-381.32" font-family="Times,serif" font-size="14.00">kaolin</text>
</a>
</g>
</g>
<!-- pytorch&#45;cpu&#45;&gt;kaolin -->
<g id="edge29" class="edge">
<title>pytorch&#45;cpu&#45;&gt;kaolin</title>
<path fill="none" stroke="black" d="M1197.04,-671.64C1041.85,-668.01 681,-655.77 639.52,-620 637.55,-618.3 604.92,-476.31 590.87,-414.85"/>
<polygon fill="black" stroke="black" points="594.11,-414.33 588.47,-405.36 587.29,-415.89 594.11,-414.33"/>
</g>
<!-- nnpops -->
<g id="node25" class="node">
<title>nnpops</title>
<g id="a_node25"><a xlink:href="https://github.com/conda-forge/nnpops-feedstock" xlink:title="nnpops">
<ellipse fill="#fde725" stroke="black" cx="478.52" cy="-242" rx="47.53" ry="18"/>
<text text-anchor="middle" x="478.52" y="-237.32" font-family="Times,serif" font-size="14.00">nnpops</text>
</a>
</g>
</g>
<!-- pytorch&#45;cpu&#45;&gt;nnpops -->
<g id="edge30" class="edge">
<title>pytorch&#45;cpu&#45;&gt;nnpops</title>
<path fill="none" stroke="black" d="M1197.69,-670.76C1052.12,-665.51 726.33,-650.48 686.52,-620 653.02,-594.36 653.52,-573.19 653.52,-531 653.52,-531 653.52,-531 653.52,-385 653.52,-318.43 576.2,-277.62 524.35,-257.73"/>
<polygon fill="black" stroke="black" points="525.95,-254.22 515.35,-254.04 523.52,-260.79 525.95,-254.22"/>
</g>
<!-- triton -->
<g id="node26" class="node">
<title>triton</title>
<g id="a_node26"><a xlink:href="https://github.com/conda-forge/triton-feedstock" xlink:title="triton">
<ellipse fill="#fde725" stroke="black" cx="1293.52" cy="-314" rx="39.63" ry="18"/>
<text text-anchor="middle" x="1293.52" y="-309.32" font-family="Times,serif" font-size="14.00">triton</text>
</a>
</g>
</g>
<!-- pytorch&#45;cpu&#45;&gt;triton -->
<g id="edge31" class="edge">
<title>pytorch&#45;cpu&#45;&gt;triton</title>
<path fill="none" stroke="black" d="M1197.55,-670.9C1056.04,-666.02 746.2,-651.78 710.52,-620 680.32,-593.1 691.52,-571.45 691.52,-531 691.52,-531 691.52,-531 691.52,-457 691.52,-343.97 1098.6,-320.81 1243.26,-316.15"/>
<polygon fill="black" stroke="black" points="1243.13,-319.63 1253.02,-315.82 1242.92,-312.63 1243.13,-319.63"/>
</g>
<!-- openmmtorchplugin -->
<g id="node27" class="node">
<title>openmmtorchplugin</title>
<g id="a_node27"><a xlink:href="https://github.com/conda-forge/openmmtorchplugin-feedstock" xlink:title="openmmtorchplugin">
<ellipse fill="#fde725" stroke="black" cx="1169.52" cy="-602" rx="112.24" ry="18"/>
<text text-anchor="middle" x="1169.52" y="-597.33" font-family="Times,serif" font-size="14.00">openmmtorchplugin</text>
</a>
</g>
</g>
<!-- pytorch&#45;cpu&#45;&gt;openmmtorchplugin -->
<g id="edge32" class="edge">
<title>pytorch&#45;cpu&#45;&gt;openmmtorchplugin</title>
<path fill="none" stroke="black" d="M1244.79,-656.76C1232.08,-647.69 1216.02,-636.22 1202.01,-626.21"/>
<polygon fill="black" stroke="black" points="1204.32,-622.84 1194.15,-619.88 1200.25,-628.54 1204.32,-622.84"/>
</g>
<!-- molgrid -->
<g id="node28" class="node">
<title>molgrid</title>
<g id="a_node28"><a xlink:href="https://github.com/conda-forge/molgrid-feedstock" xlink:title="molgrid">
<ellipse fill="#fde725" stroke="black" cx="1865.52" cy="-530" rx="50.16" ry="18"/>
<text text-anchor="middle" x="1865.52" y="-525.33" font-family="Times,serif" font-size="14.00">molgrid</text>
</a>
</g>
</g>
<!-- pytorch&#45;cpu&#45;&gt;molgrid -->
<g id="edge33" class="edge">
<title>pytorch&#45;cpu&#45;&gt;molgrid</title>
<path fill="none" stroke="black" d="M1337.13,-670.29C1447.6,-665.09 1657.4,-651.35 1724.52,-620 1745.6,-610.16 1743.54,-597.46 1762.52,-584 1781.66,-570.43 1804.74,-558.22 1824.2,-548.95"/>
<polygon fill="black" stroke="black" points="1825.42,-551.78 1833.01,-544.38 1822.47,-545.43 1825.42,-551.78"/>
</g>
<!-- theseus&#45;ai -->
<g id="node29" class="node">
<title>theseus&#45;ai</title>
<g id="a_node29"><a xlink:href="https://github.com/conda-forge/theseus-ai-feedstock" xlink:title="theseus ai">
<ellipse fill="#fde725" stroke="black" cx="1899.52" cy="-458" rx="62.26" ry="18"/>
<text text-anchor="middle" x="1899.52" y="-453.32" font-family="Times,serif" font-size="14.00">theseus ai</text>
</a>
</g>
</g>
<!-- pytorch&#45;cpu&#45;&gt;theseus&#45;ai -->
<g id="edge34" class="edge">
<title>pytorch&#45;cpu&#45;&gt;theseus&#45;ai</title>
<path fill="none" stroke="black" d="M1338.2,-672.66C1501.25,-671.14 1892.81,-663 1932.52,-620 1966.67,-583.02 1938.08,-520.55 1917,-485.28"/>
<polygon fill="black" stroke="black" points="1919.56,-483.76 1911.32,-477.1 1913.61,-487.45 1919.56,-483.76"/>
</g>
<!-- pyg&#45;lib -->
<g id="node30" class="node">
<title>pyg&#45;lib</title>
<g id="a_node30"><a xlink:href="https://github.com/conda-forge/pyg-lib-feedstock" xlink:title="pyg lib">
<ellipse fill="#fde725" stroke="black" cx="1613.52" cy="-242" rx="45.42" ry="18"/>
<text text-anchor="middle" x="1613.52" y="-237.32" font-family="Times,serif" font-size="14.00">pyg lib</text>
</a>
</g>
</g>
<!-- pytorch&#45;cpu&#45;&gt;pyg&#45;lib -->
<g id="edge35" class="edge">
<title>pytorch&#45;cpu&#45;&gt;pyg&#45;lib</title>
<path fill="none" stroke="black" d="M1338.36,-672.55C1504.96,-670.79 1910.9,-662.17 1954.52,-620 2012.26,-564.17 2011.35,-509.16 1970.52,-440 1903.53,-326.53 1745.21,-273.92 1663.8,-253.65"/>
<polygon fill="black" stroke="black" points="1664.85,-250.07 1654.31,-251.12 1663.21,-256.87 1664.85,-250.07"/>
</g>
<!-- deepspeed -->
<g id="node31" class="node">
<title>deepspeed</title>
<g id="a_node31"><a xlink:href="https://github.com/conda-forge/deepspeed-feedstock" xlink:title="deepspeed">
<ellipse fill="#fde725" stroke="black" cx="2027.52" cy="-386" rx="64.89" ry="18"/>
<text text-anchor="middle" x="2027.52" y="-381.32" font-family="Times,serif" font-size="14.00">deepspeed</text>
</a>
</g>
</g>
<!-- pytorch&#45;cpu&#45;&gt;deepspeed -->
<g id="edge36" class="edge">
<title>pytorch&#45;cpu&#45;&gt;deepspeed</title>
<path fill="none" stroke="black" d="M1338.54,-672.97C1513.86,-672.18 1956.44,-665.65 2003.52,-620 2059.04,-566.16 2045.31,-463.72 2034.58,-414.61"/>
<polygon fill="black" stroke="black" points="2037.83,-414.1 2032.17,-405.15 2031.01,-415.68 2037.83,-414.1"/>
</g>
<!-- xformers -->
<g id="node32" class="node">
<title>xformers</title>
<g id="a_node32"><a xlink:href="https://github.com/conda-forge/xformers-feedstock" xlink:title="xformers">
<ellipse fill="#fde725" stroke="black" cx="2120.52" cy="-314" rx="56.47" ry="18"/>
<text text-anchor="middle" x="2120.52" y="-309.32" font-family="Times,serif" font-size="14.00">xformers</text>
</a>
</g>
</g>
<!-- pytorch&#45;cpu&#45;&gt;xformers -->
<g id="edge37" class="edge">
<title>pytorch&#45;cpu&#45;&gt;xformers</title>
<path fill="none" stroke="black" d="M1338.16,-672.5C1516.69,-670.63 1975.63,-661.76 2029.52,-620 2074.11,-585.44 2105.46,-411.98 2116.32,-343.18"/>
<polygon fill="black" stroke="black" points="2119.93,-343.75 2118,-333.33 2113.01,-342.68 2119.93,-343.75"/>
</g>
<!-- bitsandbytes -->
<g id="node33" class="node">
<title>bitsandbytes</title>
<g id="a_node33"><a xlink:href="https://github.com/conda-forge/bitsandbytes-feedstock" xlink:title="bitsandbytes">
<ellipse fill="#fde725" stroke="black" cx="1847.52" cy="-602" rx="75.94" ry="18"/>
<text text-anchor="middle" x="1847.52" y="-597.33" font-family="Times,serif" font-size="14.00">bitsandbytes</text>
</a>
</g>
</g>
<!-- pytorch&#45;cpu&#45;&gt;bitsandbytes -->
<g id="edge38" class="edge">
<title>pytorch&#45;cpu&#45;&gt;bitsandbytes</title>
<path fill="none" stroke="black" d="M1333.91,-667.49C1428.31,-659.28 1606.65,-642.37 1757.52,-620 1764.89,-618.91 1772.59,-617.64 1780.24,-616.31"/>
<polygon fill="black" stroke="black" points="1780.75,-619.59 1789.98,-614.38 1779.52,-612.7 1780.75,-619.59"/>
</g>
<!-- abacus -->
<g id="node34" class="node">
<title>abacus</title>
<g id="a_node34"><a xlink:href="https://github.com/conda-forge/abacus-feedstock" xlink:title="abacus">
<ellipse fill="#fde725" stroke="black" cx="271.52" cy="-602" rx="45.95" ry="18"/>
<text text-anchor="middle" x="271.52" y="-597.33" font-family="Times,serif" font-size="14.00">abacus</text>
</a>
</g>
</g>
<!-- pytorch&#45;cpu&#45;&gt;abacus -->
<g id="edge39" class="edge">
<title>pytorch&#45;cpu&#45;&gt;abacus</title>
<path fill="none" stroke="black" d="M1197.39,-671.02C1009.56,-665.41 498.05,-647.96 331.52,-620 326.57,-619.17 321.45,-618.08 316.38,-616.86"/>
<polygon fill="black" stroke="black" points="317.68,-613.32 307.12,-614.2 315.92,-620.1 317.68,-613.32"/>
</g>
<!-- carterbox&#45;torch&#45;radon -->
<g id="node35" class="node">
<title>carterbox&#45;torch&#45;radon</title>
<g id="a_node35"><a xlink:href="https://github.com/conda-forge/carterbox-torch-radon-feedstock" xlink:title="carterbox torch radon">
<ellipse fill="#fde725" stroke="black" cx="2214.52" cy="-530" rx="121.18" ry="18"/>
<text text-anchor="middle" x="2214.52" y="-525.33" font-family="Times,serif" font-size="14.00">carterbox torch radon</text>
</a>
</g>
</g>
<!-- pytorch&#45;cpu&#45;&gt;carterbox&#45;torch&#45;radon -->
<g id="edge40" class="edge">
<title>pytorch&#45;cpu&#45;&gt;carterbox&#45;torch&#45;radon</title>
<path fill="none" stroke="black" d="M1338.45,-673C1509.99,-672.27 1943.17,-665.79 2079.52,-620 2120.88,-606.11 2161.78,-576.28 2187.53,-554.98"/>
<polygon fill="black" stroke="black" points="2189.28,-557.25 2194.67,-548.12 2184.76,-551.9 2189.28,-557.25"/>
</g>
<!-- pytorch_scatter&#45;&gt;pytorch_sparse -->
<g id="edge41" class="edge">
<title>pytorch_scatter&#45;&gt;pytorch_sparse</title>
<path fill="none" stroke="black" d="M2703.35,-440.41C2717.87,-431.08 2736.2,-419.32 2751.95,-409.2"/>
<polygon fill="black" stroke="black" points="2753.35,-411.82 2759.87,-403.47 2749.57,-405.93 2753.35,-411.82"/>
</g>
<!-- torchani&#45;&gt;nnpops -->
<g id="edge42" class="edge">
<title>torchani&#45;&gt;nnpops</title>
<path fill="none" stroke="black" d="M464.21,-295.7C466.26,-288.15 468.71,-279.12 471,-270.68"/>
<polygon fill="black" stroke="black" points="474.63,-271.67 473.88,-261.1 467.88,-269.84 474.63,-271.67"/>
</g>
<!-- triton&#45;&gt;pyg&#45;lib -->
<g id="edge43" class="edge">
<title>triton&#45;&gt;pyg&#45;lib</title>
<path fill="none" stroke="black" d="M1328.68,-305.31C1385.74,-292.83 1498.67,-268.12 1563.88,-253.86"/>
<polygon fill="black" stroke="black" points="1564.29,-257.13 1573.31,-251.58 1562.8,-250.29 1564.29,-257.13"/>
</g>
<!-- libxc -->
<g id="node36" class="node">
<title>libxc</title>
<g id="a_node36"><a xlink:href="https://github.com/conda-forge/libxc-feedstock/pull/55" xlink:title="libxc ❎">
<ellipse fill="#31688e" stroke="black" cx="271.52" cy="-674" rx="50.16" ry="18"/>
<text text-anchor="middle" x="271.52" y="-669.33" font-family="Times,serif" font-size="14.00" fill="white">libxc ❎</text>
</a>
</g>
</g>
<!-- libxc&#45;&gt;abacus -->
<g id="edge44" class="edge">
<title>libxc&#45;&gt;abacus</title>
<path fill="none" stroke="black" d="M271.52,-655.7C271.52,-648.24 271.52,-639.32 271.52,-630.97"/>
<polygon fill="black" stroke="black" points="275.02,-631.1 271.52,-621.1 268.02,-631.1 275.02,-631.1"/>
</g>
<!-- jaxlib -->
<g id="node37" class="node">
<title>jaxlib</title>
<g id="a_node37"><a xlink:href="https://github.com/conda-forge/jaxlib-feedstock/pull/189" xlink:title="jaxlib ❎">
<ellipse fill="#31688e" stroke="black" cx="103.52" cy="-746" rx="53.84" ry="18"/>
<text text-anchor="middle" x="103.52" y="-741.33" font-family="Times,serif" font-size="14.00" fill="white">jaxlib ❎</text>
</a>
</g>
</g>
<!-- jaxlib&#45;&gt;tensorflow -->
<g id="edge45" class="edge">
<title>jaxlib&#45;&gt;tensorflow</title>
<path fill="none" stroke="black" d="M103.52,-727.7C103.52,-720.24 103.52,-711.32 103.52,-702.97"/>
<polygon fill="black" stroke="black" points="107.02,-703.1 103.52,-693.1 100.02,-703.1 107.02,-703.1"/>
</g>
<!-- pycuda -->
<g id="node44" class="node">
<title>pycuda</title>
<g id="a_node44"><a xlink:href="https://github.com/conda-forge/pycuda-feedstock/pull/26" xlink:title="pycuda ❎">
<ellipse fill="#31688e" stroke="black" cx="3011.52" cy="-638" rx="62.26" ry="18"/>
<text text-anchor="middle" x="3011.52" y="-633.33" font-family="Times,serif" font-size="14.00" fill="white">pycuda ❎</text>
</a>
</g>
</g>
<!-- librealsense&#45;&gt;pycuda -->
<!-- faiss&#45;split -->
<g id="node39" class="node">
<title>faiss&#45;split</title>
<g id="a_node39"><a xlink:href="https://github.com/conda-forge/faiss-split-feedstock/pull/69" xlink:title="faiss split ❎">
<ellipse fill="#31688e" stroke="black" cx="1640.52" cy="-602" rx="74.88" ry="18"/>
<text text-anchor="middle" x="1640.52" y="-597.33" font-family="Times,serif" font-size="14.00" fill="white">faiss split ❎</text>
</a>
</g>
</g>
<!-- faiss&#45;split&#45;&gt;graphvite -->
<g id="edge47" class="edge">
<title>faiss&#45;split&#45;&gt;graphvite</title>
<path fill="none" stroke="black" d="M1632.11,-583.7C1628.33,-575.9 1623.76,-566.51 1619.55,-557.83"/>
<polygon fill="black" stroke="black" points="1622.34,-556.57 1614.83,-549.1 1616.05,-559.63 1622.34,-556.57"/>
</g>
<!-- tsnecuda -->
<g id="node40" class="node">
<title>tsnecuda</title>
<g id="a_node40"><a xlink:href="https://github.com/conda-forge/tsnecuda-feedstock" xlink:title="tsnecuda">
<ellipse fill="#fde725" stroke="black" cx="1740.52" cy="-530" rx="56.47" ry="18"/>
<text text-anchor="middle" x="1740.52" y="-525.33" font-family="Times,serif" font-size="14.00">tsnecuda</text>
</a>
</g>
</g>
<!-- faiss&#45;split&#45;&gt;tsnecuda -->
<g id="edge48" class="edge">
<title>faiss&#45;split&#45;&gt;tsnecuda</title>
<path fill="none" stroke="black" d="M1663.96,-584.59C1677.44,-575.15 1694.55,-563.17 1709.18,-552.94"/>
<polygon fill="black" stroke="black" points="1710.72,-555.43 1716.91,-546.83 1706.71,-549.69 1710.72,-555.43"/>
</g>
<!-- libtvm -->
<g id="node41" class="node">
<title>libtvm</title>
<g id="a_node41"><a xlink:href="https://github.com/conda-forge/libtvm-feedstock/pull/31" xlink:title="libtvm ❎">
<ellipse fill="#31688e" stroke="black" cx="3011.52" cy="-90" rx="58.57" ry="18"/>
<text text-anchor="middle" x="3011.52" y="-85.33" font-family="Times,serif" font-size="14.00" fill="white">libtvm ❎</text>
</a>
</g>
</g>
<!-- tvm&#45;py -->
<g id="node42" class="node">
<title>tvm&#45;py</title>
<g id="a_node42"><a xlink:href="https://github.com/conda-forge/tvm-py-feedstock" xlink:title="tvm py">
<ellipse fill="#fde725" stroke="black" cx="3011.52" cy="-18" rx="45.95" ry="18"/>
<text text-anchor="middle" x="3011.52" y="-13.32" font-family="Times,serif" font-size="14.00">tvm py</text>
</a>
</g>
</g>
<!-- libtvm&#45;&gt;tvm&#45;py -->
<g id="edge49" class="edge">
<title>libtvm&#45;&gt;tvm&#45;py</title>
<path fill="none" stroke="black" d="M3011.52,-71.7C3011.52,-64.24 3011.52,-55.32 3011.52,-46.97"/>
<polygon fill="black" stroke="black" points="3015.02,-47.1 3011.52,-37.1 3008.02,-47.1 3015.02,-47.1"/>
</g>
<!-- magma -->
<g id="node43" class="node">
<title>magma</title>
<g id="a_node43"><a xlink:href="https://github.com/conda-forge/magma-feedstock/pull/34" xlink:title="magma ❎">
<ellipse fill="#31688e" stroke="black" cx="1267.52" cy="-746" rx="63.31" ry="18"/>
<text text-anchor="middle" x="1267.52" y="-741.33" font-family="Times,serif" font-size="14.00" fill="white">magma ❎</text>
</a>
</g>
</g>
<!-- magma&#45;&gt;pytorch&#45;cpu -->
<g id="edge50" class="edge">
<title>magma&#45;&gt;pytorch&#45;cpu</title>
<path fill="none" stroke="black" d="M1267.52,-727.7C1267.52,-720.24 1267.52,-711.32 1267.52,-702.97"/>
<polygon fill="black" stroke="black" points="1271.02,-703.1 1267.52,-693.1 1264.02,-703.1 1271.02,-703.1"/>
</g>
<!-- meld -->
<g id="node45" class="node">
<title>meld</title>
<g id="a_node45"><a xlink:href="https://github.com/conda-forge/meld-feedstock/pull/21" xlink:title="meld ❎">
<ellipse fill="#31688e" stroke="black" cx="3011.52" cy="-566" rx="51.21" ry="18"/>
<text text-anchor="middle" x="3011.52" y="-561.33" font-family="Times,serif" font-size="14.00" fill="white">meld ❎</text>
</a>
</g>
</g>
<!-- pycuda&#45;&gt;meld -->
<!-- onnxruntime -->
<g id="node46" class="node">
<title>onnxruntime</title>
<g id="a_node46"><a xlink:href="https://github.com/conda-forge/onnxruntime-feedstock/pull/69" xlink:title="onnxruntime ❎">
<ellipse fill="#31688e" stroke="black" cx="3011.52" cy="-494" rx="90.67" ry="18"/>
<text text-anchor="middle" x="3011.52" y="-489.32" font-family="Times,serif" font-size="14.00" fill="white">onnxruntime ❎</text>
</a>
</g>
</g>
<!-- meld&#45;&gt;onnxruntime -->
<!-- cudadecon -->
<g id="node49" class="node">
<title>cudadecon</title>
<g id="a_node49"><a xlink:href="https://github.com/conda-forge/cudadecon-feedstock/pull/21" xlink:title="cudadecon ❎">
<ellipse fill="#31688e" stroke="black" cx="3011.52" cy="-422" rx="79.62" ry="18"/>
<text text-anchor="middle" x="3011.52" y="-417.32" font-family="Times,serif" font-size="14.00" fill="white">cudadecon ❎</text>
</a>
</g>
</g>
<!-- onnxruntime&#45;&gt;cudadecon -->
<!-- librmm -->
<g id="node47" class="node">
<title>librmm</title>
<g id="a_node47"><a xlink:href="https://github.com/conda-forge/librmm-feedstock/pull/51" xlink:title="librmm ❎">
<ellipse fill="#31688e" stroke="black" cx="1437.52" cy="-90" rx="62.78" ry="18"/>
<text text-anchor="middle" x="1437.52" y="-85.33" font-family="Times,serif" font-size="14.00" fill="white">librmm ❎</text>
</a>
</g>
</g>
<!-- rmm -->
<g id="node48" class="node">
<title>rmm</title>
<g id="a_node48"><a xlink:href="https://github.com/conda-forge/rmm-feedstock" xlink:title="rmm">
<ellipse fill="#fde725" stroke="black" cx="1437.52" cy="-18" rx="34.9" ry="18"/>
<text text-anchor="middle" x="1437.52" y="-13.32" font-family="Times,serif" font-size="14.00">rmm</text>
</a>
</g>
</g>
<!-- librmm&#45;&gt;rmm -->
<g id="edge54" class="edge">
<title>librmm&#45;&gt;rmm</title>
<path fill="none" stroke="black" d="M1437.52,-71.7C1437.52,-64.24 1437.52,-55.32 1437.52,-46.97"/>
<polygon fill="black" stroke="black" points="1441.02,-47.1 1437.52,-37.1 1434.02,-47.1 1441.02,-47.1"/>
</g>
<!-- timemory -->
<g id="node50" class="node">
<title>timemory</title>
<g id="a_node50"><a xlink:href="https://github.com/conda-forge/timemory-feedstock" xlink:title="timemory">
<ellipse fill="#000000" stroke="black" cx="3011.52" cy="-350" rx="59.63" ry="18"/>
<text text-anchor="middle" x="3011.52" y="-345.32" font-family="Times,serif" font-size="14.00" fill="white">timemory</text>
</a>
</g>
</g>
<!-- cudadecon&#45;&gt;timemory -->
<!-- seekr2_openmm_plugin -->
<g id="node51" class="node">
<title>seekr2_openmm_plugin</title>
<g id="a_node51"><a xlink:href="https://github.com/conda-forge/seekr2_openmm_plugin-feedstock" xlink:title="seekr2_openmm_plugin">
<ellipse fill="#000000" stroke="black" cx="3011.52" cy="-278" rx="129.07" ry="18"/>
<text text-anchor="middle" x="3011.52" y="-273.32" font-family="Times,serif" font-size="14.00" fill="white">seekr2_openmm_plugin</text>
</a>
</g>
</g>
<!-- timemory&#45;&gt;seekr2_openmm_plugin -->
<!-- gromacs -->
<g id="node52" class="node">
<title>gromacs</title>
<g id="a_node52"><a xlink:href="https://github.com/conda-forge/gromacs-feedstock/pull/20" xlink:title="gromacs ✓">
<ellipse fill="#31688e" stroke="black" cx="3011.52" cy="-206" rx="61.73" ry="18"/>
<text text-anchor="middle" x="3011.52" y="-201.33" font-family="Times,serif" font-size="14.00" fill="white">gromacs ✓</text>
</a>
</g>
</g>
<!-- seekr2_openmm_plugin&#45;&gt;gromacs -->
<!-- ptxcompiler -->
<g id="node53" class="node">
<title>ptxcompiler</title>
<g id="a_node53"><a xlink:href="https://github.com/conda-forge/ptxcompiler-feedstock" xlink:title="ptxcompiler">
<ellipse fill="#000000" stroke="black" cx="3011.52" cy="-134" rx="71.2" ry="18"/>
<text text-anchor="middle" x="3011.52" y="-129.32" font-family="Times,serif" font-size="14.00" fill="white">ptxcompiler</text>
</a>
</g>
</g>
<!-- gromacs&#45;&gt;ptxcompiler -->
<!-- pyvkfft -->
<g id="node54" class="node">
<title>pyvkfft</title>
<g id="a_node54"><a xlink:href="https://github.com/conda-forge/pyvkfft-feedstock/pull/15" xlink:title="pyvkfft ❎">
<ellipse fill="#31688e" stroke="black" cx="3296.52" cy="-746" rx="61.2" ry="18"/>
<text text-anchor="middle" x="3296.52" y="-741.33" font-family="Times,serif" font-size="14.00" fill="white">pyvkfft ❎</text>
</a>
</g>
</g>
<!-- pyscamp&#45;gpu -->
<g id="node55" class="node">
<title>pyscamp&#45;gpu</title>
<g id="a_node55"><a xlink:href="https://github.com/conda-forge/pyscamp-gpu-feedstock/pull/7" xlink:title="pyscamp gpu ❎">
<ellipse fill="#31688e" stroke="black" cx="3296.52" cy="-674" rx="92.77" ry="18"/>
<text text-anchor="middle" x="3296.52" y="-669.33" font-family="Times,serif" font-size="14.00" fill="white">pyscamp gpu ❎</text>
</a>
</g>
</g>
<!-- pyvkfft&#45;&gt;pyscamp&#45;gpu -->
<!-- heavydb&#45;ext -->
<g id="node56" class="node">
<title>heavydb&#45;ext</title>
<g id="a_node56"><a xlink:href="https://github.com/conda-forge/heavydb-ext-feedstock/pull/53" xlink:title="heavydb ext ✓">
<ellipse fill="#31688e" stroke="black" cx="3296.52" cy="-602" rx="80.14" ry="18"/>
<text text-anchor="middle" x="3296.52" y="-597.33" font-family="Times,serif" font-size="14.00" fill="white">heavydb ext ✓</text>
</a>
</g>
</g>
<!-- pyscamp&#45;gpu&#45;&gt;heavydb&#45;ext -->
<!-- openmm&#45;dlext -->
<g id="node57" class="node">
<title>openmm&#45;dlext</title>
<g id="a_node57"><a xlink:href="https://github.com/conda-forge/openmm-dlext-feedstock/pull/6" xlink:title="openmm dlext ❎">
<ellipse fill="#31688e" stroke="black" cx="3296.52" cy="-530" rx="98.03" ry="18"/>
<text text-anchor="middle" x="3296.52" y="-525.33" font-family="Times,serif" font-size="14.00" fill="white">openmm dlext ❎</text>
</a>
</g>
</g>
<!-- heavydb&#45;ext&#45;&gt;openmm&#45;dlext -->
<!-- cyrsoxs -->
<g id="node58" class="node">
<title>cyrsoxs</title>
<g id="a_node58"><a xlink:href="https://github.com/conda-forge/cyrsoxs-feedstock/pull/12" xlink:title="cyrsoxs ❎">
<ellipse fill="#31688e" stroke="black" cx="3296.52" cy="-458" rx="64.36" ry="18"/>
<text text-anchor="middle" x="3296.52" y="-453.32" font-family="Times,serif" font-size="14.00" fill="white">cyrsoxs ❎</text>
</a>
</g>
</g>
<!-- openmm&#45;dlext&#45;&gt;cyrsoxs -->
<!-- katago -->
<g id="node59" class="node">
<title>katago</title>
<g id="a_node59"><a xlink:href="https://github.com/conda-forge/katago-feedstock/pull/6" xlink:title="katago ❎">
<ellipse fill="#31688e" stroke="black" cx="3296.52" cy="-386" rx="60.15" ry="18"/>
<text text-anchor="middle" x="3296.52" y="-381.32" font-family="Times,serif" font-size="14.00" fill="white">katago ❎</text>
</a>
</g>
</g>
<!-- cyrsoxs&#45;&gt;katago -->
<!-- pycolmap -->
<g id="node60" class="node">
<title>pycolmap</title>
<g id="a_node60"><a xlink:href="https://github.com/conda-forge/pycolmap-feedstock/pull/8" xlink:title="pycolmap ❎">
<ellipse fill="#31688e" stroke="black" cx="3296.52" cy="-314" rx="74.36" ry="18"/>
<text text-anchor="middle" x="3296.52" y="-309.32" font-family="Times,serif" font-size="14.00" fill="white">pycolmap ❎</text>
</a>
</g>
</g>
<!-- katago&#45;&gt;pycolmap -->
<!-- pennylane&#45;lightning&#45;gpu -->
<g id="node61" class="node">
<title>pennylane&#45;lightning&#45;gpu</title>
<g id="a_node61"><a xlink:href="https://github.com/conda-forge/pennylane-lightning-gpu-feedstock/pull/13" xlink:title="pennylane lightning gpu ❎">
<ellipse fill="#31688e" stroke="black" cx="3296.52" cy="-242" rx="148.54" ry="18"/>
<text text-anchor="middle" x="3296.52" y="-237.32" font-family="Times,serif" font-size="14.00" fill="white">pennylane lightning gpu ❎</text>
</a>
</g>
</g>
<!-- pycolmap&#45;&gt;pennylane&#45;lightning&#45;gpu -->
</g>
</svg>
