<?xml version="1.0" encoding="UTF-8" standalone="no"?>
<!DOCTYPE svg PUBLIC "-//W3C//DTD SVG 1.1//EN"
 "http://www.w3.org/Graphics/SVG/1.1/DTD/svg11.dtd">
<!-- Generated by graphviz version 8.1.0 (20230707.2238)
 -->
<!-- Pages: 1 -->
<svg width="1815pt" height="1500pt"
 viewBox="0.00 0.00 1815.20 1500.00" xmlns="http://www.w3.org/2000/svg" xmlns:xlink="http://www.w3.org/1999/xlink">
<g id="graph0" class="graph" transform="scale(1 1) rotate(0) translate(4 1496)">
<polygon fill="white" stroke="none" points="-4,4 -4,-1496 1811.2,-1496 1811.2,4 -4,4"/>
<!-- libhwloc -->
<g id="node1" class="node">
<title>libhwloc</title>
<g id="a_node1"><a xlink:href="https://github.com/conda-forge/libhwloc-feedstock/pull/67" xlink:title="libhwloc ❎">
<ellipse fill="#31688e" stroke="black" cx="491.07" cy="-1330" rx="68.04" ry="18"/>
<text text-anchor="middle" x="491.07" y="-1325.33" font-family="Times,serif" font-size="14.00" fill="white">libhwloc ❎</text>
</a>
</g>
</g>
<!-- openmm -->
<g id="node2" class="node">
<title>openmm</title>
<g id="a_node2"><a xlink:href="https://github.com/conda-forge/openmm-feedstock" xlink:title="openmm">
<ellipse fill="#fde725" stroke="black" cx="491.07" cy="-1258" rx="54.36" ry="18"/>
<text text-anchor="middle" x="491.07" y="-1253.33" font-family="Times,serif" font-size="14.00">openmm</text>
</a>
</g>
</g>
<!-- libhwloc&#45;&gt;openmm -->
<g id="edge1" class="edge">
<title>libhwloc&#45;&gt;openmm</title>
<path fill="none" stroke="black" d="M491.07,-1311.7C491.07,-1304.24 491.07,-1295.32 491.07,-1286.97"/>
<polygon fill="black" stroke="black" points="494.57,-1287.1 491.07,-1277.1 487.57,-1287.1 494.57,-1287.1"/>
</g>
<!-- seekr2_openmm_plugin -->
<g id="node3" class="node">
<title>seekr2_openmm_plugin</title>
<g id="a_node3"><a xlink:href="https://github.com/conda-forge/seekr2_openmm_plugin-feedstock" xlink:title="seekr2_openmm_plugin">
<ellipse fill="#fde725" stroke="black" cx="129.07" cy="-1186" rx="129.07" ry="18"/>
<text text-anchor="middle" x="129.07" y="-1181.33" font-family="Times,serif" font-size="14.00">seekr2_openmm_plugin</text>
</a>
</g>
</g>
<!-- libhwloc&#45;&gt;seekr2_openmm_plugin -->
<g id="edge2" class="edge">
<title>libhwloc&#45;&gt;seekr2_openmm_plugin</title>
<path fill="none" stroke="black" d="M454.03,-1314.47C389.24,-1289.05 255.17,-1236.46 181.09,-1207.41"/>
<polygon fill="black" stroke="black" points="182.64,-1203.86 172.05,-1203.47 180.08,-1210.38 182.64,-1203.86"/>
</g>
<!-- gromacs -->
<g id="node4" class="node">
<title>gromacs</title>
<g id="a_node4"><a xlink:href="https://github.com/conda-forge/gromacs-feedstock" xlink:title="gromacs">
<ellipse fill="#fde725" stroke="black" cx="617.07" cy="-1258" rx="53.84" ry="18"/>
<text text-anchor="middle" x="617.07" y="-1253.33" font-family="Times,serif" font-size="14.00">gromacs</text>
</a>
</g>
</g>
<!-- libhwloc&#45;&gt;gromacs -->
<g id="edge3" class="edge">
<title>libhwloc&#45;&gt;gromacs</title>
<path fill="none" stroke="black" d="M519.35,-1313.29C537.47,-1303.22 561.17,-1290.05 580.7,-1279.21"/>
<polygon fill="black" stroke="black" points="582.14,-1281.85 589.18,-1273.94 578.74,-1275.73 582.14,-1281.85"/>
</g>
<!-- openmm&#45;&gt;seekr2_openmm_plugin -->
<g id="edge4" class="edge">
<title>openmm&#45;&gt;seekr2_openmm_plugin</title>
<path fill="none" stroke="black" d="M444.86,-1248.06C386.54,-1236.79 285.16,-1217.18 213,-1203.23"/>
<polygon fill="black" stroke="black" points="214.06,-1199.68 203.58,-1201.21 212.73,-1206.55 214.06,-1199.68"/>
</g>
<!-- openmm&#45;torch -->
<g id="node5" class="node">
<title>openmm&#45;torch</title>
<g id="a_node5"><a xlink:href="https://github.com/conda-forge/openmm-torch-feedstock" xlink:title="openmm torch">
<ellipse fill="#fde725" stroke="black" cx="360.07" cy="-1186" rx="83.83" ry="18"/>
<text text-anchor="middle" x="360.07" y="-1181.33" font-family="Times,serif" font-size="14.00">openmm torch</text>
</a>
</g>
</g>
<!-- openmm&#45;&gt;openmm&#45;torch -->
<g id="edge5" class="edge">
<title>openmm&#45;&gt;openmm&#45;torch</title>
<path fill="none" stroke="black" d="M463.29,-1242.15C444.75,-1232.25 420.09,-1219.07 399.52,-1208.08"/>
<polygon fill="black" stroke="black" points="401.56,-1204.67 391.1,-1203.04 398.27,-1210.84 401.56,-1204.67"/>
</g>
<!-- openmm&#45;plumed -->
<g id="node6" class="node">
<title>openmm&#45;plumed</title>
<g id="a_node6"><a xlink:href="https://github.com/conda-forge/openmm-plumed-feedstock" xlink:title="openmm plumed">
<ellipse fill="#fde725" stroke="black" cx="387.07" cy="-1114" rx="94.88" ry="18"/>
<text text-anchor="middle" x="387.07" y="-1109.33" font-family="Times,serif" font-size="14.00">openmm plumed</text>
</a>
</g>
</g>
<!-- openmm&#45;&gt;openmm&#45;plumed -->
<g id="edge6" class="edge">
<title>openmm&#45;&gt;openmm&#45;plumed</title>
<path fill="none" stroke="black" d="M486.43,-1239.63C480.77,-1220.68 469.82,-1190.09 453.07,-1168 444.52,-1156.73 433.07,-1146.44 422.11,-1137.99"/>
<polygon fill="black" stroke="black" points="424.61,-1134.75 414.49,-1131.62 420.45,-1140.38 424.61,-1134.75"/>
</g>
<!-- meld -->
<g id="node7" class="node">
<title>meld</title>
<g id="a_node7"><a xlink:href="https://github.com/conda-forge/meld-feedstock" xlink:title="meld">
<ellipse fill="#fde725" stroke="black" cx="484.07" cy="-1042" rx="35.95" ry="18"/>
<text text-anchor="middle" x="484.07" y="-1037.33" font-family="Times,serif" font-size="14.00">meld</text>
</a>
</g>
</g>
<!-- openmm&#45;&gt;meld -->
<g id="edge7" class="edge">
<title>openmm&#45;&gt;meld</title>
<path fill="none" stroke="black" d="M491.82,-1239.58C492.92,-1210.02 494.5,-1148.16 491.07,-1096 490.53,-1087.82 489.53,-1078.97 488.45,-1070.89"/>
<polygon fill="black" stroke="black" points="491.8,-1070.53 486.91,-1061.13 484.87,-1071.52 491.8,-1070.53"/>
</g>
<!-- openmmtorchplugin -->
<g id="node8" class="node">
<title>openmmtorchplugin</title>
<g id="a_node8"><a xlink:href="https://github.com/conda-forge/openmmtorchplugin-feedstock" xlink:title="openmmtorchplugin">
<ellipse fill="#fde725" stroke="black" cx="497.07" cy="-970" rx="112.24" ry="18"/>
<text text-anchor="middle" x="497.07" y="-965.33" font-family="Times,serif" font-size="14.00">openmmtorchplugin</text>
</a>
</g>
</g>
<!-- openmm&#45;&gt;openmmtorchplugin -->
<g id="edge8" class="edge">
<title>openmm&#45;&gt;openmmtorchplugin</title>
<path fill="none" stroke="black" d="M498.89,-1239.77C515.5,-1200.76 551.06,-1102.97 529.07,-1024 526.46,-1014.62 521.69,-1005.25 516.62,-997.05"/>
<polygon fill="black" stroke="black" points="519.08,-995.43 510.64,-989.03 513.25,-999.3 519.08,-995.43"/>
</g>
<!-- openmm&#45;atmmetaforce&#45;plugin -->
<g id="node9" class="node">
<title>openmm&#45;atmmetaforce&#45;plugin</title>
<g id="a_node9"><a xlink:href="https://github.com/conda-forge/openmm-atmmetaforce-plugin-feedstock" xlink:title="openmm atmmetaforce plugin">
<ellipse fill="#fde725" stroke="black" cx="637.07" cy="-898" rx="162.22" ry="18"/>
<text text-anchor="middle" x="637.07" y="-893.33" font-family="Times,serif" font-size="14.00">openmm atmmetaforce plugin</text>
</a>
</g>
</g>
<!-- openmm&#45;&gt;openmm&#45;atmmetaforce&#45;plugin -->
<g id="edge9" class="edge">
<title>openmm&#45;&gt;openmm&#45;atmmetaforce&#45;plugin</title>
<path fill="none" stroke="black" d="M523.11,-1243.19C566.09,-1222.25 637.07,-1178.12 637.07,-1115 637.07,-1115 637.07,-1115 637.07,-1041 637.07,-1001.57 637.07,-955.97 637.07,-927.31"/>
<polygon fill="black" stroke="black" points="640.57,-927.49 637.07,-917.49 633.57,-927.49 640.57,-927.49"/>
</g>
<!-- openmm&#45;dlext -->
<g id="node10" class="node">
<title>openmm&#45;dlext</title>
<g id="a_node10"><a xlink:href="https://github.com/conda-forge/openmm-dlext-feedstock" xlink:title="openmm dlext">
<ellipse fill="#fde725" stroke="black" cx="748.07" cy="-1186" rx="82.77" ry="18"/>
<text text-anchor="middle" x="748.07" y="-1181.33" font-family="Times,serif" font-size="14.00">openmm dlext</text>
</a>
</g>
</g>
<!-- openmm&#45;&gt;openmm&#45;dlext -->
<g id="edge10" class="edge">
<title>openmm&#45;&gt;openmm&#45;dlext</title>
<path fill="none" stroke="black" d="M532.08,-1245.83C573.98,-1234.42 639.5,-1216.57 687.4,-1203.52"/>
<polygon fill="black" stroke="black" points="688.22,-1206.66 696.95,-1200.65 686.38,-1199.9 688.22,-1206.66"/>
</g>
<!-- torchvision -->
<g id="node11" class="node">
<title>torchvision</title>
<g id="a_node11"><a xlink:href="https://github.com/conda-forge/torchvision-feedstock/pull/77" xlink:title="torchvision ❎">
<ellipse fill="#31688e" stroke="black" cx="1084.07" cy="-1294" rx="82.25" ry="18"/>
<text text-anchor="middle" x="1084.07" y="-1289.33" font-family="Times,serif" font-size="14.00" fill="white">torchvision ❎</text>
</a>
</g>
</g>
<!-- detectron2 -->
<g id="node12" class="node">
<title>detectron2</title>
<g id="a_node12"><a xlink:href="https://github.com/conda-forge/detectron2-feedstock" xlink:title="detectron2">
<ellipse fill="#fde725" stroke="black" cx="904.07" cy="-1222" rx="65.94" ry="18"/>
<text text-anchor="middle" x="904.07" y="-1217.33" font-family="Times,serif" font-size="14.00">detectron2</text>
</a>
</g>
</g>
<!-- torchvision&#45;&gt;detectron2 -->
<g id="edge11" class="edge">
<title>torchvision&#45;&gt;detectron2</title>
<path fill="none" stroke="black" d="M1045.01,-1277.81C1017.36,-1267.06 980.14,-1252.58 950.89,-1241.21"/>
<polygon fill="black" stroke="black" points="952.49,-1237.69 941.9,-1237.32 949.95,-1244.21 952.49,-1237.69"/>
</g>
<!-- fcos -->
<g id="node13" class="node">
<title>fcos</title>
<g id="a_node13"><a xlink:href="https://github.com/conda-forge/fcos-feedstock" xlink:title="fcos">
<ellipse fill="#fde725" stroke="black" cx="987.07" cy="-1150" rx="31.22" ry="18"/>
<text text-anchor="middle" x="987.07" y="-1145.33" font-family="Times,serif" font-size="14.00">fcos</text>
</a>
</g>
</g>
<!-- torchvision&#45;&gt;fcos -->
<g id="edge12" class="edge">
<title>torchvision&#45;&gt;fcos</title>
<path fill="none" stroke="black" d="M1064.78,-1276.09C1054.28,-1266.25 1041.54,-1253.2 1032.07,-1240 1018.16,-1220.59 1006.17,-1196.26 998.08,-1177.95"/>
<polygon fill="black" stroke="black" points="1000.94,-1176.75 993.78,-1168.94 994.51,-1179.51 1000.94,-1176.75"/>
</g>
<!-- fairscale -->
<g id="node14" class="node">
<title>fairscale</title>
<g id="a_node14"><a xlink:href="https://github.com/conda-forge/fairscale-feedstock" xlink:title="fairscale">
<ellipse fill="#fde725" stroke="black" cx="1002.07" cy="-1078" rx="53.84" ry="18"/>
<text text-anchor="middle" x="1002.07" y="-1073.33" font-family="Times,serif" font-size="14.00">fairscale</text>
</a>
</g>
</g>
<!-- torchvision&#45;&gt;fairscale -->
<g id="edge13" class="edge">
<title>torchvision&#45;&gt;fairscale</title>
<path fill="none" stroke="black" d="M1078.64,-1275.87C1069.09,-1246.21 1048.29,-1183.55 1027.07,-1132 1023.53,-1123.4 1019.33,-1114.19 1015.4,-1105.89"/>
<polygon fill="black" stroke="black" points="1018.12,-1104.48 1010.62,-1096.99 1011.81,-1107.52 1018.12,-1104.48"/>
</g>
<!-- graphvite -->
<g id="node15" class="node">
<title>graphvite</title>
<g id="a_node15"><a xlink:href="https://github.com/conda-forge/graphvite-feedstock" xlink:title="graphvite">
<ellipse fill="#fde725" stroke="black" cx="1368.07" cy="-1222" rx="59.63" ry="18"/>
<text text-anchor="middle" x="1368.07" y="-1217.33" font-family="Times,serif" font-size="14.00">graphvite</text>
</a>
</g>
</g>
<!-- torchvision&#45;&gt;graphvite -->
<g id="edge14" class="edge">
<title>torchvision&#45;&gt;graphvite</title>
<path fill="none" stroke="black" d="M1137.16,-1279.92C1187.22,-1267.58 1261.95,-1249.16 1312.74,-1236.64"/>
<polygon fill="black" stroke="black" points="1313.32,-1239.85 1322.19,-1234.06 1311.65,-1233.06 1313.32,-1239.85"/>
</g>
<!-- mmcv&#45;recipe -->
<g id="node16" class="node">
<title>mmcv&#45;recipe</title>
<g id="a_node16"><a xlink:href="https://github.com/conda-forge/mmcv-recipe-feedstock" xlink:title="mmcv recipe">
<ellipse fill="#fde725" stroke="black" cx="1019.07" cy="-1006" rx="75.41" ry="18"/>
<text text-anchor="middle" x="1019.07" y="-1001.33" font-family="Times,serif" font-size="14.00">mmcv recipe</text>
</a>
</g>
</g>
<!-- torchvision&#45;&gt;mmcv&#45;recipe -->
<g id="edge15" class="edge">
<title>torchvision&#45;&gt;mmcv&#45;recipe</title>
<path fill="none" stroke="black" d="M1086.2,-1275.77C1090.37,-1235.95 1096.7,-1135.2 1065.07,-1060 1060.68,-1049.56 1053.41,-1039.7 1045.93,-1031.39"/>
<polygon fill="black" stroke="black" points="1048.93,-1029.42 1039.48,-1024.63 1043.88,-1034.27 1048.93,-1029.42"/>
</g>
<!-- pytorch3d -->
<g id="node17" class="node">
<title>pytorch3d</title>
<g id="a_node17"><a xlink:href="https://github.com/conda-forge/pytorch3d-feedstock" xlink:title="pytorch3d">
<ellipse fill="#fde725" stroke="black" cx="1122.07" cy="-934" rx="62.26" ry="18"/>
<text text-anchor="middle" x="1122.07" y="-929.33" font-family="Times,serif" font-size="14.00">pytorch3d</text>
</a>
</g>
</g>
<!-- torchvision&#45;&gt;pytorch3d -->
<g id="edge16" class="edge">
<title>torchvision&#45;&gt;pytorch3d</title>
<path fill="none" stroke="black" d="M1091.76,-1275.91C1102.87,-1249.62 1122.07,-1197.45 1122.07,-1151 1122.07,-1151 1122.07,-1151 1122.07,-1077 1122.07,-1037.57 1122.07,-991.97 1122.07,-963.31"/>
<polygon fill="black" stroke="black" points="1125.57,-963.49 1122.07,-953.49 1118.57,-963.49 1125.57,-963.49"/>
</g>
<!-- aihwkit&#45;gpu -->
<g id="node18" class="node">
<title>aihwkit&#45;gpu</title>
<g id="a_node18"><a xlink:href="https://github.com/conda-forge/aihwkit-gpu-feedstock" xlink:title="aihwkit gpu">
<ellipse fill="#fde725" stroke="black" cx="1220.07" cy="-1222" rx="70.15" ry="18"/>
<text text-anchor="middle" x="1220.07" y="-1217.33" font-family="Times,serif" font-size="14.00">aihwkit gpu</text>
</a>
</g>
</g>
<!-- torchvision&#45;&gt;aihwkit&#45;gpu -->
<g id="edge17" class="edge">
<title>torchvision&#45;&gt;aihwkit&#45;gpu</title>
<path fill="none" stroke="black" d="M1115.27,-1276.94C1134.64,-1266.97 1159.69,-1254.08 1180.45,-1243.39"/>
<polygon fill="black" stroke="black" points="1181.66,-1246.19 1188.95,-1238.5 1178.46,-1239.97 1181.66,-1246.19"/>
</g>
<!-- libxc -->
<g id="node19" class="node">
<title>libxc</title>
<g id="a_node19"><a xlink:href="https://github.com/conda-forge/libxc-feedstock/pull/58" xlink:title="libxc ✓">
<ellipse fill="#31688e" stroke="black" cx="1199.07" cy="-90" rx="42.79" ry="18"/>
<text text-anchor="middle" x="1199.07" y="-85.33" font-family="Times,serif" font-size="14.00" fill="white">libxc ✓</text>
</a>
</g>
</g>
<!-- abacus -->
<g id="node20" class="node">
<title>abacus</title>
<g id="a_node20"><a xlink:href="https://github.com/conda-forge/abacus-feedstock" xlink:title="abacus">
<ellipse fill="#fde725" stroke="black" cx="1199.07" cy="-18" rx="45.95" ry="18"/>
<text text-anchor="middle" x="1199.07" y="-13.32" font-family="Times,serif" font-size="14.00">abacus</text>
</a>
</g>
</g>
<!-- libxc&#45;&gt;abacus -->
<g id="edge18" class="edge">
<title>libxc&#45;&gt;abacus</title>
<path fill="none" stroke="black" d="M1199.07,-71.7C1199.07,-64.24 1199.07,-55.32 1199.07,-46.97"/>
<polygon fill="black" stroke="black" points="1202.57,-47.1 1199.07,-37.1 1195.57,-47.1 1202.57,-47.1"/>
</g>
<!-- nvidia&#45;apex -->
<g id="node21" class="node">
<title>nvidia&#45;apex</title>
<g id="a_node21"><a xlink:href="https://github.com/conda-forge/nvidia-apex-feedstock/pull/34" xlink:title="nvidia apex ✓">
<ellipse fill="#31688e" stroke="black" cx="1687.07" cy="-1474" rx="76.46" ry="18"/>
<text text-anchor="middle" x="1687.07" y="-1469.33" font-family="Times,serif" font-size="14.00" fill="white">nvidia apex ✓</text>
</a>
</g>
</g>
<!-- pytorch_cluster -->
<g id="node22" class="node">
<title>pytorch_cluster</title>
<g id="a_node22"><a xlink:href="https://github.com/conda-forge/pytorch_cluster-feedstock/pull/44" xlink:title="pytorch_cluster ❎">
<ellipse fill="#31688e" stroke="black" cx="1687.07" cy="-1402" rx="104.35" ry="18"/>
<text text-anchor="middle" x="1687.07" y="-1397.33" font-family="Times,serif" font-size="14.00" fill="white">pytorch_cluster ❎</text>
</a>
</g>
</g>
<!-- nvidia&#45;apex&#45;&gt;pytorch_cluster -->
<!-- pytorch_spline_conv -->
<g id="node27" class="node">
<title>pytorch_spline_conv</title>
<g id="a_node27"><a xlink:href="https://github.com/conda-forge/pytorch_spline_conv-feedstock/pull/33" xlink:title="pytorch_spline_conv ✓">
<ellipse fill="#31688e" stroke="black" cx="1687.07" cy="-1330" rx="120.13" ry="18"/>
<text text-anchor="middle" x="1687.07" y="-1325.33" font-family="Times,serif" font-size="14.00" fill="white">pytorch_spline_conv ✓</text>
</a>
</g>
</g>
<!-- pytorch_cluster&#45;&gt;pytorch_spline_conv -->
<!-- pp&#45;sketchlib -->
<g id="node23" class="node">
<title>pp&#45;sketchlib</title>
<g id="a_node23"><a xlink:href="https://github.com/conda-forge/pp-sketchlib-feedstock/pull/45" xlink:title="pp sketchlib ❎">
<ellipse fill="#31688e" stroke="black" cx="1687.07" cy="-458" rx="87.51" ry="18"/>
<text text-anchor="middle" x="1687.07" y="-453.32" font-family="Times,serif" font-size="14.00" fill="white">pp sketchlib ❎</text>
</a>
</g>
</g>
<!-- mandrake -->
<g id="node24" class="node">
<title>mandrake</title>
<g id="a_node24"><a xlink:href="https://github.com/conda-forge/mandrake-feedstock" xlink:title="mandrake">
<ellipse fill="#fde725" stroke="black" cx="1687.07" cy="-386" rx="61.2" ry="18"/>
<text text-anchor="middle" x="1687.07" y="-381.32" font-family="Times,serif" font-size="14.00">mandrake</text>
</a>
</g>
</g>
<!-- pp&#45;sketchlib&#45;&gt;mandrake -->
<g id="edge20" class="edge">
<title>pp&#45;sketchlib&#45;&gt;mandrake</title>
<path fill="none" stroke="black" d="M1687.07,-439.7C1687.07,-432.24 1687.07,-423.32 1687.07,-414.97"/>
<polygon fill="black" stroke="black" points="1690.57,-415.1 1687.07,-405.1 1683.57,-415.1 1690.57,-415.1"/>
</g>
<!-- faiss&#45;split -->
<g id="node25" class="node">
<title>faiss&#45;split</title>
<g id="a_node25"><a xlink:href="https://github.com/conda-forge/faiss-split-feedstock/pull/70" xlink:title="faiss split ❎">
<ellipse fill="#31688e" stroke="black" cx="1435.07" cy="-1294" rx="74.88" ry="18"/>
<text text-anchor="middle" x="1435.07" y="-1289.33" font-family="Times,serif" font-size="14.00" fill="white">faiss split ❎</text>
</a>
</g>
</g>
<!-- faiss&#45;split&#45;&gt;graphvite -->
<g id="edge21" class="edge">
<title>faiss&#45;split&#45;&gt;graphvite</title>
<path fill="none" stroke="black" d="M1418.85,-1276.05C1410.71,-1267.54 1400.68,-1257.07 1391.7,-1247.68"/>
<polygon fill="black" stroke="black" points="1394.58,-1245.59 1385.14,-1240.79 1389.53,-1250.43 1394.58,-1245.59"/>
</g>
<!-- tsnecuda -->
<g id="node26" class="node">
<title>tsnecuda</title>
<g id="a_node26"><a xlink:href="https://github.com/conda-forge/tsnecuda-feedstock" xlink:title="tsnecuda">
<ellipse fill="#fde725" stroke="black" cx="1502.07" cy="-1222" rx="56.47" ry="18"/>
<text text-anchor="middle" x="1502.07" y="-1217.33" font-family="Times,serif" font-size="14.00">tsnecuda</text>
</a>
</g>
</g>
<!-- faiss&#45;split&#45;&gt;tsnecuda -->
<g id="edge22" class="edge">
<title>faiss&#45;split&#45;&gt;tsnecuda</title>
<path fill="none" stroke="black" d="M1451.29,-1276.05C1459.64,-1267.33 1469.97,-1256.54 1479.12,-1246.98"/>
<polygon fill="black" stroke="black" points="1481.08,-1249.95 1485.46,-1240.31 1476.02,-1245.11 1481.08,-1249.95"/>
</g>
<!-- onnxruntime -->
<g id="node28" class="node">
<title>onnxruntime</title>
<g id="a_node28"><a xlink:href="https://github.com/conda-forge/onnxruntime-feedstock/pull/79" xlink:title="onnxruntime ❎">
<ellipse fill="#31688e" stroke="black" cx="1687.07" cy="-1258" rx="90.67" ry="18"/>
<text text-anchor="middle" x="1687.07" y="-1253.33" font-family="Times,serif" font-size="14.00" fill="white">onnxruntime ❎</text>
</a>
</g>
</g>
<!-- pytorch_spline_conv&#45;&gt;onnxruntime -->
<!-- cudadecon -->
<g id="node33" class="node">
<title>cudadecon</title>
<g id="a_node33"><a xlink:href="https://github.com/conda-forge/cudadecon-feedstock/pull/26" xlink:title="cudadecon ❎">
<ellipse fill="#31688e" stroke="black" cx="1687.07" cy="-1186" rx="79.62" ry="18"/>
<text text-anchor="middle" x="1687.07" y="-1181.33" font-family="Times,serif" font-size="14.00" fill="white">cudadecon ❎</text>
</a>
</g>
</g>
<!-- onnxruntime&#45;&gt;cudadecon -->
<!-- pytorch_sparse -->
<g id="node29" class="node">
<title>pytorch_sparse</title>
<g id="a_node29"><a xlink:href="https://github.com/conda-forge/pytorch_sparse-feedstock/pull/54" xlink:title="pytorch_sparse ❎">
<ellipse fill="#31688e" stroke="black" cx="1139.07" cy="-422" rx="102.77" ry="18"/>
<text text-anchor="middle" x="1139.07" y="-417.32" font-family="Times,serif" font-size="14.00" fill="white">pytorch_sparse ❎</text>
</a>
</g>
</g>
<!-- torchmd&#45;net -->
<g id="node30" class="node">
<title>torchmd&#45;net</title>
<g id="a_node30"><a xlink:href="https://github.com/conda-forge/torchmd-net-feedstock" xlink:title="torchmd net">
<ellipse fill="#fde725" stroke="black" cx="1222.07" cy="-350" rx="72.78" ry="18"/>
<text text-anchor="middle" x="1222.07" y="-345.32" font-family="Times,serif" font-size="14.00">torchmd net</text>
</a>
</g>
</g>
<!-- pytorch_sparse&#45;&gt;torchmd&#45;net -->
<g id="edge25" class="edge">
<title>pytorch_sparse&#45;&gt;torchmd&#45;net</title>
<path fill="none" stroke="black" d="M1159.16,-404.05C1169.56,-395.28 1182.43,-384.43 1193.82,-374.83"/>
<polygon fill="black" stroke="black" points="1195.78,-376.91 1201.17,-367.79 1191.26,-371.56 1195.78,-376.91"/>
</g>
<!-- libtvm -->
<g id="node31" class="node">
<title>libtvm</title>
<g id="a_node31"><a xlink:href="https://github.com/conda-forge/libtvm-feedstock/pull/32" xlink:title="libtvm ❎">
<ellipse fill="#31688e" stroke="black" cx="415.07" cy="-90" rx="58.57" ry="18"/>
<text text-anchor="middle" x="415.07" y="-85.33" font-family="Times,serif" font-size="14.00" fill="white">libtvm ❎</text>
</a>
</g>
</g>
<!-- tvm&#45;py -->
<g id="node32" class="node">
<title>tvm&#45;py</title>
<g id="a_node32"><a xlink:href="https://github.com/conda-forge/tvm-py-feedstock" xlink:title="tvm py">
<ellipse fill="#fde725" stroke="black" cx="415.07" cy="-18" rx="45.95" ry="18"/>
<text text-anchor="middle" x="415.07" y="-13.32" font-family="Times,serif" font-size="14.00">tvm py</text>
</a>
</g>
</g>
<!-- libtvm&#45;&gt;tvm&#45;py -->
<g id="edge26" class="edge">
<title>libtvm&#45;&gt;tvm&#45;py</title>
<path fill="none" stroke="black" d="M415.07,-71.7C415.07,-64.24 415.07,-55.32 415.07,-46.97"/>
<polygon fill="black" stroke="black" points="418.57,-47.1 415.07,-37.1 411.57,-47.1 418.57,-47.1"/>
</g>
<!-- torchsparse -->
<g id="node34" class="node">
<title>torchsparse</title>
<g id="a_node34"><a xlink:href="https://github.com/conda-forge/torchsparse-feedstock/pull/27" xlink:title="torchsparse ❎">
<ellipse fill="#31688e" stroke="black" cx="1687.07" cy="-1114" rx="85.93" ry="18"/>
<text text-anchor="middle" x="1687.07" y="-1109.33" font-family="Times,serif" font-size="14.00" fill="white">torchsparse ❎</text>
</a>
</g>
</g>
<!-- cudadecon&#45;&gt;torchsparse -->
<!-- timemory -->
<g id="node35" class="node">
<title>timemory</title>
<g id="a_node35"><a xlink:href="https://github.com/conda-forge/timemory-feedstock" xlink:title="timemory">
<ellipse fill="#000000" stroke="black" cx="1687.07" cy="-1042" rx="59.63" ry="18"/>
<text text-anchor="middle" x="1687.07" y="-1037.33" font-family="Times,serif" font-size="14.00" fill="white">timemory</text>
</a>
</g>
</g>
<!-- torchsparse&#45;&gt;timemory -->
<!-- torch&#45;scatter -->
<g id="node36" class="node">
<title>torch&#45;scatter</title>
<g id="a_node36"><a xlink:href="https://github.com/conda-forge/torch-scatter-feedstock/pull/19" xlink:title="torch scatter ❎">
<ellipse fill="#31688e" stroke="black" cx="1687.07" cy="-970" rx="91.19" ry="18"/>
<text text-anchor="middle" x="1687.07" y="-965.33" font-family="Times,serif" font-size="14.00" fill="white">torch scatter ❎</text>
</a>
</g>
</g>
<!-- timemory&#45;&gt;torch&#45;scatter -->
<!-- kaolin -->
<g id="node37" class="node">
<title>kaolin</title>
<g id="a_node37"><a xlink:href="https://github.com/conda-forge/kaolin-feedstock/pull/19" xlink:title="kaolin ❎">
<ellipse fill="#31688e" stroke="black" cx="1687.07" cy="-898" rx="56.47" ry="18"/>
<text text-anchor="middle" x="1687.07" y="-893.33" font-family="Times,serif" font-size="14.00" fill="white">kaolin ❎</text>
</a>
</g>
</g>
<!-- torch&#45;scatter&#45;&gt;kaolin -->
<!-- rmm -->
<g id="node38" class="node">
<title>rmm</title>
<g id="a_node38"><a xlink:href="https://github.com/conda-forge/rmm-feedstock" xlink:title="rmm">
<ellipse fill="#ff8c00" stroke="black" cx="1687.07" cy="-826" rx="34.9" ry="18"/>
<text text-anchor="middle" x="1687.07" y="-821.33" font-family="Times,serif" font-size="14.00">rmm</text>
</a>
</g>
</g>
<!-- kaolin&#45;&gt;rmm -->
<!-- pyscamp&#45;gpu -->
<g id="node39" class="node">
<title>pyscamp&#45;gpu</title>
<g id="a_node39"><a xlink:href="https://github.com/conda-forge/pyscamp-gpu-feedstock/pull/8" xlink:title="pyscamp gpu ❎">
<ellipse fill="#31688e" stroke="black" cx="1687.07" cy="-754" rx="92.77" ry="18"/>
<text text-anchor="middle" x="1687.07" y="-749.33" font-family="Times,serif" font-size="14.00" fill="white">pyscamp gpu ❎</text>
</a>
</g>
</g>
<!-- rmm&#45;&gt;pyscamp&#45;gpu -->
<!-- triton -->
<g id="node40" class="node">
<title>triton</title>
<g id="a_node40"><a xlink:href="https://github.com/conda-forge/triton-feedstock/pull/8" xlink:title="triton ❎">
<ellipse fill="#31688e" stroke="black" cx="1305.07" cy="-494" rx="54.89" ry="18"/>
<text text-anchor="middle" x="1305.07" y="-489.32" font-family="Times,serif" font-size="14.00" fill="white">triton ❎</text>
</a>
</g>
</g>
<!-- pyg&#45;lib -->
<g id="node41" class="node">
<title>pyg&#45;lib</title>
<g id="a_node41"><a xlink:href="https://github.com/conda-forge/pyg-lib-feedstock" xlink:title="pyg lib">
<ellipse fill="#fde725" stroke="black" cx="1305.07" cy="-422" rx="45.42" ry="18"/>
<text text-anchor="middle" x="1305.07" y="-417.32" font-family="Times,serif" font-size="14.00">pyg lib</text>
</a>
</g>
</g>
<!-- triton&#45;&gt;pyg&#45;lib -->
<g id="edge34" class="edge">
<title>triton&#45;&gt;pyg&#45;lib</title>
<path fill="none" stroke="black" d="M1305.07,-475.7C1305.07,-468.24 1305.07,-459.32 1305.07,-450.97"/>
<polygon fill="black" stroke="black" points="1308.57,-451.1 1305.07,-441.1 1301.57,-451.1 1308.57,-451.1"/>
</g>
<!-- pyg&#45;lib&#45;&gt;torchmd&#45;net -->
<g id="edge35" class="edge">
<title>pyg&#45;lib&#45;&gt;torchmd&#45;net</title>
<path fill="none" stroke="black" d="M1286.65,-405.46C1275.97,-396.45 1262.29,-384.92 1250.28,-374.79"/>
<polygon fill="black" stroke="black" points="1252.79,-371.49 1242.89,-367.71 1248.28,-376.84 1252.79,-371.49"/>
</g>
<!-- heavydb&#45;ext -->
<g id="node42" class="node">
<title>heavydb&#45;ext</title>
<g id="a_node42"><a xlink:href="https://github.com/conda-forge/heavydb-ext-feedstock/pull/55" xlink:title="heavydb ext ❎">
<ellipse fill="#31688e" stroke="black" cx="415.07" cy="-710" rx="87.51" ry="18"/>
<text text-anchor="middle" x="415.07" y="-705.33" font-family="Times,serif" font-size="14.00" fill="white">heavydb ext ❎</text>
</a>
</g>
</g>
<!-- hdk -->
<g id="node43" class="node">
<title>hdk</title>
<g id="a_node43"><a xlink:href="https://github.com/conda-forge/hdk-feedstock/pull/50" xlink:title="hdk ❎">
<ellipse fill="#31688e" stroke="black" cx="415.07" cy="-638" rx="44.9" ry="18"/>
<text text-anchor="middle" x="415.07" y="-633.33" font-family="Times,serif" font-size="14.00" fill="white">hdk ❎</text>
</a>
</g>
</g>
<!-- heavydb&#45;ext&#45;&gt;hdk -->
<!-- katago -->
<g id="node44" class="node">
<title>katago</title>
<g id="a_node44"><a xlink:href="https://github.com/conda-forge/katago-feedstock/pull/7" xlink:title="katago ✓">
<ellipse fill="#31688e" stroke="black" cx="415.07" cy="-566" rx="52.79" ry="18"/>
<text text-anchor="middle" x="415.07" y="-561.33" font-family="Times,serif" font-size="14.00" fill="white">katago ✓</text>
</a>
</g>
</g>
<!-- hdk&#45;&gt;katago -->
<!-- molgrid -->
<g id="node45" class="node">
<title>molgrid</title>
<g id="a_node45"><a xlink:href="https://github.com/conda-forge/molgrid-feedstock/pull/5" xlink:title="molgrid ✓">
<ellipse fill="#31688e" stroke="black" cx="415.07" cy="-494" rx="58.05" ry="18"/>
<text text-anchor="middle" x="415.07" y="-489.32" font-family="Times,serif" font-size="14.00" fill="white">molgrid ✓</text>
</a>
</g>
</g>
<!-- katago&#45;&gt;molgrid -->
<!-- xformers -->
<g id="node46" class="node">
<title>xformers</title>
<g id="a_node46"><a xlink:href="https://github.com/conda-forge/xformers-feedstock/pull/13" xlink:title="xformers ❎">
<ellipse fill="#31688e" stroke="black" cx="415.07" cy="-422" rx="71.73" ry="18"/>
<text text-anchor="middle" x="415.07" y="-417.32" font-family="Times,serif" font-size="14.00" fill="white">xformers ❎</text>
</a>
</g>
</g>
<!-- molgrid&#45;&gt;xformers -->
<!-- pennylane&#45;lightning&#45;gpu -->
<g id="node47" class="node">
<title>pennylane&#45;lightning&#45;gpu</title>
<g id="a_node47"><a xlink:href="https://github.com/conda-forge/pennylane-lightning-gpu-feedstock/pull/14" xlink:title="pennylane lightning gpu ❎">
<ellipse fill="#31688e" stroke="black" cx="415.07" cy="-350" rx="148.54" ry="18"/>
<text text-anchor="middle" x="415.07" y="-345.32" font-family="Times,serif" font-size="14.00" fill="white">pennylane lightning gpu ❎</text>
</a>
</g>
</g>
<!-- xformers&#45;&gt;pennylane&#45;lightning&#45;gpu -->
<!-- bitsandbytes -->
<g id="node48" class="node">
<title>bitsandbytes</title>
<g id="a_node48"><a xlink:href="https://github.com/conda-forge/bitsandbytes-feedstock/pull/9" xlink:title="bitsandbytes ✓">
<ellipse fill="#31688e" stroke="black" cx="415.07" cy="-278" rx="83.83" ry="18"/>
<text text-anchor="middle" x="415.07" y="-273.32" font-family="Times,serif" font-size="14.00" fill="white">bitsandbytes ✓</text>
</a>
</g>
</g>
<!-- pennylane&#45;lightning&#45;gpu&#45;&gt;bitsandbytes -->
<!-- tomocupy -->
<g id="node49" class="node">
<title>tomocupy</title>
<g id="a_node49"><a xlink:href="https://github.com/conda-forge/tomocupy-feedstock/pull/19" xlink:title="tomocupy ✓">
<ellipse fill="#31688e" stroke="black" cx="415.07" cy="-206" rx="68.04" ry="18"/>
<text text-anchor="middle" x="415.07" y="-201.33" font-family="Times,serif" font-size="14.00" fill="white">tomocupy ✓</text>
</a>
</g>
</g>
<!-- bitsandbytes&#45;&gt;tomocupy -->
<!-- dgl -->
<g id="node50" class="node">
<title>dgl</title>
<g id="a_node50"><a xlink:href="https://github.com/conda-forge/dgl-feedstock/pull/22" xlink:title="dgl ❎">
<ellipse fill="#31688e" stroke="black" cx="415.07" cy="-134" rx="42.26" ry="18"/>
<text text-anchor="middle" x="415.07" y="-129.32" font-family="Times,serif" font-size="14.00" fill="white">dgl ❎</text>
</a>
</g>
</g>
<!-- tomocupy&#45;&gt;dgl -->
</g>
</svg>
