<?xml version="1.0" encoding="UTF-8" standalone="no"?>
<!DOCTYPE svg PUBLIC "-//W3C//DTD SVG 1.1//EN"
 "http://www.w3.org/Graphics/SVG/1.1/DTD/svg11.dtd">
<!-- Generated by graphviz version 7.1.0 (20230122.1345)
 -->
<!-- Pages: 1 -->
<svg width="2866pt" height="996pt"
 viewBox="0.00 0.00 2865.84 996.00" xmlns="http://www.w3.org/2000/svg" xmlns:xlink="http://www.w3.org/1999/xlink">
<g id="graph0" class="graph" transform="scale(1 1) rotate(0) translate(4 992)">
<polygon fill="white" stroke="none" points="-4,4 -4,-992 2861.84,-992 2861.84,4 -4,4"/>
<!-- implicit -->
<g id="node1" class="node">
<title>implicit</title>
<g id="a_node1"><a xlink:href="https://github.com/conda-forge/implicit-feedstock" xlink:title="implicit">
<ellipse fill="#fde725" stroke="black" cx="2610.24" cy="-970" rx="46.29" ry="18"/>
<text text-anchor="middle" x="2610.24" y="-966.3" font-family="Times,serif" font-size="14.00">implicit</text>
</a>
</g>
</g>
<!-- kaldi -->
<g id="node2" class="node">
<title>kaldi</title>
<g id="a_node2"><a xlink:href="https://github.com/conda-forge/kaldi-feedstock" xlink:title="kaldi">
<ellipse fill="#fde725" stroke="black" cx="2610.24" cy="-898" rx="33.29" ry="18"/>
<text text-anchor="middle" x="2610.24" y="-894.3" font-family="Times,serif" font-size="14.00">kaldi</text>
</a>
</g>
</g>
<!-- implicit&#45;&gt;kaldi -->
<!-- xgboost -->
<g id="node3" class="node">
<title>xgboost</title>
<g id="a_node3"><a xlink:href="https://github.com/conda-forge/xgboost-feedstock" xlink:title="xgboost">
<ellipse fill="#000000" stroke="black" cx="2610.24" cy="-826" rx="47.5" ry="18"/>
<text text-anchor="middle" x="2610.24" y="-822.3" font-family="Times,serif" font-size="14.00" fill="white">xgboost</text>
</a>
</g>
</g>
<!-- kaldi&#45;&gt;xgboost -->
<!-- conda&#45;forge&#45;ci&#45;setup -->
<g id="node11" class="node">
<title>conda&#45;forge&#45;ci&#45;setup</title>
<g id="a_node11"><a xlink:href="https://github.com/conda-forge/conda-forge-ci-setup-feedstock" xlink:title="conda forge ci setup">
<ellipse fill="#000000" stroke="black" cx="2610.24" cy="-754" rx="104.78" ry="18"/>
<text text-anchor="middle" x="2610.24" y="-750.3" font-family="Times,serif" font-size="14.00" fill="white">conda forge ci setup</text>
</a>
</g>
</g>
<!-- xgboost&#45;&gt;conda&#45;forge&#45;ci&#45;setup -->
<!-- torchvision -->
<g id="node4" class="node">
<title>torchvision</title>
<g id="a_node4"><a xlink:href="https://github.com/conda-forge/torchvision-feedstock" xlink:title="torchvision">
<ellipse fill="#fde725" stroke="black" cx="1078.24" cy="-754" rx="62.5" ry="18"/>
<text text-anchor="middle" x="1078.24" y="-750.3" font-family="Times,serif" font-size="14.00">torchvision</text>
</a>
</g>
</g>
<!-- detectron2 -->
<g id="node5" class="node">
<title>detectron2</title>
<g id="a_node5"><a xlink:href="https://github.com/conda-forge/detectron2-feedstock" xlink:title="detectron2">
<ellipse fill="#fde725" stroke="black" cx="950.24" cy="-682" rx="61.99" ry="18"/>
<text text-anchor="middle" x="950.24" y="-678.3" font-family="Times,serif" font-size="14.00">detectron2</text>
</a>
</g>
</g>
<!-- torchvision&#45;&gt;detectron2 -->
<g id="edge3" class="edge">
<title>torchvision&#45;&gt;detectron2</title>
<path fill="none" stroke="black" d="M1050.15,-737.64C1031.98,-727.7 1008.09,-714.64 988.23,-703.78"/>
<polygon fill="black" stroke="black" points="990.05,-700.78 979.6,-699.05 986.69,-706.92 990.05,-700.78"/>
</g>
<!-- fcos -->
<g id="node6" class="node">
<title>fcos</title>
<g id="a_node6"><a xlink:href="https://github.com/conda-forge/fcos-feedstock" xlink:title="fcos">
<ellipse fill="#fde725" stroke="black" cx="1059.24" cy="-682" rx="29.5" ry="18"/>
<text text-anchor="middle" x="1059.24" y="-678.3" font-family="Times,serif" font-size="14.00">fcos</text>
</a>
</g>
</g>
<!-- torchvision&#45;&gt;fcos -->
<g id="edge4" class="edge">
<title>torchvision&#45;&gt;fcos</title>
<path fill="none" stroke="black" d="M1073.55,-735.7C1071.52,-728.24 1069.1,-719.32 1066.83,-710.97"/>
<polygon fill="black" stroke="black" points="1070.28,-710.3 1064.28,-701.57 1063.52,-712.13 1070.28,-710.3"/>
</g>
<!-- fairscale -->
<g id="node7" class="node">
<title>fairscale</title>
<g id="a_node7"><a xlink:href="https://github.com/conda-forge/fairscale-feedstock" xlink:title="fairscale">
<ellipse fill="#fde725" stroke="black" cx="1156.24" cy="-682" rx="50.09" ry="18"/>
<text text-anchor="middle" x="1156.24" y="-678.3" font-family="Times,serif" font-size="14.00">fairscale</text>
</a>
</g>
</g>
<!-- torchvision&#45;&gt;fairscale -->
<g id="edge5" class="edge">
<title>torchvision&#45;&gt;fairscale</title>
<path fill="none" stroke="black" d="M1096.73,-736.41C1106.61,-727.54 1118.95,-716.47 1129.83,-706.71"/>
<polygon fill="black" stroke="black" points="1131.93,-709.52 1137.03,-700.24 1127.25,-704.31 1131.93,-709.52"/>
</g>
<!-- graphvite -->
<g id="node8" class="node">
<title>graphvite</title>
<g id="a_node8"><a xlink:href="https://github.com/conda-forge/graphvite-feedstock" xlink:title="graphvite">
<ellipse fill="#fde725" stroke="black" cx="1476.24" cy="-682" rx="56" ry="18"/>
<text text-anchor="middle" x="1476.24" y="-678.3" font-family="Times,serif" font-size="14.00">graphvite</text>
</a>
</g>
</g>
<!-- torchvision&#45;&gt;graphvite -->
<g id="edge6" class="edge">
<title>torchvision&#45;&gt;graphvite</title>
<path fill="none" stroke="black" d="M1132.89,-744.97C1213.19,-733.05 1359.18,-710.92 1411.24,-700 1415.31,-699.15 1419.5,-698.2 1423.7,-697.21"/>
<polygon fill="black" stroke="black" points="1424.43,-700.63 1433.31,-694.85 1422.76,-693.84 1424.43,-700.63"/>
</g>
<!-- mmcv&#45;recipe -->
<g id="node9" class="node">
<title>mmcv&#45;recipe</title>
<g id="a_node9"><a xlink:href="https://github.com/conda-forge/mmcv-recipe-feedstock" xlink:title="mmcv recipe">
<ellipse fill="#fde725" stroke="black" cx="1332.24" cy="-682" rx="70.39" ry="18"/>
<text text-anchor="middle" x="1332.24" y="-678.3" font-family="Times,serif" font-size="14.00">mmcv recipe</text>
</a>
</g>
</g>
<!-- torchvision&#45;&gt;mmcv&#45;recipe -->
<g id="edge7" class="edge">
<title>torchvision&#45;&gt;mmcv&#45;recipe</title>
<path fill="none" stroke="black" d="M1122.2,-740.89C1164.43,-729.25 1228.5,-711.59 1274.76,-698.84"/>
<polygon fill="black" stroke="black" points="1275.65,-702.23 1284.36,-696.2 1273.79,-695.48 1275.65,-702.23"/>
</g>
<!-- autogluon.multimodal -->
<g id="node10" class="node">
<title>autogluon.multimodal</title>
<g id="a_node10"><a xlink:href="https://github.com/conda-forge/autogluon.multimodal-feedstock" xlink:title="autogluon multimodal">
<ellipse fill="#fde725" stroke="black" cx="1234.24" cy="-610" rx="112.5" ry="18"/>
<text text-anchor="middle" x="1234.24" y="-606.3" font-family="Times,serif" font-size="14.00">autogluon multimodal</text>
</a>
</g>
</g>
<!-- torchvision&#45;&gt;autogluon.multimodal -->
<g id="edge8" class="edge">
<title>torchvision&#45;&gt;autogluon.multimodal</title>
<path fill="none" stroke="black" d="M1122.52,-740.86C1157.63,-730.35 1202.79,-714.6 1215.24,-700 1229.44,-683.35 1233.83,-658.68 1234.88,-639.53"/>
<polygon fill="black" stroke="black" points="1238.38,-639.75 1235.12,-629.67 1231.38,-639.59 1238.38,-639.75"/>
</g>
<!-- fairscale&#45;&gt;autogluon.multimodal -->
<g id="edge9" class="edge">
<title>fairscale&#45;&gt;autogluon.multimodal</title>
<path fill="none" stroke="black" d="M1174.33,-664.76C1183.99,-656.1 1196.08,-645.25 1206.86,-635.57"/>
<polygon fill="black" stroke="black" points="1208.93,-638.42 1214.04,-629.13 1204.26,-633.21 1208.93,-638.42"/>
</g>
<!-- libxc -->
<g id="node14" class="node">
<title>libxc</title>
<g id="a_node14"><a xlink:href="https://github.com/conda-forge/libxc-feedstock" xlink:title="libxc">
<ellipse fill="#000000" stroke="black" cx="2610.24" cy="-682" rx="32.5" ry="18"/>
<text text-anchor="middle" x="2610.24" y="-678.3" font-family="Times,serif" font-size="14.00" fill="white">libxc</text>
</a>
</g>
</g>
<!-- conda&#45;forge&#45;ci&#45;setup&#45;&gt;libxc -->
<!-- tensorflow -->
<g id="node12" class="node">
<title>tensorflow</title>
<g id="a_node12"><a xlink:href="https://github.com/conda-forge/tensorflow-feedstock" xlink:title="tensorflow">
<ellipse fill="#fde725" stroke="black" cx="1248.24" cy="-90" rx="60" ry="18"/>
<text text-anchor="middle" x="1248.24" y="-86.3" font-family="Times,serif" font-size="14.00">tensorflow</text>
</a>
</g>
</g>
<!-- deepmd&#45;kit -->
<g id="node13" class="node">
<title>deepmd&#45;kit</title>
<g id="a_node13"><a xlink:href="https://github.com/conda-forge/deepmd-kit-feedstock" xlink:title="deepmd kit">
<ellipse fill="#fde725" stroke="black" cx="1248.24" cy="-18" rx="63.09" ry="18"/>
<text text-anchor="middle" x="1248.24" y="-14.3" font-family="Times,serif" font-size="14.00">deepmd kit</text>
</a>
</g>
</g>
<!-- tensorflow&#45;&gt;deepmd&#45;kit -->
<g id="edge11" class="edge">
<title>tensorflow&#45;&gt;deepmd&#45;kit</title>
<path fill="none" stroke="black" d="M1248.24,-71.7C1248.24,-64.41 1248.24,-55.73 1248.24,-47.54"/>
<polygon fill="black" stroke="black" points="1251.74,-47.62 1248.24,-37.62 1244.74,-47.62 1251.74,-47.62"/>
</g>
<!-- prismatic_split -->
<g id="node36" class="node">
<title>prismatic_split</title>
<g id="a_node36"><a xlink:href="https://github.com/conda-forge/prismatic_split-feedstock" xlink:title="prismatic_split">
<ellipse fill="#fde725" stroke="black" cx="2610.24" cy="-610" rx="79.5" ry="18"/>
<text text-anchor="middle" x="2610.24" y="-606.3" font-family="Times,serif" font-size="14.00">prismatic_split</text>
</a>
</g>
</g>
<!-- libxc&#45;&gt;prismatic_split -->
<!-- hoomd -->
<g id="node15" class="node">
<title>hoomd</title>
<g id="a_node15"><a xlink:href="https://github.com/conda-forge/hoomd-feedstock" xlink:title="hoomd">
<ellipse fill="#fde725" stroke="black" cx="1248.24" cy="-206" rx="42.49" ry="18"/>
<text text-anchor="middle" x="1248.24" y="-202.3" font-family="Times,serif" font-size="14.00">hoomd</text>
</a>
</g>
</g>
<!-- hoomd&#45;dlext -->
<g id="node16" class="node">
<title>hoomd&#45;dlext</title>
<g id="a_node16"><a xlink:href="https://github.com/conda-forge/hoomd-dlext-feedstock" xlink:title="hoomd dlext">
<ellipse fill="#fde725" stroke="black" cx="1248.24" cy="-134" rx="68.49" ry="18"/>
<text text-anchor="middle" x="1248.24" y="-130.3" font-family="Times,serif" font-size="14.00">hoomd dlext</text>
</a>
</g>
</g>
<!-- hoomd&#45;&gt;hoomd&#45;dlext -->
<g id="edge13" class="edge">
<title>hoomd&#45;&gt;hoomd&#45;dlext</title>
<path fill="none" stroke="black" d="M1248.24,-187.7C1248.24,-180.41 1248.24,-171.73 1248.24,-163.54"/>
<polygon fill="black" stroke="black" points="1251.74,-163.62 1248.24,-153.62 1244.74,-163.62 1251.74,-163.62"/>
</g>
<!-- pytorch&#45;cpu -->
<g id="node17" class="node">
<title>pytorch&#45;cpu</title>
<g id="a_node17"><a xlink:href="https://github.com/conda-forge/pytorch-cpu-feedstock" xlink:title="pytorch cpu">
<ellipse fill="#fde725" stroke="black" cx="792.24" cy="-826" rx="65.79" ry="18"/>
<text text-anchor="middle" x="792.24" y="-822.3" font-family="Times,serif" font-size="14.00">pytorch cpu</text>
</a>
</g>
</g>
<!-- pytorch&#45;cpu&#45;&gt;torchvision -->
<g id="edge14" class="edge">
<title>pytorch&#45;cpu&#45;&gt;torchvision</title>
<path fill="none" stroke="black" d="M840.11,-813.28C889.85,-801.11 967.68,-782.06 1020.72,-769.08"/>
<polygon fill="black" stroke="black" points="1021.29,-772.54 1030.17,-766.77 1019.63,-765.74 1021.29,-772.54"/>
</g>
<!-- pytorch&#45;cpu&#45;&gt;detectron2 -->
<g id="edge15" class="edge">
<title>pytorch&#45;cpu&#45;&gt;detectron2</title>
<path fill="none" stroke="black" d="M816.75,-808.86C831.33,-798.86 849.91,-785.4 865.24,-772 888.06,-752.06 911.68,-726.91 928.21,-708.43"/>
<polygon fill="black" stroke="black" points="930.71,-710.89 934.72,-701.08 925.47,-706.25 930.71,-710.89"/>
</g>
<!-- pytorch&#45;cpu&#45;&gt;fcos -->
<g id="edge16" class="edge">
<title>pytorch&#45;cpu&#45;&gt;fcos</title>
<path fill="none" stroke="black" d="M823.17,-809.74C844.16,-799.3 872.49,-785.04 897.24,-772 943.23,-747.77 995.87,-718.58 1028.34,-700.4"/>
<polygon fill="black" stroke="black" points="1029.81,-703.58 1036.82,-695.64 1026.39,-697.48 1029.81,-703.58"/>
</g>
<!-- pytorch&#45;cpu&#45;&gt;fairscale -->
<g id="edge17" class="edge">
<title>pytorch&#45;cpu&#45;&gt;fairscale</title>
<path fill="none" stroke="black" d="M835.01,-811.99C865.42,-802.23 906.98,-787.86 942.24,-772 972.36,-758.45 977.14,-749.58 1007.24,-736 1040.09,-721.18 1078.41,-707.63 1107.97,-697.94"/>
<polygon fill="black" stroke="black" points="1108.96,-701.3 1117.4,-694.88 1106.81,-694.64 1108.96,-701.3"/>
</g>
<!-- pytorch&#45;cpu&#45;&gt;graphvite -->
<g id="edge18" class="edge">
<title>pytorch&#45;cpu&#45;&gt;graphvite</title>
<path fill="none" stroke="black" d="M855.34,-820.53C950.83,-813.09 1127.12,-796.51 1185.24,-772 1209.16,-761.91 1207.65,-746.84 1231.24,-736 1305.38,-701.94 1331.74,-718.33 1411.24,-700 1415.23,-699.08 1419.34,-698.1 1423.47,-697.08"/>
<polygon fill="black" stroke="black" points="1424.06,-700.54 1432.91,-694.7 1422.35,-693.75 1424.06,-700.54"/>
</g>
<!-- pytorch&#45;cpu&#45;&gt;mmcv&#45;recipe -->
<g id="edge19" class="edge">
<title>pytorch&#45;cpu&#45;&gt;mmcv&#45;recipe</title>
<path fill="none" stroke="black" d="M854.53,-819.88C942.62,-811.95 1098.66,-795.16 1150.24,-772 1172.98,-761.79 1171.75,-748.61 1193.24,-736 1218.97,-720.9 1249.78,-708.64 1275.84,-699.73"/>
<polygon fill="black" stroke="black" points="1276.88,-703.07 1285.26,-696.59 1274.67,-696.43 1276.88,-703.07"/>
</g>
<!-- pytorch&#45;cpu&#45;&gt;autogluon.multimodal -->
<g id="edge20" class="edge">
<title>pytorch&#45;cpu&#45;&gt;autogluon.multimodal</title>
<path fill="none" stroke="black" d="M856.34,-821.64C959.72,-815.47 1158.16,-800.28 1222.24,-772 1244.74,-762.07 1241.78,-746 1264.24,-736 1320.95,-710.75 1500.28,-746.64 1541.24,-700 1551.8,-687.98 1551.55,-676.24 1541.24,-664 1517.08,-635.31 1429.01,-622.15 1353.36,-616.12"/>
<polygon fill="black" stroke="black" points="1354.04,-612.66 1343.8,-615.39 1353.51,-619.64 1354.04,-612.66"/>
</g>
<!-- nvidia&#45;apex -->
<g id="node18" class="node">
<title>nvidia&#45;apex</title>
<g id="a_node18"><a xlink:href="https://github.com/conda-forge/nvidia-apex-feedstock" xlink:title="nvidia apex">
<ellipse fill="#fde725" stroke="black" cx="1337.24" cy="-754" rx="63.89" ry="18"/>
<text text-anchor="middle" x="1337.24" y="-750.3" font-family="Times,serif" font-size="14.00">nvidia apex</text>
</a>
</g>
</g>
<!-- pytorch&#45;cpu&#45;&gt;nvidia&#45;apex -->
<g id="edge21" class="edge">
<title>pytorch&#45;cpu&#45;&gt;nvidia&#45;apex</title>
<path fill="none" stroke="black" d="M854.84,-819.93C944.71,-812.19 1115.34,-795.78 1259.24,-772 1265.31,-771 1271.62,-769.83 1277.9,-768.59"/>
<polygon fill="black" stroke="black" points="1278.55,-772.03 1287.64,-766.59 1277.14,-765.17 1278.55,-772.03"/>
</g>
<!-- pytorch_cluster -->
<g id="node19" class="node">
<title>pytorch_cluster</title>
<g id="a_node19"><a xlink:href="https://github.com/conda-forge/pytorch_cluster-feedstock" xlink:title="pytorch_cluster">
<ellipse fill="#fde725" stroke="black" cx="98.24" cy="-682" rx="83.39" ry="18"/>
<text text-anchor="middle" x="98.24" y="-678.3" font-family="Times,serif" font-size="14.00">pytorch_cluster</text>
</a>
</g>
</g>
<!-- pytorch&#45;cpu&#45;&gt;pytorch_cluster -->
<g id="edge22" class="edge">
<title>pytorch&#45;cpu&#45;&gt;pytorch_cluster</title>
<path fill="none" stroke="black" d="M726.41,-824.44C591.61,-822.44 288.96,-813.34 195.24,-772 163.73,-758.1 135.71,-729.72 117.98,-708.73"/>
<polygon fill="black" stroke="black" points="120.81,-706.66 111.77,-701.14 115.39,-711.09 120.81,-706.66"/>
</g>
<!-- pytorch_scatter -->
<g id="node20" class="node">
<title>pytorch_scatter</title>
<g id="a_node20"><a xlink:href="https://github.com/conda-forge/pytorch_scatter-feedstock" xlink:title="pytorch_scatter">
<ellipse fill="#fde725" stroke="black" cx="109.24" cy="-610" rx="83.39" ry="18"/>
<text text-anchor="middle" x="109.24" y="-606.3" font-family="Times,serif" font-size="14.00">pytorch_scatter</text>
</a>
</g>
</g>
<!-- pytorch&#45;cpu&#45;&gt;pytorch_scatter -->
<g id="edge23" class="edge">
<title>pytorch&#45;cpu&#45;&gt;pytorch_scatter</title>
<path fill="none" stroke="black" d="M727.22,-822.61C588.31,-816.98 272.05,-801.09 233.24,-772 191.9,-741.01 222.94,-704.01 190.24,-664 179.97,-651.43 165.93,-640.81 152.41,-632.44"/>
<polygon fill="black" stroke="black" points="154.43,-629.57 144.04,-627.53 150.89,-635.61 154.43,-629.57"/>
</g>
<!-- pytorch_spline_conv -->
<g id="node21" class="node">
<title>pytorch_spline_conv</title>
<g id="a_node21"><a xlink:href="https://github.com/conda-forge/pytorch_spline_conv-feedstock" xlink:title="pytorch_spline_conv">
<ellipse fill="#fde725" stroke="black" cx="285.24" cy="-538" rx="104.78" ry="18"/>
<text text-anchor="middle" x="285.24" y="-534.3" font-family="Times,serif" font-size="14.00">pytorch_spline_conv</text>
</a>
</g>
</g>
<!-- pytorch&#45;cpu&#45;&gt;pytorch_spline_conv -->
<g id="edge24" class="edge">
<title>pytorch&#45;cpu&#45;&gt;pytorch_spline_conv</title>
<path fill="none" stroke="black" d="M727.5,-822.35C602.62,-816.62 338.19,-801.14 309.24,-772 255.1,-717.5 267.8,-616.54 278.17,-567.38"/>
<polygon fill="black" stroke="black" points="281.54,-568.33 280.32,-557.81 274.71,-566.8 281.54,-568.33"/>
</g>
<!-- pytorch_sparse -->
<g id="node22" class="node">
<title>pytorch_sparse</title>
<g id="a_node22"><a xlink:href="https://github.com/conda-forge/pytorch_sparse-feedstock" xlink:title="pytorch_sparse">
<ellipse fill="#fde725" stroke="black" cx="81.24" cy="-538" rx="81.49" ry="18"/>
<text text-anchor="middle" x="81.24" y="-534.3" font-family="Times,serif" font-size="14.00">pytorch_sparse</text>
</a>
</g>
</g>
<!-- pytorch&#45;cpu&#45;&gt;pytorch_sparse -->
<g id="edge25" class="edge">
<title>pytorch&#45;cpu&#45;&gt;pytorch_sparse</title>
<path fill="none" stroke="black" d="M727.65,-821.87C598.48,-815.09 317.64,-797.58 282.24,-772 211.14,-720.62 263.49,-653.82 201.24,-592 185.21,-576.08 163.58,-564.54 143.1,-556.37"/>
<polygon fill="black" stroke="black" points="144.55,-553.18 133.95,-552.94 142.09,-559.73 144.55,-553.18"/>
</g>
<!-- torchani -->
<g id="node23" class="node">
<title>torchani</title>
<g id="a_node23"><a xlink:href="https://github.com/conda-forge/torchani-feedstock" xlink:title="torchani">
<ellipse fill="#fde725" stroke="black" cx="457.24" cy="-466" rx="49.5" ry="18"/>
<text text-anchor="middle" x="457.24" y="-462.3" font-family="Times,serif" font-size="14.00">torchani</text>
</a>
</g>
</g>
<!-- pytorch&#45;cpu&#45;&gt;torchani -->
<g id="edge26" class="edge">
<title>pytorch&#45;cpu&#45;&gt;torchani</title>
<path fill="none" stroke="black" d="M727.56,-822.06C609.17,-816 367.4,-800.29 342.24,-772 303.78,-728.75 400.21,-559.88 440.52,-493.76"/>
<polygon fill="black" stroke="black" points="443.43,-495.71 445.68,-485.35 437.47,-492.04 443.43,-495.71"/>
</g>
<!-- openmm&#45;torch -->
<g id="node24" class="node">
<title>openmm&#45;torch</title>
<g id="a_node24"><a xlink:href="https://github.com/conda-forge/openmm-torch-feedstock" xlink:title="openmm torch">
<ellipse fill="#fde725" stroke="black" cx="1724.24" cy="-754" rx="78" ry="18"/>
<text text-anchor="middle" x="1724.24" y="-750.3" font-family="Times,serif" font-size="14.00">openmm torch</text>
</a>
</g>
</g>
<!-- pytorch&#45;cpu&#45;&gt;openmm&#45;torch -->
<g id="edge27" class="edge">
<title>pytorch&#45;cpu&#45;&gt;openmm&#45;torch</title>
<path fill="none" stroke="black" d="M857.99,-823.79C1000.52,-820.53 1348.39,-809.12 1637.24,-772 1643.95,-771.14 1650.93,-770.07 1657.87,-768.89"/>
<polygon fill="black" stroke="black" points="1658,-772.43 1667.23,-767.23 1656.78,-765.53 1658,-772.43"/>
</g>
<!-- torchsparse -->
<g id="node25" class="node">
<title>torchsparse</title>
<g id="a_node25"><a xlink:href="https://github.com/conda-forge/torchsparse-feedstock" xlink:title="torchsparse">
<ellipse fill="#fde725" stroke="black" cx="417.24" cy="-754" rx="65.79" ry="18"/>
<text text-anchor="middle" x="417.24" y="-750.3" font-family="Times,serif" font-size="14.00">torchsparse</text>
</a>
</g>
</g>
<!-- pytorch&#45;cpu&#45;&gt;torchsparse -->
<g id="edge28" class="edge">
<title>pytorch&#45;cpu&#45;&gt;torchsparse</title>
<path fill="none" stroke="black" d="M737.5,-815.7C678.2,-805.5 580.86,-788.39 497.24,-772 491.23,-770.82 484.98,-769.56 478.73,-768.27"/>
<polygon fill="black" stroke="black" points="479.54,-764.86 469.03,-766.25 478.11,-771.72 479.54,-764.86"/>
</g>
<!-- torch&#45;scatter -->
<g id="node26" class="node">
<title>torch&#45;scatter</title>
<g id="a_node26"><a xlink:href="https://github.com/conda-forge/torch-scatter-feedstock" xlink:title="torch scatter">
<ellipse fill="#fde725" stroke="black" cx="450.24" cy="-682" rx="71" ry="18"/>
<text text-anchor="middle" x="450.24" y="-678.3" font-family="Times,serif" font-size="14.00">torch scatter</text>
</a>
</g>
</g>
<!-- pytorch&#45;cpu&#45;&gt;torch&#45;scatter -->
<g id="edge29" class="edge">
<title>pytorch&#45;cpu&#45;&gt;torch&#45;scatter</title>
<path fill="none" stroke="black" d="M727.56,-822.32C673.24,-817.66 595.12,-805.17 535.24,-772 520.48,-763.82 491.55,-731.83 471.57,-708.54"/>
<polygon fill="black" stroke="black" points="474.27,-706.3 465.13,-700.95 468.94,-710.84 474.27,-706.3"/>
</g>
<!-- kaolin -->
<g id="node27" class="node">
<title>kaolin</title>
<g id="a_node27"><a xlink:href="https://github.com/conda-forge/kaolin-feedstock" xlink:title="kaolin">
<ellipse fill="#fde725" stroke="black" cx="520.24" cy="-610" rx="38.5" ry="18"/>
<text text-anchor="middle" x="520.24" y="-606.3" font-family="Times,serif" font-size="14.00">kaolin</text>
</a>
</g>
</g>
<!-- pytorch&#45;cpu&#45;&gt;kaolin -->
<g id="edge30" class="edge">
<title>pytorch&#45;cpu&#45;&gt;kaolin</title>
<path fill="none" stroke="black" d="M733.71,-817.34C677.04,-808.81 596.39,-793.35 573.24,-772 553.61,-753.89 535.16,-680.47 526.1,-639.32"/>
<polygon fill="black" stroke="black" points="529.54,-638.68 524.01,-629.64 522.7,-640.15 529.54,-638.68"/>
</g>
<!-- nnpops -->
<g id="node28" class="node">
<title>nnpops</title>
<g id="a_node28"><a xlink:href="https://github.com/conda-forge/nnpops-feedstock" xlink:title="nnpops">
<ellipse fill="#fde725" stroke="black" cx="538.24" cy="-394" rx="44.39" ry="18"/>
<text text-anchor="middle" x="538.24" y="-390.3" font-family="Times,serif" font-size="14.00">nnpops</text>
</a>
</g>
</g>
<!-- pytorch&#45;cpu&#45;&gt;nnpops -->
<g id="edge31" class="edge">
<title>pytorch&#45;cpu&#45;&gt;nnpops</title>
<path fill="none" stroke="black" d="M730.54,-819.34C696.48,-813.04 655.98,-799.79 630.24,-772 582.45,-720.38 551.41,-502.11 541.59,-423.43"/>
<polygon fill="black" stroke="black" points="545.07,-423.05 540.39,-413.55 538.13,-423.9 545.07,-423.05"/>
</g>
<!-- triton -->
<g id="node29" class="node">
<title>triton</title>
<g id="a_node29"><a xlink:href="https://github.com/conda-forge/triton-feedstock" xlink:title="triton">
<ellipse fill="#fde725" stroke="black" cx="690.24" cy="-538" rx="37.09" ry="18"/>
<text text-anchor="middle" x="690.24" y="-534.3" font-family="Times,serif" font-size="14.00">triton</text>
</a>
</g>
</g>
<!-- pytorch&#45;cpu&#45;&gt;triton -->
<g id="edge32" class="edge">
<title>pytorch&#45;cpu&#45;&gt;triton</title>
<path fill="none" stroke="black" d="M742.41,-813.87C719.96,-806.1 695.55,-793.18 682.24,-772 642.05,-708.02 664.73,-613.45 679.96,-566.93"/>
<polygon fill="black" stroke="black" points="683.22,-568.21 683.14,-557.61 676.6,-565.95 683.22,-568.21"/>
</g>
<!-- openmmtorchplugin -->
<g id="node30" class="node">
<title>openmmtorchplugin</title>
<g id="a_node30"><a xlink:href="https://github.com/conda-forge/openmmtorchplugin-feedstock" xlink:title="openmmtorchplugin">
<ellipse fill="#fde725" stroke="black" cx="1523.24" cy="-754" rx="104.78" ry="18"/>
<text text-anchor="middle" x="1523.24" y="-750.3" font-family="Times,serif" font-size="14.00">openmmtorchplugin</text>
</a>
</g>
</g>
<!-- pytorch&#45;cpu&#45;&gt;openmmtorchplugin -->
<g id="edge33" class="edge">
<title>pytorch&#45;cpu&#45;&gt;openmmtorchplugin</title>
<path fill="none" stroke="black" d="M855.54,-820.91C967.6,-813.37 1208.12,-795.85 1410.24,-772 1418.9,-770.98 1427.92,-769.81 1436.91,-768.57"/>
<polygon fill="black" stroke="black" points="1437.35,-772.04 1446.77,-767.18 1436.38,-765.11 1437.35,-772.04"/>
</g>
<!-- molgrid -->
<g id="node31" class="node">
<title>molgrid</title>
<g id="a_node31"><a xlink:href="https://github.com/conda-forge/molgrid-feedstock" xlink:title="molgrid">
<ellipse fill="#fde725" stroke="black" cx="652.24" cy="-466" rx="47" ry="18"/>
<text text-anchor="middle" x="652.24" y="-462.3" font-family="Times,serif" font-size="14.00">molgrid</text>
</a>
</g>
</g>
<!-- pytorch&#45;cpu&#45;&gt;molgrid -->
<g id="edge34" class="edge">
<title>pytorch&#45;cpu&#45;&gt;molgrid</title>
<path fill="none" stroke="black" d="M741.3,-814.24C714.86,-806.4 683.69,-793.3 662.24,-772 631.85,-741.81 625.24,-725.84 625.24,-683 625.24,-683 625.24,-683 625.24,-609 625.24,-568.86 635.78,-523.44 643.69,-495.01"/>
<polygon fill="black" stroke="black" points="646.96,-496.32 646.36,-485.74 640.23,-494.38 646.96,-496.32"/>
</g>
<!-- theseus&#45;ai -->
<g id="node32" class="node">
<title>theseus&#45;ai</title>
<g id="a_node32"><a xlink:href="https://github.com/conda-forge/theseus-ai-feedstock" xlink:title="theseus ai">
<ellipse fill="#fde725" stroke="black" cx="749.24" cy="-754" rx="58" ry="18"/>
<text text-anchor="middle" x="749.24" y="-750.3" font-family="Times,serif" font-size="14.00">theseus ai</text>
</a>
</g>
</g>
<!-- pytorch&#45;cpu&#45;&gt;theseus&#45;ai -->
<g id="edge35" class="edge">
<title>pytorch&#45;cpu&#45;&gt;theseus&#45;ai</title>
<path fill="none" stroke="black" d="M781.83,-808.05C776.92,-800.06 770.95,-790.33 765.46,-781.4"/>
<polygon fill="black" stroke="black" points="768.56,-779.77 760.35,-773.08 762.6,-783.43 768.56,-779.77"/>
</g>
<!-- pyg&#45;lib -->
<g id="node33" class="node">
<title>pyg&#45;lib</title>
<g id="a_node33"><a xlink:href="https://github.com/conda-forge/pyg-lib-feedstock" xlink:title="pyg lib">
<ellipse fill="#fde725" stroke="black" cx="759.24" cy="-466" rx="42.49" ry="18"/>
<text text-anchor="middle" x="759.24" y="-462.3" font-family="Times,serif" font-size="14.00">pyg lib</text>
</a>
</g>
</g>
<!-- pytorch&#45;cpu&#45;&gt;pyg&#45;lib -->
<g id="edge36" class="edge">
<title>pytorch&#45;cpu&#45;&gt;pyg&#45;lib</title>
<path fill="none" stroke="black" d="M804.3,-808.07C816.1,-789.23 830.39,-758.48 816.24,-736 796.55,-704.71 760.93,-731.29 741.24,-700 720.26,-666.65 741.48,-549.76 752.94,-495.31"/>
<polygon fill="black" stroke="black" points="756.29,-496.38 754.97,-485.87 749.45,-494.91 756.29,-496.38"/>
</g>
<!-- deepspeed -->
<g id="node34" class="node">
<title>deepspeed</title>
<g id="a_node34"><a xlink:href="https://github.com/conda-forge/deepspeed-feedstock" xlink:title="deepspeed">
<ellipse fill="#fde725" stroke="black" cx="810.24" cy="-682" rx="60.5" ry="18"/>
<text text-anchor="middle" x="810.24" y="-678.3" font-family="Times,serif" font-size="14.00">deepspeed</text>
</a>
</g>
</g>
<!-- pytorch&#45;cpu&#45;&gt;deepspeed -->
<g id="edge37" class="edge">
<title>pytorch&#45;cpu&#45;&gt;deepspeed</title>
<path fill="none" stroke="black" d="M817.33,-809.06C829.4,-799.86 842.66,-787.11 849.24,-772 855.63,-757.33 854.23,-751.2 849.24,-736 845.98,-726.06 840.06,-716.46 833.81,-708.21"/>
<polygon fill="black" stroke="black" points="836.72,-706.24 827.68,-700.71 831.3,-710.67 836.72,-706.24"/>
</g>
<!-- pytorch_scatter&#45;&gt;pytorch_sparse -->
<g id="edge38" class="edge">
<title>pytorch_scatter&#45;&gt;pytorch_sparse</title>
<path fill="none" stroke="black" d="M102.32,-591.7C99.3,-584.15 95.69,-575.12 92.31,-566.68"/>
<polygon fill="black" stroke="black" points="95.61,-565.49 88.65,-557.51 89.11,-568.09 95.61,-565.49"/>
</g>
<!-- torchani&#45;&gt;nnpops -->
<g id="edge39" class="edge">
<title>torchani&#45;&gt;nnpops</title>
<path fill="none" stroke="black" d="M475.62,-449.12C486.19,-439.99 499.65,-428.36 511.38,-418.22"/>
<polygon fill="black" stroke="black" points="513.51,-421 518.79,-411.81 508.94,-415.7 513.51,-421"/>
</g>
<!-- triton&#45;&gt;pyg&#45;lib -->
<g id="edge40" class="edge">
<title>triton&#45;&gt;pyg&#45;lib</title>
<path fill="none" stroke="black" d="M705.56,-521.46C714.37,-512.53 725.62,-501.11 735.55,-491.04"/>
<polygon fill="black" stroke="black" points="737.9,-493.63 742.43,-484.06 732.92,-488.72 737.9,-493.63"/>
</g>
<!-- stir -->
<g id="node35" class="node">
<title>stir</title>
<g id="a_node35"><a xlink:href="https://github.com/conda-forge/stir-feedstock" xlink:title="stir">
<ellipse fill="#fde725" stroke="black" cx="2790.24" cy="-134" rx="27" ry="18"/>
<text text-anchor="middle" x="2790.24" y="-130.3" font-family="Times,serif" font-size="14.00">stir</text>
</a>
</g>
</g>
<!-- cudadecon -->
<g id="node43" class="node">
<title>cudadecon</title>
<g id="a_node43"><a xlink:href="https://github.com/conda-forge/cudadecon-feedstock" xlink:title="cudadecon">
<ellipse fill="#fde725" stroke="black" cx="2610.24" cy="-538" rx="60" ry="18"/>
<text text-anchor="middle" x="2610.24" y="-534.3" font-family="Times,serif" font-size="14.00">cudadecon</text>
</a>
</g>
</g>
<!-- prismatic_split&#45;&gt;cudadecon -->
<!-- openmm -->
<g id="node37" class="node">
<title>openmm</title>
<g id="a_node37"><a xlink:href="https://github.com/conda-forge/openmm-feedstock" xlink:title="openmm">
<ellipse fill="#000000" stroke="black" cx="2183.24" cy="-826" rx="50.89" ry="18"/>
<text text-anchor="middle" x="2183.24" y="-822.3" font-family="Times,serif" font-size="14.00" fill="white">openmm</text>
</a>
</g>
</g>
<!-- openmm&#45;&gt;openmm&#45;torch -->
<g id="edge42" class="edge">
<title>openmm&#45;&gt;openmm&#45;torch</title>
<path fill="none" stroke="black" d="M2135.85,-819.04C2065.04,-809.96 1927.51,-791.63 1811.24,-772 1805.17,-770.98 1798.88,-769.86 1792.57,-768.7"/>
<polygon fill="black" stroke="black" points="1793.22,-765.26 1782.75,-766.86 1791.93,-772.14 1793.22,-765.26"/>
</g>
<!-- openmm&#45;&gt;openmmtorchplugin -->
<g id="edge43" class="edge">
<title>openmm&#45;&gt;openmmtorchplugin</title>
<path fill="none" stroke="black" d="M2133.84,-821.06C2037.93,-813.22 1819.91,-794.47 1637.24,-772 1628.42,-770.91 1619.22,-769.69 1610.05,-768.42"/>
<polygon fill="black" stroke="black" points="1610.79,-764.99 1600.4,-767.05 1609.81,-771.92 1610.79,-764.99"/>
</g>
<!-- openmm&#45;plumed -->
<g id="node38" class="node">
<title>openmm&#45;plumed</title>
<g id="a_node38"><a xlink:href="https://github.com/conda-forge/openmm-plumed-feedstock" xlink:title="openmm plumed">
<ellipse fill="#fde725" stroke="black" cx="2066.24" cy="-754" rx="88.5" ry="18"/>
<text text-anchor="middle" x="2066.24" y="-750.3" font-family="Times,serif" font-size="14.00">openmm plumed</text>
</a>
</g>
</g>
<!-- openmm&#45;&gt;openmm&#45;plumed -->
<g id="edge44" class="edge">
<title>openmm&#45;&gt;openmm&#45;plumed</title>
<path fill="none" stroke="black" d="M2158.14,-809.98C2142.17,-800.42 2121.19,-787.88 2103.32,-777.18"/>
<polygon fill="black" stroke="black" points="2105.43,-774.37 2095.05,-772.24 2101.84,-780.37 2105.43,-774.37"/>
</g>
<!-- meld -->
<g id="node39" class="node">
<title>meld</title>
<g id="a_node39"><a xlink:href="https://github.com/conda-forge/meld-feedstock" xlink:title="meld">
<ellipse fill="#fde725" stroke="black" cx="2159.24" cy="-682" rx="34" ry="18"/>
<text text-anchor="middle" x="2159.24" y="-678.3" font-family="Times,serif" font-size="14.00">meld</text>
</a>
</g>
</g>
<!-- openmm&#45;&gt;meld -->
<g id="edge45" class="edge">
<title>openmm&#45;&gt;meld</title>
<path fill="none" stroke="black" d="M2180.3,-807.59C2176.25,-783.61 2168.9,-740.14 2164.05,-711.42"/>
<polygon fill="black" stroke="black" points="2167.5,-710.88 2162.39,-701.6 2160.6,-712.05 2167.5,-710.88"/>
</g>
<!-- seekr2_openmm_plugin -->
<g id="node40" class="node">
<title>seekr2_openmm_plugin</title>
<g id="a_node40"><a xlink:href="https://github.com/conda-forge/seekr2_openmm_plugin-feedstock" xlink:title="seekr2_openmm_plugin">
<ellipse fill="#fde725" stroke="black" cx="2111.24" cy="-610" rx="120.48" ry="18"/>
<text text-anchor="middle" x="2111.24" y="-606.3" font-family="Times,serif" font-size="14.00">seekr2_openmm_plugin</text>
</a>
</g>
</g>
<!-- openmm&#45;&gt;seekr2_openmm_plugin -->
<g id="edge46" class="edge">
<title>openmm&#45;&gt;seekr2_openmm_plugin</title>
<path fill="none" stroke="black" d="M2191.48,-808.15C2205.27,-777.29 2229.03,-710.61 2202.24,-664 2194.47,-650.48 2181.78,-640.09 2168.3,-632.23"/>
<polygon fill="black" stroke="black" points="2170.22,-629.29 2159.75,-627.67 2166.92,-635.47 2170.22,-629.29"/>
</g>
<!-- openmm&#45;atmmetaforce&#45;plugin -->
<g id="node41" class="node">
<title>openmm&#45;atmmetaforce&#45;plugin</title>
<g id="a_node41"><a xlink:href="https://github.com/conda-forge/openmm-atmmetaforce-plugin-feedstock" xlink:title="openmm atmmetaforce plugin">
<ellipse fill="#fde725" stroke="black" cx="2103.24" cy="-538" rx="151" ry="18"/>
<text text-anchor="middle" x="2103.24" y="-534.3" font-family="Times,serif" font-size="14.00">openmm atmmetaforce plugin</text>
</a>
</g>
</g>
<!-- openmm&#45;&gt;openmm&#45;atmmetaforce&#45;plugin -->
<g id="edge47" class="edge">
<title>openmm&#45;&gt;openmm&#45;atmmetaforce&#45;plugin</title>
<path fill="none" stroke="black" d="M2198.68,-808.69C2207.08,-798.83 2216.83,-785.58 2222.24,-772 2252.02,-697.32 2285.69,-658.32 2240.24,-592 2229.58,-576.44 2213.63,-565.44 2196.36,-557.68"/>
<polygon fill="black" stroke="black" points="2198.04,-554.58 2187.46,-554.04 2195.39,-561.06 2198.04,-554.58"/>
</g>
<!-- openmm&#45;dlext -->
<g id="node42" class="node">
<title>openmm&#45;dlext</title>
<g id="a_node42"><a xlink:href="https://github.com/conda-forge/openmm-dlext-feedstock" xlink:title="openmm dlext">
<ellipse fill="#fde725" stroke="black" cx="2420.24" cy="-466" rx="77.5" ry="18"/>
<text text-anchor="middle" x="2420.24" y="-462.3" font-family="Times,serif" font-size="14.00">openmm dlext</text>
</a>
</g>
</g>
<!-- openmm&#45;&gt;openmm&#45;dlext -->
<g id="edge48" class="edge">
<title>openmm&#45;&gt;openmm&#45;dlext</title>
<path fill="none" stroke="black" d="M2229.78,-818.41C2298.8,-805.72 2420.24,-770.9 2420.24,-683 2420.24,-683 2420.24,-683 2420.24,-609 2420.24,-569.74 2420.24,-524.38 2420.24,-495.69"/>
<polygon fill="black" stroke="black" points="2423.74,-496 2420.24,-486 2416.74,-496 2423.74,-496"/>
</g>
<!-- cudasirecon -->
<g id="node50" class="node">
<title>cudasirecon</title>
<g id="a_node50"><a xlink:href="https://github.com/conda-forge/cudasirecon-feedstock" xlink:title="cudasirecon">
<ellipse fill="#fde725" stroke="black" cx="2610.24" cy="-466" rx="66.5" ry="18"/>
<text text-anchor="middle" x="2610.24" y="-462.3" font-family="Times,serif" font-size="14.00">cudasirecon</text>
</a>
</g>
</g>
<!-- cudadecon&#45;&gt;cudasirecon -->
<!-- pp&#45;sketchlib -->
<g id="node44" class="node">
<title>pp&#45;sketchlib</title>
<g id="a_node44"><a xlink:href="https://github.com/conda-forge/pp-sketchlib-feedstock" xlink:title="pp sketchlib">
<ellipse fill="#fde725" stroke="black" cx="2610.24" cy="-206" rx="67.69" ry="18"/>
<text text-anchor="middle" x="2610.24" y="-202.3" font-family="Times,serif" font-size="14.00">pp sketchlib</text>
</a>
</g>
</g>
<!-- mandrake -->
<g id="node45" class="node">
<title>mandrake</title>
<g id="a_node45"><a xlink:href="https://github.com/conda-forge/mandrake-feedstock" xlink:title="mandrake">
<ellipse fill="#fde725" stroke="black" cx="2610.24" cy="-134" rx="57.39" ry="18"/>
<text text-anchor="middle" x="2610.24" y="-130.3" font-family="Times,serif" font-size="14.00">mandrake</text>
</a>
</g>
</g>
<!-- pp&#45;sketchlib&#45;&gt;mandrake -->
<g id="edge50" class="edge">
<title>pp&#45;sketchlib&#45;&gt;mandrake</title>
<path fill="none" stroke="black" d="M2610.24,-187.7C2610.24,-180.41 2610.24,-171.73 2610.24,-163.54"/>
<polygon fill="black" stroke="black" points="2613.74,-163.62 2610.24,-153.62 2606.74,-163.62 2613.74,-163.62"/>
</g>
<!-- faiss&#45;split -->
<g id="node46" class="node">
<title>faiss&#45;split</title>
<g id="a_node46"><a xlink:href="https://github.com/conda-forge/faiss-split-feedstock/pull/62" xlink:title="faiss split ❎">
<ellipse fill="#31688e" stroke="black" cx="1890.24" cy="-754" rx="69.59" ry="18"/>
<text text-anchor="middle" x="1890.24" y="-750.3" font-family="Times,serif" font-size="14.00" fill="white">faiss split ❎</text>
</a>
</g>
</g>
<!-- faiss&#45;split&#45;&gt;graphvite -->
<g id="edge51" class="edge">
<title>faiss&#45;split&#45;&gt;graphvite</title>
<path fill="none" stroke="black" d="M1838.91,-741.52C1829.71,-739.59 1820.21,-737.67 1811.24,-736 1716.31,-718.29 1605.51,-701.52 1538.15,-691.75"/>
<polygon fill="black" stroke="black" points="1538.8,-688.31 1528.4,-690.34 1537.8,-695.24 1538.8,-688.31"/>
</g>
<!-- tsnecuda -->
<g id="node47" class="node">
<title>tsnecuda</title>
<g id="a_node47"><a xlink:href="https://github.com/conda-forge/tsnecuda-feedstock" xlink:title="tsnecuda">
<ellipse fill="#fde725" stroke="black" cx="1890.24" cy="-682" rx="52.79" ry="18"/>
<text text-anchor="middle" x="1890.24" y="-678.3" font-family="Times,serif" font-size="14.00">tsnecuda</text>
</a>
</g>
</g>
<!-- faiss&#45;split&#45;&gt;tsnecuda -->
<g id="edge52" class="edge">
<title>faiss&#45;split&#45;&gt;tsnecuda</title>
<path fill="none" stroke="black" d="M1890.24,-735.7C1890.24,-728.41 1890.24,-719.73 1890.24,-711.54"/>
<polygon fill="black" stroke="black" points="1893.74,-711.62 1890.24,-701.62 1886.74,-711.62 1893.74,-711.62"/>
</g>
<!-- libtvm -->
<g id="node48" class="node">
<title>libtvm</title>
<g id="a_node48"><a xlink:href="https://github.com/conda-forge/libtvm-feedstock" xlink:title="libtvm">
<ellipse fill="#fde725" stroke="black" cx="2284.24" cy="-466" rx="40.5" ry="18"/>
<text text-anchor="middle" x="2284.24" y="-462.3" font-family="Times,serif" font-size="14.00">libtvm</text>
</a>
</g>
</g>
<!-- tvm&#45;py -->
<g id="node49" class="node">
<title>tvm&#45;py</title>
<g id="a_node49"><a xlink:href="https://github.com/conda-forge/tvm-py-feedstock" xlink:title="tvm py">
<ellipse fill="#fde725" stroke="black" cx="2284.24" cy="-394" rx="43" ry="18"/>
<text text-anchor="middle" x="2284.24" y="-390.3" font-family="Times,serif" font-size="14.00">tvm py</text>
</a>
</g>
</g>
<!-- libtvm&#45;&gt;tvm&#45;py -->
<g id="edge53" class="edge">
<title>libtvm&#45;&gt;tvm&#45;py</title>
<path fill="none" stroke="black" d="M2284.24,-447.7C2284.24,-440.41 2284.24,-431.73 2284.24,-423.54"/>
<polygon fill="black" stroke="black" points="2287.74,-423.62 2284.24,-413.62 2280.74,-423.62 2287.74,-423.62"/>
</g>
<!-- timemory -->
<g id="node51" class="node">
<title>timemory</title>
<g id="a_node51"><a xlink:href="https://github.com/conda-forge/timemory-feedstock" xlink:title="timemory">
<ellipse fill="#fde725" stroke="black" cx="2610.24" cy="-394" rx="56" ry="18"/>
<text text-anchor="middle" x="2610.24" y="-390.3" font-family="Times,serif" font-size="14.00">timemory</text>
</a>
</g>
</g>
<!-- cudasirecon&#45;&gt;timemory -->
<!-- gromacs -->
<g id="node52" class="node">
<title>gromacs</title>
<g id="a_node52"><a xlink:href="https://github.com/conda-forge/gromacs-feedstock" xlink:title="gromacs">
<ellipse fill="#fde725" stroke="black" cx="2610.24" cy="-322" rx="50.09" ry="18"/>
<text text-anchor="middle" x="2610.24" y="-318.3" font-family="Times,serif" font-size="14.00">gromacs</text>
</a>
</g>
</g>
<!-- timemory&#45;&gt;gromacs -->
<!-- pyscamp&#45;gpu -->
<g id="node56" class="node">
<title>pyscamp&#45;gpu</title>
<g id="a_node56"><a xlink:href="https://github.com/conda-forge/pyscamp-gpu-feedstock" xlink:title="pyscamp gpu">
<ellipse fill="#fde725" stroke="black" cx="2610.24" cy="-250" rx="72.29" ry="18"/>
<text text-anchor="middle" x="2610.24" y="-246.3" font-family="Times,serif" font-size="14.00">pyscamp gpu</text>
</a>
</g>
</g>
<!-- gromacs&#45;&gt;pyscamp&#45;gpu -->
<!-- colmap -->
<g id="node53" class="node">
<title>colmap</title>
<g id="a_node53"><a xlink:href="https://github.com/conda-forge/colmap-feedstock" xlink:title="colmap">
<ellipse fill="#fde725" stroke="black" cx="2610.24" cy="-90" rx="44.39" ry="18"/>
<text text-anchor="middle" x="2610.24" y="-86.3" font-family="Times,serif" font-size="14.00">colmap</text>
</a>
</g>
</g>
<!-- pycolmap -->
<g id="node54" class="node">
<title>pycolmap</title>
<g id="a_node54"><a xlink:href="https://github.com/conda-forge/pycolmap-feedstock" xlink:title="pycolmap">
<ellipse fill="#fde725" stroke="black" cx="2610.24" cy="-18" rx="55.49" ry="18"/>
<text text-anchor="middle" x="2610.24" y="-14.3" font-family="Times,serif" font-size="14.00">pycolmap</text>
</a>
</g>
</g>
<!-- colmap&#45;&gt;pycolmap -->
<g id="edge57" class="edge">
<title>colmap&#45;&gt;pycolmap</title>
<path fill="none" stroke="black" d="M2610.24,-71.7C2610.24,-64.41 2610.24,-55.73 2610.24,-47.54"/>
<polygon fill="black" stroke="black" points="2613.74,-47.62 2610.24,-37.62 2606.74,-47.62 2613.74,-47.62"/>
</g>
<!-- cutlass -->
<g id="node55" class="node">
<title>cutlass</title>
<g id="a_node55"><a xlink:href="https://github.com/conda-forge/cutlass-feedstock" xlink:title="cutlass">
<ellipse fill="#fde725" stroke="black" cx="2316.24" cy="-538" rx="43.59" ry="18"/>
<text text-anchor="middle" x="2316.24" y="-534.3" font-family="Times,serif" font-size="14.00">cutlass</text>
</a>
</g>
</g>
<!-- cutlass&#45;&gt;pyg&#45;lib -->
<g id="edge58" class="edge">
<title>cutlass&#45;&gt;pyg&#45;lib</title>
<path fill="none" stroke="black" d="M2284.37,-525.22C2277.49,-523.12 2270.19,-521.21 2263.24,-520 1976.12,-469.88 1047.11,-466.87 813.13,-466.92"/>
<polygon fill="black" stroke="black" points="813.39,-463.42 803.39,-466.92 813.39,-470.42 813.39,-463.42"/>
</g>
<!-- cutlass&#45;&gt;libtvm -->
<g id="edge59" class="edge">
<title>cutlass&#45;&gt;libtvm</title>
<path fill="none" stroke="black" d="M2308.5,-520.05C2304.92,-512.23 2300.58,-502.75 2296.58,-493.98"/>
<polygon fill="black" stroke="black" points="2299.89,-492.81 2292.55,-485.17 2293.52,-495.72 2299.89,-492.81"/>
</g>
<!-- heavydb&#45;ext -->
<g id="node57" class="node">
<title>heavydb&#45;ext</title>
<g id="a_node57"><a xlink:href="https://github.com/conda-forge/heavydb-ext-feedstock" xlink:title="heavydb ext">
<ellipse fill="#fde725" stroke="black" cx="2790.24" cy="-754" rx="67.69" ry="18"/>
<text text-anchor="middle" x="2790.24" y="-750.3" font-family="Times,serif" font-size="14.00">heavydb ext</text>
</a>
</g>
</g>
<!-- hdk -->
<g id="node58" class="node">
<title>hdk</title>
<g id="a_node58"><a xlink:href="https://github.com/conda-forge/hdk-feedstock" xlink:title="hdk">
<ellipse fill="#fde725" stroke="black" cx="2790.24" cy="-682" rx="28" ry="18"/>
<text text-anchor="middle" x="2790.24" y="-678.3" font-family="Times,serif" font-size="14.00">hdk</text>
</a>
</g>
</g>
<!-- heavydb&#45;ext&#45;&gt;hdk -->
<!-- cyrsoxs -->
<g id="node59" class="node">
<title>cyrsoxs</title>
<g id="a_node59"><a xlink:href="https://github.com/conda-forge/cyrsoxs-feedstock" xlink:title="cyrsoxs">
<ellipse fill="#fde725" stroke="black" cx="2790.24" cy="-610" rx="46.29" ry="18"/>
<text text-anchor="middle" x="2790.24" y="-606.3" font-family="Times,serif" font-size="14.00">cyrsoxs</text>
</a>
</g>
</g>
<!-- hdk&#45;&gt;cyrsoxs -->
<!-- katago -->
<g id="node60" class="node">
<title>katago</title>
<g id="a_node60"><a xlink:href="https://github.com/conda-forge/katago-feedstock" xlink:title="katago">
<ellipse fill="#fde725" stroke="black" cx="2790.24" cy="-538" rx="42.49" ry="18"/>
<text text-anchor="middle" x="2790.24" y="-534.3" font-family="Times,serif" font-size="14.00">katago</text>
</a>
</g>
</g>
<!-- cyrsoxs&#45;&gt;katago -->
<!-- nyxus -->
<g id="node61" class="node">
<title>nyxus</title>
<g id="a_node61"><a xlink:href="https://github.com/conda-forge/nyxus-feedstock" xlink:title="nyxus">
<ellipse fill="#fde725" stroke="black" cx="2790.24" cy="-466" rx="38.5" ry="18"/>
<text text-anchor="middle" x="2790.24" y="-462.3" font-family="Times,serif" font-size="14.00">nyxus</text>
</a>
</g>
</g>
<!-- katago&#45;&gt;nyxus -->
<!-- parallelproj -->
<g id="node62" class="node">
<title>parallelproj</title>
<g id="a_node62"><a xlink:href="https://github.com/conda-forge/parallelproj-feedstock" xlink:title="parallelproj">
<ellipse fill="#fde725" stroke="black" cx="2790.24" cy="-206" rx="64.5" ry="18"/>
<text text-anchor="middle" x="2790.24" y="-202.3" font-family="Times,serif" font-size="14.00">parallelproj</text>
</a>
</g>
</g>
<!-- parallelproj&#45;&gt;stir -->
<g id="edge65" class="edge">
<title>parallelproj&#45;&gt;stir</title>
<path fill="none" stroke="black" d="M2790.24,-187.7C2790.24,-180.41 2790.24,-171.73 2790.24,-163.54"/>
<polygon fill="black" stroke="black" points="2793.74,-163.62 2790.24,-153.62 2786.74,-163.62 2793.74,-163.62"/>
</g>
</g>
</svg>
