<?xml version="1.0" encoding="UTF-8" standalone="no"?>
<!DOCTYPE svg PUBLIC "-//W3C//DTD SVG 1.1//EN"
 "http://www.w3.org/Graphics/SVG/1.1/DTD/svg11.dtd">
<!-- Generated by graphviz version 2.49.1 (20211004.0028)
 -->
<!-- Pages: 1 -->
<svg width="3300pt" height="924pt"
 viewBox="0.00 0.00 3300.24 924.00" xmlns="http://www.w3.org/2000/svg" xmlns:xlink="http://www.w3.org/1999/xlink">
<g id="graph0" class="graph" transform="scale(1 1) rotate(0) translate(4 920)">
<polygon fill="white" stroke="transparent" points="-4,4 -4,-920 3296.24,-920 3296.24,4 -4,4"/>
<!-- arrow&#45;cpp -->
<g id="node1" class="node">
<title>arrow&#45;cpp</title>
<g id="a_node1"><a xlink:href="https://github.com/conda-forge/arrow-cpp-feedstock" xlink:title="arrow cpp">
<ellipse fill="#fde725" stroke="black" cx="168" cy="-682" rx="58" ry="18"/>
<text text-anchor="middle" x="168" y="-678.3" font-family="Times,serif" font-size="14.00">arrow cpp</text>
</a>
</g>
</g>
<!-- heavydb&#45;ext -->
<g id="node2" class="node">
<title>heavydb&#45;ext</title>
<g id="a_node2"><a xlink:href="https://github.com/conda-forge/heavydb-ext-feedstock/pull/49" xlink:title="heavydb ext ❎">
<ellipse fill="#31688e" stroke="black" cx="137" cy="-610" rx="81.49" ry="18"/>
<text text-anchor="middle" x="137" y="-606.3" font-family="Times,serif" font-size="14.00" fill="white">heavydb ext ❎</text>
</a>
</g>
</g>
<!-- arrow&#45;cpp&#45;&gt;heavydb&#45;ext -->
<g id="edge1" class="edge">
<title>arrow&#45;cpp&#45;&gt;heavydb&#45;ext</title>
<path fill="none" stroke="black" d="M160.5,-664.05C156.97,-656.09 152.68,-646.41 148.74,-637.51"/>
<polygon fill="black" stroke="black" points="151.9,-636 144.65,-628.28 145.5,-638.84 151.9,-636"/>
</g>
<!-- hdk -->
<g id="node3" class="node">
<title>hdk</title>
<g id="a_node3"><a xlink:href="https://github.com/conda-forge/hdk-feedstock" xlink:title="hdk">
<ellipse fill="#fde725" stroke="black" cx="28" cy="-538" rx="28" ry="18"/>
<text text-anchor="middle" x="28" y="-534.3" font-family="Times,serif" font-size="14.00">hdk</text>
</a>
</g>
</g>
<!-- arrow&#45;cpp&#45;&gt;hdk -->
<g id="edge2" class="edge">
<title>arrow&#45;cpp&#45;&gt;hdk</title>
<path fill="none" stroke="black" d="M120.81,-671.38C95.33,-663.79 65.41,-650.57 47,-628 32.91,-610.72 28.58,-585.46 27.53,-566.25"/>
<polygon fill="black" stroke="black" points="31.02,-565.93 27.25,-556.03 24.03,-566.12 31.02,-565.93"/>
</g>
<!-- autogluon.multimodal -->
<g id="node4" class="node">
<title>autogluon.multimodal</title>
<g id="a_node4"><a xlink:href="https://github.com/conda-forge/autogluon.multimodal-feedstock" xlink:title="autogluon multimodal">
<ellipse fill="#fde725" stroke="black" cx="412" cy="-538" rx="112.5" ry="18"/>
<text text-anchor="middle" x="412" y="-534.3" font-family="Times,serif" font-size="14.00">autogluon multimodal</text>
</a>
</g>
</g>
<!-- arrow&#45;cpp&#45;&gt;autogluon.multimodal -->
<g id="edge3" class="edge">
<title>arrow&#45;cpp&#45;&gt;autogluon.multimodal</title>
<path fill="none" stroke="black" d="M185.9,-664.76C212.61,-640.62 260.76,-597.5 270,-592 294.45,-577.43 323.6,-565.71 349.1,-557.03"/>
<polygon fill="black" stroke="black" points="350.29,-560.33 358.68,-553.86 348.09,-553.68 350.29,-560.33"/>
</g>
<!-- kaldi -->
<g id="node5" class="node">
<title>kaldi</title>
<g id="a_node5"><a xlink:href="https://github.com/conda-forge/kaldi-feedstock/pull/39" xlink:title="kaldi ❎">
<ellipse fill="#31688e" stroke="black" cx="3003" cy="-898" rx="47.5" ry="18"/>
<text text-anchor="middle" x="3003" y="-894.3" font-family="Times,serif" font-size="14.00" fill="white">kaldi ❎</text>
</a>
</g>
</g>
<!-- conda&#45;forge&#45;ci&#45;setup -->
<g id="node6" class="node">
<title>conda&#45;forge&#45;ci&#45;setup</title>
<g id="a_node6"><a xlink:href="https://github.com/conda-forge/conda-forge-ci-setup-feedstock/pull/244" xlink:title="conda forge ci setup ❎">
<ellipse fill="#31688e" stroke="black" cx="3003" cy="-826" rx="119" ry="18"/>
<text text-anchor="middle" x="3003" y="-822.3" font-family="Times,serif" font-size="14.00" fill="white">conda forge ci setup ❎</text>
</a>
</g>
</g>
<!-- kaldi&#45;&gt;conda&#45;forge&#45;ci&#45;setup -->
<!-- stir -->
<g id="node15" class="node">
<title>stir</title>
<g id="a_node15"><a xlink:href="https://github.com/conda-forge/stir-feedstock/pull/82" xlink:title="stir ❎">
<ellipse fill="#31688e" stroke="black" cx="3003" cy="-754" rx="41" ry="18"/>
<text text-anchor="middle" x="3003" y="-750.3" font-family="Times,serif" font-size="14.00" fill="white">stir ❎</text>
</a>
</g>
</g>
<!-- conda&#45;forge&#45;ci&#45;setup&#45;&gt;stir -->
<!-- torchvision -->
<g id="node7" class="node">
<title>torchvision</title>
<g id="a_node7"><a xlink:href="https://github.com/conda-forge/torchvision-feedstock" xlink:title="torchvision">
<ellipse fill="#fde725" stroke="black" cx="618" cy="-682" rx="62.5" ry="18"/>
<text text-anchor="middle" x="618" y="-678.3" font-family="Times,serif" font-size="14.00">torchvision</text>
</a>
</g>
</g>
<!-- torchvision&#45;&gt;autogluon.multimodal -->
<g id="edge5" class="edge">
<title>torchvision&#45;&gt;autogluon.multimodal</title>
<path fill="none" stroke="black" d="M599.55,-664.65C587.86,-654.24 572.46,-640.42 559,-628 541.9,-612.23 540.13,-605.24 521,-592 502.56,-579.24 480.59,-567.92 461.22,-559.05"/>
<polygon fill="black" stroke="black" points="462.5,-555.79 451.94,-554.9 459.64,-562.18 462.5,-555.79"/>
</g>
<!-- detectron2 -->
<g id="node8" class="node">
<title>detectron2</title>
<g id="a_node8"><a xlink:href="https://github.com/conda-forge/detectron2-feedstock" xlink:title="detectron2">
<ellipse fill="#fde725" stroke="black" cx="374" cy="-610" rx="61.99" ry="18"/>
<text text-anchor="middle" x="374" y="-606.3" font-family="Times,serif" font-size="14.00">detectron2</text>
</a>
</g>
</g>
<!-- torchvision&#45;&gt;detectron2 -->
<g id="edge6" class="edge">
<title>torchvision&#45;&gt;detectron2</title>
<path fill="none" stroke="black" d="M575.22,-668.73C533.67,-656.81 470.52,-638.69 426.07,-625.94"/>
<polygon fill="black" stroke="black" points="426.9,-622.54 416.32,-623.14 424.97,-629.26 426.9,-622.54"/>
</g>
<!-- fcos -->
<g id="node9" class="node">
<title>fcos</title>
<g id="a_node9"><a xlink:href="https://github.com/conda-forge/fcos-feedstock" xlink:title="fcos">
<ellipse fill="#fde725" stroke="black" cx="483" cy="-610" rx="29.5" ry="18"/>
<text text-anchor="middle" x="483" y="-606.3" font-family="Times,serif" font-size="14.00">fcos</text>
</a>
</g>
</g>
<!-- torchvision&#45;&gt;fcos -->
<g id="edge7" class="edge">
<title>torchvision&#45;&gt;fcos</title>
<path fill="none" stroke="black" d="M589.04,-665.98C566.94,-654.52 536.55,-638.77 513.97,-627.06"/>
<polygon fill="black" stroke="black" points="515.3,-623.81 504.82,-622.31 512.08,-630.02 515.3,-623.81"/>
</g>
<!-- fairscale -->
<g id="node10" class="node">
<title>fairscale</title>
<g id="a_node10"><a xlink:href="https://github.com/conda-forge/fairscale-feedstock" xlink:title="fairscale">
<ellipse fill="#fde725" stroke="black" cx="618" cy="-610" rx="50.09" ry="18"/>
<text text-anchor="middle" x="618" y="-606.3" font-family="Times,serif" font-size="14.00">fairscale</text>
</a>
</g>
</g>
<!-- torchvision&#45;&gt;fairscale -->
<g id="edge8" class="edge">
<title>torchvision&#45;&gt;fairscale</title>
<path fill="none" stroke="black" d="M618,-663.7C618,-655.98 618,-646.71 618,-638.11"/>
<polygon fill="black" stroke="black" points="621.5,-638.1 618,-628.1 614.5,-638.1 621.5,-638.1"/>
</g>
<!-- graphvite -->
<g id="node11" class="node">
<title>graphvite</title>
<g id="a_node11"><a xlink:href="https://github.com/conda-forge/graphvite-feedstock" xlink:title="graphvite">
<ellipse fill="#fde725" stroke="black" cx="900" cy="-610" rx="56" ry="18"/>
<text text-anchor="middle" x="900" y="-606.3" font-family="Times,serif" font-size="14.00">graphvite</text>
</a>
</g>
</g>
<!-- torchvision&#45;&gt;graphvite -->
<g id="edge9" class="edge">
<title>torchvision&#45;&gt;graphvite</title>
<path fill="none" stroke="black" d="M664.62,-669.85C708.6,-659.27 776.35,-642.83 835,-628 839.31,-626.91 843.79,-625.77 848.27,-624.61"/>
<polygon fill="black" stroke="black" points="849.26,-627.97 858.07,-622.07 847.51,-621.19 849.26,-627.97"/>
</g>
<!-- mmcv&#45;recipe -->
<g id="node12" class="node">
<title>mmcv&#45;recipe</title>
<g id="a_node12"><a xlink:href="https://github.com/conda-forge/mmcv-recipe-feedstock" xlink:title="mmcv recipe">
<ellipse fill="#fde725" stroke="black" cx="756" cy="-610" rx="70.39" ry="18"/>
<text text-anchor="middle" x="756" y="-606.3" font-family="Times,serif" font-size="14.00">mmcv recipe</text>
</a>
</g>
</g>
<!-- torchvision&#45;&gt;mmcv&#45;recipe -->
<g id="edge10" class="edge">
<title>torchvision&#45;&gt;mmcv&#45;recipe</title>
<path fill="none" stroke="black" d="M647.6,-665.98C667.7,-655.79 694.5,-642.19 716.43,-631.07"/>
<polygon fill="black" stroke="black" points="718.15,-634.12 725.49,-626.48 714.99,-627.88 718.15,-634.12"/>
</g>
<!-- fairscale&#45;&gt;autogluon.multimodal -->
<g id="edge11" class="edge">
<title>fairscale&#45;&gt;autogluon.multimodal</title>
<path fill="none" stroke="black" d="M582.59,-596.97C550.91,-586.2 503.96,-570.25 467.32,-557.8"/>
<polygon fill="black" stroke="black" points="468.36,-554.46 457.77,-554.55 466.11,-561.08 468.36,-554.46"/>
</g>
<!-- tensorflow -->
<g id="node13" class="node">
<title>tensorflow</title>
<g id="a_node13"><a xlink:href="https://github.com/conda-forge/tensorflow-feedstock/pull/321" xlink:title="tensorflow ❎">
<ellipse fill="#31688e" stroke="black" cx="1438" cy="-134" rx="73.5" ry="18"/>
<text text-anchor="middle" x="1438" y="-130.3" font-family="Times,serif" font-size="14.00" fill="white">tensorflow ❎</text>
</a>
</g>
</g>
<!-- deepmd&#45;kit -->
<g id="node14" class="node">
<title>deepmd&#45;kit</title>
<g id="a_node14"><a xlink:href="https://github.com/conda-forge/deepmd-kit-feedstock" xlink:title="deepmd kit">
<ellipse fill="#fde725" stroke="black" cx="1438" cy="-62" rx="63.09" ry="18"/>
<text text-anchor="middle" x="1438" y="-58.3" font-family="Times,serif" font-size="14.00">deepmd kit</text>
</a>
</g>
</g>
<!-- tensorflow&#45;&gt;deepmd&#45;kit -->
<g id="edge12" class="edge">
<title>tensorflow&#45;&gt;deepmd&#45;kit</title>
<path fill="none" stroke="black" d="M1438,-115.7C1438,-107.98 1438,-98.71 1438,-90.11"/>
<polygon fill="black" stroke="black" points="1441.5,-90.1 1438,-80.1 1434.5,-90.1 1441.5,-90.1"/>
</g>
<!-- jaxlib -->
<g id="node37" class="node">
<title>jaxlib</title>
<g id="a_node37"><a xlink:href="https://github.com/conda-forge/jaxlib-feedstock/pull/181" xlink:title="jaxlib ❎">
<ellipse fill="#31688e" stroke="black" cx="3003" cy="-682" rx="50.09" ry="18"/>
<text text-anchor="middle" x="3003" y="-678.3" font-family="Times,serif" font-size="14.00" fill="white">jaxlib ❎</text>
</a>
</g>
</g>
<!-- stir&#45;&gt;jaxlib -->
<!-- hoomd -->
<g id="node16" class="node">
<title>hoomd</title>
<g id="a_node16"><a xlink:href="https://github.com/conda-forge/hoomd-feedstock/pull/86" xlink:title="hoomd ❎">
<ellipse fill="#31688e" stroke="black" cx="3003" cy="-134" rx="56" ry="18"/>
<text text-anchor="middle" x="3003" y="-130.3" font-family="Times,serif" font-size="14.00" fill="white">hoomd ❎</text>
</a>
</g>
</g>
<!-- hoomd&#45;dlext -->
<g id="node17" class="node">
<title>hoomd&#45;dlext</title>
<g id="a_node17"><a xlink:href="https://github.com/conda-forge/hoomd-dlext-feedstock" xlink:title="hoomd dlext">
<ellipse fill="#fde725" stroke="black" cx="3003" cy="-62" rx="68.49" ry="18"/>
<text text-anchor="middle" x="3003" y="-58.3" font-family="Times,serif" font-size="14.00">hoomd dlext</text>
</a>
</g>
</g>
<!-- hoomd&#45;&gt;hoomd&#45;dlext -->
<g id="edge14" class="edge">
<title>hoomd&#45;&gt;hoomd&#45;dlext</title>
<path fill="none" stroke="black" d="M3003,-115.7C3003,-107.98 3003,-98.71 3003,-90.11"/>
<polygon fill="black" stroke="black" points="3006.5,-90.1 3003,-80.1 2999.5,-90.1 3006.5,-90.1"/>
</g>
<!-- pytorch&#45;cpu -->
<g id="node18" class="node">
<title>pytorch&#45;cpu</title>
<g id="a_node18"><a xlink:href="https://github.com/conda-forge/pytorch-cpu-feedstock/pull/171" xlink:title="pytorch cpu ❎">
<ellipse fill="#31688e" stroke="black" cx="1413" cy="-754" rx="80" ry="18"/>
<text text-anchor="middle" x="1413" y="-750.3" font-family="Times,serif" font-size="14.00" fill="white">pytorch cpu ❎</text>
</a>
</g>
</g>
<!-- pytorch&#45;cpu&#45;&gt;arrow&#45;cpp -->
<g id="edge15" class="edge">
<title>pytorch&#45;cpu&#45;&gt;arrow&#45;cpp</title>
<path fill="none" stroke="black" d="M1333.07,-752.55C1146.43,-750.8 667.55,-742.2 270,-700 255.78,-698.49 240.53,-696.27 226.27,-693.94"/>
<polygon fill="black" stroke="black" points="226.54,-690.43 216.09,-692.22 225.37,-697.34 226.54,-690.43"/>
</g>
<!-- pytorch&#45;cpu&#45;&gt;autogluon.multimodal -->
<g id="edge16" class="edge">
<title>pytorch&#45;cpu&#45;&gt;autogluon.multimodal</title>
<path fill="none" stroke="black" d="M1333,-753.09C1131.18,-752.61 605.57,-746.76 438,-700 372.5,-681.72 337.99,-686.31 303,-628 294.77,-614.28 294.51,-605.56 303,-592 312.7,-576.5 328.38,-565.41 344.85,-557.53"/>
<polygon fill="black" stroke="black" points="346.32,-560.71 354.06,-553.48 343.49,-554.31 346.32,-560.71"/>
</g>
<!-- pytorch&#45;cpu&#45;&gt;torchvision -->
<g id="edge17" class="edge">
<title>pytorch&#45;cpu&#45;&gt;torchvision</title>
<path fill="none" stroke="black" d="M1335.7,-749.18C1207.89,-742.39 944.6,-726.4 723,-700 708.98,-698.33 693.97,-696.14 679.82,-693.89"/>
<polygon fill="black" stroke="black" points="680.11,-690.4 669.68,-692.25 678.99,-697.31 680.11,-690.4"/>
</g>
<!-- pytorch&#45;cpu&#45;&gt;detectron2 -->
<g id="edge18" class="edge">
<title>pytorch&#45;cpu&#45;&gt;detectron2</title>
<path fill="none" stroke="black" d="M1332.78,-753.67C1140.65,-754.42 658.79,-750.99 507,-700 465.41,-686.03 424.52,-655.43 399.3,-634.03"/>
<polygon fill="black" stroke="black" points="401.53,-631.34 391.68,-627.44 396.95,-636.63 401.53,-631.34"/>
</g>
<!-- pytorch&#45;cpu&#45;&gt;fcos -->
<g id="edge19" class="edge">
<title>pytorch&#45;cpu&#45;&gt;fcos</title>
<path fill="none" stroke="black" d="M1333.37,-752.03C1132.02,-749.03 613.73,-737.7 546,-700 521.15,-686.17 503.78,-657.93 493.65,-636.95"/>
<polygon fill="black" stroke="black" points="496.73,-635.26 489.39,-627.61 490.36,-638.16 496.73,-635.26"/>
</g>
<!-- pytorch&#45;cpu&#45;&gt;fairscale -->
<g id="edge20" class="edge">
<title>pytorch&#45;cpu&#45;&gt;fairscale</title>
<path fill="none" stroke="black" d="M1334.92,-749.82C1193.07,-743.45 898.63,-727.35 800,-700 744.62,-684.64 685.79,-652.63 650.47,-631.48"/>
<polygon fill="black" stroke="black" points="651.95,-628.29 641.59,-626.09 648.32,-634.27 651.95,-628.29"/>
</g>
<!-- pytorch&#45;cpu&#45;&gt;graphvite -->
<g id="edge21" class="edge">
<title>pytorch&#45;cpu&#45;&gt;graphvite</title>
<path fill="none" stroke="black" d="M1333.86,-751.12C1189.41,-746.88 894.96,-734.09 864,-700 847.33,-681.65 862.19,-654.57 877.56,-635.11"/>
<polygon fill="black" stroke="black" points="880.37,-637.2 884.09,-627.28 875,-632.72 880.37,-637.2"/>
</g>
<!-- pytorch&#45;cpu&#45;&gt;mmcv&#45;recipe -->
<g id="edge22" class="edge">
<title>pytorch&#45;cpu&#45;&gt;mmcv&#45;recipe</title>
<path fill="none" stroke="black" d="M1333.48,-751.67C1199.92,-748.41 936.94,-737.32 853,-700 821.11,-685.82 792.74,-656.88 775.05,-635.84"/>
<polygon fill="black" stroke="black" points="777.62,-633.46 768.58,-627.93 772.2,-637.89 777.62,-633.46"/>
</g>
<!-- nvidia&#45;apex -->
<g id="node19" class="node">
<title>nvidia&#45;apex</title>
<g id="a_node19"><a xlink:href="https://github.com/conda-forge/nvidia-apex-feedstock" xlink:title="nvidia apex">
<ellipse fill="#fde725" stroke="black" cx="937" cy="-682" rx="63.89" ry="18"/>
<text text-anchor="middle" x="937" y="-678.3" font-family="Times,serif" font-size="14.00">nvidia apex</text>
</a>
</g>
</g>
<!-- pytorch&#45;cpu&#45;&gt;nvidia&#45;apex -->
<g id="edge23" class="edge">
<title>pytorch&#45;cpu&#45;&gt;nvidia&#45;apex</title>
<path fill="none" stroke="black" d="M1341.5,-745.84C1260.49,-737.21 1124.68,-721.19 1009,-700 1003.71,-699.03 998.22,-697.92 992.75,-696.75"/>
<polygon fill="black" stroke="black" points="993.47,-693.32 982.95,-694.58 991.95,-700.16 993.47,-693.32"/>
</g>
<!-- pytorch_cluster -->
<g id="node20" class="node">
<title>pytorch_cluster</title>
<g id="a_node20"><a xlink:href="https://github.com/conda-forge/pytorch_cluster-feedstock" xlink:title="pytorch_cluster">
<ellipse fill="#fde725" stroke="black" cx="1181" cy="-610" rx="83.39" ry="18"/>
<text text-anchor="middle" x="1181" y="-606.3" font-family="Times,serif" font-size="14.00">pytorch_cluster</text>
</a>
</g>
</g>
<!-- pytorch&#45;cpu&#45;&gt;pytorch_cluster -->
<g id="edge24" class="edge">
<title>pytorch&#45;cpu&#45;&gt;pytorch_cluster</title>
<path fill="none" stroke="black" d="M1337.98,-747.73C1298.89,-741.5 1252.59,-728.18 1220,-700 1201.53,-684.03 1191.47,-657.66 1186.23,-637.76"/>
<polygon fill="black" stroke="black" points="1189.63,-636.95 1183.9,-628.03 1182.82,-638.57 1189.63,-636.95"/>
</g>
<!-- pytorch_scatter -->
<g id="node21" class="node">
<title>pytorch_scatter</title>
<g id="a_node21"><a xlink:href="https://github.com/conda-forge/pytorch_scatter-feedstock" xlink:title="pytorch_scatter">
<ellipse fill="#fde725" stroke="black" cx="1200" cy="-538" rx="83.39" ry="18"/>
<text text-anchor="middle" x="1200" y="-534.3" font-family="Times,serif" font-size="14.00">pytorch_scatter</text>
</a>
</g>
</g>
<!-- pytorch&#45;cpu&#45;&gt;pytorch_scatter -->
<g id="edge25" class="edge">
<title>pytorch&#45;cpu&#45;&gt;pytorch_scatter</title>
<path fill="none" stroke="black" d="M1340.24,-746.51C1309.65,-739.77 1276.86,-726.37 1258,-700 1229.82,-660.58 1295.01,-635.18 1273,-592 1266.3,-578.86 1254.66,-568.22 1242.61,-560.01"/>
<polygon fill="black" stroke="black" points="1244.16,-556.85 1233.83,-554.47 1240.42,-562.77 1244.16,-556.85"/>
</g>
<!-- pytorch_spline_conv -->
<g id="node22" class="node">
<title>pytorch_spline_conv</title>
<g id="a_node22"><a xlink:href="https://github.com/conda-forge/pytorch_spline_conv-feedstock" xlink:title="pytorch_spline_conv">
<ellipse fill="#fde725" stroke="black" cx="1399" cy="-466" rx="104.78" ry="18"/>
<text text-anchor="middle" x="1399" y="-462.3" font-family="Times,serif" font-size="14.00">pytorch_spline_conv</text>
</a>
</g>
</g>
<!-- pytorch&#45;cpu&#45;&gt;pytorch_spline_conv -->
<g id="edge26" class="edge">
<title>pytorch&#45;cpu&#45;&gt;pytorch_spline_conv</title>
<path fill="none" stroke="black" d="M1424.89,-735.72C1431.01,-725.76 1437.84,-712.73 1441,-700 1444.85,-684.47 1444.68,-679.57 1441,-664 1436.89,-646.59 1428.39,-645.06 1423,-628 1408.63,-582.48 1402.77,-526.94 1400.45,-494.42"/>
<polygon fill="black" stroke="black" points="1403.94,-494.07 1399.79,-484.32 1396.95,-494.53 1403.94,-494.07"/>
</g>
<!-- pytorch_sparse -->
<g id="node23" class="node">
<title>pytorch_sparse</title>
<g id="a_node23"><a xlink:href="https://github.com/conda-forge/pytorch_sparse-feedstock" xlink:title="pytorch_sparse">
<ellipse fill="#fde725" stroke="black" cx="1195" cy="-466" rx="81.49" ry="18"/>
<text text-anchor="middle" x="1195" y="-462.3" font-family="Times,serif" font-size="14.00">pytorch_sparse</text>
</a>
</g>
</g>
<!-- pytorch&#45;cpu&#45;&gt;pytorch_sparse -->
<g id="edge27" class="edge">
<title>pytorch&#45;cpu&#45;&gt;pytorch_sparse</title>
<path fill="none" stroke="black" d="M1353.45,-741.88C1329.86,-734.25 1305.06,-721.43 1291,-700 1285.52,-691.64 1297.1,-528.6 1292,-520 1282.79,-504.48 1267.26,-493.21 1251.29,-485.16"/>
<polygon fill="black" stroke="black" points="1252.43,-481.83 1241.88,-480.79 1249.48,-488.18 1252.43,-481.83"/>
</g>
<!-- torchani -->
<g id="node24" class="node">
<title>torchani</title>
<g id="a_node24"><a xlink:href="https://github.com/conda-forge/torchani-feedstock" xlink:title="torchani">
<ellipse fill="#fde725" stroke="black" cx="1564" cy="-394" rx="49.5" ry="18"/>
<text text-anchor="middle" x="1564" y="-390.3" font-family="Times,serif" font-size="14.00">torchani</text>
</a>
</g>
</g>
<!-- pytorch&#45;cpu&#45;&gt;torchani -->
<g id="edge28" class="edge">
<title>pytorch&#45;cpu&#45;&gt;torchani</title>
<path fill="none" stroke="black" d="M1432.01,-736.38C1441.48,-726.82 1451.96,-713.95 1457,-700 1473.3,-654.85 1444.09,-638.5 1456,-592 1458.37,-582.73 1520.6,-471.86 1549.5,-420.64"/>
<polygon fill="black" stroke="black" points="1552.62,-422.24 1554.49,-411.81 1546.52,-418.8 1552.62,-422.24"/>
</g>
<!-- openmm&#45;torch -->
<g id="node25" class="node">
<title>openmm&#45;torch</title>
<g id="a_node25"><a xlink:href="https://github.com/conda-forge/openmm-torch-feedstock" xlink:title="openmm torch">
<ellipse fill="#fde725" stroke="black" cx="2382" cy="-682" rx="78" ry="18"/>
<text text-anchor="middle" x="2382" y="-678.3" font-family="Times,serif" font-size="14.00">openmm torch</text>
</a>
</g>
</g>
<!-- pytorch&#45;cpu&#45;&gt;openmm&#45;torch -->
<g id="edge29" class="edge">
<title>pytorch&#45;cpu&#45;&gt;openmm&#45;torch</title>
<path fill="none" stroke="black" d="M1492.39,-751.76C1647.31,-748.57 2000.54,-737.45 2295,-700 2302.14,-699.09 2309.57,-697.95 2316.95,-696.69"/>
<polygon fill="black" stroke="black" points="2317.72,-700.1 2326.95,-694.9 2316.49,-693.21 2317.72,-700.1"/>
</g>
<!-- torchsparse -->
<g id="node26" class="node">
<title>torchsparse</title>
<g id="a_node26"><a xlink:href="https://github.com/conda-forge/torchsparse-feedstock" xlink:title="torchsparse">
<ellipse fill="#fde725" stroke="black" cx="1366" cy="-682" rx="65.79" ry="18"/>
<text text-anchor="middle" x="1366" y="-678.3" font-family="Times,serif" font-size="14.00">torchsparse</text>
</a>
</g>
</g>
<!-- pytorch&#45;cpu&#45;&gt;torchsparse -->
<g id="edge30" class="edge">
<title>pytorch&#45;cpu&#45;&gt;torchsparse</title>
<path fill="none" stroke="black" d="M1401.62,-736.05C1396.02,-727.71 1389.16,-717.49 1382.95,-708.25"/>
<polygon fill="black" stroke="black" points="1385.75,-706.14 1377.27,-699.79 1379.94,-710.04 1385.75,-706.14"/>
</g>
<!-- torch&#45;scatter -->
<g id="node27" class="node">
<title>torch&#45;scatter</title>
<g id="a_node27"><a xlink:href="https://github.com/conda-forge/torch-scatter-feedstock" xlink:title="torch scatter">
<ellipse fill="#fde725" stroke="black" cx="1536" cy="-610" rx="71" ry="18"/>
<text text-anchor="middle" x="1536" y="-606.3" font-family="Times,serif" font-size="14.00">torch scatter</text>
</a>
</g>
</g>
<!-- pytorch&#45;cpu&#45;&gt;torch&#45;scatter -->
<g id="edge31" class="edge">
<title>pytorch&#45;cpu&#45;&gt;torch&#45;scatter</title>
<path fill="none" stroke="black" d="M1456.57,-738.78C1476.1,-730.36 1497.87,-717.78 1512,-700 1525.96,-682.43 1531.83,-657.39 1534.28,-638.35"/>
<polygon fill="black" stroke="black" points="1537.78,-638.51 1535.34,-628.2 1530.82,-637.79 1537.78,-638.51"/>
</g>
<!-- kaolin -->
<g id="node28" class="node">
<title>kaolin</title>
<g id="a_node28"><a xlink:href="https://github.com/conda-forge/kaolin-feedstock" xlink:title="kaolin">
<ellipse fill="#fde725" stroke="black" cx="1606" cy="-538" rx="38.5" ry="18"/>
<text text-anchor="middle" x="1606" y="-534.3" font-family="Times,serif" font-size="14.00">kaolin</text>
</a>
</g>
</g>
<!-- pytorch&#45;cpu&#45;&gt;kaolin -->
<g id="edge32" class="edge">
<title>pytorch&#45;cpu&#45;&gt;kaolin</title>
<path fill="none" stroke="black" d="M1462.96,-739.86C1513.62,-723.39 1588.36,-689.54 1616,-628 1624.83,-608.34 1621.17,-583.89 1615.95,-565.59"/>
<polygon fill="black" stroke="black" points="1619.23,-564.35 1612.88,-555.87 1612.56,-566.46 1619.23,-564.35"/>
</g>
<!-- nnpops -->
<g id="node29" class="node">
<title>nnpops</title>
<g id="a_node29"><a xlink:href="https://github.com/conda-forge/nnpops-feedstock" xlink:title="nnpops">
<ellipse fill="#fde725" stroke="black" cx="1634" cy="-322" rx="44.39" ry="18"/>
<text text-anchor="middle" x="1634" y="-318.3" font-family="Times,serif" font-size="14.00">nnpops</text>
</a>
</g>
</g>
<!-- pytorch&#45;cpu&#45;&gt;nnpops -->
<g id="edge33" class="edge">
<title>pytorch&#45;cpu&#45;&gt;nnpops</title>
<path fill="none" stroke="black" d="M1482.68,-745.06C1559.69,-731.96 1673,-697.92 1673,-611 1673,-611 1673,-611 1673,-465 1673,-423.56 1657.36,-377.67 1645.89,-349.58"/>
<polygon fill="black" stroke="black" points="1649,-347.93 1641.89,-340.07 1642.55,-350.65 1649,-347.93"/>
</g>
<!-- triton -->
<g id="node30" class="node">
<title>triton</title>
<g id="a_node30"><a xlink:href="https://github.com/conda-forge/triton-feedstock" xlink:title="triton">
<ellipse fill="#fde725" stroke="black" cx="1791" cy="-466" rx="37.09" ry="18"/>
<text text-anchor="middle" x="1791" y="-462.3" font-family="Times,serif" font-size="14.00">triton</text>
</a>
</g>
</g>
<!-- pytorch&#45;cpu&#45;&gt;triton -->
<g id="edge34" class="edge">
<title>pytorch&#45;cpu&#45;&gt;triton</title>
<path fill="none" stroke="black" d="M1490.09,-749.17C1571.04,-743.58 1691.22,-730.32 1725,-700 1784.63,-646.47 1792.05,-543.51 1791.95,-494.38"/>
<polygon fill="black" stroke="black" points="1795.45,-494.16 1791.82,-484.2 1788.45,-494.25 1795.45,-494.16"/>
</g>
<!-- openmmtorchplugin -->
<g id="node31" class="node">
<title>openmmtorchplugin</title>
<g id="a_node31"><a xlink:href="https://github.com/conda-forge/openmmtorchplugin-feedstock" xlink:title="openmmtorchplugin">
<ellipse fill="#fde725" stroke="black" cx="2181" cy="-682" rx="104.78" ry="18"/>
<text text-anchor="middle" x="2181" y="-678.3" font-family="Times,serif" font-size="14.00">openmmtorchplugin</text>
</a>
</g>
</g>
<!-- pytorch&#45;cpu&#45;&gt;openmmtorchplugin -->
<g id="edge35" class="edge">
<title>pytorch&#45;cpu&#45;&gt;openmmtorchplugin</title>
<path fill="none" stroke="black" d="M1489.08,-748.28C1610.45,-740.42 1855.29,-723.18 2062,-700 2072.8,-698.79 2084.12,-697.37 2095.32,-695.87"/>
<polygon fill="black" stroke="black" points="2096.11,-699.3 2105.55,-694.48 2095.16,-692.36 2096.11,-699.3"/>
</g>
<!-- molgrid -->
<g id="node32" class="node">
<title>molgrid</title>
<g id="a_node32"><a xlink:href="https://github.com/conda-forge/molgrid-feedstock" xlink:title="molgrid">
<ellipse fill="#fde725" stroke="black" cx="1748" cy="-394" rx="47" ry="18"/>
<text text-anchor="middle" x="1748" y="-390.3" font-family="Times,serif" font-size="14.00">molgrid</text>
</a>
</g>
</g>
<!-- pytorch&#45;cpu&#45;&gt;molgrid -->
<g id="edge36" class="edge">
<title>pytorch&#45;cpu&#45;&gt;molgrid</title>
<path fill="none" stroke="black" d="M1487.72,-747.37C1558.68,-740.5 1658.62,-726.4 1687,-700 1717,-672.1 1711,-651.97 1711,-611 1711,-611 1711,-611 1711,-537 1711,-495.71 1725.83,-449.77 1736.72,-421.63"/>
<polygon fill="black" stroke="black" points="1740.06,-422.7 1740.51,-412.11 1733.56,-420.11 1740.06,-422.7"/>
</g>
<!-- theseus&#45;ai -->
<g id="node33" class="node">
<title>theseus&#45;ai</title>
<g id="a_node33"><a xlink:href="https://github.com/conda-forge/theseus-ai-feedstock" xlink:title="theseus ai">
<ellipse fill="#fde725" stroke="black" cx="1835" cy="-682" rx="58" ry="18"/>
<text text-anchor="middle" x="1835" y="-678.3" font-family="Times,serif" font-size="14.00">theseus ai</text>
</a>
</g>
</g>
<!-- pytorch&#45;cpu&#45;&gt;theseus&#45;ai -->
<g id="edge37" class="edge">
<title>pytorch&#45;cpu&#45;&gt;theseus&#45;ai</title>
<path fill="none" stroke="black" d="M1481.03,-744.37C1551.76,-735.01 1665.55,-718.85 1763,-700 1768.9,-698.86 1775.04,-697.57 1781.15,-696.22"/>
<polygon fill="black" stroke="black" points="1782.36,-699.53 1791.34,-693.91 1780.81,-692.71 1782.36,-699.53"/>
</g>
<!-- pyg&#45;lib -->
<g id="node34" class="node">
<title>pyg&#45;lib</title>
<g id="a_node34"><a xlink:href="https://github.com/conda-forge/pyg-lib-feedstock" xlink:title="pyg lib">
<ellipse fill="#fde725" stroke="black" cx="1862" cy="-394" rx="42.49" ry="18"/>
<text text-anchor="middle" x="1862" y="-390.3" font-family="Times,serif" font-size="14.00">pyg lib</text>
</a>
</g>
</g>
<!-- pytorch&#45;cpu&#45;&gt;pyg&#45;lib -->
<g id="edge38" class="edge">
<title>pytorch&#45;cpu&#45;&gt;pyg&#45;lib</title>
<path fill="none" stroke="black" d="M1491.2,-750.15C1622.37,-744.55 1875.1,-729.97 1902,-700 1923.72,-675.8 1896.44,-659.65 1889,-628 1871.81,-554.91 1865.38,-466.24 1863.12,-422.35"/>
<polygon fill="black" stroke="black" points="1866.61,-422.01 1862.63,-412.19 1859.62,-422.35 1866.61,-422.01"/>
</g>
<!-- deepspeed -->
<g id="node35" class="node">
<title>deepspeed</title>
<g id="a_node35"><a xlink:href="https://github.com/conda-forge/deepspeed-feedstock" xlink:title="deepspeed">
<ellipse fill="#fde725" stroke="black" cx="1959" cy="-610" rx="60.5" ry="18"/>
<text text-anchor="middle" x="1959" y="-606.3" font-family="Times,serif" font-size="14.00">deepspeed</text>
</a>
</g>
</g>
<!-- pytorch&#45;cpu&#45;&gt;deepspeed -->
<g id="edge39" class="edge">
<title>pytorch&#45;cpu&#45;&gt;deepspeed</title>
<path fill="none" stroke="black" d="M1491,-749.91C1628.31,-743.76 1901.9,-728.13 1935,-700 1952.68,-684.98 1958.03,-658.44 1959.35,-638.23"/>
<polygon fill="black" stroke="black" points="1962.85,-638.18 1959.72,-628.06 1955.86,-637.93 1962.85,-638.18"/>
</g>
<!-- bitsandbytes -->
<g id="node36" class="node">
<title>bitsandbytes</title>
<g id="a_node36"><a xlink:href="https://github.com/conda-forge/bitsandbytes-feedstock" xlink:title="bitsandbytes">
<ellipse fill="#fde725" stroke="black" cx="2048" cy="-538" rx="71" ry="18"/>
<text text-anchor="middle" x="2048" y="-534.3" font-family="Times,serif" font-size="14.00">bitsandbytes</text>
</a>
</g>
</g>
<!-- pytorch&#45;cpu&#45;&gt;bitsandbytes -->
<g id="edge40" class="edge">
<title>pytorch&#45;cpu&#45;&gt;bitsandbytes</title>
<path fill="none" stroke="black" d="M1492.8,-752.08C1624.26,-749.45 1879.77,-739.28 1960,-700 1999.53,-680.65 2007.33,-666.86 2028,-628 2038.2,-608.83 2043.21,-584.67 2045.66,-566.36"/>
<polygon fill="black" stroke="black" points="2049.15,-566.68 2046.83,-556.34 2042.2,-565.86 2049.15,-566.68"/>
</g>
<!-- pytorch_scatter&#45;&gt;pytorch_sparse -->
<g id="edge41" class="edge">
<title>pytorch_scatter&#45;&gt;pytorch_sparse</title>
<path fill="none" stroke="black" d="M1198.76,-519.7C1198.21,-511.98 1197.55,-502.71 1196.94,-494.11"/>
<polygon fill="black" stroke="black" points="1200.43,-493.83 1196.22,-484.1 1193.44,-494.33 1200.43,-493.83"/>
</g>
<!-- torchani&#45;&gt;nnpops -->
<g id="edge42" class="edge">
<title>torchani&#45;&gt;nnpops</title>
<path fill="none" stroke="black" d="M1580.24,-376.76C1589.25,-367.75 1600.61,-356.39 1610.57,-346.43"/>
<polygon fill="black" stroke="black" points="1613.26,-348.69 1617.85,-339.15 1608.31,-343.74 1613.26,-348.69"/>
</g>
<!-- triton&#45;&gt;pyg&#45;lib -->
<g id="edge43" class="edge">
<title>triton&#45;&gt;pyg&#45;lib</title>
<path fill="none" stroke="black" d="M1806.76,-449.46C1816.09,-440.26 1828.1,-428.42 1838.54,-418.13"/>
<polygon fill="black" stroke="black" points="1841.13,-420.49 1845.79,-410.98 1836.22,-415.51 1841.13,-420.49"/>
</g>
<!-- prismatic_split -->
<g id="node38" class="node">
<title>prismatic_split</title>
<g id="a_node38"><a xlink:href="https://github.com/conda-forge/prismatic_split-feedstock/pull/38" xlink:title="prismatic_split ❎">
<ellipse fill="#31688e" stroke="black" cx="3003" cy="-610" rx="93.68" ry="18"/>
<text text-anchor="middle" x="3003" y="-606.3" font-family="Times,serif" font-size="14.00" fill="white">prismatic_split ❎</text>
</a>
</g>
</g>
<!-- jaxlib&#45;&gt;prismatic_split -->
<!-- pycuda -->
<g id="node45" class="node">
<title>pycuda</title>
<g id="a_node45"><a xlink:href="https://github.com/conda-forge/pycuda-feedstock/pull/25" xlink:title="pycuda ❎">
<ellipse fill="#31688e" stroke="black" cx="3003" cy="-538" rx="58" ry="18"/>
<text text-anchor="middle" x="3003" y="-534.3" font-family="Times,serif" font-size="14.00" fill="white">pycuda ❎</text>
</a>
</g>
</g>
<!-- prismatic_split&#45;&gt;pycuda -->
<!-- openmm -->
<g id="node39" class="node">
<title>openmm</title>
<g id="a_node39"><a xlink:href="https://github.com/conda-forge/openmm-feedstock/pull/107" xlink:title="openmm ❎">
<ellipse fill="#31688e" stroke="black" cx="2526" cy="-754" rx="65" ry="18"/>
<text text-anchor="middle" x="2526" y="-750.3" font-family="Times,serif" font-size="14.00" fill="white">openmm ❎</text>
</a>
</g>
</g>
<!-- openmm&#45;&gt;openmm&#45;torch -->
<g id="edge46" class="edge">
<title>openmm&#45;&gt;openmm&#45;torch</title>
<path fill="none" stroke="black" d="M2495.11,-737.98C2474.04,-727.74 2445.92,-714.07 2422.99,-702.92"/>
<polygon fill="black" stroke="black" points="2424.36,-699.7 2413.84,-698.48 2421.3,-706 2424.36,-699.7"/>
</g>
<!-- openmm&#45;&gt;openmmtorchplugin -->
<g id="edge47" class="edge">
<title>openmm&#45;&gt;openmmtorchplugin</title>
<path fill="none" stroke="black" d="M2475.09,-742.67C2417.24,-730.93 2322.26,-711.66 2255.94,-698.21"/>
<polygon fill="black" stroke="black" points="2256.46,-694.74 2245.96,-696.18 2255.07,-701.6 2256.46,-694.74"/>
</g>
<!-- openmm&#45;plumed -->
<g id="node40" class="node">
<title>openmm&#45;plumed</title>
<g id="a_node40"><a xlink:href="https://github.com/conda-forge/openmm-plumed-feedstock" xlink:title="openmm plumed">
<ellipse fill="#fde725" stroke="black" cx="2788" cy="-682" rx="88.5" ry="18"/>
<text text-anchor="middle" x="2788" y="-678.3" font-family="Times,serif" font-size="14.00">openmm plumed</text>
</a>
</g>
</g>
<!-- openmm&#45;&gt;openmm&#45;plumed -->
<g id="edge48" class="edge">
<title>openmm&#45;&gt;openmm&#45;plumed</title>
<path fill="none" stroke="black" d="M2571.04,-740.97C2613.93,-729.51 2678.83,-712.17 2726.48,-699.44"/>
<polygon fill="black" stroke="black" points="2727.61,-702.76 2736.37,-696.8 2725.8,-696 2727.61,-702.76"/>
</g>
<!-- meld -->
<g id="node41" class="node">
<title>meld</title>
<g id="a_node41"><a xlink:href="https://github.com/conda-forge/meld-feedstock" xlink:title="meld">
<ellipse fill="#fde725" stroke="black" cx="2464" cy="-610" rx="34" ry="18"/>
<text text-anchor="middle" x="2464" y="-606.3" font-family="Times,serif" font-size="14.00">meld</text>
</a>
</g>
</g>
<!-- openmm&#45;&gt;meld -->
<g id="edge49" class="edge">
<title>openmm&#45;&gt;meld</title>
<path fill="none" stroke="black" d="M2518.52,-735.87C2507.8,-711.33 2487.99,-665.94 2475.43,-637.17"/>
<polygon fill="black" stroke="black" points="2478.52,-635.51 2471.31,-627.75 2472.11,-638.31 2478.52,-635.51"/>
</g>
<!-- seekr2_openmm_plugin -->
<g id="node42" class="node">
<title>seekr2_openmm_plugin</title>
<g id="a_node42"><a xlink:href="https://github.com/conda-forge/seekr2_openmm_plugin-feedstock" xlink:title="seekr2_openmm_plugin">
<ellipse fill="#fde725" stroke="black" cx="2416" cy="-538" rx="120.48" ry="18"/>
<text text-anchor="middle" x="2416" y="-534.3" font-family="Times,serif" font-size="14.00">seekr2_openmm_plugin</text>
</a>
</g>
</g>
<!-- openmm&#45;&gt;seekr2_openmm_plugin -->
<g id="edge50" class="edge">
<title>openmm&#45;&gt;seekr2_openmm_plugin</title>
<path fill="none" stroke="black" d="M2528.65,-735.83C2532.55,-704.45 2536.48,-636.95 2507,-592 2497.95,-578.2 2483.97,-567.54 2469.66,-559.53"/>
<polygon fill="black" stroke="black" points="2471.23,-556.4 2460.75,-554.87 2467.99,-562.6 2471.23,-556.4"/>
</g>
<!-- openmm&#45;atmmetaforce&#45;plugin -->
<g id="node43" class="node">
<title>openmm&#45;atmmetaforce&#45;plugin</title>
<g id="a_node43"><a xlink:href="https://github.com/conda-forge/openmm-atmmetaforce-plugin-feedstock" xlink:title="openmm atmmetaforce plugin">
<ellipse fill="#fde725" stroke="black" cx="2493" cy="-466" rx="151" ry="18"/>
<text text-anchor="middle" x="2493" y="-462.3" font-family="Times,serif" font-size="14.00">openmm atmmetaforce plugin</text>
</a>
</g>
</g>
<!-- openmm&#45;&gt;openmm&#45;atmmetaforce&#45;plugin -->
<g id="edge51" class="edge">
<title>openmm&#45;&gt;openmm&#45;atmmetaforce&#45;plugin</title>
<path fill="none" stroke="black" d="M2533.89,-735.75C2538.11,-725.58 2542.86,-712.33 2545,-700 2558.7,-621.18 2575.26,-594.06 2545,-520 2540.47,-508.92 2532.4,-498.91 2523.93,-490.65"/>
<polygon fill="black" stroke="black" points="2526.23,-488.01 2516.48,-483.86 2521.51,-493.18 2526.23,-488.01"/>
</g>
<!-- openmm&#45;dlext -->
<g id="node44" class="node">
<title>openmm&#45;dlext</title>
<g id="a_node44"><a xlink:href="https://github.com/conda-forge/openmm-dlext-feedstock" xlink:title="openmm dlext">
<ellipse fill="#fde725" stroke="black" cx="2672" cy="-394" rx="77.5" ry="18"/>
<text text-anchor="middle" x="2672" y="-390.3" font-family="Times,serif" font-size="14.00">openmm dlext</text>
</a>
</g>
</g>
<!-- openmm&#45;&gt;openmm&#45;dlext -->
<g id="edge52" class="edge">
<title>openmm&#45;&gt;openmm&#45;dlext</title>
<path fill="none" stroke="black" d="M2559.5,-738.48C2602.6,-717.26 2672,-673.41 2672,-611 2672,-611 2672,-611 2672,-537 2672,-497 2672,-450.65 2672,-422.08"/>
<polygon fill="black" stroke="black" points="2675.5,-422.05 2672,-412.05 2668.5,-422.05 2675.5,-422.05"/>
</g>
<!-- cudadecon -->
<g id="node52" class="node">
<title>cudadecon</title>
<g id="a_node52"><a xlink:href="https://github.com/conda-forge/cudadecon-feedstock/pull/18" xlink:title="cudadecon ❎">
<ellipse fill="#31688e" stroke="black" cx="3003" cy="-466" rx="74.19" ry="18"/>
<text text-anchor="middle" x="3003" y="-462.3" font-family="Times,serif" font-size="14.00" fill="white">cudadecon ❎</text>
</a>
</g>
</g>
<!-- pycuda&#45;&gt;cudadecon -->
<!-- pp&#45;sketchlib -->
<g id="node46" class="node">
<title>pp&#45;sketchlib</title>
<g id="a_node46"><a xlink:href="https://github.com/conda-forge/pp-sketchlib-feedstock/pull/40" xlink:title="pp sketchlib ❎">
<ellipse fill="#31688e" stroke="black" cx="3211" cy="-574" rx="81.49" ry="18"/>
<text text-anchor="middle" x="3211" y="-570.3" font-family="Times,serif" font-size="14.00" fill="white">pp sketchlib ❎</text>
</a>
</g>
</g>
<!-- mandrake -->
<g id="node47" class="node">
<title>mandrake</title>
<g id="a_node47"><a xlink:href="https://github.com/conda-forge/mandrake-feedstock" xlink:title="mandrake">
<ellipse fill="#fde725" stroke="black" cx="3211" cy="-502" rx="57.39" ry="18"/>
<text text-anchor="middle" x="3211" y="-498.3" font-family="Times,serif" font-size="14.00">mandrake</text>
</a>
</g>
</g>
<!-- pp&#45;sketchlib&#45;&gt;mandrake -->
<g id="edge54" class="edge">
<title>pp&#45;sketchlib&#45;&gt;mandrake</title>
<path fill="none" stroke="black" d="M3211,-555.7C3211,-547.98 3211,-538.71 3211,-530.11"/>
<polygon fill="black" stroke="black" points="3214.5,-530.1 3211,-520.1 3207.5,-530.1 3214.5,-530.1"/>
</g>
<!-- faiss&#45;split -->
<g id="node48" class="node">
<title>faiss&#45;split</title>
<g id="a_node48"><a xlink:href="https://github.com/conda-forge/faiss-split-feedstock/pull/68" xlink:title="faiss split ❎">
<ellipse fill="#31688e" stroke="black" cx="1088" cy="-682" rx="69.59" ry="18"/>
<text text-anchor="middle" x="1088" y="-678.3" font-family="Times,serif" font-size="14.00" fill="white">faiss split ❎</text>
</a>
</g>
</g>
<!-- faiss&#45;split&#45;&gt;graphvite -->
<g id="edge55" class="edge">
<title>faiss&#45;split&#45;&gt;graphvite</title>
<path fill="none" stroke="black" d="M1049.96,-666.83C1019.52,-655.5 976.78,-639.59 944.71,-627.65"/>
<polygon fill="black" stroke="black" points="945.72,-624.29 935.13,-624.08 943.28,-630.85 945.72,-624.29"/>
</g>
<!-- tsnecuda -->
<g id="node49" class="node">
<title>tsnecuda</title>
<g id="a_node49"><a xlink:href="https://github.com/conda-forge/tsnecuda-feedstock" xlink:title="tsnecuda">
<ellipse fill="#fde725" stroke="black" cx="1027" cy="-610" rx="52.79" ry="18"/>
<text text-anchor="middle" x="1027" y="-606.3" font-family="Times,serif" font-size="14.00">tsnecuda</text>
</a>
</g>
</g>
<!-- faiss&#45;split&#45;&gt;tsnecuda -->
<g id="edge56" class="edge">
<title>faiss&#45;split&#45;&gt;tsnecuda</title>
<path fill="none" stroke="black" d="M1073.23,-664.05C1065.74,-655.46 1056.5,-644.86 1048.26,-635.4"/>
<polygon fill="black" stroke="black" points="1050.84,-633.03 1041.63,-627.79 1045.56,-637.63 1050.84,-633.03"/>
</g>
<!-- libtvm -->
<g id="node50" class="node">
<title>libtvm</title>
<g id="a_node50"><a xlink:href="https://github.com/conda-forge/libtvm-feedstock" xlink:title="libtvm">
<ellipse fill="#fde725" stroke="black" cx="1963" cy="-394" rx="40.5" ry="18"/>
<text text-anchor="middle" x="1963" y="-390.3" font-family="Times,serif" font-size="14.00">libtvm</text>
</a>
</g>
</g>
<!-- tvm&#45;py -->
<g id="node51" class="node">
<title>tvm&#45;py</title>
<g id="a_node51"><a xlink:href="https://github.com/conda-forge/tvm-py-feedstock" xlink:title="tvm py">
<ellipse fill="#fde725" stroke="black" cx="1963" cy="-322" rx="43" ry="18"/>
<text text-anchor="middle" x="1963" y="-318.3" font-family="Times,serif" font-size="14.00">tvm py</text>
</a>
</g>
</g>
<!-- libtvm&#45;&gt;tvm&#45;py -->
<g id="edge57" class="edge">
<title>libtvm&#45;&gt;tvm&#45;py</title>
<path fill="none" stroke="black" d="M1963,-375.7C1963,-367.98 1963,-358.71 1963,-350.11"/>
<polygon fill="black" stroke="black" points="1966.5,-350.1 1963,-340.1 1959.5,-350.1 1966.5,-350.1"/>
</g>
<!-- ptxcompiler -->
<g id="node53" class="node">
<title>ptxcompiler</title>
<g id="a_node53"><a xlink:href="https://github.com/conda-forge/ptxcompiler-feedstock" xlink:title="ptxcompiler">
<ellipse fill="#000000" stroke="black" cx="3003" cy="-394" rx="66.5" ry="18"/>
<text text-anchor="middle" x="3003" y="-390.3" font-family="Times,serif" font-size="14.00" fill="white">ptxcompiler</text>
</a>
</g>
</g>
<!-- cudadecon&#45;&gt;ptxcompiler -->
<!-- pyvkfft -->
<g id="node57" class="node">
<title>pyvkfft</title>
<g id="a_node57"><a xlink:href="https://github.com/conda-forge/pyvkfft-feedstock/pull/10" xlink:title="pyvkfft ❎">
<ellipse fill="#31688e" stroke="black" cx="3003" cy="-322" rx="57.39" ry="18"/>
<text text-anchor="middle" x="3003" y="-318.3" font-family="Times,serif" font-size="14.00" fill="white">pyvkfft ❎</text>
</a>
</g>
</g>
<!-- ptxcompiler&#45;&gt;pyvkfft -->
<!-- colmap -->
<g id="node54" class="node">
<title>colmap</title>
<g id="a_node54"><a xlink:href="https://github.com/conda-forge/colmap-feedstock/pull/19" xlink:title="colmap ❎">
<ellipse fill="#31688e" stroke="black" cx="3211" cy="-134" rx="58" ry="18"/>
<text text-anchor="middle" x="3211" y="-130.3" font-family="Times,serif" font-size="14.00" fill="white">colmap ❎</text>
</a>
</g>
</g>
<!-- pycolmap -->
<g id="node55" class="node">
<title>pycolmap</title>
<g id="a_node55"><a xlink:href="https://github.com/conda-forge/pycolmap-feedstock" xlink:title="pycolmap">
<ellipse fill="#fde725" stroke="black" cx="3211" cy="-62" rx="55.49" ry="18"/>
<text text-anchor="middle" x="3211" y="-58.3" font-family="Times,serif" font-size="14.00">pycolmap</text>
</a>
</g>
</g>
<!-- colmap&#45;&gt;pycolmap -->
<g id="edge60" class="edge">
<title>colmap&#45;&gt;pycolmap</title>
<path fill="none" stroke="black" d="M3211,-115.7C3211,-107.98 3211,-98.71 3211,-90.11"/>
<polygon fill="black" stroke="black" points="3214.5,-90.1 3211,-80.1 3207.5,-90.1 3214.5,-90.1"/>
</g>
<!-- cutlass -->
<g id="node56" class="node">
<title>cutlass</title>
<g id="a_node56"><a xlink:href="https://github.com/conda-forge/cutlass-feedstock/pull/10" xlink:title="cutlass ❎">
<ellipse fill="#31688e" stroke="black" cx="1963" cy="-466" rx="58" ry="18"/>
<text text-anchor="middle" x="1963" y="-462.3" font-family="Times,serif" font-size="14.00" fill="white">cutlass ❎</text>
</a>
</g>
</g>
<!-- cutlass&#45;&gt;pyg&#45;lib -->
<g id="edge61" class="edge">
<title>cutlass&#45;&gt;pyg&#45;lib</title>
<path fill="none" stroke="black" d="M1940.33,-449.29C1925.91,-439.29 1907.07,-426.24 1891.49,-415.44"/>
<polygon fill="black" stroke="black" points="1893.42,-412.52 1883.21,-409.7 1889.44,-418.27 1893.42,-412.52"/>
</g>
<!-- cutlass&#45;&gt;libtvm -->
<g id="edge62" class="edge">
<title>cutlass&#45;&gt;libtvm</title>
<path fill="none" stroke="black" d="M1963,-447.7C1963,-439.98 1963,-430.71 1963,-422.11"/>
<polygon fill="black" stroke="black" points="1966.5,-422.1 1963,-412.1 1959.5,-422.1 1966.5,-422.1"/>
</g>
<!-- pyscamp&#45;gpu -->
<g id="node58" class="node">
<title>pyscamp&#45;gpu</title>
<g id="a_node58"><a xlink:href="https://github.com/conda-forge/pyscamp-gpu-feedstock/pull/6" xlink:title="pyscamp gpu ❎">
<ellipse fill="#31688e" stroke="black" cx="3003" cy="-250" rx="86.5" ry="18"/>
<text text-anchor="middle" x="3003" y="-246.3" font-family="Times,serif" font-size="14.00" fill="white">pyscamp gpu ❎</text>
</a>
</g>
</g>
<!-- pyvkfft&#45;&gt;pyscamp&#45;gpu -->
<!-- cyrsoxs -->
<g id="node59" class="node">
<title>cyrsoxs</title>
<g id="a_node59"><a xlink:href="https://github.com/conda-forge/cyrsoxs-feedstock/pull/9" xlink:title="cyrsoxs ❎">
<ellipse fill="#31688e" stroke="black" cx="3003" cy="-178" rx="60" ry="18"/>
<text text-anchor="middle" x="3003" y="-174.3" font-family="Times,serif" font-size="14.00" fill="white">cyrsoxs ❎</text>
</a>
</g>
</g>
<!-- pyscamp&#45;gpu&#45;&gt;cyrsoxs -->
<!-- katago -->
<g id="node60" class="node">
<title>katago</title>
<g id="a_node60"><a xlink:href="https://github.com/conda-forge/katago-feedstock/pull/5" xlink:title="katago ❎">
<ellipse fill="#31688e" stroke="black" cx="1438" cy="-18" rx="56" ry="18"/>
<text text-anchor="middle" x="1438" y="-14.3" font-family="Times,serif" font-size="14.00" fill="white">katago ❎</text>
</a>
</g>
</g>
</g>
</svg>
