<?xml version="1.0" encoding="UTF-8" standalone="no"?>
<!DOCTYPE svg PUBLIC "-//W3C//DTD SVG 1.1//EN"
 "http://www.w3.org/Graphics/SVG/1.1/DTD/svg11.dtd">
<!-- Generated by graphviz version 8.1.0 (20230707.2238)
 -->
<!-- Pages: 1 -->
<svg width="4037pt" height="736pt"
 viewBox="0.00 0.00 4036.61 736.00" xmlns="http://www.w3.org/2000/svg" xmlns:xlink="http://www.w3.org/1999/xlink">
<g id="graph0" class="graph" transform="scale(1 1) rotate(0) translate(4 732)">
<polygon fill="white" stroke="none" points="-4,4 -4,-732 4032.61,-732 4032.61,4 -4,4"/>
<!-- libhwloc -->
<g id="node1" class="node">
<title>libhwloc</title>
<g id="a_node1"><a xlink:href="https://github.com/conda-forge/libhwloc-feedstock/pull/67" xlink:title="libhwloc ❎">
<ellipse fill="#31688e" stroke="black" cx="343.07" cy="-674" rx="68.04" ry="18"/>
<text text-anchor="middle" x="343.07" y="-669.33" font-family="Times,serif" font-size="14.00" fill="white">libhwloc ❎</text>
</a>
</g>
</g>
<!-- openmm -->
<g id="node2" class="node">
<title>openmm</title>
<g id="a_node2"><a xlink:href="https://github.com/conda-forge/openmm-feedstock" xlink:title="openmm">
<ellipse fill="#fde725" stroke="black" cx="343.07" cy="-602" rx="54.36" ry="18"/>
<text text-anchor="middle" x="343.07" y="-597.33" font-family="Times,serif" font-size="14.00">openmm</text>
</a>
</g>
</g>
<!-- libhwloc&#45;&gt;openmm -->
<g id="edge1" class="edge">
<title>libhwloc&#45;&gt;openmm</title>
<path fill="none" stroke="black" d="M343.07,-655.7C343.07,-648.24 343.07,-639.32 343.07,-630.97"/>
<polygon fill="black" stroke="black" points="346.57,-631.1 343.07,-621.1 339.57,-631.1 346.57,-631.1"/>
</g>
<!-- seekr2_openmm_plugin -->
<g id="node3" class="node">
<title>seekr2_openmm_plugin</title>
<g id="a_node3"><a xlink:href="https://github.com/conda-forge/seekr2_openmm_plugin-feedstock" xlink:title="seekr2_openmm_plugin">
<ellipse fill="#fde725" stroke="black" cx="129.07" cy="-530" rx="129.07" ry="18"/>
<text text-anchor="middle" x="129.07" y="-525.33" font-family="Times,serif" font-size="14.00">seekr2_openmm_plugin</text>
</a>
</g>
</g>
<!-- libhwloc&#45;&gt;seekr2_openmm_plugin -->
<g id="edge2" class="edge">
<title>libhwloc&#45;&gt;seekr2_openmm_plugin</title>
<path fill="none" stroke="black" d="M318.94,-656.99C281.06,-631.85 207.46,-583.02 163.86,-554.09"/>
<polygon fill="black" stroke="black" points="166.04,-550.67 155.78,-548.06 162.17,-556.5 166.04,-550.67"/>
</g>
<!-- gromacs -->
<g id="node4" class="node">
<title>gromacs</title>
<g id="a_node4"><a xlink:href="https://github.com/conda-forge/gromacs-feedstock" xlink:title="gromacs">
<ellipse fill="#fde725" stroke="black" cx="469.07" cy="-602" rx="53.84" ry="18"/>
<text text-anchor="middle" x="469.07" y="-597.33" font-family="Times,serif" font-size="14.00">gromacs</text>
</a>
</g>
</g>
<!-- libhwloc&#45;&gt;gromacs -->
<g id="edge3" class="edge">
<title>libhwloc&#45;&gt;gromacs</title>
<path fill="none" stroke="black" d="M371.35,-657.29C389.47,-647.22 413.17,-634.05 432.7,-623.21"/>
<polygon fill="black" stroke="black" points="434.14,-625.85 441.18,-617.94 430.74,-619.73 434.14,-625.85"/>
</g>
<!-- openmm&#45;&gt;seekr2_openmm_plugin -->
<g id="edge4" class="edge">
<title>openmm&#45;&gt;seekr2_openmm_plugin</title>
<path fill="none" stroke="black" d="M305.31,-588.65C272.95,-578.06 225.79,-562.64 188.4,-550.41"/>
<polygon fill="black" stroke="black" points="189.73,-546.83 179.13,-547.05 187.55,-553.48 189.73,-546.83"/>
</g>
<!-- openmm&#45;torch -->
<g id="node5" class="node">
<title>openmm&#45;torch</title>
<g id="a_node5"><a xlink:href="https://github.com/conda-forge/openmm-torch-feedstock" xlink:title="openmm torch">
<ellipse fill="#fde725" stroke="black" cx="924.07" cy="-530" rx="83.83" ry="18"/>
<text text-anchor="middle" x="924.07" y="-525.33" font-family="Times,serif" font-size="14.00">openmm torch</text>
</a>
</g>
</g>
<!-- openmm&#45;&gt;openmm&#45;torch -->
<g id="edge5" class="edge">
<title>openmm&#45;&gt;openmm&#45;torch</title>
<path fill="none" stroke="black" d="M382.49,-589.21C390.25,-587.21 398.37,-585.35 406.07,-584 592.77,-551.18 643.17,-573.07 831.07,-548 838.37,-547.03 845.97,-545.87 853.53,-544.63"/>
<polygon fill="black" stroke="black" points="853.9,-547.95 863.17,-542.83 852.73,-541.05 853.9,-547.95"/>
</g>
<!-- openmmtorchplugin -->
<g id="node6" class="node">
<title>openmmtorchplugin</title>
<g id="a_node6"><a xlink:href="https://github.com/conda-forge/openmmtorchplugin-feedstock" xlink:title="openmmtorchplugin">
<ellipse fill="#fde725" stroke="black" cx="710.07" cy="-530" rx="112.24" ry="18"/>
<text text-anchor="middle" x="710.07" y="-525.33" font-family="Times,serif" font-size="14.00">openmmtorchplugin</text>
</a>
</g>
</g>
<!-- openmm&#45;&gt;openmmtorchplugin -->
<g id="edge6" class="edge">
<title>openmm&#45;&gt;openmmtorchplugin</title>
<path fill="none" stroke="black" d="M383.27,-589.57C390.82,-587.59 398.66,-585.64 406.07,-584 477.25,-568.23 558.65,-554.25 619.3,-544.61"/>
<polygon fill="black" stroke="black" points="619.66,-547.94 628.99,-542.92 618.57,-541.02 619.66,-547.94"/>
</g>
<!-- openmm&#45;plumed -->
<g id="node7" class="node">
<title>openmm&#45;plumed</title>
<g id="a_node7"><a xlink:href="https://github.com/conda-forge/openmm-plumed-feedstock" xlink:title="openmm plumed">
<ellipse fill="#fde725" stroke="black" cx="485.07" cy="-530" rx="94.88" ry="18"/>
<text text-anchor="middle" x="485.07" y="-525.33" font-family="Times,serif" font-size="14.00">openmm plumed</text>
</a>
</g>
</g>
<!-- openmm&#45;&gt;openmm&#45;plumed -->
<g id="edge7" class="edge">
<title>openmm&#45;&gt;openmm&#45;plumed</title>
<path fill="none" stroke="black" d="M372.49,-586.5C392.66,-576.55 419.74,-563.21 442.29,-552.09"/>
<polygon fill="black" stroke="black" points="443.54,-554.88 450.96,-547.32 440.44,-548.61 443.54,-554.88"/>
</g>
<!-- meld -->
<g id="node8" class="node">
<title>meld</title>
<g id="a_node8"><a xlink:href="https://github.com/conda-forge/meld-feedstock" xlink:title="meld">
<ellipse fill="#fde725" stroke="black" cx="260.07" cy="-458" rx="35.95" ry="18"/>
<text text-anchor="middle" x="260.07" y="-453.32" font-family="Times,serif" font-size="14.00">meld</text>
</a>
</g>
</g>
<!-- openmm&#45;&gt;meld -->
<g id="edge8" class="edge">
<title>openmm&#45;&gt;meld</title>
<path fill="none" stroke="black" d="M332.17,-583.93C325.65,-573.6 317.25,-560.13 310.07,-548 297.72,-527.12 284.28,-503.12 274.45,-485.31"/>
<polygon fill="black" stroke="black" points="277.13,-483.94 269.25,-476.86 271,-487.31 277.13,-483.94"/>
</g>
<!-- openmm&#45;atmmetaforce&#45;plugin -->
<g id="node9" class="node">
<title>openmm&#45;atmmetaforce&#45;plugin</title>
<g id="a_node9"><a xlink:href="https://github.com/conda-forge/openmm-atmmetaforce-plugin-feedstock" xlink:title="openmm atmmetaforce plugin">
<ellipse fill="#fde725" stroke="black" cx="172.07" cy="-386" rx="162.22" ry="18"/>
<text text-anchor="middle" x="172.07" y="-381.32" font-family="Times,serif" font-size="14.00">openmm atmmetaforce plugin</text>
</a>
</g>
</g>
<!-- openmm&#45;&gt;openmm&#45;atmmetaforce&#45;plugin -->
<g id="edge9" class="edge">
<title>openmm&#45;&gt;openmm&#45;atmmetaforce&#45;plugin</title>
<path fill="none" stroke="black" d="M343.89,-583.67C344.45,-551.44 341.09,-481.76 305.07,-440 292.13,-424.99 274.35,-414.19 255.99,-406.43"/>
<polygon fill="black" stroke="black" points="257.35,-402.82 246.77,-402.43 254.8,-409.33 257.35,-402.82"/>
</g>
<!-- openmm&#45;dlext -->
<g id="node10" class="node">
<title>openmm&#45;dlext</title>
<g id="a_node10"><a xlink:href="https://github.com/conda-forge/openmm-dlext-feedstock" xlink:title="openmm dlext">
<ellipse fill="#fde725" stroke="black" cx="362.07" cy="-314" rx="82.77" ry="18"/>
<text text-anchor="middle" x="362.07" y="-309.32" font-family="Times,serif" font-size="14.00">openmm dlext</text>
</a>
</g>
</g>
<!-- openmm&#45;&gt;openmm&#45;dlext -->
<g id="edge10" class="edge">
<title>openmm&#45;&gt;openmm&#45;dlext</title>
<path fill="none" stroke="black" d="M344.84,-583.83C345.87,-573.46 347.15,-559.98 348.07,-548 353.77,-474.16 358.47,-387.01 360.69,-343.18"/>
<polygon fill="black" stroke="black" points="364.23,-343.42 361.24,-333.26 357.24,-343.07 364.23,-343.42"/>
</g>
<!-- torchvision -->
<g id="node11" class="node">
<title>torchvision</title>
<g id="a_node11"><a xlink:href="https://github.com/conda-forge/torchvision-feedstock" xlink:title="torchvision">
<ellipse fill="#fde725" stroke="black" cx="2169.07" cy="-530" rx="66.99" ry="18"/>
<text text-anchor="middle" x="2169.07" y="-525.33" font-family="Times,serif" font-size="14.00">torchvision</text>
</a>
</g>
</g>
<!-- detectron2 -->
<g id="node12" class="node">
<title>detectron2</title>
<g id="a_node12"><a xlink:href="https://github.com/conda-forge/detectron2-feedstock" xlink:title="detectron2">
<ellipse fill="#fde725" stroke="black" cx="1951.07" cy="-458" rx="65.94" ry="18"/>
<text text-anchor="middle" x="1951.07" y="-453.32" font-family="Times,serif" font-size="14.00">detectron2</text>
</a>
</g>
</g>
<!-- torchvision&#45;&gt;detectron2 -->
<g id="edge11" class="edge">
<title>torchvision&#45;&gt;detectron2</title>
<path fill="none" stroke="black" d="M2127.3,-515.59C2091.93,-504.23 2041.06,-487.89 2003.06,-475.69"/>
<polygon fill="black" stroke="black" points="2004.3,-472.09 1993.71,-472.37 2002.16,-478.76 2004.3,-472.09"/>
</g>
<!-- fcos -->
<g id="node13" class="node">
<title>fcos</title>
<g id="a_node13"><a xlink:href="https://github.com/conda-forge/fcos-feedstock" xlink:title="fcos">
<ellipse fill="#fde725" stroke="black" cx="2066.07" cy="-458" rx="31.22" ry="18"/>
<text text-anchor="middle" x="2066.07" y="-453.32" font-family="Times,serif" font-size="14.00">fcos</text>
</a>
</g>
</g>
<!-- torchvision&#45;&gt;fcos -->
<g id="edge12" class="edge">
<title>torchvision&#45;&gt;fcos</title>
<path fill="none" stroke="black" d="M2145.18,-512.76C2130.08,-502.5 2110.48,-489.18 2094.57,-478.37"/>
<polygon fill="black" stroke="black" points="2096.93,-475.06 2086.69,-472.33 2092.99,-480.85 2096.93,-475.06"/>
</g>
<!-- fairscale -->
<g id="node14" class="node">
<title>fairscale</title>
<g id="a_node14"><a xlink:href="https://github.com/conda-forge/fairscale-feedstock" xlink:title="fairscale">
<ellipse fill="#fde725" stroke="black" cx="2169.07" cy="-458" rx="53.84" ry="18"/>
<text text-anchor="middle" x="2169.07" y="-453.32" font-family="Times,serif" font-size="14.00">fairscale</text>
</a>
</g>
</g>
<!-- torchvision&#45;&gt;fairscale -->
<g id="edge13" class="edge">
<title>torchvision&#45;&gt;fairscale</title>
<path fill="none" stroke="black" d="M2169.07,-511.7C2169.07,-504.24 2169.07,-495.32 2169.07,-486.97"/>
<polygon fill="black" stroke="black" points="2172.57,-487.1 2169.07,-477.1 2165.57,-487.1 2172.57,-487.1"/>
</g>
<!-- graphvite -->
<g id="node15" class="node">
<title>graphvite</title>
<g id="a_node15"><a xlink:href="https://github.com/conda-forge/graphvite-feedstock" xlink:title="graphvite">
<ellipse fill="#fde725" stroke="black" cx="2770.07" cy="-458" rx="59.63" ry="18"/>
<text text-anchor="middle" x="2770.07" y="-453.32" font-family="Times,serif" font-size="14.00">graphvite</text>
</a>
</g>
</g>
<!-- torchvision&#45;&gt;graphvite -->
<g id="edge14" class="edge">
<title>torchvision&#45;&gt;graphvite</title>
<path fill="none" stroke="black" d="M2231.65,-523.27C2362.31,-511.24 2655.79,-483.79 2701.07,-476 2705.98,-475.16 2711.06,-474.15 2716.13,-473.07"/>
<polygon fill="black" stroke="black" points="2716.48,-476.35 2725.47,-470.74 2714.94,-469.52 2716.48,-476.35"/>
</g>
<!-- mmcv&#45;recipe -->
<g id="node16" class="node">
<title>mmcv&#45;recipe</title>
<g id="a_node16"><a xlink:href="https://github.com/conda-forge/mmcv-recipe-feedstock" xlink:title="mmcv recipe">
<ellipse fill="#fde725" stroke="black" cx="2316.07" cy="-458" rx="75.41" ry="18"/>
<text text-anchor="middle" x="2316.07" y="-453.32" font-family="Times,serif" font-size="14.00">mmcv recipe</text>
</a>
</g>
</g>
<!-- torchvision&#45;&gt;mmcv&#45;recipe -->
<g id="edge15" class="edge">
<title>torchvision&#45;&gt;mmcv&#45;recipe</title>
<path fill="none" stroke="black" d="M2200.97,-513.81C2222.15,-503.72 2250.21,-490.36 2273.32,-479.36"/>
<polygon fill="black" stroke="black" points="2274.7,-482.1 2282.22,-474.64 2271.69,-475.78 2274.7,-482.1"/>
</g>
<!-- pytorch3d -->
<g id="node17" class="node">
<title>pytorch3d</title>
<g id="a_node17"><a xlink:href="https://github.com/conda-forge/pytorch3d-feedstock" xlink:title="pytorch3d">
<ellipse fill="#fde725" stroke="black" cx="2472.07" cy="-458" rx="62.26" ry="18"/>
<text text-anchor="middle" x="2472.07" y="-453.32" font-family="Times,serif" font-size="14.00">pytorch3d</text>
</a>
</g>
</g>
<!-- torchvision&#45;&gt;pytorch3d -->
<g id="edge16" class="edge">
<title>torchvision&#45;&gt;pytorch3d</title>
<path fill="none" stroke="black" d="M2219.11,-517.62C2265.91,-506.94 2337.76,-490.51 2400.07,-476 2404.77,-474.91 2409.65,-473.77 2414.54,-472.62"/>
<polygon fill="black" stroke="black" points="2415.29,-475.8 2424.22,-470.11 2413.68,-468.99 2415.29,-475.8"/>
</g>
<!-- aihwkit&#45;gpu -->
<g id="node18" class="node">
<title>aihwkit&#45;gpu</title>
<g id="a_node18"><a xlink:href="https://github.com/conda-forge/aihwkit-gpu-feedstock" xlink:title="aihwkit gpu">
<ellipse fill="#fde725" stroke="black" cx="2622.07" cy="-458" rx="70.15" ry="18"/>
<text text-anchor="middle" x="2622.07" y="-453.32" font-family="Times,serif" font-size="14.00">aihwkit gpu</text>
</a>
</g>
</g>
<!-- torchvision&#45;&gt;aihwkit&#45;gpu -->
<g id="edge17" class="edge">
<title>torchvision&#45;&gt;aihwkit&#45;gpu</title>
<path fill="none" stroke="black" d="M2229.52,-521.78C2303.65,-512.61 2432.99,-495.62 2543.07,-476 2548.68,-475 2554.5,-473.89 2560.32,-472.73"/>
<polygon fill="black" stroke="black" points="2560.66,-476.03 2569.76,-470.6 2559.26,-469.17 2560.66,-476.03"/>
</g>
<!-- tensorflow -->
<g id="node19" class="node">
<title>tensorflow</title>
<g id="a_node19"><a xlink:href="https://github.com/conda-forge/tensorflow-feedstock" xlink:title="tensorflow">
<ellipse fill="#35b779" stroke="black" cx="3423.07" cy="-602" rx="63.84" ry="18"/>
<text text-anchor="middle" x="3423.07" y="-597.33" font-family="Times,serif" font-size="14.00">tensorflow</text>
</a>
</g>
</g>
<!-- deepmd&#45;kit -->
<g id="node20" class="node">
<title>deepmd&#45;kit</title>
<g id="a_node20"><a xlink:href="https://github.com/conda-forge/deepmd-kit-feedstock" xlink:title="deepmd kit">
<ellipse fill="#fde725" stroke="black" cx="3463.07" cy="-530" rx="67.52" ry="18"/>
<text text-anchor="middle" x="3463.07" y="-525.33" font-family="Times,serif" font-size="14.00">deepmd kit</text>
</a>
</g>
</g>
<!-- tensorflow&#45;&gt;deepmd&#45;kit -->
<g id="edge18" class="edge">
<title>tensorflow&#45;&gt;deepmd&#45;kit</title>
<path fill="none" stroke="black" d="M3432.76,-584.05C3437.26,-576.18 3442.72,-566.62 3447.76,-557.79"/>
<polygon fill="black" stroke="black" points="3451.28,-559.69 3453.2,-549.28 3445.2,-556.22 3451.28,-559.69"/>
</g>
<!-- dgl -->
<g id="node21" class="node">
<title>dgl</title>
<g id="a_node21"><a xlink:href="https://github.com/conda-forge/dgl-feedstock" xlink:title="dgl">
<ellipse fill="#fde725" stroke="black" cx="3350.07" cy="-530" rx="27.01" ry="18"/>
<text text-anchor="middle" x="3350.07" y="-525.33" font-family="Times,serif" font-size="14.00">dgl</text>
</a>
</g>
</g>
<!-- tensorflow&#45;&gt;dgl -->
<g id="edge19" class="edge">
<title>tensorflow&#45;&gt;dgl</title>
<path fill="none" stroke="black" d="M3405.77,-584.41C3395.83,-574.87 3383.22,-562.79 3372.52,-552.53"/>
<polygon fill="black" stroke="black" points="3375.42,-550.5 3365.78,-546.11 3370.58,-555.56 3375.42,-550.5"/>
</g>
<!-- pytorch&#45;cpu -->
<g id="node22" class="node">
<title>pytorch&#45;cpu</title>
<g id="a_node22"><a xlink:href="https://github.com/conda-forge/pytorch-cpu-feedstock/pull/191" xlink:title="pytorch cpu ❎">
<ellipse fill="#31688e" stroke="black" cx="1800.07" cy="-602" rx="85.93" ry="18"/>
<text text-anchor="middle" x="1800.07" y="-597.33" font-family="Times,serif" font-size="14.00" fill="white">pytorch cpu ❎</text>
</a>
</g>
</g>
<!-- pytorch&#45;cpu&#45;&gt;openmm&#45;torch -->
<g id="edge35" class="edge">
<title>pytorch&#45;cpu&#45;&gt;openmm&#45;torch</title>
<path fill="none" stroke="black" d="M1715.76,-598.12C1572.69,-592.6 1273.42,-578.28 1022.07,-548 1013.6,-546.98 1004.75,-545.72 995.98,-544.35"/>
<polygon fill="black" stroke="black" points="996.78,-540.77 986.35,-542.64 995.67,-547.68 996.78,-540.77"/>
</g>
<!-- pytorch&#45;cpu&#45;&gt;openmmtorchplugin -->
<g id="edge41" class="edge">
<title>pytorch&#45;cpu&#45;&gt;openmmtorchplugin</title>
<path fill="none" stroke="black" d="M1714.99,-598.78C1546.12,-593.82 1156.8,-579.73 831.07,-548 821.04,-547.02 810.57,-545.82 800.16,-544.52"/>
<polygon fill="black" stroke="black" points="800.73,-540.93 790.36,-543.12 799.83,-547.87 800.73,-540.93"/>
</g>
<!-- pytorch&#45;cpu&#45;&gt;torchvision -->
<g id="edge20" class="edge">
<title>pytorch&#45;cpu&#45;&gt;torchvision</title>
<path fill="none" stroke="black" d="M1862.25,-589.2C1929.61,-576.43 2036.56,-556.14 2104.75,-543.2"/>
<polygon fill="black" stroke="black" points="2105.18,-546.49 2114.35,-541.19 2103.87,-539.62 2105.18,-546.49"/>
</g>
<!-- pytorch&#45;cpu&#45;&gt;detectron2 -->
<g id="edge21" class="edge">
<title>pytorch&#45;cpu&#45;&gt;detectron2</title>
<path fill="none" stroke="black" d="M1824.67,-584.46C1838.78,-574.52 1856.53,-561.27 1871.07,-548 1892.93,-528.05 1915.23,-502.74 1930.71,-484.22"/>
<polygon fill="black" stroke="black" points="1933.85,-486.92 1937.53,-476.98 1928.46,-482.46 1933.85,-486.92"/>
</g>
<!-- pytorch&#45;cpu&#45;&gt;fcos -->
<g id="edge22" class="edge">
<title>pytorch&#45;cpu&#45;&gt;fcos</title>
<path fill="none" stroke="black" d="M1831.4,-584.91C1851.62,-574.48 1878.46,-560.54 1902.07,-548 1948.35,-523.42 2001.63,-494.37 2034.58,-476.31"/>
<polygon fill="black" stroke="black" points="2036.04,-478.95 2043.12,-471.07 2032.67,-472.81 2036.04,-478.95"/>
</g>
<!-- pytorch&#45;cpu&#45;&gt;fairscale -->
<g id="edge23" class="edge">
<title>pytorch&#45;cpu&#45;&gt;fairscale</title>
<path fill="none" stroke="black" d="M1842.99,-585.97C1872.39,-575.57 1912.21,-561.27 1947.07,-548 2009.72,-524.16 2081.63,-495 2126.21,-476.7"/>
<polygon fill="black" stroke="black" points="2127.2,-479.67 2135.12,-472.63 2124.54,-473.2 2127.2,-479.67"/>
</g>
<!-- pytorch&#45;cpu&#45;&gt;graphvite -->
<g id="edge24" class="edge">
<title>pytorch&#45;cpu&#45;&gt;graphvite</title>
<path fill="none" stroke="black" d="M1885.25,-598.99C2019.02,-594.81 2271.62,-582.49 2354.07,-548 2377.07,-538.38 2374.19,-521.88 2397.07,-512 2521.99,-458.09 2567.21,-500.32 2701.07,-476 2705.97,-475.11 2711.04,-474.08 2716.11,-472.97"/>
<polygon fill="black" stroke="black" points="2716.47,-476.25 2725.45,-470.61 2714.92,-469.42 2716.47,-476.25"/>
</g>
<!-- pytorch&#45;cpu&#45;&gt;mmcv&#45;recipe -->
<g id="edge25" class="edge">
<title>pytorch&#45;cpu&#45;&gt;mmcv&#45;recipe</title>
<path fill="none" stroke="black" d="M1884.81,-598.5C1996.28,-593.94 2185.08,-581.4 2245.07,-548 2270.6,-533.79 2290.32,-506.32 2302.43,-485.64"/>
<polygon fill="black" stroke="black" points="2305.92,-487.55 2307.75,-477.12 2299.81,-484.14 2305.92,-487.55"/>
</g>
<!-- pytorch&#45;cpu&#45;&gt;pytorch3d -->
<g id="edge26" class="edge">
<title>pytorch&#45;cpu&#45;&gt;pytorch3d</title>
<path fill="none" stroke="black" d="M1882.97,-597.07C2000.27,-590.63 2208.2,-575.66 2278.07,-548 2302.87,-538.18 2302.62,-524.69 2326.07,-512 2355.1,-496.3 2389.73,-483.5 2417.98,-474.41"/>
<polygon fill="black" stroke="black" points="2418.98,-477.45 2427.47,-471.12 2416.88,-470.78 2418.98,-477.45"/>
</g>
<!-- pytorch&#45;cpu&#45;&gt;aihwkit&#45;gpu -->
<g id="edge27" class="edge">
<title>pytorch&#45;cpu&#45;&gt;aihwkit&#45;gpu</title>
<path fill="none" stroke="black" d="M1884.07,-597.82C2009.58,-592.15 2239.49,-577.96 2316.07,-548 2340.91,-538.28 2339.73,-522.9 2364.07,-512 2438.14,-478.84 2463.63,-492.54 2543.07,-476 2548.35,-474.9 2553.81,-473.75 2559.3,-472.59"/>
<polygon fill="black" stroke="black" points="2559.77,-475.85 2568.83,-470.35 2558.32,-469.01 2559.77,-475.85"/>
</g>
<!-- pytorch&#45;cpu&#45;&gt;dgl -->
<g id="edge28" class="edge">
<title>pytorch&#45;cpu&#45;&gt;dgl</title>
<path fill="none" stroke="black" d="M1885.9,-600.02C2185.7,-596.31 3175.54,-581.62 3314.07,-548 3315.87,-547.56 3317.69,-547.03 3319.5,-546.43"/>
<polygon fill="black" stroke="black" points="3320.67,-549.34 3328.66,-542.38 3318.08,-542.83 3320.67,-549.34"/>
</g>
<!-- nvidia&#45;apex -->
<g id="node23" class="node">
<title>nvidia&#45;apex</title>
<g id="a_node23"><a xlink:href="https://github.com/conda-forge/nvidia-apex-feedstock" xlink:title="nvidia apex">
<ellipse fill="#fde725" stroke="black" cx="2475.07" cy="-530" rx="68.57" ry="18"/>
<text text-anchor="middle" x="2475.07" y="-525.33" font-family="Times,serif" font-size="14.00">nvidia apex</text>
</a>
</g>
</g>
<!-- pytorch&#45;cpu&#45;&gt;nvidia&#45;apex -->
<g id="edge29" class="edge">
<title>pytorch&#45;cpu&#45;&gt;nvidia&#45;apex</title>
<path fill="none" stroke="black" d="M1882.29,-596.58C1996.93,-589.74 2211.11,-574.55 2392.07,-548 2399.11,-546.97 2406.46,-545.72 2413.74,-544.37"/>
<polygon fill="black" stroke="black" points="2414.15,-547.66 2423.31,-542.34 2412.83,-540.79 2414.15,-547.66"/>
</g>
<!-- pytorch_cluster -->
<g id="node24" class="node">
<title>pytorch_cluster</title>
<g id="a_node24"><a xlink:href="https://github.com/conda-forge/pytorch_cluster-feedstock" xlink:title="pytorch_cluster">
<ellipse fill="#fde725" stroke="black" cx="3068.07" cy="-458" rx="89.09" ry="18"/>
<text text-anchor="middle" x="3068.07" y="-453.32" font-family="Times,serif" font-size="14.00">pytorch_cluster</text>
</a>
</g>
</g>
<!-- pytorch&#45;cpu&#45;&gt;pytorch_cluster -->
<g id="edge30" class="edge">
<title>pytorch&#45;cpu&#45;&gt;pytorch_cluster</title>
<path fill="none" stroke="black" d="M1885.3,-599.39C2129.93,-594.42 2823.11,-577.86 2921.07,-548 2965.88,-534.34 3011.02,-503.96 3039.23,-482.51"/>
<polygon fill="black" stroke="black" points="3041.01,-484.78 3046.77,-475.89 3036.72,-479.25 3041.01,-484.78"/>
</g>
<!-- pytorch_scatter -->
<g id="node25" class="node">
<title>pytorch_scatter</title>
<g id="a_node25"><a xlink:href="https://github.com/conda-forge/pytorch_scatter-feedstock" xlink:title="pytorch_scatter">
<ellipse fill="#fde725" stroke="black" cx="1533.07" cy="-386" rx="89.61" ry="18"/>
<text text-anchor="middle" x="1533.07" y="-381.32" font-family="Times,serif" font-size="14.00">pytorch_scatter</text>
</a>
</g>
</g>
<!-- pytorch&#45;cpu&#45;&gt;pytorch_scatter -->
<g id="edge31" class="edge">
<title>pytorch&#45;cpu&#45;&gt;pytorch_scatter</title>
<path fill="none" stroke="black" d="M1714.91,-598.86C1630.78,-594.74 1510.52,-582.74 1481.07,-548 1447.6,-508.51 1484.87,-447.08 1511.33,-412.64"/>
<polygon fill="black" stroke="black" points="1514.64,-415.1 1518.11,-405.09 1509.16,-410.75 1514.64,-415.1"/>
</g>
<!-- pytorch_spline_conv -->
<g id="node26" class="node">
<title>pytorch_spline_conv</title>
<g id="a_node26"><a xlink:href="https://github.com/conda-forge/pytorch_spline_conv-feedstock" xlink:title="pytorch_spline_conv">
<ellipse fill="#fde725" stroke="black" cx="934.07" cy="-314" rx="112.24" ry="18"/>
<text text-anchor="middle" x="934.07" y="-309.32" font-family="Times,serif" font-size="14.00">pytorch_spline_conv</text>
</a>
</g>
</g>
<!-- pytorch&#45;cpu&#45;&gt;pytorch_spline_conv -->
<g id="edge32" class="edge">
<title>pytorch&#45;cpu&#45;&gt;pytorch_spline_conv</title>
<path fill="none" stroke="black" d="M1714.7,-599.46C1531.72,-595.52 1113.94,-582.78 1060.07,-548 986.08,-500.23 952.28,-393.53 939.94,-342.81"/>
<polygon fill="black" stroke="black" points="943.18,-342.26 937.51,-333.31 936.36,-343.85 943.18,-342.26"/>
</g>
<!-- pytorch_sparse -->
<g id="node27" class="node">
<title>pytorch_sparse</title>
<g id="a_node27"><a xlink:href="https://github.com/conda-forge/pytorch_sparse-feedstock" xlink:title="pytorch_sparse">
<ellipse fill="#fde725" stroke="black" cx="1499.07" cy="-314" rx="87.51" ry="18"/>
<text text-anchor="middle" x="1499.07" y="-309.32" font-family="Times,serif" font-size="14.00">pytorch_sparse</text>
</a>
</g>
</g>
<!-- pytorch&#45;cpu&#45;&gt;pytorch_sparse -->
<g id="edge33" class="edge">
<title>pytorch&#45;cpu&#45;&gt;pytorch_sparse</title>
<path fill="none" stroke="black" d="M1715.57,-598.46C1627.76,-594.01 1498.3,-581.75 1463.07,-548 1404.56,-491.94 1399.31,-441.2 1434.07,-368 1439.78,-355.98 1449.7,-345.78 1460.1,-337.65"/>
<polygon fill="black" stroke="black" points="1461.81,-340 1467.86,-331.3 1457.71,-334.33 1461.81,-340"/>
</g>
<!-- torchani -->
<g id="node28" class="node">
<title>torchani</title>
<g id="a_node28"><a xlink:href="https://github.com/conda-forge/torchani-feedstock" xlink:title="torchani">
<ellipse fill="#fde725" stroke="black" cx="1155.07" cy="-242" rx="52.79" ry="18"/>
<text text-anchor="middle" x="1155.07" y="-237.32" font-family="Times,serif" font-size="14.00">torchani</text>
</a>
</g>
</g>
<!-- pytorch&#45;cpu&#45;&gt;torchani -->
<g id="edge34" class="edge">
<title>pytorch&#45;cpu&#45;&gt;torchani</title>
<path fill="none" stroke="black" d="M1714.45,-599.84C1543.82,-596.72 1174.03,-585.66 1131.07,-548 1100.66,-521.34 1112.07,-499.45 1112.07,-459 1112.07,-459 1112.07,-459 1112.07,-385 1112.07,-343.43 1129.16,-297.84 1141.79,-269.82"/>
<polygon fill="black" stroke="black" points="1145.32,-271.53 1146.37,-260.98 1138.98,-268.57 1145.32,-271.53"/>
</g>
<!-- torchsparse -->
<g id="node29" class="node">
<title>torchsparse</title>
<g id="a_node29"><a xlink:href="https://github.com/conda-forge/torchsparse-feedstock" xlink:title="torchsparse">
<ellipse fill="#fde725" stroke="black" cx="1211.07" cy="-530" rx="70.68" ry="18"/>
<text text-anchor="middle" x="1211.07" y="-525.33" font-family="Times,serif" font-size="14.00">torchsparse</text>
</a>
</g>
</g>
<!-- pytorch&#45;cpu&#45;&gt;torchsparse -->
<g id="edge36" class="edge">
<title>pytorch&#45;cpu&#45;&gt;torchsparse</title>
<path fill="none" stroke="black" d="M1720.35,-594.91C1620.74,-586.78 1445.24,-570.71 1296.07,-548 1289.16,-546.95 1281.95,-545.72 1274.79,-544.41"/>
<polygon fill="black" stroke="black" points="1275.46,-540.78 1264.99,-542.37 1274.17,-547.66 1275.46,-540.78"/>
</g>
<!-- torch&#45;scatter -->
<g id="node30" class="node">
<title>torch&#45;scatter</title>
<g id="a_node30"><a xlink:href="https://github.com/conda-forge/torch-scatter-feedstock" xlink:title="torch scatter">
<ellipse fill="#fde725" stroke="black" cx="1244.07" cy="-458" rx="75.94" ry="18"/>
<text text-anchor="middle" x="1244.07" y="-453.32" font-family="Times,serif" font-size="14.00">torch scatter</text>
</a>
</g>
</g>
<!-- pytorch&#45;cpu&#45;&gt;torch&#45;scatter -->
<g id="edge37" class="edge">
<title>pytorch&#45;cpu&#45;&gt;torch&#45;scatter</title>
<path fill="none" stroke="black" d="M1715.83,-598C1600.32,-592.77 1399.62,-579.38 1334.07,-548 1318.27,-540.44 1287.25,-507.78 1266.09,-484.21"/>
<polygon fill="black" stroke="black" points="1269.05,-482.15 1259.79,-477.01 1263.82,-486.8 1269.05,-482.15"/>
</g>
<!-- kaolin -->
<g id="node31" class="node">
<title>kaolin</title>
<g id="a_node31"><a xlink:href="https://github.com/conda-forge/kaolin-feedstock" xlink:title="kaolin">
<ellipse fill="#fde725" stroke="black" cx="1308.07" cy="-386" rx="41.21" ry="18"/>
<text text-anchor="middle" x="1308.07" y="-381.32" font-family="Times,serif" font-size="14.00">kaolin</text>
</a>
</g>
</g>
<!-- pytorch&#45;cpu&#45;&gt;kaolin -->
<g id="edge38" class="edge">
<title>pytorch&#45;cpu&#45;&gt;kaolin</title>
<path fill="none" stroke="black" d="M1714.21,-600.47C1604.88,-598.11 1423.92,-588.05 1372.07,-548 1371.9,-547.86 1337.15,-460.3 1318.93,-414.39"/>
<polygon fill="black" stroke="black" points="1321.84,-413.22 1314.9,-405.21 1315.33,-415.8 1321.84,-413.22"/>
</g>
<!-- nnpops -->
<g id="node32" class="node">
<title>nnpops</title>
<g id="a_node32"><a xlink:href="https://github.com/conda-forge/nnpops-feedstock" xlink:title="nnpops">
<ellipse fill="#fde725" stroke="black" cx="1114.07" cy="-170" rx="47.53" ry="18"/>
<text text-anchor="middle" x="1114.07" y="-165.32" font-family="Times,serif" font-size="14.00">nnpops</text>
</a>
</g>
</g>
<!-- pytorch&#45;cpu&#45;&gt;nnpops -->
<g id="edge39" class="edge">
<title>pytorch&#45;cpu&#45;&gt;nnpops</title>
<path fill="none" stroke="black" d="M1714.69,-599.61C1539.85,-596.04 1153.48,-584.11 1106.07,-548 1072.63,-522.53 1074.07,-501.03 1074.07,-459 1074.07,-459 1074.07,-459 1074.07,-313 1074.07,-271.67 1089.97,-226.01 1101.72,-197.92"/>
<polygon fill="black" stroke="black" points="1105.23,-199.62 1105.98,-189.05 1098.8,-196.84 1105.23,-199.62"/>
</g>
<!-- triton -->
<g id="node33" class="node">
<title>triton</title>
<g id="a_node33"><a xlink:href="https://github.com/conda-forge/triton-feedstock" xlink:title="triton">
<ellipse fill="#fde725" stroke="black" cx="1647.07" cy="-314" rx="39.63" ry="18"/>
<text text-anchor="middle" x="1647.07" y="-309.32" font-family="Times,serif" font-size="14.00">triton</text>
</a>
</g>
</g>
<!-- pytorch&#45;cpu&#45;&gt;triton -->
<g id="edge40" class="edge">
<title>pytorch&#45;cpu&#45;&gt;triton</title>
<path fill="none" stroke="black" d="M1756.9,-585.99C1711.97,-567.77 1644.08,-532.31 1614.07,-476 1606.55,-461.88 1610.4,-455.57 1614.07,-440 1618.18,-422.59 1626.52,-421.01 1632.07,-404 1638.53,-384.2 1642.33,-360.98 1644.48,-343.22"/>
<polygon fill="black" stroke="black" points="1648.05,-343.75 1645.67,-333.43 1641.1,-342.98 1648.05,-343.75"/>
</g>
<!-- molgrid -->
<g id="node34" class="node">
<title>molgrid</title>
<g id="a_node34"><a xlink:href="https://github.com/conda-forge/molgrid-feedstock" xlink:title="molgrid">
<ellipse fill="#fde725" stroke="black" cx="1819.07" cy="-242" rx="50.16" ry="18"/>
<text text-anchor="middle" x="1819.07" y="-237.32" font-family="Times,serif" font-size="14.00">molgrid</text>
</a>
</g>
</g>
<!-- pytorch&#45;cpu&#45;&gt;molgrid -->
<g id="edge42" class="edge">
<title>pytorch&#45;cpu&#45;&gt;molgrid</title>
<path fill="none" stroke="black" d="M1803.92,-583.61C1809.47,-556.94 1819.07,-504.27 1819.07,-459 1819.07,-459 1819.07,-459 1819.07,-385 1819.07,-345.57 1819.07,-299.97 1819.07,-271.31"/>
<polygon fill="black" stroke="black" points="1822.57,-271.49 1819.07,-261.49 1815.57,-271.49 1822.57,-271.49"/>
</g>
<!-- theseus&#45;ai -->
<g id="node35" class="node">
<title>theseus&#45;ai</title>
<g id="a_node35"><a xlink:href="https://github.com/conda-forge/theseus-ai-feedstock" xlink:title="theseus ai">
<ellipse fill="#fde725" stroke="black" cx="1552.07" cy="-530" rx="62.26" ry="18"/>
<text text-anchor="middle" x="1552.07" y="-525.33" font-family="Times,serif" font-size="14.00">theseus ai</text>
</a>
</g>
</g>
<!-- pytorch&#45;cpu&#45;&gt;theseus&#45;ai -->
<g id="edge43" class="edge">
<title>pytorch&#45;cpu&#45;&gt;theseus&#45;ai</title>
<path fill="none" stroke="black" d="M1750.18,-586.92C1708.46,-575.14 1649.05,-558.37 1606.18,-546.27"/>
<polygon fill="black" stroke="black" points="1607.24,-542.65 1596.66,-543.3 1605.33,-549.39 1607.24,-542.65"/>
</g>
<!-- pyg&#45;lib -->
<g id="node36" class="node">
<title>pyg&#45;lib</title>
<g id="a_node36"><a xlink:href="https://github.com/conda-forge/pyg-lib-feedstock" xlink:title="pyg lib">
<ellipse fill="#fde725" stroke="black" cx="1512.07" cy="-242" rx="45.42" ry="18"/>
<text text-anchor="middle" x="1512.07" y="-237.32" font-family="Times,serif" font-size="14.00">pyg lib</text>
</a>
</g>
</g>
<!-- pytorch&#45;cpu&#45;&gt;pyg&#45;lib -->
<g id="edge44" class="edge">
<title>pytorch&#45;cpu&#45;&gt;pyg&#45;lib</title>
<path fill="none" stroke="black" d="M1714.73,-599.4C1618.34,-595.82 1469.49,-584.38 1428.07,-548 1343.47,-473.7 1342.18,-391.34 1402.07,-296 1415.26,-275 1439.37,-262.13 1461.65,-254.34"/>
<polygon fill="black" stroke="black" points="1462.6,-257.39 1471.06,-251.01 1460.47,-250.72 1462.6,-257.39"/>
</g>
<!-- deepspeed -->
<g id="node37" class="node">
<title>deepspeed</title>
<g id="a_node37"><a xlink:href="https://github.com/conda-forge/deepspeed-feedstock" xlink:title="deepspeed">
<ellipse fill="#fde725" stroke="black" cx="1688.07" cy="-458" rx="64.89" ry="18"/>
<text text-anchor="middle" x="1688.07" y="-453.32" font-family="Times,serif" font-size="14.00">deepspeed</text>
</a>
</g>
</g>
<!-- pytorch&#45;cpu&#45;&gt;deepspeed -->
<g id="edge45" class="edge">
<title>pytorch&#45;cpu&#45;&gt;deepspeed</title>
<path fill="none" stroke="black" d="M1786.56,-583.87C1766.95,-559 1730.46,-512.75 1707.83,-484.05"/>
<polygon fill="black" stroke="black" points="1710.22,-482.43 1701.28,-476.75 1704.73,-486.77 1710.22,-482.43"/>
</g>
<!-- xformers -->
<g id="node38" class="node">
<title>xformers</title>
<g id="a_node38"><a xlink:href="https://github.com/conda-forge/xformers-feedstock" xlink:title="xformers">
<ellipse fill="#fde725" stroke="black" cx="1735.07" cy="-386" rx="56.47" ry="18"/>
<text text-anchor="middle" x="1735.07" y="-381.32" font-family="Times,serif" font-size="14.00">xformers</text>
</a>
</g>
</g>
<!-- pytorch&#45;cpu&#45;&gt;xformers -->
<g id="edge46" class="edge">
<title>pytorch&#45;cpu&#45;&gt;xformers</title>
<path fill="none" stroke="black" d="M1797.39,-583.69C1792.44,-553.76 1780.66,-490.69 1762.07,-440 1758.84,-431.18 1754.49,-421.93 1750.23,-413.67"/>
<polygon fill="black" stroke="black" points="1752.96,-412.36 1745.16,-405.19 1746.79,-415.66 1752.96,-412.36"/>
</g>
<!-- bitsandbytes -->
<g id="node39" class="node">
<title>bitsandbytes</title>
<g id="a_node39"><a xlink:href="https://github.com/conda-forge/bitsandbytes-feedstock" xlink:title="bitsandbytes">
<ellipse fill="#fde725" stroke="black" cx="1923.07" cy="-314" rx="75.94" ry="18"/>
<text text-anchor="middle" x="1923.07" y="-309.32" font-family="Times,serif" font-size="14.00">bitsandbytes</text>
</a>
</g>
</g>
<!-- pytorch&#45;cpu&#45;&gt;bitsandbytes -->
<g id="edge47" class="edge">
<title>pytorch&#45;cpu&#45;&gt;bitsandbytes</title>
<path fill="none" stroke="black" d="M1811.93,-583.81C1818.63,-573.67 1826.88,-560.42 1833.07,-548 1842.67,-528.77 1891.36,-399.62 1912.86,-342.31"/>
<polygon fill="black" stroke="black" points="1916.42,-343.76 1916.65,-333.17 1909.87,-341.31 1916.42,-343.76"/>
</g>
<!-- abacus -->
<g id="node40" class="node">
<title>abacus</title>
<g id="a_node40"><a xlink:href="https://github.com/conda-forge/abacus-feedstock" xlink:title="abacus">
<ellipse fill="#fde725" stroke="black" cx="3259.07" cy="-530" rx="45.95" ry="18"/>
<text text-anchor="middle" x="3259.07" y="-525.33" font-family="Times,serif" font-size="14.00">abacus</text>
</a>
</g>
</g>
<!-- pytorch&#45;cpu&#45;&gt;abacus -->
<g id="edge48" class="edge">
<title>pytorch&#45;cpu&#45;&gt;abacus</title>
<path fill="none" stroke="black" d="M1885.9,-600.42C2149.37,-598.23 2944.15,-588.35 3199.07,-548 3204.02,-547.22 3209.15,-546.16 3214.22,-544.95"/>
<polygon fill="black" stroke="black" points="3214.67,-548.19 3223.49,-542.31 3212.93,-541.42 3214.67,-548.19"/>
</g>
<!-- carterbox&#45;torch&#45;radon -->
<g id="node41" class="node">
<title>carterbox&#45;torch&#45;radon</title>
<g id="a_node41"><a xlink:href="https://github.com/conda-forge/carterbox-torch-radon-feedstock" xlink:title="carterbox torch radon">
<ellipse fill="#fde725" stroke="black" cx="3185.07" cy="-242" rx="121.18" ry="18"/>
<text text-anchor="middle" x="3185.07" y="-237.32" font-family="Times,serif" font-size="14.00">carterbox torch radon</text>
</a>
</g>
</g>
<!-- pytorch&#45;cpu&#45;&gt;carterbox&#45;torch&#45;radon -->
<g id="edge49" class="edge">
<title>pytorch&#45;cpu&#45;&gt;carterbox&#45;torch&#45;radon</title>
<path fill="none" stroke="black" d="M1886.18,-600.51C2119.95,-598.64 2762.76,-589.73 2970.07,-548 3071.46,-527.59 3185.07,-562.42 3185.07,-459 3185.07,-459 3185.07,-459 3185.07,-385 3185.07,-345.57 3185.07,-299.97 3185.07,-271.31"/>
<polygon fill="black" stroke="black" points="3188.57,-271.49 3185.07,-261.49 3181.57,-271.49 3188.57,-271.49"/>
</g>
<!-- pytorch_scatter&#45;&gt;pytorch_sparse -->
<g id="edge50" class="edge">
<title>pytorch_scatter&#45;&gt;pytorch_sparse</title>
<path fill="none" stroke="black" d="M1524.67,-367.7C1520.88,-359.9 1516.32,-350.51 1512.1,-341.83"/>
<polygon fill="black" stroke="black" points="1514.9,-340.57 1507.38,-333.1 1508.6,-343.63 1514.9,-340.57"/>
</g>
<!-- torchani&#45;&gt;nnpops -->
<g id="edge51" class="edge">
<title>torchani&#45;&gt;nnpops</title>
<path fill="none" stroke="black" d="M1145.15,-224.05C1140.41,-215.97 1134.64,-206.12 1129.37,-197.11"/>
<polygon fill="black" stroke="black" points="1131.98,-195.65 1123.91,-188.79 1125.94,-199.19 1131.98,-195.65"/>
</g>
<!-- triton&#45;&gt;pyg&#45;lib -->
<g id="edge52" class="edge">
<title>triton&#45;&gt;pyg&#45;lib</title>
<path fill="none" stroke="black" d="M1621.68,-299.83C1600.96,-289.09 1571.43,-273.78 1548.24,-261.75"/>
<polygon fill="black" stroke="black" points="1550.23,-258.32 1539.74,-256.83 1547,-264.54 1550.23,-258.32"/>
</g>
<!-- libxc -->
<g id="node42" class="node">
<title>libxc</title>
<g id="a_node42"><a xlink:href="https://github.com/conda-forge/libxc-feedstock/pull/58" xlink:title="libxc ✓">
<ellipse fill="#31688e" stroke="black" cx="3259.07" cy="-602" rx="42.79" ry="18"/>
<text text-anchor="middle" x="3259.07" y="-597.33" font-family="Times,serif" font-size="14.00" fill="white">libxc ✓</text>
</a>
</g>
</g>
<!-- libxc&#45;&gt;abacus -->
<g id="edge53" class="edge">
<title>libxc&#45;&gt;abacus</title>
<path fill="none" stroke="black" d="M3259.07,-583.7C3259.07,-576.24 3259.07,-567.32 3259.07,-558.97"/>
<polygon fill="black" stroke="black" points="3262.57,-559.1 3259.07,-549.1 3255.57,-559.1 3262.57,-559.1"/>
</g>
<!-- pp&#45;sketchlib -->
<g id="node43" class="node">
<title>pp&#45;sketchlib</title>
<g id="a_node43"><a xlink:href="https://github.com/conda-forge/pp-sketchlib-feedstock/pull/45" xlink:title="pp sketchlib ❎">
<ellipse fill="#31688e" stroke="black" cx="1765.07" cy="-90" rx="87.51" ry="18"/>
<text text-anchor="middle" x="1765.07" y="-85.33" font-family="Times,serif" font-size="14.00" fill="white">pp sketchlib ❎</text>
</a>
</g>
</g>
<!-- mandrake -->
<g id="node44" class="node">
<title>mandrake</title>
<g id="a_node44"><a xlink:href="https://github.com/conda-forge/mandrake-feedstock" xlink:title="mandrake">
<ellipse fill="#fde725" stroke="black" cx="1765.07" cy="-18" rx="61.2" ry="18"/>
<text text-anchor="middle" x="1765.07" y="-13.32" font-family="Times,serif" font-size="14.00">mandrake</text>
</a>
</g>
</g>
<!-- pp&#45;sketchlib&#45;&gt;mandrake -->
<g id="edge54" class="edge">
<title>pp&#45;sketchlib&#45;&gt;mandrake</title>
<path fill="none" stroke="black" d="M1765.07,-71.7C1765.07,-64.24 1765.07,-55.32 1765.07,-46.97"/>
<polygon fill="black" stroke="black" points="1768.57,-47.1 1765.07,-37.1 1761.57,-47.1 1768.57,-47.1"/>
</g>
<!-- faiss&#45;split -->
<g id="node45" class="node">
<title>faiss&#45;split</title>
<g id="a_node45"><a xlink:href="https://github.com/conda-forge/faiss-split-feedstock/pull/70" xlink:title="faiss split ❎">
<ellipse fill="#31688e" stroke="black" cx="2837.07" cy="-530" rx="74.88" ry="18"/>
<text text-anchor="middle" x="2837.07" y="-525.33" font-family="Times,serif" font-size="14.00" fill="white">faiss split ❎</text>
</a>
</g>
</g>
<!-- faiss&#45;split&#45;&gt;graphvite -->
<g id="edge55" class="edge">
<title>faiss&#45;split&#45;&gt;graphvite</title>
<path fill="none" stroke="black" d="M2820.85,-512.05C2812.71,-503.54 2802.68,-493.07 2793.7,-483.68"/>
<polygon fill="black" stroke="black" points="2796.58,-481.59 2787.14,-476.79 2791.53,-486.43 2796.58,-481.59"/>
</g>
<!-- tsnecuda -->
<g id="node46" class="node">
<title>tsnecuda</title>
<g id="a_node46"><a xlink:href="https://github.com/conda-forge/tsnecuda-feedstock" xlink:title="tsnecuda">
<ellipse fill="#fde725" stroke="black" cx="2904.07" cy="-458" rx="56.47" ry="18"/>
<text text-anchor="middle" x="2904.07" y="-453.32" font-family="Times,serif" font-size="14.00">tsnecuda</text>
</a>
</g>
</g>
<!-- faiss&#45;split&#45;&gt;tsnecuda -->
<g id="edge56" class="edge">
<title>faiss&#45;split&#45;&gt;tsnecuda</title>
<path fill="none" stroke="black" d="M2853.29,-512.05C2861.64,-503.33 2871.97,-492.54 2881.12,-482.98"/>
<polygon fill="black" stroke="black" points="2883.08,-485.95 2887.46,-476.31 2878.02,-481.11 2883.08,-485.95"/>
</g>
<!-- libtvm -->
<g id="node47" class="node">
<title>libtvm</title>
<g id="a_node47"><a xlink:href="https://github.com/conda-forge/libtvm-feedstock/pull/32" xlink:title="libtvm ❎">
<ellipse fill="#31688e" stroke="black" cx="3631.07" cy="-90" rx="58.57" ry="18"/>
<text text-anchor="middle" x="3631.07" y="-85.33" font-family="Times,serif" font-size="14.00" fill="white">libtvm ❎</text>
</a>
</g>
</g>
<!-- tvm&#45;py -->
<g id="node48" class="node">
<title>tvm&#45;py</title>
<g id="a_node48"><a xlink:href="https://github.com/conda-forge/tvm-py-feedstock" xlink:title="tvm py">
<ellipse fill="#fde725" stroke="black" cx="3631.07" cy="-18" rx="45.95" ry="18"/>
<text text-anchor="middle" x="3631.07" y="-13.32" font-family="Times,serif" font-size="14.00">tvm py</text>
</a>
</g>
</g>
<!-- libtvm&#45;&gt;tvm&#45;py -->
<g id="edge57" class="edge">
<title>libtvm&#45;&gt;tvm&#45;py</title>
<path fill="none" stroke="black" d="M3631.07,-71.7C3631.07,-64.24 3631.07,-55.32 3631.07,-46.97"/>
<polygon fill="black" stroke="black" points="3634.57,-47.1 3631.07,-37.1 3627.57,-47.1 3634.57,-47.1"/>
</g>
<!-- onnxruntime -->
<g id="node49" class="node">
<title>onnxruntime</title>
<g id="a_node49"><a xlink:href="https://github.com/conda-forge/onnxruntime-feedstock/pull/79" xlink:title="onnxruntime ❎">
<ellipse fill="#31688e" stroke="black" cx="3631.07" cy="-710" rx="90.67" ry="18"/>
<text text-anchor="middle" x="3631.07" y="-705.33" font-family="Times,serif" font-size="14.00" fill="white">onnxruntime ❎</text>
</a>
</g>
</g>
<!-- cudadecon -->
<g id="node50" class="node">
<title>cudadecon</title>
<g id="a_node50"><a xlink:href="https://github.com/conda-forge/cudadecon-feedstock/pull/22" xlink:title="cudadecon ❎">
<ellipse fill="#31688e" stroke="black" cx="3631.07" cy="-638" rx="79.62" ry="18"/>
<text text-anchor="middle" x="3631.07" y="-633.33" font-family="Times,serif" font-size="14.00" fill="white">cudadecon ❎</text>
</a>
</g>
</g>
<!-- onnxruntime&#45;&gt;cudadecon -->
<!-- timemory -->
<g id="node51" class="node">
<title>timemory</title>
<g id="a_node51"><a xlink:href="https://github.com/conda-forge/timemory-feedstock" xlink:title="timemory">
<ellipse fill="#000000" stroke="black" cx="3631.07" cy="-566" rx="59.63" ry="18"/>
<text text-anchor="middle" x="3631.07" y="-561.33" font-family="Times,serif" font-size="14.00" fill="white">timemory</text>
</a>
</g>
</g>
<!-- cudadecon&#45;&gt;timemory -->
<!-- rmm -->
<g id="node52" class="node">
<title>rmm</title>
<g id="a_node52"><a xlink:href="https://github.com/conda-forge/rmm-feedstock" xlink:title="rmm">
<ellipse fill="#ff8c00" stroke="black" cx="3631.07" cy="-494" rx="34.9" ry="18"/>
<text text-anchor="middle" x="3631.07" y="-489.32" font-family="Times,serif" font-size="14.00">rmm</text>
</a>
</g>
</g>
<!-- timemory&#45;&gt;rmm -->
<!-- pyscamp&#45;gpu -->
<g id="node55" class="node">
<title>pyscamp&#45;gpu</title>
<g id="a_node55"><a xlink:href="https://github.com/conda-forge/pyscamp-gpu-feedstock/pull/8" xlink:title="pyscamp gpu ❎">
<ellipse fill="#31688e" stroke="black" cx="3631.07" cy="-422" rx="92.77" ry="18"/>
<text text-anchor="middle" x="3631.07" y="-417.32" font-family="Times,serif" font-size="14.00" fill="white">pyscamp gpu ❎</text>
</a>
</g>
</g>
<!-- rmm&#45;&gt;pyscamp&#45;gpu -->
<!-- cuquantum -->
<g id="node53" class="node">
<title>cuquantum</title>
<g id="a_node53"><a xlink:href="https://github.com/conda-forge/cuquantum-feedstock" xlink:title="cuquantum">
<ellipse fill="#000000" stroke="black" cx="3880.07" cy="-458" rx="67.52" ry="18"/>
<text text-anchor="middle" x="3880.07" y="-453.32" font-family="Times,serif" font-size="14.00" fill="white">cuquantum</text>
</a>
</g>
</g>
<!-- pennylane&#45;lightning&#45;gpu -->
<g id="node54" class="node">
<title>pennylane&#45;lightning&#45;gpu</title>
<g id="a_node54"><a xlink:href="https://github.com/conda-forge/pennylane-lightning-gpu-feedstock/pull/14" xlink:title="pennylane lightning gpu ❎">
<ellipse fill="#31688e" stroke="black" cx="3880.07" cy="-386" rx="148.54" ry="18"/>
<text text-anchor="middle" x="3880.07" y="-381.32" font-family="Times,serif" font-size="14.00" fill="white">pennylane lightning gpu ❎</text>
</a>
</g>
</g>
<!-- cuquantum&#45;&gt;pennylane&#45;lightning&#45;gpu -->
<g id="edge61" class="edge">
<title>cuquantum&#45;&gt;pennylane&#45;lightning&#45;gpu</title>
<path fill="none" stroke="black" d="M3880.07,-439.7C3880.07,-432.24 3880.07,-423.32 3880.07,-414.97"/>
<polygon fill="black" stroke="black" points="3883.57,-415.1 3880.07,-405.1 3876.57,-415.1 3883.57,-415.1"/>
</g>
<!-- heavydb&#45;ext -->
<g id="node56" class="node">
<title>heavydb&#45;ext</title>
<g id="a_node56"><a xlink:href="https://github.com/conda-forge/heavydb-ext-feedstock/pull/55" xlink:title="heavydb ext ❎">
<ellipse fill="#31688e" stroke="black" cx="3631.07" cy="-350" rx="87.51" ry="18"/>
<text text-anchor="middle" x="3631.07" y="-345.32" font-family="Times,serif" font-size="14.00" fill="white">heavydb ext ❎</text>
</a>
</g>
</g>
<!-- pyscamp&#45;gpu&#45;&gt;heavydb&#45;ext -->
<!-- hdk -->
<g id="node57" class="node">
<title>hdk</title>
<g id="a_node57"><a xlink:href="https://github.com/conda-forge/hdk-feedstock/pull/50" xlink:title="hdk ✓">
<ellipse fill="#31688e" stroke="black" cx="3631.07" cy="-278" rx="37.53" ry="18"/>
<text text-anchor="middle" x="3631.07" y="-273.32" font-family="Times,serif" font-size="14.00" fill="white">hdk ✓</text>
</a>
</g>
</g>
<!-- heavydb&#45;ext&#45;&gt;hdk -->
<!-- katago -->
<g id="node58" class="node">
<title>katago</title>
<g id="a_node58"><a xlink:href="https://github.com/conda-forge/katago-feedstock/pull/7" xlink:title="katago ✓">
<ellipse fill="#31688e" stroke="black" cx="3631.07" cy="-206" rx="52.79" ry="18"/>
<text text-anchor="middle" x="3631.07" y="-201.33" font-family="Times,serif" font-size="14.00" fill="white">katago ✓</text>
</a>
</g>
</g>
<!-- hdk&#45;&gt;katago -->
<!-- tomocupy -->
<g id="node59" class="node">
<title>tomocupy</title>
<g id="a_node59"><a xlink:href="https://github.com/conda-forge/tomocupy-feedstock/pull/19" xlink:title="tomocupy ✓">
<ellipse fill="#31688e" stroke="black" cx="3631.07" cy="-134" rx="68.04" ry="18"/>
<text text-anchor="middle" x="3631.07" y="-129.32" font-family="Times,serif" font-size="14.00" fill="white">tomocupy ✓</text>
</a>
</g>
</g>
<!-- katago&#45;&gt;tomocupy -->
</g>
</svg>
