<?xml version="1.0" encoding="UTF-8" standalone="no"?>
<!DOCTYPE svg PUBLIC "-//W3C//DTD SVG 1.1//EN"
 "http://www.w3.org/Graphics/SVG/1.1/DTD/svg11.dtd">
<!-- Generated by graphviz version 2.49.1 (20211004.0028)
 -->
<!-- Pages: 1 -->
<svg width="3311pt" height="996pt"
 viewBox="0.00 0.00 3311.50 996.00" xmlns="http://www.w3.org/2000/svg" xmlns:xlink="http://www.w3.org/1999/xlink">
<g id="graph0" class="graph" transform="scale(1 1) rotate(0) translate(4 992)">
<polygon fill="white" stroke="transparent" points="-4,4 -4,-992 3307.5,-992 3307.5,4 -4,4"/>
<!-- arrow&#45;cpp -->
<g id="node1" class="node">
<title>arrow&#45;cpp</title>
<g id="a_node1"><a xlink:href="https://github.com/conda-forge/arrow-cpp-feedstock" xlink:title="arrow cpp">
<ellipse fill="#fde725" stroke="black" cx="168" cy="-754" rx="58" ry="18"/>
<text text-anchor="middle" x="168" y="-750.3" font-family="Times,serif" font-size="14.00">arrow cpp</text>
</a>
</g>
</g>
<!-- heavydb&#45;ext -->
<g id="node2" class="node">
<title>heavydb&#45;ext</title>
<g id="a_node2"><a xlink:href="https://github.com/conda-forge/heavydb-ext-feedstock/pull/49" xlink:title="heavydb ext ❎">
<ellipse fill="#31688e" stroke="black" cx="137" cy="-682" rx="81.49" ry="18"/>
<text text-anchor="middle" x="137" y="-678.3" font-family="Times,serif" font-size="14.00" fill="white">heavydb ext ❎</text>
</a>
</g>
</g>
<!-- arrow&#45;cpp&#45;&gt;heavydb&#45;ext -->
<g id="edge1" class="edge">
<title>arrow&#45;cpp&#45;&gt;heavydb&#45;ext</title>
<path fill="none" stroke="black" d="M160.5,-736.05C156.97,-728.09 152.68,-718.41 148.74,-709.51"/>
<polygon fill="black" stroke="black" points="151.9,-708 144.65,-700.28 145.5,-710.84 151.9,-708"/>
</g>
<!-- hdk -->
<g id="node3" class="node">
<title>hdk</title>
<g id="a_node3"><a xlink:href="https://github.com/conda-forge/hdk-feedstock" xlink:title="hdk">
<ellipse fill="#fde725" stroke="black" cx="28" cy="-610" rx="28" ry="18"/>
<text text-anchor="middle" x="28" y="-606.3" font-family="Times,serif" font-size="14.00">hdk</text>
</a>
</g>
</g>
<!-- arrow&#45;cpp&#45;&gt;hdk -->
<g id="edge2" class="edge">
<title>arrow&#45;cpp&#45;&gt;hdk</title>
<path fill="none" stroke="black" d="M120.81,-743.38C95.33,-735.79 65.41,-722.57 47,-700 32.91,-682.72 28.58,-657.46 27.53,-638.25"/>
<polygon fill="black" stroke="black" points="31.02,-637.93 27.25,-628.03 24.03,-638.12 31.02,-637.93"/>
</g>
<!-- autogluon.multimodal -->
<g id="node4" class="node">
<title>autogluon.multimodal</title>
<g id="a_node4"><a xlink:href="https://github.com/conda-forge/autogluon.multimodal-feedstock" xlink:title="autogluon multimodal">
<ellipse fill="#fde725" stroke="black" cx="412" cy="-610" rx="112.5" ry="18"/>
<text text-anchor="middle" x="412" y="-606.3" font-family="Times,serif" font-size="14.00">autogluon multimodal</text>
</a>
</g>
</g>
<!-- arrow&#45;cpp&#45;&gt;autogluon.multimodal -->
<g id="edge3" class="edge">
<title>arrow&#45;cpp&#45;&gt;autogluon.multimodal</title>
<path fill="none" stroke="black" d="M185.9,-736.76C212.61,-712.62 260.76,-669.5 270,-664 294.45,-649.43 323.6,-637.71 349.1,-629.03"/>
<polygon fill="black" stroke="black" points="350.29,-632.33 358.68,-625.86 348.09,-625.68 350.29,-632.33"/>
</g>
<!-- implicit -->
<g id="node5" class="node">
<title>implicit</title>
<g id="a_node5"><a xlink:href="https://github.com/conda-forge/implicit-feedstock/pull/54" xlink:title="implicit ❎">
<ellipse fill="#31688e" stroke="black" cx="3003" cy="-970" rx="60" ry="18"/>
<text text-anchor="middle" x="3003" y="-966.3" font-family="Times,serif" font-size="14.00" fill="white">implicit ❎</text>
</a>
</g>
</g>
<!-- kaldi -->
<g id="node6" class="node">
<title>kaldi</title>
<g id="a_node6"><a xlink:href="https://github.com/conda-forge/kaldi-feedstock/pull/39" xlink:title="kaldi ❎">
<ellipse fill="#31688e" stroke="black" cx="3003" cy="-898" rx="47.5" ry="18"/>
<text text-anchor="middle" x="3003" y="-894.3" font-family="Times,serif" font-size="14.00" fill="white">kaldi ❎</text>
</a>
</g>
</g>
<!-- implicit&#45;&gt;kaldi -->
<!-- conda&#45;forge&#45;ci&#45;setup -->
<g id="node7" class="node">
<title>conda&#45;forge&#45;ci&#45;setup</title>
<g id="a_node7"><a xlink:href="https://github.com/conda-forge/conda-forge-ci-setup-feedstock/pull/243" xlink:title="conda forge ci setup ❎">
<ellipse fill="#31688e" stroke="black" cx="3003" cy="-826" rx="119" ry="18"/>
<text text-anchor="middle" x="3003" y="-822.3" font-family="Times,serif" font-size="14.00" fill="white">conda forge ci setup ❎</text>
</a>
</g>
</g>
<!-- kaldi&#45;&gt;conda&#45;forge&#45;ci&#45;setup -->
<!-- stir -->
<g id="node16" class="node">
<title>stir</title>
<g id="a_node16"><a xlink:href="https://github.com/conda-forge/stir-feedstock/pull/82" xlink:title="stir ❎">
<ellipse fill="#31688e" stroke="black" cx="3003" cy="-754" rx="41" ry="18"/>
<text text-anchor="middle" x="3003" y="-750.3" font-family="Times,serif" font-size="14.00" fill="white">stir ❎</text>
</a>
</g>
</g>
<!-- conda&#45;forge&#45;ci&#45;setup&#45;&gt;stir -->
<!-- torchvision -->
<g id="node8" class="node">
<title>torchvision</title>
<g id="a_node8"><a xlink:href="https://github.com/conda-forge/torchvision-feedstock" xlink:title="torchvision">
<ellipse fill="#fde725" stroke="black" cx="618" cy="-754" rx="62.5" ry="18"/>
<text text-anchor="middle" x="618" y="-750.3" font-family="Times,serif" font-size="14.00">torchvision</text>
</a>
</g>
</g>
<!-- torchvision&#45;&gt;autogluon.multimodal -->
<g id="edge6" class="edge">
<title>torchvision&#45;&gt;autogluon.multimodal</title>
<path fill="none" stroke="black" d="M599.55,-736.65C587.86,-726.24 572.46,-712.42 559,-700 541.9,-684.23 540.13,-677.24 521,-664 502.56,-651.24 480.59,-639.92 461.22,-631.05"/>
<polygon fill="black" stroke="black" points="462.5,-627.79 451.94,-626.9 459.64,-634.18 462.5,-627.79"/>
</g>
<!-- detectron2 -->
<g id="node9" class="node">
<title>detectron2</title>
<g id="a_node9"><a xlink:href="https://github.com/conda-forge/detectron2-feedstock" xlink:title="detectron2">
<ellipse fill="#fde725" stroke="black" cx="374" cy="-682" rx="61.99" ry="18"/>
<text text-anchor="middle" x="374" y="-678.3" font-family="Times,serif" font-size="14.00">detectron2</text>
</a>
</g>
</g>
<!-- torchvision&#45;&gt;detectron2 -->
<g id="edge7" class="edge">
<title>torchvision&#45;&gt;detectron2</title>
<path fill="none" stroke="black" d="M575.22,-740.73C533.67,-728.81 470.52,-710.69 426.07,-697.94"/>
<polygon fill="black" stroke="black" points="426.9,-694.54 416.32,-695.14 424.97,-701.26 426.9,-694.54"/>
</g>
<!-- fcos -->
<g id="node10" class="node">
<title>fcos</title>
<g id="a_node10"><a xlink:href="https://github.com/conda-forge/fcos-feedstock" xlink:title="fcos">
<ellipse fill="#fde725" stroke="black" cx="483" cy="-682" rx="29.5" ry="18"/>
<text text-anchor="middle" x="483" y="-678.3" font-family="Times,serif" font-size="14.00">fcos</text>
</a>
</g>
</g>
<!-- torchvision&#45;&gt;fcos -->
<g id="edge8" class="edge">
<title>torchvision&#45;&gt;fcos</title>
<path fill="none" stroke="black" d="M589.04,-737.98C566.94,-726.52 536.55,-710.77 513.97,-699.06"/>
<polygon fill="black" stroke="black" points="515.3,-695.81 504.82,-694.31 512.08,-702.02 515.3,-695.81"/>
</g>
<!-- fairscale -->
<g id="node11" class="node">
<title>fairscale</title>
<g id="a_node11"><a xlink:href="https://github.com/conda-forge/fairscale-feedstock" xlink:title="fairscale">
<ellipse fill="#fde725" stroke="black" cx="618" cy="-682" rx="50.09" ry="18"/>
<text text-anchor="middle" x="618" y="-678.3" font-family="Times,serif" font-size="14.00">fairscale</text>
</a>
</g>
</g>
<!-- torchvision&#45;&gt;fairscale -->
<g id="edge9" class="edge">
<title>torchvision&#45;&gt;fairscale</title>
<path fill="none" stroke="black" d="M618,-735.7C618,-727.98 618,-718.71 618,-710.11"/>
<polygon fill="black" stroke="black" points="621.5,-710.1 618,-700.1 614.5,-710.1 621.5,-710.1"/>
</g>
<!-- graphvite -->
<g id="node12" class="node">
<title>graphvite</title>
<g id="a_node12"><a xlink:href="https://github.com/conda-forge/graphvite-feedstock" xlink:title="graphvite">
<ellipse fill="#fde725" stroke="black" cx="900" cy="-682" rx="56" ry="18"/>
<text text-anchor="middle" x="900" y="-678.3" font-family="Times,serif" font-size="14.00">graphvite</text>
</a>
</g>
</g>
<!-- torchvision&#45;&gt;graphvite -->
<g id="edge10" class="edge">
<title>torchvision&#45;&gt;graphvite</title>
<path fill="none" stroke="black" d="M664.62,-741.85C708.6,-731.27 776.35,-714.83 835,-700 839.31,-698.91 843.79,-697.77 848.27,-696.61"/>
<polygon fill="black" stroke="black" points="849.26,-699.97 858.07,-694.07 847.51,-693.19 849.26,-699.97"/>
</g>
<!-- mmcv&#45;recipe -->
<g id="node13" class="node">
<title>mmcv&#45;recipe</title>
<g id="a_node13"><a xlink:href="https://github.com/conda-forge/mmcv-recipe-feedstock" xlink:title="mmcv recipe">
<ellipse fill="#fde725" stroke="black" cx="756" cy="-682" rx="70.39" ry="18"/>
<text text-anchor="middle" x="756" y="-678.3" font-family="Times,serif" font-size="14.00">mmcv recipe</text>
</a>
</g>
</g>
<!-- torchvision&#45;&gt;mmcv&#45;recipe -->
<g id="edge11" class="edge">
<title>torchvision&#45;&gt;mmcv&#45;recipe</title>
<path fill="none" stroke="black" d="M647.6,-737.98C667.7,-727.79 694.5,-714.19 716.43,-703.07"/>
<polygon fill="black" stroke="black" points="718.15,-706.12 725.49,-698.48 714.99,-699.88 718.15,-706.12"/>
</g>
<!-- fairscale&#45;&gt;autogluon.multimodal -->
<g id="edge12" class="edge">
<title>fairscale&#45;&gt;autogluon.multimodal</title>
<path fill="none" stroke="black" d="M582.59,-668.97C550.91,-658.2 503.96,-642.25 467.32,-629.8"/>
<polygon fill="black" stroke="black" points="468.36,-626.46 457.77,-626.55 466.11,-633.08 468.36,-626.46"/>
</g>
<!-- tensorflow -->
<g id="node14" class="node">
<title>tensorflow</title>
<g id="a_node14"><a xlink:href="https://github.com/conda-forge/tensorflow-feedstock/pull/321" xlink:title="tensorflow ❎">
<ellipse fill="#31688e" stroke="black" cx="3003" cy="-206" rx="73.5" ry="18"/>
<text text-anchor="middle" x="3003" y="-202.3" font-family="Times,serif" font-size="14.00" fill="white">tensorflow ❎</text>
</a>
</g>
</g>
<!-- deepmd&#45;kit -->
<g id="node15" class="node">
<title>deepmd&#45;kit</title>
<g id="a_node15"><a xlink:href="https://github.com/conda-forge/deepmd-kit-feedstock" xlink:title="deepmd kit">
<ellipse fill="#fde725" stroke="black" cx="3003" cy="-134" rx="63.09" ry="18"/>
<text text-anchor="middle" x="3003" y="-130.3" font-family="Times,serif" font-size="14.00">deepmd kit</text>
</a>
</g>
</g>
<!-- tensorflow&#45;&gt;deepmd&#45;kit -->
<g id="edge13" class="edge">
<title>tensorflow&#45;&gt;deepmd&#45;kit</title>
<path fill="none" stroke="black" d="M3003,-187.7C3003,-179.98 3003,-170.71 3003,-162.11"/>
<polygon fill="black" stroke="black" points="3006.5,-162.1 3003,-152.1 2999.5,-162.1 3006.5,-162.1"/>
</g>
<!-- jaxlib -->
<g id="node38" class="node">
<title>jaxlib</title>
<g id="a_node38"><a xlink:href="https://github.com/conda-forge/jaxlib-feedstock/pull/181" xlink:title="jaxlib ❎">
<ellipse fill="#31688e" stroke="black" cx="3003" cy="-682" rx="50.09" ry="18"/>
<text text-anchor="middle" x="3003" y="-678.3" font-family="Times,serif" font-size="14.00" fill="white">jaxlib ❎</text>
</a>
</g>
</g>
<!-- stir&#45;&gt;jaxlib -->
<!-- hoomd -->
<g id="node17" class="node">
<title>hoomd</title>
<g id="a_node17"><a xlink:href="https://github.com/conda-forge/hoomd-feedstock/pull/86" xlink:title="hoomd ❎">
<ellipse fill="#31688e" stroke="black" cx="3217" cy="-206" rx="56" ry="18"/>
<text text-anchor="middle" x="3217" y="-202.3" font-family="Times,serif" font-size="14.00" fill="white">hoomd ❎</text>
</a>
</g>
</g>
<!-- hoomd&#45;dlext -->
<g id="node18" class="node">
<title>hoomd&#45;dlext</title>
<g id="a_node18"><a xlink:href="https://github.com/conda-forge/hoomd-dlext-feedstock" xlink:title="hoomd dlext">
<ellipse fill="#fde725" stroke="black" cx="3217" cy="-134" rx="68.49" ry="18"/>
<text text-anchor="middle" x="3217" y="-130.3" font-family="Times,serif" font-size="14.00">hoomd dlext</text>
</a>
</g>
</g>
<!-- hoomd&#45;&gt;hoomd&#45;dlext -->
<g id="edge15" class="edge">
<title>hoomd&#45;&gt;hoomd&#45;dlext</title>
<path fill="none" stroke="black" d="M3217,-187.7C3217,-179.98 3217,-170.71 3217,-162.11"/>
<polygon fill="black" stroke="black" points="3220.5,-162.1 3217,-152.1 3213.5,-162.1 3220.5,-162.1"/>
</g>
<!-- pytorch&#45;cpu -->
<g id="node19" class="node">
<title>pytorch&#45;cpu</title>
<g id="a_node19"><a xlink:href="https://github.com/conda-forge/pytorch-cpu-feedstock/pull/171" xlink:title="pytorch cpu ❎">
<ellipse fill="#31688e" stroke="black" cx="1413" cy="-826" rx="80" ry="18"/>
<text text-anchor="middle" x="1413" y="-822.3" font-family="Times,serif" font-size="14.00" fill="white">pytorch cpu ❎</text>
</a>
</g>
</g>
<!-- pytorch&#45;cpu&#45;&gt;arrow&#45;cpp -->
<g id="edge16" class="edge">
<title>pytorch&#45;cpu&#45;&gt;arrow&#45;cpp</title>
<path fill="none" stroke="black" d="M1333.07,-824.55C1146.43,-822.8 667.55,-814.2 270,-772 255.78,-770.49 240.53,-768.27 226.27,-765.94"/>
<polygon fill="black" stroke="black" points="226.54,-762.43 216.09,-764.22 225.37,-769.34 226.54,-762.43"/>
</g>
<!-- pytorch&#45;cpu&#45;&gt;autogluon.multimodal -->
<g id="edge17" class="edge">
<title>pytorch&#45;cpu&#45;&gt;autogluon.multimodal</title>
<path fill="none" stroke="black" d="M1333,-825.09C1131.18,-824.61 605.57,-818.76 438,-772 372.5,-753.72 337.99,-758.31 303,-700 294.77,-686.28 294.51,-677.56 303,-664 312.7,-648.5 328.38,-637.41 344.85,-629.53"/>
<polygon fill="black" stroke="black" points="346.32,-632.71 354.06,-625.48 343.49,-626.31 346.32,-632.71"/>
</g>
<!-- pytorch&#45;cpu&#45;&gt;torchvision -->
<g id="edge18" class="edge">
<title>pytorch&#45;cpu&#45;&gt;torchvision</title>
<path fill="none" stroke="black" d="M1335.7,-821.18C1207.89,-814.39 944.6,-798.4 723,-772 708.98,-770.33 693.97,-768.14 679.82,-765.89"/>
<polygon fill="black" stroke="black" points="680.11,-762.4 669.68,-764.25 678.99,-769.31 680.11,-762.4"/>
</g>
<!-- pytorch&#45;cpu&#45;&gt;detectron2 -->
<g id="edge19" class="edge">
<title>pytorch&#45;cpu&#45;&gt;detectron2</title>
<path fill="none" stroke="black" d="M1332.78,-825.67C1140.65,-826.42 658.79,-822.99 507,-772 465.41,-758.03 424.52,-727.43 399.3,-706.03"/>
<polygon fill="black" stroke="black" points="401.53,-703.34 391.68,-699.44 396.95,-708.63 401.53,-703.34"/>
</g>
<!-- pytorch&#45;cpu&#45;&gt;fcos -->
<g id="edge20" class="edge">
<title>pytorch&#45;cpu&#45;&gt;fcos</title>
<path fill="none" stroke="black" d="M1333.37,-824.03C1132.02,-821.03 613.73,-809.7 546,-772 521.15,-758.17 503.78,-729.93 493.65,-708.95"/>
<polygon fill="black" stroke="black" points="496.73,-707.26 489.39,-699.61 490.36,-710.16 496.73,-707.26"/>
</g>
<!-- pytorch&#45;cpu&#45;&gt;fairscale -->
<g id="edge21" class="edge">
<title>pytorch&#45;cpu&#45;&gt;fairscale</title>
<path fill="none" stroke="black" d="M1334.92,-821.82C1193.07,-815.45 898.63,-799.35 800,-772 744.62,-756.64 685.79,-724.63 650.47,-703.48"/>
<polygon fill="black" stroke="black" points="651.95,-700.29 641.59,-698.09 648.32,-706.27 651.95,-700.29"/>
</g>
<!-- pytorch&#45;cpu&#45;&gt;graphvite -->
<g id="edge22" class="edge">
<title>pytorch&#45;cpu&#45;&gt;graphvite</title>
<path fill="none" stroke="black" d="M1333.86,-823.12C1189.41,-818.88 894.96,-806.09 864,-772 847.33,-753.65 862.19,-726.57 877.56,-707.11"/>
<polygon fill="black" stroke="black" points="880.37,-709.2 884.09,-699.28 875,-704.72 880.37,-709.2"/>
</g>
<!-- pytorch&#45;cpu&#45;&gt;mmcv&#45;recipe -->
<g id="edge23" class="edge">
<title>pytorch&#45;cpu&#45;&gt;mmcv&#45;recipe</title>
<path fill="none" stroke="black" d="M1333.48,-823.67C1199.92,-820.41 936.94,-809.32 853,-772 821.11,-757.82 792.74,-728.88 775.05,-707.84"/>
<polygon fill="black" stroke="black" points="777.62,-705.46 768.58,-699.93 772.2,-709.89 777.62,-705.46"/>
</g>
<!-- nvidia&#45;apex -->
<g id="node20" class="node">
<title>nvidia&#45;apex</title>
<g id="a_node20"><a xlink:href="https://github.com/conda-forge/nvidia-apex-feedstock" xlink:title="nvidia apex">
<ellipse fill="#fde725" stroke="black" cx="937" cy="-754" rx="63.89" ry="18"/>
<text text-anchor="middle" x="937" y="-750.3" font-family="Times,serif" font-size="14.00">nvidia apex</text>
</a>
</g>
</g>
<!-- pytorch&#45;cpu&#45;&gt;nvidia&#45;apex -->
<g id="edge24" class="edge">
<title>pytorch&#45;cpu&#45;&gt;nvidia&#45;apex</title>
<path fill="none" stroke="black" d="M1341.5,-817.84C1260.49,-809.21 1124.68,-793.19 1009,-772 1003.71,-771.03 998.22,-769.92 992.75,-768.75"/>
<polygon fill="black" stroke="black" points="993.47,-765.32 982.95,-766.58 991.95,-772.16 993.47,-765.32"/>
</g>
<!-- pytorch_cluster -->
<g id="node21" class="node">
<title>pytorch_cluster</title>
<g id="a_node21"><a xlink:href="https://github.com/conda-forge/pytorch_cluster-feedstock" xlink:title="pytorch_cluster">
<ellipse fill="#fde725" stroke="black" cx="1181" cy="-682" rx="83.39" ry="18"/>
<text text-anchor="middle" x="1181" y="-678.3" font-family="Times,serif" font-size="14.00">pytorch_cluster</text>
</a>
</g>
</g>
<!-- pytorch&#45;cpu&#45;&gt;pytorch_cluster -->
<g id="edge25" class="edge">
<title>pytorch&#45;cpu&#45;&gt;pytorch_cluster</title>
<path fill="none" stroke="black" d="M1337.98,-819.73C1298.89,-813.5 1252.59,-800.18 1220,-772 1201.53,-756.03 1191.47,-729.66 1186.23,-709.76"/>
<polygon fill="black" stroke="black" points="1189.63,-708.95 1183.9,-700.03 1182.82,-710.57 1189.63,-708.95"/>
</g>
<!-- pytorch_scatter -->
<g id="node22" class="node">
<title>pytorch_scatter</title>
<g id="a_node22"><a xlink:href="https://github.com/conda-forge/pytorch_scatter-feedstock" xlink:title="pytorch_scatter">
<ellipse fill="#fde725" stroke="black" cx="1200" cy="-610" rx="83.39" ry="18"/>
<text text-anchor="middle" x="1200" y="-606.3" font-family="Times,serif" font-size="14.00">pytorch_scatter</text>
</a>
</g>
</g>
<!-- pytorch&#45;cpu&#45;&gt;pytorch_scatter -->
<g id="edge26" class="edge">
<title>pytorch&#45;cpu&#45;&gt;pytorch_scatter</title>
<path fill="none" stroke="black" d="M1340.24,-818.51C1309.65,-811.77 1276.86,-798.37 1258,-772 1229.82,-732.58 1295.01,-707.18 1273,-664 1266.3,-650.86 1254.66,-640.22 1242.61,-632.01"/>
<polygon fill="black" stroke="black" points="1244.16,-628.85 1233.83,-626.47 1240.42,-634.77 1244.16,-628.85"/>
</g>
<!-- pytorch_spline_conv -->
<g id="node23" class="node">
<title>pytorch_spline_conv</title>
<g id="a_node23"><a xlink:href="https://github.com/conda-forge/pytorch_spline_conv-feedstock" xlink:title="pytorch_spline_conv">
<ellipse fill="#fde725" stroke="black" cx="1399" cy="-538" rx="104.78" ry="18"/>
<text text-anchor="middle" x="1399" y="-534.3" font-family="Times,serif" font-size="14.00">pytorch_spline_conv</text>
</a>
</g>
</g>
<!-- pytorch&#45;cpu&#45;&gt;pytorch_spline_conv -->
<g id="edge27" class="edge">
<title>pytorch&#45;cpu&#45;&gt;pytorch_spline_conv</title>
<path fill="none" stroke="black" d="M1424.89,-807.72C1431.01,-797.76 1437.84,-784.73 1441,-772 1444.85,-756.47 1444.68,-751.57 1441,-736 1436.89,-718.59 1428.39,-717.06 1423,-700 1408.63,-654.48 1402.77,-598.94 1400.45,-566.42"/>
<polygon fill="black" stroke="black" points="1403.94,-566.07 1399.79,-556.32 1396.95,-566.53 1403.94,-566.07"/>
</g>
<!-- pytorch_sparse -->
<g id="node24" class="node">
<title>pytorch_sparse</title>
<g id="a_node24"><a xlink:href="https://github.com/conda-forge/pytorch_sparse-feedstock" xlink:title="pytorch_sparse">
<ellipse fill="#fde725" stroke="black" cx="1195" cy="-538" rx="81.49" ry="18"/>
<text text-anchor="middle" x="1195" y="-534.3" font-family="Times,serif" font-size="14.00">pytorch_sparse</text>
</a>
</g>
</g>
<!-- pytorch&#45;cpu&#45;&gt;pytorch_sparse -->
<g id="edge28" class="edge">
<title>pytorch&#45;cpu&#45;&gt;pytorch_sparse</title>
<path fill="none" stroke="black" d="M1353.45,-813.88C1329.86,-806.25 1305.06,-793.43 1291,-772 1285.52,-763.64 1297.1,-600.6 1292,-592 1282.79,-576.48 1267.26,-565.21 1251.29,-557.16"/>
<polygon fill="black" stroke="black" points="1252.43,-553.83 1241.88,-552.79 1249.48,-560.18 1252.43,-553.83"/>
</g>
<!-- torchani -->
<g id="node25" class="node">
<title>torchani</title>
<g id="a_node25"><a xlink:href="https://github.com/conda-forge/torchani-feedstock" xlink:title="torchani">
<ellipse fill="#fde725" stroke="black" cx="1564" cy="-466" rx="49.5" ry="18"/>
<text text-anchor="middle" x="1564" y="-462.3" font-family="Times,serif" font-size="14.00">torchani</text>
</a>
</g>
</g>
<!-- pytorch&#45;cpu&#45;&gt;torchani -->
<g id="edge29" class="edge">
<title>pytorch&#45;cpu&#45;&gt;torchani</title>
<path fill="none" stroke="black" d="M1432.01,-808.38C1441.48,-798.82 1451.96,-785.95 1457,-772 1473.3,-726.85 1444.09,-710.5 1456,-664 1458.37,-654.73 1520.6,-543.86 1549.5,-492.64"/>
<polygon fill="black" stroke="black" points="1552.62,-494.24 1554.49,-483.81 1546.52,-490.8 1552.62,-494.24"/>
</g>
<!-- openmm&#45;torch -->
<g id="node26" class="node">
<title>openmm&#45;torch</title>
<g id="a_node26"><a xlink:href="https://github.com/conda-forge/openmm-torch-feedstock" xlink:title="openmm torch">
<ellipse fill="#fde725" stroke="black" cx="2382" cy="-754" rx="78" ry="18"/>
<text text-anchor="middle" x="2382" y="-750.3" font-family="Times,serif" font-size="14.00">openmm torch</text>
</a>
</g>
</g>
<!-- pytorch&#45;cpu&#45;&gt;openmm&#45;torch -->
<g id="edge30" class="edge">
<title>pytorch&#45;cpu&#45;&gt;openmm&#45;torch</title>
<path fill="none" stroke="black" d="M1492.39,-823.76C1647.31,-820.57 2000.54,-809.45 2295,-772 2302.14,-771.09 2309.57,-769.95 2316.95,-768.69"/>
<polygon fill="black" stroke="black" points="2317.72,-772.1 2326.95,-766.9 2316.49,-765.21 2317.72,-772.1"/>
</g>
<!-- torchsparse -->
<g id="node27" class="node">
<title>torchsparse</title>
<g id="a_node27"><a xlink:href="https://github.com/conda-forge/torchsparse-feedstock" xlink:title="torchsparse">
<ellipse fill="#fde725" stroke="black" cx="1366" cy="-754" rx="65.79" ry="18"/>
<text text-anchor="middle" x="1366" y="-750.3" font-family="Times,serif" font-size="14.00">torchsparse</text>
</a>
</g>
</g>
<!-- pytorch&#45;cpu&#45;&gt;torchsparse -->
<g id="edge31" class="edge">
<title>pytorch&#45;cpu&#45;&gt;torchsparse</title>
<path fill="none" stroke="black" d="M1401.62,-808.05C1396.02,-799.71 1389.16,-789.49 1382.95,-780.25"/>
<polygon fill="black" stroke="black" points="1385.75,-778.14 1377.27,-771.79 1379.94,-782.04 1385.75,-778.14"/>
</g>
<!-- torch&#45;scatter -->
<g id="node28" class="node">
<title>torch&#45;scatter</title>
<g id="a_node28"><a xlink:href="https://github.com/conda-forge/torch-scatter-feedstock" xlink:title="torch scatter">
<ellipse fill="#fde725" stroke="black" cx="1536" cy="-682" rx="71" ry="18"/>
<text text-anchor="middle" x="1536" y="-678.3" font-family="Times,serif" font-size="14.00">torch scatter</text>
</a>
</g>
</g>
<!-- pytorch&#45;cpu&#45;&gt;torch&#45;scatter -->
<g id="edge32" class="edge">
<title>pytorch&#45;cpu&#45;&gt;torch&#45;scatter</title>
<path fill="none" stroke="black" d="M1456.57,-810.78C1476.1,-802.36 1497.87,-789.78 1512,-772 1525.96,-754.43 1531.83,-729.39 1534.28,-710.35"/>
<polygon fill="black" stroke="black" points="1537.78,-710.51 1535.34,-700.2 1530.82,-709.79 1537.78,-710.51"/>
</g>
<!-- kaolin -->
<g id="node29" class="node">
<title>kaolin</title>
<g id="a_node29"><a xlink:href="https://github.com/conda-forge/kaolin-feedstock" xlink:title="kaolin">
<ellipse fill="#fde725" stroke="black" cx="1606" cy="-610" rx="38.5" ry="18"/>
<text text-anchor="middle" x="1606" y="-606.3" font-family="Times,serif" font-size="14.00">kaolin</text>
</a>
</g>
</g>
<!-- pytorch&#45;cpu&#45;&gt;kaolin -->
<g id="edge33" class="edge">
<title>pytorch&#45;cpu&#45;&gt;kaolin</title>
<path fill="none" stroke="black" d="M1462.96,-811.86C1513.62,-795.39 1588.36,-761.54 1616,-700 1624.83,-680.34 1621.17,-655.89 1615.95,-637.59"/>
<polygon fill="black" stroke="black" points="1619.23,-636.35 1612.88,-627.87 1612.56,-638.46 1619.23,-636.35"/>
</g>
<!-- nnpops -->
<g id="node30" class="node">
<title>nnpops</title>
<g id="a_node30"><a xlink:href="https://github.com/conda-forge/nnpops-feedstock" xlink:title="nnpops">
<ellipse fill="#fde725" stroke="black" cx="1634" cy="-394" rx="44.39" ry="18"/>
<text text-anchor="middle" x="1634" y="-390.3" font-family="Times,serif" font-size="14.00">nnpops</text>
</a>
</g>
</g>
<!-- pytorch&#45;cpu&#45;&gt;nnpops -->
<g id="edge34" class="edge">
<title>pytorch&#45;cpu&#45;&gt;nnpops</title>
<path fill="none" stroke="black" d="M1482.68,-817.06C1559.69,-803.96 1673,-769.92 1673,-683 1673,-683 1673,-683 1673,-537 1673,-495.56 1657.36,-449.67 1645.89,-421.58"/>
<polygon fill="black" stroke="black" points="1649,-419.93 1641.89,-412.07 1642.55,-422.65 1649,-419.93"/>
</g>
<!-- triton -->
<g id="node31" class="node">
<title>triton</title>
<g id="a_node31"><a xlink:href="https://github.com/conda-forge/triton-feedstock" xlink:title="triton">
<ellipse fill="#fde725" stroke="black" cx="1791" cy="-538" rx="37.09" ry="18"/>
<text text-anchor="middle" x="1791" y="-534.3" font-family="Times,serif" font-size="14.00">triton</text>
</a>
</g>
</g>
<!-- pytorch&#45;cpu&#45;&gt;triton -->
<g id="edge35" class="edge">
<title>pytorch&#45;cpu&#45;&gt;triton</title>
<path fill="none" stroke="black" d="M1490.09,-821.17C1571.04,-815.58 1691.22,-802.32 1725,-772 1784.63,-718.47 1792.05,-615.51 1791.95,-566.38"/>
<polygon fill="black" stroke="black" points="1795.45,-566.16 1791.82,-556.2 1788.45,-566.25 1795.45,-566.16"/>
</g>
<!-- openmmtorchplugin -->
<g id="node32" class="node">
<title>openmmtorchplugin</title>
<g id="a_node32"><a xlink:href="https://github.com/conda-forge/openmmtorchplugin-feedstock" xlink:title="openmmtorchplugin">
<ellipse fill="#fde725" stroke="black" cx="2181" cy="-754" rx="104.78" ry="18"/>
<text text-anchor="middle" x="2181" y="-750.3" font-family="Times,serif" font-size="14.00">openmmtorchplugin</text>
</a>
</g>
</g>
<!-- pytorch&#45;cpu&#45;&gt;openmmtorchplugin -->
<g id="edge36" class="edge">
<title>pytorch&#45;cpu&#45;&gt;openmmtorchplugin</title>
<path fill="none" stroke="black" d="M1489.08,-820.28C1610.45,-812.42 1855.29,-795.18 2062,-772 2072.8,-770.79 2084.12,-769.37 2095.32,-767.87"/>
<polygon fill="black" stroke="black" points="2096.11,-771.3 2105.55,-766.48 2095.16,-764.36 2096.11,-771.3"/>
</g>
<!-- molgrid -->
<g id="node33" class="node">
<title>molgrid</title>
<g id="a_node33"><a xlink:href="https://github.com/conda-forge/molgrid-feedstock" xlink:title="molgrid">
<ellipse fill="#fde725" stroke="black" cx="1748" cy="-466" rx="47" ry="18"/>
<text text-anchor="middle" x="1748" y="-462.3" font-family="Times,serif" font-size="14.00">molgrid</text>
</a>
</g>
</g>
<!-- pytorch&#45;cpu&#45;&gt;molgrid -->
<g id="edge37" class="edge">
<title>pytorch&#45;cpu&#45;&gt;molgrid</title>
<path fill="none" stroke="black" d="M1487.72,-819.37C1558.68,-812.5 1658.62,-798.4 1687,-772 1717,-744.1 1711,-723.97 1711,-683 1711,-683 1711,-683 1711,-609 1711,-567.71 1725.83,-521.77 1736.72,-493.63"/>
<polygon fill="black" stroke="black" points="1740.06,-494.7 1740.51,-484.11 1733.56,-492.11 1740.06,-494.7"/>
</g>
<!-- theseus&#45;ai -->
<g id="node34" class="node">
<title>theseus&#45;ai</title>
<g id="a_node34"><a xlink:href="https://github.com/conda-forge/theseus-ai-feedstock" xlink:title="theseus ai">
<ellipse fill="#fde725" stroke="black" cx="1835" cy="-754" rx="58" ry="18"/>
<text text-anchor="middle" x="1835" y="-750.3" font-family="Times,serif" font-size="14.00">theseus ai</text>
</a>
</g>
</g>
<!-- pytorch&#45;cpu&#45;&gt;theseus&#45;ai -->
<g id="edge38" class="edge">
<title>pytorch&#45;cpu&#45;&gt;theseus&#45;ai</title>
<path fill="none" stroke="black" d="M1481.03,-816.37C1551.76,-807.01 1665.55,-790.85 1763,-772 1768.9,-770.86 1775.04,-769.57 1781.15,-768.22"/>
<polygon fill="black" stroke="black" points="1782.36,-771.53 1791.34,-765.91 1780.81,-764.71 1782.36,-771.53"/>
</g>
<!-- pyg&#45;lib -->
<g id="node35" class="node">
<title>pyg&#45;lib</title>
<g id="a_node35"><a xlink:href="https://github.com/conda-forge/pyg-lib-feedstock" xlink:title="pyg lib">
<ellipse fill="#fde725" stroke="black" cx="1862" cy="-466" rx="42.49" ry="18"/>
<text text-anchor="middle" x="1862" y="-462.3" font-family="Times,serif" font-size="14.00">pyg lib</text>
</a>
</g>
</g>
<!-- pytorch&#45;cpu&#45;&gt;pyg&#45;lib -->
<g id="edge39" class="edge">
<title>pytorch&#45;cpu&#45;&gt;pyg&#45;lib</title>
<path fill="none" stroke="black" d="M1491.2,-822.15C1622.37,-816.55 1875.1,-801.97 1902,-772 1923.72,-747.8 1896.44,-731.65 1889,-700 1871.81,-626.91 1865.38,-538.24 1863.12,-494.35"/>
<polygon fill="black" stroke="black" points="1866.61,-494.01 1862.63,-484.19 1859.62,-494.35 1866.61,-494.01"/>
</g>
<!-- deepspeed -->
<g id="node36" class="node">
<title>deepspeed</title>
<g id="a_node36"><a xlink:href="https://github.com/conda-forge/deepspeed-feedstock" xlink:title="deepspeed">
<ellipse fill="#fde725" stroke="black" cx="1959" cy="-682" rx="60.5" ry="18"/>
<text text-anchor="middle" x="1959" y="-678.3" font-family="Times,serif" font-size="14.00">deepspeed</text>
</a>
</g>
</g>
<!-- pytorch&#45;cpu&#45;&gt;deepspeed -->
<g id="edge40" class="edge">
<title>pytorch&#45;cpu&#45;&gt;deepspeed</title>
<path fill="none" stroke="black" d="M1491,-821.91C1628.31,-815.76 1901.9,-800.13 1935,-772 1952.68,-756.98 1958.03,-730.44 1959.35,-710.23"/>
<polygon fill="black" stroke="black" points="1962.85,-710.18 1959.72,-700.06 1955.86,-709.93 1962.85,-710.18"/>
</g>
<!-- bitsandbytes -->
<g id="node37" class="node">
<title>bitsandbytes</title>
<g id="a_node37"><a xlink:href="https://github.com/conda-forge/bitsandbytes-feedstock" xlink:title="bitsandbytes">
<ellipse fill="#fde725" stroke="black" cx="2048" cy="-610" rx="71" ry="18"/>
<text text-anchor="middle" x="2048" y="-606.3" font-family="Times,serif" font-size="14.00">bitsandbytes</text>
</a>
</g>
</g>
<!-- pytorch&#45;cpu&#45;&gt;bitsandbytes -->
<g id="edge41" class="edge">
<title>pytorch&#45;cpu&#45;&gt;bitsandbytes</title>
<path fill="none" stroke="black" d="M1492.8,-824.08C1624.26,-821.45 1879.77,-811.28 1960,-772 1999.53,-752.65 2007.33,-738.86 2028,-700 2038.2,-680.83 2043.21,-656.67 2045.66,-638.36"/>
<polygon fill="black" stroke="black" points="2049.15,-638.68 2046.83,-628.34 2042.2,-637.86 2049.15,-638.68"/>
</g>
<!-- pytorch_scatter&#45;&gt;pytorch_sparse -->
<g id="edge42" class="edge">
<title>pytorch_scatter&#45;&gt;pytorch_sparse</title>
<path fill="none" stroke="black" d="M1198.76,-591.7C1198.21,-583.98 1197.55,-574.71 1196.94,-566.11"/>
<polygon fill="black" stroke="black" points="1200.43,-565.83 1196.22,-556.1 1193.44,-566.33 1200.43,-565.83"/>
</g>
<!-- torchani&#45;&gt;nnpops -->
<g id="edge43" class="edge">
<title>torchani&#45;&gt;nnpops</title>
<path fill="none" stroke="black" d="M1580.24,-448.76C1589.25,-439.75 1600.61,-428.39 1610.57,-418.43"/>
<polygon fill="black" stroke="black" points="1613.26,-420.69 1617.85,-411.15 1608.31,-415.74 1613.26,-420.69"/>
</g>
<!-- triton&#45;&gt;pyg&#45;lib -->
<g id="edge44" class="edge">
<title>triton&#45;&gt;pyg&#45;lib</title>
<path fill="none" stroke="black" d="M1806.76,-521.46C1816.09,-512.26 1828.1,-500.42 1838.54,-490.13"/>
<polygon fill="black" stroke="black" points="1841.13,-492.49 1845.79,-482.98 1836.22,-487.51 1841.13,-492.49"/>
</g>
<!-- prismatic_split -->
<g id="node39" class="node">
<title>prismatic_split</title>
<g id="a_node39"><a xlink:href="https://github.com/conda-forge/prismatic_split-feedstock/pull/38" xlink:title="prismatic_split ❎">
<ellipse fill="#31688e" stroke="black" cx="3003" cy="-610" rx="93.68" ry="18"/>
<text text-anchor="middle" x="3003" y="-606.3" font-family="Times,serif" font-size="14.00" fill="white">prismatic_split ❎</text>
</a>
</g>
</g>
<!-- jaxlib&#45;&gt;prismatic_split -->
<!-- pycuda -->
<g id="node46" class="node">
<title>pycuda</title>
<g id="a_node46"><a xlink:href="https://github.com/conda-forge/pycuda-feedstock/pull/25" xlink:title="pycuda ❎">
<ellipse fill="#31688e" stroke="black" cx="3003" cy="-538" rx="58" ry="18"/>
<text text-anchor="middle" x="3003" y="-534.3" font-family="Times,serif" font-size="14.00" fill="white">pycuda ❎</text>
</a>
</g>
</g>
<!-- prismatic_split&#45;&gt;pycuda -->
<!-- openmm -->
<g id="node40" class="node">
<title>openmm</title>
<g id="a_node40"><a xlink:href="https://github.com/conda-forge/openmm-feedstock/pull/107" xlink:title="openmm ❎">
<ellipse fill="#31688e" stroke="black" cx="2526" cy="-826" rx="65" ry="18"/>
<text text-anchor="middle" x="2526" y="-822.3" font-family="Times,serif" font-size="14.00" fill="white">openmm ❎</text>
</a>
</g>
</g>
<!-- openmm&#45;&gt;openmm&#45;torch -->
<g id="edge47" class="edge">
<title>openmm&#45;&gt;openmm&#45;torch</title>
<path fill="none" stroke="black" d="M2495.11,-809.98C2474.04,-799.74 2445.92,-786.07 2422.99,-774.92"/>
<polygon fill="black" stroke="black" points="2424.36,-771.7 2413.84,-770.48 2421.3,-778 2424.36,-771.7"/>
</g>
<!-- openmm&#45;&gt;openmmtorchplugin -->
<g id="edge48" class="edge">
<title>openmm&#45;&gt;openmmtorchplugin</title>
<path fill="none" stroke="black" d="M2475.09,-814.67C2417.24,-802.93 2322.26,-783.66 2255.94,-770.21"/>
<polygon fill="black" stroke="black" points="2256.46,-766.74 2245.96,-768.18 2255.07,-773.6 2256.46,-766.74"/>
</g>
<!-- openmm&#45;plumed -->
<g id="node41" class="node">
<title>openmm&#45;plumed</title>
<g id="a_node41"><a xlink:href="https://github.com/conda-forge/openmm-plumed-feedstock" xlink:title="openmm plumed">
<ellipse fill="#fde725" stroke="black" cx="2788" cy="-754" rx="88.5" ry="18"/>
<text text-anchor="middle" x="2788" y="-750.3" font-family="Times,serif" font-size="14.00">openmm plumed</text>
</a>
</g>
</g>
<!-- openmm&#45;&gt;openmm&#45;plumed -->
<g id="edge49" class="edge">
<title>openmm&#45;&gt;openmm&#45;plumed</title>
<path fill="none" stroke="black" d="M2571.04,-812.97C2613.93,-801.51 2678.83,-784.17 2726.48,-771.44"/>
<polygon fill="black" stroke="black" points="2727.61,-774.76 2736.37,-768.8 2725.8,-768 2727.61,-774.76"/>
</g>
<!-- meld -->
<g id="node42" class="node">
<title>meld</title>
<g id="a_node42"><a xlink:href="https://github.com/conda-forge/meld-feedstock" xlink:title="meld">
<ellipse fill="#fde725" stroke="black" cx="2464" cy="-682" rx="34" ry="18"/>
<text text-anchor="middle" x="2464" y="-678.3" font-family="Times,serif" font-size="14.00">meld</text>
</a>
</g>
</g>
<!-- openmm&#45;&gt;meld -->
<g id="edge50" class="edge">
<title>openmm&#45;&gt;meld</title>
<path fill="none" stroke="black" d="M2518.52,-807.87C2507.8,-783.33 2487.99,-737.94 2475.43,-709.17"/>
<polygon fill="black" stroke="black" points="2478.52,-707.51 2471.31,-699.75 2472.11,-710.31 2478.52,-707.51"/>
</g>
<!-- seekr2_openmm_plugin -->
<g id="node43" class="node">
<title>seekr2_openmm_plugin</title>
<g id="a_node43"><a xlink:href="https://github.com/conda-forge/seekr2_openmm_plugin-feedstock" xlink:title="seekr2_openmm_plugin">
<ellipse fill="#fde725" stroke="black" cx="2416" cy="-610" rx="120.48" ry="18"/>
<text text-anchor="middle" x="2416" y="-606.3" font-family="Times,serif" font-size="14.00">seekr2_openmm_plugin</text>
</a>
</g>
</g>
<!-- openmm&#45;&gt;seekr2_openmm_plugin -->
<g id="edge51" class="edge">
<title>openmm&#45;&gt;seekr2_openmm_plugin</title>
<path fill="none" stroke="black" d="M2528.65,-807.83C2532.55,-776.45 2536.48,-708.95 2507,-664 2497.95,-650.2 2483.97,-639.54 2469.66,-631.53"/>
<polygon fill="black" stroke="black" points="2471.23,-628.4 2460.75,-626.87 2467.99,-634.6 2471.23,-628.4"/>
</g>
<!-- openmm&#45;atmmetaforce&#45;plugin -->
<g id="node44" class="node">
<title>openmm&#45;atmmetaforce&#45;plugin</title>
<g id="a_node44"><a xlink:href="https://github.com/conda-forge/openmm-atmmetaforce-plugin-feedstock" xlink:title="openmm atmmetaforce plugin">
<ellipse fill="#fde725" stroke="black" cx="2493" cy="-538" rx="151" ry="18"/>
<text text-anchor="middle" x="2493" y="-534.3" font-family="Times,serif" font-size="14.00">openmm atmmetaforce plugin</text>
</a>
</g>
</g>
<!-- openmm&#45;&gt;openmm&#45;atmmetaforce&#45;plugin -->
<g id="edge52" class="edge">
<title>openmm&#45;&gt;openmm&#45;atmmetaforce&#45;plugin</title>
<path fill="none" stroke="black" d="M2533.89,-807.75C2538.11,-797.58 2542.86,-784.33 2545,-772 2558.7,-693.18 2575.26,-666.06 2545,-592 2540.47,-580.92 2532.4,-570.91 2523.93,-562.65"/>
<polygon fill="black" stroke="black" points="2526.23,-560.01 2516.48,-555.86 2521.51,-565.18 2526.23,-560.01"/>
</g>
<!-- openmm&#45;dlext -->
<g id="node45" class="node">
<title>openmm&#45;dlext</title>
<g id="a_node45"><a xlink:href="https://github.com/conda-forge/openmm-dlext-feedstock" xlink:title="openmm dlext">
<ellipse fill="#fde725" stroke="black" cx="2672" cy="-466" rx="77.5" ry="18"/>
<text text-anchor="middle" x="2672" y="-462.3" font-family="Times,serif" font-size="14.00">openmm dlext</text>
</a>
</g>
</g>
<!-- openmm&#45;&gt;openmm&#45;dlext -->
<g id="edge53" class="edge">
<title>openmm&#45;&gt;openmm&#45;dlext</title>
<path fill="none" stroke="black" d="M2559.5,-810.48C2602.6,-789.26 2672,-745.41 2672,-683 2672,-683 2672,-683 2672,-609 2672,-569 2672,-522.65 2672,-494.08"/>
<polygon fill="black" stroke="black" points="2675.5,-494.05 2672,-484.05 2668.5,-494.05 2675.5,-494.05"/>
</g>
<!-- cudadecon -->
<g id="node53" class="node">
<title>cudadecon</title>
<g id="a_node53"><a xlink:href="https://github.com/conda-forge/cudadecon-feedstock/pull/18" xlink:title="cudadecon ❎">
<ellipse fill="#31688e" stroke="black" cx="3003" cy="-466" rx="74.19" ry="18"/>
<text text-anchor="middle" x="3003" y="-462.3" font-family="Times,serif" font-size="14.00" fill="white">cudadecon ❎</text>
</a>
</g>
</g>
<!-- pycuda&#45;&gt;cudadecon -->
<!-- pp&#45;sketchlib -->
<g id="node47" class="node">
<title>pp&#45;sketchlib</title>
<g id="a_node47"><a xlink:href="https://github.com/conda-forge/pp-sketchlib-feedstock/pull/40" xlink:title="pp sketchlib ❎">
<ellipse fill="#31688e" stroke="black" cx="1438" cy="-206" rx="81.49" ry="18"/>
<text text-anchor="middle" x="1438" y="-202.3" font-family="Times,serif" font-size="14.00" fill="white">pp sketchlib ❎</text>
</a>
</g>
</g>
<!-- mandrake -->
<g id="node48" class="node">
<title>mandrake</title>
<g id="a_node48"><a xlink:href="https://github.com/conda-forge/mandrake-feedstock" xlink:title="mandrake">
<ellipse fill="#fde725" stroke="black" cx="1438" cy="-134" rx="57.39" ry="18"/>
<text text-anchor="middle" x="1438" y="-130.3" font-family="Times,serif" font-size="14.00">mandrake</text>
</a>
</g>
</g>
<!-- pp&#45;sketchlib&#45;&gt;mandrake -->
<g id="edge55" class="edge">
<title>pp&#45;sketchlib&#45;&gt;mandrake</title>
<path fill="none" stroke="black" d="M1438,-187.7C1438,-179.98 1438,-170.71 1438,-162.11"/>
<polygon fill="black" stroke="black" points="1441.5,-162.1 1438,-152.1 1434.5,-162.1 1441.5,-162.1"/>
</g>
<!-- faiss&#45;split -->
<g id="node49" class="node">
<title>faiss&#45;split</title>
<g id="a_node49"><a xlink:href="https://github.com/conda-forge/faiss-split-feedstock/pull/68" xlink:title="faiss split ❎">
<ellipse fill="#31688e" stroke="black" cx="1088" cy="-754" rx="69.59" ry="18"/>
<text text-anchor="middle" x="1088" y="-750.3" font-family="Times,serif" font-size="14.00" fill="white">faiss split ❎</text>
</a>
</g>
</g>
<!-- faiss&#45;split&#45;&gt;graphvite -->
<g id="edge56" class="edge">
<title>faiss&#45;split&#45;&gt;graphvite</title>
<path fill="none" stroke="black" d="M1049.96,-738.83C1019.52,-727.5 976.78,-711.59 944.71,-699.65"/>
<polygon fill="black" stroke="black" points="945.72,-696.29 935.13,-696.08 943.28,-702.85 945.72,-696.29"/>
</g>
<!-- tsnecuda -->
<g id="node50" class="node">
<title>tsnecuda</title>
<g id="a_node50"><a xlink:href="https://github.com/conda-forge/tsnecuda-feedstock" xlink:title="tsnecuda">
<ellipse fill="#fde725" stroke="black" cx="1027" cy="-682" rx="52.79" ry="18"/>
<text text-anchor="middle" x="1027" y="-678.3" font-family="Times,serif" font-size="14.00">tsnecuda</text>
</a>
</g>
</g>
<!-- faiss&#45;split&#45;&gt;tsnecuda -->
<g id="edge57" class="edge">
<title>faiss&#45;split&#45;&gt;tsnecuda</title>
<path fill="none" stroke="black" d="M1073.23,-736.05C1065.74,-727.46 1056.5,-716.86 1048.26,-707.4"/>
<polygon fill="black" stroke="black" points="1050.84,-705.03 1041.63,-699.79 1045.56,-709.63 1050.84,-705.03"/>
</g>
<!-- libtvm -->
<g id="node51" class="node">
<title>libtvm</title>
<g id="a_node51"><a xlink:href="https://github.com/conda-forge/libtvm-feedstock" xlink:title="libtvm">
<ellipse fill="#fde725" stroke="black" cx="1963" cy="-466" rx="40.5" ry="18"/>
<text text-anchor="middle" x="1963" y="-462.3" font-family="Times,serif" font-size="14.00">libtvm</text>
</a>
</g>
</g>
<!-- tvm&#45;py -->
<g id="node52" class="node">
<title>tvm&#45;py</title>
<g id="a_node52"><a xlink:href="https://github.com/conda-forge/tvm-py-feedstock" xlink:title="tvm py">
<ellipse fill="#fde725" stroke="black" cx="1963" cy="-394" rx="43" ry="18"/>
<text text-anchor="middle" x="1963" y="-390.3" font-family="Times,serif" font-size="14.00">tvm py</text>
</a>
</g>
</g>
<!-- libtvm&#45;&gt;tvm&#45;py -->
<g id="edge58" class="edge">
<title>libtvm&#45;&gt;tvm&#45;py</title>
<path fill="none" stroke="black" d="M1963,-447.7C1963,-439.98 1963,-430.71 1963,-422.11"/>
<polygon fill="black" stroke="black" points="1966.5,-422.1 1963,-412.1 1959.5,-422.1 1966.5,-422.1"/>
</g>
<!-- timemory -->
<g id="node54" class="node">
<title>timemory</title>
<g id="a_node54"><a xlink:href="https://github.com/conda-forge/timemory-feedstock/pull/15" xlink:title="timemory ❎">
<ellipse fill="#31688e" stroke="black" cx="3003" cy="-394" rx="69.59" ry="18"/>
<text text-anchor="middle" x="3003" y="-390.3" font-family="Times,serif" font-size="14.00" fill="white">timemory ❎</text>
</a>
</g>
</g>
<!-- cudadecon&#45;&gt;timemory -->
<!-- rmm -->
<g id="node55" class="node">
<title>rmm</title>
<g id="a_node55"><a xlink:href="https://github.com/conda-forge/rmm-feedstock/pull/23" xlink:title="rmm ❎">
<ellipse fill="#31688e" stroke="black" cx="3003" cy="-322" rx="47" ry="18"/>
<text text-anchor="middle" x="3003" y="-318.3" font-family="Times,serif" font-size="14.00" fill="white">rmm ❎</text>
</a>
</g>
</g>
<!-- timemory&#45;&gt;rmm -->
<!-- ptxcompiler -->
<g id="node58" class="node">
<title>ptxcompiler</title>
<g id="a_node58"><a xlink:href="https://github.com/conda-forge/ptxcompiler-feedstock" xlink:title="ptxcompiler">
<ellipse fill="#000000" stroke="black" cx="3003" cy="-250" rx="66.5" ry="18"/>
<text text-anchor="middle" x="3003" y="-246.3" font-family="Times,serif" font-size="14.00" fill="white">ptxcompiler</text>
</a>
</g>
</g>
<!-- rmm&#45;&gt;ptxcompiler -->
<!-- colmap -->
<g id="node56" class="node">
<title>colmap</title>
<g id="a_node56"><a xlink:href="https://github.com/conda-forge/colmap-feedstock/pull/19" xlink:title="colmap ❎">
<ellipse fill="#31688e" stroke="black" cx="1438" cy="-90" rx="58" ry="18"/>
<text text-anchor="middle" x="1438" y="-86.3" font-family="Times,serif" font-size="14.00" fill="white">colmap ❎</text>
</a>
</g>
</g>
<!-- pycolmap -->
<g id="node57" class="node">
<title>pycolmap</title>
<g id="a_node57"><a xlink:href="https://github.com/conda-forge/pycolmap-feedstock" xlink:title="pycolmap">
<ellipse fill="#fde725" stroke="black" cx="1438" cy="-18" rx="55.49" ry="18"/>
<text text-anchor="middle" x="1438" y="-14.3" font-family="Times,serif" font-size="14.00">pycolmap</text>
</a>
</g>
</g>
<!-- colmap&#45;&gt;pycolmap -->
<g id="edge62" class="edge">
<title>colmap&#45;&gt;pycolmap</title>
<path fill="none" stroke="black" d="M1438,-71.7C1438,-63.98 1438,-54.71 1438,-46.11"/>
<polygon fill="black" stroke="black" points="1441.5,-46.1 1438,-36.1 1434.5,-46.1 1441.5,-46.1"/>
</g>
<!-- cutlass -->
<g id="node59" class="node">
<title>cutlass</title>
<g id="a_node59"><a xlink:href="https://github.com/conda-forge/cutlass-feedstock/pull/10" xlink:title="cutlass ❎">
<ellipse fill="#31688e" stroke="black" cx="1963" cy="-538" rx="58" ry="18"/>
<text text-anchor="middle" x="1963" y="-534.3" font-family="Times,serif" font-size="14.00" fill="white">cutlass ❎</text>
</a>
</g>
</g>
<!-- cutlass&#45;&gt;pyg&#45;lib -->
<g id="edge64" class="edge">
<title>cutlass&#45;&gt;pyg&#45;lib</title>
<path fill="none" stroke="black" d="M1940.33,-521.29C1925.91,-511.29 1907.07,-498.24 1891.49,-487.44"/>
<polygon fill="black" stroke="black" points="1893.42,-484.52 1883.21,-481.7 1889.44,-490.27 1893.42,-484.52"/>
</g>
<!-- cutlass&#45;&gt;libtvm -->
<g id="edge65" class="edge">
<title>cutlass&#45;&gt;libtvm</title>
<path fill="none" stroke="black" d="M1963,-519.7C1963,-511.98 1963,-502.71 1963,-494.11"/>
<polygon fill="black" stroke="black" points="1966.5,-494.1 1963,-484.1 1959.5,-494.1 1966.5,-494.1"/>
</g>
<!-- pyvkfft -->
<g id="node60" class="node">
<title>pyvkfft</title>
<g id="a_node60"><a xlink:href="https://github.com/conda-forge/pyvkfft-feedstock/pull/10" xlink:title="pyvkfft ❎">
<ellipse fill="#31688e" stroke="black" cx="3217" cy="-754" rx="57.39" ry="18"/>
<text text-anchor="middle" x="3217" y="-750.3" font-family="Times,serif" font-size="14.00" fill="white">pyvkfft ❎</text>
</a>
</g>
</g>
<!-- pyscamp&#45;gpu -->
<g id="node61" class="node">
<title>pyscamp&#45;gpu</title>
<g id="a_node61"><a xlink:href="https://github.com/conda-forge/pyscamp-gpu-feedstock/pull/6" xlink:title="pyscamp gpu ❎">
<ellipse fill="#31688e" stroke="black" cx="3217" cy="-682" rx="86.5" ry="18"/>
<text text-anchor="middle" x="3217" y="-678.3" font-family="Times,serif" font-size="14.00" fill="white">pyscamp gpu ❎</text>
</a>
</g>
</g>
<!-- pyvkfft&#45;&gt;pyscamp&#45;gpu -->
<!-- cyrsoxs -->
<g id="node62" class="node">
<title>cyrsoxs</title>
<g id="a_node62"><a xlink:href="https://github.com/conda-forge/cyrsoxs-feedstock/pull/9" xlink:title="cyrsoxs ❎">
<ellipse fill="#31688e" stroke="black" cx="3217" cy="-610" rx="60" ry="18"/>
<text text-anchor="middle" x="3217" y="-606.3" font-family="Times,serif" font-size="14.00" fill="white">cyrsoxs ❎</text>
</a>
</g>
</g>
<!-- pyscamp&#45;gpu&#45;&gt;cyrsoxs -->
<!-- katago -->
<g id="node63" class="node">
<title>katago</title>
<g id="a_node63"><a xlink:href="https://github.com/conda-forge/katago-feedstock/pull/5" xlink:title="katago ❎">
<ellipse fill="#31688e" stroke="black" cx="3217" cy="-538" rx="56" ry="18"/>
<text text-anchor="middle" x="3217" y="-534.3" font-family="Times,serif" font-size="14.00" fill="white">katago ❎</text>
</a>
</g>
</g>
<!-- cyrsoxs&#45;&gt;katago -->
<!-- nvcomp -->
<g id="node64" class="node">
<title>nvcomp</title>
<g id="a_node64"><a xlink:href="https://github.com/conda-forge/nvcomp-feedstock/pull/5" xlink:title="nvcomp ❎">
<ellipse fill="#31688e" stroke="black" cx="3217" cy="-466" rx="61.19" ry="18"/>
<text text-anchor="middle" x="3217" y="-462.3" font-family="Times,serif" font-size="14.00" fill="white">nvcomp ❎</text>
</a>
</g>
</g>
<!-- katago&#45;&gt;nvcomp -->
</g>
</svg>
