<?xml version="1.0" encoding="UTF-8" standalone="no"?>
<!DOCTYPE svg PUBLIC "-//W3C//DTD SVG 1.1//EN"
 "http://www.w3.org/Graphics/SVG/1.1/DTD/svg11.dtd">
<!-- Generated by graphviz version 8.1.0 (20230707.2238)
 -->
<!-- Pages: 1 -->
<svg width="3550pt" height="880pt"
 viewBox="0.00 0.00 3549.58 880.00" xmlns="http://www.w3.org/2000/svg" xmlns:xlink="http://www.w3.org/1999/xlink">
<g id="graph0" class="graph" transform="scale(1 1) rotate(0) translate(4 876)">
<polygon fill="white" stroke="none" points="-4,4 -4,-876 3545.58,-876 3545.58,4 -4,4"/>
<!-- libhwloc -->
<g id="node1" class="node">
<title>libhwloc</title>
<g id="a_node1"><a xlink:href="https://github.com/conda-forge/libhwloc-feedstock/pull/67" xlink:title="libhwloc ❎">
<ellipse fill="#31688e" stroke="black" cx="270.07" cy="-746" rx="68.04" ry="18"/>
<text text-anchor="middle" x="270.07" y="-741.33" font-family="Times,serif" font-size="14.00" fill="white">libhwloc ❎</text>
</a>
</g>
</g>
<!-- openmm -->
<g id="node2" class="node">
<title>openmm</title>
<g id="a_node2"><a xlink:href="https://github.com/conda-forge/openmm-feedstock" xlink:title="openmm">
<ellipse fill="#fde725" stroke="black" cx="513.07" cy="-674" rx="54.36" ry="18"/>
<text text-anchor="middle" x="513.07" y="-669.33" font-family="Times,serif" font-size="14.00">openmm</text>
</a>
</g>
</g>
<!-- libhwloc&#45;&gt;openmm -->
<g id="edge1" class="edge">
<title>libhwloc&#45;&gt;openmm</title>
<path fill="none" stroke="black" d="M314.93,-732.08C356.73,-720.04 419,-702.1 462.55,-689.55"/>
<polygon fill="black" stroke="black" points="463.27,-692.7 471.91,-686.57 461.34,-685.97 463.27,-692.7"/>
</g>
<!-- seekr2_openmm_plugin -->
<g id="node3" class="node">
<title>seekr2_openmm_plugin</title>
<g id="a_node3"><a xlink:href="https://github.com/conda-forge/seekr2_openmm_plugin-feedstock" xlink:title="seekr2_openmm_plugin">
<ellipse fill="#fde725" stroke="black" cx="129.07" cy="-602" rx="129.07" ry="18"/>
<text text-anchor="middle" x="129.07" y="-597.33" font-family="Times,serif" font-size="14.00">seekr2_openmm_plugin</text>
</a>
</g>
</g>
<!-- libhwloc&#45;&gt;seekr2_openmm_plugin -->
<g id="edge2" class="edge">
<title>libhwloc&#45;&gt;seekr2_openmm_plugin</title>
<path fill="none" stroke="black" d="M270.84,-727.61C270.77,-708.07 267.78,-676.42 251.07,-656 238.67,-640.84 221.1,-629.91 203.15,-622.07"/>
<polygon fill="black" stroke="black" points="204.74,-618.54 194.16,-618.03 202.12,-625.02 204.74,-618.54"/>
</g>
<!-- gromacs -->
<g id="node4" class="node">
<title>gromacs</title>
<g id="a_node4"><a xlink:href="https://github.com/conda-forge/gromacs-feedstock" xlink:title="gromacs">
<ellipse fill="#fde725" stroke="black" cx="188.07" cy="-674" rx="53.84" ry="18"/>
<text text-anchor="middle" x="188.07" y="-669.33" font-family="Times,serif" font-size="14.00">gromacs</text>
</a>
</g>
</g>
<!-- libhwloc&#45;&gt;gromacs -->
<g id="edge3" class="edge">
<title>libhwloc&#45;&gt;gromacs</title>
<path fill="none" stroke="black" d="M250.64,-728.41C240.04,-719.37 226.76,-708.03 215.17,-698.13"/>
<polygon fill="black" stroke="black" points="217.96,-695.06 208.08,-691.23 213.42,-700.38 217.96,-695.06"/>
</g>
<!-- openmm&#45;&gt;seekr2_openmm_plugin -->
<g id="edge4" class="edge">
<title>openmm&#45;&gt;seekr2_openmm_plugin</title>
<path fill="none" stroke="black" d="M466.37,-664.49C404.33,-653.18 293.54,-632.98 215.92,-618.83"/>
<polygon fill="black" stroke="black" points="216.66,-615.23 206.19,-616.88 215.4,-622.11 216.66,-615.23"/>
</g>
<!-- openmm&#45;torch -->
<g id="node5" class="node">
<title>openmm&#45;torch</title>
<g id="a_node5"><a xlink:href="https://github.com/conda-forge/openmm-torch-feedstock" xlink:title="openmm torch">
<ellipse fill="#fde725" stroke="black" cx="682.07" cy="-602" rx="83.83" ry="18"/>
<text text-anchor="middle" x="682.07" y="-597.33" font-family="Times,serif" font-size="14.00">openmm torch</text>
</a>
</g>
</g>
<!-- openmm&#45;&gt;openmm&#45;torch -->
<g id="edge5" class="edge">
<title>openmm&#45;&gt;openmm&#45;torch</title>
<path fill="none" stroke="black" d="M546.06,-659.34C571.3,-648.88 606.45,-634.32 634.69,-622.62"/>
<polygon fill="black" stroke="black" points="635.86,-625.52 643.76,-618.46 633.18,-619.05 635.86,-625.52"/>
</g>
<!-- openmmtorchplugin -->
<g id="node6" class="node">
<title>openmmtorchplugin</title>
<g id="a_node6"><a xlink:href="https://github.com/conda-forge/openmmtorchplugin-feedstock" xlink:title="openmmtorchplugin">
<ellipse fill="#fde725" stroke="black" cx="896.07" cy="-602" rx="112.24" ry="18"/>
<text text-anchor="middle" x="896.07" y="-597.33" font-family="Times,serif" font-size="14.00">openmmtorchplugin</text>
</a>
</g>
</g>
<!-- openmm&#45;&gt;openmmtorchplugin -->
<g id="edge6" class="edge">
<title>openmm&#45;&gt;openmmtorchplugin</title>
<path fill="none" stroke="black" d="M559.65,-664.49C622.58,-652.99 735.78,-632.3 813.36,-618.12"/>
<polygon fill="black" stroke="black" points="813.85,-621.4 823.06,-616.16 812.59,-614.52 813.85,-621.4"/>
</g>
<!-- openmm&#45;plumed -->
<g id="node7" class="node">
<title>openmm&#45;plumed</title>
<g id="a_node7"><a xlink:href="https://github.com/conda-forge/openmm-plumed-feedstock" xlink:title="openmm plumed">
<ellipse fill="#fde725" stroke="black" cx="371.07" cy="-602" rx="94.88" ry="18"/>
<text text-anchor="middle" x="371.07" y="-597.33" font-family="Times,serif" font-size="14.00">openmm plumed</text>
</a>
</g>
</g>
<!-- openmm&#45;&gt;openmm&#45;plumed -->
<g id="edge7" class="edge">
<title>openmm&#45;&gt;openmm&#45;plumed</title>
<path fill="none" stroke="black" d="M483.65,-658.5C463.48,-648.55 436.4,-635.21 413.86,-624.09"/>
<polygon fill="black" stroke="black" points="415.7,-620.61 405.18,-619.32 412.61,-626.88 415.7,-620.61"/>
</g>
<!-- meld -->
<g id="node8" class="node">
<title>meld</title>
<g id="a_node8"><a xlink:href="https://github.com/conda-forge/meld-feedstock" xlink:title="meld">
<ellipse fill="#fde725" stroke="black" cx="468.07" cy="-530" rx="35.95" ry="18"/>
<text text-anchor="middle" x="468.07" y="-525.33" font-family="Times,serif" font-size="14.00">meld</text>
</a>
</g>
</g>
<!-- openmm&#45;&gt;meld -->
<g id="edge8" class="edge">
<title>openmm&#45;&gt;meld</title>
<path fill="none" stroke="black" d="M507.64,-655.87C499.97,-631.67 485.89,-587.21 476.75,-558.39"/>
<polygon fill="black" stroke="black" points="479.88,-557.66 473.52,-549.19 473.2,-559.78 479.88,-557.66"/>
</g>
<!-- openmm&#45;atmmetaforce&#45;plugin -->
<g id="node9" class="node">
<title>openmm&#45;atmmetaforce&#45;plugin</title>
<g id="a_node9"><a xlink:href="https://github.com/conda-forge/openmm-atmmetaforce-plugin-feedstock" xlink:title="openmm atmmetaforce plugin">
<ellipse fill="#fde725" stroke="black" cx="380.07" cy="-458" rx="162.22" ry="18"/>
<text text-anchor="middle" x="380.07" y="-453.32" font-family="Times,serif" font-size="14.00">openmm atmmetaforce plugin</text>
</a>
</g>
</g>
<!-- openmm&#45;&gt;openmm&#45;atmmetaforce&#45;plugin -->
<g id="edge9" class="edge">
<title>openmm&#45;&gt;openmm&#45;atmmetaforce&#45;plugin</title>
<path fill="none" stroke="black" d="M518.87,-655.68C528.29,-624.06 543.03,-556.19 513.07,-512 502.75,-496.78 487.29,-485.93 470.52,-478.2"/>
<polygon fill="black" stroke="black" points="472.1,-474.64 461.52,-473.99 469.39,-481.1 472.1,-474.64"/>
</g>
<!-- openmm&#45;dlext -->
<g id="node10" class="node">
<title>openmm&#45;dlext</title>
<g id="a_node10"><a xlink:href="https://github.com/conda-forge/openmm-dlext-feedstock" xlink:title="openmm dlext">
<ellipse fill="#fde725" stroke="black" cx="570.07" cy="-386" rx="82.77" ry="18"/>
<text text-anchor="middle" x="570.07" y="-381.32" font-family="Times,serif" font-size="14.00">openmm dlext</text>
</a>
</g>
</g>
<!-- openmm&#45;&gt;openmm&#45;dlext -->
<g id="edge10" class="edge">
<title>openmm&#45;&gt;openmm&#45;dlext</title>
<path fill="none" stroke="black" d="M525.35,-656.21C532.03,-646.2 539.78,-632.95 544.07,-620 567.59,-549.07 570.75,-460.04 570.65,-415.35"/>
<polygon fill="black" stroke="black" points="574.15,-415.45 570.56,-405.48 567.15,-415.51 574.15,-415.45"/>
</g>
<!-- torchvision -->
<g id="node11" class="node">
<title>torchvision</title>
<g id="a_node11"><a xlink:href="https://github.com/conda-forge/torchvision-feedstock" xlink:title="torchvision">
<ellipse fill="#fde725" stroke="black" cx="2258.07" cy="-602" rx="66.99" ry="18"/>
<text text-anchor="middle" x="2258.07" y="-597.33" font-family="Times,serif" font-size="14.00">torchvision</text>
</a>
</g>
</g>
<!-- detectron2 -->
<g id="node12" class="node">
<title>detectron2</title>
<g id="a_node12"><a xlink:href="https://github.com/conda-forge/detectron2-feedstock" xlink:title="detectron2">
<ellipse fill="#fde725" stroke="black" cx="2044.07" cy="-530" rx="65.94" ry="18"/>
<text text-anchor="middle" x="2044.07" y="-525.33" font-family="Times,serif" font-size="14.00">detectron2</text>
</a>
</g>
</g>
<!-- torchvision&#45;&gt;detectron2 -->
<g id="edge11" class="edge">
<title>torchvision&#45;&gt;detectron2</title>
<path fill="none" stroke="black" d="M2216.56,-587.42C2181.89,-576.08 2132.33,-559.87 2095.22,-547.73"/>
<polygon fill="black" stroke="black" points="2096.7,-544.21 2086.11,-544.42 2094.52,-550.86 2096.7,-544.21"/>
</g>
<!-- fcos -->
<g id="node13" class="node">
<title>fcos</title>
<g id="a_node13"><a xlink:href="https://github.com/conda-forge/fcos-feedstock" xlink:title="fcos">
<ellipse fill="#fde725" stroke="black" cx="2159.07" cy="-530" rx="31.22" ry="18"/>
<text text-anchor="middle" x="2159.07" y="-525.33" font-family="Times,serif" font-size="14.00">fcos</text>
</a>
</g>
</g>
<!-- torchvision&#45;&gt;fcos -->
<g id="edge12" class="edge">
<title>torchvision&#45;&gt;fcos</title>
<path fill="none" stroke="black" d="M2235.11,-584.76C2220.83,-574.66 2202.35,-561.6 2187.19,-550.88"/>
<polygon fill="black" stroke="black" points="2189.43,-547.47 2179.25,-544.56 2185.39,-553.19 2189.43,-547.47"/>
</g>
<!-- fairscale -->
<g id="node14" class="node">
<title>fairscale</title>
<g id="a_node14"><a xlink:href="https://github.com/conda-forge/fairscale-feedstock" xlink:title="fairscale">
<ellipse fill="#fde725" stroke="black" cx="2262.07" cy="-530" rx="53.84" ry="18"/>
<text text-anchor="middle" x="2262.07" y="-525.33" font-family="Times,serif" font-size="14.00">fairscale</text>
</a>
</g>
</g>
<!-- torchvision&#45;&gt;fairscale -->
<g id="edge13" class="edge">
<title>torchvision&#45;&gt;fairscale</title>
<path fill="none" stroke="black" d="M2259.06,-583.7C2259.49,-576.24 2260,-567.32 2260.47,-558.97"/>
<polygon fill="black" stroke="black" points="2264.02,-559.29 2261.09,-549.1 2257.03,-558.89 2264.02,-559.29"/>
</g>
<!-- graphvite -->
<g id="node15" class="node">
<title>graphvite</title>
<g id="a_node15"><a xlink:href="https://github.com/conda-forge/graphvite-feedstock" xlink:title="graphvite">
<ellipse fill="#fde725" stroke="black" cx="2863.07" cy="-530" rx="59.63" ry="18"/>
<text text-anchor="middle" x="2863.07" y="-525.33" font-family="Times,serif" font-size="14.00">graphvite</text>
</a>
</g>
</g>
<!-- torchvision&#45;&gt;graphvite -->
<g id="edge14" class="edge">
<title>torchvision&#45;&gt;graphvite</title>
<path fill="none" stroke="black" d="M2320.62,-595.32C2452.02,-583.32 2748.4,-555.84 2794.07,-548 2799.05,-547.14 2804.21,-546.13 2809.35,-545.02"/>
<polygon fill="black" stroke="black" points="2809.86,-548.27 2818.84,-542.65 2808.31,-541.44 2809.86,-548.27"/>
</g>
<!-- mmcv&#45;recipe -->
<g id="node16" class="node">
<title>mmcv&#45;recipe</title>
<g id="a_node16"><a xlink:href="https://github.com/conda-forge/mmcv-recipe-feedstock" xlink:title="mmcv recipe">
<ellipse fill="#fde725" stroke="black" cx="2409.07" cy="-530" rx="75.41" ry="18"/>
<text text-anchor="middle" x="2409.07" y="-525.33" font-family="Times,serif" font-size="14.00">mmcv recipe</text>
</a>
</g>
</g>
<!-- torchvision&#45;&gt;mmcv&#45;recipe -->
<g id="edge15" class="edge">
<title>torchvision&#45;&gt;mmcv&#45;recipe</title>
<path fill="none" stroke="black" d="M2290.47,-585.98C2312.45,-575.79 2341.78,-562.19 2365.77,-551.07"/>
<polygon fill="black" stroke="black" points="2367.09,-553.86 2374.69,-546.48 2364.14,-547.51 2367.09,-553.86"/>
</g>
<!-- pytorch3d -->
<g id="node17" class="node">
<title>pytorch3d</title>
<g id="a_node17"><a xlink:href="https://github.com/conda-forge/pytorch3d-feedstock" xlink:title="pytorch3d">
<ellipse fill="#fde725" stroke="black" cx="2565.07" cy="-530" rx="62.26" ry="18"/>
<text text-anchor="middle" x="2565.07" y="-525.33" font-family="Times,serif" font-size="14.00">pytorch3d</text>
</a>
</g>
</g>
<!-- torchvision&#45;&gt;pytorch3d -->
<g id="edge16" class="edge">
<title>torchvision&#45;&gt;pytorch3d</title>
<path fill="none" stroke="black" d="M2308.53,-589.77C2356.14,-579.14 2429.5,-562.67 2493.07,-548 2497.78,-546.91 2502.65,-545.78 2507.54,-544.64"/>
<polygon fill="black" stroke="black" points="2508.29,-547.82 2517.22,-542.13 2506.69,-541.01 2508.29,-547.82"/>
</g>
<!-- aihwkit&#45;gpu -->
<g id="node18" class="node">
<title>aihwkit&#45;gpu</title>
<g id="a_node18"><a xlink:href="https://github.com/conda-forge/aihwkit-gpu-feedstock" xlink:title="aihwkit gpu">
<ellipse fill="#fde725" stroke="black" cx="2715.07" cy="-530" rx="70.15" ry="18"/>
<text text-anchor="middle" x="2715.07" y="-525.33" font-family="Times,serif" font-size="14.00">aihwkit gpu</text>
</a>
</g>
</g>
<!-- torchvision&#45;&gt;aihwkit&#45;gpu -->
<g id="edge17" class="edge">
<title>torchvision&#45;&gt;aihwkit&#45;gpu</title>
<path fill="none" stroke="black" d="M2318.52,-593.9C2393.32,-584.8 2524.5,-567.8 2636.07,-548 2641.68,-547 2647.5,-545.9 2653.33,-544.74"/>
<polygon fill="black" stroke="black" points="2653.66,-548.04 2662.76,-542.61 2652.26,-541.18 2653.66,-548.04"/>
</g>
<!-- pytorch&#45;cpu -->
<g id="node19" class="node">
<title>pytorch&#45;cpu</title>
<g id="a_node19"><a xlink:href="https://github.com/conda-forge/pytorch-cpu-feedstock/pull/191" xlink:title="pytorch cpu ❎">
<ellipse fill="#31688e" stroke="black" cx="1817.07" cy="-674" rx="85.93" ry="18"/>
<text text-anchor="middle" x="1817.07" y="-669.33" font-family="Times,serif" font-size="14.00" fill="white">pytorch cpu ❎</text>
</a>
</g>
</g>
<!-- pytorch&#45;cpu&#45;&gt;openmm&#45;torch -->
<g id="edge32" class="edge">
<title>pytorch&#45;cpu&#45;&gt;openmm&#45;torch</title>
<path fill="none" stroke="black" d="M1730.99,-672.4C1552.26,-670.32 1128.17,-661.08 775.07,-620 767.65,-619.14 759.92,-618.04 752.24,-616.83"/>
<polygon fill="black" stroke="black" points="752.87,-613.22 742.43,-615.04 751.73,-620.12 752.87,-613.22"/>
</g>
<!-- pytorch&#45;cpu&#45;&gt;openmmtorchplugin -->
<g id="edge38" class="edge">
<title>pytorch&#45;cpu&#45;&gt;openmmtorchplugin</title>
<path fill="none" stroke="black" d="M1733.65,-669.3C1588.69,-662.44 1280.99,-646.07 1022.07,-620 1011.09,-618.89 999.59,-617.57 988.19,-616.16"/>
<polygon fill="black" stroke="black" points="988.67,-612.57 978.31,-614.78 987.79,-619.51 988.67,-612.57"/>
</g>
<!-- pytorch&#45;cpu&#45;&gt;torchvision -->
<g id="edge18" class="edge">
<title>pytorch&#45;cpu&#45;&gt;torchvision</title>
<path fill="none" stroke="black" d="M1887.33,-663.25C1958.47,-653.18 2071.6,-636.64 2169.07,-620 2177.36,-618.59 2186.06,-617.02 2194.65,-615.43"/>
<polygon fill="black" stroke="black" points="2195.24,-618.69 2204.43,-613.41 2193.95,-611.81 2195.24,-618.69"/>
</g>
<!-- pytorch&#45;cpu&#45;&gt;detectron2 -->
<g id="edge19" class="edge">
<title>pytorch&#45;cpu&#45;&gt;detectron2</title>
<path fill="none" stroke="black" d="M1892.45,-664.96C1949.91,-657.12 2022.27,-642.96 2041.07,-620 2054.83,-603.2 2054.39,-578.05 2051.2,-558.76"/>
<polygon fill="black" stroke="black" points="2054.48,-558.32 2049.09,-549.2 2047.61,-559.69 2054.48,-558.32"/>
</g>
<!-- pytorch&#45;cpu&#45;&gt;fcos -->
<g id="edge20" class="edge">
<title>pytorch&#45;cpu&#45;&gt;fcos</title>
<path fill="none" stroke="black" d="M1895.5,-666.26C1944.89,-659.57 2008.77,-646.29 2060.07,-620 2091.57,-603.86 2120.81,-575.19 2139.22,-554.75"/>
<polygon fill="black" stroke="black" points="2142.45,-557.37 2146.42,-547.55 2137.19,-552.75 2142.45,-557.37"/>
</g>
<!-- pytorch&#45;cpu&#45;&gt;fairscale -->
<g id="edge21" class="edge">
<title>pytorch&#45;cpu&#45;&gt;fairscale</title>
<path fill="none" stroke="black" d="M1892.99,-665.16C1950.51,-657.69 2030.84,-643.92 2098.07,-620 2146.55,-602.75 2198,-572.65 2230.07,-552.28"/>
<polygon fill="black" stroke="black" points="2231.46,-554.91 2237.98,-546.56 2227.68,-549.02 2231.46,-554.91"/>
</g>
<!-- pytorch&#45;cpu&#45;&gt;graphvite -->
<g id="edge22" class="edge">
<title>pytorch&#45;cpu&#45;&gt;graphvite</title>
<path fill="none" stroke="black" d="M1902.8,-672.09C2050.81,-669.48 2347.58,-659.33 2443.07,-620 2466.12,-610.51 2463.18,-593.86 2486.07,-584 2612.65,-529.48 2658.45,-572.53 2794.07,-548 2798.97,-547.11 2804.05,-546.08 2809.11,-544.98"/>
<polygon fill="black" stroke="black" points="2809.48,-548.26 2818.45,-542.62 2807.92,-541.43 2809.48,-548.26"/>
</g>
<!-- pytorch&#45;cpu&#45;&gt;mmcv&#45;recipe -->
<g id="edge23" class="edge">
<title>pytorch&#45;cpu&#45;&gt;mmcv&#45;recipe</title>
<path fill="none" stroke="black" d="M1902.71,-671.91C2029.85,-669.02 2261.34,-658.46 2334.07,-620 2360.6,-605.98 2381.58,-578.28 2394.53,-557.49"/>
<polygon fill="black" stroke="black" points="2397.95,-559.59 2400.07,-549.21 2391.94,-556 2397.95,-559.59"/>
</g>
<!-- pytorch&#45;cpu&#45;&gt;pytorch3d -->
<g id="edge24" class="edge">
<title>pytorch&#45;cpu&#45;&gt;pytorch3d</title>
<path fill="none" stroke="black" d="M1901.89,-670.53C2034.78,-665.71 2285.4,-652.52 2368.07,-620 2392.56,-610.37 2391.94,-596.54 2415.07,-584 2444.92,-567.83 2480.68,-554.97 2509.8,-545.97"/>
<polygon fill="black" stroke="black" points="2510.64,-549.07 2519.2,-542.83 2508.62,-542.36 2510.64,-549.07"/>
</g>
<!-- pytorch&#45;cpu&#45;&gt;aihwkit&#45;gpu -->
<g id="edge25" class="edge">
<title>pytorch&#45;cpu&#45;&gt;aihwkit&#45;gpu</title>
<path fill="none" stroke="black" d="M1902.13,-671.03C2042.37,-666.84 2315.49,-654.41 2405.07,-620 2429.97,-610.44 2428.71,-594.85 2453.07,-584 2528.8,-550.29 2554.88,-564.72 2636.07,-548 2641.35,-546.91 2646.82,-545.77 2652.3,-544.61"/>
<polygon fill="black" stroke="black" points="2652.78,-547.88 2661.83,-542.38 2651.32,-541.03 2652.78,-547.88"/>
</g>
<!-- nvidia&#45;apex -->
<g id="node20" class="node">
<title>nvidia&#45;apex</title>
<g id="a_node20"><a xlink:href="https://github.com/conda-forge/nvidia-apex-feedstock" xlink:title="nvidia apex">
<ellipse fill="#fde725" stroke="black" cx="2564.07" cy="-602" rx="68.57" ry="18"/>
<text text-anchor="middle" x="2564.07" y="-597.33" font-family="Times,serif" font-size="14.00">nvidia apex</text>
</a>
</g>
</g>
<!-- pytorch&#45;cpu&#45;&gt;nvidia&#45;apex -->
<g id="edge26" class="edge">
<title>pytorch&#45;cpu&#45;&gt;nvidia&#45;apex</title>
<path fill="none" stroke="black" d="M1900.77,-669.61C2027.03,-663.75 2273.54,-649.42 2481.07,-620 2488.12,-619 2495.46,-617.77 2502.75,-616.44"/>
<polygon fill="black" stroke="black" points="2503.16,-619.73 2512.33,-614.42 2501.85,-612.85 2503.16,-619.73"/>
</g>
<!-- pytorch_cluster -->
<g id="node21" class="node">
<title>pytorch_cluster</title>
<g id="a_node21"><a xlink:href="https://github.com/conda-forge/pytorch_cluster-feedstock" xlink:title="pytorch_cluster">
<ellipse fill="#fde725" stroke="black" cx="957.07" cy="-530" rx="89.09" ry="18"/>
<text text-anchor="middle" x="957.07" y="-525.33" font-family="Times,serif" font-size="14.00">pytorch_cluster</text>
</a>
</g>
</g>
<!-- pytorch&#45;cpu&#45;&gt;pytorch_cluster -->
<g id="edge27" class="edge">
<title>pytorch&#45;cpu&#45;&gt;pytorch_cluster</title>
<path fill="none" stroke="black" d="M1730.83,-673.75C1558.79,-674.13 1179.27,-669.17 1060.07,-620 1057.78,-619.05 1014.04,-580.94 984.3,-554.9"/>
<polygon fill="black" stroke="black" points="987.16,-551.87 977.34,-547.91 982.55,-557.14 987.16,-551.87"/>
</g>
<!-- pytorch_scatter -->
<g id="node22" class="node">
<title>pytorch_scatter</title>
<g id="a_node22"><a xlink:href="https://github.com/conda-forge/pytorch_scatter-feedstock" xlink:title="pytorch_scatter">
<ellipse fill="#fde725" stroke="black" cx="1112.07" cy="-458" rx="89.61" ry="18"/>
<text text-anchor="middle" x="1112.07" y="-453.32" font-family="Times,serif" font-size="14.00">pytorch_scatter</text>
</a>
</g>
</g>
<!-- pytorch&#45;cpu&#45;&gt;pytorch_scatter -->
<g id="edge28" class="edge">
<title>pytorch&#45;cpu&#45;&gt;pytorch_scatter</title>
<path fill="none" stroke="black" d="M1733.05,-669.67C1578.14,-662.92 1259.3,-646.06 1216.07,-620 1165.5,-589.5 1135.06,-523.91 1121.15,-486.54"/>
<polygon fill="black" stroke="black" points="1124.17,-485.6 1117.51,-477.36 1117.58,-487.95 1124.17,-485.6"/>
</g>
<!-- pytorch_spline_conv -->
<g id="node23" class="node">
<title>pytorch_spline_conv</title>
<g id="a_node23"><a xlink:href="https://github.com/conda-forge/pytorch_spline_conv-feedstock" xlink:title="pytorch_spline_conv">
<ellipse fill="#fde725" stroke="black" cx="1212.07" cy="-386" rx="112.24" ry="18"/>
<text text-anchor="middle" x="1212.07" y="-381.32" font-family="Times,serif" font-size="14.00">pytorch_spline_conv</text>
</a>
</g>
</g>
<!-- pytorch&#45;cpu&#45;&gt;pytorch_spline_conv -->
<g id="edge29" class="edge">
<title>pytorch&#45;cpu&#45;&gt;pytorch_spline_conv</title>
<path fill="none" stroke="black" d="M1732.42,-670.59C1583.84,-665.56 1288.52,-651.66 1254.07,-620 1224.47,-592.8 1215.59,-471.16 1213.04,-415.26"/>
<polygon fill="black" stroke="black" points="1216.5,-415.23 1212.59,-405.39 1209.51,-415.52 1216.5,-415.23"/>
</g>
<!-- pytorch_sparse -->
<g id="node24" class="node">
<title>pytorch_sparse</title>
<g id="a_node24"><a xlink:href="https://github.com/conda-forge/pytorch_sparse-feedstock" xlink:title="pytorch_sparse">
<ellipse fill="#fde725" stroke="black" cx="994.07" cy="-386" rx="87.51" ry="18"/>
<text text-anchor="middle" x="994.07" y="-381.32" font-family="Times,serif" font-size="14.00">pytorch_sparse</text>
</a>
</g>
</g>
<!-- pytorch&#45;cpu&#45;&gt;pytorch_sparse -->
<g id="edge30" class="edge">
<title>pytorch&#45;cpu&#45;&gt;pytorch_sparse</title>
<path fill="none" stroke="black" d="M1731.1,-672.76C1579.39,-671.22 1270.94,-662.73 1173.07,-620 1107.92,-591.55 1108.29,-559.14 1055.07,-512 1036.67,-495.7 1025.63,-497.13 1013.07,-476 1002.09,-457.53 997.42,-433.57 995.45,-415.16"/>
<polygon fill="black" stroke="black" points="998.85,-414.92 994.52,-405.25 991.88,-415.51 998.85,-414.92"/>
</g>
<!-- torchani -->
<g id="node25" class="node">
<title>torchani</title>
<g id="a_node25"><a xlink:href="https://github.com/conda-forge/torchani-feedstock" xlink:title="torchani">
<ellipse fill="#fde725" stroke="black" cx="1446.07" cy="-314" rx="52.79" ry="18"/>
<text text-anchor="middle" x="1446.07" y="-309.32" font-family="Times,serif" font-size="14.00">torchani</text>
</a>
</g>
</g>
<!-- pytorch&#45;cpu&#45;&gt;torchani -->
<g id="edge31" class="edge">
<title>pytorch&#45;cpu&#45;&gt;torchani</title>
<path fill="none" stroke="black" d="M1745,-663.91C1685.43,-655.12 1606.77,-640.18 1582.07,-620 1548.49,-592.56 1542.07,-574.37 1542.07,-531 1542.07,-531 1542.07,-531 1542.07,-457 1542.07,-408.25 1502.76,-363.74 1474.45,-338.01"/>
<polygon fill="black" stroke="black" points="1477.25,-335.93 1467.43,-331.95 1472.62,-341.19 1477.25,-335.93"/>
</g>
<!-- torchsparse -->
<g id="node26" class="node">
<title>torchsparse</title>
<g id="a_node26"><a xlink:href="https://github.com/conda-forge/torchsparse-feedstock" xlink:title="torchsparse">
<ellipse fill="#fde725" stroke="black" cx="1367.07" cy="-602" rx="70.68" ry="18"/>
<text text-anchor="middle" x="1367.07" y="-597.33" font-family="Times,serif" font-size="14.00">torchsparse</text>
</a>
</g>
</g>
<!-- pytorch&#45;cpu&#45;&gt;torchsparse -->
<g id="edge33" class="edge">
<title>pytorch&#45;cpu&#45;&gt;torchsparse</title>
<path fill="none" stroke="black" d="M1745.56,-663.76C1671.84,-653.97 1553.66,-637.52 1452.07,-620 1445.2,-618.81 1438.02,-617.5 1430.89,-616.14"/>
<polygon fill="black" stroke="black" points="1431.98,-612.6 1421.5,-614.14 1430.65,-619.47 1431.98,-612.6"/>
</g>
<!-- torch&#45;scatter -->
<g id="node27" class="node">
<title>torch&#45;scatter</title>
<g id="a_node27"><a xlink:href="https://github.com/conda-forge/torch-scatter-feedstock" xlink:title="torch scatter">
<ellipse fill="#fde725" stroke="black" cx="1400.07" cy="-530" rx="75.94" ry="18"/>
<text text-anchor="middle" x="1400.07" y="-525.33" font-family="Times,serif" font-size="14.00">torch scatter</text>
</a>
</g>
</g>
<!-- pytorch&#45;cpu&#45;&gt;torch&#45;scatter -->
<g id="edge34" class="edge">
<title>pytorch&#45;cpu&#45;&gt;torch&#45;scatter</title>
<path fill="none" stroke="black" d="M1739.65,-665.94C1657.11,-657.44 1532.56,-641.6 1490.07,-620 1474.46,-612.06 1443.39,-579.5 1422.17,-556.05"/>
<polygon fill="black" stroke="black" points="1425.13,-554 1415.84,-548.89 1419.92,-558.67 1425.13,-554"/>
</g>
<!-- kaolin -->
<g id="node28" class="node">
<title>kaolin</title>
<g id="a_node28"><a xlink:href="https://github.com/conda-forge/kaolin-feedstock" xlink:title="kaolin">
<ellipse fill="#fde725" stroke="black" cx="1473.07" cy="-458" rx="41.21" ry="18"/>
<text text-anchor="middle" x="1473.07" y="-453.32" font-family="Times,serif" font-size="14.00">kaolin</text>
</a>
</g>
</g>
<!-- pytorch&#45;cpu&#45;&gt;kaolin -->
<g id="edge35" class="edge">
<title>pytorch&#45;cpu&#45;&gt;kaolin</title>
<path fill="none" stroke="black" d="M1736.57,-667.28C1662.18,-660.42 1558.69,-646.4 1528.07,-620 1517.68,-611.04 1493.4,-530.26 1480.86,-486.64"/>
<polygon fill="black" stroke="black" points="1483.98,-485.82 1477.87,-477.17 1477.25,-487.75 1483.98,-485.82"/>
</g>
<!-- nnpops -->
<g id="node29" class="node">
<title>nnpops</title>
<g id="a_node29"><a xlink:href="https://github.com/conda-forge/nnpops-feedstock" xlink:title="nnpops">
<ellipse fill="#fde725" stroke="black" cx="1405.07" cy="-242" rx="47.53" ry="18"/>
<text text-anchor="middle" x="1405.07" y="-237.32" font-family="Times,serif" font-size="14.00">nnpops</text>
</a>
</g>
</g>
<!-- pytorch&#45;cpu&#45;&gt;nnpops -->
<g id="edge36" class="edge">
<title>pytorch&#45;cpu&#45;&gt;nnpops</title>
<path fill="none" stroke="black" d="M1732.34,-670.64C1590.21,-665.79 1316.33,-652.33 1287.07,-620 1262.68,-593.05 1359.6,-352.23 1393.64,-270.21"/>
<polygon fill="black" stroke="black" points="1397.22,-271.74 1397.83,-261.16 1390.76,-269.05 1397.22,-271.74"/>
</g>
<!-- triton -->
<g id="node30" class="node">
<title>triton</title>
<g id="a_node30"><a xlink:href="https://github.com/conda-forge/triton-feedstock" xlink:title="triton">
<ellipse fill="#fde725" stroke="black" cx="1648.07" cy="-386" rx="39.63" ry="18"/>
<text text-anchor="middle" x="1648.07" y="-381.32" font-family="Times,serif" font-size="14.00">triton</text>
</a>
</g>
</g>
<!-- pytorch&#45;cpu&#45;&gt;triton -->
<g id="edge37" class="edge">
<title>pytorch&#45;cpu&#45;&gt;triton</title>
<path fill="none" stroke="black" d="M1751.45,-662.13C1705.94,-653.1 1651.07,-638.72 1637.07,-620 1591.28,-558.78 1619.01,-461.13 1636.73,-414.08"/>
<polygon fill="black" stroke="black" points="1640.27,-415.64 1640.65,-405.05 1633.75,-413.09 1640.27,-415.64"/>
</g>
<!-- molgrid -->
<g id="node31" class="node">
<title>molgrid</title>
<g id="a_node31"><a xlink:href="https://github.com/conda-forge/molgrid-feedstock" xlink:title="molgrid">
<ellipse fill="#fde725" stroke="black" cx="1580.07" cy="-314" rx="50.16" ry="18"/>
<text text-anchor="middle" x="1580.07" y="-309.32" font-family="Times,serif" font-size="14.00">molgrid</text>
</a>
</g>
</g>
<!-- pytorch&#45;cpu&#45;&gt;molgrid -->
<g id="edge39" class="edge">
<title>pytorch&#45;cpu&#45;&gt;molgrid</title>
<path fill="none" stroke="black" d="M1734.66,-668.56C1694.4,-662.46 1647.73,-649.02 1615.07,-620 1583.3,-591.77 1580.07,-573.5 1580.07,-531 1580.07,-531 1580.07,-531 1580.07,-457 1580.07,-417.57 1580.07,-371.97 1580.07,-343.31"/>
<polygon fill="black" stroke="black" points="1583.57,-343.49 1580.07,-333.49 1576.57,-343.49 1583.57,-343.49"/>
</g>
<!-- theseus&#45;ai -->
<g id="node32" class="node">
<title>theseus&#45;ai</title>
<g id="a_node32"><a xlink:href="https://github.com/conda-forge/theseus-ai-feedstock" xlink:title="theseus ai">
<ellipse fill="#fde725" stroke="black" cx="1708.07" cy="-602" rx="62.26" ry="18"/>
<text text-anchor="middle" x="1708.07" y="-597.33" font-family="Times,serif" font-size="14.00">theseus ai</text>
</a>
</g>
</g>
<!-- pytorch&#45;cpu&#45;&gt;theseus&#45;ai -->
<g id="edge40" class="edge">
<title>pytorch&#45;cpu&#45;&gt;theseus&#45;ai</title>
<path fill="none" stroke="black" d="M1791.24,-656.41C1776.4,-646.88 1757.59,-634.8 1741.62,-624.55"/>
<polygon fill="black" stroke="black" points="1743.9,-621.21 1733.6,-618.75 1740.12,-627.1 1743.9,-621.21"/>
</g>
<!-- pyg&#45;lib -->
<g id="node33" class="node">
<title>pyg&#45;lib</title>
<g id="a_node33"><a xlink:href="https://github.com/conda-forge/pyg-lib-feedstock" xlink:title="pyg lib">
<ellipse fill="#fde725" stroke="black" cx="1705.07" cy="-314" rx="45.42" ry="18"/>
<text text-anchor="middle" x="1705.07" y="-309.32" font-family="Times,serif" font-size="14.00">pyg lib</text>
</a>
</g>
</g>
<!-- pytorch&#45;cpu&#45;&gt;pyg&#45;lib -->
<g id="edge41" class="edge">
<title>pytorch&#45;cpu&#45;&gt;pyg&#45;lib</title>
<path fill="none" stroke="black" d="M1813.46,-655.62C1808.62,-636.08 1798.31,-604.43 1779.07,-584 1754.55,-557.95 1726.01,-578.35 1707.07,-548 1696.5,-531.06 1701.04,-401.71 1703.68,-343.37"/>
<polygon fill="black" stroke="black" points="1707.22,-343.54 1704.19,-333.39 1700.23,-343.22 1707.22,-343.54"/>
</g>
<!-- deepspeed -->
<g id="node34" class="node">
<title>deepspeed</title>
<g id="a_node34"><a xlink:href="https://github.com/conda-forge/deepspeed-feedstock" xlink:title="deepspeed">
<ellipse fill="#fde725" stroke="black" cx="1781.07" cy="-530" rx="64.89" ry="18"/>
<text text-anchor="middle" x="1781.07" y="-525.33" font-family="Times,serif" font-size="14.00">deepspeed</text>
</a>
</g>
</g>
<!-- pytorch&#45;cpu&#45;&gt;deepspeed -->
<g id="edge42" class="edge">
<title>pytorch&#45;cpu&#45;&gt;deepspeed</title>
<path fill="none" stroke="black" d="M1818.47,-655.52C1819.39,-637.27 1819.31,-608 1812.07,-584 1809.24,-574.61 1804.44,-565.12 1799.46,-556.82"/>
<polygon fill="black" stroke="black" points="1801.96,-555.24 1793.62,-548.7 1796.06,-559.01 1801.96,-555.24"/>
</g>
<!-- xformers -->
<g id="node35" class="node">
<title>xformers</title>
<g id="a_node35"><a xlink:href="https://github.com/conda-forge/xformers-feedstock" xlink:title="xformers">
<ellipse fill="#fde725" stroke="black" cx="1828.07" cy="-458" rx="56.47" ry="18"/>
<text text-anchor="middle" x="1828.07" y="-453.32" font-family="Times,serif" font-size="14.00">xformers</text>
</a>
</g>
</g>
<!-- pytorch&#45;cpu&#45;&gt;xformers -->
<g id="edge43" class="edge">
<title>pytorch&#45;cpu&#45;&gt;xformers</title>
<path fill="none" stroke="black" d="M1826.36,-656.07C1841.27,-626.72 1867.67,-564.5 1855.07,-512 1852.88,-502.86 1848.83,-493.52 1844.53,-485.28"/>
<polygon fill="black" stroke="black" points="1847.2,-483.88 1839.26,-476.86 1841.09,-487.3 1847.2,-483.88"/>
</g>
<!-- bitsandbytes -->
<g id="node36" class="node">
<title>bitsandbytes</title>
<g id="a_node36"><a xlink:href="https://github.com/conda-forge/bitsandbytes-feedstock" xlink:title="bitsandbytes">
<ellipse fill="#fde725" stroke="black" cx="1846.07" cy="-386" rx="75.94" ry="18"/>
<text text-anchor="middle" x="1846.07" y="-381.32" font-family="Times,serif" font-size="14.00">bitsandbytes</text>
</a>
</g>
</g>
<!-- pytorch&#45;cpu&#45;&gt;bitsandbytes -->
<g id="edge44" class="edge">
<title>pytorch&#45;cpu&#45;&gt;bitsandbytes</title>
<path fill="none" stroke="black" d="M1834.46,-656.35C1843.68,-646.58 1854.44,-633.53 1861.07,-620 1889.93,-561.13 1885.92,-541.17 1893.07,-476 1894.82,-460.1 1898.75,-454.96 1893.07,-440 1889.01,-429.31 1881.7,-419.39 1874.03,-411.09"/>
<polygon fill="black" stroke="black" points="1876.89,-408.99 1867.36,-404.37 1871.93,-413.93 1876.89,-408.99"/>
</g>
<!-- abacus -->
<g id="node37" class="node">
<title>abacus</title>
<g id="a_node37"><a xlink:href="https://github.com/conda-forge/abacus-feedstock" xlink:title="abacus">
<ellipse fill="#fde725" stroke="black" cx="2697.07" cy="-602" rx="45.95" ry="18"/>
<text text-anchor="middle" x="2697.07" y="-597.33" font-family="Times,serif" font-size="14.00">abacus</text>
</a>
</g>
</g>
<!-- pytorch&#45;cpu&#45;&gt;abacus -->
<g id="edge45" class="edge">
<title>pytorch&#45;cpu&#45;&gt;abacus</title>
<path fill="none" stroke="black" d="M1901.35,-670.11C2082.07,-663.49 2501.8,-645.81 2642.07,-620 2645.72,-619.33 2649.47,-618.49 2653.21,-617.56"/>
<polygon fill="black" stroke="black" points="2653.92,-620.72 2662.64,-614.7 2652.08,-613.97 2653.92,-620.72"/>
</g>
<!-- carterbox&#45;torch&#45;radon -->
<g id="node38" class="node">
<title>carterbox&#45;torch&#45;radon</title>
<g id="a_node38"><a xlink:href="https://github.com/conda-forge/carterbox-torch-radon-feedstock" xlink:title="carterbox torch radon">
<ellipse fill="#fde725" stroke="black" cx="1950.07" cy="-314" rx="121.18" ry="18"/>
<text text-anchor="middle" x="1950.07" y="-309.32" font-family="Times,serif" font-size="14.00">carterbox torch radon</text>
</a>
</g>
</g>
<!-- pytorch&#45;cpu&#45;&gt;carterbox&#45;torch&#45;radon -->
<g id="edge46" class="edge">
<title>pytorch&#45;cpu&#45;&gt;carterbox&#45;torch&#45;radon</title>
<path fill="none" stroke="black" d="M1848.93,-656.91C1888.28,-634.51 1950.07,-589.94 1950.07,-531 1950.07,-531 1950.07,-531 1950.07,-457 1950.07,-417.57 1950.07,-371.97 1950.07,-343.31"/>
<polygon fill="black" stroke="black" points="1953.57,-343.49 1950.07,-333.49 1946.57,-343.49 1953.57,-343.49"/>
</g>
<!-- dgl -->
<g id="node39" class="node">
<title>dgl</title>
<g id="a_node39"><a xlink:href="https://github.com/conda-forge/dgl-feedstock" xlink:title="dgl">
<ellipse fill="#fde725" stroke="black" cx="2005.07" cy="-602" rx="27.01" ry="18"/>
<text text-anchor="middle" x="2005.07" y="-597.33" font-family="Times,serif" font-size="14.00">dgl</text>
</a>
</g>
</g>
<!-- pytorch&#45;cpu&#45;&gt;dgl -->
<g id="edge47" class="edge">
<title>pytorch&#45;cpu&#45;&gt;dgl</title>
<path fill="none" stroke="black" d="M1860.37,-657.99C1889.75,-647.66 1929.41,-633.42 1964.07,-620 1966.81,-618.94 1969.64,-617.82 1972.47,-616.68"/>
<polygon fill="black" stroke="black" points="1973.66,-619.57 1981.59,-612.54 1971.01,-613.09 1973.66,-619.57"/>
</g>
<!-- pytorch_scatter&#45;&gt;pytorch_sparse -->
<g id="edge48" class="edge">
<title>pytorch_scatter&#45;&gt;pytorch_sparse</title>
<path fill="none" stroke="black" d="M1084.41,-440.59C1068.43,-431.11 1048.13,-419.07 1030.82,-408.8"/>
<polygon fill="black" stroke="black" points="1032.95,-405.4 1022.56,-403.31 1029.38,-411.42 1032.95,-405.4"/>
</g>
<!-- torchani&#45;&gt;nnpops -->
<g id="edge49" class="edge">
<title>torchani&#45;&gt;nnpops</title>
<path fill="none" stroke="black" d="M1436.15,-296.05C1431.41,-287.97 1425.64,-278.12 1420.37,-269.11"/>
<polygon fill="black" stroke="black" points="1422.98,-267.65 1414.91,-260.79 1416.94,-271.19 1422.98,-267.65"/>
</g>
<!-- triton&#45;&gt;pyg&#45;lib -->
<g id="edge50" class="edge">
<title>triton&#45;&gt;pyg&#45;lib</title>
<path fill="none" stroke="black" d="M1661.29,-368.76C1668.24,-360.23 1676.91,-349.58 1684.7,-340.02"/>
<polygon fill="black" stroke="black" points="1687.93,-342.6 1691.53,-332.63 1682.5,-338.18 1687.93,-342.6"/>
</g>
<!-- libxc -->
<g id="node40" class="node">
<title>libxc</title>
<g id="a_node40"><a xlink:href="https://github.com/conda-forge/libxc-feedstock/pull/58" xlink:title="libxc ✓">
<ellipse fill="#31688e" stroke="black" cx="2697.07" cy="-674" rx="42.79" ry="18"/>
<text text-anchor="middle" x="2697.07" y="-669.33" font-family="Times,serif" font-size="14.00" fill="white">libxc ✓</text>
</a>
</g>
</g>
<!-- libxc&#45;&gt;abacus -->
<g id="edge51" class="edge">
<title>libxc&#45;&gt;abacus</title>
<path fill="none" stroke="black" d="M2697.07,-655.7C2697.07,-648.24 2697.07,-639.32 2697.07,-630.97"/>
<polygon fill="black" stroke="black" points="2700.57,-631.1 2697.07,-621.1 2693.57,-631.1 2700.57,-631.1"/>
</g>
<!-- deepmd&#45;kit -->
<g id="node41" class="node">
<title>deepmd&#45;kit</title>
<g id="a_node41"><a xlink:href="https://github.com/conda-forge/deepmd-kit-feedstock/pull/59" xlink:title="deepmd kit ❎">
<ellipse fill="#31688e" stroke="black" cx="3210.07" cy="-854" rx="82.77" ry="18"/>
<text text-anchor="middle" x="3210.07" y="-849.33" font-family="Times,serif" font-size="14.00" fill="white">deepmd kit ❎</text>
</a>
</g>
</g>
<!-- onnxruntime -->
<g id="node42" class="node">
<title>onnxruntime</title>
<g id="a_node42"><a xlink:href="https://github.com/conda-forge/onnxruntime-feedstock/pull/79" xlink:title="onnxruntime ❎">
<ellipse fill="#31688e" stroke="black" cx="3210.07" cy="-782" rx="90.67" ry="18"/>
<text text-anchor="middle" x="3210.07" y="-777.33" font-family="Times,serif" font-size="14.00" fill="white">onnxruntime ❎</text>
</a>
</g>
</g>
<!-- deepmd&#45;kit&#45;&gt;onnxruntime -->
<!-- cudadecon -->
<g id="node49" class="node">
<title>cudadecon</title>
<g id="a_node49"><a xlink:href="https://github.com/conda-forge/cudadecon-feedstock/pull/22" xlink:title="cudadecon ❎">
<ellipse fill="#31688e" stroke="black" cx="3210.07" cy="-710" rx="79.62" ry="18"/>
<text text-anchor="middle" x="3210.07" y="-705.33" font-family="Times,serif" font-size="14.00" fill="white">cudadecon ❎</text>
</a>
</g>
</g>
<!-- onnxruntime&#45;&gt;cudadecon -->
<!-- pp&#45;sketchlib -->
<g id="node43" class="node">
<title>pp&#45;sketchlib</title>
<g id="a_node43"><a xlink:href="https://github.com/conda-forge/pp-sketchlib-feedstock/pull/45" xlink:title="pp sketchlib ❎">
<ellipse fill="#31688e" stroke="black" cx="3454.07" cy="-530" rx="87.51" ry="18"/>
<text text-anchor="middle" x="3454.07" y="-525.33" font-family="Times,serif" font-size="14.00" fill="white">pp sketchlib ❎</text>
</a>
</g>
</g>
<!-- mandrake -->
<g id="node44" class="node">
<title>mandrake</title>
<g id="a_node44"><a xlink:href="https://github.com/conda-forge/mandrake-feedstock" xlink:title="mandrake">
<ellipse fill="#fde725" stroke="black" cx="3454.07" cy="-458" rx="61.2" ry="18"/>
<text text-anchor="middle" x="3454.07" y="-453.32" font-family="Times,serif" font-size="14.00">mandrake</text>
</a>
</g>
</g>
<!-- pp&#45;sketchlib&#45;&gt;mandrake -->
<g id="edge53" class="edge">
<title>pp&#45;sketchlib&#45;&gt;mandrake</title>
<path fill="none" stroke="black" d="M3454.07,-511.7C3454.07,-504.24 3454.07,-495.32 3454.07,-486.97"/>
<polygon fill="black" stroke="black" points="3457.57,-487.1 3454.07,-477.1 3450.57,-487.1 3457.57,-487.1"/>
</g>
<!-- faiss&#45;split -->
<g id="node45" class="node">
<title>faiss&#45;split</title>
<g id="a_node45"><a xlink:href="https://github.com/conda-forge/faiss-split-feedstock/pull/70" xlink:title="faiss split ❎">
<ellipse fill="#31688e" stroke="black" cx="2930.07" cy="-602" rx="74.88" ry="18"/>
<text text-anchor="middle" x="2930.07" y="-597.33" font-family="Times,serif" font-size="14.00" fill="white">faiss split ❎</text>
</a>
</g>
</g>
<!-- faiss&#45;split&#45;&gt;graphvite -->
<g id="edge54" class="edge">
<title>faiss&#45;split&#45;&gt;graphvite</title>
<path fill="none" stroke="black" d="M2913.85,-584.05C2905.71,-575.54 2895.68,-565.07 2886.7,-555.68"/>
<polygon fill="black" stroke="black" points="2889.58,-553.59 2880.14,-548.79 2884.53,-558.43 2889.58,-553.59"/>
</g>
<!-- tsnecuda -->
<g id="node46" class="node">
<title>tsnecuda</title>
<g id="a_node46"><a xlink:href="https://github.com/conda-forge/tsnecuda-feedstock" xlink:title="tsnecuda">
<ellipse fill="#fde725" stroke="black" cx="2997.07" cy="-530" rx="56.47" ry="18"/>
<text text-anchor="middle" x="2997.07" y="-525.33" font-family="Times,serif" font-size="14.00">tsnecuda</text>
</a>
</g>
</g>
<!-- faiss&#45;split&#45;&gt;tsnecuda -->
<g id="edge55" class="edge">
<title>faiss&#45;split&#45;&gt;tsnecuda</title>
<path fill="none" stroke="black" d="M2946.29,-584.05C2954.64,-575.33 2964.97,-564.54 2974.12,-554.98"/>
<polygon fill="black" stroke="black" points="2976.08,-557.95 2980.46,-548.31 2971.02,-553.11 2976.08,-557.95"/>
</g>
<!-- libtvm -->
<g id="node47" class="node">
<title>libtvm</title>
<g id="a_node47"><a xlink:href="https://github.com/conda-forge/libtvm-feedstock/pull/32" xlink:title="libtvm ❎">
<ellipse fill="#31688e" stroke="black" cx="1526.07" cy="-90" rx="58.57" ry="18"/>
<text text-anchor="middle" x="1526.07" y="-85.33" font-family="Times,serif" font-size="14.00" fill="white">libtvm ❎</text>
</a>
</g>
</g>
<!-- tvm&#45;py -->
<g id="node48" class="node">
<title>tvm&#45;py</title>
<g id="a_node48"><a xlink:href="https://github.com/conda-forge/tvm-py-feedstock" xlink:title="tvm py">
<ellipse fill="#fde725" stroke="black" cx="1526.07" cy="-18" rx="45.95" ry="18"/>
<text text-anchor="middle" x="1526.07" y="-13.32" font-family="Times,serif" font-size="14.00">tvm py</text>
</a>
</g>
</g>
<!-- libtvm&#45;&gt;tvm&#45;py -->
<g id="edge56" class="edge">
<title>libtvm&#45;&gt;tvm&#45;py</title>
<path fill="none" stroke="black" d="M1526.07,-71.7C1526.07,-64.24 1526.07,-55.32 1526.07,-46.97"/>
<polygon fill="black" stroke="black" points="1529.57,-47.1 1526.07,-37.1 1522.57,-47.1 1529.57,-47.1"/>
</g>
<!-- timemory -->
<g id="node50" class="node">
<title>timemory</title>
<g id="a_node50"><a xlink:href="https://github.com/conda-forge/timemory-feedstock" xlink:title="timemory">
<ellipse fill="#000000" stroke="black" cx="3210.07" cy="-638" rx="59.63" ry="18"/>
<text text-anchor="middle" x="3210.07" y="-633.33" font-family="Times,serif" font-size="14.00" fill="white">timemory</text>
</a>
</g>
</g>
<!-- cudadecon&#45;&gt;timemory -->
<!-- rmm -->
<g id="node51" class="node">
<title>rmm</title>
<g id="a_node51"><a xlink:href="https://github.com/conda-forge/rmm-feedstock" xlink:title="rmm">
<ellipse fill="#ff8c00" stroke="black" cx="3210.07" cy="-566" rx="34.9" ry="18"/>
<text text-anchor="middle" x="3210.07" y="-561.33" font-family="Times,serif" font-size="14.00">rmm</text>
</a>
</g>
</g>
<!-- timemory&#45;&gt;rmm -->
<!-- pyscamp&#45;gpu -->
<g id="node52" class="node">
<title>pyscamp&#45;gpu</title>
<g id="a_node52"><a xlink:href="https://github.com/conda-forge/pyscamp-gpu-feedstock/pull/8" xlink:title="pyscamp gpu ❎">
<ellipse fill="#31688e" stroke="black" cx="3210.07" cy="-494" rx="92.77" ry="18"/>
<text text-anchor="middle" x="3210.07" y="-489.32" font-family="Times,serif" font-size="14.00" fill="white">pyscamp gpu ❎</text>
</a>
</g>
</g>
<!-- rmm&#45;&gt;pyscamp&#45;gpu -->
<!-- heavydb&#45;ext -->
<g id="node53" class="node">
<title>heavydb&#45;ext</title>
<g id="a_node53"><a xlink:href="https://github.com/conda-forge/heavydb-ext-feedstock/pull/55" xlink:title="heavydb ext ❎">
<ellipse fill="#31688e" stroke="black" cx="3210.07" cy="-422" rx="87.51" ry="18"/>
<text text-anchor="middle" x="3210.07" y="-417.32" font-family="Times,serif" font-size="14.00" fill="white">heavydb ext ❎</text>
</a>
</g>
</g>
<!-- pyscamp&#45;gpu&#45;&gt;heavydb&#45;ext -->
<!-- hdk -->
<g id="node54" class="node">
<title>hdk</title>
<g id="a_node54"><a xlink:href="https://github.com/conda-forge/hdk-feedstock/pull/50" xlink:title="hdk ❎">
<ellipse fill="#31688e" stroke="black" cx="3210.07" cy="-350" rx="44.9" ry="18"/>
<text text-anchor="middle" x="3210.07" y="-345.32" font-family="Times,serif" font-size="14.00" fill="white">hdk ❎</text>
</a>
</g>
</g>
<!-- heavydb&#45;ext&#45;&gt;hdk -->
<!-- katago -->
<g id="node55" class="node">
<title>katago</title>
<g id="a_node55"><a xlink:href="https://github.com/conda-forge/katago-feedstock/pull/7" xlink:title="katago ✓">
<ellipse fill="#31688e" stroke="black" cx="3210.07" cy="-278" rx="52.79" ry="18"/>
<text text-anchor="middle" x="3210.07" y="-273.32" font-family="Times,serif" font-size="14.00" fill="white">katago ✓</text>
</a>
</g>
</g>
<!-- hdk&#45;&gt;katago -->
<!-- pennylane&#45;lightning&#45;gpu -->
<g id="node56" class="node">
<title>pennylane&#45;lightning&#45;gpu</title>
<g id="a_node56"><a xlink:href="https://github.com/conda-forge/pennylane-lightning-gpu-feedstock/pull/14" xlink:title="pennylane lightning gpu ❎">
<ellipse fill="#31688e" stroke="black" cx="3210.07" cy="-206" rx="148.54" ry="18"/>
<text text-anchor="middle" x="3210.07" y="-201.33" font-family="Times,serif" font-size="14.00" fill="white">pennylane lightning gpu ❎</text>
</a>
</g>
</g>
<!-- katago&#45;&gt;pennylane&#45;lightning&#45;gpu -->
<!-- tomocupy -->
<g id="node57" class="node">
<title>tomocupy</title>
<g id="a_node57"><a xlink:href="https://github.com/conda-forge/tomocupy-feedstock/pull/19" xlink:title="tomocupy ✓">
<ellipse fill="#31688e" stroke="black" cx="3210.07" cy="-134" rx="68.04" ry="18"/>
<text text-anchor="middle" x="3210.07" y="-129.32" font-family="Times,serif" font-size="14.00" fill="white">tomocupy ✓</text>
</a>
</g>
</g>
<!-- pennylane&#45;lightning&#45;gpu&#45;&gt;tomocupy -->
</g>
</svg>
