<?xml version="1.0" encoding="UTF-8" standalone="no"?>
<!DOCTYPE svg PUBLIC "-//W3C//DTD SVG 1.1//EN"
 "http://www.w3.org/Graphics/SVG/1.1/DTD/svg11.dtd">
<!-- Generated by graphviz version 8.1.0 (20230707.2238)
 -->
<!-- Pages: 1 -->
<svg width="3365pt" height="952pt"
 viewBox="0.00 0.00 3364.77 952.00" xmlns="http://www.w3.org/2000/svg" xmlns:xlink="http://www.w3.org/1999/xlink">
<g id="graph0" class="graph" transform="scale(1 1) rotate(0) translate(4 948)">
<polygon fill="white" stroke="none" points="-4,4 -4,-948 3360.77,-948 3360.77,4 -4,4"/>
<!-- torchvision -->
<g id="node1" class="node">
<title>torchvision</title>
<g id="a_node1"><a xlink:href="https://github.com/conda-forge/torchvision-feedstock" xlink:title="torchvision">
<ellipse fill="#fde725" stroke="black" cx="430.94" cy="-710" rx="66.99" ry="18"/>
<text text-anchor="middle" x="430.94" y="-705.33" font-family="Times,serif" font-size="14.00">torchvision</text>
</a>
</g>
</g>
<!-- detectron2 -->
<g id="node2" class="node">
<title>detectron2</title>
<g id="a_node2"><a xlink:href="https://github.com/conda-forge/detectron2-feedstock" xlink:title="detectron2">
<ellipse fill="#fde725" stroke="black" cx="65.94" cy="-638" rx="65.94" ry="18"/>
<text text-anchor="middle" x="65.94" y="-633.33" font-family="Times,serif" font-size="14.00">detectron2</text>
</a>
</g>
</g>
<!-- torchvision&#45;&gt;detectron2 -->
<g id="edge1" class="edge">
<title>torchvision&#45;&gt;detectron2</title>
<path fill="none" stroke="black" d="M375.48,-699.58C317.02,-689.48 222.29,-672.65 140.94,-656 135.89,-654.97 130.66,-653.86 125.42,-652.72"/>
<polygon fill="black" stroke="black" points="126.21,-649.09 115.69,-650.36 124.71,-655.93 126.21,-649.09"/>
</g>
<!-- fcos -->
<g id="node3" class="node">
<title>fcos</title>
<g id="a_node3"><a xlink:href="https://github.com/conda-forge/fcos-feedstock" xlink:title="fcos">
<ellipse fill="#fde725" stroke="black" cx="180.94" cy="-638" rx="31.22" ry="18"/>
<text text-anchor="middle" x="180.94" y="-633.33" font-family="Times,serif" font-size="14.00">fcos</text>
</a>
</g>
</g>
<!-- torchvision&#45;&gt;fcos -->
<g id="edge2" class="edge">
<title>torchvision&#45;&gt;fcos</title>
<path fill="none" stroke="black" d="M378.94,-698.23C336.05,-688.79 273.86,-673.81 220.94,-656 218.95,-655.33 216.93,-654.61 214.9,-653.85"/>
<polygon fill="black" stroke="black" points="216.41,-650.29 205.82,-649.86 213.83,-656.8 216.41,-650.29"/>
</g>
<!-- fairscale -->
<g id="node4" class="node">
<title>fairscale</title>
<g id="a_node4"><a xlink:href="https://github.com/conda-forge/fairscale-feedstock" xlink:title="fairscale">
<ellipse fill="#fde725" stroke="black" cx="283.94" cy="-638" rx="53.84" ry="18"/>
<text text-anchor="middle" x="283.94" y="-633.33" font-family="Times,serif" font-size="14.00">fairscale</text>
</a>
</g>
</g>
<!-- torchvision&#45;&gt;fairscale -->
<g id="edge3" class="edge">
<title>torchvision&#45;&gt;fairscale</title>
<path fill="none" stroke="black" d="M399.04,-693.81C376.88,-683.26 347.18,-669.12 323.51,-657.84"/>
<polygon fill="black" stroke="black" points="325.3,-654.34 314.77,-653.21 322.29,-660.66 325.3,-654.34"/>
</g>
<!-- graphvite -->
<g id="node5" class="node">
<title>graphvite</title>
<g id="a_node5"><a xlink:href="https://github.com/conda-forge/graphvite-feedstock" xlink:title="graphvite">
<ellipse fill="#fde725" stroke="black" cx="726.94" cy="-638" rx="59.63" ry="18"/>
<text text-anchor="middle" x="726.94" y="-633.33" font-family="Times,serif" font-size="14.00">graphvite</text>
</a>
</g>
</g>
<!-- torchvision&#45;&gt;graphvite -->
<g id="edge4" class="edge">
<title>torchvision&#45;&gt;graphvite</title>
<path fill="none" stroke="black" d="M480.58,-697.59C526.59,-686.98 596.94,-670.63 657.94,-656 662.33,-654.95 666.87,-653.85 671.43,-652.74"/>
<polygon fill="black" stroke="black" points="672.16,-655.92 681.05,-650.14 670.5,-649.12 672.16,-655.92"/>
</g>
<!-- mmcv&#45;recipe -->
<g id="node6" class="node">
<title>mmcv&#45;recipe</title>
<g id="a_node6"><a xlink:href="https://github.com/conda-forge/mmcv-recipe-feedstock" xlink:title="mmcv recipe">
<ellipse fill="#fde725" stroke="black" cx="430.94" cy="-638" rx="75.41" ry="18"/>
<text text-anchor="middle" x="430.94" y="-633.33" font-family="Times,serif" font-size="14.00">mmcv recipe</text>
</a>
</g>
</g>
<!-- torchvision&#45;&gt;mmcv&#45;recipe -->
<g id="edge5" class="edge">
<title>torchvision&#45;&gt;mmcv&#45;recipe</title>
<path fill="none" stroke="black" d="M430.94,-691.7C430.94,-684.24 430.94,-675.32 430.94,-666.97"/>
<polygon fill="black" stroke="black" points="434.44,-667.1 430.94,-657.1 427.44,-667.1 434.44,-667.1"/>
</g>
<!-- pytorch3d -->
<g id="node7" class="node">
<title>pytorch3d</title>
<g id="a_node7"><a xlink:href="https://github.com/conda-forge/pytorch3d-feedstock" xlink:title="pytorch3d">
<ellipse fill="#fde725" stroke="black" cx="586.94" cy="-638" rx="62.26" ry="18"/>
<text text-anchor="middle" x="586.94" y="-633.33" font-family="Times,serif" font-size="14.00">pytorch3d</text>
</a>
</g>
</g>
<!-- torchvision&#45;&gt;pytorch3d -->
<g id="edge6" class="edge">
<title>torchvision&#45;&gt;pytorch3d</title>
<path fill="none" stroke="black" d="M464.41,-693.98C487.7,-683.53 518.95,-669.51 544.07,-658.24"/>
<polygon fill="black" stroke="black" points="545.37,-661.04 553.06,-653.75 542.51,-654.65 545.37,-661.04"/>
</g>
<!-- tensorflow -->
<g id="node8" class="node">
<title>tensorflow</title>
<g id="a_node8"><a xlink:href="https://github.com/conda-forge/tensorflow-feedstock" xlink:title="tensorflow">
<ellipse fill="#fde725" stroke="black" cx="3292.94" cy="-566" rx="63.84" ry="18"/>
<text text-anchor="middle" x="3292.94" y="-561.33" font-family="Times,serif" font-size="14.00">tensorflow</text>
</a>
</g>
</g>
<!-- deepmd&#45;kit -->
<g id="node9" class="node">
<title>deepmd&#45;kit</title>
<g id="a_node9"><a xlink:href="https://github.com/conda-forge/deepmd-kit-feedstock" xlink:title="deepmd kit">
<ellipse fill="#fde725" stroke="black" cx="3225.94" cy="-494" rx="67.52" ry="18"/>
<text text-anchor="middle" x="3225.94" y="-489.32" font-family="Times,serif" font-size="14.00">deepmd kit</text>
</a>
</g>
</g>
<!-- tensorflow&#45;&gt;deepmd&#45;kit -->
<g id="edge7" class="edge">
<title>tensorflow&#45;&gt;deepmd&#45;kit</title>
<path fill="none" stroke="black" d="M3277.06,-548.41C3268.84,-539.82 3258.63,-529.16 3249.51,-519.63"/>
<polygon fill="black" stroke="black" points="3252.61,-517.76 3243.17,-512.96 3247.55,-522.6 3252.61,-517.76"/>
</g>
<!-- lammps -->
<g id="node10" class="node">
<title>lammps</title>
<g id="a_node10"><a xlink:href="https://github.com/conda-forge/lammps-feedstock" xlink:title="lammps">
<ellipse fill="#000000" stroke="black" cx="3159.94" cy="-566" rx="50.68" ry="18"/>
<text text-anchor="middle" x="3159.94" y="-561.33" font-family="Times,serif" font-size="14.00" fill="white">lammps</text>
</a>
</g>
</g>
<!-- lammps&#45;&gt;deepmd&#45;kit -->
<g id="edge8" class="edge">
<title>lammps&#45;&gt;deepmd&#45;kit</title>
<path fill="none" stroke="black" d="M3175.58,-548.41C3183.6,-539.91 3193.53,-529.37 3202.45,-519.91"/>
<polygon fill="black" stroke="black" points="3204.64,-522.63 3208.95,-512.96 3199.55,-517.83 3204.64,-522.63"/>
</g>
<!-- pytorch&#45;cpu -->
<g id="node11" class="node">
<title>pytorch&#45;cpu</title>
<g id="a_node11"><a xlink:href="https://github.com/conda-forge/pytorch-cpu-feedstock/pull/171" xlink:title="pytorch cpu ❎">
<ellipse fill="#31688e" stroke="black" cx="1394.94" cy="-782" rx="85.93" ry="18"/>
<text text-anchor="middle" x="1394.94" y="-777.33" font-family="Times,serif" font-size="14.00" fill="white">pytorch cpu ❎</text>
</a>
</g>
</g>
<!-- pytorch&#45;cpu&#45;&gt;torchvision -->
<g id="edge9" class="edge">
<title>pytorch&#45;cpu&#45;&gt;torchvision</title>
<path fill="none" stroke="black" d="M1310.38,-778.22C1157.07,-772.63 823.12,-757.92 542.94,-728 528.07,-726.41 512.15,-724.27 497.12,-722.04"/>
<polygon fill="black" stroke="black" points="497.77,-718.44 487.36,-720.4 496.72,-725.36 497.77,-718.44"/>
</g>
<!-- pytorch&#45;cpu&#45;&gt;detectron2 -->
<g id="edge10" class="edge">
<title>pytorch&#45;cpu&#45;&gt;detectron2</title>
<path fill="none" stroke="black" d="M1308.7,-781.65C1076.99,-782.65 444.9,-780.35 243.94,-728 190.15,-713.99 133.67,-682.44 99.13,-660.93"/>
<polygon fill="black" stroke="black" points="101.31,-657.54 90.98,-655.15 97.57,-663.45 101.31,-657.54"/>
</g>
<!-- pytorch&#45;cpu&#45;&gt;fcos -->
<g id="edge11" class="edge">
<title>pytorch&#45;cpu&#45;&gt;fcos</title>
<path fill="none" stroke="black" d="M1309.55,-779.48C1070.41,-774.84 405.38,-759.26 311.94,-728 269.95,-713.95 228.96,-682.37 204.32,-660.86"/>
<polygon fill="black" stroke="black" points="207.1,-658.77 197.31,-654.72 202.45,-663.99 207.1,-658.77"/>
</g>
<!-- pytorch&#45;cpu&#45;&gt;fairscale -->
<g id="edge12" class="edge">
<title>pytorch&#45;cpu&#45;&gt;fairscale</title>
<path fill="none" stroke="black" d="M1309.05,-780.64C1075.15,-779.11 438.73,-771 354.94,-728 328.8,-714.58 309.07,-686.73 297.13,-665.74"/>
<polygon fill="black" stroke="black" points="299.74,-664.2 291.9,-657.08 293.58,-667.54 299.74,-664.2"/>
</g>
<!-- pytorch&#45;cpu&#45;&gt;graphvite -->
<g id="edge13" class="edge">
<title>pytorch&#45;cpu&#45;&gt;graphvite</title>
<path fill="none" stroke="black" d="M1308.75,-780.68C1134.53,-779.12 753.55,-770.82 713.94,-728 698.75,-711.58 704.63,-685.67 712.76,-666.03"/>
<polygon fill="black" stroke="black" points="716.3,-667.69 717.25,-657.14 709.92,-664.8 716.3,-667.69"/>
</g>
<!-- pytorch&#45;cpu&#45;&gt;mmcv&#45;recipe -->
<g id="edge14" class="edge">
<title>pytorch&#45;cpu&#45;&gt;mmcv&#45;recipe</title>
<path fill="none" stroke="black" d="M1310.27,-778.59C1140.71,-773.18 765.05,-758.13 639.94,-728 577.78,-713.03 510.52,-681.32 469.56,-660.08"/>
<polygon fill="black" stroke="black" points="471.46,-656.61 460.98,-655.06 468.21,-662.8 471.46,-656.61"/>
</g>
<!-- pytorch&#45;cpu&#45;&gt;pytorch3d -->
<g id="edge15" class="edge">
<title>pytorch&#45;cpu&#45;&gt;pytorch3d</title>
<path fill="none" stroke="black" d="M1308.98,-780.6C1148.47,-778.84 809.6,-770.09 700.94,-728 664.81,-714.01 630.82,-684.55 609.52,-663.36"/>
<polygon fill="black" stroke="black" points="612.5,-661.38 603,-656.69 607.5,-666.28 612.5,-661.38"/>
</g>
<!-- nvidia&#45;apex -->
<g id="node12" class="node">
<title>nvidia&#45;apex</title>
<g id="a_node12"><a xlink:href="https://github.com/conda-forge/nvidia-apex-feedstock" xlink:title="nvidia apex">
<ellipse fill="#fde725" stroke="black" cx="791.94" cy="-710" rx="68.57" ry="18"/>
<text text-anchor="middle" x="791.94" y="-705.33" font-family="Times,serif" font-size="14.00">nvidia apex</text>
</a>
</g>
</g>
<!-- pytorch&#45;cpu&#45;&gt;nvidia&#45;apex -->
<g id="edge16" class="edge">
<title>pytorch&#45;cpu&#45;&gt;nvidia&#45;apex</title>
<path fill="none" stroke="black" d="M1313.91,-775.79C1210.28,-768.45 1025.5,-753.08 868.94,-728 863.5,-727.13 857.87,-726.11 852.25,-725.02"/>
<polygon fill="black" stroke="black" points="852.98,-721.39 842.48,-722.83 851.58,-728.25 852.98,-721.39"/>
</g>
<!-- pytorch_cluster -->
<g id="node13" class="node">
<title>pytorch_cluster</title>
<g id="a_node13"><a xlink:href="https://github.com/conda-forge/pytorch_cluster-feedstock" xlink:title="pytorch_cluster">
<ellipse fill="#fde725" stroke="black" cx="1024.94" cy="-638" rx="89.09" ry="18"/>
<text text-anchor="middle" x="1024.94" y="-633.33" font-family="Times,serif" font-size="14.00">pytorch_cluster</text>
</a>
</g>
</g>
<!-- pytorch&#45;cpu&#45;&gt;pytorch_cluster -->
<g id="edge17" class="edge">
<title>pytorch&#45;cpu&#45;&gt;pytorch_cluster</title>
<path fill="none" stroke="black" d="M1313.11,-776.06C1257.88,-770.1 1184.63,-756.96 1125.94,-728 1094.44,-712.46 1065.12,-684.49 1046.27,-664.04"/>
<polygon fill="black" stroke="black" points="1049.39,-662.16 1040.1,-657.07 1044.18,-666.85 1049.39,-662.16"/>
</g>
<!-- pytorch_scatter -->
<g id="node14" class="node">
<title>pytorch_scatter</title>
<g id="a_node14"><a xlink:href="https://github.com/conda-forge/pytorch_scatter-feedstock" xlink:title="pytorch_scatter">
<ellipse fill="#fde725" stroke="black" cx="1061.94" cy="-566" rx="89.61" ry="18"/>
<text text-anchor="middle" x="1061.94" y="-561.33" font-family="Times,serif" font-size="14.00">pytorch_scatter</text>
</a>
</g>
</g>
<!-- pytorch&#45;cpu&#45;&gt;pytorch_scatter -->
<g id="edge18" class="edge">
<title>pytorch&#45;cpu&#45;&gt;pytorch_scatter</title>
<path fill="none" stroke="black" d="M1322.64,-771.95C1264.03,-763.28 1187.44,-748.48 1163.94,-728 1125.23,-694.27 1152.32,-662.11 1122.94,-620 1115.23,-608.94 1104.71,-598.72 1094.58,-590.26"/>
<polygon fill="black" stroke="black" points="1097.23,-587.1 1087.23,-583.59 1092.86,-592.57 1097.23,-587.1"/>
</g>
<!-- pytorch_spline_conv -->
<g id="node15" class="node">
<title>pytorch_spline_conv</title>
<g id="a_node15"><a xlink:href="https://github.com/conda-forge/pytorch_spline_conv-feedstock" xlink:title="pytorch_spline_conv">
<ellipse fill="#fde725" stroke="black" cx="1279.94" cy="-494" rx="112.24" ry="18"/>
<text text-anchor="middle" x="1279.94" y="-489.32" font-family="Times,serif" font-size="14.00">pytorch_spline_conv</text>
</a>
</g>
</g>
<!-- pytorch&#45;cpu&#45;&gt;pytorch_spline_conv -->
<g id="edge19" class="edge">
<title>pytorch&#45;cpu&#45;&gt;pytorch_spline_conv</title>
<path fill="none" stroke="black" d="M1388.7,-763.83C1381.81,-745.58 1369.97,-716.09 1356.94,-692 1347.79,-675.09 1341.36,-673.29 1332.94,-656 1311.16,-611.27 1295.03,-555.4 1286.59,-522.61"/>
<polygon fill="black" stroke="black" points="1289.76,-521.88 1283.93,-513.04 1282.97,-523.59 1289.76,-521.88"/>
</g>
<!-- pytorch_sparse -->
<g id="node16" class="node">
<title>pytorch_sparse</title>
<g id="a_node16"><a xlink:href="https://github.com/conda-forge/pytorch_sparse-feedstock" xlink:title="pytorch_sparse">
<ellipse fill="#fde725" stroke="black" cx="1061.94" cy="-494" rx="87.51" ry="18"/>
<text text-anchor="middle" x="1061.94" y="-489.32" font-family="Times,serif" font-size="14.00">pytorch_sparse</text>
</a>
</g>
</g>
<!-- pytorch&#45;cpu&#45;&gt;pytorch_sparse -->
<g id="edge20" class="edge">
<title>pytorch&#45;cpu&#45;&gt;pytorch_sparse</title>
<path fill="none" stroke="black" d="M1327.04,-770.64C1277.04,-761.62 1214.77,-747.01 1196.94,-728 1141.13,-668.49 1209.55,-613.52 1160.94,-548 1150.12,-533.41 1134.06,-522.42 1118.01,-514.35"/>
<polygon fill="black" stroke="black" points="1119.61,-510.76 1109.07,-509.69 1116.64,-517.1 1119.61,-510.76"/>
</g>
<!-- torchani -->
<g id="node17" class="node">
<title>torchani</title>
<g id="a_node17"><a xlink:href="https://github.com/conda-forge/torchani-feedstock" xlink:title="torchani">
<ellipse fill="#fde725" stroke="black" cx="1506.94" cy="-422" rx="52.79" ry="18"/>
<text text-anchor="middle" x="1506.94" y="-417.32" font-family="Times,serif" font-size="14.00">torchani</text>
</a>
</g>
</g>
<!-- pytorch&#45;cpu&#45;&gt;torchani -->
<g id="edge21" class="edge">
<title>pytorch&#45;cpu&#45;&gt;torchani</title>
<path fill="none" stroke="black" d="M1448.52,-767.55C1507.16,-749.24 1592.94,-710.28 1592.94,-639 1592.94,-639 1592.94,-639 1592.94,-565 1592.94,-517.72 1557.63,-472.73 1532.26,-446.51"/>
<polygon fill="black" stroke="black" points="1535.3,-444.6 1525.76,-439.99 1530.35,-449.54 1535.3,-444.6"/>
</g>
<!-- openmm&#45;torch -->
<g id="node18" class="node">
<title>openmm&#45;torch</title>
<g id="a_node18"><a xlink:href="https://github.com/conda-forge/openmm-torch-feedstock" xlink:title="openmm torch">
<ellipse fill="#fde725" stroke="black" cx="2129.94" cy="-710" rx="83.83" ry="18"/>
<text text-anchor="middle" x="2129.94" y="-705.33" font-family="Times,serif" font-size="14.00">openmm torch</text>
</a>
</g>
</g>
<!-- pytorch&#45;cpu&#45;&gt;openmm&#45;torch -->
<g id="edge22" class="edge">
<title>pytorch&#45;cpu&#45;&gt;openmm&#45;torch</title>
<path fill="none" stroke="black" d="M1477.39,-776.48C1599.05,-769.29 1833.67,-753.39 2031.94,-728 2040.25,-726.94 2048.93,-725.66 2057.54,-724.3"/>
<polygon fill="black" stroke="black" points="2058.07,-727.6 2067.38,-722.54 2056.95,-720.69 2058.07,-727.6"/>
</g>
<!-- torchsparse -->
<g id="node19" class="node">
<title>torchsparse</title>
<g id="a_node19"><a xlink:href="https://github.com/conda-forge/torchsparse-feedstock" xlink:title="torchsparse">
<ellipse fill="#fde725" stroke="black" cx="1276.94" cy="-710" rx="70.68" ry="18"/>
<text text-anchor="middle" x="1276.94" y="-705.33" font-family="Times,serif" font-size="14.00">torchsparse</text>
</a>
</g>
</g>
<!-- pytorch&#45;cpu&#45;&gt;torchsparse -->
<g id="edge23" class="edge">
<title>pytorch&#45;cpu&#45;&gt;torchsparse</title>
<path fill="none" stroke="black" d="M1367.27,-764.59C1351.18,-755.04 1330.71,-742.9 1313.32,-732.58"/>
<polygon fill="black" stroke="black" points="1315.41,-729.16 1305.02,-727.07 1311.84,-735.18 1315.41,-729.16"/>
</g>
<!-- torch&#45;scatter -->
<g id="node20" class="node">
<title>torch&#45;scatter</title>
<g id="a_node20"><a xlink:href="https://github.com/conda-forge/torch-scatter-feedstock" xlink:title="torch scatter">
<ellipse fill="#fde725" stroke="black" cx="1450.94" cy="-638" rx="75.94" ry="18"/>
<text text-anchor="middle" x="1450.94" y="-633.33" font-family="Times,serif" font-size="14.00">torch scatter</text>
</a>
</g>
</g>
<!-- pytorch&#45;cpu&#45;&gt;torch&#45;scatter -->
<g id="edge24" class="edge">
<title>pytorch&#45;cpu&#45;&gt;torch&#45;scatter</title>
<path fill="none" stroke="black" d="M1407.34,-764.06C1414.22,-754 1422.47,-740.75 1427.94,-728 1436.39,-708.29 1442.3,-684.76 1446.02,-666.84"/>
<polygon fill="black" stroke="black" points="1449.61,-667.72 1448.1,-657.24 1442.74,-666.38 1449.61,-667.72"/>
</g>
<!-- kaolin -->
<g id="node21" class="node">
<title>kaolin</title>
<g id="a_node21"><a xlink:href="https://github.com/conda-forge/kaolin-feedstock" xlink:title="kaolin">
<ellipse fill="#fde725" stroke="black" cx="1523.94" cy="-566" rx="41.21" ry="18"/>
<text text-anchor="middle" x="1523.94" y="-561.33" font-family="Times,serif" font-size="14.00">kaolin</text>
</a>
</g>
</g>
<!-- pytorch&#45;cpu&#45;&gt;kaolin -->
<g id="edge25" class="edge">
<title>pytorch&#45;cpu&#45;&gt;kaolin</title>
<path fill="none" stroke="black" d="M1425.17,-764.79C1459.39,-744.52 1513.32,-706.27 1535.94,-656 1544.67,-636.6 1540.68,-612.59 1535.06,-594.41"/>
<polygon fill="black" stroke="black" points="1538.1,-593.5 1531.54,-585.19 1531.48,-595.78 1538.1,-593.5"/>
</g>
<!-- nnpops -->
<g id="node22" class="node">
<title>nnpops</title>
<g id="a_node22"><a xlink:href="https://github.com/conda-forge/nnpops-feedstock" xlink:title="nnpops">
<ellipse fill="#fde725" stroke="black" cx="1459.94" cy="-350" rx="47.53" ry="18"/>
<text text-anchor="middle" x="1459.94" y="-345.32" font-family="Times,serif" font-size="14.00">nnpops</text>
</a>
</g>
</g>
<!-- pytorch&#45;cpu&#45;&gt;nnpops -->
<g id="edge26" class="edge">
<title>pytorch&#45;cpu&#45;&gt;nnpops</title>
<path fill="none" stroke="black" d="M1393.09,-763.71C1390.9,-745.61 1386.68,-716.47 1379.94,-692 1375.38,-675.45 1369.1,-672.87 1365.94,-656 1362.99,-640.27 1363.26,-635.77 1365.94,-620 1370.12,-595.33 1426.39,-441.67 1449.82,-378.29"/>
<polygon fill="black" stroke="black" points="1453.35,-379.83 1453.54,-369.24 1446.78,-377.4 1453.35,-379.83"/>
</g>
<!-- triton -->
<g id="node23" class="node">
<title>triton</title>
<g id="a_node23"><a xlink:href="https://github.com/conda-forge/triton-feedstock" xlink:title="triton">
<ellipse fill="#fde725" stroke="black" cx="1780.94" cy="-494" rx="39.63" ry="18"/>
<text text-anchor="middle" x="1780.94" y="-489.32" font-family="Times,serif" font-size="14.00">triton</text>
</a>
</g>
</g>
<!-- pytorch&#45;cpu&#45;&gt;triton -->
<g id="edge27" class="edge">
<title>pytorch&#45;cpu&#45;&gt;triton</title>
<path fill="none" stroke="black" d="M1477.71,-776.74C1597.39,-769.73 1807.02,-753.88 1829.94,-728 1840.55,-716.02 1833.44,-707.61 1829.94,-692 1826.07,-674.73 1818.48,-672.8 1812.94,-656 1797.92,-610.49 1788.83,-555.29 1784.35,-522.78"/>
<polygon fill="black" stroke="black" points="1787.74,-522.73 1782.96,-513.27 1780.8,-523.65 1787.74,-522.73"/>
</g>
<!-- openmmtorchplugin -->
<g id="node24" class="node">
<title>openmmtorchplugin</title>
<g id="a_node24"><a xlink:href="https://github.com/conda-forge/openmmtorchplugin-feedstock" xlink:title="openmmtorchplugin">
<ellipse fill="#fde725" stroke="black" cx="2343.94" cy="-710" rx="112.24" ry="18"/>
<text text-anchor="middle" x="2343.94" y="-705.33" font-family="Times,serif" font-size="14.00">openmmtorchplugin</text>
</a>
</g>
</g>
<!-- pytorch&#45;cpu&#45;&gt;openmmtorchplugin -->
<g id="edge28" class="edge">
<title>pytorch&#45;cpu&#45;&gt;openmmtorchplugin</title>
<path fill="none" stroke="black" d="M1478.85,-777.73C1628.59,-771.43 1951.57,-755.71 2222.94,-728 2232.88,-726.98 2243.27,-725.77 2253.59,-724.46"/>
<polygon fill="black" stroke="black" points="2253.85,-727.82 2263.31,-723.06 2252.94,-720.88 2253.85,-727.82"/>
</g>
<!-- molgrid -->
<g id="node25" class="node">
<title>molgrid</title>
<g id="a_node25"><a xlink:href="https://github.com/conda-forge/molgrid-feedstock" xlink:title="molgrid">
<ellipse fill="#fde725" stroke="black" cx="1630.94" cy="-422" rx="50.16" ry="18"/>
<text text-anchor="middle" x="1630.94" y="-417.32" font-family="Times,serif" font-size="14.00">molgrid</text>
</a>
</g>
</g>
<!-- pytorch&#45;cpu&#45;&gt;molgrid -->
<g id="edge29" class="edge">
<title>pytorch&#45;cpu&#45;&gt;molgrid</title>
<path fill="none" stroke="black" d="M1461.31,-770.26C1531.11,-754.74 1630.94,-718.62 1630.94,-639 1630.94,-639 1630.94,-639 1630.94,-565 1630.94,-525.57 1630.94,-479.97 1630.94,-451.31"/>
<polygon fill="black" stroke="black" points="1634.44,-451.49 1630.94,-441.49 1627.44,-451.49 1634.44,-451.49"/>
</g>
<!-- theseus&#45;ai -->
<g id="node26" class="node">
<title>theseus&#45;ai</title>
<g id="a_node26"><a xlink:href="https://github.com/conda-forge/theseus-ai-feedstock" xlink:title="theseus ai">
<ellipse fill="#fde725" stroke="black" cx="1758.94" cy="-710" rx="62.26" ry="18"/>
<text text-anchor="middle" x="1758.94" y="-705.33" font-family="Times,serif" font-size="14.00">theseus ai</text>
</a>
</g>
</g>
<!-- pytorch&#45;cpu&#45;&gt;theseus&#45;ai -->
<g id="edge30" class="edge">
<title>pytorch&#45;cpu&#45;&gt;theseus&#45;ai</title>
<path fill="none" stroke="black" d="M1459.7,-769.81C1518.16,-759.53 1606.47,-743.58 1682.94,-728 1688.65,-726.84 1694.6,-725.58 1700.53,-724.3"/>
<polygon fill="black" stroke="black" points="1701.14,-727.53 1710.16,-721.98 1699.64,-720.69 1701.14,-727.53"/>
</g>
<!-- pyg&#45;lib -->
<g id="node27" class="node">
<title>pyg&#45;lib</title>
<g id="a_node27"><a xlink:href="https://github.com/conda-forge/pyg-lib-feedstock" xlink:title="pyg lib">
<ellipse fill="#fde725" stroke="black" cx="1768.94" cy="-422" rx="45.42" ry="18"/>
<text text-anchor="middle" x="1768.94" y="-417.32" font-family="Times,serif" font-size="14.00">pyg lib</text>
</a>
</g>
</g>
<!-- pytorch&#45;cpu&#45;&gt;pyg&#45;lib -->
<g id="edge31" class="edge">
<title>pytorch&#45;cpu&#45;&gt;pyg&#45;lib</title>
<path fill="none" stroke="black" d="M1471.99,-773.78C1553.03,-761.44 1668.94,-728.21 1668.94,-639 1668.94,-639 1668.94,-639 1668.94,-565 1668.94,-515.33 1710.35,-470.78 1739.87,-445.33"/>
<polygon fill="black" stroke="black" points="1741.78,-447.46 1747.22,-438.37 1737.3,-442.09 1741.78,-447.46"/>
</g>
<!-- deepspeed -->
<g id="node28" class="node">
<title>deepspeed</title>
<g id="a_node28"><a xlink:href="https://github.com/conda-forge/deepspeed-feedstock" xlink:title="deepspeed">
<ellipse fill="#fde725" stroke="black" cx="1886.94" cy="-638" rx="64.89" ry="18"/>
<text text-anchor="middle" x="1886.94" y="-633.33" font-family="Times,serif" font-size="14.00">deepspeed</text>
</a>
</g>
</g>
<!-- pytorch&#45;cpu&#45;&gt;deepspeed -->
<g id="edge32" class="edge">
<title>pytorch&#45;cpu&#45;&gt;deepspeed</title>
<path fill="none" stroke="black" d="M1477.63,-776.65C1604.19,-769.24 1834.36,-752.57 1862.94,-728 1880.18,-713.17 1885.68,-687.38 1887.16,-667.37"/>
<polygon fill="black" stroke="black" points="1890.69,-667.52 1887.62,-657.38 1883.7,-667.22 1890.69,-667.52"/>
</g>
<!-- bitsandbytes -->
<g id="node29" class="node">
<title>bitsandbytes</title>
<g id="a_node29"><a xlink:href="https://github.com/conda-forge/bitsandbytes-feedstock" xlink:title="bitsandbytes">
<ellipse fill="#fde725" stroke="black" cx="1913.94" cy="-566" rx="75.94" ry="18"/>
<text text-anchor="middle" x="1913.94" y="-561.33" font-family="Times,serif" font-size="14.00">bitsandbytes</text>
</a>
</g>
</g>
<!-- pytorch&#45;cpu&#45;&gt;bitsandbytes -->
<g id="edge33" class="edge">
<title>pytorch&#45;cpu&#45;&gt;bitsandbytes</title>
<path fill="none" stroke="black" d="M1479.72,-778.59C1601.15,-774 1817.69,-761.31 1887.94,-728 1929.11,-708.47 1943.36,-698.04 1960.94,-656 1967.11,-641.24 1966.62,-634.96 1960.94,-620 1956.88,-609.31 1949.57,-599.39 1941.9,-591.09"/>
<polygon fill="black" stroke="black" points="1944.76,-588.99 1935.22,-584.37 1939.79,-593.93 1944.76,-588.99"/>
</g>
<!-- abacus -->
<g id="node30" class="node">
<title>abacus</title>
<g id="a_node30"><a xlink:href="https://github.com/conda-forge/abacus-feedstock" xlink:title="abacus">
<ellipse fill="#fde725" stroke="black" cx="2017.94" cy="-494" rx="45.95" ry="18"/>
<text text-anchor="middle" x="2017.94" y="-489.32" font-family="Times,serif" font-size="14.00">abacus</text>
</a>
</g>
</g>
<!-- pytorch&#45;cpu&#45;&gt;abacus -->
<g id="edge34" class="edge">
<title>pytorch&#45;cpu&#45;&gt;abacus</title>
<path fill="none" stroke="black" d="M1481.22,-781.16C1612.62,-779.97 1855.4,-771.69 1928.94,-728 2000.58,-685.44 2014.81,-575.19 2017.45,-523.08"/>
<polygon fill="black" stroke="black" points="2020.98,-523.44 2017.88,-513.31 2013.99,-523.16 2020.98,-523.44"/>
</g>
<!-- pytorch_scatter&#45;&gt;pytorch_sparse -->
<g id="edge35" class="edge">
<title>pytorch_scatter&#45;&gt;pytorch_sparse</title>
<path fill="none" stroke="black" d="M1061.94,-547.7C1061.94,-540.24 1061.94,-531.32 1061.94,-522.97"/>
<polygon fill="black" stroke="black" points="1065.44,-523.1 1061.94,-513.1 1058.44,-523.1 1065.44,-523.1"/>
</g>
<!-- torchani&#45;&gt;nnpops -->
<g id="edge36" class="edge">
<title>torchani&#45;&gt;nnpops</title>
<path fill="none" stroke="black" d="M1495.56,-404.05C1490.08,-395.89 1483.38,-385.91 1477.28,-376.82"/>
<polygon fill="black" stroke="black" points="1479.69,-375.14 1471.21,-368.79 1473.88,-379.04 1479.69,-375.14"/>
</g>
<!-- triton&#45;&gt;pyg&#45;lib -->
<g id="edge37" class="edge">
<title>triton&#45;&gt;pyg&#45;lib</title>
<path fill="none" stroke="black" d="M1777.97,-475.7C1776.68,-468.15 1775.13,-459.12 1773.68,-450.68"/>
<polygon fill="black" stroke="black" points="1777.01,-450.37 1771.87,-441.1 1770.11,-451.55 1777.01,-450.37"/>
</g>
<!-- stir -->
<g id="node31" class="node">
<title>stir</title>
<g id="a_node31"><a xlink:href="https://github.com/conda-forge/stir-feedstock/pull/82" xlink:title="stir ❎">
<ellipse fill="#31688e" stroke="black" cx="3000.94" cy="-926" rx="43.84" ry="18"/>
<text text-anchor="middle" x="3000.94" y="-921.33" font-family="Times,serif" font-size="14.00" fill="white">stir ❎</text>
</a>
</g>
</g>
<!-- prismatic_split -->
<g id="node32" class="node">
<title>prismatic_split</title>
<g id="a_node32"><a xlink:href="https://github.com/conda-forge/prismatic_split-feedstock/pull/38" xlink:title="prismatic_split ❎">
<ellipse fill="#31688e" stroke="black" cx="3000.94" cy="-854" rx="100.66" ry="18"/>
<text text-anchor="middle" x="3000.94" y="-849.33" font-family="Times,serif" font-size="14.00" fill="white">prismatic_split ❎</text>
</a>
</g>
</g>
<!-- stir&#45;&gt;prismatic_split -->
<!-- pycuda -->
<g id="node40" class="node">
<title>pycuda</title>
<g id="a_node40"><a xlink:href="https://github.com/conda-forge/pycuda-feedstock/pull/25" xlink:title="pycuda ❎">
<ellipse fill="#31688e" stroke="black" cx="3000.94" cy="-782" rx="62.26" ry="18"/>
<text text-anchor="middle" x="3000.94" y="-777.33" font-family="Times,serif" font-size="14.00" fill="white">pycuda ❎</text>
</a>
</g>
</g>
<!-- prismatic_split&#45;&gt;pycuda -->
<!-- jaxlib -->
<g id="node33" class="node">
<title>jaxlib</title>
<g id="a_node33"><a xlink:href="https://github.com/conda-forge/jaxlib-feedstock/pull/181" xlink:title="jaxlib ❎">
<ellipse fill="#31688e" stroke="black" cx="3292.94" cy="-638" rx="53.84" ry="18"/>
<text text-anchor="middle" x="3292.94" y="-633.33" font-family="Times,serif" font-size="14.00" fill="white">jaxlib ❎</text>
</a>
</g>
</g>
<!-- jaxlib&#45;&gt;tensorflow -->
<g id="edge39" class="edge">
<title>jaxlib&#45;&gt;tensorflow</title>
<path fill="none" stroke="black" d="M3292.94,-619.7C3292.94,-612.24 3292.94,-603.32 3292.94,-594.97"/>
<polygon fill="black" stroke="black" points="3296.44,-595.1 3292.94,-585.1 3289.44,-595.1 3296.44,-595.1"/>
</g>
<!-- openmm -->
<g id="node34" class="node">
<title>openmm</title>
<g id="a_node34"><a xlink:href="https://github.com/conda-forge/openmm-feedstock/pull/107" xlink:title="openmm ❎">
<ellipse fill="#31688e" stroke="black" cx="2521.94" cy="-782" rx="69.62" ry="18"/>
<text text-anchor="middle" x="2521.94" y="-777.33" font-family="Times,serif" font-size="14.00" fill="white">openmm ❎</text>
</a>
</g>
</g>
<!-- openmm&#45;&gt;openmm&#45;torch -->
<g id="edge40" class="edge">
<title>openmm&#45;&gt;openmm&#45;torch</title>
<path fill="none" stroke="black" d="M2465.44,-771.08C2405.3,-760.5 2307.38,-743.2 2222.94,-728 2216.42,-726.83 2209.64,-725.6 2202.86,-724.37"/>
<polygon fill="black" stroke="black" points="2203.68,-720.78 2193.21,-722.43 2202.42,-727.66 2203.68,-720.78"/>
</g>
<!-- openmm&#45;&gt;openmmtorchplugin -->
<g id="edge41" class="edge">
<title>openmm&#45;&gt;openmmtorchplugin</title>
<path fill="none" stroke="black" d="M2485.06,-766.5C2459.01,-756.25 2423.75,-742.39 2395,-731.08"/>
<polygon fill="black" stroke="black" points="2396.72,-727.6 2386.13,-727.2 2394.15,-734.12 2396.72,-727.6"/>
</g>
<!-- openmm&#45;plumed -->
<g id="node35" class="node">
<title>openmm&#45;plumed</title>
<g id="a_node35"><a xlink:href="https://github.com/conda-forge/openmm-plumed-feedstock" xlink:title="openmm plumed">
<ellipse fill="#fde725" stroke="black" cx="2796.94" cy="-710" rx="94.88" ry="18"/>
<text text-anchor="middle" x="2796.94" y="-705.33" font-family="Times,serif" font-size="14.00">openmm plumed</text>
</a>
</g>
</g>
<!-- openmm&#45;&gt;openmm&#45;plumed -->
<g id="edge42" class="edge">
<title>openmm&#45;&gt;openmm&#45;plumed</title>
<path fill="none" stroke="black" d="M2570.16,-768.73C2614.79,-757.37 2681.53,-740.38 2731.07,-727.77"/>
<polygon fill="black" stroke="black" points="2731.85,-730.93 2740.68,-725.07 2730.12,-724.14 2731.85,-730.93"/>
</g>
<!-- meld -->
<g id="node36" class="node">
<title>meld</title>
<g id="a_node36"><a xlink:href="https://github.com/conda-forge/meld-feedstock" xlink:title="meld">
<ellipse fill="#fde725" stroke="black" cx="2457.94" cy="-638" rx="35.95" ry="18"/>
<text text-anchor="middle" x="2457.94" y="-633.33" font-family="Times,serif" font-size="14.00">meld</text>
</a>
</g>
</g>
<!-- openmm&#45;&gt;meld -->
<g id="edge43" class="edge">
<title>openmm&#45;&gt;meld</title>
<path fill="none" stroke="black" d="M2514.22,-763.87C2503.2,-739.43 2482.88,-694.33 2469.9,-665.55"/>
<polygon fill="black" stroke="black" points="2472.79,-664.43 2465.49,-656.75 2466.41,-667.3 2472.79,-664.43"/>
</g>
<!-- seekr2_openmm_plugin -->
<g id="node37" class="node">
<title>seekr2_openmm_plugin</title>
<g id="a_node37"><a xlink:href="https://github.com/conda-forge/seekr2_openmm_plugin-feedstock" xlink:title="seekr2_openmm_plugin">
<ellipse fill="#fde725" stroke="black" cx="2402.94" cy="-566" rx="129.07" ry="18"/>
<text text-anchor="middle" x="2402.94" y="-561.33" font-family="Times,serif" font-size="14.00">seekr2_openmm_plugin</text>
</a>
</g>
</g>
<!-- openmm&#45;&gt;seekr2_openmm_plugin -->
<g id="edge44" class="edge">
<title>openmm&#45;&gt;seekr2_openmm_plugin</title>
<path fill="none" stroke="black" d="M2524.76,-763.71C2528.94,-732.15 2533.31,-664.35 2502.94,-620 2493.42,-606.1 2479.07,-595.57 2464.18,-587.71"/>
<polygon fill="black" stroke="black" points="2465.89,-584.16 2455.36,-582.92 2462.82,-590.45 2465.89,-584.16"/>
</g>
<!-- openmm&#45;atmmetaforce&#45;plugin -->
<g id="node38" class="node">
<title>openmm&#45;atmmetaforce&#45;plugin</title>
<g id="a_node38"><a xlink:href="https://github.com/conda-forge/openmm-atmmetaforce-plugin-feedstock" xlink:title="openmm atmmetaforce plugin">
<ellipse fill="#fde725" stroke="black" cx="2483.94" cy="-494" rx="162.22" ry="18"/>
<text text-anchor="middle" x="2483.94" y="-489.32" font-family="Times,serif" font-size="14.00">openmm atmmetaforce plugin</text>
</a>
</g>
</g>
<!-- openmm&#45;&gt;openmm&#45;atmmetaforce&#45;plugin -->
<g id="edge45" class="edge">
<title>openmm&#45;&gt;openmm&#45;atmmetaforce&#45;plugin</title>
<path fill="none" stroke="black" d="M2529.83,-763.75C2534.05,-753.58 2538.8,-740.33 2540.94,-728 2554.64,-649.18 2572.89,-621.34 2540.94,-548 2536.1,-536.9 2527.67,-527.08 2518.76,-519"/>
<polygon fill="black" stroke="black" points="2521.43,-515.84 2511.52,-512.09 2516.93,-521.2 2521.43,-515.84"/>
</g>
<!-- openmm&#45;dlext -->
<g id="node39" class="node">
<title>openmm&#45;dlext</title>
<g id="a_node39"><a xlink:href="https://github.com/conda-forge/openmm-dlext-feedstock" xlink:title="openmm dlext">
<ellipse fill="#fde725" stroke="black" cx="2673.94" cy="-422" rx="82.77" ry="18"/>
<text text-anchor="middle" x="2673.94" y="-417.32" font-family="Times,serif" font-size="14.00">openmm dlext</text>
</a>
</g>
</g>
<!-- openmm&#45;&gt;openmm&#45;dlext -->
<g id="edge46" class="edge">
<title>openmm&#45;&gt;openmm&#45;dlext</title>
<path fill="none" stroke="black" d="M2557.96,-766.33C2602.91,-745.35 2673.94,-702.2 2673.94,-639 2673.94,-639 2673.94,-639 2673.94,-565 2673.94,-525.57 2673.94,-479.97 2673.94,-451.31"/>
<polygon fill="black" stroke="black" points="2677.44,-451.49 2673.94,-441.49 2670.44,-451.49 2677.44,-451.49"/>
</g>
<!-- onnxruntime -->
<g id="node45" class="node">
<title>onnxruntime</title>
<g id="a_node45"><a xlink:href="https://github.com/conda-forge/onnxruntime-feedstock/pull/65" xlink:title="onnxruntime ❎">
<ellipse fill="#31688e" stroke="black" cx="3000.94" cy="-710" rx="90.67" ry="18"/>
<text text-anchor="middle" x="3000.94" y="-705.33" font-family="Times,serif" font-size="14.00" fill="white">onnxruntime ❎</text>
</a>
</g>
</g>
<!-- pycuda&#45;&gt;onnxruntime -->
<!-- faiss&#45;split -->
<g id="node41" class="node">
<title>faiss&#45;split</title>
<g id="a_node41"><a xlink:href="https://github.com/conda-forge/faiss-split-feedstock/pull/68" xlink:title="faiss split ❎">
<ellipse fill="#31688e" stroke="black" cx="952.94" cy="-710" rx="74.88" ry="18"/>
<text text-anchor="middle" x="952.94" y="-705.33" font-family="Times,serif" font-size="14.00" fill="white">faiss split ❎</text>
</a>
</g>
</g>
<!-- faiss&#45;split&#45;&gt;graphvite -->
<g id="edge48" class="edge">
<title>faiss&#45;split&#45;&gt;graphvite</title>
<path fill="none" stroke="black" d="M908.29,-695.17C870.7,-683.53 816.95,-666.88 777.72,-654.73"/>
<polygon fill="black" stroke="black" points="778.91,-651.12 768.33,-651.51 776.84,-657.81 778.91,-651.12"/>
</g>
<!-- tsnecuda -->
<g id="node42" class="node">
<title>tsnecuda</title>
<g id="a_node42"><a xlink:href="https://github.com/conda-forge/tsnecuda-feedstock" xlink:title="tsnecuda">
<ellipse fill="#fde725" stroke="black" cx="860.94" cy="-638" rx="56.47" ry="18"/>
<text text-anchor="middle" x="860.94" y="-633.33" font-family="Times,serif" font-size="14.00">tsnecuda</text>
</a>
</g>
</g>
<!-- faiss&#45;split&#45;&gt;tsnecuda -->
<g id="edge49" class="edge">
<title>faiss&#45;split&#45;&gt;tsnecuda</title>
<path fill="none" stroke="black" d="M931.14,-692.41C919.05,-683.21 903.84,-671.64 890.68,-661.63"/>
<polygon fill="black" stroke="black" points="893.03,-658.26 882.95,-654.99 888.79,-663.83 893.03,-658.26"/>
</g>
<!-- libtvm -->
<g id="node43" class="node">
<title>libtvm</title>
<g id="a_node43"><a xlink:href="https://github.com/conda-forge/libtvm-feedstock/pull/30" xlink:title="libtvm ❎">
<ellipse fill="#31688e" stroke="black" cx="3000.94" cy="-126" rx="58.57" ry="18"/>
<text text-anchor="middle" x="3000.94" y="-121.33" font-family="Times,serif" font-size="14.00" fill="white">libtvm ❎</text>
</a>
</g>
</g>
<!-- tvm&#45;py -->
<g id="node44" class="node">
<title>tvm&#45;py</title>
<g id="a_node44"><a xlink:href="https://github.com/conda-forge/tvm-py-feedstock" xlink:title="tvm py">
<ellipse fill="#fde725" stroke="black" cx="3000.94" cy="-54" rx="45.95" ry="18"/>
<text text-anchor="middle" x="3000.94" y="-49.33" font-family="Times,serif" font-size="14.00">tvm py</text>
</a>
</g>
</g>
<!-- libtvm&#45;&gt;tvm&#45;py -->
<g id="edge50" class="edge">
<title>libtvm&#45;&gt;tvm&#45;py</title>
<path fill="none" stroke="black" d="M3000.94,-107.7C3000.94,-100.24 3000.94,-91.32 3000.94,-82.97"/>
<polygon fill="black" stroke="black" points="3004.44,-83.1 3000.94,-73.1 2997.44,-83.1 3004.44,-83.1"/>
</g>
<!-- cudadecon -->
<g id="node46" class="node">
<title>cudadecon</title>
<g id="a_node46"><a xlink:href="https://github.com/conda-forge/cudadecon-feedstock/pull/18" xlink:title="cudadecon ❎">
<ellipse fill="#31688e" stroke="black" cx="3000.94" cy="-638" rx="79.62" ry="18"/>
<text text-anchor="middle" x="3000.94" y="-633.33" font-family="Times,serif" font-size="14.00" fill="white">cudadecon ❎</text>
</a>
</g>
</g>
<!-- onnxruntime&#45;&gt;cudadecon -->
<!-- timemory -->
<g id="node47" class="node">
<title>timemory</title>
<g id="a_node47"><a xlink:href="https://github.com/conda-forge/timemory-feedstock/pull/17" xlink:title="timemory ❎">
<ellipse fill="#31688e" stroke="black" cx="3000.94" cy="-566" rx="74.88" ry="18"/>
<text text-anchor="middle" x="3000.94" y="-561.33" font-family="Times,serif" font-size="14.00" fill="white">timemory ❎</text>
</a>
</g>
</g>
<!-- cudadecon&#45;&gt;timemory -->
<!-- mandrake -->
<g id="node48" class="node">
<title>mandrake</title>
<g id="a_node48"><a xlink:href="https://github.com/conda-forge/mandrake-feedstock/pull/7" xlink:title="mandrake ❎">
<ellipse fill="#31688e" stroke="black" cx="3000.94" cy="-494" rx="76.46" ry="18"/>
<text text-anchor="middle" x="3000.94" y="-489.32" font-family="Times,serif" font-size="14.00" fill="white">mandrake ❎</text>
</a>
</g>
</g>
<!-- timemory&#45;&gt;mandrake -->
<!-- rmm -->
<g id="node49" class="node">
<title>rmm</title>
<g id="a_node49"><a xlink:href="https://github.com/conda-forge/rmm-feedstock/pull/25" xlink:title="rmm ❎">
<ellipse fill="#31688e" stroke="black" cx="3000.94" cy="-422" rx="50.16" ry="18"/>
<text text-anchor="middle" x="3000.94" y="-417.32" font-family="Times,serif" font-size="14.00" fill="white">rmm ❎</text>
</a>
</g>
</g>
<!-- mandrake&#45;&gt;rmm -->
<!-- ptxcompiler -->
<g id="node50" class="node">
<title>ptxcompiler</title>
<g id="a_node50"><a xlink:href="https://github.com/conda-forge/ptxcompiler-feedstock" xlink:title="ptxcompiler">
<ellipse fill="#000000" stroke="black" cx="3000.94" cy="-350" rx="71.2" ry="18"/>
<text text-anchor="middle" x="3000.94" y="-345.32" font-family="Times,serif" font-size="14.00" fill="white">ptxcompiler</text>
</a>
</g>
</g>
<!-- rmm&#45;&gt;ptxcompiler -->
<!-- pyscamp&#45;gpu -->
<g id="node51" class="node">
<title>pyscamp&#45;gpu</title>
<g id="a_node51"><a xlink:href="https://github.com/conda-forge/pyscamp-gpu-feedstock/pull/6" xlink:title="pyscamp gpu ❎">
<ellipse fill="#31688e" stroke="black" cx="3000.94" cy="-278" rx="92.77" ry="18"/>
<text text-anchor="middle" x="3000.94" y="-273.32" font-family="Times,serif" font-size="14.00" fill="white">pyscamp gpu ❎</text>
</a>
</g>
</g>
<!-- ptxcompiler&#45;&gt;pyscamp&#45;gpu -->
<!-- heavydb&#45;ext -->
<g id="node52" class="node">
<title>heavydb&#45;ext</title>
<g id="a_node52"><a xlink:href="https://github.com/conda-forge/heavydb-ext-feedstock/pull/49" xlink:title="heavydb ext ❎">
<ellipse fill="#31688e" stroke="black" cx="3000.94" cy="-206" rx="87.51" ry="18"/>
<text text-anchor="middle" x="3000.94" y="-201.32" font-family="Times,serif" font-size="14.00" fill="white">heavydb ext ❎</text>
</a>
</g>
</g>
<!-- pyscamp&#45;gpu&#45;&gt;heavydb&#45;ext -->
<!-- cyrsoxs -->
<g id="node53" class="node">
<title>cyrsoxs</title>
<g id="a_node53"><a xlink:href="https://github.com/conda-forge/cyrsoxs-feedstock/pull/9" xlink:title="cyrsoxs ❎">
<ellipse fill="#31688e" stroke="black" cx="1445.94" cy="-162" rx="64.36" ry="18"/>
<text text-anchor="middle" x="1445.94" y="-157.32" font-family="Times,serif" font-size="14.00" fill="white">cyrsoxs ❎</text>
</a>
</g>
</g>
<!-- katago -->
<g id="node54" class="node">
<title>katago</title>
<g id="a_node54"><a xlink:href="https://github.com/conda-forge/katago-feedstock/pull/5" xlink:title="katago ❎">
<ellipse fill="#31688e" stroke="black" cx="1445.94" cy="-90" rx="60.15" ry="18"/>
<text text-anchor="middle" x="1445.94" y="-85.33" font-family="Times,serif" font-size="14.00" fill="white">katago ❎</text>
</a>
</g>
</g>
<!-- cyrsoxs&#45;&gt;katago -->
<!-- hoomd&#45;dlext -->
<g id="node55" class="node">
<title>hoomd&#45;dlext</title>
<g id="a_node55"><a xlink:href="https://github.com/conda-forge/hoomd-dlext-feedstock/pull/7" xlink:title="hoomd dlext ❎">
<ellipse fill="#31688e" stroke="black" cx="1445.94" cy="-18" rx="88.56" ry="18"/>
<text text-anchor="middle" x="1445.94" y="-13.32" font-family="Times,serif" font-size="14.00" fill="white">hoomd dlext ❎</text>
</a>
</g>
</g>
<!-- katago&#45;&gt;hoomd&#45;dlext -->
</g>
</svg>
