<?xml version="1.0" encoding="UTF-8" standalone="no"?>
<!DOCTYPE svg PUBLIC "-//W3C//DTD SVG 1.1//EN"
 "http://www.w3.org/Graphics/SVG/1.1/DTD/svg11.dtd">
<!-- Generated by graphviz version 2.49.1 (20211004.0028)
 -->
<!-- Pages: 1 -->
<svg width="3396pt" height="880pt"
 viewBox="0.00 0.00 3395.50 880.00" xmlns="http://www.w3.org/2000/svg" xmlns:xlink="http://www.w3.org/1999/xlink">
<g id="graph0" class="graph" transform="scale(1 1) rotate(0) translate(4 876)">
<polygon fill="white" stroke="transparent" points="-4,4 -4,-876 3391.5,-876 3391.5,4 -4,4"/>
<!-- arrow&#45;cpp -->
<g id="node1" class="node">
<title>arrow&#45;cpp</title>
<g id="a_node1"><a xlink:href="https://github.com/conda-forge/arrow-cpp-feedstock" xlink:title="arrow cpp">
<ellipse fill="#fde725" stroke="black" cx="1044" cy="-638" rx="58" ry="18"/>
<text text-anchor="middle" x="1044" y="-634.3" font-family="Times,serif" font-size="14.00">arrow cpp</text>
</a>
</g>
</g>
<!-- heavydb&#45;ext -->
<g id="node2" class="node">
<title>heavydb&#45;ext</title>
<g id="a_node2"><a xlink:href="https://github.com/conda-forge/heavydb-ext-feedstock/pull/49" xlink:title="heavydb ext ❎">
<ellipse fill="#31688e" stroke="black" cx="1105" cy="-566" rx="81.49" ry="18"/>
<text text-anchor="middle" x="1105" y="-562.3" font-family="Times,serif" font-size="14.00" fill="white">heavydb ext ❎</text>
</a>
</g>
</g>
<!-- arrow&#45;cpp&#45;&gt;heavydb&#45;ext -->
<g id="edge1" class="edge">
<title>arrow&#45;cpp&#45;&gt;heavydb&#45;ext</title>
<path fill="none" stroke="black" d="M1058.46,-620.41C1065.94,-611.82 1075.23,-601.16 1083.54,-591.63"/>
<polygon fill="black" stroke="black" points="1086.29,-593.79 1090.22,-583.96 1081.02,-589.2 1086.29,-593.79"/>
</g>
<!-- hdk -->
<g id="node3" class="node">
<title>hdk</title>
<g id="a_node3"><a xlink:href="https://github.com/conda-forge/hdk-feedstock" xlink:title="hdk">
<ellipse fill="#fde725" stroke="black" cx="1014" cy="-494" rx="28" ry="18"/>
<text text-anchor="middle" x="1014" y="-490.3" font-family="Times,serif" font-size="14.00">hdk</text>
</a>
</g>
</g>
<!-- arrow&#45;cpp&#45;&gt;hdk -->
<g id="edge2" class="edge">
<title>arrow&#45;cpp&#45;&gt;hdk</title>
<path fill="none" stroke="black" d="M1032.05,-620.24C1025.65,-610.24 1018.4,-596.99 1015,-584 1009.69,-563.73 1009.73,-539.95 1010.94,-522.08"/>
<polygon fill="black" stroke="black" points="1014.43,-522.31 1011.78,-512.06 1007.45,-521.73 1014.43,-522.31"/>
</g>
<!-- autogluon.multimodal -->
<g id="node4" class="node">
<title>autogluon.multimodal</title>
<g id="a_node4"><a xlink:href="https://github.com/conda-forge/autogluon.multimodal-feedstock" xlink:title="autogluon multimodal">
<ellipse fill="#fde725" stroke="black" cx="1656" cy="-494" rx="112.5" ry="18"/>
<text text-anchor="middle" x="1656" y="-490.3" font-family="Times,serif" font-size="14.00">autogluon multimodal</text>
</a>
</g>
</g>
<!-- arrow&#45;cpp&#45;&gt;autogluon.multimodal -->
<g id="edge3" class="edge">
<title>arrow&#45;cpp&#45;&gt;autogluon.multimodal</title>
<path fill="none" stroke="black" d="M1084.49,-624.89C1122.46,-613.17 1176.15,-595.51 1195,-584 1214.86,-571.88 1211.97,-557.94 1233,-548 1285.91,-522.99 1434.88,-508.66 1541.03,-501.35"/>
<polygon fill="black" stroke="black" points="1541.43,-504.83 1551.17,-500.66 1540.95,-497.85 1541.43,-504.83"/>
</g>
<!-- implicit -->
<g id="node5" class="node">
<title>implicit</title>
<g id="a_node5"><a xlink:href="https://github.com/conda-forge/implicit-feedstock/pull/54" xlink:title="implicit ❎">
<ellipse fill="#31688e" stroke="black" cx="3088" cy="-854" rx="60" ry="18"/>
<text text-anchor="middle" x="3088" y="-850.3" font-family="Times,serif" font-size="14.00" fill="white">implicit ❎</text>
</a>
</g>
</g>
<!-- kaldi -->
<g id="node6" class="node">
<title>kaldi</title>
<g id="a_node6"><a xlink:href="https://github.com/conda-forge/kaldi-feedstock/pull/39" xlink:title="kaldi ❎">
<ellipse fill="#31688e" stroke="black" cx="3088" cy="-782" rx="47.5" ry="18"/>
<text text-anchor="middle" x="3088" y="-778.3" font-family="Times,serif" font-size="14.00" fill="white">kaldi ❎</text>
</a>
</g>
</g>
<!-- implicit&#45;&gt;kaldi -->
<!-- conda&#45;forge&#45;ci&#45;setup -->
<g id="node7" class="node">
<title>conda&#45;forge&#45;ci&#45;setup</title>
<g id="a_node7"><a xlink:href="https://github.com/conda-forge/conda-forge-ci-setup-feedstock/pull/243" xlink:title="conda forge ci setup ❎">
<ellipse fill="#31688e" stroke="black" cx="3088" cy="-710" rx="119" ry="18"/>
<text text-anchor="middle" x="3088" y="-706.3" font-family="Times,serif" font-size="14.00" fill="white">conda forge ci setup ❎</text>
</a>
</g>
</g>
<!-- kaldi&#45;&gt;conda&#45;forge&#45;ci&#45;setup -->
<!-- stir -->
<g id="node16" class="node">
<title>stir</title>
<g id="a_node16"><a xlink:href="https://github.com/conda-forge/stir-feedstock/pull/82" xlink:title="stir ❎">
<ellipse fill="#31688e" stroke="black" cx="3088" cy="-638" rx="41" ry="18"/>
<text text-anchor="middle" x="3088" y="-634.3" font-family="Times,serif" font-size="14.00" fill="white">stir ❎</text>
</a>
</g>
</g>
<!-- conda&#45;forge&#45;ci&#45;setup&#45;&gt;stir -->
<!-- torchvision -->
<g id="node8" class="node">
<title>torchvision</title>
<g id="a_node8"><a xlink:href="https://github.com/conda-forge/torchvision-feedstock" xlink:title="torchvision">
<ellipse fill="#fde725" stroke="black" cx="1676" cy="-638" rx="62.5" ry="18"/>
<text text-anchor="middle" x="1676" y="-634.3" font-family="Times,serif" font-size="14.00">torchvision</text>
</a>
</g>
</g>
<!-- torchvision&#45;&gt;autogluon.multimodal -->
<g id="edge6" class="edge">
<title>torchvision&#45;&gt;autogluon.multimodal</title>
<path fill="none" stroke="black" d="M1707.45,-622.21C1722.34,-613.39 1738.66,-600.64 1747,-584 1754.17,-569.7 1754.97,-561.87 1747,-548 1738.85,-533.82 1725.29,-523.08 1711.09,-515.11"/>
<polygon fill="black" stroke="black" points="1712.7,-512 1702.21,-510.5 1709.47,-518.21 1712.7,-512"/>
</g>
<!-- detectron2 -->
<g id="node9" class="node">
<title>detectron2</title>
<g id="a_node9"><a xlink:href="https://github.com/conda-forge/detectron2-feedstock" xlink:title="detectron2">
<ellipse fill="#fde725" stroke="black" cx="1676" cy="-566" rx="61.99" ry="18"/>
<text text-anchor="middle" x="1676" y="-562.3" font-family="Times,serif" font-size="14.00">detectron2</text>
</a>
</g>
</g>
<!-- torchvision&#45;&gt;detectron2 -->
<g id="edge7" class="edge">
<title>torchvision&#45;&gt;detectron2</title>
<path fill="none" stroke="black" d="M1676,-619.7C1676,-611.98 1676,-602.71 1676,-594.11"/>
<polygon fill="black" stroke="black" points="1679.5,-594.1 1676,-584.1 1672.5,-594.1 1679.5,-594.1"/>
</g>
<!-- fcos -->
<g id="node10" class="node">
<title>fcos</title>
<g id="a_node10"><a xlink:href="https://github.com/conda-forge/fcos-feedstock" xlink:title="fcos">
<ellipse fill="#fde725" stroke="black" cx="1823" cy="-566" rx="29.5" ry="18"/>
<text text-anchor="middle" x="1823" y="-562.3" font-family="Times,serif" font-size="14.00">fcos</text>
</a>
</g>
</g>
<!-- torchvision&#45;&gt;fcos -->
<g id="edge8" class="edge">
<title>torchvision&#45;&gt;fcos</title>
<path fill="none" stroke="black" d="M1706.82,-622.33C1731.6,-610.52 1766.29,-594 1791.31,-582.09"/>
<polygon fill="black" stroke="black" points="1792.86,-585.23 1800.38,-577.77 1789.85,-578.91 1792.86,-585.23"/>
</g>
<!-- fairscale -->
<g id="node11" class="node">
<title>fairscale</title>
<g id="a_node11"><a xlink:href="https://github.com/conda-forge/fairscale-feedstock" xlink:title="fairscale">
<ellipse fill="#fde725" stroke="black" cx="1546" cy="-566" rx="50.09" ry="18"/>
<text text-anchor="middle" x="1546" y="-562.3" font-family="Times,serif" font-size="14.00">fairscale</text>
</a>
</g>
</g>
<!-- torchvision&#45;&gt;fairscale -->
<g id="edge9" class="edge">
<title>torchvision&#45;&gt;fairscale</title>
<path fill="none" stroke="black" d="M1647.79,-621.81C1628.41,-611.37 1602.51,-597.43 1581.69,-586.22"/>
<polygon fill="black" stroke="black" points="1583.28,-583.1 1572.82,-581.44 1579.97,-589.26 1583.28,-583.1"/>
</g>
<!-- graphvite -->
<g id="node12" class="node">
<title>graphvite</title>
<g id="a_node12"><a xlink:href="https://github.com/conda-forge/graphvite-feedstock" xlink:title="graphvite">
<ellipse fill="#fde725" stroke="black" cx="1422" cy="-566" rx="56" ry="18"/>
<text text-anchor="middle" x="1422" y="-562.3" font-family="Times,serif" font-size="14.00">graphvite</text>
</a>
</g>
</g>
<!-- torchvision&#45;&gt;graphvite -->
<g id="edge10" class="edge">
<title>torchvision&#45;&gt;graphvite</title>
<path fill="none" stroke="black" d="M1632.34,-624.97C1588.07,-612.77 1519.61,-593.9 1472.91,-581.03"/>
<polygon fill="black" stroke="black" points="1473.57,-577.58 1463,-578.3 1471.71,-584.33 1473.57,-577.58"/>
</g>
<!-- mmcv&#45;recipe -->
<g id="node13" class="node">
<title>mmcv&#45;recipe</title>
<g id="a_node13"><a xlink:href="https://github.com/conda-forge/mmcv-recipe-feedstock" xlink:title="mmcv recipe">
<ellipse fill="#fde725" stroke="black" cx="1940" cy="-566" rx="70.39" ry="18"/>
<text text-anchor="middle" x="1940" y="-562.3" font-family="Times,serif" font-size="14.00">mmcv recipe</text>
</a>
</g>
</g>
<!-- torchvision&#45;&gt;mmcv&#45;recipe -->
<g id="edge11" class="edge">
<title>torchvision&#45;&gt;mmcv&#45;recipe</title>
<path fill="none" stroke="black" d="M1720.49,-625.2C1765.3,-613.32 1834.62,-594.94 1883.34,-582.02"/>
<polygon fill="black" stroke="black" points="1884.34,-585.38 1893.11,-579.43 1882.54,-578.61 1884.34,-585.38"/>
</g>
<!-- fairscale&#45;&gt;autogluon.multimodal -->
<g id="edge12" class="edge">
<title>fairscale&#45;&gt;autogluon.multimodal</title>
<path fill="none" stroke="black" d="M1569.6,-549.98C1584.65,-540.4 1604.42,-527.82 1621.25,-517.11"/>
<polygon fill="black" stroke="black" points="1623.19,-520.03 1629.74,-511.71 1619.43,-514.12 1623.19,-520.03"/>
</g>
<!-- tensorflow -->
<g id="node14" class="node">
<title>tensorflow</title>
<g id="a_node14"><a xlink:href="https://github.com/conda-forge/tensorflow-feedstock/pull/321" xlink:title="tensorflow ❎">
<ellipse fill="#31688e" stroke="black" cx="3088" cy="-90" rx="73.5" ry="18"/>
<text text-anchor="middle" x="3088" y="-86.3" font-family="Times,serif" font-size="14.00" fill="white">tensorflow ❎</text>
</a>
</g>
</g>
<!-- deepmd&#45;kit -->
<g id="node15" class="node">
<title>deepmd&#45;kit</title>
<g id="a_node15"><a xlink:href="https://github.com/conda-forge/deepmd-kit-feedstock" xlink:title="deepmd kit">
<ellipse fill="#fde725" stroke="black" cx="3088" cy="-18" rx="63.09" ry="18"/>
<text text-anchor="middle" x="3088" y="-14.3" font-family="Times,serif" font-size="14.00">deepmd kit</text>
</a>
</g>
</g>
<!-- tensorflow&#45;&gt;deepmd&#45;kit -->
<g id="edge13" class="edge">
<title>tensorflow&#45;&gt;deepmd&#45;kit</title>
<path fill="none" stroke="black" d="M3088,-71.7C3088,-63.98 3088,-54.71 3088,-46.11"/>
<polygon fill="black" stroke="black" points="3091.5,-46.1 3088,-36.1 3084.5,-46.1 3091.5,-46.1"/>
</g>
<!-- jaxlib -->
<g id="node35" class="node">
<title>jaxlib</title>
<g id="a_node35"><a xlink:href="https://github.com/conda-forge/jaxlib-feedstock/pull/181" xlink:title="jaxlib ❎">
<ellipse fill="#31688e" stroke="black" cx="3088" cy="-566" rx="50.09" ry="18"/>
<text text-anchor="middle" x="3088" y="-562.3" font-family="Times,serif" font-size="14.00" fill="white">jaxlib ❎</text>
</a>
</g>
</g>
<!-- stir&#45;&gt;jaxlib -->
<!-- pytorch&#45;cpu -->
<g id="node17" class="node">
<title>pytorch&#45;cpu</title>
<g id="a_node17"><a xlink:href="https://github.com/conda-forge/pytorch-cpu-feedstock/pull/171" xlink:title="pytorch cpu ❎">
<ellipse fill="#31688e" stroke="black" cx="920" cy="-710" rx="80" ry="18"/>
<text text-anchor="middle" x="920" y="-706.3" font-family="Times,serif" font-size="14.00" fill="white">pytorch cpu ❎</text>
</a>
</g>
</g>
<!-- pytorch&#45;cpu&#45;&gt;arrow&#45;cpp -->
<g id="edge15" class="edge">
<title>pytorch&#45;cpu&#45;&gt;arrow&#45;cpp</title>
<path fill="none" stroke="black" d="M948.14,-693.12C966.03,-683.02 989.34,-669.86 1008.5,-659.04"/>
<polygon fill="black" stroke="black" points="1010.26,-662.07 1017.25,-654.1 1006.82,-655.97 1010.26,-662.07"/>
</g>
<!-- pytorch&#45;cpu&#45;&gt;autogluon.multimodal -->
<g id="edge16" class="edge">
<title>pytorch&#45;cpu&#45;&gt;autogluon.multimodal</title>
<path fill="none" stroke="black" d="M999.62,-707.57C1191.63,-703.61 1675.98,-690.43 1834,-656 1920.21,-637.22 1969.19,-656.83 2019,-584 2028.03,-570.79 2029.46,-560.1 2019,-548 1988.1,-512.26 1871.12,-500.15 1778.2,-496.28"/>
<polygon fill="black" stroke="black" points="1778.27,-492.78 1768.14,-495.89 1778,-499.77 1778.27,-492.78"/>
</g>
<!-- pytorch&#45;cpu&#45;&gt;torchvision -->
<g id="edge17" class="edge">
<title>pytorch&#45;cpu&#45;&gt;torchvision</title>
<path fill="none" stroke="black" d="M997.34,-705.24C1121.02,-698.68 1370.77,-683.17 1581,-656 1592.31,-654.54 1604.32,-652.65 1615.86,-650.67"/>
<polygon fill="black" stroke="black" points="1616.61,-654.09 1625.85,-648.91 1615.4,-647.2 1616.61,-654.09"/>
</g>
<!-- pytorch&#45;cpu&#45;&gt;detectron2 -->
<g id="edge18" class="edge">
<title>pytorch&#45;cpu&#45;&gt;detectron2</title>
<path fill="none" stroke="black" d="M1000.13,-709.61C1109.99,-708.61 1312.7,-700.14 1479,-656 1538.19,-640.29 1601.96,-608.45 1640.42,-587.42"/>
<polygon fill="black" stroke="black" points="1642.58,-590.23 1649.64,-582.33 1639.2,-584.1 1642.58,-590.23"/>
</g>
<!-- pytorch&#45;cpu&#45;&gt;fcos -->
<g id="edge19" class="edge">
<title>pytorch&#45;cpu&#45;&gt;fcos</title>
<path fill="none" stroke="black" d="M999.42,-707.45C1193.78,-703.15 1682.29,-689.15 1748,-656 1775.5,-642.13 1796.84,-613.22 1809.61,-592.1"/>
<polygon fill="black" stroke="black" points="1812.72,-593.71 1814.71,-583.31 1806.66,-590.2 1812.72,-593.71"/>
</g>
<!-- pytorch&#45;cpu&#45;&gt;fairscale -->
<g id="edge20" class="edge">
<title>pytorch&#45;cpu&#45;&gt;fairscale</title>
<path fill="none" stroke="black" d="M998.61,-706.51C1123.41,-701.62 1360.63,-688.31 1438,-656 1472.74,-641.49 1505,-611.93 1525.05,-590.86"/>
<polygon fill="black" stroke="black" points="1527.62,-593.24 1531.86,-583.53 1522.49,-588.47 1527.62,-593.24"/>
</g>
<!-- pytorch&#45;cpu&#45;&gt;graphvite -->
<g id="edge21" class="edge">
<title>pytorch&#45;cpu&#45;&gt;graphvite</title>
<path fill="none" stroke="black" d="M998.43,-706.17C1131.49,-700.57 1389.83,-685.94 1418,-656 1433.18,-639.86 1432.62,-613.92 1429.19,-594.19"/>
<polygon fill="black" stroke="black" points="1432.59,-593.34 1427.13,-584.25 1425.73,-594.76 1432.59,-593.34"/>
</g>
<!-- pytorch&#45;cpu&#45;&gt;mmcv&#45;recipe -->
<g id="edge22" class="edge">
<title>pytorch&#45;cpu&#45;&gt;mmcv&#45;recipe</title>
<path fill="none" stroke="black" d="M999.84,-708.64C1184.59,-707.09 1636.86,-698.87 1782,-656 1830.23,-641.75 1879.78,-610.64 1910.24,-589.25"/>
<polygon fill="black" stroke="black" points="1912.57,-591.88 1918.67,-583.22 1908.5,-586.18 1912.57,-591.88"/>
</g>
<!-- nvidia&#45;apex -->
<g id="node18" class="node">
<title>nvidia&#45;apex</title>
<g id="a_node18"><a xlink:href="https://github.com/conda-forge/nvidia-apex-feedstock" xlink:title="nvidia apex">
<ellipse fill="#fde725" stroke="black" cx="660" cy="-638" rx="63.89" ry="18"/>
<text text-anchor="middle" x="660" y="-634.3" font-family="Times,serif" font-size="14.00">nvidia apex</text>
</a>
</g>
</g>
<!-- pytorch&#45;cpu&#45;&gt;nvidia&#45;apex -->
<g id="edge23" class="edge">
<title>pytorch&#45;cpu&#45;&gt;nvidia&#45;apex</title>
<path fill="none" stroke="black" d="M870.79,-695.75C826.21,-683.75 760.64,-666.1 714.5,-653.67"/>
<polygon fill="black" stroke="black" points="715.23,-650.25 704.67,-651.03 713.41,-657.01 715.23,-650.25"/>
</g>
<!-- pytorch_cluster -->
<g id="node19" class="node">
<title>pytorch_cluster</title>
<g id="a_node19"><a xlink:href="https://github.com/conda-forge/pytorch_cluster-feedstock" xlink:title="pytorch_cluster">
<ellipse fill="#fde725" stroke="black" cx="473" cy="-566" rx="83.39" ry="18"/>
<text text-anchor="middle" x="473" y="-562.3" font-family="Times,serif" font-size="14.00">pytorch_cluster</text>
</a>
</g>
</g>
<!-- pytorch&#45;cpu&#45;&gt;pytorch_cluster -->
<g id="edge24" class="edge">
<title>pytorch&#45;cpu&#45;&gt;pytorch_cluster</title>
<path fill="none" stroke="black" d="M844.2,-704.05C752.09,-697.01 602.91,-681.97 554,-656 526.23,-641.25 503.12,-613.09 488.78,-592.37"/>
<polygon fill="black" stroke="black" points="491.66,-590.38 483.19,-584.02 485.84,-594.27 491.66,-590.38"/>
</g>
<!-- pytorch_scatter -->
<g id="node20" class="node">
<title>pytorch_scatter</title>
<g id="a_node20"><a xlink:href="https://github.com/conda-forge/pytorch_scatter-feedstock" xlink:title="pytorch_scatter">
<ellipse fill="#fde725" stroke="black" cx="771" cy="-494" rx="83.39" ry="18"/>
<text text-anchor="middle" x="771" y="-490.3" font-family="Times,serif" font-size="14.00">pytorch_scatter</text>
</a>
</g>
</g>
<!-- pytorch&#45;cpu&#45;&gt;pytorch_scatter -->
<g id="edge25" class="edge">
<title>pytorch&#45;cpu&#45;&gt;pytorch_scatter</title>
<path fill="none" stroke="black" d="M901.54,-692.31C891.06,-682.33 878.06,-669.08 868,-656 833.99,-611.77 832.97,-595.68 804,-548 798.57,-539.06 792.55,-529.33 787.15,-520.68"/>
<polygon fill="black" stroke="black" points="790.07,-518.75 781.8,-512.13 784.13,-522.46 790.07,-518.75"/>
</g>
<!-- pytorch_spline_conv -->
<g id="node21" class="node">
<title>pytorch_spline_conv</title>
<g id="a_node21"><a xlink:href="https://github.com/conda-forge/pytorch_spline_conv-feedstock" xlink:title="pytorch_spline_conv">
<ellipse fill="#fde725" stroke="black" cx="775" cy="-422" rx="104.78" ry="18"/>
<text text-anchor="middle" x="775" y="-418.3" font-family="Times,serif" font-size="14.00">pytorch_spline_conv</text>
</a>
</g>
</g>
<!-- pytorch&#45;cpu&#45;&gt;pytorch_spline_conv -->
<g id="edge26" class="edge">
<title>pytorch&#45;cpu&#45;&gt;pytorch_spline_conv</title>
<path fill="none" stroke="black" d="M915.36,-691.84C912.58,-681.48 909.02,-668 906,-656 885.94,-576.23 911.56,-542.38 863,-476 853.06,-462.41 838.48,-451.64 824.04,-443.45"/>
<polygon fill="black" stroke="black" points="825.58,-440.3 815.11,-438.68 822.28,-446.48 825.58,-440.3"/>
</g>
<!-- pytorch_sparse -->
<g id="node22" class="node">
<title>pytorch_sparse</title>
<g id="a_node22"><a xlink:href="https://github.com/conda-forge/pytorch_sparse-feedstock" xlink:title="pytorch_sparse">
<ellipse fill="#fde725" stroke="black" cx="571" cy="-422" rx="81.49" ry="18"/>
<text text-anchor="middle" x="571" y="-418.3" font-family="Times,serif" font-size="14.00">pytorch_sparse</text>
</a>
</g>
</g>
<!-- pytorch&#45;cpu&#45;&gt;pytorch_sparse -->
<g id="edge27" class="edge">
<title>pytorch&#45;cpu&#45;&gt;pytorch_sparse</title>
<path fill="none" stroke="black" d="M893.44,-692.99C877.29,-682.93 856.49,-669.37 839,-656 743.18,-582.79 727.86,-554.12 636,-476 624.22,-465.98 611.02,-455.15 599.62,-445.91"/>
<polygon fill="black" stroke="black" points="601.65,-443.05 591.67,-439.49 597.25,-448.5 601.65,-443.05"/>
</g>
<!-- torchani -->
<g id="node23" class="node">
<title>torchani</title>
<g id="a_node23"><a xlink:href="https://github.com/conda-forge/torchani-feedstock" xlink:title="torchani">
<ellipse fill="#fde725" stroke="black" cx="1120" cy="-350" rx="49.5" ry="18"/>
<text text-anchor="middle" x="1120" y="-346.3" font-family="Times,serif" font-size="14.00">torchani</text>
</a>
</g>
</g>
<!-- pytorch&#45;cpu&#45;&gt;torchani -->
<g id="edge28" class="edge">
<title>pytorch&#45;cpu&#45;&gt;torchani</title>
<path fill="none" stroke="black" d="M924.64,-691.84C927.42,-681.48 930.98,-668 934,-656 954.06,-576.23 924.72,-539.5 977,-476 1001.53,-446.21 1026.18,-464.49 1056,-440 1077.36,-422.46 1095.08,-396.18 1106.42,-376.72"/>
<polygon fill="black" stroke="black" points="1109.6,-378.21 1111.46,-367.78 1103.5,-374.77 1109.6,-378.21"/>
</g>
<!-- openmm&#45;torch -->
<g id="node24" class="node">
<title>openmm&#45;torch</title>
<g id="a_node24"><a xlink:href="https://github.com/conda-forge/openmm-torch-feedstock" xlink:title="openmm torch">
<ellipse fill="#fde725" stroke="black" cx="2372" cy="-638" rx="78" ry="18"/>
<text text-anchor="middle" x="2372" y="-634.3" font-family="Times,serif" font-size="14.00">openmm torch</text>
</a>
</g>
</g>
<!-- pytorch&#45;cpu&#45;&gt;openmm&#45;torch -->
<g id="edge29" class="edge">
<title>pytorch&#45;cpu&#45;&gt;openmm&#45;torch</title>
<path fill="none" stroke="black" d="M999.58,-707.52C1252.11,-702.58 2033.53,-685.27 2285,-656 2292.33,-655.15 2299.97,-654.02 2307.55,-652.74"/>
<polygon fill="black" stroke="black" points="2308.2,-656.18 2317.44,-651 2306.98,-649.29 2308.2,-656.18"/>
</g>
<!-- torchsparse -->
<g id="node25" class="node">
<title>torchsparse</title>
<g id="a_node25"><a xlink:href="https://github.com/conda-forge/torchsparse-feedstock" xlink:title="torchsparse">
<ellipse fill="#fde725" stroke="black" cx="1343" cy="-638" rx="65.79" ry="18"/>
<text text-anchor="middle" x="1343" y="-634.3" font-family="Times,serif" font-size="14.00">torchsparse</text>
</a>
</g>
</g>
<!-- pytorch&#45;cpu&#45;&gt;torchsparse -->
<g id="edge30" class="edge">
<title>pytorch&#45;cpu&#45;&gt;torchsparse</title>
<path fill="none" stroke="black" d="M987.49,-700.28C1057.97,-690.82 1171.62,-674.55 1269,-656 1274.34,-654.98 1279.88,-653.85 1285.42,-652.67"/>
<polygon fill="black" stroke="black" points="1286.32,-656.06 1295.34,-650.5 1284.83,-649.22 1286.32,-656.06"/>
</g>
<!-- torch&#45;scatter -->
<g id="node26" class="node">
<title>torch&#45;scatter</title>
<g id="a_node26"><a xlink:href="https://github.com/conda-forge/torch-scatter-feedstock" xlink:title="torch scatter">
<ellipse fill="#fde725" stroke="black" cx="71" cy="-566" rx="71" ry="18"/>
<text text-anchor="middle" x="71" y="-562.3" font-family="Times,serif" font-size="14.00">torch scatter</text>
</a>
</g>
</g>
<!-- pytorch&#45;cpu&#45;&gt;torch&#45;scatter -->
<g id="edge31" class="edge">
<title>pytorch&#45;cpu&#45;&gt;torch&#45;scatter</title>
<path fill="none" stroke="black" d="M841.15,-706.75C658.41,-701.07 216.86,-684.56 156,-656 126.72,-642.26 102.35,-613.65 87.32,-592.56"/>
<polygon fill="black" stroke="black" points="90.01,-590.3 81.46,-584.05 84.24,-594.27 90.01,-590.3"/>
</g>
<!-- kaolin -->
<g id="node27" class="node">
<title>kaolin</title>
<g id="a_node27"><a xlink:href="https://github.com/conda-forge/kaolin-feedstock" xlink:title="kaolin">
<ellipse fill="#fde725" stroke="black" cx="155" cy="-494" rx="38.5" ry="18"/>
<text text-anchor="middle" x="155" y="-490.3" font-family="Times,serif" font-size="14.00">kaolin</text>
</a>
</g>
</g>
<!-- pytorch&#45;cpu&#45;&gt;kaolin -->
<g id="edge32" class="edge">
<title>pytorch&#45;cpu&#45;&gt;kaolin</title>
<path fill="none" stroke="black" d="M840.36,-707.99C664.95,-705.08 256.89,-694.22 208,-656 166.85,-623.83 157.29,-558.88 155.29,-522.07"/>
<polygon fill="black" stroke="black" points="158.78,-521.9 154.89,-512.05 151.79,-522.18 158.78,-521.9"/>
</g>
<!-- nnpops -->
<g id="node28" class="node">
<title>nnpops</title>
<g id="a_node28"><a xlink:href="https://github.com/conda-forge/nnpops-feedstock" xlink:title="nnpops">
<ellipse fill="#fde725" stroke="black" cx="1090" cy="-278" rx="44.39" ry="18"/>
<text text-anchor="middle" x="1090" y="-274.3" font-family="Times,serif" font-size="14.00">nnpops</text>
</a>
</g>
</g>
<!-- pytorch&#45;cpu&#45;&gt;nnpops -->
<g id="edge33" class="edge">
<title>pytorch&#45;cpu&#45;&gt;nnpops</title>
<path fill="none" stroke="black" d="M916.98,-691.72C910.69,-650.03 900.63,-542.46 950,-476 971.57,-446.96 998.89,-466.97 1023,-440 1057.02,-401.96 1041.36,-378.68 1062,-332 1065.97,-323.01 1070.83,-313.44 1075.37,-304.94"/>
<polygon fill="black" stroke="black" points="1078.59,-306.34 1080.3,-295.89 1072.45,-302.99 1078.59,-306.34"/>
</g>
<!-- triton -->
<g id="node29" class="node">
<title>triton</title>
<g id="a_node29"><a xlink:href="https://github.com/conda-forge/triton-feedstock" xlink:title="triton">
<ellipse fill="#fde725" stroke="black" cx="376" cy="-422" rx="37.09" ry="18"/>
<text text-anchor="middle" x="376" y="-418.3" font-family="Times,serif" font-size="14.00">triton</text>
</a>
</g>
</g>
<!-- pytorch&#45;cpu&#45;&gt;triton -->
<g id="edge34" class="edge">
<title>pytorch&#45;cpu&#45;&gt;triton</title>
<path fill="none" stroke="black" d="M841.21,-706.56C754.43,-702.17 622.46,-689.96 587,-656 551.62,-622.12 592.4,-588.6 565,-548 527.86,-492.98 457.57,-456.18 413.96,-437.49"/>
<polygon fill="black" stroke="black" points="415.13,-434.19 404.55,-433.56 412.43,-440.64 415.13,-434.19"/>
</g>
<!-- openmmtorchplugin -->
<g id="node30" class="node">
<title>openmmtorchplugin</title>
<g id="a_node30"><a xlink:href="https://github.com/conda-forge/openmmtorchplugin-feedstock" xlink:title="openmmtorchplugin">
<ellipse fill="#fde725" stroke="black" cx="2171" cy="-638" rx="104.78" ry="18"/>
<text text-anchor="middle" x="2171" y="-634.3" font-family="Times,serif" font-size="14.00">openmmtorchplugin</text>
</a>
</g>
</g>
<!-- pytorch&#45;cpu&#45;&gt;openmmtorchplugin -->
<g id="edge35" class="edge">
<title>pytorch&#45;cpu&#45;&gt;openmmtorchplugin</title>
<path fill="none" stroke="black" d="M999.78,-707.87C1184.99,-704.68 1658.3,-693.25 2052,-656 2063.25,-654.94 2075.06,-653.56 2086.7,-652.06"/>
<polygon fill="black" stroke="black" points="2087.41,-655.49 2096.86,-650.7 2086.48,-648.55 2087.41,-655.49"/>
</g>
<!-- molgrid -->
<g id="node31" class="node">
<title>molgrid</title>
<g id="a_node31"><a xlink:href="https://github.com/conda-forge/molgrid-feedstock" xlink:title="molgrid">
<ellipse fill="#fde725" stroke="black" cx="462" cy="-350" rx="47" ry="18"/>
<text text-anchor="middle" x="462" y="-346.3" font-family="Times,serif" font-size="14.00">molgrid</text>
</a>
</g>
</g>
<!-- pytorch&#45;cpu&#45;&gt;molgrid -->
<g id="edge36" class="edge">
<title>pytorch&#45;cpu&#45;&gt;molgrid</title>
<path fill="none" stroke="black" d="M877.93,-694.57C851.94,-684.99 818.26,-671.38 790,-656 771.6,-645.98 492.57,-457.46 481,-440 468.83,-421.64 464.28,-396.88 462.66,-378.14"/>
<polygon fill="black" stroke="black" points="466.15,-377.92 462.02,-368.16 459.17,-378.36 466.15,-377.92"/>
</g>
<!-- theseus&#45;ai -->
<g id="node32" class="node">
<title>theseus&#45;ai</title>
<g id="a_node32"><a xlink:href="https://github.com/conda-forge/theseus-ai-feedstock" xlink:title="theseus ai">
<ellipse fill="#fde725" stroke="black" cx="413" cy="-638" rx="58" ry="18"/>
<text text-anchor="middle" x="413" y="-634.3" font-family="Times,serif" font-size="14.00">theseus ai</text>
</a>
</g>
</g>
<!-- pytorch&#45;cpu&#45;&gt;theseus&#45;ai -->
<g id="edge37" class="edge">
<title>pytorch&#45;cpu&#45;&gt;theseus&#45;ai</title>
<path fill="none" stroke="black" d="M846.9,-702.59C760.17,-694.4 611.39,-678.55 485,-656 478.86,-654.9 472.46,-653.61 466.12,-652.24"/>
<polygon fill="black" stroke="black" points="466.77,-648.8 456.24,-650.03 465.24,-655.63 466.77,-648.8"/>
</g>
<!-- pyg&#45;lib -->
<g id="node33" class="node">
<title>pyg&#45;lib</title>
<g id="a_node33"><a xlink:href="https://github.com/conda-forge/pyg-lib-feedstock" xlink:title="pyg lib">
<ellipse fill="#fde725" stroke="black" cx="355" cy="-350" rx="42.49" ry="18"/>
<text text-anchor="middle" x="355" y="-346.3" font-family="Times,serif" font-size="14.00">pyg lib</text>
</a>
</g>
</g>
<!-- pytorch&#45;cpu&#45;&gt;pyg&#45;lib -->
<g id="edge38" class="edge">
<title>pytorch&#45;cpu&#45;&gt;pyg&#45;lib</title>
<path fill="none" stroke="black" d="M840.16,-708.33C698.48,-706.11 409.4,-696.57 318,-656 264.82,-632.4 222,-625.18 222,-567 222,-567 222,-567 222,-493 222,-435.93 279.93,-392.34 319.33,-369.29"/>
<polygon fill="black" stroke="black" points="321.43,-372.12 328.41,-364.15 317.98,-366.03 321.43,-372.12"/>
</g>
<!-- deepspeed -->
<g id="node34" class="node">
<title>deepspeed</title>
<g id="a_node34"><a xlink:href="https://github.com/conda-forge/deepspeed-feedstock" xlink:title="deepspeed">
<ellipse fill="#fde725" stroke="black" cx="311" cy="-566" rx="60.5" ry="18"/>
<text text-anchor="middle" x="311" y="-562.3" font-family="Times,serif" font-size="14.00">deepspeed</text>
</a>
</g>
</g>
<!-- pytorch&#45;cpu&#45;&gt;deepspeed -->
<g id="edge39" class="edge">
<title>pytorch&#45;cpu&#45;&gt;deepspeed</title>
<path fill="none" stroke="black" d="M841.56,-706.29C693.64,-700.51 384.76,-685.11 346,-656 326.67,-641.48 318,-614.68 314.13,-594.27"/>
<polygon fill="black" stroke="black" points="317.56,-593.59 312.5,-584.28 310.65,-594.71 317.56,-593.59"/>
</g>
<!-- pytorch_scatter&#45;&gt;pytorch_sparse -->
<g id="edge40" class="edge">
<title>pytorch_scatter&#45;&gt;pytorch_sparse</title>
<path fill="none" stroke="black" d="M729.07,-478.33C697.9,-467.42 655.21,-452.47 622.05,-440.87"/>
<polygon fill="black" stroke="black" points="623.12,-437.53 612.53,-437.53 620.81,-444.14 623.12,-437.53"/>
</g>
<!-- torchani&#45;&gt;nnpops -->
<g id="edge41" class="edge">
<title>torchani&#45;&gt;nnpops</title>
<path fill="none" stroke="black" d="M1112.74,-332.05C1109.27,-323.97 1105.05,-314.12 1101.19,-305.11"/>
<polygon fill="black" stroke="black" points="1104.35,-303.6 1097.2,-295.79 1097.92,-306.36 1104.35,-303.6"/>
</g>
<!-- triton&#45;&gt;pyg&#45;lib -->
<g id="edge42" class="edge">
<title>triton&#45;&gt;pyg&#45;lib</title>
<path fill="none" stroke="black" d="M370.92,-404.05C368.58,-396.26 365.75,-386.82 363.12,-378.08"/>
<polygon fill="black" stroke="black" points="366.41,-376.85 360.18,-368.28 359.7,-378.86 366.41,-376.85"/>
</g>
<!-- prismatic_split -->
<g id="node36" class="node">
<title>prismatic_split</title>
<g id="a_node36"><a xlink:href="https://github.com/conda-forge/prismatic_split-feedstock/pull/38" xlink:title="prismatic_split ❎">
<ellipse fill="#31688e" stroke="black" cx="3088" cy="-494" rx="93.68" ry="18"/>
<text text-anchor="middle" x="3088" y="-490.3" font-family="Times,serif" font-size="14.00" fill="white">prismatic_split ❎</text>
</a>
</g>
</g>
<!-- jaxlib&#45;&gt;prismatic_split -->
<!-- pycuda -->
<g id="node43" class="node">
<title>pycuda</title>
<g id="a_node43"><a xlink:href="https://github.com/conda-forge/pycuda-feedstock/pull/25" xlink:title="pycuda ❎">
<ellipse fill="#31688e" stroke="black" cx="3088" cy="-422" rx="58" ry="18"/>
<text text-anchor="middle" x="3088" y="-418.3" font-family="Times,serif" font-size="14.00" fill="white">pycuda ❎</text>
</a>
</g>
</g>
<!-- prismatic_split&#45;&gt;pycuda -->
<!-- openmm -->
<g id="node37" class="node">
<title>openmm</title>
<g id="a_node37"><a xlink:href="https://github.com/conda-forge/openmm-feedstock/pull/107" xlink:title="openmm ❎">
<ellipse fill="#31688e" stroke="black" cx="2516" cy="-710" rx="65" ry="18"/>
<text text-anchor="middle" x="2516" y="-706.3" font-family="Times,serif" font-size="14.00" fill="white">openmm ❎</text>
</a>
</g>
</g>
<!-- openmm&#45;&gt;openmm&#45;torch -->
<g id="edge45" class="edge">
<title>openmm&#45;&gt;openmm&#45;torch</title>
<path fill="none" stroke="black" d="M2485.11,-693.98C2464.04,-683.74 2435.92,-670.07 2412.99,-658.92"/>
<polygon fill="black" stroke="black" points="2414.36,-655.7 2403.84,-654.48 2411.3,-662 2414.36,-655.7"/>
</g>
<!-- openmm&#45;&gt;openmmtorchplugin -->
<g id="edge46" class="edge">
<title>openmm&#45;&gt;openmmtorchplugin</title>
<path fill="none" stroke="black" d="M2465.09,-698.67C2407.24,-686.93 2312.26,-667.66 2245.94,-654.21"/>
<polygon fill="black" stroke="black" points="2246.46,-650.74 2235.96,-652.18 2245.07,-657.6 2246.46,-650.74"/>
</g>
<!-- openmm&#45;plumed -->
<g id="node38" class="node">
<title>openmm&#45;plumed</title>
<g id="a_node38"><a xlink:href="https://github.com/conda-forge/openmm-plumed-feedstock" xlink:title="openmm plumed">
<ellipse fill="#fde725" stroke="black" cx="2632" cy="-638" rx="88.5" ry="18"/>
<text text-anchor="middle" x="2632" y="-634.3" font-family="Times,serif" font-size="14.00">openmm plumed</text>
</a>
</g>
</g>
<!-- openmm&#45;&gt;openmm&#45;plumed -->
<g id="edge47" class="edge">
<title>openmm&#45;&gt;openmm&#45;plumed</title>
<path fill="none" stroke="black" d="M2541.74,-693.46C2557.77,-683.79 2578.62,-671.21 2596.24,-660.58"/>
<polygon fill="black" stroke="black" points="2598.36,-663.38 2605.12,-655.22 2594.75,-657.39 2598.36,-663.38"/>
</g>
<!-- meld -->
<g id="node39" class="node">
<title>meld</title>
<g id="a_node39"><a xlink:href="https://github.com/conda-forge/meld-feedstock" xlink:title="meld">
<ellipse fill="#fde725" stroke="black" cx="2748" cy="-566" rx="34" ry="18"/>
<text text-anchor="middle" x="2748" y="-562.3" font-family="Times,serif" font-size="14.00">meld</text>
</a>
</g>
</g>
<!-- openmm&#45;&gt;meld -->
<g id="edge48" class="edge">
<title>openmm&#45;&gt;meld</title>
<path fill="none" stroke="black" d="M2573.73,-701.71C2629.54,-693.48 2708.69,-678.25 2730,-656 2745.55,-639.77 2749.36,-614 2749.69,-594.36"/>
<polygon fill="black" stroke="black" points="2753.18,-594.14 2749.56,-584.18 2746.18,-594.23 2753.18,-594.14"/>
</g>
<!-- seekr2_openmm_plugin -->
<g id="node40" class="node">
<title>seekr2_openmm_plugin</title>
<g id="a_node40"><a xlink:href="https://github.com/conda-forge/seekr2_openmm_plugin-feedstock" xlink:title="seekr2_openmm_plugin">
<ellipse fill="#fde725" stroke="black" cx="2368" cy="-494" rx="120.48" ry="18"/>
<text text-anchor="middle" x="2368" y="-490.3" font-family="Times,serif" font-size="14.00">seekr2_openmm_plugin</text>
</a>
</g>
</g>
<!-- openmm&#45;&gt;seekr2_openmm_plugin -->
<g id="edge49" class="edge">
<title>openmm&#45;&gt;seekr2_openmm_plugin</title>
<path fill="none" stroke="black" d="M2505.58,-692.07C2494.37,-674.02 2475.87,-644.69 2459,-620 2435.02,-584.91 2405.89,-545.41 2387.16,-520.38"/>
<polygon fill="black" stroke="black" points="2389.79,-518.06 2380.99,-512.16 2384.19,-522.26 2389.79,-518.06"/>
</g>
<!-- openmm&#45;atmmetaforce&#45;plugin -->
<g id="node41" class="node">
<title>openmm&#45;atmmetaforce&#45;plugin</title>
<g id="a_node41"><a xlink:href="https://github.com/conda-forge/openmm-atmmetaforce-plugin-feedstock" xlink:title="openmm atmmetaforce plugin">
<ellipse fill="#fde725" stroke="black" cx="2810" cy="-422" rx="151" ry="18"/>
<text text-anchor="middle" x="2810" y="-418.3" font-family="Times,serif" font-size="14.00">openmm atmmetaforce plugin</text>
</a>
</g>
</g>
<!-- openmm&#45;&gt;openmm&#45;atmmetaforce&#45;plugin -->
<g id="edge50" class="edge">
<title>openmm&#45;&gt;openmm&#45;atmmetaforce&#45;plugin</title>
<path fill="none" stroke="black" d="M2580.88,-708.63C2632.02,-705.23 2702.69,-693.31 2752,-656 2815.8,-607.73 2816.54,-500.89 2812.91,-450.42"/>
<polygon fill="black" stroke="black" points="2816.38,-449.94 2812.06,-440.26 2809.41,-450.52 2816.38,-449.94"/>
</g>
<!-- openmm&#45;dlext -->
<g id="node42" class="node">
<title>openmm&#45;dlext</title>
<g id="a_node42"><a xlink:href="https://github.com/conda-forge/openmm-dlext-feedstock" xlink:title="openmm dlext">
<ellipse fill="#fde725" stroke="black" cx="2516" cy="-350" rx="77.5" ry="18"/>
<text text-anchor="middle" x="2516" y="-346.3" font-family="Times,serif" font-size="14.00">openmm dlext</text>
</a>
</g>
</g>
<!-- openmm&#45;&gt;openmm&#45;dlext -->
<g id="edge51" class="edge">
<title>openmm&#45;&gt;openmm&#45;dlext</title>
<path fill="none" stroke="black" d="M2516,-691.95C2516,-665.29 2516,-612.11 2516,-567 2516,-567 2516,-567 2516,-493 2516,-453 2516,-406.65 2516,-378.08"/>
<polygon fill="black" stroke="black" points="2519.5,-378.05 2516,-368.05 2512.5,-378.05 2519.5,-378.05"/>
</g>
<!-- cudadecon -->
<g id="node50" class="node">
<title>cudadecon</title>
<g id="a_node50"><a xlink:href="https://github.com/conda-forge/cudadecon-feedstock/pull/18" xlink:title="cudadecon ❎">
<ellipse fill="#31688e" stroke="black" cx="3088" cy="-350" rx="74.19" ry="18"/>
<text text-anchor="middle" x="3088" y="-346.3" font-family="Times,serif" font-size="14.00" fill="white">cudadecon ❎</text>
</a>
</g>
</g>
<!-- pycuda&#45;&gt;cudadecon -->
<!-- pp&#45;sketchlib -->
<g id="node44" class="node">
<title>pp&#45;sketchlib</title>
<g id="a_node44"><a xlink:href="https://github.com/conda-forge/pp-sketchlib-feedstock/pull/40" xlink:title="pp sketchlib ❎">
<ellipse fill="#31688e" stroke="black" cx="1480" cy="-90" rx="81.49" ry="18"/>
<text text-anchor="middle" x="1480" y="-86.3" font-family="Times,serif" font-size="14.00" fill="white">pp sketchlib ❎</text>
</a>
</g>
</g>
<!-- mandrake -->
<g id="node45" class="node">
<title>mandrake</title>
<g id="a_node45"><a xlink:href="https://github.com/conda-forge/mandrake-feedstock" xlink:title="mandrake">
<ellipse fill="#fde725" stroke="black" cx="1480" cy="-18" rx="57.39" ry="18"/>
<text text-anchor="middle" x="1480" y="-14.3" font-family="Times,serif" font-size="14.00">mandrake</text>
</a>
</g>
</g>
<!-- pp&#45;sketchlib&#45;&gt;mandrake -->
<g id="edge53" class="edge">
<title>pp&#45;sketchlib&#45;&gt;mandrake</title>
<path fill="none" stroke="black" d="M1480,-71.7C1480,-63.98 1480,-54.71 1480,-46.11"/>
<polygon fill="black" stroke="black" points="1483.5,-46.1 1480,-36.1 1476.5,-46.1 1483.5,-46.1"/>
</g>
<!-- faiss&#45;split -->
<g id="node46" class="node">
<title>faiss&#45;split</title>
<g id="a_node46"><a xlink:href="https://github.com/conda-forge/faiss-split-feedstock/pull/68" xlink:title="faiss split ❎">
<ellipse fill="#31688e" stroke="black" cx="1190" cy="-638" rx="69.59" ry="18"/>
<text text-anchor="middle" x="1190" y="-634.3" font-family="Times,serif" font-size="14.00" fill="white">faiss split ❎</text>
</a>
</g>
</g>
<!-- faiss&#45;split&#45;&gt;graphvite -->
<g id="edge54" class="edge">
<title>faiss&#45;split&#45;&gt;graphvite</title>
<path fill="none" stroke="black" d="M1233.37,-623.92C1273.07,-611.94 1331.77,-594.23 1373.12,-581.75"/>
<polygon fill="black" stroke="black" points="1374.15,-585.09 1382.71,-578.85 1372.13,-578.39 1374.15,-585.09"/>
</g>
<!-- tsnecuda -->
<g id="node47" class="node">
<title>tsnecuda</title>
<g id="a_node47"><a xlink:href="https://github.com/conda-forge/tsnecuda-feedstock" xlink:title="tsnecuda">
<ellipse fill="#fde725" stroke="black" cx="1295" cy="-566" rx="52.79" ry="18"/>
<text text-anchor="middle" x="1295" y="-562.3" font-family="Times,serif" font-size="14.00">tsnecuda</text>
</a>
</g>
</g>
<!-- faiss&#45;split&#45;&gt;tsnecuda -->
<g id="edge55" class="edge">
<title>faiss&#45;split&#45;&gt;tsnecuda</title>
<path fill="none" stroke="black" d="M1214.09,-620.94C1228.8,-611.13 1247.77,-598.48 1263.65,-587.9"/>
<polygon fill="black" stroke="black" points="1265.72,-590.72 1272.1,-582.26 1261.84,-584.9 1265.72,-590.72"/>
</g>
<!-- libtvm -->
<g id="node48" class="node">
<title>libtvm</title>
<g id="a_node48"><a xlink:href="https://github.com/conda-forge/libtvm-feedstock" xlink:title="libtvm">
<ellipse fill="#fde725" stroke="black" cx="956" cy="-350" rx="40.5" ry="18"/>
<text text-anchor="middle" x="956" y="-346.3" font-family="Times,serif" font-size="14.00">libtvm</text>
</a>
</g>
</g>
<!-- tvm&#45;py -->
<g id="node49" class="node">
<title>tvm&#45;py</title>
<g id="a_node49"><a xlink:href="https://github.com/conda-forge/tvm-py-feedstock" xlink:title="tvm py">
<ellipse fill="#fde725" stroke="black" cx="956" cy="-278" rx="43" ry="18"/>
<text text-anchor="middle" x="956" y="-274.3" font-family="Times,serif" font-size="14.00">tvm py</text>
</a>
</g>
</g>
<!-- libtvm&#45;&gt;tvm&#45;py -->
<g id="edge56" class="edge">
<title>libtvm&#45;&gt;tvm&#45;py</title>
<path fill="none" stroke="black" d="M956,-331.7C956,-323.98 956,-314.71 956,-306.11"/>
<polygon fill="black" stroke="black" points="959.5,-306.1 956,-296.1 952.5,-306.1 959.5,-306.1"/>
</g>
<!-- timemory -->
<g id="node51" class="node">
<title>timemory</title>
<g id="a_node51"><a xlink:href="https://github.com/conda-forge/timemory-feedstock/pull/15" xlink:title="timemory ❎">
<ellipse fill="#31688e" stroke="black" cx="3088" cy="-278" rx="69.59" ry="18"/>
<text text-anchor="middle" x="3088" y="-274.3" font-family="Times,serif" font-size="14.00" fill="white">timemory ❎</text>
</a>
</g>
</g>
<!-- cudadecon&#45;&gt;timemory -->
<!-- rmm -->
<g id="node52" class="node">
<title>rmm</title>
<g id="a_node52"><a xlink:href="https://github.com/conda-forge/rmm-feedstock/pull/23" xlink:title="rmm ❎">
<ellipse fill="#31688e" stroke="black" cx="3088" cy="-206" rx="47" ry="18"/>
<text text-anchor="middle" x="3088" y="-202.3" font-family="Times,serif" font-size="14.00" fill="white">rmm ❎</text>
</a>
</g>
</g>
<!-- timemory&#45;&gt;rmm -->
<!-- ptxcompiler -->
<g id="node55" class="node">
<title>ptxcompiler</title>
<g id="a_node55"><a xlink:href="https://github.com/conda-forge/ptxcompiler-feedstock" xlink:title="ptxcompiler">
<ellipse fill="#000000" stroke="black" cx="3088" cy="-134" rx="66.5" ry="18"/>
<text text-anchor="middle" x="3088" y="-130.3" font-family="Times,serif" font-size="14.00" fill="white">ptxcompiler</text>
</a>
</g>
</g>
<!-- rmm&#45;&gt;ptxcompiler -->
<!-- colmap -->
<g id="node53" class="node">
<title>colmap</title>
<g id="a_node53"><a xlink:href="https://github.com/conda-forge/colmap-feedstock/pull/19" xlink:title="colmap ❎">
<ellipse fill="#31688e" stroke="black" cx="3301" cy="-90" rx="58" ry="18"/>
<text text-anchor="middle" x="3301" y="-86.3" font-family="Times,serif" font-size="14.00" fill="white">colmap ❎</text>
</a>
</g>
</g>
<!-- pycolmap -->
<g id="node54" class="node">
<title>pycolmap</title>
<g id="a_node54"><a xlink:href="https://github.com/conda-forge/pycolmap-feedstock" xlink:title="pycolmap">
<ellipse fill="#fde725" stroke="black" cx="3301" cy="-18" rx="55.49" ry="18"/>
<text text-anchor="middle" x="3301" y="-14.3" font-family="Times,serif" font-size="14.00">pycolmap</text>
</a>
</g>
</g>
<!-- colmap&#45;&gt;pycolmap -->
<g id="edge60" class="edge">
<title>colmap&#45;&gt;pycolmap</title>
<path fill="none" stroke="black" d="M3301,-71.7C3301,-63.98 3301,-54.71 3301,-46.11"/>
<polygon fill="black" stroke="black" points="3304.5,-46.1 3301,-36.1 3297.5,-46.1 3304.5,-46.1"/>
</g>
<!-- cutlass -->
<g id="node56" class="node">
<title>cutlass</title>
<g id="a_node56"><a xlink:href="https://github.com/conda-forge/cutlass-feedstock/pull/10" xlink:title="cutlass ❎">
<ellipse fill="#31688e" stroke="black" cx="956" cy="-422" rx="58" ry="18"/>
<text text-anchor="middle" x="956" y="-418.3" font-family="Times,serif" font-size="14.00" fill="white">cutlass ❎</text>
</a>
</g>
</g>
<!-- cutlass&#45;&gt;pyg&#45;lib -->
<g id="edge62" class="edge">
<title>cutlass&#45;&gt;pyg&#45;lib</title>
<path fill="none" stroke="black" d="M914.42,-409.26C906.06,-407.23 897.29,-405.35 889,-404 676.54,-369.4 617.05,-410.36 406,-368 402.4,-367.28 398.71,-366.38 395.03,-365.37"/>
<polygon fill="black" stroke="black" points="396,-362 385.41,-362.5 393.99,-368.71 396,-362"/>
</g>
<!-- cutlass&#45;&gt;libtvm -->
<g id="edge63" class="edge">
<title>cutlass&#45;&gt;libtvm</title>
<path fill="none" stroke="black" d="M956,-403.7C956,-395.98 956,-386.71 956,-378.11"/>
<polygon fill="black" stroke="black" points="959.5,-378.1 956,-368.1 952.5,-378.1 959.5,-378.1"/>
</g>
<!-- pyvkfft -->
<g id="node57" class="node">
<title>pyvkfft</title>
<g id="a_node57"><a xlink:href="https://github.com/conda-forge/pyvkfft-feedstock/pull/10" xlink:title="pyvkfft ❎">
<ellipse fill="#31688e" stroke="black" cx="3301" cy="-638" rx="57.39" ry="18"/>
<text text-anchor="middle" x="3301" y="-634.3" font-family="Times,serif" font-size="14.00" fill="white">pyvkfft ❎</text>
</a>
</g>
</g>
<!-- pyscamp&#45;gpu -->
<g id="node58" class="node">
<title>pyscamp&#45;gpu</title>
<g id="a_node58"><a xlink:href="https://github.com/conda-forge/pyscamp-gpu-feedstock/pull/6" xlink:title="pyscamp gpu ❎">
<ellipse fill="#31688e" stroke="black" cx="3301" cy="-566" rx="86.5" ry="18"/>
<text text-anchor="middle" x="3301" y="-562.3" font-family="Times,serif" font-size="14.00" fill="white">pyscamp gpu ❎</text>
</a>
</g>
</g>
<!-- pyvkfft&#45;&gt;pyscamp&#45;gpu -->
<!-- cyrsoxs -->
<g id="node59" class="node">
<title>cyrsoxs</title>
<g id="a_node59"><a xlink:href="https://github.com/conda-forge/cyrsoxs-feedstock/pull/9" xlink:title="cyrsoxs ❎">
<ellipse fill="#31688e" stroke="black" cx="3301" cy="-494" rx="60" ry="18"/>
<text text-anchor="middle" x="3301" y="-490.3" font-family="Times,serif" font-size="14.00" fill="white">cyrsoxs ❎</text>
</a>
</g>
</g>
<!-- pyscamp&#45;gpu&#45;&gt;cyrsoxs -->
<!-- katago -->
<g id="node60" class="node">
<title>katago</title>
<g id="a_node60"><a xlink:href="https://github.com/conda-forge/katago-feedstock/pull/5" xlink:title="katago ❎">
<ellipse fill="#31688e" stroke="black" cx="3301" cy="-422" rx="56" ry="18"/>
<text text-anchor="middle" x="3301" y="-418.3" font-family="Times,serif" font-size="14.00" fill="white">katago ❎</text>
</a>
</g>
</g>
<!-- cyrsoxs&#45;&gt;katago -->
<!-- hoomd&#45;dlext -->
<g id="node61" class="node">
<title>hoomd&#45;dlext</title>
<g id="a_node61"><a xlink:href="https://github.com/conda-forge/hoomd-dlext-feedstock" xlink:title="hoomd dlext">
<ellipse fill="#35b779" stroke="black" cx="3301" cy="-350" rx="68.49" ry="18"/>
<text text-anchor="middle" x="3301" y="-346.3" font-family="Times,serif" font-size="14.00">hoomd dlext</text>
</a>
</g>
</g>
<!-- katago&#45;&gt;hoomd&#45;dlext -->
</g>
</svg>
