<?xml version="1.0" encoding="UTF-8" standalone="no"?>
<!DOCTYPE svg PUBLIC "-//W3C//DTD SVG 1.1//EN"
 "http://www.w3.org/Graphics/SVG/1.1/DTD/svg11.dtd">
<!-- Generated by graphviz version 8.1.0 (20230707.2238)
 -->
<!-- Pages: 1 -->
<svg width="3336pt" height="952pt"
 viewBox="0.00 0.00 3335.51 952.00" xmlns="http://www.w3.org/2000/svg" xmlns:xlink="http://www.w3.org/1999/xlink">
<g id="graph0" class="graph" transform="scale(1 1) rotate(0) translate(4 948)">
<polygon fill="white" stroke="none" points="-4,4 -4,-948 3331.51,-948 3331.51,4 -4,4"/>
<!-- torchvision -->
<g id="node1" class="node">
<title>torchvision</title>
<g id="a_node1"><a xlink:href="https://github.com/conda-forge/torchvision-feedstock" xlink:title="torchvision">
<ellipse fill="#fde725" stroke="black" cx="845.67" cy="-710" rx="66.99" ry="18"/>
<text text-anchor="middle" x="845.67" y="-705.33" font-family="Times,serif" font-size="14.00">torchvision</text>
</a>
</g>
</g>
<!-- detectron2 -->
<g id="node2" class="node">
<title>detectron2</title>
<g id="a_node2"><a xlink:href="https://github.com/conda-forge/detectron2-feedstock" xlink:title="detectron2">
<ellipse fill="#fde725" stroke="black" cx="480.67" cy="-638" rx="65.94" ry="18"/>
<text text-anchor="middle" x="480.67" y="-633.33" font-family="Times,serif" font-size="14.00">detectron2</text>
</a>
</g>
</g>
<!-- torchvision&#45;&gt;detectron2 -->
<g id="edge1" class="edge">
<title>torchvision&#45;&gt;detectron2</title>
<path fill="none" stroke="black" d="M790.22,-699.58C731.75,-689.48 637.03,-672.65 555.67,-656 550.63,-654.97 545.4,-653.86 540.15,-652.72"/>
<polygon fill="black" stroke="black" points="540.94,-649.09 530.43,-650.36 539.44,-655.93 540.94,-649.09"/>
</g>
<!-- fcos -->
<g id="node3" class="node">
<title>fcos</title>
<g id="a_node3"><a xlink:href="https://github.com/conda-forge/fcos-feedstock" xlink:title="fcos">
<ellipse fill="#fde725" stroke="black" cx="595.67" cy="-638" rx="31.22" ry="18"/>
<text text-anchor="middle" x="595.67" y="-633.33" font-family="Times,serif" font-size="14.00">fcos</text>
</a>
</g>
</g>
<!-- torchvision&#45;&gt;fcos -->
<g id="edge2" class="edge">
<title>torchvision&#45;&gt;fcos</title>
<path fill="none" stroke="black" d="M793.68,-698.23C750.78,-688.79 688.6,-673.81 635.67,-656 633.69,-655.33 631.67,-654.61 629.63,-653.85"/>
<polygon fill="black" stroke="black" points="631.14,-650.29 620.55,-649.86 628.56,-656.8 631.14,-650.29"/>
</g>
<!-- fairscale -->
<g id="node4" class="node">
<title>fairscale</title>
<g id="a_node4"><a xlink:href="https://github.com/conda-forge/fairscale-feedstock" xlink:title="fairscale">
<ellipse fill="#fde725" stroke="black" cx="698.67" cy="-638" rx="53.84" ry="18"/>
<text text-anchor="middle" x="698.67" y="-633.33" font-family="Times,serif" font-size="14.00">fairscale</text>
</a>
</g>
</g>
<!-- torchvision&#45;&gt;fairscale -->
<g id="edge3" class="edge">
<title>torchvision&#45;&gt;fairscale</title>
<path fill="none" stroke="black" d="M813.78,-693.81C791.61,-683.26 761.92,-669.12 738.24,-657.84"/>
<polygon fill="black" stroke="black" points="740.04,-654.34 729.5,-653.21 737.03,-660.66 740.04,-654.34"/>
</g>
<!-- graphvite -->
<g id="node5" class="node">
<title>graphvite</title>
<g id="a_node5"><a xlink:href="https://github.com/conda-forge/graphvite-feedstock" xlink:title="graphvite">
<ellipse fill="#fde725" stroke="black" cx="1141.67" cy="-638" rx="59.63" ry="18"/>
<text text-anchor="middle" x="1141.67" y="-633.33" font-family="Times,serif" font-size="14.00">graphvite</text>
</a>
</g>
</g>
<!-- torchvision&#45;&gt;graphvite -->
<g id="edge4" class="edge">
<title>torchvision&#45;&gt;graphvite</title>
<path fill="none" stroke="black" d="M895.31,-697.59C941.33,-686.98 1011.68,-670.63 1072.67,-656 1077.06,-654.95 1081.6,-653.85 1086.16,-652.74"/>
<polygon fill="black" stroke="black" points="1086.9,-655.92 1095.78,-650.14 1085.24,-649.12 1086.9,-655.92"/>
</g>
<!-- mmcv&#45;recipe -->
<g id="node6" class="node">
<title>mmcv&#45;recipe</title>
<g id="a_node6"><a xlink:href="https://github.com/conda-forge/mmcv-recipe-feedstock" xlink:title="mmcv recipe">
<ellipse fill="#fde725" stroke="black" cx="845.67" cy="-638" rx="75.41" ry="18"/>
<text text-anchor="middle" x="845.67" y="-633.33" font-family="Times,serif" font-size="14.00">mmcv recipe</text>
</a>
</g>
</g>
<!-- torchvision&#45;&gt;mmcv&#45;recipe -->
<g id="edge5" class="edge">
<title>torchvision&#45;&gt;mmcv&#45;recipe</title>
<path fill="none" stroke="black" d="M845.67,-691.7C845.67,-684.24 845.67,-675.32 845.67,-666.97"/>
<polygon fill="black" stroke="black" points="849.17,-667.1 845.67,-657.1 842.17,-667.1 849.17,-667.1"/>
</g>
<!-- pytorch3d -->
<g id="node7" class="node">
<title>pytorch3d</title>
<g id="a_node7"><a xlink:href="https://github.com/conda-forge/pytorch3d-feedstock" xlink:title="pytorch3d">
<ellipse fill="#fde725" stroke="black" cx="1001.67" cy="-638" rx="62.26" ry="18"/>
<text text-anchor="middle" x="1001.67" y="-633.33" font-family="Times,serif" font-size="14.00">pytorch3d</text>
</a>
</g>
</g>
<!-- torchvision&#45;&gt;pytorch3d -->
<g id="edge6" class="edge">
<title>torchvision&#45;&gt;pytorch3d</title>
<path fill="none" stroke="black" d="M879.14,-693.98C902.43,-683.53 933.69,-669.51 958.8,-658.24"/>
<polygon fill="black" stroke="black" points="960.11,-661.04 967.8,-653.75 957.24,-654.65 960.11,-661.04"/>
</g>
<!-- tensorflow -->
<g id="node8" class="node">
<title>tensorflow</title>
<g id="a_node8"><a xlink:href="https://github.com/conda-forge/tensorflow-feedstock" xlink:title="tensorflow">
<ellipse fill="#fde725" stroke="black" cx="3263.67" cy="-566" rx="63.84" ry="18"/>
<text text-anchor="middle" x="3263.67" y="-561.33" font-family="Times,serif" font-size="14.00">tensorflow</text>
</a>
</g>
</g>
<!-- deepmd&#45;kit -->
<g id="node9" class="node">
<title>deepmd&#45;kit</title>
<g id="a_node9"><a xlink:href="https://github.com/conda-forge/deepmd-kit-feedstock" xlink:title="deepmd kit">
<ellipse fill="#fde725" stroke="black" cx="3196.67" cy="-494" rx="67.52" ry="18"/>
<text text-anchor="middle" x="3196.67" y="-489.32" font-family="Times,serif" font-size="14.00">deepmd kit</text>
</a>
</g>
</g>
<!-- tensorflow&#45;&gt;deepmd&#45;kit -->
<g id="edge7" class="edge">
<title>tensorflow&#45;&gt;deepmd&#45;kit</title>
<path fill="none" stroke="black" d="M3247.8,-548.41C3239.57,-539.82 3229.37,-529.16 3220.25,-519.63"/>
<polygon fill="black" stroke="black" points="3223.35,-517.76 3213.9,-512.96 3218.29,-522.6 3223.35,-517.76"/>
</g>
<!-- lammps -->
<g id="node10" class="node">
<title>lammps</title>
<g id="a_node10"><a xlink:href="https://github.com/conda-forge/lammps-feedstock" xlink:title="lammps">
<ellipse fill="#000000" stroke="black" cx="3130.67" cy="-566" rx="50.68" ry="18"/>
<text text-anchor="middle" x="3130.67" y="-561.33" font-family="Times,serif" font-size="14.00" fill="white">lammps</text>
</a>
</g>
</g>
<!-- lammps&#45;&gt;deepmd&#45;kit -->
<g id="edge8" class="edge">
<title>lammps&#45;&gt;deepmd&#45;kit</title>
<path fill="none" stroke="black" d="M3146.32,-548.41C3154.33,-539.91 3164.27,-529.37 3173.18,-519.91"/>
<polygon fill="black" stroke="black" points="3175.37,-522.63 3179.69,-512.96 3170.28,-517.83 3175.37,-522.63"/>
</g>
<!-- pytorch&#45;cpu -->
<g id="node11" class="node">
<title>pytorch&#45;cpu</title>
<g id="a_node11"><a xlink:href="https://github.com/conda-forge/pytorch-cpu-feedstock/pull/171" xlink:title="pytorch cpu ❎">
<ellipse fill="#31688e" stroke="black" cx="979.67" cy="-782" rx="85.93" ry="18"/>
<text text-anchor="middle" x="979.67" y="-777.33" font-family="Times,serif" font-size="14.00" fill="white">pytorch cpu ❎</text>
</a>
</g>
</g>
<!-- pytorch&#45;cpu&#45;&gt;torchvision -->
<g id="edge9" class="edge">
<title>pytorch&#45;cpu&#45;&gt;torchvision</title>
<path fill="none" stroke="black" d="M948.59,-764.76C929.59,-754.84 905.12,-742.05 884.8,-731.44"/>
<polygon fill="black" stroke="black" points="886.69,-727.95 876.21,-726.43 883.45,-734.16 886.69,-727.95"/>
</g>
<!-- pytorch&#45;cpu&#45;&gt;detectron2 -->
<g id="edge10" class="edge">
<title>pytorch&#45;cpu&#45;&gt;detectron2</title>
<path fill="none" stroke="black" d="M901.32,-774.27C836.24,-767.17 741.84,-753.38 662.67,-728 609.56,-710.97 552.4,-680.89 516.6,-660.45"/>
<polygon fill="black" stroke="black" points="518.5,-656.93 508.09,-654.97 515,-663 518.5,-656.93"/>
</g>
<!-- pytorch&#45;cpu&#45;&gt;fcos -->
<g id="edge11" class="edge">
<title>pytorch&#45;cpu&#45;&gt;fcos</title>
<path fill="none" stroke="black" d="M904.95,-772.82C853.82,-765.41 785.31,-751.87 728.67,-728 687.91,-710.82 646.4,-680.58 620.85,-660.17"/>
<polygon fill="black" stroke="black" points="623.47,-656.98 613.5,-653.4 619.06,-662.42 623.47,-656.98"/>
</g>
<!-- pytorch&#45;cpu&#45;&gt;fairscale -->
<g id="edge12" class="edge">
<title>pytorch&#45;cpu&#45;&gt;fairscale</title>
<path fill="none" stroke="black" d="M902.77,-773.69C860.79,-766.85 809.42,-753.61 769.67,-728 745.4,-712.36 725.71,-685.59 713.27,-665.48"/>
<polygon fill="black" stroke="black" points="715.89,-664.03 707.77,-657.22 709.87,-667.61 715.89,-664.03"/>
</g>
<!-- pytorch&#45;cpu&#45;&gt;graphvite -->
<g id="edge13" class="edge">
<title>pytorch&#45;cpu&#45;&gt;graphvite</title>
<path fill="none" stroke="black" d="M987.3,-763.65C996.6,-744.15 1013.93,-712.53 1036.67,-692 1053.32,-676.97 1075.02,-665.08 1094.36,-656.4"/>
<polygon fill="black" stroke="black" points="1095.42,-659.33 1103.23,-652.16 1092.66,-652.9 1095.42,-659.33"/>
</g>
<!-- pytorch&#45;cpu&#45;&gt;mmcv&#45;recipe -->
<g id="edge14" class="edge">
<title>pytorch&#45;cpu&#45;&gt;mmcv&#45;recipe</title>
<path fill="none" stroke="black" d="M971.11,-763.89C961.04,-744.88 942.98,-713.99 921.67,-692 910.41,-680.38 896.27,-669.71 883.25,-661.04"/>
<polygon fill="black" stroke="black" points="885.32,-657.56 875.02,-655.09 881.53,-663.45 885.32,-657.56"/>
</g>
<!-- pytorch&#45;cpu&#45;&gt;pytorch3d -->
<g id="edge15" class="edge">
<title>pytorch&#45;cpu&#45;&gt;pytorch3d</title>
<path fill="none" stroke="black" d="M982.37,-763.59C986.12,-739.4 992.94,-695.36 997.39,-666.65"/>
<polygon fill="black" stroke="black" points="1000.95,-667.53 999.02,-657.11 994.03,-666.46 1000.95,-667.53"/>
</g>
<!-- nvidia&#45;apex -->
<g id="node12" class="node">
<title>nvidia&#45;apex</title>
<g id="a_node12"><a xlink:href="https://github.com/conda-forge/nvidia-apex-feedstock" xlink:title="nvidia apex">
<ellipse fill="#fde725" stroke="black" cx="1114.67" cy="-710" rx="68.57" ry="18"/>
<text text-anchor="middle" x="1114.67" y="-705.33" font-family="Times,serif" font-size="14.00">nvidia apex</text>
</a>
</g>
</g>
<!-- pytorch&#45;cpu&#45;&gt;nvidia&#45;apex -->
<g id="edge16" class="edge">
<title>pytorch&#45;cpu&#45;&gt;nvidia&#45;apex</title>
<path fill="none" stroke="black" d="M1010.99,-764.76C1030.13,-754.84 1054.79,-742.05 1075.25,-731.44"/>
<polygon fill="black" stroke="black" points="1076.66,-734.14 1083.92,-726.43 1073.43,-727.92 1076.66,-734.14"/>
</g>
<!-- pytorch_cluster -->
<g id="node13" class="node">
<title>pytorch_cluster</title>
<g id="a_node13"><a xlink:href="https://github.com/conda-forge/pytorch_cluster-feedstock" xlink:title="pytorch_cluster">
<ellipse fill="#fde725" stroke="black" cx="1439.67" cy="-638" rx="89.09" ry="18"/>
<text text-anchor="middle" x="1439.67" y="-633.33" font-family="Times,serif" font-size="14.00">pytorch_cluster</text>
</a>
</g>
</g>
<!-- pytorch&#45;cpu&#45;&gt;pytorch_cluster -->
<g id="edge17" class="edge">
<title>pytorch&#45;cpu&#45;&gt;pytorch_cluster</title>
<path fill="none" stroke="black" d="M1061.32,-776.16C1157.18,-769.36 1309.46,-754.69 1359.67,-728 1387.04,-713.45 1409.67,-685.65 1423.8,-664.97"/>
<polygon fill="black" stroke="black" points="1427.1,-667.32 1429.68,-657.04 1421.26,-663.47 1427.1,-667.32"/>
</g>
<!-- pytorch_scatter -->
<g id="node14" class="node">
<title>pytorch_scatter</title>
<g id="a_node14"><a xlink:href="https://github.com/conda-forge/pytorch_scatter-feedstock" xlink:title="pytorch_scatter">
<ellipse fill="#fde725" stroke="black" cx="1712.67" cy="-566" rx="89.61" ry="18"/>
<text text-anchor="middle" x="1712.67" y="-561.33" font-family="Times,serif" font-size="14.00">pytorch_scatter</text>
</a>
</g>
</g>
<!-- pytorch&#45;cpu&#45;&gt;pytorch_scatter -->
<g id="edge18" class="edge">
<title>pytorch&#45;cpu&#45;&gt;pytorch_scatter</title>
<path fill="none" stroke="black" d="M1063.85,-778.02C1224.51,-771.73 1563.05,-755.39 1608.67,-728 1659.31,-697.6 1689.72,-631.97 1703.61,-594.57"/>
<polygon fill="black" stroke="black" points="1707.19,-595.97 1707.25,-585.38 1700.59,-593.62 1707.19,-595.97"/>
</g>
<!-- pytorch_spline_conv -->
<g id="node15" class="node">
<title>pytorch_spline_conv</title>
<g id="a_node15"><a xlink:href="https://github.com/conda-forge/pytorch_spline_conv-feedstock" xlink:title="pytorch_spline_conv">
<ellipse fill="#fde725" stroke="black" cx="1495.67" cy="-494" rx="112.24" ry="18"/>
<text text-anchor="middle" x="1495.67" y="-489.32" font-family="Times,serif" font-size="14.00">pytorch_spline_conv</text>
</a>
</g>
</g>
<!-- pytorch&#45;cpu&#45;&gt;pytorch_spline_conv -->
<g id="edge19" class="edge">
<title>pytorch&#45;cpu&#45;&gt;pytorch_spline_conv</title>
<path fill="none" stroke="black" d="M1061.95,-776.37C1204.8,-766.26 1488.2,-736.3 1537.67,-656 1563.88,-613.47 1535.51,-554.93 1514.35,-521.42"/>
<polygon fill="black" stroke="black" points="1516.76,-519.71 1508.35,-513.27 1510.9,-523.55 1516.76,-519.71"/>
</g>
<!-- pytorch_sparse -->
<g id="node16" class="node">
<title>pytorch_sparse</title>
<g id="a_node16"><a xlink:href="https://github.com/conda-forge/pytorch_sparse-feedstock" xlink:title="pytorch_sparse">
<ellipse fill="#fde725" stroke="black" cx="1713.67" cy="-494" rx="87.51" ry="18"/>
<text text-anchor="middle" x="1713.67" y="-489.32" font-family="Times,serif" font-size="14.00">pytorch_sparse</text>
</a>
</g>
</g>
<!-- pytorch&#45;cpu&#45;&gt;pytorch_sparse -->
<g id="edge20" class="edge">
<title>pytorch&#45;cpu&#45;&gt;pytorch_sparse</title>
<path fill="none" stroke="black" d="M1062.6,-777.14C1180.55,-770.76 1390.26,-755.85 1460.67,-728 1510.27,-708.38 1522.05,-696.57 1556.67,-656 1591.91,-614.71 1575.33,-586.41 1613.67,-548 1627.37,-534.28 1645.35,-523.27 1662.29,-514.91"/>
<polygon fill="black" stroke="black" points="1663.55,-517.72 1671.11,-510.29 1660.57,-511.38 1663.55,-517.72"/>
</g>
<!-- torchani -->
<g id="node17" class="node">
<title>torchani</title>
<g id="a_node17"><a xlink:href="https://github.com/conda-forge/torchani-feedstock" xlink:title="torchani">
<ellipse fill="#fde725" stroke="black" cx="1375.67" cy="-422" rx="52.79" ry="18"/>
<text text-anchor="middle" x="1375.67" y="-417.32" font-family="Times,serif" font-size="14.00">torchani</text>
</a>
</g>
</g>
<!-- pytorch&#45;cpu&#45;&gt;torchani -->
<g id="edge21" class="edge">
<title>pytorch&#45;cpu&#45;&gt;torchani</title>
<path fill="none" stroke="black" d="M1065.86,-781.3C1267.3,-781.18 1756.17,-775.9 1811.67,-728 1842.29,-701.57 1830.67,-679.45 1830.67,-639 1830.67,-639 1830.67,-639 1830.67,-565 1830.67,-524.46 1840.74,-503.2 1810.67,-476 1757.5,-427.88 1546.73,-421.89 1439.32,-422.08"/>
<polygon fill="black" stroke="black" points="1439.62,-418.58 1429.63,-422.12 1439.64,-425.58 1439.62,-418.58"/>
</g>
<!-- openmm&#45;torch -->
<g id="node18" class="node">
<title>openmm&#45;torch</title>
<g id="a_node18"><a xlink:href="https://github.com/conda-forge/openmm-torch-feedstock" xlink:title="openmm torch">
<ellipse fill="#fde725" stroke="black" cx="2150.67" cy="-710" rx="83.83" ry="18"/>
<text text-anchor="middle" x="2150.67" y="-705.33" font-family="Times,serif" font-size="14.00">openmm torch</text>
</a>
</g>
</g>
<!-- pytorch&#45;cpu&#45;&gt;openmm&#45;torch -->
<g id="edge22" class="edge">
<title>pytorch&#45;cpu&#45;&gt;openmm&#45;torch</title>
<path fill="none" stroke="black" d="M1065.5,-780.32C1247.83,-778.1 1687.03,-768.59 2052.67,-728 2061.22,-727.05 2070.14,-725.83 2078.97,-724.48"/>
<polygon fill="black" stroke="black" points="2079.35,-727.8 2088.67,-722.77 2078.25,-720.89 2079.35,-727.8"/>
</g>
<!-- torchsparse -->
<g id="node19" class="node">
<title>torchsparse</title>
<g id="a_node19"><a xlink:href="https://github.com/conda-forge/torchsparse-feedstock" xlink:title="torchsparse">
<ellipse fill="#fde725" stroke="black" cx="1731.67" cy="-710" rx="70.68" ry="18"/>
<text text-anchor="middle" x="1731.67" y="-705.33" font-family="Times,serif" font-size="14.00">torchsparse</text>
</a>
</g>
</g>
<!-- pytorch&#45;cpu&#45;&gt;torchsparse -->
<g id="edge23" class="edge">
<title>pytorch&#45;cpu&#45;&gt;torchsparse</title>
<path fill="none" stroke="black" d="M1063.47,-777.52C1190.2,-771.54 1438,-757.06 1646.67,-728 1653.78,-727.01 1661.2,-725.8 1668.55,-724.48"/>
<polygon fill="black" stroke="black" points="1669.05,-727.76 1678.24,-722.49 1667.77,-720.88 1669.05,-727.76"/>
</g>
<!-- torch&#45;scatter -->
<g id="node20" class="node">
<title>torch&#45;scatter</title>
<g id="a_node20"><a xlink:href="https://github.com/conda-forge/torch-scatter-feedstock" xlink:title="torch scatter">
<ellipse fill="#fde725" stroke="black" cx="1934.67" cy="-638" rx="75.94" ry="18"/>
<text text-anchor="middle" x="1934.67" y="-633.33" font-family="Times,serif" font-size="14.00">torch scatter</text>
</a>
</g>
</g>
<!-- pytorch&#45;cpu&#45;&gt;torch&#45;scatter -->
<g id="edge24" class="edge">
<title>pytorch&#45;cpu&#45;&gt;torch&#45;scatter</title>
<path fill="none" stroke="black" d="M1065.07,-779.17C1269.42,-774.31 1774.8,-759.25 1844.67,-728 1874.9,-714.48 1900.73,-686.04 1916.86,-664.93"/>
<polygon fill="black" stroke="black" points="1920.25,-667.23 1923.37,-657.11 1914.62,-663.07 1920.25,-667.23"/>
</g>
<!-- kaolin -->
<g id="node21" class="node">
<title>kaolin</title>
<g id="a_node21"><a xlink:href="https://github.com/conda-forge/kaolin-feedstock" xlink:title="kaolin">
<ellipse fill="#fde725" stroke="black" cx="2038.67" cy="-566" rx="41.21" ry="18"/>
<text text-anchor="middle" x="2038.67" y="-561.33" font-family="Times,serif" font-size="14.00">kaolin</text>
</a>
</g>
</g>
<!-- pytorch&#45;cpu&#45;&gt;kaolin -->
<g id="edge25" class="edge">
<title>pytorch&#45;cpu&#45;&gt;kaolin</title>
<path fill="none" stroke="black" d="M1065.65,-780.53C1260.33,-778.73 1729.73,-770.02 1881.67,-728 1948.35,-709.56 1977.8,-711.07 2019.67,-656 2032.9,-638.61 2037.38,-614.03 2038.71,-595.11"/>
<polygon fill="black" stroke="black" points="2042.24,-595.32 2039.17,-585.18 2035.25,-595.02 2042.24,-595.32"/>
</g>
<!-- nnpops -->
<g id="node22" class="node">
<title>nnpops</title>
<g id="a_node22"><a xlink:href="https://github.com/conda-forge/nnpops-feedstock" xlink:title="nnpops">
<ellipse fill="#fde725" stroke="black" cx="920.67" cy="-350" rx="47.53" ry="18"/>
<text text-anchor="middle" x="920.67" y="-345.32" font-family="Times,serif" font-size="14.00">nnpops</text>
</a>
</g>
</g>
<!-- pytorch&#45;cpu&#45;&gt;nnpops -->
<g id="edge26" class="edge">
<title>pytorch&#45;cpu&#45;&gt;nnpops</title>
<path fill="none" stroke="black" d="M894.08,-779.61C685.29,-775.68 161.69,-762.5 90.67,-728 43.1,-704.89 11.67,-691.89 11.67,-639 11.67,-639 11.67,-639 11.67,-493 11.67,-452.55 0,-430.36 30.67,-404 93.51,-349.99 673.8,-349.25 862.03,-350.45"/>
<polygon fill="black" stroke="black" points="861.78,-353.96 871.8,-350.53 861.83,-346.96 861.78,-353.96"/>
</g>
<!-- triton -->
<g id="node23" class="node">
<title>triton</title>
<g id="a_node23"><a xlink:href="https://github.com/conda-forge/triton-feedstock" xlink:title="triton">
<ellipse fill="#fde725" stroke="black" cx="202.67" cy="-494" rx="39.63" ry="18"/>
<text text-anchor="middle" x="202.67" y="-489.32" font-family="Times,serif" font-size="14.00">triton</text>
</a>
</g>
</g>
<!-- pytorch&#45;cpu&#45;&gt;triton -->
<g id="edge27" class="edge">
<title>pytorch&#45;cpu&#45;&gt;triton</title>
<path fill="none" stroke="black" d="M893.64,-781.04C740.13,-779.97 425.81,-772.23 326.67,-728 305.43,-718.52 307.61,-705.51 288.67,-692 260.51,-671.91 239.13,-684.6 219.67,-656 192.54,-616.13 194.14,-557.37 198.15,-522.96"/>
<polygon fill="black" stroke="black" points="201.72,-523.66 199.56,-513.28 194.78,-522.74 201.72,-523.66"/>
</g>
<!-- openmmtorchplugin -->
<g id="node24" class="node">
<title>openmmtorchplugin</title>
<g id="a_node24"><a xlink:href="https://github.com/conda-forge/openmmtorchplugin-feedstock" xlink:title="openmmtorchplugin">
<ellipse fill="#fde725" stroke="black" cx="2364.67" cy="-710" rx="112.24" ry="18"/>
<text text-anchor="middle" x="2364.67" y="-705.33" font-family="Times,serif" font-size="14.00">openmmtorchplugin</text>
</a>
</g>
</g>
<!-- pytorch&#45;cpu&#45;&gt;openmmtorchplugin -->
<g id="edge28" class="edge">
<title>pytorch&#45;cpu&#45;&gt;openmmtorchplugin</title>
<path fill="none" stroke="black" d="M1065.69,-780.29C1270.28,-777.96 1801.83,-768.2 2243.67,-728 2253.97,-727.06 2264.74,-725.87 2275.42,-724.54"/>
<polygon fill="black" stroke="black" points="2275.57,-727.92 2285.05,-723.18 2274.68,-720.98 2275.57,-727.92"/>
</g>
<!-- molgrid -->
<g id="node25" class="node">
<title>molgrid</title>
<g id="a_node25"><a xlink:href="https://github.com/conda-forge/molgrid-feedstock" xlink:title="molgrid">
<ellipse fill="#fde725" stroke="black" cx="89.67" cy="-422" rx="50.16" ry="18"/>
<text text-anchor="middle" x="89.67" y="-417.32" font-family="Times,serif" font-size="14.00">molgrid</text>
</a>
</g>
</g>
<!-- pytorch&#45;cpu&#45;&gt;molgrid -->
<g id="edge29" class="edge">
<title>pytorch&#45;cpu&#45;&gt;molgrid</title>
<path fill="none" stroke="black" d="M893.63,-780.93C688.57,-780.03 183.52,-773.19 122.67,-728 88.8,-702.85 89.67,-681.19 89.67,-639 89.67,-639 89.67,-639 89.67,-565 89.67,-525.57 89.67,-479.97 89.67,-451.31"/>
<polygon fill="black" stroke="black" points="93.17,-451.49 89.67,-441.49 86.17,-451.49 93.17,-451.49"/>
</g>
<!-- theseus&#45;ai -->
<g id="node26" class="node">
<title>theseus&#45;ai</title>
<g id="a_node26"><a xlink:href="https://github.com/conda-forge/theseus-ai-feedstock" xlink:title="theseus ai">
<ellipse fill="#fde725" stroke="black" cx="217.67" cy="-710" rx="62.26" ry="18"/>
<text text-anchor="middle" x="217.67" y="-705.33" font-family="Times,serif" font-size="14.00">theseus ai</text>
</a>
</g>
</g>
<!-- pytorch&#45;cpu&#45;&gt;theseus&#45;ai -->
<g id="edge30" class="edge">
<title>pytorch&#45;cpu&#45;&gt;theseus&#45;ai</title>
<path fill="none" stroke="black" d="M895.02,-778.35C765.05,-773.41 508.83,-760.21 293.67,-728 287.42,-727.06 280.92,-725.9 274.46,-724.63"/>
<polygon fill="black" stroke="black" points="275.2,-721 264.69,-722.4 273.78,-727.86 275.2,-721"/>
</g>
<!-- pyg&#45;lib -->
<g id="node27" class="node">
<title>pyg&#45;lib</title>
<g id="a_node27"><a xlink:href="https://github.com/conda-forge/pyg-lib-feedstock" xlink:title="pyg lib">
<ellipse fill="#fde725" stroke="black" cx="203.67" cy="-422" rx="45.42" ry="18"/>
<text text-anchor="middle" x="203.67" y="-417.32" font-family="Times,serif" font-size="14.00">pyg lib</text>
</a>
</g>
</g>
<!-- pytorch&#45;cpu&#45;&gt;pyg&#45;lib -->
<g id="edge31" class="edge">
<title>pytorch&#45;cpu&#45;&gt;pyg&#45;lib</title>
<path fill="none" stroke="black" d="M893.39,-781.3C691.7,-781.2 202.25,-775.96 146.67,-728 116.05,-701.57 127.67,-679.45 127.67,-639 127.67,-639 127.67,-639 127.67,-565 127.67,-523.79 133.19,-511.76 153.67,-476 159.93,-465.08 168.88,-454.63 177.49,-445.95"/>
<polygon fill="black" stroke="black" points="179.43,-448.97 184.2,-439.51 174.57,-443.93 179.43,-448.97"/>
</g>
<!-- deepspeed -->
<g id="node28" class="node">
<title>deepspeed</title>
<g id="a_node28"><a xlink:href="https://github.com/conda-forge/deepspeed-feedstock" xlink:title="deepspeed">
<ellipse fill="#fde725" stroke="black" cx="293.67" cy="-638" rx="64.89" ry="18"/>
<text text-anchor="middle" x="293.67" y="-633.33" font-family="Times,serif" font-size="14.00">deepspeed</text>
</a>
</g>
</g>
<!-- pytorch&#45;cpu&#45;&gt;deepspeed -->
<g id="edge32" class="edge">
<title>pytorch&#45;cpu&#45;&gt;deepspeed</title>
<path fill="none" stroke="black" d="M893.33,-781.23C747.99,-780.34 461.63,-772.74 372.67,-728 344.98,-714.07 322.62,-685.9 308.84,-664.97"/>
<polygon fill="black" stroke="black" points="311.43,-663.52 303.13,-656.94 305.52,-667.26 311.43,-663.52"/>
</g>
<!-- bitsandbytes -->
<g id="node29" class="node">
<title>bitsandbytes</title>
<g id="a_node29"><a xlink:href="https://github.com/conda-forge/bitsandbytes-feedstock" xlink:title="bitsandbytes">
<ellipse fill="#fde725" stroke="black" cx="386.67" cy="-566" rx="75.94" ry="18"/>
<text text-anchor="middle" x="386.67" y="-561.33" font-family="Times,serif" font-size="14.00">bitsandbytes</text>
</a>
</g>
</g>
<!-- pytorch&#45;cpu&#45;&gt;bitsandbytes -->
<g id="edge33" class="edge">
<title>pytorch&#45;cpu&#45;&gt;bitsandbytes</title>
<path fill="none" stroke="black" d="M897.15,-776.71C814.58,-770.9 684.55,-757.61 575.67,-728 496.5,-706.47 457.92,-719.27 405.67,-656 391.7,-639.07 387.29,-614.3 386.19,-595.19"/>
<polygon fill="black" stroke="black" points="389.67,-595.31 385.87,-585.41 382.67,-595.51 389.67,-595.31"/>
</g>
<!-- pytorch_scatter&#45;&gt;pytorch_sparse -->
<g id="edge34" class="edge">
<title>pytorch_scatter&#45;&gt;pytorch_sparse</title>
<path fill="none" stroke="black" d="M1712.92,-547.7C1713.03,-540.24 1713.16,-531.32 1713.27,-522.97"/>
<polygon fill="black" stroke="black" points="1716.79,-523.15 1713.43,-513.1 1709.79,-523.05 1716.79,-523.15"/>
</g>
<!-- torchani&#45;&gt;nnpops -->
<g id="edge35" class="edge">
<title>torchani&#45;&gt;nnpops</title>
<path fill="none" stroke="black" d="M1328.27,-413.71C1243.16,-400.61 1064.98,-373.2 975.06,-359.37"/>
<polygon fill="black" stroke="black" points="975.7,-355.77 965.28,-357.71 974.63,-362.69 975.7,-355.77"/>
</g>
<!-- triton&#45;&gt;pyg&#45;lib -->
<g id="edge36" class="edge">
<title>triton&#45;&gt;pyg&#45;lib</title>
<path fill="none" stroke="black" d="M202.92,-475.7C203.03,-468.24 203.16,-459.32 203.27,-450.97"/>
<polygon fill="black" stroke="black" points="206.79,-451.15 203.43,-441.1 199.79,-451.05 206.79,-451.15"/>
</g>
<!-- stir -->
<g id="node30" class="node">
<title>stir</title>
<g id="a_node30"><a xlink:href="https://github.com/conda-forge/stir-feedstock/pull/82" xlink:title="stir ❎">
<ellipse fill="#31688e" stroke="black" cx="2971.67" cy="-926" rx="43.84" ry="18"/>
<text text-anchor="middle" x="2971.67" y="-921.33" font-family="Times,serif" font-size="14.00" fill="white">stir ❎</text>
</a>
</g>
</g>
<!-- prismatic_split -->
<g id="node31" class="node">
<title>prismatic_split</title>
<g id="a_node31"><a xlink:href="https://github.com/conda-forge/prismatic_split-feedstock/pull/38" xlink:title="prismatic_split ❎">
<ellipse fill="#31688e" stroke="black" cx="2971.67" cy="-854" rx="100.66" ry="18"/>
<text text-anchor="middle" x="2971.67" y="-849.33" font-family="Times,serif" font-size="14.00" fill="white">prismatic_split ❎</text>
</a>
</g>
</g>
<!-- stir&#45;&gt;prismatic_split -->
<!-- pycuda -->
<g id="node39" class="node">
<title>pycuda</title>
<g id="a_node39"><a xlink:href="https://github.com/conda-forge/pycuda-feedstock/pull/25" xlink:title="pycuda ❎">
<ellipse fill="#31688e" stroke="black" cx="2971.67" cy="-782" rx="62.26" ry="18"/>
<text text-anchor="middle" x="2971.67" y="-777.33" font-family="Times,serif" font-size="14.00" fill="white">pycuda ❎</text>
</a>
</g>
</g>
<!-- prismatic_split&#45;&gt;pycuda -->
<!-- jaxlib -->
<g id="node32" class="node">
<title>jaxlib</title>
<g id="a_node32"><a xlink:href="https://github.com/conda-forge/jaxlib-feedstock/pull/181" xlink:title="jaxlib ❎">
<ellipse fill="#31688e" stroke="black" cx="3263.67" cy="-638" rx="53.84" ry="18"/>
<text text-anchor="middle" x="3263.67" y="-633.33" font-family="Times,serif" font-size="14.00" fill="white">jaxlib ❎</text>
</a>
</g>
</g>
<!-- jaxlib&#45;&gt;tensorflow -->
<g id="edge38" class="edge">
<title>jaxlib&#45;&gt;tensorflow</title>
<path fill="none" stroke="black" d="M3263.67,-619.7C3263.67,-612.24 3263.67,-603.32 3263.67,-594.97"/>
<polygon fill="black" stroke="black" points="3267.17,-595.1 3263.67,-585.1 3260.17,-595.1 3267.17,-595.1"/>
</g>
<!-- openmm -->
<g id="node33" class="node">
<title>openmm</title>
<g id="a_node33"><a xlink:href="https://github.com/conda-forge/openmm-feedstock/pull/107" xlink:title="openmm ❎">
<ellipse fill="#31688e" stroke="black" cx="2542.67" cy="-782" rx="69.62" ry="18"/>
<text text-anchor="middle" x="2542.67" y="-777.33" font-family="Times,serif" font-size="14.00" fill="white">openmm ❎</text>
</a>
</g>
</g>
<!-- openmm&#45;&gt;openmm&#45;torch -->
<g id="edge39" class="edge">
<title>openmm&#45;&gt;openmm&#45;torch</title>
<path fill="none" stroke="black" d="M2486.17,-771.08C2426.04,-760.5 2328.12,-743.2 2243.67,-728 2237.15,-726.83 2230.38,-725.6 2223.59,-724.37"/>
<polygon fill="black" stroke="black" points="2224.41,-720.78 2213.95,-722.43 2223.16,-727.66 2224.41,-720.78"/>
</g>
<!-- openmm&#45;&gt;openmmtorchplugin -->
<g id="edge40" class="edge">
<title>openmm&#45;&gt;openmmtorchplugin</title>
<path fill="none" stroke="black" d="M2505.79,-766.5C2479.74,-756.25 2444.49,-742.39 2415.74,-731.08"/>
<polygon fill="black" stroke="black" points="2417.45,-727.6 2406.86,-727.2 2414.89,-734.12 2417.45,-727.6"/>
</g>
<!-- openmm&#45;plumed -->
<g id="node34" class="node">
<title>openmm&#45;plumed</title>
<g id="a_node34"><a xlink:href="https://github.com/conda-forge/openmm-plumed-feedstock" xlink:title="openmm plumed">
<ellipse fill="#fde725" stroke="black" cx="2703.67" cy="-710" rx="94.88" ry="18"/>
<text text-anchor="middle" x="2703.67" y="-705.33" font-family="Times,serif" font-size="14.00">openmm plumed</text>
</a>
</g>
</g>
<!-- openmm&#45;&gt;openmm&#45;plumed -->
<g id="edge41" class="edge">
<title>openmm&#45;&gt;openmm&#45;plumed</title>
<path fill="none" stroke="black" d="M2577.21,-765.98C2600.54,-755.84 2631.61,-742.33 2657.12,-731.24"/>
<polygon fill="black" stroke="black" points="2658.18,-734.16 2665.95,-726.97 2655.39,-727.74 2658.18,-734.16"/>
</g>
<!-- meld -->
<g id="node35" class="node">
<title>meld</title>
<g id="a_node35"><a xlink:href="https://github.com/conda-forge/meld-feedstock" xlink:title="meld">
<ellipse fill="#fde725" stroke="black" cx="2826.67" cy="-638" rx="35.95" ry="18"/>
<text text-anchor="middle" x="2826.67" y="-633.33" font-family="Times,serif" font-size="14.00">meld</text>
</a>
</g>
</g>
<!-- openmm&#45;&gt;meld -->
<g id="edge42" class="edge">
<title>openmm&#45;&gt;meld</title>
<path fill="none" stroke="black" d="M2608.88,-775.98C2678,-769.35 2780.13,-755.19 2807.67,-728 2823.56,-712.32 2827.7,-686.84 2828.22,-667.16"/>
<polygon fill="black" stroke="black" points="2831.71,-667.33 2828.17,-657.35 2824.71,-667.37 2831.71,-667.33"/>
</g>
<!-- seekr2_openmm_plugin -->
<g id="node36" class="node">
<title>seekr2_openmm_plugin</title>
<g id="a_node36"><a xlink:href="https://github.com/conda-forge/seekr2_openmm_plugin-feedstock" xlink:title="seekr2_openmm_plugin">
<ellipse fill="#fde725" stroke="black" cx="2385.67" cy="-566" rx="129.07" ry="18"/>
<text text-anchor="middle" x="2385.67" y="-561.33" font-family="Times,serif" font-size="14.00">seekr2_openmm_plugin</text>
</a>
</g>
</g>
<!-- openmm&#45;&gt;seekr2_openmm_plugin -->
<g id="edge43" class="edge">
<title>openmm&#45;&gt;seekr2_openmm_plugin</title>
<path fill="none" stroke="black" d="M2532.47,-763.92C2521.45,-745.74 2503.1,-716.3 2485.67,-692 2460.17,-656.45 2428.22,-617.35 2407.39,-592.51"/>
<polygon fill="black" stroke="black" points="2409.63,-590.74 2400.52,-585.35 2404.28,-595.25 2409.63,-590.74"/>
</g>
<!-- openmm&#45;atmmetaforce&#45;plugin -->
<g id="node37" class="node">
<title>openmm&#45;atmmetaforce&#45;plugin</title>
<g id="a_node37"><a xlink:href="https://github.com/conda-forge/openmm-atmmetaforce-plugin-feedstock" xlink:title="openmm atmmetaforce plugin">
<ellipse fill="#fde725" stroke="black" cx="2390.67" cy="-494" rx="162.22" ry="18"/>
<text text-anchor="middle" x="2390.67" y="-489.32" font-family="Times,serif" font-size="14.00">openmm atmmetaforce plugin</text>
</a>
</g>
</g>
<!-- openmm&#45;&gt;openmm&#45;atmmetaforce&#45;plugin -->
<g id="edge44" class="edge">
<title>openmm&#45;&gt;openmm&#45;atmmetaforce&#45;plugin</title>
<path fill="none" stroke="black" d="M2546.86,-763.69C2555.9,-721.94 2572.64,-614.26 2523.67,-548 2512.39,-532.74 2496.01,-521.86 2478.57,-514.12"/>
<polygon fill="black" stroke="black" points="2480.38,-510.67 2469.8,-510.13 2477.73,-517.15 2480.38,-510.67"/>
</g>
<!-- openmm&#45;dlext -->
<g id="node38" class="node">
<title>openmm&#45;dlext</title>
<g id="a_node38"><a xlink:href="https://github.com/conda-forge/openmm-dlext-feedstock" xlink:title="openmm dlext">
<ellipse fill="#fde725" stroke="black" cx="2580.67" cy="-422" rx="82.77" ry="18"/>
<text text-anchor="middle" x="2580.67" y="-417.32" font-family="Times,serif" font-size="14.00">openmm dlext</text>
</a>
</g>
</g>
<!-- openmm&#45;&gt;openmm&#45;dlext -->
<g id="edge45" class="edge">
<title>openmm&#45;&gt;openmm&#45;dlext</title>
<path fill="none" stroke="black" d="M2551.9,-763.79C2556.97,-753.64 2562.97,-740.39 2566.67,-728 2578.15,-689.64 2580.67,-679.04 2580.67,-639 2580.67,-639 2580.67,-639 2580.67,-565 2580.67,-525.57 2580.67,-479.97 2580.67,-451.31"/>
<polygon fill="black" stroke="black" points="2584.17,-451.49 2580.67,-441.49 2577.17,-451.49 2584.17,-451.49"/>
</g>
<!-- onnxruntime -->
<g id="node44" class="node">
<title>onnxruntime</title>
<g id="a_node44"><a xlink:href="https://github.com/conda-forge/onnxruntime-feedstock" xlink:title="onnxruntime">
<ellipse fill="#35b779" stroke="black" cx="2971.67" cy="-710" rx="75.41" ry="18"/>
<text text-anchor="middle" x="2971.67" y="-705.33" font-family="Times,serif" font-size="14.00">onnxruntime</text>
</a>
</g>
</g>
<!-- pycuda&#45;&gt;onnxruntime -->
<!-- faiss&#45;split -->
<g id="node40" class="node">
<title>faiss&#45;split</title>
<g id="a_node40"><a xlink:href="https://github.com/conda-forge/faiss-split-feedstock/pull/68" xlink:title="faiss split ❎">
<ellipse fill="#31688e" stroke="black" cx="1275.67" cy="-710" rx="74.88" ry="18"/>
<text text-anchor="middle" x="1275.67" y="-705.33" font-family="Times,serif" font-size="14.00" fill="white">faiss split ❎</text>
</a>
</g>
</g>
<!-- faiss&#45;split&#45;&gt;graphvite -->
<g id="edge47" class="edge">
<title>faiss&#45;split&#45;&gt;graphvite</title>
<path fill="none" stroke="black" d="M1245.27,-693.12C1226.02,-683.06 1200.97,-669.97 1180.32,-659.19"/>
<polygon fill="black" stroke="black" points="1182.07,-655.63 1171.58,-654.1 1178.83,-661.83 1182.07,-655.63"/>
</g>
<!-- tsnecuda -->
<g id="node41" class="node">
<title>tsnecuda</title>
<g id="a_node41"><a xlink:href="https://github.com/conda-forge/tsnecuda-feedstock" xlink:title="tsnecuda">
<ellipse fill="#fde725" stroke="black" cx="1275.67" cy="-638" rx="56.47" ry="18"/>
<text text-anchor="middle" x="1275.67" y="-633.33" font-family="Times,serif" font-size="14.00">tsnecuda</text>
</a>
</g>
</g>
<!-- faiss&#45;split&#45;&gt;tsnecuda -->
<g id="edge48" class="edge">
<title>faiss&#45;split&#45;&gt;tsnecuda</title>
<path fill="none" stroke="black" d="M1275.67,-691.7C1275.67,-684.24 1275.67,-675.32 1275.67,-666.97"/>
<polygon fill="black" stroke="black" points="1279.17,-667.1 1275.67,-657.1 1272.17,-667.1 1279.17,-667.1"/>
</g>
<!-- libtvm -->
<g id="node42" class="node">
<title>libtvm</title>
<g id="a_node42"><a xlink:href="https://github.com/conda-forge/libtvm-feedstock" xlink:title="libtvm">
<ellipse fill="#35b779" stroke="black" cx="2971.67" cy="-126" rx="43.32" ry="18"/>
<text text-anchor="middle" x="2971.67" y="-121.33" font-family="Times,serif" font-size="14.00">libtvm</text>
</a>
</g>
</g>
<!-- tvm&#45;py -->
<g id="node43" class="node">
<title>tvm&#45;py</title>
<g id="a_node43"><a xlink:href="https://github.com/conda-forge/tvm-py-feedstock" xlink:title="tvm py">
<ellipse fill="#fde725" stroke="black" cx="2971.67" cy="-54" rx="45.95" ry="18"/>
<text text-anchor="middle" x="2971.67" y="-49.33" font-family="Times,serif" font-size="14.00">tvm py</text>
</a>
</g>
</g>
<!-- libtvm&#45;&gt;tvm&#45;py -->
<g id="edge49" class="edge">
<title>libtvm&#45;&gt;tvm&#45;py</title>
<path fill="none" stroke="black" d="M2971.67,-107.7C2971.67,-100.24 2971.67,-91.32 2971.67,-82.97"/>
<polygon fill="black" stroke="black" points="2975.17,-83.1 2971.67,-73.1 2968.17,-83.1 2975.17,-83.1"/>
</g>
<!-- cudadecon -->
<g id="node45" class="node">
<title>cudadecon</title>
<g id="a_node45"><a xlink:href="https://github.com/conda-forge/cudadecon-feedstock/pull/18" xlink:title="cudadecon ❎">
<ellipse fill="#31688e" stroke="black" cx="2971.67" cy="-638" rx="79.62" ry="18"/>
<text text-anchor="middle" x="2971.67" y="-633.33" font-family="Times,serif" font-size="14.00" fill="white">cudadecon ❎</text>
</a>
</g>
</g>
<!-- onnxruntime&#45;&gt;cudadecon -->
<!-- timemory -->
<g id="node46" class="node">
<title>timemory</title>
<g id="a_node46"><a xlink:href="https://github.com/conda-forge/timemory-feedstock/pull/17" xlink:title="timemory ❎">
<ellipse fill="#31688e" stroke="black" cx="2971.67" cy="-566" rx="74.88" ry="18"/>
<text text-anchor="middle" x="2971.67" y="-561.33" font-family="Times,serif" font-size="14.00" fill="white">timemory ❎</text>
</a>
</g>
</g>
<!-- cudadecon&#45;&gt;timemory -->
<!-- mandrake -->
<g id="node47" class="node">
<title>mandrake</title>
<g id="a_node47"><a xlink:href="https://github.com/conda-forge/mandrake-feedstock/pull/7" xlink:title="mandrake ❎">
<ellipse fill="#31688e" stroke="black" cx="2971.67" cy="-494" rx="76.46" ry="18"/>
<text text-anchor="middle" x="2971.67" y="-489.32" font-family="Times,serif" font-size="14.00" fill="white">mandrake ❎</text>
</a>
</g>
</g>
<!-- timemory&#45;&gt;mandrake -->
<!-- rmm -->
<g id="node48" class="node">
<title>rmm</title>
<g id="a_node48"><a xlink:href="https://github.com/conda-forge/rmm-feedstock/pull/25" xlink:title="rmm ❎">
<ellipse fill="#31688e" stroke="black" cx="2971.67" cy="-422" rx="50.16" ry="18"/>
<text text-anchor="middle" x="2971.67" y="-417.32" font-family="Times,serif" font-size="14.00" fill="white">rmm ❎</text>
</a>
</g>
</g>
<!-- mandrake&#45;&gt;rmm -->
<!-- ptxcompiler -->
<g id="node49" class="node">
<title>ptxcompiler</title>
<g id="a_node49"><a xlink:href="https://github.com/conda-forge/ptxcompiler-feedstock" xlink:title="ptxcompiler">
<ellipse fill="#000000" stroke="black" cx="2971.67" cy="-350" rx="71.2" ry="18"/>
<text text-anchor="middle" x="2971.67" y="-345.32" font-family="Times,serif" font-size="14.00" fill="white">ptxcompiler</text>
</a>
</g>
</g>
<!-- rmm&#45;&gt;ptxcompiler -->
<!-- pyscamp&#45;gpu -->
<g id="node50" class="node">
<title>pyscamp&#45;gpu</title>
<g id="a_node50"><a xlink:href="https://github.com/conda-forge/pyscamp-gpu-feedstock/pull/6" xlink:title="pyscamp gpu ❎">
<ellipse fill="#31688e" stroke="black" cx="2971.67" cy="-278" rx="92.77" ry="18"/>
<text text-anchor="middle" x="2971.67" y="-273.32" font-family="Times,serif" font-size="14.00" fill="white">pyscamp gpu ❎</text>
</a>
</g>
</g>
<!-- ptxcompiler&#45;&gt;pyscamp&#45;gpu -->
<!-- heavydb&#45;ext -->
<g id="node51" class="node">
<title>heavydb&#45;ext</title>
<g id="a_node51"><a xlink:href="https://github.com/conda-forge/heavydb-ext-feedstock/pull/49" xlink:title="heavydb ext ❎">
<ellipse fill="#31688e" stroke="black" cx="2971.67" cy="-206" rx="87.51" ry="18"/>
<text text-anchor="middle" x="2971.67" y="-201.32" font-family="Times,serif" font-size="14.00" fill="white">heavydb ext ❎</text>
</a>
</g>
</g>
<!-- pyscamp&#45;gpu&#45;&gt;heavydb&#45;ext -->
<!-- cyrsoxs -->
<g id="node52" class="node">
<title>cyrsoxs</title>
<g id="a_node52"><a xlink:href="https://github.com/conda-forge/cyrsoxs-feedstock/pull/9" xlink:title="cyrsoxs ❎">
<ellipse fill="#31688e" stroke="black" cx="1431.67" cy="-162" rx="64.36" ry="18"/>
<text text-anchor="middle" x="1431.67" y="-157.32" font-family="Times,serif" font-size="14.00" fill="white">cyrsoxs ❎</text>
</a>
</g>
</g>
<!-- katago -->
<g id="node53" class="node">
<title>katago</title>
<g id="a_node53"><a xlink:href="https://github.com/conda-forge/katago-feedstock/pull/5" xlink:title="katago ❎">
<ellipse fill="#31688e" stroke="black" cx="1431.67" cy="-90" rx="60.15" ry="18"/>
<text text-anchor="middle" x="1431.67" y="-85.33" font-family="Times,serif" font-size="14.00" fill="white">katago ❎</text>
</a>
</g>
</g>
<!-- cyrsoxs&#45;&gt;katago -->
<!-- hoomd&#45;dlext -->
<g id="node54" class="node">
<title>hoomd&#45;dlext</title>
<g id="a_node54"><a xlink:href="https://github.com/conda-forge/hoomd-dlext-feedstock/pull/7" xlink:title="hoomd dlext ❎">
<ellipse fill="#31688e" stroke="black" cx="1431.67" cy="-18" rx="88.56" ry="18"/>
<text text-anchor="middle" x="1431.67" y="-13.32" font-family="Times,serif" font-size="14.00" fill="white">hoomd dlext ❎</text>
</a>
</g>
</g>
<!-- katago&#45;&gt;hoomd&#45;dlext -->
</g>
</svg>
