<?xml version="1.0" encoding="UTF-8" standalone="no"?>
<!DOCTYPE svg PUBLIC "-//W3C//DTD SVG 1.1//EN"
 "http://www.w3.org/Graphics/SVG/1.1/DTD/svg11.dtd">
<!-- Generated by graphviz version 8.1.0 (20230707.2238)
 -->
<!-- Pages: 1 -->
<svg width="484pt" height="160pt"
 viewBox="0.00 0.00 484.15 160.00" xmlns="http://www.w3.org/2000/svg" xmlns:xlink="http://www.w3.org/1999/xlink">
<g id="graph0" class="graph" transform="scale(1 1) rotate(0) translate(4 156)">
<polygon fill="white" stroke="none" points="-4,4 -4,-156 480.15,-156 480.15,4 -4,4"/>
<!-- cyflann -->
<g id="node1" class="node">
<title>cyflann</title>
<g id="a_node1"><a xlink:href="https://github.com/conda-forge/cyflann-feedstock" xlink:title="cyflann">
<ellipse fill="#fde725" stroke="black" cx="47" cy="-62" rx="47" ry="18"/>
<text text-anchor="middle" x="47" y="-57.33" font-family="Times,serif" font-size="14.00">cyflann</text>
</a>
</g>
</g>
<!-- megaman -->
<g id="node2" class="node">
<title>megaman</title>
<g id="a_node2"><a xlink:href="https://github.com/conda-forge/megaman-feedstock" xlink:title="megaman">
<ellipse fill="#fde725" stroke="black" cx="172" cy="-62" rx="60.15" ry="18"/>
<text text-anchor="middle" x="172" y="-57.33" font-family="Times,serif" font-size="14.00">megaman</text>
</a>
</g>
</g>
<!-- pyflann -->
<g id="node3" class="node">
<title>pyflann</title>
<g id="a_node3"><a xlink:href="https://github.com/conda-forge/pyflann-feedstock/pull/27" xlink:title="pyflann ✓">
<ellipse fill="#31688e" stroke="black" cx="109" cy="-134" rx="55.94" ry="18"/>
<text text-anchor="middle" x="109" y="-129.32" font-family="Times,serif" font-size="14.00" fill="white">pyflann ✓</text>
</a>
</g>
</g>
<!-- pyflann&#45;&gt;cyflann -->
<g id="edge1" class="edge">
<title>pyflann&#45;&gt;cyflann</title>
<path fill="none" stroke="black" d="M94.31,-116.41C86.66,-107.78 77.17,-97.06 68.7,-87.5"/>
<polygon fill="black" stroke="black" points="71.84,-85.64 62.59,-80.47 66.6,-90.28 71.84,-85.64"/>
</g>
<!-- pyflann&#45;&gt;megaman -->
<g id="edge2" class="edge">
<title>pyflann&#45;&gt;megaman</title>
<path fill="none" stroke="black" d="M123.93,-116.41C131.7,-107.78 141.34,-97.06 149.95,-87.5"/>
<polygon fill="black" stroke="black" points="152.09,-90.24 156.18,-80.47 146.88,-85.56 152.09,-90.24"/>
</g>
<!-- pcl -->
<g id="node4" class="node">
<title>pcl</title>
<g id="a_node4"><a xlink:href="https://github.com/conda-forge/pcl-feedstock/pull/59" xlink:title="pcl ❎">
<ellipse fill="#31688e" stroke="black" cx="304" cy="-134" rx="41.21" ry="18"/>
<text text-anchor="middle" x="304" y="-129.32" font-family="Times,serif" font-size="14.00" fill="white">pcl ❎</text>
</a>
</g>
</g>
<!-- python&#45;pcl -->
<g id="node9" class="node">
<title>python&#45;pcl</title>
<g id="a_node9"><a xlink:href="https://github.com/conda-forge/python-pcl-feedstock" xlink:title="python pcl">
<ellipse fill="#fde725" stroke="black" cx="304" cy="-62" rx="63.83" ry="18"/>
<text text-anchor="middle" x="304" y="-57.33" font-family="Times,serif" font-size="14.00">python pcl</text>
</a>
</g>
</g>
<!-- pcl&#45;&gt;python&#45;pcl -->
<g id="edge3" class="edge">
<title>pcl&#45;&gt;python&#45;pcl</title>
<path fill="none" stroke="black" d="M304,-115.7C304,-108.24 304,-99.32 304,-90.97"/>
<polygon fill="black" stroke="black" points="307.5,-91.1 304,-81.1 300.5,-91.1 307.5,-91.1"/>
</g>
<!-- fcl -->
<g id="node5" class="node">
<title>fcl</title>
<g id="a_node5"><a xlink:href="https://github.com/conda-forge/fcl-feedstock/pull/19" xlink:title="fcl ✓">
<ellipse fill="#31688e" stroke="black" cx="426" cy="-134" rx="31.22" ry="18"/>
<text text-anchor="middle" x="426" y="-129.32" font-family="Times,serif" font-size="14.00" fill="white">fcl ✓</text>
</a>
</g>
</g>
<!-- dartsim -->
<g id="node7" class="node">
<title>dartsim</title>
<g id="a_node7"><a xlink:href="https://github.com/conda-forge/dartsim-feedstock" xlink:title="dartsim">
<ellipse fill="#fde725" stroke="black" cx="426" cy="-62" rx="50.16" ry="18"/>
<text text-anchor="middle" x="426" y="-57.33" font-family="Times,serif" font-size="14.00">dartsim</text>
</a>
</g>
</g>
<!-- fcl&#45;&gt;dartsim -->
<g id="edge4" class="edge">
<title>fcl&#45;&gt;dartsim</title>
<path fill="none" stroke="black" d="M426,-115.7C426,-108.24 426,-99.32 426,-90.97"/>
<polygon fill="black" stroke="black" points="429.5,-91.1 426,-81.1 422.5,-91.1 429.5,-91.1"/>
</g>
<!-- ompl -->
<g id="node6" class="node">
<title>ompl</title>
<g id="a_node6"><a xlink:href="https://github.com/conda-forge/ompl-feedstock" xlink:title="ompl">
<ellipse fill="#35b779" stroke="black" cx="304" cy="-18" rx="35.95" ry="18"/>
<text text-anchor="middle" x="304" y="-13.32" font-family="Times,serif" font-size="14.00">ompl</text>
</a>
</g>
</g>
<!-- pycolmap -->
<g id="node8" class="node">
<title>pycolmap</title>
<g id="a_node8"><a xlink:href="https://github.com/conda-forge/pycolmap-feedstock" xlink:title="pycolmap">
<ellipse fill="#35b779" stroke="black" cx="117" cy="-18" rx="59.1" ry="18"/>
<text text-anchor="middle" x="117" y="-13.32" font-family="Times,serif" font-size="14.00">pycolmap</text>
</a>
</g>
</g>
</g>
</svg>
