<?xml version="1.0" encoding="UTF-8" standalone="no"?>
<!DOCTYPE svg PUBLIC "-//W3C//DTD SVG 1.1//EN"
 "http://www.w3.org/Graphics/SVG/1.1/DTD/svg11.dtd">
<!-- Generated by graphviz version 8.1.0 (20230707.2238)
 -->
<!-- Pages: 1 -->
<svg width="502pt" height="232pt"
 viewBox="0.00 0.00 502.10 232.00" xmlns="http://www.w3.org/2000/svg" xmlns:xlink="http://www.w3.org/1999/xlink">
<g id="graph0" class="graph" transform="scale(1 1) rotate(0) translate(4 228)">
<polygon fill="white" stroke="none" points="-4,4 -4,-228 498.1,-228 498.1,4 -4,4"/>
<!-- cyflann -->
<g id="node1" class="node">
<title>cyflann</title>
<g id="a_node1"><a xlink:href="https://github.com/conda-forge/cyflann-feedstock" xlink:title="cyflann">
<ellipse fill="#fde725" stroke="black" cx="47" cy="-134" rx="47" ry="18"/>
<text text-anchor="middle" x="47" y="-129.32" font-family="Times,serif" font-size="14.00">cyflann</text>
</a>
</g>
</g>
<!-- megaman -->
<g id="node2" class="node">
<title>megaman</title>
<g id="a_node2"><a xlink:href="https://github.com/conda-forge/megaman-feedstock" xlink:title="megaman">
<ellipse fill="#fde725" stroke="black" cx="172" cy="-134" rx="60.15" ry="18"/>
<text text-anchor="middle" x="172" y="-129.32" font-family="Times,serif" font-size="14.00">megaman</text>
</a>
</g>
</g>
<!-- pyflann -->
<g id="node3" class="node">
<title>pyflann</title>
<g id="a_node3"><a xlink:href="https://github.com/conda-forge/pyflann-feedstock/pull/27" xlink:title="pyflann ❎">
<ellipse fill="#31688e" stroke="black" cx="109" cy="-206" rx="63.31" ry="18"/>
<text text-anchor="middle" x="109" y="-201.33" font-family="Times,serif" font-size="14.00" fill="white">pyflann ❎</text>
</a>
</g>
</g>
<!-- pyflann&#45;&gt;cyflann -->
<g id="edge1" class="edge">
<title>pyflann&#45;&gt;cyflann</title>
<path fill="none" stroke="black" d="M93.99,-188.05C86.34,-179.42 76.9,-168.76 68.49,-159.27"/>
<polygon fill="black" stroke="black" points="71.69,-157.47 62.44,-152.31 66.45,-162.11 71.69,-157.47"/>
</g>
<!-- pyflann&#45;&gt;megaman -->
<g id="edge2" class="edge">
<title>pyflann&#45;&gt;megaman</title>
<path fill="none" stroke="black" d="M124.25,-188.05C131.91,-179.54 141.34,-169.07 149.79,-159.68"/>
<polygon fill="black" stroke="black" points="151.8,-162.56 155.89,-152.79 146.6,-157.88 151.8,-162.56"/>
</g>
<!-- pcl -->
<g id="node4" class="node">
<title>pcl</title>
<g id="a_node4"><a xlink:href="https://github.com/conda-forge/pcl-feedstock" xlink:title="pcl">
<ellipse fill="#35b779" stroke="black" cx="304" cy="-206" rx="27" ry="18"/>
<text text-anchor="middle" x="304" y="-201.33" font-family="Times,serif" font-size="14.00">pcl</text>
</a>
</g>
</g>
<!-- python&#45;pcl -->
<g id="node10" class="node">
<title>python&#45;pcl</title>
<g id="a_node10"><a xlink:href="https://github.com/conda-forge/python-pcl-feedstock" xlink:title="python pcl">
<ellipse fill="#fde725" stroke="black" cx="304" cy="-134" rx="63.83" ry="18"/>
<text text-anchor="middle" x="304" y="-129.32" font-family="Times,serif" font-size="14.00">python pcl</text>
</a>
</g>
</g>
<!-- pcl&#45;&gt;python&#45;pcl -->
<g id="edge3" class="edge">
<title>pcl&#45;&gt;python&#45;pcl</title>
<path fill="none" stroke="black" d="M304,-187.7C304,-180.24 304,-171.32 304,-162.97"/>
<polygon fill="black" stroke="black" points="307.5,-163.1 304,-153.1 300.5,-163.1 307.5,-163.1"/>
</g>
<!-- fcl -->
<g id="node5" class="node">
<title>fcl</title>
<g id="a_node5"><a xlink:href="https://github.com/conda-forge/fcl-feedstock/pull/19" xlink:title="fcl ❎">
<ellipse fill="#31688e" stroke="black" cx="117" cy="-90" rx="38.58" ry="18"/>
<text text-anchor="middle" x="117" y="-85.33" font-family="Times,serif" font-size="14.00" fill="white">fcl ❎</text>
</a>
</g>
</g>
<!-- dartsim -->
<g id="node7" class="node">
<title>dartsim</title>
<g id="a_node7"><a xlink:href="https://github.com/conda-forge/dartsim-feedstock" xlink:title="dartsim">
<ellipse fill="#fde725" stroke="black" cx="117" cy="-18" rx="50.16" ry="18"/>
<text text-anchor="middle" x="117" y="-13.32" font-family="Times,serif" font-size="14.00">dartsim</text>
</a>
</g>
</g>
<!-- fcl&#45;&gt;dartsim -->
<g id="edge4" class="edge">
<title>fcl&#45;&gt;dartsim</title>
<path fill="none" stroke="black" d="M117,-71.7C117,-64.24 117,-55.32 117,-46.97"/>
<polygon fill="black" stroke="black" points="120.5,-47.1 117,-37.1 113.5,-47.1 120.5,-47.1"/>
</g>
<!-- ompl -->
<g id="node6" class="node">
<title>ompl</title>
<g id="a_node6"><a xlink:href="https://github.com/conda-forge/ompl-feedstock" xlink:title="ompl">
<ellipse fill="#35b779" stroke="black" cx="304" cy="-54" rx="35.95" ry="18"/>
<text text-anchor="middle" x="304" y="-49.33" font-family="Times,serif" font-size="14.00">ompl</text>
</a>
</g>
</g>
<!-- colmap -->
<g id="node8" class="node">
<title>colmap</title>
<g id="a_node8"><a xlink:href="https://github.com/conda-forge/colmap-feedstock" xlink:title="colmap">
<ellipse fill="#35b779" stroke="black" cx="435" cy="-206" rx="47" ry="18"/>
<text text-anchor="middle" x="435" y="-201.33" font-family="Times,serif" font-size="14.00">colmap</text>
</a>
</g>
</g>
<!-- pycolmap -->
<g id="node9" class="node">
<title>pycolmap</title>
<g id="a_node9"><a xlink:href="https://github.com/conda-forge/pycolmap-feedstock" xlink:title="pycolmap">
<ellipse fill="#fde725" stroke="black" cx="435" cy="-134" rx="59.1" ry="18"/>
<text text-anchor="middle" x="435" y="-129.32" font-family="Times,serif" font-size="14.00">pycolmap</text>
</a>
</g>
</g>
<!-- colmap&#45;&gt;pycolmap -->
<g id="edge5" class="edge">
<title>colmap&#45;&gt;pycolmap</title>
<path fill="none" stroke="black" d="M435,-187.7C435,-180.24 435,-171.32 435,-162.97"/>
<polygon fill="black" stroke="black" points="438.5,-163.1 435,-153.1 431.5,-163.1 438.5,-163.1"/>
</g>
</g>
</svg>
