<?xml version="1.0" encoding="UTF-8" standalone="no"?>
<!DOCTYPE svg PUBLIC "-//W3C//DTD SVG 1.1//EN"
 "http://www.w3.org/Graphics/SVG/1.1/DTD/svg11.dtd">
<!-- Generated by graphviz version 2.49.1 (20211004.0028)
 -->
<!-- Pages: 1 -->
<svg width="1393pt" height="404pt"
 viewBox="0.00 0.00 1392.50 404.00" xmlns="http://www.w3.org/2000/svg" xmlns:xlink="http://www.w3.org/1999/xlink">
<g id="graph0" class="graph" transform="scale(1 1) rotate(0) translate(4 400)">
<polygon fill="white" stroke="transparent" points="-4,4 -4,-400 1388.5,-400 1388.5,4 -4,4"/>
<!-- mppp -->
<g id="node1" class="node">
<title>mppp</title>
<g id="a_node1"><a xlink:href="https://github.com/conda-forge/mppp-feedstock/pull/51" xlink:title="mppp ❎">
<ellipse fill="#31688e" stroke="black" cx="105.5" cy="-378" rx="51.5" ry="18"/>
<text text-anchor="middle" x="105.5" y="-374.3" font-family="Times,serif" font-size="14.00" fill="white">mppp ❎</text>
</a>
</g>
</g>
<!-- obake -->
<g id="node2" class="node">
<title>obake</title>
<g id="a_node2"><a xlink:href="https://github.com/conda-forge/obake-feedstock" xlink:title="obake">
<ellipse fill="#fde725" stroke="black" cx="38.5" cy="-306" rx="38.5" ry="18"/>
<text text-anchor="middle" x="38.5" y="-302.3" font-family="Times,serif" font-size="14.00">obake</text>
</a>
</g>
</g>
<!-- mppp&#45;&gt;obake -->
<g id="edge1" class="edge">
<title>mppp&#45;&gt;obake</title>
<path fill="none" stroke="black" d="M89.96,-360.76C81.21,-351.62 70.14,-340.06 60.51,-330"/>
<polygon fill="black" stroke="black" points="62.94,-327.47 53.49,-322.67 57.88,-332.31 62.94,-327.47"/>
</g>
<!-- heyoka -->
<g id="node3" class="node">
<title>heyoka</title>
<g id="a_node3"><a xlink:href="https://github.com/conda-forge/heyoka-feedstock" xlink:title="heyoka">
<ellipse fill="#fde725" stroke="black" cx="177.5" cy="-306" rx="43.59" ry="18"/>
<text text-anchor="middle" x="177.5" y="-302.3" font-family="Times,serif" font-size="14.00">heyoka</text>
</a>
</g>
</g>
<!-- mppp&#45;&gt;heyoka -->
<g id="edge2" class="edge">
<title>mppp&#45;&gt;heyoka</title>
<path fill="none" stroke="black" d="M122.2,-360.76C131.56,-351.66 143.39,-340.16 153.71,-330.13"/>
<polygon fill="black" stroke="black" points="156.16,-332.63 160.89,-323.15 151.28,-327.61 156.16,-332.63"/>
</g>
<!-- heyoka.py -->
<g id="node4" class="node">
<title>heyoka.py</title>
<g id="a_node4"><a xlink:href="https://github.com/conda-forge/heyoka.py-feedstock" xlink:title="heyoka py">
<ellipse fill="#fde725" stroke="black" cx="115.5" cy="-234" rx="58" ry="18"/>
<text text-anchor="middle" x="115.5" y="-230.3" font-family="Times,serif" font-size="14.00">heyoka py</text>
</a>
</g>
</g>
<!-- mppp&#45;&gt;heyoka.py -->
<g id="edge3" class="edge">
<title>mppp&#45;&gt;heyoka.py</title>
<path fill="none" stroke="black" d="M106.71,-359.87C108.41,-335.67 111.54,-291.21 113.57,-262.39"/>
<polygon fill="black" stroke="black" points="117.08,-262.41 114.29,-252.19 110.1,-261.92 117.08,-262.41"/>
</g>
<!-- heyoka&#45;&gt;heyoka.py -->
<g id="edge4" class="edge">
<title>heyoka&#45;&gt;heyoka.py</title>
<path fill="none" stroke="black" d="M163.12,-288.76C155.33,-279.97 145.55,-268.93 136.88,-259.14"/>
<polygon fill="black" stroke="black" points="139.48,-256.8 130.23,-251.63 134.24,-261.44 139.48,-256.8"/>
</g>
<!-- cascade -->
<g id="node5" class="node">
<title>cascade</title>
<g id="a_node5"><a xlink:href="https://github.com/conda-forge/cascade-feedstock" xlink:title="cascade">
<ellipse fill="#fde725" stroke="black" cx="201.5" cy="-162" rx="47.5" ry="18"/>
<text text-anchor="middle" x="201.5" y="-158.3" font-family="Times,serif" font-size="14.00">cascade</text>
</a>
</g>
</g>
<!-- heyoka&#45;&gt;cascade -->
<g id="edge5" class="edge">
<title>heyoka&#45;&gt;cascade</title>
<path fill="none" stroke="black" d="M180.39,-287.87C184.49,-263.67 192,-219.21 196.87,-190.39"/>
<polygon fill="black" stroke="black" points="200.38,-190.63 198.59,-180.19 193.48,-189.47 200.38,-190.63"/>
</g>
<!-- heyoka.py&#45;&gt;cascade -->
<g id="edge6" class="edge">
<title>heyoka.py&#45;&gt;cascade</title>
<path fill="none" stroke="black" d="M135.45,-216.76C147.01,-207.36 161.72,-195.38 174.33,-185.12"/>
<polygon fill="black" stroke="black" points="176.71,-187.69 182.25,-178.67 172.29,-182.26 176.71,-187.69"/>
</g>
<!-- spdlog -->
<g id="node6" class="node">
<title>spdlog</title>
<g id="a_node6"><a xlink:href="https://github.com/conda-forge/spdlog-feedstock/pull/55" xlink:title="spdlog ❎">
<ellipse fill="#31688e" stroke="black" cx="616.5" cy="-378" rx="56" ry="18"/>
<text text-anchor="middle" x="616.5" y="-374.3" font-family="Times,serif" font-size="14.00" fill="white">spdlog ❎</text>
</a>
</g>
</g>
<!-- spdlog&#45;&gt;heyoka -->
<g id="edge7" class="edge">
<title>spdlog&#45;&gt;heyoka</title>
<path fill="none" stroke="black" d="M563.38,-372.1C489.35,-364.71 351.23,-348.87 235.5,-324 230.56,-322.94 225.43,-321.68 220.35,-320.32"/>
<polygon fill="black" stroke="black" points="221.29,-316.95 210.72,-317.64 219.41,-323.7 221.29,-316.95"/>
</g>
<!-- spdlog&#45;&gt;cascade -->
<g id="edge16" class="edge">
<title>spdlog&#45;&gt;cascade</title>
<path fill="none" stroke="black" d="M561.17,-374.78C475.91,-370.33 317.63,-357.67 273.5,-324 230.41,-291.12 212.48,-226.73 205.53,-190.13"/>
<polygon fill="black" stroke="black" points="208.95,-189.4 203.77,-180.16 202.06,-190.61 208.95,-189.4"/>
</g>
<!-- mamba -->
<g id="node7" class="node">
<title>mamba</title>
<g id="a_node7"><a xlink:href="https://github.com/conda-forge/mamba-feedstock" xlink:title="mamba">
<ellipse fill="#fde725" stroke="black" cx="945.5" cy="-306" rx="45" ry="18"/>
<text text-anchor="middle" x="945.5" y="-302.3" font-family="Times,serif" font-size="14.00">mamba</text>
</a>
</g>
</g>
<!-- spdlog&#45;&gt;mamba -->
<g id="edge8" class="edge">
<title>spdlog&#45;&gt;mamba</title>
<path fill="none" stroke="black" d="M665.06,-368.78C719.32,-359.28 809.65,-342.58 886.5,-324 891.18,-322.87 896.04,-321.61 900.87,-320.3"/>
<polygon fill="black" stroke="black" points="901.99,-323.62 910.69,-317.57 900.12,-316.88 901.99,-323.62"/>
</g>
<!-- vowpalwabbit -->
<g id="node8" class="node">
<title>vowpalwabbit</title>
<g id="a_node8"><a xlink:href="https://github.com/conda-forge/vowpalwabbit-feedstock" xlink:title="vowpalwabbit">
<ellipse fill="#fde725" stroke="black" cx="1018.5" cy="-234" rx="75.5" ry="18"/>
<text text-anchor="middle" x="1018.5" y="-230.3" font-family="Times,serif" font-size="14.00">vowpalwabbit</text>
</a>
</g>
</g>
<!-- spdlog&#45;&gt;vowpalwabbit -->
<g id="edge9" class="edge">
<title>spdlog&#45;&gt;vowpalwabbit</title>
<path fill="none" stroke="black" d="M672.68,-376.87C767.41,-375.45 953.16,-367.08 999.5,-324 1016.17,-308.5 1020.1,-282.25 1020.34,-262.26"/>
<polygon fill="black" stroke="black" points="1023.84,-262.13 1020.17,-252.19 1016.84,-262.25 1023.84,-262.13"/>
</g>
<!-- gnuradio -->
<g id="node9" class="node">
<title>gnuradio</title>
<g id="a_node9"><a xlink:href="https://github.com/conda-forge/gnuradio-feedstock" xlink:title="gnuradio">
<ellipse fill="#fde725" stroke="black" cx="367.5" cy="-162" rx="52" ry="18"/>
<text text-anchor="middle" x="367.5" y="-158.3" font-family="Times,serif" font-size="14.00">gnuradio</text>
</a>
</g>
</g>
<!-- spdlog&#45;&gt;gnuradio -->
<g id="edge10" class="edge">
<title>spdlog&#45;&gt;gnuradio</title>
<path fill="none" stroke="black" d="M560.85,-375.43C517.93,-371.32 459.78,-359.02 422.5,-324 384.75,-288.54 372.91,-226.11 369.2,-190.31"/>
<polygon fill="black" stroke="black" points="372.66,-189.75 368.29,-180.11 365.69,-190.38 372.66,-189.75"/>
</g>
<!-- micromamba -->
<g id="node10" class="node">
<title>micromamba</title>
<g id="a_node10"><a xlink:href="https://github.com/conda-forge/micromamba-feedstock" xlink:title="micromamba">
<ellipse fill="#fde725" stroke="black" cx="274.5" cy="-90" rx="71.5" ry="18"/>
<text text-anchor="middle" x="274.5" y="-86.3" font-family="Times,serif" font-size="14.00">micromamba</text>
</a>
</g>
</g>
<!-- spdlog&#45;&gt;micromamba -->
<g id="edge11" class="edge">
<title>spdlog&#45;&gt;micromamba</title>
<path fill="none" stroke="black" d="M560.66,-375.56C512.27,-371.73 442.52,-359.77 393.5,-324 323.25,-272.74 291.52,-167.84 279.98,-118.19"/>
<polygon fill="black" stroke="black" points="283.35,-117.2 277.76,-108.2 276.51,-118.72 283.35,-117.2"/>
</g>
<!-- gnuradio&#45;satellites -->
<g id="node11" class="node">
<title>gnuradio&#45;satellites</title>
<g id="a_node11"><a xlink:href="https://github.com/conda-forge/gnuradio-satellites-feedstock" xlink:title="gnuradio satellites">
<ellipse fill="#fde725" stroke="black" cx="461.5" cy="-90" rx="97.5" ry="18"/>
<text text-anchor="middle" x="461.5" y="-86.3" font-family="Times,serif" font-size="14.00">gnuradio satellites</text>
</a>
</g>
</g>
<!-- spdlog&#45;&gt;gnuradio&#45;satellites -->
<g id="edge12" class="edge">
<title>spdlog&#45;&gt;gnuradio&#45;satellites</title>
<path fill="none" stroke="black" d="M561.32,-374.52C525.11,-369.67 480.23,-356.86 456.5,-324 411.79,-262.1 435.72,-164.83 451.38,-117.99"/>
<polygon fill="black" stroke="black" points="454.79,-118.86 454.76,-108.26 448.17,-116.56 454.79,-118.86"/>
</g>
<!-- dartsim -->
<g id="node12" class="node">
<title>dartsim</title>
<g id="a_node12"><a xlink:href="https://github.com/conda-forge/dartsim-feedstock" xlink:title="dartsim">
<ellipse fill="#fde725" stroke="black" cx="834.5" cy="-18" rx="47" ry="18"/>
<text text-anchor="middle" x="834.5" y="-14.3" font-family="Times,serif" font-size="14.00">dartsim</text>
</a>
</g>
</g>
<!-- spdlog&#45;&gt;dartsim -->
<g id="edge13" class="edge">
<title>spdlog&#45;&gt;dartsim</title>
<path fill="none" stroke="black" d="M670.82,-373.17C709.97,-367.77 761.81,-354.85 796.5,-324 828.64,-295.42 834.5,-278.01 834.5,-235 834.5,-235 834.5,-235 834.5,-161 834.5,-121 834.5,-74.65 834.5,-46.08"/>
<polygon fill="black" stroke="black" points="838,-46.05 834.5,-36.05 831,-46.05 838,-46.05"/>
</g>
<!-- bipedal&#45;locomotion&#45;framework -->
<g id="node13" class="node">
<title>bipedal&#45;locomotion&#45;framework</title>
<g id="a_node13"><a xlink:href="https://github.com/conda-forge/bipedal-locomotion-framework-feedstock" xlink:title="bipedal locomotion framework">
<ellipse fill="#fde725" stroke="black" cx="616.5" cy="-306" rx="151.5" ry="18"/>
<text text-anchor="middle" x="616.5" y="-302.3" font-family="Times,serif" font-size="14.00">bipedal locomotion framework</text>
</a>
</g>
</g>
<!-- spdlog&#45;&gt;bipedal&#45;locomotion&#45;framework -->
<g id="edge14" class="edge">
<title>spdlog&#45;&gt;bipedal&#45;locomotion&#45;framework</title>
<path fill="none" stroke="black" d="M616.5,-359.7C616.5,-351.98 616.5,-342.71 616.5,-334.11"/>
<polygon fill="black" stroke="black" points="620,-334.1 616.5,-324.1 613,-334.1 620,-334.1"/>
</g>
<!-- tip -->
<g id="node14" class="node">
<title>tip</title>
<g id="a_node14"><a xlink:href="https://github.com/conda-forge/tip-feedstock" xlink:title="tip">
<ellipse fill="#fde725" stroke="black" cx="779.5" cy="-234" rx="27" ry="18"/>
<text text-anchor="middle" x="779.5" y="-230.3" font-family="Times,serif" font-size="14.00">tip</text>
</a>
</g>
</g>
<!-- spdlog&#45;&gt;tip -->
<g id="edge15" class="edge">
<title>spdlog&#45;&gt;tip</title>
<path fill="none" stroke="black" d="M671.78,-374.45C708.1,-369.57 753.24,-356.75 777.5,-324 790.54,-306.4 789.75,-281 786.45,-261.84"/>
<polygon fill="black" stroke="black" points="789.86,-261.02 784.43,-251.92 783,-262.42 789.86,-261.02"/>
</g>
<!-- arcticdb -->
<g id="node15" class="node">
<title>arcticdb</title>
<g id="a_node15"><a xlink:href="https://github.com/conda-forge/arcticdb-feedstock" xlink:title="arcticdb">
<ellipse fill="#fde725" stroke="black" cx="911.5" cy="-162" rx="48.99" ry="18"/>
<text text-anchor="middle" x="911.5" y="-158.3" font-family="Times,serif" font-size="14.00">arcticdb</text>
</a>
</g>
</g>
<!-- spdlog&#45;&gt;arcticdb -->
<g id="edge17" class="edge">
<title>spdlog&#45;&gt;arcticdb</title>
<path fill="none" stroke="black" d="M668.18,-370.87C728.04,-362.82 821.86,-346.96 848.5,-324 888.48,-289.55 903.26,-226.49 908.6,-190.35"/>
<polygon fill="black" stroke="black" points="912.11,-190.44 909.97,-180.07 905.18,-189.52 912.11,-190.44"/>
</g>
<!-- gnuradio&#45;&gt;gnuradio&#45;satellites -->
<g id="edge18" class="edge">
<title>gnuradio&#45;&gt;gnuradio&#45;satellites</title>
<path fill="none" stroke="black" d="M388.36,-145.46C400.81,-136.19 416.86,-124.25 430.74,-113.91"/>
<polygon fill="black" stroke="black" points="433.13,-116.49 439.06,-107.71 428.94,-110.88 433.13,-116.49"/>
</g>
<!-- cantera -->
<g id="node16" class="node">
<title>cantera</title>
<g id="a_node16"><a xlink:href="https://github.com/conda-forge/cantera-feedstock/pull/26" xlink:title="cantera ❎">
<ellipse fill="#31688e" stroke="black" cx="1183.5" cy="-306" rx="60" ry="18"/>
<text text-anchor="middle" x="1183.5" y="-302.3" font-family="Times,serif" font-size="14.00" fill="white">cantera ❎</text>
</a>
</g>
</g>
<!-- xgems -->
<g id="node17" class="node">
<title>xgems</title>
<g id="a_node17"><a xlink:href="https://github.com/conda-forge/xgems-feedstock" xlink:title="xgems">
<ellipse fill="#ff8c00" stroke="black" cx="1183.5" cy="-234" rx="41" ry="18"/>
<text text-anchor="middle" x="1183.5" y="-230.3" font-family="Times,serif" font-size="14.00">xgems</text>
</a>
</g>
</g>
<!-- cantera&#45;&gt;xgems -->
<!-- heavydb&#45;ext -->
<g id="node18" class="node">
<title>heavydb&#45;ext</title>
<g id="a_node18"><a xlink:href="https://github.com/conda-forge/heavydb-ext-feedstock/pull/48" xlink:title="heavydb ext ❎">
<ellipse fill="#31688e" stroke="black" cx="1183.5" cy="-162" rx="81.49" ry="18"/>
<text text-anchor="middle" x="1183.5" y="-158.3" font-family="Times,serif" font-size="14.00" fill="white">heavydb ext ❎</text>
</a>
</g>
</g>
<!-- xgems&#45;&gt;heavydb&#45;ext -->
<!-- hdk -->
<g id="node21" class="node">
<title>hdk</title>
<g id="a_node21"><a xlink:href="https://github.com/conda-forge/hdk-feedstock" xlink:title="hdk">
<ellipse fill="#35b779" stroke="black" cx="1183.5" cy="-90" rx="28" ry="18"/>
<text text-anchor="middle" x="1183.5" y="-86.3" font-family="Times,serif" font-size="14.00">hdk</text>
</a>
</g>
</g>
<!-- heavydb&#45;ext&#45;&gt;hdk -->
<!-- intervalxt -->
<g id="node19" class="node">
<title>intervalxt</title>
<g id="a_node19"><a xlink:href="https://github.com/conda-forge/intervalxt-feedstock" xlink:title="intervalxt">
<ellipse fill="#ff8c00" stroke="black" cx="1328.5" cy="-234" rx="56" ry="18"/>
<text text-anchor="middle" x="1328.5" y="-230.3" font-family="Times,serif" font-size="14.00">intervalxt</text>
</a>
</g>
</g>
<!-- flatsurf -->
<g id="node20" class="node">
<title>flatsurf</title>
<g id="a_node20"><a xlink:href="https://github.com/conda-forge/flatsurf-feedstock" xlink:title="flatsurf">
<ellipse fill="#fde725" stroke="black" cx="1328.5" cy="-162" rx="44.39" ry="18"/>
<text text-anchor="middle" x="1328.5" y="-158.3" font-family="Times,serif" font-size="14.00">flatsurf</text>
</a>
</g>
</g>
<!-- intervalxt&#45;&gt;flatsurf -->
<g id="edge21" class="edge">
<title>intervalxt&#45;&gt;flatsurf</title>
<path fill="none" stroke="black" d="M1328.5,-215.7C1328.5,-207.98 1328.5,-198.71 1328.5,-190.11"/>
<polygon fill="black" stroke="black" points="1332,-190.1 1328.5,-180.1 1325,-190.1 1332,-190.1"/>
</g>
</g>
</svg>
