<?xml version="1.0" encoding="UTF-8" standalone="no"?>
<!DOCTYPE svg PUBLIC "-//W3C//DTD SVG 1.1//EN"
 "http://www.w3.org/Graphics/SVG/1.1/DTD/svg11.dtd">
<!-- Generated by graphviz version 8.0.5 (20230506.1012)
 -->
<!-- Pages: 1 -->
<svg width="1360pt" height="404pt"
 viewBox="0.00 0.00 1360.21 404.00" xmlns="http://www.w3.org/2000/svg" xmlns:xlink="http://www.w3.org/1999/xlink">
<g id="graph0" class="graph" transform="scale(1 1) rotate(0) translate(4 400)">
<polygon fill="white" stroke="none" points="-4,4 -4,-400 1356.21,-400 1356.21,4 -4,4"/>
<!-- spdlog -->
<g id="node1" class="node">
<title>spdlog</title>
<g id="a_node1"><a xlink:href="https://github.com/conda-forge/spdlog-feedstock/pull/55" xlink:title="spdlog ❎">
<ellipse fill="#31688e" stroke="black" cx="403.05" cy="-378" rx="59.63" ry="18"/>
<text text-anchor="middle" x="403.05" y="-373.32" font-family="Times,serif" font-size="14.00" fill="white">spdlog ❎</text>
</a>
</g>
</g>
<!-- mamba -->
<g id="node2" class="node">
<title>mamba</title>
<g id="a_node2"><a xlink:href="https://github.com/conda-forge/mamba-feedstock" xlink:title="mamba">
<ellipse fill="#fde725" stroke="black" cx="48.05" cy="-306" rx="48.05" ry="18"/>
<text text-anchor="middle" x="48.05" y="-301.32" font-family="Times,serif" font-size="14.00">mamba</text>
</a>
</g>
</g>
<!-- spdlog&#45;&gt;mamba -->
<g id="edge1" class="edge">
<title>spdlog&#45;&gt;mamba</title>
<path fill="none" stroke="black" d="M350.64,-368.96C291.79,-359.6 193.61,-342.97 110.05,-324 105.4,-322.94 100.56,-321.76 95.75,-320.53"/>
<polygon fill="black" stroke="black" points="96.85,-316.94 86.29,-317.79 95.08,-323.71 96.85,-316.94"/>
</g>
<!-- vowpalwabbit -->
<g id="node3" class="node">
<title>vowpalwabbit</title>
<g id="a_node3"><a xlink:href="https://github.com/conda-forge/vowpalwabbit-feedstock" xlink:title="vowpalwabbit">
<ellipse fill="#fde725" stroke="black" cx="88.05" cy="-234" rx="80.67" ry="18"/>
<text text-anchor="middle" x="88.05" y="-229.32" font-family="Times,serif" font-size="14.00">vowpalwabbit</text>
</a>
</g>
</g>
<!-- spdlog&#45;&gt;vowpalwabbit -->
<g id="edge2" class="edge">
<title>spdlog&#45;&gt;vowpalwabbit</title>
<path fill="none" stroke="black" d="M346.88,-371.53C300.65,-365.18 234.58,-351.79 183.05,-324 153.46,-308.04 126.19,-280.58 108.52,-260.37"/>
<polygon fill="black" stroke="black" points="110.72,-258.55 101.56,-253.21 105.39,-263.09 110.72,-258.55"/>
</g>
<!-- gnuradio -->
<g id="node4" class="node">
<title>gnuradio</title>
<g id="a_node4"><a xlink:href="https://github.com/conda-forge/gnuradio-feedstock" xlink:title="gnuradio">
<ellipse fill="#fde725" stroke="black" cx="281.05" cy="-162" rx="55.94" ry="18"/>
<text text-anchor="middle" x="281.05" y="-157.32" font-family="Times,serif" font-size="14.00">gnuradio</text>
</a>
</g>
</g>
<!-- spdlog&#45;&gt;gnuradio -->
<g id="edge3" class="edge">
<title>spdlog&#45;&gt;gnuradio</title>
<path fill="none" stroke="black" d="M383.72,-360.53C373.07,-350.73 360.2,-337.58 351.05,-324 321.98,-280.85 300.55,-223.66 289.5,-190.34"/>
<polygon fill="black" stroke="black" points="292.57,-189.45 286.16,-181.01 285.91,-191.6 292.57,-189.45"/>
</g>
<!-- micromamba -->
<g id="node5" class="node">
<title>micromamba</title>
<g id="a_node5"><a xlink:href="https://github.com/conda-forge/micromamba-feedstock" xlink:title="micromamba">
<ellipse fill="#fde725" stroke="black" cx="79.05" cy="-90" rx="76.46" ry="18"/>
<text text-anchor="middle" x="79.05" y="-85.33" font-family="Times,serif" font-size="14.00">micromamba</text>
</a>
</g>
</g>
<!-- spdlog&#45;&gt;micromamba -->
<g id="edge4" class="edge">
<title>spdlog&#45;&gt;micromamba</title>
<path fill="none" stroke="black" d="M378.44,-361.16C363.23,-351.05 343.54,-337.38 327.05,-324 240.03,-253.4 145.8,-159.49 102.83,-115.59"/>
<polygon fill="black" stroke="black" points="105.91,-113.7 96.42,-108.99 100.9,-118.59 105.91,-113.7"/>
</g>
<!-- gnuradio&#45;satellites -->
<g id="node6" class="node">
<title>gnuradio&#45;satellites</title>
<g id="a_node6"><a xlink:href="https://github.com/conda-forge/gnuradio-satellites-feedstock" xlink:title="gnuradio satellites">
<ellipse fill="#fde725" stroke="black" cx="278.05" cy="-90" rx="104.87" ry="18"/>
<text text-anchor="middle" x="278.05" y="-85.33" font-family="Times,serif" font-size="14.00">gnuradio satellites</text>
</a>
</g>
</g>
<!-- spdlog&#45;&gt;gnuradio&#45;satellites -->
<g id="edge5" class="edge">
<title>spdlog&#45;&gt;gnuradio&#45;satellites</title>
<path fill="none" stroke="black" d="M398.41,-359.84C395.63,-349.48 392.07,-336 389.05,-324 368.99,-244.23 390.55,-213.18 346.05,-144 338.51,-132.28 327.46,-122.07 316.45,-113.83"/>
<polygon fill="black" stroke="black" points="318.89,-110.56 308.7,-107.65 314.85,-116.28 318.89,-110.56"/>
</g>
<!-- dartsim -->
<g id="node7" class="node">
<title>dartsim</title>
<g id="a_node7"><a xlink:href="https://github.com/conda-forge/dartsim-feedstock" xlink:title="dartsim">
<ellipse fill="#fde725" stroke="black" cx="411.05" cy="-18" rx="50.16" ry="18"/>
<text text-anchor="middle" x="411.05" y="-13.32" font-family="Times,serif" font-size="14.00">dartsim</text>
</a>
</g>
</g>
<!-- spdlog&#45;&gt;dartsim -->
<g id="edge6" class="edge">
<title>spdlog&#45;&gt;dartsim</title>
<path fill="none" stroke="black" d="M403.44,-359.73C404.72,-302.31 408.85,-117.42 410.43,-46.79"/>
<polygon fill="black" stroke="black" points="413.95,-47.17 410.67,-37.09 406.95,-47.01 413.95,-47.17"/>
</g>
<!-- heyoka -->
<g id="node8" class="node">
<title>heyoka</title>
<g id="a_node8"><a xlink:href="https://github.com/conda-forge/heyoka-feedstock" xlink:title="heyoka">
<ellipse fill="#fde725" stroke="black" cx="860.05" cy="-306" rx="46.47" ry="18"/>
<text text-anchor="middle" x="860.05" y="-301.32" font-family="Times,serif" font-size="14.00">heyoka</text>
</a>
</g>
</g>
<!-- spdlog&#45;&gt;heyoka -->
<g id="edge7" class="edge">
<title>spdlog&#45;&gt;heyoka</title>
<path fill="none" stroke="black" d="M460.33,-372.39C538.61,-365.43 683.08,-350.17 804.05,-324 807.69,-323.21 811.43,-322.3 815.17,-321.32"/>
<polygon fill="black" stroke="black" points="815.94,-324.47 824.63,-318.41 814.06,-317.72 815.94,-324.47"/>
</g>
<!-- bipedal&#45;locomotion&#45;framework -->
<g id="node9" class="node">
<title>bipedal&#45;locomotion&#45;framework</title>
<g id="a_node9"><a xlink:href="https://github.com/conda-forge/bipedal-locomotion-framework-feedstock" xlink:title="bipedal locomotion framework">
<ellipse fill="#fde725" stroke="black" cx="632.05" cy="-306" rx="163.27" ry="18"/>
<text text-anchor="middle" x="632.05" y="-301.32" font-family="Times,serif" font-size="14.00">bipedal locomotion framework</text>
</a>
</g>
</g>
<!-- spdlog&#45;&gt;bipedal&#45;locomotion&#45;framework -->
<g id="edge8" class="edge">
<title>spdlog&#45;&gt;bipedal&#45;locomotion&#45;framework</title>
<path fill="none" stroke="black" d="M443.99,-364.49C478.48,-353.94 528.4,-338.68 568.14,-326.54"/>
<polygon fill="black" stroke="black" points="568.99,-329.63 577.53,-323.36 566.95,-322.94 568.99,-329.63"/>
</g>
<!-- tip -->
<g id="node10" class="node">
<title>tip</title>
<g id="a_node10"><a xlink:href="https://github.com/conda-forge/tip-feedstock" xlink:title="tip">
<ellipse fill="#fde725" stroke="black" cx="934.05" cy="-234" rx="27" ry="18"/>
<text text-anchor="middle" x="934.05" y="-229.32" font-family="Times,serif" font-size="14.00">tip</text>
</a>
</g>
</g>
<!-- spdlog&#45;&gt;tip -->
<g id="edge9" class="edge">
<title>spdlog&#45;&gt;tip</title>
<path fill="none" stroke="black" d="M462.02,-374.75C589.48,-369.33 881.89,-353.78 915.05,-324 931.76,-309 935.77,-283.22 936.04,-263.26"/>
<polygon fill="black" stroke="black" points="939.52,-263.24 935.83,-253.31 932.52,-263.37 939.52,-263.24"/>
</g>
<!-- cascade -->
<g id="node11" class="node">
<title>cascade</title>
<g id="a_node11"><a xlink:href="https://github.com/conda-forge/cascade-feedstock" xlink:title="cascade">
<ellipse fill="#fde725" stroke="black" cx="770.05" cy="-162" rx="50.68" ry="18"/>
<text text-anchor="middle" x="770.05" y="-157.32" font-family="Times,serif" font-size="14.00">cascade</text>
</a>
</g>
</g>
<!-- spdlog&#45;&gt;cascade -->
<g id="edge10" class="edge">
<title>spdlog&#45;&gt;cascade</title>
<path fill="none" stroke="black" d="M410.22,-359.65C419.19,-339.86 436.32,-307.67 460.05,-288 536.65,-224.5 649.7,-189.99 716.01,-174.12"/>
<polygon fill="black" stroke="black" points="716.7,-177.32 725.64,-171.64 715.11,-170.5 716.7,-177.32"/>
</g>
<!-- arcticdb -->
<g id="node12" class="node">
<title>arcticdb</title>
<g id="a_node12"><a xlink:href="https://github.com/conda-forge/arcticdb-feedstock" xlink:title="arcticdb">
<ellipse fill="#fde725" stroke="black" cx="989.05" cy="-162" rx="52.26" ry="18"/>
<text text-anchor="middle" x="989.05" y="-157.32" font-family="Times,serif" font-size="14.00">arcticdb</text>
</a>
</g>
</g>
<!-- spdlog&#45;&gt;arcticdb -->
<g id="edge11" class="edge">
<title>spdlog&#45;&gt;arcticdb</title>
<path fill="none" stroke="black" d="M461.88,-374.53C593.09,-368.55 901.17,-351.7 939.05,-324 980.8,-293.47 988.74,-228.37 989.65,-190.98"/>
<polygon fill="black" stroke="black" points="993.15,-191.36 989.74,-181.33 986.15,-191.3 993.15,-191.36"/>
</g>
<!-- gnuradio&#45;&gt;gnuradio&#45;satellites -->
<g id="edge12" class="edge">
<title>gnuradio&#45;&gt;gnuradio&#45;satellites</title>
<path fill="none" stroke="black" d="M280.31,-143.7C279.99,-136.24 279.61,-127.32 279.25,-118.97"/>
<polygon fill="black" stroke="black" points="282.71,-118.95 278.79,-109.1 275.72,-119.25 282.71,-118.95"/>
</g>
<!-- heyoka&#45;&gt;cascade -->
<g id="edge13" class="edge">
<title>heyoka&#45;&gt;cascade</title>
<path fill="none" stroke="black" d="M859.89,-287.58C858.95,-268.58 855.12,-237.95 841.05,-216 832.57,-202.77 819.55,-191.65 806.96,-183.07"/>
<polygon fill="black" stroke="black" points="809.24,-179.74 798.94,-177.28 805.46,-185.63 809.24,-179.74"/>
</g>
<!-- heyoka.py -->
<g id="node13" class="node">
<title>heyoka.py</title>
<g id="a_node13"><a xlink:href="https://github.com/conda-forge/heyoka.py-feedstock" xlink:title="heyoka py">
<ellipse fill="#fde725" stroke="black" cx="770.05" cy="-234" rx="61.73" ry="18"/>
<text text-anchor="middle" x="770.05" y="-229.32" font-family="Times,serif" font-size="14.00">heyoka py</text>
</a>
</g>
</g>
<!-- heyoka&#45;&gt;heyoka.py -->
<g id="edge14" class="edge">
<title>heyoka&#45;&gt;heyoka.py</title>
<path fill="none" stroke="black" d="M840.08,-289.46C828.1,-280.15 812.65,-268.13 799.31,-257.76"/>
<polygon fill="black" stroke="black" points="801.95,-254.6 791.91,-251.22 797.65,-260.12 801.95,-254.6"/>
</g>
<!-- heyoka.py&#45;&gt;cascade -->
<g id="edge16" class="edge">
<title>heyoka.py&#45;&gt;cascade</title>
<path fill="none" stroke="black" d="M770.05,-215.7C770.05,-208.24 770.05,-199.32 770.05,-190.97"/>
<polygon fill="black" stroke="black" points="773.55,-191.1 770.05,-181.1 766.55,-191.1 773.55,-191.1"/>
</g>
<!-- cantera -->
<g id="node14" class="node">
<title>cantera</title>
<g id="a_node14"><a xlink:href="https://github.com/conda-forge/cantera-feedstock/pull/26" xlink:title="cantera ❎">
<ellipse fill="#31688e" stroke="black" cx="1136.05" cy="-306" rx="64.36" ry="18"/>
<text text-anchor="middle" x="1136.05" y="-301.32" font-family="Times,serif" font-size="14.00" fill="white">cantera ❎</text>
</a>
</g>
</g>
<!-- xgems -->
<g id="node15" class="node">
<title>xgems</title>
<g id="a_node15"><a xlink:href="https://github.com/conda-forge/xgems-feedstock" xlink:title="xgems">
<ellipse fill="#fde725" stroke="black" cx="1136.05" cy="-234" rx="43.84" ry="18"/>
<text text-anchor="middle" x="1136.05" y="-229.32" font-family="Times,serif" font-size="14.00">xgems</text>
</a>
</g>
</g>
<!-- cantera&#45;&gt;xgems -->
<!-- heavydb&#45;ext -->
<g id="node16" class="node">
<title>heavydb&#45;ext</title>
<g id="a_node16"><a xlink:href="https://github.com/conda-forge/heavydb-ext-feedstock/pull/48" xlink:title="heavydb ext ❎">
<ellipse fill="#31688e" stroke="black" cx="1136.05" cy="-162" rx="87.51" ry="18"/>
<text text-anchor="middle" x="1136.05" y="-157.32" font-family="Times,serif" font-size="14.00" fill="white">heavydb ext ❎</text>
</a>
</g>
</g>
<!-- xgems&#45;&gt;heavydb&#45;ext -->
<!-- hdk -->
<g id="node19" class="node">
<title>hdk</title>
<g id="a_node19"><a xlink:href="https://github.com/conda-forge/hdk-feedstock/pull/33" xlink:title="hdk ✓">
<ellipse fill="#31688e" stroke="black" cx="1136.05" cy="-90" rx="37.53" ry="18"/>
<text text-anchor="middle" x="1136.05" y="-85.33" font-family="Times,serif" font-size="14.00" fill="white">hdk ✓</text>
</a>
</g>
</g>
<!-- heavydb&#45;ext&#45;&gt;hdk -->
<!-- intervalxt -->
<g id="node17" class="node">
<title>intervalxt</title>
<g id="a_node17"><a xlink:href="https://github.com/conda-forge/intervalxt-feedstock" xlink:title="intervalxt">
<ellipse fill="#ff8c00" stroke="black" cx="1292.05" cy="-234" rx="60.15" ry="18"/>
<text text-anchor="middle" x="1292.05" y="-229.32" font-family="Times,serif" font-size="14.00">intervalxt</text>
</a>
</g>
</g>
<!-- flatsurf -->
<g id="node18" class="node">
<title>flatsurf</title>
<g id="a_node18"><a xlink:href="https://github.com/conda-forge/flatsurf-feedstock" xlink:title="flatsurf">
<ellipse fill="#fde725" stroke="black" cx="1292.05" cy="-162" rx="47.53" ry="18"/>
<text text-anchor="middle" x="1292.05" y="-157.32" font-family="Times,serif" font-size="14.00">flatsurf</text>
</a>
</g>
</g>
<!-- intervalxt&#45;&gt;flatsurf -->
<g id="edge18" class="edge">
<title>intervalxt&#45;&gt;flatsurf</title>
<path fill="none" stroke="black" d="M1292.05,-215.7C1292.05,-208.24 1292.05,-199.32 1292.05,-190.97"/>
<polygon fill="black" stroke="black" points="1295.55,-191.1 1292.05,-181.1 1288.55,-191.1 1295.55,-191.1"/>
</g>
</g>
</svg>
