<?xml version="1.0" encoding="UTF-8" standalone="no"?>
<!DOCTYPE svg PUBLIC "-//W3C//DTD SVG 1.1//EN"
 "http://www.w3.org/Graphics/SVG/1.1/DTD/svg11.dtd">
<!-- Generated by graphviz version 8.0.5 (20230506.1012)
 -->
<!-- Pages: 1 -->
<svg width="1523pt" height="620pt"
 viewBox="0.00 0.00 1522.84 620.00" xmlns="http://www.w3.org/2000/svg" xmlns:xlink="http://www.w3.org/1999/xlink">
<g id="graph0" class="graph" transform="scale(1 1) rotate(0) translate(4 616)">
<polygon fill="white" stroke="none" points="-4,4 -4,-616 1518.84,-616 1518.84,4 -4,4"/>
<!-- libsemigroups -->
<g id="node1" class="node">
<title>libsemigroups</title>
<g id="a_node1"><a xlink:href="https://github.com/conda-forge/libsemigroups-feedstock" xlink:title="libsemigroups">
<ellipse fill="#35b779" stroke="black" cx="1304.69" cy="-594" rx="82.25" ry="18"/>
<text text-anchor="middle" x="1304.69" y="-589.33" font-family="Times,serif" font-size="14.00">libsemigroups</text>
</a>
</g>
</g>
<!-- paraview -->
<g id="node2" class="node">
<title>paraview</title>
<g id="a_node2"><a xlink:href="https://github.com/conda-forge/paraview-feedstock" xlink:title="paraview">
<ellipse fill="#35b779" stroke="black" cx="1304.69" cy="-522" rx="57" ry="18"/>
<text text-anchor="middle" x="1304.69" y="-517.33" font-family="Times,serif" font-size="14.00">paraview</text>
</a>
</g>
</g>
<!-- libsemigroups&#45;&gt;paraview -->
<!-- lue -->
<g id="node8" class="node">
<title>lue</title>
<g id="a_node8"><a xlink:href="https://github.com/conda-forge/lue-feedstock" xlink:title="lue">
<ellipse fill="#35b779" stroke="black" cx="1304.69" cy="-450" rx="27" ry="18"/>
<text text-anchor="middle" x="1304.69" y="-445.32" font-family="Times,serif" font-size="14.00">lue</text>
</a>
</g>
</g>
<!-- paraview&#45;&gt;lue -->
<!-- mppp -->
<g id="node3" class="node">
<title>mppp</title>
<g id="a_node3"><a xlink:href="https://github.com/conda-forge/mppp-feedstock" xlink:title="mppp">
<ellipse fill="#35b779" stroke="black" cx="109.69" cy="-486" rx="39.63" ry="18"/>
<text text-anchor="middle" x="109.69" y="-481.32" font-family="Times,serif" font-size="14.00">mppp</text>
</a>
</g>
</g>
<!-- obake -->
<g id="node4" class="node">
<title>obake</title>
<g id="a_node4"><a xlink:href="https://github.com/conda-forge/obake-feedstock" xlink:title="obake">
<ellipse fill="#fde725" stroke="black" cx="40.69" cy="-414" rx="40.69" ry="18"/>
<text text-anchor="middle" x="40.69" y="-409.32" font-family="Times,serif" font-size="14.00">obake</text>
</a>
</g>
</g>
<!-- mppp&#45;&gt;obake -->
<g id="edge2" class="edge">
<title>mppp&#45;&gt;obake</title>
<path fill="none" stroke="black" d="M94.03,-469.12C85.12,-460.08 73.79,-448.58 63.87,-438.52"/>
<polygon fill="black" stroke="black" points="66.8,-436.49 57.28,-431.82 61.81,-441.4 66.8,-436.49"/>
</g>
<!-- heyoka -->
<g id="node5" class="node">
<title>heyoka</title>
<g id="a_node5"><a xlink:href="https://github.com/conda-forge/heyoka-feedstock" xlink:title="heyoka">
<ellipse fill="#fde725" stroke="black" cx="183.69" cy="-414" rx="46.47" ry="18"/>
<text text-anchor="middle" x="183.69" y="-409.32" font-family="Times,serif" font-size="14.00">heyoka</text>
</a>
</g>
</g>
<!-- mppp&#45;&gt;heyoka -->
<g id="edge3" class="edge">
<title>mppp&#45;&gt;heyoka</title>
<path fill="none" stroke="black" d="M126.11,-469.46C135.68,-460.41 147.94,-448.82 158.69,-438.65"/>
<polygon fill="black" stroke="black" points="160.68,-441.64 165.54,-432.22 155.87,-436.55 160.68,-441.64"/>
</g>
<!-- heyoka.py -->
<g id="node6" class="node">
<title>heyoka.py</title>
<g id="a_node6"><a xlink:href="https://github.com/conda-forge/heyoka.py-feedstock" xlink:title="heyoka py">
<ellipse fill="#fde725" stroke="black" cx="118.69" cy="-342" rx="61.73" ry="18"/>
<text text-anchor="middle" x="118.69" y="-337.32" font-family="Times,serif" font-size="14.00">heyoka py</text>
</a>
</g>
</g>
<!-- mppp&#45;&gt;heyoka.py -->
<g id="edge4" class="edge">
<title>mppp&#45;&gt;heyoka.py</title>
<path fill="none" stroke="black" d="M110.79,-467.59C112.32,-443.5 115.09,-399.75 116.91,-371.03"/>
<polygon fill="black" stroke="black" points="120.46,-371.31 117.6,-361.11 113.48,-370.87 120.46,-371.31"/>
</g>
<!-- heyoka&#45;&gt;heyoka.py -->
<g id="edge5" class="edge">
<title>heyoka&#45;&gt;heyoka.py</title>
<path fill="none" stroke="black" d="M168.61,-396.76C160.52,-388.06 150.39,-377.15 141.38,-367.43"/>
<polygon fill="black" stroke="black" points="144.5,-365.58 135.13,-360.63 139.37,-370.34 144.5,-365.58"/>
</g>
<!-- cascade -->
<g id="node7" class="node">
<title>cascade</title>
<g id="a_node7"><a xlink:href="https://github.com/conda-forge/cascade-feedstock" xlink:title="cascade">
<ellipse fill="#fde725" stroke="black" cx="208.69" cy="-270" rx="50.68" ry="18"/>
<text text-anchor="middle" x="208.69" y="-265.32" font-family="Times,serif" font-size="14.00">cascade</text>
</a>
</g>
</g>
<!-- heyoka&#45;&gt;cascade -->
<g id="edge6" class="edge">
<title>heyoka&#45;&gt;cascade</title>
<path fill="none" stroke="black" d="M186.75,-395.59C191.01,-371.4 198.76,-327.36 203.82,-298.65"/>
<polygon fill="black" stroke="black" points="207.39,-299.57 205.67,-289.11 200.49,-298.35 207.39,-299.57"/>
</g>
<!-- heyoka.py&#45;&gt;cascade -->
<g id="edge7" class="edge">
<title>heyoka.py&#45;&gt;cascade</title>
<path fill="none" stroke="black" d="M139.56,-324.76C151.46,-315.51 166.55,-303.77 179.6,-293.63"/>
<polygon fill="black" stroke="black" points="181.49,-295.81 187.24,-286.91 177.19,-290.28 181.49,-295.81"/>
</g>
<!-- cantera -->
<g id="node19" class="node">
<title>cantera</title>
<g id="a_node19"><a xlink:href="https://github.com/conda-forge/cantera-feedstock" xlink:title="cantera">
<ellipse fill="#35b779" stroke="black" cx="1304.69" cy="-378" rx="49.1" ry="18"/>
<text text-anchor="middle" x="1304.69" y="-373.32" font-family="Times,serif" font-size="14.00">cantera</text>
</a>
</g>
</g>
<!-- lue&#45;&gt;cantera -->
<!-- spdlog -->
<g id="node9" class="node">
<title>spdlog</title>
<g id="a_node9"><a xlink:href="https://github.com/conda-forge/spdlog-feedstock" xlink:title="spdlog">
<ellipse fill="#35b779" stroke="black" cx="715.69" cy="-486" rx="44.37" ry="18"/>
<text text-anchor="middle" x="715.69" y="-481.32" font-family="Times,serif" font-size="14.00">spdlog</text>
</a>
</g>
</g>
<!-- spdlog&#45;&gt;heyoka -->
<g id="edge9" class="edge">
<title>spdlog&#45;&gt;heyoka</title>
<path fill="none" stroke="black" d="M671.72,-482.48C587.84,-477.15 399.45,-462.6 243.69,-432 239.02,-431.08 234.19,-429.98 229.38,-428.78"/>
<polygon fill="black" stroke="black" points="230.55,-425.21 219.99,-426.04 228.77,-431.98 230.55,-425.21"/>
</g>
<!-- spdlog&#45;&gt;cascade -->
<g id="edge18" class="edge">
<title>spdlog&#45;&gt;cascade</title>
<path fill="none" stroke="black" d="M671.25,-484.95C573.35,-484 342.87,-476.92 281.69,-432 238.08,-399.98 219.92,-335.73 212.83,-298.81"/>
<polygon fill="black" stroke="black" points="216.16,-298.53 210.97,-289.29 209.27,-299.75 216.16,-298.53"/>
</g>
<!-- mamba -->
<g id="node10" class="node">
<title>mamba</title>
<g id="a_node10"><a xlink:href="https://github.com/conda-forge/mamba-feedstock" xlink:title="mamba">
<ellipse fill="#fde725" stroke="black" cx="791.69" cy="-414" rx="48.05" ry="18"/>
<text text-anchor="middle" x="791.69" y="-409.32" font-family="Times,serif" font-size="14.00">mamba</text>
</a>
</g>
</g>
<!-- spdlog&#45;&gt;mamba -->
<g id="edge10" class="edge">
<title>spdlog&#45;&gt;mamba</title>
<path fill="none" stroke="black" d="M732.93,-469.12C742.77,-460.05 755.3,-448.52 766.25,-438.43"/>
<polygon fill="black" stroke="black" points="768.26,-441.41 773.25,-432.06 763.52,-436.26 768.26,-441.41"/>
</g>
<!-- vowpalwabbit -->
<g id="node11" class="node">
<title>vowpalwabbit</title>
<g id="a_node11"><a xlink:href="https://github.com/conda-forge/vowpalwabbit-feedstock" xlink:title="vowpalwabbit">
<ellipse fill="#fde725" stroke="black" cx="824.69" cy="-342" rx="80.67" ry="18"/>
<text text-anchor="middle" x="824.69" y="-337.32" font-family="Times,serif" font-size="14.00">vowpalwabbit</text>
</a>
</g>
</g>
<!-- spdlog&#45;&gt;vowpalwabbit -->
<g id="edge11" class="edge">
<title>spdlog&#45;&gt;vowpalwabbit</title>
<path fill="none" stroke="black" d="M758.25,-480.45C789.03,-474.69 828.6,-461.63 848.69,-432 861.32,-413.36 852.82,-388.32 842.59,-369.55"/>
<polygon fill="black" stroke="black" points="845.12,-367.95 837.03,-361.11 839.09,-371.5 845.12,-367.95"/>
</g>
<!-- gnuradio -->
<g id="node12" class="node">
<title>gnuradio</title>
<g id="a_node12"><a xlink:href="https://github.com/conda-forge/gnuradio-feedstock" xlink:title="gnuradio">
<ellipse fill="#fde725" stroke="black" cx="547.69" cy="-270" rx="55.94" ry="18"/>
<text text-anchor="middle" x="547.69" y="-265.32" font-family="Times,serif" font-size="14.00">gnuradio</text>
</a>
</g>
</g>
<!-- spdlog&#45;&gt;gnuradio -->
<g id="edge12" class="edge">
<title>spdlog&#45;&gt;gnuradio</title>
<path fill="none" stroke="black" d="M719.04,-467.77C724.22,-435.69 730.38,-366.25 696.69,-324 676.09,-298.17 641.94,-284.92 611.53,-278.12"/>
<polygon fill="black" stroke="black" points="612.45,-274.53 601.96,-275.97 611.06,-281.39 612.45,-274.53"/>
</g>
<!-- micromamba -->
<g id="node13" class="node">
<title>micromamba</title>
<g id="a_node13"><a xlink:href="https://github.com/conda-forge/micromamba-feedstock" xlink:title="micromamba">
<ellipse fill="#fde725" stroke="black" cx="1037.69" cy="-198" rx="76.46" ry="18"/>
<text text-anchor="middle" x="1037.69" y="-193.32" font-family="Times,serif" font-size="14.00">micromamba</text>
</a>
</g>
</g>
<!-- spdlog&#45;&gt;micromamba -->
<g id="edge13" class="edge">
<title>spdlog&#45;&gt;micromamba</title>
<path fill="none" stroke="black" d="M757.95,-480.13C816.87,-472.56 919.65,-456.27 947.69,-432 1009.77,-378.27 1029.25,-276.58 1035.19,-227.25"/>
<polygon fill="black" stroke="black" points="1038.76,-227.77 1036.37,-217.45 1031.8,-227.01 1038.76,-227.77"/>
</g>
<!-- gnuradio&#45;satellites -->
<g id="node14" class="node">
<title>gnuradio&#45;satellites</title>
<g id="a_node14"><a xlink:href="https://github.com/conda-forge/gnuradio-satellites-feedstock" xlink:title="gnuradio satellites">
<ellipse fill="#fde725" stroke="black" cx="421.69" cy="-198" rx="104.87" ry="18"/>
<text text-anchor="middle" x="421.69" y="-193.32" font-family="Times,serif" font-size="14.00">gnuradio satellites</text>
</a>
</g>
</g>
<!-- spdlog&#45;&gt;gnuradio&#45;satellites -->
<g id="edge14" class="edge">
<title>spdlog&#45;&gt;gnuradio&#45;satellites</title>
<path fill="none" stroke="black" d="M671.7,-482.41C572.47,-476.12 337.98,-458.57 314.69,-432 258.38,-367.76 346.61,-268.91 394.33,-223.43"/>
<polygon fill="black" stroke="black" points="396.26,-226.48 401.17,-217.09 391.48,-221.37 396.26,-226.48"/>
</g>
<!-- dartsim -->
<g id="node15" class="node">
<title>dartsim</title>
<g id="a_node15"><a xlink:href="https://github.com/conda-forge/dartsim-feedstock" xlink:title="dartsim">
<ellipse fill="#fde725" stroke="black" cx="933.69" cy="-126" rx="50.16" ry="18"/>
<text text-anchor="middle" x="933.69" y="-121.33" font-family="Times,serif" font-size="14.00">dartsim</text>
</a>
</g>
</g>
<!-- spdlog&#45;&gt;dartsim -->
<g id="edge15" class="edge">
<title>spdlog&#45;&gt;dartsim</title>
<path fill="none" stroke="black" d="M755.67,-477.8C818.61,-463.91 933.69,-427.01 933.69,-343 933.69,-343 933.69,-343 933.69,-269 933.69,-229.57 933.69,-183.97 933.69,-155.31"/>
<polygon fill="black" stroke="black" points="937.19,-155.49 933.69,-145.49 930.19,-155.49 937.19,-155.49"/>
</g>
<!-- bipedal&#45;locomotion&#45;framework -->
<g id="node16" class="node">
<title>bipedal&#45;locomotion&#45;framework</title>
<g id="a_node16"><a xlink:href="https://github.com/conda-forge/bipedal-locomotion-framework-feedstock" xlink:title="bipedal locomotion framework">
<ellipse fill="#fde725" stroke="black" cx="486.69" cy="-414" rx="163.27" ry="18"/>
<text text-anchor="middle" x="486.69" y="-409.32" font-family="Times,serif" font-size="14.00">bipedal locomotion framework</text>
</a>
</g>
</g>
<!-- spdlog&#45;&gt;bipedal&#45;locomotion&#45;framework -->
<g id="edge16" class="edge">
<title>spdlog&#45;&gt;bipedal&#45;locomotion&#45;framework</title>
<path fill="none" stroke="black" d="M680.91,-474.37C646.42,-463.83 592.77,-447.43 550.59,-434.53"/>
<polygon fill="black" stroke="black" points="551.72,-430.91 541.14,-431.34 549.68,-437.61 551.72,-430.91"/>
</g>
<!-- tip -->
<g id="node17" class="node">
<title>tip</title>
<g id="a_node17"><a xlink:href="https://github.com/conda-forge/tip-feedstock" xlink:title="tip">
<ellipse fill="#fde725" stroke="black" cx="660.69" cy="-342" rx="27" ry="18"/>
<text text-anchor="middle" x="660.69" y="-337.32" font-family="Times,serif" font-size="14.00">tip</text>
</a>
</g>
</g>
<!-- spdlog&#45;&gt;tip -->
<g id="edge17" class="edge">
<title>spdlog&#45;&gt;tip</title>
<path fill="none" stroke="black" d="M709.05,-467.87C699.63,-443.54 682.27,-398.73 671.12,-369.93"/>
<polygon fill="black" stroke="black" points="674.05,-368.81 667.17,-360.75 667.52,-371.34 674.05,-368.81"/>
</g>
<!-- arcticdb -->
<g id="node18" class="node">
<title>arcticdb</title>
<g id="a_node18"><a xlink:href="https://github.com/conda-forge/arcticdb-feedstock" xlink:title="arcticdb">
<ellipse fill="#fde725" stroke="black" cx="1084.69" cy="-414" rx="52.26" ry="18"/>
<text text-anchor="middle" x="1084.69" y="-409.32" font-family="Times,serif" font-size="14.00">arcticdb</text>
</a>
</g>
</g>
<!-- spdlog&#45;&gt;arcticdb -->
<g id="edge19" class="edge">
<title>spdlog&#45;&gt;arcticdb</title>
<path fill="none" stroke="black" d="M756.56,-478.9C814.96,-469.95 925.51,-452.12 1018.69,-432 1023.7,-430.92 1028.91,-429.71 1034.1,-428.46"/>
<polygon fill="black" stroke="black" points="1034.8,-431.65 1043.67,-425.85 1033.12,-424.85 1034.8,-431.65"/>
</g>
<!-- gnuradio&#45;&gt;gnuradio&#45;satellites -->
<g id="edge20" class="edge">
<title>gnuradio&#45;&gt;gnuradio&#45;satellites</title>
<path fill="none" stroke="black" d="M520.66,-253.98C503.34,-244.36 480.56,-231.71 461.23,-220.97"/>
<polygon fill="black" stroke="black" points="463.2,-217.51 452.76,-215.71 459.8,-223.62 463.2,-217.51"/>
</g>
<!-- ecole -->
<g id="node20" class="node">
<title>ecole</title>
<g id="a_node20"><a xlink:href="https://github.com/conda-forge/ecole-feedstock" xlink:title="ecole">
<ellipse fill="#35b779" stroke="black" cx="1304.69" cy="-306" rx="37" ry="18"/>
<text text-anchor="middle" x="1304.69" y="-301.32" font-family="Times,serif" font-size="14.00">ecole</text>
</a>
</g>
</g>
<!-- cantera&#45;&gt;ecole -->
<!-- xgems -->
<g id="node21" class="node">
<title>xgems</title>
<g id="a_node21"><a xlink:href="https://github.com/conda-forge/xgems-feedstock" xlink:title="xgems">
<ellipse fill="#35b779" stroke="black" cx="1304.69" cy="-234" rx="43.84" ry="18"/>
<text text-anchor="middle" x="1304.69" y="-229.32" font-family="Times,serif" font-size="14.00">xgems</text>
</a>
</g>
</g>
<!-- ecole&#45;&gt;xgems -->
<!-- precice -->
<g id="node22" class="node">
<title>precice</title>
<g id="a_node22"><a xlink:href="https://github.com/conda-forge/precice-feedstock" xlink:title="precice">
<ellipse fill="#35b779" stroke="black" cx="1304.69" cy="-162" rx="47.53" ry="18"/>
<text text-anchor="middle" x="1304.69" y="-157.32" font-family="Times,serif" font-size="14.00">precice</text>
</a>
</g>
</g>
<!-- xgems&#45;&gt;precice -->
<!-- heavydb&#45;ext -->
<g id="node27" class="node">
<title>heavydb&#45;ext</title>
<g id="a_node27"><a xlink:href="https://github.com/conda-forge/heavydb-ext-feedstock" xlink:title="heavydb ext">
<ellipse fill="#35b779" stroke="black" cx="1304.69" cy="-90" rx="72.25" ry="18"/>
<text text-anchor="middle" x="1304.69" y="-85.33" font-family="Times,serif" font-size="14.00">heavydb ext</text>
</a>
</g>
</g>
<!-- precice&#45;&gt;heavydb&#45;ext -->
<!-- folly -->
<g id="node23" class="node">
<title>folly</title>
<g id="a_node23"><a xlink:href="https://github.com/conda-forge/folly-feedstock" xlink:title="folly">
<ellipse fill="#35b779" stroke="black" cx="1134.69" cy="-486" rx="32.79" ry="18"/>
<text text-anchor="middle" x="1134.69" y="-481.32" font-family="Times,serif" font-size="14.00">folly</text>
</a>
</g>
</g>
<!-- folly&#45;&gt;arcticdb -->
<g id="edge25" class="edge">
<title>folly&#45;&gt;arcticdb</title>
<path fill="none" stroke="black" d="M1123.09,-468.76C1117.06,-460.32 1109.54,-449.8 1102.77,-440.31"/>
<polygon fill="black" stroke="black" points="1105.23,-438.74 1096.57,-432.63 1099.53,-442.81 1105.23,-438.74"/>
</g>
<!-- hdk -->
<g id="node24" class="node">
<title>hdk</title>
<g id="a_node24"><a xlink:href="https://github.com/conda-forge/hdk-feedstock" xlink:title="hdk">
<ellipse fill="#fde725" stroke="black" cx="1184.69" cy="-414" rx="29.64" ry="18"/>
<text text-anchor="middle" x="1184.69" y="-409.32" font-family="Times,serif" font-size="14.00">hdk</text>
</a>
</g>
</g>
<!-- folly&#45;&gt;hdk -->
<g id="edge26" class="edge">
<title>folly&#45;&gt;hdk</title>
<path fill="none" stroke="black" d="M1146.28,-468.76C1152.49,-460.07 1160.27,-449.19 1167.19,-439.49"/>
<polygon fill="black" stroke="black" points="1170.53,-441.84 1173.5,-431.67 1164.84,-437.77 1170.53,-441.84"/>
</g>
<!-- intervalxt -->
<g id="node25" class="node">
<title>intervalxt</title>
<g id="a_node25"><a xlink:href="https://github.com/conda-forge/intervalxt-feedstock" xlink:title="intervalxt">
<ellipse fill="#35b779" stroke="black" cx="1454.69" cy="-342" rx="60.15" ry="18"/>
<text text-anchor="middle" x="1454.69" y="-337.32" font-family="Times,serif" font-size="14.00">intervalxt</text>
</a>
</g>
</g>
<!-- flatsurf -->
<g id="node26" class="node">
<title>flatsurf</title>
<g id="a_node26"><a xlink:href="https://github.com/conda-forge/flatsurf-feedstock" xlink:title="flatsurf">
<ellipse fill="#fde725" stroke="black" cx="1454.69" cy="-270" rx="47.53" ry="18"/>
<text text-anchor="middle" x="1454.69" y="-265.32" font-family="Times,serif" font-size="14.00">flatsurf</text>
</a>
</g>
</g>
<!-- intervalxt&#45;&gt;flatsurf -->
<g id="edge27" class="edge">
<title>intervalxt&#45;&gt;flatsurf</title>
<path fill="none" stroke="black" d="M1454.69,-323.7C1454.69,-316.24 1454.69,-307.32 1454.69,-298.97"/>
<polygon fill="black" stroke="black" points="1458.19,-299.1 1454.69,-289.1 1451.19,-299.1 1458.19,-299.1"/>
</g>
<!-- samurai -->
<g id="node28" class="node">
<title>samurai</title>
<g id="a_node28"><a xlink:href="https://github.com/conda-forge/samurai-feedstock" xlink:title="samurai">
<ellipse fill="#35b779" stroke="black" cx="1304.69" cy="-18" rx="51.74" ry="18"/>
<text text-anchor="middle" x="1304.69" y="-13.32" font-family="Times,serif" font-size="14.00">samurai</text>
</a>
</g>
</g>
<!-- heavydb&#45;ext&#45;&gt;samurai -->
</g>
</svg>
