<?xml version="1.0" encoding="UTF-8" standalone="no"?>
<!DOCTYPE svg PUBLIC "-//W3C//DTD SVG 1.1//EN"
 "http://www.w3.org/Graphics/SVG/1.1/DTD/svg11.dtd">
<!-- Generated by graphviz version 2.49.1 (20211004.0028)
 -->
<!-- Pages: 1 -->
<svg width="1461pt" height="404pt"
 viewBox="0.00 0.00 1460.50 404.00" xmlns="http://www.w3.org/2000/svg" xmlns:xlink="http://www.w3.org/1999/xlink">
<g id="graph0" class="graph" transform="scale(1 1) rotate(0) translate(4 400)">
<polygon fill="white" stroke="transparent" points="-4,4 -4,-400 1456.5,-400 1456.5,4 -4,4"/>
<!-- mppp -->
<g id="node1" class="node">
<title>mppp</title>
<g id="a_node1"><a xlink:href="https://github.com/conda-forge/mppp-feedstock/pull/51" xlink:title="mppp ❎">
<ellipse fill="#31688e" stroke="black" cx="105.5" cy="-378" rx="51.5" ry="18"/>
<text text-anchor="middle" x="105.5" y="-374.3" font-family="Times,serif" font-size="14.00" fill="white">mppp ❎</text>
</a>
</g>
</g>
<!-- obake -->
<g id="node2" class="node">
<title>obake</title>
<g id="a_node2"><a xlink:href="https://github.com/conda-forge/obake-feedstock" xlink:title="obake">
<ellipse fill="#fde725" stroke="black" cx="38.5" cy="-306" rx="38.5" ry="18"/>
<text text-anchor="middle" x="38.5" y="-302.3" font-family="Times,serif" font-size="14.00">obake</text>
</a>
</g>
</g>
<!-- mppp&#45;&gt;obake -->
<g id="edge1" class="edge">
<title>mppp&#45;&gt;obake</title>
<path fill="none" stroke="black" d="M89.96,-360.76C81.21,-351.62 70.14,-340.06 60.51,-330"/>
<polygon fill="black" stroke="black" points="62.94,-327.47 53.49,-322.67 57.88,-332.31 62.94,-327.47"/>
</g>
<!-- heyoka -->
<g id="node3" class="node">
<title>heyoka</title>
<g id="a_node3"><a xlink:href="https://github.com/conda-forge/heyoka-feedstock" xlink:title="heyoka">
<ellipse fill="#fde725" stroke="black" cx="177.5" cy="-306" rx="43.59" ry="18"/>
<text text-anchor="middle" x="177.5" y="-302.3" font-family="Times,serif" font-size="14.00">heyoka</text>
</a>
</g>
</g>
<!-- mppp&#45;&gt;heyoka -->
<g id="edge2" class="edge">
<title>mppp&#45;&gt;heyoka</title>
<path fill="none" stroke="black" d="M122.2,-360.76C131.56,-351.66 143.39,-340.16 153.71,-330.13"/>
<polygon fill="black" stroke="black" points="156.16,-332.63 160.89,-323.15 151.28,-327.61 156.16,-332.63"/>
</g>
<!-- heyoka.py -->
<g id="node4" class="node">
<title>heyoka.py</title>
<g id="a_node4"><a xlink:href="https://github.com/conda-forge/heyoka.py-feedstock" xlink:title="heyoka py">
<ellipse fill="#fde725" stroke="black" cx="115.5" cy="-234" rx="58" ry="18"/>
<text text-anchor="middle" x="115.5" y="-230.3" font-family="Times,serif" font-size="14.00">heyoka py</text>
</a>
</g>
</g>
<!-- mppp&#45;&gt;heyoka.py -->
<g id="edge3" class="edge">
<title>mppp&#45;&gt;heyoka.py</title>
<path fill="none" stroke="black" d="M106.71,-359.87C108.41,-335.67 111.54,-291.21 113.57,-262.39"/>
<polygon fill="black" stroke="black" points="117.08,-262.41 114.29,-252.19 110.1,-261.92 117.08,-262.41"/>
</g>
<!-- heyoka&#45;&gt;heyoka.py -->
<g id="edge4" class="edge">
<title>heyoka&#45;&gt;heyoka.py</title>
<path fill="none" stroke="black" d="M163.12,-288.76C155.33,-279.97 145.55,-268.93 136.88,-259.14"/>
<polygon fill="black" stroke="black" points="139.48,-256.8 130.23,-251.63 134.24,-261.44 139.48,-256.8"/>
</g>
<!-- cascade -->
<g id="node5" class="node">
<title>cascade</title>
<g id="a_node5"><a xlink:href="https://github.com/conda-forge/cascade-feedstock" xlink:title="cascade">
<ellipse fill="#fde725" stroke="black" cx="201.5" cy="-162" rx="47.5" ry="18"/>
<text text-anchor="middle" x="201.5" y="-158.3" font-family="Times,serif" font-size="14.00">cascade</text>
</a>
</g>
</g>
<!-- heyoka&#45;&gt;cascade -->
<g id="edge5" class="edge">
<title>heyoka&#45;&gt;cascade</title>
<path fill="none" stroke="black" d="M180.39,-287.87C184.49,-263.67 192,-219.21 196.87,-190.39"/>
<polygon fill="black" stroke="black" points="200.38,-190.63 198.59,-180.19 193.48,-189.47 200.38,-190.63"/>
</g>
<!-- heyoka.py&#45;&gt;cascade -->
<g id="edge6" class="edge">
<title>heyoka.py&#45;&gt;cascade</title>
<path fill="none" stroke="black" d="M135.45,-216.76C147.01,-207.36 161.72,-195.38 174.33,-185.12"/>
<polygon fill="black" stroke="black" points="176.71,-187.69 182.25,-178.67 172.29,-182.26 176.71,-187.69"/>
</g>
<!-- spdlog -->
<g id="node6" class="node">
<title>spdlog</title>
<g id="a_node6"><a xlink:href="https://github.com/conda-forge/spdlog-feedstock/pull/55" xlink:title="spdlog ❎">
<ellipse fill="#31688e" stroke="black" cx="685.5" cy="-378" rx="56" ry="18"/>
<text text-anchor="middle" x="685.5" y="-374.3" font-family="Times,serif" font-size="14.00" fill="white">spdlog ❎</text>
</a>
</g>
</g>
<!-- spdlog&#45;&gt;heyoka -->
<g id="edge7" class="edge">
<title>spdlog&#45;&gt;heyoka</title>
<path fill="none" stroke="black" d="M631,-373.55C545.9,-367.49 376.55,-352.77 235.5,-324 230.68,-323.02 225.67,-321.82 220.72,-320.53"/>
<polygon fill="black" stroke="black" points="221.26,-317.05 210.69,-317.77 219.4,-323.8 221.26,-317.05"/>
</g>
<!-- spdlog&#45;&gt;cascade -->
<g id="edge16" class="edge">
<title>spdlog&#45;&gt;cascade</title>
<path fill="none" stroke="black" d="M629.61,-376.42C530.38,-374.34 328.71,-365.03 273.5,-324 229.88,-291.59 212.14,-226.73 205.36,-190"/>
<polygon fill="black" stroke="black" points="208.78,-189.27 203.65,-180 201.88,-190.45 208.78,-189.27"/>
</g>
<!-- mamba -->
<g id="node7" class="node">
<title>mamba</title>
<g id="a_node7"><a xlink:href="https://github.com/conda-forge/mamba-feedstock" xlink:title="mamba">
<ellipse fill="#fde725" stroke="black" cx="758.5" cy="-306" rx="45" ry="18"/>
<text text-anchor="middle" x="758.5" y="-302.3" font-family="Times,serif" font-size="14.00">mamba</text>
</a>
</g>
</g>
<!-- spdlog&#45;&gt;mamba -->
<g id="edge8" class="edge">
<title>spdlog&#45;&gt;mamba</title>
<path fill="none" stroke="black" d="M702.43,-360.76C711.99,-351.6 724.09,-340 734.6,-329.92"/>
<polygon fill="black" stroke="black" points="737.12,-332.35 741.91,-322.91 732.27,-327.3 737.12,-332.35"/>
</g>
<!-- vowpalwabbit -->
<g id="node8" class="node">
<title>vowpalwabbit</title>
<g id="a_node8"><a xlink:href="https://github.com/conda-forge/vowpalwabbit-feedstock" xlink:title="vowpalwabbit">
<ellipse fill="#fde725" stroke="black" cx="789.5" cy="-234" rx="75.5" ry="18"/>
<text text-anchor="middle" x="789.5" y="-230.3" font-family="Times,serif" font-size="14.00">vowpalwabbit</text>
</a>
</g>
</g>
<!-- spdlog&#45;&gt;vowpalwabbit -->
<g id="edge9" class="edge">
<title>spdlog&#45;&gt;vowpalwabbit</title>
<path fill="none" stroke="black" d="M735.64,-369.75C763.3,-362.91 795.41,-349.65 812.5,-324 825.07,-305.14 816.61,-279.82 806.59,-261.01"/>
<polygon fill="black" stroke="black" points="809.49,-259.02 801.48,-252.09 803.42,-262.51 809.49,-259.02"/>
</g>
<!-- gnuradio -->
<g id="node9" class="node">
<title>gnuradio</title>
<g id="a_node9"><a xlink:href="https://github.com/conda-forge/gnuradio-feedstock" xlink:title="gnuradio">
<ellipse fill="#fde725" stroke="black" cx="586.5" cy="-162" rx="52" ry="18"/>
<text text-anchor="middle" x="586.5" y="-158.3" font-family="Times,serif" font-size="14.00">gnuradio</text>
</a>
</g>
</g>
<!-- spdlog&#45;&gt;gnuradio -->
<g id="edge10" class="edge">
<title>spdlog&#45;&gt;gnuradio</title>
<path fill="none" stroke="black" d="M687.9,-359.99C691.38,-328.87 694.67,-261.79 666.5,-216 657.39,-201.19 642.42,-189.65 627.87,-181.17"/>
<polygon fill="black" stroke="black" points="629.38,-178.01 618.93,-176.29 626.03,-184.15 629.38,-178.01"/>
</g>
<!-- micromamba -->
<g id="node10" class="node">
<title>micromamba</title>
<g id="a_node10"><a xlink:href="https://github.com/conda-forge/micromamba-feedstock" xlink:title="micromamba">
<ellipse fill="#fde725" stroke="black" cx="993.5" cy="-90" rx="71.5" ry="18"/>
<text text-anchor="middle" x="993.5" y="-86.3" font-family="Times,serif" font-size="14.00">micromamba</text>
</a>
</g>
</g>
<!-- spdlog&#45;&gt;micromamba -->
<g id="edge11" class="edge">
<title>spdlog&#45;&gt;micromamba</title>
<path fill="none" stroke="black" d="M736.57,-370.46C793.99,-362.16 882.49,-346.19 907.5,-324 968.97,-269.46 986.58,-166.99 991.56,-118.18"/>
<polygon fill="black" stroke="black" points="995.06,-118.35 992.49,-108.07 988.09,-117.71 995.06,-118.35"/>
</g>
<!-- gnuradio&#45;satellites -->
<g id="node11" class="node">
<title>gnuradio&#45;satellites</title>
<g id="a_node11"><a xlink:href="https://github.com/conda-forge/gnuradio-satellites-feedstock" xlink:title="gnuradio satellites">
<ellipse fill="#fde725" stroke="black" cx="387.5" cy="-90" rx="97.5" ry="18"/>
<text text-anchor="middle" x="387.5" y="-86.3" font-family="Times,serif" font-size="14.00">gnuradio satellites</text>
</a>
</g>
</g>
<!-- spdlog&#45;&gt;gnuradio&#45;satellites -->
<g id="edge12" class="edge">
<title>spdlog&#45;&gt;gnuradio&#45;satellites</title>
<path fill="none" stroke="black" d="M629.44,-377.72C534.55,-377.61 348.54,-371.19 307.5,-324 253.49,-261.89 325.89,-161.49 365.17,-115.47"/>
<polygon fill="black" stroke="black" points="367.93,-117.63 371.85,-107.79 362.65,-113.03 367.93,-117.63"/>
</g>
<!-- dartsim -->
<g id="node12" class="node">
<title>dartsim</title>
<g id="a_node12"><a xlink:href="https://github.com/conda-forge/dartsim-feedstock" xlink:title="dartsim">
<ellipse fill="#fde725" stroke="black" cx="893.5" cy="-18" rx="47" ry="18"/>
<text text-anchor="middle" x="893.5" y="-14.3" font-family="Times,serif" font-size="14.00">dartsim</text>
</a>
</g>
</g>
<!-- spdlog&#45;&gt;dartsim -->
<g id="edge13" class="edge">
<title>spdlog&#45;&gt;dartsim</title>
<path fill="none" stroke="black" d="M730.89,-367.36C792.09,-351.4 893.5,-313.16 893.5,-235 893.5,-235 893.5,-235 893.5,-161 893.5,-121 893.5,-74.65 893.5,-46.08"/>
<polygon fill="black" stroke="black" points="897,-46.05 893.5,-36.05 890,-46.05 897,-46.05"/>
</g>
<!-- bipedal&#45;locomotion&#45;framework -->
<g id="node13" class="node">
<title>bipedal&#45;locomotion&#45;framework</title>
<g id="a_node13"><a xlink:href="https://github.com/conda-forge/bipedal-locomotion-framework-feedstock" xlink:title="bipedal locomotion framework">
<ellipse fill="#fde725" stroke="black" cx="467.5" cy="-306" rx="151.5" ry="18"/>
<text text-anchor="middle" x="467.5" y="-302.3" font-family="Times,serif" font-size="14.00">bipedal locomotion framework</text>
</a>
</g>
</g>
<!-- spdlog&#45;&gt;bipedal&#45;locomotion&#45;framework -->
<g id="edge14" class="edge">
<title>spdlog&#45;&gt;bipedal&#45;locomotion&#45;framework</title>
<path fill="none" stroke="black" d="M647.28,-364.73C614.21,-354.11 565.83,-338.57 527.59,-326.29"/>
<polygon fill="black" stroke="black" points="528.19,-322.81 517.59,-323.09 526.05,-329.48 528.19,-322.81"/>
</g>
<!-- tip -->
<g id="node14" class="node">
<title>tip</title>
<g id="a_node14"><a xlink:href="https://github.com/conda-forge/tip-feedstock" xlink:title="tip">
<ellipse fill="#fde725" stroke="black" cx="630.5" cy="-234" rx="27" ry="18"/>
<text text-anchor="middle" x="630.5" y="-230.3" font-family="Times,serif" font-size="14.00">tip</text>
</a>
</g>
</g>
<!-- spdlog&#45;&gt;tip -->
<g id="edge15" class="edge">
<title>spdlog&#45;&gt;tip</title>
<path fill="none" stroke="black" d="M678.87,-359.87C669.36,-335.33 651.78,-289.94 640.64,-261.17"/>
<polygon fill="black" stroke="black" points="643.86,-259.81 636.99,-251.75 637.34,-262.34 643.86,-259.81"/>
</g>
<!-- arcticdb -->
<g id="node15" class="node">
<title>arcticdb</title>
<g id="a_node15"><a xlink:href="https://github.com/conda-forge/arcticdb-feedstock" xlink:title="arcticdb">
<ellipse fill="#fde725" stroke="black" cx="1039.5" cy="-306" rx="48.99" ry="18"/>
<text text-anchor="middle" x="1039.5" y="-302.3" font-family="Times,serif" font-size="14.00">arcticdb</text>
</a>
</g>
</g>
<!-- spdlog&#45;&gt;arcticdb -->
<g id="edge17" class="edge">
<title>spdlog&#45;&gt;arcticdb</title>
<path fill="none" stroke="black" d="M734.67,-369.33C792.73,-359.98 892.09,-343.04 976.5,-324 981.55,-322.86 986.81,-321.59 992.03,-320.26"/>
<polygon fill="black" stroke="black" points="993.19,-323.58 1001.98,-317.67 991.42,-316.8 993.19,-323.58"/>
</g>
<!-- gnuradio&#45;&gt;gnuradio&#45;satellites -->
<g id="edge18" class="edge">
<title>gnuradio&#45;&gt;gnuradio&#45;satellites</title>
<path fill="none" stroke="black" d="M551.38,-148.65C520.58,-137.81 475.35,-121.9 440.21,-109.54"/>
<polygon fill="black" stroke="black" points="441.18,-106.17 430.59,-106.16 438.86,-112.78 441.18,-106.17"/>
</g>
<!-- cantera -->
<g id="node16" class="node">
<title>cantera</title>
<g id="a_node16"><a xlink:href="https://github.com/conda-forge/cantera-feedstock/pull/26" xlink:title="cantera ❎">
<ellipse fill="#31688e" stroke="black" cx="1251.5" cy="-270" rx="60" ry="18"/>
<text text-anchor="middle" x="1251.5" y="-266.3" font-family="Times,serif" font-size="14.00" fill="white">cantera ❎</text>
</a>
</g>
</g>
<!-- xgems -->
<g id="node17" class="node">
<title>xgems</title>
<g id="a_node17"><a xlink:href="https://github.com/conda-forge/xgems-feedstock" xlink:title="xgems">
<ellipse fill="#ff8c00" stroke="black" cx="1251.5" cy="-198" rx="41" ry="18"/>
<text text-anchor="middle" x="1251.5" y="-194.3" font-family="Times,serif" font-size="14.00">xgems</text>
</a>
</g>
</g>
<!-- cantera&#45;&gt;xgems -->
<!-- heavydb&#45;ext -->
<g id="node18" class="node">
<title>heavydb&#45;ext</title>
<g id="a_node18"><a xlink:href="https://github.com/conda-forge/heavydb-ext-feedstock/pull/48" xlink:title="heavydb ext ❎">
<ellipse fill="#31688e" stroke="black" cx="1251.5" cy="-126" rx="81.49" ry="18"/>
<text text-anchor="middle" x="1251.5" y="-122.3" font-family="Times,serif" font-size="14.00" fill="white">heavydb ext ❎</text>
</a>
</g>
</g>
<!-- xgems&#45;&gt;heavydb&#45;ext -->
<!-- folly -->
<g id="node19" class="node">
<title>folly</title>
<g id="a_node19"><a xlink:href="https://github.com/conda-forge/folly-feedstock/pull/114" xlink:title="folly ❎">
<ellipse fill="#31688e" stroke="black" cx="1086.5" cy="-378" rx="45" ry="18"/>
<text text-anchor="middle" x="1086.5" y="-374.3" font-family="Times,serif" font-size="14.00" fill="white">folly ❎</text>
</a>
</g>
</g>
<!-- folly&#45;&gt;arcticdb -->
<g id="edge21" class="edge">
<title>folly&#45;&gt;arcticdb</title>
<path fill="none" stroke="black" d="M1075.36,-360.41C1069.77,-352.08 1062.86,-341.8 1056.61,-332.49"/>
<polygon fill="black" stroke="black" points="1059.37,-330.31 1050.88,-323.96 1053.55,-334.21 1059.37,-330.31"/>
</g>
<!-- hdk -->
<g id="node20" class="node">
<title>hdk</title>
<g id="a_node20"><a xlink:href="https://github.com/conda-forge/hdk-feedstock" xlink:title="hdk">
<ellipse fill="#fde725" stroke="black" cx="1134.5" cy="-306" rx="28" ry="18"/>
<text text-anchor="middle" x="1134.5" y="-302.3" font-family="Times,serif" font-size="14.00">hdk</text>
</a>
</g>
</g>
<!-- folly&#45;&gt;hdk -->
<g id="edge22" class="edge">
<title>folly&#45;&gt;hdk</title>
<path fill="none" stroke="black" d="M1097.88,-360.41C1103.82,-351.74 1111.21,-340.97 1117.79,-331.38"/>
<polygon fill="black" stroke="black" points="1120.77,-333.21 1123.54,-322.99 1114.99,-329.26 1120.77,-333.21"/>
</g>
<!-- intervalxt -->
<g id="node21" class="node">
<title>intervalxt</title>
<g id="a_node21"><a xlink:href="https://github.com/conda-forge/intervalxt-feedstock" xlink:title="intervalxt">
<ellipse fill="#ff8c00" stroke="black" cx="1396.5" cy="-234" rx="56" ry="18"/>
<text text-anchor="middle" x="1396.5" y="-230.3" font-family="Times,serif" font-size="14.00">intervalxt</text>
</a>
</g>
</g>
<!-- flatsurf -->
<g id="node22" class="node">
<title>flatsurf</title>
<g id="a_node22"><a xlink:href="https://github.com/conda-forge/flatsurf-feedstock" xlink:title="flatsurf">
<ellipse fill="#fde725" stroke="black" cx="1396.5" cy="-162" rx="44.39" ry="18"/>
<text text-anchor="middle" x="1396.5" y="-158.3" font-family="Times,serif" font-size="14.00">flatsurf</text>
</a>
</g>
</g>
<!-- intervalxt&#45;&gt;flatsurf -->
<g id="edge23" class="edge">
<title>intervalxt&#45;&gt;flatsurf</title>
<path fill="none" stroke="black" d="M1396.5,-215.7C1396.5,-207.98 1396.5,-198.71 1396.5,-190.11"/>
<polygon fill="black" stroke="black" points="1400,-190.1 1396.5,-180.1 1393,-190.1 1400,-190.1"/>
</g>
</g>
</svg>
