<?xml version="1.0" encoding="UTF-8" standalone="no"?>
<!DOCTYPE svg PUBLIC "-//W3C//DTD SVG 1.1//EN"
 "http://www.w3.org/Graphics/SVG/1.1/DTD/svg11.dtd">
<!-- Generated by graphviz version 8.0.5 (20230506.1012)
 -->
<!-- Pages: 1 -->
<svg width="1534pt" height="404pt"
 viewBox="0.00 0.00 1533.84 404.00" xmlns="http://www.w3.org/2000/svg" xmlns:xlink="http://www.w3.org/1999/xlink">
<g id="graph0" class="graph" transform="scale(1 1) rotate(0) translate(4 400)">
<polygon fill="white" stroke="none" points="-4,4 -4,-400 1529.84,-400 1529.84,4 -4,4"/>
<!-- mppp -->
<g id="node1" class="node">
<title>mppp</title>
<g id="a_node1"><a xlink:href="https://github.com/conda-forge/mppp-feedstock/pull/51" xlink:title="mppp ❎">
<ellipse fill="#31688e" stroke="black" cx="109.69" cy="-378" rx="54.89" ry="18"/>
<text text-anchor="middle" x="109.69" y="-373.32" font-family="Times,serif" font-size="14.00" fill="white">mppp ❎</text>
</a>
</g>
</g>
<!-- obake -->
<g id="node2" class="node">
<title>obake</title>
<g id="a_node2"><a xlink:href="https://github.com/conda-forge/obake-feedstock" xlink:title="obake">
<ellipse fill="#fde725" stroke="black" cx="40.69" cy="-306" rx="40.69" ry="18"/>
<text text-anchor="middle" x="40.69" y="-301.32" font-family="Times,serif" font-size="14.00">obake</text>
</a>
</g>
</g>
<!-- mppp&#45;&gt;obake -->
<g id="edge1" class="edge">
<title>mppp&#45;&gt;obake</title>
<path fill="none" stroke="black" d="M93.34,-360.41C84.62,-351.57 73.74,-340.53 64.14,-330.79"/>
<polygon fill="black" stroke="black" points="66.96,-328.65 57.45,-323.99 61.97,-333.57 66.96,-328.65"/>
</g>
<!-- heyoka -->
<g id="node3" class="node">
<title>heyoka</title>
<g id="a_node3"><a xlink:href="https://github.com/conda-forge/heyoka-feedstock" xlink:title="heyoka">
<ellipse fill="#fde725" stroke="black" cx="183.69" cy="-306" rx="46.47" ry="18"/>
<text text-anchor="middle" x="183.69" y="-301.32" font-family="Times,serif" font-size="14.00">heyoka</text>
</a>
</g>
</g>
<!-- mppp&#45;&gt;heyoka -->
<g id="edge2" class="edge">
<title>mppp&#45;&gt;heyoka</title>
<path fill="none" stroke="black" d="M126.85,-360.76C136.38,-351.75 148.39,-340.39 158.92,-330.43"/>
<polygon fill="black" stroke="black" points="160.76,-333.56 165.62,-324.15 155.95,-328.48 160.76,-333.56"/>
</g>
<!-- heyoka.py -->
<g id="node4" class="node">
<title>heyoka.py</title>
<g id="a_node4"><a xlink:href="https://github.com/conda-forge/heyoka.py-feedstock" xlink:title="heyoka py">
<ellipse fill="#fde725" stroke="black" cx="118.69" cy="-234" rx="61.73" ry="18"/>
<text text-anchor="middle" x="118.69" y="-229.32" font-family="Times,serif" font-size="14.00">heyoka py</text>
</a>
</g>
</g>
<!-- mppp&#45;&gt;heyoka.py -->
<g id="edge3" class="edge">
<title>mppp&#45;&gt;heyoka.py</title>
<path fill="none" stroke="black" d="M110.79,-359.59C112.32,-335.5 115.09,-291.75 116.91,-263.03"/>
<polygon fill="black" stroke="black" points="120.46,-263.31 117.6,-253.11 113.48,-262.87 120.46,-263.31"/>
</g>
<!-- heyoka&#45;&gt;heyoka.py -->
<g id="edge4" class="edge">
<title>heyoka&#45;&gt;heyoka.py</title>
<path fill="none" stroke="black" d="M168.61,-288.76C160.52,-280.06 150.39,-269.15 141.38,-259.43"/>
<polygon fill="black" stroke="black" points="144.5,-257.58 135.13,-252.63 139.37,-262.34 144.5,-257.58"/>
</g>
<!-- cascade -->
<g id="node5" class="node">
<title>cascade</title>
<g id="a_node5"><a xlink:href="https://github.com/conda-forge/cascade-feedstock" xlink:title="cascade">
<ellipse fill="#fde725" stroke="black" cx="208.69" cy="-162" rx="50.68" ry="18"/>
<text text-anchor="middle" x="208.69" y="-157.32" font-family="Times,serif" font-size="14.00">cascade</text>
</a>
</g>
</g>
<!-- heyoka&#45;&gt;cascade -->
<g id="edge5" class="edge">
<title>heyoka&#45;&gt;cascade</title>
<path fill="none" stroke="black" d="M186.75,-287.59C191.01,-263.4 198.76,-219.36 203.82,-190.65"/>
<polygon fill="black" stroke="black" points="207.39,-191.57 205.67,-181.11 200.49,-190.35 207.39,-191.57"/>
</g>
<!-- heyoka.py&#45;&gt;cascade -->
<g id="edge6" class="edge">
<title>heyoka.py&#45;&gt;cascade</title>
<path fill="none" stroke="black" d="M139.56,-216.76C151.46,-207.51 166.55,-195.77 179.6,-185.63"/>
<polygon fill="black" stroke="black" points="181.49,-187.81 187.24,-178.91 177.19,-182.28 181.49,-187.81"/>
</g>
<!-- spdlog -->
<g id="node6" class="node">
<title>spdlog</title>
<g id="a_node6"><a xlink:href="https://github.com/conda-forge/spdlog-feedstock/pull/55" xlink:title="spdlog ❎">
<ellipse fill="#31688e" stroke="black" cx="715.69" cy="-378" rx="59.63" ry="18"/>
<text text-anchor="middle" x="715.69" y="-373.32" font-family="Times,serif" font-size="14.00" fill="white">spdlog ❎</text>
</a>
</g>
</g>
<!-- spdlog&#45;&gt;heyoka -->
<g id="edge7" class="edge">
<title>spdlog&#45;&gt;heyoka</title>
<path fill="none" stroke="black" d="M657.45,-373.55C567.87,-367.55 391.15,-352.97 243.69,-324 239.02,-323.08 234.19,-321.98 229.38,-320.78"/>
<polygon fill="black" stroke="black" points="230.55,-317.21 219.99,-318.04 228.77,-323.98 230.55,-317.21"/>
</g>
<!-- spdlog&#45;&gt;cascade -->
<g id="edge16" class="edge">
<title>spdlog&#45;&gt;cascade</title>
<path fill="none" stroke="black" d="M656.03,-376.76C551.28,-375.22 339.89,-366.73 281.69,-324 238.08,-291.98 219.92,-227.73 212.83,-190.81"/>
<polygon fill="black" stroke="black" points="216.16,-190.53 210.97,-181.29 209.27,-191.75 216.16,-190.53"/>
</g>
<!-- mamba -->
<g id="node7" class="node">
<title>mamba</title>
<g id="a_node7"><a xlink:href="https://github.com/conda-forge/mamba-feedstock" xlink:title="mamba">
<ellipse fill="#fde725" stroke="black" cx="791.69" cy="-306" rx="48.05" ry="18"/>
<text text-anchor="middle" x="791.69" y="-301.32" font-family="Times,serif" font-size="14.00">mamba</text>
</a>
</g>
</g>
<!-- spdlog&#45;&gt;mamba -->
<g id="edge8" class="edge">
<title>spdlog&#45;&gt;mamba</title>
<path fill="none" stroke="black" d="M733.7,-360.41C743.42,-351.45 755.59,-340.25 766.26,-330.42"/>
<polygon fill="black" stroke="black" points="768.08,-333.58 773.07,-324.23 763.34,-328.43 768.08,-333.58"/>
</g>
<!-- vowpalwabbit -->
<g id="node8" class="node">
<title>vowpalwabbit</title>
<g id="a_node8"><a xlink:href="https://github.com/conda-forge/vowpalwabbit-feedstock" xlink:title="vowpalwabbit">
<ellipse fill="#fde725" stroke="black" cx="824.69" cy="-234" rx="80.67" ry="18"/>
<text text-anchor="middle" x="824.69" y="-229.32" font-family="Times,serif" font-size="14.00">vowpalwabbit</text>
</a>
</g>
</g>
<!-- spdlog&#45;&gt;vowpalwabbit -->
<g id="edge9" class="edge">
<title>spdlog&#45;&gt;vowpalwabbit</title>
<path fill="none" stroke="black" d="M769.81,-370.01C798.36,-363.27 831.04,-350.03 848.69,-324 861.32,-305.36 852.82,-280.32 842.59,-261.55"/>
<polygon fill="black" stroke="black" points="845.12,-259.95 837.03,-253.11 839.09,-263.5 845.12,-259.95"/>
</g>
<!-- gnuradio -->
<g id="node9" class="node">
<title>gnuradio</title>
<g id="a_node9"><a xlink:href="https://github.com/conda-forge/gnuradio-feedstock" xlink:title="gnuradio">
<ellipse fill="#fde725" stroke="black" cx="547.69" cy="-162" rx="55.94" ry="18"/>
<text text-anchor="middle" x="547.69" y="-157.32" font-family="Times,serif" font-size="14.00">gnuradio</text>
</a>
</g>
</g>
<!-- spdlog&#45;&gt;gnuradio -->
<g id="edge10" class="edge">
<title>spdlog&#45;&gt;gnuradio</title>
<path fill="none" stroke="black" d="M719.04,-359.77C724.22,-327.69 730.38,-258.25 696.69,-216 676.09,-190.17 641.94,-176.92 611.53,-170.12"/>
<polygon fill="black" stroke="black" points="612.45,-166.53 601.96,-167.97 611.06,-173.39 612.45,-166.53"/>
</g>
<!-- micromamba -->
<g id="node10" class="node">
<title>micromamba</title>
<g id="a_node10"><a xlink:href="https://github.com/conda-forge/micromamba-feedstock" xlink:title="micromamba">
<ellipse fill="#fde725" stroke="black" cx="1037.69" cy="-90" rx="76.46" ry="18"/>
<text text-anchor="middle" x="1037.69" y="-85.33" font-family="Times,serif" font-size="14.00">micromamba</text>
</a>
</g>
</g>
<!-- spdlog&#45;&gt;micromamba -->
<g id="edge11" class="edge">
<title>spdlog&#45;&gt;micromamba</title>
<path fill="none" stroke="black" d="M770.58,-370.46C830.55,-362.3 921.56,-346.61 947.69,-324 1009.77,-270.27 1029.25,-168.58 1035.19,-119.25"/>
<polygon fill="black" stroke="black" points="1038.76,-119.77 1036.37,-109.45 1031.8,-119.01 1038.76,-119.77"/>
</g>
<!-- gnuradio&#45;satellites -->
<g id="node11" class="node">
<title>gnuradio&#45;satellites</title>
<g id="a_node11"><a xlink:href="https://github.com/conda-forge/gnuradio-satellites-feedstock" xlink:title="gnuradio satellites">
<ellipse fill="#fde725" stroke="black" cx="421.69" cy="-90" rx="104.87" ry="18"/>
<text text-anchor="middle" x="421.69" y="-85.33" font-family="Times,serif" font-size="14.00">gnuradio satellites</text>
</a>
</g>
</g>
<!-- spdlog&#45;&gt;gnuradio&#45;satellites -->
<g id="edge12" class="edge">
<title>spdlog&#45;&gt;gnuradio&#45;satellites</title>
<path fill="none" stroke="black" d="M657.61,-373.5C551.92,-366.53 336.93,-349.38 314.69,-324 258.38,-259.76 346.61,-160.91 394.33,-115.43"/>
<polygon fill="black" stroke="black" points="396.26,-118.48 401.17,-109.09 391.48,-113.37 396.26,-118.48"/>
</g>
<!-- dartsim -->
<g id="node12" class="node">
<title>dartsim</title>
<g id="a_node12"><a xlink:href="https://github.com/conda-forge/dartsim-feedstock" xlink:title="dartsim">
<ellipse fill="#fde725" stroke="black" cx="933.69" cy="-18" rx="50.16" ry="18"/>
<text text-anchor="middle" x="933.69" y="-13.32" font-family="Times,serif" font-size="14.00">dartsim</text>
</a>
</g>
</g>
<!-- spdlog&#45;&gt;dartsim -->
<g id="edge13" class="edge">
<title>spdlog&#45;&gt;dartsim</title>
<path fill="none" stroke="black" d="M765.15,-367.62C829.47,-352.22 933.69,-314.95 933.69,-235 933.69,-235 933.69,-235 933.69,-161 933.69,-121.57 933.69,-75.97 933.69,-47.31"/>
<polygon fill="black" stroke="black" points="937.19,-47.49 933.69,-37.49 930.19,-47.49 937.19,-47.49"/>
</g>
<!-- bipedal&#45;locomotion&#45;framework -->
<g id="node13" class="node">
<title>bipedal&#45;locomotion&#45;framework</title>
<g id="a_node13"><a xlink:href="https://github.com/conda-forge/bipedal-locomotion-framework-feedstock" xlink:title="bipedal locomotion framework">
<ellipse fill="#fde725" stroke="black" cx="486.69" cy="-306" rx="163.27" ry="18"/>
<text text-anchor="middle" x="486.69" y="-301.32" font-family="Times,serif" font-size="14.00">bipedal locomotion framework</text>
</a>
</g>
</g>
<!-- spdlog&#45;&gt;bipedal&#45;locomotion&#45;framework -->
<g id="edge14" class="edge">
<title>spdlog&#45;&gt;bipedal&#45;locomotion&#45;framework</title>
<path fill="none" stroke="black" d="M674.75,-364.49C640.26,-353.94 590.34,-338.68 550.6,-326.54"/>
<polygon fill="black" stroke="black" points="551.79,-322.94 541.21,-323.36 549.75,-329.63 551.79,-322.94"/>
</g>
<!-- tip -->
<g id="node14" class="node">
<title>tip</title>
<g id="a_node14"><a xlink:href="https://github.com/conda-forge/tip-feedstock" xlink:title="tip">
<ellipse fill="#fde725" stroke="black" cx="660.69" cy="-234" rx="27" ry="18"/>
<text text-anchor="middle" x="660.69" y="-229.32" font-family="Times,serif" font-size="14.00">tip</text>
</a>
</g>
</g>
<!-- spdlog&#45;&gt;tip -->
<g id="edge15" class="edge">
<title>spdlog&#45;&gt;tip</title>
<path fill="none" stroke="black" d="M709.05,-359.87C699.63,-335.54 682.27,-290.73 671.12,-261.93"/>
<polygon fill="black" stroke="black" points="674.05,-260.81 667.17,-252.75 667.52,-263.34 674.05,-260.81"/>
</g>
<!-- arcticdb -->
<g id="node15" class="node">
<title>arcticdb</title>
<g id="a_node15"><a xlink:href="https://github.com/conda-forge/arcticdb-feedstock" xlink:title="arcticdb">
<ellipse fill="#fde725" stroke="black" cx="1084.69" cy="-306" rx="52.26" ry="18"/>
<text text-anchor="middle" x="1084.69" y="-301.32" font-family="Times,serif" font-size="14.00">arcticdb</text>
</a>
</g>
</g>
<!-- spdlog&#45;&gt;arcticdb -->
<g id="edge17" class="edge">
<title>spdlog&#45;&gt;arcticdb</title>
<path fill="none" stroke="black" d="M768.21,-369.1C828.82,-359.69 931.38,-342.85 1018.69,-324 1023.7,-322.92 1028.91,-321.71 1034.1,-320.46"/>
<polygon fill="black" stroke="black" points="1034.8,-323.65 1043.67,-317.85 1033.12,-316.85 1034.8,-323.65"/>
</g>
<!-- gnuradio&#45;&gt;gnuradio&#45;satellites -->
<g id="edge18" class="edge">
<title>gnuradio&#45;&gt;gnuradio&#45;satellites</title>
<path fill="none" stroke="black" d="M520.66,-145.98C503.34,-136.36 480.56,-123.71 461.23,-112.97"/>
<polygon fill="black" stroke="black" points="463.2,-109.51 452.76,-107.71 459.8,-115.62 463.2,-109.51"/>
</g>
<!-- cantera -->
<g id="node16" class="node">
<title>cantera</title>
<g id="a_node16"><a xlink:href="https://github.com/conda-forge/cantera-feedstock/pull/26" xlink:title="cantera ❎">
<ellipse fill="#31688e" stroke="black" cx="1309.69" cy="-270" rx="64.36" ry="18"/>
<text text-anchor="middle" x="1309.69" y="-265.32" font-family="Times,serif" font-size="14.00" fill="white">cantera ❎</text>
</a>
</g>
</g>
<!-- xgems -->
<g id="node17" class="node">
<title>xgems</title>
<g id="a_node17"><a xlink:href="https://github.com/conda-forge/xgems-feedstock" xlink:title="xgems">
<ellipse fill="#ff8c00" stroke="black" cx="1309.69" cy="-198" rx="43.84" ry="18"/>
<text text-anchor="middle" x="1309.69" y="-193.32" font-family="Times,serif" font-size="14.00">xgems</text>
</a>
</g>
</g>
<!-- cantera&#45;&gt;xgems -->
<!-- heavydb&#45;ext -->
<g id="node18" class="node">
<title>heavydb&#45;ext</title>
<g id="a_node18"><a xlink:href="https://github.com/conda-forge/heavydb-ext-feedstock/pull/48" xlink:title="heavydb ext ❎">
<ellipse fill="#31688e" stroke="black" cx="1309.69" cy="-126" rx="87.51" ry="18"/>
<text text-anchor="middle" x="1309.69" y="-121.33" font-family="Times,serif" font-size="14.00" fill="white">heavydb ext ❎</text>
</a>
</g>
</g>
<!-- xgems&#45;&gt;heavydb&#45;ext -->
<!-- folly -->
<g id="node19" class="node">
<title>folly</title>
<g id="a_node19"><a xlink:href="https://github.com/conda-forge/folly-feedstock/pull/114" xlink:title="folly ❎">
<ellipse fill="#31688e" stroke="black" cx="1134.69" cy="-378" rx="48.05" ry="18"/>
<text text-anchor="middle" x="1134.69" y="-373.32" font-family="Times,serif" font-size="14.00" fill="white">folly ❎</text>
</a>
</g>
</g>
<!-- folly&#45;&gt;arcticdb -->
<g id="edge21" class="edge">
<title>folly&#45;&gt;arcticdb</title>
<path fill="none" stroke="black" d="M1122.84,-360.41C1116.95,-352.16 1109.69,-342.01 1103.1,-332.78"/>
<polygon fill="black" stroke="black" points="1105.46,-331.06 1096.8,-324.96 1099.76,-335.13 1105.46,-331.06"/>
</g>
<!-- hdk -->
<g id="node20" class="node">
<title>hdk</title>
<g id="a_node20"><a xlink:href="https://github.com/conda-forge/hdk-feedstock" xlink:title="hdk">
<ellipse fill="#fde725" stroke="black" cx="1184.69" cy="-306" rx="29.64" ry="18"/>
<text text-anchor="middle" x="1184.69" y="-301.32" font-family="Times,serif" font-size="14.00">hdk</text>
</a>
</g>
</g>
<!-- folly&#45;&gt;hdk -->
<g id="edge22" class="edge">
<title>folly&#45;&gt;hdk</title>
<path fill="none" stroke="black" d="M1146.54,-360.41C1152.66,-351.83 1160.27,-341.19 1167.07,-331.67"/>
<polygon fill="black" stroke="black" points="1170.3,-334.16 1173.27,-323.99 1164.61,-330.09 1170.3,-334.16"/>
</g>
<!-- intervalxt -->
<g id="node21" class="node">
<title>intervalxt</title>
<g id="a_node21"><a xlink:href="https://github.com/conda-forge/intervalxt-feedstock" xlink:title="intervalxt">
<ellipse fill="#ff8c00" stroke="black" cx="1465.69" cy="-234" rx="60.15" ry="18"/>
<text text-anchor="middle" x="1465.69" y="-229.32" font-family="Times,serif" font-size="14.00">intervalxt</text>
</a>
</g>
</g>
<!-- flatsurf -->
<g id="node22" class="node">
<title>flatsurf</title>
<g id="a_node22"><a xlink:href="https://github.com/conda-forge/flatsurf-feedstock" xlink:title="flatsurf">
<ellipse fill="#fde725" stroke="black" cx="1465.69" cy="-162" rx="47.53" ry="18"/>
<text text-anchor="middle" x="1465.69" y="-157.32" font-family="Times,serif" font-size="14.00">flatsurf</text>
</a>
</g>
</g>
<!-- intervalxt&#45;&gt;flatsurf -->
<g id="edge23" class="edge">
<title>intervalxt&#45;&gt;flatsurf</title>
<path fill="none" stroke="black" d="M1465.69,-215.7C1465.69,-208.24 1465.69,-199.32 1465.69,-190.97"/>
<polygon fill="black" stroke="black" points="1469.19,-191.1 1465.69,-181.1 1462.19,-191.1 1469.19,-191.1"/>
</g>
</g>
</svg>
