<?xml version="1.0" encoding="UTF-8" standalone="no"?>
<!DOCTYPE svg PUBLIC "-//W3C//DTD SVG 1.1//EN"
 "http://www.w3.org/Graphics/SVG/1.1/DTD/svg11.dtd">
<!-- Generated by graphviz version 9.0.0 (20231125.0833)
 -->
<!-- Pages: 1 -->
<svg width="375pt" height="260pt"
 viewBox="0.00 0.00 375.05 260.00" xmlns="http://www.w3.org/2000/svg" xmlns:xlink="http://www.w3.org/1999/xlink">
<g id="graph0" class="graph" transform="scale(1 1) rotate(0) translate(4 256)">
<polygon fill="white" stroke="none" points="-4,4 -4,-256 371.05,-256 371.05,4 -4,4"/>
<!-- dcap -->
<g id="node1" class="node">
<title>dcap</title>
<g id="a_node1"><a xlink:href="https://github.com/conda-forge/dcap-feedstock/pull/15" xlink:title="dcap ❎">
<ellipse fill="#31688e" stroke="black" cx="50.16" cy="-162" rx="50.16" ry="18"/>
<text text-anchor="middle" x="50.16" y="-157.32" font-family="Times,serif" font-size="14.00" fill="white">dcap ❎</text>
</a>
</g>
</g>
<!-- gfal2 -->
<g id="node4" class="node">
<title>gfal2</title>
<g id="a_node4"><a xlink:href="https://github.com/conda-forge/gfal2-feedstock" xlink:title="gfal2">
<ellipse fill="#fde725" stroke="black" cx="110.16" cy="-90" rx="36.48" ry="18"/>
<text text-anchor="middle" x="110.16" y="-85.33" font-family="Times,serif" font-size="14.00">gfal2</text>
</a>
</g>
</g>
<!-- dcap&#45;&gt;gfal2 -->
<g id="edge1" class="edge">
<title>dcap&#45;&gt;gfal2</title>
<path fill="none" stroke="black" d="M64.37,-144.41C71.73,-135.83 80.85,-125.19 89.01,-115.67"/>
<polygon fill="black" stroke="black" points="91.62,-118.01 95.47,-108.14 86.3,-113.45 91.62,-118.01"/>
</g>
<!-- cgsi&#45;gsoap -->
<g id="node2" class="node">
<title>cgsi&#45;gsoap</title>
<g id="a_node2"><a xlink:href="https://github.com/conda-forge/cgsi-gsoap-feedstock/pull/13" xlink:title="cgsi gsoap ❎">
<ellipse fill="#31688e" stroke="black" cx="170.16" cy="-234" rx="79.09" ry="18"/>
<text text-anchor="middle" x="170.16" y="-229.32" font-family="Times,serif" font-size="14.00" fill="white">cgsi gsoap ❎</text>
</a>
</g>
</g>
<!-- srm&#45;ifce -->
<g id="node3" class="node">
<title>srm&#45;ifce</title>
<g id="a_node3"><a xlink:href="https://github.com/conda-forge/srm-ifce-feedstock" xlink:title="srm ifce">
<ellipse fill="#fde725" stroke="black" cx="170.16" cy="-162" rx="51.73" ry="18"/>
<text text-anchor="middle" x="170.16" y="-157.32" font-family="Times,serif" font-size="14.00">srm ifce</text>
</a>
</g>
</g>
<!-- cgsi&#45;gsoap&#45;&gt;srm&#45;ifce -->
<g id="edge2" class="edge">
<title>cgsi&#45;gsoap&#45;&gt;srm&#45;ifce</title>
<path fill="none" stroke="black" d="M170.16,-215.7C170.16,-208.41 170.16,-199.73 170.16,-191.54"/>
<polygon fill="black" stroke="black" points="173.66,-191.62 170.16,-181.62 166.66,-191.62 173.66,-191.62"/>
</g>
<!-- srm&#45;ifce&#45;&gt;gfal2 -->
<g id="edge3" class="edge">
<title>srm&#45;ifce&#45;&gt;gfal2</title>
<path fill="none" stroke="black" d="M155.94,-144.41C148.58,-135.83 139.46,-125.19 131.3,-115.67"/>
<polygon fill="black" stroke="black" points="134.01,-113.45 124.84,-108.14 128.7,-118.01 134.01,-113.45"/>
</g>
<!-- nordugrid&#45;arc -->
<g id="node5" class="node">
<title>nordugrid&#45;arc</title>
<g id="a_node5"><a xlink:href="https://github.com/conda-forge/nordugrid-arc-feedstock" xlink:title="nordugrid arc">
<ellipse fill="#fde725" stroke="black" cx="110.16" cy="-18" rx="80.14" ry="18"/>
<text text-anchor="middle" x="110.16" y="-13.32" font-family="Times,serif" font-size="14.00">nordugrid arc</text>
</a>
</g>
</g>
<!-- gfal2&#45;&gt;nordugrid&#45;arc -->
<g id="edge4" class="edge">
<title>gfal2&#45;&gt;nordugrid&#45;arc</title>
<path fill="none" stroke="black" d="M110.16,-71.7C110.16,-64.41 110.16,-55.73 110.16,-47.54"/>
<polygon fill="black" stroke="black" points="113.66,-47.62 110.16,-37.62 106.66,-47.62 113.66,-47.62"/>
</g>
<!-- myproxy -->
<g id="node6" class="node">
<title>myproxy</title>
<g id="a_node6"><a xlink:href="https://github.com/conda-forge/myproxy-feedstock" xlink:title="myproxy">
<ellipse fill="#35b779" stroke="black" cx="312.16" cy="-126" rx="54.89" ry="18"/>
<text text-anchor="middle" x="312.16" y="-121.33" font-family="Times,serif" font-size="14.00">myproxy</text>
</a>
</g>
</g>
</g>
</svg>
