<?xml version="1.0" encoding="UTF-8" standalone="no"?>
<!DOCTYPE svg PUBLIC "-//W3C//DTD SVG 1.1//EN"
 "http://www.w3.org/Graphics/SVG/1.1/DTD/svg11.dtd">
<!-- Generated by graphviz version 7.1.0 (20230122.1345)
 -->
<!-- Pages: 1 -->
<svg width="920pt" height="376pt"
 viewBox="0.00 0.00 920.24 376.00" xmlns="http://www.w3.org/2000/svg" xmlns:xlink="http://www.w3.org/1999/xlink">
<g id="graph0" class="graph" transform="scale(1 1) rotate(0) translate(4 372)">
<polygon fill="white" stroke="none" points="-4,4 -4,-372 916.24,-372 916.24,4 -4,4"/>
<!-- basemap -->
<g id="node1" class="node">
<title>basemap</title>
<g id="a_node1"><a xlink:href="https://github.com/conda-forge/basemap-feedstock/pull/113" xlink:title="basemap ✓">
<ellipse fill="#31688e" stroke="black" cx="742.55" cy="-206" rx="59.59" ry="18"/>
<text text-anchor="middle" x="742.55" y="-202.3" font-family="Times,serif" font-size="14.00" fill="white">basemap ✓</text>
</a>
</g>
</g>
<!-- cartopy -->
<g id="node2" class="node">
<title>cartopy</title>
<g id="a_node2"><a xlink:href="https://github.com/conda-forge/cartopy-feedstock" xlink:title="cartopy">
<ellipse fill="#35b779" stroke="black" cx="337.55" cy="-18" rx="46.29" ry="18"/>
<text text-anchor="middle" x="337.55" y="-14.3" font-family="Times,serif" font-size="14.00">cartopy</text>
</a>
</g>
</g>
<!-- gdal -->
<g id="node3" class="node">
<title>gdal</title>
<g id="a_node3"><a xlink:href="https://github.com/conda-forge/gdal-feedstock" xlink:title="gdal">
<ellipse fill="#fde725" stroke="black" cx="235.55" cy="-206" rx="30.59" ry="18"/>
<text text-anchor="middle" x="235.55" y="-202.3" font-family="Times,serif" font-size="14.00">gdal</text>
</a>
</g>
</g>
<!-- gmt -->
<g id="node4" class="node">
<title>gmt</title>
<g id="a_node4"><a xlink:href="https://github.com/conda-forge/gmt-feedstock" xlink:title="gmt">
<ellipse fill="#fde725" stroke="black" cx="108.55" cy="-134" rx="29.5" ry="18"/>
<text text-anchor="middle" x="108.55" y="-130.3" font-family="Times,serif" font-size="14.00">gmt</text>
</a>
</g>
</g>
<!-- gdal&#45;&gt;gmt -->
<g id="edge1" class="edge">
<title>gdal&#45;&gt;gmt</title>
<path fill="none" stroke="black" d="M213.72,-192.97C193.3,-181.71 162.59,-164.79 139.62,-152.13"/>
<polygon fill="black" stroke="black" points="141.45,-149.14 131,-147.37 138.07,-155.27 141.45,-149.14"/>
</g>
<!-- postgis -->
<g id="node6" class="node">
<title>postgis</title>
<g id="a_node6"><a xlink:href="https://github.com/conda-forge/postgis-feedstock" xlink:title="postgis">
<ellipse fill="#fde725" stroke="black" cx="199.55" cy="-134" rx="44.39" ry="18"/>
<text text-anchor="middle" x="199.55" y="-130.3" font-family="Times,serif" font-size="14.00">postgis</text>
</a>
</g>
</g>
<!-- gdal&#45;&gt;postgis -->
<g id="edge4" class="edge">
<title>gdal&#45;&gt;postgis</title>
<path fill="none" stroke="black" d="M227.02,-188.41C222.95,-180.51 217.99,-170.85 213.4,-161.94"/>
<polygon fill="black" stroke="black" points="216.65,-160.59 208.96,-153.3 210.42,-163.8 216.65,-160.59"/>
</g>
<!-- qgis -->
<g id="node7" class="node">
<title>qgis</title>
<g id="a_node7"><a xlink:href="https://github.com/conda-forge/qgis-feedstock" xlink:title="qgis">
<ellipse fill="#fde725" stroke="black" cx="30.55" cy="-134" rx="30.59" ry="18"/>
<text text-anchor="middle" x="30.55" y="-130.3" font-family="Times,serif" font-size="14.00">qgis</text>
</a>
</g>
</g>
<!-- gdal&#45;&gt;qgis -->
<g id="edge5" class="edge">
<title>gdal&#45;&gt;qgis</title>
<path fill="none" stroke="black" d="M208.42,-197.12C175.52,-187.36 118.48,-169.84 70.55,-152 68.75,-151.33 66.91,-150.63 65.06,-149.9"/>
<polygon fill="black" stroke="black" points="66.5,-146.71 55.92,-146.18 63.86,-153.19 66.5,-146.71"/>
</g>
<!-- r&#45;exactextractr -->
<g id="node9" class="node">
<title>r&#45;exactextractr</title>
<g id="a_node9"><a xlink:href="https://github.com/conda-forge/r-exactextractr-feedstock" xlink:title="r exactextractr">
<ellipse fill="#fde725" stroke="black" cx="306.55" cy="-62" rx="80.69" ry="18"/>
<text text-anchor="middle" x="306.55" y="-58.3" font-family="Times,serif" font-size="14.00">r exactextractr</text>
</a>
</g>
</g>
<!-- gdal&#45;&gt;r&#45;exactextractr -->
<g id="edge7" class="edge">
<title>gdal&#45;&gt;r&#45;exactextractr</title>
<path fill="none" stroke="black" d="M243.83,-188.43C255.83,-164.43 278.21,-119.68 292.73,-90.64"/>
<polygon fill="black" stroke="black" points="295.86,-92.21 297.2,-81.7 289.59,-89.08 295.86,-92.21"/>
</g>
<!-- r&#45;terra -->
<g id="node11" class="node">
<title>r&#45;terra</title>
<g id="a_node11"><a xlink:href="https://github.com/conda-forge/r-terra-feedstock" xlink:title="r terra">
<ellipse fill="#fde725" stroke="black" cx="341.55" cy="-134" rx="41.69" ry="18"/>
<text text-anchor="middle" x="341.55" y="-130.3" font-family="Times,serif" font-size="14.00">r terra</text>
</a>
</g>
</g>
<!-- gdal&#45;&gt;r&#45;terra -->
<g id="edge6" class="edge">
<title>gdal&#45;&gt;r&#45;terra</title>
<path fill="none" stroke="black" d="M255.49,-191.83C270.87,-181.68 292.44,-167.43 310.13,-155.74"/>
<polygon fill="black" stroke="black" points="311.82,-158.82 318.24,-150.39 307.97,-152.98 311.82,-158.82"/>
</g>
<!-- mapserver -->
<g id="node12" class="node">
<title>mapserver</title>
<g id="a_node12"><a xlink:href="https://github.com/conda-forge/mapserver-feedstock" xlink:title="mapserver">
<ellipse fill="#fde725" stroke="black" cx="461.55" cy="-134" rx="60.39" ry="18"/>
<text text-anchor="middle" x="461.55" y="-130.3" font-family="Times,serif" font-size="14.00">mapserver</text>
</a>
</g>
</g>
<!-- gdal&#45;&gt;mapserver -->
<g id="edge3" class="edge">
<title>gdal&#45;&gt;mapserver</title>
<path fill="none" stroke="black" d="M262.36,-196.7C298.55,-185.49 363.76,-165.29 409.69,-151.06"/>
<polygon fill="black" stroke="black" points="410.67,-154.42 419.19,-148.12 408.6,-147.74 410.67,-154.42"/>
</g>
<!-- heavydb&#45;ext -->
<g id="node13" class="node">
<title>heavydb&#45;ext</title>
<g id="a_node13"><a xlink:href="https://github.com/conda-forge/heavydb-ext-feedstock" xlink:title="heavydb ext">
<ellipse fill="#35b779" stroke="black" cx="607.55" cy="-134" rx="67.69" ry="18"/>
<text text-anchor="middle" x="607.55" y="-130.3" font-family="Times,serif" font-size="14.00">heavydb ext</text>
</a>
</g>
</g>
<!-- gdal&#45;&gt;heavydb&#45;ext -->
<g id="edge2" class="edge">
<title>gdal&#45;&gt;heavydb&#45;ext</title>
<path fill="none" stroke="black" d="M264.93,-200.12C318.06,-191.2 433.6,-171.4 530.55,-152 535.73,-150.96 541.1,-149.85 546.48,-148.71"/>
<polygon fill="black" stroke="black" points="546.97,-152.19 556.01,-146.67 545.5,-145.34 546.97,-152.19"/>
</g>
<!-- libspatialite -->
<g id="node5" class="node">
<title>libspatialite</title>
<g id="a_node5"><a xlink:href="https://github.com/conda-forge/libspatialite-feedstock" xlink:title="libspatialite">
<ellipse fill="#fde725" stroke="black" cx="150.55" cy="-278" rx="65.79" ry="18"/>
<text text-anchor="middle" x="150.55" y="-274.3" font-family="Times,serif" font-size="14.00">libspatialite</text>
</a>
</g>
</g>
<!-- libspatialite&#45;&gt;gdal -->
<g id="edge8" class="edge">
<title>libspatialite&#45;&gt;gdal</title>
<path fill="none" stroke="black" d="M170.69,-260.41C182.38,-250.78 197.23,-238.55 209.77,-228.23"/>
<polygon fill="black" stroke="black" points="211.75,-231.13 217.25,-222.07 207.3,-225.73 211.75,-231.13"/>
</g>
<!-- libspatialite&#45;&gt;qgis -->
<g id="edge9" class="edge">
<title>libspatialite&#45;&gt;qgis</title>
<path fill="none" stroke="black" d="M136.31,-260.15C115.13,-235.1 75.24,-187.88 50.96,-159.15"/>
<polygon fill="black" stroke="black" points="53.77,-157.06 44.64,-151.68 48.42,-161.58 53.77,-157.06"/>
</g>
<!-- pygeos -->
<g id="node8" class="node">
<title>pygeos</title>
<g id="a_node8"><a xlink:href="https://github.com/conda-forge/pygeos-feedstock/pull/58" xlink:title="pygeos ✓">
<ellipse fill="#31688e" stroke="black" cx="861.55" cy="-206" rx="50.89" ry="18"/>
<text text-anchor="middle" x="861.55" y="-202.3" font-family="Times,serif" font-size="14.00" fill="white">pygeos ✓</text>
</a>
</g>
</g>
<!-- librttopo -->
<g id="node10" class="node">
<title>librttopo</title>
<g id="a_node10"><a xlink:href="https://github.com/conda-forge/librttopo-feedstock/pull/16" xlink:title="librttopo ✓">
<ellipse fill="#31688e" stroke="black" cx="150.55" cy="-350" rx="58.49" ry="18"/>
<text text-anchor="middle" x="150.55" y="-346.3" font-family="Times,serif" font-size="14.00" fill="white">librttopo ✓</text>
</a>
</g>
</g>
<!-- librttopo&#45;&gt;libspatialite -->
<g id="edge10" class="edge">
<title>librttopo&#45;&gt;libspatialite</title>
<path fill="none" stroke="black" d="M150.55,-331.7C150.55,-324.41 150.55,-315.73 150.55,-307.54"/>
<polygon fill="black" stroke="black" points="154.05,-307.62 150.55,-297.62 147.05,-307.62 154.05,-307.62"/>
</g>
<!-- r&#45;terra&#45;&gt;r&#45;exactextractr -->
<g id="edge11" class="edge">
<title>r&#45;terra&#45;&gt;r&#45;exactextractr</title>
<path fill="none" stroke="black" d="M333.07,-116.05C329.22,-108.35 324.56,-99.03 320.23,-90.36"/>
<polygon fill="black" stroke="black" points="323.46,-89.01 315.86,-81.63 317.2,-92.14 323.46,-89.01"/>
</g>
</g>
</svg>
