<?xml version="1.0" encoding="UTF-8" standalone="no"?>
<!DOCTYPE svg PUBLIC "-//W3C//DTD SVG 1.1//EN"
 "http://www.w3.org/Graphics/SVG/1.1/DTD/svg11.dtd">
<!-- Generated by graphviz version 8.0.5 (20230506.1012)
 -->
<!-- Pages: 1 -->
<svg width="367pt" height="116pt"
 viewBox="0.00 0.00 366.97 116.00" xmlns="http://www.w3.org/2000/svg" xmlns:xlink="http://www.w3.org/1999/xlink">
<g id="graph0" class="graph" transform="scale(1 1) rotate(0) translate(4 112)">
<polygon fill="white" stroke="none" points="-4,4 -4,-112 362.97,-112 362.97,4 -4,4"/>
<!-- r&#45;sf -->
<g id="node1" class="node">
<title>r&#45;sf</title>
<g id="a_node1"><a xlink:href="https://github.com/conda-forge/r-sf-feedstock" xlink:title="r sf">
<ellipse fill="#35b779" stroke="black" cx="41.46" cy="-90" rx="28.06" ry="18"/>
<text text-anchor="middle" x="41.46" y="-85.33" font-family="Times,serif" font-size="14.00">r sf</text>
</a>
</g>
</g>
<!-- r&#45;exactextractr -->
<g id="node2" class="node">
<title>r&#45;exactextractr</title>
<g id="a_node2"><a xlink:href="https://github.com/conda-forge/r-exactextractr-feedstock" xlink:title="r exactextractr">
<ellipse fill="#fde725" stroke="black" cx="86.46" cy="-18" rx="86.46" ry="18"/>
<text text-anchor="middle" x="86.46" y="-13.32" font-family="Times,serif" font-size="14.00">r exactextractr</text>
</a>
</g>
</g>
<!-- r&#45;sf&#45;&gt;r&#45;exactextractr -->
<g id="edge1" class="edge">
<title>r&#45;sf&#45;&gt;r&#45;exactextractr</title>
<path fill="none" stroke="black" d="M51.67,-73.12C56.96,-64.89 63.56,-54.62 69.58,-45.26"/>
<polygon fill="black" stroke="black" points="72.88,-47.6 75.34,-37.29 66.99,-43.81 72.88,-47.6"/>
</g>
<!-- r&#45;terra -->
<g id="node3" class="node">
<title>r&#45;terra</title>
<g id="a_node3"><a xlink:href="https://github.com/conda-forge/r-terra-feedstock" xlink:title="r terra">
<ellipse fill="#ff8c00" stroke="black" cx="131.46" cy="-90" rx="44.37" ry="18"/>
<text text-anchor="middle" x="131.46" y="-85.33" font-family="Times,serif" font-size="14.00">r terra</text>
</a>
</g>
</g>
<!-- r&#45;terra&#45;&gt;r&#45;exactextractr -->
<g id="edge2" class="edge">
<title>r&#45;terra&#45;&gt;r&#45;exactextractr</title>
<path fill="none" stroke="black" d="M120.56,-72.05C115.44,-64.09 109.22,-54.41 103.5,-45.51"/>
<polygon fill="black" stroke="black" points="105.91,-43.79 97.56,-37.28 100.03,-47.58 105.91,-43.79"/>
</g>
<!-- heavydb&#45;ext -->
<g id="node4" class="node">
<title>heavydb&#45;ext</title>
<g id="a_node4"><a xlink:href="https://github.com/conda-forge/heavydb-ext-feedstock/pull/44" xlink:title="heavydb ext ❎">
<ellipse fill="#31688e" stroke="black" cx="271.46" cy="-54" rx="87.51" ry="18"/>
<text text-anchor="middle" x="271.46" y="-49.33" font-family="Times,serif" font-size="14.00" fill="white">heavydb ext ❎</text>
</a>
</g>
</g>
</g>
</svg>
