<?xml version="1.0" encoding="UTF-8" standalone="no"?>
<!DOCTYPE svg PUBLIC "-//W3C//DTD SVG 1.1//EN"
 "http://www.w3.org/Graphics/SVG/1.1/DTD/svg11.dtd">
<!-- Generated by graphviz version 8.0.5 (20230506.1012)
 -->
<!-- Pages: 1 -->
<svg width="390pt" height="116pt"
 viewBox="0.00 0.00 389.97 116.00" xmlns="http://www.w3.org/2000/svg" xmlns:xlink="http://www.w3.org/1999/xlink">
<g id="graph0" class="graph" transform="scale(1 1) rotate(0) translate(4 112)">
<polygon fill="white" stroke="none" points="-4,4 -4,-112 385.97,-112 385.97,4 -4,4"/>
<!-- r&#45;sf -->
<g id="node1" class="node">
<title>r&#45;sf</title>
<g id="a_node1"><a xlink:href="https://github.com/conda-forge/r-sf-feedstock" xlink:title="r sf">
<ellipse fill="#ff8c00" stroke="black" cx="33.46" cy="-90" rx="28.06" ry="18"/>
<text text-anchor="middle" x="33.46" y="-85.33" font-family="Times,serif" font-size="14.00">r sf</text>
</a>
</g>
</g>
<!-- r&#45;exactextractr -->
<g id="node2" class="node">
<title>r&#45;exactextractr</title>
<g id="a_node2"><a xlink:href="https://github.com/conda-forge/r-exactextractr-feedstock" xlink:title="r exactextractr">
<ellipse fill="#fde725" stroke="black" cx="86.46" cy="-18" rx="86.46" ry="18"/>
<text text-anchor="middle" x="86.46" y="-13.32" font-family="Times,serif" font-size="14.00">r exactextractr</text>
</a>
</g>
</g>
<!-- r&#45;sf&#45;&gt;r&#45;exactextractr -->
<g id="edge1" class="edge">
<title>r&#45;sf&#45;&gt;r&#45;exactextractr</title>
<path fill="none" stroke="black" d="M45.22,-73.46C51.66,-64.95 59.81,-54.19 67.16,-44.48"/>
<polygon fill="black" stroke="black" points="70.37,-47.05 73.61,-36.96 64.79,-42.82 70.37,-47.05"/>
</g>
<!-- r&#45;terra -->
<g id="node3" class="node">
<title>r&#45;terra</title>
<g id="a_node3"><a xlink:href="https://github.com/conda-forge/r-terra-feedstock/pull/69" xlink:title="r terra ❎">
<ellipse fill="#31688e" stroke="black" cx="139.46" cy="-90" rx="59.63" ry="18"/>
<text text-anchor="middle" x="139.46" y="-85.33" font-family="Times,serif" font-size="14.00" fill="white">r terra ❎</text>
</a>
</g>
</g>
<!-- r&#45;terra&#45;&gt;r&#45;exactextractr -->
<g id="edge2" class="edge">
<title>r&#45;terra&#45;&gt;r&#45;exactextractr</title>
<path fill="none" stroke="black" d="M126.63,-72.05C120.47,-63.92 112.96,-54 106.1,-44.94"/>
<polygon fill="black" stroke="black" points="108.36,-43.14 99.54,-37.28 102.78,-47.36 108.36,-43.14"/>
</g>
<!-- heavydb&#45;ext -->
<g id="node4" class="node">
<title>heavydb&#45;ext</title>
<g id="a_node4"><a xlink:href="https://github.com/conda-forge/heavydb-ext-feedstock/pull/44" xlink:title="heavydb ext ❎">
<ellipse fill="#31688e" stroke="black" cx="294.46" cy="-54" rx="87.51" ry="18"/>
<text text-anchor="middle" x="294.46" y="-49.33" font-family="Times,serif" font-size="14.00" fill="white">heavydb ext ❎</text>
</a>
</g>
</g>
</g>
</svg>
