<?xml version="1.0" encoding="UTF-8" standalone="no"?>
<!DOCTYPE svg PUBLIC "-//W3C//DTD SVG 1.1//EN"
 "http://www.w3.org/Graphics/SVG/1.1/DTD/svg11.dtd">
<!-- Generated by graphviz version 7.1.0 (20230122.1345)
 -->
<!-- Pages: 1 -->
<svg width="839pt" height="188pt"
 viewBox="0.00 0.00 839.04 188.00" xmlns="http://www.w3.org/2000/svg" xmlns:xlink="http://www.w3.org/1999/xlink">
<g id="graph0" class="graph" transform="scale(1 1) rotate(0) translate(4 184)">
<polygon fill="white" stroke="none" points="-4,4 -4,-184 835.04,-184 835.04,4 -4,4"/>
<!-- basemap -->
<g id="node1" class="node">
<title>basemap</title>
<g id="a_node1"><a xlink:href="https://github.com/conda-forge/basemap-feedstock/pull/113" xlink:title="basemap ✓">
<ellipse fill="#31688e" stroke="black" cx="771.25" cy="-90" rx="59.59" ry="18"/>
<text text-anchor="middle" x="771.25" y="-86.3" font-family="Times,serif" font-size="14.00" fill="white">basemap ✓</text>
</a>
</g>
</g>
<!-- gdal -->
<g id="node2" class="node">
<title>gdal</title>
<g id="a_node2"><a xlink:href="https://github.com/conda-forge/gdal-feedstock/pull/742" xlink:title="gdal ✓">
<ellipse fill="#31688e" stroke="black" cx="272.25" cy="-162" rx="38.19" ry="18"/>
<text text-anchor="middle" x="272.25" y="-158.3" font-family="Times,serif" font-size="14.00" fill="white">gdal ✓</text>
</a>
</g>
</g>
<!-- gmt -->
<g id="node3" class="node">
<title>gmt</title>
<g id="a_node3"><a xlink:href="https://github.com/conda-forge/gmt-feedstock" xlink:title="gmt">
<ellipse fill="#fde725" stroke="black" cx="29.25" cy="-90" rx="29.5" ry="18"/>
<text text-anchor="middle" x="29.25" y="-86.3" font-family="Times,serif" font-size="14.00">gmt</text>
</a>
</g>
</g>
<!-- gdal&#45;&gt;gmt -->
<g id="edge1" class="edge">
<title>gdal&#45;&gt;gmt</title>
<path fill="none" stroke="black" d="M237.63,-153.91C196.44,-145.05 125.88,-128.53 67.25,-108 65.67,-107.45 64.07,-106.86 62.46,-106.24"/>
<polygon fill="black" stroke="black" points="63.88,-103.04 53.3,-102.46 61.21,-109.51 63.88,-103.04"/>
</g>
<!-- postgis -->
<g id="node4" class="node">
<title>postgis</title>
<g id="a_node4"><a xlink:href="https://github.com/conda-forge/postgis-feedstock" xlink:title="postgis">
<ellipse fill="#fde725" stroke="black" cx="120.25" cy="-90" rx="44.39" ry="18"/>
<text text-anchor="middle" x="120.25" y="-86.3" font-family="Times,serif" font-size="14.00">postgis</text>
</a>
</g>
</g>
<!-- gdal&#45;&gt;postgis -->
<g id="edge4" class="edge">
<title>gdal&#45;&gt;postgis</title>
<path fill="none" stroke="black" d="M245.77,-148.81C221.82,-137.78 186.24,-121.39 159.07,-108.88"/>
<polygon fill="black" stroke="black" points="160.66,-105.76 150.12,-104.76 157.74,-112.12 160.66,-105.76"/>
</g>
<!-- qgis -->
<g id="node5" class="node">
<title>qgis</title>
<g id="a_node5"><a xlink:href="https://github.com/conda-forge/qgis-feedstock" xlink:title="qgis">
<ellipse fill="#fde725" stroke="black" cx="213.25" cy="-90" rx="30.59" ry="18"/>
<text text-anchor="middle" x="213.25" y="-86.3" font-family="Times,serif" font-size="14.00">qgis</text>
</a>
</g>
</g>
<!-- gdal&#45;&gt;qgis -->
<g id="edge5" class="edge">
<title>gdal&#45;&gt;qgis</title>
<path fill="none" stroke="black" d="M258.56,-144.76C251.16,-135.98 241.87,-124.96 233.64,-115.19"/>
<polygon fill="black" stroke="black" points="236.55,-113.21 227.43,-107.82 231.2,-117.73 236.55,-113.21"/>
</g>
<!-- r&#45;exactextractr -->
<g id="node6" class="node">
<title>r&#45;exactextractr</title>
<g id="a_node6"><a xlink:href="https://github.com/conda-forge/r-exactextractr-feedstock" xlink:title="r exactextractr">
<ellipse fill="#fde725" stroke="black" cx="307.25" cy="-18" rx="80.69" ry="18"/>
<text text-anchor="middle" x="307.25" y="-14.3" font-family="Times,serif" font-size="14.00">r exactextractr</text>
</a>
</g>
</g>
<!-- gdal&#45;&gt;r&#45;exactextractr -->
<g id="edge7" class="edge">
<title>gdal&#45;&gt;r&#45;exactextractr</title>
<path fill="none" stroke="black" d="M275.47,-143.84C278.96,-125.84 284.87,-96.79 291.25,-72 293.36,-63.78 295.92,-54.91 298.37,-46.84"/>
<polygon fill="black" stroke="black" points="301.64,-48.12 301.25,-37.53 294.95,-46.05 301.64,-48.12"/>
</g>
<!-- r&#45;terra -->
<g id="node7" class="node">
<title>r&#45;terra</title>
<g id="a_node7"><a xlink:href="https://github.com/conda-forge/r-terra-feedstock" xlink:title="r terra">
<ellipse fill="#fde725" stroke="black" cx="342.25" cy="-90" rx="41.69" ry="18"/>
<text text-anchor="middle" x="342.25" y="-86.3" font-family="Times,serif" font-size="14.00">r terra</text>
</a>
</g>
</g>
<!-- gdal&#45;&gt;r&#45;terra -->
<g id="edge6" class="edge">
<title>gdal&#45;&gt;r&#45;terra</title>
<path fill="none" stroke="black" d="M287.78,-145.46C296.72,-136.53 308.14,-125.11 318.21,-115.04"/>
<polygon fill="black" stroke="black" points="320.6,-117.59 325.2,-108.05 315.65,-112.64 320.6,-117.59"/>
</g>
<!-- mapserver -->
<g id="node8" class="node">
<title>mapserver</title>
<g id="a_node8"><a xlink:href="https://github.com/conda-forge/mapserver-feedstock" xlink:title="mapserver">
<ellipse fill="#fde725" stroke="black" cx="462.25" cy="-90" rx="60.39" ry="18"/>
<text text-anchor="middle" x="462.25" y="-86.3" font-family="Times,serif" font-size="14.00">mapserver</text>
</a>
</g>
</g>
<!-- gdal&#45;&gt;mapserver -->
<g id="edge3" class="edge">
<title>gdal&#45;&gt;mapserver</title>
<path fill="none" stroke="black" d="M301.52,-150.22C331.71,-139.09 379.26,-121.57 414.82,-108.47"/>
<polygon fill="black" stroke="black" points="415.85,-111.82 424.02,-105.08 413.43,-105.26 415.85,-111.82"/>
</g>
<!-- heavydb&#45;ext -->
<g id="node9" class="node">
<title>heavydb&#45;ext</title>
<g id="a_node9"><a xlink:href="https://github.com/conda-forge/heavydb-ext-feedstock/pull/44" xlink:title="heavydb ext ❎">
<ellipse fill="#31688e" stroke="black" cx="622.25" cy="-90" rx="81.49" ry="18"/>
<text text-anchor="middle" x="622.25" y="-86.3" font-family="Times,serif" font-size="14.00" fill="white">heavydb ext ❎</text>
</a>
</g>
</g>
<!-- gdal&#45;&gt;heavydb&#45;ext -->
<g id="edge2" class="edge">
<title>gdal&#45;&gt;heavydb&#45;ext</title>
<path fill="none" stroke="black" d="M307.09,-154.03C363.99,-142.65 477.96,-119.86 552.12,-105.03"/>
<polygon fill="black" stroke="black" points="552.61,-108.5 561.72,-103.1 551.23,-101.63 552.61,-108.5"/>
</g>
<!-- r&#45;terra&#45;&gt;r&#45;exactextractr -->
<g id="edge8" class="edge">
<title>r&#45;terra&#45;&gt;r&#45;exactextractr</title>
<path fill="none" stroke="black" d="M333.77,-72.05C329.92,-64.35 325.26,-55.03 320.93,-46.36"/>
<polygon fill="black" stroke="black" points="324.16,-45.01 316.56,-37.63 317.9,-48.14 324.16,-45.01"/>
</g>
</g>
</svg>
