<?xml version="1.0" encoding="UTF-8" standalone="no"?>
<!DOCTYPE svg PUBLIC "-//W3C//DTD SVG 1.1//EN"
 "http://www.w3.org/Graphics/SVG/1.1/DTD/svg11.dtd">
<!-- Generated by graphviz version 2.42.3 (20191010.1750)
 -->
<!-- Title: %3 Pages: 1 -->
<svg width="447pt" height="188pt"
 viewBox="0.00 0.00 447.04 188.00" xmlns="http://www.w3.org/2000/svg" xmlns:xlink="http://www.w3.org/1999/xlink">
<g id="graph0" class="graph" transform="scale(1 1) rotate(0) translate(4 184)">
<title>%3</title>
<polygon fill="white" stroke="transparent" points="-4,4 -4,-184 443.04,-184 443.04,4 -4,4"/>
<!-- gstlal -->
<g id="node1" class="node">
<title>gstlal</title>
<g id="a_node1"><a xlink:href="https://github.com/conda-forge/gstlal-feedstock" xlink:title="gstlal">
<ellipse fill="#ff8c00" stroke="black" cx="187.34" cy="-162" rx="36.29" ry="18"/>
<text text-anchor="middle" x="187.34" y="-158.3" font-family="Times,serif" font-size="14.00">gstlal</text>
</a>
</g>
</g>
<!-- gstlal&#45;ugly -->
<g id="node2" class="node">
<title>gstlal&#45;ugly</title>
<g id="a_node2"><a xlink:href="https://github.com/conda-forge/gstlal-ugly-feedstock" xlink:title="gstlal ugly">
<ellipse fill="#fde725" stroke="black" cx="143.34" cy="-90" rx="59.59" ry="18"/>
<text text-anchor="middle" x="143.34" y="-86.3" font-family="Times,serif" font-size="14.00">gstlal ugly</text>
</a>
</g>
</g>
<!-- gstlal&#45;&gt;gstlal&#45;ugly -->
<g id="edge4" class="edge">
<title>gstlal&#45;&gt;gstlal&#45;ugly</title>
<path fill="none" stroke="black" d="M176.92,-144.41C171.68,-136.08 165.22,-125.8 159.37,-116.49"/>
<polygon fill="black" stroke="black" points="162.29,-114.56 154,-107.96 156.36,-118.29 162.29,-114.56"/>
</g>
<!-- gstlal&#45;burst -->
<g id="node3" class="node">
<title>gstlal&#45;burst</title>
<g id="a_node3"><a xlink:href="https://github.com/conda-forge/gstlal-burst-feedstock" xlink:title="gstlal burst">
<ellipse fill="#fde725" stroke="black" cx="64.34" cy="-18" rx="64.19" ry="18"/>
<text text-anchor="middle" x="64.34" y="-14.3" font-family="Times,serif" font-size="14.00">gstlal burst</text>
</a>
</g>
</g>
<!-- gstlal&#45;&gt;gstlal&#45;burst -->
<g id="edge1" class="edge">
<title>gstlal&#45;&gt;gstlal&#45;burst</title>
<path fill="none" stroke="black" d="M153.96,-154.58C127.88,-147.7 93.03,-134.06 74.34,-108 61.64,-90.28 59.85,-65.26 60.84,-46.26"/>
<polygon fill="black" stroke="black" points="64.34,-46.39 61.64,-36.14 57.36,-45.83 64.34,-46.39"/>
</g>
<!-- gstlal&#45;inspiral -->
<g id="node4" class="node">
<title>gstlal&#45;inspiral</title>
<g id="a_node4"><a xlink:href="https://github.com/conda-forge/gstlal-inspiral-feedstock" xlink:title="gstlal inspiral">
<ellipse fill="#fde725" stroke="black" cx="226.34" cy="-18" rx="74.99" ry="18"/>
<text text-anchor="middle" x="226.34" y="-14.3" font-family="Times,serif" font-size="14.00">gstlal inspiral</text>
</a>
</g>
</g>
<!-- gstlal&#45;&gt;gstlal&#45;inspiral -->
<g id="edge3" class="edge">
<title>gstlal&#45;&gt;gstlal&#45;inspiral</title>
<path fill="none" stroke="black" d="M196.73,-144.31C202.07,-134.11 208.46,-120.64 212.34,-108 218.58,-87.72 222.14,-63.95 224.11,-46.08"/>
<polygon fill="black" stroke="black" points="227.6,-46.35 225.11,-36.05 220.63,-45.66 227.6,-46.35"/>
</g>
<!-- gstlal&#45;calibration -->
<g id="node5" class="node">
<title>gstlal&#45;calibration</title>
<g id="a_node5"><a xlink:href="https://github.com/conda-forge/gstlal-calibration-feedstock" xlink:title="gstlal calibration">
<ellipse fill="#fde725" stroke="black" cx="349.34" cy="-90" rx="89.88" ry="18"/>
<text text-anchor="middle" x="349.34" y="-86.3" font-family="Times,serif" font-size="14.00">gstlal calibration</text>
</a>
</g>
</g>
<!-- gstlal&#45;&gt;gstlal&#45;calibration -->
<g id="edge2" class="edge">
<title>gstlal&#45;&gt;gstlal&#45;calibration</title>
<path fill="none" stroke="black" d="M213.73,-149.6C238.06,-139.09 274.69,-123.26 303.75,-110.7"/>
<polygon fill="black" stroke="black" points="305.49,-113.76 313.28,-106.58 302.71,-107.34 305.49,-113.76"/>
</g>
<!-- gstlal&#45;ugly&#45;&gt;gstlal&#45;burst -->
<g id="edge5" class="edge">
<title>gstlal&#45;ugly&#45;&gt;gstlal&#45;burst</title>
<path fill="none" stroke="black" d="M125.02,-72.76C114.73,-63.64 101.71,-52.1 90.37,-42.06"/>
<polygon fill="black" stroke="black" points="92.65,-39.4 82.84,-35.39 88,-44.64 92.65,-39.4"/>
</g>
<!-- gstlal&#45;ugly&#45;&gt;gstlal&#45;inspiral -->
<g id="edge6" class="edge">
<title>gstlal&#45;ugly&#45;&gt;gstlal&#45;inspiral</title>
<path fill="none" stroke="black" d="M162.59,-72.76C173.41,-63.64 187.09,-52.1 199,-42.06"/>
<polygon fill="black" stroke="black" points="201.52,-44.51 206.91,-35.39 197.01,-39.16 201.52,-44.51"/>
</g>
</g>
</svg>
