<?xml version="1.0" encoding="UTF-8" standalone="no"?>
<!DOCTYPE svg PUBLIC "-//W3C//DTD SVG 1.1//EN"
 "http://www.w3.org/Graphics/SVG/1.1/DTD/svg11.dtd">
<!-- Generated by graphviz version 8.1.0 (20230707.2238)
 -->
<!-- Pages: 1 -->
<svg width="749pt" height="404pt"
 viewBox="0.00 0.00 748.87 404.00" xmlns="http://www.w3.org/2000/svg" xmlns:xlink="http://www.w3.org/1999/xlink">
<g id="graph0" class="graph" transform="scale(1 1) rotate(0) translate(4 400)">
<polygon fill="white" stroke="none" points="-4,4 -4,-400 744.87,-400 744.87,4 -4,4"/>
<!-- emacs -->
<g id="node1" class="node">
<title>emacs</title>
<g id="a_node1"><a xlink:href="https://github.com/conda-forge/emacs-feedstock" xlink:title="emacs">
<ellipse fill="#fde725" stroke="black" cx="65.78" cy="-90" rx="42.79" ry="18"/>
<text text-anchor="middle" x="65.78" y="-85.33" font-family="Times,serif" font-size="14.00">emacs</text>
</a>
</g>
</g>
<!-- opencv -->
<g id="node2" class="node">
<title>opencv</title>
<g id="a_node2"><a xlink:href="https://github.com/conda-forge/opencv-feedstock" xlink:title="opencv">
<ellipse fill="#fde725" stroke="black" cx="587.78" cy="-198" rx="46.47" ry="18"/>
<text text-anchor="middle" x="587.78" y="-193.32" font-family="Times,serif" font-size="14.00">opencv</text>
</a>
</g>
</g>
<!-- openjdk -->
<g id="node3" class="node">
<title>openjdk</title>
<g id="a_node3"><a xlink:href="https://github.com/conda-forge/openjdk-feedstock/pull/122" xlink:title="openjdk ❎">
<ellipse fill="#31688e" stroke="black" cx="463.78" cy="-378" rx="65.94" ry="18"/>
<text text-anchor="middle" x="463.78" y="-373.32" font-family="Times,serif" font-size="14.00" fill="white">openjdk ❎</text>
</a>
</g>
</g>
<!-- tectonic -->
<g id="node4" class="node">
<title>tectonic</title>
<g id="a_node4"><a xlink:href="https://github.com/conda-forge/tectonic-feedstock" xlink:title="tectonic">
<ellipse fill="#35b779" stroke="black" cx="463.78" cy="-306" rx="51.21" ry="18"/>
<text text-anchor="middle" x="463.78" y="-301.32" font-family="Times,serif" font-size="14.00">tectonic</text>
</a>
</g>
</g>
<!-- openjdk&#45;&gt;tectonic -->
<!-- texlive&#45;core -->
<g id="node11" class="node">
<title>texlive&#45;core</title>
<g id="a_node11"><a xlink:href="https://github.com/conda-forge/texlive-core-feedstock" xlink:title="texlive core">
<ellipse fill="#35b779" stroke="black" cx="463.78" cy="-234" rx="69.62" ry="18"/>
<text text-anchor="middle" x="463.78" y="-229.32" font-family="Times,serif" font-size="14.00">texlive core</text>
</a>
</g>
</g>
<!-- tectonic&#45;&gt;texlive&#45;core -->
<!-- pango -->
<g id="node5" class="node">
<title>pango</title>
<g id="a_node5"><a xlink:href="https://github.com/conda-forge/pango-feedstock/pull/68" xlink:title="pango ✓">
<ellipse fill="#31688e" stroke="black" cx="187.78" cy="-378" rx="49.63" ry="18"/>
<text text-anchor="middle" x="187.78" y="-373.32" font-family="Times,serif" font-size="14.00" fill="white">pango ✓</text>
</a>
</g>
</g>
<!-- pango&#45;&gt;emacs -->
<g id="edge2" class="edge">
<title>pango&#45;&gt;emacs</title>
<path fill="none" stroke="black" d="M139.72,-373.17C106.77,-367.76 65.27,-354.81 43.78,-324 0,-261.24 32.54,-164.72 52.8,-118.08"/>
<polygon fill="black" stroke="black" points="56.37,-119.68 57.27,-109.13 49.98,-116.81 56.37,-119.68"/>
</g>
<!-- r&#45;cairo -->
<g id="node6" class="node">
<title>r&#45;cairo</title>
<g id="a_node6"><a xlink:href="https://github.com/conda-forge/r-cairo-feedstock" xlink:title="r cairo">
<ellipse fill="#fde725" stroke="black" cx="96.78" cy="-306" rx="43.84" ry="18"/>
<text text-anchor="middle" x="96.78" y="-301.32" font-family="Times,serif" font-size="14.00">r cairo</text>
</a>
</g>
</g>
<!-- pango&#45;&gt;r&#45;cairo -->
<g id="edge3" class="edge">
<title>pango&#45;&gt;r&#45;cairo</title>
<path fill="none" stroke="black" d="M167.58,-361.46C155.13,-351.88 138.96,-339.45 125.22,-328.88"/>
<polygon fill="black" stroke="black" points="127.66,-325.57 117.6,-322.25 123.4,-331.12 127.66,-325.57"/>
</g>
<!-- kitty -->
<g id="node7" class="node">
<title>kitty</title>
<g id="a_node7"><a xlink:href="https://github.com/conda-forge/kitty-feedstock" xlink:title="kitty">
<ellipse fill="#fde725" stroke="black" cx="144.78" cy="-234" rx="34.37" ry="18"/>
<text text-anchor="middle" x="144.78" y="-229.32" font-family="Times,serif" font-size="14.00">kitty</text>
</a>
</g>
</g>
<!-- pango&#45;&gt;kitty -->
<g id="edge4" class="edge">
<title>pango&#45;&gt;kitty</title>
<path fill="none" stroke="black" d="M182.59,-359.87C175.26,-335.67 161.8,-291.21 153.07,-262.39"/>
<polygon fill="black" stroke="black" points="156.23,-261.75 149.98,-253.19 149.53,-263.77 156.23,-261.75"/>
</g>
<!-- gtk3 -->
<g id="node8" class="node">
<title>gtk3</title>
<g id="a_node8"><a xlink:href="https://github.com/conda-forge/gtk3-feedstock" xlink:title="gtk3">
<ellipse fill="#fde725" stroke="black" cx="144.78" cy="-162" rx="33.85" ry="18"/>
<text text-anchor="middle" x="144.78" y="-157.32" font-family="Times,serif" font-size="14.00">gtk3</text>
</a>
</g>
</g>
<!-- pango&#45;&gt;gtk3 -->
<g id="edge5" class="edge">
<title>pango&#45;&gt;gtk3</title>
<path fill="none" stroke="black" d="M191.41,-359.92C197.02,-329.82 205.44,-265.79 187.78,-216 183.86,-204.94 176.54,-194.51 169.04,-185.88"/>
<polygon fill="black" stroke="black" points="171.97,-183.82 162.59,-178.88 166.84,-188.59 171.97,-183.82"/>
</g>
<!-- r&#45;textshaping -->
<g id="node9" class="node">
<title>r&#45;textshaping</title>
<g id="a_node9"><a xlink:href="https://github.com/conda-forge/r-textshaping-feedstock" xlink:title="r textshaping">
<ellipse fill="#fde725" stroke="black" cx="244.78" cy="-90" rx="78.57" ry="18"/>
<text text-anchor="middle" x="244.78" y="-85.33" font-family="Times,serif" font-size="14.00">r textshaping</text>
</a>
</g>
</g>
<!-- pango&#45;&gt;r&#45;textshaping -->
<g id="edge6" class="edge">
<title>pango&#45;&gt;r&#45;textshaping</title>
<path fill="none" stroke="black" d="M196.83,-360.28C201.98,-350.08 208.11,-336.61 211.78,-324 232.72,-251.98 240.6,-163.42 243.38,-119.09"/>
<polygon fill="black" stroke="black" points="246.92,-119.49 244.01,-109.31 239.93,-119.09 246.92,-119.49"/>
</g>
<!-- gtk4 -->
<g id="node10" class="node">
<title>gtk4</title>
<g id="a_node10"><a xlink:href="https://github.com/conda-forge/gtk4-feedstock" xlink:title="gtk4">
<ellipse fill="#fde725" stroke="black" cx="351.78" cy="-18" rx="33.85" ry="18"/>
<text text-anchor="middle" x="351.78" y="-13.32" font-family="Times,serif" font-size="14.00">gtk4</text>
</a>
</g>
</g>
<!-- pango&#45;&gt;gtk4 -->
<g id="edge7" class="edge">
<title>pango&#45;&gt;gtk4</title>
<path fill="none" stroke="black" d="M222.56,-364.81C270.7,-345.45 351.78,-302.79 351.78,-235 351.78,-235 351.78,-235 351.78,-161 351.78,-121.57 351.78,-75.97 351.78,-47.31"/>
<polygon fill="black" stroke="black" points="355.28,-47.49 351.78,-37.49 348.28,-47.49 355.28,-47.49"/>
</g>
<!-- gtk3&#45;&gt;emacs -->
<g id="edge8" class="edge">
<title>gtk3&#45;&gt;emacs</title>
<path fill="none" stroke="black" d="M128.02,-146.15C117.43,-136.76 103.51,-124.44 91.53,-113.82"/>
<polygon fill="black" stroke="black" points="94.41,-111.81 84.61,-107.8 89.77,-117.05 94.41,-111.81"/>
</g>
<!-- sdl2_ttf -->
<g id="node12" class="node">
<title>sdl2_ttf</title>
<g id="a_node12"><a xlink:href="https://github.com/conda-forge/sdl2_ttf-feedstock" xlink:title="sdl2_ttf">
<ellipse fill="#35b779" stroke="black" cx="463.78" cy="-162" rx="49.1" ry="18"/>
<text text-anchor="middle" x="463.78" y="-157.32" font-family="Times,serif" font-size="14.00">sdl2_ttf</text>
</a>
</g>
</g>
<!-- texlive&#45;core&#45;&gt;sdl2_ttf -->
<!-- mupdf -->
<g id="node13" class="node">
<title>mupdf</title>
<g id="a_node13"><a xlink:href="https://github.com/conda-forge/mupdf-feedstock" xlink:title="mupdf">
<ellipse fill="#35b779" stroke="black" cx="463.78" cy="-90" rx="43.32" ry="18"/>
<text text-anchor="middle" x="463.78" y="-85.33" font-family="Times,serif" font-size="14.00">mupdf</text>
</a>
</g>
</g>
<!-- sdl2_ttf&#45;&gt;mupdf -->
<!-- mapserver -->
<g id="node14" class="node">
<title>mapserver</title>
<g id="a_node14"><a xlink:href="https://github.com/conda-forge/mapserver-feedstock" xlink:title="mapserver">
<ellipse fill="#35b779" stroke="black" cx="463.78" cy="-18" rx="64.89" ry="18"/>
<text text-anchor="middle" x="463.78" y="-13.32" font-family="Times,serif" font-size="14.00">mapserver</text>
</a>
</g>
</g>
<!-- mupdf&#45;&gt;mapserver -->
<!-- qt&#45;main -->
<g id="node15" class="node">
<title>qt&#45;main</title>
<g id="a_node15"><a xlink:href="https://github.com/conda-forge/qt-main-feedstock" xlink:title="qt main">
<ellipse fill="#35b779" stroke="black" cx="624.78" cy="-270" rx="49.63" ry="18"/>
<text text-anchor="middle" x="624.78" y="-265.32" font-family="Times,serif" font-size="14.00">qt main</text>
</a>
</g>
</g>
<!-- qt&#45;main&#45;&gt;opencv -->
<g id="edge13" class="edge">
<title>qt&#45;main&#45;&gt;opencv</title>
<path fill="none" stroke="black" d="M615.82,-252.05C611.59,-244.06 606.45,-234.33 601.73,-225.4"/>
<polygon fill="black" stroke="black" points="604.42,-223.99 596.65,-216.79 598.23,-227.27 604.42,-223.99"/>
</g>
<!-- qt&#45;webengine -->
<g id="node16" class="node">
<title>qt&#45;webengine</title>
<g id="a_node16"><a xlink:href="https://github.com/conda-forge/qt-webengine-feedstock" xlink:title="qt webengine">
<ellipse fill="#fde725" stroke="black" cx="661.78" cy="-126" rx="79.09" ry="18"/>
<text text-anchor="middle" x="661.78" y="-121.33" font-family="Times,serif" font-size="14.00">qt webengine</text>
</a>
</g>
</g>
<!-- qt&#45;main&#45;&gt;qt&#45;webengine -->
<g id="edge14" class="edge">
<title>qt&#45;main&#45;&gt;qt&#45;webengine</title>
<path fill="none" stroke="black" d="M631.13,-251.97C634.83,-241.66 639.42,-228.18 642.78,-216 648.35,-195.76 653.26,-172.55 656.69,-154.91"/>
<polygon fill="black" stroke="black" points="660.3,-155.68 658.72,-145.21 653.42,-154.38 660.3,-155.68"/>
</g>
</g>
</svg>
