<?xml version="1.0" encoding="UTF-8" standalone="no"?>
<!DOCTYPE svg PUBLIC "-//W3C//DTD SVG 1.1//EN"
 "http://www.w3.org/Graphics/SVG/1.1/DTD/svg11.dtd">
<!-- Generated by graphviz version 8.0.3 (20230418.1244)
 -->
<!-- Pages: 1 -->
<svg width="786pt" height="276pt"
 viewBox="0.00 0.00 785.60 276.00" xmlns="http://www.w3.org/2000/svg" xmlns:xlink="http://www.w3.org/1999/xlink">
<g id="graph0" class="graph" transform="scale(1 1) rotate(0) translate(4 272)">
<polygon fill="white" stroke="none" points="-4,4 -4,-272 781.6,-272 781.6,4 -4,4"/>
<!-- emacs -->
<g id="node1" class="node">
<title>emacs</title>
<g id="a_node1"><a xlink:href="https://github.com/conda-forge/emacs-feedstock" xlink:title="emacs">
<ellipse fill="#fde725" stroke="black" cx="111.6" cy="-106" rx="40.09" ry="18"/>
<text text-anchor="middle" x="111.6" y="-102.3" font-family="Times,serif" font-size="14.00">emacs</text>
</a>
</g>
</g>
<!-- opencv -->
<g id="node2" class="node">
<title>opencv</title>
<g id="a_node2"><a xlink:href="https://github.com/conda-forge/opencv-feedstock" xlink:title="opencv">
<ellipse fill="#fde725" stroke="black" cx="578.6" cy="-142" rx="43.59" ry="18"/>
<text text-anchor="middle" x="578.6" y="-138.3" font-family="Times,serif" font-size="14.00">opencv</text>
</a>
</g>
</g>
<!-- openjdk -->
<g id="node3" class="node">
<title>openjdk</title>
<g id="a_node3"><a xlink:href="https://github.com/conda-forge/openjdk-feedstock" xlink:title="openjdk">
<ellipse fill="#35b779" stroke="black" cx="712.6" cy="-62" rx="47.39" ry="18"/>
<text text-anchor="middle" x="712.6" y="-58.3" font-family="Times,serif" font-size="14.00">openjdk</text>
</a>
</g>
</g>
<!-- pango -->
<g id="node4" class="node">
<title>pango</title>
<g id="a_node4"><a xlink:href="https://github.com/conda-forge/pango-feedstock/pull/66" xlink:title="pango ✓">
<ellipse fill="#31688e" stroke="black" cx="191.6" cy="-250" rx="46.29" ry="18"/>
<text text-anchor="middle" x="191.6" y="-246.3" font-family="Times,serif" font-size="14.00" fill="white">pango ✓</text>
</a>
</g>
</g>
<!-- pango&#45;&gt;emacs -->
<g id="edge4" class="edge">
<title>pango&#45;&gt;emacs</title>
<path fill="none" stroke="black" d="M149.04,-242.58C100.7,-234.31 26.34,-218.31 9.6,-196 0,-183.2 1.3,-173.68 9.6,-160 22.02,-139.55 45.18,-126.63 66.29,-118.67"/>
<polygon fill="black" stroke="black" points="67.13,-121.74 75.44,-115.16 64.84,-115.13 67.13,-121.74"/>
</g>
<!-- r&#45;cairo -->
<g id="node5" class="node">
<title>r&#45;cairo</title>
<g id="a_node5"><a xlink:href="https://github.com/conda-forge/r-cairo-feedstock" xlink:title="r cairo">
<ellipse fill="#fde725" stroke="black" cx="59.6" cy="-178" rx="40.89" ry="18"/>
<text text-anchor="middle" x="59.6" y="-174.3" font-family="Times,serif" font-size="14.00">r cairo</text>
</a>
</g>
</g>
<!-- pango&#45;&gt;r&#45;cairo -->
<g id="edge6" class="edge">
<title>pango&#45;&gt;r&#45;cairo</title>
<path fill="none" stroke="black" d="M164.89,-234.83C144.64,-224.09 116.63,-209.24 94.59,-197.55"/>
<polygon fill="black" stroke="black" points="96.41,-194.02 85.93,-192.43 93.13,-200.21 96.41,-194.02"/>
</g>
<!-- kitty -->
<g id="node10" class="node">
<title>kitty</title>
<g id="a_node10"><a xlink:href="https://github.com/conda-forge/kitty-feedstock" xlink:title="kitty">
<ellipse fill="#fde725" stroke="black" cx="150.6" cy="-178" rx="32.49" ry="18"/>
<text text-anchor="middle" x="150.6" y="-174.3" font-family="Times,serif" font-size="14.00">kitty</text>
</a>
</g>
</g>
<!-- pango&#45;&gt;kitty -->
<g id="edge3" class="edge">
<title>pango&#45;&gt;kitty</title>
<path fill="none" stroke="black" d="M181.68,-232.05C176.87,-223.85 171,-213.83 165.66,-204.71"/>
<polygon fill="black" stroke="black" points="168.23,-203.17 160.15,-196.31 162.19,-206.7 168.23,-203.17"/>
</g>
<!-- gtk3 -->
<g id="node11" class="node">
<title>gtk3</title>
<g id="a_node11"><a xlink:href="https://github.com/conda-forge/gtk3-feedstock" xlink:title="gtk3">
<ellipse fill="#fde725" stroke="black" cx="232.6" cy="-178" rx="31.7" ry="18"/>
<text text-anchor="middle" x="232.6" y="-174.3" font-family="Times,serif" font-size="14.00">gtk3</text>
</a>
</g>
</g>
<!-- pango&#45;&gt;gtk3 -->
<g id="edge1" class="edge">
<title>pango&#45;&gt;gtk3</title>
<path fill="none" stroke="black" d="M201.53,-232.05C206.33,-223.85 212.2,-213.83 217.54,-204.71"/>
<polygon fill="black" stroke="black" points="221.02,-206.7 223.05,-196.31 214.98,-203.17 221.02,-206.7"/>
</g>
<!-- r&#45;textshaping -->
<g id="node13" class="node">
<title>r&#45;textshaping</title>
<g id="a_node13"><a xlink:href="https://github.com/conda-forge/r-textshaping-feedstock" xlink:title="r textshaping">
<ellipse fill="#fde725" stroke="black" cx="355.6" cy="-178" rx="73.39" ry="18"/>
<text text-anchor="middle" x="355.6" y="-174.3" font-family="Times,serif" font-size="14.00">r textshaping</text>
</a>
</g>
</g>
<!-- pango&#45;&gt;r&#45;textshaping -->
<g id="edge5" class="edge">
<title>pango&#45;&gt;r&#45;textshaping</title>
<path fill="none" stroke="black" d="M222.07,-236C246.82,-225.43 282.1,-210.37 310.18,-198.39"/>
<polygon fill="black" stroke="black" points="311.35,-201.27 319.17,-194.12 308.6,-194.83 311.35,-201.27"/>
</g>
<!-- gtk4 -->
<g id="node14" class="node">
<title>gtk4</title>
<g id="a_node14"><a xlink:href="https://github.com/conda-forge/gtk4-feedstock" xlink:title="gtk4">
<ellipse fill="#fde725" stroke="black" cx="478.6" cy="-178" rx="31.7" ry="18"/>
<text text-anchor="middle" x="478.6" y="-174.3" font-family="Times,serif" font-size="14.00">gtk4</text>
</a>
</g>
</g>
<!-- pango&#45;&gt;gtk4 -->
<g id="edge2" class="edge">
<title>pango&#45;&gt;gtk4</title>
<path fill="none" stroke="black" d="M233.99,-242.27C283.49,-233.86 367.54,-217.87 437.6,-196 439.73,-195.34 441.9,-194.61 444.07,-193.83"/>
<polygon fill="black" stroke="black" points="445.06,-196.82 453.15,-189.98 442.56,-190.28 445.06,-196.82"/>
</g>
<!-- tectonic -->
<g id="node6" class="node">
<title>tectonic</title>
<g id="a_node6"><a xlink:href="https://github.com/conda-forge/tectonic-feedstock" xlink:title="tectonic">
<ellipse fill="#35b779" stroke="black" cx="578.6" cy="-62" rx="48.19" ry="18"/>
<text text-anchor="middle" x="578.6" y="-58.3" font-family="Times,serif" font-size="14.00">tectonic</text>
</a>
</g>
</g>
<!-- texlive&#45;core -->
<g id="node7" class="node">
<title>texlive&#45;core</title>
<g id="a_node7"><a xlink:href="https://github.com/conda-forge/texlive-core-feedstock" xlink:title="texlive core">
<ellipse fill="#35b779" stroke="black" cx="712.6" cy="-178" rx="64.99" ry="18"/>
<text text-anchor="middle" x="712.6" y="-174.3" font-family="Times,serif" font-size="14.00">texlive core</text>
</a>
</g>
</g>
<!-- sdl2_ttf -->
<g id="node8" class="node">
<title>sdl2_ttf</title>
<g id="a_node8"><a xlink:href="https://github.com/conda-forge/sdl2_ttf-feedstock" xlink:title="sdl2_ttf">
<ellipse fill="#35b779" stroke="black" cx="255.6" cy="-18" rx="46.29" ry="18"/>
<text text-anchor="middle" x="255.6" y="-14.3" font-family="Times,serif" font-size="14.00">sdl2_ttf</text>
</a>
</g>
</g>
<!-- libass -->
<g id="node9" class="node">
<title>libass</title>
<g id="a_node9"><a xlink:href="https://github.com/conda-forge/libass-feedstock" xlink:title="libass">
<ellipse fill="#35b779" stroke="black" cx="712.6" cy="-18" rx="37.89" ry="18"/>
<text text-anchor="middle" x="712.6" y="-14.3" font-family="Times,serif" font-size="14.00">libass</text>
</a>
</g>
</g>
<!-- gtk3&#45;&gt;emacs -->
<g id="edge7" class="edge">
<title>gtk3&#45;&gt;emacs</title>
<path fill="none" stroke="black" d="M210.97,-164.49C192.58,-153.85 165.88,-138.4 144.78,-126.19"/>
<polygon fill="black" stroke="black" points="146.94,-122.82 136.54,-120.85 143.44,-128.88 146.94,-122.82"/>
</g>
<!-- mupdf -->
<g id="node12" class="node">
<title>mupdf</title>
<g id="a_node12"><a xlink:href="https://github.com/conda-forge/mupdf-feedstock" xlink:title="mupdf">
<ellipse fill="#35b779" stroke="black" cx="578.6" cy="-18" rx="40.09" ry="18"/>
<text text-anchor="middle" x="578.6" y="-14.3" font-family="Times,serif" font-size="14.00">mupdf</text>
</a>
</g>
</g>
<!-- qt&#45;main -->
<g id="node15" class="node">
<title>qt&#45;main</title>
<g id="a_node15"><a xlink:href="https://github.com/conda-forge/qt-main-feedstock/pull/152" xlink:title="qt main ❎">
<ellipse fill="#31688e" stroke="black" cx="578.6" cy="-214" rx="60.39" ry="18"/>
<text text-anchor="middle" x="578.6" y="-210.3" font-family="Times,serif" font-size="14.00" fill="white">qt main ❎</text>
</a>
</g>
</g>
<!-- qt&#45;main&#45;&gt;opencv -->
<g id="edge8" class="edge">
<title>qt&#45;main&#45;&gt;opencv</title>
<path fill="none" stroke="black" d="M578.6,-195.7C578.6,-188.24 578.6,-179.32 578.6,-170.97"/>
<polygon fill="black" stroke="black" points="582.1,-171.1 578.6,-161.1 575.1,-171.1 582.1,-171.1"/>
</g>
<!-- mapserver -->
<g id="node16" class="node">
<title>mapserver</title>
<g id="a_node16"><a xlink:href="https://github.com/conda-forge/mapserver-feedstock" xlink:title="mapserver">
<ellipse fill="#35b779" stroke="black" cx="255.6" cy="-62" rx="60.39" ry="18"/>
<text text-anchor="middle" x="255.6" y="-58.3" font-family="Times,serif" font-size="14.00">mapserver</text>
</a>
</g>
</g>
</g>
</svg>
