<?xml version="1.0" encoding="UTF-8" standalone="no"?>
<!DOCTYPE svg PUBLIC "-//W3C//DTD SVG 1.1//EN"
 "http://www.w3.org/Graphics/SVG/1.1/DTD/svg11.dtd">
<!-- Generated by graphviz version 7.1.0 (20230122.1345)
 -->
<!-- Pages: 1 -->
<svg width="1711pt" height="1832pt"
 viewBox="0.00 0.00 1710.70 1832.00" xmlns="http://www.w3.org/2000/svg" xmlns:xlink="http://www.w3.org/1999/xlink">
<g id="graph0" class="graph" transform="scale(1 1) rotate(0) translate(4 1828)">
<polygon fill="white" stroke="none" points="-4,4 -4,-1828 1706.7,-1828 1706.7,4 -4,4"/>
<!-- casacore -->
<g id="node1" class="node">
<title>casacore</title>
<g id="a_node1"><a xlink:href="https://github.com/conda-forge/casacore-feedstock" xlink:title="casacore">
<ellipse fill="#fde725" stroke="black" cx="1248.5" cy="-682" rx="51.5" ry="18"/>
<text text-anchor="middle" x="1248.5" y="-678.3" font-family="Times,serif" font-size="14.00">casacore</text>
</a>
</g>
</g>
<!-- cdo -->
<g id="node2" class="node">
<title>cdo</title>
<g id="a_node2"><a xlink:href="https://github.com/conda-forge/cdo-feedstock" xlink:title="cdo">
<ellipse fill="#fde725" stroke="black" cx="1611.5" cy="-18" rx="27" ry="18"/>
<text text-anchor="middle" x="1611.5" y="-14.3" font-family="Times,serif" font-size="14.00">cdo</text>
</a>
</g>
</g>
<!-- cyclus -->
<g id="node3" class="node">
<title>cyclus</title>
<g id="a_node3"><a xlink:href="https://github.com/conda-forge/cyclus-feedstock/pull/67" xlink:title="cyclus ❎">
<ellipse fill="#31688e" stroke="black" cx="1611.5" cy="-1806" rx="54" ry="18"/>
<text text-anchor="middle" x="1611.5" y="-1802.3" font-family="Times,serif" font-size="14.00" fill="white">cyclus ❎</text>
</a>
</g>
</g>
<!-- graph -->
<g id="node4" class="node">
<title>graph</title>
<g id="a_node4"><a xlink:href="https://github.com/conda-forge/graph-feedstock/pull/8" xlink:title="graph ❎">
<ellipse fill="#31688e" stroke="black" cx="1611.5" cy="-1734" rx="52" ry="18"/>
<text text-anchor="middle" x="1611.5" y="-1730.3" font-family="Times,serif" font-size="14.00" fill="white">graph ❎</text>
</a>
</g>
</g>
<!-- cyclus&#45;&gt;graph -->
<!-- hyperion&#45;fortran -->
<g id="node22" class="node">
<title>hyperion&#45;fortran</title>
<g id="a_node22"><a xlink:href="https://github.com/conda-forge/hyperion-fortran-feedstock" xlink:title="hyperion fortran">
<ellipse fill="#ff8c00" stroke="black" cx="1611.5" cy="-1662" rx="87.18" ry="18"/>
<text text-anchor="middle" x="1611.5" y="-1658.3" font-family="Times,serif" font-size="14.00">hyperion fortran</text>
</a>
</g>
</g>
<!-- graph&#45;&gt;hyperion&#45;fortran -->
<!-- eccodes -->
<g id="node5" class="node">
<title>eccodes</title>
<g id="a_node5"><a xlink:href="https://github.com/conda-forge/eccodes-feedstock" xlink:title="eccodes">
<ellipse fill="#ff8c00" stroke="black" cx="1611.5" cy="-90" rx="47.5" ry="18"/>
<text text-anchor="middle" x="1611.5" y="-86.3" font-family="Times,serif" font-size="14.00">eccodes</text>
</a>
</g>
</g>
<!-- eccodes&#45;&gt;cdo -->
<g id="edge2" class="edge">
<title>eccodes&#45;&gt;cdo</title>
<path fill="none" stroke="black" d="M1611.5,-71.7C1611.5,-64.41 1611.5,-55.73 1611.5,-47.54"/>
<polygon fill="black" stroke="black" points="1615,-47.62 1611.5,-37.62 1608,-47.62 1615,-47.62"/>
</g>
<!-- esmf -->
<g id="node6" class="node">
<title>esmf</title>
<g id="a_node6"><a xlink:href="https://github.com/conda-forge/esmf-feedstock" xlink:title="esmf">
<ellipse fill="#35b779" stroke="black" cx="440.5" cy="-1626" rx="33.29" ry="18"/>
<text text-anchor="middle" x="440.5" y="-1622.3" font-family="Times,serif" font-size="14.00">esmf</text>
</a>
</g>
</g>
<!-- ncl -->
<g id="node7" class="node">
<title>ncl</title>
<g id="a_node7"><a xlink:href="https://github.com/conda-forge/ncl-feedstock" xlink:title="ncl">
<ellipse fill="#fde725" stroke="black" cx="118.5" cy="-1554" rx="27" ry="18"/>
<text text-anchor="middle" x="118.5" y="-1550.3" font-family="Times,serif" font-size="14.00">ncl</text>
</a>
</g>
</g>
<!-- esmf&#45;&gt;ncl -->
<g id="edge3" class="edge">
<title>esmf&#45;&gt;ncl</title>
<path fill="none" stroke="black" d="M409.92,-1618.35C350.36,-1605.4 219.06,-1576.86 155.04,-1562.94"/>
<polygon fill="black" stroke="black" points="155.89,-1559.55 145.38,-1560.84 154.4,-1566.39 155.89,-1559.55"/>
</g>
<!-- nco -->
<g id="node8" class="node">
<title>nco</title>
<g id="a_node8"><a xlink:href="https://github.com/conda-forge/nco-feedstock" xlink:title="nco">
<ellipse fill="#fde725" stroke="black" cx="871.5" cy="-1554" rx="27" ry="18"/>
<text text-anchor="middle" x="871.5" y="-1550.3" font-family="Times,serif" font-size="14.00">nco</text>
</a>
</g>
</g>
<!-- esmf&#45;&gt;nco -->
<g id="edge4" class="edge">
<title>esmf&#45;&gt;nco</title>
<path fill="none" stroke="black" d="M471.15,-1618.43C487.04,-1615.12 506.77,-1611.15 524.5,-1608 636.63,-1588.1 769.95,-1569.01 833.78,-1560.15"/>
<polygon fill="black" stroke="black" points="833.95,-1563.67 843.37,-1558.83 832.99,-1556.73 833.95,-1563.67"/>
</g>
<!-- fenics -->
<g id="node9" class="node">
<title>fenics</title>
<g id="a_node9"><a xlink:href="https://github.com/conda-forge/fenics-feedstock/pull/174" xlink:title="fenics ❎">
<ellipse fill="#31688e" stroke="black" cx="1446.5" cy="-754" rx="52" ry="18"/>
<text text-anchor="middle" x="1446.5" y="-750.3" font-family="Times,serif" font-size="14.00" fill="white">fenics ❎</text>
</a>
</g>
</g>
<!-- fenics&#45;dolfinx -->
<g id="node10" class="node">
<title>fenics&#45;dolfinx</title>
<g id="a_node10"><a xlink:href="https://github.com/conda-forge/fenics-dolfinx-feedstock" xlink:title="fenics dolfinx">
<ellipse fill="#fde725" stroke="black" cx="1440.5" cy="-682" rx="72.29" ry="18"/>
<text text-anchor="middle" x="1440.5" y="-678.3" font-family="Times,serif" font-size="14.00">fenics dolfinx</text>
</a>
</g>
</g>
<!-- fenics&#45;&gt;fenics&#45;dolfinx -->
<g id="edge5" class="edge">
<title>fenics&#45;&gt;fenics&#45;dolfinx</title>
<path fill="none" stroke="black" d="M1445.02,-735.7C1444.39,-728.41 1443.65,-719.73 1442.95,-711.54"/>
<polygon fill="black" stroke="black" points="1446.44,-711.28 1442.1,-701.61 1439.46,-711.87 1446.44,-711.28"/>
</g>
<!-- flann -->
<g id="node11" class="node">
<title>flann</title>
<g id="a_node11"><a xlink:href="https://github.com/conda-forge/flann-feedstock/pull/35" xlink:title="flann ✓">
<ellipse fill="#31688e" stroke="black" cx="574.5" cy="-1626" rx="41" ry="18"/>
<text text-anchor="middle" x="574.5" y="-1622.3" font-family="Times,serif" font-size="14.00" fill="white">flann ✓</text>
</a>
</g>
</g>
<!-- freecad -->
<g id="node12" class="node">
<title>freecad</title>
<g id="a_node12"><a xlink:href="https://github.com/conda-forge/freecad-feedstock" xlink:title="freecad">
<ellipse fill="#fde725" stroke="black" cx="628.5" cy="-1554" rx="45.5" ry="18"/>
<text text-anchor="middle" x="628.5" y="-1550.3" font-family="Times,serif" font-size="14.00">freecad</text>
</a>
</g>
</g>
<!-- flann&#45;&gt;freecad -->
<g id="edge6" class="edge">
<title>flann&#45;&gt;freecad</title>
<path fill="none" stroke="black" d="M587.3,-1608.41C593.75,-1600.04 601.72,-1589.71 608.93,-1580.37"/>
<polygon fill="black" stroke="black" points="611.53,-1582.72 614.87,-1572.67 605.99,-1578.45 611.53,-1582.72"/>
</g>
<!-- gazebo -->
<g id="node13" class="node">
<title>gazebo</title>
<g id="a_node13"><a xlink:href="https://github.com/conda-forge/gazebo-feedstock" xlink:title="gazebo">
<ellipse fill="#fde725" stroke="black" cx="521.5" cy="-1554" rx="43.59" ry="18"/>
<text text-anchor="middle" x="521.5" y="-1550.3" font-family="Times,serif" font-size="14.00">gazebo</text>
</a>
</g>
</g>
<!-- flann&#45;&gt;gazebo -->
<g id="edge7" class="edge">
<title>flann&#45;&gt;gazebo</title>
<path fill="none" stroke="black" d="M561.94,-1608.41C555.6,-1600.04 547.78,-1589.71 540.71,-1580.37"/>
<polygon fill="black" stroke="black" points="543.71,-1578.54 534.88,-1572.68 538.13,-1582.76 543.71,-1578.54"/>
</g>
<!-- gdal -->
<g id="node14" class="node">
<title>gdal</title>
<g id="a_node14"><a xlink:href="https://github.com/conda-forge/gdal-feedstock/pull/738" xlink:title="gdal ❎">
<ellipse fill="#31688e" stroke="black" cx="249.5" cy="-1626" rx="45" ry="18"/>
<text text-anchor="middle" x="249.5" y="-1622.3" font-family="Times,serif" font-size="14.00" fill="white">gdal ❎</text>
</a>
</g>
</g>
<!-- gdal&#45;&gt;ncl -->
<g id="edge8" class="edge">
<title>gdal&#45;&gt;ncl</title>
<path fill="none" stroke="black" d="M223.31,-1611C201.9,-1599.57 171.62,-1583.39 149.11,-1571.36"/>
<polygon fill="black" stroke="black" points="150.87,-1568.33 140.4,-1566.7 147.57,-1574.5 150.87,-1568.33"/>
</g>
<!-- gdal&#45;&gt;gazebo -->
<g id="edge9" class="edge">
<title>gdal&#45;&gt;gazebo</title>
<path fill="none" stroke="black" d="M287.51,-1616.1C330.39,-1605.94 402.16,-1588.58 463.5,-1572 467.54,-1570.91 471.72,-1569.75 475.91,-1568.56"/>
<polygon fill="black" stroke="black" points="476.81,-1571.94 485.46,-1565.82 474.88,-1565.21 476.81,-1571.94"/>
</g>
<!-- gmt -->
<g id="node15" class="node">
<title>gmt</title>
<g id="a_node15"><a xlink:href="https://github.com/conda-forge/gmt-feedstock" xlink:title="gmt">
<ellipse fill="#fde725" stroke="black" cx="392.5" cy="-1554" rx="29.5" ry="18"/>
<text text-anchor="middle" x="392.5" y="-1550.3" font-family="Times,serif" font-size="14.00">gmt</text>
</a>
</g>
</g>
<!-- gdal&#45;&gt;gmt -->
<g id="edge10" class="edge">
<title>gdal&#45;&gt;gmt</title>
<path fill="none" stroke="black" d="M277.07,-1611.5C300.79,-1599.89 335.04,-1583.13 360.07,-1570.87"/>
<polygon fill="black" stroke="black" points="361.37,-1574.13 368.82,-1566.59 358.3,-1567.85 361.37,-1574.13"/>
</g>
<!-- pynio -->
<g id="node16" class="node">
<title>pynio</title>
<g id="a_node16"><a xlink:href="https://github.com/conda-forge/pynio-feedstock" xlink:title="pynio">
<ellipse fill="#fde725" stroke="black" cx="36.5" cy="-1554" rx="36.5" ry="18"/>
<text text-anchor="middle" x="36.5" y="-1550.3" font-family="Times,serif" font-size="14.00">pynio</text>
</a>
</g>
</g>
<!-- gdal&#45;&gt;pynio -->
<g id="edge11" class="edge">
<title>gdal&#45;&gt;pynio</title>
<path fill="none" stroke="black" d="M214.48,-1614.41C180.58,-1604.03 127.81,-1587.55 82.5,-1572 80.14,-1571.19 77.73,-1570.35 75.29,-1569.48"/>
<polygon fill="black" stroke="black" points="76.66,-1566.26 66.07,-1566.15 74.29,-1572.84 76.66,-1566.26"/>
</g>
<!-- rsgislib -->
<g id="node17" class="node">
<title>rsgislib</title>
<g id="a_node17"><a xlink:href="https://github.com/conda-forge/rsgislib-feedstock" xlink:title="rsgislib">
<ellipse fill="#fde725" stroke="black" cx="449.5" cy="-1482" rx="45.5" ry="18"/>
<text text-anchor="middle" x="449.5" y="-1478.3" font-family="Times,serif" font-size="14.00">rsgislib</text>
</a>
</g>
</g>
<!-- gdal&#45;&gt;rsgislib -->
<g id="edge12" class="edge">
<title>gdal&#45;&gt;rsgislib</title>
<path fill="none" stroke="black" d="M294.48,-1624.23C335.76,-1621 395.64,-1609.56 430.5,-1572 445.38,-1555.96 449.72,-1531.24 450.57,-1511.91"/>
<polygon fill="black" stroke="black" points="454.07,-1511.98 450.69,-1501.94 447.07,-1511.89 454.07,-1511.98"/>
</g>
<!-- pdal -->
<g id="node18" class="node">
<title>pdal</title>
<g id="a_node18"><a xlink:href="https://github.com/conda-forge/pdal-feedstock" xlink:title="pdal">
<ellipse fill="#fde725" stroke="black" cx="152.5" cy="-1410" rx="30.59" ry="18"/>
<text text-anchor="middle" x="152.5" y="-1406.3" font-family="Times,serif" font-size="14.00">pdal</text>
</a>
</g>
</g>
<!-- gdal&#45;&gt;pdal -->
<g id="edge13" class="edge">
<title>gdal&#45;&gt;pdal</title>
<path fill="none" stroke="black" d="M229.95,-1609.44C218.96,-1599.74 205.82,-1586.4 197.5,-1572 172.92,-1529.48 161.17,-1472.83 156.03,-1439.3"/>
<polygon fill="black" stroke="black" points="159.52,-1438.97 154.64,-1429.57 152.59,-1439.96 159.52,-1438.97"/>
</g>
<!-- isce2 -->
<g id="node19" class="node">
<title>isce2</title>
<g id="a_node19"><a xlink:href="https://github.com/conda-forge/isce2-feedstock" xlink:title="isce2">
<ellipse fill="#fde725" stroke="black" cx="186.5" cy="-1338" rx="34.5" ry="18"/>
<text text-anchor="middle" x="186.5" y="-1334.3" font-family="Times,serif" font-size="14.00">isce2</text>
</a>
</g>
</g>
<!-- gdal&#45;&gt;isce2 -->
<g id="edge14" class="edge">
<title>gdal&#45;&gt;isce2</title>
<path fill="none" stroke="black" d="M244.74,-1607.87C241.92,-1597.52 238.35,-1584.04 235.5,-1572 218.11,-1498.65 200.63,-1411.57 192.02,-1367.54"/>
<polygon fill="black" stroke="black" points="195.46,-1366.94 190.12,-1357.8 188.59,-1368.28 195.46,-1366.94"/>
</g>
<!-- lue -->
<g id="node20" class="node">
<title>lue</title>
<g id="a_node20"><a xlink:href="https://github.com/conda-forge/lue-feedstock" xlink:title="lue">
<ellipse fill="#fde725" stroke="black" cx="249.5" cy="-1266" rx="27" ry="18"/>
<text text-anchor="middle" x="249.5" y="-1262.3" font-family="Times,serif" font-size="14.00">lue</text>
</a>
</g>
</g>
<!-- gdal&#45;&gt;lue -->
<g id="edge15" class="edge">
<title>gdal&#45;&gt;lue</title>
<path fill="none" stroke="black" d="M249.5,-1607.51C249.5,-1580.71 249.5,-1527.87 249.5,-1483 249.5,-1483 249.5,-1483 249.5,-1409 249.5,-1369.74 249.5,-1324.38 249.5,-1295.69"/>
<polygon fill="black" stroke="black" points="253,-1296 249.5,-1286 246,-1296 253,-1296"/>
</g>
<!-- mdal -->
<g id="node21" class="node">
<title>mdal</title>
<g id="a_node21"><a xlink:href="https://github.com/conda-forge/mdal-feedstock" xlink:title="mdal">
<ellipse fill="#fde725" stroke="black" cx="311.5" cy="-1554" rx="34" ry="18"/>
<text text-anchor="middle" x="311.5" y="-1550.3" font-family="Times,serif" font-size="14.00">mdal</text>
</a>
</g>
</g>
<!-- gdal&#45;&gt;mdal -->
<g id="edge16" class="edge">
<title>gdal&#45;&gt;mdal</title>
<path fill="none" stroke="black" d="M263.88,-1608.76C271.66,-1599.98 281.42,-1588.96 290.07,-1579.19"/>
<polygon fill="black" stroke="black" points="292.61,-1581.61 296.62,-1571.8 287.37,-1576.96 292.61,-1581.61"/>
</g>
<!-- libcdms -->
<g id="node24" class="node">
<title>libcdms</title>
<g id="a_node24"><a xlink:href="https://github.com/conda-forge/libcdms-feedstock" xlink:title="libcdms">
<ellipse fill="#ff8c00" stroke="black" cx="1611.5" cy="-1590" rx="47" ry="18"/>
<text text-anchor="middle" x="1611.5" y="-1586.3" font-family="Times,serif" font-size="14.00">libcdms</text>
</a>
</g>
</g>
<!-- hyperion&#45;fortran&#45;&gt;libcdms -->
<!-- hdfeos5 -->
<g id="node23" class="node">
<title>hdfeos5</title>
<g id="a_node23"><a xlink:href="https://github.com/conda-forge/hdfeos5-feedstock" xlink:title="hdfeos5">
<ellipse fill="#ff8c00" stroke="black" cx="77.5" cy="-1626" rx="47.5" ry="18"/>
<text text-anchor="middle" x="77.5" y="-1622.3" font-family="Times,serif" font-size="14.00">hdfeos5</text>
</a>
</g>
</g>
<!-- hdfeos5&#45;&gt;ncl -->
<g id="edge18" class="edge">
<title>hdfeos5&#45;&gt;ncl</title>
<path fill="none" stroke="black" d="M87.42,-1608.05C92.18,-1599.94 97.97,-1590.04 103.27,-1581.01"/>
<polygon fill="black" stroke="black" points="106.15,-1583.01 108.18,-1572.61 100.11,-1579.47 106.15,-1583.01"/>
</g>
<!-- hdfeos5&#45;&gt;pynio -->
<g id="edge19" class="edge">
<title>hdfeos5&#45;&gt;pynio</title>
<path fill="none" stroke="black" d="M67.58,-1608.05C62.94,-1600.14 57.32,-1590.54 52.13,-1581.69"/>
<polygon fill="black" stroke="black" points="55.17,-1579.95 47.1,-1573.1 49.13,-1583.49 55.17,-1579.95"/>
</g>
<!-- r&#45;hdf5r -->
<g id="node25" class="node">
<title>r&#45;hdf5r</title>
<g id="a_node25"><a xlink:href="https://github.com/conda-forge/r-hdf5r-feedstock/pull/28" xlink:title="r hdf5r ❎">
<ellipse fill="#31688e" stroke="black" cx="1611.5" cy="-1518" rx="58" ry="18"/>
<text text-anchor="middle" x="1611.5" y="-1514.3" font-family="Times,serif" font-size="14.00" fill="white">r hdf5r ❎</text>
</a>
</g>
</g>
<!-- libcdms&#45;&gt;r&#45;hdf5r -->
<!-- r&#45;ncdf4 -->
<g id="node38" class="node">
<title>r&#45;ncdf4</title>
<g id="a_node38"><a xlink:href="https://github.com/conda-forge/r-ncdf4-feedstock" xlink:title="r ncdf4">
<ellipse fill="#ff8c00" stroke="black" cx="1611.5" cy="-1446" rx="44.39" ry="18"/>
<text text-anchor="middle" x="1611.5" y="-1442.3" font-family="Times,serif" font-size="14.00">r ncdf4</text>
</a>
</g>
</g>
<!-- r&#45;hdf5r&#45;&gt;r&#45;ncdf4 -->
<!-- libitk -->
<g id="node26" class="node">
<title>libitk</title>
<g id="a_node26"><a xlink:href="https://github.com/conda-forge/libitk-feedstock/pull/81" xlink:title="libitk ❎">
<ellipse fill="#31688e" stroke="black" cx="1354.5" cy="-90" rx="48.99" ry="18"/>
<text text-anchor="middle" x="1354.5" y="-86.3" font-family="Times,serif" font-size="14.00" fill="white">libitk ❎</text>
</a>
</g>
</g>
<!-- stir -->
<g id="node27" class="node">
<title>stir</title>
<g id="a_node27"><a xlink:href="https://github.com/conda-forge/stir-feedstock" xlink:title="stir">
<ellipse fill="#fde725" stroke="black" cx="1354.5" cy="-18" rx="27" ry="18"/>
<text text-anchor="middle" x="1354.5" y="-14.3" font-family="Times,serif" font-size="14.00">stir</text>
</a>
</g>
</g>
<!-- libitk&#45;&gt;stir -->
<g id="edge22" class="edge">
<title>libitk&#45;&gt;stir</title>
<path fill="none" stroke="black" d="M1354.5,-71.7C1354.5,-64.41 1354.5,-55.73 1354.5,-47.54"/>
<polygon fill="black" stroke="black" points="1358,-47.62 1354.5,-37.62 1351,-47.62 1358,-47.62"/>
</g>
<!-- moab -->
<g id="node28" class="node">
<title>moab</title>
<g id="a_node28"><a xlink:href="https://github.com/conda-forge/moab-feedstock" xlink:title="moab">
<ellipse fill="#fde725" stroke="black" cx="1104.5" cy="-1554" rx="36.5" ry="18"/>
<text text-anchor="middle" x="1104.5" y="-1550.3" font-family="Times,serif" font-size="14.00">moab</text>
</a>
</g>
</g>
<!-- openmc -->
<g id="node29" class="node">
<title>openmc</title>
<g id="a_node29"><a xlink:href="https://github.com/conda-forge/openmc-feedstock" xlink:title="openmc">
<ellipse fill="#fde725" stroke="black" cx="1141.5" cy="-1482" rx="47" ry="18"/>
<text text-anchor="middle" x="1141.5" y="-1478.3" font-family="Times,serif" font-size="14.00">openmc</text>
</a>
</g>
</g>
<!-- moab&#45;&gt;openmc -->
<g id="edge23" class="edge">
<title>moab&#45;&gt;openmc</title>
<path fill="none" stroke="black" d="M1113.46,-1536.05C1117.64,-1528.14 1122.71,-1518.54 1127.39,-1509.69"/>
<polygon fill="black" stroke="black" points="1130.34,-1511.6 1131.92,-1501.13 1124.15,-1508.33 1130.34,-1511.6"/>
</g>
<!-- pyne -->
<g id="node30" class="node">
<title>pyne</title>
<g id="a_node30"><a xlink:href="https://github.com/conda-forge/pyne-feedstock" xlink:title="pyne">
<ellipse fill="#fde725" stroke="black" cx="1103.5" cy="-1410" rx="33.29" ry="18"/>
<text text-anchor="middle" x="1103.5" y="-1406.3" font-family="Times,serif" font-size="14.00">pyne</text>
</a>
</g>
</g>
<!-- moab&#45;&gt;pyne -->
<g id="edge24" class="edge">
<title>moab&#45;&gt;pyne</title>
<path fill="none" stroke="black" d="M1096.8,-1536.22C1092.54,-1525.99 1087.68,-1512.52 1085.5,-1500 1082.76,-1484.24 1082.89,-1479.79 1085.5,-1464 1086.9,-1455.53 1089.48,-1446.59 1092.25,-1438.52"/>
<polygon fill="black" stroke="black" points="1095.5,-1439.83 1095.68,-1429.24 1088.93,-1437.41 1095.5,-1439.83"/>
</g>
<!-- openmc&#45;&gt;pyne -->
<g id="edge25" class="edge">
<title>openmc&#45;&gt;pyne</title>
<path fill="none" stroke="black" d="M1132.3,-1464.05C1128.01,-1456.14 1122.79,-1446.54 1117.99,-1437.69"/>
<polygon fill="black" stroke="black" points="1121.18,-1436.24 1113.34,-1429.12 1115.03,-1439.58 1121.18,-1436.24"/>
</g>
<!-- netcdf&#45;cxx4 -->
<g id="node31" class="node">
<title>netcdf&#45;cxx4</title>
<g id="a_node31"><a xlink:href="https://github.com/conda-forge/netcdf-cxx4-feedstock" xlink:title="netcdf cxx4">
<ellipse fill="#35b779" stroke="black" cx="1616.5" cy="-754" rx="64.5" ry="18"/>
<text text-anchor="middle" x="1616.5" y="-750.3" font-family="Times,serif" font-size="14.00">netcdf cxx4</text>
</a>
</g>
</g>
<!-- pytrilinos -->
<g id="node32" class="node">
<title>pytrilinos</title>
<g id="a_node32"><a xlink:href="https://github.com/conda-forge/pytrilinos-feedstock" xlink:title="pytrilinos">
<ellipse fill="#fde725" stroke="black" cx="1575.5" cy="-682" rx="55.49" ry="18"/>
<text text-anchor="middle" x="1575.5" y="-678.3" font-family="Times,serif" font-size="14.00">pytrilinos</text>
</a>
</g>
</g>
<!-- netcdf&#45;cxx4&#45;&gt;pytrilinos -->
<g id="edge26" class="edge">
<title>netcdf&#45;cxx4&#45;&gt;pytrilinos</title>
<path fill="none" stroke="black" d="M1606.58,-736.05C1601.94,-728.14 1596.32,-718.54 1591.13,-709.69"/>
<polygon fill="black" stroke="black" points="1594.17,-707.95 1586.1,-701.1 1588.13,-711.49 1594.17,-707.95"/>
</g>
<!-- trilinos -->
<g id="node33" class="node">
<title>trilinos</title>
<g id="a_node33"><a xlink:href="https://github.com/conda-forge/trilinos-feedstock" xlink:title="trilinos">
<ellipse fill="#fde725" stroke="black" cx="1658.5" cy="-610" rx="44.39" ry="18"/>
<text text-anchor="middle" x="1658.5" y="-606.3" font-family="Times,serif" font-size="14.00">trilinos</text>
</a>
</g>
</g>
<!-- netcdf&#45;cxx4&#45;&gt;trilinos -->
<g id="edge27" class="edge">
<title>netcdf&#45;cxx4&#45;&gt;trilinos</title>
<path fill="none" stroke="black" d="M1625.06,-735.67C1629.83,-725.48 1635.58,-712.23 1639.5,-700 1645.84,-680.19 1650.68,-657.23 1653.89,-639.59"/>
<polygon fill="black" stroke="black" points="1657.33,-640.27 1655.59,-629.82 1650.43,-639.07 1657.33,-640.27"/>
</g>
<!-- netcdf4 -->
<g id="node34" class="node">
<title>netcdf4</title>
<g id="a_node34"><a xlink:href="https://github.com/conda-forge/netcdf4-feedstock/pull/152" xlink:title="netcdf4 ✓">
<ellipse fill="#31688e" stroke="black" cx="1339.5" cy="-278" rx="53.5" ry="18"/>
<text text-anchor="middle" x="1339.5" y="-274.3" font-family="Times,serif" font-size="14.00" fill="white">netcdf4 ✓</text>
</a>
</g>
</g>
<!-- cmor -->
<g id="node35" class="node">
<title>cmor</title>
<g id="a_node35"><a xlink:href="https://github.com/conda-forge/cmor-feedstock" xlink:title="cmor">
<ellipse fill="#fde725" stroke="black" cx="1308.5" cy="-206" rx="34.5" ry="18"/>
<text text-anchor="middle" x="1308.5" y="-202.3" font-family="Times,serif" font-size="14.00">cmor</text>
</a>
</g>
</g>
<!-- netcdf4&#45;&gt;cmor -->
<g id="edge28" class="edge">
<title>netcdf4&#45;&gt;cmor</title>
<path fill="none" stroke="black" d="M1331.84,-259.7C1328.41,-251.95 1324.28,-242.64 1320.46,-234.02"/>
<polygon fill="black" stroke="black" points="1323.72,-232.73 1316.47,-225.01 1317.32,-235.57 1323.72,-232.73"/>
</g>
<!-- mpas_tools -->
<g id="node36" class="node">
<title>mpas_tools</title>
<g id="a_node36"><a xlink:href="https://github.com/conda-forge/mpas_tools-feedstock" xlink:title="mpas_tools">
<ellipse fill="#fde725" stroke="black" cx="1371.5" cy="-134" rx="62.5" ry="18"/>
<text text-anchor="middle" x="1371.5" y="-130.3" font-family="Times,serif" font-size="14.00">mpas_tools</text>
</a>
</g>
</g>
<!-- netcdf4&#45;&gt;mpas_tools -->
<g id="edge29" class="edge">
<title>netcdf4&#45;&gt;mpas_tools</title>
<path fill="none" stroke="black" d="M1343.85,-259.85C1346.44,-249.48 1349.75,-236 1352.5,-224 1357.12,-203.86 1361.98,-181.06 1365.63,-163.58"/>
<polygon fill="black" stroke="black" points="1369.03,-164.41 1367.63,-153.91 1362.18,-162.99 1369.03,-164.41"/>
</g>
<!-- paraview -->
<g id="node37" class="node">
<title>paraview</title>
<g id="a_node37"><a xlink:href="https://github.com/conda-forge/paraview-feedstock" xlink:title="paraview">
<ellipse fill="#fde725" stroke="black" cx="558.5" cy="-206" rx="53.5" ry="18"/>
<text text-anchor="middle" x="558.5" y="-202.3" font-family="Times,serif" font-size="14.00">paraview</text>
</a>
</g>
</g>
<!-- yaafe -->
<g id="node39" class="node">
<title>yaafe</title>
<g id="a_node39"><a xlink:href="https://github.com/conda-forge/yaafe-feedstock/pull/22" xlink:title="yaafe ❎">
<ellipse fill="#31688e" stroke="black" cx="1611.5" cy="-1374" rx="50.09" ry="18"/>
<text text-anchor="middle" x="1611.5" y="-1370.3" font-family="Times,serif" font-size="14.00" fill="white">yaafe ❎</text>
</a>
</g>
</g>
<!-- r&#45;ncdf4&#45;&gt;yaafe -->
<!-- siesta -->
<g id="node40" class="node">
<title>siesta</title>
<g id="a_node40"><a xlink:href="https://github.com/conda-forge/siesta-feedstock" xlink:title="siesta">
<ellipse fill="#35b779" stroke="black" cx="1611.5" cy="-1302" rx="38.5" ry="18"/>
<text text-anchor="middle" x="1611.5" y="-1298.3" font-family="Times,serif" font-size="14.00">siesta</text>
</a>
</g>
</g>
<!-- yaafe&#45;&gt;siesta -->
<!-- numcosmo -->
<g id="node41" class="node">
<title>numcosmo</title>
<g id="a_node41"><a xlink:href="https://github.com/conda-forge/numcosmo-feedstock/pull/32" xlink:title="numcosmo ✓">
<ellipse fill="#31688e" stroke="black" cx="1611.5" cy="-1230" rx="67.69" ry="18"/>
<text text-anchor="middle" x="1611.5" y="-1226.3" font-family="Times,serif" font-size="14.00" fill="white">numcosmo ✓</text>
</a>
</g>
</g>
<!-- siesta&#45;&gt;numcosmo -->
<!-- lammps -->
<g id="node48" class="node">
<title>lammps</title>
<g id="a_node48"><a xlink:href="https://github.com/conda-forge/lammps-feedstock/pull/139" xlink:title="lammps ❎">
<ellipse fill="#31688e" stroke="black" cx="1611.5" cy="-1158" rx="61.99" ry="18"/>
<text text-anchor="middle" x="1611.5" y="-1154.3" font-family="Times,serif" font-size="14.00" fill="white">lammps ❎</text>
</a>
</g>
</g>
<!-- numcosmo&#45;&gt;lammps -->
<!-- vtk -->
<g id="node42" class="node">
<title>vtk</title>
<g id="a_node42"><a xlink:href="https://github.com/conda-forge/vtk-feedstock/pull/289" xlink:title="vtk ❎">
<ellipse fill="#31688e" stroke="black" cx="759.5" cy="-1626" rx="39.79" ry="18"/>
<text text-anchor="middle" x="759.5" y="-1622.3" font-family="Times,serif" font-size="14.00" fill="white">vtk ❎</text>
</a>
</g>
</g>
<!-- vtk&#45;&gt;freecad -->
<g id="edge34" class="edge">
<title>vtk&#45;&gt;freecad</title>
<path fill="none" stroke="black" d="M734.55,-1611.67C714.81,-1601.12 686.97,-1586.25 664.77,-1574.38"/>
<polygon fill="black" stroke="black" points="666.51,-1571.34 656.04,-1569.71 663.21,-1577.51 666.51,-1571.34"/>
</g>
<!-- ifcopenshell -->
<g id="node43" class="node">
<title>ifcopenshell</title>
<g id="a_node43"><a xlink:href="https://github.com/conda-forge/ifcopenshell-feedstock" xlink:title="ifcopenshell">
<ellipse fill="#fde725" stroke="black" cx="983.5" cy="-1554" rx="66.5" ry="18"/>
<text text-anchor="middle" x="983.5" y="-1550.3" font-family="Times,serif" font-size="14.00">ifcopenshell</text>
</a>
</g>
</g>
<!-- vtk&#45;&gt;ifcopenshell -->
<g id="edge35" class="edge">
<title>vtk&#45;&gt;ifcopenshell</title>
<path fill="none" stroke="black" d="M791.59,-1614.97C827.76,-1603.67 887.13,-1585.12 930.26,-1571.64"/>
<polygon fill="black" stroke="black" points="931.19,-1575.01 939.69,-1568.69 929.1,-1568.33 931.19,-1575.01"/>
</g>
<!-- bonsu -->
<g id="node44" class="node">
<title>bonsu</title>
<g id="a_node44"><a xlink:href="https://github.com/conda-forge/bonsu-feedstock" xlink:title="bonsu">
<ellipse fill="#fde725" stroke="black" cx="673.5" cy="-1482" rx="38.5" ry="18"/>
<text text-anchor="middle" x="673.5" y="-1478.3" font-family="Times,serif" font-size="14.00">bonsu</text>
</a>
</g>
</g>
<!-- vtk&#45;&gt;bonsu -->
<g id="edge36" class="edge">
<title>vtk&#45;&gt;bonsu</title>
<path fill="none" stroke="black" d="M749.01,-1608.34C742.48,-1597.93 733.94,-1584.22 726.5,-1572 713.75,-1551.07 699.56,-1527.21 689.07,-1509.46"/>
<polygon fill="black" stroke="black" points="692.23,-1507.93 684.13,-1501.09 686.2,-1511.49 692.23,-1507.93"/>
</g>
<!-- esys&#45;escript -->
<g id="node45" class="node">
<title>esys&#45;escript</title>
<g id="a_node45"><a xlink:href="https://github.com/conda-forge/esys-escript-feedstock" xlink:title="esys escript">
<ellipse fill="#fde725" stroke="black" cx="683.5" cy="-1410" rx="66.5" ry="18"/>
<text text-anchor="middle" x="683.5" y="-1406.3" font-family="Times,serif" font-size="14.00">esys escript</text>
</a>
</g>
</g>
<!-- vtk&#45;&gt;esys&#45;escript -->
<g id="edge37" class="edge">
<title>vtk&#45;&gt;esys&#45;escript</title>
<path fill="none" stroke="black" d="M757.47,-1607.87C753.45,-1577.69 742.84,-1513.55 720.5,-1464 716.26,-1454.59 710.28,-1445.1 704.37,-1436.8"/>
<polygon fill="black" stroke="black" points="707.26,-1434.81 698.48,-1428.89 701.65,-1439 707.26,-1434.81"/>
</g>
<!-- damask -->
<g id="node46" class="node">
<title>damask</title>
<g id="a_node46"><a xlink:href="https://github.com/conda-forge/damask-feedstock" xlink:title="damask">
<ellipse fill="#fde725" stroke="black" cx="742.5" cy="-1338" rx="46.29" ry="18"/>
<text text-anchor="middle" x="742.5" y="-1334.3" font-family="Times,serif" font-size="14.00">damask</text>
</a>
</g>
</g>
<!-- vtk&#45;&gt;damask -->
<g id="edge38" class="edge">
<title>vtk&#45;&gt;damask</title>
<path fill="none" stroke="black" d="M761.26,-1607.6C764.8,-1568.67 771.4,-1471.66 758.5,-1392 757.14,-1383.62 754.82,-1374.71 752.35,-1366.63"/>
<polygon fill="black" stroke="black" points="755.75,-1365.78 749.33,-1357.35 749.1,-1367.95 755.75,-1365.78"/>
</g>
<!-- pycgns -->
<g id="node47" class="node">
<title>pycgns</title>
<g id="a_node47"><a xlink:href="https://github.com/conda-forge/pycgns-feedstock" xlink:title="pycgns">
<ellipse fill="#fde725" stroke="black" cx="816.5" cy="-1266" rx="43.59" ry="18"/>
<text text-anchor="middle" x="816.5" y="-1262.3" font-family="Times,serif" font-size="14.00">pycgns</text>
</a>
</g>
</g>
<!-- vtk&#45;&gt;pycgns -->
<g id="edge39" class="edge">
<title>vtk&#45;&gt;pycgns</title>
<path fill="none" stroke="black" d="M771.03,-1608.38C787.69,-1582.72 816.5,-1531.35 816.5,-1483 816.5,-1483 816.5,-1483 816.5,-1409 816.5,-1369.74 816.5,-1324.38 816.5,-1295.69"/>
<polygon fill="black" stroke="black" points="820,-1296 816.5,-1286 813,-1296 820,-1296"/>
</g>
<!-- openmeeg -->
<g id="node49" class="node">
<title>openmeeg</title>
<g id="a_node49"><a xlink:href="https://github.com/conda-forge/openmeeg-feedstock/pull/42" xlink:title="openmeeg ❎">
<ellipse fill="#31688e" stroke="black" cx="1611.5" cy="-1086" rx="73" ry="18"/>
<text text-anchor="middle" x="1611.5" y="-1082.3" font-family="Times,serif" font-size="14.00" fill="white">openmeeg ❎</text>
</a>
</g>
</g>
<!-- lammps&#45;&gt;openmeeg -->
<!-- openpmd&#45;api -->
<g id="node50" class="node">
<title>openpmd&#45;api</title>
<g id="a_node50"><a xlink:href="https://github.com/conda-forge/openpmd-api-feedstock" xlink:title="openpmd api">
<ellipse fill="#fde725" stroke="black" cx="1328.5" cy="-610" rx="71" ry="18"/>
<text text-anchor="middle" x="1328.5" y="-606.3" font-family="Times,serif" font-size="14.00">openpmd api</text>
</a>
</g>
</g>
<!-- highfive -->
<g id="node51" class="node">
<title>highfive</title>
<g id="a_node51"><a xlink:href="https://github.com/conda-forge/highfive-feedstock/pull/34" xlink:title="highfive ✓">
<ellipse fill="#31688e" stroke="black" cx="594.5" cy="-90" rx="55.49" ry="18"/>
<text text-anchor="middle" x="594.5" y="-86.3" font-family="Times,serif" font-size="14.00" fill="white">highfive ✓</text>
</a>
</g>
</g>
<!-- pp&#45;sketchlib -->
<g id="node52" class="node">
<title>pp&#45;sketchlib</title>
<g id="a_node52"><a xlink:href="https://github.com/conda-forge/pp-sketchlib-feedstock" xlink:title="pp sketchlib">
<ellipse fill="#fde725" stroke="black" cx="594.5" cy="-18" rx="67.69" ry="18"/>
<text text-anchor="middle" x="594.5" y="-14.3" font-family="Times,serif" font-size="14.00">pp sketchlib</text>
</a>
</g>
</g>
<!-- highfive&#45;&gt;pp&#45;sketchlib -->
<g id="edge42" class="edge">
<title>highfive&#45;&gt;pp&#45;sketchlib</title>
<path fill="none" stroke="black" d="M594.5,-71.7C594.5,-64.41 594.5,-55.73 594.5,-47.54"/>
<polygon fill="black" stroke="black" points="598,-47.62 594.5,-37.62 591,-47.62 598,-47.62"/>
</g>
<!-- scilab -->
<g id="node53" class="node">
<title>scilab</title>
<g id="a_node53"><a xlink:href="https://github.com/conda-forge/scilab-feedstock/pull/39" xlink:title="scilab ✓">
<ellipse fill="#31688e" stroke="black" cx="1354.5" cy="-1806" rx="45" ry="18"/>
<text text-anchor="middle" x="1354.5" y="-1802.3" font-family="Times,serif" font-size="14.00" fill="white">scilab ✓</text>
</a>
</g>
</g>
<!-- dakota -->
<g id="node54" class="node">
<title>dakota</title>
<g id="a_node54"><a xlink:href="https://github.com/conda-forge/dakota-feedstock" xlink:title="dakota">
<ellipse fill="#ff8c00" stroke="black" cx="1354.5" cy="-1734" rx="42.49" ry="18"/>
<text text-anchor="middle" x="1354.5" y="-1730.3" font-family="Times,serif" font-size="14.00">dakota</text>
</a>
</g>
</g>
<!-- scilab&#45;&gt;dakota -->
<!-- ncview -->
<g id="node59" class="node">
<title>ncview</title>
<g id="a_node59"><a xlink:href="https://github.com/conda-forge/ncview-feedstock" xlink:title="ncview">
<ellipse fill="#35b779" stroke="black" cx="1354.5" cy="-1662" rx="43" ry="18"/>
<text text-anchor="middle" x="1354.5" y="-1658.3" font-family="Times,serif" font-size="14.00">ncview</text>
</a>
</g>
</g>
<!-- dakota&#45;&gt;ncview -->
<!-- tempest&#45;remap -->
<g id="node55" class="node">
<title>tempest&#45;remap</title>
<g id="a_node55"><a xlink:href="https://github.com/conda-forge/tempest-remap-feedstock/pull/39" xlink:title="tempest remap ✓">
<ellipse fill="#31688e" stroke="black" cx="1014.5" cy="-1626" rx="89.08" ry="18"/>
<text text-anchor="middle" x="1014.5" y="-1622.3" font-family="Times,serif" font-size="14.00" fill="white">tempest remap ✓</text>
</a>
</g>
</g>
<!-- tempest&#45;remap&#45;&gt;nco -->
<g id="edge44" class="edge">
<title>tempest&#45;remap&#45;&gt;nco</title>
<path fill="none" stroke="black" d="M981.69,-1608.94C957.95,-1597.32 926.07,-1581.71 902.71,-1570.28"/>
<polygon fill="black" stroke="black" points="904.51,-1567.26 893.99,-1566.01 901.43,-1573.55 904.51,-1567.26"/>
</g>
<!-- tempest&#45;remap&#45;&gt;moab -->
<g id="edge45" class="edge">
<title>tempest&#45;remap&#45;&gt;moab</title>
<path fill="none" stroke="black" d="M1035.83,-1608.41C1047.96,-1598.98 1063.3,-1587.05 1076.4,-1576.86"/>
<polygon fill="black" stroke="black" points="1078.53,-1579.64 1084.27,-1570.73 1074.23,-1574.11 1078.53,-1579.64"/>
</g>
<!-- adios2 -->
<g id="node56" class="node">
<title>adios2</title>
<g id="a_node56"><a xlink:href="https://github.com/conda-forge/adios2-feedstock/pull/70" xlink:title="adios2 ❎">
<ellipse fill="#31688e" stroke="black" cx="1321.5" cy="-754" rx="55.49" ry="18"/>
<text text-anchor="middle" x="1321.5" y="-750.3" font-family="Times,serif" font-size="14.00" fill="white">adios2 ❎</text>
</a>
</g>
</g>
<!-- adios2&#45;&gt;casacore -->
<g id="edge46" class="edge">
<title>adios2&#45;&gt;casacore</title>
<path fill="none" stroke="black" d="M1304.2,-736.41C1295.04,-727.63 1283.63,-716.69 1273.53,-707"/>
<polygon fill="black" stroke="black" points="1276.16,-704.67 1266.52,-700.28 1271.31,-709.72 1276.16,-704.67"/>
</g>
<!-- adios2&#45;&gt;fenics&#45;dolfinx -->
<g id="edge47" class="edge">
<title>adios2&#45;&gt;fenics&#45;dolfinx</title>
<path fill="none" stroke="black" d="M1347.62,-737.64C1364.01,-727.99 1385.4,-715.41 1403.53,-704.75"/>
<polygon fill="black" stroke="black" points="1405.06,-707.91 1411.9,-699.82 1401.51,-701.88 1405.06,-707.91"/>
</g>
<!-- adios2&#45;&gt;openpmd&#45;api -->
<g id="edge48" class="edge">
<title>adios2&#45;&gt;openpmd&#45;api</title>
<path fill="none" stroke="black" d="M1322.36,-735.59C1323.54,-711.61 1325.68,-668.14 1327.1,-639.42"/>
<polygon fill="black" stroke="black" points="1330.59,-639.78 1327.58,-629.62 1323.59,-639.44 1330.59,-639.78"/>
</g>
<!-- cgns -->
<g id="node57" class="node">
<title>cgns</title>
<g id="a_node57"><a xlink:href="https://github.com/conda-forge/cgns-feedstock/pull/27" xlink:title="cgns ❎">
<ellipse fill="#31688e" stroke="black" cx="599.5" cy="-278" rx="46.29" ry="18"/>
<text text-anchor="middle" x="599.5" y="-274.3" font-family="Times,serif" font-size="14.00" fill="white">cgns ❎</text>
</a>
</g>
</g>
<!-- cgns&#45;&gt;paraview -->
<g id="edge49" class="edge">
<title>cgns&#45;&gt;paraview</title>
<path fill="none" stroke="black" d="M589.58,-260.05C584.94,-252.14 579.32,-242.54 574.13,-233.69"/>
<polygon fill="black" stroke="black" points="577.17,-231.95 569.1,-225.1 571.13,-235.49 577.17,-231.95"/>
</g>
<!-- tomviz -->
<g id="node58" class="node">
<title>tomviz</title>
<g id="a_node58"><a xlink:href="https://github.com/conda-forge/tomviz-feedstock" xlink:title="tomviz">
<ellipse fill="#fde725" stroke="black" cx="640.5" cy="-134" rx="42.49" ry="18"/>
<text text-anchor="middle" x="640.5" y="-130.3" font-family="Times,serif" font-size="14.00">tomviz</text>
</a>
</g>
</g>
<!-- cgns&#45;&gt;tomviz -->
<g id="edge50" class="edge">
<title>cgns&#45;&gt;tomviz</title>
<path fill="none" stroke="black" d="M607.44,-260.11C612.04,-249.84 617.65,-236.37 621.5,-224 627.68,-204.14 632.53,-181.18 635.78,-163.55"/>
<polygon fill="black" stroke="black" points="639.21,-164.25 637.51,-153.79 632.32,-163.03 639.21,-164.25"/>
</g>
<!-- proteus -->
<g id="node60" class="node">
<title>proteus</title>
<g id="a_node60"><a xlink:href="https://github.com/conda-forge/proteus-feedstock/pull/53" xlink:title="proteus ❎">
<ellipse fill="#31688e" stroke="black" cx="1354.5" cy="-1590" rx="60.5" ry="18"/>
<text text-anchor="middle" x="1354.5" y="-1586.3" font-family="Times,serif" font-size="14.00" fill="white">proteus ❎</text>
</a>
</g>
</g>
<!-- ncview&#45;&gt;proteus -->
<!-- hdf5&#45;external&#45;filter&#45;plugins -->
<g id="node61" class="node">
<title>hdf5&#45;external&#45;filter&#45;plugins</title>
<g id="a_node61"><a xlink:href="https://github.com/conda-forge/hdf5-external-filter-plugins-feedstock/pull/19" xlink:title="hdf5 external filter plugins ✓">
<ellipse fill="#31688e" stroke="black" cx="1354.5" cy="-1518" rx="143" ry="18"/>
<text text-anchor="middle" x="1354.5" y="-1514.3" font-family="Times,serif" font-size="14.00" fill="white">hdf5 external filter plugins ✓</text>
</a>
</g>
</g>
<!-- proteus&#45;&gt;hdf5&#45;external&#45;filter&#45;plugins -->
<!-- netcdf&#45;cxx&#45;legacy -->
<g id="node62" class="node">
<title>netcdf&#45;cxx&#45;legacy</title>
<g id="a_node62"><a xlink:href="https://github.com/conda-forge/netcdf-cxx-legacy-feedstock" xlink:title="netcdf cxx legacy">
<ellipse fill="#35b779" stroke="black" cx="1354.5" cy="-1446" rx="91" ry="18"/>
<text text-anchor="middle" x="1354.5" y="-1442.3" font-family="Times,serif" font-size="14.00">netcdf cxx legacy</text>
</a>
</g>
</g>
<!-- hdf5&#45;external&#45;filter&#45;plugins&#45;&gt;netcdf&#45;cxx&#45;legacy -->
<!-- prismatic_split -->
<g id="node63" class="node">
<title>prismatic_split</title>
<g id="a_node63"><a xlink:href="https://github.com/conda-forge/prismatic_split-feedstock" xlink:title="prismatic_split">
<ellipse fill="#ff8c00" stroke="black" cx="1354.5" cy="-1374" rx="79.5" ry="18"/>
<text text-anchor="middle" x="1354.5" y="-1370.3" font-family="Times,serif" font-size="14.00">prismatic_split</text>
</a>
</g>
</g>
<!-- netcdf&#45;cxx&#45;legacy&#45;&gt;prismatic_split -->
<!-- digital_rf -->
<g id="node64" class="node">
<title>digital_rf</title>
<g id="a_node64"><a xlink:href="https://github.com/conda-forge/digital_rf-feedstock/pull/25" xlink:title="digital_rf ❎">
<ellipse fill="#31688e" stroke="black" cx="1354.5" cy="-1302" rx="67" ry="18"/>
<text text-anchor="middle" x="1354.5" y="-1298.3" font-family="Times,serif" font-size="14.00" fill="white">digital_rf ❎</text>
</a>
</g>
</g>
<!-- prismatic_split&#45;&gt;digital_rf -->
<!-- ecell4_base -->
<g id="node65" class="node">
<title>ecell4_base</title>
<g id="a_node65"><a xlink:href="https://github.com/conda-forge/ecell4_base-feedstock/pull/22" xlink:title="ecell4_base ❎">
<ellipse fill="#31688e" stroke="black" cx="1354.5" cy="-1230" rx="78" ry="18"/>
<text text-anchor="middle" x="1354.5" y="-1226.3" font-family="Times,serif" font-size="14.00" fill="white">ecell4_base ❎</text>
</a>
</g>
</g>
<!-- digital_rf&#45;&gt;ecell4_base -->
<!-- nccmp -->
<g id="node66" class="node">
<title>nccmp</title>
<g id="a_node66"><a xlink:href="https://github.com/conda-forge/nccmp-feedstock" xlink:title="nccmp">
<ellipse fill="#35b779" stroke="black" cx="1354.5" cy="-1158" rx="41" ry="18"/>
<text text-anchor="middle" x="1354.5" y="-1154.3" font-family="Times,serif" font-size="14.00">nccmp</text>
</a>
</g>
</g>
<!-- ecell4_base&#45;&gt;nccmp -->
<!-- mbsolve -->
<g id="node67" class="node">
<title>mbsolve</title>
<g id="a_node67"><a xlink:href="https://github.com/conda-forge/mbsolve-feedstock/pull/14" xlink:title="mbsolve ❎">
<ellipse fill="#31688e" stroke="black" cx="1354.5" cy="-1086" rx="63.89" ry="18"/>
<text text-anchor="middle" x="1354.5" y="-1082.3" font-family="Times,serif" font-size="14.00" fill="white">mbsolve ❎</text>
</a>
</g>
</g>
<!-- nccmp&#45;&gt;mbsolve -->
<!-- triqs_cthyb -->
<g id="node68" class="node">
<title>triqs_cthyb</title>
<g id="a_node68"><a xlink:href="https://github.com/conda-forge/triqs_cthyb-feedstock/pull/29" xlink:title="triqs_cthyb ❎">
<ellipse fill="#31688e" stroke="black" cx="594.5" cy="-1042" rx="77.5" ry="18"/>
<text text-anchor="middle" x="594.5" y="-1038.3" font-family="Times,serif" font-size="14.00" fill="white">triqs_cthyb ❎</text>
</a>
</g>
</g>
<!-- abinit -->
<g id="node69" class="node">
<title>abinit</title>
<g id="a_node69"><a xlink:href="https://github.com/conda-forge/abinit-feedstock" xlink:title="abinit">
<ellipse fill="#35b779" stroke="black" cx="594.5" cy="-970" rx="37.89" ry="18"/>
<text text-anchor="middle" x="594.5" y="-966.3" font-family="Times,serif" font-size="14.00">abinit</text>
</a>
</g>
</g>
<!-- triqs_cthyb&#45;&gt;abinit -->
<!-- polycap -->
<g id="node70" class="node">
<title>polycap</title>
<g id="a_node70"><a xlink:href="https://github.com/conda-forge/polycap-feedstock/pull/16" xlink:title="polycap ❎">
<ellipse fill="#31688e" stroke="black" cx="594.5" cy="-898" rx="60.5" ry="18"/>
<text text-anchor="middle" x="594.5" y="-894.3" font-family="Times,serif" font-size="14.00" fill="white">polycap ❎</text>
</a>
</g>
</g>
<!-- abinit&#45;&gt;polycap -->
<!-- fates&#45;emerald -->
<g id="node71" class="node">
<title>fates&#45;emerald</title>
<g id="a_node71"><a xlink:href="https://github.com/conda-forge/fates-emerald-feedstock" xlink:title="fates emerald">
<ellipse fill="#35b779" stroke="black" cx="594.5" cy="-826" rx="74.99" ry="18"/>
<text text-anchor="middle" x="594.5" y="-822.3" font-family="Times,serif" font-size="14.00">fates emerald</text>
</a>
</g>
</g>
<!-- polycap&#45;&gt;fates&#45;emerald -->
<!-- muq -->
<g id="node72" class="node">
<title>muq</title>
<g id="a_node72"><a xlink:href="https://github.com/conda-forge/muq-feedstock/pull/31" xlink:title="muq ✓">
<ellipse fill="#31688e" stroke="black" cx="594.5" cy="-754" rx="38.5" ry="18"/>
<text text-anchor="middle" x="594.5" y="-750.3" font-family="Times,serif" font-size="14.00" fill="white">muq ✓</text>
</a>
</g>
</g>
<!-- fates&#45;emerald&#45;&gt;muq -->
<!-- sirius -->
<g id="node73" class="node">
<title>sirius</title>
<g id="a_node73"><a xlink:href="https://github.com/conda-forge/sirius-feedstock/pull/19" xlink:title="sirius ❎">
<ellipse fill="#31688e" stroke="black" cx="594.5" cy="-682" rx="50.89" ry="18"/>
<text text-anchor="middle" x="594.5" y="-678.3" font-family="Times,serif" font-size="14.00" fill="white">sirius ❎</text>
</a>
</g>
</g>
<!-- muq&#45;&gt;sirius -->
<!-- bmad -->
<g id="node74" class="node">
<title>bmad</title>
<g id="a_node74"><a xlink:href="https://github.com/conda-forge/bmad-feedstock/pull/200" xlink:title="bmad ✓">
<ellipse fill="#31688e" stroke="black" cx="594.5" cy="-610" rx="44.39" ry="18"/>
<text text-anchor="middle" x="594.5" y="-606.3" font-family="Times,serif" font-size="14.00" fill="white">bmad ✓</text>
</a>
</g>
</g>
<!-- sirius&#45;&gt;bmad -->
<!-- yambo -->
<g id="node75" class="node">
<title>yambo</title>
<g id="a_node75"><a xlink:href="https://github.com/conda-forge/yambo-feedstock" xlink:title="yambo">
<ellipse fill="#35b779" stroke="black" cx="594.5" cy="-538" rx="41.69" ry="18"/>
<text text-anchor="middle" x="594.5" y="-534.3" font-family="Times,serif" font-size="14.00">yambo</text>
</a>
</g>
</g>
<!-- bmad&#45;&gt;yambo -->
<!-- cadet -->
<g id="node76" class="node">
<title>cadet</title>
<g id="a_node76"><a xlink:href="https://github.com/conda-forge/cadet-feedstock/pull/7" xlink:title="cadet ❎">
<ellipse fill="#31688e" stroke="black" cx="594.5" cy="-466" rx="50.09" ry="18"/>
<text text-anchor="middle" x="594.5" y="-462.3" font-family="Times,serif" font-size="14.00" fill="white">cadet ❎</text>
</a>
</g>
</g>
<!-- yambo&#45;&gt;cadet -->
<!-- ccr -->
<g id="node77" class="node">
<title>ccr</title>
<g id="a_node77"><a xlink:href="https://github.com/conda-forge/ccr-feedstock" xlink:title="ccr">
<ellipse fill="#35b779" stroke="black" cx="594.5" cy="-394" rx="27" ry="18"/>
<text text-anchor="middle" x="594.5" y="-390.3" font-family="Times,serif" font-size="14.00">ccr</text>
</a>
</g>
</g>
<!-- cadet&#45;&gt;ccr -->
<!-- dxtbx -->
<g id="node78" class="node">
<title>dxtbx</title>
<g id="a_node78"><a xlink:href="https://github.com/conda-forge/dxtbx-feedstock/pull/31" xlink:title="dxtbx ❎">
<ellipse fill="#31688e" stroke="black" cx="594.5" cy="-322" rx="51.5" ry="18"/>
<text text-anchor="middle" x="594.5" y="-318.3" font-family="Times,serif" font-size="14.00" fill="white">dxtbx ❎</text>
</a>
</g>
</g>
<!-- ccr&#45;&gt;dxtbx -->
<!-- trexio -->
<g id="node79" class="node">
<title>trexio</title>
<g id="a_node79"><a xlink:href="https://github.com/conda-forge/trexio-feedstock/pull/6" xlink:title="trexio ❎">
<ellipse fill="#31688e" stroke="black" cx="1611.5" cy="-278" rx="52" ry="18"/>
<text text-anchor="middle" x="1611.5" y="-274.3" font-family="Times,serif" font-size="14.00" fill="white">trexio ❎</text>
</a>
</g>
</g>
<!-- freefem -->
<g id="node80" class="node">
<title>freefem</title>
<g id="a_node80"><a xlink:href="https://github.com/conda-forge/freefem-feedstock/pull/3" xlink:title="freefem ✓">
<ellipse fill="#31688e" stroke="black" cx="1611.5" cy="-206" rx="54" ry="18"/>
<text text-anchor="middle" x="1611.5" y="-202.3" font-family="Times,serif" font-size="14.00" fill="white">freefem ✓</text>
</a>
</g>
</g>
<!-- trexio&#45;&gt;freefem -->
<!-- fortnet -->
<g id="node81" class="node">
<title>fortnet</title>
<g id="a_node81"><a xlink:href="https://github.com/conda-forge/fortnet-feedstock" xlink:title="fortnet">
<ellipse fill="#ff8c00" stroke="black" cx="1611.5" cy="-134" rx="43" ry="18"/>
<text text-anchor="middle" x="1611.5" y="-130.3" font-family="Times,serif" font-size="14.00">fortnet</text>
</a>
</g>
</g>
<!-- freefem&#45;&gt;fortnet -->
</g>
</svg>
