<?xml version="1.0" encoding="UTF-8" standalone="no"?>
<!DOCTYPE svg PUBLIC "-//W3C//DTD SVG 1.1//EN"
 "http://www.w3.org/Graphics/SVG/1.1/DTD/svg11.dtd">
<!-- Generated by graphviz version 8.1.0 (20230707.2238)
 -->
<!-- Pages: 1 -->
<svg width="1839pt" height="1644pt"
 viewBox="0.00 0.00 1839.05 1644.00" xmlns="http://www.w3.org/2000/svg" xmlns:xlink="http://www.w3.org/1999/xlink">
<g id="graph0" class="graph" transform="scale(1 1) rotate(0) translate(4 1640)">
<polygon fill="white" stroke="none" points="-4,4 -4,-1640 1835.05,-1640 1835.05,4 -4,4"/>
<!-- casacore -->
<g id="node1" class="node">
<title>casacore</title>
<g id="a_node1"><a xlink:href="https://github.com/conda-forge/casacore-feedstock" xlink:title="casacore">
<ellipse fill="#fde725" stroke="black" cx="54.89" cy="-1258" rx="54.89" ry="18"/>
<text text-anchor="middle" x="54.89" y="-1253.33" font-family="Times,serif" font-size="14.00">casacore</text>
</a>
</g>
</g>
<!-- cyclus -->
<g id="node2" class="node">
<title>cyclus</title>
<g id="a_node2"><a xlink:href="https://github.com/conda-forge/cyclus-feedstock" xlink:title="cyclus">
<ellipse fill="#fde725" stroke="black" cx="1167.89" cy="-54" rx="42.26" ry="18"/>
<text text-anchor="middle" x="1167.89" y="-49.33" font-family="Times,serif" font-size="14.00">cyclus</text>
</a>
</g>
</g>
<!-- esmf -->
<g id="node3" class="node">
<title>esmf</title>
<g id="a_node3"><a xlink:href="https://github.com/conda-forge/esmf-feedstock" xlink:title="esmf">
<ellipse fill="#fde725" stroke="black" cx="307.89" cy="-602" rx="35.42" ry="18"/>
<text text-anchor="middle" x="307.89" y="-597.33" font-family="Times,serif" font-size="14.00">esmf</text>
</a>
</g>
</g>
<!-- ncl -->
<g id="node4" class="node">
<title>ncl</title>
<g id="a_node4"><a xlink:href="https://github.com/conda-forge/ncl-feedstock" xlink:title="ncl">
<ellipse fill="#fde725" stroke="black" cx="263.89" cy="-530" rx="27" ry="18"/>
<text text-anchor="middle" x="263.89" y="-525.33" font-family="Times,serif" font-size="14.00">ncl</text>
</a>
</g>
</g>
<!-- esmf&#45;&gt;ncl -->
<g id="edge1" class="edge">
<title>esmf&#45;&gt;ncl</title>
<path fill="none" stroke="black" d="M297.46,-584.41C292.18,-576.01 285.66,-565.63 279.77,-556.26"/>
<polygon fill="black" stroke="black" points="282.23,-554.59 273.94,-547.99 276.3,-558.32 282.23,-554.59"/>
</g>
<!-- nco -->
<g id="node5" class="node">
<title>nco</title>
<g id="a_node5"><a xlink:href="https://github.com/conda-forge/nco-feedstock" xlink:title="nco">
<ellipse fill="#fde725" stroke="black" cx="318.89" cy="-458" rx="28.59" ry="18"/>
<text text-anchor="middle" x="318.89" y="-453.32" font-family="Times,serif" font-size="14.00">nco</text>
</a>
</g>
</g>
<!-- esmf&#45;&gt;nco -->
<g id="edge2" class="edge">
<title>esmf&#45;&gt;nco</title>
<path fill="none" stroke="black" d="M309.24,-583.59C311.11,-559.5 314.49,-515.75 316.72,-487.03"/>
<polygon fill="black" stroke="black" points="320.28,-487.35 317.57,-477.11 313.3,-486.81 320.28,-487.35"/>
</g>
<!-- fenics -->
<g id="node6" class="node">
<title>fenics</title>
<g id="a_node6"><a xlink:href="https://github.com/conda-forge/fenics-feedstock" xlink:title="fenics">
<ellipse fill="#fde725" stroke="black" cx="252.89" cy="-1330" rx="40.69" ry="18"/>
<text text-anchor="middle" x="252.89" y="-1325.33" font-family="Times,serif" font-size="14.00">fenics</text>
</a>
</g>
</g>
<!-- fenics&#45;dolfinx -->
<g id="node7" class="node">
<title>fenics&#45;dolfinx</title>
<g id="a_node7"><a xlink:href="https://github.com/conda-forge/fenics-dolfinx-feedstock" xlink:title="fenics dolfinx">
<ellipse fill="#fde725" stroke="black" cx="249.89" cy="-1258" rx="77.52" ry="18"/>
<text text-anchor="middle" x="249.89" y="-1253.33" font-family="Times,serif" font-size="14.00">fenics dolfinx</text>
</a>
</g>
</g>
<!-- fenics&#45;&gt;fenics&#45;dolfinx -->
<g id="edge3" class="edge">
<title>fenics&#45;&gt;fenics&#45;dolfinx</title>
<path fill="none" stroke="black" d="M252.15,-1311.7C251.83,-1304.24 251.45,-1295.32 251.09,-1286.97"/>
<polygon fill="black" stroke="black" points="254.55,-1286.95 250.62,-1277.1 247.56,-1287.25 254.55,-1286.95"/>
</g>
<!-- flann -->
<g id="node8" class="node">
<title>flann</title>
<g id="a_node8"><a xlink:href="https://github.com/conda-forge/flann-feedstock/pull/37" xlink:title="flann ✓">
<ellipse fill="#31688e" stroke="black" cx="943.89" cy="-1402" rx="43.84" ry="18"/>
<text text-anchor="middle" x="943.89" y="-1397.33" font-family="Times,serif" font-size="14.00" fill="white">flann ✓</text>
</a>
</g>
</g>
<!-- freecad -->
<g id="node9" class="node">
<title>freecad</title>
<g id="a_node9"><a xlink:href="https://github.com/conda-forge/freecad-feedstock" xlink:title="freecad">
<ellipse fill="#fde725" stroke="black" cx="866.89" cy="-1330" rx="48.58" ry="18"/>
<text text-anchor="middle" x="866.89" y="-1325.33" font-family="Times,serif" font-size="14.00">freecad</text>
</a>
</g>
</g>
<!-- flann&#45;&gt;freecad -->
<g id="edge4" class="edge">
<title>flann&#45;&gt;freecad</title>
<path fill="none" stroke="black" d="M926.42,-1385.12C916.45,-1376.05 903.76,-1364.52 892.67,-1354.43"/>
<polygon fill="black" stroke="black" points="895.31,-1352.2 885.56,-1348.06 890.61,-1357.38 895.31,-1352.2"/>
</g>
<!-- gazebo -->
<g id="node10" class="node">
<title>gazebo</title>
<g id="a_node10"><a xlink:href="https://github.com/conda-forge/gazebo-feedstock" xlink:title="gazebo">
<ellipse fill="#fde725" stroke="black" cx="1017.89" cy="-1330" rx="46.47" ry="18"/>
<text text-anchor="middle" x="1017.89" y="-1325.33" font-family="Times,serif" font-size="14.00">gazebo</text>
</a>
</g>
</g>
<!-- flann&#45;&gt;gazebo -->
<g id="edge5" class="edge">
<title>flann&#45;&gt;gazebo</title>
<path fill="none" stroke="black" d="M960.68,-1385.12C970.27,-1376.05 982.46,-1364.52 993.12,-1354.43"/>
<polygon fill="black" stroke="black" points="995.05,-1357.48 999.91,-1348.06 990.24,-1352.39 995.05,-1357.48"/>
</g>
<!-- pixsfm -->
<g id="node11" class="node">
<title>pixsfm</title>
<g id="a_node11"><a xlink:href="https://github.com/conda-forge/pixsfm-feedstock" xlink:title="pixsfm">
<ellipse fill="#fde725" stroke="black" cx="943.89" cy="-1258" rx="44.9" ry="18"/>
<text text-anchor="middle" x="943.89" y="-1253.33" font-family="Times,serif" font-size="14.00">pixsfm</text>
</a>
</g>
</g>
<!-- flann&#45;&gt;pixsfm -->
<g id="edge6" class="edge">
<title>flann&#45;&gt;pixsfm</title>
<path fill="none" stroke="black" d="M943.89,-1383.59C943.89,-1359.5 943.89,-1315.75 943.89,-1287.03"/>
<polygon fill="black" stroke="black" points="947.39,-1287.11 943.89,-1277.11 940.39,-1287.11 947.39,-1287.11"/>
</g>
<!-- gmt -->
<g id="node12" class="node">
<title>gmt</title>
<g id="a_node12"><a xlink:href="https://github.com/conda-forge/gmt-feedstock/pull/266" xlink:title="gmt ❎">
<ellipse fill="#31688e" stroke="black" cx="1609.89" cy="-1618" rx="46.47" ry="18"/>
<text text-anchor="middle" x="1609.89" y="-1613.33" font-family="Times,serif" font-size="14.00" fill="white">gmt ❎</text>
</a>
</g>
</g>
<!-- graph -->
<g id="node13" class="node">
<title>graph</title>
<g id="a_node13"><a xlink:href="https://github.com/conda-forge/graph-feedstock/pull/10" xlink:title="graph ❎">
<ellipse fill="#31688e" stroke="black" cx="1609.89" cy="-1546" rx="55.94" ry="18"/>
<text text-anchor="middle" x="1609.89" y="-1541.33" font-family="Times,serif" font-size="14.00" fill="white">graph ❎</text>
</a>
</g>
</g>
<!-- gmt&#45;&gt;graph -->
<!-- hyperion&#45;fortran -->
<g id="node14" class="node">
<title>hyperion&#45;fortran</title>
<g id="a_node14"><a xlink:href="https://github.com/conda-forge/hyperion-fortran-feedstock" xlink:title="hyperion fortran">
<ellipse fill="#ff8c00" stroke="black" cx="1609.89" cy="-1474" rx="93.82" ry="18"/>
<text text-anchor="middle" x="1609.89" y="-1469.33" font-family="Times,serif" font-size="14.00">hyperion fortran</text>
</a>
</g>
</g>
<!-- graph&#45;&gt;hyperion&#45;fortran -->
<!-- octave -->
<g id="node15" class="node">
<title>octave</title>
<g id="a_node15"><a xlink:href="https://github.com/conda-forge/octave-feedstock" xlink:title="octave">
<ellipse fill="#ff8c00" stroke="black" cx="1609.89" cy="-1402" rx="43.84" ry="18"/>
<text text-anchor="middle" x="1609.89" y="-1397.33" font-family="Times,serif" font-size="14.00">octave</text>
</a>
</g>
</g>
<!-- hyperion&#45;fortran&#45;&gt;octave -->
<!-- pynio -->
<g id="node30" class="node">
<title>pynio</title>
<g id="a_node30"><a xlink:href="https://github.com/conda-forge/pynio-feedstock" xlink:title="pynio">
<ellipse fill="#ff8c00" stroke="black" cx="1609.89" cy="-1330" rx="38.58" ry="18"/>
<text text-anchor="middle" x="1609.89" y="-1325.33" font-family="Times,serif" font-size="14.00">pynio</text>
</a>
</g>
</g>
<!-- octave&#45;&gt;pynio -->
<!-- libmatio -->
<g id="node16" class="node">
<title>libmatio</title>
<g id="a_node16"><a xlink:href="https://github.com/conda-forge/libmatio-feedstock/pull/48" xlink:title="libmatio ✓">
<ellipse fill="#31688e" stroke="black" cx="1676.89" cy="-602" rx="60.15" ry="18"/>
<text text-anchor="middle" x="1676.89" y="-597.33" font-family="Times,serif" font-size="14.00" fill="white">libmatio ✓</text>
</a>
</g>
</g>
<!-- pytrilinos -->
<g id="node17" class="node">
<title>pytrilinos</title>
<g id="a_node17"><a xlink:href="https://github.com/conda-forge/pytrilinos-feedstock" xlink:title="pytrilinos">
<ellipse fill="#fde725" stroke="black" cx="1447.89" cy="-530" rx="59.1" ry="18"/>
<text text-anchor="middle" x="1447.89" y="-525.33" font-family="Times,serif" font-size="14.00">pytrilinos</text>
</a>
</g>
</g>
<!-- libmatio&#45;&gt;pytrilinos -->
<g id="edge10" class="edge">
<title>libmatio&#45;&gt;pytrilinos</title>
<path fill="none" stroke="black" d="M1635.95,-588.49C1597.61,-576.76 1540.17,-559.21 1498.87,-546.58"/>
<polygon fill="black" stroke="black" points="1500.06,-542.98 1489.48,-543.41 1498.02,-549.68 1500.06,-542.98"/>
</g>
<!-- trilinos -->
<g id="node18" class="node">
<title>trilinos</title>
<g id="a_node18"><a xlink:href="https://github.com/conda-forge/trilinos-feedstock" xlink:title="trilinos">
<ellipse fill="#fde725" stroke="black" cx="1571.89" cy="-530" rx="47" ry="18"/>
<text text-anchor="middle" x="1571.89" y="-525.33" font-family="Times,serif" font-size="14.00">trilinos</text>
</a>
</g>
</g>
<!-- libmatio&#45;&gt;trilinos -->
<g id="edge11" class="edge">
<title>libmatio&#45;&gt;trilinos</title>
<path fill="none" stroke="black" d="M1653.06,-585.12C1638.4,-575.34 1619.42,-562.69 1603.5,-552.08"/>
<polygon fill="black" stroke="black" points="1605.8,-548.74 1595.54,-546.1 1601.92,-554.56 1605.8,-548.74"/>
</g>
<!-- openmeeg -->
<g id="node19" class="node">
<title>openmeeg</title>
<g id="a_node19"><a xlink:href="https://github.com/conda-forge/openmeeg-feedstock" xlink:title="openmeeg">
<ellipse fill="#fde725" stroke="black" cx="1699.89" cy="-530" rx="62.78" ry="18"/>
<text text-anchor="middle" x="1699.89" y="-525.33" font-family="Times,serif" font-size="14.00">openmeeg</text>
</a>
</g>
</g>
<!-- libmatio&#45;&gt;openmeeg -->
<g id="edge12" class="edge">
<title>libmatio&#45;&gt;openmeeg</title>
<path fill="none" stroke="black" d="M1682.58,-583.7C1685.08,-576.07 1688.09,-566.92 1690.89,-558.4"/>
<polygon fill="black" stroke="black" points="1694.47,-559.7 1694.27,-549.1 1687.82,-557.51 1694.47,-559.7"/>
</g>
<!-- scilab -->
<g id="node20" class="node">
<title>scilab</title>
<g id="a_node20"><a xlink:href="https://github.com/conda-forge/scilab-feedstock" xlink:title="scilab">
<ellipse fill="#fde725" stroke="black" cx="1790.89" cy="-458" rx="40.16" ry="18"/>
<text text-anchor="middle" x="1790.89" y="-453.32" font-family="Times,serif" font-size="14.00">scilab</text>
</a>
</g>
</g>
<!-- libmatio&#45;&gt;scilab -->
<g id="edge13" class="edge">
<title>libmatio&#45;&gt;scilab</title>
<path fill="none" stroke="black" d="M1716,-588.08C1735.62,-579.65 1758.09,-566.69 1771.89,-548 1784.79,-530.53 1789.32,-506.16 1790.74,-487.33"/>
<polygon fill="black" stroke="black" points="1794.28,-487.6 1791.27,-477.44 1787.29,-487.26 1794.28,-487.6"/>
</g>
<!-- netcdf&#45;cxx4 -->
<g id="node21" class="node">
<title>netcdf&#45;cxx4</title>
<g id="a_node21"><a xlink:href="https://github.com/conda-forge/netcdf-cxx4-feedstock/pull/47" xlink:title="netcdf cxx4 ❎">
<ellipse fill="#31688e" stroke="black" cx="1491.89" cy="-602" rx="84.35" ry="18"/>
<text text-anchor="middle" x="1491.89" y="-597.33" font-family="Times,serif" font-size="14.00" fill="white">netcdf cxx4 ❎</text>
</a>
</g>
</g>
<!-- netcdf&#45;cxx4&#45;&gt;pytrilinos -->
<g id="edge14" class="edge">
<title>netcdf&#45;cxx4&#45;&gt;pytrilinos</title>
<path fill="none" stroke="black" d="M1481.01,-583.7C1476.01,-575.73 1469.95,-566.1 1464.4,-557.26"/>
<polygon fill="black" stroke="black" points="1466.93,-555.71 1458.64,-549.1 1461,-559.43 1466.93,-555.71"/>
</g>
<!-- netcdf&#45;cxx4&#45;&gt;trilinos -->
<g id="edge15" class="edge">
<title>netcdf&#45;cxx4&#45;&gt;trilinos</title>
<path fill="none" stroke="black" d="M1511.26,-584.05C1521.57,-575.03 1534.41,-563.79 1545.62,-553.99"/>
<polygon fill="black" stroke="black" points="1547.58,-556.05 1552.8,-546.83 1542.97,-550.78 1547.58,-556.05"/>
</g>
<!-- netcdf&#45;fortran -->
<g id="node22" class="node">
<title>netcdf&#45;fortran</title>
<g id="a_node22"><a xlink:href="https://github.com/conda-forge/netcdf-fortran-feedstock/pull/84" xlink:title="netcdf fortran ❎">
<ellipse fill="#31688e" stroke="black" cx="489.89" cy="-674" rx="96.45" ry="18"/>
<text text-anchor="middle" x="489.89" y="-669.33" font-family="Times,serif" font-size="14.00" fill="white">netcdf fortran ❎</text>
</a>
</g>
</g>
<!-- netcdf&#45;fortran&#45;&gt;esmf -->
<g id="edge16" class="edge">
<title>netcdf&#45;fortran&#45;&gt;esmf</title>
<path fill="none" stroke="black" d="M448.82,-657.25C421.37,-646.72 384.46,-632.55 351.89,-620 349.8,-619.2 347.66,-618.37 345.49,-617.53"/>
<polygon fill="black" stroke="black" points="346.94,-613.95 336.35,-613.62 344.42,-620.48 346.94,-613.95"/>
</g>
<!-- siesta -->
<g id="node23" class="node">
<title>siesta</title>
<g id="a_node23"><a xlink:href="https://github.com/conda-forge/siesta-feedstock" xlink:title="siesta">
<ellipse fill="#fde725" stroke="black" cx="401.89" cy="-602" rx="40.69" ry="18"/>
<text text-anchor="middle" x="401.89" y="-597.33" font-family="Times,serif" font-size="14.00">siesta</text>
</a>
</g>
</g>
<!-- netcdf&#45;fortran&#45;&gt;siesta -->
<g id="edge17" class="edge">
<title>netcdf&#45;fortran&#45;&gt;siesta</title>
<path fill="none" stroke="black" d="M468.59,-656.05C456.77,-646.65 441.94,-634.86 429.27,-624.78"/>
<polygon fill="black" stroke="black" points="431.91,-621.61 421.9,-618.12 427.55,-627.09 431.91,-621.61"/>
</g>
<!-- mpas_tools -->
<g id="node24" class="node">
<title>mpas_tools</title>
<g id="a_node24"><a xlink:href="https://github.com/conda-forge/mpas_tools-feedstock" xlink:title="mpas_tools">
<ellipse fill="#fde725" stroke="black" cx="669.89" cy="-602" rx="66.99" ry="18"/>
<text text-anchor="middle" x="669.89" y="-597.33" font-family="Times,serif" font-size="14.00">mpas_tools</text>
</a>
</g>
</g>
<!-- netcdf&#45;fortran&#45;&gt;mpas_tools -->
<g id="edge18" class="edge">
<title>netcdf&#45;fortran&#45;&gt;mpas_tools</title>
<path fill="none" stroke="black" d="M530.29,-657.29C557.7,-646.63 594.05,-632.49 622.79,-621.32"/>
<polygon fill="black" stroke="black" points="623.95,-624.23 632,-617.35 621.41,-617.71 623.95,-624.23"/>
</g>
<!-- abinit -->
<g id="node25" class="node">
<title>abinit</title>
<g id="a_node25"><a xlink:href="https://github.com/conda-forge/abinit-feedstock" xlink:title="abinit">
<ellipse fill="#fde725" stroke="black" cx="440.89" cy="-530" rx="40.16" ry="18"/>
<text text-anchor="middle" x="440.89" y="-525.33" font-family="Times,serif" font-size="14.00">abinit</text>
</a>
</g>
</g>
<!-- netcdf&#45;fortran&#45;&gt;abinit -->
<g id="edge19" class="edge">
<title>netcdf&#45;fortran&#45;&gt;abinit</title>
<path fill="none" stroke="black" d="M483.88,-655.59C475.5,-631.29 460.21,-586.97 450.3,-558.27"/>
<polygon fill="black" stroke="black" points="453.37,-557.42 446.8,-549.11 446.75,-559.71 453.37,-557.42"/>
</g>
<!-- fates&#45;emerald -->
<g id="node26" class="node">
<title>fates&#45;emerald</title>
<g id="a_node26"><a xlink:href="https://github.com/conda-forge/fates-emerald-feedstock" xlink:title="fates emerald">
<ellipse fill="#fde725" stroke="black" cx="466.89" cy="-458" rx="80.14" ry="18"/>
<text text-anchor="middle" x="466.89" y="-453.32" font-family="Times,serif" font-size="14.00">fates emerald</text>
</a>
</g>
</g>
<!-- netcdf&#45;fortran&#45;&gt;fates&#45;emerald -->
<g id="edge20" class="edge">
<title>netcdf&#45;fortran&#45;&gt;fates&#45;emerald</title>
<path fill="none" stroke="black" d="M492.15,-655.85C495.57,-626.16 500.57,-563.45 489.89,-512 488.06,-503.16 484.67,-493.99 481.05,-485.8"/>
<polygon fill="black" stroke="black" points="483.88,-484.61 476.43,-477.07 477.55,-487.61 483.88,-484.61"/>
</g>
<!-- yambo -->
<g id="node27" class="node">
<title>yambo</title>
<g id="a_node27"><a xlink:href="https://github.com/conda-forge/yambo-feedstock" xlink:title="yambo">
<ellipse fill="#fde725" stroke="black" cx="574.89" cy="-386" rx="44.37" ry="18"/>
<text text-anchor="middle" x="574.89" y="-381.32" font-family="Times,serif" font-size="14.00">yambo</text>
</a>
</g>
</g>
<!-- netcdf&#45;fortran&#45;&gt;yambo -->
<g id="edge21" class="edge">
<title>netcdf&#45;fortran&#45;&gt;yambo</title>
<path fill="none" stroke="black" d="M496.6,-655.9C500.6,-645.55 505.69,-632.07 509.89,-620 531.98,-556.55 538.63,-540.93 555.89,-476 561.28,-455.71 566.2,-432.5 569.68,-414.87"/>
<polygon fill="black" stroke="black" points="573.28,-415.66 571.75,-405.18 566.41,-414.33 573.28,-415.66"/>
</g>
<!-- netcdf4 -->
<g id="node28" class="node">
<title>netcdf4</title>
<g id="a_node28"><a xlink:href="https://github.com/conda-forge/netcdf4-feedstock/pull/157" xlink:title="netcdf4 ❎">
<ellipse fill="#31688e" stroke="black" cx="680.89" cy="-674" rx="64.36" ry="18"/>
<text text-anchor="middle" x="680.89" y="-669.33" font-family="Times,serif" font-size="14.00" fill="white">netcdf4 ❎</text>
</a>
</g>
</g>
<!-- netcdf4&#45;&gt;mpas_tools -->
<g id="edge22" class="edge">
<title>netcdf4&#45;&gt;mpas_tools</title>
<path fill="none" stroke="black" d="M678.17,-655.7C677,-648.24 675.6,-639.32 674.29,-630.97"/>
<polygon fill="black" stroke="black" points="677.59,-630.44 672.58,-621.1 670.67,-631.53 677.59,-630.44"/>
</g>
<!-- cmor -->
<g id="node29" class="node">
<title>cmor</title>
<g id="a_node29"><a xlink:href="https://github.com/conda-forge/cmor-feedstock" xlink:title="cmor">
<ellipse fill="#fde725" stroke="black" cx="790.89" cy="-602" rx="36.48" ry="18"/>
<text text-anchor="middle" x="790.89" y="-597.33" font-family="Times,serif" font-size="14.00">cmor</text>
</a>
</g>
</g>
<!-- netcdf4&#45;&gt;cmor -->
<g id="edge23" class="edge">
<title>netcdf4&#45;&gt;cmor</title>
<path fill="none" stroke="black" d="M705.85,-657.12C722,-646.84 743.14,-633.39 760.3,-622.47"/>
<polygon fill="black" stroke="black" points="761.81,-625.02 768.37,-616.7 758.05,-619.11 761.81,-625.02"/>
</g>
<!-- yaafe -->
<g id="node34" class="node">
<title>yaafe</title>
<g id="a_node34"><a xlink:href="https://github.com/conda-forge/yaafe-feedstock/pull/24" xlink:title="yaafe ❎">
<ellipse fill="#31688e" stroke="black" cx="1609.89" cy="-1258" rx="53.31" ry="18"/>
<text text-anchor="middle" x="1609.89" y="-1253.33" font-family="Times,serif" font-size="14.00" fill="white">yaafe ❎</text>
</a>
</g>
</g>
<!-- pynio&#45;&gt;yaafe -->
<!-- openmc -->
<g id="node31" class="node">
<title>openmc</title>
<g id="a_node31"><a xlink:href="https://github.com/conda-forge/openmc-feedstock" xlink:title="openmc">
<ellipse fill="#ff8c00" stroke="black" cx="1304.89" cy="-126" rx="50.16" ry="18"/>
<text text-anchor="middle" x="1304.89" y="-121.33" font-family="Times,serif" font-size="14.00">openmc</text>
</a>
</g>
</g>
<!-- pyne -->
<g id="node32" class="node">
<title>pyne</title>
<g id="a_node32"><a xlink:href="https://github.com/conda-forge/pyne-feedstock" xlink:title="pyne">
<ellipse fill="#fde725" stroke="black" cx="1283.89" cy="-54" rx="35.42" ry="18"/>
<text text-anchor="middle" x="1283.89" y="-49.33" font-family="Times,serif" font-size="14.00">pyne</text>
</a>
</g>
</g>
<!-- openmc&#45;&gt;pyne -->
<g id="edge25" class="edge">
<title>openmc&#45;&gt;pyne</title>
<path fill="none" stroke="black" d="M1299.7,-107.7C1297.41,-100.07 1294.67,-90.92 1292.11,-82.4"/>
<polygon fill="black" stroke="black" points="1295.25,-81.68 1289.02,-73.1 1288.54,-83.69 1295.25,-81.68"/>
</g>
<!-- paraview -->
<g id="node33" class="node">
<title>paraview</title>
<g id="a_node33"><a xlink:href="https://github.com/conda-forge/paraview-feedstock" xlink:title="paraview">
<ellipse fill="#fde725" stroke="black" cx="495.89" cy="-90" rx="57" ry="18"/>
<text text-anchor="middle" x="495.89" y="-85.33" font-family="Times,serif" font-size="14.00">paraview</text>
</a>
</g>
</g>
<!-- numcosmo -->
<g id="node36" class="node">
<title>numcosmo</title>
<g id="a_node36"><a xlink:href="https://github.com/conda-forge/numcosmo-feedstock/pull/39" xlink:title="numcosmo ✓">
<ellipse fill="#31688e" stroke="black" cx="1609.89" cy="-1186" rx="72.78" ry="18"/>
<text text-anchor="middle" x="1609.89" y="-1181.33" font-family="Times,serif" font-size="14.00" fill="white">numcosmo ✓</text>
</a>
</g>
</g>
<!-- yaafe&#45;&gt;numcosmo -->
<!-- pytables -->
<g id="node35" class="node">
<title>pytables</title>
<g id="a_node35"><a xlink:href="https://github.com/conda-forge/pytables-feedstock/pull/89" xlink:title="pytables ❎">
<ellipse fill="#31688e" stroke="black" cx="1167.89" cy="-126" rx="69.1" ry="18"/>
<text text-anchor="middle" x="1167.89" y="-121.33" font-family="Times,serif" font-size="14.00" fill="white">pytables ❎</text>
</a>
</g>
</g>
<!-- pytables&#45;&gt;cyclus -->
<g id="edge27" class="edge">
<title>pytables&#45;&gt;cyclus</title>
<path fill="none" stroke="black" d="M1167.89,-107.7C1167.89,-100.24 1167.89,-91.32 1167.89,-82.97"/>
<polygon fill="black" stroke="black" points="1171.39,-83.1 1167.89,-73.1 1164.39,-83.1 1171.39,-83.1"/>
</g>
<!-- pytables&#45;&gt;pyne -->
<g id="edge28" class="edge">
<title>pytables&#45;&gt;pyne</title>
<path fill="none" stroke="black" d="M1194.5,-108.94C1211.82,-98.49 1234.48,-84.82 1252.65,-73.85"/>
<polygon fill="black" stroke="black" points="1253.93,-76.56 1260.69,-68.4 1250.32,-70.57 1253.93,-76.56"/>
</g>
<!-- lammps -->
<g id="node45" class="node">
<title>lammps</title>
<g id="a_node45"><a xlink:href="https://github.com/conda-forge/lammps-feedstock" xlink:title="lammps">
<ellipse fill="#000000" stroke="black" cx="1609.89" cy="-1114" rx="50.68" ry="18"/>
<text text-anchor="middle" x="1609.89" y="-1109.33" font-family="Times,serif" font-size="14.00" fill="white">lammps</text>
</a>
</g>
</g>
<!-- numcosmo&#45;&gt;lammps -->
<!-- vtk -->
<g id="node37" class="node">
<title>vtk</title>
<g id="a_node37"><a xlink:href="https://github.com/conda-forge/vtk-feedstock/pull/305" xlink:title="vtk ✓">
<ellipse fill="#31688e" stroke="black" cx="591.89" cy="-1402" rx="34.9" ry="18"/>
<text text-anchor="middle" x="591.89" y="-1397.33" font-family="Times,serif" font-size="14.00" fill="white">vtk ✓</text>
</a>
</g>
</g>
<!-- vtk&#45;&gt;fenics&#45;dolfinx -->
<g id="edge30" class="edge">
<title>vtk&#45;&gt;fenics&#45;dolfinx</title>
<path fill="none" stroke="black" d="M576.55,-1385.77C552.13,-1361.65 506.2,-1316.87 496.89,-1312 488.85,-1307.79 387.97,-1286.87 317.65,-1272.61"/>
<polygon fill="black" stroke="black" points="318.58,-1269.02 308.08,-1270.47 317.19,-1275.88 318.58,-1269.02"/>
</g>
<!-- vtk&#45;&gt;freecad -->
<g id="edge31" class="edge">
<title>vtk&#45;&gt;freecad</title>
<path fill="none" stroke="black" d="M623.19,-1393.37C664.59,-1383.23 739.82,-1364.65 803.89,-1348 808.52,-1346.8 813.33,-1345.53 818.15,-1344.25"/>
<polygon fill="black" stroke="black" points="818.85,-1347.42 827.61,-1341.45 817.04,-1340.65 818.85,-1347.42"/>
</g>
<!-- ifcopenshell -->
<g id="node38" class="node">
<title>ifcopenshell</title>
<g id="a_node38"><a xlink:href="https://github.com/conda-forge/ifcopenshell-feedstock" xlink:title="ifcopenshell">
<ellipse fill="#fde725" stroke="black" cx="690.89" cy="-1330" rx="71.2" ry="18"/>
<text text-anchor="middle" x="690.89" y="-1325.33" font-family="Times,serif" font-size="14.00">ifcopenshell</text>
</a>
</g>
</g>
<!-- vtk&#45;&gt;ifcopenshell -->
<g id="edge32" class="edge">
<title>vtk&#45;&gt;ifcopenshell</title>
<path fill="none" stroke="black" d="M611.92,-1386.83C625.43,-1377.28 643.54,-1364.48 659.01,-1353.54"/>
<polygon fill="black" stroke="black" points="660.62,-1355.99 666.76,-1347.35 656.58,-1350.27 660.62,-1355.99"/>
</g>
<!-- bonsu -->
<g id="node39" class="node">
<title>bonsu</title>
<g id="a_node39"><a xlink:href="https://github.com/conda-forge/bonsu-feedstock" xlink:title="bonsu">
<ellipse fill="#fde725" stroke="black" cx="789.89" cy="-1258" rx="41.21" ry="18"/>
<text text-anchor="middle" x="789.89" y="-1253.33" font-family="Times,serif" font-size="14.00">bonsu</text>
</a>
</g>
</g>
<!-- vtk&#45;&gt;bonsu -->
<g id="edge33" class="edge">
<title>vtk&#45;&gt;bonsu</title>
<path fill="none" stroke="black" d="M626.97,-1400.73C667.6,-1398.42 733.69,-1388.2 770.89,-1348 785.89,-1331.79 790.17,-1306.75 790.97,-1287.35"/>
<polygon fill="black" stroke="black" points="794.48,-1287.45 791.09,-1277.41 787.48,-1287.38 794.48,-1287.45"/>
</g>
<!-- esys&#45;escript -->
<g id="node40" class="node">
<title>esys&#45;escript</title>
<g id="a_node40"><a xlink:href="https://github.com/conda-forge/esys-escript-feedstock" xlink:title="esys escript">
<ellipse fill="#fde725" stroke="black" cx="492.89" cy="-1186" rx="71.2" ry="18"/>
<text text-anchor="middle" x="492.89" y="-1181.33" font-family="Times,serif" font-size="14.00">esys escript</text>
</a>
</g>
</g>
<!-- vtk&#45;&gt;esys&#45;escript -->
<g id="edge34" class="edge">
<title>vtk&#45;&gt;esys&#45;escript</title>
<path fill="none" stroke="black" d="M584.12,-1384.21C567.07,-1347.36 526.25,-1259.11 505.48,-1214.22"/>
<polygon fill="black" stroke="black" points="508.27,-1212.91 500.9,-1205.31 501.92,-1215.85 508.27,-1212.91"/>
</g>
<!-- damask -->
<g id="node41" class="node">
<title>damask</title>
<g id="a_node41"><a xlink:href="https://github.com/conda-forge/damask-feedstock" xlink:title="damask">
<ellipse fill="#fde725" stroke="black" cx="437.89" cy="-1330" rx="49.63" ry="18"/>
<text text-anchor="middle" x="437.89" y="-1325.33" font-family="Times,serif" font-size="14.00">damask</text>
</a>
</g>
</g>
<!-- vtk&#45;&gt;damask -->
<g id="edge35" class="edge">
<title>vtk&#45;&gt;damask</title>
<path fill="none" stroke="black" d="M566.46,-1389.44C542.42,-1378.51 505.96,-1361.94 478,-1349.23"/>
<polygon fill="black" stroke="black" points="479.67,-1345.69 469.12,-1344.74 476.78,-1352.07 479.67,-1345.69"/>
</g>
<!-- pycgns -->
<g id="node42" class="node">
<title>pycgns</title>
<g id="a_node42"><a xlink:href="https://github.com/conda-forge/pycgns-feedstock" xlink:title="pycgns">
<ellipse fill="#fde725" stroke="black" cx="591.89" cy="-1114" rx="46.47" ry="18"/>
<text text-anchor="middle" x="591.89" y="-1109.33" font-family="Times,serif" font-size="14.00">pycgns</text>
</a>
</g>
</g>
<!-- vtk&#45;&gt;pycgns -->
<g id="edge36" class="edge">
<title>vtk&#45;&gt;pycgns</title>
<path fill="none" stroke="black" d="M591.89,-1383.54C591.89,-1335.56 591.89,-1201.39 591.89,-1142.88"/>
<polygon fill="black" stroke="black" points="595.39,-1143.23 591.89,-1133.23 588.39,-1143.23 595.39,-1143.23"/>
</g>
<!-- petsc -->
<g id="node43" class="node">
<title>petsc</title>
<g id="a_node43"><a xlink:href="https://github.com/conda-forge/petsc-feedstock/pull/166" xlink:title="petsc ✓">
<ellipse fill="#31688e" stroke="black" cx="340.89" cy="-1402" rx="45.95" ry="18"/>
<text text-anchor="middle" x="340.89" y="-1397.33" font-family="Times,serif" font-size="14.00" fill="white">petsc ✓</text>
</a>
</g>
</g>
<!-- petsc&#45;&gt;fenics -->
<g id="edge37" class="edge">
<title>petsc&#45;&gt;fenics</title>
<path fill="none" stroke="black" d="M321.36,-1385.46C309.31,-1375.88 293.68,-1363.45 280.39,-1352.88"/>
<polygon fill="black" stroke="black" points="283.07,-1349.74 273.06,-1346.25 278.71,-1355.22 283.07,-1349.74"/>
</g>
<!-- petsc&#45;&gt;fenics&#45;dolfinx -->
<g id="edge38" class="edge">
<title>petsc&#45;&gt;fenics&#45;dolfinx</title>
<path fill="none" stroke="black" d="M335.67,-1383.62C329.58,-1364.93 318.32,-1334.83 302.89,-1312 295.92,-1301.68 286.75,-1291.67 278,-1283.18"/>
<polygon fill="black" stroke="black" points="280.86,-1281.12 271.17,-1276.85 276.08,-1286.23 280.86,-1281.12"/>
</g>
<!-- petsc&#45;&gt;damask -->
<g id="edge39" class="edge">
<title>petsc&#45;&gt;damask</title>
<path fill="none" stroke="black" d="M361.94,-1385.81C375.23,-1376.22 392.62,-1363.67 407.4,-1353"/>
<polygon fill="black" stroke="black" points="409.15,-1355.33 415.21,-1346.64 405.06,-1349.66 409.15,-1355.33"/>
</g>
<!-- proteus -->
<g id="node44" class="node">
<title>proteus</title>
<g id="a_node44"><a xlink:href="https://github.com/conda-forge/proteus-feedstock" xlink:title="proteus">
<ellipse fill="#fde725" stroke="black" cx="394.89" cy="-1258" rx="49.63" ry="18"/>
<text text-anchor="middle" x="394.89" y="-1253.33" font-family="Times,serif" font-size="14.00">proteus</text>
</a>
</g>
</g>
<!-- petsc&#45;&gt;proteus -->
<g id="edge40" class="edge">
<title>petsc&#45;&gt;proteus</title>
<path fill="none" stroke="black" d="M347.4,-1383.87C356.61,-1359.67 373.51,-1315.21 384.47,-1286.39"/>
<polygon fill="black" stroke="black" points="388.07,-1287.78 388.35,-1277.19 381.53,-1285.29 388.07,-1287.78"/>
</g>
<!-- lal -->
<g id="node48" class="node">
<title>lal</title>
<g id="a_node48"><a xlink:href="https://github.com/conda-forge/lal-feedstock/pull/90" xlink:title="lal ✓">
<ellipse fill="#31688e" stroke="black" cx="1609.89" cy="-1042" rx="31.22" ry="18"/>
<text text-anchor="middle" x="1609.89" y="-1037.33" font-family="Times,serif" font-size="14.00" fill="white">lal ✓</text>
</a>
</g>
</g>
<!-- lammps&#45;&gt;lal -->
<!-- libmed -->
<g id="node46" class="node">
<title>libmed</title>
<g id="a_node46"><a xlink:href="https://github.com/conda-forge/libmed-feedstock/pull/43" xlink:title="libmed ❎">
<ellipse fill="#31688e" stroke="black" cx="1609.89" cy="-126" rx="60.68" ry="18"/>
<text text-anchor="middle" x="1609.89" y="-121.33" font-family="Times,serif" font-size="14.00" fill="white">libmed ❎</text>
</a>
</g>
</g>
<!-- code&#45;aster -->
<g id="node47" class="node">
<title>code&#45;aster</title>
<g id="a_node47"><a xlink:href="https://github.com/conda-forge/code-aster-feedstock" xlink:title="code aster">
<ellipse fill="#fde725" stroke="black" cx="1609.89" cy="-54" rx="63.31" ry="18"/>
<text text-anchor="middle" x="1609.89" y="-49.33" font-family="Times,serif" font-size="14.00">code aster</text>
</a>
</g>
</g>
<!-- libmed&#45;&gt;code&#45;aster -->
<g id="edge42" class="edge">
<title>libmed&#45;&gt;code&#45;aster</title>
<path fill="none" stroke="black" d="M1609.89,-107.7C1609.89,-100.24 1609.89,-91.32 1609.89,-82.97"/>
<polygon fill="black" stroke="black" points="1613.39,-83.1 1609.89,-73.1 1606.39,-83.1 1613.39,-83.1"/>
</g>
<!-- blosc&#45;hdf5&#45;plugin -->
<g id="node50" class="node">
<title>blosc&#45;hdf5&#45;plugin</title>
<g id="a_node50"><a xlink:href="https://github.com/conda-forge/blosc-hdf5-plugin-feedstock/pull/10" xlink:title="blosc hdf5 plugin ✓">
<ellipse fill="#31688e" stroke="black" cx="1609.89" cy="-970" rx="105.4" ry="18"/>
<text text-anchor="middle" x="1609.89" y="-965.33" font-family="Times,serif" font-size="14.00" fill="white">blosc hdf5 plugin ✓</text>
</a>
</g>
</g>
<!-- lal&#45;&gt;blosc&#45;hdf5&#45;plugin -->
<!-- openpmd&#45;api -->
<g id="node49" class="node">
<title>openpmd&#45;api</title>
<g id="a_node49"><a xlink:href="https://github.com/conda-forge/openpmd-api-feedstock" xlink:title="openpmd api">
<ellipse fill="#fde725" stroke="black" cx="137.89" cy="-1186" rx="75.94" ry="18"/>
<text text-anchor="middle" x="137.89" y="-1181.33" font-family="Times,serif" font-size="14.00">openpmd api</text>
</a>
</g>
</g>
<!-- nest&#45;simulator -->
<g id="node51" class="node">
<title>nest&#45;simulator</title>
<g id="a_node51"><a xlink:href="https://github.com/conda-forge/nest-simulator-feedstock" xlink:title="nest simulator">
<ellipse fill="#000000" stroke="black" cx="1609.89" cy="-898" rx="83.83" ry="18"/>
<text text-anchor="middle" x="1609.89" y="-893.33" font-family="Times,serif" font-size="14.00" fill="white">nest simulator</text>
</a>
</g>
</g>
<!-- blosc&#45;hdf5&#45;plugin&#45;&gt;nest&#45;simulator -->
<!-- isce2 -->
<g id="node52" class="node">
<title>isce2</title>
<g id="a_node52"><a xlink:href="https://github.com/conda-forge/isce2-feedstock/pull/65" xlink:title="isce2 ❎">
<ellipse fill="#31688e" stroke="black" cx="1226.89" cy="-1618" rx="52.26" ry="18"/>
<text text-anchor="middle" x="1226.89" y="-1613.33" font-family="Times,serif" font-size="14.00" fill="white">isce2 ❎</text>
</a>
</g>
</g>
<!-- bitshuffle -->
<g id="node53" class="node">
<title>bitshuffle</title>
<g id="a_node53"><a xlink:href="https://github.com/conda-forge/bitshuffle-feedstock/pull/39" xlink:title="bitshuffle ❎">
<ellipse fill="#31688e" stroke="black" cx="1226.89" cy="-1546" rx="73.83" ry="18"/>
<text text-anchor="middle" x="1226.89" y="-1541.33" font-family="Times,serif" font-size="14.00" fill="white">bitshuffle ❎</text>
</a>
</g>
</g>
<!-- isce2&#45;&gt;bitshuffle -->
<!-- dakota -->
<g id="node54" class="node">
<title>dakota</title>
<g id="a_node54"><a xlink:href="https://github.com/conda-forge/dakota-feedstock" xlink:title="dakota">
<ellipse fill="#ff8c00" stroke="black" cx="1226.89" cy="-1474" rx="44.9" ry="18"/>
<text text-anchor="middle" x="1226.89" y="-1469.33" font-family="Times,serif" font-size="14.00">dakota</text>
</a>
</g>
</g>
<!-- bitshuffle&#45;&gt;dakota -->
<!-- hdf5&#45;external&#45;filter&#45;plugins -->
<g id="node58" class="node">
<title>hdf5&#45;external&#45;filter&#45;plugins</title>
<g id="a_node58"><a xlink:href="https://github.com/conda-forge/hdf5-external-filter-plugins-feedstock/pull/22" xlink:title="hdf5 external filter plugins ✓">
<ellipse fill="#31688e" stroke="black" cx="1226.89" cy="-1402" rx="153.8" ry="18"/>
<text text-anchor="middle" x="1226.89" y="-1397.33" font-family="Times,serif" font-size="14.00" fill="white">hdf5 external filter plugins ✓</text>
</a>
</g>
</g>
<!-- dakota&#45;&gt;hdf5&#45;external&#45;filter&#45;plugins -->
<!-- adios2 -->
<g id="node55" class="node">
<title>adios2</title>
<g id="a_node55"><a xlink:href="https://github.com/conda-forge/adios2-feedstock/pull/80" xlink:title="adios2 ❎">
<ellipse fill="#31688e" stroke="black" cx="134.89" cy="-1330" rx="59.1" ry="18"/>
<text text-anchor="middle" x="134.89" y="-1325.33" font-family="Times,serif" font-size="14.00" fill="white">adios2 ❎</text>
</a>
</g>
</g>
<!-- adios2&#45;&gt;casacore -->
<g id="edge48" class="edge">
<title>adios2&#45;&gt;casacore</title>
<path fill="none" stroke="black" d="M116.34,-1312.76C106.01,-1303.73 92.98,-1292.33 81.58,-1282.35"/>
<polygon fill="black" stroke="black" points="84.45,-1279.34 74.62,-1275.39 79.84,-1284.61 84.45,-1279.34"/>
</g>
<!-- adios2&#45;&gt;fenics&#45;dolfinx -->
<g id="edge49" class="edge">
<title>adios2&#45;&gt;fenics&#45;dolfinx</title>
<path fill="none" stroke="black" d="M160.41,-1313.46C176.16,-1303.88 196.59,-1291.44 213.96,-1280.87"/>
<polygon fill="black" stroke="black" points="215.52,-1283.41 222.24,-1275.22 211.88,-1277.43 215.52,-1283.41"/>
</g>
<!-- adios2&#45;&gt;openpmd&#45;api -->
<g id="edge50" class="edge">
<title>adios2&#45;&gt;openpmd&#45;api</title>
<path fill="none" stroke="black" d="M135.26,-1311.59C135.77,-1287.5 136.69,-1243.75 137.3,-1215.03"/>
<polygon fill="black" stroke="black" points="140.82,-1215.18 137.53,-1205.11 133.82,-1215.03 140.82,-1215.18"/>
</g>
<!-- cgns -->
<g id="node56" class="node">
<title>cgns</title>
<g id="a_node56"><a xlink:href="https://github.com/conda-forge/cgns-feedstock/pull/31" xlink:title="cgns ✓">
<ellipse fill="#31688e" stroke="black" cx="537.89" cy="-162" rx="42.26" ry="18"/>
<text text-anchor="middle" x="537.89" y="-157.32" font-family="Times,serif" font-size="14.00" fill="white">cgns ✓</text>
</a>
</g>
</g>
<!-- cgns&#45;&gt;paraview -->
<g id="edge51" class="edge">
<title>cgns&#45;&gt;paraview</title>
<path fill="none" stroke="black" d="M527.72,-144.05C522.87,-135.97 516.96,-126.12 511.56,-117.11"/>
<polygon fill="black" stroke="black" points="514.11,-115.56 505.96,-108.79 508.11,-119.16 514.11,-115.56"/>
</g>
<!-- tomviz -->
<g id="node57" class="node">
<title>tomviz</title>
<g id="a_node57"><a xlink:href="https://github.com/conda-forge/tomviz-feedstock" xlink:title="tomviz">
<ellipse fill="#fde725" stroke="black" cx="580.89" cy="-18" rx="44.9" ry="18"/>
<text text-anchor="middle" x="580.89" y="-13.32" font-family="Times,serif" font-size="14.00">tomviz</text>
</a>
</g>
</g>
<!-- cgns&#45;&gt;tomviz -->
<g id="edge52" class="edge">
<title>cgns&#45;&gt;tomviz</title>
<path fill="none" stroke="black" d="M546.63,-144.19C551.66,-133.95 557.79,-120.47 561.89,-108 568.45,-88.06 573.32,-64.83 576.49,-47.11"/>
<polygon fill="black" stroke="black" points="580.09,-47.8 578.32,-37.35 573.19,-46.62 580.09,-47.8"/>
</g>
<!-- ecell4_base -->
<g id="node59" class="node">
<title>ecell4_base</title>
<g id="a_node59"><a xlink:href="https://github.com/conda-forge/ecell4_base-feedstock/pull/24" xlink:title="ecell4_base ❎">
<ellipse fill="#31688e" stroke="black" cx="1226.89" cy="-1330" rx="83.83" ry="18"/>
<text text-anchor="middle" x="1226.89" y="-1325.33" font-family="Times,serif" font-size="14.00" fill="white">ecell4_base ❎</text>
</a>
</g>
</g>
<!-- hdf5&#45;external&#45;filter&#45;plugins&#45;&gt;ecell4_base -->
<!-- gwollum -->
<g id="node60" class="node">
<title>gwollum</title>
<g id="a_node60"><a xlink:href="https://github.com/conda-forge/gwollum-feedstock" xlink:title="gwollum">
<ellipse fill="#ff8c00" stroke="black" cx="1226.89" cy="-1258" rx="53.84" ry="18"/>
<text text-anchor="middle" x="1226.89" y="-1253.33" font-family="Times,serif" font-size="14.00">gwollum</text>
</a>
</g>
</g>
<!-- ecell4_base&#45;&gt;gwollum -->
<!-- nccmp -->
<g id="node61" class="node">
<title>nccmp</title>
<g id="a_node61"><a xlink:href="https://github.com/conda-forge/nccmp-feedstock/pull/19" xlink:title="nccmp ✓">
<ellipse fill="#31688e" stroke="black" cx="1226.89" cy="-1186" rx="51.74" ry="18"/>
<text text-anchor="middle" x="1226.89" y="-1181.33" font-family="Times,serif" font-size="14.00" fill="white">nccmp ✓</text>
</a>
</g>
</g>
<!-- gwollum&#45;&gt;nccmp -->
<!-- mbsolve -->
<g id="node62" class="node">
<title>mbsolve</title>
<g id="a_node62"><a xlink:href="https://github.com/conda-forge/mbsolve-feedstock/pull/16" xlink:title="mbsolve ❎">
<ellipse fill="#31688e" stroke="black" cx="1226.89" cy="-1114" rx="68.04" ry="18"/>
<text text-anchor="middle" x="1226.89" y="-1109.33" font-family="Times,serif" font-size="14.00" fill="white">mbsolve ❎</text>
</a>
</g>
</g>
<!-- nccmp&#45;&gt;mbsolve -->
<!-- qe -->
<g id="node63" class="node">
<title>qe</title>
<g id="a_node63"><a xlink:href="https://github.com/conda-forge/qe-feedstock/pull/43" xlink:title="qe ❎">
<ellipse fill="#31688e" stroke="black" cx="1226.89" cy="-1042" rx="38.58" ry="18"/>
<text text-anchor="middle" x="1226.89" y="-1037.33" font-family="Times,serif" font-size="14.00" fill="white">qe ❎</text>
</a>
</g>
</g>
<!-- mbsolve&#45;&gt;qe -->
<!-- pp&#45;sketchlib -->
<g id="node64" class="node">
<title>pp&#45;sketchlib</title>
<g id="a_node64"><a xlink:href="https://github.com/conda-forge/pp-sketchlib-feedstock" xlink:title="pp sketchlib">
<ellipse fill="#ff8c00" stroke="black" cx="1226.89" cy="-970" rx="72.25" ry="18"/>
<text text-anchor="middle" x="1226.89" y="-965.33" font-family="Times,serif" font-size="14.00">pp sketchlib</text>
</a>
</g>
</g>
<!-- qe&#45;&gt;pp&#45;sketchlib -->
<!-- mdal -->
<g id="node65" class="node">
<title>mdal</title>
<g id="a_node65"><a xlink:href="https://github.com/conda-forge/mdal-feedstock/pull/47" xlink:title="mdal ❎">
<ellipse fill="#31688e" stroke="black" cx="1226.89" cy="-898" rx="51.21" ry="18"/>
<text text-anchor="middle" x="1226.89" y="-893.33" font-family="Times,serif" font-size="14.00" fill="white">mdal ❎</text>
</a>
</g>
</g>
<!-- pp&#45;sketchlib&#45;&gt;mdal -->
<!-- muq -->
<g id="node66" class="node">
<title>muq</title>
<g id="a_node66"><a xlink:href="https://github.com/conda-forge/muq-feedstock/pull/33" xlink:title="muq ❎">
<ellipse fill="#31688e" stroke="black" cx="1226.89" cy="-854" rx="48.58" ry="18"/>
<text text-anchor="middle" x="1226.89" y="-849.33" font-family="Times,serif" font-size="14.00" fill="white">muq ❎</text>
</a>
</g>
</g>
<!-- sirius -->
<g id="node67" class="node">
<title>sirius</title>
<g id="a_node67"><a xlink:href="https://github.com/conda-forge/sirius-feedstock/pull/22" xlink:title="sirius ❎">
<ellipse fill="#31688e" stroke="black" cx="1226.89" cy="-782" rx="54.36" ry="18"/>
<text text-anchor="middle" x="1226.89" y="-777.33" font-family="Times,serif" font-size="14.00" fill="white">sirius ❎</text>
</a>
</g>
</g>
<!-- muq&#45;&gt;sirius -->
<!-- bmad -->
<g id="node68" class="node">
<title>bmad</title>
<g id="a_node68"><a xlink:href="https://github.com/conda-forge/bmad-feedstock/pull/266" xlink:title="bmad ✓">
<ellipse fill="#31688e" stroke="black" cx="1226.89" cy="-710" rx="47" ry="18"/>
<text text-anchor="middle" x="1226.89" y="-705.33" font-family="Times,serif" font-size="14.00" fill="white">bmad ✓</text>
</a>
</g>
</g>
<!-- sirius&#45;&gt;bmad -->
<!-- readdy -->
<g id="node69" class="node">
<title>readdy</title>
<g id="a_node69"><a xlink:href="https://github.com/conda-forge/readdy-feedstock/pull/12" xlink:title="readdy ❎">
<ellipse fill="#31688e" stroke="black" cx="1226.89" cy="-638" rx="61.2" ry="18"/>
<text text-anchor="middle" x="1226.89" y="-633.33" font-family="Times,serif" font-size="14.00" fill="white">readdy ❎</text>
</a>
</g>
</g>
<!-- bmad&#45;&gt;readdy -->
<!-- dxtbx -->
<g id="node70" class="node">
<title>dxtbx</title>
<g id="a_node70"><a xlink:href="https://github.com/conda-forge/dxtbx-feedstock/pull/49" xlink:title="dxtbx ✓">
<ellipse fill="#31688e" stroke="black" cx="1226.89" cy="-566" rx="47.53" ry="18"/>
<text text-anchor="middle" x="1226.89" y="-561.33" font-family="Times,serif" font-size="14.00" fill="white">dxtbx ✓</text>
</a>
</g>
</g>
<!-- readdy&#45;&gt;dxtbx -->
<!-- trexio -->
<g id="node71" class="node">
<title>trexio</title>
<g id="a_node71"><a xlink:href="https://github.com/conda-forge/trexio-feedstock/pull/10" xlink:title="trexio ✓">
<ellipse fill="#31688e" stroke="black" cx="1226.89" cy="-494" rx="48.58" ry="18"/>
<text text-anchor="middle" x="1226.89" y="-489.32" font-family="Times,serif" font-size="14.00" fill="white">trexio ✓</text>
</a>
</g>
</g>
<!-- dxtbx&#45;&gt;trexio -->
<!-- freefem -->
<g id="node72" class="node">
<title>freefem</title>
<g id="a_node72"><a xlink:href="https://github.com/conda-forge/freefem-feedstock/pull/11" xlink:title="freefem ❎">
<ellipse fill="#31688e" stroke="black" cx="1226.89" cy="-422" rx="65.41" ry="18"/>
<text text-anchor="middle" x="1226.89" y="-417.32" font-family="Times,serif" font-size="14.00" fill="white">freefem ❎</text>
</a>
</g>
</g>
<!-- trexio&#45;&gt;freefem -->
<!-- fortnet -->
<g id="node73" class="node">
<title>fortnet</title>
<g id="a_node73"><a xlink:href="https://github.com/conda-forge/fortnet-feedstock" xlink:title="fortnet">
<ellipse fill="#ff8c00" stroke="black" cx="1226.89" cy="-350" rx="45.95" ry="18"/>
<text text-anchor="middle" x="1226.89" y="-345.32" font-family="Times,serif" font-size="14.00">fortnet</text>
</a>
</g>
</g>
<!-- freefem&#45;&gt;fortnet -->
<!-- cascade -->
<g id="node74" class="node">
<title>cascade</title>
<g id="a_node74"><a xlink:href="https://github.com/conda-forge/cascade-feedstock/pull/12" xlink:title="cascade ❎">
<ellipse fill="#31688e" stroke="black" cx="1226.89" cy="-278" rx="65.94" ry="18"/>
<text text-anchor="middle" x="1226.89" y="-273.32" font-family="Times,serif" font-size="14.00" fill="white">cascade ❎</text>
</a>
</g>
</g>
<!-- fortnet&#45;&gt;cascade -->
<!-- photochem -->
<g id="node75" class="node">
<title>photochem</title>
<g id="a_node75"><a xlink:href="https://github.com/conda-forge/photochem-feedstock/pull/8" xlink:title="photochem ✓">
<ellipse fill="#31688e" stroke="black" cx="1226.89" cy="-206" rx="74.36" ry="18"/>
<text text-anchor="middle" x="1226.89" y="-201.32" font-family="Times,serif" font-size="14.00" fill="white">photochem ✓</text>
</a>
</g>
</g>
<!-- cascade&#45;&gt;photochem -->
</g>
</svg>
