<?xml version="1.0" encoding="UTF-8" standalone="no"?>
<!DOCTYPE svg PUBLIC "-//W3C//DTD SVG 1.1//EN"
 "http://www.w3.org/Graphics/SVG/1.1/DTD/svg11.dtd">
<!-- Generated by graphviz version 7.1.0 (20230122.1345)
 -->
<!-- Pages: 1 -->
<svg width="2307pt" height="1760pt"
 viewBox="0.00 0.00 2306.74 1760.00" xmlns="http://www.w3.org/2000/svg" xmlns:xlink="http://www.w3.org/1999/xlink">
<g id="graph0" class="graph" transform="scale(1 1) rotate(0) translate(4 1756)">
<polygon fill="white" stroke="none" points="-4,4 -4,-1756 2302.74,-1756 2302.74,4 -4,4"/>
<!-- casacore -->
<g id="node1" class="node">
<title>casacore</title>
<g id="a_node1"><a xlink:href="https://github.com/conda-forge/casacore-feedstock" xlink:title="casacore">
<ellipse fill="#fde725" stroke="black" cx="1844.55" cy="-646" rx="51.5" ry="18"/>
<text text-anchor="middle" x="1844.55" y="-642.3" font-family="Times,serif" font-size="14.00">casacore</text>
</a>
</g>
</g>
<!-- cdo -->
<g id="node2" class="node">
<title>cdo</title>
<g id="a_node2"><a xlink:href="https://github.com/conda-forge/cdo-feedstock" xlink:title="cdo">
<ellipse fill="#fde725" stroke="black" cx="892.55" cy="-18" rx="27" ry="18"/>
<text text-anchor="middle" x="892.55" y="-14.3" font-family="Times,serif" font-size="14.00">cdo</text>
</a>
</g>
</g>
<!-- cyclus -->
<g id="node3" class="node">
<title>cyclus</title>
<g id="a_node3"><a xlink:href="https://github.com/conda-forge/cyclus-feedstock/pull/67" xlink:title="cyclus ❎">
<ellipse fill="#31688e" stroke="black" cx="2207.55" cy="-1734" rx="54" ry="18"/>
<text text-anchor="middle" x="2207.55" y="-1730.3" font-family="Times,serif" font-size="14.00" fill="white">cyclus ❎</text>
</a>
</g>
</g>
<!-- graph -->
<g id="node4" class="node">
<title>graph</title>
<g id="a_node4"><a xlink:href="https://github.com/conda-forge/graph-feedstock/pull/8" xlink:title="graph ❎">
<ellipse fill="#31688e" stroke="black" cx="2207.55" cy="-1662" rx="52" ry="18"/>
<text text-anchor="middle" x="2207.55" y="-1658.3" font-family="Times,serif" font-size="14.00" fill="white">graph ❎</text>
</a>
</g>
</g>
<!-- cyclus&#45;&gt;graph -->
<!-- hyperion&#45;fortran -->
<g id="node22" class="node">
<title>hyperion&#45;fortran</title>
<g id="a_node22"><a xlink:href="https://github.com/conda-forge/hyperion-fortran-feedstock" xlink:title="hyperion fortran">
<ellipse fill="#ff8c00" stroke="black" cx="2207.55" cy="-1590" rx="87.18" ry="18"/>
<text text-anchor="middle" x="2207.55" y="-1586.3" font-family="Times,serif" font-size="14.00">hyperion fortran</text>
</a>
</g>
</g>
<!-- graph&#45;&gt;hyperion&#45;fortran -->
<!-- eccodes -->
<g id="node5" class="node">
<title>eccodes</title>
<g id="a_node5"><a xlink:href="https://github.com/conda-forge/eccodes-feedstock" xlink:title="eccodes">
<ellipse fill="#35b779" stroke="black" cx="892.55" cy="-90" rx="47.5" ry="18"/>
<text text-anchor="middle" x="892.55" y="-86.3" font-family="Times,serif" font-size="14.00">eccodes</text>
</a>
</g>
</g>
<!-- eccodes&#45;&gt;cdo -->
<g id="edge2" class="edge">
<title>eccodes&#45;&gt;cdo</title>
<path fill="none" stroke="black" d="M892.55,-71.7C892.55,-64.41 892.55,-55.73 892.55,-47.54"/>
<polygon fill="black" stroke="black" points="896.05,-47.62 892.55,-37.62 889.05,-47.62 896.05,-47.62"/>
</g>
<!-- esmf -->
<g id="node6" class="node">
<title>esmf</title>
<g id="a_node6"><a xlink:href="https://github.com/conda-forge/esmf-feedstock" xlink:title="esmf">
<ellipse fill="#fde725" stroke="black" cx="867.55" cy="-1518" rx="33.29" ry="18"/>
<text text-anchor="middle" x="867.55" y="-1514.3" font-family="Times,serif" font-size="14.00">esmf</text>
</a>
</g>
</g>
<!-- ncl -->
<g id="node7" class="node">
<title>ncl</title>
<g id="a_node7"><a xlink:href="https://github.com/conda-forge/ncl-feedstock" xlink:title="ncl">
<ellipse fill="#fde725" stroke="black" cx="591.55" cy="-1446" rx="27" ry="18"/>
<text text-anchor="middle" x="591.55" y="-1442.3" font-family="Times,serif" font-size="14.00">ncl</text>
</a>
</g>
</g>
<!-- esmf&#45;&gt;ncl -->
<g id="edge3" class="edge">
<title>esmf&#45;&gt;ncl</title>
<path fill="none" stroke="black" d="M835.48,-1512.26C788.86,-1504.86 700.03,-1488.77 627.55,-1464 625.99,-1463.47 624.42,-1462.89 622.84,-1462.28"/>
<polygon fill="black" stroke="black" points="624.5,-1459.18 613.93,-1458.47 621.75,-1465.62 624.5,-1459.18"/>
</g>
<!-- nco -->
<g id="node8" class="node">
<title>nco</title>
<g id="a_node8"><a xlink:href="https://github.com/conda-forge/nco-feedstock" xlink:title="nco">
<ellipse fill="#fde725" stroke="black" cx="1000.55" cy="-1446" rx="27" ry="18"/>
<text text-anchor="middle" x="1000.55" y="-1442.3" font-family="Times,serif" font-size="14.00">nco</text>
</a>
</g>
</g>
<!-- esmf&#45;&gt;nco -->
<g id="edge4" class="edge">
<title>esmf&#45;&gt;nco</title>
<path fill="none" stroke="black" d="M890.71,-1504.81C912.63,-1493.27 945.66,-1475.89 969.77,-1463.2"/>
<polygon fill="black" stroke="black" points="971.27,-1466.36 978.49,-1458.61 968.01,-1460.17 971.27,-1466.36"/>
</g>
<!-- fenics -->
<g id="node9" class="node">
<title>fenics</title>
<g id="a_node9"><a xlink:href="https://github.com/conda-forge/fenics-feedstock/pull/174" xlink:title="fenics ❎">
<ellipse fill="#31688e" stroke="black" cx="2042.55" cy="-718" rx="52" ry="18"/>
<text text-anchor="middle" x="2042.55" y="-714.3" font-family="Times,serif" font-size="14.00" fill="white">fenics ❎</text>
</a>
</g>
</g>
<!-- fenics&#45;dolfinx -->
<g id="node10" class="node">
<title>fenics&#45;dolfinx</title>
<g id="a_node10"><a xlink:href="https://github.com/conda-forge/fenics-dolfinx-feedstock" xlink:title="fenics dolfinx">
<ellipse fill="#fde725" stroke="black" cx="2036.55" cy="-646" rx="72.29" ry="18"/>
<text text-anchor="middle" x="2036.55" y="-642.3" font-family="Times,serif" font-size="14.00">fenics dolfinx</text>
</a>
</g>
</g>
<!-- fenics&#45;&gt;fenics&#45;dolfinx -->
<g id="edge5" class="edge">
<title>fenics&#45;&gt;fenics&#45;dolfinx</title>
<path fill="none" stroke="black" d="M2041.06,-699.7C2040.44,-692.41 2039.7,-683.73 2038.99,-675.54"/>
<polygon fill="black" stroke="black" points="2042.48,-675.28 2038.14,-665.61 2035.51,-675.87 2042.48,-675.28"/>
</g>
<!-- flann -->
<g id="node11" class="node">
<title>flann</title>
<g id="a_node11"><a xlink:href="https://github.com/conda-forge/flann-feedstock/pull/35" xlink:title="flann ✓">
<ellipse fill="#31688e" stroke="black" cx="639.55" cy="-1518" rx="41" ry="18"/>
<text text-anchor="middle" x="639.55" y="-1514.3" font-family="Times,serif" font-size="14.00" fill="white">flann ✓</text>
</a>
</g>
</g>
<!-- freecad -->
<g id="node12" class="node">
<title>freecad</title>
<g id="a_node12"><a xlink:href="https://github.com/conda-forge/freecad-feedstock" xlink:title="freecad">
<ellipse fill="#fde725" stroke="black" cx="682.55" cy="-1446" rx="45.5" ry="18"/>
<text text-anchor="middle" x="682.55" y="-1442.3" font-family="Times,serif" font-size="14.00">freecad</text>
</a>
</g>
</g>
<!-- flann&#45;&gt;freecad -->
<g id="edge6" class="edge">
<title>flann&#45;&gt;freecad</title>
<path fill="none" stroke="black" d="M649.74,-1500.41C654.65,-1492.42 660.65,-1482.64 666.18,-1473.64"/>
<polygon fill="black" stroke="black" points="669.09,-1475.6 671.34,-1465.25 663.12,-1471.93 669.09,-1475.6"/>
</g>
<!-- gazebo -->
<g id="node13" class="node">
<title>gazebo</title>
<g id="a_node13"><a xlink:href="https://github.com/conda-forge/gazebo-feedstock" xlink:title="gazebo">
<ellipse fill="#fde725" stroke="black" cx="502.55" cy="-1446" rx="43.59" ry="18"/>
<text text-anchor="middle" x="502.55" y="-1442.3" font-family="Times,serif" font-size="14.00">gazebo</text>
</a>
</g>
</g>
<!-- flann&#45;&gt;gazebo -->
<g id="edge7" class="edge">
<title>flann&#45;&gt;gazebo</title>
<path fill="none" stroke="black" d="M613.46,-1503.67C592.36,-1492.89 562.41,-1477.58 538.95,-1465.6"/>
<polygon fill="black" stroke="black" points="540.85,-1462.64 530.36,-1461.21 537.67,-1468.88 540.85,-1462.64"/>
</g>
<!-- gdal -->
<g id="node14" class="node">
<title>gdal</title>
<g id="a_node14"><a xlink:href="https://github.com/conda-forge/gdal-feedstock/pull/738" xlink:title="gdal ❎">
<ellipse fill="#31688e" stroke="black" cx="282.55" cy="-1518" rx="45" ry="18"/>
<text text-anchor="middle" x="282.55" y="-1514.3" font-family="Times,serif" font-size="14.00" fill="white">gdal ❎</text>
</a>
</g>
</g>
<!-- gdal&#45;&gt;ncl -->
<g id="edge8" class="edge">
<title>gdal&#45;&gt;ncl</title>
<path fill="none" stroke="black" d="M323.84,-1510.28C389.1,-1499.45 513.05,-1477.92 555.55,-1464 557.11,-1463.49 558.69,-1462.93 560.27,-1462.33"/>
<polygon fill="black" stroke="black" points="561.34,-1465.67 569.19,-1458.56 558.62,-1459.23 561.34,-1465.67"/>
</g>
<!-- gdal&#45;&gt;gazebo -->
<g id="edge9" class="edge">
<title>gdal&#45;&gt;gazebo</title>
<path fill="none" stroke="black" d="M317.1,-1506.07C350.88,-1495.37 403.76,-1478.61 449.55,-1464 452.29,-1463.13 455.1,-1462.23 457.95,-1461.32"/>
<polygon fill="black" stroke="black" points="459.01,-1464.65 467.47,-1458.27 456.87,-1457.98 459.01,-1464.65"/>
</g>
<!-- gmt -->
<g id="node15" class="node">
<title>gmt</title>
<g id="a_node15"><a xlink:href="https://github.com/conda-forge/gmt-feedstock" xlink:title="gmt">
<ellipse fill="#fde725" stroke="black" cx="282.55" cy="-1446" rx="29.5" ry="18"/>
<text text-anchor="middle" x="282.55" y="-1442.3" font-family="Times,serif" font-size="14.00">gmt</text>
</a>
</g>
</g>
<!-- gdal&#45;&gt;gmt -->
<g id="edge10" class="edge">
<title>gdal&#45;&gt;gmt</title>
<path fill="none" stroke="black" d="M282.55,-1499.7C282.55,-1492.41 282.55,-1483.73 282.55,-1475.54"/>
<polygon fill="black" stroke="black" points="286.05,-1475.62 282.55,-1465.62 279.05,-1475.62 286.05,-1475.62"/>
</g>
<!-- pynio -->
<g id="node16" class="node">
<title>pynio</title>
<g id="a_node16"><a xlink:href="https://github.com/conda-forge/pynio-feedstock" xlink:title="pynio">
<ellipse fill="#fde725" stroke="black" cx="404.55" cy="-1446" rx="36.5" ry="18"/>
<text text-anchor="middle" x="404.55" y="-1442.3" font-family="Times,serif" font-size="14.00">pynio</text>
</a>
</g>
</g>
<!-- gdal&#45;&gt;pynio -->
<g id="edge11" class="edge">
<title>gdal&#45;&gt;pynio</title>
<path fill="none" stroke="black" d="M307.53,-1502.67C326.02,-1492.06 351.38,-1477.5 371.54,-1465.94"/>
<polygon fill="black" stroke="black" points="373.01,-1469.13 379.94,-1461.12 369.52,-1463.06 373.01,-1469.13"/>
</g>
<!-- rsgislib -->
<g id="node17" class="node">
<title>rsgislib</title>
<g id="a_node17"><a xlink:href="https://github.com/conda-forge/rsgislib-feedstock" xlink:title="rsgislib">
<ellipse fill="#fde725" stroke="black" cx="339.55" cy="-1374" rx="45.5" ry="18"/>
<text text-anchor="middle" x="339.55" y="-1370.3" font-family="Times,serif" font-size="14.00">rsgislib</text>
</a>
</g>
</g>
<!-- gdal&#45;&gt;rsgislib -->
<g id="edge12" class="edge">
<title>gdal&#45;&gt;rsgislib</title>
<path fill="none" stroke="black" d="M296.78,-1500.9C304.89,-1490.92 314.6,-1477.46 320.55,-1464 329.05,-1444.77 333.84,-1421.48 336.49,-1403.55"/>
<polygon fill="black" stroke="black" points="339.93,-1404.25 337.77,-1393.88 332.99,-1403.33 339.93,-1404.25"/>
</g>
<!-- pdal -->
<g id="node18" class="node">
<title>pdal</title>
<g id="a_node18"><a xlink:href="https://github.com/conda-forge/pdal-feedstock" xlink:title="pdal">
<ellipse fill="#fde725" stroke="black" cx="30.55" cy="-1302" rx="30.59" ry="18"/>
<text text-anchor="middle" x="30.55" y="-1298.3" font-family="Times,serif" font-size="14.00">pdal</text>
</a>
</g>
</g>
<!-- gdal&#45;&gt;pdal -->
<g id="edge13" class="edge">
<title>gdal&#45;&gt;pdal</title>
<path fill="none" stroke="black" d="M240.46,-1511.26C186.96,-1503.13 98.75,-1486.7 75.55,-1464 39.57,-1428.81 31.69,-1367.42 30.34,-1331.48"/>
<polygon fill="black" stroke="black" points="33.85,-1331.77 30.14,-1321.85 26.85,-1331.92 33.85,-1331.77"/>
</g>
<!-- isce2 -->
<g id="node19" class="node">
<title>isce2</title>
<g id="a_node19"><a xlink:href="https://github.com/conda-forge/isce2-feedstock" xlink:title="isce2">
<ellipse fill="#fde725" stroke="black" cx="76.55" cy="-1230" rx="34.5" ry="18"/>
<text text-anchor="middle" x="76.55" y="-1226.3" font-family="Times,serif" font-size="14.00">isce2</text>
</a>
</g>
</g>
<!-- gdal&#45;&gt;isce2 -->
<g id="edge14" class="edge">
<title>gdal&#45;&gt;isce2</title>
<path fill="none" stroke="black" d="M238.47,-1513.81C202.85,-1508.83 154.11,-1496.16 125.55,-1464 74.16,-1406.14 71.73,-1308.31 74.13,-1259.9"/>
<polygon fill="black" stroke="black" points="77.62,-1260.15 74.74,-1249.95 70.63,-1259.72 77.62,-1260.15"/>
</g>
<!-- lue -->
<g id="node20" class="node">
<title>lue</title>
<g id="a_node20"><a xlink:href="https://github.com/conda-forge/lue-feedstock" xlink:title="lue">
<ellipse fill="#fde725" stroke="black" cx="139.55" cy="-1158" rx="27" ry="18"/>
<text text-anchor="middle" x="139.55" y="-1154.3" font-family="Times,serif" font-size="14.00">lue</text>
</a>
</g>
</g>
<!-- gdal&#45;&gt;lue -->
<g id="edge15" class="edge">
<title>gdal&#45;&gt;lue</title>
<path fill="none" stroke="black" d="M242.07,-1509.8C214.51,-1502.79 179.38,-1489.31 158.55,-1464 132.84,-1432.77 139.55,-1415.45 139.55,-1375 139.55,-1375 139.55,-1375 139.55,-1301 139.55,-1261.74 139.55,-1216.38 139.55,-1187.69"/>
<polygon fill="black" stroke="black" points="143.05,-1188 139.55,-1178 136.05,-1188 143.05,-1188"/>
</g>
<!-- mdal -->
<g id="node21" class="node">
<title>mdal</title>
<g id="a_node21"><a xlink:href="https://github.com/conda-forge/mdal-feedstock" xlink:title="mdal">
<ellipse fill="#fde725" stroke="black" cx="201.55" cy="-1446" rx="34" ry="18"/>
<text text-anchor="middle" x="201.55" y="-1442.3" font-family="Times,serif" font-size="14.00">mdal</text>
</a>
</g>
</g>
<!-- gdal&#45;&gt;mdal -->
<g id="edge16" class="edge">
<title>gdal&#45;&gt;mdal</title>
<path fill="none" stroke="black" d="M264.17,-1501.12C253.31,-1491.73 239.38,-1479.7 227.43,-1469.36"/>
<polygon fill="black" stroke="black" points="229.75,-1466.74 219.89,-1462.85 225.17,-1472.04 229.75,-1466.74"/>
</g>
<!-- libcdms -->
<g id="node24" class="node">
<title>libcdms</title>
<g id="a_node24"><a xlink:href="https://github.com/conda-forge/libcdms-feedstock" xlink:title="libcdms">
<ellipse fill="#35b779" stroke="black" cx="2207.55" cy="-1518" rx="47" ry="18"/>
<text text-anchor="middle" x="2207.55" y="-1514.3" font-family="Times,serif" font-size="14.00">libcdms</text>
</a>
</g>
</g>
<!-- hyperion&#45;fortran&#45;&gt;libcdms -->
<!-- hdfeos5 -->
<g id="node23" class="node">
<title>hdfeos5</title>
<g id="a_node23"><a xlink:href="https://github.com/conda-forge/hdfeos5-feedstock" xlink:title="hdfeos5">
<ellipse fill="#ff8c00" stroke="black" cx="447.55" cy="-1518" rx="47.5" ry="18"/>
<text text-anchor="middle" x="447.55" y="-1514.3" font-family="Times,serif" font-size="14.00">hdfeos5</text>
</a>
</g>
</g>
<!-- hdfeos5&#45;&gt;ncl -->
<g id="edge18" class="edge">
<title>hdfeos5&#45;&gt;ncl</title>
<path fill="none" stroke="black" d="M476,-1503.17C500.24,-1491.39 535.03,-1474.47 560.09,-1462.29"/>
<polygon fill="black" stroke="black" points="561.36,-1465.57 568.82,-1458.05 558.3,-1459.27 561.36,-1465.57"/>
</g>
<!-- hdfeos5&#45;&gt;pynio -->
<g id="edge19" class="edge">
<title>hdfeos5&#45;&gt;pynio</title>
<path fill="none" stroke="black" d="M437.14,-1500.05C432.15,-1491.94 426.07,-1482.04 420.52,-1473.01"/>
<polygon fill="black" stroke="black" points="423.57,-1471.29 415.36,-1464.6 417.61,-1474.95 423.57,-1471.29"/>
</g>
<!-- r&#45;hdf5r -->
<g id="node25" class="node">
<title>r&#45;hdf5r</title>
<g id="a_node25"><a xlink:href="https://github.com/conda-forge/r-hdf5r-feedstock/pull/28" xlink:title="r hdf5r ❎">
<ellipse fill="#31688e" stroke="black" cx="2207.55" cy="-1446" rx="58" ry="18"/>
<text text-anchor="middle" x="2207.55" y="-1442.3" font-family="Times,serif" font-size="14.00" fill="white">r hdf5r ❎</text>
</a>
</g>
</g>
<!-- libcdms&#45;&gt;r&#45;hdf5r -->
<!-- r&#45;ncdf4 -->
<g id="node43" class="node">
<title>r&#45;ncdf4</title>
<g id="a_node43"><a xlink:href="https://github.com/conda-forge/r-ncdf4-feedstock" xlink:title="r ncdf4">
<ellipse fill="#35b779" stroke="black" cx="2207.55" cy="-1374" rx="44.39" ry="18"/>
<text text-anchor="middle" x="2207.55" y="-1370.3" font-family="Times,serif" font-size="14.00">r ncdf4</text>
</a>
</g>
</g>
<!-- r&#45;hdf5r&#45;&gt;r&#45;ncdf4 -->
<!-- libitk -->
<g id="node26" class="node">
<title>libitk</title>
<g id="a_node26"><a xlink:href="https://github.com/conda-forge/libitk-feedstock/pull/81" xlink:title="libitk ❎">
<ellipse fill="#31688e" stroke="black" cx="2207.55" cy="-242" rx="48.99" ry="18"/>
<text text-anchor="middle" x="2207.55" y="-238.3" font-family="Times,serif" font-size="14.00" fill="white">libitk ❎</text>
</a>
</g>
</g>
<!-- stir -->
<g id="node27" class="node">
<title>stir</title>
<g id="a_node27"><a xlink:href="https://github.com/conda-forge/stir-feedstock" xlink:title="stir">
<ellipse fill="#fde725" stroke="black" cx="2207.55" cy="-170" rx="27" ry="18"/>
<text text-anchor="middle" x="2207.55" y="-166.3" font-family="Times,serif" font-size="14.00">stir</text>
</a>
</g>
</g>
<!-- libitk&#45;&gt;stir -->
<g id="edge22" class="edge">
<title>libitk&#45;&gt;stir</title>
<path fill="none" stroke="black" d="M2207.55,-223.7C2207.55,-216.41 2207.55,-207.73 2207.55,-199.54"/>
<polygon fill="black" stroke="black" points="2211.05,-199.62 2207.55,-189.62 2204.05,-199.62 2211.05,-199.62"/>
</g>
<!-- moab -->
<g id="node28" class="node">
<title>moab</title>
<g id="a_node28"><a xlink:href="https://github.com/conda-forge/moab-feedstock" xlink:title="moab">
<ellipse fill="#fde725" stroke="black" cx="1168.55" cy="-1446" rx="36.5" ry="18"/>
<text text-anchor="middle" x="1168.55" y="-1442.3" font-family="Times,serif" font-size="14.00">moab</text>
</a>
</g>
</g>
<!-- openmc -->
<g id="node29" class="node">
<title>openmc</title>
<g id="a_node29"><a xlink:href="https://github.com/conda-forge/openmc-feedstock" xlink:title="openmc">
<ellipse fill="#fde725" stroke="black" cx="1168.55" cy="-1374" rx="47" ry="18"/>
<text text-anchor="middle" x="1168.55" y="-1370.3" font-family="Times,serif" font-size="14.00">openmc</text>
</a>
</g>
</g>
<!-- moab&#45;&gt;openmc -->
<g id="edge23" class="edge">
<title>moab&#45;&gt;openmc</title>
<path fill="none" stroke="black" d="M1168.55,-1427.7C1168.55,-1420.41 1168.55,-1411.73 1168.55,-1403.54"/>
<polygon fill="black" stroke="black" points="1172.05,-1403.62 1168.55,-1393.62 1165.05,-1403.62 1172.05,-1403.62"/>
</g>
<!-- pyne -->
<g id="node30" class="node">
<title>pyne</title>
<g id="a_node30"><a xlink:href="https://github.com/conda-forge/pyne-feedstock" xlink:title="pyne">
<ellipse fill="#fde725" stroke="black" cx="1205.55" cy="-1302" rx="33.29" ry="18"/>
<text text-anchor="middle" x="1205.55" y="-1298.3" font-family="Times,serif" font-size="14.00">pyne</text>
</a>
</g>
</g>
<!-- moab&#45;&gt;pyne -->
<g id="edge24" class="edge">
<title>moab&#45;&gt;pyne</title>
<path fill="none" stroke="black" d="M1190.32,-1431.17C1202.89,-1421.81 1217.56,-1408.23 1224.55,-1392 1233.08,-1372.17 1227.09,-1348.15 1219.65,-1330.07"/>
<polygon fill="black" stroke="black" points="1222.88,-1328.71 1215.57,-1321.04 1216.5,-1331.6 1222.88,-1328.71"/>
</g>
<!-- openmc&#45;&gt;pyne -->
<g id="edge25" class="edge">
<title>openmc&#45;&gt;pyne</title>
<path fill="none" stroke="black" d="M1177.5,-1356.05C1181.69,-1348.14 1186.76,-1338.54 1191.44,-1329.69"/>
<polygon fill="black" stroke="black" points="1194.39,-1331.6 1195.97,-1321.13 1188.2,-1328.33 1194.39,-1331.6"/>
</g>
<!-- netcdf&#45;cxx4 -->
<g id="node31" class="node">
<title>netcdf&#45;cxx4</title>
<g id="a_node31"><a xlink:href="https://github.com/conda-forge/netcdf-cxx4-feedstock" xlink:title="netcdf cxx4">
<ellipse fill="#35b779" stroke="black" cx="2212.55" cy="-718" rx="64.5" ry="18"/>
<text text-anchor="middle" x="2212.55" y="-714.3" font-family="Times,serif" font-size="14.00">netcdf cxx4</text>
</a>
</g>
</g>
<!-- pytrilinos -->
<g id="node32" class="node">
<title>pytrilinos</title>
<g id="a_node32"><a xlink:href="https://github.com/conda-forge/pytrilinos-feedstock" xlink:title="pytrilinos">
<ellipse fill="#fde725" stroke="black" cx="2171.55" cy="-646" rx="55.49" ry="18"/>
<text text-anchor="middle" x="2171.55" y="-642.3" font-family="Times,serif" font-size="14.00">pytrilinos</text>
</a>
</g>
</g>
<!-- netcdf&#45;cxx4&#45;&gt;pytrilinos -->
<g id="edge26" class="edge">
<title>netcdf&#45;cxx4&#45;&gt;pytrilinos</title>
<path fill="none" stroke="black" d="M2202.62,-700.05C2197.99,-692.14 2192.36,-682.54 2187.18,-673.69"/>
<polygon fill="black" stroke="black" points="2190.22,-671.95 2182.15,-665.1 2184.18,-675.49 2190.22,-671.95"/>
</g>
<!-- trilinos -->
<g id="node33" class="node">
<title>trilinos</title>
<g id="a_node33"><a xlink:href="https://github.com/conda-forge/trilinos-feedstock" xlink:title="trilinos">
<ellipse fill="#fde725" stroke="black" cx="2254.55" cy="-574" rx="44.39" ry="18"/>
<text text-anchor="middle" x="2254.55" y="-570.3" font-family="Times,serif" font-size="14.00">trilinos</text>
</a>
</g>
</g>
<!-- netcdf&#45;cxx4&#45;&gt;trilinos -->
<g id="edge27" class="edge">
<title>netcdf&#45;cxx4&#45;&gt;trilinos</title>
<path fill="none" stroke="black" d="M2221.11,-699.67C2225.88,-689.48 2231.63,-676.23 2235.55,-664 2241.89,-644.19 2246.73,-621.23 2249.94,-603.59"/>
<polygon fill="black" stroke="black" points="2253.37,-604.27 2251.64,-593.82 2246.48,-603.07 2253.37,-604.27"/>
</g>
<!-- netcdf&#45;fortran -->
<g id="node34" class="node">
<title>netcdf&#45;fortran</title>
<g id="a_node34"><a xlink:href="https://github.com/conda-forge/netcdf-fortran-feedstock" xlink:title="netcdf fortran">
<ellipse fill="#35b779" stroke="black" cx="1398.55" cy="-1590" rx="75.5" ry="18"/>
<text text-anchor="middle" x="1398.55" y="-1586.3" font-family="Times,serif" font-size="14.00">netcdf fortran</text>
</a>
</g>
</g>
<!-- netcdf&#45;fortran&#45;&gt;esmf -->
<g id="edge28" class="edge">
<title>netcdf&#45;fortran&#45;&gt;esmf</title>
<path fill="none" stroke="black" d="M1323.69,-1587.29C1226.77,-1583.63 1053.23,-1572.12 909.55,-1536 907.43,-1535.47 905.28,-1534.85 903.12,-1534.17"/>
<polygon fill="black" stroke="black" points="904.51,-1530.95 893.91,-1530.91 902.17,-1537.55 904.51,-1530.95"/>
</g>
<!-- siesta -->
<g id="node35" class="node">
<title>siesta</title>
<g id="a_node35"><a xlink:href="https://github.com/conda-forge/siesta-feedstock" xlink:title="siesta">
<ellipse fill="#fde725" stroke="black" cx="1516.55" cy="-1518" rx="38.5" ry="18"/>
<text text-anchor="middle" x="1516.55" y="-1514.3" font-family="Times,serif" font-size="14.00">siesta</text>
</a>
</g>
</g>
<!-- netcdf&#45;fortran&#45;&gt;siesta -->
<g id="edge29" class="edge">
<title>netcdf&#45;fortran&#45;&gt;siesta</title>
<path fill="none" stroke="black" d="M1425.92,-1572.76C1443.07,-1562.59 1465.29,-1549.41 1483.43,-1538.64"/>
<polygon fill="black" stroke="black" points="1485.19,-1541.67 1492,-1533.56 1481.62,-1535.65 1485.19,-1541.67"/>
</g>
<!-- mpas_tools -->
<g id="node36" class="node">
<title>mpas_tools</title>
<g id="a_node36"><a xlink:href="https://github.com/conda-forge/mpas_tools-feedstock" xlink:title="mpas_tools">
<ellipse fill="#fde725" stroke="black" cx="1635.55" cy="-1518" rx="62.5" ry="18"/>
<text text-anchor="middle" x="1635.55" y="-1514.3" font-family="Times,serif" font-size="14.00">mpas_tools</text>
</a>
</g>
</g>
<!-- netcdf&#45;fortran&#45;&gt;mpas_tools -->
<g id="edge30" class="edge">
<title>netcdf&#45;fortran&#45;&gt;mpas_tools</title>
<path fill="none" stroke="black" d="M1444.81,-1575.34C1484.17,-1563.71 1540.73,-1547.01 1582.04,-1534.8"/>
<polygon fill="black" stroke="black" points="1582.94,-1538.19 1591.54,-1532 1580.96,-1531.47 1582.94,-1538.19"/>
</g>
<!-- abinit -->
<g id="node37" class="node">
<title>abinit</title>
<g id="a_node37"><a xlink:href="https://github.com/conda-forge/abinit-feedstock" xlink:title="abinit">
<ellipse fill="#fde725" stroke="black" cx="1306.55" cy="-1446" rx="37.89" ry="18"/>
<text text-anchor="middle" x="1306.55" y="-1442.3" font-family="Times,serif" font-size="14.00">abinit</text>
</a>
</g>
</g>
<!-- netcdf&#45;fortran&#45;&gt;abinit -->
<g id="edge31" class="edge">
<title>netcdf&#45;fortran&#45;&gt;abinit</title>
<path fill="none" stroke="black" d="M1385.05,-1572.19C1377.04,-1561.94 1366.86,-1548.47 1358.55,-1536 1345.01,-1515.68 1331.13,-1491.73 1321.12,-1473.8"/>
<polygon fill="black" stroke="black" points="1324.2,-1472.14 1316.3,-1465.08 1318.07,-1475.53 1324.2,-1472.14"/>
</g>
<!-- fates&#45;emerald -->
<g id="node38" class="node">
<title>fates&#45;emerald</title>
<g id="a_node38"><a xlink:href="https://github.com/conda-forge/fates-emerald-feedstock" xlink:title="fates emerald">
<ellipse fill="#fde725" stroke="black" cx="1346.55" cy="-1374" rx="74.99" ry="18"/>
<text text-anchor="middle" x="1346.55" y="-1370.3" font-family="Times,serif" font-size="14.00">fates emerald</text>
</a>
</g>
</g>
<!-- netcdf&#45;fortran&#45;&gt;fates&#45;emerald -->
<g id="edge32" class="edge">
<title>netcdf&#45;fortran&#45;&gt;fates&#45;emerald</title>
<path fill="none" stroke="black" d="M1394.38,-1571.85C1385.44,-1535.07 1364.36,-1448.29 1353.41,-1403.24"/>
<polygon fill="black" stroke="black" points="1356.85,-1402.59 1351.09,-1393.7 1350.05,-1404.25 1356.85,-1402.59"/>
</g>
<!-- yambo -->
<g id="node39" class="node">
<title>yambo</title>
<g id="a_node39"><a xlink:href="https://github.com/conda-forge/yambo-feedstock" xlink:title="yambo">
<ellipse fill="#fde725" stroke="black" cx="1449.55" cy="-1302" rx="41.69" ry="18"/>
<text text-anchor="middle" x="1449.55" y="-1298.3" font-family="Times,serif" font-size="14.00">yambo</text>
</a>
</g>
</g>
<!-- netcdf&#45;fortran&#45;&gt;yambo -->
<g id="edge33" class="edge">
<title>netcdf&#45;fortran&#45;&gt;yambo</title>
<path fill="none" stroke="black" d="M1401.66,-1571.54C1410.2,-1523.66 1434.04,-1389.95 1444.51,-1331.24"/>
<polygon fill="black" stroke="black" points="1447.9,-1332.18 1446.21,-1321.72 1441.01,-1330.95 1447.9,-1332.18"/>
</g>
<!-- netcdf4 -->
<g id="node40" class="node">
<title>netcdf4</title>
<g id="a_node40"><a xlink:href="https://github.com/conda-forge/netcdf4-feedstock/pull/152" xlink:title="netcdf4 ❎">
<ellipse fill="#31688e" stroke="black" cx="1692.55" cy="-1590" rx="60" ry="18"/>
<text text-anchor="middle" x="1692.55" y="-1586.3" font-family="Times,serif" font-size="14.00" fill="white">netcdf4 ❎</text>
</a>
</g>
</g>
<!-- netcdf4&#45;&gt;mpas_tools -->
<g id="edge34" class="edge">
<title>netcdf4&#45;&gt;mpas_tools</title>
<path fill="none" stroke="black" d="M1678.75,-1572.05C1672.03,-1563.8 1663.8,-1553.7 1656.34,-1544.54"/>
<polygon fill="black" stroke="black" points="1659.2,-1542.51 1650.17,-1536.96 1653.77,-1546.93 1659.2,-1542.51"/>
</g>
<!-- cmor -->
<g id="node41" class="node">
<title>cmor</title>
<g id="a_node41"><a xlink:href="https://github.com/conda-forge/cmor-feedstock" xlink:title="cmor">
<ellipse fill="#fde725" stroke="black" cx="1750.55" cy="-1518" rx="34.5" ry="18"/>
<text text-anchor="middle" x="1750.55" y="-1514.3" font-family="Times,serif" font-size="14.00">cmor</text>
</a>
</g>
</g>
<!-- netcdf4&#45;&gt;cmor -->
<g id="edge35" class="edge">
<title>netcdf4&#45;&gt;cmor</title>
<path fill="none" stroke="black" d="M1706.59,-1572.05C1713.7,-1563.47 1722.47,-1552.89 1730.3,-1543.44"/>
<polygon fill="black" stroke="black" points="1732.78,-1545.93 1736.47,-1535.99 1727.39,-1541.46 1732.78,-1545.93"/>
</g>
<!-- paraview -->
<g id="node42" class="node">
<title>paraview</title>
<g id="a_node42"><a xlink:href="https://github.com/conda-forge/paraview-feedstock" xlink:title="paraview">
<ellipse fill="#fde725" stroke="black" cx="857.55" cy="-206" rx="53.5" ry="18"/>
<text text-anchor="middle" x="857.55" y="-202.3" font-family="Times,serif" font-size="14.00">paraview</text>
</a>
</g>
</g>
<!-- yaafe -->
<g id="node44" class="node">
<title>yaafe</title>
<g id="a_node44"><a xlink:href="https://github.com/conda-forge/yaafe-feedstock/pull/22" xlink:title="yaafe ❎">
<ellipse fill="#31688e" stroke="black" cx="2207.55" cy="-1302" rx="50.09" ry="18"/>
<text text-anchor="middle" x="2207.55" y="-1298.3" font-family="Times,serif" font-size="14.00" fill="white">yaafe ❎</text>
</a>
</g>
</g>
<!-- r&#45;ncdf4&#45;&gt;yaafe -->
<!-- numcosmo -->
<g id="node45" class="node">
<title>numcosmo</title>
<g id="a_node45"><a xlink:href="https://github.com/conda-forge/numcosmo-feedstock/pull/32" xlink:title="numcosmo ✓">
<ellipse fill="#31688e" stroke="black" cx="2207.55" cy="-1230" rx="67.69" ry="18"/>
<text text-anchor="middle" x="2207.55" y="-1226.3" font-family="Times,serif" font-size="14.00" fill="white">numcosmo ✓</text>
</a>
</g>
</g>
<!-- yaafe&#45;&gt;numcosmo -->
<!-- lammps -->
<g id="node52" class="node">
<title>lammps</title>
<g id="a_node52"><a xlink:href="https://github.com/conda-forge/lammps-feedstock" xlink:title="lammps">
<ellipse fill="#35b779" stroke="black" cx="2207.55" cy="-1158" rx="47.5" ry="18"/>
<text text-anchor="middle" x="2207.55" y="-1154.3" font-family="Times,serif" font-size="14.00">lammps</text>
</a>
</g>
</g>
<!-- numcosmo&#45;&gt;lammps -->
<!-- vtk -->
<g id="node46" class="node">
<title>vtk</title>
<g id="a_node46"><a xlink:href="https://github.com/conda-forge/vtk-feedstock" xlink:title="vtk">
<ellipse fill="#35b779" stroke="black" cx="945.55" cy="-1518" rx="27" ry="18"/>
<text text-anchor="middle" x="945.55" y="-1514.3" font-family="Times,serif" font-size="14.00">vtk</text>
</a>
</g>
</g>
<!-- vtk&#45;&gt;freecad -->
<g id="edge39" class="edge">
<title>vtk&#45;&gt;freecad</title>
<path fill="none" stroke="black" d="M924.57,-1506.08C919.72,-1503.84 914.53,-1501.67 909.55,-1500 835.08,-1475.06 812.54,-1483.82 736.55,-1464 733.62,-1463.24 730.61,-1462.41 727.59,-1461.55"/>
<polygon fill="black" stroke="black" points="728.71,-1458.23 718.13,-1458.74 726.72,-1464.94 728.71,-1458.23"/>
</g>
<!-- ifcopenshell -->
<g id="node47" class="node">
<title>ifcopenshell</title>
<g id="a_node47"><a xlink:href="https://github.com/conda-forge/ifcopenshell-feedstock" xlink:title="ifcopenshell">
<ellipse fill="#fde725" stroke="black" cx="812.55" cy="-1446" rx="66.5" ry="18"/>
<text text-anchor="middle" x="812.55" y="-1442.3" font-family="Times,serif" font-size="14.00">ifcopenshell</text>
</a>
</g>
</g>
<!-- vtk&#45;&gt;ifcopenshell -->
<g id="edge40" class="edge">
<title>vtk&#45;&gt;ifcopenshell</title>
<path fill="none" stroke="black" d="M924.77,-1506.06C905.42,-1495.88 876.07,-1480.43 852.23,-1467.89"/>
<polygon fill="black" stroke="black" points="853.88,-1464.8 843.4,-1463.24 850.62,-1470.99 853.88,-1464.8"/>
</g>
<!-- bonsu -->
<g id="node48" class="node">
<title>bonsu</title>
<g id="a_node48"><a xlink:href="https://github.com/conda-forge/bonsu-feedstock" xlink:title="bonsu">
<ellipse fill="#fde725" stroke="black" cx="878.55" cy="-1374" rx="38.5" ry="18"/>
<text text-anchor="middle" x="878.55" y="-1370.3" font-family="Times,serif" font-size="14.00">bonsu</text>
</a>
</g>
</g>
<!-- vtk&#45;&gt;bonsu -->
<g id="edge41" class="edge">
<title>vtk&#45;&gt;bonsu</title>
<path fill="none" stroke="black" d="M937.73,-1500.43C926.34,-1476.3 905.06,-1431.2 891.36,-1402.17"/>
<polygon fill="black" stroke="black" points="894.6,-1400.82 887.17,-1393.27 888.27,-1403.81 894.6,-1400.82"/>
</g>
<!-- esys&#45;escript -->
<g id="node49" class="node">
<title>esys&#45;escript</title>
<g id="a_node49"><a xlink:href="https://github.com/conda-forge/esys-escript-feedstock" xlink:title="esys escript">
<ellipse fill="#fde725" stroke="black" cx="945.55" cy="-1302" rx="66.5" ry="18"/>
<text text-anchor="middle" x="945.55" y="-1298.3" font-family="Times,serif" font-size="14.00">esys escript</text>
</a>
</g>
</g>
<!-- vtk&#45;&gt;esys&#45;escript -->
<g id="edge42" class="edge">
<title>vtk&#45;&gt;esys&#45;escript</title>
<path fill="none" stroke="black" d="M945.55,-1499.85C945.55,-1463.14 945.55,-1376.66 945.55,-1331.53"/>
<polygon fill="black" stroke="black" points="949.05,-1331.75 945.55,-1321.75 942.05,-1331.75 949.05,-1331.75"/>
</g>
<!-- damask -->
<g id="node50" class="node">
<title>damask</title>
<g id="a_node50"><a xlink:href="https://github.com/conda-forge/damask-feedstock" xlink:title="damask">
<ellipse fill="#fde725" stroke="black" cx="1019.55" cy="-1230" rx="46.29" ry="18"/>
<text text-anchor="middle" x="1019.55" y="-1226.3" font-family="Times,serif" font-size="14.00">damask</text>
</a>
</g>
</g>
<!-- vtk&#45;&gt;damask -->
<g id="edge43" class="edge">
<title>vtk&#45;&gt;damask</title>
<path fill="none" stroke="black" d="M970.27,-1510.23C992.04,-1502.82 1022.42,-1488.57 1036.55,-1464 1074.19,-1398.52 1048.07,-1305.01 1031.04,-1258.9"/>
<polygon fill="black" stroke="black" points="1034.34,-1257.74 1027.49,-1249.66 1027.81,-1260.25 1034.34,-1257.74"/>
</g>
<!-- pycgns -->
<g id="node51" class="node">
<title>pycgns</title>
<g id="a_node51"><a xlink:href="https://github.com/conda-forge/pycgns-feedstock" xlink:title="pycgns">
<ellipse fill="#fde725" stroke="black" cx="1093.55" cy="-1158" rx="43.59" ry="18"/>
<text text-anchor="middle" x="1093.55" y="-1154.3" font-family="Times,serif" font-size="14.00">pycgns</text>
</a>
</g>
</g>
<!-- vtk&#45;&gt;pycgns -->
<g id="edge44" class="edge">
<title>vtk&#45;&gt;pycgns</title>
<path fill="none" stroke="black" d="M970.55,-1510.93C995.6,-1503.65 1033.77,-1489.19 1057.55,-1464 1086.84,-1432.97 1093.55,-1417.67 1093.55,-1375 1093.55,-1375 1093.55,-1375 1093.55,-1301 1093.55,-1261.74 1093.55,-1216.38 1093.55,-1187.69"/>
<polygon fill="black" stroke="black" points="1097.05,-1188 1093.55,-1178 1090.05,-1188 1097.05,-1188"/>
</g>
<!-- openmeeg -->
<g id="node53" class="node">
<title>openmeeg</title>
<g id="a_node53"><a xlink:href="https://github.com/conda-forge/openmeeg-feedstock/pull/42" xlink:title="openmeeg ❎">
<ellipse fill="#31688e" stroke="black" cx="2207.55" cy="-1086" rx="73" ry="18"/>
<text text-anchor="middle" x="2207.55" y="-1082.3" font-family="Times,serif" font-size="14.00" fill="white">openmeeg ❎</text>
</a>
</g>
</g>
<!-- lammps&#45;&gt;openmeeg -->
<!-- scilab -->
<g id="node55" class="node">
<title>scilab</title>
<g id="a_node55"><a xlink:href="https://github.com/conda-forge/scilab-feedstock/pull/39" xlink:title="scilab ✓">
<ellipse fill="#31688e" stroke="black" cx="2207.55" cy="-1014" rx="45" ry="18"/>
<text text-anchor="middle" x="2207.55" y="-1010.3" font-family="Times,serif" font-size="14.00" fill="white">scilab ✓</text>
</a>
</g>
</g>
<!-- openmeeg&#45;&gt;scilab -->
<!-- openpmd&#45;api -->
<g id="node54" class="node">
<title>openpmd&#45;api</title>
<g id="a_node54"><a xlink:href="https://github.com/conda-forge/openpmd-api-feedstock" xlink:title="openpmd api">
<ellipse fill="#fde725" stroke="black" cx="1924.55" cy="-574" rx="71" ry="18"/>
<text text-anchor="middle" x="1924.55" y="-570.3" font-family="Times,serif" font-size="14.00">openpmd api</text>
</a>
</g>
</g>
<!-- highfive -->
<g id="node56" class="node">
<title>highfive</title>
<g id="a_node56"><a xlink:href="https://github.com/conda-forge/highfive-feedstock/pull/34" xlink:title="highfive ✓">
<ellipse fill="#31688e" stroke="black" cx="1950.55" cy="-242" rx="55.49" ry="18"/>
<text text-anchor="middle" x="1950.55" y="-238.3" font-family="Times,serif" font-size="14.00" fill="white">highfive ✓</text>
</a>
</g>
</g>
<!-- pp&#45;sketchlib -->
<g id="node57" class="node">
<title>pp&#45;sketchlib</title>
<g id="a_node57"><a xlink:href="https://github.com/conda-forge/pp-sketchlib-feedstock" xlink:title="pp sketchlib">
<ellipse fill="#fde725" stroke="black" cx="1950.55" cy="-170" rx="67.69" ry="18"/>
<text text-anchor="middle" x="1950.55" y="-166.3" font-family="Times,serif" font-size="14.00">pp sketchlib</text>
</a>
</g>
</g>
<!-- highfive&#45;&gt;pp&#45;sketchlib -->
<g id="edge48" class="edge">
<title>highfive&#45;&gt;pp&#45;sketchlib</title>
<path fill="none" stroke="black" d="M1950.55,-223.7C1950.55,-216.41 1950.55,-207.73 1950.55,-199.54"/>
<polygon fill="black" stroke="black" points="1954.05,-199.62 1950.55,-189.62 1947.05,-199.62 1954.05,-199.62"/>
</g>
<!-- tempest&#45;remap -->
<g id="node58" class="node">
<title>tempest&#45;remap</title>
<g id="a_node58"><a xlink:href="https://github.com/conda-forge/tempest-remap-feedstock" xlink:title="tempest remap">
<ellipse fill="#35b779" stroke="black" cx="1119.55" cy="-1518" rx="81.49" ry="18"/>
<text text-anchor="middle" x="1119.55" y="-1514.3" font-family="Times,serif" font-size="14.00">tempest remap</text>
</a>
</g>
</g>
<!-- tempest&#45;remap&#45;&gt;nco -->
<g id="edge49" class="edge">
<title>tempest&#45;remap&#45;&gt;nco</title>
<path fill="none" stroke="black" d="M1091.95,-1500.76C1073.41,-1489.86 1049.01,-1475.5 1030.08,-1464.37"/>
<polygon fill="black" stroke="black" points="1031.9,-1461.38 1021.5,-1459.33 1028.35,-1467.41 1031.9,-1461.38"/>
</g>
<!-- tempest&#45;remap&#45;&gt;moab -->
<g id="edge50" class="edge">
<title>tempest&#45;remap&#45;&gt;moab</title>
<path fill="none" stroke="black" d="M1131.41,-1500.05C1137.15,-1491.85 1144.17,-1481.83 1150.55,-1472.71"/>
<polygon fill="black" stroke="black" points="1153.4,-1474.75 1156.26,-1464.55 1147.66,-1470.73 1153.4,-1474.75"/>
</g>
<!-- adios2 -->
<g id="node59" class="node">
<title>adios2</title>
<g id="a_node59"><a xlink:href="https://github.com/conda-forge/adios2-feedstock/pull/70" xlink:title="adios2 ❎">
<ellipse fill="#31688e" stroke="black" cx="1917.55" cy="-718" rx="55.49" ry="18"/>
<text text-anchor="middle" x="1917.55" y="-714.3" font-family="Times,serif" font-size="14.00" fill="white">adios2 ❎</text>
</a>
</g>
</g>
<!-- adios2&#45;&gt;casacore -->
<g id="edge51" class="edge">
<title>adios2&#45;&gt;casacore</title>
<path fill="none" stroke="black" d="M1900.25,-700.41C1891.09,-691.63 1879.68,-680.69 1869.57,-671"/>
<polygon fill="black" stroke="black" points="1872.2,-668.67 1862.56,-664.28 1867.36,-673.72 1872.2,-668.67"/>
</g>
<!-- adios2&#45;&gt;fenics&#45;dolfinx -->
<g id="edge52" class="edge">
<title>adios2&#45;&gt;fenics&#45;dolfinx</title>
<path fill="none" stroke="black" d="M1943.66,-701.64C1960.06,-691.99 1981.45,-679.41 1999.57,-668.75"/>
<polygon fill="black" stroke="black" points="2001.1,-671.91 2007.95,-663.82 1997.55,-665.88 2001.1,-671.91"/>
</g>
<!-- adios2&#45;&gt;openpmd&#45;api -->
<g id="edge53" class="edge">
<title>adios2&#45;&gt;openpmd&#45;api</title>
<path fill="none" stroke="black" d="M1918.41,-699.59C1919.59,-675.61 1921.73,-632.14 1923.15,-603.42"/>
<polygon fill="black" stroke="black" points="1926.63,-603.78 1923.63,-593.62 1919.64,-603.44 1926.63,-603.78"/>
</g>
<!-- cgns -->
<g id="node60" class="node">
<title>cgns</title>
<g id="a_node60"><a xlink:href="https://github.com/conda-forge/cgns-feedstock/pull/27" xlink:title="cgns ❎">
<ellipse fill="#31688e" stroke="black" cx="898.55" cy="-278" rx="46.29" ry="18"/>
<text text-anchor="middle" x="898.55" y="-274.3" font-family="Times,serif" font-size="14.00" fill="white">cgns ❎</text>
</a>
</g>
</g>
<!-- cgns&#45;&gt;paraview -->
<g id="edge54" class="edge">
<title>cgns&#45;&gt;paraview</title>
<path fill="none" stroke="black" d="M888.62,-260.05C883.99,-252.14 878.36,-242.54 873.18,-233.69"/>
<polygon fill="black" stroke="black" points="876.22,-231.95 868.15,-225.1 870.18,-235.49 876.22,-231.95"/>
</g>
<!-- tomviz -->
<g id="node61" class="node">
<title>tomviz</title>
<g id="a_node61"><a xlink:href="https://github.com/conda-forge/tomviz-feedstock" xlink:title="tomviz">
<ellipse fill="#fde725" stroke="black" cx="939.55" cy="-134" rx="42.49" ry="18"/>
<text text-anchor="middle" x="939.55" y="-130.3" font-family="Times,serif" font-size="14.00">tomviz</text>
</a>
</g>
</g>
<!-- cgns&#45;&gt;tomviz -->
<g id="edge55" class="edge">
<title>cgns&#45;&gt;tomviz</title>
<path fill="none" stroke="black" d="M906.49,-260.11C911.08,-249.84 916.7,-236.37 920.55,-224 926.73,-204.14 931.58,-181.18 934.83,-163.55"/>
<polygon fill="black" stroke="black" points="938.26,-164.25 936.56,-153.79 931.37,-163.03 938.26,-164.25"/>
</g>
<!-- dakota -->
<g id="node62" class="node">
<title>dakota</title>
<g id="a_node62"><a xlink:href="https://github.com/conda-forge/dakota-feedstock" xlink:title="dakota">
<ellipse fill="#ff8c00" stroke="black" cx="1950.55" cy="-1734" rx="42.49" ry="18"/>
<text text-anchor="middle" x="1950.55" y="-1730.3" font-family="Times,serif" font-size="14.00">dakota</text>
</a>
</g>
</g>
<!-- ncview -->
<g id="node63" class="node">
<title>ncview</title>
<g id="a_node63"><a xlink:href="https://github.com/conda-forge/ncview-feedstock" xlink:title="ncview">
<ellipse fill="#35b779" stroke="black" cx="1950.55" cy="-1662" rx="43" ry="18"/>
<text text-anchor="middle" x="1950.55" y="-1658.3" font-family="Times,serif" font-size="14.00">ncview</text>
</a>
</g>
</g>
<!-- dakota&#45;&gt;ncview -->
<!-- proteus -->
<g id="node64" class="node">
<title>proteus</title>
<g id="a_node64"><a xlink:href="https://github.com/conda-forge/proteus-feedstock/pull/53" xlink:title="proteus ❎">
<ellipse fill="#31688e" stroke="black" cx="1950.55" cy="-1590" rx="60.5" ry="18"/>
<text text-anchor="middle" x="1950.55" y="-1586.3" font-family="Times,serif" font-size="14.00" fill="white">proteus ❎</text>
</a>
</g>
</g>
<!-- ncview&#45;&gt;proteus -->
<!-- hdf5&#45;external&#45;filter&#45;plugins -->
<g id="node65" class="node">
<title>hdf5&#45;external&#45;filter&#45;plugins</title>
<g id="a_node65"><a xlink:href="https://github.com/conda-forge/hdf5-external-filter-plugins-feedstock/pull/19" xlink:title="hdf5 external filter plugins ✓">
<ellipse fill="#31688e" stroke="black" cx="1950.55" cy="-1518" rx="143" ry="18"/>
<text text-anchor="middle" x="1950.55" y="-1514.3" font-family="Times,serif" font-size="14.00" fill="white">hdf5 external filter plugins ✓</text>
</a>
</g>
</g>
<!-- proteus&#45;&gt;hdf5&#45;external&#45;filter&#45;plugins -->
<!-- netcdf&#45;cxx&#45;legacy -->
<g id="node66" class="node">
<title>netcdf&#45;cxx&#45;legacy</title>
<g id="a_node66"><a xlink:href="https://github.com/conda-forge/netcdf-cxx-legacy-feedstock" xlink:title="netcdf cxx legacy">
<ellipse fill="#35b779" stroke="black" cx="1950.55" cy="-1446" rx="91" ry="18"/>
<text text-anchor="middle" x="1950.55" y="-1442.3" font-family="Times,serif" font-size="14.00">netcdf cxx legacy</text>
</a>
</g>
</g>
<!-- hdf5&#45;external&#45;filter&#45;plugins&#45;&gt;netcdf&#45;cxx&#45;legacy -->
<!-- prismatic_split -->
<g id="node67" class="node">
<title>prismatic_split</title>
<g id="a_node67"><a xlink:href="https://github.com/conda-forge/prismatic_split-feedstock" xlink:title="prismatic_split">
<ellipse fill="#ff8c00" stroke="black" cx="1950.55" cy="-1374" rx="79.5" ry="18"/>
<text text-anchor="middle" x="1950.55" y="-1370.3" font-family="Times,serif" font-size="14.00">prismatic_split</text>
</a>
</g>
</g>
<!-- netcdf&#45;cxx&#45;legacy&#45;&gt;prismatic_split -->
<!-- digital_rf -->
<g id="node68" class="node">
<title>digital_rf</title>
<g id="a_node68"><a xlink:href="https://github.com/conda-forge/digital_rf-feedstock/pull/25" xlink:title="digital_rf ❎">
<ellipse fill="#31688e" stroke="black" cx="1950.55" cy="-1302" rx="67" ry="18"/>
<text text-anchor="middle" x="1950.55" y="-1298.3" font-family="Times,serif" font-size="14.00" fill="white">digital_rf ❎</text>
</a>
</g>
</g>
<!-- prismatic_split&#45;&gt;digital_rf -->
<!-- ecell4_base -->
<g id="node69" class="node">
<title>ecell4_base</title>
<g id="a_node69"><a xlink:href="https://github.com/conda-forge/ecell4_base-feedstock/pull/22" xlink:title="ecell4_base ❎">
<ellipse fill="#31688e" stroke="black" cx="1950.55" cy="-1230" rx="78" ry="18"/>
<text text-anchor="middle" x="1950.55" y="-1226.3" font-family="Times,serif" font-size="14.00" fill="white">ecell4_base ❎</text>
</a>
</g>
</g>
<!-- digital_rf&#45;&gt;ecell4_base -->
<!-- nccmp -->
<g id="node70" class="node">
<title>nccmp</title>
<g id="a_node70"><a xlink:href="https://github.com/conda-forge/nccmp-feedstock" xlink:title="nccmp">
<ellipse fill="#35b779" stroke="black" cx="1950.55" cy="-1158" rx="41" ry="18"/>
<text text-anchor="middle" x="1950.55" y="-1154.3" font-family="Times,serif" font-size="14.00">nccmp</text>
</a>
</g>
</g>
<!-- ecell4_base&#45;&gt;nccmp -->
<!-- mbsolve -->
<g id="node71" class="node">
<title>mbsolve</title>
<g id="a_node71"><a xlink:href="https://github.com/conda-forge/mbsolve-feedstock/pull/14" xlink:title="mbsolve ❎">
<ellipse fill="#31688e" stroke="black" cx="1950.55" cy="-1086" rx="63.89" ry="18"/>
<text text-anchor="middle" x="1950.55" y="-1082.3" font-family="Times,serif" font-size="14.00" fill="white">mbsolve ❎</text>
</a>
</g>
</g>
<!-- nccmp&#45;&gt;mbsolve -->
<!-- triqs_cthyb -->
<g id="node72" class="node">
<title>triqs_cthyb</title>
<g id="a_node72"><a xlink:href="https://github.com/conda-forge/triqs_cthyb-feedstock/pull/29" xlink:title="triqs_cthyb ❎">
<ellipse fill="#31688e" stroke="black" cx="1950.55" cy="-1014" rx="77.5" ry="18"/>
<text text-anchor="middle" x="1950.55" y="-1010.3" font-family="Times,serif" font-size="14.00" fill="white">triqs_cthyb ❎</text>
</a>
</g>
</g>
<!-- mbsolve&#45;&gt;triqs_cthyb -->
<!-- polycap -->
<g id="node73" class="node">
<title>polycap</title>
<g id="a_node73"><a xlink:href="https://github.com/conda-forge/polycap-feedstock/pull/16" xlink:title="polycap ❎">
<ellipse fill="#31688e" stroke="black" cx="892.55" cy="-970" rx="60.5" ry="18"/>
<text text-anchor="middle" x="892.55" y="-966.3" font-family="Times,serif" font-size="14.00" fill="white">polycap ❎</text>
</a>
</g>
</g>
<!-- muq -->
<g id="node74" class="node">
<title>muq</title>
<g id="a_node74"><a xlink:href="https://github.com/conda-forge/muq-feedstock/pull/31" xlink:title="muq ✓">
<ellipse fill="#31688e" stroke="black" cx="892.55" cy="-898" rx="38.5" ry="18"/>
<text text-anchor="middle" x="892.55" y="-894.3" font-family="Times,serif" font-size="14.00" fill="white">muq ✓</text>
</a>
</g>
</g>
<!-- polycap&#45;&gt;muq -->
<!-- sirius -->
<g id="node75" class="node">
<title>sirius</title>
<g id="a_node75"><a xlink:href="https://github.com/conda-forge/sirius-feedstock/pull/19" xlink:title="sirius ❎">
<ellipse fill="#31688e" stroke="black" cx="892.55" cy="-826" rx="50.89" ry="18"/>
<text text-anchor="middle" x="892.55" y="-822.3" font-family="Times,serif" font-size="14.00" fill="white">sirius ❎</text>
</a>
</g>
</g>
<!-- muq&#45;&gt;sirius -->
<!-- bmad -->
<g id="node76" class="node">
<title>bmad</title>
<g id="a_node76"><a xlink:href="https://github.com/conda-forge/bmad-feedstock/pull/200" xlink:title="bmad ✓">
<ellipse fill="#31688e" stroke="black" cx="892.55" cy="-754" rx="44.39" ry="18"/>
<text text-anchor="middle" x="892.55" y="-750.3" font-family="Times,serif" font-size="14.00" fill="white">bmad ✓</text>
</a>
</g>
</g>
<!-- sirius&#45;&gt;bmad -->
<!-- cadet -->
<g id="node77" class="node">
<title>cadet</title>
<g id="a_node77"><a xlink:href="https://github.com/conda-forge/cadet-feedstock/pull/7" xlink:title="cadet ❎">
<ellipse fill="#31688e" stroke="black" cx="892.55" cy="-682" rx="50.09" ry="18"/>
<text text-anchor="middle" x="892.55" y="-678.3" font-family="Times,serif" font-size="14.00" fill="white">cadet ❎</text>
</a>
</g>
</g>
<!-- bmad&#45;&gt;cadet -->
<!-- ccr -->
<g id="node78" class="node">
<title>ccr</title>
<g id="a_node78"><a xlink:href="https://github.com/conda-forge/ccr-feedstock" xlink:title="ccr">
<ellipse fill="#35b779" stroke="black" cx="892.55" cy="-610" rx="27" ry="18"/>
<text text-anchor="middle" x="892.55" y="-606.3" font-family="Times,serif" font-size="14.00">ccr</text>
</a>
</g>
</g>
<!-- cadet&#45;&gt;ccr -->
<!-- dxtbx -->
<g id="node79" class="node">
<title>dxtbx</title>
<g id="a_node79"><a xlink:href="https://github.com/conda-forge/dxtbx-feedstock/pull/31" xlink:title="dxtbx ❎">
<ellipse fill="#31688e" stroke="black" cx="892.55" cy="-538" rx="51.5" ry="18"/>
<text text-anchor="middle" x="892.55" y="-534.3" font-family="Times,serif" font-size="14.00" fill="white">dxtbx ❎</text>
</a>
</g>
</g>
<!-- ccr&#45;&gt;dxtbx -->
<!-- trexio -->
<g id="node80" class="node">
<title>trexio</title>
<g id="a_node80"><a xlink:href="https://github.com/conda-forge/trexio-feedstock/pull/6" xlink:title="trexio ❎">
<ellipse fill="#31688e" stroke="black" cx="892.55" cy="-466" rx="52" ry="18"/>
<text text-anchor="middle" x="892.55" y="-462.3" font-family="Times,serif" font-size="14.00" fill="white">trexio ❎</text>
</a>
</g>
</g>
<!-- dxtbx&#45;&gt;trexio -->
<!-- freefem -->
<g id="node81" class="node">
<title>freefem</title>
<g id="a_node81"><a xlink:href="https://github.com/conda-forge/freefem-feedstock/pull/3" xlink:title="freefem ✓">
<ellipse fill="#31688e" stroke="black" cx="892.55" cy="-394" rx="54" ry="18"/>
<text text-anchor="middle" x="892.55" y="-390.3" font-family="Times,serif" font-size="14.00" fill="white">freefem ✓</text>
</a>
</g>
</g>
<!-- trexio&#45;&gt;freefem -->
<!-- fortnet -->
<g id="node82" class="node">
<title>fortnet</title>
<g id="a_node82"><a xlink:href="https://github.com/conda-forge/fortnet-feedstock" xlink:title="fortnet">
<ellipse fill="#ff8c00" stroke="black" cx="892.55" cy="-322" rx="43" ry="18"/>
<text text-anchor="middle" x="892.55" y="-318.3" font-family="Times,serif" font-size="14.00">fortnet</text>
</a>
</g>
</g>
<!-- freefem&#45;&gt;fortnet -->
</g>
</svg>
