<?xml version="1.0" encoding="UTF-8" standalone="no"?>
<!DOCTYPE svg PUBLIC "-//W3C//DTD SVG 1.1//EN"
 "http://www.w3.org/Graphics/SVG/1.1/DTD/svg11.dtd">
<!-- Generated by graphviz version 7.1.0 (20230122.1345)
 -->
<!-- Pages: 1 -->
<svg width="1676pt" height="1904pt"
 viewBox="0.00 0.00 1676.20 1904.00" xmlns="http://www.w3.org/2000/svg" xmlns:xlink="http://www.w3.org/1999/xlink">
<g id="graph0" class="graph" transform="scale(1 1) rotate(0) translate(4 1900)">
<polygon fill="white" stroke="none" points="-4,4 -4,-1900 1672.2,-1900 1672.2,4 -4,4"/>
<!-- casacore -->
<g id="node1" class="node">
<title>casacore</title>
<g id="a_node1"><a xlink:href="https://github.com/conda-forge/casacore-feedstock" xlink:title="casacore">
<ellipse fill="#fde725" stroke="black" cx="1214" cy="-754" rx="51.5" ry="18"/>
<text text-anchor="middle" x="1214" y="-750.3" font-family="Times,serif" font-size="14.00">casacore</text>
</a>
</g>
</g>
<!-- cdo -->
<g id="node2" class="node">
<title>cdo</title>
<g id="a_node2"><a xlink:href="https://github.com/conda-forge/cdo-feedstock" xlink:title="cdo">
<ellipse fill="#fde725" stroke="black" cx="1320" cy="-18" rx="27" ry="18"/>
<text text-anchor="middle" x="1320" y="-14.3" font-family="Times,serif" font-size="14.00">cdo</text>
</a>
</g>
</g>
<!-- cyclus -->
<g id="node3" class="node">
<title>cyclus</title>
<g id="a_node3"><a xlink:href="https://github.com/conda-forge/cyclus-feedstock/pull/67" xlink:title="cyclus ❎">
<ellipse fill="#31688e" stroke="black" cx="1577" cy="-1878" rx="54" ry="18"/>
<text text-anchor="middle" x="1577" y="-1874.3" font-family="Times,serif" font-size="14.00" fill="white">cyclus ❎</text>
</a>
</g>
</g>
<!-- graph -->
<g id="node4" class="node">
<title>graph</title>
<g id="a_node4"><a xlink:href="https://github.com/conda-forge/graph-feedstock/pull/8" xlink:title="graph ❎">
<ellipse fill="#31688e" stroke="black" cx="1577" cy="-1806" rx="52" ry="18"/>
<text text-anchor="middle" x="1577" y="-1802.3" font-family="Times,serif" font-size="14.00" fill="white">graph ❎</text>
</a>
</g>
</g>
<!-- cyclus&#45;&gt;graph -->
<!-- hyperion&#45;fortran -->
<g id="node22" class="node">
<title>hyperion&#45;fortran</title>
<g id="a_node22"><a xlink:href="https://github.com/conda-forge/hyperion-fortran-feedstock" xlink:title="hyperion fortran">
<ellipse fill="#ff8c00" stroke="black" cx="1577" cy="-1734" rx="87.18" ry="18"/>
<text text-anchor="middle" x="1577" y="-1730.3" font-family="Times,serif" font-size="14.00">hyperion fortran</text>
</a>
</g>
</g>
<!-- graph&#45;&gt;hyperion&#45;fortran -->
<!-- eccodes -->
<g id="node5" class="node">
<title>eccodes</title>
<g id="a_node5"><a xlink:href="https://github.com/conda-forge/eccodes-feedstock" xlink:title="eccodes">
<ellipse fill="#ff8c00" stroke="black" cx="1320" cy="-90" rx="47.5" ry="18"/>
<text text-anchor="middle" x="1320" y="-86.3" font-family="Times,serif" font-size="14.00">eccodes</text>
</a>
</g>
</g>
<!-- eccodes&#45;&gt;cdo -->
<g id="edge2" class="edge">
<title>eccodes&#45;&gt;cdo</title>
<path fill="none" stroke="black" d="M1320,-71.7C1320,-64.41 1320,-55.73 1320,-47.54"/>
<polygon fill="black" stroke="black" points="1323.5,-47.62 1320,-37.62 1316.5,-47.62 1323.5,-47.62"/>
</g>
<!-- esmf -->
<g id="node6" class="node">
<title>esmf</title>
<g id="a_node6"><a xlink:href="https://github.com/conda-forge/esmf-feedstock" xlink:title="esmf">
<ellipse fill="#35b779" stroke="black" cx="41" cy="-1698" rx="33.29" ry="18"/>
<text text-anchor="middle" x="41" y="-1694.3" font-family="Times,serif" font-size="14.00">esmf</text>
</a>
</g>
</g>
<!-- ncl -->
<g id="node7" class="node">
<title>ncl</title>
<g id="a_node7"><a xlink:href="https://github.com/conda-forge/ncl-feedstock" xlink:title="ncl">
<ellipse fill="#fde725" stroke="black" cx="99" cy="-1626" rx="27" ry="18"/>
<text text-anchor="middle" x="99" y="-1622.3" font-family="Times,serif" font-size="14.00">ncl</text>
</a>
</g>
</g>
<!-- esmf&#45;&gt;ncl -->
<g id="edge3" class="edge">
<title>esmf&#45;&gt;ncl</title>
<path fill="none" stroke="black" d="M54.16,-1681.12C61.53,-1672.22 70.87,-1660.95 79.11,-1651"/>
<polygon fill="black" stroke="black" points="81.64,-1653.44 85.32,-1643.51 76.25,-1648.97 81.64,-1653.44"/>
</g>
<!-- nco -->
<g id="node8" class="node">
<title>nco</title>
<g id="a_node8"><a xlink:href="https://github.com/conda-forge/nco-feedstock" xlink:title="nco">
<ellipse fill="#fde725" stroke="black" cx="27" cy="-1626" rx="27" ry="18"/>
<text text-anchor="middle" x="27" y="-1622.3" font-family="Times,serif" font-size="14.00">nco</text>
</a>
</g>
</g>
<!-- esmf&#45;&gt;nco -->
<g id="edge4" class="edge">
<title>esmf&#45;&gt;nco</title>
<path fill="none" stroke="black" d="M37.54,-1679.7C36.06,-1672.32 34.3,-1663.52 32.65,-1655.25"/>
<polygon fill="black" stroke="black" points="36.11,-1654.71 30.72,-1645.59 29.25,-1656.08 36.11,-1654.71"/>
</g>
<!-- fenics -->
<g id="node9" class="node">
<title>fenics</title>
<g id="a_node9"><a xlink:href="https://github.com/conda-forge/fenics-feedstock/pull/174" xlink:title="fenics ❎">
<ellipse fill="#31688e" stroke="black" cx="1412" cy="-826" rx="52" ry="18"/>
<text text-anchor="middle" x="1412" y="-822.3" font-family="Times,serif" font-size="14.00" fill="white">fenics ❎</text>
</a>
</g>
</g>
<!-- fenics&#45;dolfinx -->
<g id="node10" class="node">
<title>fenics&#45;dolfinx</title>
<g id="a_node10"><a xlink:href="https://github.com/conda-forge/fenics-dolfinx-feedstock" xlink:title="fenics dolfinx">
<ellipse fill="#fde725" stroke="black" cx="1406" cy="-754" rx="72.29" ry="18"/>
<text text-anchor="middle" x="1406" y="-750.3" font-family="Times,serif" font-size="14.00">fenics dolfinx</text>
</a>
</g>
</g>
<!-- fenics&#45;&gt;fenics&#45;dolfinx -->
<g id="edge5" class="edge">
<title>fenics&#45;&gt;fenics&#45;dolfinx</title>
<path fill="none" stroke="black" d="M1410.52,-807.7C1409.89,-800.41 1409.15,-791.73 1408.45,-783.54"/>
<polygon fill="black" stroke="black" points="1411.94,-783.28 1407.6,-773.61 1404.96,-783.87 1411.94,-783.28"/>
</g>
<!-- flann -->
<g id="node11" class="node">
<title>flann</title>
<g id="a_node11"><a xlink:href="https://github.com/conda-forge/flann-feedstock/pull/35" xlink:title="flann ✓">
<ellipse fill="#31688e" stroke="black" cx="647" cy="-1698" rx="41" ry="18"/>
<text text-anchor="middle" x="647" y="-1694.3" font-family="Times,serif" font-size="14.00" fill="white">flann ✓</text>
</a>
</g>
</g>
<!-- freecad -->
<g id="node12" class="node">
<title>freecad</title>
<g id="a_node12"><a xlink:href="https://github.com/conda-forge/freecad-feedstock" xlink:title="freecad">
<ellipse fill="#fde725" stroke="black" cx="701" cy="-1626" rx="45.5" ry="18"/>
<text text-anchor="middle" x="701" y="-1622.3" font-family="Times,serif" font-size="14.00">freecad</text>
</a>
</g>
</g>
<!-- flann&#45;&gt;freecad -->
<g id="edge6" class="edge">
<title>flann&#45;&gt;freecad</title>
<path fill="none" stroke="black" d="M659.8,-1680.41C666.25,-1672.04 674.22,-1661.71 681.43,-1652.37"/>
<polygon fill="black" stroke="black" points="684.03,-1654.72 687.37,-1644.67 678.49,-1650.45 684.03,-1654.72"/>
</g>
<!-- gazebo -->
<g id="node13" class="node">
<title>gazebo</title>
<g id="a_node13"><a xlink:href="https://github.com/conda-forge/gazebo-feedstock" xlink:title="gazebo">
<ellipse fill="#fde725" stroke="black" cx="594" cy="-1626" rx="43.59" ry="18"/>
<text text-anchor="middle" x="594" y="-1622.3" font-family="Times,serif" font-size="14.00">gazebo</text>
</a>
</g>
</g>
<!-- flann&#45;&gt;gazebo -->
<g id="edge7" class="edge">
<title>flann&#45;&gt;gazebo</title>
<path fill="none" stroke="black" d="M634.44,-1680.41C628.1,-1672.04 620.28,-1661.71 613.21,-1652.37"/>
<polygon fill="black" stroke="black" points="616.21,-1650.54 607.38,-1644.68 610.63,-1654.76 616.21,-1650.54"/>
</g>
<!-- gdal -->
<g id="node14" class="node">
<title>gdal</title>
<g id="a_node14"><a xlink:href="https://github.com/conda-forge/gdal-feedstock/pull/738" xlink:title="gdal ❎">
<ellipse fill="#31688e" stroke="black" cx="360" cy="-1698" rx="45" ry="18"/>
<text text-anchor="middle" x="360" y="-1694.3" font-family="Times,serif" font-size="14.00" fill="white">gdal ❎</text>
</a>
</g>
</g>
<!-- gdal&#45;&gt;ncl -->
<g id="edge8" class="edge">
<title>gdal&#45;&gt;ncl</title>
<path fill="none" stroke="black" d="M319.03,-1690.03C273.37,-1681.65 197.7,-1665.92 135,-1644 133.45,-1643.46 131.88,-1642.87 130.3,-1642.25"/>
<polygon fill="black" stroke="black" points="131.97,-1639.16 121.4,-1638.42 129.2,-1645.59 131.97,-1639.16"/>
</g>
<!-- gdal&#45;&gt;gazebo -->
<g id="edge9" class="edge">
<title>gdal&#45;&gt;gazebo</title>
<path fill="none" stroke="black" d="M395.8,-1686.81C432.37,-1676.33 490.76,-1659.41 541,-1644 543.75,-1643.16 546.57,-1642.28 549.42,-1641.39"/>
<polygon fill="black" stroke="black" points="550.47,-1644.73 558.95,-1638.38 548.36,-1638.05 550.47,-1644.73"/>
</g>
<!-- gmt -->
<g id="node15" class="node">
<title>gmt</title>
<g id="a_node15"><a xlink:href="https://github.com/conda-forge/gmt-feedstock" xlink:title="gmt">
<ellipse fill="#fde725" stroke="black" cx="265" cy="-1626" rx="29.5" ry="18"/>
<text text-anchor="middle" x="265" y="-1622.3" font-family="Times,serif" font-size="14.00">gmt</text>
</a>
</g>
</g>
<!-- gdal&#45;&gt;gmt -->
<g id="edge10" class="edge">
<title>gdal&#45;&gt;gmt</title>
<path fill="none" stroke="black" d="M339.39,-1681.81C325.56,-1671.62 307.2,-1658.09 292.18,-1647.02"/>
<polygon fill="black" stroke="black" points="294.67,-1644.52 284.54,-1641.4 290.52,-1650.15 294.67,-1644.52"/>
</g>
<!-- pynio -->
<g id="node16" class="node">
<title>pynio</title>
<g id="a_node16"><a xlink:href="https://github.com/conda-forge/pynio-feedstock" xlink:title="pynio">
<ellipse fill="#fde725" stroke="black" cx="181" cy="-1626" rx="36.5" ry="18"/>
<text text-anchor="middle" x="181" y="-1622.3" font-family="Times,serif" font-size="14.00">pynio</text>
</a>
</g>
</g>
<!-- gdal&#45;&gt;pynio -->
<g id="edge11" class="edge">
<title>gdal&#45;&gt;pynio</title>
<path fill="none" stroke="black" d="M328.82,-1684.81C298.4,-1672.91 252.07,-1654.79 219.4,-1642.02"/>
<polygon fill="black" stroke="black" points="220.88,-1638.84 210.29,-1638.46 218.33,-1645.36 220.88,-1638.84"/>
</g>
<!-- rsgislib -->
<g id="node17" class="node">
<title>rsgislib</title>
<g id="a_node17"><a xlink:href="https://github.com/conda-forge/rsgislib-feedstock" xlink:title="rsgislib">
<ellipse fill="#fde725" stroke="black" cx="286" cy="-1554" rx="45.5" ry="18"/>
<text text-anchor="middle" x="286" y="-1550.3" font-family="Times,serif" font-size="14.00">rsgislib</text>
</a>
</g>
</g>
<!-- gdal&#45;&gt;rsgislib -->
<g id="edge12" class="edge">
<title>gdal&#45;&gt;rsgislib</title>
<path fill="none" stroke="black" d="M351.07,-1679.87C338.39,-1655.54 315.04,-1610.73 300.03,-1581.93"/>
<polygon fill="black" stroke="black" points="303.15,-1580.34 295.43,-1573.09 296.95,-1583.58 303.15,-1580.34"/>
</g>
<!-- pdal -->
<g id="node18" class="node">
<title>pdal</title>
<g id="a_node18"><a xlink:href="https://github.com/conda-forge/pdal-feedstock" xlink:title="pdal">
<ellipse fill="#fde725" stroke="black" cx="339" cy="-1482" rx="30.59" ry="18"/>
<text text-anchor="middle" x="339" y="-1478.3" font-family="Times,serif" font-size="14.00">pdal</text>
</a>
</g>
</g>
<!-- gdal&#45;&gt;pdal -->
<g id="edge13" class="edge">
<title>gdal&#45;&gt;pdal</title>
<path fill="none" stroke="black" d="M358.32,-1679.85C354.72,-1643.14 346.23,-1556.66 341.8,-1511.53"/>
<polygon fill="black" stroke="black" points="345.3,-1511.35 340.84,-1501.74 338.33,-1512.03 345.3,-1511.35"/>
</g>
<!-- isce2 -->
<g id="node19" class="node">
<title>isce2</title>
<g id="a_node19"><a xlink:href="https://github.com/conda-forge/isce2-feedstock" xlink:title="isce2">
<ellipse fill="#fde725" stroke="black" cx="373" cy="-1410" rx="34.5" ry="18"/>
<text text-anchor="middle" x="373" y="-1406.3" font-family="Times,serif" font-size="14.00">isce2</text>
</a>
</g>
</g>
<!-- gdal&#45;&gt;isce2 -->
<g id="edge14" class="edge">
<title>gdal&#45;&gt;isce2</title>
<path fill="none" stroke="black" d="M363.03,-1679.77C369.47,-1641.18 383.56,-1544.84 379,-1464 378.55,-1456.02 377.72,-1447.39 376.82,-1439.47"/>
<polygon fill="black" stroke="black" points="380.31,-1439.15 375.62,-1429.65 373.36,-1440 380.31,-1439.15"/>
</g>
<!-- lue -->
<g id="node20" class="node">
<title>lue</title>
<g id="a_node20"><a xlink:href="https://github.com/conda-forge/lue-feedstock" xlink:title="lue">
<ellipse fill="#fde725" stroke="black" cx="436" cy="-1338" rx="27" ry="18"/>
<text text-anchor="middle" x="436" y="-1334.3" font-family="Times,serif" font-size="14.00">lue</text>
</a>
</g>
</g>
<!-- gdal&#45;&gt;lue -->
<g id="edge15" class="edge">
<title>gdal&#45;&gt;lue</title>
<path fill="none" stroke="black" d="M375.38,-1681.02C397.59,-1656.19 436,-1605.89 436,-1555 436,-1555 436,-1555 436,-1481 436,-1441.74 436,-1396.38 436,-1367.69"/>
<polygon fill="black" stroke="black" points="439.5,-1368 436,-1358 432.5,-1368 439.5,-1368"/>
</g>
<!-- mdal -->
<g id="node21" class="node">
<title>mdal</title>
<g id="a_node21"><a xlink:href="https://github.com/conda-forge/mdal-feedstock" xlink:title="mdal">
<ellipse fill="#fde725" stroke="black" cx="498" cy="-1626" rx="34" ry="18"/>
<text text-anchor="middle" x="498" y="-1622.3" font-family="Times,serif" font-size="14.00">mdal</text>
</a>
</g>
</g>
<!-- gdal&#45;&gt;mdal -->
<g id="edge16" class="edge">
<title>gdal&#45;&gt;mdal</title>
<path fill="none" stroke="black" d="M386.94,-1683.34C408.94,-1672.18 440.17,-1656.34 463.91,-1644.29"/>
<polygon fill="black" stroke="black" points="465.22,-1647.55 472.55,-1639.91 462.05,-1641.31 465.22,-1647.55"/>
</g>
<!-- libcdms -->
<g id="node24" class="node">
<title>libcdms</title>
<g id="a_node24"><a xlink:href="https://github.com/conda-forge/libcdms-feedstock" xlink:title="libcdms">
<ellipse fill="#ff8c00" stroke="black" cx="1577" cy="-1662" rx="47" ry="18"/>
<text text-anchor="middle" x="1577" y="-1658.3" font-family="Times,serif" font-size="14.00">libcdms</text>
</a>
</g>
</g>
<!-- hyperion&#45;fortran&#45;&gt;libcdms -->
<!-- hdfeos5 -->
<g id="node23" class="node">
<title>hdfeos5</title>
<g id="a_node23"><a xlink:href="https://github.com/conda-forge/hdfeos5-feedstock" xlink:title="hdfeos5">
<ellipse fill="#ff8c00" stroke="black" cx="167" cy="-1698" rx="47.5" ry="18"/>
<text text-anchor="middle" x="167" y="-1694.3" font-family="Times,serif" font-size="14.00">hdfeos5</text>
</a>
</g>
</g>
<!-- hdfeos5&#45;&gt;ncl -->
<g id="edge18" class="edge">
<title>hdfeos5&#45;&gt;ncl</title>
<path fill="none" stroke="black" d="M151.23,-1680.76C142.28,-1671.55 130.94,-1659.87 121.11,-1649.76"/>
<polygon fill="black" stroke="black" points="123.83,-1647.54 114.35,-1642.8 118.81,-1652.41 123.83,-1647.54"/>
</g>
<!-- hdfeos5&#45;&gt;pynio -->
<g id="edge19" class="edge">
<title>hdfeos5&#45;&gt;pynio</title>
<path fill="none" stroke="black" d="M170.46,-1679.7C171.94,-1672.32 173.7,-1663.52 175.35,-1655.25"/>
<polygon fill="black" stroke="black" points="178.75,-1656.08 177.28,-1645.59 171.89,-1654.71 178.75,-1656.08"/>
</g>
<!-- r&#45;hdf5r -->
<g id="node25" class="node">
<title>r&#45;hdf5r</title>
<g id="a_node25"><a xlink:href="https://github.com/conda-forge/r-hdf5r-feedstock/pull/28" xlink:title="r hdf5r ❎">
<ellipse fill="#31688e" stroke="black" cx="1577" cy="-1590" rx="58" ry="18"/>
<text text-anchor="middle" x="1577" y="-1586.3" font-family="Times,serif" font-size="14.00" fill="white">r hdf5r ❎</text>
</a>
</g>
</g>
<!-- libcdms&#45;&gt;r&#45;hdf5r -->
<!-- r&#45;ncdf4 -->
<g id="node35" class="node">
<title>r&#45;ncdf4</title>
<g id="a_node35"><a xlink:href="https://github.com/conda-forge/r-ncdf4-feedstock" xlink:title="r ncdf4">
<ellipse fill="#ff8c00" stroke="black" cx="1577" cy="-1518" rx="44.39" ry="18"/>
<text text-anchor="middle" x="1577" y="-1514.3" font-family="Times,serif" font-size="14.00">r ncdf4</text>
</a>
</g>
</g>
<!-- r&#45;hdf5r&#45;&gt;r&#45;ncdf4 -->
<!-- libitk -->
<g id="node26" class="node">
<title>libitk</title>
<g id="a_node26"><a xlink:href="https://github.com/conda-forge/libitk-feedstock/pull/81" xlink:title="libitk ❎">
<ellipse fill="#31688e" stroke="black" cx="577" cy="-90" rx="48.99" ry="18"/>
<text text-anchor="middle" x="577" y="-86.3" font-family="Times,serif" font-size="14.00" fill="white">libitk ❎</text>
</a>
</g>
</g>
<!-- stir -->
<g id="node27" class="node">
<title>stir</title>
<g id="a_node27"><a xlink:href="https://github.com/conda-forge/stir-feedstock" xlink:title="stir">
<ellipse fill="#fde725" stroke="black" cx="577" cy="-18" rx="27" ry="18"/>
<text text-anchor="middle" x="577" y="-14.3" font-family="Times,serif" font-size="14.00">stir</text>
</a>
</g>
</g>
<!-- libitk&#45;&gt;stir -->
<g id="edge22" class="edge">
<title>libitk&#45;&gt;stir</title>
<path fill="none" stroke="black" d="M577,-71.7C577,-64.41 577,-55.73 577,-47.54"/>
<polygon fill="black" stroke="black" points="580.5,-47.62 577,-37.62 573.5,-47.62 580.5,-47.62"/>
</g>
<!-- moab -->
<g id="node28" class="node">
<title>moab</title>
<g id="a_node28"><a xlink:href="https://github.com/conda-forge/moab-feedstock" xlink:title="moab">
<ellipse fill="#35b779" stroke="black" cx="1601" cy="-314" rx="36.5" ry="18"/>
<text text-anchor="middle" x="1601" y="-310.3" font-family="Times,serif" font-size="14.00">moab</text>
</a>
</g>
</g>
<!-- openmc -->
<g id="node29" class="node">
<title>openmc</title>
<g id="a_node29"><a xlink:href="https://github.com/conda-forge/openmc-feedstock" xlink:title="openmc">
<ellipse fill="#fde725" stroke="black" cx="1564" cy="-242" rx="47" ry="18"/>
<text text-anchor="middle" x="1564" y="-238.3" font-family="Times,serif" font-size="14.00">openmc</text>
</a>
</g>
</g>
<!-- moab&#45;&gt;openmc -->
<g id="edge23" class="edge">
<title>moab&#45;&gt;openmc</title>
<path fill="none" stroke="black" d="M1592.04,-296.05C1587.86,-288.14 1582.79,-278.54 1578.11,-269.69"/>
<polygon fill="black" stroke="black" points="1581.35,-268.33 1573.58,-261.13 1575.16,-271.6 1581.35,-268.33"/>
</g>
<!-- pyne -->
<g id="node30" class="node">
<title>pyne</title>
<g id="a_node30"><a xlink:href="https://github.com/conda-forge/pyne-feedstock" xlink:title="pyne">
<ellipse fill="#fde725" stroke="black" cx="1601" cy="-170" rx="33.29" ry="18"/>
<text text-anchor="middle" x="1601" y="-166.3" font-family="Times,serif" font-size="14.00">pyne</text>
</a>
</g>
</g>
<!-- moab&#45;&gt;pyne -->
<g id="edge24" class="edge">
<title>moab&#45;&gt;pyne</title>
<path fill="none" stroke="black" d="M1608.7,-296.22C1612.96,-285.99 1617.82,-272.52 1620,-260 1622.74,-244.24 1622.74,-239.76 1620,-224 1618.52,-215.49 1615.8,-206.54 1612.87,-198.47"/>
<polygon fill="black" stroke="black" points="1616.14,-197.23 1609.25,-189.19 1609.62,-199.78 1616.14,-197.23"/>
</g>
<!-- openmc&#45;&gt;pyne -->
<g id="edge25" class="edge">
<title>openmc&#45;&gt;pyne</title>
<path fill="none" stroke="black" d="M1572.96,-224.05C1577.14,-216.14 1582.21,-206.54 1586.89,-197.69"/>
<polygon fill="black" stroke="black" points="1589.84,-199.6 1591.42,-189.13 1583.65,-196.33 1589.84,-199.6"/>
</g>
<!-- netcdf&#45;cxx4 -->
<g id="node31" class="node">
<title>netcdf&#45;cxx4</title>
<g id="a_node31"><a xlink:href="https://github.com/conda-forge/netcdf-cxx4-feedstock" xlink:title="netcdf cxx4">
<ellipse fill="#ff8c00" stroke="black" cx="1582" cy="-826" rx="64.5" ry="18"/>
<text text-anchor="middle" x="1582" y="-822.3" font-family="Times,serif" font-size="14.00">netcdf cxx4</text>
</a>
</g>
</g>
<!-- pytrilinos -->
<g id="node32" class="node">
<title>pytrilinos</title>
<g id="a_node32"><a xlink:href="https://github.com/conda-forge/pytrilinos-feedstock" xlink:title="pytrilinos">
<ellipse fill="#fde725" stroke="black" cx="1541" cy="-754" rx="55.49" ry="18"/>
<text text-anchor="middle" x="1541" y="-750.3" font-family="Times,serif" font-size="14.00">pytrilinos</text>
</a>
</g>
</g>
<!-- netcdf&#45;cxx4&#45;&gt;pytrilinos -->
<g id="edge26" class="edge">
<title>netcdf&#45;cxx4&#45;&gt;pytrilinos</title>
<path fill="none" stroke="black" d="M1572.08,-808.05C1567.44,-800.14 1561.82,-790.54 1556.63,-781.69"/>
<polygon fill="black" stroke="black" points="1559.67,-779.95 1551.6,-773.1 1553.63,-783.49 1559.67,-779.95"/>
</g>
<!-- trilinos -->
<g id="node33" class="node">
<title>trilinos</title>
<g id="a_node33"><a xlink:href="https://github.com/conda-forge/trilinos-feedstock" xlink:title="trilinos">
<ellipse fill="#fde725" stroke="black" cx="1624" cy="-682" rx="44.39" ry="18"/>
<text text-anchor="middle" x="1624" y="-678.3" font-family="Times,serif" font-size="14.00">trilinos</text>
</a>
</g>
</g>
<!-- netcdf&#45;cxx4&#45;&gt;trilinos -->
<g id="edge27" class="edge">
<title>netcdf&#45;cxx4&#45;&gt;trilinos</title>
<path fill="none" stroke="black" d="M1590.56,-807.67C1595.33,-797.48 1601.08,-784.23 1605,-772 1611.34,-752.19 1616.18,-729.23 1619.39,-711.59"/>
<polygon fill="black" stroke="black" points="1622.83,-712.27 1621.09,-701.82 1615.93,-711.07 1622.83,-712.27"/>
</g>
<!-- paraview -->
<g id="node34" class="node">
<title>paraview</title>
<g id="a_node34"><a xlink:href="https://github.com/conda-forge/paraview-feedstock" xlink:title="paraview">
<ellipse fill="#fde725" stroke="black" cx="1284" cy="-242" rx="53.5" ry="18"/>
<text text-anchor="middle" x="1284" y="-238.3" font-family="Times,serif" font-size="14.00">paraview</text>
</a>
</g>
</g>
<!-- yaafe -->
<g id="node36" class="node">
<title>yaafe</title>
<g id="a_node36"><a xlink:href="https://github.com/conda-forge/yaafe-feedstock/pull/22" xlink:title="yaafe ❎">
<ellipse fill="#31688e" stroke="black" cx="1577" cy="-1446" rx="50.09" ry="18"/>
<text text-anchor="middle" x="1577" y="-1442.3" font-family="Times,serif" font-size="14.00" fill="white">yaafe ❎</text>
</a>
</g>
</g>
<!-- r&#45;ncdf4&#45;&gt;yaafe -->
<!-- siesta -->
<g id="node37" class="node">
<title>siesta</title>
<g id="a_node37"><a xlink:href="https://github.com/conda-forge/siesta-feedstock" xlink:title="siesta">
<ellipse fill="#35b779" stroke="black" cx="1577" cy="-1374" rx="38.5" ry="18"/>
<text text-anchor="middle" x="1577" y="-1370.3" font-family="Times,serif" font-size="14.00">siesta</text>
</a>
</g>
</g>
<!-- yaafe&#45;&gt;siesta -->
<!-- numcosmo -->
<g id="node38" class="node">
<title>numcosmo</title>
<g id="a_node38"><a xlink:href="https://github.com/conda-forge/numcosmo-feedstock/pull/32" xlink:title="numcosmo ✓">
<ellipse fill="#31688e" stroke="black" cx="1577" cy="-1302" rx="67.69" ry="18"/>
<text text-anchor="middle" x="1577" y="-1298.3" font-family="Times,serif" font-size="14.00" fill="white">numcosmo ✓</text>
</a>
</g>
</g>
<!-- siesta&#45;&gt;numcosmo -->
<!-- lammps -->
<g id="node45" class="node">
<title>lammps</title>
<g id="a_node45"><a xlink:href="https://github.com/conda-forge/lammps-feedstock/pull/139" xlink:title="lammps ✓">
<ellipse fill="#31688e" stroke="black" cx="1577" cy="-1230" rx="54.69" ry="18"/>
<text text-anchor="middle" x="1577" y="-1226.3" font-family="Times,serif" font-size="14.00" fill="white">lammps ✓</text>
</a>
</g>
</g>
<!-- numcosmo&#45;&gt;lammps -->
<!-- vtk -->
<g id="node39" class="node">
<title>vtk</title>
<g id="a_node39"><a xlink:href="https://github.com/conda-forge/vtk-feedstock/pull/289" xlink:title="vtk ✓">
<ellipse fill="#31688e" stroke="black" cx="878" cy="-1698" rx="32.5" ry="18"/>
<text text-anchor="middle" x="878" y="-1694.3" font-family="Times,serif" font-size="14.00" fill="white">vtk ✓</text>
</a>
</g>
</g>
<!-- vtk&#45;&gt;freecad -->
<g id="edge32" class="edge">
<title>vtk&#45;&gt;freecad</title>
<path fill="none" stroke="black" d="M852.26,-1686.82C823.63,-1675.5 776.93,-1657.03 742.98,-1643.6"/>
<polygon fill="black" stroke="black" points="744.44,-1640.42 733.85,-1639.99 741.87,-1646.93 744.44,-1640.42"/>
</g>
<!-- ifcopenshell -->
<g id="node40" class="node">
<title>ifcopenshell</title>
<g id="a_node40"><a xlink:href="https://github.com/conda-forge/ifcopenshell-feedstock" xlink:title="ifcopenshell">
<ellipse fill="#fde725" stroke="black" cx="926" cy="-1626" rx="66.5" ry="18"/>
<text text-anchor="middle" x="926" y="-1622.3" font-family="Times,serif" font-size="14.00">ifcopenshell</text>
</a>
</g>
</g>
<!-- vtk&#45;&gt;ifcopenshell -->
<g id="edge33" class="edge">
<title>vtk&#45;&gt;ifcopenshell</title>
<path fill="none" stroke="black" d="M889.13,-1680.76C894.66,-1672.7 901.49,-1662.74 907.76,-1653.6"/>
<polygon fill="black" stroke="black" points="910.63,-1655.6 913.4,-1645.37 904.86,-1651.64 910.63,-1655.6"/>
</g>
<!-- bonsu -->
<g id="node41" class="node">
<title>bonsu</title>
<g id="a_node41"><a xlink:href="https://github.com/conda-forge/bonsu-feedstock" xlink:title="bonsu">
<ellipse fill="#fde725" stroke="black" cx="1021" cy="-1554" rx="38.5" ry="18"/>
<text text-anchor="middle" x="1021" y="-1550.3" font-family="Times,serif" font-size="14.00">bonsu</text>
</a>
</g>
</g>
<!-- vtk&#45;&gt;bonsu -->
<g id="edge34" class="edge">
<title>vtk&#45;&gt;bonsu</title>
<path fill="none" stroke="black" d="M909.08,-1692.03C937.56,-1685.8 978.72,-1672.29 1002,-1644 1015.82,-1627.21 1020.27,-1602.74 1021.43,-1583.71"/>
<polygon fill="black" stroke="black" points="1024.93,-1584.02 1021.74,-1573.92 1017.93,-1583.8 1024.93,-1584.02"/>
</g>
<!-- esys&#45;escript -->
<g id="node42" class="node">
<title>esys&#45;escript</title>
<g id="a_node42"><a xlink:href="https://github.com/conda-forge/esys-escript-feedstock" xlink:title="esys escript">
<ellipse fill="#fde725" stroke="black" cx="1088" cy="-1482" rx="66.5" ry="18"/>
<text text-anchor="middle" x="1088" y="-1478.3" font-family="Times,serif" font-size="14.00">esys escript</text>
</a>
</g>
</g>
<!-- vtk&#45;&gt;esys&#45;escript -->
<g id="edge35" class="edge">
<title>vtk&#45;&gt;esys&#45;escript</title>
<path fill="none" stroke="black" d="M908.86,-1691.92C940.59,-1685.4 990.04,-1671.48 1024,-1644 1064.76,-1611.03 1079.68,-1548.32 1085.06,-1511.65"/>
<polygon fill="black" stroke="black" points="1088.52,-1512.17 1086.34,-1501.8 1081.58,-1511.26 1088.52,-1512.17"/>
</g>
<!-- damask -->
<g id="node43" class="node">
<title>damask</title>
<g id="a_node43"><a xlink:href="https://github.com/conda-forge/damask-feedstock" xlink:title="damask">
<ellipse fill="#fde725" stroke="black" cx="757" cy="-1410" rx="46.29" ry="18"/>
<text text-anchor="middle" x="757" y="-1406.3" font-family="Times,serif" font-size="14.00">damask</text>
</a>
</g>
</g>
<!-- vtk&#45;&gt;damask -->
<g id="edge36" class="edge">
<title>vtk&#45;&gt;damask</title>
<path fill="none" stroke="black" d="M857.26,-1683.89C843.87,-1674.38 827.11,-1660.35 817,-1644 776.37,-1578.28 763.13,-1485.89 758.91,-1439.68"/>
<polygon fill="black" stroke="black" points="762.42,-1439.64 758.11,-1429.96 755.44,-1440.21 762.42,-1439.64"/>
</g>
<!-- pycgns -->
<g id="node44" class="node">
<title>pycgns</title>
<g id="a_node44"><a xlink:href="https://github.com/conda-forge/pycgns-feedstock" xlink:title="pycgns">
<ellipse fill="#fde725" stroke="black" cx="831" cy="-1338" rx="43.59" ry="18"/>
<text text-anchor="middle" x="831" y="-1334.3" font-family="Times,serif" font-size="14.00">pycgns</text>
</a>
</g>
</g>
<!-- vtk&#45;&gt;pycgns -->
<g id="edge37" class="edge">
<title>vtk&#45;&gt;pycgns</title>
<path fill="none" stroke="black" d="M868.39,-1680.77C862.66,-1670.51 855.62,-1656.82 851,-1644 837.25,-1605.86 831,-1595.54 831,-1555 831,-1555 831,-1555 831,-1481 831,-1441.74 831,-1396.38 831,-1367.69"/>
<polygon fill="black" stroke="black" points="834.5,-1368 831,-1358 827.5,-1368 834.5,-1368"/>
</g>
<!-- cmor -->
<g id="node46" class="node">
<title>cmor</title>
<g id="a_node46"><a xlink:href="https://github.com/conda-forge/cmor-feedstock" xlink:title="cmor">
<ellipse fill="#35b779" stroke="black" cx="1577" cy="-1158" rx="34.5" ry="18"/>
<text text-anchor="middle" x="1577" y="-1154.3" font-family="Times,serif" font-size="14.00">cmor</text>
</a>
</g>
</g>
<!-- lammps&#45;&gt;cmor -->
<!-- openpmd&#45;api -->
<g id="node47" class="node">
<title>openpmd&#45;api</title>
<g id="a_node47"><a xlink:href="https://github.com/conda-forge/openpmd-api-feedstock" xlink:title="openpmd api">
<ellipse fill="#fde725" stroke="black" cx="1294" cy="-682" rx="71" ry="18"/>
<text text-anchor="middle" x="1294" y="-678.3" font-family="Times,serif" font-size="14.00">openpmd api</text>
</a>
</g>
</g>
<!-- openmeeg -->
<g id="node48" class="node">
<title>openmeeg</title>
<g id="a_node48"><a xlink:href="https://github.com/conda-forge/openmeeg-feedstock/pull/42" xlink:title="openmeeg ❎">
<ellipse fill="#31688e" stroke="black" cx="1320" cy="-1878" rx="73" ry="18"/>
<text text-anchor="middle" x="1320" y="-1874.3" font-family="Times,serif" font-size="14.00" fill="white">openmeeg ❎</text>
</a>
</g>
</g>
<!-- mpas_tools -->
<g id="node49" class="node">
<title>mpas_tools</title>
<g id="a_node49"><a xlink:href="https://github.com/conda-forge/mpas_tools-feedstock" xlink:title="mpas_tools">
<ellipse fill="#35b779" stroke="black" cx="1320" cy="-1806" rx="62.5" ry="18"/>
<text text-anchor="middle" x="1320" y="-1802.3" font-family="Times,serif" font-size="14.00">mpas_tools</text>
</a>
</g>
</g>
<!-- openmeeg&#45;&gt;mpas_tools -->
<!-- dakota -->
<g id="node50" class="node">
<title>dakota</title>
<g id="a_node50"><a xlink:href="https://github.com/conda-forge/dakota-feedstock" xlink:title="dakota">
<ellipse fill="#ff8c00" stroke="black" cx="1320" cy="-1734" rx="42.49" ry="18"/>
<text text-anchor="middle" x="1320" y="-1730.3" font-family="Times,serif" font-size="14.00">dakota</text>
</a>
</g>
</g>
<!-- mpas_tools&#45;&gt;dakota -->
<!-- ncview -->
<g id="node54" class="node">
<title>ncview</title>
<g id="a_node54"><a xlink:href="https://github.com/conda-forge/ncview-feedstock" xlink:title="ncview">
<ellipse fill="#35b779" stroke="black" cx="1320" cy="-1662" rx="43" ry="18"/>
<text text-anchor="middle" x="1320" y="-1658.3" font-family="Times,serif" font-size="14.00">ncview</text>
</a>
</g>
</g>
<!-- dakota&#45;&gt;ncview -->
<!-- adios2 -->
<g id="node51" class="node">
<title>adios2</title>
<g id="a_node51"><a xlink:href="https://github.com/conda-forge/adios2-feedstock/pull/70" xlink:title="adios2 ❎">
<ellipse fill="#31688e" stroke="black" cx="1287" cy="-826" rx="55.49" ry="18"/>
<text text-anchor="middle" x="1287" y="-822.3" font-family="Times,serif" font-size="14.00" fill="white">adios2 ❎</text>
</a>
</g>
</g>
<!-- adios2&#45;&gt;casacore -->
<g id="edge42" class="edge">
<title>adios2&#45;&gt;casacore</title>
<path fill="none" stroke="black" d="M1269.7,-808.41C1260.54,-799.63 1249.13,-788.69 1239.03,-779"/>
<polygon fill="black" stroke="black" points="1241.66,-776.67 1232.02,-772.28 1236.81,-781.72 1241.66,-776.67"/>
</g>
<!-- adios2&#45;&gt;fenics&#45;dolfinx -->
<g id="edge43" class="edge">
<title>adios2&#45;&gt;fenics&#45;dolfinx</title>
<path fill="none" stroke="black" d="M1313.12,-809.64C1329.51,-799.99 1350.9,-787.41 1369.03,-776.75"/>
<polygon fill="black" stroke="black" points="1370.56,-779.91 1377.4,-771.82 1367.01,-773.88 1370.56,-779.91"/>
</g>
<!-- adios2&#45;&gt;openpmd&#45;api -->
<g id="edge44" class="edge">
<title>adios2&#45;&gt;openpmd&#45;api</title>
<path fill="none" stroke="black" d="M1287.86,-807.59C1289.04,-783.61 1291.18,-740.14 1292.6,-711.42"/>
<polygon fill="black" stroke="black" points="1296.09,-711.78 1293.08,-701.62 1289.09,-711.44 1296.09,-711.78"/>
</g>
<!-- cgns -->
<g id="node52" class="node">
<title>cgns</title>
<g id="a_node52"><a xlink:href="https://github.com/conda-forge/cgns-feedstock/pull/27" xlink:title="cgns ❎">
<ellipse fill="#31688e" stroke="black" cx="1325" cy="-314" rx="46.29" ry="18"/>
<text text-anchor="middle" x="1325" y="-310.3" font-family="Times,serif" font-size="14.00" fill="white">cgns ❎</text>
</a>
</g>
</g>
<!-- cgns&#45;&gt;paraview -->
<g id="edge45" class="edge">
<title>cgns&#45;&gt;paraview</title>
<path fill="none" stroke="black" d="M1315.08,-296.05C1310.44,-288.14 1304.82,-278.54 1299.63,-269.69"/>
<polygon fill="black" stroke="black" points="1302.67,-267.95 1294.6,-261.1 1296.63,-271.49 1302.67,-267.95"/>
</g>
<!-- tomviz -->
<g id="node53" class="node">
<title>tomviz</title>
<g id="a_node53"><a xlink:href="https://github.com/conda-forge/tomviz-feedstock" xlink:title="tomviz">
<ellipse fill="#fde725" stroke="black" cx="1366" cy="-170" rx="42.49" ry="18"/>
<text text-anchor="middle" x="1366" y="-166.3" font-family="Times,serif" font-size="14.00">tomviz</text>
</a>
</g>
</g>
<!-- cgns&#45;&gt;tomviz -->
<g id="edge46" class="edge">
<title>cgns&#45;&gt;tomviz</title>
<path fill="none" stroke="black" d="M1332.94,-296.11C1337.54,-285.84 1343.15,-272.37 1347,-260 1353.18,-240.14 1358.03,-217.18 1361.28,-199.55"/>
<polygon fill="black" stroke="black" points="1364.71,-200.25 1363.01,-189.79 1357.82,-199.03 1364.71,-200.25"/>
</g>
<!-- proteus -->
<g id="node55" class="node">
<title>proteus</title>
<g id="a_node55"><a xlink:href="https://github.com/conda-forge/proteus-feedstock/pull/53" xlink:title="proteus ❎">
<ellipse fill="#31688e" stroke="black" cx="1320" cy="-1590" rx="60.5" ry="18"/>
<text text-anchor="middle" x="1320" y="-1586.3" font-family="Times,serif" font-size="14.00" fill="white">proteus ❎</text>
</a>
</g>
</g>
<!-- ncview&#45;&gt;proteus -->
<!-- hdf5&#45;external&#45;filter&#45;plugins -->
<g id="node56" class="node">
<title>hdf5&#45;external&#45;filter&#45;plugins</title>
<g id="a_node56"><a xlink:href="https://github.com/conda-forge/hdf5-external-filter-plugins-feedstock/pull/19" xlink:title="hdf5 external filter plugins ✓">
<ellipse fill="#31688e" stroke="black" cx="1320" cy="-1518" rx="143" ry="18"/>
<text text-anchor="middle" x="1320" y="-1514.3" font-family="Times,serif" font-size="14.00" fill="white">hdf5 external filter plugins ✓</text>
</a>
</g>
</g>
<!-- proteus&#45;&gt;hdf5&#45;external&#45;filter&#45;plugins -->
<!-- prismatic_split -->
<g id="node57" class="node">
<title>prismatic_split</title>
<g id="a_node57"><a xlink:href="https://github.com/conda-forge/prismatic_split-feedstock" xlink:title="prismatic_split">
<ellipse fill="#ff8c00" stroke="black" cx="1320" cy="-1446" rx="79.5" ry="18"/>
<text text-anchor="middle" x="1320" y="-1442.3" font-family="Times,serif" font-size="14.00">prismatic_split</text>
</a>
</g>
</g>
<!-- hdf5&#45;external&#45;filter&#45;plugins&#45;&gt;prismatic_split -->
<!-- digital_rf -->
<g id="node58" class="node">
<title>digital_rf</title>
<g id="a_node58"><a xlink:href="https://github.com/conda-forge/digital_rf-feedstock/pull/25" xlink:title="digital_rf ❎">
<ellipse fill="#31688e" stroke="black" cx="1320" cy="-1374" rx="67" ry="18"/>
<text text-anchor="middle" x="1320" y="-1370.3" font-family="Times,serif" font-size="14.00" fill="white">digital_rf ❎</text>
</a>
</g>
</g>
<!-- prismatic_split&#45;&gt;digital_rf -->
<!-- ecell4_base -->
<g id="node59" class="node">
<title>ecell4_base</title>
<g id="a_node59"><a xlink:href="https://github.com/conda-forge/ecell4_base-feedstock/pull/22" xlink:title="ecell4_base ❎">
<ellipse fill="#31688e" stroke="black" cx="1320" cy="-1302" rx="78" ry="18"/>
<text text-anchor="middle" x="1320" y="-1298.3" font-family="Times,serif" font-size="14.00" fill="white">ecell4_base ❎</text>
</a>
</g>
</g>
<!-- digital_rf&#45;&gt;ecell4_base -->
<!-- nccmp -->
<g id="node60" class="node">
<title>nccmp</title>
<g id="a_node60"><a xlink:href="https://github.com/conda-forge/nccmp-feedstock" xlink:title="nccmp">
<ellipse fill="#35b779" stroke="black" cx="1320" cy="-1230" rx="41" ry="18"/>
<text text-anchor="middle" x="1320" y="-1226.3" font-family="Times,serif" font-size="14.00">nccmp</text>
</a>
</g>
</g>
<!-- ecell4_base&#45;&gt;nccmp -->
<!-- mbsolve -->
<g id="node61" class="node">
<title>mbsolve</title>
<g id="a_node61"><a xlink:href="https://github.com/conda-forge/mbsolve-feedstock/pull/14" xlink:title="mbsolve ❎">
<ellipse fill="#31688e" stroke="black" cx="1320" cy="-1158" rx="63.89" ry="18"/>
<text text-anchor="middle" x="1320" y="-1154.3" font-family="Times,serif" font-size="14.00" fill="white">mbsolve ❎</text>
</a>
</g>
</g>
<!-- nccmp&#45;&gt;mbsolve -->
<!-- triqs_cthyb -->
<g id="node62" class="node">
<title>triqs_cthyb</title>
<g id="a_node62"><a xlink:href="https://github.com/conda-forge/triqs_cthyb-feedstock/pull/29" xlink:title="triqs_cthyb ❎">
<ellipse fill="#31688e" stroke="black" cx="577" cy="-1114" rx="77.5" ry="18"/>
<text text-anchor="middle" x="577" y="-1110.3" font-family="Times,serif" font-size="14.00" fill="white">triqs_cthyb ❎</text>
</a>
</g>
</g>
<!-- pp&#45;sketchlib -->
<g id="node63" class="node">
<title>pp&#45;sketchlib</title>
<g id="a_node63"><a xlink:href="https://github.com/conda-forge/pp-sketchlib-feedstock" xlink:title="pp sketchlib">
<ellipse fill="#35b779" stroke="black" cx="577" cy="-1042" rx="67.69" ry="18"/>
<text text-anchor="middle" x="577" y="-1038.3" font-family="Times,serif" font-size="14.00">pp sketchlib</text>
</a>
</g>
</g>
<!-- triqs_cthyb&#45;&gt;pp&#45;sketchlib -->
<!-- abinit -->
<g id="node64" class="node">
<title>abinit</title>
<g id="a_node64"><a xlink:href="https://github.com/conda-forge/abinit-feedstock" xlink:title="abinit">
<ellipse fill="#35b779" stroke="black" cx="577" cy="-970" rx="37.89" ry="18"/>
<text text-anchor="middle" x="577" y="-966.3" font-family="Times,serif" font-size="14.00">abinit</text>
</a>
</g>
</g>
<!-- pp&#45;sketchlib&#45;&gt;abinit -->
<!-- polycap -->
<g id="node65" class="node">
<title>polycap</title>
<g id="a_node65"><a xlink:href="https://github.com/conda-forge/polycap-feedstock/pull/16" xlink:title="polycap ❎">
<ellipse fill="#31688e" stroke="black" cx="577" cy="-898" rx="60.5" ry="18"/>
<text text-anchor="middle" x="577" y="-894.3" font-family="Times,serif" font-size="14.00" fill="white">polycap ❎</text>
</a>
</g>
</g>
<!-- abinit&#45;&gt;polycap -->
<!-- fates&#45;emerald -->
<g id="node66" class="node">
<title>fates&#45;emerald</title>
<g id="a_node66"><a xlink:href="https://github.com/conda-forge/fates-emerald-feedstock" xlink:title="fates emerald">
<ellipse fill="#35b779" stroke="black" cx="577" cy="-826" rx="74.99" ry="18"/>
<text text-anchor="middle" x="577" y="-822.3" font-family="Times,serif" font-size="14.00">fates emerald</text>
</a>
</g>
</g>
<!-- polycap&#45;&gt;fates&#45;emerald -->
<!-- muq -->
<g id="node67" class="node">
<title>muq</title>
<g id="a_node67"><a xlink:href="https://github.com/conda-forge/muq-feedstock/pull/31" xlink:title="muq ✓">
<ellipse fill="#31688e" stroke="black" cx="577" cy="-754" rx="38.5" ry="18"/>
<text text-anchor="middle" x="577" y="-750.3" font-family="Times,serif" font-size="14.00" fill="white">muq ✓</text>
</a>
</g>
</g>
<!-- fates&#45;emerald&#45;&gt;muq -->
<!-- sirius -->
<g id="node68" class="node">
<title>sirius</title>
<g id="a_node68"><a xlink:href="https://github.com/conda-forge/sirius-feedstock/pull/19" xlink:title="sirius ❎">
<ellipse fill="#31688e" stroke="black" cx="577" cy="-682" rx="50.89" ry="18"/>
<text text-anchor="middle" x="577" y="-678.3" font-family="Times,serif" font-size="14.00" fill="white">sirius ❎</text>
</a>
</g>
</g>
<!-- muq&#45;&gt;sirius -->
<!-- bmad -->
<g id="node69" class="node">
<title>bmad</title>
<g id="a_node69"><a xlink:href="https://github.com/conda-forge/bmad-feedstock/pull/200" xlink:title="bmad ✓">
<ellipse fill="#31688e" stroke="black" cx="577" cy="-610" rx="44.39" ry="18"/>
<text text-anchor="middle" x="577" y="-606.3" font-family="Times,serif" font-size="14.00" fill="white">bmad ✓</text>
</a>
</g>
</g>
<!-- sirius&#45;&gt;bmad -->
<!-- yambo -->
<g id="node70" class="node">
<title>yambo</title>
<g id="a_node70"><a xlink:href="https://github.com/conda-forge/yambo-feedstock" xlink:title="yambo">
<ellipse fill="#35b779" stroke="black" cx="577" cy="-538" rx="41.69" ry="18"/>
<text text-anchor="middle" x="577" y="-534.3" font-family="Times,serif" font-size="14.00">yambo</text>
</a>
</g>
</g>
<!-- bmad&#45;&gt;yambo -->
<!-- cadet -->
<g id="node71" class="node">
<title>cadet</title>
<g id="a_node71"><a xlink:href="https://github.com/conda-forge/cadet-feedstock/pull/7" xlink:title="cadet ❎">
<ellipse fill="#31688e" stroke="black" cx="577" cy="-466" rx="50.09" ry="18"/>
<text text-anchor="middle" x="577" y="-462.3" font-family="Times,serif" font-size="14.00" fill="white">cadet ❎</text>
</a>
</g>
</g>
<!-- yambo&#45;&gt;cadet -->
<!-- ccr -->
<g id="node72" class="node">
<title>ccr</title>
<g id="a_node72"><a xlink:href="https://github.com/conda-forge/ccr-feedstock" xlink:title="ccr">
<ellipse fill="#35b779" stroke="black" cx="577" cy="-394" rx="27" ry="18"/>
<text text-anchor="middle" x="577" y="-390.3" font-family="Times,serif" font-size="14.00">ccr</text>
</a>
</g>
</g>
<!-- cadet&#45;&gt;ccr -->
<!-- dxtbx -->
<g id="node73" class="node">
<title>dxtbx</title>
<g id="a_node73"><a xlink:href="https://github.com/conda-forge/dxtbx-feedstock/pull/31" xlink:title="dxtbx ❎">
<ellipse fill="#31688e" stroke="black" cx="577" cy="-350" rx="51.5" ry="18"/>
<text text-anchor="middle" x="577" y="-346.3" font-family="Times,serif" font-size="14.00" fill="white">dxtbx ❎</text>
</a>
</g>
</g>
<!-- trexio -->
<g id="node74" class="node">
<title>trexio</title>
<g id="a_node74"><a xlink:href="https://github.com/conda-forge/trexio-feedstock/pull/6" xlink:title="trexio ❎">
<ellipse fill="#31688e" stroke="black" cx="577" cy="-278" rx="52" ry="18"/>
<text text-anchor="middle" x="577" y="-274.3" font-family="Times,serif" font-size="14.00" fill="white">trexio ❎</text>
</a>
</g>
</g>
<!-- dxtbx&#45;&gt;trexio -->
<!-- freefem -->
<g id="node75" class="node">
<title>freefem</title>
<g id="a_node75"><a xlink:href="https://github.com/conda-forge/freefem-feedstock/pull/3" xlink:title="freefem ✓">
<ellipse fill="#31688e" stroke="black" cx="577" cy="-206" rx="54" ry="18"/>
<text text-anchor="middle" x="577" y="-202.3" font-family="Times,serif" font-size="14.00" fill="white">freefem ✓</text>
</a>
</g>
</g>
<!-- trexio&#45;&gt;freefem -->
<!-- fortnet -->
<g id="node76" class="node">
<title>fortnet</title>
<g id="a_node76"><a xlink:href="https://github.com/conda-forge/fortnet-feedstock" xlink:title="fortnet">
<ellipse fill="#ff8c00" stroke="black" cx="577" cy="-134" rx="43" ry="18"/>
<text text-anchor="middle" x="577" y="-130.3" font-family="Times,serif" font-size="14.00">fortnet</text>
</a>
</g>
</g>
<!-- freefem&#45;&gt;fortnet -->
</g>
</svg>
