<?xml version="1.0" encoding="UTF-8" standalone="no"?>
<!DOCTYPE svg PUBLIC "-//W3C//DTD SVG 1.1//EN"
 "http://www.w3.org/Graphics/SVG/1.1/DTD/svg11.dtd">
<!-- Generated by graphviz version 7.1.0 (20230122.1345)
 -->
<!-- Pages: 1 -->
<svg width="1575pt" height="476pt"
 viewBox="0.00 0.00 1574.97 476.00" xmlns="http://www.w3.org/2000/svg" xmlns:xlink="http://www.w3.org/1999/xlink">
<g id="graph0" class="graph" transform="scale(1 1) rotate(0) translate(4 472)">
<polygon fill="white" stroke="none" points="-4,4 -4,-472 1570.97,-472 1570.97,4 -4,4"/>
<!-- boost&#45;cpp -->
<g id="node1" class="node">
<title>boost&#45;cpp</title>
<g id="a_node1"><a xlink:href="https://github.com/conda-forge/boost-cpp-feedstock" xlink:title="boost cpp">
<ellipse fill="#fde725" stroke="black" cx="522.47" cy="-306" rx="56" ry="18"/>
<text text-anchor="middle" x="522.47" y="-302.3" font-family="Times,serif" font-size="14.00">boost cpp</text>
</a>
</g>
</g>
<!-- gdal -->
<g id="node2" class="node">
<title>gdal</title>
<g id="a_node2"><a xlink:href="https://github.com/conda-forge/gdal-feedstock" xlink:title="gdal">
<ellipse fill="#fde725" stroke="black" cx="463.47" cy="-234" rx="30.59" ry="18"/>
<text text-anchor="middle" x="463.47" y="-230.3" font-family="Times,serif" font-size="14.00">gdal</text>
</a>
</g>
</g>
<!-- boost&#45;cpp&#45;&gt;gdal -->
<g id="edge1" class="edge">
<title>boost&#45;cpp&#45;&gt;gdal</title>
<path fill="none" stroke="black" d="M508.49,-288.41C501.16,-279.71 492.03,-268.89 483.92,-259.26"/>
<polygon fill="black" stroke="black" points="486.64,-257.06 477.52,-251.67 481.29,-261.57 486.64,-257.06"/>
</g>
<!-- paraview -->
<g id="node3" class="node">
<title>paraview</title>
<g id="a_node3"><a xlink:href="https://github.com/conda-forge/paraview-feedstock" xlink:title="paraview">
<ellipse fill="#fde725" stroke="black" cx="322.47" cy="-234" rx="53.5" ry="18"/>
<text text-anchor="middle" x="322.47" y="-230.3" font-family="Times,serif" font-size="14.00">paraview</text>
</a>
</g>
</g>
<!-- boost&#45;cpp&#45;&gt;paraview -->
<g id="edge2" class="edge">
<title>boost&#45;cpp&#45;&gt;paraview</title>
<path fill="none" stroke="black" d="M485.79,-292.16C452.98,-280.68 404.73,-263.79 369.18,-251.35"/>
<polygon fill="black" stroke="black" points="370.61,-248.14 360.01,-248.14 368.3,-254.75 370.61,-248.14"/>
</g>
<!-- qgis -->
<g id="node4" class="node">
<title>qgis</title>
<g id="a_node4"><a xlink:href="https://github.com/conda-forge/qgis-feedstock" xlink:title="qgis">
<ellipse fill="#fde725" stroke="black" cx="237.47" cy="-162" rx="30.59" ry="18"/>
<text text-anchor="middle" x="237.47" y="-158.3" font-family="Times,serif" font-size="14.00">qgis</text>
</a>
</g>
</g>
<!-- boost&#45;cpp&#45;&gt;qgis -->
<g id="edge3" class="edge">
<title>boost&#45;cpp&#45;&gt;qgis</title>
<path fill="none" stroke="black" d="M490.95,-290.68C470.88,-280.96 444.76,-267.15 423.47,-252 404.25,-238.32 404.63,-228.24 384.47,-216 350.5,-195.37 307.27,-180.99 276.5,-172.47"/>
<polygon fill="black" stroke="black" points="277.79,-169.19 267.23,-169.99 275.98,-175.96 277.79,-169.19"/>
</g>
<!-- texlive&#45;core -->
<g id="node5" class="node">
<title>texlive&#45;core</title>
<g id="a_node5"><a xlink:href="https://github.com/conda-forge/texlive-core-feedstock" xlink:title="texlive core">
<ellipse fill="#fde725" stroke="black" cx="653.47" cy="-234" rx="65" ry="18"/>
<text text-anchor="middle" x="653.47" y="-230.3" font-family="Times,serif" font-size="14.00">texlive core</text>
</a>
</g>
</g>
<!-- boost&#45;cpp&#45;&gt;texlive&#45;core -->
<g id="edge4" class="edge">
<title>boost&#45;cpp&#45;&gt;texlive&#45;core</title>
<path fill="none" stroke="black" d="M550.57,-289.98C569.23,-280.02 593.96,-266.8 614.5,-255.82"/>
<polygon fill="black" stroke="black" points="616,-258.99 623.17,-251.19 612.7,-252.82 616,-258.99"/>
</g>
<!-- mongodb -->
<g id="node6" class="node">
<title>mongodb</title>
<g id="a_node6"><a xlink:href="https://github.com/conda-forge/mongodb-feedstock" xlink:title="mongodb">
<ellipse fill="#fde725" stroke="black" cx="478.47" cy="-162" rx="54" ry="18"/>
<text text-anchor="middle" x="478.47" y="-158.3" font-family="Times,serif" font-size="14.00">mongodb</text>
</a>
</g>
</g>
<!-- boost&#45;cpp&#45;&gt;mongodb -->
<g id="edge5" class="edge">
<title>boost&#45;cpp&#45;&gt;mongodb</title>
<path fill="none" stroke="black" d="M519.98,-287.62C517.09,-269.45 511.66,-240.25 503.47,-216 500.53,-207.29 496.55,-198.12 492.63,-189.9"/>
<polygon fill="black" stroke="black" points="495.86,-188.53 488.28,-181.13 489.58,-191.64 495.86,-188.53"/>
</g>
<!-- topologytoolkit -->
<g id="node7" class="node">
<title>topologytoolkit</title>
<g id="a_node7"><a xlink:href="https://github.com/conda-forge/topologytoolkit-feedstock" xlink:title="topologytoolkit">
<ellipse fill="#fde725" stroke="black" cx="817.47" cy="-234" rx="80.69" ry="18"/>
<text text-anchor="middle" x="817.47" y="-230.3" font-family="Times,serif" font-size="14.00">topologytoolkit</text>
</a>
</g>
</g>
<!-- boost&#45;cpp&#45;&gt;topologytoolkit -->
<g id="edge6" class="edge">
<title>boost&#45;cpp&#45;&gt;topologytoolkit</title>
<path fill="none" stroke="black" d="M566.64,-294.52C615.91,-282.83 696.11,-263.8 752.53,-250.41"/>
<polygon fill="black" stroke="black" points="753.08,-253.88 762.01,-248.16 751.47,-247.06 753.08,-253.88"/>
</g>
<!-- odil -->
<g id="node8" class="node">
<title>odil</title>
<g id="a_node8"><a xlink:href="https://github.com/conda-forge/odil-feedstock" xlink:title="odil">
<ellipse fill="#fde725" stroke="black" cx="560.47" cy="-90" rx="28" ry="18"/>
<text text-anchor="middle" x="560.47" y="-86.3" font-family="Times,serif" font-size="14.00">odil</text>
</a>
</g>
</g>
<!-- boost&#45;cpp&#45;&gt;odil -->
<g id="edge7" class="edge">
<title>boost&#45;cpp&#45;&gt;odil</title>
<path fill="none" stroke="black" d="M525.52,-287.85C532.03,-251.14 547.39,-164.66 555.41,-119.53"/>
<polygon fill="black" stroke="black" points="558.84,-120.18 557.15,-109.72 551.95,-118.96 558.84,-120.18"/>
</g>
<!-- gdal&#45;&gt;qgis -->
<g id="edge8" class="edge">
<title>gdal&#45;&gt;qgis</title>
<path fill="none" stroke="black" d="M438.37,-223.13C431.92,-220.7 424.97,-218.17 418.47,-216 369.65,-199.66 312.52,-183.4 275.71,-173.28"/>
<polygon fill="black" stroke="black" points="276.99,-170.01 266.43,-170.75 275.15,-176.76 276.99,-170.01"/>
</g>
<!-- harfbuzz -->
<g id="node9" class="node">
<title>harfbuzz</title>
<g id="a_node9"><a xlink:href="https://github.com/conda-forge/harfbuzz-feedstock" xlink:title="harfbuzz">
<ellipse fill="#35b779" stroke="black" cx="728.47" cy="-378" rx="51.5" ry="18"/>
<text text-anchor="middle" x="728.47" y="-374.3" font-family="Times,serif" font-size="14.00">harfbuzz</text>
</a>
</g>
</g>
<!-- harfbuzz&#45;&gt;texlive&#45;core -->
<g id="edge9" class="edge">
<title>harfbuzz&#45;&gt;texlive&#45;core</title>
<path fill="none" stroke="black" d="M719.43,-359.87C706.59,-335.56 682.95,-290.82 667.74,-262.01"/>
<polygon fill="black" stroke="black" points="671.02,-260.74 663.26,-253.53 664.83,-264 671.02,-260.74"/>
</g>
<!-- harfbuzz&#45;&gt;topologytoolkit -->
<g id="edge10" class="edge">
<title>harfbuzz&#45;&gt;topologytoolkit</title>
<path fill="none" stroke="black" d="M739.03,-360.15C754.27,-335.84 782.59,-290.66 800.7,-261.75"/>
<polygon fill="black" stroke="black" points="803.5,-263.88 805.85,-253.55 797.57,-260.16 803.5,-263.88"/>
</g>
<!-- octave -->
<g id="node10" class="node">
<title>octave</title>
<g id="a_node10"><a xlink:href="https://github.com/conda-forge/octave-feedstock" xlink:title="octave">
<ellipse fill="#fde725" stroke="black" cx="209.47" cy="-234" rx="41" ry="18"/>
<text text-anchor="middle" x="209.47" y="-230.3" font-family="Times,serif" font-size="14.00">octave</text>
</a>
</g>
</g>
<!-- harfbuzz&#45;&gt;octave -->
<g id="edge11" class="edge">
<title>harfbuzz&#45;&gt;octave</title>
<path fill="none" stroke="black" d="M681.94,-370.1C627.56,-361.53 535.12,-345.39 457.47,-324 382.39,-303.32 297.5,-270.78 249.04,-251.31"/>
<polygon fill="black" stroke="black" points="250.39,-248.08 239.81,-247.57 247.77,-254.57 250.39,-248.08"/>
</g>
<!-- r&#45;base -->
<g id="node11" class="node">
<title>r&#45;base</title>
<g id="a_node11"><a xlink:href="https://github.com/conda-forge/r-base-feedstock" xlink:title="r base">
<ellipse fill="#fde725" stroke="black" cx="954.47" cy="-306" rx="39.79" ry="18"/>
<text text-anchor="middle" x="954.47" y="-302.3" font-family="Times,serif" font-size="14.00">r base</text>
</a>
</g>
</g>
<!-- harfbuzz&#45;&gt;r&#45;base -->
<g id="edge12" class="edge">
<title>harfbuzz&#45;&gt;r&#45;base</title>
<path fill="none" stroke="black" d="M766.04,-365.36C806.06,-352.97 869.29,-333.39 911.31,-320.37"/>
<polygon fill="black" stroke="black" points="912.34,-323.71 920.86,-317.41 910.27,-317.03 912.34,-323.71"/>
</g>
<!-- tectonic -->
<g id="node12" class="node">
<title>tectonic</title>
<g id="a_node12"><a xlink:href="https://github.com/conda-forge/tectonic-feedstock" xlink:title="tectonic">
<ellipse fill="#fde725" stroke="black" cx="1174.47" cy="-306" rx="48.19" ry="18"/>
<text text-anchor="middle" x="1174.47" y="-302.3" font-family="Times,serif" font-size="14.00">tectonic</text>
</a>
</g>
</g>
<!-- harfbuzz&#45;&gt;tectonic -->
<g id="edge13" class="edge">
<title>harfbuzz&#45;&gt;tectonic</title>
<path fill="none" stroke="black" d="M778.02,-372.72C852.36,-365.75 996.88,-350.03 1117.47,-324 1120.85,-323.27 1124.31,-322.44 1127.78,-321.55"/>
<polygon fill="black" stroke="black" points="1128.62,-324.95 1137.35,-318.95 1126.78,-318.2 1128.62,-324.95"/>
</g>
<!-- qt&#45;main -->
<g id="node13" class="node">
<title>qt&#45;main</title>
<g id="a_node13"><a xlink:href="https://github.com/conda-forge/qt-main-feedstock" xlink:title="qt main">
<ellipse fill="#fde725" stroke="black" cx="209.47" cy="-306" rx="46.29" ry="18"/>
<text text-anchor="middle" x="209.47" y="-302.3" font-family="Times,serif" font-size="14.00">qt main</text>
</a>
</g>
</g>
<!-- harfbuzz&#45;&gt;qt&#45;main -->
<g id="edge14" class="edge">
<title>harfbuzz&#45;&gt;qt&#45;main</title>
<path fill="none" stroke="black" d="M681.04,-370.6C584.66,-357.6 366.43,-328.17 264.21,-314.38"/>
<polygon fill="black" stroke="black" points="264.8,-310.93 254.43,-313.06 263.87,-317.87 264.8,-310.93"/>
</g>
<!-- r&#45;stringi -->
<g id="node14" class="node">
<title>r&#45;stringi</title>
<g id="a_node14"><a xlink:href="https://github.com/conda-forge/r-stringi-feedstock" xlink:title="r stringi">
<ellipse fill="#fde725" stroke="black" cx="964.47" cy="-234" rx="48.99" ry="18"/>
<text text-anchor="middle" x="964.47" y="-230.3" font-family="Times,serif" font-size="14.00">r stringi</text>
</a>
</g>
</g>
<!-- r&#45;base&#45;&gt;r&#45;stringi -->
<g id="edge15" class="edge">
<title>r&#45;base&#45;&gt;r&#45;stringi</title>
<path fill="none" stroke="black" d="M956.94,-287.7C958,-280.32 959.25,-271.52 960.44,-263.25"/>
<polygon fill="black" stroke="black" points="963.86,-264 961.81,-253.6 956.94,-263.01 963.86,-264"/>
</g>
<!-- r&#45;v8 -->
<g id="node15" class="node">
<title>r&#45;v8</title>
<g id="a_node15"><a xlink:href="https://github.com/conda-forge/r-v8-feedstock" xlink:title="r v8">
<ellipse fill="#fde725" stroke="black" cx="1060.47" cy="-234" rx="29.5" ry="18"/>
<text text-anchor="middle" x="1060.47" y="-230.3" font-family="Times,serif" font-size="14.00">r v8</text>
</a>
</g>
</g>
<!-- r&#45;base&#45;&gt;r&#45;v8 -->
<g id="edge16" class="edge">
<title>r&#45;base&#45;&gt;r&#45;v8</title>
<path fill="none" stroke="black" d="M976.44,-290.5C992.5,-279.89 1014.44,-265.4 1031.88,-253.88"/>
<polygon fill="black" stroke="black" points="1033.35,-257.1 1039.77,-248.67 1029.5,-251.26 1033.35,-257.1"/>
</g>
<!-- qt&#45;main&#45;&gt;paraview -->
<g id="edge17" class="edge">
<title>qt&#45;main&#45;&gt;paraview</title>
<path fill="none" stroke="black" d="M233.44,-290.15C249.4,-280.27 270.61,-267.12 288.33,-256.15"/>
<polygon fill="black" stroke="black" points="289.82,-259.35 296.47,-251.1 286.13,-253.4 289.82,-259.35"/>
</g>
<!-- qt&#45;main&#45;&gt;qgis -->
<g id="edge18" class="edge">
<title>qt&#45;main&#45;&gt;qgis</title>
<path fill="none" stroke="black" d="M166.08,-299.27C103.68,-289.22 0,-264.7 37.47,-216 56.67,-191.06 143.3,-175.43 196.05,-168.05"/>
<polygon fill="black" stroke="black" points="196.46,-171.53 205.9,-166.72 195.52,-164.59 196.46,-171.53"/>
</g>
<!-- qt&#45;main&#45;&gt;octave -->
<g id="edge19" class="edge">
<title>qt&#45;main&#45;&gt;octave</title>
<path fill="none" stroke="black" d="M209.47,-287.7C209.47,-280.41 209.47,-271.73 209.47,-263.54"/>
<polygon fill="black" stroke="black" points="212.97,-263.62 209.47,-253.62 205.97,-263.62 212.97,-263.62"/>
</g>
<!-- qtwebkit -->
<g id="node16" class="node">
<title>qtwebkit</title>
<g id="a_node16"><a xlink:href="https://github.com/conda-forge/qtwebkit-feedstock" xlink:title="qtwebkit">
<ellipse fill="#fde725" stroke="black" cx="98.47" cy="-234" rx="52" ry="18"/>
<text text-anchor="middle" x="98.47" y="-230.3" font-family="Times,serif" font-size="14.00">qtwebkit</text>
</a>
</g>
</g>
<!-- qt&#45;main&#45;&gt;qtwebkit -->
<g id="edge20" class="edge">
<title>qt&#45;main&#45;&gt;qtwebkit</title>
<path fill="none" stroke="black" d="M185.93,-290.15C170.25,-280.27 149.41,-267.12 132.01,-256.15"/>
<polygon fill="black" stroke="black" points="134.35,-253.49 124.03,-251.12 130.62,-259.41 134.35,-253.49"/>
</g>
<!-- qtwebkit&#45;&gt;qgis -->
<g id="edge22" class="edge">
<title>qtwebkit&#45;&gt;qgis</title>
<path fill="none" stroke="black" d="M126.94,-218.67C149.53,-207.29 181.13,-191.37 204.76,-179.47"/>
<polygon fill="black" stroke="black" points="206.29,-182.62 213.65,-175 203.14,-176.37 206.29,-182.62"/>
</g>
<!-- nodejs -->
<g id="node17" class="node">
<title>nodejs</title>
<g id="a_node17"><a xlink:href="https://github.com/conda-forge/nodejs-feedstock/pull/306" xlink:title="nodejs ✓">
<ellipse fill="#31688e" stroke="black" cx="1304.47" cy="-450" rx="48.19" ry="18"/>
<text text-anchor="middle" x="1304.47" y="-446.3" font-family="Times,serif" font-size="14.00" fill="white">nodejs ✓</text>
</a>
</g>
</g>
<!-- pyicu -->
<g id="node18" class="node">
<title>pyicu</title>
<g id="a_node18"><a xlink:href="https://github.com/conda-forge/pyicu-feedstock/pull/44" xlink:title="pyicu ✓">
<ellipse fill="#31688e" stroke="black" cx="1304.47" cy="-378" rx="43" ry="18"/>
<text text-anchor="middle" x="1304.47" y="-374.3" font-family="Times,serif" font-size="14.00" fill="white">pyicu ✓</text>
</a>
</g>
</g>
<!-- nodejs&#45;&gt;pyicu -->
<!-- tensorflow -->
<g id="node19" class="node">
<title>tensorflow</title>
<g id="a_node19"><a xlink:href="https://github.com/conda-forge/tensorflow-feedstock/pull/312" xlink:title="tensorflow ❎">
<ellipse fill="#31688e" stroke="black" cx="1304.47" cy="-306" rx="73.5" ry="18"/>
<text text-anchor="middle" x="1304.47" y="-302.3" font-family="Times,serif" font-size="14.00" fill="white">tensorflow ❎</text>
</a>
</g>
</g>
<!-- pyicu&#45;&gt;tensorflow -->
<!-- mdsplus -->
<g id="node20" class="node">
<title>mdsplus</title>
<g id="a_node20"><a xlink:href="https://github.com/conda-forge/mdsplus-feedstock/pull/30" xlink:title="mdsplus ❎">
<ellipse fill="#31688e" stroke="black" cx="1304.47" cy="-234" rx="63.89" ry="18"/>
<text text-anchor="middle" x="1304.47" y="-230.3" font-family="Times,serif" font-size="14.00" fill="white">mdsplus ❎</text>
</a>
</g>
</g>
<!-- tensorflow&#45;&gt;mdsplus -->
<!-- scilab -->
<g id="node21" class="node">
<title>scilab</title>
<g id="a_node21"><a xlink:href="https://github.com/conda-forge/scilab-feedstock/pull/40" xlink:title="scilab ✓">
<ellipse fill="#31688e" stroke="black" cx="1304.47" cy="-162" rx="45" ry="18"/>
<text text-anchor="middle" x="1304.47" y="-158.3" font-family="Times,serif" font-size="14.00" fill="white">scilab ✓</text>
</a>
</g>
</g>
<!-- mdsplus&#45;&gt;scilab -->
<!-- libical -->
<g id="node22" class="node">
<title>libical</title>
<g id="a_node22"><a xlink:href="https://github.com/conda-forge/libical-feedstock/pull/23" xlink:title="libical ✓">
<ellipse fill="#31688e" stroke="black" cx="1304.47" cy="-90" rx="46.29" ry="18"/>
<text text-anchor="middle" x="1304.47" y="-86.3" font-family="Times,serif" font-size="14.00" fill="white">libical ✓</text>
</a>
</g>
</g>
<!-- scilab&#45;&gt;libical -->
<!-- libxmlsec1 -->
<g id="node23" class="node">
<title>libxmlsec1</title>
<g id="a_node23"><a xlink:href="https://github.com/conda-forge/libxmlsec1-feedstock/pull/24" xlink:title="libxmlsec1 ✓">
<ellipse fill="#31688e" stroke="black" cx="1304.47" cy="-18" rx="67.69" ry="18"/>
<text text-anchor="middle" x="1304.47" y="-14.3" font-family="Times,serif" font-size="14.00" fill="white">libxmlsec1 ✓</text>
</a>
</g>
</g>
<!-- libical&#45;&gt;libxmlsec1 -->
<!-- libv8 -->
<g id="node24" class="node">
<title>libv8</title>
<g id="a_node24"><a xlink:href="https://github.com/conda-forge/libv8-feedstock/pull/82" xlink:title="libv8 ❎">
<ellipse fill="#31688e" stroke="black" cx="1060.47" cy="-306" rx="48.19" ry="18"/>
<text text-anchor="middle" x="1060.47" y="-302.3" font-family="Times,serif" font-size="14.00" fill="white">libv8 ❎</text>
</a>
</g>
</g>
<!-- libv8&#45;&gt;r&#45;v8 -->
<g id="edge28" class="edge">
<title>libv8&#45;&gt;r&#45;v8</title>
<path fill="none" stroke="black" d="M1060.47,-287.7C1060.47,-280.41 1060.47,-271.73 1060.47,-263.54"/>
<polygon fill="black" stroke="black" points="1063.97,-263.62 1060.47,-253.62 1056.97,-263.62 1063.97,-263.62"/>
</g>
<!-- libpsl -->
<g id="node25" class="node">
<title>libpsl</title>
<g id="a_node25"><a xlink:href="https://github.com/conda-forge/libpsl-feedstock/pull/8" xlink:title="libpsl ✓">
<ellipse fill="#31688e" stroke="black" cx="209.47" cy="-378" rx="43.59" ry="18"/>
<text text-anchor="middle" x="209.47" y="-374.3" font-family="Times,serif" font-size="14.00" fill="white">libpsl ✓</text>
</a>
</g>
</g>
<!-- libpsl&#45;&gt;qt&#45;main -->
<g id="edge29" class="edge">
<title>libpsl&#45;&gt;qt&#45;main</title>
<path fill="none" stroke="black" d="M209.47,-359.7C209.47,-352.41 209.47,-343.73 209.47,-335.54"/>
<polygon fill="black" stroke="black" points="212.97,-335.62 209.47,-325.62 205.97,-335.62 212.97,-335.62"/>
</g>
<!-- spidermonkey -->
<g id="node26" class="node">
<title>spidermonkey</title>
<g id="a_node26"><a xlink:href="https://github.com/conda-forge/spidermonkey-feedstock/pull/10" xlink:title="spidermonkey ❎">
<ellipse fill="#31688e" stroke="black" cx="1476.47" cy="-270" rx="90.5" ry="18"/>
<text text-anchor="middle" x="1476.47" y="-266.3" font-family="Times,serif" font-size="14.00" fill="white">spidermonkey ❎</text>
</a>
</g>
</g>
<!-- couchdb -->
<g id="node27" class="node">
<title>couchdb</title>
<g id="a_node27"><a xlink:href="https://github.com/conda-forge/couchdb-feedstock" xlink:title="couchdb">
<ellipse fill="#fde725" stroke="black" cx="1476.47" cy="-198" rx="49.5" ry="18"/>
<text text-anchor="middle" x="1476.47" y="-194.3" font-family="Times,serif" font-size="14.00">couchdb</text>
</a>
</g>
</g>
<!-- spidermonkey&#45;&gt;couchdb -->
<g id="edge30" class="edge">
<title>spidermonkey&#45;&gt;couchdb</title>
<path fill="none" stroke="black" d="M1476.47,-251.7C1476.47,-244.41 1476.47,-235.73 1476.47,-227.54"/>
<polygon fill="black" stroke="black" points="1479.97,-227.62 1476.47,-217.62 1472.97,-227.62 1479.97,-227.62"/>
</g>
</g>
</svg>
