<?xml version="1.0" encoding="UTF-8" standalone="no"?>
<!DOCTYPE svg PUBLIC "-//W3C//DTD SVG 1.1//EN"
 "http://www.w3.org/Graphics/SVG/1.1/DTD/svg11.dtd">
<!-- Generated by graphviz version 8.1.0 (20230707.2238)
 -->
<!-- Pages: 1 -->
<svg width="740pt" height="548pt"
 viewBox="0.00 0.00 739.67 548.00" xmlns="http://www.w3.org/2000/svg" xmlns:xlink="http://www.w3.org/1999/xlink">
<g id="graph0" class="graph" transform="scale(1 1) rotate(0) translate(4 544)">
<polygon fill="white" stroke="none" points="-4,4 -4,-544 735.67,-544 735.67,4 -4,4"/>
<!-- octave -->
<g id="node1" class="node">
<title>octave</title>
<g id="a_node1"><a xlink:href="https://github.com/conda-forge/octave-feedstock" xlink:title="octave">
<ellipse fill="#fde725" stroke="black" cx="224.46" cy="-342" rx="43.84" ry="18"/>
<text text-anchor="middle" x="224.46" y="-337.32" font-family="Times,serif" font-size="14.00">octave</text>
</a>
</g>
</g>
<!-- paraview -->
<g id="node2" class="node">
<title>paraview</title>
<g id="a_node2"><a xlink:href="https://github.com/conda-forge/paraview-feedstock" xlink:title="paraview">
<ellipse fill="#fde725" stroke="black" cx="272.46" cy="-270" rx="57" ry="18"/>
<text text-anchor="middle" x="272.46" y="-265.32" font-family="Times,serif" font-size="14.00">paraview</text>
</a>
</g>
</g>
<!-- qgis -->
<g id="node3" class="node">
<title>qgis</title>
<g id="a_node3"><a xlink:href="https://github.com/conda-forge/qgis-feedstock" xlink:title="qgis">
<ellipse fill="#fde725" stroke="black" cx="398.46" cy="-126" rx="32.27" ry="18"/>
<text text-anchor="middle" x="398.46" y="-121.33" font-family="Times,serif" font-size="14.00">qgis</text>
</a>
</g>
</g>
<!-- r&#45;base -->
<g id="node4" class="node">
<title>r&#45;base</title>
<g id="a_node4"><a xlink:href="https://github.com/conda-forge/r-base-feedstock/pull/271" xlink:title="r base ✓">
<ellipse fill="#31688e" stroke="black" cx="620.46" cy="-378" rx="50.16" ry="18"/>
<text text-anchor="middle" x="620.46" y="-373.32" font-family="Times,serif" font-size="14.00" fill="white">r base ✓</text>
</a>
</g>
</g>
<!-- r&#45;cairo -->
<g id="node5" class="node">
<title>r&#45;cairo</title>
<g id="a_node5"><a xlink:href="https://github.com/conda-forge/r-cairo-feedstock" xlink:title="r cairo">
<ellipse fill="#fde725" stroke="black" cx="548.46" cy="-306" rx="43.84" ry="18"/>
<text text-anchor="middle" x="548.46" y="-301.32" font-family="Times,serif" font-size="14.00">r cairo</text>
</a>
</g>
</g>
<!-- r&#45;base&#45;&gt;r&#45;cairo -->
<g id="edge1" class="edge">
<title>r&#45;base&#45;&gt;r&#45;cairo</title>
<path fill="none" stroke="black" d="M603.76,-360.76C594.58,-351.84 583.03,-340.61 572.85,-330.72"/>
<polygon fill="black" stroke="black" points="575.68,-328.61 566.07,-324.15 570.8,-333.63 575.68,-328.61"/>
</g>
<!-- r&#45;stringi -->
<g id="node6" class="node">
<title>r&#45;stringi</title>
<g id="a_node6"><a xlink:href="https://github.com/conda-forge/r-stringi-feedstock" xlink:title="r stringi">
<ellipse fill="#fde725" stroke="black" cx="620.46" cy="-234" rx="52.26" ry="18"/>
<text text-anchor="middle" x="620.46" y="-229.32" font-family="Times,serif" font-size="14.00">r stringi</text>
</a>
</g>
</g>
<!-- r&#45;base&#45;&gt;r&#45;stringi -->
<g id="edge2" class="edge">
<title>r&#45;base&#45;&gt;r&#45;stringi</title>
<path fill="none" stroke="black" d="M620.46,-359.59C620.46,-335.5 620.46,-291.75 620.46,-263.03"/>
<polygon fill="black" stroke="black" points="623.96,-263.11 620.46,-253.11 616.96,-263.11 623.96,-263.11"/>
</g>
<!-- r&#45;v8 -->
<g id="node7" class="node">
<title>r&#45;v8</title>
<g id="a_node7"><a xlink:href="https://github.com/conda-forge/r-v8-feedstock" xlink:title="r v8">
<ellipse fill="#fde725" stroke="black" cx="700.46" cy="-162" rx="31.22" ry="18"/>
<text text-anchor="middle" x="700.46" y="-157.32" font-family="Times,serif" font-size="14.00">r v8</text>
</a>
</g>
</g>
<!-- r&#45;base&#45;&gt;r&#45;v8 -->
<g id="edge3" class="edge">
<title>r&#45;base&#45;&gt;r&#45;v8</title>
<path fill="none" stroke="black" d="M630.32,-360.18C643.69,-336.69 667.52,-292.4 681.46,-252 688.3,-232.15 693.16,-208.93 696.25,-191.18"/>
<polygon fill="black" stroke="black" points="699.86,-191.84 698.03,-181.4 692.95,-190.7 699.86,-191.84"/>
</g>
<!-- texlive&#45;core -->
<g id="node8" class="node">
<title>texlive&#45;core</title>
<g id="a_node8"><a xlink:href="https://github.com/conda-forge/texlive-core-feedstock/pull/86" xlink:title="texlive core ❎">
<ellipse fill="#31688e" stroke="black" cx="86.46" cy="-522" rx="84.88" ry="18"/>
<text text-anchor="middle" x="86.46" y="-517.33" font-family="Times,serif" font-size="14.00" fill="white">texlive core ❎</text>
</a>
</g>
</g>
<!-- uwsgi -->
<g id="node9" class="node">
<title>uwsgi</title>
<g id="a_node9"><a xlink:href="https://github.com/conda-forge/uwsgi-feedstock/pull/68" xlink:title="uwsgi ❎">
<ellipse fill="#31688e" stroke="black" cx="86.46" cy="-450" rx="55.94" ry="18"/>
<text text-anchor="middle" x="86.46" y="-445.32" font-family="Times,serif" font-size="14.00" fill="white">uwsgi ❎</text>
</a>
</g>
</g>
<!-- texlive&#45;core&#45;&gt;uwsgi -->
<!-- tensorflow -->
<g id="node10" class="node">
<title>tensorflow</title>
<g id="a_node10"><a xlink:href="https://github.com/conda-forge/tensorflow-feedstock" xlink:title="tensorflow">
<ellipse fill="#ff8c00" stroke="black" cx="86.46" cy="-378" rx="63.84" ry="18"/>
<text text-anchor="middle" x="86.46" y="-373.32" font-family="Times,serif" font-size="14.00">tensorflow</text>
</a>
</g>
</g>
<!-- uwsgi&#45;&gt;tensorflow -->
<!-- mdsplus -->
<g id="node12" class="node">
<title>mdsplus</title>
<g id="a_node12"><a xlink:href="https://github.com/conda-forge/mdsplus-feedstock/pull/33" xlink:title="mdsplus ❎">
<ellipse fill="#31688e" stroke="black" cx="86.46" cy="-306" rx="68.57" ry="18"/>
<text text-anchor="middle" x="86.46" y="-301.32" font-family="Times,serif" font-size="14.00" fill="white">mdsplus ❎</text>
</a>
</g>
</g>
<!-- tensorflow&#45;&gt;mdsplus -->
<!-- qtwebkit -->
<g id="node11" class="node">
<title>qtwebkit</title>
<g id="a_node11"><a xlink:href="https://github.com/conda-forge/qtwebkit-feedstock" xlink:title="qtwebkit">
<ellipse fill="#fde725" stroke="black" cx="440.46" cy="-198" rx="55.42" ry="18"/>
<text text-anchor="middle" x="440.46" y="-193.32" font-family="Times,serif" font-size="14.00">qtwebkit</text>
</a>
</g>
</g>
<!-- qtwebkit&#45;&gt;qgis -->
<g id="edge6" class="edge">
<title>qtwebkit&#45;&gt;qgis</title>
<path fill="none" stroke="black" d="M430.29,-180.05C425.37,-171.85 419.36,-161.83 413.89,-152.71"/>
<polygon fill="black" stroke="black" points="416.39,-151.08 408.24,-144.31 410.39,-154.68 416.39,-151.08"/>
</g>
<!-- mongodb -->
<g id="node13" class="node">
<title>mongodb</title>
<g id="a_node13"><a xlink:href="https://github.com/conda-forge/mongodb-feedstock/pull/75" xlink:title="mongodb ❎">
<ellipse fill="#31688e" stroke="black" cx="86.46" cy="-234" rx="72.78" ry="18"/>
<text text-anchor="middle" x="86.46" y="-229.32" font-family="Times,serif" font-size="14.00" fill="white">mongodb ❎</text>
</a>
</g>
</g>
<!-- mdsplus&#45;&gt;mongodb -->
<!-- scilab -->
<g id="node14" class="node">
<title>scilab</title>
<g id="a_node14"><a xlink:href="https://github.com/conda-forge/scilab-feedstock" xlink:title="scilab">
<ellipse fill="#ff8c00" stroke="black" cx="86.46" cy="-162" rx="40.16" ry="18"/>
<text text-anchor="middle" x="86.46" y="-157.32" font-family="Times,serif" font-size="14.00">scilab</text>
</a>
</g>
</g>
<!-- mongodb&#45;&gt;scilab -->
<!-- libical -->
<g id="node15" class="node">
<title>libical</title>
<g id="a_node15"><a xlink:href="https://github.com/conda-forge/libical-feedstock/pull/25" xlink:title="libical ❎">
<ellipse fill="#31688e" stroke="black" cx="86.46" cy="-90" rx="56.47" ry="18"/>
<text text-anchor="middle" x="86.46" y="-85.33" font-family="Times,serif" font-size="14.00" fill="white">libical ❎</text>
</a>
</g>
</g>
<!-- scilab&#45;&gt;libical -->
<!-- topologytoolkit -->
<g id="node16" class="node">
<title>topologytoolkit</title>
<g id="a_node16"><a xlink:href="https://github.com/conda-forge/topologytoolkit-feedstock" xlink:title="topologytoolkit">
<ellipse fill="#ff8c00" stroke="black" cx="86.46" cy="-18" rx="86.46" ry="18"/>
<text text-anchor="middle" x="86.46" y="-13.32" font-family="Times,serif" font-size="14.00">topologytoolkit</text>
</a>
</g>
</g>
<!-- libical&#45;&gt;topologytoolkit -->
<!-- qt&#45;main -->
<g id="node17" class="node">
<title>qt&#45;main</title>
<g id="a_node17"><a xlink:href="https://github.com/conda-forge/qt-main-feedstock/pull/185" xlink:title="qt main ❎">
<ellipse fill="#31688e" stroke="black" cx="326.46" cy="-414" rx="64.89" ry="18"/>
<text text-anchor="middle" x="326.46" y="-409.32" font-family="Times,serif" font-size="14.00" fill="white">qt main ❎</text>
</a>
</g>
</g>
<!-- qt&#45;main&#45;&gt;octave -->
<g id="edge12" class="edge">
<title>qt&#45;main&#45;&gt;octave</title>
<path fill="none" stroke="black" d="M302.8,-396.76C288.67,-387.07 270.56,-374.64 255.31,-364.17"/>
<polygon fill="black" stroke="black" points="257.47,-360.73 247.25,-357.95 253.51,-366.5 257.47,-360.73"/>
</g>
<!-- qt&#45;main&#45;&gt;paraview -->
<g id="edge13" class="edge">
<title>qt&#45;main&#45;&gt;paraview</title>
<path fill="none" stroke="black" d="M319.94,-395.87C310.74,-371.67 293.83,-327.21 282.87,-298.39"/>
<polygon fill="black" stroke="black" points="285.82,-297.29 278.99,-289.19 279.28,-299.78 285.82,-297.29"/>
</g>
<!-- qt&#45;main&#45;&gt;qgis -->
<g id="edge14" class="edge">
<title>qt&#45;main&#45;&gt;qgis</title>
<path fill="none" stroke="black" d="M329.05,-395.77C335.16,-356.77 351.81,-258.99 376.46,-180 379.17,-171.31 382.75,-162.06 386.23,-153.77"/>
<polygon fill="black" stroke="black" points="389.75,-155.46 390.52,-144.89 383.33,-152.67 389.75,-155.46"/>
</g>
<!-- qt&#45;main&#45;&gt;qtwebkit -->
<g id="edge15" class="edge">
<title>qt&#45;main&#45;&gt;qtwebkit</title>
<path fill="none" stroke="black" d="M342.86,-396.35C352.07,-386.39 363.32,-373.14 371.46,-360 398.64,-316.1 420.12,-259.6 431.5,-226.53"/>
<polygon fill="black" stroke="black" points="435.09,-227.86 434.97,-217.27 428.45,-225.62 435.09,-227.86"/>
</g>
</g>
</svg>
