<?xml version="1.0" encoding="UTF-8" standalone="no"?>
<!DOCTYPE svg PUBLIC "-//W3C//DTD SVG 1.1//EN"
 "http://www.w3.org/Graphics/SVG/1.1/DTD/svg11.dtd">
<!-- Generated by graphviz version 7.1.0 (20230122.1345)
 -->
<!-- Pages: 1 -->
<svg width="2074pt" height="476pt"
 viewBox="0.00 0.00 2074.04 476.00" xmlns="http://www.w3.org/2000/svg" xmlns:xlink="http://www.w3.org/1999/xlink">
<g id="graph0" class="graph" transform="scale(1 1) rotate(0) translate(4 472)">
<polygon fill="white" stroke="none" points="-4,4 -4,-472 2070.04,-472 2070.04,4 -4,4"/>
<!-- boost&#45;cpp -->
<g id="node1" class="node">
<title>boost&#45;cpp</title>
<g id="a_node1"><a xlink:href="https://github.com/conda-forge/boost-cpp-feedstock" xlink:title="boost cpp">
<ellipse fill="#fde725" stroke="black" cx="230" cy="-378" rx="56" ry="18"/>
<text text-anchor="middle" x="230" y="-374.3" font-family="Times,serif" font-size="14.00">boost cpp</text>
</a>
</g>
</g>
<!-- gdal -->
<g id="node2" class="node">
<title>gdal</title>
<g id="a_node2"><a xlink:href="https://github.com/conda-forge/gdal-feedstock" xlink:title="gdal">
<ellipse fill="#fde725" stroke="black" cx="437" cy="-306" rx="30.59" ry="18"/>
<text text-anchor="middle" x="437" y="-302.3" font-family="Times,serif" font-size="14.00">gdal</text>
</a>
</g>
</g>
<!-- boost&#45;cpp&#45;&gt;gdal -->
<g id="edge1" class="edge">
<title>boost&#45;cpp&#45;&gt;gdal</title>
<path fill="none" stroke="black" d="M270.52,-365.31C304.56,-355.21 354.35,-339.79 397,-324 398.8,-323.33 400.64,-322.63 402.49,-321.91"/>
<polygon fill="black" stroke="black" points="403.69,-325.2 411.63,-318.19 401.05,-318.71 403.69,-325.2"/>
</g>
<!-- paraview -->
<g id="node3" class="node">
<title>paraview</title>
<g id="a_node3"><a xlink:href="https://github.com/conda-forge/paraview-feedstock" xlink:title="paraview">
<ellipse fill="#fde725" stroke="black" cx="757" cy="-234" rx="53.5" ry="18"/>
<text text-anchor="middle" x="757" y="-230.3" font-family="Times,serif" font-size="14.00">paraview</text>
</a>
</g>
</g>
<!-- boost&#45;cpp&#45;&gt;paraview -->
<g id="edge2" class="edge">
<title>boost&#45;cpp&#45;&gt;paraview</title>
<path fill="none" stroke="black" d="M228.23,-359.7C227.2,-339.31 229.02,-305.96 249,-288 281.41,-258.87 563.55,-243.23 692.81,-237.53"/>
<polygon fill="black" stroke="black" points="692.74,-241.04 702.58,-237.11 692.43,-234.05 692.74,-241.04"/>
</g>
<!-- qgis -->
<g id="node4" class="node">
<title>qgis</title>
<g id="a_node4"><a xlink:href="https://github.com/conda-forge/qgis-feedstock" xlink:title="qgis">
<ellipse fill="#fde725" stroke="black" cx="675" cy="-162" rx="30.59" ry="18"/>
<text text-anchor="middle" x="675" y="-158.3" font-family="Times,serif" font-size="14.00">qgis</text>
</a>
</g>
</g>
<!-- boost&#45;cpp&#45;&gt;qgis -->
<g id="edge3" class="edge">
<title>boost&#45;cpp&#45;&gt;qgis</title>
<path fill="none" stroke="black" d="M223.22,-359.67C216.84,-340.18 210.38,-308.57 226,-288 276.02,-222.15 532.42,-181.76 633.74,-168.16"/>
<polygon fill="black" stroke="black" points="634.06,-171.65 643.52,-166.87 633.15,-164.71 634.06,-171.65"/>
</g>
<!-- texlive&#45;core -->
<g id="node5" class="node">
<title>texlive&#45;core</title>
<g id="a_node5"><a xlink:href="https://github.com/conda-forge/texlive-core-feedstock" xlink:title="texlive core">
<ellipse fill="#fde725" stroke="black" cx="323" cy="-306" rx="65" ry="18"/>
<text text-anchor="middle" x="323" y="-302.3" font-family="Times,serif" font-size="14.00">texlive core</text>
</a>
</g>
</g>
<!-- boost&#45;cpp&#45;&gt;texlive&#45;core -->
<g id="edge4" class="edge">
<title>boost&#45;cpp&#45;&gt;texlive&#45;core</title>
<path fill="none" stroke="black" d="M251.1,-361.12C263.3,-351.94 278.85,-340.23 292.37,-330.06"/>
<polygon fill="black" stroke="black" points="294.24,-333.03 300.13,-324.22 290.03,-327.43 294.24,-333.03"/>
</g>
<!-- mongodb -->
<g id="node6" class="node">
<title>mongodb</title>
<g id="a_node6"><a xlink:href="https://github.com/conda-forge/mongodb-feedstock" xlink:title="mongodb">
<ellipse fill="#fde725" stroke="black" cx="110" cy="-306" rx="54" ry="18"/>
<text text-anchor="middle" x="110" y="-302.3" font-family="Times,serif" font-size="14.00">mongodb</text>
</a>
</g>
</g>
<!-- boost&#45;cpp&#45;&gt;mongodb -->
<g id="edge5" class="edge">
<title>boost&#45;cpp&#45;&gt;mongodb</title>
<path fill="none" stroke="black" d="M203.67,-361.64C186.67,-351.72 164.34,-338.7 145.75,-327.85"/>
<polygon fill="black" stroke="black" points="147.57,-324.86 137.17,-322.85 144.04,-330.91 147.57,-324.86"/>
</g>
<!-- topologytoolkit -->
<g id="node7" class="node">
<title>topologytoolkit</title>
<g id="a_node7"><a xlink:href="https://github.com/conda-forge/topologytoolkit-feedstock" xlink:title="topologytoolkit">
<ellipse fill="#fde725" stroke="black" cx="605" cy="-306" rx="80.69" ry="18"/>
<text text-anchor="middle" x="605" y="-302.3" font-family="Times,serif" font-size="14.00">topologytoolkit</text>
</a>
</g>
</g>
<!-- boost&#45;cpp&#45;&gt;topologytoolkit -->
<g id="edge6" class="edge">
<title>boost&#45;cpp&#45;&gt;topologytoolkit</title>
<path fill="none" stroke="black" d="M277.49,-368.13C342.07,-356.08 458.14,-334.41 533.33,-320.38"/>
<polygon fill="black" stroke="black" points="533.9,-323.83 543.09,-318.56 532.62,-316.95 533.9,-323.83"/>
</g>
<!-- odil -->
<g id="node8" class="node">
<title>odil</title>
<g id="a_node8"><a xlink:href="https://github.com/conda-forge/odil-feedstock" xlink:title="odil">
<ellipse fill="#fde725" stroke="black" cx="28" cy="-234" rx="28" ry="18"/>
<text text-anchor="middle" x="28" y="-230.3" font-family="Times,serif" font-size="14.00">odil</text>
</a>
</g>
</g>
<!-- boost&#45;cpp&#45;&gt;odil -->
<g id="edge7" class="edge">
<title>boost&#45;cpp&#45;&gt;odil</title>
<path fill="none" stroke="black" d="M174.2,-375.46C133.3,-371.27 79.45,-358.86 47,-324 32.09,-307.99 27.75,-283.26 26.91,-263.93"/>
<polygon fill="black" stroke="black" points="30.41,-263.91 26.8,-253.95 23.41,-263.98 30.41,-263.91"/>
</g>
<!-- gdal&#45;&gt;qgis -->
<g id="edge8" class="edge">
<title>gdal&#45;&gt;qgis</title>
<path fill="none" stroke="black" d="M457.7,-292.65C499.73,-267.57 595.2,-210.61 644.41,-181.25"/>
<polygon fill="black" stroke="black" points="646.08,-184.33 652.87,-176.2 642.49,-178.32 646.08,-184.33"/>
</g>
<!-- cairo -->
<g id="node9" class="node">
<title>cairo</title>
<g id="a_node9"><a xlink:href="https://github.com/conda-forge/cairo-feedstock/pull/69" xlink:title="cairo ❎">
<ellipse fill="#31688e" stroke="black" cx="864" cy="-450" rx="48.19" ry="18"/>
<text text-anchor="middle" x="864" y="-446.3" font-family="Times,serif" font-size="14.00" fill="white">cairo ❎</text>
</a>
</g>
</g>
<!-- cairo&#45;&gt;texlive&#45;core -->
<g id="edge9" class="edge">
<title>cairo&#45;&gt;texlive&#45;core</title>
<path fill="none" stroke="black" d="M818.8,-443.22C716.47,-430.09 475.25,-398.95 467,-396 423.92,-380.61 380,-351.03 352.18,-330.21"/>
<polygon fill="black" stroke="black" points="354.32,-327.44 344.24,-324.17 350.07,-333.01 354.32,-327.44"/>
</g>
<!-- cairo&#45;&gt;topologytoolkit -->
<g id="edge10" class="edge">
<title>cairo&#45;&gt;topologytoolkit</title>
<path fill="none" stroke="black" d="M820.82,-441.71C784.71,-434.24 732.85,-420.2 693,-396 665.9,-379.54 641.11,-352.94 624.8,-333.1"/>
<polygon fill="black" stroke="black" points="627.64,-331.04 618.65,-325.43 622.17,-335.42 627.64,-331.04"/>
</g>
<!-- harfbuzz -->
<g id="node10" class="node">
<title>harfbuzz</title>
<g id="a_node10"><a xlink:href="https://github.com/conda-forge/harfbuzz-feedstock" xlink:title="harfbuzz">
<ellipse fill="#fde725" stroke="black" cx="864" cy="-378" rx="51.5" ry="18"/>
<text text-anchor="middle" x="864" y="-374.3" font-family="Times,serif" font-size="14.00">harfbuzz</text>
</a>
</g>
</g>
<!-- cairo&#45;&gt;harfbuzz -->
<g id="edge11" class="edge">
<title>cairo&#45;&gt;harfbuzz</title>
<path fill="none" stroke="black" d="M864,-431.7C864,-424.41 864,-415.73 864,-407.54"/>
<polygon fill="black" stroke="black" points="867.5,-407.62 864,-397.62 860.5,-407.62 867.5,-407.62"/>
</g>
<!-- octave -->
<g id="node11" class="node">
<title>octave</title>
<g id="a_node11"><a xlink:href="https://github.com/conda-forge/octave-feedstock" xlink:title="octave">
<ellipse fill="#fde725" stroke="black" cx="877" cy="-234" rx="41" ry="18"/>
<text text-anchor="middle" x="877" y="-230.3" font-family="Times,serif" font-size="14.00">octave</text>
</a>
</g>
</g>
<!-- cairo&#45;&gt;octave -->
<g id="edge12" class="edge">
<title>cairo&#45;&gt;octave</title>
<path fill="none" stroke="black" d="M888.39,-434.12C901.43,-424.83 916.51,-411.66 925,-396 940.4,-367.6 932.77,-356.23 935,-324 936.1,-308.04 941.45,-302.64 935,-288 929.47,-275.45 919.33,-264.58 909.07,-256.01"/>
<polygon fill="black" stroke="black" points="911.37,-253.37 901.32,-250.01 907.08,-258.9 911.37,-253.37"/>
</g>
<!-- r&#45;base -->
<g id="node12" class="node">
<title>r&#45;base</title>
<g id="a_node12"><a xlink:href="https://github.com/conda-forge/r-base-feedstock" xlink:title="r base">
<ellipse fill="#fde725" stroke="black" cx="1082" cy="-306" rx="39.79" ry="18"/>
<text text-anchor="middle" x="1082" y="-302.3" font-family="Times,serif" font-size="14.00">r base</text>
</a>
</g>
</g>
<!-- cairo&#45;&gt;r&#45;base -->
<g id="edge13" class="edge">
<title>cairo&#45;&gt;r&#45;base</title>
<path fill="none" stroke="black" d="M909.11,-443.19C944.54,-436.71 993.5,-423.28 1028,-396 1048.24,-380 1062.7,-354.16 1071.53,-334.44"/>
<polygon fill="black" stroke="black" points="1074.71,-335.9 1075.38,-325.33 1068.27,-333.18 1074.71,-335.9"/>
</g>
<!-- harfbuzz&#45;&gt;texlive&#45;core -->
<g id="edge14" class="edge">
<title>harfbuzz&#45;&gt;texlive&#45;core</title>
<path fill="none" stroke="black" d="M826.5,-365.39C818.79,-363.33 810.68,-361.4 803,-360 624.78,-327.55 575.92,-352.35 397,-324 391.74,-323.17 386.3,-322.17 380.87,-321.09"/>
<polygon fill="black" stroke="black" points="381.77,-317.71 371.27,-319.08 380.34,-324.56 381.77,-317.71"/>
</g>
<!-- harfbuzz&#45;&gt;topologytoolkit -->
<g id="edge15" class="edge">
<title>harfbuzz&#45;&gt;topologytoolkit</title>
<path fill="none" stroke="black" d="M824.64,-365.97C817.44,-363.97 810,-361.91 803,-360 757.29,-347.51 705.55,-333.67 666.44,-323.27"/>
<polygon fill="black" stroke="black" points="667.52,-319.94 656.96,-320.75 665.72,-326.7 667.52,-319.94"/>
</g>
<!-- harfbuzz&#45;&gt;octave -->
<g id="edge16" class="edge">
<title>harfbuzz&#45;&gt;octave</title>
<path fill="none" stroke="black" d="M887.37,-361.55C899.25,-352.25 912.52,-339.25 919,-324 925.26,-309.28 924.26,-303.11 919,-288 915.31,-277.42 908.54,-267.35 901.49,-258.9"/>
<polygon fill="black" stroke="black" points="904.16,-256.63 894.87,-251.53 898.95,-261.31 904.16,-256.63"/>
</g>
<!-- harfbuzz&#45;&gt;r&#45;base -->
<g id="edge17" class="edge">
<title>harfbuzz&#45;&gt;r&#45;base</title>
<path fill="none" stroke="black" d="M900.98,-365.13C939.29,-352.82 999.08,-333.63 1039.36,-320.69"/>
<polygon fill="black" stroke="black" points="1040.27,-324.07 1048.72,-317.69 1038.13,-317.41 1040.27,-324.07"/>
</g>
<!-- tectonic -->
<g id="node13" class="node">
<title>tectonic</title>
<g id="a_node13"><a xlink:href="https://github.com/conda-forge/tectonic-feedstock" xlink:title="tectonic">
<ellipse fill="#fde725" stroke="black" cx="862" cy="-306" rx="48.19" ry="18"/>
<text text-anchor="middle" x="862" y="-302.3" font-family="Times,serif" font-size="14.00">tectonic</text>
</a>
</g>
</g>
<!-- harfbuzz&#45;&gt;tectonic -->
<g id="edge18" class="edge">
<title>harfbuzz&#45;&gt;tectonic</title>
<path fill="none" stroke="black" d="M863.51,-359.7C863.3,-352.41 863.05,-343.73 862.82,-335.54"/>
<polygon fill="black" stroke="black" points="866.32,-335.51 862.53,-325.62 859.32,-335.71 866.32,-335.51"/>
</g>
<!-- qt&#45;main -->
<g id="node14" class="node">
<title>qt&#45;main</title>
<g id="a_node14"><a xlink:href="https://github.com/conda-forge/qt-main-feedstock" xlink:title="qt main">
<ellipse fill="#fde725" stroke="black" cx="750" cy="-306" rx="46.29" ry="18"/>
<text text-anchor="middle" x="750" y="-302.3" font-family="Times,serif" font-size="14.00">qt main</text>
</a>
</g>
</g>
<!-- harfbuzz&#45;&gt;qt&#45;main -->
<g id="edge19" class="edge">
<title>harfbuzz&#45;&gt;qt&#45;main</title>
<path fill="none" stroke="black" d="M839.26,-361.81C822.91,-351.77 801.27,-338.48 783.39,-327.5"/>
<polygon fill="black" stroke="black" points="785.55,-324.72 775.2,-322.47 781.89,-330.69 785.55,-324.72"/>
</g>
<!-- r&#45;stringi -->
<g id="node15" class="node">
<title>r&#45;stringi</title>
<g id="a_node15"><a xlink:href="https://github.com/conda-forge/r-stringi-feedstock" xlink:title="r stringi">
<ellipse fill="#fde725" stroke="black" cx="985" cy="-234" rx="48.99" ry="18"/>
<text text-anchor="middle" x="985" y="-230.3" font-family="Times,serif" font-size="14.00">r stringi</text>
</a>
</g>
</g>
<!-- r&#45;base&#45;&gt;r&#45;stringi -->
<g id="edge20" class="edge">
<title>r&#45;base&#45;&gt;r&#45;stringi</title>
<path fill="none" stroke="black" d="M1061.43,-290.15C1048.07,-280.52 1030.43,-267.79 1015.46,-256.98"/>
<polygon fill="black" stroke="black" points="1017.93,-254.45 1007.78,-251.44 1013.84,-260.13 1017.93,-254.45"/>
</g>
<!-- r&#45;v8 -->
<g id="node16" class="node">
<title>r&#45;v8</title>
<g id="a_node16"><a xlink:href="https://github.com/conda-forge/r-v8-feedstock" xlink:title="r v8">
<ellipse fill="#fde725" stroke="black" cx="1203" cy="-234" rx="29.5" ry="18"/>
<text text-anchor="middle" x="1203" y="-230.3" font-family="Times,serif" font-size="14.00">r v8</text>
</a>
</g>
</g>
<!-- r&#45;base&#45;&gt;r&#45;v8 -->
<g id="edge21" class="edge">
<title>r&#45;base&#45;&gt;r&#45;v8</title>
<path fill="none" stroke="black" d="M1105.91,-291.17C1124.88,-280.19 1151.54,-264.77 1172.13,-252.86"/>
<polygon fill="black" stroke="black" points="1173.76,-255.96 1180.66,-247.92 1170.25,-249.9 1173.76,-255.96"/>
</g>
<!-- qt&#45;main&#45;&gt;paraview -->
<g id="edge22" class="edge">
<title>qt&#45;main&#45;&gt;paraview</title>
<path fill="none" stroke="black" d="M751.73,-287.7C752.46,-280.41 753.33,-271.73 754.15,-263.54"/>
<polygon fill="black" stroke="black" points="757.63,-263.91 755.14,-253.61 750.66,-263.21 757.63,-263.91"/>
</g>
<!-- qt&#45;main&#45;&gt;qgis -->
<g id="edge23" class="edge">
<title>qt&#45;main&#45;&gt;qgis</title>
<path fill="none" stroke="black" d="M728.74,-289.59C717.07,-280.04 703.32,-266.79 695,-252 684.6,-233.52 679.61,-210.03 677.21,-191.82"/>
<polygon fill="black" stroke="black" points="680.7,-191.51 676.12,-181.96 673.74,-192.28 680.7,-191.51"/>
</g>
<!-- qt&#45;main&#45;&gt;octave -->
<g id="edge24" class="edge">
<title>qt&#45;main&#45;&gt;octave</title>
<path fill="none" stroke="black" d="M776.01,-290.67C795.22,-280.08 821.55,-265.56 842.52,-254.01"/>
<polygon fill="black" stroke="black" points="843.93,-257.22 851,-249.33 840.55,-251.09 843.93,-257.22"/>
</g>
<!-- qtwebkit -->
<g id="node17" class="node">
<title>qtwebkit</title>
<g id="a_node17"><a xlink:href="https://github.com/conda-forge/qtwebkit-feedstock" xlink:title="qtwebkit">
<ellipse fill="#fde725" stroke="black" cx="1104" cy="-234" rx="52" ry="18"/>
<text text-anchor="middle" x="1104" y="-230.3" font-family="Times,serif" font-size="14.00">qtwebkit</text>
</a>
</g>
</g>
<!-- qt&#45;main&#45;&gt;qtwebkit -->
<g id="edge25" class="edge">
<title>qt&#45;main&#45;&gt;qtwebkit</title>
<path fill="none" stroke="black" d="M784.41,-293.5C791.18,-291.48 798.28,-289.54 805,-288 909.29,-264.14 938.39,-274.4 1043,-252 1046.77,-251.19 1050.65,-250.29 1054.54,-249.33"/>
<polygon fill="black" stroke="black" points="1055.18,-252.78 1063.99,-246.88 1053.43,-246 1055.18,-252.78"/>
</g>
<!-- qtwebkit&#45;&gt;qgis -->
<g id="edge43" class="edge">
<title>qtwebkit&#45;&gt;qgis</title>
<path fill="none" stroke="black" d="M1065.46,-221.45C1058.05,-219.46 1050.32,-217.54 1043,-216 925.67,-191.31 784.86,-174.55 716.42,-167.2"/>
<polygon fill="black" stroke="black" points="717.1,-163.76 706.79,-166.18 716.36,-170.72 717.1,-163.76"/>
</g>
<!-- kaldi -->
<g id="node18" class="node">
<title>kaldi</title>
<g id="a_node18"><a xlink:href="https://github.com/conda-forge/kaldi-feedstock/pull/37" xlink:title="kaldi ❎">
<ellipse fill="#31688e" stroke="black" cx="1833" cy="-378" rx="47.5" ry="18"/>
<text text-anchor="middle" x="1833" y="-374.3" font-family="Times,serif" font-size="14.00" fill="white">kaldi ❎</text>
</a>
</g>
</g>
<!-- nodejs -->
<g id="node19" class="node">
<title>nodejs</title>
<g id="a_node19"><a xlink:href="https://github.com/conda-forge/nodejs-feedstock/pull/306" xlink:title="nodejs ✓">
<ellipse fill="#31688e" stroke="black" cx="1833" cy="-306" rx="48.19" ry="18"/>
<text text-anchor="middle" x="1833" y="-302.3" font-family="Times,serif" font-size="14.00" fill="white">nodejs ✓</text>
</a>
</g>
</g>
<!-- kaldi&#45;&gt;nodejs -->
<!-- pyicu -->
<g id="node29" class="node">
<title>pyicu</title>
<g id="a_node29"><a xlink:href="https://github.com/conda-forge/pyicu-feedstock/pull/44" xlink:title="pyicu ❎">
<ellipse fill="#31688e" stroke="black" cx="1833" cy="-234" rx="50.09" ry="18"/>
<text text-anchor="middle" x="1833" y="-230.3" font-family="Times,serif" font-size="14.00" fill="white">pyicu ❎</text>
</a>
</g>
</g>
<!-- nodejs&#45;&gt;pyicu -->
<!-- libgd -->
<g id="node20" class="node">
<title>libgd</title>
<g id="a_node20"><a xlink:href="https://github.com/conda-forge/libgd-feedstock/pull/50" xlink:title="libgd ✓">
<ellipse fill="#31688e" stroke="black" cx="518" cy="-378" rx="41.69" ry="18"/>
<text text-anchor="middle" x="518" y="-374.3" font-family="Times,serif" font-size="14.00" fill="white">libgd ✓</text>
</a>
</g>
</g>
<!-- libgd&#45;&gt;topologytoolkit -->
<g id="edge27" class="edge">
<title>libgd&#45;&gt;topologytoolkit</title>
<path fill="none" stroke="black" d="M536.88,-361.81C548.14,-352.75 562.68,-341.05 575.43,-330.79"/>
<polygon fill="black" stroke="black" points="577.56,-333.57 583.15,-324.58 573.17,-328.12 577.56,-333.57"/>
</g>
<!-- libgd&#45;&gt;octave -->
<g id="edge28" class="edge">
<title>libgd&#45;&gt;octave</title>
<path fill="none" stroke="black" d="M511.18,-359.92C504.51,-340.06 497.64,-307.53 515,-288 560.34,-236.99 753.16,-265.8 820,-252 824.61,-251.05 829.38,-249.9 834.11,-248.65"/>
<polygon fill="black" stroke="black" points="834.85,-252.08 843.53,-246.01 832.96,-245.34 834.85,-252.08"/>
</g>
<!-- libxml2 -->
<g id="node21" class="node">
<title>libxml2</title>
<g id="a_node21"><a xlink:href="https://github.com/conda-forge/libxml2-feedstock/pull/93" xlink:title="libxml2 ✓">
<ellipse fill="#31688e" stroke="black" cx="1264" cy="-378" rx="52.79" ry="18"/>
<text text-anchor="middle" x="1264" y="-374.3" font-family="Times,serif" font-size="14.00" fill="white">libxml2 ✓</text>
</a>
</g>
</g>
<!-- libxml2&#45;&gt;gdal -->
<g id="edge29" class="edge">
<title>libxml2&#45;&gt;gdal</title>
<path fill="none" stroke="black" d="M1211.96,-374.3C1065.22,-366.52 650.08,-343.4 515,-324 502.08,-322.14 488.11,-319.35 475.61,-316.57"/>
<polygon fill="black" stroke="black" points="476.63,-313.21 466.1,-314.38 475.05,-320.03 476.63,-313.21"/>
</g>
<!-- libxml2&#45;&gt;paraview -->
<g id="edge30" class="edge">
<title>libxml2&#45;&gt;paraview</title>
<path fill="none" stroke="black" d="M1219.43,-367.97C1172.7,-358.22 1097.26,-341.7 1033,-324 1010.69,-317.86 878.13,-274.65 805.14,-250.77"/>
<polygon fill="black" stroke="black" points="806.42,-247.51 795.83,-247.73 804.25,-254.16 806.42,-247.51"/>
</g>
<!-- libxml2&#45;&gt;qgis -->
<g id="edge31" class="edge">
<title>libxml2&#45;&gt;qgis</title>
<path fill="none" stroke="black" d="M1292.13,-362.52C1307.39,-353.36 1325.45,-340.19 1337,-324 1365.45,-284.12 1392.27,-251.95 1359,-216 1315.38,-168.87 859.72,-163.53 717.3,-163.02"/>
<polygon fill="black" stroke="black" points="717.57,-159.52 707.56,-162.99 717.55,-166.52 717.57,-159.52"/>
</g>
<!-- libxml2&#45;&gt;topologytoolkit -->
<g id="edge32" class="edge">
<title>libxml2&#45;&gt;topologytoolkit</title>
<path fill="none" stroke="black" d="M1212.42,-373.82C1112.32,-367.3 884.86,-350.71 695,-324 688.26,-323.05 681.26,-321.95 674.27,-320.76"/>
<polygon fill="black" stroke="black" points="674.91,-317.32 664.46,-319.04 673.7,-324.21 674.91,-317.32"/>
</g>
<!-- libxml2&#45;&gt;octave -->
<g id="edge33" class="edge">
<title>libxml2&#45;&gt;octave</title>
<path fill="none" stroke="black" d="M1231.71,-363.33C1211.25,-353.87 1184.83,-340.1 1164,-324 1146.83,-310.72 1150.03,-298.44 1131,-288 1050.28,-243.72 1016.18,-274.89 927,-252 924.24,-251.29 921.42,-250.51 918.58,-249.67"/>
<polygon fill="black" stroke="black" points="919.75,-246.37 909.16,-246.72 917.66,-253.05 919.75,-246.37"/>
</g>
<!-- libxml2&#45;&gt;r&#45;base -->
<g id="edge34" class="edge">
<title>libxml2&#45;&gt;r&#45;base</title>
<path fill="none" stroke="black" d="M1229.77,-363.83C1199.15,-352.06 1154.25,-334.79 1121.98,-322.38"/>
<polygon fill="black" stroke="black" points="1123.57,-319.24 1112.98,-318.91 1121.06,-325.77 1123.57,-319.24"/>
</g>
<!-- libxml2&#45;&gt;qt&#45;main -->
<g id="edge35" class="edge">
<title>libxml2&#45;&gt;qt&#45;main</title>
<path fill="none" stroke="black" d="M1212.22,-374.15C1126.68,-368.74 950.81,-354.68 805,-324 801.68,-323.3 798.28,-322.49 794.87,-321.61"/>
<polygon fill="black" stroke="black" points="796.1,-318.32 785.53,-319.01 794.22,-325.06 796.1,-318.32"/>
</g>
<!-- libxml2&#45;&gt;qtwebkit -->
<g id="edge37" class="edge">
<title>libxml2&#45;&gt;qtwebkit</title>
<path fill="none" stroke="black" d="M1245.95,-360.9C1225.94,-343.06 1192.69,-313.44 1164,-288 1153.22,-278.44 1141.34,-267.94 1131.01,-258.82"/>
<polygon fill="black" stroke="black" points="1133.35,-256.21 1123.53,-252.22 1128.71,-261.46 1133.35,-256.21"/>
</g>
<!-- uwsgi -->
<g id="node22" class="node">
<title>uwsgi</title>
<g id="a_node22"><a xlink:href="https://github.com/conda-forge/uwsgi-feedstock" xlink:title="uwsgi">
<ellipse fill="#fde725" stroke="black" cx="1445" cy="-306" rx="38.5" ry="18"/>
<text text-anchor="middle" x="1445" y="-302.3" font-family="Times,serif" font-size="14.00">uwsgi</text>
</a>
</g>
</g>
<!-- libxml2&#45;&gt;uwsgi -->
<g id="edge36" class="edge">
<title>libxml2&#45;&gt;uwsgi</title>
<path fill="none" stroke="black" d="M1298.04,-363.83C1328.59,-352.02 1373.42,-334.68 1405.53,-322.27"/>
<polygon fill="black" stroke="black" points="1406.41,-325.68 1414.48,-318.8 1403.89,-319.15 1406.41,-325.68"/>
</g>
<!-- mdsplus -->
<g id="node23" class="node">
<title>mdsplus</title>
<g id="a_node23"><a xlink:href="https://github.com/conda-forge/mdsplus-feedstock" xlink:title="mdsplus">
<ellipse fill="#fde725" stroke="black" cx="1300" cy="-234" rx="50.09" ry="18"/>
<text text-anchor="middle" x="1300" y="-230.3" font-family="Times,serif" font-size="14.00">mdsplus</text>
</a>
</g>
</g>
<!-- libxml2&#45;&gt;mdsplus -->
<g id="edge38" class="edge">
<title>libxml2&#45;&gt;mdsplus</title>
<path fill="none" stroke="black" d="M1288.2,-361.73C1300.51,-352.48 1314.25,-339.49 1321,-324 1329.65,-304.14 1323.11,-280.17 1315.12,-262.11"/>
<polygon fill="black" stroke="black" points="1318.38,-260.81 1310.88,-253.34 1312.08,-263.86 1318.38,-260.81"/>
</g>
<!-- ticcutils -->
<g id="node24" class="node">
<title>ticcutils</title>
<g id="a_node24"><a xlink:href="https://github.com/conda-forge/ticcutils-feedstock" xlink:title="ticcutils">
<ellipse fill="#fde725" stroke="black" cx="1474" cy="-162" rx="48.19" ry="18"/>
<text text-anchor="middle" x="1474" y="-158.3" font-family="Times,serif" font-size="14.00">ticcutils</text>
</a>
</g>
</g>
<!-- libxml2&#45;&gt;ticcutils -->
<g id="edge39" class="edge">
<title>libxml2&#45;&gt;ticcutils</title>
<path fill="none" stroke="black" d="M1314.73,-372.5C1375.29,-365.95 1471.16,-351.47 1493,-324 1523.5,-285.63 1503.71,-224.96 1487.94,-190.08"/>
<polygon fill="black" stroke="black" points="1491.12,-188.63 1483.68,-181.09 1484.8,-191.63 1491.12,-188.63"/>
</g>
<!-- scilab -->
<g id="node25" class="node">
<title>scilab</title>
<g id="a_node25"><a xlink:href="https://github.com/conda-forge/scilab-feedstock" xlink:title="scilab">
<ellipse fill="#fde725" stroke="black" cx="1536" cy="-90" rx="37.89" ry="18"/>
<text text-anchor="middle" x="1536" y="-86.3" font-family="Times,serif" font-size="14.00">scilab</text>
</a>
</g>
</g>
<!-- libxml2&#45;&gt;scilab -->
<g id="edge40" class="edge">
<title>libxml2&#45;&gt;scilab</title>
<path fill="none" stroke="black" d="M1315.11,-373.08C1380.31,-366.95 1487.79,-352.72 1514,-324 1565.51,-267.56 1553.21,-168.3 1543.06,-119.59"/>
<polygon fill="black" stroke="black" points="1546.47,-118.84 1540.89,-109.83 1539.64,-120.35 1546.47,-118.84"/>
</g>
<!-- libical -->
<g id="node26" class="node">
<title>libical</title>
<g id="a_node26"><a xlink:href="https://github.com/conda-forge/libical-feedstock" xlink:title="libical">
<ellipse fill="#fde725" stroke="black" cx="1602" cy="-18" rx="38.5" ry="18"/>
<text text-anchor="middle" x="1602" y="-14.3" font-family="Times,serif" font-size="14.00">libical</text>
</a>
</g>
</g>
<!-- libxml2&#45;&gt;libical -->
<g id="edge41" class="edge">
<title>libxml2&#45;&gt;libical</title>
<path fill="none" stroke="black" d="M1317.18,-377.72C1412.37,-375.93 1602,-357.05 1602,-235 1602,-235 1602,-235 1602,-161 1602,-121.74 1602,-76.38 1602,-47.69"/>
<polygon fill="black" stroke="black" points="1605.5,-48 1602,-38 1598.5,-48 1605.5,-48"/>
</g>
<!-- libxmlsec1 -->
<g id="node27" class="node">
<title>libxmlsec1</title>
<g id="a_node27"><a xlink:href="https://github.com/conda-forge/libxmlsec1-feedstock" xlink:title="libxmlsec1">
<ellipse fill="#fde725" stroke="black" cx="1691" cy="-306" rx="60.5" ry="18"/>
<text text-anchor="middle" x="1691" y="-302.3" font-family="Times,serif" font-size="14.00">libxmlsec1</text>
</a>
</g>
</g>
<!-- libxml2&#45;&gt;libxmlsec1 -->
<g id="edge42" class="edge">
<title>libxml2&#45;&gt;libxmlsec1</title>
<path fill="none" stroke="black" d="M1312.88,-370.8C1381.02,-361.88 1508.35,-344.28 1616,-324 1621.9,-322.89 1628.05,-321.64 1634.17,-320.34"/>
<polygon fill="black" stroke="black" points="1634.59,-323.83 1643.62,-318.29 1633.11,-316.99 1634.59,-323.83"/>
</g>
<!-- mysql -->
<g id="node28" class="node">
<title>mysql</title>
<g id="a_node28"><a xlink:href="https://github.com/conda-forge/mysql-feedstock/pull/74" xlink:title="mysql ✓">
<ellipse fill="#31688e" stroke="black" cx="748" cy="-378" rx="46.29" ry="18"/>
<text text-anchor="middle" x="748" y="-374.3" font-family="Times,serif" font-size="14.00" fill="white">mysql ✓</text>
</a>
</g>
</g>
<!-- mysql&#45;&gt;qt&#45;main -->
<g id="edge44" class="edge">
<title>mysql&#45;&gt;qt&#45;main</title>
<path fill="none" stroke="black" d="M748.49,-359.7C748.7,-352.41 748.95,-343.73 749.18,-335.54"/>
<polygon fill="black" stroke="black" points="752.68,-335.71 749.47,-325.62 745.68,-335.51 752.68,-335.71"/>
</g>
<!-- tensorflow -->
<g id="node30" class="node">
<title>tensorflow</title>
<g id="a_node30"><a xlink:href="https://github.com/conda-forge/tensorflow-feedstock/pull/308" xlink:title="tensorflow ❎">
<ellipse fill="#31688e" stroke="black" cx="1833" cy="-162" rx="73.5" ry="18"/>
<text text-anchor="middle" x="1833" y="-158.3" font-family="Times,serif" font-size="14.00" fill="white">tensorflow ❎</text>
</a>
</g>
</g>
<!-- pyicu&#45;&gt;tensorflow -->
<!-- baumwelch -->
<g id="node31" class="node">
<title>baumwelch</title>
<g id="a_node31"><a xlink:href="https://github.com/conda-forge/baumwelch-feedstock/pull/14" xlink:title="baumwelch ✓">
<ellipse fill="#31688e" stroke="black" cx="1833" cy="-90" rx="71" ry="18"/>
<text text-anchor="middle" x="1833" y="-86.3" font-family="Times,serif" font-size="14.00" fill="white">baumwelch ✓</text>
</a>
</g>
</g>
<!-- tensorflow&#45;&gt;baumwelch -->
<!-- libv8 -->
<g id="node32" class="node">
<title>libv8</title>
<g id="a_node32"><a xlink:href="https://github.com/conda-forge/libv8-feedstock/pull/82" xlink:title="libv8 ❎">
<ellipse fill="#31688e" stroke="black" cx="1264" cy="-306" rx="48.19" ry="18"/>
<text text-anchor="middle" x="1264" y="-302.3" font-family="Times,serif" font-size="14.00" fill="white">libv8 ❎</text>
</a>
</g>
</g>
<!-- libv8&#45;&gt;r&#45;v8 -->
<g id="edge48" class="edge">
<title>libv8&#45;&gt;r&#45;v8</title>
<path fill="none" stroke="black" d="M1249.54,-288.41C1241.88,-279.62 1232.33,-268.66 1223.88,-258.96"/>
<polygon fill="black" stroke="black" points="1226.72,-256.89 1217.51,-251.65 1221.44,-261.49 1226.72,-256.89"/>
</g>
<!-- libpsl -->
<g id="node33" class="node">
<title>libpsl</title>
<g id="a_node33"><a xlink:href="https://github.com/conda-forge/libpsl-feedstock/pull/8" xlink:title="libpsl ✓">
<ellipse fill="#31688e" stroke="black" cx="674" cy="-450" rx="43.59" ry="18"/>
<text text-anchor="middle" x="674" y="-446.3" font-family="Times,serif" font-size="14.00" fill="white">libpsl ✓</text>
</a>
</g>
</g>
<!-- libpsl&#45;&gt;qt&#45;main -->
<g id="edge49" class="edge">
<title>libpsl&#45;&gt;qt&#45;main</title>
<path fill="none" stroke="black" d="M674.64,-431.51C676.01,-412.72 680.21,-382.54 693,-360 699.53,-348.48 709.42,-338.02 719.13,-329.48"/>
<polygon fill="black" stroke="black" points="721.27,-332.26 726.74,-323.18 716.8,-326.87 721.27,-332.26"/>
</g>
<!-- spidermonkey -->
<g id="node34" class="node">
<title>spidermonkey</title>
<g id="a_node34"><a xlink:href="https://github.com/conda-forge/spidermonkey-feedstock" xlink:title="spidermonkey">
<ellipse fill="#35b779" stroke="black" cx="1990" cy="-270" rx="76.09" ry="18"/>
<text text-anchor="middle" x="1990" y="-266.3" font-family="Times,serif" font-size="14.00">spidermonkey</text>
</a>
</g>
</g>
<!-- couchdb -->
<g id="node35" class="node">
<title>couchdb</title>
<g id="a_node35"><a xlink:href="https://github.com/conda-forge/couchdb-feedstock" xlink:title="couchdb">
<ellipse fill="#fde725" stroke="black" cx="1990" cy="-198" rx="49.5" ry="18"/>
<text text-anchor="middle" x="1990" y="-194.3" font-family="Times,serif" font-size="14.00">couchdb</text>
</a>
</g>
</g>
<!-- spidermonkey&#45;&gt;couchdb -->
<g id="edge50" class="edge">
<title>spidermonkey&#45;&gt;couchdb</title>
<path fill="none" stroke="black" d="M1990,-251.7C1990,-244.41 1990,-235.73 1990,-227.54"/>
<polygon fill="black" stroke="black" points="1993.5,-227.62 1990,-217.62 1986.5,-227.62 1993.5,-227.62"/>
</g>
</g>
</svg>
