<?xml version="1.0" encoding="UTF-8" standalone="no"?>
<!DOCTYPE svg PUBLIC "-//W3C//DTD SVG 1.1//EN"
 "http://www.w3.org/Graphics/SVG/1.1/DTD/svg11.dtd">
<!-- Generated by graphviz version 8.1.0 (20230707.2238)
 -->
<!-- Pages: 1 -->
<svg width="768pt" height="880pt"
 viewBox="0.00 0.00 767.82 880.00" xmlns="http://www.w3.org/2000/svg" xmlns:xlink="http://www.w3.org/1999/xlink">
<g id="graph0" class="graph" transform="scale(1 1) rotate(0) translate(4 876)">
<polygon fill="white" stroke="none" points="-4,4 -4,-876 763.82,-876 763.82,4 -4,4"/>
<!-- gdal -->
<g id="node1" class="node">
<title>gdal</title>
<g id="a_node1"><a xlink:href="https://github.com/conda-forge/gdal-feedstock" xlink:title="gdal">
<ellipse fill="#ff8c00" stroke="black" cx="220.61" cy="-350" rx="32.79" ry="18"/>
<text text-anchor="middle" x="220.61" y="-345.32" font-family="Times,serif" font-size="14.00">gdal</text>
</a>
</g>
</g>
<!-- qgis -->
<g id="node2" class="node">
<title>qgis</title>
<g id="a_node2"><a xlink:href="https://github.com/conda-forge/qgis-feedstock" xlink:title="qgis">
<ellipse fill="#fde725" stroke="black" cx="281.61" cy="-278" rx="32.27" ry="18"/>
<text text-anchor="middle" x="281.61" y="-273.32" font-family="Times,serif" font-size="14.00">qgis</text>
</a>
</g>
</g>
<!-- gdal&#45;&gt;qgis -->
<g id="edge1" class="edge">
<title>gdal&#45;&gt;qgis</title>
<path fill="none" stroke="black" d="M234.15,-333.46C242.05,-324.4 252.17,-312.79 261.04,-302.61"/>
<polygon fill="black" stroke="black" points="264.18,-305.33 268.11,-295.49 258.91,-300.73 264.18,-305.33"/>
</g>
<!-- kaldi -->
<g id="node3" class="node">
<title>kaldi</title>
<g id="a_node3"><a xlink:href="https://github.com/conda-forge/kaldi-feedstock/pull/43" xlink:title="kaldi ✓">
<ellipse fill="#31688e" stroke="black" cx="89.61" cy="-854" rx="43.32" ry="18"/>
<text text-anchor="middle" x="89.61" y="-849.33" font-family="Times,serif" font-size="14.00" fill="white">kaldi ✓</text>
</a>
</g>
</g>
<!-- tectonic -->
<g id="node4" class="node">
<title>tectonic</title>
<g id="a_node4"><a xlink:href="https://github.com/conda-forge/tectonic-feedstock" xlink:title="tectonic">
<ellipse fill="#35b779" stroke="black" cx="89.61" cy="-782" rx="51.21" ry="18"/>
<text text-anchor="middle" x="89.61" y="-777.33" font-family="Times,serif" font-size="14.00">tectonic</text>
</a>
</g>
</g>
<!-- kaldi&#45;&gt;tectonic -->
<!-- texlive&#45;core -->
<g id="node14" class="node">
<title>texlive&#45;core</title>
<g id="a_node14"><a xlink:href="https://github.com/conda-forge/texlive-core-feedstock/pull/86" xlink:title="texlive core ❎">
<ellipse fill="#31688e" stroke="black" cx="89.61" cy="-710" rx="84.88" ry="18"/>
<text text-anchor="middle" x="89.61" y="-705.33" font-family="Times,serif" font-size="14.00" fill="white">texlive core ❎</text>
</a>
</g>
</g>
<!-- tectonic&#45;&gt;texlive&#45;core -->
<!-- mysql -->
<g id="node5" class="node">
<title>mysql</title>
<g id="a_node5"><a xlink:href="https://github.com/conda-forge/mysql-feedstock/pull/85" xlink:title="mysql ❎">
<ellipse fill="#31688e" stroke="black" cx="347.61" cy="-638" rx="56.47" ry="18"/>
<text text-anchor="middle" x="347.61" y="-633.33" font-family="Times,serif" font-size="14.00" fill="white">mysql ❎</text>
</a>
</g>
</g>
<!-- qt&#45;main -->
<g id="node6" class="node">
<title>qt&#45;main</title>
<g id="a_node6"><a xlink:href="https://github.com/conda-forge/qt-main-feedstock" xlink:title="qt main">
<ellipse fill="#fde725" stroke="black" cx="389.61" cy="-566" rx="49.63" ry="18"/>
<text text-anchor="middle" x="389.61" y="-561.33" font-family="Times,serif" font-size="14.00">qt main</text>
</a>
</g>
</g>
<!-- mysql&#45;&gt;qt&#45;main -->
<g id="edge3" class="edge">
<title>mysql&#45;&gt;qt&#45;main</title>
<path fill="none" stroke="black" d="M357.78,-620.05C362.63,-611.97 368.54,-602.12 373.95,-593.11"/>
<polygon fill="black" stroke="black" points="377.4,-595.16 379.54,-584.79 371.4,-591.56 377.4,-595.16"/>
</g>
<!-- qt&#45;main&#45;&gt;qgis -->
<g id="edge4" class="edge">
<title>qt&#45;main&#45;&gt;qgis</title>
<path fill="none" stroke="black" d="M354.25,-553.15C335.04,-544.78 312.79,-531.53 300.61,-512 260.53,-447.71 268.8,-353.28 276.22,-306.86"/>
<polygon fill="black" stroke="black" points="279.82,-307.59 278.06,-297.14 272.92,-306.4 279.82,-307.59"/>
</g>
<!-- octave -->
<g id="node7" class="node">
<title>octave</title>
<g id="a_node7"><a xlink:href="https://github.com/conda-forge/octave-feedstock" xlink:title="octave">
<ellipse fill="#fde725" stroke="black" cx="353.61" cy="-494" rx="43.84" ry="18"/>
<text text-anchor="middle" x="353.61" y="-489.32" font-family="Times,serif" font-size="14.00">octave</text>
</a>
</g>
</g>
<!-- qt&#45;main&#45;&gt;octave -->
<g id="edge5" class="edge">
<title>qt&#45;main&#45;&gt;octave</title>
<path fill="none" stroke="black" d="M380.9,-548.05C376.79,-540.06 371.78,-530.33 367.19,-521.4"/>
<polygon fill="black" stroke="black" points="369.94,-520.08 362.25,-512.79 363.71,-523.28 369.94,-520.08"/>
</g>
<!-- paraview -->
<g id="node8" class="node">
<title>paraview</title>
<g id="a_node8"><a xlink:href="https://github.com/conda-forge/paraview-feedstock" xlink:title="paraview">
<ellipse fill="#fde725" stroke="black" cx="401.61" cy="-422" rx="57" ry="18"/>
<text text-anchor="middle" x="401.61" y="-417.32" font-family="Times,serif" font-size="14.00">paraview</text>
</a>
</g>
</g>
<!-- qt&#45;main&#45;&gt;paraview -->
<g id="edge6" class="edge">
<title>qt&#45;main&#45;&gt;paraview</title>
<path fill="none" stroke="black" d="M396.5,-548.14C400.32,-537.88 404.67,-524.41 406.61,-512 409.79,-491.68 408.32,-468.47 406.18,-450.85"/>
<polygon fill="black" stroke="black" points="409.54,-450.6 404.71,-441.17 402.6,-451.55 409.54,-450.6"/>
</g>
<!-- qtwebkit -->
<g id="node9" class="node">
<title>qtwebkit</title>
<g id="a_node9"><a xlink:href="https://github.com/conda-forge/qtwebkit-feedstock" xlink:title="qtwebkit">
<ellipse fill="#fde725" stroke="black" cx="425.61" cy="-350" rx="55.42" ry="18"/>
<text text-anchor="middle" x="425.61" y="-345.32" font-family="Times,serif" font-size="14.00">qtwebkit</text>
</a>
</g>
</g>
<!-- qt&#45;main&#45;&gt;qtwebkit -->
<g id="edge7" class="edge">
<title>qt&#45;main&#45;&gt;qtwebkit</title>
<path fill="none" stroke="black" d="M404.07,-548.69C423,-526.13 455.22,-483.28 467.61,-440 472.02,-424.62 472.88,-419.11 467.61,-404 464,-393.63 457.43,-383.77 450.53,-375.42"/>
<polygon fill="black" stroke="black" points="453.6,-373.47 444.34,-368.31 448.36,-378.12 453.6,-373.47"/>
</g>
<!-- qtwebkit&#45;&gt;qgis -->
<g id="edge14" class="edge">
<title>qtwebkit&#45;&gt;qgis</title>
<path fill="none" stroke="black" d="M395.78,-334.5C372.17,-323.02 339.24,-307.01 314.8,-295.13"/>
<polygon fill="black" stroke="black" points="316.76,-291.71 306.23,-290.48 313.7,-298 316.76,-291.71"/>
</g>
<!-- r&#45;base -->
<g id="node10" class="node">
<title>r&#45;base</title>
<g id="a_node10"><a xlink:href="https://github.com/conda-forge/r-base-feedstock/pull/271" xlink:title="r base ✓">
<ellipse fill="#31688e" stroke="black" cx="589.61" cy="-566" rx="50.16" ry="18"/>
<text text-anchor="middle" x="589.61" y="-561.33" font-family="Times,serif" font-size="14.00" fill="white">r base ✓</text>
</a>
</g>
</g>
<!-- r&#45;cairo -->
<g id="node11" class="node">
<title>r&#45;cairo</title>
<g id="a_node11"><a xlink:href="https://github.com/conda-forge/r-cairo-feedstock" xlink:title="r cairo">
<ellipse fill="#fde725" stroke="black" cx="532.61" cy="-494" rx="43.84" ry="18"/>
<text text-anchor="middle" x="532.61" y="-489.32" font-family="Times,serif" font-size="14.00">r cairo</text>
</a>
</g>
</g>
<!-- r&#45;base&#45;&gt;r&#45;cairo -->
<g id="edge8" class="edge">
<title>r&#45;base&#45;&gt;r&#45;cairo</title>
<path fill="none" stroke="black" d="M576.11,-548.41C569.15,-539.87 560.53,-529.28 552.8,-519.79"/>
<polygon fill="black" stroke="black" points="555.05,-518.01 546.03,-512.47 549.63,-522.43 555.05,-518.01"/>
</g>
<!-- r&#45;stringi -->
<g id="node12" class="node">
<title>r&#45;stringi</title>
<g id="a_node12"><a xlink:href="https://github.com/conda-forge/r-stringi-feedstock" xlink:title="r stringi">
<ellipse fill="#fde725" stroke="black" cx="604.61" cy="-422" rx="52.26" ry="18"/>
<text text-anchor="middle" x="604.61" y="-417.32" font-family="Times,serif" font-size="14.00">r stringi</text>
</a>
</g>
</g>
<!-- r&#45;base&#45;&gt;r&#45;stringi -->
<g id="edge9" class="edge">
<title>r&#45;base&#45;&gt;r&#45;stringi</title>
<path fill="none" stroke="black" d="M591.45,-547.59C594,-523.5 598.62,-479.75 601.65,-451.03"/>
<polygon fill="black" stroke="black" points="605.24,-451.42 602.81,-441.11 598.28,-450.69 605.24,-451.42"/>
</g>
<!-- r&#45;v8 -->
<g id="node13" class="node">
<title>r&#45;v8</title>
<g id="a_node13"><a xlink:href="https://github.com/conda-forge/r-v8-feedstock" xlink:title="r v8">
<ellipse fill="#fde725" stroke="black" cx="693.61" cy="-494" rx="31.22" ry="18"/>
<text text-anchor="middle" x="693.61" y="-489.32" font-family="Times,serif" font-size="14.00">r v8</text>
</a>
</g>
</g>
<!-- r&#45;base&#45;&gt;r&#45;v8 -->
<g id="edge10" class="edge">
<title>r&#45;base&#45;&gt;r&#45;v8</title>
<path fill="none" stroke="black" d="M612.44,-549.64C627.98,-539.18 648.65,-525.26 665.25,-514.09"/>
<polygon fill="black" stroke="black" points="666.65,-516.69 672.99,-508.21 662.74,-510.89 666.65,-516.69"/>
</g>
<!-- uwsgi -->
<g id="node15" class="node">
<title>uwsgi</title>
<g id="a_node15"><a xlink:href="https://github.com/conda-forge/uwsgi-feedstock" xlink:title="uwsgi">
<ellipse fill="#ff8c00" stroke="black" cx="89.61" cy="-638" rx="40.69" ry="18"/>
<text text-anchor="middle" x="89.61" y="-633.33" font-family="Times,serif" font-size="14.00">uwsgi</text>
</a>
</g>
</g>
<!-- texlive&#45;core&#45;&gt;uwsgi -->
<!-- pyicu -->
<g id="node16" class="node">
<title>pyicu</title>
<g id="a_node16"><a xlink:href="https://github.com/conda-forge/pyicu-feedstock/pull/47" xlink:title="pyicu ✓">
<ellipse fill="#31688e" stroke="black" cx="89.61" cy="-566" rx="45.95" ry="18"/>
<text text-anchor="middle" x="89.61" y="-561.33" font-family="Times,serif" font-size="14.00" fill="white">pyicu ✓</text>
</a>
</g>
</g>
<!-- uwsgi&#45;&gt;pyicu -->
<!-- tensorflow -->
<g id="node17" class="node">
<title>tensorflow</title>
<g id="a_node17"><a xlink:href="https://github.com/conda-forge/tensorflow-feedstock" xlink:title="tensorflow">
<ellipse fill="#ff8c00" stroke="black" cx="89.61" cy="-494" rx="63.84" ry="18"/>
<text text-anchor="middle" x="89.61" y="-489.32" font-family="Times,serif" font-size="14.00">tensorflow</text>
</a>
</g>
</g>
<!-- pyicu&#45;&gt;tensorflow -->
<!-- mdsplus -->
<g id="node18" class="node">
<title>mdsplus</title>
<g id="a_node18"><a xlink:href="https://github.com/conda-forge/mdsplus-feedstock" xlink:title="mdsplus">
<ellipse fill="#35b779" stroke="black" cx="89.61" cy="-422" rx="53.31" ry="18"/>
<text text-anchor="middle" x="89.61" y="-417.32" font-family="Times,serif" font-size="14.00">mdsplus</text>
</a>
</g>
</g>
<!-- tensorflow&#45;&gt;mdsplus -->
<!-- ticcutils -->
<g id="node19" class="node">
<title>ticcutils</title>
<g id="a_node19"><a xlink:href="https://github.com/conda-forge/ticcutils-feedstock/pull/29" xlink:title="ticcutils ✓">
<ellipse fill="#31688e" stroke="black" cx="89.61" cy="-350" rx="59.1" ry="18"/>
<text text-anchor="middle" x="89.61" y="-345.32" font-family="Times,serif" font-size="14.00" fill="white">ticcutils ✓</text>
</a>
</g>
</g>
<!-- mdsplus&#45;&gt;ticcutils -->
<!-- mongodb -->
<g id="node20" class="node">
<title>mongodb</title>
<g id="a_node20"><a xlink:href="https://github.com/conda-forge/mongodb-feedstock/pull/75" xlink:title="mongodb ❎">
<ellipse fill="#31688e" stroke="black" cx="89.61" cy="-278" rx="72.78" ry="18"/>
<text text-anchor="middle" x="89.61" y="-273.32" font-family="Times,serif" font-size="14.00" fill="white">mongodb ❎</text>
</a>
</g>
</g>
<!-- ticcutils&#45;&gt;mongodb -->
<!-- scilab -->
<g id="node21" class="node">
<title>scilab</title>
<g id="a_node21"><a xlink:href="https://github.com/conda-forge/scilab-feedstock" xlink:title="scilab">
<ellipse fill="#35b779" stroke="black" cx="89.61" cy="-206" rx="40.16" ry="18"/>
<text text-anchor="middle" x="89.61" y="-201.33" font-family="Times,serif" font-size="14.00">scilab</text>
</a>
</g>
</g>
<!-- mongodb&#45;&gt;scilab -->
<!-- libical -->
<g id="node22" class="node">
<title>libical</title>
<g id="a_node22"><a xlink:href="https://github.com/conda-forge/libical-feedstock" xlink:title="libical">
<ellipse fill="#35b779" stroke="black" cx="89.61" cy="-134" rx="41.21" ry="18"/>
<text text-anchor="middle" x="89.61" y="-129.32" font-family="Times,serif" font-size="14.00">libical</text>
</a>
</g>
</g>
<!-- scilab&#45;&gt;libical -->
<!-- libv8 -->
<g id="node23" class="node">
<title>libv8</title>
<g id="a_node23"><a xlink:href="https://github.com/conda-forge/libv8-feedstock/pull/84" xlink:title="libv8 ❎">
<ellipse fill="#31688e" stroke="black" cx="708.61" cy="-566" rx="51.21" ry="18"/>
<text text-anchor="middle" x="708.61" y="-561.33" font-family="Times,serif" font-size="14.00" fill="white">libv8 ❎</text>
</a>
</g>
</g>
<!-- libv8&#45;&gt;r&#45;v8 -->
<g id="edge21" class="edge">
<title>libv8&#45;&gt;r&#45;v8</title>
<path fill="none" stroke="black" d="M704.91,-547.7C703.29,-540.15 701.35,-531.12 699.55,-522.68"/>
<polygon fill="black" stroke="black" points="702.8,-522.15 697.28,-513.1 695.95,-523.62 702.8,-522.15"/>
</g>
<!-- topologytoolkit -->
<g id="node24" class="node">
<title>topologytoolkit</title>
<g id="a_node24"><a xlink:href="https://github.com/conda-forge/topologytoolkit-feedstock" xlink:title="topologytoolkit">
<ellipse fill="#35b779" stroke="black" cx="333.61" cy="-90" rx="86.46" ry="18"/>
<text text-anchor="middle" x="333.61" y="-85.33" font-family="Times,serif" font-size="14.00">topologytoolkit</text>
</a>
</g>
</g>
<!-- odil -->
<g id="node25" class="node">
<title>odil</title>
<g id="a_node25"><a xlink:href="https://github.com/conda-forge/odil-feedstock" xlink:title="odil">
<ellipse fill="#35b779" stroke="black" cx="333.61" cy="-18" rx="29.64" ry="18"/>
<text text-anchor="middle" x="333.61" y="-13.32" font-family="Times,serif" font-size="14.00">odil</text>
</a>
</g>
</g>
<!-- topologytoolkit&#45;&gt;odil -->
<!-- libpsl -->
<g id="node26" class="node">
<title>libpsl</title>
<g id="a_node26"><a xlink:href="https://github.com/conda-forge/libpsl-feedstock/pull/10" xlink:title="libpsl ✓">
<ellipse fill="#31688e" stroke="black" cx="431.61" cy="-710" rx="46.47" ry="18"/>
<text text-anchor="middle" x="431.61" y="-705.33" font-family="Times,serif" font-size="14.00" fill="white">libpsl ✓</text>
</a>
</g>
</g>
<!-- libpsl&#45;&gt;qt&#45;main -->
<g id="edge23" class="edge">
<title>libpsl&#45;&gt;qt&#45;main</title>
<path fill="none" stroke="black" d="M428.97,-691.67C425.96,-673.54 420.42,-644.38 412.61,-620 409.82,-611.27 406.09,-602.02 402.44,-593.73"/>
<polygon fill="black" stroke="black" points="405.28,-592.51 397.96,-584.85 398.91,-595.41 405.28,-592.51"/>
</g>
<!-- spidermonkey -->
<g id="node27" class="node">
<title>spidermonkey</title>
<g id="a_node27"><a xlink:href="https://github.com/conda-forge/spidermonkey-feedstock/pull/12" xlink:title="spidermonkey ✓">
<ellipse fill="#31688e" stroke="black" cx="89.61" cy="-90" rx="89.61" ry="18"/>
<text text-anchor="middle" x="89.61" y="-85.33" font-family="Times,serif" font-size="14.00" fill="white">spidermonkey ✓</text>
</a>
</g>
</g>
<!-- couchdb -->
<g id="node28" class="node">
<title>couchdb</title>
<g id="a_node28"><a xlink:href="https://github.com/conda-forge/couchdb-feedstock" xlink:title="couchdb">
<ellipse fill="#fde725" stroke="black" cx="89.61" cy="-18" rx="52.79" ry="18"/>
<text text-anchor="middle" x="89.61" y="-13.32" font-family="Times,serif" font-size="14.00">couchdb</text>
</a>
</g>
</g>
<!-- spidermonkey&#45;&gt;couchdb -->
<g id="edge24" class="edge">
<title>spidermonkey&#45;&gt;couchdb</title>
<path fill="none" stroke="black" d="M89.61,-71.7C89.61,-64.24 89.61,-55.32 89.61,-46.97"/>
<polygon fill="black" stroke="black" points="93.11,-47.1 89.61,-37.1 86.11,-47.1 93.11,-47.1"/>
</g>
</g>
</svg>
