<?xml version="1.0" encoding="UTF-8" standalone="no"?>
<!DOCTYPE svg PUBLIC "-//W3C//DTD SVG 1.1//EN"
 "http://www.w3.org/Graphics/SVG/1.1/DTD/svg11.dtd">
<!-- Generated by graphviz version 8.1.0 (20230707.2238)
 -->
<!-- Pages: 1 -->
<svg width="1664pt" height="764pt"
 viewBox="0.00 0.00 1664.14 764.00" xmlns="http://www.w3.org/2000/svg" xmlns:xlink="http://www.w3.org/1999/xlink">
<g id="graph0" class="graph" transform="scale(1 1) rotate(0) translate(4 760)">
<polygon fill="white" stroke="none" points="-4,4 -4,-760 1660.14,-760 1660.14,4 -4,4"/>
<!-- boost&#45;cpp -->
<g id="node1" class="node">
<title>boost&#45;cpp</title>
<g id="a_node1"><a xlink:href="https://github.com/conda-forge/boost-cpp-feedstock" xlink:title="boost cpp">
<ellipse fill="#35b779" stroke="black" cx="756.42" cy="-378" rx="59.63" ry="18"/>
<text text-anchor="middle" x="756.42" y="-373.32" font-family="Times,serif" font-size="14.00">boost cpp</text>
</a>
</g>
</g>
<!-- gdal -->
<g id="node2" class="node">
<title>gdal</title>
<g id="a_node2"><a xlink:href="https://github.com/conda-forge/gdal-feedstock" xlink:title="gdal">
<ellipse fill="#fde725" stroke="black" cx="627.42" cy="-306" rx="32.79" ry="18"/>
<text text-anchor="middle" x="627.42" y="-301.32" font-family="Times,serif" font-size="14.00">gdal</text>
</a>
</g>
</g>
<!-- boost&#45;cpp&#45;&gt;gdal -->
<g id="edge1" class="edge">
<title>boost&#45;cpp&#45;&gt;gdal</title>
<path fill="none" stroke="black" d="M728.43,-361.81C708.21,-350.84 680.86,-336 659.72,-324.53"/>
<polygon fill="black" stroke="black" points="661.66,-321.05 651.2,-319.36 658.32,-327.21 661.66,-321.05"/>
</g>
<!-- paraview -->
<g id="node3" class="node">
<title>paraview</title>
<g id="a_node3"><a xlink:href="https://github.com/conda-forge/paraview-feedstock" xlink:title="paraview">
<ellipse fill="#fde725" stroke="black" cx="329.42" cy="-306" rx="57" ry="18"/>
<text text-anchor="middle" x="329.42" y="-301.32" font-family="Times,serif" font-size="14.00">paraview</text>
</a>
</g>
</g>
<!-- boost&#45;cpp&#45;&gt;paraview -->
<g id="edge2" class="edge">
<title>boost&#45;cpp&#45;&gt;paraview</title>
<path fill="none" stroke="black" d="M712.79,-365.42C704.4,-363.43 695.67,-361.52 687.42,-360 558.82,-336.32 523.89,-348.36 395.42,-324 390.97,-323.16 386.38,-322.19 381.79,-321.14"/>
<polygon fill="black" stroke="black" points="382.67,-317.52 372.13,-318.61 381.05,-324.33 382.67,-317.52"/>
</g>
<!-- qgis -->
<g id="node4" class="node">
<title>qgis</title>
<g id="a_node4"><a xlink:href="https://github.com/conda-forge/qgis-feedstock" xlink:title="qgis">
<ellipse fill="#fde725" stroke="black" cx="383.42" cy="-234" rx="32.27" ry="18"/>
<text text-anchor="middle" x="383.42" y="-229.32" font-family="Times,serif" font-size="14.00">qgis</text>
</a>
</g>
</g>
<!-- boost&#45;cpp&#45;&gt;qgis -->
<g id="edge3" class="edge">
<title>boost&#45;cpp&#45;&gt;qgis</title>
<path fill="none" stroke="black" d="M740.99,-360.15C718.41,-335.66 678.09,-292.63 669.42,-288 590.93,-246.14 485.05,-236.79 426.63,-235.03"/>
<polygon fill="black" stroke="black" points="427.03,-231.52 416.95,-234.78 426.86,-238.52 427.03,-231.52"/>
</g>
<!-- texlive&#45;core -->
<g id="node5" class="node">
<title>texlive&#45;core</title>
<g id="a_node5"><a xlink:href="https://github.com/conda-forge/texlive-core-feedstock" xlink:title="texlive core">
<ellipse fill="#fde725" stroke="black" cx="958.42" cy="-306" rx="69.62" ry="18"/>
<text text-anchor="middle" x="958.42" y="-301.32" font-family="Times,serif" font-size="14.00">texlive core</text>
</a>
</g>
</g>
<!-- boost&#45;cpp&#45;&gt;texlive&#45;core -->
<g id="edge4" class="edge">
<title>boost&#45;cpp&#45;&gt;texlive&#45;core</title>
<path fill="none" stroke="black" d="M794.41,-363.83C826.45,-352.73 872.57,-336.75 907.75,-324.56"/>
<polygon fill="black" stroke="black" points="908.52,-327.65 916.82,-321.07 906.23,-321.04 908.52,-327.65"/>
</g>
<!-- mongodb -->
<g id="node6" class="node">
<title>mongodb</title>
<g id="a_node6"><a xlink:href="https://github.com/conda-forge/mongodb-feedstock" xlink:title="mongodb">
<ellipse fill="#fde725" stroke="black" cx="774.42" cy="-306" rx="57.52" ry="18"/>
<text text-anchor="middle" x="774.42" y="-301.32" font-family="Times,serif" font-size="14.00">mongodb</text>
</a>
</g>
</g>
<!-- boost&#45;cpp&#45;&gt;mongodb -->
<g id="edge5" class="edge">
<title>boost&#45;cpp&#45;&gt;mongodb</title>
<path fill="none" stroke="black" d="M760.87,-359.7C762.81,-352.15 765.13,-343.12 767.3,-334.68"/>
<polygon fill="black" stroke="black" points="770.92,-335.66 770.02,-325.1 764.14,-333.92 770.92,-335.66"/>
</g>
<!-- topologytoolkit -->
<g id="node7" class="node">
<title>topologytoolkit</title>
<g id="a_node7"><a xlink:href="https://github.com/conda-forge/topologytoolkit-feedstock" xlink:title="topologytoolkit">
<ellipse fill="#fde725" stroke="black" cx="490.42" cy="-306" rx="86.46" ry="18"/>
<text text-anchor="middle" x="490.42" y="-301.32" font-family="Times,serif" font-size="14.00">topologytoolkit</text>
</a>
</g>
</g>
<!-- boost&#45;cpp&#45;&gt;topologytoolkit -->
<g id="edge6" class="edge">
<title>boost&#45;cpp&#45;&gt;topologytoolkit</title>
<path fill="none" stroke="black" d="M712.49,-365.44C669.05,-354.01 602.15,-336.4 553.12,-323.5"/>
<polygon fill="black" stroke="black" points="554.2,-319.9 543.63,-320.74 552.41,-326.67 554.2,-319.9"/>
</g>
<!-- odil -->
<g id="node8" class="node">
<title>odil</title>
<g id="a_node8"><a xlink:href="https://github.com/conda-forge/odil-feedstock" xlink:title="odil">
<ellipse fill="#fde725" stroke="black" cx="860.42" cy="-234" rx="29.64" ry="18"/>
<text text-anchor="middle" x="860.42" y="-229.32" font-family="Times,serif" font-size="14.00">odil</text>
</a>
</g>
</g>
<!-- boost&#45;cpp&#45;&gt;odil -->
<g id="edge7" class="edge">
<title>boost&#45;cpp&#45;&gt;odil</title>
<path fill="none" stroke="black" d="M791.46,-363.13C809.03,-354.43 829.13,-341.51 841.42,-324 853.89,-306.22 858.45,-281.87 859.99,-263.14"/>
<polygon fill="black" stroke="black" points="863.54,-263.49 860.61,-253.3 856.55,-263.09 863.54,-263.49"/>
</g>
<!-- gdal&#45;&gt;qgis -->
<g id="edge8" class="edge">
<title>gdal&#45;&gt;qgis</title>
<path fill="none" stroke="black" d="M602.29,-294.22C596.78,-292.03 590.94,-289.83 585.42,-288 530.26,-269.68 464.97,-253.53 423.87,-244"/>
<polygon fill="black" stroke="black" points="424.73,-240.38 414.2,-241.56 423.17,-247.2 424.73,-240.38"/>
</g>
<!-- harfbuzz -->
<g id="node9" class="node">
<title>harfbuzz</title>
<g id="a_node9"><a xlink:href="https://github.com/conda-forge/harfbuzz-feedstock" xlink:title="harfbuzz">
<ellipse fill="#35b779" stroke="black" cx="545.42" cy="-450" rx="54.89" ry="18"/>
<text text-anchor="middle" x="545.42" y="-445.32" font-family="Times,serif" font-size="14.00">harfbuzz</text>
</a>
</g>
</g>
<!-- harfbuzz&#45;&gt;texlive&#45;core -->
<g id="edge9" class="edge">
<title>harfbuzz&#45;&gt;texlive&#45;core</title>
<path fill="none" stroke="black" d="M598.82,-445.29C656.53,-439.84 750.32,-426.73 825.42,-396 864.98,-379.81 905.03,-350.93 930.69,-330.47"/>
<polygon fill="black" stroke="black" points="932.58,-332.63 938.14,-323.61 928.17,-327.19 932.58,-332.63"/>
</g>
<!-- harfbuzz&#45;&gt;topologytoolkit -->
<g id="edge10" class="edge">
<title>harfbuzz&#45;&gt;topologytoolkit</title>
<path fill="none" stroke="black" d="M543.72,-431.67C541.47,-413.29 536.53,-383.69 526.42,-360 522.42,-350.63 516.68,-341.19 510.95,-332.92"/>
<polygon fill="black" stroke="black" points="513.29,-331.19 504.58,-325.15 507.63,-335.3 513.29,-331.19"/>
</g>
<!-- octave -->
<g id="node10" class="node">
<title>octave</title>
<g id="a_node10"><a xlink:href="https://github.com/conda-forge/octave-feedstock" xlink:title="octave">
<ellipse fill="#fde725" stroke="black" cx="210.42" cy="-306" rx="43.84" ry="18"/>
<text text-anchor="middle" x="210.42" y="-301.32" font-family="Times,serif" font-size="14.00">octave</text>
</a>
</g>
</g>
<!-- harfbuzz&#45;&gt;octave -->
<g id="edge11" class="edge">
<title>harfbuzz&#45;&gt;octave</title>
<path fill="none" stroke="black" d="M492.99,-444.22C444.51,-438.16 371.56,-424.79 314.42,-396 305.52,-391.52 263.67,-354.73 235.85,-329.88"/>
<polygon fill="black" stroke="black" points="238.5,-327.66 228.71,-323.6 233.83,-332.88 238.5,-327.66"/>
</g>
<!-- r&#45;base -->
<g id="node11" class="node">
<title>r&#45;base</title>
<g id="a_node11"><a xlink:href="https://github.com/conda-forge/r-base-feedstock" xlink:title="r base">
<ellipse fill="#fde725" stroke="black" cx="1144.42" cy="-378" rx="42.26" ry="18"/>
<text text-anchor="middle" x="1144.42" y="-373.32" font-family="Times,serif" font-size="14.00">r base</text>
</a>
</g>
</g>
<!-- harfbuzz&#45;&gt;r&#45;base -->
<g id="edge12" class="edge">
<title>harfbuzz&#45;&gt;r&#45;base</title>
<path fill="none" stroke="black" d="M598.43,-444.65C690.31,-436.83 884.95,-419.06 1048.42,-396 1063.93,-393.81 1080.77,-390.98 1095.95,-388.27"/>
<polygon fill="black" stroke="black" points="1096.46,-391.55 1105.67,-386.32 1095.21,-384.66 1096.46,-391.55"/>
</g>
<!-- r&#45;cairo -->
<g id="node12" class="node">
<title>r&#45;cairo</title>
<g id="a_node12"><a xlink:href="https://github.com/conda-forge/r-cairo-feedstock" xlink:title="r cairo">
<ellipse fill="#fde725" stroke="black" cx="1089.42" cy="-306" rx="43.84" ry="18"/>
<text text-anchor="middle" x="1089.42" y="-301.32" font-family="Times,serif" font-size="14.00">r cairo</text>
</a>
</g>
</g>
<!-- harfbuzz&#45;&gt;r&#45;cairo -->
<g id="edge13" class="edge">
<title>harfbuzz&#45;&gt;r&#45;cairo</title>
<path fill="none" stroke="black" d="M597.75,-444.24C663,-437.46 777.49,-422.78 872.42,-396 937.77,-377.57 1010.05,-345.39 1052.51,-325.19"/>
<polygon fill="black" stroke="black" points="1053.88,-327.93 1061.39,-320.45 1050.86,-321.62 1053.88,-327.93"/>
</g>
<!-- tectonic -->
<g id="node13" class="node">
<title>tectonic</title>
<g id="a_node13"><a xlink:href="https://github.com/conda-forge/tectonic-feedstock" xlink:title="tectonic">
<ellipse fill="#fde725" stroke="black" cx="466.42" cy="-378" rx="51.21" ry="18"/>
<text text-anchor="middle" x="466.42" y="-373.32" font-family="Times,serif" font-size="14.00">tectonic</text>
</a>
</g>
</g>
<!-- harfbuzz&#45;&gt;tectonic -->
<g id="edge14" class="edge">
<title>harfbuzz&#45;&gt;tectonic</title>
<path fill="none" stroke="black" d="M527.1,-432.76C516.93,-423.75 504.1,-412.39 492.86,-402.43"/>
<polygon fill="black" stroke="black" points="495.45,-400.16 485.64,-396.15 490.81,-405.4 495.45,-400.16"/>
</g>
<!-- qt&#45;main -->
<g id="node14" class="node">
<title>qt&#45;main</title>
<g id="a_node14"><a xlink:href="https://github.com/conda-forge/qt-main-feedstock" xlink:title="qt main">
<ellipse fill="#fde725" stroke="black" cx="210.42" cy="-378" rx="49.63" ry="18"/>
<text text-anchor="middle" x="210.42" y="-373.32" font-family="Times,serif" font-size="14.00">qt main</text>
</a>
</g>
</g>
<!-- harfbuzz&#45;&gt;qt&#45;main -->
<g id="edge15" class="edge">
<title>harfbuzz&#45;&gt;qt&#45;main</title>
<path fill="none" stroke="black" d="M498.68,-440.34C445.45,-430.34 355.95,-413.04 279.42,-396 273.32,-394.64 266.94,-393.16 260.63,-391.65"/>
<polygon fill="black" stroke="black" points="261.66,-388.06 251.12,-389.1 260.01,-394.86 261.66,-388.06"/>
</g>
<!-- r&#45;base&#45;&gt;r&#45;cairo -->
<g id="edge16" class="edge">
<title>r&#45;base&#45;&gt;r&#45;cairo</title>
<path fill="none" stroke="black" d="M1131.38,-360.41C1124.74,-351.95 1116.52,-341.49 1109.12,-332.08"/>
<polygon fill="black" stroke="black" points="1111.29,-330.17 1102.36,-324.47 1105.79,-334.5 1111.29,-330.17"/>
</g>
<!-- r&#45;stringi -->
<g id="node15" class="node">
<title>r&#45;stringi</title>
<g id="a_node15"><a xlink:href="https://github.com/conda-forge/r-stringi-feedstock" xlink:title="r stringi">
<ellipse fill="#fde725" stroke="black" cx="1203.42" cy="-306" rx="52.26" ry="18"/>
<text text-anchor="middle" x="1203.42" y="-301.32" font-family="Times,serif" font-size="14.00">r stringi</text>
</a>
</g>
</g>
<!-- r&#45;base&#45;&gt;r&#45;stringi -->
<g id="edge17" class="edge">
<title>r&#45;base&#45;&gt;r&#45;stringi</title>
<path fill="none" stroke="black" d="M1158.1,-360.76C1165.3,-352.23 1174.27,-341.58 1182.33,-332.02"/>
<polygon fill="black" stroke="black" points="1185.63,-334.54 1189.4,-324.63 1180.28,-330.02 1185.63,-334.54"/>
</g>
<!-- r&#45;v8 -->
<g id="node16" class="node">
<title>r&#45;v8</title>
<g id="a_node16"><a xlink:href="https://github.com/conda-forge/r-v8-feedstock" xlink:title="r v8">
<ellipse fill="#fde725" stroke="black" cx="1304.42" cy="-306" rx="31.22" ry="18"/>
<text text-anchor="middle" x="1304.42" y="-301.32" font-family="Times,serif" font-size="14.00">r v8</text>
</a>
</g>
</g>
<!-- r&#45;base&#45;&gt;r&#45;v8 -->
<g id="edge18" class="edge">
<title>r&#45;base&#45;&gt;r&#45;v8</title>
<path fill="none" stroke="black" d="M1173.02,-364.49C1200.16,-352.61 1240.98,-334.75 1269.92,-322.1"/>
<polygon fill="black" stroke="black" points="1271.23,-324.9 1278.99,-317.69 1268.42,-318.49 1271.23,-324.9"/>
</g>
<!-- qt&#45;main&#45;&gt;paraview -->
<g id="edge19" class="edge">
<title>qt&#45;main&#45;&gt;paraview</title>
<path fill="none" stroke="black" d="M235.66,-362.15C252.62,-352.18 275.22,-338.88 293.98,-327.84"/>
<polygon fill="black" stroke="black" points="295.55,-330.39 302.4,-322.31 292,-324.36 295.55,-330.39"/>
</g>
<!-- qt&#45;main&#45;&gt;qgis -->
<g id="edge20" class="edge">
<title>qt&#45;main&#45;&gt;qgis</title>
<path fill="none" stroke="black" d="M189.67,-361.4C167.68,-342.98 138.54,-311.82 157.42,-288 179.88,-259.66 281.88,-245.01 340.89,-238.78"/>
<polygon fill="black" stroke="black" points="341.14,-242.17 350.73,-237.68 340.43,-235.21 341.14,-242.17"/>
</g>
<!-- qt&#45;main&#45;&gt;octave -->
<g id="edge21" class="edge">
<title>qt&#45;main&#45;&gt;octave</title>
<path fill="none" stroke="black" d="M210.42,-359.7C210.42,-352.24 210.42,-343.32 210.42,-334.97"/>
<polygon fill="black" stroke="black" points="213.92,-335.1 210.42,-325.1 206.92,-335.1 213.92,-335.1"/>
</g>
<!-- qtwebkit -->
<g id="node17" class="node">
<title>qtwebkit</title>
<g id="a_node17"><a xlink:href="https://github.com/conda-forge/qtwebkit-feedstock" xlink:title="qtwebkit">
<ellipse fill="#fde725" stroke="black" cx="55.42" cy="-306" rx="55.42" ry="18"/>
<text text-anchor="middle" x="55.42" y="-301.32" font-family="Times,serif" font-size="14.00">qtwebkit</text>
</a>
</g>
</g>
<!-- qt&#45;main&#45;&gt;qtwebkit -->
<g id="edge22" class="edge">
<title>qt&#45;main&#45;&gt;qtwebkit</title>
<path fill="none" stroke="black" d="M180.16,-363.34C156.34,-352.58 122.88,-337.46 96.61,-325.6"/>
<polygon fill="black" stroke="black" points="98.48,-322.16 87.93,-321.23 95.6,-328.53 98.48,-322.16"/>
</g>
<!-- qtwebkit&#45;&gt;qgis -->
<g id="edge30" class="edge">
<title>qtwebkit&#45;&gt;qgis</title>
<path fill="none" stroke="black" d="M98.05,-294.22C106.76,-292.09 115.87,-289.93 124.42,-288 201.17,-270.7 291.27,-252.8 342.42,-242.87"/>
<polygon fill="black" stroke="black" points="342.88,-246.15 352.03,-240.81 341.55,-239.28 342.88,-246.15"/>
</g>
<!-- kaldi -->
<g id="node18" class="node">
<title>kaldi</title>
<g id="a_node18"><a xlink:href="https://github.com/conda-forge/kaldi-feedstock" xlink:title="kaldi">
<ellipse fill="#35b779" stroke="black" cx="1416.42" cy="-738" rx="35.42" ry="18"/>
<text text-anchor="middle" x="1416.42" y="-733.33" font-family="Times,serif" font-size="14.00">kaldi</text>
</a>
</g>
</g>
<!-- nodejs -->
<g id="node19" class="node">
<title>nodejs</title>
<g id="a_node19"><a xlink:href="https://github.com/conda-forge/nodejs-feedstock" xlink:title="nodejs">
<ellipse fill="#35b779" stroke="black" cx="1416.42" cy="-666" rx="43.84" ry="18"/>
<text text-anchor="middle" x="1416.42" y="-661.33" font-family="Times,serif" font-size="14.00">nodejs</text>
</a>
</g>
</g>
<!-- kaldi&#45;&gt;nodejs -->
<!-- uwsgi -->
<g id="node22" class="node">
<title>uwsgi</title>
<g id="a_node22"><a xlink:href="https://github.com/conda-forge/uwsgi-feedstock" xlink:title="uwsgi">
<ellipse fill="#35b779" stroke="black" cx="1416.42" cy="-594" rx="40.69" ry="18"/>
<text text-anchor="middle" x="1416.42" y="-589.33" font-family="Times,serif" font-size="14.00">uwsgi</text>
</a>
</g>
</g>
<!-- nodejs&#45;&gt;uwsgi -->
<!-- libgd -->
<g id="node20" class="node">
<title>libgd</title>
<g id="a_node20"><a xlink:href="https://github.com/conda-forge/libgd-feedstock" xlink:title="libgd">
<ellipse fill="#35b779" stroke="black" cx="359.42" cy="-378" rx="36.48" ry="18"/>
<text text-anchor="middle" x="359.42" y="-373.32" font-family="Times,serif" font-size="14.00">libgd</text>
</a>
</g>
</g>
<!-- libgd&#45;&gt;topologytoolkit -->
<g id="edge24" class="edge">
<title>libgd&#45;&gt;topologytoolkit</title>
<path fill="none" stroke="black" d="M383.45,-364.16C402.15,-354.17 428.52,-340.08 450.39,-328.39"/>
<polygon fill="black" stroke="black" points="451.92,-331.01 459.09,-323.21 448.62,-324.83 451.92,-331.01"/>
</g>
<!-- libgd&#45;&gt;octave -->
<g id="edge25" class="edge">
<title>libgd&#45;&gt;octave</title>
<path fill="none" stroke="black" d="M333.8,-364.97C310.27,-353.91 275.08,-337.38 248.29,-324.79"/>
<polygon fill="black" stroke="black" points="250.02,-321.27 239.48,-320.18 247.05,-327.6 250.02,-321.27"/>
</g>
<!-- mysql -->
<g id="node21" class="node">
<title>mysql</title>
<g id="a_node21"><a xlink:href="https://github.com/conda-forge/mysql-feedstock/pull/85" xlink:title="mysql ❎">
<ellipse fill="#31688e" stroke="black" cx="252.42" cy="-450" rx="56.47" ry="18"/>
<text text-anchor="middle" x="252.42" y="-445.32" font-family="Times,serif" font-size="14.00" fill="white">mysql ❎</text>
</a>
</g>
</g>
<!-- mysql&#45;&gt;qt&#45;main -->
<g id="edge26" class="edge">
<title>mysql&#45;&gt;qt&#45;main</title>
<path fill="none" stroke="black" d="M242.25,-432.05C237.4,-423.97 231.49,-414.12 226.09,-405.11"/>
<polygon fill="black" stroke="black" points="228.64,-403.56 220.49,-396.79 222.64,-407.16 228.64,-403.56"/>
</g>
<!-- pyicu -->
<g id="node23" class="node">
<title>pyicu</title>
<g id="a_node23"><a xlink:href="https://github.com/conda-forge/pyicu-feedstock" xlink:title="pyicu">
<ellipse fill="#35b779" stroke="black" cx="1416.42" cy="-522" rx="38.06" ry="18"/>
<text text-anchor="middle" x="1416.42" y="-517.33" font-family="Times,serif" font-size="14.00">pyicu</text>
</a>
</g>
</g>
<!-- uwsgi&#45;&gt;pyicu -->
<!-- tensorflow -->
<g id="node25" class="node">
<title>tensorflow</title>
<g id="a_node25"><a xlink:href="https://github.com/conda-forge/tensorflow-feedstock" xlink:title="tensorflow">
<ellipse fill="#35b779" stroke="black" cx="1416.42" cy="-450" rx="63.84" ry="18"/>
<text text-anchor="middle" x="1416.42" y="-445.32" font-family="Times,serif" font-size="14.00">tensorflow</text>
</a>
</g>
</g>
<!-- pyicu&#45;&gt;tensorflow -->
<!-- xerces&#45;c -->
<g id="node24" class="node">
<title>xerces&#45;c</title>
<g id="a_node24"><a xlink:href="https://github.com/conda-forge/xerces-c-feedstock" xlink:title="xerces c">
<ellipse fill="#35b779" stroke="black" cx="626.42" cy="-378" rx="52.26" ry="18"/>
<text text-anchor="middle" x="626.42" y="-373.32" font-family="Times,serif" font-size="14.00">xerces c</text>
</a>
</g>
</g>
<!-- xerces&#45;c&#45;&gt;gdal -->
<g id="edge29" class="edge">
<title>xerces&#45;c&#45;&gt;gdal</title>
<path fill="none" stroke="black" d="M626.67,-359.7C626.77,-352.24 626.9,-343.32 627.02,-334.97"/>
<polygon fill="black" stroke="black" points="630.53,-335.15 627.17,-325.1 623.53,-335.05 630.53,-335.15"/>
</g>
<!-- mdsplus -->
<g id="node26" class="node">
<title>mdsplus</title>
<g id="a_node26"><a xlink:href="https://github.com/conda-forge/mdsplus-feedstock" xlink:title="mdsplus">
<ellipse fill="#35b779" stroke="black" cx="1416.42" cy="-378" rx="53.31" ry="18"/>
<text text-anchor="middle" x="1416.42" y="-373.32" font-family="Times,serif" font-size="14.00">mdsplus</text>
</a>
</g>
</g>
<!-- tensorflow&#45;&gt;mdsplus -->
<!-- ticcutils -->
<g id="node27" class="node">
<title>ticcutils</title>
<g id="a_node27"><a xlink:href="https://github.com/conda-forge/ticcutils-feedstock" xlink:title="ticcutils">
<ellipse fill="#35b779" stroke="black" cx="1416.42" cy="-306" rx="51.21" ry="18"/>
<text text-anchor="middle" x="1416.42" y="-301.32" font-family="Times,serif" font-size="14.00">ticcutils</text>
</a>
</g>
</g>
<!-- mdsplus&#45;&gt;ticcutils -->
<!-- scilab -->
<g id="node28" class="node">
<title>scilab</title>
<g id="a_node28"><a xlink:href="https://github.com/conda-forge/scilab-feedstock" xlink:title="scilab">
<ellipse fill="#35b779" stroke="black" cx="1416.42" cy="-234" rx="40.16" ry="18"/>
<text text-anchor="middle" x="1416.42" y="-229.32" font-family="Times,serif" font-size="14.00">scilab</text>
</a>
</g>
</g>
<!-- ticcutils&#45;&gt;scilab -->
<!-- libical -->
<g id="node29" class="node">
<title>libical</title>
<g id="a_node29"><a xlink:href="https://github.com/conda-forge/libical-feedstock" xlink:title="libical">
<ellipse fill="#35b779" stroke="black" cx="1416.42" cy="-162" rx="41.21" ry="18"/>
<text text-anchor="middle" x="1416.42" y="-157.32" font-family="Times,serif" font-size="14.00">libical</text>
</a>
</g>
</g>
<!-- scilab&#45;&gt;libical -->
<!-- baumwelch -->
<g id="node30" class="node">
<title>baumwelch</title>
<g id="a_node30"><a xlink:href="https://github.com/conda-forge/baumwelch-feedstock" xlink:title="baumwelch">
<ellipse fill="#35b779" stroke="black" cx="1416.42" cy="-90" rx="68.04" ry="18"/>
<text text-anchor="middle" x="1416.42" y="-85.33" font-family="Times,serif" font-size="14.00">baumwelch</text>
</a>
</g>
</g>
<!-- libical&#45;&gt;baumwelch -->
<!-- libxmlsec1 -->
<g id="node32" class="node">
<title>libxmlsec1</title>
<g id="a_node32"><a xlink:href="https://github.com/conda-forge/libxmlsec1-feedstock" xlink:title="libxmlsec1">
<ellipse fill="#35b779" stroke="black" cx="1416.42" cy="-18" rx="64.89" ry="18"/>
<text text-anchor="middle" x="1416.42" y="-13.32" font-family="Times,serif" font-size="14.00">libxmlsec1</text>
</a>
</g>
</g>
<!-- baumwelch&#45;&gt;libxmlsec1 -->
<!-- libv8 -->
<g id="node31" class="node">
<title>libv8</title>
<g id="a_node31"><a xlink:href="https://github.com/conda-forge/libv8-feedstock" xlink:title="libv8">
<ellipse fill="#35b779" stroke="black" cx="1304.42" cy="-378" rx="35.95" ry="18"/>
<text text-anchor="middle" x="1304.42" y="-373.32" font-family="Times,serif" font-size="14.00">libv8</text>
</a>
</g>
</g>
<!-- libv8&#45;&gt;r&#45;v8 -->
<g id="edge37" class="edge">
<title>libv8&#45;&gt;r&#45;v8</title>
<path fill="none" stroke="black" d="M1304.42,-359.7C1304.42,-352.24 1304.42,-343.32 1304.42,-334.97"/>
<polygon fill="black" stroke="black" points="1307.92,-335.1 1304.42,-325.1 1300.92,-335.1 1307.92,-335.1"/>
</g>
<!-- libpsl -->
<g id="node33" class="node">
<title>libpsl</title>
<g id="a_node33"><a xlink:href="https://github.com/conda-forge/libpsl-feedstock/pull/10" xlink:title="libpsl ✓">
<ellipse fill="#31688e" stroke="black" cx="168.42" cy="-522" rx="46.47" ry="18"/>
<text text-anchor="middle" x="168.42" y="-517.33" font-family="Times,serif" font-size="14.00" fill="white">libpsl ✓</text>
</a>
</g>
</g>
<!-- libpsl&#45;&gt;qt&#45;main -->
<g id="edge39" class="edge">
<title>libpsl&#45;&gt;qt&#45;main</title>
<path fill="none" stroke="black" d="M171.07,-503.67C174.08,-485.54 179.61,-456.38 187.42,-432 190.21,-423.27 193.95,-414.02 197.59,-405.73"/>
<polygon fill="black" stroke="black" points="201.12,-407.41 202.08,-396.85 194.75,-404.51 201.12,-407.41"/>
</g>
<!-- spidermonkey -->
<g id="node34" class="node">
<title>spidermonkey</title>
<g id="a_node34"><a xlink:href="https://github.com/conda-forge/spidermonkey-feedstock" xlink:title="spidermonkey">
<ellipse fill="#35b779" stroke="black" cx="1574.42" cy="-414" rx="81.72" ry="18"/>
<text text-anchor="middle" x="1574.42" y="-409.32" font-family="Times,serif" font-size="14.00">spidermonkey</text>
</a>
</g>
</g>
<!-- couchdb -->
<g id="node35" class="node">
<title>couchdb</title>
<g id="a_node35"><a xlink:href="https://github.com/conda-forge/couchdb-feedstock" xlink:title="couchdb">
<ellipse fill="#fde725" stroke="black" cx="1574.42" cy="-342" rx="52.79" ry="18"/>
<text text-anchor="middle" x="1574.42" y="-337.32" font-family="Times,serif" font-size="14.00">couchdb</text>
</a>
</g>
</g>
<!-- spidermonkey&#45;&gt;couchdb -->
<g id="edge40" class="edge">
<title>spidermonkey&#45;&gt;couchdb</title>
<path fill="none" stroke="black" d="M1574.42,-395.7C1574.42,-388.24 1574.42,-379.32 1574.42,-370.97"/>
<polygon fill="black" stroke="black" points="1577.92,-371.1 1574.42,-361.1 1570.92,-371.1 1577.92,-371.1"/>
</g>
</g>
</svg>
