<?xml version="1.0" encoding="UTF-8" standalone="no"?>
<!DOCTYPE svg PUBLIC "-//W3C//DTD SVG 1.1//EN"
 "http://www.w3.org/Graphics/SVG/1.1/DTD/svg11.dtd">
<!-- Generated by graphviz version 7.1.0 (20230122.1345)
 -->
<!-- Pages: 1 -->
<svg width="2101pt" height="476pt"
 viewBox="0.00 0.00 2100.80 476.00" xmlns="http://www.w3.org/2000/svg" xmlns:xlink="http://www.w3.org/1999/xlink">
<g id="graph0" class="graph" transform="scale(1 1) rotate(0) translate(4 472)">
<polygon fill="white" stroke="none" points="-4,4 -4,-472 2096.8,-472 2096.8,4 -4,4"/>
<!-- boost&#45;cpp -->
<g id="node1" class="node">
<title>boost&#45;cpp</title>
<g id="a_node1"><a xlink:href="https://github.com/conda-forge/boost-cpp-feedstock" xlink:title="boost cpp">
<ellipse fill="#fde725" stroke="black" cx="445.76" cy="-378" rx="56" ry="18"/>
<text text-anchor="middle" x="445.76" y="-374.3" font-family="Times,serif" font-size="14.00">boost cpp</text>
</a>
</g>
</g>
<!-- gdal -->
<g id="node2" class="node">
<title>gdal</title>
<g id="a_node2"><a xlink:href="https://github.com/conda-forge/gdal-feedstock" xlink:title="gdal">
<ellipse fill="#fde725" stroke="black" cx="891.76" cy="-306" rx="30.59" ry="18"/>
<text text-anchor="middle" x="891.76" y="-302.3" font-family="Times,serif" font-size="14.00">gdal</text>
</a>
</g>
</g>
<!-- boost&#45;cpp&#45;&gt;gdal -->
<g id="edge1" class="edge">
<title>boost&#45;cpp&#45;&gt;gdal</title>
<path fill="none" stroke="black" d="M486.46,-365.35C494.47,-363.35 502.84,-361.44 510.76,-360 660.68,-332.64 704.23,-362.22 851.76,-324 853.75,-323.48 855.78,-322.88 857.8,-322.22"/>
<polygon fill="black" stroke="black" points="858.9,-325.55 867.06,-318.79 856.46,-318.99 858.9,-325.55"/>
</g>
<!-- paraview -->
<g id="node3" class="node">
<title>paraview</title>
<g id="a_node3"><a xlink:href="https://github.com/conda-forge/paraview-feedstock" xlink:title="paraview">
<ellipse fill="#fde725" stroke="black" cx="924.76" cy="-234" rx="53.5" ry="18"/>
<text text-anchor="middle" x="924.76" y="-230.3" font-family="Times,serif" font-size="14.00">paraview</text>
</a>
</g>
</g>
<!-- boost&#45;cpp&#45;&gt;paraview -->
<g id="edge2" class="edge">
<title>boost&#45;cpp&#45;&gt;paraview</title>
<path fill="none" stroke="black" d="M454.65,-359.93C466.49,-339.12 489.49,-304.68 519.76,-288 534.62,-279.81 753.82,-254.22 863.37,-241.84"/>
<polygon fill="black" stroke="black" points="863.53,-245.35 873.07,-240.75 862.74,-238.39 863.53,-245.35"/>
</g>
<!-- qgis -->
<g id="node4" class="node">
<title>qgis</title>
<g id="a_node4"><a xlink:href="https://github.com/conda-forge/qgis-feedstock" xlink:title="qgis">
<ellipse fill="#fde725" stroke="black" cx="1006.76" cy="-162" rx="30.59" ry="18"/>
<text text-anchor="middle" x="1006.76" y="-158.3" font-family="Times,serif" font-size="14.00">qgis</text>
</a>
</g>
</g>
<!-- boost&#45;cpp&#45;&gt;qgis -->
<g id="edge3" class="edge">
<title>boost&#45;cpp&#45;&gt;qgis</title>
<path fill="none" stroke="black" d="M398.64,-367.85C343.1,-354.99 262.31,-328.52 295.76,-288 381.52,-184.1 824.66,-166.55 964.46,-163.6"/>
<polygon fill="black" stroke="black" points="964.45,-167.1 974.38,-163.4 964.31,-160.1 964.45,-167.1"/>
</g>
<!-- texlive&#45;core -->
<g id="node5" class="node">
<title>texlive&#45;core</title>
<g id="a_node5"><a xlink:href="https://github.com/conda-forge/texlive-core-feedstock" xlink:title="texlive core">
<ellipse fill="#fde725" stroke="black" cx="369.76" cy="-306" rx="65" ry="18"/>
<text text-anchor="middle" x="369.76" y="-302.3" font-family="Times,serif" font-size="14.00">texlive core</text>
</a>
</g>
</g>
<!-- boost&#45;cpp&#45;&gt;texlive&#45;core -->
<g id="edge4" class="edge">
<title>boost&#45;cpp&#45;&gt;texlive&#45;core</title>
<path fill="none" stroke="black" d="M428.13,-360.76C418.58,-351.97 406.59,-340.93 395.97,-331.14"/>
<polygon fill="black" stroke="black" points="398.66,-328.86 388.93,-324.66 393.91,-334.01 398.66,-328.86"/>
</g>
<!-- mongodb -->
<g id="node6" class="node">
<title>mongodb</title>
<g id="a_node6"><a xlink:href="https://github.com/conda-forge/mongodb-feedstock" xlink:title="mongodb">
<ellipse fill="#fde725" stroke="black" cx="194.76" cy="-306" rx="54" ry="18"/>
<text text-anchor="middle" x="194.76" y="-302.3" font-family="Times,serif" font-size="14.00">mongodb</text>
</a>
</g>
</g>
<!-- boost&#45;cpp&#45;&gt;mongodb -->
<g id="edge5" class="edge">
<title>boost&#45;cpp&#45;&gt;mongodb</title>
<path fill="none" stroke="black" d="M404.31,-365.44C360.87,-353.33 292.56,-334.28 245.82,-321.24"/>
<polygon fill="black" stroke="black" points="247.05,-317.95 236.48,-318.64 245.17,-324.69 247.05,-317.95"/>
</g>
<!-- topologytoolkit -->
<g id="node7" class="node">
<title>topologytoolkit</title>
<g id="a_node7"><a xlink:href="https://github.com/conda-forge/topologytoolkit-feedstock" xlink:title="topologytoolkit">
<ellipse fill="#fde725" stroke="black" cx="609.76" cy="-306" rx="80.69" ry="18"/>
<text text-anchor="middle" x="609.76" y="-302.3" font-family="Times,serif" font-size="14.00">topologytoolkit</text>
</a>
</g>
</g>
<!-- boost&#45;cpp&#45;&gt;topologytoolkit -->
<g id="edge6" class="edge">
<title>boost&#45;cpp&#45;&gt;topologytoolkit</title>
<path fill="none" stroke="black" d="M478.55,-363C502.81,-352.65 536.19,-338.4 563.21,-326.87"/>
<polygon fill="black" stroke="black" points="564.39,-330.17 572.21,-323.03 561.64,-323.73 564.39,-330.17"/>
</g>
<!-- odil -->
<g id="node8" class="node">
<title>odil</title>
<g id="a_node8"><a xlink:href="https://github.com/conda-forge/odil-feedstock" xlink:title="odil">
<ellipse fill="#fde725" stroke="black" cx="112.76" cy="-234" rx="28" ry="18"/>
<text text-anchor="middle" x="112.76" y="-230.3" font-family="Times,serif" font-size="14.00">odil</text>
</a>
</g>
</g>
<!-- boost&#45;cpp&#45;&gt;odil -->
<g id="edge7" class="edge">
<title>boost&#45;cpp&#45;&gt;odil</title>
<path fill="none" stroke="black" d="M390.33,-374.95C310.29,-370.81 167.94,-358.66 131.76,-324 115.79,-308.71 111.6,-283.53 111.09,-263.86"/>
<polygon fill="black" stroke="black" points="114.59,-263.99 111.16,-253.96 107.59,-263.94 114.59,-263.99"/>
</g>
<!-- gdal&#45;&gt;qgis -->
<g id="edge8" class="edge">
<title>gdal&#45;&gt;qgis</title>
<path fill="none" stroke="black" d="M878.79,-289.29C864.93,-270.47 846.95,-238.66 862.76,-216 885.59,-183.26 931.03,-170.69 964.78,-165.89"/>
<polygon fill="black" stroke="black" points="965.18,-169.37 974.68,-164.68 964.33,-162.42 965.18,-169.37"/>
</g>
<!-- cairo -->
<g id="node9" class="node">
<title>cairo</title>
<g id="a_node9"><a xlink:href="https://github.com/conda-forge/cairo-feedstock" xlink:title="cairo">
<ellipse fill="#35b779" stroke="black" cx="617.76" cy="-450" rx="34" ry="18"/>
<text text-anchor="middle" x="617.76" y="-446.3" font-family="Times,serif" font-size="14.00">cairo</text>
</a>
</g>
</g>
<!-- cairo&#45;&gt;texlive&#45;core -->
<g id="edge9" class="edge">
<title>cairo&#45;&gt;texlive&#45;core</title>
<path fill="none" stroke="black" d="M584.45,-446.21C525.81,-440.57 407.74,-425.74 380.76,-396 366.2,-379.96 364.22,-355.07 365.44,-335.68"/>
<polygon fill="black" stroke="black" points="368.9,-336.25 366.39,-325.96 361.94,-335.57 368.9,-336.25"/>
</g>
<!-- cairo&#45;&gt;topologytoolkit -->
<g id="edge10" class="edge">
<title>cairo&#45;&gt;topologytoolkit</title>
<path fill="none" stroke="black" d="M616.78,-431.59C615.43,-407.61 612.98,-364.14 611.36,-335.42"/>
<polygon fill="black" stroke="black" points="614.86,-335.41 610.81,-325.62 607.88,-335.8 614.86,-335.41"/>
</g>
<!-- harfbuzz -->
<g id="node10" class="node">
<title>harfbuzz</title>
<g id="a_node10"><a xlink:href="https://github.com/conda-forge/harfbuzz-feedstock" xlink:title="harfbuzz">
<ellipse fill="#fde725" stroke="black" cx="718.76" cy="-378" rx="51.5" ry="18"/>
<text text-anchor="middle" x="718.76" y="-374.3" font-family="Times,serif" font-size="14.00">harfbuzz</text>
</a>
</g>
</g>
<!-- cairo&#45;&gt;harfbuzz -->
<g id="edge11" class="edge">
<title>cairo&#45;&gt;harfbuzz</title>
<path fill="none" stroke="black" d="M637.71,-435.17C651.84,-425.38 671.08,-412.04 687.27,-400.83"/>
<polygon fill="black" stroke="black" points="688.91,-403.94 695.14,-395.37 684.93,-398.19 688.91,-403.94"/>
</g>
<!-- octave -->
<g id="node11" class="node">
<title>octave</title>
<g id="a_node11"><a xlink:href="https://github.com/conda-forge/octave-feedstock" xlink:title="octave">
<ellipse fill="#fde725" stroke="black" cx="718.76" cy="-234" rx="41" ry="18"/>
<text text-anchor="middle" x="718.76" y="-230.3" font-family="Times,serif" font-size="14.00">octave</text>
</a>
</g>
</g>
<!-- cairo&#45;&gt;octave -->
<g id="edge12" class="edge">
<title>cairo&#45;&gt;octave</title>
<path fill="none" stroke="black" d="M583.36,-448.9C452.55,-447.47 0,-432.19 131.76,-288 167.47,-248.92 529.11,-238.39 666.34,-235.79"/>
<polygon fill="black" stroke="black" points="666.3,-239.29 676.24,-235.61 666.17,-232.29 666.3,-239.29"/>
</g>
<!-- r&#45;base -->
<g id="node12" class="node">
<title>r&#45;base</title>
<g id="a_node12"><a xlink:href="https://github.com/conda-forge/r-base-feedstock" xlink:title="r base">
<ellipse fill="#fde725" stroke="black" cx="1166.76" cy="-306" rx="39.79" ry="18"/>
<text text-anchor="middle" x="1166.76" y="-302.3" font-family="Times,serif" font-size="14.00">r base</text>
</a>
</g>
</g>
<!-- cairo&#45;&gt;r&#45;base -->
<g id="edge13" class="edge">
<title>cairo&#45;&gt;r&#45;base</title>
<path fill="none" stroke="black" d="M651.65,-447.39C741.75,-442.71 985.3,-427.44 1058.76,-396 1093.11,-381.3 1125.17,-352.13 1145.29,-331.19"/>
<polygon fill="black" stroke="black" points="1147.59,-333.86 1151.87,-324.17 1142.48,-329.08 1147.59,-333.86"/>
</g>
<!-- harfbuzz&#45;&gt;texlive&#45;core -->
<g id="edge14" class="edge">
<title>harfbuzz&#45;&gt;texlive&#45;core</title>
<path fill="none" stroke="black" d="M674.91,-368.21C613.78,-355.94 502.6,-333.64 432.64,-319.61"/>
<polygon fill="black" stroke="black" points="433.34,-316.18 422.85,-317.65 431.96,-323.05 433.34,-316.18"/>
</g>
<!-- harfbuzz&#45;&gt;topologytoolkit -->
<g id="edge15" class="edge">
<title>harfbuzz&#45;&gt;topologytoolkit</title>
<path fill="none" stroke="black" d="M694.84,-361.64C680.06,-352.15 660.86,-339.82 644.44,-329.27"/>
<polygon fill="black" stroke="black" points="646.72,-326.58 636.41,-324.12 642.94,-332.47 646.72,-326.58"/>
</g>
<!-- harfbuzz&#45;&gt;octave -->
<g id="edge16" class="edge">
<title>harfbuzz&#45;&gt;octave</title>
<path fill="none" stroke="black" d="M718.76,-359.59C718.76,-335.61 718.76,-292.14 718.76,-263.42"/>
<polygon fill="black" stroke="black" points="722.26,-263.62 718.76,-253.62 715.26,-263.62 722.26,-263.62"/>
</g>
<!-- harfbuzz&#45;&gt;r&#45;base -->
<g id="edge17" class="edge">
<title>harfbuzz&#45;&gt;r&#45;base</title>
<path fill="none" stroke="black" d="M765.48,-370.08C786.37,-366.99 811.29,-363.3 833.76,-360 943.08,-343.92 970.84,-342.6 1079.76,-324 1092.9,-321.76 1107.11,-319.08 1120.16,-316.53"/>
<polygon fill="black" stroke="black" points="1120.66,-320 1129.79,-314.63 1119.3,-313.13 1120.66,-320"/>
</g>
<!-- tectonic -->
<g id="node13" class="node">
<title>tectonic</title>
<g id="a_node13"><a xlink:href="https://github.com/conda-forge/tectonic-feedstock" xlink:title="tectonic">
<ellipse fill="#fde725" stroke="black" cx="794.76" cy="-306" rx="48.19" ry="18"/>
<text text-anchor="middle" x="794.76" y="-302.3" font-family="Times,serif" font-size="14.00">tectonic</text>
</a>
</g>
</g>
<!-- harfbuzz&#45;&gt;tectonic -->
<g id="edge18" class="edge">
<title>harfbuzz&#45;&gt;tectonic</title>
<path fill="none" stroke="black" d="M736.39,-360.76C746.07,-351.84 758.27,-340.61 769.01,-330.72"/>
<polygon fill="black" stroke="black" points="771.13,-333.52 776.11,-324.17 766.39,-328.37 771.13,-333.52"/>
</g>
<!-- qt&#45;main -->
<g id="node14" class="node">
<title>qt&#45;main</title>
<g id="a_node14"><a xlink:href="https://github.com/conda-forge/qt-main-feedstock" xlink:title="qt main">
<ellipse fill="#fde725" stroke="black" cx="1024.76" cy="-306" rx="46.29" ry="18"/>
<text text-anchor="middle" x="1024.76" y="-302.3" font-family="Times,serif" font-size="14.00">qt main</text>
</a>
</g>
</g>
<!-- harfbuzz&#45;&gt;qt&#45;main -->
<g id="edge19" class="edge">
<title>harfbuzz&#45;&gt;qt&#45;main</title>
<path fill="none" stroke="black" d="M760.98,-367.34C816.9,-354.55 915.35,-332.03 974.86,-318.41"/>
<polygon fill="black" stroke="black" points="975.42,-321.88 984.39,-316.23 973.86,-315.05 975.42,-321.88"/>
</g>
<!-- r&#45;stringi -->
<g id="node15" class="node">
<title>r&#45;stringi</title>
<g id="a_node15"><a xlink:href="https://github.com/conda-forge/r-stringi-feedstock" xlink:title="r stringi">
<ellipse fill="#fde725" stroke="black" cx="1083.76" cy="-234" rx="48.99" ry="18"/>
<text text-anchor="middle" x="1083.76" y="-230.3" font-family="Times,serif" font-size="14.00">r stringi</text>
</a>
</g>
</g>
<!-- r&#45;base&#45;&gt;r&#45;stringi -->
<g id="edge20" class="edge">
<title>r&#45;base&#45;&gt;r&#45;stringi</title>
<path fill="none" stroke="black" d="M1148.75,-289.81C1137.78,-280.56 1123.54,-268.55 1111.18,-258.13"/>
<polygon fill="black" stroke="black" points="1113.65,-255.64 1103.75,-251.86 1109.14,-260.99 1113.65,-255.64"/>
</g>
<!-- r&#45;v8 -->
<g id="node16" class="node">
<title>r&#45;v8</title>
<g id="a_node16"><a xlink:href="https://github.com/conda-forge/r-v8-feedstock" xlink:title="r v8">
<ellipse fill="#fde725" stroke="black" cx="1301.76" cy="-234" rx="29.5" ry="18"/>
<text text-anchor="middle" x="1301.76" y="-230.3" font-family="Times,serif" font-size="14.00">r v8</text>
</a>
</g>
</g>
<!-- r&#45;base&#45;&gt;r&#45;v8 -->
<g id="edge21" class="edge">
<title>r&#45;base&#45;&gt;r&#45;v8</title>
<path fill="none" stroke="black" d="M1192.15,-291.83C1214.24,-280.38 1246.35,-263.73 1270.1,-251.41"/>
<polygon fill="black" stroke="black" points="1271.43,-254.67 1278.7,-246.96 1268.21,-248.45 1271.43,-254.67"/>
</g>
<!-- qt&#45;main&#45;&gt;paraview -->
<g id="edge22" class="edge">
<title>qt&#45;main&#45;&gt;paraview</title>
<path fill="none" stroke="black" d="M1003.06,-289.81C989.36,-280.22 971.43,-267.67 956.19,-257"/>
<polygon fill="black" stroke="black" points="958.55,-254.38 948.35,-251.51 954.53,-260.11 958.55,-254.38"/>
</g>
<!-- qt&#45;main&#45;&gt;qgis -->
<g id="edge23" class="edge">
<title>qt&#45;main&#45;&gt;qgis</title>
<path fill="none" stroke="black" d="M1022.55,-287.59C1019.51,-263.61 1014,-220.14 1010.36,-191.42"/>
<polygon fill="black" stroke="black" points="1013.85,-191.09 1009.12,-181.61 1006.9,-191.97 1013.85,-191.09"/>
</g>
<!-- qt&#45;main&#45;&gt;octave -->
<g id="edge24" class="edge">
<title>qt&#45;main&#45;&gt;octave</title>
<path fill="none" stroke="black" d="M988.69,-294.38C980.83,-292.17 972.53,-289.94 964.76,-288 896.33,-270.95 816.38,-254.33 766.65,-244.38"/>
<polygon fill="black" stroke="black" points="767.58,-240.99 757.09,-242.47 766.21,-247.86 767.58,-240.99"/>
</g>
<!-- qtwebkit -->
<g id="node17" class="node">
<title>qtwebkit</title>
<g id="a_node17"><a xlink:href="https://github.com/conda-forge/qtwebkit-feedstock" xlink:title="qtwebkit">
<ellipse fill="#fde725" stroke="black" cx="1202.76" cy="-234" rx="52" ry="18"/>
<text text-anchor="middle" x="1202.76" y="-230.3" font-family="Times,serif" font-size="14.00">qtwebkit</text>
</a>
</g>
</g>
<!-- qt&#45;main&#45;&gt;qtwebkit -->
<g id="edge25" class="edge">
<title>qt&#45;main&#45;&gt;qtwebkit</title>
<path fill="none" stroke="black" d="M1056.58,-292.49C1085.15,-281.25 1127.35,-264.65 1159.08,-252.18"/>
<polygon fill="black" stroke="black" points="1159.96,-255.59 1167.99,-248.67 1157.4,-249.08 1159.96,-255.59"/>
</g>
<!-- qtwebkit&#45;&gt;qgis -->
<g id="edge43" class="edge">
<title>qtwebkit&#45;&gt;qgis</title>
<path fill="none" stroke="black" d="M1167.72,-220.49C1132.49,-207.91 1078.45,-188.6 1042.85,-175.89"/>
<polygon fill="black" stroke="black" points="1044.46,-172.75 1033.87,-172.68 1042.11,-179.34 1044.46,-172.75"/>
</g>
<!-- kaldi -->
<g id="node18" class="node">
<title>kaldi</title>
<g id="a_node18"><a xlink:href="https://github.com/conda-forge/kaldi-feedstock" xlink:title="kaldi">
<ellipse fill="#35b779" stroke="black" cx="1868.76" cy="-378" rx="33.29" ry="18"/>
<text text-anchor="middle" x="1868.76" y="-374.3" font-family="Times,serif" font-size="14.00">kaldi</text>
</a>
</g>
</g>
<!-- nodejs -->
<g id="node19" class="node">
<title>nodejs</title>
<g id="a_node19"><a xlink:href="https://github.com/conda-forge/nodejs-feedstock" xlink:title="nodejs">
<ellipse fill="#35b779" stroke="black" cx="1868.76" cy="-306" rx="41" ry="18"/>
<text text-anchor="middle" x="1868.76" y="-302.3" font-family="Times,serif" font-size="14.00">nodejs</text>
</a>
</g>
</g>
<!-- kaldi&#45;&gt;nodejs -->
<!-- pyicu -->
<g id="node29" class="node">
<title>pyicu</title>
<g id="a_node29"><a xlink:href="https://github.com/conda-forge/pyicu-feedstock" xlink:title="pyicu">
<ellipse fill="#35b779" stroke="black" cx="1868.76" cy="-234" rx="36" ry="18"/>
<text text-anchor="middle" x="1868.76" y="-230.3" font-family="Times,serif" font-size="14.00">pyicu</text>
</a>
</g>
</g>
<!-- nodejs&#45;&gt;pyicu -->
<!-- libgd -->
<g id="node20" class="node">
<title>libgd</title>
<g id="a_node20"><a xlink:href="https://github.com/conda-forge/libgd-feedstock" xlink:title="libgd">
<ellipse fill="#35b779" stroke="black" cx="554.76" cy="-378" rx="34.5" ry="18"/>
<text text-anchor="middle" x="554.76" y="-374.3" font-family="Times,serif" font-size="14.00">libgd</text>
</a>
</g>
</g>
<!-- libgd&#45;&gt;topologytoolkit -->
<g id="edge27" class="edge">
<title>libgd&#45;&gt;topologytoolkit</title>
<path fill="none" stroke="black" d="M567.24,-361.12C573.8,-352.77 582.01,-342.32 589.45,-332.84"/>
<polygon fill="black" stroke="black" points="592.2,-335.01 595.63,-324.99 586.69,-330.69 592.2,-335.01"/>
</g>
<!-- libgd&#45;&gt;octave -->
<g id="edge28" class="edge">
<title>libgd&#45;&gt;octave</title>
<path fill="none" stroke="black" d="M540.02,-361.53C523.89,-342.66 502.46,-310.51 519.76,-288 537.77,-264.56 615.55,-249.29 668.36,-241.41"/>
<polygon fill="black" stroke="black" points="668.66,-244.91 678.06,-240.01 667.66,-237.98 668.66,-244.91"/>
</g>
<!-- libxml2 -->
<g id="node21" class="node">
<title>libxml2</title>
<g id="a_node21"><a xlink:href="https://github.com/conda-forge/libxml2-feedstock" xlink:title="libxml2">
<ellipse fill="#35b779" stroke="black" cx="1296.76" cy="-378" rx="45.5" ry="18"/>
<text text-anchor="middle" x="1296.76" y="-374.3" font-family="Times,serif" font-size="14.00">libxml2</text>
</a>
</g>
</g>
<!-- libxml2&#45;&gt;gdal -->
<g id="edge29" class="edge">
<title>libxml2&#45;&gt;gdal</title>
<path fill="none" stroke="black" d="M1252.37,-373.56C1183.8,-367.55 1048.36,-352.94 936.76,-324 933.58,-323.17 930.31,-322.2 927.05,-321.14"/>
<polygon fill="black" stroke="black" points="928.23,-317.85 917.63,-317.83 925.9,-324.45 928.23,-317.85"/>
</g>
<!-- libxml2&#45;&gt;paraview -->
<g id="edge30" class="edge">
<title>libxml2&#45;&gt;paraview</title>
<path fill="none" stroke="black" d="M1255.11,-370.41C1217.35,-363.14 1161.14,-349.02 1117.76,-324 1097.61,-312.38 1099.67,-300.04 1079.76,-288 1048.87,-269.32 1010.52,-256.14 979.69,-247.59"/>
<polygon fill="black" stroke="black" points="980.72,-244.24 970.16,-245.04 978.91,-251.01 980.72,-244.24"/>
</g>
<!-- libxml2&#45;&gt;qgis -->
<g id="edge31" class="edge">
<title>libxml2&#45;&gt;qgis</title>
<path fill="none" stroke="black" d="M1314.46,-361.22C1323.94,-351.54 1334.69,-338.29 1339.76,-324 1355.8,-278.76 1370.92,-252.51 1339.76,-216 1302.85,-172.75 1130.24,-164.62 1049.11,-163.21"/>
<polygon fill="black" stroke="black" points="1049.16,-159.72 1039.11,-163.07 1049.06,-166.71 1049.16,-159.72"/>
</g>
<!-- libxml2&#45;&gt;topologytoolkit -->
<g id="edge32" class="edge">
<title>libxml2&#45;&gt;topologytoolkit</title>
<path fill="none" stroke="black" d="M1252.5,-373.37C1157.9,-365.49 929.05,-345.76 737.76,-324 721.65,-322.17 704.43,-320.01 688.01,-317.87"/>
<polygon fill="black" stroke="black" points="688.67,-314.42 678.3,-316.58 687.75,-321.36 688.67,-314.42"/>
</g>
<!-- libxml2&#45;&gt;octave -->
<g id="edge33" class="edge">
<title>libxml2&#45;&gt;octave</title>
<path fill="none" stroke="black" d="M1250.85,-377.89C1185.13,-377.38 1062.02,-369.66 969.76,-324 948.91,-313.68 952.16,-299.18 931.76,-288 880.72,-260.04 814.78,-246.58 769.88,-240.27"/>
<polygon fill="black" stroke="black" points="770.53,-236.82 760.16,-238.98 769.61,-243.76 770.53,-236.82"/>
</g>
<!-- libxml2&#45;&gt;r&#45;base -->
<g id="edge34" class="edge">
<title>libxml2&#45;&gt;r&#45;base</title>
<path fill="none" stroke="black" d="M1270.45,-362.83C1250.69,-352.19 1223.42,-337.51 1201.8,-325.87"/>
<polygon fill="black" stroke="black" points="1203.5,-322.81 1193.04,-321.15 1200.18,-328.97 1203.5,-322.81"/>
</g>
<!-- libxml2&#45;&gt;qt&#45;main -->
<g id="edge35" class="edge">
<title>libxml2&#45;&gt;qt&#45;main</title>
<path fill="none" stroke="black" d="M1258.75,-367.88C1216.26,-357.59 1145.43,-340.17 1084.76,-324 1080.7,-322.92 1076.5,-321.77 1072.28,-320.61"/>
<polygon fill="black" stroke="black" points="1073.23,-317.24 1062.65,-317.93 1071.35,-323.98 1073.23,-317.24"/>
</g>
<!-- libxml2&#45;&gt;qtwebkit -->
<g id="edge37" class="edge">
<title>libxml2&#45;&gt;qtwebkit</title>
<path fill="none" stroke="black" d="M1282.49,-360.82C1273.76,-350.59 1262.6,-336.9 1253.76,-324 1240.1,-304.08 1226.6,-280.29 1216.92,-262.32"/>
<polygon fill="black" stroke="black" points="1220.05,-260.75 1212.27,-253.56 1213.87,-264.03 1220.05,-260.75"/>
</g>
<!-- uwsgi -->
<g id="node22" class="node">
<title>uwsgi</title>
<g id="a_node22"><a xlink:href="https://github.com/conda-forge/uwsgi-feedstock" xlink:title="uwsgi">
<ellipse fill="#fde725" stroke="black" cx="1463.76" cy="-306" rx="38.5" ry="18"/>
<text text-anchor="middle" x="1463.76" y="-302.3" font-family="Times,serif" font-size="14.00">uwsgi</text>
</a>
</g>
</g>
<!-- libxml2&#45;&gt;uwsgi -->
<g id="edge36" class="edge">
<title>libxml2&#45;&gt;uwsgi</title>
<path fill="none" stroke="black" d="M1327,-364.32C1354.54,-352.78 1395.35,-335.67 1425.22,-323.15"/>
<polygon fill="black" stroke="black" points="1426.42,-326.45 1434.29,-319.35 1423.71,-319.99 1426.42,-326.45"/>
</g>
<!-- mdsplus -->
<g id="node23" class="node">
<title>mdsplus</title>
<g id="a_node23"><a xlink:href="https://github.com/conda-forge/mdsplus-feedstock" xlink:title="mdsplus">
<ellipse fill="#fde725" stroke="black" cx="1746.76" cy="-234" rx="50.09" ry="18"/>
<text text-anchor="middle" x="1746.76" y="-230.3" font-family="Times,serif" font-size="14.00">mdsplus</text>
</a>
</g>
</g>
<!-- libxml2&#45;&gt;mdsplus -->
<g id="edge38" class="edge">
<title>libxml2&#45;&gt;mdsplus</title>
<path fill="none" stroke="black" d="M1342.74,-377.82C1442.11,-378.59 1672.37,-374.72 1727.76,-324 1744.16,-308.98 1748.27,-283.56 1748.65,-263.73"/>
<polygon fill="black" stroke="black" points="1752.15,-263.7 1748.5,-253.76 1745.15,-263.81 1752.15,-263.7"/>
</g>
<!-- ticcutils -->
<g id="node24" class="node">
<title>ticcutils</title>
<g id="a_node24"><a xlink:href="https://github.com/conda-forge/ticcutils-feedstock" xlink:title="ticcutils">
<ellipse fill="#fde725" stroke="black" cx="1396.76" cy="-162" rx="48.19" ry="18"/>
<text text-anchor="middle" x="1396.76" y="-158.3" font-family="Times,serif" font-size="14.00">ticcutils</text>
</a>
</g>
</g>
<!-- libxml2&#45;&gt;ticcutils -->
<g id="edge39" class="edge">
<title>libxml2&#45;&gt;ticcutils</title>
<path fill="none" stroke="black" d="M1326.24,-363.83C1342.61,-354.96 1361.83,-341.64 1372.76,-324 1397.95,-283.35 1400.33,-226.1 1399.04,-191.95"/>
<polygon fill="black" stroke="black" points="1402.54,-191.8 1398.52,-182 1395.55,-192.17 1402.54,-191.8"/>
</g>
<!-- scilab -->
<g id="node25" class="node">
<title>scilab</title>
<g id="a_node25"><a xlink:href="https://github.com/conda-forge/scilab-feedstock" xlink:title="scilab">
<ellipse fill="#fde725" stroke="black" cx="1502.76" cy="-90" rx="37.89" ry="18"/>
<text text-anchor="middle" x="1502.76" y="-86.3" font-family="Times,serif" font-size="14.00">scilab</text>
</a>
</g>
</g>
<!-- libxml2&#45;&gt;scilab -->
<g id="edge40" class="edge">
<title>libxml2&#45;&gt;scilab</title>
<path fill="none" stroke="black" d="M1340.51,-372.51C1397.1,-365.7 1490.89,-350.63 1511.76,-324 1558.81,-263.94 1531.71,-166.04 1514.13,-118.56"/>
<polygon fill="black" stroke="black" points="1517.43,-117.38 1510.57,-109.3 1510.9,-119.89 1517.43,-117.38"/>
</g>
<!-- libical -->
<g id="node26" class="node">
<title>libical</title>
<g id="a_node26"><a xlink:href="https://github.com/conda-forge/libical-feedstock" xlink:title="libical">
<ellipse fill="#fde725" stroke="black" cx="1568.76" cy="-18" rx="38.5" ry="18"/>
<text text-anchor="middle" x="1568.76" y="-14.3" font-family="Times,serif" font-size="14.00">libical</text>
</a>
</g>
</g>
<!-- libxml2&#45;&gt;libical -->
<g id="edge41" class="edge">
<title>libxml2&#45;&gt;libical</title>
<path fill="none" stroke="black" d="M1340.37,-372.25C1400.86,-364.86 1506.05,-348.8 1534.76,-324 1566.8,-296.32 1568.76,-277.34 1568.76,-235 1568.76,-235 1568.76,-235 1568.76,-161 1568.76,-121.74 1568.76,-76.38 1568.76,-47.69"/>
<polygon fill="black" stroke="black" points="1572.26,-48 1568.76,-38 1565.26,-48 1572.26,-48"/>
</g>
<!-- libxmlsec1 -->
<g id="node27" class="node">
<title>libxmlsec1</title>
<g id="a_node27"><a xlink:href="https://github.com/conda-forge/libxmlsec1-feedstock" xlink:title="libxmlsec1">
<ellipse fill="#fde725" stroke="black" cx="1657.76" cy="-306" rx="60.5" ry="18"/>
<text text-anchor="middle" x="1657.76" y="-302.3" font-family="Times,serif" font-size="14.00">libxmlsec1</text>
</a>
</g>
</g>
<!-- libxml2&#45;&gt;libxmlsec1 -->
<g id="edge42" class="edge">
<title>libxml2&#45;&gt;libxmlsec1</title>
<path fill="none" stroke="black" d="M1338.06,-369.88C1393.75,-360.15 1495.96,-341.87 1582.76,-324 1588.42,-322.84 1594.3,-321.58 1600.18,-320.29"/>
<polygon fill="black" stroke="black" points="1600.93,-323.71 1609.93,-318.13 1599.41,-316.88 1600.93,-323.71"/>
</g>
<!-- mysql -->
<g id="node28" class="node">
<title>mysql</title>
<g id="a_node28"><a xlink:href="https://github.com/conda-forge/mysql-feedstock" xlink:title="mysql">
<ellipse fill="#35b779" stroke="black" cx="1010.76" cy="-378" rx="38.5" ry="18"/>
<text text-anchor="middle" x="1010.76" y="-374.3" font-family="Times,serif" font-size="14.00">mysql</text>
</a>
</g>
</g>
<!-- mysql&#45;&gt;qt&#45;main -->
<g id="edge44" class="edge">
<title>mysql&#45;&gt;qt&#45;main</title>
<path fill="none" stroke="black" d="M1014.22,-359.7C1015.69,-352.32 1017.45,-343.52 1019.11,-335.25"/>
<polygon fill="black" stroke="black" points="1022.51,-336.08 1021.04,-325.59 1015.65,-334.71 1022.51,-336.08"/>
</g>
<!-- tensorflow -->
<g id="node31" class="node">
<title>tensorflow</title>
<g id="a_node31"><a xlink:href="https://github.com/conda-forge/tensorflow-feedstock" xlink:title="tensorflow">
<ellipse fill="#35b779" stroke="black" cx="1868.76" cy="-162" rx="60" ry="18"/>
<text text-anchor="middle" x="1868.76" y="-158.3" font-family="Times,serif" font-size="14.00">tensorflow</text>
</a>
</g>
</g>
<!-- pyicu&#45;&gt;tensorflow -->
<!-- xerces&#45;c -->
<g id="node30" class="node">
<title>xerces&#45;c</title>
<g id="a_node30"><a xlink:href="https://github.com/conda-forge/xerces-c-feedstock" xlink:title="xerces c">
<ellipse fill="#35b779" stroke="black" cx="891.76" cy="-378" rx="48.99" ry="18"/>
<text text-anchor="middle" x="891.76" y="-374.3" font-family="Times,serif" font-size="14.00">xerces c</text>
</a>
</g>
</g>
<!-- xerces&#45;c&#45;&gt;gdal -->
<g id="edge46" class="edge">
<title>xerces&#45;c&#45;&gt;gdal</title>
<path fill="none" stroke="black" d="M891.76,-359.7C891.76,-352.41 891.76,-343.73 891.76,-335.54"/>
<polygon fill="black" stroke="black" points="895.26,-335.62 891.76,-325.62 888.26,-335.62 895.26,-335.62"/>
</g>
<!-- baumwelch -->
<g id="node32" class="node">
<title>baumwelch</title>
<g id="a_node32"><a xlink:href="https://github.com/conda-forge/baumwelch-feedstock" xlink:title="baumwelch">
<ellipse fill="#35b779" stroke="black" cx="1868.76" cy="-90" rx="63.89" ry="18"/>
<text text-anchor="middle" x="1868.76" y="-86.3" font-family="Times,serif" font-size="14.00">baumwelch</text>
</a>
</g>
</g>
<!-- tensorflow&#45;&gt;baumwelch -->
<!-- libv8 -->
<g id="node33" class="node">
<title>libv8</title>
<g id="a_node33"><a xlink:href="https://github.com/conda-forge/libv8-feedstock" xlink:title="libv8">
<ellipse fill="#35b779" stroke="black" cx="1296.76" cy="-306" rx="34" ry="18"/>
<text text-anchor="middle" x="1296.76" y="-302.3" font-family="Times,serif" font-size="14.00">libv8</text>
</a>
</g>
</g>
<!-- libv8&#45;&gt;r&#45;v8 -->
<g id="edge49" class="edge">
<title>libv8&#45;&gt;r&#45;v8</title>
<path fill="none" stroke="black" d="M1297.99,-287.7C1298.51,-280.41 1299.13,-271.73 1299.72,-263.54"/>
<polygon fill="black" stroke="black" points="1303.21,-263.84 1300.43,-253.61 1296.23,-263.34 1303.21,-263.84"/>
</g>
<!-- libpsl -->
<g id="node34" class="node">
<title>libpsl</title>
<g id="a_node34"><a xlink:href="https://github.com/conda-forge/libpsl-feedstock" xlink:title="libpsl">
<ellipse fill="#35b779" stroke="black" cx="1115.76" cy="-450" rx="36.5" ry="18"/>
<text text-anchor="middle" x="1115.76" y="-446.3" font-family="Times,serif" font-size="14.00">libpsl</text>
</a>
</g>
</g>
<!-- libpsl&#45;&gt;qt&#45;main -->
<g id="edge50" class="edge">
<title>libpsl&#45;&gt;qt&#45;main</title>
<path fill="none" stroke="black" d="M1105.26,-432.59C1093.82,-414.73 1075,-385.33 1058.76,-360 1053.16,-351.27 1047.04,-341.73 1041.56,-333.18"/>
<polygon fill="black" stroke="black" points="1044.64,-331.51 1036.3,-324.98 1038.75,-335.29 1044.64,-331.51"/>
</g>
<!-- spidermonkey -->
<g id="node35" class="node">
<title>spidermonkey</title>
<g id="a_node35"><a xlink:href="https://github.com/conda-forge/spidermonkey-feedstock" xlink:title="spidermonkey">
<ellipse fill="#35b779" stroke="black" cx="2016.76" cy="-270" rx="76.09" ry="18"/>
<text text-anchor="middle" x="2016.76" y="-266.3" font-family="Times,serif" font-size="14.00">spidermonkey</text>
</a>
</g>
</g>
<!-- couchdb -->
<g id="node36" class="node">
<title>couchdb</title>
<g id="a_node36"><a xlink:href="https://github.com/conda-forge/couchdb-feedstock" xlink:title="couchdb">
<ellipse fill="#fde725" stroke="black" cx="2016.76" cy="-198" rx="49.5" ry="18"/>
<text text-anchor="middle" x="2016.76" y="-194.3" font-family="Times,serif" font-size="14.00">couchdb</text>
</a>
</g>
</g>
<!-- spidermonkey&#45;&gt;couchdb -->
<g id="edge51" class="edge">
<title>spidermonkey&#45;&gt;couchdb</title>
<path fill="none" stroke="black" d="M2016.76,-251.7C2016.76,-244.41 2016.76,-235.73 2016.76,-227.54"/>
<polygon fill="black" stroke="black" points="2020.26,-227.62 2016.76,-217.62 2013.26,-227.62 2020.26,-227.62"/>
</g>
</g>
</svg>
