<?xml version="1.0" encoding="UTF-8" standalone="no"?>
<!DOCTYPE svg PUBLIC "-//W3C//DTD SVG 1.1//EN"
 "http://www.w3.org/Graphics/SVG/1.1/DTD/svg11.dtd">
<!-- Generated by graphviz version 7.1.0 (20230122.1345)
 -->
<!-- Pages: 1 -->
<svg width="1017pt" height="664pt"
 viewBox="0.00 0.00 1016.50 664.00" xmlns="http://www.w3.org/2000/svg" xmlns:xlink="http://www.w3.org/1999/xlink">
<g id="graph0" class="graph" transform="scale(1 1) rotate(0) translate(4 660)">
<polygon fill="white" stroke="none" points="-4,4 -4,-660 1012.5,-660 1012.5,4 -4,4"/>
<!-- boost&#45;cpp -->
<g id="node1" class="node">
<title>boost&#45;cpp</title>
<g id="a_node1"><a xlink:href="https://github.com/conda-forge/boost-cpp-feedstock" xlink:title="boost cpp">
<ellipse fill="#fde725" stroke="black" cx="256" cy="-530" rx="56" ry="18"/>
<text text-anchor="middle" x="256" y="-526.3" font-family="Times,serif" font-size="14.00">boost cpp</text>
</a>
</g>
</g>
<!-- gdal -->
<g id="node2" class="node">
<title>gdal</title>
<g id="a_node2"><a xlink:href="https://github.com/conda-forge/gdal-feedstock" xlink:title="gdal">
<ellipse fill="#fde725" stroke="black" cx="315" cy="-458" rx="30.59" ry="18"/>
<text text-anchor="middle" x="315" y="-454.3" font-family="Times,serif" font-size="14.00">gdal</text>
</a>
</g>
</g>
<!-- boost&#45;cpp&#45;&gt;gdal -->
<g id="edge1" class="edge">
<title>boost&#45;cpp&#45;&gt;gdal</title>
<path fill="none" stroke="black" d="M269.98,-512.41C277.32,-503.71 286.44,-492.89 294.55,-483.26"/>
<polygon fill="black" stroke="black" points="297.18,-485.57 300.95,-475.67 291.83,-481.06 297.18,-485.57"/>
</g>
<!-- paraview -->
<g id="node3" class="node">
<title>paraview</title>
<g id="a_node3"><a xlink:href="https://github.com/conda-forge/paraview-feedstock" xlink:title="paraview">
<ellipse fill="#fde725" stroke="black" cx="456" cy="-458" rx="53.5" ry="18"/>
<text text-anchor="middle" x="456" y="-454.3" font-family="Times,serif" font-size="14.00">paraview</text>
</a>
</g>
</g>
<!-- boost&#45;cpp&#45;&gt;paraview -->
<g id="edge2" class="edge">
<title>boost&#45;cpp&#45;&gt;paraview</title>
<path fill="none" stroke="black" d="M292.68,-516.16C325.49,-504.68 373.74,-487.79 409.29,-475.35"/>
<polygon fill="black" stroke="black" points="410.18,-478.75 418.46,-472.14 407.86,-472.14 410.18,-478.75"/>
</g>
<!-- qgis -->
<g id="node4" class="node">
<title>qgis</title>
<g id="a_node4"><a xlink:href="https://github.com/conda-forge/qgis-feedstock" xlink:title="qgis">
<ellipse fill="#fde725" stroke="black" cx="477" cy="-386" rx="30.59" ry="18"/>
<text text-anchor="middle" x="477" y="-382.3" font-family="Times,serif" font-size="14.00">qgis</text>
</a>
</g>
</g>
<!-- boost&#45;cpp&#45;&gt;qgis -->
<g id="edge3" class="edge">
<title>boost&#45;cpp&#45;&gt;qgis</title>
<path fill="none" stroke="black" d="M287.52,-514.68C307.59,-504.96 333.72,-491.15 355,-476 374.22,-462.32 375.32,-454.4 394,-440 410.48,-427.29 430.06,-414.68 446.06,-404.96"/>
<polygon fill="black" stroke="black" points="447.42,-408.22 454.2,-400.07 443.82,-402.22 447.42,-408.22"/>
</g>
<!-- texlive&#45;core -->
<g id="node5" class="node">
<title>texlive&#45;core</title>
<g id="a_node5"><a xlink:href="https://github.com/conda-forge/texlive-core-feedstock" xlink:title="texlive core">
<ellipse fill="#fde725" stroke="black" cx="65" cy="-386" rx="65" ry="18"/>
<text text-anchor="middle" x="65" y="-382.3" font-family="Times,serif" font-size="14.00">texlive core</text>
</a>
</g>
</g>
<!-- boost&#45;cpp&#45;&gt;texlive&#45;core -->
<g id="edge4" class="edge">
<title>boost&#45;cpp&#45;&gt;texlive&#45;core</title>
<path fill="none" stroke="black" d="M219.39,-516.04C196.45,-506.9 166.98,-493.23 144,-476 120.24,-458.19 98.26,-432.32 83.55,-413.06"/>
<polygon fill="black" stroke="black" points="86.43,-411.07 77.65,-405.15 80.82,-415.26 86.43,-411.07"/>
</g>
<!-- mongodb -->
<g id="node6" class="node">
<title>mongodb</title>
<g id="a_node6"><a xlink:href="https://github.com/conda-forge/mongodb-feedstock" xlink:title="mongodb">
<ellipse fill="#fde725" stroke="black" cx="136" cy="-314" rx="54" ry="18"/>
<text text-anchor="middle" x="136" y="-310.3" font-family="Times,serif" font-size="14.00">mongodb</text>
</a>
</g>
</g>
<!-- boost&#45;cpp&#45;&gt;mongodb -->
<g id="edge5" class="edge">
<title>boost&#45;cpp&#45;&gt;mongodb</title>
<path fill="none" stroke="black" d="M236.86,-512.8C226.15,-502.98 213.15,-489.73 204,-476 175.4,-433.08 154.81,-376.19 144.19,-342.79"/>
<polygon fill="black" stroke="black" points="147.6,-341.98 141.3,-333.47 140.92,-344.05 147.6,-341.98"/>
</g>
<!-- topologytoolkit -->
<g id="node7" class="node">
<title>topologytoolkit</title>
<g id="a_node7"><a xlink:href="https://github.com/conda-forge/topologytoolkit-feedstock" xlink:title="topologytoolkit">
<ellipse fill="#fde725" stroke="black" cx="147" cy="-242" rx="80.69" ry="18"/>
<text text-anchor="middle" x="147" y="-238.3" font-family="Times,serif" font-size="14.00">topologytoolkit</text>
</a>
</g>
</g>
<!-- boost&#45;cpp&#45;&gt;topologytoolkit -->
<g id="edge6" class="edge">
<title>boost&#45;cpp&#45;&gt;topologytoolkit</title>
<path fill="none" stroke="black" d="M251.36,-511.84C248.58,-501.48 245.02,-488 242,-476 221.94,-396.23 238.81,-367.98 199,-296 193.24,-285.59 184.89,-275.81 176.55,-267.54"/>
<polygon fill="black" stroke="black" points="179.1,-265.14 169.41,-260.85 174.31,-270.25 179.1,-265.14"/>
</g>
<!-- odil -->
<g id="node8" class="node">
<title>odil</title>
<g id="a_node8"><a xlink:href="https://github.com/conda-forge/odil-feedstock" xlink:title="odil">
<ellipse fill="#fde725" stroke="black" cx="256" cy="-170" rx="28" ry="18"/>
<text text-anchor="middle" x="256" y="-166.3" font-family="Times,serif" font-size="14.00">odil</text>
</a>
</g>
</g>
<!-- boost&#45;cpp&#45;&gt;odil -->
<g id="edge7" class="edge">
<title>boost&#45;cpp&#45;&gt;odil</title>
<path fill="none" stroke="black" d="M256,-511.51C256,-484.71 256,-431.87 256,-387 256,-387 256,-387 256,-313 256,-273.74 256,-228.38 256,-199.69"/>
<polygon fill="black" stroke="black" points="259.5,-200 256,-190 252.5,-200 259.5,-200"/>
</g>
<!-- gdal&#45;&gt;qgis -->
<g id="edge8" class="edge">
<title>gdal&#45;&gt;qgis</title>
<path fill="none" stroke="black" d="M339.25,-446.52C366.65,-434.68 411.46,-415.32 442.49,-401.91"/>
<polygon fill="black" stroke="black" points="443.67,-405.22 451.46,-398.04 440.89,-398.79 443.67,-405.22"/>
</g>
<!-- nodejs -->
<g id="node9" class="node">
<title>nodejs</title>
<g id="a_node9"><a xlink:href="https://github.com/conda-forge/nodejs-feedstock/pull/306" xlink:title="nodejs ✓">
<ellipse fill="#31688e" stroke="black" cx="751" cy="-638" rx="48.19" ry="18"/>
<text text-anchor="middle" x="751" y="-634.3" font-family="Times,serif" font-size="14.00" fill="white">nodejs ✓</text>
</a>
</g>
</g>
<!-- r&#45;stringi -->
<g id="node10" class="node">
<title>r&#45;stringi</title>
<g id="a_node10"><a xlink:href="https://github.com/conda-forge/r-stringi-feedstock" xlink:title="r stringi">
<ellipse fill="#ff8c00" stroke="black" cx="751" cy="-566" rx="48.99" ry="18"/>
<text text-anchor="middle" x="751" y="-562.3" font-family="Times,serif" font-size="14.00">r stringi</text>
</a>
</g>
</g>
<!-- nodejs&#45;&gt;r&#45;stringi -->
<!-- tectonic -->
<g id="node12" class="node">
<title>tectonic</title>
<g id="a_node12"><a xlink:href="https://github.com/conda-forge/tectonic-feedstock/pull/60" xlink:title="tectonic ❎">
<ellipse fill="#31688e" stroke="black" cx="751" cy="-494" rx="61.99" ry="18"/>
<text text-anchor="middle" x="751" y="-490.3" font-family="Times,serif" font-size="14.00" fill="white">tectonic ❎</text>
</a>
</g>
</g>
<!-- r&#45;stringi&#45;&gt;tectonic -->
<!-- octave -->
<g id="node11" class="node">
<title>octave</title>
<g id="a_node11"><a xlink:href="https://github.com/conda-forge/octave-feedstock" xlink:title="octave">
<ellipse fill="#fde725" stroke="black" cx="525" cy="-530" rx="41" ry="18"/>
<text text-anchor="middle" x="525" y="-526.3" font-family="Times,serif" font-size="14.00">octave</text>
</a>
</g>
</g>
<!-- pyicu -->
<g id="node13" class="node">
<title>pyicu</title>
<g id="a_node13"><a xlink:href="https://github.com/conda-forge/pyicu-feedstock/pull/44" xlink:title="pyicu ✓">
<ellipse fill="#31688e" stroke="black" cx="751" cy="-422" rx="43" ry="18"/>
<text text-anchor="middle" x="751" y="-418.3" font-family="Times,serif" font-size="14.00" fill="white">pyicu ✓</text>
</a>
</g>
</g>
<!-- tectonic&#45;&gt;pyicu -->
<!-- mdsplus -->
<g id="node15" class="node">
<title>mdsplus</title>
<g id="a_node15"><a xlink:href="https://github.com/conda-forge/mdsplus-feedstock/pull/30" xlink:title="mdsplus ❎">
<ellipse fill="#31688e" stroke="black" cx="751" cy="-350" rx="63.89" ry="18"/>
<text text-anchor="middle" x="751" y="-346.3" font-family="Times,serif" font-size="14.00" fill="white">mdsplus ❎</text>
</a>
</g>
</g>
<!-- pyicu&#45;&gt;mdsplus -->
<!-- qtwebkit -->
<g id="node14" class="node">
<title>qtwebkit</title>
<g id="a_node14"><a xlink:href="https://github.com/conda-forge/qtwebkit-feedstock" xlink:title="qtwebkit">
<ellipse fill="#fde725" stroke="black" cx="580" cy="-458" rx="52" ry="18"/>
<text text-anchor="middle" x="580" y="-454.3" font-family="Times,serif" font-size="14.00">qtwebkit</text>
</a>
</g>
</g>
<!-- qtwebkit&#45;&gt;qgis -->
<g id="edge12" class="edge">
<title>qtwebkit&#45;&gt;qgis</title>
<path fill="none" stroke="black" d="M557.14,-441.46C541.88,-431.09 521.7,-417.38 505.41,-406.31"/>
<polygon fill="black" stroke="black" points="507.83,-403.72 497.59,-400.99 503.89,-409.51 507.83,-403.72"/>
</g>
<!-- scilab -->
<g id="node16" class="node">
<title>scilab</title>
<g id="a_node16"><a xlink:href="https://github.com/conda-forge/scilab-feedstock/pull/40" xlink:title="scilab ✓">
<ellipse fill="#31688e" stroke="black" cx="751" cy="-278" rx="45" ry="18"/>
<text text-anchor="middle" x="751" y="-274.3" font-family="Times,serif" font-size="14.00" fill="white">scilab ✓</text>
</a>
</g>
</g>
<!-- mdsplus&#45;&gt;scilab -->
<!-- libical -->
<g id="node17" class="node">
<title>libical</title>
<g id="a_node17"><a xlink:href="https://github.com/conda-forge/libical-feedstock/pull/23" xlink:title="libical ✓">
<ellipse fill="#31688e" stroke="black" cx="751" cy="-206" rx="46.29" ry="18"/>
<text text-anchor="middle" x="751" y="-202.3" font-family="Times,serif" font-size="14.00" fill="white">libical ✓</text>
</a>
</g>
</g>
<!-- scilab&#45;&gt;libical -->
<!-- libxmlsec1 -->
<g id="node18" class="node">
<title>libxmlsec1</title>
<g id="a_node18"><a xlink:href="https://github.com/conda-forge/libxmlsec1-feedstock/pull/24" xlink:title="libxmlsec1 ✓">
<ellipse fill="#31688e" stroke="black" cx="751" cy="-134" rx="67.69" ry="18"/>
<text text-anchor="middle" x="751" y="-130.3" font-family="Times,serif" font-size="14.00" fill="white">libxmlsec1 ✓</text>
</a>
</g>
</g>
<!-- libical&#45;&gt;libxmlsec1 -->
<!-- libv8 -->
<g id="node19" class="node">
<title>libv8</title>
<g id="a_node19"><a xlink:href="https://github.com/conda-forge/libv8-feedstock/pull/82" xlink:title="libv8 ❎">
<ellipse fill="#31688e" stroke="black" cx="338" cy="-90" rx="48.19" ry="18"/>
<text text-anchor="middle" x="338" y="-86.3" font-family="Times,serif" font-size="14.00" fill="white">libv8 ❎</text>
</a>
</g>
</g>
<!-- r&#45;v8 -->
<g id="node20" class="node">
<title>r&#45;v8</title>
<g id="a_node20"><a xlink:href="https://github.com/conda-forge/r-v8-feedstock" xlink:title="r v8">
<ellipse fill="#fde725" stroke="black" cx="338" cy="-18" rx="29.5" ry="18"/>
<text text-anchor="middle" x="338" y="-14.3" font-family="Times,serif" font-size="14.00">r v8</text>
</a>
</g>
</g>
<!-- libv8&#45;&gt;r&#45;v8 -->
<g id="edge17" class="edge">
<title>libv8&#45;&gt;r&#45;v8</title>
<path fill="none" stroke="black" d="M338,-71.7C338,-64.41 338,-55.73 338,-47.54"/>
<polygon fill="black" stroke="black" points="341.5,-47.62 338,-37.62 334.5,-47.62 341.5,-47.62"/>
</g>
<!-- qt&#45;main -->
<g id="node21" class="node">
<title>qt&#45;main</title>
<g id="a_node21"><a xlink:href="https://github.com/conda-forge/qt-main-feedstock/pull/136" xlink:title="qt main ❎">
<ellipse fill="#31688e" stroke="black" cx="559" cy="-602" rx="60.5" ry="18"/>
<text text-anchor="middle" x="559" y="-598.3" font-family="Times,serif" font-size="14.00" fill="white">qt main ❎</text>
</a>
</g>
</g>
<!-- qt&#45;main&#45;&gt;paraview -->
<g id="edge18" class="edge">
<title>qt&#45;main&#45;&gt;paraview</title>
<path fill="none" stroke="black" d="M524.37,-587.03C507,-578.31 487.14,-565.39 475,-548 462.69,-530.35 458.1,-506.3 456.5,-487.65"/>
<polygon fill="black" stroke="black" points="460,-487.58 455.92,-477.8 453.01,-487.99 460,-487.58"/>
</g>
<!-- qt&#45;main&#45;&gt;qgis -->
<g id="edge19" class="edge">
<title>qt&#45;main&#45;&gt;qgis</title>
<path fill="none" stroke="black" d="M578.72,-584.74C612.93,-554.57 676.35,-488.57 641,-440 613.4,-402.07 558.09,-390.72 519.37,-387.62"/>
<polygon fill="black" stroke="black" points="519.64,-384.13 509.44,-387 519.21,-391.12 519.64,-384.13"/>
</g>
<!-- qt&#45;main&#45;&gt;octave -->
<g id="edge20" class="edge">
<title>qt&#45;main&#45;&gt;octave</title>
<path fill="none" stroke="black" d="M550.6,-583.7C546.89,-576.07 542.44,-566.92 538.31,-558.4"/>
<polygon fill="black" stroke="black" points="541.49,-556.93 533.97,-549.47 535.19,-559.99 541.49,-556.93"/>
</g>
<!-- qt&#45;main&#45;&gt;qtwebkit -->
<g id="edge21" class="edge">
<title>qt&#45;main&#45;&gt;qtwebkit</title>
<path fill="none" stroke="black" d="M565.23,-584.06C568.74,-573.78 572.83,-560.3 575,-548 578.52,-528.04 579.75,-505.2 580.11,-487.66"/>
<polygon fill="black" stroke="black" points="583.61,-487.75 580.22,-477.71 576.61,-487.67 583.61,-487.75"/>
</g>
<!-- spidermonkey -->
<g id="node22" class="node">
<title>spidermonkey</title>
<g id="a_node22"><a xlink:href="https://github.com/conda-forge/spidermonkey-feedstock/pull/10" xlink:title="spidermonkey ❎">
<ellipse fill="#31688e" stroke="black" cx="918" cy="-422" rx="90.5" ry="18"/>
<text text-anchor="middle" x="918" y="-418.3" font-family="Times,serif" font-size="14.00" fill="white">spidermonkey ❎</text>
</a>
</g>
</g>
<!-- couchdb -->
<g id="node23" class="node">
<title>couchdb</title>
<g id="a_node23"><a xlink:href="https://github.com/conda-forge/couchdb-feedstock" xlink:title="couchdb">
<ellipse fill="#fde725" stroke="black" cx="918" cy="-350" rx="49.5" ry="18"/>
<text text-anchor="middle" x="918" y="-346.3" font-family="Times,serif" font-size="14.00">couchdb</text>
</a>
</g>
</g>
<!-- spidermonkey&#45;&gt;couchdb -->
<g id="edge22" class="edge">
<title>spidermonkey&#45;&gt;couchdb</title>
<path fill="none" stroke="black" d="M918,-403.7C918,-396.41 918,-387.73 918,-379.54"/>
<polygon fill="black" stroke="black" points="921.5,-379.62 918,-369.62 914.5,-379.62 921.5,-379.62"/>
</g>
</g>
</svg>
