<?xml version="1.0" encoding="UTF-8" standalone="no"?>
<!DOCTYPE svg PUBLIC "-//W3C//DTD SVG 1.1//EN"
 "http://www.w3.org/Graphics/SVG/1.1/DTD/svg11.dtd">
<!-- Generated by graphviz version 8.1.0 (20230707.2238)
 -->
<!-- Pages: 1 -->
<svg width="740pt" height="620pt"
 viewBox="0.00 0.00 739.67 620.00" xmlns="http://www.w3.org/2000/svg" xmlns:xlink="http://www.w3.org/1999/xlink">
<g id="graph0" class="graph" transform="scale(1 1) rotate(0) translate(4 616)">
<polygon fill="white" stroke="none" points="-4,4 -4,-616 735.67,-616 735.67,4 -4,4"/>
<!-- octave -->
<g id="node1" class="node">
<title>octave</title>
<g id="a_node1"><a xlink:href="https://github.com/conda-forge/octave-feedstock" xlink:title="octave">
<ellipse fill="#fde725" stroke="black" cx="224.46" cy="-378" rx="43.84" ry="18"/>
<text text-anchor="middle" x="224.46" y="-373.32" font-family="Times,serif" font-size="14.00">octave</text>
</a>
</g>
</g>
<!-- paraview -->
<g id="node2" class="node">
<title>paraview</title>
<g id="a_node2"><a xlink:href="https://github.com/conda-forge/paraview-feedstock" xlink:title="paraview">
<ellipse fill="#fde725" stroke="black" cx="272.46" cy="-306" rx="57" ry="18"/>
<text text-anchor="middle" x="272.46" y="-301.32" font-family="Times,serif" font-size="14.00">paraview</text>
</a>
</g>
</g>
<!-- qgis -->
<g id="node3" class="node">
<title>qgis</title>
<g id="a_node3"><a xlink:href="https://github.com/conda-forge/qgis-feedstock" xlink:title="qgis">
<ellipse fill="#fde725" stroke="black" cx="398.46" cy="-162" rx="32.27" ry="18"/>
<text text-anchor="middle" x="398.46" y="-157.32" font-family="Times,serif" font-size="14.00">qgis</text>
</a>
</g>
</g>
<!-- r&#45;base -->
<g id="node4" class="node">
<title>r&#45;base</title>
<g id="a_node4"><a xlink:href="https://github.com/conda-forge/r-base-feedstock/pull/271" xlink:title="r base ✓">
<ellipse fill="#31688e" stroke="black" cx="620.46" cy="-414" rx="50.16" ry="18"/>
<text text-anchor="middle" x="620.46" y="-409.32" font-family="Times,serif" font-size="14.00" fill="white">r base ✓</text>
</a>
</g>
</g>
<!-- r&#45;cairo -->
<g id="node5" class="node">
<title>r&#45;cairo</title>
<g id="a_node5"><a xlink:href="https://github.com/conda-forge/r-cairo-feedstock" xlink:title="r cairo">
<ellipse fill="#fde725" stroke="black" cx="548.46" cy="-342" rx="43.84" ry="18"/>
<text text-anchor="middle" x="548.46" y="-337.32" font-family="Times,serif" font-size="14.00">r cairo</text>
</a>
</g>
</g>
<!-- r&#45;base&#45;&gt;r&#45;cairo -->
<g id="edge1" class="edge">
<title>r&#45;base&#45;&gt;r&#45;cairo</title>
<path fill="none" stroke="black" d="M603.76,-396.76C594.58,-387.84 583.03,-376.61 572.85,-366.72"/>
<polygon fill="black" stroke="black" points="575.68,-364.61 566.07,-360.15 570.8,-369.63 575.68,-364.61"/>
</g>
<!-- r&#45;stringi -->
<g id="node6" class="node">
<title>r&#45;stringi</title>
<g id="a_node6"><a xlink:href="https://github.com/conda-forge/r-stringi-feedstock" xlink:title="r stringi">
<ellipse fill="#fde725" stroke="black" cx="620.46" cy="-270" rx="52.26" ry="18"/>
<text text-anchor="middle" x="620.46" y="-265.32" font-family="Times,serif" font-size="14.00">r stringi</text>
</a>
</g>
</g>
<!-- r&#45;base&#45;&gt;r&#45;stringi -->
<g id="edge2" class="edge">
<title>r&#45;base&#45;&gt;r&#45;stringi</title>
<path fill="none" stroke="black" d="M620.46,-395.59C620.46,-371.5 620.46,-327.75 620.46,-299.03"/>
<polygon fill="black" stroke="black" points="623.96,-299.11 620.46,-289.11 616.96,-299.11 623.96,-299.11"/>
</g>
<!-- r&#45;v8 -->
<g id="node7" class="node">
<title>r&#45;v8</title>
<g id="a_node7"><a xlink:href="https://github.com/conda-forge/r-v8-feedstock" xlink:title="r v8">
<ellipse fill="#fde725" stroke="black" cx="700.46" cy="-198" rx="31.22" ry="18"/>
<text text-anchor="middle" x="700.46" y="-193.32" font-family="Times,serif" font-size="14.00">r v8</text>
</a>
</g>
</g>
<!-- r&#45;base&#45;&gt;r&#45;v8 -->
<g id="edge3" class="edge">
<title>r&#45;base&#45;&gt;r&#45;v8</title>
<path fill="none" stroke="black" d="M630.32,-396.18C643.69,-372.69 667.52,-328.4 681.46,-288 688.3,-268.15 693.16,-244.93 696.25,-227.18"/>
<polygon fill="black" stroke="black" points="699.86,-227.84 698.03,-217.4 692.95,-226.7 699.86,-227.84"/>
</g>
<!-- texlive&#45;core -->
<g id="node8" class="node">
<title>texlive&#45;core</title>
<g id="a_node8"><a xlink:href="https://github.com/conda-forge/texlive-core-feedstock/pull/86" xlink:title="texlive core ❎">
<ellipse fill="#31688e" stroke="black" cx="86.46" cy="-594" rx="84.88" ry="18"/>
<text text-anchor="middle" x="86.46" y="-589.33" font-family="Times,serif" font-size="14.00" fill="white">texlive core ❎</text>
</a>
</g>
</g>
<!-- uwsgi -->
<g id="node9" class="node">
<title>uwsgi</title>
<g id="a_node9"><a xlink:href="https://github.com/conda-forge/uwsgi-feedstock/pull/68" xlink:title="uwsgi ❎">
<ellipse fill="#31688e" stroke="black" cx="86.46" cy="-522" rx="55.94" ry="18"/>
<text text-anchor="middle" x="86.46" y="-517.33" font-family="Times,serif" font-size="14.00" fill="white">uwsgi ❎</text>
</a>
</g>
</g>
<!-- texlive&#45;core&#45;&gt;uwsgi -->
<!-- pyicu -->
<g id="node10" class="node">
<title>pyicu</title>
<g id="a_node10"><a xlink:href="https://github.com/conda-forge/pyicu-feedstock/pull/53" xlink:title="pyicu ❎">
<ellipse fill="#31688e" stroke="black" cx="86.46" cy="-450" rx="53.31" ry="18"/>
<text text-anchor="middle" x="86.46" y="-445.32" font-family="Times,serif" font-size="14.00" fill="white">pyicu ❎</text>
</a>
</g>
</g>
<!-- uwsgi&#45;&gt;pyicu -->
<!-- tensorflow -->
<g id="node12" class="node">
<title>tensorflow</title>
<g id="a_node12"><a xlink:href="https://github.com/conda-forge/tensorflow-feedstock" xlink:title="tensorflow">
<ellipse fill="#ff8c00" stroke="black" cx="86.46" cy="-378" rx="63.84" ry="18"/>
<text text-anchor="middle" x="86.46" y="-373.32" font-family="Times,serif" font-size="14.00">tensorflow</text>
</a>
</g>
</g>
<!-- pyicu&#45;&gt;tensorflow -->
<!-- qtwebkit -->
<g id="node11" class="node">
<title>qtwebkit</title>
<g id="a_node11"><a xlink:href="https://github.com/conda-forge/qtwebkit-feedstock" xlink:title="qtwebkit">
<ellipse fill="#fde725" stroke="black" cx="440.46" cy="-234" rx="55.42" ry="18"/>
<text text-anchor="middle" x="440.46" y="-229.32" font-family="Times,serif" font-size="14.00">qtwebkit</text>
</a>
</g>
</g>
<!-- qtwebkit&#45;&gt;qgis -->
<g id="edge6" class="edge">
<title>qtwebkit&#45;&gt;qgis</title>
<path fill="none" stroke="black" d="M430.29,-216.05C425.37,-207.85 419.36,-197.83 413.89,-188.71"/>
<polygon fill="black" stroke="black" points="416.39,-187.08 408.24,-180.31 410.39,-190.68 416.39,-187.08"/>
</g>
<!-- mdsplus -->
<g id="node13" class="node">
<title>mdsplus</title>
<g id="a_node13"><a xlink:href="https://github.com/conda-forge/mdsplus-feedstock/pull/33" xlink:title="mdsplus ✓">
<ellipse fill="#31688e" stroke="black" cx="86.46" cy="-306" rx="61.2" ry="18"/>
<text text-anchor="middle" x="86.46" y="-301.32" font-family="Times,serif" font-size="14.00" fill="white">mdsplus ✓</text>
</a>
</g>
</g>
<!-- tensorflow&#45;&gt;mdsplus -->
<!-- mongodb -->
<g id="node14" class="node">
<title>mongodb</title>
<g id="a_node14"><a xlink:href="https://github.com/conda-forge/mongodb-feedstock/pull/75" xlink:title="mongodb ❎">
<ellipse fill="#31688e" stroke="black" cx="86.46" cy="-234" rx="72.78" ry="18"/>
<text text-anchor="middle" x="86.46" y="-229.32" font-family="Times,serif" font-size="14.00" fill="white">mongodb ❎</text>
</a>
</g>
</g>
<!-- mdsplus&#45;&gt;mongodb -->
<!-- scilab -->
<g id="node15" class="node">
<title>scilab</title>
<g id="a_node15"><a xlink:href="https://github.com/conda-forge/scilab-feedstock" xlink:title="scilab">
<ellipse fill="#ff8c00" stroke="black" cx="86.46" cy="-162" rx="40.16" ry="18"/>
<text text-anchor="middle" x="86.46" y="-157.32" font-family="Times,serif" font-size="14.00">scilab</text>
</a>
</g>
</g>
<!-- mongodb&#45;&gt;scilab -->
<!-- libical -->
<g id="node16" class="node">
<title>libical</title>
<g id="a_node16"><a xlink:href="https://github.com/conda-forge/libical-feedstock/pull/25" xlink:title="libical ❎">
<ellipse fill="#31688e" stroke="black" cx="86.46" cy="-90" rx="56.47" ry="18"/>
<text text-anchor="middle" x="86.46" y="-85.33" font-family="Times,serif" font-size="14.00" fill="white">libical ❎</text>
</a>
</g>
</g>
<!-- scilab&#45;&gt;libical -->
<!-- topologytoolkit -->
<g id="node17" class="node">
<title>topologytoolkit</title>
<g id="a_node17"><a xlink:href="https://github.com/conda-forge/topologytoolkit-feedstock" xlink:title="topologytoolkit">
<ellipse fill="#ff8c00" stroke="black" cx="86.46" cy="-18" rx="86.46" ry="18"/>
<text text-anchor="middle" x="86.46" y="-13.32" font-family="Times,serif" font-size="14.00">topologytoolkit</text>
</a>
</g>
</g>
<!-- libical&#45;&gt;topologytoolkit -->
<!-- qt&#45;main -->
<g id="node18" class="node">
<title>qt&#45;main</title>
<g id="a_node18"><a xlink:href="https://github.com/conda-forge/qt-main-feedstock/pull/185" xlink:title="qt main ❎">
<ellipse fill="#31688e" stroke="black" cx="326.46" cy="-450" rx="64.89" ry="18"/>
<text text-anchor="middle" x="326.46" y="-445.32" font-family="Times,serif" font-size="14.00" fill="white">qt main ❎</text>
</a>
</g>
</g>
<!-- qt&#45;main&#45;&gt;octave -->
<g id="edge13" class="edge">
<title>qt&#45;main&#45;&gt;octave</title>
<path fill="none" stroke="black" d="M302.8,-432.76C288.67,-423.07 270.56,-410.64 255.31,-400.17"/>
<polygon fill="black" stroke="black" points="257.47,-396.73 247.25,-393.95 253.51,-402.5 257.47,-396.73"/>
</g>
<!-- qt&#45;main&#45;&gt;paraview -->
<g id="edge14" class="edge">
<title>qt&#45;main&#45;&gt;paraview</title>
<path fill="none" stroke="black" d="M319.94,-431.87C310.74,-407.67 293.83,-363.21 282.87,-334.39"/>
<polygon fill="black" stroke="black" points="285.82,-333.29 278.99,-325.19 279.28,-335.78 285.82,-333.29"/>
</g>
<!-- qt&#45;main&#45;&gt;qgis -->
<g id="edge15" class="edge">
<title>qt&#45;main&#45;&gt;qgis</title>
<path fill="none" stroke="black" d="M329.05,-431.77C335.16,-392.77 351.81,-294.99 376.46,-216 379.17,-207.31 382.75,-198.06 386.23,-189.77"/>
<polygon fill="black" stroke="black" points="389.75,-191.46 390.52,-180.89 383.33,-188.67 389.75,-191.46"/>
</g>
<!-- qt&#45;main&#45;&gt;qtwebkit -->
<g id="edge16" class="edge">
<title>qt&#45;main&#45;&gt;qtwebkit</title>
<path fill="none" stroke="black" d="M342.86,-432.35C352.07,-422.39 363.32,-409.14 371.46,-396 398.64,-352.1 420.12,-295.6 431.5,-262.53"/>
<polygon fill="black" stroke="black" points="435.09,-263.86 434.97,-253.27 428.45,-261.62 435.09,-263.86"/>
</g>
</g>
</svg>
