<?xml version="1.0" encoding="UTF-8" standalone="no"?>
<!DOCTYPE svg PUBLIC "-//W3C//DTD SVG 1.1//EN"
 "http://www.w3.org/Graphics/SVG/1.1/DTD/svg11.dtd">
<!-- Generated by graphviz version 8.0.5 (20230506.1012)
 -->
<!-- Pages: 1 -->
<svg width="403pt" height="232pt"
 viewBox="0.00 0.00 403.25 232.00" xmlns="http://www.w3.org/2000/svg" xmlns:xlink="http://www.w3.org/1999/xlink">
<g id="graph0" class="graph" transform="scale(1 1) rotate(0) translate(4 228)">
<polygon fill="white" stroke="none" points="-4,4 -4,-228 399.25,-228 399.25,4 -4,4"/>
<!-- cdms2 -->
<g id="node1" class="node">
<title>cdms2</title>
<g id="a_node1"><a xlink:href="https://github.com/conda-forge/cdms2-feedstock" xlink:title="cdms2">
<ellipse fill="#fde725" stroke="black" cx="65.41" cy="-62" rx="43.84" ry="18"/>
<text text-anchor="middle" x="65.41" y="-57.33" font-family="Times,serif" font-size="14.00">cdms2</text>
</a>
</g>
</g>
<!-- cdtime -->
<g id="node2" class="node">
<title>cdtime</title>
<g id="a_node2"><a xlink:href="https://github.com/conda-forge/cdtime-feedstock" xlink:title="cdtime">
<ellipse fill="#fde725" stroke="black" cx="102.41" cy="-134" rx="45.42" ry="18"/>
<text text-anchor="middle" x="102.41" y="-129.32" font-family="Times,serif" font-size="14.00">cdtime</text>
</a>
</g>
</g>
<!-- cdtime&#45;&gt;cdms2 -->
<g id="edge1" class="edge">
<title>cdtime&#45;&gt;cdms2</title>
<path fill="none" stroke="black" d="M93.46,-116.05C89.23,-108.06 84.09,-98.33 79.37,-89.4"/>
<polygon fill="black" stroke="black" points="82.05,-87.99 74.29,-80.79 75.87,-91.27 82.05,-87.99"/>
</g>
<!-- libcdms -->
<g id="node3" class="node">
<title>libcdms</title>
<g id="a_node3"><a xlink:href="https://github.com/conda-forge/libcdms-feedstock/pull/45" xlink:title="libcdms ❎">
<ellipse fill="#31688e" stroke="black" cx="65.41" cy="-206" rx="65.41" ry="18"/>
<text text-anchor="middle" x="65.41" y="-201.32" font-family="Times,serif" font-size="14.00" fill="white">libcdms ❎</text>
</a>
</g>
</g>
<!-- libcdms&#45;&gt;cdms2 -->
<g id="edge2" class="edge">
<title>libcdms&#45;&gt;cdms2</title>
<path fill="none" stroke="black" d="M58.35,-187.67C54.57,-177.47 50.32,-164.22 48.41,-152 45.94,-136.19 45.94,-131.81 48.41,-116 49.76,-107.37 52.28,-98.23 54.97,-90.01"/>
<polygon fill="black" stroke="black" points="58.52,-91.45 58.52,-80.86 51.92,-89.14 58.52,-91.45"/>
</g>
<!-- libcdms&#45;&gt;cdtime -->
<g id="edge3" class="edge">
<title>libcdms&#45;&gt;cdtime</title>
<path fill="none" stroke="black" d="M74.56,-187.7C78.68,-179.9 83.64,-170.51 88.23,-161.83"/>
<polygon fill="black" stroke="black" points="91.79,-163.58 93.37,-153.1 85.6,-160.31 91.79,-163.58"/>
</g>
<!-- ncl -->
<g id="node4" class="node">
<title>ncl</title>
<g id="a_node4"><a xlink:href="https://github.com/conda-forge/ncl-feedstock/pull/133" xlink:title="ncl ❎">
<ellipse fill="#31688e" stroke="black" cx="73.41" cy="-18" rx="41.21" ry="18"/>
<text text-anchor="middle" x="73.41" y="-13.32" font-family="Times,serif" font-size="14.00" fill="white">ncl ❎</text>
</a>
</g>
</g>
<!-- pynio -->
<g id="node5" class="node">
<title>pynio</title>
<g id="a_node5"><a xlink:href="https://github.com/conda-forge/pynio-feedstock/pull/128" xlink:title="pynio ❎">
<ellipse fill="#31688e" stroke="black" cx="341.41" cy="-134" rx="53.84" ry="18"/>
<text text-anchor="middle" x="341.41" y="-129.32" font-family="Times,serif" font-size="14.00" fill="white">pynio ❎</text>
</a>
</g>
</g>
<!-- wgrib2 -->
<g id="node6" class="node">
<title>wgrib2</title>
<g id="a_node6"><a xlink:href="https://github.com/conda-forge/wgrib2-feedstock/pull/28" xlink:title="wgrib2 ❎">
<ellipse fill="#31688e" stroke="black" cx="217.41" cy="-134" rx="61.73" ry="18"/>
<text text-anchor="middle" x="217.41" y="-129.32" font-family="Times,serif" font-size="14.00" fill="white">wgrib2 ❎</text>
</a>
</g>
</g>
</g>
</svg>
