<?xml version="1.0" encoding="UTF-8" standalone="no"?>
<!DOCTYPE svg PUBLIC "-//W3C//DTD SVG 1.1//EN"
 "http://www.w3.org/Graphics/SVG/1.1/DTD/svg11.dtd">
<!-- Generated by graphviz version 7.1.0 (20230122.1345)
 -->
<!-- Pages: 1 -->
<svg width="1522pt" height="1168pt"
 viewBox="0.00 0.00 1521.64 1168.00" xmlns="http://www.w3.org/2000/svg" xmlns:xlink="http://www.w3.org/1999/xlink">
<g id="graph0" class="graph" transform="scale(1 1) rotate(0) translate(4 1164)">
<polygon fill="white" stroke="none" points="-4,4 -4,-1164 1517.64,-1164 1517.64,4 -4,4"/>
<!-- fig2dev -->
<g id="node1" class="node">
<title>fig2dev</title>
<g id="a_node1"><a xlink:href="https://github.com/conda-forge/fig2dev-feedstock/pull/8" xlink:title="fig2dev ❎">
<ellipse fill="#31688e" stroke="black" cx="1440.14" cy="-1142" rx="59.29" ry="18"/>
<text text-anchor="middle" x="1440.14" y="-1138.3" font-family="Times,serif" font-size="14.00" fill="white">fig2dev ❎</text>
</a>
</g>
</g>
<!-- imread -->
<g id="node2" class="node">
<title>imread</title>
<g id="a_node2"><a xlink:href="https://github.com/conda-forge/imread-feedstock" xlink:title="imread">
<ellipse fill="#ff8c00" stroke="black" cx="1440.14" cy="-1070" rx="43.59" ry="18"/>
<text text-anchor="middle" x="1440.14" y="-1066.3" font-family="Times,serif" font-size="14.00">imread</text>
</a>
</g>
</g>
<!-- fig2dev&#45;&gt;imread -->
<!-- libcdms -->
<g id="node8" class="node">
<title>libcdms</title>
<g id="a_node8"><a xlink:href="https://github.com/conda-forge/libcdms-feedstock" xlink:title="libcdms">
<ellipse fill="#ff8c00" stroke="black" cx="1440.14" cy="-998" rx="47" ry="18"/>
<text text-anchor="middle" x="1440.14" y="-994.3" font-family="Times,serif" font-size="14.00">libcdms</text>
</a>
</g>
</g>
<!-- imread&#45;&gt;libcdms -->
<!-- gdal -->
<g id="node3" class="node">
<title>gdal</title>
<g id="a_node3"><a xlink:href="https://github.com/conda-forge/gdal-feedstock" xlink:title="gdal">
<ellipse fill="#fde725" stroke="black" cx="364.14" cy="-818" rx="30.59" ry="18"/>
<text text-anchor="middle" x="364.14" y="-814.3" font-family="Times,serif" font-size="14.00">gdal</text>
</a>
</g>
</g>
<!-- ncl -->
<g id="node4" class="node">
<title>ncl</title>
<g id="a_node4"><a xlink:href="https://github.com/conda-forge/ncl-feedstock" xlink:title="ncl">
<ellipse fill="#fde725" stroke="black" cx="155.14" cy="-746" rx="27" ry="18"/>
<text text-anchor="middle" x="155.14" y="-742.3" font-family="Times,serif" font-size="14.00">ncl</text>
</a>
</g>
</g>
<!-- gdal&#45;&gt;ncl -->
<g id="edge2" class="edge">
<title>gdal&#45;&gt;ncl</title>
<path fill="none" stroke="black" d="M340.18,-806.37C334.94,-804.16 329.38,-801.93 324.14,-800 299.43,-790.9 232.12,-770.25 190.29,-757.58"/>
<polygon fill="black" stroke="black" points="191.51,-754.29 180.93,-754.75 189.49,-760.99 191.51,-754.29"/>
</g>
<!-- mapserver -->
<g id="node5" class="node">
<title>mapserver</title>
<g id="a_node5"><a xlink:href="https://github.com/conda-forge/mapserver-feedstock" xlink:title="mapserver">
<ellipse fill="#fde725" stroke="black" cx="284.14" cy="-746" rx="60.5" ry="18"/>
<text text-anchor="middle" x="284.14" y="-742.3" font-family="Times,serif" font-size="14.00">mapserver</text>
</a>
</g>
</g>
<!-- gdal&#45;&gt;mapserver -->
<g id="edge3" class="edge">
<title>gdal&#45;&gt;mapserver</title>
<path fill="none" stroke="black" d="M347.57,-802.5C337.11,-793.34 323.35,-781.31 311.32,-770.78"/>
<polygon fill="black" stroke="black" points="313.91,-768.4 304.08,-764.44 309.3,-773.66 313.91,-768.4"/>
</g>
<!-- imagemagick -->
<g id="node6" class="node">
<title>imagemagick</title>
<g id="a_node6"><a xlink:href="https://github.com/conda-forge/imagemagick-feedstock" xlink:title="imagemagick">
<ellipse fill="#fde725" stroke="black" cx="72.14" cy="-890" rx="72.29" ry="18"/>
<text text-anchor="middle" x="72.14" y="-886.3" font-family="Times,serif" font-size="14.00">imagemagick</text>
</a>
</g>
</g>
<!-- imagemagick&#45;&gt;ncl -->
<g id="edge4" class="edge">
<title>imagemagick&#45;&gt;ncl</title>
<path fill="none" stroke="black" d="M82.16,-871.87C96.52,-847.3 123.08,-801.85 139.9,-773.08"/>
<polygon fill="black" stroke="black" points="142.82,-775.02 144.85,-764.62 136.78,-771.49 142.82,-775.02"/>
</g>
<!-- libvips -->
<g id="node7" class="node">
<title>libvips</title>
<g id="a_node7"><a xlink:href="https://github.com/conda-forge/libvips-feedstock" xlink:title="libvips">
<ellipse fill="#fde725" stroke="black" cx="176.14" cy="-818" rx="41.69" ry="18"/>
<text text-anchor="middle" x="176.14" y="-814.3" font-family="Times,serif" font-size="14.00">libvips</text>
</a>
</g>
</g>
<!-- imagemagick&#45;&gt;libvips -->
<g id="edge5" class="edge">
<title>imagemagick&#45;&gt;libvips</title>
<path fill="none" stroke="black" d="M96.53,-872.59C111.04,-862.82 129.61,-850.32 145.16,-839.86"/>
<polygon fill="black" stroke="black" points="146.79,-842.98 153.13,-834.49 142.88,-837.17 146.79,-842.98"/>
</g>
<!-- openmotif -->
<g id="node9" class="node">
<title>openmotif</title>
<g id="a_node9"><a xlink:href="https://github.com/conda-forge/openmotif-feedstock/pull/12" xlink:title="openmotif ❎">
<ellipse fill="#31688e" stroke="black" cx="1440.14" cy="-926" rx="71.5" ry="18"/>
<text text-anchor="middle" x="1440.14" y="-922.3" font-family="Times,serif" font-size="14.00" fill="white">openmotif ❎</text>
</a>
</g>
</g>
<!-- libcdms&#45;&gt;openmotif -->
<!-- tachyon -->
<g id="node14" class="node">
<title>tachyon</title>
<g id="a_node14"><a xlink:href="https://github.com/conda-forge/tachyon-feedstock/pull/5" xlink:title="tachyon ❎">
<ellipse fill="#31688e" stroke="black" cx="1440.14" cy="-854" rx="61.99" ry="18"/>
<text text-anchor="middle" x="1440.14" y="-850.3" font-family="Times,serif" font-size="14.00" fill="white">tachyon ❎</text>
</a>
</g>
</g>
<!-- openmotif&#45;&gt;tachyon -->
<!-- libgd -->
<g id="node10" class="node">
<title>libgd</title>
<g id="a_node10"><a xlink:href="https://github.com/conda-forge/libgd-feedstock/pull/49" xlink:title="libgd ✓">
<ellipse fill="#31688e" stroke="black" cx="159.14" cy="-962" rx="41.69" ry="18"/>
<text text-anchor="middle" x="159.14" y="-958.3" font-family="Times,serif" font-size="14.00" fill="white">libgd ✓</text>
</a>
</g>
</g>
<!-- libgd&#45;&gt;imagemagick -->
<g id="edge8" class="edge">
<title>libgd&#45;&gt;imagemagick</title>
<path fill="none" stroke="black" d="M140.27,-945.81C129.01,-936.75 114.46,-925.05 101.71,-914.79"/>
<polygon fill="black" stroke="black" points="103.97,-912.12 93.99,-908.58 99.59,-917.57 103.97,-912.12"/>
</g>
<!-- graphicsmagick -->
<g id="node11" class="node">
<title>graphicsmagick</title>
<g id="a_node11"><a xlink:href="https://github.com/conda-forge/graphicsmagick-feedstock" xlink:title="graphicsmagick">
<ellipse fill="#fde725" stroke="black" cx="246.14" cy="-890" rx="84" ry="18"/>
<text text-anchor="middle" x="246.14" y="-886.3" font-family="Times,serif" font-size="14.00">graphicsmagick</text>
</a>
</g>
</g>
<!-- libgd&#45;&gt;graphicsmagick -->
<g id="edge9" class="edge">
<title>libgd&#45;&gt;graphicsmagick</title>
<path fill="none" stroke="black" d="M178.02,-945.81C189.2,-936.82 203.62,-925.22 216.3,-915.01"/>
<polygon fill="black" stroke="black" points="218.39,-917.82 223.99,-908.83 214,-912.37 218.39,-917.82"/>
</g>
<!-- opencv -->
<g id="node12" class="node">
<title>opencv</title>
<g id="a_node12"><a xlink:href="https://github.com/conda-forge/opencv-feedstock" xlink:title="opencv">
<ellipse fill="#fde725" stroke="black" cx="654.14" cy="-890" rx="43.59" ry="18"/>
<text text-anchor="middle" x="654.14" y="-886.3" font-family="Times,serif" font-size="14.00">opencv</text>
</a>
</g>
</g>
<!-- yarp -->
<g id="node13" class="node">
<title>yarp</title>
<g id="a_node13"><a xlink:href="https://github.com/conda-forge/yarp-feedstock" xlink:title="yarp">
<ellipse fill="#fde725" stroke="black" cx="629.14" cy="-818" rx="32" ry="18"/>
<text text-anchor="middle" x="629.14" y="-814.3" font-family="Times,serif" font-size="14.00">yarp</text>
</a>
</g>
</g>
<!-- opencv&#45;&gt;yarp -->
<g id="edge10" class="edge">
<title>opencv&#45;&gt;yarp</title>
<path fill="none" stroke="black" d="M647.96,-871.7C645.27,-864.15 642.04,-855.12 639.03,-846.68"/>
<polygon fill="black" stroke="black" points="642.42,-845.77 635.76,-837.53 635.83,-848.12 642.42,-845.77"/>
</g>
<!-- wxpython -->
<g id="node23" class="node">
<title>wxpython</title>
<g id="a_node23"><a xlink:href="https://github.com/conda-forge/wxpython-feedstock/pull/99" xlink:title="wxpython ❎">
<ellipse fill="#31688e" stroke="black" cx="1440.14" cy="-782" rx="70.39" ry="18"/>
<text text-anchor="middle" x="1440.14" y="-778.3" font-family="Times,serif" font-size="14.00" fill="white">wxpython ❎</text>
</a>
</g>
</g>
<!-- tachyon&#45;&gt;wxpython -->
<!-- paraview -->
<g id="node15" class="node">
<title>paraview</title>
<g id="a_node15"><a xlink:href="https://github.com/conda-forge/paraview-feedstock" xlink:title="paraview">
<ellipse fill="#fde725" stroke="black" cx="910.14" cy="-818" rx="53.5" ry="18"/>
<text text-anchor="middle" x="910.14" y="-814.3" font-family="Times,serif" font-size="14.00">paraview</text>
</a>
</g>
</g>
<!-- poppler -->
<g id="node16" class="node">
<title>poppler</title>
<g id="a_node16"><a xlink:href="https://github.com/conda-forge/poppler-feedstock" xlink:title="poppler">
<ellipse fill="#fde725" stroke="black" cx="394.14" cy="-890" rx="46.29" ry="18"/>
<text text-anchor="middle" x="394.14" y="-886.3" font-family="Times,serif" font-size="14.00">poppler</text>
</a>
</g>
</g>
<!-- poppler&#45;&gt;gdal -->
<g id="edge12" class="edge">
<title>poppler&#45;&gt;gdal</title>
<path fill="none" stroke="black" d="M386.88,-872.05C383.56,-864.32 379.55,-854.96 375.83,-846.27"/>
<polygon fill="black" stroke="black" points="379.09,-844.99 371.94,-837.18 372.66,-847.75 379.09,-844.99"/>
</g>
<!-- poppler&#45;&gt;libvips -->
<g id="edge13" class="edge">
<title>poppler&#45;&gt;libvips</title>
<path fill="none" stroke="black" d="M359.12,-877.75C321.19,-865.58 260.64,-846.13 219.68,-832.98"/>
<polygon fill="black" stroke="black" points="220.97,-829.72 210.38,-829.99 218.83,-836.38 220.97,-829.72"/>
</g>
<!-- ipe -->
<g id="node17" class="node">
<title>ipe</title>
<g id="a_node17"><a xlink:href="https://github.com/conda-forge/ipe-feedstock" xlink:title="ipe">
<ellipse fill="#fde725" stroke="black" cx="447.14" cy="-818" rx="27" ry="18"/>
<text text-anchor="middle" x="447.14" y="-814.3" font-family="Times,serif" font-size="14.00">ipe</text>
</a>
</g>
</g>
<!-- poppler&#45;&gt;ipe -->
<g id="edge14" class="edge">
<title>poppler&#45;&gt;ipe</title>
<path fill="none" stroke="black" d="M406.7,-872.41C413.22,-863.8 421.32,-853.11 428.55,-843.56"/>
<polygon fill="black" stroke="black" points="431.24,-845.8 434.49,-835.72 425.66,-841.58 431.24,-845.8"/>
</g>
<!-- sane -->
<g id="node18" class="node">
<title>sane</title>
<g id="a_node18"><a xlink:href="https://github.com/conda-forge/sane-feedstock" xlink:title="sane">
<ellipse fill="#fde725" stroke="black" cx="283.14" cy="-818" rx="32.5" ry="18"/>
<text text-anchor="middle" x="283.14" y="-814.3" font-family="Times,serif" font-size="14.00">sane</text>
</a>
</g>
</g>
<!-- poppler&#45;&gt;sane -->
<g id="edge15" class="edge">
<title>poppler&#45;&gt;sane</title>
<path fill="none" stroke="black" d="M370.6,-874.15C354.03,-863.71 331.7,-849.62 313.75,-838.3"/>
<polygon fill="black" stroke="black" points="315.64,-835.35 305.31,-832.98 311.9,-841.27 315.64,-835.35"/>
</g>
<!-- r&#45;base -->
<g id="node19" class="node">
<title>r&#45;base</title>
<g id="a_node19"><a xlink:href="https://github.com/conda-forge/r-base-feedstock/pull/239" xlink:title="r base ✓">
<ellipse fill="#31688e" stroke="black" cx="1062.14" cy="-962" rx="47" ry="18"/>
<text text-anchor="middle" x="1062.14" y="-958.3" font-family="Times,serif" font-size="14.00" fill="white">r base ✓</text>
</a>
</g>
</g>
<!-- r&#45;ragg -->
<g id="node20" class="node">
<title>r&#45;ragg</title>
<g id="a_node20"><a xlink:href="https://github.com/conda-forge/r-ragg-feedstock" xlink:title="r ragg">
<ellipse fill="#fde725" stroke="black" cx="1062.14" cy="-890" rx="39.79" ry="18"/>
<text text-anchor="middle" x="1062.14" y="-886.3" font-family="Times,serif" font-size="14.00">r ragg</text>
</a>
</g>
</g>
<!-- r&#45;base&#45;&gt;r&#45;ragg -->
<g id="edge16" class="edge">
<title>r&#45;base&#45;&gt;r&#45;ragg</title>
<path fill="none" stroke="black" d="M1062.14,-943.7C1062.14,-936.41 1062.14,-927.73 1062.14,-919.54"/>
<polygon fill="black" stroke="black" points="1065.64,-919.62 1062.14,-909.62 1058.64,-919.62 1065.64,-919.62"/>
</g>
<!-- harp -->
<g id="node21" class="node">
<title>harp</title>
<g id="a_node21"><a xlink:href="https://github.com/conda-forge/harp-feedstock" xlink:title="harp">
<ellipse fill="#fde725" stroke="black" cx="1130.14" cy="-818" rx="32.5" ry="18"/>
<text text-anchor="middle" x="1130.14" y="-814.3" font-family="Times,serif" font-size="14.00">harp</text>
</a>
</g>
</g>
<!-- r&#45;base&#45;&gt;harp -->
<g id="edge17" class="edge">
<title>r&#45;base&#45;&gt;harp</title>
<path fill="none" stroke="black" d="M1081.11,-945.18C1091.51,-935.49 1103.76,-922.24 1111.14,-908 1120.88,-889.22 1125.63,-865.74 1127.94,-847.61"/>
<polygon fill="black" stroke="black" points="1131.41,-848.13 1129,-837.81 1124.45,-847.38 1131.41,-848.13"/>
</g>
<!-- rstudio -->
<g id="node22" class="node">
<title>rstudio</title>
<g id="a_node22"><a xlink:href="https://github.com/conda-forge/rstudio-feedstock" xlink:title="rstudio">
<ellipse fill="#fde725" stroke="black" cx="960.14" cy="-890" rx="44.39" ry="18"/>
<text text-anchor="middle" x="960.14" y="-886.3" font-family="Times,serif" font-size="14.00">rstudio</text>
</a>
</g>
</g>
<!-- r&#45;base&#45;&gt;rstudio -->
<g id="edge18" class="edge">
<title>r&#45;base&#45;&gt;rstudio</title>
<path fill="none" stroke="black" d="M1040.01,-945.81C1025.75,-936.02 1006.99,-923.15 991.24,-912.34"/>
<polygon fill="black" stroke="black" points="993.36,-909.55 983.13,-906.78 989.4,-915.32 993.36,-909.55"/>
</g>
<!-- xfig -->
<g id="node24" class="node">
<title>xfig</title>
<g id="a_node24"><a xlink:href="https://github.com/conda-forge/xfig-feedstock/pull/6" xlink:title="xfig ❎">
<ellipse fill="#31688e" stroke="black" cx="1440.14" cy="-710" rx="42.49" ry="18"/>
<text text-anchor="middle" x="1440.14" y="-706.3" font-family="Times,serif" font-size="14.00" fill="white">xfig ❎</text>
</a>
</g>
</g>
<!-- wxpython&#45;&gt;xfig -->
<!-- u3d -->
<g id="node25" class="node">
<title>u3d</title>
<g id="a_node25"><a xlink:href="https://github.com/conda-forge/u3d-feedstock/pull/23" xlink:title="u3d ❎">
<ellipse fill="#31688e" stroke="black" cx="1440.14" cy="-638" rx="42.49" ry="18"/>
<text text-anchor="middle" x="1440.14" y="-634.3" font-family="Times,serif" font-size="14.00" fill="white">u3d ❎</text>
</a>
</g>
</g>
<!-- xfig&#45;&gt;u3d -->
<!-- tensorflow -->
<g id="node26" class="node">
<title>tensorflow</title>
<g id="a_node26"><a xlink:href="https://github.com/conda-forge/tensorflow-feedstock/pull/303" xlink:title="tensorflow ❎">
<ellipse fill="#31688e" stroke="black" cx="1440.14" cy="-566" rx="73.5" ry="18"/>
<text text-anchor="middle" x="1440.14" y="-562.3" font-family="Times,serif" font-size="14.00" fill="white">tensorflow ❎</text>
</a>
</g>
</g>
<!-- u3d&#45;&gt;tensorflow -->
<!-- swi&#45;prolog -->
<g id="node31" class="node">
<title>swi&#45;prolog</title>
<g id="a_node31"><a xlink:href="https://github.com/conda-forge/swi-prolog-feedstock/pull/12" xlink:title="swi prolog ✓">
<ellipse fill="#31688e" stroke="black" cx="1440.14" cy="-494" rx="66.5" ry="18"/>
<text text-anchor="middle" x="1440.14" y="-490.3" font-family="Times,serif" font-size="14.00" fill="white">swi prolog ✓</text>
</a>
</g>
</g>
<!-- tensorflow&#45;&gt;swi&#45;prolog -->
<!-- vtk -->
<g id="node27" class="node">
<title>vtk</title>
<g id="a_node27"><a xlink:href="https://github.com/conda-forge/vtk-feedstock" xlink:title="vtk">
<ellipse fill="#fde725" stroke="black" cx="489.14" cy="-746" rx="27" ry="18"/>
<text text-anchor="middle" x="489.14" y="-742.3" font-family="Times,serif" font-size="14.00">vtk</text>
</a>
</g>
</g>
<!-- gmsh -->
<g id="node28" class="node">
<title>gmsh</title>
<g id="a_node28"><a xlink:href="https://github.com/conda-forge/gmsh-feedstock" xlink:title="gmsh">
<ellipse fill="#fde725" stroke="black" cx="424.14" cy="-674" rx="36.5" ry="18"/>
<text text-anchor="middle" x="424.14" y="-670.3" font-family="Times,serif" font-size="14.00">gmsh</text>
</a>
</g>
</g>
<!-- vtk&#45;&gt;gmsh -->
<g id="edge23" class="edge">
<title>vtk&#45;&gt;gmsh</title>
<path fill="none" stroke="black" d="M475.36,-730.15C466.97,-721.12 456.07,-709.38 446.48,-699.05"/>
<polygon fill="black" stroke="black" points="449.21,-696.85 439.84,-691.91 444.08,-701.62 449.21,-696.85"/>
</g>
<!-- simage -->
<g id="node29" class="node">
<title>simage</title>
<g id="a_node29"><a xlink:href="https://github.com/conda-forge/simage-feedstock" xlink:title="simage">
<ellipse fill="#fde725" stroke="black" cx="544.14" cy="-674" rx="44.39" ry="18"/>
<text text-anchor="middle" x="544.14" y="-670.3" font-family="Times,serif" font-size="14.00">simage</text>
</a>
</g>
</g>
<!-- qtwebkit -->
<g id="node30" class="node">
<title>qtwebkit</title>
<g id="a_node30"><a xlink:href="https://github.com/conda-forge/qtwebkit-feedstock" xlink:title="qtwebkit">
<ellipse fill="#fde725" stroke="black" cx="828.14" cy="-602" rx="52" ry="18"/>
<text text-anchor="middle" x="828.14" y="-598.3" font-family="Times,serif" font-size="14.00">qtwebkit</text>
</a>
</g>
</g>
<!-- zbar -->
<g id="node32" class="node">
<title>zbar</title>
<g id="a_node32"><a xlink:href="https://github.com/conda-forge/zbar-feedstock/pull/3" xlink:title="zbar ❎">
<ellipse fill="#31688e" stroke="black" cx="1440.14" cy="-422" rx="45.5" ry="18"/>
<text text-anchor="middle" x="1440.14" y="-418.3" font-family="Times,serif" font-size="14.00" fill="white">zbar ❎</text>
</a>
</g>
</g>
<!-- swi&#45;prolog&#45;&gt;zbar -->
<!-- leptonica -->
<g id="node33" class="node">
<title>leptonica</title>
<g id="a_node33"><a xlink:href="https://github.com/conda-forge/leptonica-feedstock" xlink:title="leptonica">
<ellipse fill="#ff8c00" stroke="black" cx="1440.14" cy="-234" rx="53.5" ry="18"/>
<text text-anchor="middle" x="1440.14" y="-230.3" font-family="Times,serif" font-size="14.00">leptonica</text>
</a>
</g>
</g>
<!-- tesseract -->
<g id="node34" class="node">
<title>tesseract</title>
<g id="a_node34"><a xlink:href="https://github.com/conda-forge/tesseract-feedstock" xlink:title="tesseract">
<ellipse fill="#fde725" stroke="black" cx="1440.14" cy="-162" rx="54" ry="18"/>
<text text-anchor="middle" x="1440.14" y="-158.3" font-family="Times,serif" font-size="14.00">tesseract</text>
</a>
</g>
</g>
<!-- leptonica&#45;&gt;tesseract -->
<g id="edge26" class="edge">
<title>leptonica&#45;&gt;tesseract</title>
<path fill="none" stroke="black" d="M1440.14,-215.7C1440.14,-208.41 1440.14,-199.73 1440.14,-191.54"/>
<polygon fill="black" stroke="black" points="1443.64,-191.62 1440.14,-181.62 1436.64,-191.62 1443.64,-191.62"/>
</g>
<!-- fltk -->
<g id="node35" class="node">
<title>fltk</title>
<g id="a_node35"><a xlink:href="https://github.com/conda-forge/fltk-feedstock/pull/16" xlink:title="fltk ❎">
<ellipse fill="#31688e" stroke="black" cx="403.14" cy="-746" rx="40.5" ry="18"/>
<text text-anchor="middle" x="403.14" y="-742.3" font-family="Times,serif" font-size="14.00" fill="white">fltk ❎</text>
</a>
</g>
</g>
<!-- fltk&#45;&gt;gmsh -->
<g id="edge27" class="edge">
<title>fltk&#45;&gt;gmsh</title>
<path fill="none" stroke="black" d="M408.33,-727.7C410.57,-720.24 413.25,-711.32 415.75,-702.97"/>
<polygon fill="black" stroke="black" points="419.06,-704.14 418.58,-693.55 412.35,-702.13 419.06,-704.14"/>
</g>
<!-- openimageio -->
<g id="node36" class="node">
<title>openimageio</title>
<g id="a_node36"><a xlink:href="https://github.com/conda-forge/openimageio-feedstock" xlink:title="openimageio">
<ellipse fill="#fde725" stroke="black" cx="1264.14" cy="-1142" rx="69.59" ry="18"/>
<text text-anchor="middle" x="1264.14" y="-1138.3" font-family="Times,serif" font-size="14.00">openimageio</text>
</a>
</g>
</g>
<!-- accimage -->
<g id="node37" class="node">
<title>accimage</title>
<g id="a_node37"><a xlink:href="https://github.com/conda-forge/accimage-feedstock/pull/12" xlink:title="accimage ✓">
<ellipse fill="#31688e" stroke="black" cx="1264.14" cy="-1070" rx="61.99" ry="18"/>
<text text-anchor="middle" x="1264.14" y="-1066.3" font-family="Times,serif" font-size="14.00" fill="white">accimage ✓</text>
</a>
</g>
</g>
<!-- openimageio&#45;&gt;accimage -->
<!-- nexus -->
<g id="node38" class="node">
<title>nexus</title>
<g id="a_node38"><a xlink:href="https://github.com/conda-forge/nexus-feedstock/pull/11" xlink:title="nexus ✓">
<ellipse fill="#31688e" stroke="black" cx="1264.14" cy="-998" rx="45.5" ry="18"/>
<text text-anchor="middle" x="1264.14" y="-994.3" font-family="Times,serif" font-size="14.00" fill="white">nexus ✓</text>
</a>
</g>
</g>
<!-- accimage&#45;&gt;nexus -->
<!-- vega&#45;cli -->
<g id="node39" class="node">
<title>vega&#45;cli</title>
<g id="a_node39"><a xlink:href="https://github.com/conda-forge/vega-cli-feedstock/pull/24" xlink:title="vega cli ❎">
<ellipse fill="#31688e" stroke="black" cx="1264.14" cy="-926" rx="60.5" ry="18"/>
<text text-anchor="middle" x="1264.14" y="-922.3" font-family="Times,serif" font-size="14.00" fill="white">vega cli ❎</text>
</a>
</g>
</g>
<!-- nexus&#45;&gt;vega&#45;cli -->
<!-- dlib&#45;cpp -->
<g id="node40" class="node">
<title>dlib&#45;cpp</title>
<g id="a_node40"><a xlink:href="https://github.com/conda-forge/dlib-cpp-feedstock/pull/19" xlink:title="dlib cpp ❎">
<ellipse fill="#31688e" stroke="black" cx="1264.14" cy="-854" rx="61.99" ry="18"/>
<text text-anchor="middle" x="1264.14" y="-850.3" font-family="Times,serif" font-size="14.00" fill="white">dlib cpp ❎</text>
</a>
</g>
</g>
<!-- vega&#45;cli&#45;&gt;dlib&#45;cpp -->
<!-- gnuastro -->
<g id="node41" class="node">
<title>gnuastro</title>
<g id="a_node41"><a xlink:href="https://github.com/conda-forge/gnuastro-feedstock/pull/27" xlink:title="gnuastro ✓">
<ellipse fill="#31688e" stroke="black" cx="1264.14" cy="-782" rx="60" ry="18"/>
<text text-anchor="middle" x="1264.14" y="-778.3" font-family="Times,serif" font-size="14.00" fill="white">gnuastro ✓</text>
</a>
</g>
</g>
<!-- dlib&#45;cpp&#45;&gt;gnuastro -->
<!-- openscenegraph -->
<g id="node44" class="node">
<title>openscenegraph</title>
<g id="a_node44"><a xlink:href="https://github.com/conda-forge/openscenegraph-feedstock/pull/24" xlink:title="openscenegraph ✓">
<ellipse fill="#31688e" stroke="black" cx="1264.14" cy="-710" rx="94.48" ry="18"/>
<text text-anchor="middle" x="1264.14" y="-706.3" font-family="Times,serif" font-size="14.00" fill="white">openscenegraph ✓</text>
</a>
</g>
</g>
<!-- gnuastro&#45;&gt;openscenegraph -->
<!-- netpbm -->
<g id="node42" class="node">
<title>netpbm</title>
<g id="a_node42"><a xlink:href="https://github.com/conda-forge/netpbm-feedstock/pull/24" xlink:title="netpbm ❎">
<ellipse fill="#31688e" stroke="black" cx="1264.14" cy="-234" rx="60.5" ry="18"/>
<text text-anchor="middle" x="1264.14" y="-230.3" font-family="Times,serif" font-size="14.00" fill="white">netpbm ❎</text>
</a>
</g>
</g>
<!-- astrometry -->
<g id="node43" class="node">
<title>astrometry</title>
<g id="a_node43"><a xlink:href="https://github.com/conda-forge/astrometry-feedstock" xlink:title="astrometry">
<ellipse fill="#fde725" stroke="black" cx="1264.14" cy="-162" rx="62.5" ry="18"/>
<text text-anchor="middle" x="1264.14" y="-158.3" font-family="Times,serif" font-size="14.00">astrometry</text>
</a>
</g>
</g>
<!-- netpbm&#45;&gt;astrometry -->
<g id="edge33" class="edge">
<title>netpbm&#45;&gt;astrometry</title>
<path fill="none" stroke="black" d="M1264.14,-215.7C1264.14,-208.41 1264.14,-199.73 1264.14,-191.54"/>
<polygon fill="black" stroke="black" points="1267.64,-191.62 1264.14,-181.62 1260.64,-191.62 1267.64,-191.62"/>
</g>
<!-- hugin -->
<g id="node45" class="node">
<title>hugin</title>
<g id="a_node45"><a xlink:href="https://github.com/conda-forge/hugin-feedstock" xlink:title="hugin">
<ellipse fill="#35b779" stroke="black" cx="1264.14" cy="-638" rx="37.09" ry="18"/>
<text text-anchor="middle" x="1264.14" y="-634.3" font-family="Times,serif" font-size="14.00">hugin</text>
</a>
</g>
</g>
<!-- openscenegraph&#45;&gt;hugin -->
<!-- panda3d -->
<g id="node46" class="node">
<title>panda3d</title>
<g id="a_node46"><a xlink:href="https://github.com/conda-forge/panda3d-feedstock/pull/28" xlink:title="panda3d ✓">
<ellipse fill="#31688e" stroke="black" cx="1264.14" cy="-566" rx="58" ry="18"/>
<text text-anchor="middle" x="1264.14" y="-562.3" font-family="Times,serif" font-size="14.00" fill="white">panda3d ✓</text>
</a>
</g>
</g>
<!-- hugin&#45;&gt;panda3d -->
<!-- cpptango -->
<g id="node47" class="node">
<title>cpptango</title>
<g id="a_node47"><a xlink:href="https://github.com/conda-forge/cpptango-feedstock/pull/21" xlink:title="cpptango ✓">
<ellipse fill="#31688e" stroke="black" cx="1264.14" cy="-494" rx="61.19" ry="18"/>
<text text-anchor="middle" x="1264.14" y="-490.3" font-family="Times,serif" font-size="14.00" fill="white">cpptango ✓</text>
</a>
</g>
</g>
<!-- panda3d&#45;&gt;cpptango -->
<!-- irrlicht -->
<g id="node48" class="node">
<title>irrlicht</title>
<g id="a_node48"><a xlink:href="https://github.com/conda-forge/irrlicht-feedstock/pull/10" xlink:title="irrlicht ❎">
<ellipse fill="#31688e" stroke="black" cx="1264.14" cy="-422" rx="57.39" ry="18"/>
<text text-anchor="middle" x="1264.14" y="-418.3" font-family="Times,serif" font-size="14.00" fill="white">irrlicht ❎</text>
</a>
</g>
</g>
<!-- cpptango&#45;&gt;irrlicht -->
<!-- tomviz -->
<g id="node49" class="node">
<title>tomviz</title>
<g id="a_node49"><a xlink:href="https://github.com/conda-forge/tomviz-feedstock" xlink:title="tomviz">
<ellipse fill="#fde725" stroke="black" cx="758.14" cy="-890" rx="42.49" ry="18"/>
<text text-anchor="middle" x="758.14" y="-886.3" font-family="Times,serif" font-size="14.00">tomviz</text>
</a>
</g>
</g>
<!-- vscode&#45;python -->
<g id="node50" class="node">
<title>vscode&#45;python</title>
<g id="a_node50"><a xlink:href="https://github.com/conda-forge/vscode-python-feedstock/pull/37" xlink:title="vscode python ✓">
<ellipse fill="#31688e" stroke="black" cx="581.14" cy="-378" rx="85.29" ry="18"/>
<text text-anchor="middle" x="581.14" y="-374.3" font-family="Times,serif" font-size="14.00" fill="white">vscode python ✓</text>
</a>
</g>
</g>
<!-- xforms -->
<g id="node51" class="node">
<title>xforms</title>
<g id="a_node51"><a xlink:href="https://github.com/conda-forge/xforms-feedstock/pull/2" xlink:title="xforms ❎">
<ellipse fill="#31688e" stroke="black" cx="581.14" cy="-306" rx="57.39" ry="18"/>
<text text-anchor="middle" x="581.14" y="-302.3" font-family="Times,serif" font-size="14.00" fill="white">xforms ❎</text>
</a>
</g>
</g>
<!-- vscode&#45;python&#45;&gt;xforms -->
<!-- podofo -->
<g id="node52" class="node">
<title>podofo</title>
<g id="a_node52"><a xlink:href="https://github.com/conda-forge/podofo-feedstock/pull/4" xlink:title="podofo ✓">
<ellipse fill="#31688e" stroke="black" cx="581.14" cy="-234" rx="49.5" ry="18"/>
<text text-anchor="middle" x="581.14" y="-230.3" font-family="Times,serif" font-size="14.00" fill="white">podofo ✓</text>
</a>
</g>
</g>
<!-- xforms&#45;&gt;podofo -->
<!-- djvulibre -->
<g id="node53" class="node">
<title>djvulibre</title>
<g id="a_node53"><a xlink:href="https://github.com/conda-forge/djvulibre-feedstock/pull/2" xlink:title="djvulibre ✓">
<ellipse fill="#31688e" stroke="black" cx="581.14" cy="-162" rx="60" ry="18"/>
<text text-anchor="middle" x="581.14" y="-158.3" font-family="Times,serif" font-size="14.00" fill="white">djvulibre ✓</text>
</a>
</g>
</g>
<!-- podofo&#45;&gt;djvulibre -->
<!-- nd2 -->
<g id="node54" class="node">
<title>nd2</title>
<g id="a_node54"><a xlink:href="https://github.com/conda-forge/nd2-feedstock" xlink:title="nd2">
<ellipse fill="#fde725" stroke="black" cx="581.14" cy="-90" rx="28.7" ry="18"/>
<text text-anchor="middle" x="581.14" y="-86.3" font-family="Times,serif" font-size="14.00">nd2</text>
</a>
</g>
</g>
<!-- djvulibre&#45;&gt;nd2 -->
<!-- diplib -->
<g id="node56" class="node">
<title>diplib</title>
<g id="a_node56"><a xlink:href="https://github.com/conda-forge/diplib-feedstock" xlink:title="diplib">
<ellipse fill="#ff8c00" stroke="black" cx="581.14" cy="-18" rx="37.09" ry="18"/>
<text text-anchor="middle" x="581.14" y="-14.3" font-family="Times,serif" font-size="14.00">diplib</text>
</a>
</g>
</g>
<!-- nd2&#45;&gt;diplib -->
<!-- qt&#45;main -->
<g id="node55" class="node">
<title>qt&#45;main</title>
<g id="a_node55"><a xlink:href="https://github.com/conda-forge/qt-main-feedstock/pull/130" xlink:title="qt main ❎">
<ellipse fill="#31688e" stroke="black" cx="582.14" cy="-962" rx="60.5" ry="18"/>
<text text-anchor="middle" x="582.14" y="-958.3" font-family="Times,serif" font-size="14.00" fill="white">qt main ❎</text>
</a>
</g>
</g>
<!-- qt&#45;main&#45;&gt;graphicsmagick -->
<g id="edge43" class="edge">
<title>qt&#45;main&#45;&gt;graphicsmagick</title>
<path fill="none" stroke="black" d="M533.65,-950.9C476.44,-938.98 380.9,-919.07 315.78,-905.51"/>
<polygon fill="black" stroke="black" points="316.79,-902.14 306.28,-903.53 315.36,-909 316.79,-902.14"/>
</g>
<!-- qt&#45;main&#45;&gt;opencv -->
<g id="edge44" class="edge">
<title>qt&#45;main&#45;&gt;opencv</title>
<path fill="none" stroke="black" d="M599.21,-944.41C608.3,-935.57 619.66,-924.53 629.67,-914.79"/>
<polygon fill="black" stroke="black" points="631.88,-917.52 636.61,-908.04 627,-912.5 631.88,-917.52"/>
</g>
<!-- qt&#45;main&#45;&gt;yarp -->
<g id="edge45" class="edge">
<title>qt&#45;main&#45;&gt;yarp</title>
<path fill="none" stroke="black" d="M584.42,-943.55C587.12,-925.31 592.41,-896.06 601.14,-872 604.44,-862.92 609.03,-853.46 613.53,-845.08"/>
<polygon fill="black" stroke="black" points="616.51,-846.92 618.36,-836.49 610.41,-843.5 616.51,-846.92"/>
</g>
<!-- qt&#45;main&#45;&gt;paraview -->
<g id="edge46" class="edge">
<title>qt&#45;main&#45;&gt;paraview</title>
<path fill="none" stroke="black" d="M642.83,-960.49C698.55,-957.42 781.44,-946.03 842.14,-908 866.14,-892.97 884.84,-866.24 896.5,-845.99"/>
<polygon fill="black" stroke="black" points="899.47,-847.86 901.22,-837.41 893.33,-844.48 899.47,-847.86"/>
</g>
<!-- qt&#45;main&#45;&gt;poppler -->
<g id="edge47" class="edge">
<title>qt&#45;main&#45;&gt;poppler</title>
<path fill="none" stroke="black" d="M545.45,-947.34C514.44,-935.79 469.97,-919.24 437.27,-907.06"/>
<polygon fill="black" stroke="black" points="438.68,-903.85 428.08,-903.64 436.23,-910.41 438.68,-903.85"/>
</g>
<!-- qt&#45;main&#45;&gt;ipe -->
<g id="edge48" class="edge">
<title>qt&#45;main&#45;&gt;ipe</title>
<path fill="none" stroke="black" d="M548.18,-946.77C529.82,-937.76 507.77,-924.66 492.14,-908 475.69,-890.45 463.84,-865.73 456.44,-846.8"/>
<polygon fill="black" stroke="black" points="459.78,-845.73 453.03,-837.56 453.21,-848.16 459.78,-845.73"/>
</g>
<!-- qt&#45;main&#45;&gt;rstudio -->
<g id="edge49" class="edge">
<title>qt&#45;main&#45;&gt;rstudio</title>
<path fill="none" stroke="black" d="M636.89,-953.99C700.92,-945.31 809.92,-929.07 902.14,-908 906.22,-907.07 910.43,-906.02 914.64,-904.9"/>
<polygon fill="black" stroke="black" points="915.5,-908.29 924.21,-902.25 913.64,-901.55 915.5,-908.29"/>
</g>
<!-- qt&#45;main&#45;&gt;vtk -->
<g id="edge50" class="edge">
<title>qt&#45;main&#45;&gt;vtk</title>
<path fill="none" stroke="black" d="M561.44,-944.6C550.63,-935.01 538.05,-922.04 530.14,-908 506.2,-865.47 496,-808.82 491.83,-775.3"/>
<polygon fill="black" stroke="black" points="495.33,-775.11 490.73,-765.57 488.38,-775.9 495.33,-775.11"/>
</g>
<!-- qt&#45;main&#45;&gt;simage -->
<g id="edge51" class="edge">
<title>qt&#45;main&#45;&gt;simage</title>
<path fill="none" stroke="black" d="M579.82,-943.54C573.48,-895.76 555.77,-762.51 547.95,-703.61"/>
<polygon fill="black" stroke="black" points="551.42,-703.18 546.63,-693.73 544.48,-704.11 551.42,-703.18"/>
</g>
<!-- qt&#45;main&#45;&gt;qtwebkit -->
<g id="edge52" class="edge">
<title>qt&#45;main&#45;&gt;qtwebkit</title>
<path fill="none" stroke="black" d="M638.13,-954.81C697.42,-947.1 785.65,-931.94 809.14,-908 837.47,-879.13 828.14,-859.45 828.14,-819 828.14,-819 828.14,-819 828.14,-745 828.14,-705.74 828.14,-660.38 828.14,-631.69"/>
<polygon fill="black" stroke="black" points="831.64,-632 828.14,-622 824.64,-632 831.64,-632"/>
</g>
<!-- qt&#45;main&#45;&gt;tomviz -->
<g id="edge53" class="edge">
<title>qt&#45;main&#45;&gt;tomviz</title>
<path fill="none" stroke="black" d="M617.34,-947C646.19,-935.53 687.08,-919.27 717.36,-907.22"/>
<polygon fill="black" stroke="black" points="718.59,-910.5 726.59,-903.55 716,-903.99 718.59,-910.5"/>
</g>
</g>
</svg>
