<?xml version="1.0" encoding="UTF-8" standalone="no"?>
<!DOCTYPE svg PUBLIC "-//W3C//DTD SVG 1.1//EN"
 "http://www.w3.org/Graphics/SVG/1.1/DTD/svg11.dtd">
<!-- Generated by graphviz version 7.1.0 (20230122.1345)
 -->
<!-- Pages: 1 -->
<svg width="1719pt" height="1096pt"
 viewBox="0.00 0.00 1718.64 1096.00" xmlns="http://www.w3.org/2000/svg" xmlns:xlink="http://www.w3.org/1999/xlink">
<g id="graph0" class="graph" transform="scale(1 1) rotate(0) translate(4 1092)">
<polygon fill="white" stroke="none" points="-4,4 -4,-1092 1714.64,-1092 1714.64,4 -4,4"/>
<!-- fig2dev -->
<g id="node1" class="node">
<title>fig2dev</title>
<g id="a_node1"><a xlink:href="https://github.com/conda-forge/fig2dev-feedstock/pull/8" xlink:title="fig2dev ❎">
<ellipse fill="#31688e" stroke="black" cx="1639.14" cy="-1070" rx="59.29" ry="18"/>
<text text-anchor="middle" x="1639.14" y="-1066.3" font-family="Times,serif" font-size="14.00" fill="white">fig2dev ❎</text>
</a>
</g>
</g>
<!-- imread -->
<g id="node2" class="node">
<title>imread</title>
<g id="a_node2"><a xlink:href="https://github.com/conda-forge/imread-feedstock" xlink:title="imread">
<ellipse fill="#ff8c00" stroke="black" cx="1639.14" cy="-998" rx="43.59" ry="18"/>
<text text-anchor="middle" x="1639.14" y="-994.3" font-family="Times,serif" font-size="14.00">imread</text>
</a>
</g>
</g>
<!-- fig2dev&#45;&gt;imread -->
<!-- libcdms -->
<g id="node8" class="node">
<title>libcdms</title>
<g id="a_node8"><a xlink:href="https://github.com/conda-forge/libcdms-feedstock" xlink:title="libcdms">
<ellipse fill="#ff8c00" stroke="black" cx="1639.14" cy="-926" rx="47" ry="18"/>
<text text-anchor="middle" x="1639.14" y="-922.3" font-family="Times,serif" font-size="14.00">libcdms</text>
</a>
</g>
</g>
<!-- imread&#45;&gt;libcdms -->
<!-- gdal -->
<g id="node3" class="node">
<title>gdal</title>
<g id="a_node3"><a xlink:href="https://github.com/conda-forge/gdal-feedstock" xlink:title="gdal">
<ellipse fill="#fde725" stroke="black" cx="285.14" cy="-746" rx="30.59" ry="18"/>
<text text-anchor="middle" x="285.14" y="-742.3" font-family="Times,serif" font-size="14.00">gdal</text>
</a>
</g>
</g>
<!-- ncl -->
<g id="node4" class="node">
<title>ncl</title>
<g id="a_node4"><a xlink:href="https://github.com/conda-forge/ncl-feedstock" xlink:title="ncl">
<ellipse fill="#fde725" stroke="black" cx="152.14" cy="-674" rx="27" ry="18"/>
<text text-anchor="middle" x="152.14" y="-670.3" font-family="Times,serif" font-size="14.00">ncl</text>
</a>
</g>
</g>
<!-- gdal&#45;&gt;ncl -->
<g id="edge2" class="edge">
<title>gdal&#45;&gt;ncl</title>
<path fill="none" stroke="black" d="M262.88,-733.28C240.98,-721.76 207.36,-704.06 182.91,-691.19"/>
<polygon fill="black" stroke="black" points="184.55,-688.1 174.07,-686.54 181.28,-694.29 184.55,-688.1"/>
</g>
<!-- mapserver -->
<g id="node5" class="node">
<title>mapserver</title>
<g id="a_node5"><a xlink:href="https://github.com/conda-forge/mapserver-feedstock" xlink:title="mapserver">
<ellipse fill="#fde725" stroke="black" cx="285.14" cy="-674" rx="60.5" ry="18"/>
<text text-anchor="middle" x="285.14" y="-670.3" font-family="Times,serif" font-size="14.00">mapserver</text>
</a>
</g>
</g>
<!-- gdal&#45;&gt;mapserver -->
<g id="edge3" class="edge">
<title>gdal&#45;&gt;mapserver</title>
<path fill="none" stroke="black" d="M285.14,-727.7C285.14,-720.41 285.14,-711.73 285.14,-703.54"/>
<polygon fill="black" stroke="black" points="288.64,-703.62 285.14,-693.62 281.64,-703.62 288.64,-703.62"/>
</g>
<!-- imagemagick -->
<g id="node6" class="node">
<title>imagemagick</title>
<g id="a_node6"><a xlink:href="https://github.com/conda-forge/imagemagick-feedstock" xlink:title="imagemagick">
<ellipse fill="#fde725" stroke="black" cx="72.14" cy="-818" rx="72.29" ry="18"/>
<text text-anchor="middle" x="72.14" y="-814.3" font-family="Times,serif" font-size="14.00">imagemagick</text>
</a>
</g>
</g>
<!-- imagemagick&#45;&gt;ncl -->
<g id="edge4" class="edge">
<title>imagemagick&#45;&gt;ncl</title>
<path fill="none" stroke="black" d="M81.79,-799.87C95.64,-775.3 121.24,-729.85 137.45,-701.08"/>
<polygon fill="black" stroke="black" points="140.35,-703.06 142.21,-692.63 134.25,-699.63 140.35,-703.06"/>
</g>
<!-- libvips -->
<g id="node7" class="node">
<title>libvips</title>
<g id="a_node7"><a xlink:href="https://github.com/conda-forge/libvips-feedstock" xlink:title="libvips">
<ellipse fill="#fde725" stroke="black" cx="180.14" cy="-746" rx="41.69" ry="18"/>
<text text-anchor="middle" x="180.14" y="-742.3" font-family="Times,serif" font-size="14.00">libvips</text>
</a>
</g>
</g>
<!-- imagemagick&#45;&gt;libvips -->
<g id="edge5" class="edge">
<title>imagemagick&#45;&gt;libvips</title>
<path fill="none" stroke="black" d="M97.19,-800.76C112.36,-790.93 131.86,-778.29 148.14,-767.74"/>
<polygon fill="black" stroke="black" points="150.04,-770.68 156.53,-762.31 146.23,-764.81 150.04,-770.68"/>
</g>
<!-- openmotif -->
<g id="node9" class="node">
<title>openmotif</title>
<g id="a_node9"><a xlink:href="https://github.com/conda-forge/openmotif-feedstock/pull/12" xlink:title="openmotif ❎">
<ellipse fill="#31688e" stroke="black" cx="1639.14" cy="-854" rx="71.5" ry="18"/>
<text text-anchor="middle" x="1639.14" y="-850.3" font-family="Times,serif" font-size="14.00" fill="white">openmotif ❎</text>
</a>
</g>
</g>
<!-- libcdms&#45;&gt;openmotif -->
<!-- tachyon -->
<g id="node20" class="node">
<title>tachyon</title>
<g id="a_node20"><a xlink:href="https://github.com/conda-forge/tachyon-feedstock/pull/5" xlink:title="tachyon ❎">
<ellipse fill="#31688e" stroke="black" cx="1639.14" cy="-782" rx="61.99" ry="18"/>
<text text-anchor="middle" x="1639.14" y="-778.3" font-family="Times,serif" font-size="14.00" fill="white">tachyon ❎</text>
</a>
</g>
</g>
<!-- openmotif&#45;&gt;tachyon -->
<!-- libgd -->
<g id="node10" class="node">
<title>libgd</title>
<g id="a_node10"><a xlink:href="https://github.com/conda-forge/libgd-feedstock/pull/49" xlink:title="libgd ✓">
<ellipse fill="#31688e" stroke="black" cx="159.14" cy="-890" rx="41.69" ry="18"/>
<text text-anchor="middle" x="159.14" y="-886.3" font-family="Times,serif" font-size="14.00" fill="white">libgd ✓</text>
</a>
</g>
</g>
<!-- libgd&#45;&gt;imagemagick -->
<g id="edge8" class="edge">
<title>libgd&#45;&gt;imagemagick</title>
<path fill="none" stroke="black" d="M140.27,-873.81C129.01,-864.75 114.46,-853.05 101.71,-842.79"/>
<polygon fill="black" stroke="black" points="103.97,-840.12 93.99,-836.58 99.59,-845.57 103.97,-840.12"/>
</g>
<!-- graphicsmagick -->
<g id="node11" class="node">
<title>graphicsmagick</title>
<g id="a_node11"><a xlink:href="https://github.com/conda-forge/graphicsmagick-feedstock" xlink:title="graphicsmagick">
<ellipse fill="#fde725" stroke="black" cx="246.14" cy="-818" rx="84" ry="18"/>
<text text-anchor="middle" x="246.14" y="-814.3" font-family="Times,serif" font-size="14.00">graphicsmagick</text>
</a>
</g>
</g>
<!-- libgd&#45;&gt;graphicsmagick -->
<g id="edge9" class="edge">
<title>libgd&#45;&gt;graphicsmagick</title>
<path fill="none" stroke="black" d="M178.02,-873.81C189.2,-864.82 203.62,-853.22 216.3,-843.01"/>
<polygon fill="black" stroke="black" points="218.39,-845.82 223.99,-836.83 214,-840.37 218.39,-845.82"/>
</g>
<!-- opencv -->
<g id="node12" class="node">
<title>opencv</title>
<g id="a_node12"><a xlink:href="https://github.com/conda-forge/opencv-feedstock" xlink:title="opencv">
<ellipse fill="#fde725" stroke="black" cx="686.14" cy="-818" rx="43.59" ry="18"/>
<text text-anchor="middle" x="686.14" y="-814.3" font-family="Times,serif" font-size="14.00">opencv</text>
</a>
</g>
</g>
<!-- yarp -->
<g id="node13" class="node">
<title>yarp</title>
<g id="a_node13"><a xlink:href="https://github.com/conda-forge/yarp-feedstock" xlink:title="yarp">
<ellipse fill="#fde725" stroke="black" cx="692.14" cy="-746" rx="32" ry="18"/>
<text text-anchor="middle" x="692.14" y="-742.3" font-family="Times,serif" font-size="14.00">yarp</text>
</a>
</g>
</g>
<!-- opencv&#45;&gt;yarp -->
<g id="edge10" class="edge">
<title>opencv&#45;&gt;yarp</title>
<path fill="none" stroke="black" d="M687.63,-799.7C688.25,-792.41 689,-783.73 689.7,-775.54"/>
<polygon fill="black" stroke="black" points="693.18,-775.87 690.55,-765.61 686.21,-775.28 693.18,-775.87"/>
</g>
<!-- openjdk -->
<g id="node14" class="node">
<title>openjdk</title>
<g id="a_node14"><a xlink:href="https://github.com/conda-forge/openjdk-feedstock/pull/115" xlink:title="openjdk ✓">
<ellipse fill="#31688e" stroke="black" cx="1068.14" cy="-890" rx="54.69" ry="18"/>
<text text-anchor="middle" x="1068.14" y="-886.3" font-family="Times,serif" font-size="14.00" fill="white">openjdk ✓</text>
</a>
</g>
</g>
<!-- tensorflow -->
<g id="node15" class="node">
<title>tensorflow</title>
<g id="a_node15"><a xlink:href="https://github.com/conda-forge/tensorflow-feedstock" xlink:title="tensorflow">
<ellipse fill="#fde725" stroke="black" cx="1024.14" cy="-818" rx="60" ry="18"/>
<text text-anchor="middle" x="1024.14" y="-814.3" font-family="Times,serif" font-size="14.00">tensorflow</text>
</a>
</g>
</g>
<!-- openjdk&#45;&gt;tensorflow -->
<g id="edge11" class="edge">
<title>openjdk&#45;&gt;tensorflow</title>
<path fill="none" stroke="black" d="M1057.49,-872.05C1052.47,-864.06 1046.35,-854.33 1040.74,-845.4"/>
<polygon fill="black" stroke="black" points="1043.79,-843.67 1035.5,-837.07 1037.86,-847.4 1043.79,-843.67"/>
</g>
<!-- swi&#45;prolog -->
<g id="node16" class="node">
<title>swi&#45;prolog</title>
<g id="a_node16"><a xlink:href="https://github.com/conda-forge/swi-prolog-feedstock" xlink:title="swi prolog">
<ellipse fill="#fde725" stroke="black" cx="1112.14" cy="-746" rx="59.29" ry="18"/>
<text text-anchor="middle" x="1112.14" y="-742.3" font-family="Times,serif" font-size="14.00">swi prolog</text>
</a>
</g>
</g>
<!-- openjdk&#45;&gt;swi&#45;prolog -->
<g id="edge12" class="edge">
<title>openjdk&#45;&gt;swi&#45;prolog</title>
<path fill="none" stroke="black" d="M1077.28,-872.23C1082.53,-862 1088.91,-848.53 1093.14,-836 1099.79,-816.3 1104.63,-793.33 1107.76,-775.66"/>
<polygon fill="black" stroke="black" points="1111.2,-776.31 1109.4,-765.87 1104.29,-775.15 1111.2,-776.31"/>
</g>
<!-- libpano13 -->
<g id="node17" class="node">
<title>libpano13</title>
<g id="a_node17"><a xlink:href="https://github.com/conda-forge/libpano13-feedstock" xlink:title="libpano13">
<ellipse fill="#fde725" stroke="black" cx="936.14" cy="-674" rx="56.59" ry="18"/>
<text text-anchor="middle" x="936.14" y="-670.3" font-family="Times,serif" font-size="14.00">libpano13</text>
</a>
</g>
</g>
<!-- openjdk&#45;&gt;libpano13 -->
<g id="edge13" class="edge">
<title>openjdk&#45;&gt;libpano13</title>
<path fill="none" stroke="black" d="M1023.53,-879.28C999.4,-871.64 971.31,-858.41 955.14,-836 927.01,-797 927.97,-738.34 931.72,-703.64"/>
<polygon fill="black" stroke="black" points="935.16,-704.29 932.93,-693.94 928.21,-703.43 935.16,-704.29"/>
</g>
<!-- rstudio -->
<g id="node18" class="node">
<title>rstudio</title>
<g id="a_node18"><a xlink:href="https://github.com/conda-forge/rstudio-feedstock" xlink:title="rstudio">
<ellipse fill="#fde725" stroke="black" cx="1184.14" cy="-818" rx="44.39" ry="18"/>
<text text-anchor="middle" x="1184.14" y="-814.3" font-family="Times,serif" font-size="14.00">rstudio</text>
</a>
</g>
</g>
<!-- openjdk&#45;&gt;rstudio -->
<g id="edge14" class="edge">
<title>openjdk&#45;&gt;rstudio</title>
<path fill="none" stroke="black" d="M1093.6,-873.64C1110.37,-863.52 1132.5,-850.16 1150.69,-839.19"/>
<polygon fill="black" stroke="black" points="1152.28,-842.32 1159.03,-834.15 1148.66,-836.32 1152.28,-842.32"/>
</g>
<!-- hugin -->
<g id="node19" class="node">
<title>hugin</title>
<g id="a_node19"><a xlink:href="https://github.com/conda-forge/hugin-feedstock" xlink:title="hugin">
<ellipse fill="#fde725" stroke="black" cx="936.14" cy="-602" rx="37.09" ry="18"/>
<text text-anchor="middle" x="936.14" y="-598.3" font-family="Times,serif" font-size="14.00">hugin</text>
</a>
</g>
</g>
<!-- libpano13&#45;&gt;hugin -->
<g id="edge15" class="edge">
<title>libpano13&#45;&gt;hugin</title>
<path fill="none" stroke="black" d="M936.14,-655.7C936.14,-648.41 936.14,-639.73 936.14,-631.54"/>
<polygon fill="black" stroke="black" points="939.64,-631.62 936.14,-621.62 932.64,-631.62 939.64,-631.62"/>
</g>
<!-- wxpython -->
<g id="node28" class="node">
<title>wxpython</title>
<g id="a_node28"><a xlink:href="https://github.com/conda-forge/wxpython-feedstock/pull/99" xlink:title="wxpython ❎">
<ellipse fill="#31688e" stroke="black" cx="1639.14" cy="-710" rx="70.39" ry="18"/>
<text text-anchor="middle" x="1639.14" y="-706.3" font-family="Times,serif" font-size="14.00" fill="white">wxpython ❎</text>
</a>
</g>
</g>
<!-- tachyon&#45;&gt;wxpython -->
<!-- paraview -->
<g id="node21" class="node">
<title>paraview</title>
<g id="a_node21"><a xlink:href="https://github.com/conda-forge/paraview-feedstock" xlink:title="paraview">
<ellipse fill="#fde725" stroke="black" cx="588.14" cy="-746" rx="53.5" ry="18"/>
<text text-anchor="middle" x="588.14" y="-742.3" font-family="Times,serif" font-size="14.00">paraview</text>
</a>
</g>
</g>
<!-- poppler -->
<g id="node22" class="node">
<title>poppler</title>
<g id="a_node22"><a xlink:href="https://github.com/conda-forge/poppler-feedstock" xlink:title="poppler">
<ellipse fill="#fde725" stroke="black" cx="394.14" cy="-818" rx="46.29" ry="18"/>
<text text-anchor="middle" x="394.14" y="-814.3" font-family="Times,serif" font-size="14.00">poppler</text>
</a>
</g>
</g>
<!-- poppler&#45;&gt;gdal -->
<g id="edge17" class="edge">
<title>poppler&#45;&gt;gdal</title>
<path fill="none" stroke="black" d="M370.76,-801.98C354.29,-791.41 332.13,-777.17 314.47,-765.84"/>
<polygon fill="black" stroke="black" points="316.77,-763.15 306.47,-760.7 312.99,-769.04 316.77,-763.15"/>
</g>
<!-- poppler&#45;&gt;libvips -->
<g id="edge18" class="edge">
<title>poppler&#45;&gt;libvips</title>
<path fill="none" stroke="black" d="M359.76,-805.75C322.72,-793.64 263.69,-774.33 223.49,-761.18"/>
<polygon fill="black" stroke="black" points="224.72,-757.9 214.13,-758.12 222.54,-764.55 224.72,-757.9"/>
</g>
<!-- ipe -->
<g id="node23" class="node">
<title>ipe</title>
<g id="a_node23"><a xlink:href="https://github.com/conda-forge/ipe-feedstock" xlink:title="ipe">
<ellipse fill="#fde725" stroke="black" cx="451.14" cy="-746" rx="27" ry="18"/>
<text text-anchor="middle" x="451.14" y="-742.3" font-family="Times,serif" font-size="14.00">ipe</text>
</a>
</g>
</g>
<!-- poppler&#45;&gt;ipe -->
<g id="edge19" class="edge">
<title>poppler&#45;&gt;ipe</title>
<path fill="none" stroke="black" d="M407.65,-800.41C414.84,-791.59 423.8,-780.58 431.72,-770.86"/>
<polygon fill="black" stroke="black" points="434.34,-773.18 437.94,-763.21 428.91,-768.76 434.34,-773.18"/>
</g>
<!-- sane -->
<g id="node24" class="node">
<title>sane</title>
<g id="a_node24"><a xlink:href="https://github.com/conda-forge/sane-feedstock" xlink:title="sane">
<ellipse fill="#fde725" stroke="black" cx="373.14" cy="-746" rx="32.5" ry="18"/>
<text text-anchor="middle" x="373.14" y="-742.3" font-family="Times,serif" font-size="14.00">sane</text>
</a>
</g>
</g>
<!-- poppler&#45;&gt;sane -->
<g id="edge20" class="edge">
<title>poppler&#45;&gt;sane</title>
<path fill="none" stroke="black" d="M388.95,-799.7C386.71,-792.24 384.04,-783.32 381.53,-774.97"/>
<polygon fill="black" stroke="black" points="384.94,-774.13 378.71,-765.55 378.23,-776.14 384.94,-774.13"/>
</g>
<!-- r&#45;base -->
<g id="node25" class="node">
<title>r&#45;base</title>
<g id="a_node25"><a xlink:href="https://github.com/conda-forge/r-base-feedstock/pull/239" xlink:title="r base ✓">
<ellipse fill="#31688e" stroke="black" cx="1256.14" cy="-890" rx="47" ry="18"/>
<text text-anchor="middle" x="1256.14" y="-886.3" font-family="Times,serif" font-size="14.00" fill="white">r base ✓</text>
</a>
</g>
</g>
<!-- r&#45;base&#45;&gt;rstudio -->
<g id="edge21" class="edge">
<title>r&#45;base&#45;&gt;rstudio</title>
<path fill="none" stroke="black" d="M1239.44,-872.76C1230.36,-863.93 1218.94,-852.83 1208.84,-843.01"/>
<polygon fill="black" stroke="black" points="1211.45,-840.66 1201.84,-836.2 1206.57,-845.68 1211.45,-840.66"/>
</g>
<!-- r&#45;ragg -->
<g id="node26" class="node">
<title>r&#45;ragg</title>
<g id="a_node26"><a xlink:href="https://github.com/conda-forge/r-ragg-feedstock" xlink:title="r ragg">
<ellipse fill="#fde725" stroke="black" cx="1324.14" cy="-818" rx="39.79" ry="18"/>
<text text-anchor="middle" x="1324.14" y="-814.3" font-family="Times,serif" font-size="14.00">r ragg</text>
</a>
</g>
</g>
<!-- r&#45;base&#45;&gt;r&#45;ragg -->
<g id="edge22" class="edge">
<title>r&#45;base&#45;&gt;r&#45;ragg</title>
<path fill="none" stroke="black" d="M1271.92,-872.76C1280.53,-863.89 1291.37,-852.74 1300.93,-842.89"/>
<polygon fill="black" stroke="black" points="1303.41,-845.36 1307.87,-835.75 1298.39,-840.49 1303.41,-845.36"/>
</g>
<!-- harp -->
<g id="node27" class="node">
<title>harp</title>
<g id="a_node27"><a xlink:href="https://github.com/conda-forge/harp-feedstock" xlink:title="harp">
<ellipse fill="#fde725" stroke="black" cx="1256.14" cy="-746" rx="32.5" ry="18"/>
<text text-anchor="middle" x="1256.14" y="-742.3" font-family="Times,serif" font-size="14.00">harp</text>
</a>
</g>
</g>
<!-- r&#45;base&#45;&gt;harp -->
<g id="edge23" class="edge">
<title>r&#45;base&#45;&gt;harp</title>
<path fill="none" stroke="black" d="M1256.14,-871.59C1256.14,-847.61 1256.14,-804.14 1256.14,-775.42"/>
<polygon fill="black" stroke="black" points="1259.64,-775.62 1256.14,-765.62 1252.64,-775.62 1259.64,-775.62"/>
</g>
<!-- xfig -->
<g id="node29" class="node">
<title>xfig</title>
<g id="a_node29"><a xlink:href="https://github.com/conda-forge/xfig-feedstock/pull/6" xlink:title="xfig ❎">
<ellipse fill="#31688e" stroke="black" cx="1639.14" cy="-638" rx="42.49" ry="18"/>
<text text-anchor="middle" x="1639.14" y="-634.3" font-family="Times,serif" font-size="14.00" fill="white">xfig ❎</text>
</a>
</g>
</g>
<!-- wxpython&#45;&gt;xfig -->
<!-- u3d -->
<g id="node30" class="node">
<title>u3d</title>
<g id="a_node30"><a xlink:href="https://github.com/conda-forge/u3d-feedstock/pull/23" xlink:title="u3d ❎">
<ellipse fill="#31688e" stroke="black" cx="1639.14" cy="-566" rx="42.49" ry="18"/>
<text text-anchor="middle" x="1639.14" y="-562.3" font-family="Times,serif" font-size="14.00" fill="white">u3d ❎</text>
</a>
</g>
</g>
<!-- xfig&#45;&gt;u3d -->
<!-- zbar -->
<g id="node31" class="node">
<title>zbar</title>
<g id="a_node31"><a xlink:href="https://github.com/conda-forge/zbar-feedstock/pull/3" xlink:title="zbar ❎">
<ellipse fill="#31688e" stroke="black" cx="1639.14" cy="-494" rx="45.5" ry="18"/>
<text text-anchor="middle" x="1639.14" y="-490.3" font-family="Times,serif" font-size="14.00" fill="white">zbar ❎</text>
</a>
</g>
</g>
<!-- u3d&#45;&gt;zbar -->
<!-- openimageio -->
<g id="node38" class="node">
<title>openimageio</title>
<g id="a_node38"><a xlink:href="https://github.com/conda-forge/openimageio-feedstock" xlink:title="openimageio">
<ellipse fill="#ff8c00" stroke="black" cx="1639.14" cy="-422" rx="69.59" ry="18"/>
<text text-anchor="middle" x="1639.14" y="-418.3" font-family="Times,serif" font-size="14.00">openimageio</text>
</a>
</g>
</g>
<!-- zbar&#45;&gt;openimageio -->
<!-- vtk -->
<g id="node32" class="node">
<title>vtk</title>
<g id="a_node32"><a xlink:href="https://github.com/conda-forge/vtk-feedstock" xlink:title="vtk">
<ellipse fill="#fde725" stroke="black" cx="641.14" cy="-674" rx="27" ry="18"/>
<text text-anchor="middle" x="641.14" y="-670.3" font-family="Times,serif" font-size="14.00">vtk</text>
</a>
</g>
</g>
<!-- gmsh -->
<g id="node33" class="node">
<title>gmsh</title>
<g id="a_node33"><a xlink:href="https://github.com/conda-forge/gmsh-feedstock" xlink:title="gmsh">
<ellipse fill="#fde725" stroke="black" cx="669.14" cy="-602" rx="36.5" ry="18"/>
<text text-anchor="middle" x="669.14" y="-598.3" font-family="Times,serif" font-size="14.00">gmsh</text>
</a>
</g>
</g>
<!-- vtk&#45;&gt;gmsh -->
<g id="edge28" class="edge">
<title>vtk&#45;&gt;gmsh</title>
<path fill="none" stroke="black" d="M647.78,-656.41C650.87,-648.68 654.64,-639.27 658.14,-630.52"/>
<polygon fill="black" stroke="black" points="661.33,-631.95 661.8,-621.36 654.84,-629.35 661.33,-631.95"/>
</g>
<!-- simage -->
<g id="node34" class="node">
<title>simage</title>
<g id="a_node34"><a xlink:href="https://github.com/conda-forge/simage-feedstock" xlink:title="simage">
<ellipse fill="#fde725" stroke="black" cx="796.14" cy="-602" rx="44.39" ry="18"/>
<text text-anchor="middle" x="796.14" y="-598.3" font-family="Times,serif" font-size="14.00">simage</text>
</a>
</g>
</g>
<!-- qtwebkit -->
<g id="node35" class="node">
<title>qtwebkit</title>
<g id="a_node35"><a xlink:href="https://github.com/conda-forge/qtwebkit-feedstock" xlink:title="qtwebkit">
<ellipse fill="#fde725" stroke="black" cx="506.14" cy="-530" rx="52" ry="18"/>
<text text-anchor="middle" x="506.14" y="-526.3" font-family="Times,serif" font-size="14.00">qtwebkit</text>
</a>
</g>
</g>
<!-- leptonica -->
<g id="node36" class="node">
<title>leptonica</title>
<g id="a_node36"><a xlink:href="https://github.com/conda-forge/leptonica-feedstock" xlink:title="leptonica">
<ellipse fill="#ff8c00" stroke="black" cx="1639.14" cy="-198" rx="53.5" ry="18"/>
<text text-anchor="middle" x="1639.14" y="-194.3" font-family="Times,serif" font-size="14.00">leptonica</text>
</a>
</g>
</g>
<!-- tesseract -->
<g id="node37" class="node">
<title>tesseract</title>
<g id="a_node37"><a xlink:href="https://github.com/conda-forge/tesseract-feedstock" xlink:title="tesseract">
<ellipse fill="#fde725" stroke="black" cx="1639.14" cy="-126" rx="54" ry="18"/>
<text text-anchor="middle" x="1639.14" y="-122.3" font-family="Times,serif" font-size="14.00">tesseract</text>
</a>
</g>
</g>
<!-- leptonica&#45;&gt;tesseract -->
<g id="edge29" class="edge">
<title>leptonica&#45;&gt;tesseract</title>
<path fill="none" stroke="black" d="M1639.14,-179.7C1639.14,-172.41 1639.14,-163.73 1639.14,-155.54"/>
<polygon fill="black" stroke="black" points="1642.64,-155.62 1639.14,-145.62 1635.64,-155.62 1642.64,-155.62"/>
</g>
<!-- accimage -->
<g id="node40" class="node">
<title>accimage</title>
<g id="a_node40"><a xlink:href="https://github.com/conda-forge/accimage-feedstock/pull/12" xlink:title="accimage ✓">
<ellipse fill="#31688e" stroke="black" cx="1639.14" cy="-350" rx="61.99" ry="18"/>
<text text-anchor="middle" x="1639.14" y="-346.3" font-family="Times,serif" font-size="14.00" fill="white">accimage ✓</text>
</a>
</g>
</g>
<!-- openimageio&#45;&gt;accimage -->
<!-- fltk -->
<g id="node39" class="node">
<title>fltk</title>
<g id="a_node39"><a xlink:href="https://github.com/conda-forge/fltk-feedstock/pull/16" xlink:title="fltk ❎">
<ellipse fill="#31688e" stroke="black" cx="727.14" cy="-674" rx="40.5" ry="18"/>
<text text-anchor="middle" x="727.14" y="-670.3" font-family="Times,serif" font-size="14.00" fill="white">fltk ❎</text>
</a>
</g>
</g>
<!-- fltk&#45;&gt;gmsh -->
<g id="edge31" class="edge">
<title>fltk&#45;&gt;gmsh</title>
<path fill="none" stroke="black" d="M713.69,-656.76C706.59,-648.19 697.72,-637.49 689.78,-627.9"/>
<polygon fill="black" stroke="black" points="692.56,-625.78 683.49,-620.31 687.17,-630.25 692.56,-625.78"/>
</g>
<!-- nexus -->
<g id="node41" class="node">
<title>nexus</title>
<g id="a_node41"><a xlink:href="https://github.com/conda-forge/nexus-feedstock/pull/11" xlink:title="nexus ✓">
<ellipse fill="#31688e" stroke="black" cx="1466.14" cy="-1070" rx="45.5" ry="18"/>
<text text-anchor="middle" x="1466.14" y="-1066.3" font-family="Times,serif" font-size="14.00" fill="white">nexus ✓</text>
</a>
</g>
</g>
<!-- vega&#45;cli -->
<g id="node42" class="node">
<title>vega&#45;cli</title>
<g id="a_node42"><a xlink:href="https://github.com/conda-forge/vega-cli-feedstock/pull/24" xlink:title="vega cli ❎">
<ellipse fill="#31688e" stroke="black" cx="1466.14" cy="-998" rx="60.5" ry="18"/>
<text text-anchor="middle" x="1466.14" y="-994.3" font-family="Times,serif" font-size="14.00" fill="white">vega cli ❎</text>
</a>
</g>
</g>
<!-- nexus&#45;&gt;vega&#45;cli -->
<!-- dlib&#45;cpp -->
<g id="node43" class="node">
<title>dlib&#45;cpp</title>
<g id="a_node43"><a xlink:href="https://github.com/conda-forge/dlib-cpp-feedstock/pull/19" xlink:title="dlib cpp ❎">
<ellipse fill="#31688e" stroke="black" cx="1466.14" cy="-926" rx="61.99" ry="18"/>
<text text-anchor="middle" x="1466.14" y="-922.3" font-family="Times,serif" font-size="14.00" fill="white">dlib cpp ❎</text>
</a>
</g>
</g>
<!-- vega&#45;cli&#45;&gt;dlib&#45;cpp -->
<!-- fitstools -->
<g id="node44" class="node">
<title>fitstools</title>
<g id="a_node44"><a xlink:href="https://github.com/conda-forge/fitstools-feedstock/pull/5" xlink:title="fitstools ❎">
<ellipse fill="#31688e" stroke="black" cx="1466.14" cy="-854" rx="61.99" ry="18"/>
<text text-anchor="middle" x="1466.14" y="-850.3" font-family="Times,serif" font-size="14.00" fill="white">fitstools ❎</text>
</a>
</g>
</g>
<!-- dlib&#45;cpp&#45;&gt;fitstools -->
<!-- gnuastro -->
<g id="node45" class="node">
<title>gnuastro</title>
<g id="a_node45"><a xlink:href="https://github.com/conda-forge/gnuastro-feedstock/pull/27" xlink:title="gnuastro ✓">
<ellipse fill="#31688e" stroke="black" cx="1466.14" cy="-782" rx="60" ry="18"/>
<text text-anchor="middle" x="1466.14" y="-778.3" font-family="Times,serif" font-size="14.00" fill="white">gnuastro ✓</text>
</a>
</g>
</g>
<!-- fitstools&#45;&gt;gnuastro -->
<!-- openscenegraph -->
<g id="node48" class="node">
<title>openscenegraph</title>
<g id="a_node48"><a xlink:href="https://github.com/conda-forge/openscenegraph-feedstock/pull/24" xlink:title="openscenegraph ✓">
<ellipse fill="#31688e" stroke="black" cx="1466.14" cy="-710" rx="94.48" ry="18"/>
<text text-anchor="middle" x="1466.14" y="-706.3" font-family="Times,serif" font-size="14.00" fill="white">openscenegraph ✓</text>
</a>
</g>
</g>
<!-- gnuastro&#45;&gt;openscenegraph -->
<!-- netpbm -->
<g id="node46" class="node">
<title>netpbm</title>
<g id="a_node46"><a xlink:href="https://github.com/conda-forge/netpbm-feedstock/pull/24" xlink:title="netpbm ❎">
<ellipse fill="#31688e" stroke="black" cx="1466.14" cy="-198" rx="60.5" ry="18"/>
<text text-anchor="middle" x="1466.14" y="-194.3" font-family="Times,serif" font-size="14.00" fill="white">netpbm ❎</text>
</a>
</g>
</g>
<!-- astrometry -->
<g id="node47" class="node">
<title>astrometry</title>
<g id="a_node47"><a xlink:href="https://github.com/conda-forge/astrometry-feedstock" xlink:title="astrometry">
<ellipse fill="#fde725" stroke="black" cx="1466.14" cy="-126" rx="62.5" ry="18"/>
<text text-anchor="middle" x="1466.14" y="-122.3" font-family="Times,serif" font-size="14.00">astrometry</text>
</a>
</g>
</g>
<!-- netpbm&#45;&gt;astrometry -->
<g id="edge37" class="edge">
<title>netpbm&#45;&gt;astrometry</title>
<path fill="none" stroke="black" d="M1466.14,-179.7C1466.14,-172.41 1466.14,-163.73 1466.14,-155.54"/>
<polygon fill="black" stroke="black" points="1469.64,-155.62 1466.14,-145.62 1462.64,-155.62 1469.64,-155.62"/>
</g>
<!-- panda3d -->
<g id="node49" class="node">
<title>panda3d</title>
<g id="a_node49"><a xlink:href="https://github.com/conda-forge/panda3d-feedstock/pull/28" xlink:title="panda3d ✓">
<ellipse fill="#31688e" stroke="black" cx="1466.14" cy="-638" rx="58" ry="18"/>
<text text-anchor="middle" x="1466.14" y="-634.3" font-family="Times,serif" font-size="14.00" fill="white">panda3d ✓</text>
</a>
</g>
</g>
<!-- openscenegraph&#45;&gt;panda3d -->
<!-- cpptango -->
<g id="node50" class="node">
<title>cpptango</title>
<g id="a_node50"><a xlink:href="https://github.com/conda-forge/cpptango-feedstock/pull/21" xlink:title="cpptango ✓">
<ellipse fill="#31688e" stroke="black" cx="1466.14" cy="-566" rx="61.19" ry="18"/>
<text text-anchor="middle" x="1466.14" y="-562.3" font-family="Times,serif" font-size="14.00" fill="white">cpptango ✓</text>
</a>
</g>
</g>
<!-- panda3d&#45;&gt;cpptango -->
<!-- irrlicht -->
<g id="node51" class="node">
<title>irrlicht</title>
<g id="a_node51"><a xlink:href="https://github.com/conda-forge/irrlicht-feedstock/pull/10" xlink:title="irrlicht ❎">
<ellipse fill="#31688e" stroke="black" cx="1466.14" cy="-494" rx="57.39" ry="18"/>
<text text-anchor="middle" x="1466.14" y="-490.3" font-family="Times,serif" font-size="14.00" fill="white">irrlicht ❎</text>
</a>
</g>
</g>
<!-- cpptango&#45;&gt;irrlicht -->
<!-- vscode&#45;python -->
<g id="node53" class="node">
<title>vscode&#45;python</title>
<g id="a_node53"><a xlink:href="https://github.com/conda-forge/vscode-python-feedstock/pull/37" xlink:title="vscode python ✓">
<ellipse fill="#31688e" stroke="black" cx="1466.14" cy="-422" rx="85.29" ry="18"/>
<text text-anchor="middle" x="1466.14" y="-418.3" font-family="Times,serif" font-size="14.00" fill="white">vscode python ✓</text>
</a>
</g>
</g>
<!-- irrlicht&#45;&gt;vscode&#45;python -->
<!-- tomviz -->
<g id="node52" class="node">
<title>tomviz</title>
<g id="a_node52"><a xlink:href="https://github.com/conda-forge/tomviz-feedstock" xlink:title="tomviz">
<ellipse fill="#fde725" stroke="black" cx="866.14" cy="-818" rx="42.49" ry="18"/>
<text text-anchor="middle" x="866.14" y="-814.3" font-family="Times,serif" font-size="14.00">tomviz</text>
</a>
</g>
</g>
<!-- gtk4 -->
<g id="node54" class="node">
<title>gtk4</title>
<g id="a_node54"><a xlink:href="https://github.com/conda-forge/gtk4-feedstock/pull/33" xlink:title="gtk4 ❎">
<ellipse fill="#31688e" stroke="black" cx="1466.14" cy="-350" rx="46.29" ry="18"/>
<text text-anchor="middle" x="1466.14" y="-346.3" font-family="Times,serif" font-size="14.00" fill="white">gtk4 ❎</text>
</a>
</g>
</g>
<!-- vscode&#45;python&#45;&gt;gtk4 -->
<!-- xforms -->
<g id="node55" class="node">
<title>xforms</title>
<g id="a_node55"><a xlink:href="https://github.com/conda-forge/xforms-feedstock/pull/2" xlink:title="xforms ❎">
<ellipse fill="#31688e" stroke="black" cx="681.14" cy="-306" rx="57.39" ry="18"/>
<text text-anchor="middle" x="681.14" y="-302.3" font-family="Times,serif" font-size="14.00" fill="white">xforms ❎</text>
</a>
</g>
</g>
<!-- podofo -->
<g id="node56" class="node">
<title>podofo</title>
<g id="a_node56"><a xlink:href="https://github.com/conda-forge/podofo-feedstock/pull/4" xlink:title="podofo ✓">
<ellipse fill="#31688e" stroke="black" cx="681.14" cy="-234" rx="49.5" ry="18"/>
<text text-anchor="middle" x="681.14" y="-230.3" font-family="Times,serif" font-size="14.00" fill="white">podofo ✓</text>
</a>
</g>
</g>
<!-- xforms&#45;&gt;podofo -->
<!-- djvulibre -->
<g id="node57" class="node">
<title>djvulibre</title>
<g id="a_node57"><a xlink:href="https://github.com/conda-forge/djvulibre-feedstock/pull/2" xlink:title="djvulibre ✓">
<ellipse fill="#31688e" stroke="black" cx="681.14" cy="-162" rx="60" ry="18"/>
<text text-anchor="middle" x="681.14" y="-158.3" font-family="Times,serif" font-size="14.00" fill="white">djvulibre ✓</text>
</a>
</g>
</g>
<!-- podofo&#45;&gt;djvulibre -->
<!-- nd2 -->
<g id="node58" class="node">
<title>nd2</title>
<g id="a_node58"><a xlink:href="https://github.com/conda-forge/nd2-feedstock" xlink:title="nd2">
<ellipse fill="#ff8c00" stroke="black" cx="681.14" cy="-90" rx="28.7" ry="18"/>
<text text-anchor="middle" x="681.14" y="-86.3" font-family="Times,serif" font-size="14.00">nd2</text>
</a>
</g>
</g>
<!-- djvulibre&#45;&gt;nd2 -->
<!-- diplib -->
<g id="node60" class="node">
<title>diplib</title>
<g id="a_node60"><a xlink:href="https://github.com/conda-forge/diplib-feedstock" xlink:title="diplib">
<ellipse fill="#ff8c00" stroke="black" cx="681.14" cy="-18" rx="37.09" ry="18"/>
<text text-anchor="middle" x="681.14" y="-14.3" font-family="Times,serif" font-size="14.00">diplib</text>
</a>
</g>
</g>
<!-- nd2&#45;&gt;diplib -->
<!-- qt&#45;main -->
<g id="node59" class="node">
<title>qt&#45;main</title>
<g id="a_node59"><a xlink:href="https://github.com/conda-forge/qt-main-feedstock/pull/130" xlink:title="qt main ❎">
<ellipse fill="#31688e" stroke="black" cx="614.14" cy="-890" rx="60.5" ry="18"/>
<text text-anchor="middle" x="614.14" y="-886.3" font-family="Times,serif" font-size="14.00" fill="white">qt main ❎</text>
</a>
</g>
</g>
<!-- qt&#45;main&#45;&gt;graphicsmagick -->
<g id="edge47" class="edge">
<title>qt&#45;main&#45;&gt;graphicsmagick</title>
<path fill="none" stroke="black" d="M564.13,-879.49C500.8,-867.44 391.22,-846.6 318.7,-832.8"/>
<polygon fill="black" stroke="black" points="319.35,-829.36 308.87,-830.93 318.04,-836.24 319.35,-829.36"/>
</g>
<!-- qt&#45;main&#45;&gt;opencv -->
<g id="edge48" class="edge">
<title>qt&#45;main&#45;&gt;opencv</title>
<path fill="none" stroke="black" d="M631.21,-872.41C640.3,-863.57 651.66,-852.53 661.67,-842.79"/>
<polygon fill="black" stroke="black" points="663.88,-845.52 668.61,-836.04 659,-840.5 663.88,-845.52"/>
</g>
<!-- qt&#45;main&#45;&gt;yarp -->
<g id="edge49" class="edge">
<title>qt&#45;main&#45;&gt;yarp</title>
<path fill="none" stroke="black" d="M614.69,-871.81C615.97,-853.01 620.09,-822.56 633.14,-800 640.53,-787.24 652.05,-775.89 662.96,-767"/>
<polygon fill="black" stroke="black" points="664.89,-769.93 670.68,-761.05 660.62,-764.38 664.89,-769.93"/>
</g>
<!-- qt&#45;main&#45;&gt;rstudio -->
<g id="edge50" class="edge">
<title>qt&#45;main&#45;&gt;rstudio</title>
<path fill="none" stroke="black" d="M671.83,-884.02C762,-875.91 941.69,-858.49 1093.14,-836 1106.56,-834.01 1121.01,-831.48 1134.37,-828.99"/>
<polygon fill="black" stroke="black" points="1134.62,-832.51 1143.79,-827.2 1133.32,-825.63 1134.62,-832.51"/>
</g>
<!-- qt&#45;main&#45;&gt;paraview -->
<g id="edge51" class="edge">
<title>qt&#45;main&#45;&gt;paraview</title>
<path fill="none" stroke="black" d="M609.06,-871.94C606.13,-861.61 602.55,-848.13 600.14,-836 596.14,-815.87 593.09,-792.91 591.06,-775.36"/>
<polygon fill="black" stroke="black" points="594.56,-775.22 589.98,-765.67 587.61,-775.99 594.56,-775.22"/>
</g>
<!-- qt&#45;main&#45;&gt;poppler -->
<g id="edge52" class="edge">
<title>qt&#45;main&#45;&gt;poppler</title>
<path fill="none" stroke="black" d="M573.79,-876.16C536,-864.14 479.58,-846.18 440.08,-833.62"/>
<polygon fill="black" stroke="black" points="441.2,-830.3 430.61,-830.6 439.07,-836.97 441.2,-830.3"/>
</g>
<!-- qt&#45;main&#45;&gt;ipe -->
<g id="edge53" class="edge">
<title>qt&#45;main&#45;&gt;ipe</title>
<path fill="none" stroke="black" d="M568.4,-877.81C543.3,-869.71 513.11,-856.51 492.14,-836 475.15,-819.37 464.49,-794.37 458.31,-775.09"/>
<polygon fill="black" stroke="black" points="461.72,-774.28 455.53,-765.69 455.01,-776.27 461.72,-774.28"/>
</g>
<!-- qt&#45;main&#45;&gt;vtk -->
<g id="edge54" class="edge">
<title>qt&#45;main&#45;&gt;vtk</title>
<path fill="none" stroke="black" d="M666.7,-880.7C693.17,-873.57 723.01,-860.37 739.14,-836 749.4,-820.51 744.4,-745.74 733.14,-728 729.37,-722.05 697.27,-704.3 672.04,-690.96"/>
<polygon fill="black" stroke="black" points="673.91,-687.99 663.43,-686.45 670.66,-694.19 673.91,-687.99"/>
</g>
<!-- qt&#45;main&#45;&gt;simage -->
<g id="edge55" class="edge">
<title>qt&#45;main&#45;&gt;simage</title>
<path fill="none" stroke="black" d="M668.61,-881.82C698.52,-875.01 733.77,-861.76 755.14,-836 804.25,-776.83 803.46,-679.6 799.49,-631.62"/>
<polygon fill="black" stroke="black" points="802.99,-631.39 798.56,-621.77 796.02,-632.06 802.99,-631.39"/>
</g>
<!-- qt&#45;main&#45;&gt;qtwebkit -->
<g id="edge56" class="edge">
<title>qt&#45;main&#45;&gt;qtwebkit</title>
<path fill="none" stroke="black" d="M590.44,-873.04C558.65,-849.51 506.14,-802.29 506.14,-747 506.14,-747 506.14,-747 506.14,-673 506.14,-633.74 506.14,-588.38 506.14,-559.69"/>
<polygon fill="black" stroke="black" points="509.64,-560 506.14,-550 502.64,-560 509.64,-560"/>
</g>
<!-- qt&#45;main&#45;&gt;tomviz -->
<g id="edge57" class="edge">
<title>qt&#45;main&#45;&gt;tomviz</title>
<path fill="none" stroke="black" d="M658.62,-877.39C698.42,-866.9 758.3,-850.87 810.14,-836 813.87,-834.93 817.73,-833.8 821.6,-832.66"/>
<polygon fill="black" stroke="black" points="822.41,-836.07 830.98,-829.85 820.4,-829.36 822.41,-836.07"/>
</g>
</g>
</svg>
