<?xml version="1.0" encoding="UTF-8" standalone="no"?>
<!DOCTYPE svg PUBLIC "-//W3C//DTD SVG 1.1//EN"
 "http://www.w3.org/Graphics/SVG/1.1/DTD/svg11.dtd">
<!-- Generated by graphviz version 8.1.0 (20230707.2238)
 -->
<!-- Pages: 1 -->
<svg width="854pt" height="664pt"
 viewBox="0.00 0.00 853.81 664.00" xmlns="http://www.w3.org/2000/svg" xmlns:xlink="http://www.w3.org/1999/xlink">
<g id="graph0" class="graph" transform="scale(1 1) rotate(0) translate(4 660)">
<polygon fill="white" stroke="none" points="-4,4 -4,-660 849.81,-660 849.81,4 -4,4"/>
<!-- cyrus&#45;sasl -->
<g id="node1" class="node">
<title>cyrus&#45;sasl</title>
<g id="a_node1"><a xlink:href="https://github.com/conda-forge/cyrus-sasl-feedstock/pull/25" xlink:title="cyrus sasl ✓">
<ellipse fill="#31688e" stroke="black" cx="202.47" cy="-494" rx="69.1" ry="18"/>
<text text-anchor="middle" x="202.47" y="-489.32" font-family="Times,serif" font-size="14.00" fill="white">cyrus sasl ✓</text>
</a>
</g>
</g>
<!-- nds2&#45;client -->
<g id="node2" class="node">
<title>nds2&#45;client</title>
<g id="a_node2"><a xlink:href="https://github.com/conda-forge/nds2-client-feedstock" xlink:title="nds2 client">
<ellipse fill="#fde725" stroke="black" cx="66.47" cy="-422" rx="66.47" ry="18"/>
<text text-anchor="middle" x="66.47" y="-417.32" font-family="Times,serif" font-size="14.00">nds2 client</text>
</a>
</g>
</g>
<!-- cyrus&#45;sasl&#45;&gt;nds2&#45;client -->
<g id="edge1" class="edge">
<title>cyrus&#45;sasl&#45;&gt;nds2&#45;client</title>
<path fill="none" stroke="black" d="M172.28,-477.46C152.83,-467.45 127.32,-454.32 106.22,-443.46"/>
<polygon fill="black" stroke="black" points="108.06,-439.96 97.57,-438.49 104.85,-446.18 108.06,-439.96"/>
</g>
<!-- openldap -->
<g id="node3" class="node">
<title>openldap</title>
<g id="a_node3"><a xlink:href="https://github.com/conda-forge/openldap-feedstock" xlink:title="openldap">
<ellipse fill="#fde725" stroke="black" cx="245.47" cy="-422" rx="57" ry="18"/>
<text text-anchor="middle" x="245.47" y="-417.32" font-family="Times,serif" font-size="14.00">openldap</text>
</a>
</g>
</g>
<!-- cyrus&#45;sasl&#45;&gt;openldap -->
<g id="edge2" class="edge">
<title>cyrus&#45;sasl&#45;&gt;openldap</title>
<path fill="none" stroke="black" d="M212.88,-476.05C217.84,-467.97 223.89,-458.12 229.43,-449.11"/>
<polygon fill="black" stroke="black" points="232.9,-451.14 235.15,-440.79 226.94,-447.48 232.9,-451.14"/>
</g>
<!-- myproxy -->
<g id="node4" class="node">
<title>myproxy</title>
<g id="a_node4"><a xlink:href="https://github.com/conda-forge/myproxy-feedstock" xlink:title="myproxy">
<ellipse fill="#fde725" stroke="black" cx="121.47" cy="-350" rx="54.89" ry="18"/>
<text text-anchor="middle" x="121.47" y="-345.32" font-family="Times,serif" font-size="14.00">myproxy</text>
</a>
</g>
</g>
<!-- cyrus&#45;sasl&#45;&gt;myproxy -->
<g id="edge3" class="edge">
<title>cyrus&#45;sasl&#45;&gt;myproxy</title>
<path fill="none" stroke="black" d="M192.7,-475.87C178.77,-451.46 153.08,-406.43 136.66,-377.64"/>
<polygon fill="black" stroke="black" points="139.27,-376.14 131.27,-369.19 133.19,-379.61 139.27,-376.14"/>
</g>
<!-- arcticdb -->
<g id="node5" class="node">
<title>arcticdb</title>
<g id="a_node5"><a xlink:href="https://github.com/conda-forge/arcticdb-feedstock" xlink:title="arcticdb">
<ellipse fill="#fde725" stroke="black" cx="404.47" cy="-350" rx="52.26" ry="18"/>
<text text-anchor="middle" x="404.47" y="-345.32" font-family="Times,serif" font-size="14.00">arcticdb</text>
</a>
</g>
</g>
<!-- cyrus&#45;sasl&#45;&gt;arcticdb -->
<g id="edge4" class="edge">
<title>cyrus&#45;sasl&#45;&gt;arcticdb</title>
<path fill="none" stroke="black" d="M239.63,-478.37C261.47,-468.95 289.1,-455.57 311.47,-440 338.31,-421.32 364.86,-394.91 382.67,-375.72"/>
<polygon fill="black" stroke="black" points="384.82,-378.46 388.98,-368.72 379.65,-373.74 384.82,-378.46"/>
</g>
<!-- openldap&#45;&gt;myproxy -->
<g id="edge5" class="edge">
<title>openldap&#45;&gt;myproxy</title>
<path fill="none" stroke="black" d="M218.56,-405.81C200.77,-395.77 177.23,-382.48 157.78,-371.5"/>
<polygon fill="black" stroke="black" points="159.75,-368.03 149.32,-366.16 156.31,-374.12 159.75,-368.03"/>
</g>
<!-- lighttpd -->
<g id="node6" class="node">
<title>lighttpd</title>
<g id="a_node6"><a xlink:href="https://github.com/conda-forge/lighttpd-feedstock" xlink:title="lighttpd">
<ellipse fill="#fde725" stroke="black" cx="245.47" cy="-350" rx="51.21" ry="18"/>
<text text-anchor="middle" x="245.47" y="-345.32" font-family="Times,serif" font-size="14.00">lighttpd</text>
</a>
</g>
</g>
<!-- openldap&#45;&gt;lighttpd -->
<g id="edge6" class="edge">
<title>openldap&#45;&gt;lighttpd</title>
<path fill="none" stroke="black" d="M245.47,-403.7C245.47,-396.24 245.47,-387.32 245.47,-378.97"/>
<polygon fill="black" stroke="black" points="248.97,-379.1 245.47,-369.1 241.97,-379.1 248.97,-379.1"/>
</g>
<!-- htcondor -->
<g id="node7" class="node">
<title>htcondor</title>
<g id="a_node7"><a xlink:href="https://github.com/conda-forge/htcondor-feedstock" xlink:title="htcondor">
<ellipse fill="#fde725" stroke="black" cx="324.47" cy="-278" rx="55.94" ry="18"/>
<text text-anchor="middle" x="324.47" y="-273.32" font-family="Times,serif" font-size="14.00">htcondor</text>
</a>
</g>
</g>
<!-- openldap&#45;&gt;htcondor -->
<g id="edge7" class="edge">
<title>openldap&#45;&gt;htcondor</title>
<path fill="none" stroke="black" d="M269.64,-405.35C282.19,-395.99 296.7,-383 305.47,-368 316.31,-349.45 320.99,-325.49 323,-307.11"/>
<polygon fill="black" stroke="black" points="326.57,-307.48 323.96,-297.21 319.6,-306.87 326.57,-307.48"/>
</g>
<!-- freetds -->
<g id="node8" class="node">
<title>freetds</title>
<g id="a_node8"><a xlink:href="https://github.com/conda-forge/freetds-feedstock/pull/30" xlink:title="freetds ✓">
<ellipse fill="#31688e" stroke="black" cx="546.47" cy="-638" rx="54.89" ry="18"/>
<text text-anchor="middle" x="546.47" y="-633.33" font-family="Times,serif" font-size="14.00" fill="white">freetds ✓</text>
</a>
</g>
</g>
<!-- postgres&#45;xl -->
<g id="node9" class="node">
<title>postgres&#45;xl</title>
<g id="a_node9"><a xlink:href="https://github.com/conda-forge/postgres-xl-feedstock/pull/12" xlink:title="postgres xl ❎">
<ellipse fill="#31688e" stroke="black" cx="546.47" cy="-566" rx="82.25" ry="18"/>
<text text-anchor="middle" x="546.47" y="-561.33" font-family="Times,serif" font-size="14.00" fill="white">postgres xl ❎</text>
</a>
</g>
</g>
<!-- freetds&#45;&gt;postgres&#45;xl -->
<!-- mongo&#45;tools -->
<g id="node12" class="node">
<title>mongo&#45;tools</title>
<g id="a_node12"><a xlink:href="https://github.com/conda-forge/mongo-tools-feedstock/pull/40" xlink:title="mongo tools ✓">
<ellipse fill="#31688e" stroke="black" cx="546.47" cy="-494" rx="80.14" ry="18"/>
<text text-anchor="middle" x="546.47" y="-489.32" font-family="Times,serif" font-size="14.00" fill="white">mongo tools ✓</text>
</a>
</g>
</g>
<!-- postgres&#45;xl&#45;&gt;mongo&#45;tools -->
<!-- libgsasl -->
<g id="node10" class="node">
<title>libgsasl</title>
<g id="a_node10"><a xlink:href="https://github.com/conda-forge/libgsasl-feedstock/pull/28" xlink:title="libgsasl ❎">
<ellipse fill="#31688e" stroke="black" cx="228.47" cy="-90" rx="64.89" ry="18"/>
<text text-anchor="middle" x="228.47" y="-85.33" font-family="Times,serif" font-size="14.00" fill="white">libgsasl ❎</text>
</a>
</g>
</g>
<!-- libhdfs3 -->
<g id="node11" class="node">
<title>libhdfs3</title>
<g id="a_node11"><a xlink:href="https://github.com/conda-forge/libhdfs3-feedstock" xlink:title="libhdfs3">
<ellipse fill="#fde725" stroke="black" cx="228.47" cy="-18" rx="51.74" ry="18"/>
<text text-anchor="middle" x="228.47" y="-13.32" font-family="Times,serif" font-size="14.00">libhdfs3</text>
</a>
</g>
</g>
<!-- libgsasl&#45;&gt;libhdfs3 -->
<g id="edge9" class="edge">
<title>libgsasl&#45;&gt;libhdfs3</title>
<path fill="none" stroke="black" d="M228.47,-71.7C228.47,-64.24 228.47,-55.32 228.47,-46.97"/>
<polygon fill="black" stroke="black" points="231.97,-47.1 228.47,-37.1 224.97,-47.1 231.97,-47.1"/>
</g>
<!-- libssh -->
<g id="node13" class="node">
<title>libssh</title>
<g id="a_node13"><a xlink:href="https://github.com/conda-forge/libssh-feedstock/pull/20" xlink:title="libssh ❎">
<ellipse fill="#31688e" stroke="black" cx="546.47" cy="-422" rx="55.94" ry="18"/>
<text text-anchor="middle" x="546.47" y="-417.32" font-family="Times,serif" font-size="14.00" fill="white">libssh ❎</text>
</a>
</g>
</g>
<!-- mongo&#45;tools&#45;&gt;libssh -->
<!-- openshift&#45;cli -->
<g id="node14" class="node">
<title>openshift&#45;cli</title>
<g id="a_node14"><a xlink:href="https://github.com/conda-forge/openshift-cli-feedstock" xlink:title="openshift cli">
<ellipse fill="#ff8c00" stroke="black" cx="546.47" cy="-350" rx="72.78" ry="18"/>
<text text-anchor="middle" x="546.47" y="-345.32" font-family="Times,serif" font-size="14.00">openshift cli</text>
</a>
</g>
</g>
<!-- libssh&#45;&gt;openshift&#45;cli -->
<!-- libtiledb&#45;sql -->
<g id="node15" class="node">
<title>libtiledb&#45;sql</title>
<g id="a_node15"><a xlink:href="https://github.com/conda-forge/libtiledb-sql-feedstock" xlink:title="libtiledb sql">
<ellipse fill="#ff8c00" stroke="black" cx="546.47" cy="-278" rx="70.68" ry="18"/>
<text text-anchor="middle" x="546.47" y="-273.32" font-family="Times,serif" font-size="14.00">libtiledb sql</text>
</a>
</g>
</g>
<!-- openshift&#45;cli&#45;&gt;libtiledb&#45;sql -->
<!-- openconnect -->
<g id="node16" class="node">
<title>openconnect</title>
<g id="a_node16"><a xlink:href="https://github.com/conda-forge/openconnect-feedstock/pull/25" xlink:title="openconnect ✓">
<ellipse fill="#31688e" stroke="black" cx="546.47" cy="-206" rx="82.25" ry="18"/>
<text text-anchor="middle" x="546.47" y="-201.33" font-family="Times,serif" font-size="14.00" fill="white">openconnect ✓</text>
</a>
</g>
</g>
<!-- libtiledb&#45;sql&#45;&gt;openconnect -->
<!-- slurm -->
<g id="node18" class="node">
<title>slurm</title>
<g id="a_node18"><a xlink:href="https://github.com/conda-forge/slurm-feedstock/pull/11" xlink:title="slurm ✓">
<ellipse fill="#31688e" stroke="black" cx="546.47" cy="-134" rx="48.05" ry="18"/>
<text text-anchor="middle" x="546.47" y="-129.32" font-family="Times,serif" font-size="14.00" fill="white">slurm ✓</text>
</a>
</g>
</g>
<!-- openconnect&#45;&gt;slurm -->
<!-- kio -->
<g id="node17" class="node">
<title>kio</title>
<g id="a_node17"><a xlink:href="https://github.com/conda-forge/kio-feedstock" xlink:title="kio">
<ellipse fill="#fde725" stroke="black" cx="686.47" cy="-386" rx="27" ry="18"/>
<text text-anchor="middle" x="686.47" y="-381.32" font-family="Times,serif" font-size="14.00">kio</text>
</a>
</g>
</g>
<!-- qt&#45;main -->
<g id="node19" class="node">
<title>qt&#45;main</title>
<g id="a_node19"><a xlink:href="https://github.com/conda-forge/qt-main-feedstock/pull/172" xlink:title="qt main ❎">
<ellipse fill="#31688e" stroke="black" cx="713.47" cy="-458" rx="64.89" ry="18"/>
<text text-anchor="middle" x="713.47" y="-453.32" font-family="Times,serif" font-size="14.00" fill="white">qt main ❎</text>
</a>
</g>
</g>
<!-- qt&#45;main&#45;&gt;kio -->
<g id="edge16" class="edge">
<title>qt&#45;main&#45;&gt;kio</title>
<path fill="none" stroke="black" d="M706.79,-439.7C703.77,-431.87 700.13,-422.44 696.78,-413.73"/>
<polygon fill="black" stroke="black" points="699.74,-412.69 692.88,-404.62 693.21,-415.21 699.74,-412.69"/>
</g>
<!-- nsight&#45;compute -->
<g id="node20" class="node">
<title>nsight&#45;compute</title>
<g id="a_node20"><a xlink:href="https://github.com/conda-forge/nsight-compute-feedstock/pull/8" xlink:title="nsight compute ❎">
<ellipse fill="#31688e" stroke="black" cx="741.47" cy="-314" rx="104.35" ry="18"/>
<text text-anchor="middle" x="741.47" y="-309.32" font-family="Times,serif" font-size="14.00" fill="white">nsight compute ❎</text>
</a>
</g>
</g>
<!-- qt&#45;main&#45;&gt;nsight&#45;compute -->
<g id="edge17" class="edge">
<title>qt&#45;main&#45;&gt;nsight&#45;compute</title>
<path fill="none" stroke="black" d="M716.9,-439.59C721.67,-415.4 730.35,-371.36 736.01,-342.65"/>
<polygon fill="black" stroke="black" points="739.59,-343.6 738.09,-333.11 732.72,-342.24 739.59,-343.6"/>
</g>
</g>
</svg>
