<?xml version="1.0" encoding="UTF-8" standalone="no"?>
<!DOCTYPE svg PUBLIC "-//W3C//DTD SVG 1.1//EN"
 "http://www.w3.org/Graphics/SVG/1.1/DTD/svg11.dtd">
<!-- Generated by graphviz version 8.1.0 (20230707.2238)
 -->
<!-- Pages: 1 -->
<svg width="1416pt" height="620pt"
 viewBox="0.00 0.00 1415.62 620.00" xmlns="http://www.w3.org/2000/svg" xmlns:xlink="http://www.w3.org/1999/xlink">
<g id="graph0" class="graph" transform="scale(1 1) rotate(0) translate(4 616)">
<polygon fill="white" stroke="none" points="-4,4 -4,-616 1411.62,-616 1411.62,4 -4,4"/>
<!-- curl -->
<g id="node1" class="node">
<title>curl</title>
<g id="a_node1"><a xlink:href="https://github.com/conda-forge/curl-feedstock/pull/123" xlink:title="curl ❎">
<ellipse fill="#31688e" stroke="black" cx="367.26" cy="-450" rx="45.95" ry="18"/>
<text text-anchor="middle" x="367.26" y="-445.32" font-family="Times,serif" font-size="14.00" fill="white">curl ❎</text>
</a>
</g>
</g>
<!-- nco -->
<g id="node2" class="node">
<title>nco</title>
<g id="a_node2"><a xlink:href="https://github.com/conda-forge/nco-feedstock" xlink:title="nco">
<ellipse fill="#fde725" stroke="black" cx="63.26" cy="-378" rx="28.59" ry="18"/>
<text text-anchor="middle" x="63.26" y="-373.32" font-family="Times,serif" font-size="14.00">nco</text>
</a>
</g>
</g>
<!-- curl&#45;&gt;nco -->
<g id="edge1" class="edge">
<title>curl&#45;&gt;nco</title>
<path fill="none" stroke="black" d="M324.46,-442.84C272.09,-434.73 181.03,-418.79 105.26,-396 102.3,-395.11 99.25,-394.09 96.21,-393"/>
<polygon fill="black" stroke="black" points="97.68,-389.43 87.09,-389.13 95.19,-395.97 97.68,-389.43"/>
</g>
<!-- r&#45;base -->
<g id="node3" class="node">
<title>r&#45;base</title>
<g id="a_node3"><a xlink:href="https://github.com/conda-forge/r-base-feedstock" xlink:title="r base">
<ellipse fill="#fde725" stroke="black" cx="278.26" cy="-378" rx="42.26" ry="18"/>
<text text-anchor="middle" x="278.26" y="-373.32" font-family="Times,serif" font-size="14.00">r base</text>
</a>
</g>
</g>
<!-- curl&#45;&gt;r&#45;base -->
<g id="edge2" class="edge">
<title>curl&#45;&gt;r&#45;base</title>
<path fill="none" stroke="black" d="M347.51,-433.46C335.33,-423.88 319.52,-411.45 306.08,-400.88"/>
<polygon fill="black" stroke="black" points="308.68,-397.68 298.65,-394.25 304.35,-403.18 308.68,-397.68"/>
</g>
<!-- libhdfs3 -->
<g id="node4" class="node">
<title>libhdfs3</title>
<g id="a_node4"><a xlink:href="https://github.com/conda-forge/libhdfs3-feedstock" xlink:title="libhdfs3">
<ellipse fill="#fde725" stroke="black" cx="166.26" cy="-378" rx="51.74" ry="18"/>
<text text-anchor="middle" x="166.26" y="-373.32" font-family="Times,serif" font-size="14.00">libhdfs3</text>
</a>
</g>
</g>
<!-- curl&#45;&gt;libhdfs3 -->
<g id="edge3" class="edge">
<title>curl&#45;&gt;libhdfs3</title>
<path fill="none" stroke="black" d="M333.62,-437.28C300.32,-425.69 249.09,-407.85 212.08,-394.96"/>
<polygon fill="black" stroke="black" points="213.64,-391.45 203.05,-391.46 211.34,-398.06 213.64,-391.45"/>
</g>
<!-- xrootd -->
<g id="node5" class="node">
<title>xrootd</title>
<g id="a_node5"><a xlink:href="https://github.com/conda-forge/xrootd-feedstock" xlink:title="xrootd">
<ellipse fill="#fde725" stroke="black" cx="314.26" cy="-306" rx="43.84" ry="18"/>
<text text-anchor="middle" x="314.26" y="-301.32" font-family="Times,serif" font-size="14.00">xrootd</text>
</a>
</g>
</g>
<!-- curl&#45;&gt;xrootd -->
<g id="edge4" class="edge">
<title>curl&#45;&gt;xrootd</title>
<path fill="none" stroke="black" d="M360.87,-431.87C351.84,-407.67 335.24,-363.21 324.49,-334.39"/>
<polygon fill="black" stroke="black" points="327.45,-333.33 320.68,-325.19 320.89,-335.78 327.45,-333.33"/>
</g>
<!-- htcondor -->
<g id="node6" class="node">
<title>htcondor</title>
<g id="a_node6"><a xlink:href="https://github.com/conda-forge/htcondor-feedstock" xlink:title="htcondor">
<ellipse fill="#fde725" stroke="black" cx="508.26" cy="-306" rx="55.94" ry="18"/>
<text text-anchor="middle" x="508.26" y="-301.32" font-family="Times,serif" font-size="14.00">htcondor</text>
</a>
</g>
</g>
<!-- curl&#45;&gt;htcondor -->
<g id="edge5" class="edge">
<title>curl&#45;&gt;htcondor</title>
<path fill="none" stroke="black" d="M390.21,-434.17C404.74,-424.24 423.5,-410.39 438.26,-396 458.25,-376.51 477.6,-351.26 490.87,-332.63"/>
<polygon fill="black" stroke="black" points="494.18,-335.02 497.05,-324.82 488.45,-331 494.18,-335.02"/>
</g>
<!-- libtiledb&#45;sql -->
<g id="node7" class="node">
<title>libtiledb&#45;sql</title>
<g id="a_node7"><a xlink:href="https://github.com/conda-forge/libtiledb-sql-feedstock" xlink:title="libtiledb sql">
<ellipse fill="#fde725" stroke="black" cx="325.26" cy="-234" rx="70.68" ry="18"/>
<text text-anchor="middle" x="325.26" y="-229.32" font-family="Times,serif" font-size="14.00">libtiledb sql</text>
</a>
</g>
</g>
<!-- curl&#45;&gt;libtiledb&#45;sql -->
<g id="edge6" class="edge">
<title>curl&#45;&gt;libtiledb&#45;sql</title>
<path fill="none" stroke="black" d="M370.83,-431.94C376.35,-401.87 384.63,-337.89 367.26,-288 363.71,-277.8 357.28,-268.08 350.51,-259.82"/>
<polygon fill="black" stroke="black" points="353.66,-257.97 344.43,-252.78 348.41,-262.59 353.66,-257.97"/>
</g>
<!-- slurm -->
<g id="node8" class="node">
<title>slurm</title>
<g id="a_node8"><a xlink:href="https://github.com/conda-forge/slurm-feedstock" xlink:title="slurm">
<ellipse fill="#fde725" stroke="black" cx="424.26" cy="-162" rx="40.16" ry="18"/>
<text text-anchor="middle" x="424.26" y="-157.32" font-family="Times,serif" font-size="14.00">slurm</text>
</a>
</g>
</g>
<!-- curl&#45;&gt;slurm -->
<g id="edge7" class="edge">
<title>curl&#45;&gt;slurm</title>
<path fill="none" stroke="black" d="M375.9,-432.24C380.82,-422.01 386.69,-408.54 390.26,-396 410.8,-323.81 419.37,-235.33 422.57,-191.05"/>
<polygon fill="black" stroke="black" points="426.11,-191.5 423.3,-181.28 419.13,-191.02 426.11,-191.5"/>
</g>
<!-- arcticdb -->
<g id="node9" class="node">
<title>arcticdb</title>
<g id="a_node9"><a xlink:href="https://github.com/conda-forge/arcticdb-feedstock" xlink:title="arcticdb">
<ellipse fill="#fde725" stroke="black" cx="542.26" cy="-378" rx="52.26" ry="18"/>
<text text-anchor="middle" x="542.26" y="-373.32" font-family="Times,serif" font-size="14.00">arcticdb</text>
</a>
</g>
</g>
<!-- curl&#45;&gt;arcticdb -->
<g id="edge8" class="edge">
<title>curl&#45;&gt;arcticdb</title>
<path fill="none" stroke="black" d="M398.55,-436.49C426.55,-425.29 467.87,-408.76 499.02,-396.3"/>
<polygon fill="black" stroke="black" points="500.18,-399.2 508.16,-392.24 497.58,-392.7 500.18,-399.2"/>
</g>
<!-- cyrus&#45;sasl -->
<g id="node10" class="node">
<title>cyrus&#45;sasl</title>
<g id="a_node10"><a xlink:href="https://github.com/conda-forge/cyrus-sasl-feedstock" xlink:title="cyrus sasl">
<ellipse fill="#35b779" stroke="black" cx="711.26" cy="-450" rx="61.2" ry="18"/>
<text text-anchor="middle" x="711.26" y="-445.32" font-family="Times,serif" font-size="14.00">cyrus sasl</text>
</a>
</g>
</g>
<!-- cyrus&#45;sasl&#45;&gt;arcticdb -->
<g id="edge9" class="edge">
<title>cyrus&#45;sasl&#45;&gt;arcticdb</title>
<path fill="none" stroke="black" d="M677.06,-434.83C650.43,-423.8 613.32,-408.43 584.78,-396.61"/>
<polygon fill="black" stroke="black" points="586.27,-393.03 575.69,-392.43 583.59,-399.49 586.27,-393.03"/>
</g>
<!-- nds2&#45;client -->
<g id="node11" class="node">
<title>nds2&#45;client</title>
<g id="a_node11"><a xlink:href="https://github.com/conda-forge/nds2-client-feedstock" xlink:title="nds2 client">
<ellipse fill="#fde725" stroke="black" cx="848.26" cy="-378" rx="66.47" ry="18"/>
<text text-anchor="middle" x="848.26" y="-373.32" font-family="Times,serif" font-size="14.00">nds2 client</text>
</a>
</g>
</g>
<!-- cyrus&#45;sasl&#45;&gt;nds2&#45;client -->
<g id="edge10" class="edge">
<title>cyrus&#45;sasl&#45;&gt;nds2&#45;client</title>
<path fill="none" stroke="black" d="M740.99,-433.81C760.78,-423.7 787.01,-410.3 808.58,-399.28"/>
<polygon fill="black" stroke="black" points="809.81,-402.07 817.12,-394.4 806.62,-395.83 809.81,-402.07"/>
</g>
<!-- openldap -->
<g id="node12" class="node">
<title>openldap</title>
<g id="a_node12"><a xlink:href="https://github.com/conda-forge/openldap-feedstock" xlink:title="openldap">
<ellipse fill="#fde725" stroke="black" cx="669.26" cy="-378" rx="57" ry="18"/>
<text text-anchor="middle" x="669.26" y="-373.32" font-family="Times,serif" font-size="14.00">openldap</text>
</a>
</g>
</g>
<!-- cyrus&#45;sasl&#45;&gt;openldap -->
<g id="edge11" class="edge">
<title>cyrus&#45;sasl&#45;&gt;openldap</title>
<path fill="none" stroke="black" d="M701.09,-432.05C696.24,-423.97 690.33,-414.12 684.93,-405.11"/>
<polygon fill="black" stroke="black" points="687.48,-403.56 679.33,-396.79 681.48,-407.16 687.48,-403.56"/>
</g>
<!-- myproxy -->
<g id="node13" class="node">
<title>myproxy</title>
<g id="a_node13"><a xlink:href="https://github.com/conda-forge/myproxy-feedstock" xlink:title="myproxy">
<ellipse fill="#fde725" stroke="black" cx="757.26" cy="-306" rx="54.89" ry="18"/>
<text text-anchor="middle" x="757.26" y="-301.32" font-family="Times,serif" font-size="14.00">myproxy</text>
</a>
</g>
</g>
<!-- cyrus&#45;sasl&#45;&gt;myproxy -->
<g id="edge12" class="edge">
<title>cyrus&#45;sasl&#45;&gt;myproxy</title>
<path fill="none" stroke="black" d="M719.85,-432.14C724.84,-421.88 730.96,-408.41 735.26,-396 742.19,-376.02 747.85,-352.8 751.7,-335.09"/>
<polygon fill="black" stroke="black" points="755.33,-335.84 753.96,-325.33 748.48,-334.4 755.33,-335.84"/>
</g>
<!-- openldap&#45;&gt;htcondor -->
<g id="edge13" class="edge">
<title>openldap&#45;&gt;htcondor</title>
<path fill="none" stroke="black" d="M636.68,-362.83C611.83,-352.03 577.4,-337.06 550.45,-325.34"/>
<polygon fill="black" stroke="black" points="552.08,-321.8 541.52,-321.02 549.29,-328.22 552.08,-321.8"/>
</g>
<!-- openldap&#45;&gt;myproxy -->
<g id="edge14" class="edge">
<title>openldap&#45;&gt;myproxy</title>
<path fill="none" stroke="black" d="M689.67,-360.76C701.22,-351.58 715.85,-339.94 728.55,-329.84"/>
<polygon fill="black" stroke="black" points="730.31,-332.11 735.96,-323.15 725.96,-326.63 730.31,-332.11"/>
</g>
<!-- lighttpd -->
<g id="node14" class="node">
<title>lighttpd</title>
<g id="a_node14"><a xlink:href="https://github.com/conda-forge/lighttpd-feedstock" xlink:title="lighttpd">
<ellipse fill="#fde725" stroke="black" cx="633.26" cy="-306" rx="51.21" ry="18"/>
<text text-anchor="middle" x="633.26" y="-301.32" font-family="Times,serif" font-size="14.00">lighttpd</text>
</a>
</g>
</g>
<!-- openldap&#45;&gt;lighttpd -->
<g id="edge15" class="edge">
<title>openldap&#45;&gt;lighttpd</title>
<path fill="none" stroke="black" d="M660.55,-360.05C656.43,-352.06 651.43,-342.33 646.84,-333.4"/>
<polygon fill="black" stroke="black" points="649.58,-332.08 641.9,-324.79 643.36,-335.28 649.58,-332.08"/>
</g>
<!-- freetds -->
<g id="node15" class="node">
<title>freetds</title>
<g id="a_node15"><a xlink:href="https://github.com/conda-forge/freetds-feedstock" xlink:title="freetds">
<ellipse fill="#35b779" stroke="black" cx="1011.26" cy="-594" rx="47" ry="18"/>
<text text-anchor="middle" x="1011.26" y="-589.33" font-family="Times,serif" font-size="14.00">freetds</text>
</a>
</g>
</g>
<!-- postgres&#45;xl -->
<g id="node16" class="node">
<title>postgres&#45;xl</title>
<g id="a_node16"><a xlink:href="https://github.com/conda-forge/postgres-xl-feedstock" xlink:title="postgres xl">
<ellipse fill="#35b779" stroke="black" cx="1011.26" cy="-522" rx="66.99" ry="18"/>
<text text-anchor="middle" x="1011.26" y="-517.33" font-family="Times,serif" font-size="14.00">postgres xl</text>
</a>
</g>
</g>
<!-- freetds&#45;&gt;postgres&#45;xl -->
<!-- mongo&#45;tools -->
<g id="node21" class="node">
<title>mongo&#45;tools</title>
<g id="a_node21"><a xlink:href="https://github.com/conda-forge/mongo-tools-feedstock" xlink:title="mongo tools">
<ellipse fill="#35b779" stroke="black" cx="1011.26" cy="-450" rx="72.25" ry="18"/>
<text text-anchor="middle" x="1011.26" y="-445.32" font-family="Times,serif" font-size="14.00">mongo tools</text>
</a>
</g>
</g>
<!-- postgres&#45;xl&#45;&gt;mongo&#45;tools -->
<!-- libgsasl -->
<g id="node17" class="node">
<title>libgsasl</title>
<g id="a_node17"><a xlink:href="https://github.com/conda-forge/libgsasl-feedstock" xlink:title="libgsasl">
<ellipse fill="#35b779" stroke="black" cx="172.26" cy="-450" rx="49.63" ry="18"/>
<text text-anchor="middle" x="172.26" y="-445.32" font-family="Times,serif" font-size="14.00">libgsasl</text>
</a>
</g>
</g>
<!-- libgsasl&#45;&gt;libhdfs3 -->
<g id="edge17" class="edge">
<title>libgsasl&#45;&gt;libhdfs3</title>
<path fill="none" stroke="black" d="M170.78,-431.7C170.14,-424.24 169.37,-415.32 168.66,-406.97"/>
<polygon fill="black" stroke="black" points="172.07,-406.77 167.73,-397.1 165.09,-407.37 172.07,-406.77"/>
</g>
<!-- postgresql -->
<g id="node18" class="node">
<title>postgresql</title>
<g id="a_node18"><a xlink:href="https://github.com/conda-forge/postgresql-feedstock/pull/164" xlink:title="postgresql ❎">
<ellipse fill="#31688e" stroke="black" cx="1188.26" cy="-378" rx="79.62" ry="18"/>
<text text-anchor="middle" x="1188.26" y="-373.32" font-family="Times,serif" font-size="14.00" fill="white">postgresql ❎</text>
</a>
</g>
</g>
<!-- qt&#45;main -->
<g id="node19" class="node">
<title>qt&#45;main</title>
<g id="a_node19"><a xlink:href="https://github.com/conda-forge/qt-main-feedstock" xlink:title="qt main">
<ellipse fill="#fde725" stroke="black" cx="1190.26" cy="-306" rx="49.63" ry="18"/>
<text text-anchor="middle" x="1190.26" y="-301.32" font-family="Times,serif" font-size="14.00">qt main</text>
</a>
</g>
</g>
<!-- postgresql&#45;&gt;qt&#45;main -->
<g id="edge18" class="edge">
<title>postgresql&#45;&gt;qt&#45;main</title>
<path fill="none" stroke="black" d="M1188.76,-359.7C1188.97,-352.24 1189.22,-343.32 1189.46,-334.97"/>
<polygon fill="black" stroke="black" points="1192.99,-335.2 1189.77,-325.1 1185.99,-335 1192.99,-335.2"/>
</g>
<!-- kio -->
<g id="node20" class="node">
<title>kio</title>
<g id="a_node20"><a xlink:href="https://github.com/conda-forge/kio-feedstock" xlink:title="kio">
<ellipse fill="#fde725" stroke="black" cx="1190.26" cy="-234" rx="27" ry="18"/>
<text text-anchor="middle" x="1190.26" y="-229.32" font-family="Times,serif" font-size="14.00">kio</text>
</a>
</g>
</g>
<!-- qt&#45;main&#45;&gt;kio -->
<g id="edge19" class="edge">
<title>qt&#45;main&#45;&gt;kio</title>
<path fill="none" stroke="black" d="M1190.26,-287.7C1190.26,-280.24 1190.26,-271.32 1190.26,-262.97"/>
<polygon fill="black" stroke="black" points="1193.76,-263.1 1190.26,-253.1 1186.76,-263.1 1193.76,-263.1"/>
</g>
<!-- pykerberos -->
<g id="node22" class="node">
<title>pykerberos</title>
<g id="a_node22"><a xlink:href="https://github.com/conda-forge/pykerberos-feedstock" xlink:title="pykerberos">
<ellipse fill="#35b779" stroke="black" cx="1011.26" cy="-378" rx="67.52" ry="18"/>
<text text-anchor="middle" x="1011.26" y="-373.32" font-family="Times,serif" font-size="14.00">pykerberos</text>
</a>
</g>
</g>
<!-- mongo&#45;tools&#45;&gt;pykerberos -->
<!-- dcap -->
<g id="node23" class="node">
<title>dcap</title>
<g id="a_node23"><a xlink:href="https://github.com/conda-forge/dcap-feedstock" xlink:title="dcap">
<ellipse fill="#35b779" stroke="black" cx="1011.26" cy="-306" rx="34.9" ry="18"/>
<text text-anchor="middle" x="1011.26" y="-301.32" font-family="Times,serif" font-size="14.00">dcap</text>
</a>
</g>
</g>
<!-- pykerberos&#45;&gt;dcap -->
<!-- libssh -->
<g id="node25" class="node">
<title>libssh</title>
<g id="a_node25"><a xlink:href="https://github.com/conda-forge/libssh-feedstock" xlink:title="libssh">
<ellipse fill="#35b779" stroke="black" cx="1011.26" cy="-234" rx="40.69" ry="18"/>
<text text-anchor="middle" x="1011.26" y="-229.32" font-family="Times,serif" font-size="14.00">libssh</text>
</a>
</g>
</g>
<!-- dcap&#45;&gt;libssh -->
<!-- openssh -->
<g id="node24" class="node">
<title>openssh</title>
<g id="a_node24"><a xlink:href="https://github.com/conda-forge/openssh-feedstock" xlink:title="openssh">
<ellipse fill="#35b779" stroke="black" cx="52.26" cy="-450" rx="52.26" ry="18"/>
<text text-anchor="middle" x="52.26" y="-445.32" font-family="Times,serif" font-size="14.00">openssh</text>
</a>
</g>
</g>
<!-- openssh&#45;&gt;nco -->
<g id="edge23" class="edge">
<title>openssh&#45;&gt;nco</title>
<path fill="none" stroke="black" d="M54.98,-431.7C56.15,-424.24 57.55,-415.32 58.87,-406.97"/>
<polygon fill="black" stroke="black" points="62.48,-407.53 60.57,-397.1 55.56,-406.44 62.48,-407.53"/>
</g>
<!-- openshift&#45;cli -->
<g id="node26" class="node">
<title>openshift&#45;cli</title>
<g id="a_node26"><a xlink:href="https://github.com/conda-forge/openshift-cli-feedstock" xlink:title="openshift cli">
<ellipse fill="#35b779" stroke="black" cx="1011.26" cy="-162" rx="72.78" ry="18"/>
<text text-anchor="middle" x="1011.26" y="-157.32" font-family="Times,serif" font-size="14.00">openshift cli</text>
</a>
</g>
</g>
<!-- libssh&#45;&gt;openshift&#45;cli -->
<!-- python&#45;gssapi -->
<g id="node29" class="node">
<title>python&#45;gssapi</title>
<g id="a_node29"><a xlink:href="https://github.com/conda-forge/python-gssapi-feedstock" xlink:title="python gssapi">
<ellipse fill="#35b779" stroke="black" cx="1011.26" cy="-90" rx="81.2" ry="18"/>
<text text-anchor="middle" x="1011.26" y="-85.33" font-family="Times,serif" font-size="14.00">python gssapi</text>
</a>
</g>
</g>
<!-- openshift&#45;cli&#45;&gt;python&#45;gssapi -->
<!-- libcups -->
<g id="node27" class="node">
<title>libcups</title>
<g id="a_node27"><a xlink:href="https://github.com/conda-forge/libcups-feedstock" xlink:title="libcups">
<ellipse fill="#35b779" stroke="black" cx="1333.26" cy="-378" rx="47" ry="18"/>
<text text-anchor="middle" x="1333.26" y="-373.32" font-family="Times,serif" font-size="14.00">libcups</text>
</a>
</g>
</g>
<!-- libcups&#45;&gt;qt&#45;main -->
<g id="edge26" class="edge">
<title>libcups&#45;&gt;qt&#45;main</title>
<path fill="none" stroke="black" d="M1305.01,-363.17C1283.22,-352.5 1252.83,-337.63 1228.81,-325.87"/>
<polygon fill="black" stroke="black" points="1230.46,-322.29 1219.94,-321.04 1227.39,-328.58 1230.46,-322.29"/>
</g>
<!-- openconnect -->
<g id="node28" class="node">
<title>openconnect</title>
<g id="a_node28"><a xlink:href="https://github.com/conda-forge/openconnect-feedstock" xlink:title="openconnect">
<ellipse fill="#fde725" stroke="black" cx="1333.26" cy="-306" rx="74.36" ry="18"/>
<text text-anchor="middle" x="1333.26" y="-301.32" font-family="Times,serif" font-size="14.00">openconnect</text>
</a>
</g>
</g>
<!-- libcups&#45;&gt;openconnect -->
<g id="edge27" class="edge">
<title>libcups&#45;&gt;openconnect</title>
<path fill="none" stroke="black" d="M1333.26,-359.7C1333.26,-352.24 1333.26,-343.32 1333.26,-334.97"/>
<polygon fill="black" stroke="black" points="1336.76,-335.1 1333.26,-325.1 1329.76,-335.1 1336.76,-335.1"/>
</g>
<!-- nsight&#45;compute -->
<g id="node30" class="node">
<title>nsight&#45;compute</title>
<g id="a_node30"><a xlink:href="https://github.com/conda-forge/nsight-compute-feedstock" xlink:title="nsight compute">
<ellipse fill="#35b779" stroke="black" cx="1011.26" cy="-18" rx="89.09" ry="18"/>
<text text-anchor="middle" x="1011.26" y="-13.32" font-family="Times,serif" font-size="14.00">nsight compute</text>
</a>
</g>
</g>
<!-- python&#45;gssapi&#45;&gt;nsight&#45;compute -->
</g>
</svg>
