<?xml version="1.0" encoding="UTF-8" standalone="no"?>
<!DOCTYPE svg PUBLIC "-//W3C//DTD SVG 1.1//EN"
 "http://www.w3.org/Graphics/SVG/1.1/DTD/svg11.dtd">
<!-- Generated by graphviz version 8.1.0 (20230707.2238)
 -->
<!-- Pages: 1 -->
<svg width="1147pt" height="620pt"
 viewBox="0.00 0.00 1146.52 620.00" xmlns="http://www.w3.org/2000/svg" xmlns:xlink="http://www.w3.org/1999/xlink">
<g id="graph0" class="graph" transform="scale(1 1) rotate(0) translate(4 616)">
<polygon fill="white" stroke="none" points="-4,4 -4,-616 1142.52,-616 1142.52,4 -4,4"/>
<!-- curl -->
<g id="node1" class="node">
<title>curl</title>
<g id="a_node1"><a xlink:href="https://github.com/conda-forge/curl-feedstock/pull/123" xlink:title="curl ✓">
<ellipse fill="#31688e" stroke="black" cx="277.89" cy="-486" rx="38.58" ry="18"/>
<text text-anchor="middle" x="277.89" y="-481.32" font-family="Times,serif" font-size="14.00" fill="white">curl ✓</text>
</a>
</g>
</g>
<!-- nco -->
<g id="node2" class="node">
<title>nco</title>
<g id="a_node2"><a xlink:href="https://github.com/conda-forge/nco-feedstock" xlink:title="nco">
<ellipse fill="#fde725" stroke="black" cx="201.89" cy="-414" rx="28.59" ry="18"/>
<text text-anchor="middle" x="201.89" y="-409.32" font-family="Times,serif" font-size="14.00">nco</text>
</a>
</g>
</g>
<!-- curl&#45;&gt;nco -->
<g id="edge1" class="edge">
<title>curl&#45;&gt;nco</title>
<path fill="none" stroke="black" d="M261.02,-469.46C250.6,-459.87 237.08,-447.42 225.6,-436.84"/>
<polygon fill="black" stroke="black" points="228.4,-434.74 218.67,-430.54 223.65,-439.89 228.4,-434.74"/>
</g>
<!-- r&#45;base -->
<g id="node3" class="node">
<title>r&#45;base</title>
<g id="a_node3"><a xlink:href="https://github.com/conda-forge/r-base-feedstock" xlink:title="r base">
<ellipse fill="#fde725" stroke="black" cx="226.89" cy="-342" rx="42.26" ry="18"/>
<text text-anchor="middle" x="226.89" y="-337.32" font-family="Times,serif" font-size="14.00">r base</text>
</a>
</g>
</g>
<!-- curl&#45;&gt;r&#45;base -->
<g id="edge2" class="edge">
<title>curl&#45;&gt;r&#45;base</title>
<path fill="none" stroke="black" d="M271.74,-467.87C263.04,-443.67 247.08,-399.21 236.73,-370.39"/>
<polygon fill="black" stroke="black" points="239.73,-369.42 233.06,-361.19 233.15,-371.78 239.73,-369.42"/>
</g>
<!-- libhdfs3 -->
<g id="node4" class="node">
<title>libhdfs3</title>
<g id="a_node4"><a xlink:href="https://github.com/conda-forge/libhdfs3-feedstock" xlink:title="libhdfs3">
<ellipse fill="#fde725" stroke="black" cx="64.89" cy="-414" rx="51.74" ry="18"/>
<text text-anchor="middle" x="64.89" y="-409.32" font-family="Times,serif" font-size="14.00">libhdfs3</text>
</a>
</g>
</g>
<!-- curl&#45;&gt;libhdfs3 -->
<g id="edge3" class="edge">
<title>curl&#45;&gt;libhdfs3</title>
<path fill="none" stroke="black" d="M246.91,-474.82C211.46,-463.17 153.01,-443.96 111.93,-430.46"/>
<polygon fill="black" stroke="black" points="113.21,-426.87 102.62,-427.07 111.03,-433.52 113.21,-426.87"/>
</g>
<!-- xrootd -->
<g id="node5" class="node">
<title>xrootd</title>
<g id="a_node5"><a xlink:href="https://github.com/conda-forge/xrootd-feedstock" xlink:title="xrootd">
<ellipse fill="#fde725" stroke="black" cx="262.89" cy="-270" rx="43.84" ry="18"/>
<text text-anchor="middle" x="262.89" y="-265.32" font-family="Times,serif" font-size="14.00">xrootd</text>
</a>
</g>
</g>
<!-- curl&#45;&gt;xrootd -->
<g id="edge4" class="edge">
<title>curl&#45;&gt;xrootd</title>
<path fill="none" stroke="black" d="M279.42,-467.97C281.72,-438.48 285.11,-376.05 277.89,-324 276.71,-315.53 274.53,-306.52 272.19,-298.37"/>
<polygon fill="black" stroke="black" points="275.26,-297.46 268.97,-288.93 268.57,-299.52 275.26,-297.46"/>
</g>
<!-- htcondor -->
<g id="node6" class="node">
<title>htcondor</title>
<g id="a_node6"><a xlink:href="https://github.com/conda-forge/htcondor-feedstock" xlink:title="htcondor">
<ellipse fill="#fde725" stroke="black" cx="436.89" cy="-342" rx="55.94" ry="18"/>
<text text-anchor="middle" x="436.89" y="-337.32" font-family="Times,serif" font-size="14.00">htcondor</text>
</a>
</g>
</g>
<!-- curl&#45;&gt;htcondor -->
<g id="edge5" class="edge">
<title>curl&#45;&gt;htcondor</title>
<path fill="none" stroke="black" d="M299.03,-470.48C313.49,-460.25 332.87,-445.94 348.89,-432 372.48,-411.47 397.37,-385.88 414.63,-367.42"/>
<polygon fill="black" stroke="black" points="416.76,-370.2 420.99,-360.49 411.63,-365.44 416.76,-370.2"/>
</g>
<!-- libtiledb&#45;sql -->
<g id="node7" class="node">
<title>libtiledb&#45;sql</title>
<g id="a_node7"><a xlink:href="https://github.com/conda-forge/libtiledb-sql-feedstock" xlink:title="libtiledb sql">
<ellipse fill="#fde725" stroke="black" cx="334.89" cy="-198" rx="70.68" ry="18"/>
<text text-anchor="middle" x="334.89" y="-193.32" font-family="Times,serif" font-size="14.00">libtiledb sql</text>
</a>
</g>
</g>
<!-- curl&#45;&gt;libtiledb&#45;sql -->
<g id="edge6" class="edge">
<title>curl&#45;&gt;libtiledb&#45;sql</title>
<path fill="none" stroke="black" d="M284.43,-468.02C288.21,-457.73 292.8,-444.25 295.89,-432 314.22,-359.16 326.28,-271.3 331.66,-227.18"/>
<polygon fill="black" stroke="black" points="335.24,-227.79 332.95,-217.44 328.28,-226.96 335.24,-227.79"/>
</g>
<!-- slurm -->
<g id="node8" class="node">
<title>slurm</title>
<g id="a_node8"><a xlink:href="https://github.com/conda-forge/slurm-feedstock" xlink:title="slurm">
<ellipse fill="#fde725" stroke="black" cx="144.89" cy="-126" rx="40.16" ry="18"/>
<text text-anchor="middle" x="144.89" y="-121.33" font-family="Times,serif" font-size="14.00">slurm</text>
</a>
</g>
</g>
<!-- curl&#45;&gt;slurm -->
<g id="edge7" class="edge">
<title>curl&#45;&gt;slurm</title>
<path fill="none" stroke="black" d="M243.03,-477.63C217.33,-470.37 183.55,-456.66 163.89,-432 138.68,-400.37 144.89,-383.45 144.89,-343 144.89,-343 144.89,-343 144.89,-269 144.89,-229.57 144.89,-183.97 144.89,-155.31"/>
<polygon fill="black" stroke="black" points="148.39,-155.49 144.89,-145.49 141.39,-155.49 148.39,-155.49"/>
</g>
<!-- arcticdb -->
<g id="node9" class="node">
<title>arcticdb</title>
<g id="a_node9"><a xlink:href="https://github.com/conda-forge/arcticdb-feedstock" xlink:title="arcticdb">
<ellipse fill="#fde725" stroke="black" cx="452.89" cy="-414" rx="52.26" ry="18"/>
<text text-anchor="middle" x="452.89" y="-409.32" font-family="Times,serif" font-size="14.00">arcticdb</text>
</a>
</g>
</g>
<!-- curl&#45;&gt;arcticdb -->
<g id="edge8" class="edge">
<title>curl&#45;&gt;arcticdb</title>
<path fill="none" stroke="black" d="M306.39,-473.6C334.36,-462.41 377.37,-445.2 409.57,-432.33"/>
<polygon fill="black" stroke="black" points="410.63,-435.27 418.61,-428.31 408.03,-428.77 410.63,-435.27"/>
</g>
<!-- cyrus&#45;sasl -->
<g id="node10" class="node">
<title>cyrus&#45;sasl</title>
<g id="a_node10"><a xlink:href="https://github.com/conda-forge/cyrus-sasl-feedstock/pull/25" xlink:title="cyrus sasl ✓">
<ellipse fill="#31688e" stroke="black" cx="649.89" cy="-486" rx="69.1" ry="18"/>
<text text-anchor="middle" x="649.89" y="-481.32" font-family="Times,serif" font-size="14.00" fill="white">cyrus sasl ✓</text>
</a>
</g>
</g>
<!-- cyrus&#45;sasl&#45;&gt;arcticdb -->
<g id="edge9" class="edge">
<title>cyrus&#45;sasl&#45;&gt;arcticdb</title>
<path fill="none" stroke="black" d="M610.49,-471C578.14,-459.5 532.27,-443.21 498.36,-431.16"/>
<polygon fill="black" stroke="black" points="499.84,-427.61 489.24,-427.56 497.49,-434.21 499.84,-427.61"/>
</g>
<!-- nds2&#45;client -->
<g id="node11" class="node">
<title>nds2&#45;client</title>
<g id="a_node11"><a xlink:href="https://github.com/conda-forge/nds2-client-feedstock" xlink:title="nds2 client">
<ellipse fill="#fde725" stroke="black" cx="720.89" cy="-414" rx="66.47" ry="18"/>
<text text-anchor="middle" x="720.89" y="-409.32" font-family="Times,serif" font-size="14.00">nds2 client</text>
</a>
</g>
</g>
<!-- cyrus&#45;sasl&#45;&gt;nds2&#45;client -->
<g id="edge10" class="edge">
<title>cyrus&#45;sasl&#45;&gt;nds2&#45;client</title>
<path fill="none" stroke="black" d="M666.71,-468.41C675.64,-459.61 686.78,-448.63 696.63,-438.92"/>
<polygon fill="black" stroke="black" points="698.52,-441.98 703.18,-432.47 693.6,-437 698.52,-441.98"/>
</g>
<!-- openldap -->
<g id="node12" class="node">
<title>openldap</title>
<g id="a_node12"><a xlink:href="https://github.com/conda-forge/openldap-feedstock" xlink:title="openldap">
<ellipse fill="#fde725" stroke="black" cx="579.89" cy="-414" rx="57" ry="18"/>
<text text-anchor="middle" x="579.89" y="-409.32" font-family="Times,serif" font-size="14.00">openldap</text>
</a>
</g>
</g>
<!-- cyrus&#45;sasl&#45;&gt;openldap -->
<g id="edge11" class="edge">
<title>cyrus&#45;sasl&#45;&gt;openldap</title>
<path fill="none" stroke="black" d="M633.3,-468.41C624.58,-459.69 613.73,-448.85 604.09,-439.21"/>
<polygon fill="black" stroke="black" points="606.9,-437.07 597.36,-432.47 601.95,-442.02 606.9,-437.07"/>
</g>
<!-- myproxy -->
<g id="node13" class="node">
<title>myproxy</title>
<g id="a_node13"><a xlink:href="https://github.com/conda-forge/myproxy-feedstock" xlink:title="myproxy">
<ellipse fill="#fde725" stroke="black" cx="758.89" cy="-342" rx="54.89" ry="18"/>
<text text-anchor="middle" x="758.89" y="-337.32" font-family="Times,serif" font-size="14.00">myproxy</text>
</a>
</g>
</g>
<!-- cyrus&#45;sasl&#45;&gt;myproxy -->
<g id="edge12" class="edge">
<title>cyrus&#45;sasl&#45;&gt;myproxy</title>
<path fill="none" stroke="black" d="M713.25,-478.62C743.52,-472.02 777.16,-458.72 795.89,-432 809.73,-412.24 796.25,-386.51 781.83,-367.8"/>
<polygon fill="black" stroke="black" points="784.06,-366 775.01,-360.49 778.65,-370.44 784.06,-366"/>
</g>
<!-- openldap&#45;&gt;htcondor -->
<g id="edge13" class="edge">
<title>openldap&#45;&gt;htcondor</title>
<path fill="none" stroke="black" d="M549.91,-398.33C528.55,-387.87 499.64,-373.72 476.4,-362.34"/>
<polygon fill="black" stroke="black" points="478.35,-358.91 467.82,-357.65 475.27,-365.2 478.35,-358.91"/>
</g>
<!-- openldap&#45;&gt;myproxy -->
<g id="edge14" class="edge">
<title>openldap&#45;&gt;myproxy</title>
<path fill="none" stroke="black" d="M614.82,-399.34C643.34,-388.18 683.82,-372.36 714.61,-360.32"/>
<polygon fill="black" stroke="black" points="715.61,-363.29 723.65,-356.39 713.06,-356.77 715.61,-363.29"/>
</g>
<!-- lighttpd -->
<g id="node14" class="node">
<title>lighttpd</title>
<g id="a_node14"><a xlink:href="https://github.com/conda-forge/lighttpd-feedstock" xlink:title="lighttpd">
<ellipse fill="#fde725" stroke="black" cx="579.89" cy="-342" rx="51.21" ry="18"/>
<text text-anchor="middle" x="579.89" y="-337.32" font-family="Times,serif" font-size="14.00">lighttpd</text>
</a>
</g>
</g>
<!-- openldap&#45;&gt;lighttpd -->
<g id="edge15" class="edge">
<title>openldap&#45;&gt;lighttpd</title>
<path fill="none" stroke="black" d="M579.89,-395.7C579.89,-388.24 579.89,-379.32 579.89,-370.97"/>
<polygon fill="black" stroke="black" points="583.39,-371.1 579.89,-361.1 576.39,-371.1 583.39,-371.1"/>
</g>
<!-- freetds -->
<g id="node15" class="node">
<title>freetds</title>
<g id="a_node15"><a xlink:href="https://github.com/conda-forge/freetds-feedstock/pull/30" xlink:title="freetds ✓">
<ellipse fill="#31688e" stroke="black" cx="926.89" cy="-594" rx="54.89" ry="18"/>
<text text-anchor="middle" x="926.89" y="-589.33" font-family="Times,serif" font-size="14.00" fill="white">freetds ✓</text>
</a>
</g>
</g>
<!-- postgres&#45;xl -->
<g id="node16" class="node">
<title>postgres&#45;xl</title>
<g id="a_node16"><a xlink:href="https://github.com/conda-forge/postgres-xl-feedstock/pull/12" xlink:title="postgres xl ❎">
<ellipse fill="#31688e" stroke="black" cx="926.89" cy="-522" rx="82.25" ry="18"/>
<text text-anchor="middle" x="926.89" y="-517.33" font-family="Times,serif" font-size="14.00" fill="white">postgres xl ❎</text>
</a>
</g>
</g>
<!-- freetds&#45;&gt;postgres&#45;xl -->
<!-- mongo&#45;tools -->
<g id="node18" class="node">
<title>mongo&#45;tools</title>
<g id="a_node18"><a xlink:href="https://github.com/conda-forge/mongo-tools-feedstock/pull/40" xlink:title="mongo tools ✓">
<ellipse fill="#31688e" stroke="black" cx="926.89" cy="-450" rx="80.14" ry="18"/>
<text text-anchor="middle" x="926.89" y="-445.32" font-family="Times,serif" font-size="14.00" fill="white">mongo tools ✓</text>
</a>
</g>
</g>
<!-- postgres&#45;xl&#45;&gt;mongo&#45;tools -->
<!-- libgsasl -->
<g id="node17" class="node">
<title>libgsasl</title>
<g id="a_node17"><a xlink:href="https://github.com/conda-forge/libgsasl-feedstock/pull/28" xlink:title="libgsasl ❎">
<ellipse fill="#31688e" stroke="black" cx="64.89" cy="-486" rx="64.89" ry="18"/>
<text text-anchor="middle" x="64.89" y="-481.32" font-family="Times,serif" font-size="14.00" fill="white">libgsasl ❎</text>
</a>
</g>
</g>
<!-- libgsasl&#45;&gt;libhdfs3 -->
<g id="edge17" class="edge">
<title>libgsasl&#45;&gt;libhdfs3</title>
<path fill="none" stroke="black" d="M64.89,-467.7C64.89,-460.24 64.89,-451.32 64.89,-442.97"/>
<polygon fill="black" stroke="black" points="68.39,-443.1 64.89,-433.1 61.39,-443.1 68.39,-443.1"/>
</g>
<!-- pykerberos -->
<g id="node19" class="node">
<title>pykerberos</title>
<g id="a_node19"><a xlink:href="https://github.com/conda-forge/pykerberos-feedstock/pull/18" xlink:title="pykerberos ✓">
<ellipse fill="#31688e" stroke="black" cx="926.89" cy="-378" rx="75.41" ry="18"/>
<text text-anchor="middle" x="926.89" y="-373.32" font-family="Times,serif" font-size="14.00" fill="white">pykerberos ✓</text>
</a>
</g>
</g>
<!-- mongo&#45;tools&#45;&gt;pykerberos -->
<!-- dcap -->
<g id="node20" class="node">
<title>dcap</title>
<g id="a_node20"><a xlink:href="https://github.com/conda-forge/dcap-feedstock/pull/14" xlink:title="dcap ✓">
<ellipse fill="#31688e" stroke="black" cx="926.89" cy="-306" rx="42.79" ry="18"/>
<text text-anchor="middle" x="926.89" y="-301.32" font-family="Times,serif" font-size="14.00" fill="white">dcap ✓</text>
</a>
</g>
</g>
<!-- pykerberos&#45;&gt;dcap -->
<!-- libssh -->
<g id="node21" class="node">
<title>libssh</title>
<g id="a_node21"><a xlink:href="https://github.com/conda-forge/libssh-feedstock/pull/20" xlink:title="libssh ❎">
<ellipse fill="#31688e" stroke="black" cx="926.89" cy="-234" rx="55.94" ry="18"/>
<text text-anchor="middle" x="926.89" y="-229.32" font-family="Times,serif" font-size="14.00" fill="white">libssh ❎</text>
</a>
</g>
</g>
<!-- dcap&#45;&gt;libssh -->
<!-- openshift&#45;cli -->
<g id="node22" class="node">
<title>openshift&#45;cli</title>
<g id="a_node22"><a xlink:href="https://github.com/conda-forge/openshift-cli-feedstock" xlink:title="openshift cli">
<ellipse fill="#ff8c00" stroke="black" cx="926.89" cy="-162" rx="72.78" ry="18"/>
<text text-anchor="middle" x="926.89" y="-157.32" font-family="Times,serif" font-size="14.00">openshift cli</text>
</a>
</g>
</g>
<!-- libssh&#45;&gt;openshift&#45;cli -->
<!-- openconnect -->
<g id="node23" class="node">
<title>openconnect</title>
<g id="a_node23"><a xlink:href="https://github.com/conda-forge/openconnect-feedstock/pull/25" xlink:title="openconnect ✓">
<ellipse fill="#31688e" stroke="black" cx="926.89" cy="-90" rx="82.25" ry="18"/>
<text text-anchor="middle" x="926.89" y="-85.33" font-family="Times,serif" font-size="14.00" fill="white">openconnect ✓</text>
</a>
</g>
</g>
<!-- openshift&#45;cli&#45;&gt;openconnect -->
<!-- nsight&#45;compute -->
<g id="node25" class="node">
<title>nsight&#45;compute</title>
<g id="a_node25"><a xlink:href="https://github.com/conda-forge/nsight-compute-feedstock/pull/8" xlink:title="nsight compute ❎">
<ellipse fill="#31688e" stroke="black" cx="926.89" cy="-18" rx="104.35" ry="18"/>
<text text-anchor="middle" x="926.89" y="-13.32" font-family="Times,serif" font-size="14.00" fill="white">nsight compute ❎</text>
</a>
</g>
</g>
<!-- openconnect&#45;&gt;nsight&#45;compute -->
<!-- kio -->
<g id="node24" class="node">
<title>kio</title>
<g id="a_node24"><a xlink:href="https://github.com/conda-forge/kio-feedstock" xlink:title="kio">
<ellipse fill="#fde725" stroke="black" cx="1088.89" cy="-270" rx="27" ry="18"/>
<text text-anchor="middle" x="1088.89" y="-265.32" font-family="Times,serif" font-size="14.00">kio</text>
</a>
</g>
</g>
<!-- qt&#45;main -->
<g id="node26" class="node">
<title>qt&#45;main</title>
<g id="a_node26"><a xlink:href="https://github.com/conda-forge/qt-main-feedstock" xlink:title="qt main">
<ellipse fill="#35b779" stroke="black" cx="1088.89" cy="-342" rx="49.63" ry="18"/>
<text text-anchor="middle" x="1088.89" y="-337.32" font-family="Times,serif" font-size="14.00">qt main</text>
</a>
</g>
</g>
<!-- qt&#45;main&#45;&gt;kio -->
<g id="edge25" class="edge">
<title>qt&#45;main&#45;&gt;kio</title>
<path fill="none" stroke="black" d="M1088.89,-323.7C1088.89,-316.24 1088.89,-307.32 1088.89,-298.97"/>
<polygon fill="black" stroke="black" points="1092.39,-299.1 1088.89,-289.1 1085.39,-299.1 1092.39,-299.1"/>
</g>
</g>
</svg>
