<?xml version="1.0" encoding="UTF-8" standalone="no"?>
<!DOCTYPE svg PUBLIC "-//W3C//DTD SVG 1.1//EN"
 "http://www.w3.org/Graphics/SVG/1.1/DTD/svg11.dtd">
<!-- Generated by graphviz version 9.0.0 (20231125.0833)
 -->
<!-- Pages: 1 -->
<svg width="2591pt" height="1644pt"
 viewBox="0.00 0.00 2591.14 1644.00" xmlns="http://www.w3.org/2000/svg" xmlns:xlink="http://www.w3.org/1999/xlink">
<g id="graph0" class="graph" transform="scale(1 1) rotate(0) translate(4 1640)">
<polygon fill="white" stroke="none" points="-4,4 -4,-1640 2587.14,-1640 2587.14,4 -4,4"/>
<!-- arrow&#45;cpp -->
<g id="node1" class="node">
<title>arrow&#45;cpp</title>
<g id="a_node1"><a xlink:href="https://github.com/conda-forge/arrow-cpp-feedstock" xlink:title="arrow cpp">
<ellipse fill="#fde725" stroke="black" cx="691.24" cy="-1474" rx="61.73" ry="18"/>
<text text-anchor="middle" x="691.24" y="-1469.33" font-family="Times,serif" font-size="14.00">arrow cpp</text>
</a>
</g>
</g>
<!-- ray&#45;packages -->
<g id="node2" class="node">
<title>ray&#45;packages</title>
<g id="a_node2"><a xlink:href="https://github.com/conda-forge/ray-packages-feedstock" xlink:title="ray packages">
<ellipse fill="#fde725" stroke="black" cx="381.24" cy="-1402" rx="76.99" ry="18"/>
<text text-anchor="middle" x="381.24" y="-1397.33" font-family="Times,serif" font-size="14.00">ray packages</text>
</a>
</g>
</g>
<!-- arrow&#45;cpp&#45;&gt;ray&#45;packages -->
<g id="edge1" class="edge">
<title>arrow&#45;cpp&#45;&gt;ray&#45;packages</title>
<path fill="none" stroke="black" d="M644.67,-1461.73C636.53,-1459.8 628.14,-1457.82 620.24,-1456 561.96,-1442.56 495.54,-1427.88 447.53,-1417.39"/>
<polygon fill="black" stroke="black" points="448.35,-1413.98 437.83,-1415.27 446.86,-1420.82 448.35,-1413.98"/>
</g>
<!-- arcticdb -->
<g id="node3" class="node">
<title>arcticdb</title>
<g id="a_node3"><a xlink:href="https://github.com/conda-forge/arcticdb-feedstock" xlink:title="arcticdb">
<ellipse fill="#fde725" stroke="black" cx="691.24" cy="-1402" rx="52.26" ry="18"/>
<text text-anchor="middle" x="691.24" y="-1397.33" font-family="Times,serif" font-size="14.00">arcticdb</text>
</a>
</g>
</g>
<!-- arrow&#45;cpp&#45;&gt;arcticdb -->
<g id="edge2" class="edge">
<title>arrow&#45;cpp&#45;&gt;arcticdb</title>
<path fill="none" stroke="black" d="M691.24,-1455.7C691.24,-1448.41 691.24,-1439.73 691.24,-1431.54"/>
<polygon fill="black" stroke="black" points="694.74,-1431.62 691.24,-1421.62 687.74,-1431.62 694.74,-1431.62"/>
</g>
<!-- bazel -->
<g id="node4" class="node">
<title>bazel</title>
<g id="a_node4"><a xlink:href="https://github.com/conda-forge/bazel-feedstock" xlink:title="bazel">
<ellipse fill="#ff8c00" stroke="black" cx="717.24" cy="-854" rx="37.53" ry="18"/>
<text text-anchor="middle" x="717.24" y="-849.33" font-family="Times,serif" font-size="14.00">bazel</text>
</a>
</g>
</g>
<!-- mosh -->
<g id="node5" class="node">
<title>mosh</title>
<g id="a_node5"><a xlink:href="https://github.com/conda-forge/mosh-feedstock" xlink:title="mosh">
<ellipse fill="#35b779" stroke="black" cx="717.24" cy="-782" rx="38.06" ry="18"/>
<text text-anchor="middle" x="717.24" y="-777.33" font-family="Times,serif" font-size="14.00">mosh</text>
</a>
</g>
</g>
<!-- bazel&#45;&gt;mosh -->
<!-- onnx -->
<g id="node6" class="node">
<title>onnx</title>
<g id="a_node6"><a xlink:href="https://github.com/conda-forge/onnx-feedstock" xlink:title="onnx">
<ellipse fill="#35b779" stroke="black" cx="717.24" cy="-710" rx="35.42" ry="18"/>
<text text-anchor="middle" x="717.24" y="-705.33" font-family="Times,serif" font-size="14.00">onnx</text>
</a>
</g>
</g>
<!-- mosh&#45;&gt;onnx -->
<!-- paraview -->
<g id="node9" class="node">
<title>paraview</title>
<g id="a_node9"><a xlink:href="https://github.com/conda-forge/paraview-feedstock" xlink:title="paraview">
<ellipse fill="#35b779" stroke="black" cx="717.24" cy="-638" rx="57" ry="18"/>
<text text-anchor="middle" x="717.24" y="-633.33" font-family="Times,serif" font-size="14.00">paraview</text>
</a>
</g>
</g>
<!-- onnx&#45;&gt;paraview -->
<!-- mysql -->
<g id="node7" class="node">
<title>mysql</title>
<g id="a_node7"><a xlink:href="https://github.com/conda-forge/mysql-feedstock/pull/96" xlink:title="mysql ✓">
<ellipse fill="#31688e" stroke="black" cx="2263.24" cy="-530" rx="49.1" ry="18"/>
<text text-anchor="middle" x="2263.24" y="-525.33" font-family="Times,serif" font-size="14.00" fill="white">mysql ✓</text>
</a>
</g>
</g>
<!-- mysql&#45;connector&#45;python -->
<g id="node8" class="node">
<title>mysql&#45;connector&#45;python</title>
<g id="a_node8"><a xlink:href="https://github.com/conda-forge/mysql-connector-python-feedstock" xlink:title="mysql connector python">
<ellipse fill="#fde725" stroke="black" cx="2263.24" cy="-458" rx="131.7" ry="18"/>
<text text-anchor="middle" x="2263.24" y="-453.32" font-family="Times,serif" font-size="14.00">mysql connector python</text>
</a>
</g>
</g>
<!-- mysql&#45;&gt;mysql&#45;connector&#45;python -->
<g id="edge5" class="edge">
<title>mysql&#45;&gt;mysql&#45;connector&#45;python</title>
<path fill="none" stroke="black" d="M2263.24,-511.7C2263.24,-504.41 2263.24,-495.73 2263.24,-487.54"/>
<polygon fill="black" stroke="black" points="2266.74,-487.62 2263.24,-477.62 2259.74,-487.62 2266.74,-487.62"/>
</g>
<!-- r&#45;protolite -->
<g id="node13" class="node">
<title>r&#45;protolite</title>
<g id="a_node13"><a xlink:href="https://github.com/conda-forge/r-protolite-feedstock" xlink:title="r protolite">
<ellipse fill="#35b779" stroke="black" cx="717.24" cy="-566" rx="62.26" ry="18"/>
<text text-anchor="middle" x="717.24" y="-561.33" font-family="Times,serif" font-size="14.00">r protolite</text>
</a>
</g>
</g>
<!-- paraview&#45;&gt;r&#45;protolite -->
<!-- opencv -->
<g id="node10" class="node">
<title>opencv</title>
<g id="a_node10"><a xlink:href="https://github.com/conda-forge/opencv-feedstock" xlink:title="opencv">
<ellipse fill="#fde725" stroke="black" cx="75.24" cy="-1474" rx="46.47" ry="18"/>
<text text-anchor="middle" x="75.24" y="-1469.33" font-family="Times,serif" font-size="14.00">opencv</text>
</a>
</g>
</g>
<!-- opencv&#45;&gt;ray&#45;packages -->
<g id="edge7" class="edge">
<title>opencv&#45;&gt;ray&#45;packages</title>
<path fill="none" stroke="black" d="M110.01,-1461.72C116.69,-1459.71 123.66,-1457.71 130.24,-1456 190.75,-1440.29 260.38,-1425.88 310.92,-1416.06"/>
<polygon fill="black" stroke="black" points="311.41,-1419.53 320.57,-1414.19 310.08,-1412.65 311.41,-1419.53"/>
</g>
<!-- imp -->
<g id="node11" class="node">
<title>imp</title>
<g id="a_node11"><a xlink:href="https://github.com/conda-forge/imp-feedstock" xlink:title="imp">
<ellipse fill="#fde725" stroke="black" cx="133.24" cy="-1402" rx="30.16" ry="18"/>
<text text-anchor="middle" x="133.24" y="-1397.33" font-family="Times,serif" font-size="14.00">imp</text>
</a>
</g>
</g>
<!-- opencv&#45;&gt;imp -->
<g id="edge8" class="edge">
<title>opencv&#45;&gt;imp</title>
<path fill="none" stroke="black" d="M88.98,-1456.41C96.19,-1447.71 105.16,-1436.89 113.13,-1427.26"/>
<polygon fill="black" stroke="black" points="115.73,-1429.61 119.42,-1419.68 110.34,-1425.14 115.73,-1429.61"/>
</g>
<!-- gazebo&#45;yarp&#45;plugins -->
<g id="node12" class="node">
<title>gazebo&#45;yarp&#45;plugins</title>
<g id="a_node12"><a xlink:href="https://github.com/conda-forge/gazebo-yarp-plugins-feedstock" xlink:title="gazebo yarp plugins">
<ellipse fill="#fde725" stroke="black" cx="112.24" cy="-970" rx="112.24" ry="18"/>
<text text-anchor="middle" x="112.24" y="-965.33" font-family="Times,serif" font-size="14.00">gazebo yarp plugins</text>
</a>
</g>
</g>
<!-- opencv&#45;&gt;gazebo&#45;yarp&#45;plugins -->
<g id="edge9" class="edge">
<title>opencv&#45;&gt;gazebo&#45;yarp&#45;plugins</title>
<path fill="none" stroke="black" d="M75.24,-1455.51C75.24,-1428.71 75.24,-1375.87 75.24,-1331 75.24,-1331 75.24,-1331 75.24,-1113 75.24,-1072.25 89.68,-1026.98 100.52,-998.75"/>
<polygon fill="black" stroke="black" points="103.75,-1000.11 104.19,-989.52 97.25,-997.52 103.75,-1000.11"/>
</g>
<!-- mongodb -->
<g id="node19" class="node">
<title>mongodb</title>
<g id="a_node19"><a xlink:href="https://github.com/conda-forge/mongodb-feedstock" xlink:title="mongodb">
<ellipse fill="#35b779" stroke="black" cx="717.24" cy="-494" rx="57.52" ry="18"/>
<text text-anchor="middle" x="717.24" y="-489.32" font-family="Times,serif" font-size="14.00">mongodb</text>
</a>
</g>
</g>
<!-- r&#45;protolite&#45;&gt;mongodb -->
<!-- qgis -->
<g id="node14" class="node">
<title>qgis</title>
<g id="a_node14"><a xlink:href="https://github.com/conda-forge/qgis-feedstock" xlink:title="qgis">
<ellipse fill="#fde725" stroke="black" cx="447.24" cy="-1114" rx="32.27" ry="18"/>
<text text-anchor="middle" x="447.24" y="-1109.33" font-family="Times,serif" font-size="14.00">qgis</text>
</a>
</g>
</g>
<!-- tiledb -->
<g id="node15" class="node">
<title>tiledb</title>
<g id="a_node15"><a xlink:href="https://github.com/conda-forge/tiledb-feedstock" xlink:title="tiledb">
<ellipse fill="#fde725" stroke="black" cx="507.24" cy="-1186" rx="40.16" ry="18"/>
<text text-anchor="middle" x="507.24" y="-1181.33" font-family="Times,serif" font-size="14.00">tiledb</text>
</a>
</g>
</g>
<!-- tiledb&#45;&gt;qgis -->
<g id="edge11" class="edge">
<title>tiledb&#45;&gt;qgis</title>
<path fill="none" stroke="black" d="M493.32,-1168.76C485.79,-1159.98 476.35,-1148.96 467.97,-1139.19"/>
<polygon fill="black" stroke="black" points="470.82,-1137.13 461.65,-1131.81 465.5,-1141.69 470.82,-1137.13"/>
</g>
<!-- gazebo -->
<g id="node16" class="node">
<title>gazebo</title>
<g id="a_node16"><a xlink:href="https://github.com/conda-forge/gazebo-feedstock" xlink:title="gazebo">
<ellipse fill="#fde725" stroke="black" cx="172.24" cy="-1042" rx="46.47" ry="18"/>
<text text-anchor="middle" x="172.24" y="-1037.33" font-family="Times,serif" font-size="14.00">gazebo</text>
</a>
</g>
</g>
<!-- tiledb&#45;&gt;gazebo -->
<g id="edge12" class="edge">
<title>tiledb&#45;&gt;gazebo</title>
<path fill="none" stroke="black" d="M508.83,-1167.55C509.63,-1147.33 507.53,-1114.46 488.24,-1096 452.13,-1061.45 311.06,-1049.29 230.14,-1045.11"/>
<polygon fill="black" stroke="black" points="230.33,-1041.62 220.17,-1044.63 229.99,-1048.61 230.33,-1041.62"/>
</g>
<!-- gazebo&#45;&gt;gazebo&#45;yarp&#45;plugins -->
<g id="edge13" class="edge">
<title>gazebo&#45;&gt;gazebo&#45;yarp&#45;plugins</title>
<path fill="none" stroke="black" d="M158.02,-1024.41C150.87,-1016.08 142.06,-1005.8 134.08,-996.49"/>
<polygon fill="black" stroke="black" points="136.92,-994.42 127.76,-989.11 131.61,-998.98 136.92,-994.42"/>
</g>
<!-- pyaudi -->
<g id="node17" class="node">
<title>pyaudi</title>
<g id="a_node17"><a xlink:href="https://github.com/conda-forge/pyaudi-feedstock" xlink:title="pyaudi">
<ellipse fill="#fde725" stroke="black" cx="1689.24" cy="-18" rx="44.9" ry="18"/>
<text text-anchor="middle" x="1689.24" y="-13.32" font-family="Times,serif" font-size="14.00">pyaudi</text>
</a>
</g>
</g>
<!-- tensorflow -->
<g id="node18" class="node">
<title>tensorflow</title>
<g id="a_node18"><a xlink:href="https://github.com/conda-forge/tensorflow-feedstock" xlink:title="tensorflow">
<ellipse fill="#fde725" stroke="black" cx="545.24" cy="-1402" rx="63.84" ry="18"/>
<text text-anchor="middle" x="545.24" y="-1397.33" font-family="Times,serif" font-size="14.00">tensorflow</text>
</a>
</g>
</g>
<!-- zaber&#45;motion -->
<g id="node21" class="node">
<title>zaber&#45;motion</title>
<g id="a_node21"><a xlink:href="https://github.com/conda-forge/zaber-motion-feedstock" xlink:title="zaber motion">
<ellipse fill="#35b779" stroke="black" cx="717.24" cy="-422" rx="76.99" ry="18"/>
<text text-anchor="middle" x="717.24" y="-417.32" font-family="Times,serif" font-size="14.00">zaber motion</text>
</a>
</g>
</g>
<!-- mongodb&#45;&gt;zaber&#45;motion -->
<!-- pytorch&#45;cpu -->
<g id="node20" class="node">
<title>pytorch&#45;cpu</title>
<g id="a_node20"><a xlink:href="https://github.com/conda-forge/pytorch-cpu-feedstock/pull/221" xlink:title="pytorch cpu ❎">
<ellipse fill="#31688e" stroke="black" cx="225.24" cy="-1474" rx="85.93" ry="18"/>
<text text-anchor="middle" x="225.24" y="-1469.33" font-family="Times,serif" font-size="14.00" fill="white">pytorch cpu ❎</text>
</a>
</g>
</g>
<!-- pytorch&#45;cpu&#45;&gt;ray&#45;packages -->
<g id="edge15" class="edge">
<title>pytorch&#45;cpu&#45;&gt;ray&#45;packages</title>
<path fill="none" stroke="black" d="M260.25,-1457.29C282.7,-1447.21 312.08,-1434.03 336.26,-1423.18"/>
<polygon fill="black" stroke="black" points="337.54,-1426.44 345.23,-1419.16 334.68,-1420.06 337.54,-1426.44"/>
</g>
<!-- go&#45;cockroach -->
<g id="node32" class="node">
<title>go&#45;cockroach</title>
<g id="a_node32"><a xlink:href="https://github.com/conda-forge/go-cockroach-feedstock" xlink:title="go cockroach">
<ellipse fill="#35b779" stroke="black" cx="717.24" cy="-350" rx="76.46" ry="18"/>
<text text-anchor="middle" x="717.24" y="-345.32" font-family="Times,serif" font-size="14.00">go cockroach</text>
</a>
</g>
</g>
<!-- zaber&#45;motion&#45;&gt;go&#45;cockroach -->
<!-- jaxlib -->
<g id="node22" class="node">
<title>jaxlib</title>
<g id="a_node22"><a xlink:href="https://github.com/conda-forge/jaxlib-feedstock" xlink:title="jaxlib">
<ellipse fill="#35b779" stroke="black" cx="342.24" cy="-1546" rx="38.58" ry="18"/>
<text text-anchor="middle" x="342.24" y="-1541.33" font-family="Times,serif" font-size="14.00">jaxlib</text>
</a>
</g>
</g>
<!-- mujoco -->
<g id="node23" class="node">
<title>mujoco</title>
<g id="a_node23"><a xlink:href="https://github.com/conda-forge/mujoco-feedstock" xlink:title="mujoco">
<ellipse fill="#fde725" stroke="black" cx="376.24" cy="-1474" rx="47" ry="18"/>
<text text-anchor="middle" x="376.24" y="-1469.33" font-family="Times,serif" font-size="14.00">mujoco</text>
</a>
</g>
</g>
<!-- jaxlib&#45;&gt;mujoco -->
<g id="edge17" class="edge">
<title>jaxlib&#45;&gt;mujoco</title>
<path fill="none" stroke="black" d="M350.47,-1528.05C354.27,-1520.23 358.87,-1510.75 363.13,-1501.98"/>
<polygon fill="black" stroke="black" points="366.2,-1503.67 367.42,-1493.15 359.9,-1500.62 366.2,-1503.67"/>
</g>
<!-- mujoco&#45;&gt;ray&#45;packages -->
<g id="edge18" class="edge">
<title>mujoco&#45;&gt;ray&#45;packages</title>
<path fill="none" stroke="black" d="M377.47,-1455.7C377.99,-1448.41 378.61,-1439.73 379.2,-1431.54"/>
<polygon fill="black" stroke="black" points="382.69,-1431.84 379.91,-1421.61 375.7,-1431.34 382.69,-1431.84"/>
</g>
<!-- obake -->
<g id="node24" class="node">
<title>obake</title>
<g id="a_node24"><a xlink:href="https://github.com/conda-forge/obake-feedstock" xlink:title="obake">
<ellipse fill="#35b779" stroke="black" cx="1689.24" cy="-90" rx="40.69" ry="18"/>
<text text-anchor="middle" x="1689.24" y="-85.33" font-family="Times,serif" font-size="14.00">obake</text>
</a>
</g>
</g>
<!-- obake&#45;&gt;pyaudi -->
<g id="edge19" class="edge">
<title>obake&#45;&gt;pyaudi</title>
<path fill="none" stroke="black" d="M1689.24,-71.7C1689.24,-64.41 1689.24,-55.73 1689.24,-47.54"/>
<polygon fill="black" stroke="black" points="1692.74,-47.62 1689.24,-37.62 1685.74,-47.62 1692.74,-47.62"/>
</g>
<!-- libignition&#45;transport4 -->
<g id="node25" class="node">
<title>libignition&#45;transport4</title>
<g id="a_node25"><a xlink:href="https://github.com/conda-forge/libignition-transport4-feedstock" xlink:title="libignition transport4">
<ellipse fill="#fde725" stroke="black" cx="2148.24" cy="-1330" rx="119.08" ry="18"/>
<text text-anchor="middle" x="2148.24" y="-1325.33" font-family="Times,serif" font-size="14.00">libignition transport4</text>
</a>
</g>
</g>
<!-- libignition&#45;sensors -->
<g id="node26" class="node">
<title>libignition&#45;sensors</title>
<g id="a_node26"><a xlink:href="https://github.com/conda-forge/libignition-sensors-feedstock" xlink:title="libignition sensors">
<ellipse fill="#fde725" stroke="black" cx="2303.24" cy="-1258" rx="103.82" ry="18"/>
<text text-anchor="middle" x="2303.24" y="-1253.33" font-family="Times,serif" font-size="14.00">libignition sensors</text>
</a>
</g>
</g>
<!-- libignition&#45;transport4&#45;&gt;libignition&#45;sensors -->
<g id="edge20" class="edge">
<title>libignition&#45;transport4&#45;&gt;libignition&#45;sensors</title>
<path fill="none" stroke="black" d="M2184.97,-1312.41C2206.47,-1302.7 2233.83,-1290.34 2256.82,-1279.96"/>
<polygon fill="black" stroke="black" points="2257.98,-1283.28 2265.66,-1275.97 2255.1,-1276.9 2257.98,-1283.28"/>
</g>
<!-- libignition&#45;gui -->
<g id="node27" class="node">
<title>libignition&#45;gui</title>
<g id="a_node27"><a xlink:href="https://github.com/conda-forge/libignition-gui-feedstock" xlink:title="libignition gui">
<ellipse fill="#fde725" stroke="black" cx="2024.24" cy="-1258" rx="81.2" ry="18"/>
<text text-anchor="middle" x="2024.24" y="-1253.33" font-family="Times,serif" font-size="14.00">libignition gui</text>
</a>
</g>
</g>
<!-- libignition&#45;transport4&#45;&gt;libignition&#45;gui -->
<g id="edge21" class="edge">
<title>libignition&#45;transport4&#45;&gt;libignition&#45;gui</title>
<path fill="none" stroke="black" d="M2118.54,-1312.23C2101.81,-1302.79 2080.73,-1290.89 2062.74,-1280.74"/>
<polygon fill="black" stroke="black" points="2064.59,-1277.76 2054.16,-1275.89 2061.15,-1283.86 2064.59,-1277.76"/>
</g>
<!-- libignition&#45;gazebo -->
<g id="node28" class="node">
<title>libignition&#45;gazebo</title>
<g id="a_node28"><a xlink:href="https://github.com/conda-forge/libignition-gazebo-feedstock" xlink:title="libignition gazebo">
<ellipse fill="#fde725" stroke="black" cx="2283.24" cy="-1186" rx="100.66" ry="18"/>
<text text-anchor="middle" x="2283.24" y="-1181.33" font-family="Times,serif" font-size="14.00">libignition gazebo</text>
</a>
</g>
</g>
<!-- libignition&#45;transport4&#45;&gt;libignition&#45;gazebo -->
<g id="edge22" class="edge">
<title>libignition&#45;transport4&#45;&gt;libignition&#45;gazebo</title>
<path fill="none" stroke="black" d="M2152.91,-1311.8C2158.89,-1292.43 2170.85,-1260.94 2190.24,-1240 2202.35,-1226.91 2218.46,-1216.19 2233.85,-1207.89"/>
<polygon fill="black" stroke="black" points="2235.17,-1211.16 2242.47,-1203.49 2231.98,-1204.92 2235.17,-1211.16"/>
</g>
<!-- libignition&#45;launch -->
<g id="node29" class="node">
<title>libignition&#45;launch</title>
<g id="a_node29"><a xlink:href="https://github.com/conda-forge/libignition-launch-feedstock" xlink:title="libignition launch">
<ellipse fill="#fde725" stroke="black" cx="2218.24" cy="-1114" rx="98.56" ry="18"/>
<text text-anchor="middle" x="2218.24" y="-1109.33" font-family="Times,serif" font-size="14.00">libignition launch</text>
</a>
</g>
</g>
<!-- libignition&#45;transport4&#45;&gt;libignition&#45;launch -->
<g id="edge23" class="edge">
<title>libignition&#45;transport4&#45;&gt;libignition&#45;launch</title>
<path fill="none" stroke="black" d="M2147.91,-1311.68C2147.97,-1281.2 2151,-1216.62 2173.24,-1168 2177.81,-1158 2184.82,-1148.41 2191.96,-1140.2"/>
<polygon fill="black" stroke="black" points="2194.41,-1142.72 2198.62,-1133 2189.26,-1137.97 2194.41,-1142.72"/>
</g>
<!-- libignition&#45;sensors&#45;&gt;libignition&#45;gazebo -->
<g id="edge24" class="edge">
<title>libignition&#45;sensors&#45;&gt;libignition&#45;gazebo</title>
<path fill="none" stroke="black" d="M2298.29,-1239.7C2296.16,-1232.24 2293.61,-1223.32 2291.23,-1214.97"/>
<polygon fill="black" stroke="black" points="2294.65,-1214.21 2288.54,-1205.56 2287.92,-1216.14 2294.65,-1214.21"/>
</g>
<!-- libignition&#45;gui&#45;&gt;libignition&#45;gazebo -->
<g id="edge25" class="edge">
<title>libignition&#45;gui&#45;&gt;libignition&#45;gazebo</title>
<path fill="none" stroke="black" d="M2074.48,-1243.42C2115.44,-1232.35 2173.58,-1216.64 2218.1,-1204.6"/>
<polygon fill="black" stroke="black" points="2218.91,-1208.01 2227.65,-1202.02 2217.08,-1201.25 2218.91,-1208.01"/>
</g>
<!-- libignition&#45;gui&#45;&gt;libignition&#45;launch -->
<g id="edge26" class="edge">
<title>libignition&#45;gui&#45;&gt;libignition&#45;launch</title>
<path fill="none" stroke="black" d="M2039.58,-1240.18C2057.48,-1221.17 2088.57,-1190 2119.24,-1168 2135.92,-1156.03 2155.64,-1144.94 2173.06,-1136.03"/>
<polygon fill="black" stroke="black" points="2174.29,-1139.33 2181.67,-1131.72 2171.16,-1133.07 2174.29,-1139.33"/>
</g>
<!-- libignition&#45;gazebo&#45;&gt;libignition&#45;launch -->
<g id="edge27" class="edge">
<title>libignition&#45;gazebo&#45;&gt;libignition&#45;launch</title>
<path fill="none" stroke="black" d="M2267.5,-1168.05C2259.68,-1159.63 2250.07,-1149.28 2241.42,-1139.97"/>
<polygon fill="black" stroke="black" points="2244.23,-1137.84 2234.86,-1132.9 2239.1,-1142.61 2244.23,-1137.84"/>
</g>
<!-- libignition&#45;msgs1 -->
<g id="node30" class="node">
<title>libignition&#45;msgs1</title>
<g id="a_node30"><a xlink:href="https://github.com/conda-forge/libignition-msgs1-feedstock" xlink:title="libignition msgs1">
<ellipse fill="#35b779" stroke="black" cx="2365.24" cy="-1402" rx="98.03" ry="18"/>
<text text-anchor="middle" x="2365.24" y="-1397.33" font-family="Times,serif" font-size="14.00">libignition msgs1</text>
</a>
</g>
</g>
<!-- libignition&#45;msgs1&#45;&gt;libignition&#45;transport4 -->
<g id="edge28" class="edge">
<title>libignition&#45;msgs1&#45;&gt;libignition&#45;transport4</title>
<path fill="none" stroke="black" d="M2318.15,-1385.81C2285.87,-1375.4 2242.77,-1361.5 2208.06,-1350.3"/>
<polygon fill="black" stroke="black" points="2209.14,-1346.97 2198.55,-1347.23 2206.99,-1353.63 2209.14,-1346.97"/>
</g>
<!-- libignition&#45;msgs1&#45;&gt;libignition&#45;sensors -->
<g id="edge29" class="edge">
<title>libignition&#45;msgs1&#45;&gt;libignition&#45;sensors</title>
<path fill="none" stroke="black" d="M2343.45,-1384.2C2332.83,-1374.76 2320.94,-1362.06 2314.24,-1348 2305.27,-1329.18 2302.68,-1305.7 2302.24,-1287.59"/>
<polygon fill="black" stroke="black" points="2305.74,-1287.8 2302.23,-1277.8 2298.74,-1287.81 2305.74,-1287.8"/>
</g>
<!-- libignition&#45;msgs1&#45;&gt;libignition&#45;gui -->
<g id="edge30" class="edge">
<title>libignition&#45;msgs1&#45;&gt;libignition&#45;gui</title>
<path fill="none" stroke="black" d="M2267.69,-1399.69C2177.1,-1396.15 2051.61,-1384.56 2020.24,-1348 2006.16,-1331.59 2008.65,-1306.57 2013.81,-1287.23"/>
<polygon fill="black" stroke="black" points="2017.12,-1288.36 2016.7,-1277.78 2010.43,-1286.31 2017.12,-1288.36"/>
</g>
<!-- libignition&#45;msgs1&#45;&gt;libignition&#45;gazebo -->
<g id="edge31" class="edge">
<title>libignition&#45;msgs1&#45;&gt;libignition&#45;gazebo</title>
<path fill="none" stroke="black" d="M2449.86,-1392.52C2512.67,-1382.26 2583.14,-1359.93 2556.24,-1312 2519.34,-1246.25 2436.99,-1214.9 2372.33,-1200.06"/>
<polygon fill="black" stroke="black" points="2373.29,-1196.69 2362.78,-1197.97 2371.8,-1203.53 2373.29,-1196.69"/>
</g>
<!-- libignition&#45;msgs1&#45;&gt;libignition&#45;launch -->
<g id="edge32" class="edge">
<title>libignition&#45;msgs1&#45;&gt;libignition&#45;launch</title>
<path fill="none" stroke="black" d="M2443.87,-1390.94C2495.47,-1382.54 2556.26,-1368.59 2572.24,-1348 2582.05,-1335.36 2577.36,-1327.16 2572.24,-1312 2534.34,-1199.96 2393.48,-1150.11 2301.28,-1129.09"/>
<polygon fill="black" stroke="black" points="2302.28,-1125.73 2291.76,-1126.99 2300.78,-1132.56 2302.28,-1125.73"/>
</g>
<!-- libignition&#45;fuel&#45;tools -->
<g id="node31" class="node">
<title>libignition&#45;fuel&#45;tools</title>
<g id="a_node31"><a xlink:href="https://github.com/conda-forge/libignition-fuel-tools-feedstock" xlink:title="libignition fuel tools">
<ellipse fill="#fde725" stroke="black" cx="2435.24" cy="-1330" rx="111.71" ry="18"/>
<text text-anchor="middle" x="2435.24" y="-1325.33" font-family="Times,serif" font-size="14.00">libignition fuel tools</text>
</a>
</g>
</g>
<!-- libignition&#45;msgs1&#45;&gt;libignition&#45;fuel&#45;tools -->
<g id="edge33" class="edge">
<title>libignition&#45;msgs1&#45;&gt;libignition&#45;fuel&#45;tools</title>
<path fill="none" stroke="black" d="M2382.18,-1384.05C2390.48,-1375.75 2400.65,-1365.58 2409.86,-1356.38"/>
<polygon fill="black" stroke="black" points="2412.3,-1358.89 2416.89,-1349.35 2407.35,-1353.94 2412.3,-1358.89"/>
</g>
<!-- libignition&#45;fuel&#45;tools&#45;&gt;libignition&#45;gazebo -->
<g id="edge34" class="edge">
<title>libignition&#45;fuel&#45;tools&#45;&gt;libignition&#45;gazebo</title>
<path fill="none" stroke="black" d="M2436.11,-1311.52C2436.15,-1291.89 2433.25,-1260.16 2416.24,-1240 2401.97,-1223.1 2381.55,-1211.54 2360.98,-1203.66"/>
<polygon fill="black" stroke="black" points="2362.27,-1200.4 2351.67,-1200.36 2359.93,-1207 2362.27,-1200.4"/>
</g>
<!-- cartographer -->
<g id="node34" class="node">
<title>cartographer</title>
<g id="a_node34"><a xlink:href="https://github.com/conda-forge/cartographer-feedstock" xlink:title="cartographer">
<ellipse fill="#35b779" stroke="black" cx="717.24" cy="-278" rx="76.99" ry="18"/>
<text text-anchor="middle" x="717.24" y="-273.32" font-family="Times,serif" font-size="14.00">cartographer</text>
</a>
</g>
</g>
<!-- go&#45;cockroach&#45;&gt;cartographer -->
<!-- google&#45;cloud&#45;cpp -->
<g id="node33" class="node">
<title>google&#45;cloud&#45;cpp</title>
<g id="a_node33"><a xlink:href="https://github.com/conda-forge/google-cloud-cpp-feedstock" xlink:title="google cloud cpp">
<ellipse fill="#fde725" stroke="black" cx="819.24" cy="-1258" rx="95.4" ry="18"/>
<text text-anchor="middle" x="819.24" y="-1253.33" font-family="Times,serif" font-size="14.00">google cloud cpp</text>
</a>
</g>
</g>
<!-- google&#45;cloud&#45;cpp&#45;&gt;tiledb -->
<g id="edge36" class="edge">
<title>google&#45;cloud&#45;cpp&#45;&gt;tiledb</title>
<path fill="none" stroke="black" d="M759.45,-1243.59C699.48,-1230.13 608.4,-1209.7 553.67,-1197.42"/>
<polygon fill="black" stroke="black" points="554.57,-1194.03 544.04,-1195.26 553.03,-1200.86 554.57,-1194.03"/>
</g>
<!-- sentencepiece -->
<g id="node35" class="node">
<title>sentencepiece</title>
<g id="a_node35"><a xlink:href="https://github.com/conda-forge/sentencepiece-feedstock" xlink:title="sentencepiece">
<ellipse fill="#35b779" stroke="black" cx="717.24" cy="-206" rx="82.25" ry="18"/>
<text text-anchor="middle" x="717.24" y="-201.33" font-family="Times,serif" font-size="14.00">sentencepiece</text>
</a>
</g>
</g>
<!-- cartographer&#45;&gt;sentencepiece -->
<!-- tomviz -->
<g id="node36" class="node">
<title>tomviz</title>
<g id="a_node36"><a xlink:href="https://github.com/conda-forge/tomviz-feedstock" xlink:title="tomviz">
<ellipse fill="#35b779" stroke="black" cx="717.24" cy="-134" rx="44.9" ry="18"/>
<text text-anchor="middle" x="717.24" y="-129.32" font-family="Times,serif" font-size="14.00">tomviz</text>
</a>
</g>
</g>
<!-- sentencepiece&#45;&gt;tomviz -->
<!-- s2geometry -->
<g id="node37" class="node">
<title>s2geometry</title>
<g id="a_node37"><a xlink:href="https://github.com/conda-forge/s2geometry-feedstock" xlink:title="s2geometry">
<ellipse fill="#35b779" stroke="black" cx="717.24" cy="-90" rx="70.68" ry="18"/>
<text text-anchor="middle" x="717.24" y="-85.33" font-family="Times,serif" font-size="14.00">s2geometry</text>
</a>
</g>
</g>
<!-- s2geography -->
<g id="node38" class="node">
<title>s2geography</title>
<g id="a_node38"><a xlink:href="https://github.com/conda-forge/s2geography-feedstock" xlink:title="s2geography">
<ellipse fill="#fde725" stroke="black" cx="717.24" cy="-18" rx="75.94" ry="18"/>
<text text-anchor="middle" x="717.24" y="-13.32" font-family="Times,serif" font-size="14.00">s2geography</text>
</a>
</g>
</g>
<!-- s2geometry&#45;&gt;s2geography -->
<g id="edge40" class="edge">
<title>s2geometry&#45;&gt;s2geography</title>
<path fill="none" stroke="black" d="M717.24,-71.7C717.24,-64.41 717.24,-55.73 717.24,-47.54"/>
<polygon fill="black" stroke="black" points="720.74,-47.62 717.24,-37.62 713.74,-47.62 720.74,-47.62"/>
</g>
<!-- dm&#45;tree -->
<g id="node39" class="node">
<title>dm&#45;tree</title>
<g id="a_node39"><a xlink:href="https://github.com/conda-forge/dm-tree-feedstock/pull/37" xlink:title="dm tree ❎">
<ellipse fill="#31688e" stroke="black" cx="545.24" cy="-1474" rx="65.94" ry="18"/>
<text text-anchor="middle" x="545.24" y="-1469.33" font-family="Times,serif" font-size="14.00" fill="white">dm tree ❎</text>
</a>
</g>
</g>
<!-- dm&#45;tree&#45;&gt;ray&#45;packages -->
<g id="edge41" class="edge">
<title>dm&#45;tree&#45;&gt;ray&#45;packages</title>
<path fill="none" stroke="black" d="M510.86,-1458.33C486.67,-1448 454.02,-1434.07 427.54,-1422.77"/>
<polygon fill="black" stroke="black" points="428.95,-1419.56 418.38,-1418.85 426.2,-1426 428.95,-1419.56"/>
</g>
<!-- dm&#45;tree&#45;&gt;tensorflow -->
<g id="edge42" class="edge">
<title>dm&#45;tree&#45;&gt;tensorflow</title>
<path fill="none" stroke="black" d="M545.24,-1455.7C545.24,-1448.41 545.24,-1439.73 545.24,-1431.54"/>
<polygon fill="black" stroke="black" points="548.74,-1431.62 545.24,-1421.62 541.74,-1431.62 548.74,-1431.62"/>
</g>
<!-- protozfits -->
<g id="node40" class="node">
<title>protozfits</title>
<g id="a_node40"><a xlink:href="https://github.com/conda-forge/protozfits-feedstock" xlink:title="protozfits">
<ellipse fill="#35b779" stroke="black" cx="1689.24" cy="-1618" rx="59.1" ry="18"/>
<text text-anchor="middle" x="1689.24" y="-1613.33" font-family="Times,serif" font-size="14.00">protozfits</text>
</a>
</g>
</g>
<!-- or&#45;tools -->
<g id="node41" class="node">
<title>or&#45;tools</title>
<g id="a_node41"><a xlink:href="https://github.com/conda-forge/or-tools-feedstock" xlink:title="or tools">
<ellipse fill="#35b779" stroke="black" cx="1689.24" cy="-1546" rx="49.1" ry="18"/>
<text text-anchor="middle" x="1689.24" y="-1541.33" font-family="Times,serif" font-size="14.00">or tools</text>
</a>
</g>
</g>
<!-- protozfits&#45;&gt;or&#45;tools -->
<!-- bear -->
<g id="node42" class="node">
<title>bear</title>
<g id="a_node42"><a xlink:href="https://github.com/conda-forge/bear-feedstock" xlink:title="bear">
<ellipse fill="#35b779" stroke="black" cx="1689.24" cy="-1474" rx="33.85" ry="18"/>
<text text-anchor="middle" x="1689.24" y="-1469.33" font-family="Times,serif" font-size="14.00">bear</text>
</a>
</g>
</g>
<!-- or&#45;tools&#45;&gt;bear -->
<!-- cpp&#45;opentelemetry&#45;sdk -->
<g id="node43" class="node">
<title>cpp&#45;opentelemetry&#45;sdk</title>
<g id="a_node43"><a xlink:href="https://github.com/conda-forge/cpp-opentelemetry-sdk-feedstock" xlink:title="cpp opentelemetry sdk">
<ellipse fill="#35b779" stroke="black" cx="1689.24" cy="-1402" rx="125.92" ry="18"/>
<text text-anchor="middle" x="1689.24" y="-1397.33" font-family="Times,serif" font-size="14.00">cpp opentelemetry sdk</text>
</a>
</g>
</g>
<!-- bear&#45;&gt;cpp&#45;opentelemetry&#45;sdk -->
<!-- singlejar -->
<g id="node44" class="node">
<title>singlejar</title>
<g id="a_node44"><a xlink:href="https://github.com/conda-forge/singlejar-feedstock" xlink:title="singlejar">
<ellipse fill="#35b779" stroke="black" cx="1689.24" cy="-1330" rx="54.89" ry="18"/>
<text text-anchor="middle" x="1689.24" y="-1325.33" font-family="Times,serif" font-size="14.00">singlejar</text>
</a>
</g>
</g>
<!-- cpp&#45;opentelemetry&#45;sdk&#45;&gt;singlejar -->
<!-- xilinx&#45;runtime -->
<g id="node45" class="node">
<title>xilinx&#45;runtime</title>
<g id="a_node45"><a xlink:href="https://github.com/conda-forge/xilinx-runtime-feedstock" xlink:title="xilinx runtime">
<ellipse fill="#35b779" stroke="black" cx="1689.24" cy="-1258" rx="81.72" ry="18"/>
<text text-anchor="middle" x="1689.24" y="-1253.33" font-family="Times,serif" font-size="14.00">xilinx runtime</text>
</a>
</g>
</g>
<!-- singlejar&#45;&gt;xilinx&#45;runtime -->
<!-- libpulsar -->
<g id="node46" class="node">
<title>libpulsar</title>
<g id="a_node46"><a xlink:href="https://github.com/conda-forge/libpulsar-feedstock" xlink:title="libpulsar">
<ellipse fill="#35b779" stroke="black" cx="1689.24" cy="-1186" rx="55.42" ry="18"/>
<text text-anchor="middle" x="1689.24" y="-1181.33" font-family="Times,serif" font-size="14.00">libpulsar</text>
</a>
</g>
</g>
<!-- xilinx&#45;runtime&#45;&gt;libpulsar -->
<!-- gnss&#45;sdr -->
<g id="node56" class="node">
<title>gnss&#45;sdr</title>
<g id="a_node56"><a xlink:href="https://github.com/conda-forge/gnss-sdr-feedstock" xlink:title="gnss sdr">
<ellipse fill="#35b779" stroke="black" cx="1689.24" cy="-1114" rx="53.84" ry="18"/>
<text text-anchor="middle" x="1689.24" y="-1109.33" font-family="Times,serif" font-size="14.00">gnss sdr</text>
</a>
</g>
</g>
<!-- libpulsar&#45;&gt;gnss&#45;sdr -->
<!-- gz&#45;msgs -->
<g id="node47" class="node">
<title>gz&#45;msgs</title>
<g id="a_node47"><a xlink:href="https://github.com/conda-forge/gz-msgs-feedstock" xlink:title="gz msgs">
<ellipse fill="#35b779" stroke="black" cx="1650.24" cy="-638" rx="52.26" ry="18"/>
<text text-anchor="middle" x="1650.24" y="-633.33" font-family="Times,serif" font-size="14.00">gz msgs</text>
</a>
</g>
</g>
<!-- gz&#45;transport -->
<g id="node48" class="node">
<title>gz&#45;transport</title>
<g id="a_node48"><a xlink:href="https://github.com/conda-forge/gz-transport-feedstock" xlink:title="gz transport">
<ellipse fill="#fde725" stroke="black" cx="1600.24" cy="-566" rx="73.3" ry="18"/>
<text text-anchor="middle" x="1600.24" y="-561.33" font-family="Times,serif" font-size="14.00">gz transport</text>
</a>
</g>
</g>
<!-- gz&#45;msgs&#45;&gt;gz&#45;transport -->
<g id="edge49" class="edge">
<title>gz&#45;msgs&#45;&gt;gz&#45;transport</title>
<path fill="none" stroke="black" d="M1638.13,-620.05C1632.36,-611.97 1625.32,-602.12 1618.89,-593.11"/>
<polygon fill="black" stroke="black" points="1621.77,-591.12 1613.11,-585.02 1616.07,-595.19 1621.77,-591.12"/>
</g>
<!-- gz&#45;fuel&#45;tools -->
<g id="node49" class="node">
<title>gz&#45;fuel&#45;tools</title>
<g id="a_node49"><a xlink:href="https://github.com/conda-forge/gz-fuel-tools-feedstock" xlink:title="gz fuel tools">
<ellipse fill="#fde725" stroke="black" cx="1801.24" cy="-566" rx="72.25" ry="18"/>
<text text-anchor="middle" x="1801.24" y="-561.33" font-family="Times,serif" font-size="14.00">gz fuel tools</text>
</a>
</g>
</g>
<!-- gz&#45;msgs&#45;&gt;gz&#45;fuel&#45;tools -->
<g id="edge50" class="edge">
<title>gz&#45;msgs&#45;&gt;gz&#45;fuel&#45;tools</title>
<path fill="none" stroke="black" d="M1680.43,-623C1702.57,-612.74 1732.96,-598.65 1757.72,-587.17"/>
<polygon fill="black" stroke="black" points="1758.97,-590.45 1766.57,-583.07 1756.03,-584.1 1758.97,-590.45"/>
</g>
<!-- gz&#45;gui -->
<g id="node50" class="node">
<title>gz&#45;gui</title>
<g id="a_node50"><a xlink:href="https://github.com/conda-forge/gz-gui-feedstock" xlink:title="gz gui">
<ellipse fill="#fde725" stroke="black" cx="1509.24" cy="-494" rx="41.74" ry="18"/>
<text text-anchor="middle" x="1509.24" y="-489.32" font-family="Times,serif" font-size="14.00">gz gui</text>
</a>
</g>
</g>
<!-- gz&#45;msgs&#45;&gt;gz&#45;gui -->
<g id="edge51" class="edge">
<title>gz&#45;msgs&#45;&gt;gz&#45;gui</title>
<path fill="none" stroke="black" d="M1602.43,-630.38C1573.36,-623.73 1538.13,-610.45 1518.24,-584 1505.39,-566.92 1503.75,-542.47 1504.99,-523.53"/>
<polygon fill="black" stroke="black" points="1508.45,-524.08 1505.94,-513.78 1501.49,-523.39 1508.45,-524.08"/>
</g>
<!-- gz&#45;sensors -->
<g id="node51" class="node">
<title>gz&#45;sensors</title>
<g id="a_node51"><a xlink:href="https://github.com/conda-forge/gz-sensors-feedstock" xlink:title="gz sensors">
<ellipse fill="#fde725" stroke="black" cx="1709.24" cy="-494" rx="64.36" ry="18"/>
<text text-anchor="middle" x="1709.24" y="-489.32" font-family="Times,serif" font-size="14.00">gz sensors</text>
</a>
</g>
</g>
<!-- gz&#45;msgs&#45;&gt;gz&#45;sensors -->
<g id="edge52" class="edge">
<title>gz&#45;msgs&#45;&gt;gz&#45;sensors</title>
<path fill="none" stroke="black" d="M1661.73,-620.4C1668.39,-610.23 1676.55,-596.77 1682.24,-584 1690.98,-564.37 1697.93,-541.1 1702.58,-523.28"/>
<polygon fill="black" stroke="black" points="1705.96,-524.2 1705.01,-513.65 1699.17,-522.5 1705.96,-524.2"/>
</g>
<!-- gz&#45;sim -->
<g id="node52" class="node">
<title>gz&#45;sim</title>
<g id="a_node52"><a xlink:href="https://github.com/conda-forge/gz-sim-feedstock" xlink:title="gz sim">
<ellipse fill="#fde725" stroke="black" cx="1680.24" cy="-422" rx="43.84" ry="18"/>
<text text-anchor="middle" x="1680.24" y="-417.32" font-family="Times,serif" font-size="14.00">gz sim</text>
</a>
</g>
</g>
<!-- gz&#45;msgs&#45;&gt;gz&#45;sim -->
<g id="edge53" class="edge">
<title>gz&#45;msgs&#45;&gt;gz&#45;sim</title>
<path fill="none" stroke="black" d="M1700.56,-632.71C1761.84,-626.32 1859.96,-611.94 1882.24,-584 1935,-517.83 1800.2,-461.72 1725.69,-436.8"/>
<polygon fill="black" stroke="black" points="1727.2,-433.61 1716.61,-433.83 1725.02,-440.27 1727.2,-433.61"/>
</g>
<!-- gz&#45;launch -->
<g id="node53" class="node">
<title>gz&#45;launch</title>
<g id="a_node53"><a xlink:href="https://github.com/conda-forge/gz-launch-feedstock" xlink:title="gz launch">
<ellipse fill="#fde725" stroke="black" cx="1560.24" cy="-350" rx="59.1" ry="18"/>
<text text-anchor="middle" x="1560.24" y="-345.32" font-family="Times,serif" font-size="14.00">gz launch</text>
</a>
</g>
</g>
<!-- gz&#45;msgs&#45;&gt;gz&#45;launch -->
<g id="edge54" class="edge">
<title>gz&#45;msgs&#45;&gt;gz&#45;launch</title>
<path fill="none" stroke="black" d="M1604.53,-628.99C1573.06,-621.61 1531.77,-608.03 1502.24,-584 1473.15,-560.33 1468.39,-548.1 1458.24,-512 1442.83,-457.24 1494.12,-403.41 1529.48,-373.97"/>
<polygon fill="black" stroke="black" points="1531.32,-376.98 1536.89,-367.97 1526.92,-371.54 1531.32,-376.98"/>
</g>
<!-- gz&#45;transport&#45;&gt;gz&#45;gui -->
<g id="edge55" class="edge">
<title>gz&#45;transport&#45;&gt;gz&#45;gui</title>
<path fill="none" stroke="black" d="M1578.67,-548.41C1566.58,-539.11 1551.32,-527.38 1538.2,-517.28"/>
<polygon fill="black" stroke="black" points="1540.35,-514.52 1530.29,-511.2 1536.09,-520.07 1540.35,-514.52"/>
</g>
<!-- gz&#45;transport&#45;&gt;gz&#45;sensors -->
<g id="edge56" class="edge">
<title>gz&#45;transport&#45;&gt;gz&#45;sensors</title>
<path fill="none" stroke="black" d="M1625.52,-548.76C1640.2,-539.33 1658.91,-527.32 1674.91,-517.04"/>
<polygon fill="black" stroke="black" points="1676.67,-520.07 1683.2,-511.72 1672.89,-514.18 1676.67,-520.07"/>
</g>
<!-- gz&#45;transport&#45;&gt;gz&#45;sim -->
<g id="edge57" class="edge">
<title>gz&#45;transport&#45;&gt;gz&#45;sim</title>
<path fill="none" stroke="black" d="M1605.41,-547.87C1611.38,-529.39 1622.22,-499.46 1636.24,-476 1642.16,-466.1 1649.86,-456.13 1657.17,-447.55"/>
<polygon fill="black" stroke="black" points="1659.56,-450.13 1663.55,-440.32 1654.31,-445.5 1659.56,-450.13"/>
</g>
<!-- gz&#45;transport&#45;&gt;gz&#45;launch -->
<g id="edge58" class="edge">
<title>gz&#45;transport&#45;&gt;gz&#45;launch</title>
<path fill="none" stroke="black" d="M1597.03,-547.85C1590.17,-511.14 1574.01,-424.66 1565.57,-379.53"/>
<polygon fill="black" stroke="black" points="1569.01,-378.91 1563.74,-369.72 1562.13,-380.19 1569.01,-378.91"/>
</g>
<!-- gz&#45;fuel&#45;tools&#45;&gt;gz&#45;sim -->
<g id="edge59" class="edge">
<title>gz&#45;fuel&#45;tools&#45;&gt;gz&#45;sim</title>
<path fill="none" stroke="black" d="M1801.74,-547.82C1801.44,-528.47 1798.23,-496.99 1782.24,-476 1768.3,-457.7 1746.23,-445.13 1726.18,-436.85"/>
<polygon fill="black" stroke="black" points="1727.62,-433.65 1717.03,-433.33 1725.11,-440.19 1727.62,-433.65"/>
</g>
<!-- gz&#45;gui&#45;&gt;gz&#45;sim -->
<g id="edge60" class="edge">
<title>gz&#45;gui&#45;&gt;gz&#45;sim</title>
<path fill="none" stroke="black" d="M1538.63,-480.97C1566.48,-469.57 1608.54,-452.35 1639.59,-439.64"/>
<polygon fill="black" stroke="black" points="1640.75,-442.95 1648.68,-435.92 1638.1,-436.47 1640.75,-442.95"/>
</g>
<!-- gz&#45;gui&#45;&gt;gz&#45;launch -->
<g id="edge61" class="edge">
<title>gz&#45;gui&#45;&gt;gz&#45;launch</title>
<path fill="none" stroke="black" d="M1515.39,-475.87C1524.04,-451.78 1539.91,-407.6 1550.26,-378.77"/>
<polygon fill="black" stroke="black" points="1553.47,-380.21 1553.55,-369.61 1546.88,-377.84 1553.47,-380.21"/>
</g>
<!-- gz&#45;sensors&#45;&gt;gz&#45;sim -->
<g id="edge62" class="edge">
<title>gz&#45;sensors&#45;&gt;gz&#45;sim</title>
<path fill="none" stroke="black" d="M1702.07,-475.7C1698.94,-468.15 1695.2,-459.12 1691.7,-450.68"/>
<polygon fill="black" stroke="black" points="1694.96,-449.4 1687.9,-441.5 1688.5,-452.08 1694.96,-449.4"/>
</g>
<!-- gz&#45;sim&#45;&gt;gz&#45;launch -->
<g id="edge63" class="edge">
<title>gz&#45;sim&#45;&gt;gz&#45;launch</title>
<path fill="none" stroke="black" d="M1655.66,-406.67C1638.69,-396.77 1615.83,-383.43 1596.73,-372.29"/>
<polygon fill="black" stroke="black" points="1598.57,-369.31 1588.17,-367.29 1595.04,-375.36 1598.57,-369.31"/>
</g>
<!-- labmaze -->
<g id="node54" class="node">
<title>labmaze</title>
<g id="a_node54"><a xlink:href="https://github.com/conda-forge/labmaze-feedstock" xlink:title="labmaze">
<ellipse fill="#35b779" stroke="black" cx="451.24" cy="-1546" rx="52.79" ry="18"/>
<text text-anchor="middle" x="451.24" y="-1541.33" font-family="Times,serif" font-size="14.00">labmaze</text>
</a>
</g>
</g>
<!-- labmaze&#45;&gt;ray&#45;packages -->
<g id="edge64" class="edge">
<title>labmaze&#45;&gt;ray&#45;packages</title>
<path fill="none" stroke="black" d="M450.35,-1527.64C448.77,-1508.97 444.39,-1478.88 432.24,-1456 426.67,-1445.51 418.41,-1435.65 410.16,-1427.34"/>
<polygon fill="black" stroke="black" points="412.76,-1424.99 403.1,-1420.63 407.94,-1430.06 412.76,-1424.99"/>
</g>
<!-- openvino -->
<g id="node55" class="node">
<title>openvino</title>
<g id="a_node55"><a xlink:href="https://github.com/conda-forge/openvino-feedstock/pull/74" xlink:title="openvino ❎">
<ellipse fill="#31688e" stroke="black" cx="75.24" cy="-1546" rx="71.73" ry="18"/>
<text text-anchor="middle" x="75.24" y="-1541.33" font-family="Times,serif" font-size="14.00" fill="white">openvino ❎</text>
</a>
</g>
</g>
<!-- openvino&#45;&gt;opencv -->
<g id="edge65" class="edge">
<title>openvino&#45;&gt;opencv</title>
<path fill="none" stroke="black" d="M75.24,-1527.7C75.24,-1520.41 75.24,-1511.73 75.24,-1503.54"/>
<polygon fill="black" stroke="black" points="78.74,-1503.62 75.24,-1493.62 71.74,-1503.62 78.74,-1503.62"/>
</g>
<!-- tensorstore -->
<g id="node57" class="node">
<title>tensorstore</title>
<g id="a_node57"><a xlink:href="https://github.com/conda-forge/tensorstore-feedstock" xlink:title="tensorstore">
<ellipse fill="#35b779" stroke="black" cx="1689.24" cy="-1042" rx="69.1" ry="18"/>
<text text-anchor="middle" x="1689.24" y="-1037.33" font-family="Times,serif" font-size="14.00">tensorstore</text>
</a>
</g>
</g>
<!-- gnss&#45;sdr&#45;&gt;tensorstore -->
<!-- gcld3 -->
<g id="node58" class="node">
<title>gcld3</title>
<g id="a_node58"><a xlink:href="https://github.com/conda-forge/gcld3-feedstock" xlink:title="gcld3">
<ellipse fill="#35b779" stroke="black" cx="1689.24" cy="-970" rx="38.58" ry="18"/>
<text text-anchor="middle" x="1689.24" y="-965.33" font-family="Times,serif" font-size="14.00">gcld3</text>
</a>
</g>
</g>
<!-- tensorstore&#45;&gt;gcld3 -->
<!-- bloaty -->
<g id="node59" class="node">
<title>bloaty</title>
<g id="a_node59"><a xlink:href="https://github.com/conda-forge/bloaty-feedstock" xlink:title="bloaty">
<ellipse fill="#35b779" stroke="black" cx="1689.24" cy="-898" rx="42.26" ry="18"/>
<text text-anchor="middle" x="1689.24" y="-893.33" font-family="Times,serif" font-size="14.00">bloaty</text>
</a>
</g>
</g>
<!-- gcld3&#45;&gt;bloaty -->
<!-- google&#45;cloud&#45;cpp&#45;core -->
<g id="node60" class="node">
<title>google&#45;cloud&#45;cpp&#45;core</title>
<g id="a_node60"><a xlink:href="https://github.com/conda-forge/google-cloud-cpp-core-feedstock/pull/12" xlink:title="google cloud cpp core ✓">
<ellipse fill="#31688e" stroke="black" cx="819.24" cy="-1546" rx="128.02" ry="18"/>
<text text-anchor="middle" x="819.24" y="-1541.33" font-family="Times,serif" font-size="14.00" fill="white">google cloud cpp core ✓</text>
</a>
</g>
</g>
<!-- google&#45;cloud&#45;cpp&#45;core&#45;&gt;arrow&#45;cpp -->
<g id="edge70" class="edge">
<title>google&#45;cloud&#45;cpp&#45;core&#45;&gt;arrow&#45;cpp</title>
<path fill="none" stroke="black" d="M788.25,-1528.05C770.52,-1518.36 748.14,-1506.12 729.34,-1495.84"/>
<polygon fill="black" stroke="black" points="731.1,-1492.81 720.65,-1491.08 727.74,-1498.95 731.1,-1492.81"/>
</g>
<!-- google&#45;cloud&#45;cpp&#45;core&#45;&gt;google&#45;cloud&#45;cpp -->
<g id="edge71" class="edge">
<title>google&#45;cloud&#45;cpp&#45;core&#45;&gt;google&#45;cloud&#45;cpp</title>
<path fill="none" stroke="black" d="M819.24,-1527.54C819.24,-1479.76 819.24,-1346.51 819.24,-1287.61"/>
<polygon fill="black" stroke="black" points="822.74,-1287.75 819.24,-1277.75 815.74,-1287.75 822.74,-1287.75"/>
</g>
<!-- google&#45;cloud&#45;cpp&#45;compute -->
<g id="node61" class="node">
<title>google&#45;cloud&#45;cpp&#45;compute</title>
<g id="a_node61"><a xlink:href="https://github.com/conda-forge/google-cloud-cpp-compute-feedstock" xlink:title="google cloud cpp compute">
<ellipse fill="#fde725" stroke="black" cx="989.24" cy="-1330" rx="141.7" ry="18"/>
<text text-anchor="middle" x="989.24" y="-1325.33" font-family="Times,serif" font-size="14.00">google cloud cpp compute</text>
</a>
</g>
</g>
<!-- google&#45;cloud&#45;cpp&#45;core&#45;&gt;google&#45;cloud&#45;cpp&#45;compute -->
<g id="edge72" class="edge">
<title>google&#45;cloud&#45;cpp&#45;core&#45;&gt;google&#45;cloud&#45;cpp&#45;compute</title>
<path fill="none" stroke="black" d="M832.86,-1527.85C862.58,-1490.44 933.37,-1401.32 968.6,-1356.98"/>
<polygon fill="black" stroke="black" points="971.13,-1359.42 974.61,-1349.42 965.65,-1355.07 971.13,-1359.42"/>
</g>
<!-- google&#45;cloud&#45;cpp&#45;bigquery -->
<g id="node62" class="node">
<title>google&#45;cloud&#45;cpp&#45;bigquery</title>
<g id="a_node62"><a xlink:href="https://github.com/conda-forge/google-cloud-cpp-bigquery-feedstock" xlink:title="google cloud cpp bigquery">
<ellipse fill="#fde725" stroke="black" cx="1292.24" cy="-1330" rx="143.28" ry="18"/>
<text text-anchor="middle" x="1292.24" y="-1325.33" font-family="Times,serif" font-size="14.00">google cloud cpp bigquery</text>
</a>
</g>
</g>
<!-- google&#45;cloud&#45;cpp&#45;core&#45;&gt;google&#45;cloud&#45;cpp&#45;bigquery -->
<g id="edge73" class="edge">
<title>google&#45;cloud&#45;cpp&#45;core&#45;&gt;google&#45;cloud&#45;cpp&#45;bigquery</title>
<path fill="none" stroke="black" d="M855.96,-1528.39C940.81,-1489.99 1150.44,-1395.15 1244.83,-1352.45"/>
<polygon fill="black" stroke="black" points="1246.17,-1355.69 1253.83,-1348.38 1243.28,-1349.31 1246.17,-1355.69"/>
</g>
<!-- google&#45;cloud&#45;cpp&#45;ai -->
<g id="node63" class="node">
<title>google&#45;cloud&#45;cpp&#45;ai</title>
<g id="a_node63"><a xlink:href="https://github.com/conda-forge/google-cloud-cpp-ai-feedstock" xlink:title="google cloud cpp ai">
<ellipse fill="#fde725" stroke="black" cx="683.24" cy="-1330" rx="107.5" ry="18"/>
<text text-anchor="middle" x="683.24" y="-1325.33" font-family="Times,serif" font-size="14.00">google cloud cpp ai</text>
</a>
</g>
</g>
<!-- google&#45;cloud&#45;cpp&#45;core&#45;&gt;google&#45;cloud&#45;cpp&#45;ai -->
<g id="edge74" class="edge">
<title>google&#45;cloud&#45;cpp&#45;core&#45;&gt;google&#45;cloud&#45;cpp&#45;ai</title>
<path fill="none" stroke="black" d="M815.16,-1527.51C807.21,-1496.21 787.28,-1429.62 752.24,-1384 743.61,-1372.77 732.05,-1362.66 720.86,-1354.35"/>
<polygon fill="black" stroke="black" points="723.04,-1351.6 712.85,-1348.69 718.99,-1357.32 723.04,-1351.6"/>
</g>
<!-- google&#45;cloud&#45;cpp&#45;compute&#45;&gt;google&#45;cloud&#45;cpp -->
<g id="edge75" class="edge">
<title>google&#45;cloud&#45;cpp&#45;compute&#45;&gt;google&#45;cloud&#45;cpp</title>
<path fill="none" stroke="black" d="M948.95,-1312.41C924.81,-1302.47 893.94,-1289.76 868.37,-1279.23"/>
<polygon fill="black" stroke="black" points="869.75,-1276.02 859.17,-1275.44 867.09,-1282.49 869.75,-1276.02"/>
</g>
<!-- google&#45;cloud&#45;cpp&#45;bigquery&#45;&gt;google&#45;cloud&#45;cpp -->
<g id="edge76" class="edge">
<title>google&#45;cloud&#45;cpp&#45;bigquery&#45;&gt;google&#45;cloud&#45;cpp</title>
<path fill="none" stroke="black" d="M1201.88,-1315.63C1116,-1302.92 987.83,-1283.95 903.89,-1271.53"/>
<polygon fill="black" stroke="black" points="904.5,-1268.08 894.1,-1270.08 903.48,-1275.01 904.5,-1268.08"/>
</g>
<!-- google&#45;cloud&#45;cpp&#45;ai&#45;&gt;google&#45;cloud&#45;cpp -->
<g id="edge77" class="edge">
<title>google&#45;cloud&#45;cpp&#45;ai&#45;&gt;google&#45;cloud&#45;cpp</title>
<path fill="none" stroke="black" d="M715.47,-1312.41C734.06,-1302.84 757.65,-1290.7 777.63,-1280.42"/>
<polygon fill="black" stroke="black" points="779.07,-1283.61 786.36,-1275.92 775.87,-1277.39 779.07,-1283.61"/>
</g>
</g>
</svg>
