<?xml version="1.0" encoding="UTF-8" standalone="no"?>
<!DOCTYPE svg PUBLIC "-//W3C//DTD SVG 1.1//EN"
 "http://www.w3.org/Graphics/SVG/1.1/DTD/svg11.dtd">
<!-- Generated by graphviz version 9.0.0 (20231125.0833)
 -->
<!-- Pages: 1 -->
<svg width="2137pt" height="1644pt"
 viewBox="0.00 0.00 2137.48 1644.00" xmlns="http://www.w3.org/2000/svg" xmlns:xlink="http://www.w3.org/1999/xlink">
<g id="graph0" class="graph" transform="scale(1 1) rotate(0) translate(4 1640)">
<polygon fill="white" stroke="none" points="-4,4 -4,-1640 2133.48,-1640 2133.48,4 -4,4"/>
<!-- arrow&#45;cpp -->
<g id="node1" class="node">
<title>arrow&#45;cpp</title>
<g id="a_node1"><a xlink:href="https://github.com/conda-forge/arrow-cpp-feedstock" xlink:title="arrow cpp">
<ellipse fill="#35b779" stroke="black" cx="427.58" cy="-1078" rx="61.73" ry="18"/>
<text text-anchor="middle" x="427.58" y="-1073.33" font-family="Times,serif" font-size="14.00">arrow cpp</text>
</a>
</g>
</g>
<!-- ray&#45;packages -->
<g id="node2" class="node">
<title>ray&#45;packages</title>
<g id="a_node2"><a xlink:href="https://github.com/conda-forge/ray-packages-feedstock" xlink:title="ray packages">
<ellipse fill="#fde725" stroke="black" cx="261.58" cy="-1006" rx="76.99" ry="18"/>
<text text-anchor="middle" x="261.58" y="-1001.33" font-family="Times,serif" font-size="14.00">ray packages</text>
</a>
</g>
</g>
<!-- arrow&#45;cpp&#45;&gt;ray&#45;packages -->
<g id="edge1" class="edge">
<title>arrow&#45;cpp&#45;&gt;ray&#45;packages</title>
<path fill="none" stroke="black" d="M393.59,-1062.67C368.97,-1052.28 335.39,-1038.12 308.26,-1026.68"/>
<polygon fill="black" stroke="black" points="309.8,-1023.53 299.22,-1022.87 307.08,-1029.98 309.8,-1023.53"/>
</g>
<!-- arcticdb -->
<g id="node3" class="node">
<title>arcticdb</title>
<g id="a_node3"><a xlink:href="https://github.com/conda-forge/arcticdb-feedstock" xlink:title="arcticdb">
<ellipse fill="#fde725" stroke="black" cx="427.58" cy="-1006" rx="52.26" ry="18"/>
<text text-anchor="middle" x="427.58" y="-1001.33" font-family="Times,serif" font-size="14.00">arcticdb</text>
</a>
</g>
</g>
<!-- arrow&#45;cpp&#45;&gt;arcticdb -->
<g id="edge2" class="edge">
<title>arrow&#45;cpp&#45;&gt;arcticdb</title>
<path fill="none" stroke="black" d="M427.58,-1059.7C427.58,-1052.41 427.58,-1043.73 427.58,-1035.54"/>
<polygon fill="black" stroke="black" points="431.08,-1035.62 427.58,-1025.62 424.08,-1035.62 431.08,-1035.62"/>
</g>
<!-- bazel -->
<g id="node4" class="node">
<title>bazel</title>
<g id="a_node4"><a xlink:href="https://github.com/conda-forge/bazel-feedstock" xlink:title="bazel">
<ellipse fill="#ff8c00" stroke="black" cx="490.58" cy="-854" rx="37.53" ry="18"/>
<text text-anchor="middle" x="490.58" y="-849.33" font-family="Times,serif" font-size="14.00">bazel</text>
</a>
</g>
</g>
<!-- mosh -->
<g id="node5" class="node">
<title>mosh</title>
<g id="a_node5"><a xlink:href="https://github.com/conda-forge/mosh-feedstock" xlink:title="mosh">
<ellipse fill="#35b779" stroke="black" cx="490.58" cy="-782" rx="38.06" ry="18"/>
<text text-anchor="middle" x="490.58" y="-777.33" font-family="Times,serif" font-size="14.00">mosh</text>
</a>
</g>
</g>
<!-- bazel&#45;&gt;mosh -->
<!-- onnx -->
<g id="node6" class="node">
<title>onnx</title>
<g id="a_node6"><a xlink:href="https://github.com/conda-forge/onnx-feedstock" xlink:title="onnx">
<ellipse fill="#35b779" stroke="black" cx="490.58" cy="-710" rx="35.42" ry="18"/>
<text text-anchor="middle" x="490.58" y="-705.33" font-family="Times,serif" font-size="14.00">onnx</text>
</a>
</g>
</g>
<!-- mosh&#45;&gt;onnx -->
<!-- paraview -->
<g id="node9" class="node">
<title>paraview</title>
<g id="a_node9"><a xlink:href="https://github.com/conda-forge/paraview-feedstock" xlink:title="paraview">
<ellipse fill="#35b779" stroke="black" cx="490.58" cy="-638" rx="57" ry="18"/>
<text text-anchor="middle" x="490.58" y="-633.33" font-family="Times,serif" font-size="14.00">paraview</text>
</a>
</g>
</g>
<!-- onnx&#45;&gt;paraview -->
<!-- mysql -->
<g id="node7" class="node">
<title>mysql</title>
<g id="a_node7"><a xlink:href="https://github.com/conda-forge/mysql-feedstock/pull/96" xlink:title="mysql ✓">
<ellipse fill="#31688e" stroke="black" cx="1809.58" cy="-530" rx="49.1" ry="18"/>
<text text-anchor="middle" x="1809.58" y="-525.33" font-family="Times,serif" font-size="14.00" fill="white">mysql ✓</text>
</a>
</g>
</g>
<!-- mysql&#45;connector&#45;python -->
<g id="node8" class="node">
<title>mysql&#45;connector&#45;python</title>
<g id="a_node8"><a xlink:href="https://github.com/conda-forge/mysql-connector-python-feedstock" xlink:title="mysql connector python">
<ellipse fill="#fde725" stroke="black" cx="1809.58" cy="-458" rx="131.7" ry="18"/>
<text text-anchor="middle" x="1809.58" y="-453.32" font-family="Times,serif" font-size="14.00">mysql connector python</text>
</a>
</g>
</g>
<!-- mysql&#45;&gt;mysql&#45;connector&#45;python -->
<g id="edge5" class="edge">
<title>mysql&#45;&gt;mysql&#45;connector&#45;python</title>
<path fill="none" stroke="black" d="M1809.58,-511.7C1809.58,-504.41 1809.58,-495.73 1809.58,-487.54"/>
<polygon fill="black" stroke="black" points="1813.08,-487.62 1809.58,-477.62 1806.08,-487.62 1813.08,-487.62"/>
</g>
<!-- tensorflow -->
<g id="node13" class="node">
<title>tensorflow</title>
<g id="a_node13"><a xlink:href="https://github.com/conda-forge/tensorflow-feedstock" xlink:title="tensorflow">
<ellipse fill="#35b779" stroke="black" cx="490.58" cy="-566" rx="63.84" ry="18"/>
<text text-anchor="middle" x="490.58" y="-561.33" font-family="Times,serif" font-size="14.00">tensorflow</text>
</a>
</g>
</g>
<!-- paraview&#45;&gt;tensorflow -->
<!-- opencv -->
<g id="node10" class="node">
<title>opencv</title>
<g id="a_node10"><a xlink:href="https://github.com/conda-forge/opencv-feedstock" xlink:title="opencv">
<ellipse fill="#fde725" stroke="black" cx="553.58" cy="-1078" rx="46.47" ry="18"/>
<text text-anchor="middle" x="553.58" y="-1073.33" font-family="Times,serif" font-size="14.00">opencv</text>
</a>
</g>
</g>
<!-- opencv&#45;&gt;ray&#45;packages -->
<g id="edge7" class="edge">
<title>opencv&#45;&gt;ray&#45;packages</title>
<path fill="none" stroke="black" d="M518.79,-1065.79C512.11,-1063.76 505.15,-1061.75 498.58,-1060 442,-1044.95 377.06,-1030.64 329.49,-1020.68"/>
<polygon fill="black" stroke="black" points="330.38,-1017.29 319.88,-1018.68 328.95,-1024.15 330.38,-1017.29"/>
</g>
<!-- imp -->
<g id="node11" class="node">
<title>imp</title>
<g id="a_node11"><a xlink:href="https://github.com/conda-forge/imp-feedstock" xlink:title="imp">
<ellipse fill="#fde725" stroke="black" cx="553.58" cy="-1006" rx="30.16" ry="18"/>
<text text-anchor="middle" x="553.58" y="-1001.33" font-family="Times,serif" font-size="14.00">imp</text>
</a>
</g>
</g>
<!-- opencv&#45;&gt;imp -->
<g id="edge8" class="edge">
<title>opencv&#45;&gt;imp</title>
<path fill="none" stroke="black" d="M553.58,-1059.7C553.58,-1052.41 553.58,-1043.73 553.58,-1035.54"/>
<polygon fill="black" stroke="black" points="557.08,-1035.62 553.58,-1025.62 550.08,-1035.62 557.08,-1035.62"/>
</g>
<!-- gazebo&#45;yarp&#45;plugins -->
<g id="node12" class="node">
<title>gazebo&#45;yarp&#45;plugins</title>
<g id="a_node12"><a xlink:href="https://github.com/conda-forge/gazebo-yarp-plugins-feedstock" xlink:title="gazebo yarp plugins">
<ellipse fill="#fde725" stroke="black" cx="718.58" cy="-1006" rx="112.24" ry="18"/>
<text text-anchor="middle" x="718.58" y="-1001.33" font-family="Times,serif" font-size="14.00">gazebo yarp plugins</text>
</a>
</g>
</g>
<!-- opencv&#45;&gt;gazebo&#45;yarp&#45;plugins -->
<g id="edge9" class="edge">
<title>opencv&#45;&gt;gazebo&#45;yarp&#45;plugins</title>
<path fill="none" stroke="black" d="M584.23,-1064C608.28,-1053.8 642.21,-1039.4 669.96,-1027.63"/>
<polygon fill="black" stroke="black" points="671.02,-1030.98 678.86,-1023.85 668.29,-1024.53 671.02,-1030.98"/>
</g>
<!-- r&#45;protolite -->
<g id="node18" class="node">
<title>r&#45;protolite</title>
<g id="a_node18"><a xlink:href="https://github.com/conda-forge/r-protolite-feedstock" xlink:title="r protolite">
<ellipse fill="#35b779" stroke="black" cx="490.58" cy="-494" rx="62.26" ry="18"/>
<text text-anchor="middle" x="490.58" y="-489.32" font-family="Times,serif" font-size="14.00">r protolite</text>
</a>
</g>
</g>
<!-- tensorflow&#45;&gt;r&#45;protolite -->
<!-- qgis -->
<g id="node14" class="node">
<title>qgis</title>
<g id="a_node14"><a xlink:href="https://github.com/conda-forge/qgis-feedstock" xlink:title="qgis">
<ellipse fill="#fde725" stroke="black" cx="672.58" cy="-1150" rx="32.27" ry="18"/>
<text text-anchor="middle" x="672.58" y="-1145.33" font-family="Times,serif" font-size="14.00">qgis</text>
</a>
</g>
</g>
<!-- tiledb -->
<g id="node15" class="node">
<title>tiledb</title>
<g id="a_node15"><a xlink:href="https://github.com/conda-forge/tiledb-feedstock" xlink:title="tiledb">
<ellipse fill="#fde725" stroke="black" cx="702.58" cy="-1222" rx="40.16" ry="18"/>
<text text-anchor="middle" x="702.58" y="-1217.33" font-family="Times,serif" font-size="14.00">tiledb</text>
</a>
</g>
</g>
<!-- tiledb&#45;&gt;qgis -->
<g id="edge11" class="edge">
<title>tiledb&#45;&gt;qgis</title>
<path fill="none" stroke="black" d="M695.32,-1204.05C692,-1196.32 687.99,-1186.96 684.27,-1178.27"/>
<polygon fill="black" stroke="black" points="687.53,-1176.99 680.37,-1169.18 681.1,-1179.75 687.53,-1176.99"/>
</g>
<!-- gazebo -->
<g id="node16" class="node">
<title>gazebo</title>
<g id="a_node16"><a xlink:href="https://github.com/conda-forge/gazebo-feedstock" xlink:title="gazebo">
<ellipse fill="#fde725" stroke="black" cx="729.58" cy="-1078" rx="46.47" ry="18"/>
<text text-anchor="middle" x="729.58" y="-1073.33" font-family="Times,serif" font-size="14.00">gazebo</text>
</a>
</g>
</g>
<!-- tiledb&#45;&gt;gazebo -->
<g id="edge12" class="edge">
<title>tiledb&#45;&gt;gazebo</title>
<path fill="none" stroke="black" d="M706.26,-1203.84C708.46,-1193.47 711.26,-1179.99 713.58,-1168 717.49,-1147.84 721.58,-1125.04 724.65,-1107.57"/>
<polygon fill="black" stroke="black" points="728.06,-1108.36 726.33,-1097.91 721.16,-1107.16 728.06,-1108.36"/>
</g>
<!-- gazebo&#45;&gt;gazebo&#45;yarp&#45;plugins -->
<g id="edge13" class="edge">
<title>gazebo&#45;&gt;gazebo&#45;yarp&#45;plugins</title>
<path fill="none" stroke="black" d="M726.86,-1059.7C725.7,-1052.32 724.32,-1043.52 723.02,-1035.25"/>
<polygon fill="black" stroke="black" points="726.51,-1034.93 721.5,-1025.6 719.6,-1036.02 726.51,-1034.93"/>
</g>
<!-- pyaudi -->
<g id="node17" class="node">
<title>pyaudi</title>
<g id="a_node17"><a xlink:href="https://github.com/conda-forge/pyaudi-feedstock" xlink:title="pyaudi">
<ellipse fill="#fde725" stroke="black" cx="1235.58" cy="-18" rx="44.9" ry="18"/>
<text text-anchor="middle" x="1235.58" y="-13.32" font-family="Times,serif" font-size="14.00">pyaudi</text>
</a>
</g>
</g>
<!-- mongodb -->
<g id="node19" class="node">
<title>mongodb</title>
<g id="a_node19"><a xlink:href="https://github.com/conda-forge/mongodb-feedstock" xlink:title="mongodb">
<ellipse fill="#35b779" stroke="black" cx="490.58" cy="-422" rx="57.52" ry="18"/>
<text text-anchor="middle" x="490.58" y="-417.32" font-family="Times,serif" font-size="14.00">mongodb</text>
</a>
</g>
</g>
<!-- r&#45;protolite&#45;&gt;mongodb -->
<!-- zaber&#45;motion -->
<g id="node21" class="node">
<title>zaber&#45;motion</title>
<g id="a_node21"><a xlink:href="https://github.com/conda-forge/zaber-motion-feedstock" xlink:title="zaber motion">
<ellipse fill="#35b779" stroke="black" cx="490.58" cy="-350" rx="76.99" ry="18"/>
<text text-anchor="middle" x="490.58" y="-345.32" font-family="Times,serif" font-size="14.00">zaber motion</text>
</a>
</g>
</g>
<!-- mongodb&#45;&gt;zaber&#45;motion -->
<!-- pytorch&#45;cpu -->
<g id="node20" class="node">
<title>pytorch&#45;cpu</title>
<g id="a_node20"><a xlink:href="https://github.com/conda-forge/pytorch-cpu-feedstock/pull/221" xlink:title="pytorch cpu ❎">
<ellipse fill="#31688e" stroke="black" cx="261.58" cy="-1078" rx="85.93" ry="18"/>
<text text-anchor="middle" x="261.58" y="-1073.33" font-family="Times,serif" font-size="14.00" fill="white">pytorch cpu ❎</text>
</a>
</g>
</g>
<!-- pytorch&#45;cpu&#45;&gt;ray&#45;packages -->
<g id="edge16" class="edge">
<title>pytorch&#45;cpu&#45;&gt;ray&#45;packages</title>
<path fill="none" stroke="black" d="M261.58,-1059.7C261.58,-1052.41 261.58,-1043.73 261.58,-1035.54"/>
<polygon fill="black" stroke="black" points="265.08,-1035.62 261.58,-1025.62 258.08,-1035.62 265.08,-1035.62"/>
</g>
<!-- go&#45;cockroach -->
<g id="node32" class="node">
<title>go&#45;cockroach</title>
<g id="a_node32"><a xlink:href="https://github.com/conda-forge/go-cockroach-feedstock" xlink:title="go cockroach">
<ellipse fill="#35b779" stroke="black" cx="490.58" cy="-278" rx="76.46" ry="18"/>
<text text-anchor="middle" x="490.58" y="-273.32" font-family="Times,serif" font-size="14.00">go cockroach</text>
</a>
</g>
</g>
<!-- zaber&#45;motion&#45;&gt;go&#45;cockroach -->
<!-- jaxlib -->
<g id="node22" class="node">
<title>jaxlib</title>
<g id="a_node22"><a xlink:href="https://github.com/conda-forge/jaxlib-feedstock" xlink:title="jaxlib">
<ellipse fill="#35b779" stroke="black" cx="38.58" cy="-1150" rx="38.58" ry="18"/>
<text text-anchor="middle" x="38.58" y="-1145.33" font-family="Times,serif" font-size="14.00">jaxlib</text>
</a>
</g>
</g>
<!-- mujoco -->
<g id="node23" class="node">
<title>mujoco</title>
<g id="a_node23"><a xlink:href="https://github.com/conda-forge/mujoco-feedstock" xlink:title="mujoco">
<ellipse fill="#fde725" stroke="black" cx="55.58" cy="-1078" rx="47" ry="18"/>
<text text-anchor="middle" x="55.58" y="-1073.33" font-family="Times,serif" font-size="14.00">mujoco</text>
</a>
</g>
</g>
<!-- jaxlib&#45;&gt;mujoco -->
<g id="edge18" class="edge">
<title>jaxlib&#45;&gt;mujoco</title>
<path fill="none" stroke="black" d="M42.78,-1131.7C44.57,-1124.32 46.71,-1115.52 48.72,-1107.25"/>
<polygon fill="black" stroke="black" points="52.11,-1108.12 51.07,-1097.58 45.31,-1106.47 52.11,-1108.12"/>
</g>
<!-- mujoco&#45;&gt;ray&#45;packages -->
<g id="edge19" class="edge">
<title>mujoco&#45;&gt;ray&#45;packages</title>
<path fill="none" stroke="black" d="M90.06,-1065.28C122.38,-1054.3 171.16,-1037.72 208.45,-1025.05"/>
<polygon fill="black" stroke="black" points="209.36,-1028.44 217.7,-1021.91 207.11,-1021.81 209.36,-1028.44"/>
</g>
<!-- obake -->
<g id="node24" class="node">
<title>obake</title>
<g id="a_node24"><a xlink:href="https://github.com/conda-forge/obake-feedstock" xlink:title="obake">
<ellipse fill="#35b779" stroke="black" cx="1235.58" cy="-90" rx="40.69" ry="18"/>
<text text-anchor="middle" x="1235.58" y="-85.33" font-family="Times,serif" font-size="14.00">obake</text>
</a>
</g>
</g>
<!-- obake&#45;&gt;pyaudi -->
<g id="edge20" class="edge">
<title>obake&#45;&gt;pyaudi</title>
<path fill="none" stroke="black" d="M1235.58,-71.7C1235.58,-64.41 1235.58,-55.73 1235.58,-47.54"/>
<polygon fill="black" stroke="black" points="1239.08,-47.62 1235.58,-37.62 1232.08,-47.62 1239.08,-47.62"/>
</g>
<!-- libignition&#45;transport4 -->
<g id="node25" class="node">
<title>libignition&#45;transport4</title>
<g id="a_node25"><a xlink:href="https://github.com/conda-forge/libignition-transport4-feedstock" xlink:title="libignition transport4">
<ellipse fill="#fde725" stroke="black" cx="1694.58" cy="-1330" rx="119.08" ry="18"/>
<text text-anchor="middle" x="1694.58" y="-1325.33" font-family="Times,serif" font-size="14.00">libignition transport4</text>
</a>
</g>
</g>
<!-- libignition&#45;sensors -->
<g id="node26" class="node">
<title>libignition&#45;sensors</title>
<g id="a_node26"><a xlink:href="https://github.com/conda-forge/libignition-sensors-feedstock" xlink:title="libignition sensors">
<ellipse fill="#fde725" stroke="black" cx="1849.58" cy="-1258" rx="103.82" ry="18"/>
<text text-anchor="middle" x="1849.58" y="-1253.33" font-family="Times,serif" font-size="14.00">libignition sensors</text>
</a>
</g>
</g>
<!-- libignition&#45;transport4&#45;&gt;libignition&#45;sensors -->
<g id="edge21" class="edge">
<title>libignition&#45;transport4&#45;&gt;libignition&#45;sensors</title>
<path fill="none" stroke="black" d="M1731.31,-1312.41C1752.82,-1302.7 1780.18,-1290.34 1803.16,-1279.96"/>
<polygon fill="black" stroke="black" points="1804.33,-1283.28 1812,-1275.97 1801.45,-1276.9 1804.33,-1283.28"/>
</g>
<!-- libignition&#45;gui -->
<g id="node27" class="node">
<title>libignition&#45;gui</title>
<g id="a_node27"><a xlink:href="https://github.com/conda-forge/libignition-gui-feedstock" xlink:title="libignition gui">
<ellipse fill="#fde725" stroke="black" cx="1570.58" cy="-1258" rx="81.2" ry="18"/>
<text text-anchor="middle" x="1570.58" y="-1253.33" font-family="Times,serif" font-size="14.00">libignition gui</text>
</a>
</g>
</g>
<!-- libignition&#45;transport4&#45;&gt;libignition&#45;gui -->
<g id="edge22" class="edge">
<title>libignition&#45;transport4&#45;&gt;libignition&#45;gui</title>
<path fill="none" stroke="black" d="M1664.88,-1312.23C1648.15,-1302.79 1627.07,-1290.89 1609.09,-1280.74"/>
<polygon fill="black" stroke="black" points="1610.93,-1277.76 1600.5,-1275.89 1607.49,-1283.86 1610.93,-1277.76"/>
</g>
<!-- libignition&#45;gazebo -->
<g id="node28" class="node">
<title>libignition&#45;gazebo</title>
<g id="a_node28"><a xlink:href="https://github.com/conda-forge/libignition-gazebo-feedstock" xlink:title="libignition gazebo">
<ellipse fill="#fde725" stroke="black" cx="1829.58" cy="-1186" rx="100.66" ry="18"/>
<text text-anchor="middle" x="1829.58" y="-1181.33" font-family="Times,serif" font-size="14.00">libignition gazebo</text>
</a>
</g>
</g>
<!-- libignition&#45;transport4&#45;&gt;libignition&#45;gazebo -->
<g id="edge23" class="edge">
<title>libignition&#45;transport4&#45;&gt;libignition&#45;gazebo</title>
<path fill="none" stroke="black" d="M1699.25,-1311.8C1705.23,-1292.43 1717.2,-1260.94 1736.58,-1240 1748.7,-1226.91 1764.8,-1216.19 1780.2,-1207.89"/>
<polygon fill="black" stroke="black" points="1781.51,-1211.16 1788.82,-1203.49 1778.32,-1204.92 1781.51,-1211.16"/>
</g>
<!-- libignition&#45;launch -->
<g id="node29" class="node">
<title>libignition&#45;launch</title>
<g id="a_node29"><a xlink:href="https://github.com/conda-forge/libignition-launch-feedstock" xlink:title="libignition launch">
<ellipse fill="#fde725" stroke="black" cx="1764.58" cy="-1114" rx="98.56" ry="18"/>
<text text-anchor="middle" x="1764.58" y="-1109.33" font-family="Times,serif" font-size="14.00">libignition launch</text>
</a>
</g>
</g>
<!-- libignition&#45;transport4&#45;&gt;libignition&#45;launch -->
<g id="edge24" class="edge">
<title>libignition&#45;transport4&#45;&gt;libignition&#45;launch</title>
<path fill="none" stroke="black" d="M1694.25,-1311.68C1694.31,-1281.2 1697.34,-1216.62 1719.58,-1168 1724.15,-1158 1731.17,-1148.41 1738.31,-1140.2"/>
<polygon fill="black" stroke="black" points="1740.75,-1142.72 1744.97,-1133 1735.61,-1137.97 1740.75,-1142.72"/>
</g>
<!-- libignition&#45;sensors&#45;&gt;libignition&#45;gazebo -->
<g id="edge25" class="edge">
<title>libignition&#45;sensors&#45;&gt;libignition&#45;gazebo</title>
<path fill="none" stroke="black" d="M1844.64,-1239.7C1842.51,-1232.24 1839.96,-1223.32 1837.57,-1214.97"/>
<polygon fill="black" stroke="black" points="1841,-1214.21 1834.88,-1205.56 1834.27,-1216.14 1841,-1214.21"/>
</g>
<!-- libignition&#45;gui&#45;&gt;libignition&#45;gazebo -->
<g id="edge26" class="edge">
<title>libignition&#45;gui&#45;&gt;libignition&#45;gazebo</title>
<path fill="none" stroke="black" d="M1620.83,-1243.42C1661.78,-1232.35 1719.92,-1216.64 1764.45,-1204.6"/>
<polygon fill="black" stroke="black" points="1765.25,-1208.01 1773.99,-1202.02 1763.43,-1201.25 1765.25,-1208.01"/>
</g>
<!-- libignition&#45;gui&#45;&gt;libignition&#45;launch -->
<g id="edge27" class="edge">
<title>libignition&#45;gui&#45;&gt;libignition&#45;launch</title>
<path fill="none" stroke="black" d="M1585.92,-1240.18C1603.83,-1221.17 1634.91,-1190 1665.58,-1168 1682.27,-1156.03 1701.98,-1144.94 1719.41,-1136.03"/>
<polygon fill="black" stroke="black" points="1720.64,-1139.33 1728.01,-1131.72 1717.5,-1133.07 1720.64,-1139.33"/>
</g>
<!-- libignition&#45;gazebo&#45;&gt;libignition&#45;launch -->
<g id="edge28" class="edge">
<title>libignition&#45;gazebo&#45;&gt;libignition&#45;launch</title>
<path fill="none" stroke="black" d="M1813.85,-1168.05C1806.02,-1159.63 1796.41,-1149.28 1787.76,-1139.97"/>
<polygon fill="black" stroke="black" points="1790.57,-1137.84 1781.2,-1132.9 1785.44,-1142.61 1790.57,-1137.84"/>
</g>
<!-- libignition&#45;msgs1 -->
<g id="node30" class="node">
<title>libignition&#45;msgs1</title>
<g id="a_node30"><a xlink:href="https://github.com/conda-forge/libignition-msgs1-feedstock" xlink:title="libignition msgs1">
<ellipse fill="#35b779" stroke="black" cx="1911.58" cy="-1402" rx="98.03" ry="18"/>
<text text-anchor="middle" x="1911.58" y="-1397.33" font-family="Times,serif" font-size="14.00">libignition msgs1</text>
</a>
</g>
</g>
<!-- libignition&#45;msgs1&#45;&gt;libignition&#45;transport4 -->
<g id="edge29" class="edge">
<title>libignition&#45;msgs1&#45;&gt;libignition&#45;transport4</title>
<path fill="none" stroke="black" d="M1864.5,-1385.81C1832.21,-1375.4 1789.12,-1361.5 1754.41,-1350.3"/>
<polygon fill="black" stroke="black" points="1755.49,-1346.97 1744.9,-1347.23 1753.34,-1353.63 1755.49,-1346.97"/>
</g>
<!-- libignition&#45;msgs1&#45;&gt;libignition&#45;sensors -->
<g id="edge30" class="edge">
<title>libignition&#45;msgs1&#45;&gt;libignition&#45;sensors</title>
<path fill="none" stroke="black" d="M1889.8,-1384.2C1879.18,-1374.76 1867.28,-1362.06 1860.58,-1348 1851.62,-1329.18 1849.02,-1305.7 1848.58,-1287.59"/>
<polygon fill="black" stroke="black" points="1852.08,-1287.8 1848.57,-1277.8 1845.08,-1287.81 1852.08,-1287.8"/>
</g>
<!-- libignition&#45;msgs1&#45;&gt;libignition&#45;gui -->
<g id="edge31" class="edge">
<title>libignition&#45;msgs1&#45;&gt;libignition&#45;gui</title>
<path fill="none" stroke="black" d="M1814.03,-1399.69C1723.44,-1396.15 1597.95,-1384.56 1566.58,-1348 1552.5,-1331.59 1554.99,-1306.57 1560.15,-1287.23"/>
<polygon fill="black" stroke="black" points="1563.46,-1288.36 1563.05,-1277.78 1556.77,-1286.31 1563.46,-1288.36"/>
</g>
<!-- libignition&#45;msgs1&#45;&gt;libignition&#45;gazebo -->
<g id="edge32" class="edge">
<title>libignition&#45;msgs1&#45;&gt;libignition&#45;gazebo</title>
<path fill="none" stroke="black" d="M1996.2,-1392.52C2059.01,-1382.26 2129.48,-1359.93 2102.58,-1312 2065.68,-1246.25 1983.33,-1214.9 1918.67,-1200.06"/>
<polygon fill="black" stroke="black" points="1919.64,-1196.69 1909.12,-1197.97 1918.14,-1203.53 1919.64,-1196.69"/>
</g>
<!-- libignition&#45;msgs1&#45;&gt;libignition&#45;launch -->
<g id="edge33" class="edge">
<title>libignition&#45;msgs1&#45;&gt;libignition&#45;launch</title>
<path fill="none" stroke="black" d="M1990.21,-1390.94C2041.81,-1382.54 2102.6,-1368.59 2118.58,-1348 2128.39,-1335.36 2123.71,-1327.16 2118.58,-1312 2080.68,-1199.96 1939.82,-1150.11 1847.62,-1129.09"/>
<polygon fill="black" stroke="black" points="1848.63,-1125.73 1838.11,-1126.99 1847.12,-1132.56 1848.63,-1125.73"/>
</g>
<!-- libignition&#45;fuel&#45;tools -->
<g id="node31" class="node">
<title>libignition&#45;fuel&#45;tools</title>
<g id="a_node31"><a xlink:href="https://github.com/conda-forge/libignition-fuel-tools-feedstock" xlink:title="libignition fuel tools">
<ellipse fill="#fde725" stroke="black" cx="1981.58" cy="-1330" rx="111.71" ry="18"/>
<text text-anchor="middle" x="1981.58" y="-1325.33" font-family="Times,serif" font-size="14.00">libignition fuel tools</text>
</a>
</g>
</g>
<!-- libignition&#45;msgs1&#45;&gt;libignition&#45;fuel&#45;tools -->
<g id="edge34" class="edge">
<title>libignition&#45;msgs1&#45;&gt;libignition&#45;fuel&#45;tools</title>
<path fill="none" stroke="black" d="M1928.53,-1384.05C1936.83,-1375.75 1947,-1365.58 1956.2,-1356.38"/>
<polygon fill="black" stroke="black" points="1958.64,-1358.89 1963.24,-1349.35 1953.69,-1353.94 1958.64,-1358.89"/>
</g>
<!-- libignition&#45;fuel&#45;tools&#45;&gt;libignition&#45;gazebo -->
<g id="edge35" class="edge">
<title>libignition&#45;fuel&#45;tools&#45;&gt;libignition&#45;gazebo</title>
<path fill="none" stroke="black" d="M1982.46,-1311.52C1982.5,-1291.89 1979.6,-1260.16 1962.58,-1240 1948.32,-1223.1 1927.9,-1211.54 1907.33,-1203.66"/>
<polygon fill="black" stroke="black" points="1908.61,-1200.4 1898.01,-1200.36 1906.28,-1207 1908.61,-1200.4"/>
</g>
<!-- cartographer -->
<g id="node34" class="node">
<title>cartographer</title>
<g id="a_node34"><a xlink:href="https://github.com/conda-forge/cartographer-feedstock" xlink:title="cartographer">
<ellipse fill="#35b779" stroke="black" cx="490.58" cy="-206" rx="76.99" ry="18"/>
<text text-anchor="middle" x="490.58" y="-201.33" font-family="Times,serif" font-size="14.00">cartographer</text>
</a>
</g>
</g>
<!-- go&#45;cockroach&#45;&gt;cartographer -->
<!-- google&#45;cloud&#45;cpp -->
<g id="node33" class="node">
<title>google&#45;cloud&#45;cpp</title>
<g id="a_node33"><a xlink:href="https://github.com/conda-forge/google-cloud-cpp-feedstock" xlink:title="google cloud cpp">
<ellipse fill="#fde725" stroke="black" cx="702.58" cy="-1294" rx="95.4" ry="18"/>
<text text-anchor="middle" x="702.58" y="-1289.33" font-family="Times,serif" font-size="14.00">google cloud cpp</text>
</a>
</g>
</g>
<!-- google&#45;cloud&#45;cpp&#45;&gt;tiledb -->
<g id="edge37" class="edge">
<title>google&#45;cloud&#45;cpp&#45;&gt;tiledb</title>
<path fill="none" stroke="black" d="M702.58,-1275.7C702.58,-1268.41 702.58,-1259.73 702.58,-1251.54"/>
<polygon fill="black" stroke="black" points="706.08,-1251.62 702.58,-1241.62 699.08,-1251.62 706.08,-1251.62"/>
</g>
<!-- sentencepiece -->
<g id="node35" class="node">
<title>sentencepiece</title>
<g id="a_node35"><a xlink:href="https://github.com/conda-forge/sentencepiece-feedstock" xlink:title="sentencepiece">
<ellipse fill="#35b779" stroke="black" cx="490.58" cy="-134" rx="82.25" ry="18"/>
<text text-anchor="middle" x="490.58" y="-129.32" font-family="Times,serif" font-size="14.00">sentencepiece</text>
</a>
</g>
</g>
<!-- cartographer&#45;&gt;sentencepiece -->
<!-- s2geometry -->
<g id="node36" class="node">
<title>s2geometry</title>
<g id="a_node36"><a xlink:href="https://github.com/conda-forge/s2geometry-feedstock" xlink:title="s2geometry">
<ellipse fill="#35b779" stroke="black" cx="490.58" cy="-90" rx="70.68" ry="18"/>
<text text-anchor="middle" x="490.58" y="-85.33" font-family="Times,serif" font-size="14.00">s2geometry</text>
</a>
</g>
</g>
<!-- s2geography -->
<g id="node37" class="node">
<title>s2geography</title>
<g id="a_node37"><a xlink:href="https://github.com/conda-forge/s2geography-feedstock" xlink:title="s2geography">
<ellipse fill="#fde725" stroke="black" cx="490.58" cy="-18" rx="75.94" ry="18"/>
<text text-anchor="middle" x="490.58" y="-13.32" font-family="Times,serif" font-size="14.00">s2geography</text>
</a>
</g>
</g>
<!-- s2geometry&#45;&gt;s2geography -->
<g id="edge40" class="edge">
<title>s2geometry&#45;&gt;s2geography</title>
<path fill="none" stroke="black" d="M490.58,-71.7C490.58,-64.41 490.58,-55.73 490.58,-47.54"/>
<polygon fill="black" stroke="black" points="494.08,-47.62 490.58,-37.62 487.08,-47.62 494.08,-47.62"/>
</g>
<!-- tomviz -->
<g id="node38" class="node">
<title>tomviz</title>
<g id="a_node38"><a xlink:href="https://github.com/conda-forge/tomviz-feedstock" xlink:title="tomviz">
<ellipse fill="#35b779" stroke="black" cx="1235.58" cy="-1618" rx="44.9" ry="18"/>
<text text-anchor="middle" x="1235.58" y="-1613.33" font-family="Times,serif" font-size="14.00">tomviz</text>
</a>
</g>
</g>
<!-- protozfits -->
<g id="node39" class="node">
<title>protozfits</title>
<g id="a_node39"><a xlink:href="https://github.com/conda-forge/protozfits-feedstock" xlink:title="protozfits">
<ellipse fill="#35b779" stroke="black" cx="1235.58" cy="-1546" rx="59.1" ry="18"/>
<text text-anchor="middle" x="1235.58" y="-1541.33" font-family="Times,serif" font-size="14.00">protozfits</text>
</a>
</g>
</g>
<!-- tomviz&#45;&gt;protozfits -->
<!-- or&#45;tools -->
<g id="node40" class="node">
<title>or&#45;tools</title>
<g id="a_node40"><a xlink:href="https://github.com/conda-forge/or-tools-feedstock" xlink:title="or tools">
<ellipse fill="#35b779" stroke="black" cx="1235.58" cy="-1474" rx="49.1" ry="18"/>
<text text-anchor="middle" x="1235.58" y="-1469.33" font-family="Times,serif" font-size="14.00">or tools</text>
</a>
</g>
</g>
<!-- protozfits&#45;&gt;or&#45;tools -->
<!-- bear -->
<g id="node41" class="node">
<title>bear</title>
<g id="a_node41"><a xlink:href="https://github.com/conda-forge/bear-feedstock" xlink:title="bear">
<ellipse fill="#35b779" stroke="black" cx="1235.58" cy="-1402" rx="33.85" ry="18"/>
<text text-anchor="middle" x="1235.58" y="-1397.33" font-family="Times,serif" font-size="14.00">bear</text>
</a>
</g>
</g>
<!-- or&#45;tools&#45;&gt;bear -->
<!-- cpp&#45;opentelemetry&#45;sdk -->
<g id="node42" class="node">
<title>cpp&#45;opentelemetry&#45;sdk</title>
<g id="a_node42"><a xlink:href="https://github.com/conda-forge/cpp-opentelemetry-sdk-feedstock" xlink:title="cpp opentelemetry sdk">
<ellipse fill="#35b779" stroke="black" cx="1235.58" cy="-1330" rx="125.92" ry="18"/>
<text text-anchor="middle" x="1235.58" y="-1325.33" font-family="Times,serif" font-size="14.00">cpp opentelemetry sdk</text>
</a>
</g>
</g>
<!-- bear&#45;&gt;cpp&#45;opentelemetry&#45;sdk -->
<!-- singlejar -->
<g id="node43" class="node">
<title>singlejar</title>
<g id="a_node43"><a xlink:href="https://github.com/conda-forge/singlejar-feedstock" xlink:title="singlejar">
<ellipse fill="#35b779" stroke="black" cx="1235.58" cy="-1258" rx="54.89" ry="18"/>
<text text-anchor="middle" x="1235.58" y="-1253.33" font-family="Times,serif" font-size="14.00">singlejar</text>
</a>
</g>
</g>
<!-- cpp&#45;opentelemetry&#45;sdk&#45;&gt;singlejar -->
<!-- xilinx&#45;runtime -->
<g id="node44" class="node">
<title>xilinx&#45;runtime</title>
<g id="a_node44"><a xlink:href="https://github.com/conda-forge/xilinx-runtime-feedstock" xlink:title="xilinx runtime">
<ellipse fill="#35b779" stroke="black" cx="1235.58" cy="-1186" rx="81.72" ry="18"/>
<text text-anchor="middle" x="1235.58" y="-1181.33" font-family="Times,serif" font-size="14.00">xilinx runtime</text>
</a>
</g>
</g>
<!-- singlejar&#45;&gt;xilinx&#45;runtime -->
<!-- libpulsar -->
<g id="node45" class="node">
<title>libpulsar</title>
<g id="a_node45"><a xlink:href="https://github.com/conda-forge/libpulsar-feedstock" xlink:title="libpulsar">
<ellipse fill="#35b779" stroke="black" cx="1235.58" cy="-1114" rx="55.42" ry="18"/>
<text text-anchor="middle" x="1235.58" y="-1109.33" font-family="Times,serif" font-size="14.00">libpulsar</text>
</a>
</g>
</g>
<!-- xilinx&#45;runtime&#45;&gt;libpulsar -->
<!-- gnss&#45;sdr -->
<g id="node55" class="node">
<title>gnss&#45;sdr</title>
<g id="a_node55"><a xlink:href="https://github.com/conda-forge/gnss-sdr-feedstock" xlink:title="gnss sdr">
<ellipse fill="#35b779" stroke="black" cx="1235.58" cy="-1042" rx="53.84" ry="18"/>
<text text-anchor="middle" x="1235.58" y="-1037.33" font-family="Times,serif" font-size="14.00">gnss sdr</text>
</a>
</g>
</g>
<!-- libpulsar&#45;&gt;gnss&#45;sdr -->
<!-- gz&#45;msgs -->
<g id="node46" class="node">
<title>gz&#45;msgs</title>
<g id="a_node46"><a xlink:href="https://github.com/conda-forge/gz-msgs-feedstock" xlink:title="gz msgs">
<ellipse fill="#35b779" stroke="black" cx="1196.58" cy="-638" rx="52.26" ry="18"/>
<text text-anchor="middle" x="1196.58" y="-633.33" font-family="Times,serif" font-size="14.00">gz msgs</text>
</a>
</g>
</g>
<!-- gz&#45;transport -->
<g id="node47" class="node">
<title>gz&#45;transport</title>
<g id="a_node47"><a xlink:href="https://github.com/conda-forge/gz-transport-feedstock" xlink:title="gz transport">
<ellipse fill="#fde725" stroke="black" cx="1146.58" cy="-566" rx="73.3" ry="18"/>
<text text-anchor="middle" x="1146.58" y="-561.33" font-family="Times,serif" font-size="14.00">gz transport</text>
</a>
</g>
</g>
<!-- gz&#45;msgs&#45;&gt;gz&#45;transport -->
<g id="edge48" class="edge">
<title>gz&#45;msgs&#45;&gt;gz&#45;transport</title>
<path fill="none" stroke="black" d="M1184.48,-620.05C1178.7,-611.97 1171.67,-602.12 1165.23,-593.11"/>
<polygon fill="black" stroke="black" points="1168.11,-591.12 1159.45,-585.02 1162.42,-595.19 1168.11,-591.12"/>
</g>
<!-- gz&#45;fuel&#45;tools -->
<g id="node48" class="node">
<title>gz&#45;fuel&#45;tools</title>
<g id="a_node48"><a xlink:href="https://github.com/conda-forge/gz-fuel-tools-feedstock" xlink:title="gz fuel tools">
<ellipse fill="#fde725" stroke="black" cx="1347.58" cy="-566" rx="72.25" ry="18"/>
<text text-anchor="middle" x="1347.58" y="-561.33" font-family="Times,serif" font-size="14.00">gz fuel tools</text>
</a>
</g>
</g>
<!-- gz&#45;msgs&#45;&gt;gz&#45;fuel&#45;tools -->
<g id="edge49" class="edge">
<title>gz&#45;msgs&#45;&gt;gz&#45;fuel&#45;tools</title>
<path fill="none" stroke="black" d="M1226.78,-623C1248.92,-612.74 1279.3,-598.65 1304.06,-587.17"/>
<polygon fill="black" stroke="black" points="1305.32,-590.45 1312.92,-583.07 1302.37,-584.1 1305.32,-590.45"/>
</g>
<!-- gz&#45;gui -->
<g id="node49" class="node">
<title>gz&#45;gui</title>
<g id="a_node49"><a xlink:href="https://github.com/conda-forge/gz-gui-feedstock" xlink:title="gz gui">
<ellipse fill="#fde725" stroke="black" cx="1055.58" cy="-494" rx="41.74" ry="18"/>
<text text-anchor="middle" x="1055.58" y="-489.32" font-family="Times,serif" font-size="14.00">gz gui</text>
</a>
</g>
</g>
<!-- gz&#45;msgs&#45;&gt;gz&#45;gui -->
<g id="edge50" class="edge">
<title>gz&#45;msgs&#45;&gt;gz&#45;gui</title>
<path fill="none" stroke="black" d="M1148.77,-630.38C1119.71,-623.73 1084.47,-610.45 1064.58,-584 1051.73,-566.92 1050.1,-542.47 1051.33,-523.53"/>
<polygon fill="black" stroke="black" points="1054.8,-524.08 1052.29,-513.78 1047.83,-523.39 1054.8,-524.08"/>
</g>
<!-- gz&#45;sensors -->
<g id="node50" class="node">
<title>gz&#45;sensors</title>
<g id="a_node50"><a xlink:href="https://github.com/conda-forge/gz-sensors-feedstock" xlink:title="gz sensors">
<ellipse fill="#fde725" stroke="black" cx="1255.58" cy="-494" rx="64.36" ry="18"/>
<text text-anchor="middle" x="1255.58" y="-489.32" font-family="Times,serif" font-size="14.00">gz sensors</text>
</a>
</g>
</g>
<!-- gz&#45;msgs&#45;&gt;gz&#45;sensors -->
<g id="edge51" class="edge">
<title>gz&#45;msgs&#45;&gt;gz&#45;sensors</title>
<path fill="none" stroke="black" d="M1208.08,-620.4C1214.74,-610.23 1222.9,-596.77 1228.58,-584 1237.32,-564.37 1244.27,-541.1 1248.93,-523.28"/>
<polygon fill="black" stroke="black" points="1252.3,-524.2 1251.35,-513.65 1245.52,-522.5 1252.3,-524.2"/>
</g>
<!-- gz&#45;sim -->
<g id="node51" class="node">
<title>gz&#45;sim</title>
<g id="a_node51"><a xlink:href="https://github.com/conda-forge/gz-sim-feedstock" xlink:title="gz sim">
<ellipse fill="#fde725" stroke="black" cx="1226.58" cy="-422" rx="43.84" ry="18"/>
<text text-anchor="middle" x="1226.58" y="-417.32" font-family="Times,serif" font-size="14.00">gz sim</text>
</a>
</g>
</g>
<!-- gz&#45;msgs&#45;&gt;gz&#45;sim -->
<g id="edge52" class="edge">
<title>gz&#45;msgs&#45;&gt;gz&#45;sim</title>
<path fill="none" stroke="black" d="M1246.9,-632.71C1308.18,-626.32 1406.3,-611.94 1428.58,-584 1481.34,-517.83 1346.54,-461.72 1272.04,-436.8"/>
<polygon fill="black" stroke="black" points="1273.54,-433.61 1262.95,-433.83 1271.37,-440.27 1273.54,-433.61"/>
</g>
<!-- gz&#45;launch -->
<g id="node52" class="node">
<title>gz&#45;launch</title>
<g id="a_node52"><a xlink:href="https://github.com/conda-forge/gz-launch-feedstock" xlink:title="gz launch">
<ellipse fill="#fde725" stroke="black" cx="1106.58" cy="-350" rx="59.1" ry="18"/>
<text text-anchor="middle" x="1106.58" y="-345.32" font-family="Times,serif" font-size="14.00">gz launch</text>
</a>
</g>
</g>
<!-- gz&#45;msgs&#45;&gt;gz&#45;launch -->
<g id="edge53" class="edge">
<title>gz&#45;msgs&#45;&gt;gz&#45;launch</title>
<path fill="none" stroke="black" d="M1150.87,-628.99C1119.41,-621.61 1078.11,-608.03 1048.58,-584 1019.49,-560.33 1014.74,-548.1 1004.58,-512 989.17,-457.24 1040.47,-403.41 1075.82,-373.97"/>
<polygon fill="black" stroke="black" points="1077.66,-376.98 1083.24,-367.97 1073.26,-371.54 1077.66,-376.98"/>
</g>
<!-- gz&#45;transport&#45;&gt;gz&#45;gui -->
<g id="edge54" class="edge">
<title>gz&#45;transport&#45;&gt;gz&#45;gui</title>
<path fill="none" stroke="black" d="M1125.02,-548.41C1112.92,-539.11 1097.67,-527.38 1084.54,-517.28"/>
<polygon fill="black" stroke="black" points="1086.7,-514.52 1076.64,-511.2 1082.43,-520.07 1086.7,-514.52"/>
</g>
<!-- gz&#45;transport&#45;&gt;gz&#45;sensors -->
<g id="edge55" class="edge">
<title>gz&#45;transport&#45;&gt;gz&#45;sensors</title>
<path fill="none" stroke="black" d="M1171.86,-548.76C1186.55,-539.33 1205.26,-527.32 1221.26,-517.04"/>
<polygon fill="black" stroke="black" points="1223.02,-520.07 1229.54,-511.72 1219.23,-514.18 1223.02,-520.07"/>
</g>
<!-- gz&#45;transport&#45;&gt;gz&#45;sim -->
<g id="edge56" class="edge">
<title>gz&#45;transport&#45;&gt;gz&#45;sim</title>
<path fill="none" stroke="black" d="M1151.76,-547.87C1157.73,-529.39 1168.56,-499.46 1182.58,-476 1188.5,-466.1 1196.21,-456.13 1203.51,-447.55"/>
<polygon fill="black" stroke="black" points="1205.91,-450.13 1209.89,-440.32 1200.65,-445.5 1205.91,-450.13"/>
</g>
<!-- gz&#45;transport&#45;&gt;gz&#45;launch -->
<g id="edge57" class="edge">
<title>gz&#45;transport&#45;&gt;gz&#45;launch</title>
<path fill="none" stroke="black" d="M1143.38,-547.85C1136.51,-511.14 1120.35,-424.66 1111.91,-379.53"/>
<polygon fill="black" stroke="black" points="1115.36,-378.91 1110.08,-369.72 1108.48,-380.19 1115.36,-378.91"/>
</g>
<!-- gz&#45;fuel&#45;tools&#45;&gt;gz&#45;sim -->
<g id="edge58" class="edge">
<title>gz&#45;fuel&#45;tools&#45;&gt;gz&#45;sim</title>
<path fill="none" stroke="black" d="M1348.09,-547.82C1347.78,-528.47 1344.57,-496.99 1328.58,-476 1314.64,-457.7 1292.57,-445.13 1272.52,-436.85"/>
<polygon fill="black" stroke="black" points="1273.97,-433.65 1263.38,-433.33 1271.45,-440.19 1273.97,-433.65"/>
</g>
<!-- gz&#45;gui&#45;&gt;gz&#45;sim -->
<g id="edge59" class="edge">
<title>gz&#45;gui&#45;&gt;gz&#45;sim</title>
<path fill="none" stroke="black" d="M1084.98,-480.97C1112.82,-469.57 1154.89,-452.35 1185.94,-439.64"/>
<polygon fill="black" stroke="black" points="1187.09,-442.95 1195.02,-435.92 1184.44,-436.47 1187.09,-442.95"/>
</g>
<!-- gz&#45;gui&#45;&gt;gz&#45;launch -->
<g id="edge60" class="edge">
<title>gz&#45;gui&#45;&gt;gz&#45;launch</title>
<path fill="none" stroke="black" d="M1061.73,-475.87C1070.39,-451.78 1086.25,-407.6 1096.61,-378.77"/>
<polygon fill="black" stroke="black" points="1099.81,-380.21 1099.9,-369.61 1093.22,-377.84 1099.81,-380.21"/>
</g>
<!-- gz&#45;sensors&#45;&gt;gz&#45;sim -->
<g id="edge61" class="edge">
<title>gz&#45;sensors&#45;&gt;gz&#45;sim</title>
<path fill="none" stroke="black" d="M1248.41,-475.7C1245.29,-468.15 1241.55,-459.12 1238.05,-450.68"/>
<polygon fill="black" stroke="black" points="1241.31,-449.4 1234.25,-441.5 1234.84,-452.08 1241.31,-449.4"/>
</g>
<!-- gz&#45;sim&#45;&gt;gz&#45;launch -->
<g id="edge62" class="edge">
<title>gz&#45;sim&#45;&gt;gz&#45;launch</title>
<path fill="none" stroke="black" d="M1202.01,-406.67C1185.04,-396.77 1162.17,-383.43 1143.08,-372.29"/>
<polygon fill="black" stroke="black" points="1144.92,-369.31 1134.51,-367.29 1141.39,-375.36 1144.92,-369.31"/>
</g>
<!-- labmaze -->
<g id="node53" class="node">
<title>labmaze</title>
<g id="a_node53"><a xlink:href="https://github.com/conda-forge/labmaze-feedstock" xlink:title="labmaze">
<ellipse fill="#35b779" stroke="black" cx="147.58" cy="-1150" rx="52.79" ry="18"/>
<text text-anchor="middle" x="147.58" y="-1145.33" font-family="Times,serif" font-size="14.00">labmaze</text>
</a>
</g>
</g>
<!-- labmaze&#45;&gt;ray&#45;packages -->
<g id="edge63" class="edge">
<title>labmaze&#45;&gt;ray&#45;packages</title>
<path fill="none" stroke="black" d="M147.2,-1131.56C147.64,-1112.26 151,-1081.1 166.58,-1060 177.26,-1045.54 193.12,-1034.51 208.84,-1026.36"/>
<polygon fill="black" stroke="black" points="210.25,-1029.56 217.74,-1022.06 207.21,-1023.26 210.25,-1029.56"/>
</g>
<!-- openvino -->
<g id="node54" class="node">
<title>openvino</title>
<g id="a_node54"><a xlink:href="https://github.com/conda-forge/openvino-feedstock/pull/74" xlink:title="openvino ❎">
<ellipse fill="#31688e" stroke="black" cx="550.58" cy="-1150" rx="71.73" ry="18"/>
<text text-anchor="middle" x="550.58" y="-1145.33" font-family="Times,serif" font-size="14.00" fill="white">openvino ❎</text>
</a>
</g>
</g>
<!-- openvino&#45;&gt;opencv -->
<g id="edge64" class="edge">
<title>openvino&#45;&gt;opencv</title>
<path fill="none" stroke="black" d="M551.32,-1131.7C551.64,-1124.41 552.01,-1115.73 552.36,-1107.54"/>
<polygon fill="black" stroke="black" points="555.85,-1107.76 552.78,-1097.62 548.86,-1107.46 555.85,-1107.76"/>
</g>
<!-- tensorstore -->
<g id="node56" class="node">
<title>tensorstore</title>
<g id="a_node56"><a xlink:href="https://github.com/conda-forge/tensorstore-feedstock" xlink:title="tensorstore">
<ellipse fill="#35b779" stroke="black" cx="1235.58" cy="-970" rx="69.1" ry="18"/>
<text text-anchor="middle" x="1235.58" y="-965.33" font-family="Times,serif" font-size="14.00">tensorstore</text>
</a>
</g>
</g>
<!-- gnss&#45;sdr&#45;&gt;tensorstore -->
<!-- gcld3 -->
<g id="node57" class="node">
<title>gcld3</title>
<g id="a_node57"><a xlink:href="https://github.com/conda-forge/gcld3-feedstock" xlink:title="gcld3">
<ellipse fill="#35b779" stroke="black" cx="1235.58" cy="-898" rx="38.58" ry="18"/>
<text text-anchor="middle" x="1235.58" y="-893.33" font-family="Times,serif" font-size="14.00">gcld3</text>
</a>
</g>
</g>
<!-- tensorstore&#45;&gt;gcld3 -->
<!-- bloaty -->
<g id="node58" class="node">
<title>bloaty</title>
<g id="a_node58"><a xlink:href="https://github.com/conda-forge/bloaty-feedstock" xlink:title="bloaty">
<ellipse fill="#35b779" stroke="black" cx="1809.58" cy="-54" rx="42.26" ry="18"/>
<text text-anchor="middle" x="1809.58" y="-49.33" font-family="Times,serif" font-size="14.00">bloaty</text>
</a>
</g>
</g>
<!-- google&#45;cloud&#45;cpp&#45;compute -->
<g id="node59" class="node">
<title>google&#45;cloud&#45;cpp&#45;compute</title>
<g id="a_node59"><a xlink:href="https://github.com/conda-forge/google-cloud-cpp-compute-feedstock" xlink:title="google cloud cpp compute">
<ellipse fill="#35b779" stroke="black" cx="532.58" cy="-1366" rx="141.7" ry="18"/>
<text text-anchor="middle" x="532.58" y="-1361.33" font-family="Times,serif" font-size="14.00">google cloud cpp compute</text>
</a>
</g>
</g>
<!-- google&#45;cloud&#45;cpp&#45;compute&#45;&gt;google&#45;cloud&#45;cpp -->
<g id="edge68" class="edge">
<title>google&#45;cloud&#45;cpp&#45;compute&#45;&gt;google&#45;cloud&#45;cpp</title>
<path fill="none" stroke="black" d="M572.87,-1348.41C597.01,-1338.47 627.88,-1325.76 653.45,-1315.23"/>
<polygon fill="black" stroke="black" points="654.73,-1318.49 662.64,-1311.44 652.06,-1312.02 654.73,-1318.49"/>
</g>
<!-- google&#45;cloud&#45;cpp&#45;bigquery -->
<g id="node60" class="node">
<title>google&#45;cloud&#45;cpp&#45;bigquery</title>
<g id="a_node60"><a xlink:href="https://github.com/conda-forge/google-cloud-cpp-bigquery-feedstock" xlink:title="google cloud cpp bigquery">
<ellipse fill="#35b779" stroke="black" cx="702.58" cy="-1438" rx="143.28" ry="18"/>
<text text-anchor="middle" x="702.58" y="-1433.33" font-family="Times,serif" font-size="14.00">google cloud cpp bigquery</text>
</a>
</g>
</g>
<!-- google&#45;cloud&#45;cpp&#45;bigquery&#45;&gt;google&#45;cloud&#45;cpp -->
<g id="edge69" class="edge">
<title>google&#45;cloud&#45;cpp&#45;bigquery&#45;&gt;google&#45;cloud&#45;cpp</title>
<path fill="none" stroke="black" d="M702.58,-1419.59C702.58,-1395.61 702.58,-1352.14 702.58,-1323.42"/>
<polygon fill="black" stroke="black" points="706.08,-1323.62 702.58,-1313.62 699.08,-1323.62 706.08,-1323.62"/>
</g>
<!-- google&#45;cloud&#45;cpp&#45;ai -->
<g id="node61" class="node">
<title>google&#45;cloud&#45;cpp&#45;ai</title>
<g id="a_node61"><a xlink:href="https://github.com/conda-forge/google-cloud-cpp-ai-feedstock" xlink:title="google cloud cpp ai">
<ellipse fill="#35b779" stroke="black" cx="873.58" cy="-1510" rx="107.5" ry="18"/>
<text text-anchor="middle" x="873.58" y="-1505.33" font-family="Times,serif" font-size="14.00">google cloud cpp ai</text>
</a>
</g>
</g>
<!-- google&#45;cloud&#45;cpp&#45;ai&#45;&gt;google&#45;cloud&#45;cpp -->
<g id="edge70" class="edge">
<title>google&#45;cloud&#45;cpp&#45;ai&#45;&gt;google&#45;cloud&#45;cpp</title>
<path fill="none" stroke="black" d="M873.22,-1491.7C872.11,-1472.81 868.13,-1442.27 854.58,-1420 827.15,-1374.91 777.48,-1338.72 742.4,-1317.11"/>
<polygon fill="black" stroke="black" points="744.59,-1314.34 734.22,-1312.19 740.98,-1320.34 744.59,-1314.34"/>
</g>
</g>
</svg>
