<?xml version="1.0" encoding="UTF-8" standalone="no"?>
<!DOCTYPE svg PUBLIC "-//W3C//DTD SVG 1.1//EN"
 "http://www.w3.org/Graphics/SVG/1.1/DTD/svg11.dtd">
<!-- Generated by graphviz version 9.0.0 (20231125.0833)
 -->
<!-- Pages: 1 -->
<svg width="2081pt" height="1644pt"
 viewBox="0.00 0.00 2081.30 1644.00" xmlns="http://www.w3.org/2000/svg" xmlns:xlink="http://www.w3.org/1999/xlink">
<g id="graph0" class="graph" transform="scale(1 1) rotate(0) translate(4 1640)">
<polygon fill="white" stroke="none" points="-4,4 -4,-1640 2077.3,-1640 2077.3,4 -4,4"/>
<!-- arrow&#45;cpp -->
<g id="node1" class="node">
<title>arrow&#45;cpp</title>
<g id="a_node1"><a xlink:href="https://github.com/conda-forge/arrow-cpp-feedstock/pull/1323" xlink:title="arrow cpp ❎">
<ellipse fill="#31688e" stroke="black" cx="425.4" cy="-1186" rx="76.99" ry="18"/>
<text text-anchor="middle" x="425.4" y="-1181.33" font-family="Times,serif" font-size="14.00" fill="white">arrow cpp ❎</text>
</a>
</g>
</g>
<!-- ray&#45;packages -->
<g id="node2" class="node">
<title>ray&#45;packages</title>
<g id="a_node2"><a xlink:href="https://github.com/conda-forge/ray-packages-feedstock" xlink:title="ray packages">
<ellipse fill="#fde725" stroke="black" cx="606.4" cy="-1114" rx="76.99" ry="18"/>
<text text-anchor="middle" x="606.4" y="-1109.33" font-family="Times,serif" font-size="14.00">ray packages</text>
</a>
</g>
</g>
<!-- arrow&#45;cpp&#45;&gt;ray&#45;packages -->
<g id="edge1" class="edge">
<title>arrow&#45;cpp&#45;&gt;ray&#45;packages</title>
<path fill="none" stroke="black" d="M463.79,-1170.15C491.05,-1159.61 527.89,-1145.36 557.29,-1133.99"/>
<polygon fill="black" stroke="black" points="558.28,-1137.36 566.35,-1130.49 555.76,-1130.83 558.28,-1137.36"/>
</g>
<!-- arcticdb -->
<g id="node3" class="node">
<title>arcticdb</title>
<g id="a_node3"><a xlink:href="https://github.com/conda-forge/arcticdb-feedstock" xlink:title="arcticdb">
<ellipse fill="#fde725" stroke="black" cx="425.4" cy="-1114" rx="52.26" ry="18"/>
<text text-anchor="middle" x="425.4" y="-1109.33" font-family="Times,serif" font-size="14.00">arcticdb</text>
</a>
</g>
</g>
<!-- arrow&#45;cpp&#45;&gt;arcticdb -->
<g id="edge2" class="edge">
<title>arrow&#45;cpp&#45;&gt;arcticdb</title>
<path fill="none" stroke="black" d="M425.4,-1167.7C425.4,-1160.41 425.4,-1151.73 425.4,-1143.54"/>
<polygon fill="black" stroke="black" points="428.9,-1143.62 425.4,-1133.62 421.9,-1143.62 428.9,-1143.62"/>
</g>
<!-- bazel -->
<g id="node4" class="node">
<title>bazel</title>
<g id="a_node4"><a xlink:href="https://github.com/conda-forge/bazel-feedstock/pull/221" xlink:title="bazel ❎">
<ellipse fill="#31688e" stroke="black" cx="462.4" cy="-854" rx="52.79" ry="18"/>
<text text-anchor="middle" x="462.4" y="-849.33" font-family="Times,serif" font-size="14.00" fill="white">bazel ❎</text>
</a>
</g>
</g>
<!-- mosh -->
<g id="node5" class="node">
<title>mosh</title>
<g id="a_node5"><a xlink:href="https://github.com/conda-forge/mosh-feedstock" xlink:title="mosh">
<ellipse fill="#35b779" stroke="black" cx="462.4" cy="-782" rx="38.06" ry="18"/>
<text text-anchor="middle" x="462.4" y="-777.33" font-family="Times,serif" font-size="14.00">mosh</text>
</a>
</g>
</g>
<!-- bazel&#45;&gt;mosh -->
<!-- onnx -->
<g id="node6" class="node">
<title>onnx</title>
<g id="a_node6"><a xlink:href="https://github.com/conda-forge/onnx-feedstock" xlink:title="onnx">
<ellipse fill="#35b779" stroke="black" cx="462.4" cy="-710" rx="35.42" ry="18"/>
<text text-anchor="middle" x="462.4" y="-705.33" font-family="Times,serif" font-size="14.00">onnx</text>
</a>
</g>
</g>
<!-- mosh&#45;&gt;onnx -->
<!-- paraview -->
<g id="node9" class="node">
<title>paraview</title>
<g id="a_node9"><a xlink:href="https://github.com/conda-forge/paraview-feedstock" xlink:title="paraview">
<ellipse fill="#35b779" stroke="black" cx="462.4" cy="-638" rx="57" ry="18"/>
<text text-anchor="middle" x="462.4" y="-633.33" font-family="Times,serif" font-size="14.00">paraview</text>
</a>
</g>
</g>
<!-- onnx&#45;&gt;paraview -->
<!-- mysql -->
<g id="node7" class="node">
<title>mysql</title>
<g id="a_node7"><a xlink:href="https://github.com/conda-forge/mysql-feedstock/pull/96" xlink:title="mysql ✓">
<ellipse fill="#31688e" stroke="black" cx="1753.4" cy="-530" rx="49.1" ry="18"/>
<text text-anchor="middle" x="1753.4" y="-525.33" font-family="Times,serif" font-size="14.00" fill="white">mysql ✓</text>
</a>
</g>
</g>
<!-- mysql&#45;connector&#45;python -->
<g id="node8" class="node">
<title>mysql&#45;connector&#45;python</title>
<g id="a_node8"><a xlink:href="https://github.com/conda-forge/mysql-connector-python-feedstock" xlink:title="mysql connector python">
<ellipse fill="#fde725" stroke="black" cx="1753.4" cy="-458" rx="131.7" ry="18"/>
<text text-anchor="middle" x="1753.4" y="-453.32" font-family="Times,serif" font-size="14.00">mysql connector python</text>
</a>
</g>
</g>
<!-- mysql&#45;&gt;mysql&#45;connector&#45;python -->
<g id="edge5" class="edge">
<title>mysql&#45;&gt;mysql&#45;connector&#45;python</title>
<path fill="none" stroke="black" d="M1753.4,-511.7C1753.4,-504.41 1753.4,-495.73 1753.4,-487.54"/>
<polygon fill="black" stroke="black" points="1756.9,-487.62 1753.4,-477.62 1749.9,-487.62 1756.9,-487.62"/>
</g>
<!-- tensorflow -->
<g id="node13" class="node">
<title>tensorflow</title>
<g id="a_node13"><a xlink:href="https://github.com/conda-forge/tensorflow-feedstock" xlink:title="tensorflow">
<ellipse fill="#ff8c00" stroke="black" cx="462.4" cy="-566" rx="63.84" ry="18"/>
<text text-anchor="middle" x="462.4" y="-561.33" font-family="Times,serif" font-size="14.00">tensorflow</text>
</a>
</g>
</g>
<!-- paraview&#45;&gt;tensorflow -->
<!-- opencv -->
<g id="node10" class="node">
<title>opencv</title>
<g id="a_node10"><a xlink:href="https://github.com/conda-forge/opencv-feedstock/pull/393" xlink:title="opencv ❎">
<ellipse fill="#31688e" stroke="black" cx="268.4" cy="-1186" rx="61.73" ry="18"/>
<text text-anchor="middle" x="268.4" y="-1181.33" font-family="Times,serif" font-size="14.00" fill="white">opencv ❎</text>
</a>
</g>
</g>
<!-- opencv&#45;&gt;ray&#45;packages -->
<g id="edge7" class="edge">
<title>opencv&#45;&gt;ray&#45;packages</title>
<path fill="none" stroke="black" d="M314.55,-1173.67C322.81,-1171.72 331.35,-1169.76 339.4,-1168 406.1,-1153.4 482.55,-1138.4 536.51,-1128.1"/>
<polygon fill="black" stroke="black" points="537.01,-1131.57 546.18,-1126.26 535.7,-1124.69 537.01,-1131.57"/>
</g>
<!-- imp -->
<g id="node11" class="node">
<title>imp</title>
<g id="a_node11"><a xlink:href="https://github.com/conda-forge/imp-feedstock" xlink:title="imp">
<ellipse fill="#fde725" stroke="black" cx="285.4" cy="-1114" rx="30.16" ry="18"/>
<text text-anchor="middle" x="285.4" y="-1109.33" font-family="Times,serif" font-size="14.00">imp</text>
</a>
</g>
</g>
<!-- opencv&#45;&gt;imp -->
<g id="edge8" class="edge">
<title>opencv&#45;&gt;imp</title>
<path fill="none" stroke="black" d="M272.6,-1167.7C274.39,-1160.32 276.53,-1151.52 278.54,-1143.25"/>
<polygon fill="black" stroke="black" points="281.93,-1144.12 280.89,-1133.58 275.13,-1142.47 281.93,-1144.12"/>
</g>
<!-- gazebo&#45;yarp&#45;plugins -->
<g id="node12" class="node">
<title>gazebo&#45;yarp&#45;plugins</title>
<g id="a_node12"><a xlink:href="https://github.com/conda-forge/gazebo-yarp-plugins-feedstock" xlink:title="gazebo yarp plugins">
<ellipse fill="#fde725" stroke="black" cx="125.4" cy="-1114" rx="112.24" ry="18"/>
<text text-anchor="middle" x="125.4" y="-1109.33" font-family="Times,serif" font-size="14.00">gazebo yarp plugins</text>
</a>
</g>
</g>
<!-- opencv&#45;&gt;gazebo&#45;yarp&#45;plugins -->
<g id="edge9" class="edge">
<title>opencv&#45;&gt;gazebo&#45;yarp&#45;plugins</title>
<path fill="none" stroke="black" d="M237.72,-1169.98C217.82,-1160.24 191.56,-1147.38 169.44,-1136.56"/>
<polygon fill="black" stroke="black" points="171.16,-1133.5 160.64,-1132.25 168.08,-1139.79 171.16,-1133.5"/>
</g>
<!-- r&#45;protolite -->
<g id="node18" class="node">
<title>r&#45;protolite</title>
<g id="a_node18"><a xlink:href="https://github.com/conda-forge/r-protolite-feedstock" xlink:title="r protolite">
<ellipse fill="#35b779" stroke="black" cx="462.4" cy="-494" rx="62.26" ry="18"/>
<text text-anchor="middle" x="462.4" y="-489.32" font-family="Times,serif" font-size="14.00">r protolite</text>
</a>
</g>
</g>
<!-- tensorflow&#45;&gt;r&#45;protolite -->
<!-- qgis -->
<g id="node14" class="node">
<title>qgis</title>
<g id="a_node14"><a xlink:href="https://github.com/conda-forge/qgis-feedstock" xlink:title="qgis">
<ellipse fill="#fde725" stroke="black" cx="65.4" cy="-1258" rx="32.27" ry="18"/>
<text text-anchor="middle" x="65.4" y="-1253.33" font-family="Times,serif" font-size="14.00">qgis</text>
</a>
</g>
</g>
<!-- tiledb -->
<g id="node15" class="node">
<title>tiledb</title>
<g id="a_node15"><a xlink:href="https://github.com/conda-forge/tiledb-feedstock" xlink:title="tiledb">
<ellipse fill="#fde725" stroke="black" cx="95.4" cy="-1330" rx="40.16" ry="18"/>
<text text-anchor="middle" x="95.4" y="-1325.33" font-family="Times,serif" font-size="14.00">tiledb</text>
</a>
</g>
</g>
<!-- tiledb&#45;&gt;qgis -->
<g id="edge11" class="edge">
<title>tiledb&#45;&gt;qgis</title>
<path fill="none" stroke="black" d="M88.14,-1312.05C84.82,-1304.32 80.81,-1294.96 77.09,-1286.27"/>
<polygon fill="black" stroke="black" points="80.35,-1284.99 73.19,-1277.18 73.92,-1287.75 80.35,-1284.99"/>
</g>
<!-- gazebo -->
<g id="node16" class="node">
<title>gazebo</title>
<g id="a_node16"><a xlink:href="https://github.com/conda-forge/gazebo-feedstock" xlink:title="gazebo">
<ellipse fill="#fde725" stroke="black" cx="125.4" cy="-1186" rx="46.47" ry="18"/>
<text text-anchor="middle" x="125.4" y="-1181.33" font-family="Times,serif" font-size="14.00">gazebo</text>
</a>
</g>
</g>
<!-- tiledb&#45;&gt;gazebo -->
<g id="edge12" class="edge">
<title>tiledb&#45;&gt;gazebo</title>
<path fill="none" stroke="black" d="M99.08,-1311.59C104.17,-1287.5 113.41,-1243.75 119.48,-1215.03"/>
<polygon fill="black" stroke="black" points="122.83,-1216.1 121.47,-1205.59 115.98,-1214.65 122.83,-1216.1"/>
</g>
<!-- gazebo&#45;&gt;gazebo&#45;yarp&#45;plugins -->
<g id="edge13" class="edge">
<title>gazebo&#45;&gt;gazebo&#45;yarp&#45;plugins</title>
<path fill="none" stroke="black" d="M125.4,-1167.7C125.4,-1160.41 125.4,-1151.73 125.4,-1143.54"/>
<polygon fill="black" stroke="black" points="128.9,-1143.62 125.4,-1133.62 121.9,-1143.62 128.9,-1143.62"/>
</g>
<!-- pyaudi -->
<g id="node17" class="node">
<title>pyaudi</title>
<g id="a_node17"><a xlink:href="https://github.com/conda-forge/pyaudi-feedstock" xlink:title="pyaudi">
<ellipse fill="#fde725" stroke="black" cx="1179.4" cy="-18" rx="44.9" ry="18"/>
<text text-anchor="middle" x="1179.4" y="-13.32" font-family="Times,serif" font-size="14.00">pyaudi</text>
</a>
</g>
</g>
<!-- mongodb -->
<g id="node19" class="node">
<title>mongodb</title>
<g id="a_node19"><a xlink:href="https://github.com/conda-forge/mongodb-feedstock/pull/84" xlink:title="mongodb ❎">
<ellipse fill="#31688e" stroke="black" cx="462.4" cy="-422" rx="72.78" ry="18"/>
<text text-anchor="middle" x="462.4" y="-417.32" font-family="Times,serif" font-size="14.00" fill="white">mongodb ❎</text>
</a>
</g>
</g>
<!-- r&#45;protolite&#45;&gt;mongodb -->
<!-- zaber&#45;motion -->
<g id="node21" class="node">
<title>zaber&#45;motion</title>
<g id="a_node21"><a xlink:href="https://github.com/conda-forge/zaber-motion-feedstock" xlink:title="zaber motion">
<ellipse fill="#35b779" stroke="black" cx="462.4" cy="-350" rx="76.99" ry="18"/>
<text text-anchor="middle" x="462.4" y="-345.32" font-family="Times,serif" font-size="14.00">zaber motion</text>
</a>
</g>
</g>
<!-- mongodb&#45;&gt;zaber&#45;motion -->
<!-- pytorch&#45;cpu -->
<g id="node20" class="node">
<title>pytorch&#45;cpu</title>
<g id="a_node20"><a xlink:href="https://github.com/conda-forge/pytorch-cpu-feedstock/pull/221" xlink:title="pytorch cpu ❎">
<ellipse fill="#31688e" stroke="black" cx="606.4" cy="-1186" rx="85.93" ry="18"/>
<text text-anchor="middle" x="606.4" y="-1181.33" font-family="Times,serif" font-size="14.00" fill="white">pytorch cpu ❎</text>
</a>
</g>
</g>
<!-- pytorch&#45;cpu&#45;&gt;ray&#45;packages -->
<g id="edge16" class="edge">
<title>pytorch&#45;cpu&#45;&gt;ray&#45;packages</title>
<path fill="none" stroke="black" d="M606.4,-1167.7C606.4,-1160.41 606.4,-1151.73 606.4,-1143.54"/>
<polygon fill="black" stroke="black" points="609.9,-1143.62 606.4,-1133.62 602.9,-1143.62 609.9,-1143.62"/>
</g>
<!-- go&#45;cockroach -->
<g id="node32" class="node">
<title>go&#45;cockroach</title>
<g id="a_node32"><a xlink:href="https://github.com/conda-forge/go-cockroach-feedstock" xlink:title="go cockroach">
<ellipse fill="#35b779" stroke="black" cx="462.4" cy="-278" rx="76.46" ry="18"/>
<text text-anchor="middle" x="462.4" y="-273.32" font-family="Times,serif" font-size="14.00">go cockroach</text>
</a>
</g>
</g>
<!-- zaber&#45;motion&#45;&gt;go&#45;cockroach -->
<!-- jaxlib -->
<g id="node22" class="node">
<title>jaxlib</title>
<g id="a_node22"><a xlink:href="https://github.com/conda-forge/jaxlib-feedstock" xlink:title="jaxlib">
<ellipse fill="#ff8c00" stroke="black" cx="732.4" cy="-1258" rx="38.58" ry="18"/>
<text text-anchor="middle" x="732.4" y="-1253.33" font-family="Times,serif" font-size="14.00">jaxlib</text>
</a>
</g>
</g>
<!-- mujoco -->
<g id="node23" class="node">
<title>mujoco</title>
<g id="a_node23"><a xlink:href="https://github.com/conda-forge/mujoco-feedstock" xlink:title="mujoco">
<ellipse fill="#fde725" stroke="black" cx="757.4" cy="-1186" rx="47" ry="18"/>
<text text-anchor="middle" x="757.4" y="-1181.33" font-family="Times,serif" font-size="14.00">mujoco</text>
</a>
</g>
</g>
<!-- jaxlib&#45;&gt;mujoco -->
<g id="edge18" class="edge">
<title>jaxlib&#45;&gt;mujoco</title>
<path fill="none" stroke="black" d="M738.45,-1240.05C741.15,-1232.52 744.39,-1223.44 747.42,-1214.94"/>
<polygon fill="black" stroke="black" points="750.66,-1216.3 750.72,-1205.7 744.06,-1213.94 750.66,-1216.3"/>
</g>
<!-- mujoco&#45;&gt;ray&#45;packages -->
<g id="edge19" class="edge">
<title>mujoco&#45;&gt;ray&#45;packages</title>
<path fill="none" stroke="black" d="M728.29,-1171.5C706.17,-1161.25 675.37,-1146.97 650.27,-1135.34"/>
<polygon fill="black" stroke="black" points="651.82,-1132.2 641.27,-1131.17 648.88,-1138.55 651.82,-1132.2"/>
</g>
<!-- obake -->
<g id="node24" class="node">
<title>obake</title>
<g id="a_node24"><a xlink:href="https://github.com/conda-forge/obake-feedstock" xlink:title="obake">
<ellipse fill="#35b779" stroke="black" cx="1179.4" cy="-90" rx="40.69" ry="18"/>
<text text-anchor="middle" x="1179.4" y="-85.33" font-family="Times,serif" font-size="14.00">obake</text>
</a>
</g>
</g>
<!-- obake&#45;&gt;pyaudi -->
<g id="edge20" class="edge">
<title>obake&#45;&gt;pyaudi</title>
<path fill="none" stroke="black" d="M1179.4,-71.7C1179.4,-64.41 1179.4,-55.73 1179.4,-47.54"/>
<polygon fill="black" stroke="black" points="1182.9,-47.62 1179.4,-37.62 1175.9,-47.62 1182.9,-47.62"/>
</g>
<!-- libignition&#45;transport4 -->
<g id="node25" class="node">
<title>libignition&#45;transport4</title>
<g id="a_node25"><a xlink:href="https://github.com/conda-forge/libignition-transport4-feedstock" xlink:title="libignition transport4">
<ellipse fill="#fde725" stroke="black" cx="1638.4" cy="-1330" rx="119.08" ry="18"/>
<text text-anchor="middle" x="1638.4" y="-1325.33" font-family="Times,serif" font-size="14.00">libignition transport4</text>
</a>
</g>
</g>
<!-- libignition&#45;sensors -->
<g id="node26" class="node">
<title>libignition&#45;sensors</title>
<g id="a_node26"><a xlink:href="https://github.com/conda-forge/libignition-sensors-feedstock" xlink:title="libignition sensors">
<ellipse fill="#fde725" stroke="black" cx="1793.4" cy="-1258" rx="103.82" ry="18"/>
<text text-anchor="middle" x="1793.4" y="-1253.33" font-family="Times,serif" font-size="14.00">libignition sensors</text>
</a>
</g>
</g>
<!-- libignition&#45;transport4&#45;&gt;libignition&#45;sensors -->
<g id="edge21" class="edge">
<title>libignition&#45;transport4&#45;&gt;libignition&#45;sensors</title>
<path fill="none" stroke="black" d="M1675.13,-1312.41C1696.64,-1302.7 1724,-1290.34 1746.98,-1279.96"/>
<polygon fill="black" stroke="black" points="1748.15,-1283.28 1755.82,-1275.97 1745.27,-1276.9 1748.15,-1283.28"/>
</g>
<!-- libignition&#45;gui -->
<g id="node27" class="node">
<title>libignition&#45;gui</title>
<g id="a_node27"><a xlink:href="https://github.com/conda-forge/libignition-gui-feedstock" xlink:title="libignition gui">
<ellipse fill="#fde725" stroke="black" cx="1514.4" cy="-1258" rx="81.2" ry="18"/>
<text text-anchor="middle" x="1514.4" y="-1253.33" font-family="Times,serif" font-size="14.00">libignition gui</text>
</a>
</g>
</g>
<!-- libignition&#45;transport4&#45;&gt;libignition&#45;gui -->
<g id="edge22" class="edge">
<title>libignition&#45;transport4&#45;&gt;libignition&#45;gui</title>
<path fill="none" stroke="black" d="M1608.7,-1312.23C1591.97,-1302.79 1570.89,-1290.89 1552.91,-1280.74"/>
<polygon fill="black" stroke="black" points="1554.75,-1277.76 1544.32,-1275.89 1551.31,-1283.86 1554.75,-1277.76"/>
</g>
<!-- libignition&#45;gazebo -->
<g id="node28" class="node">
<title>libignition&#45;gazebo</title>
<g id="a_node28"><a xlink:href="https://github.com/conda-forge/libignition-gazebo-feedstock" xlink:title="libignition gazebo">
<ellipse fill="#fde725" stroke="black" cx="1773.4" cy="-1186" rx="100.66" ry="18"/>
<text text-anchor="middle" x="1773.4" y="-1181.33" font-family="Times,serif" font-size="14.00">libignition gazebo</text>
</a>
</g>
</g>
<!-- libignition&#45;transport4&#45;&gt;libignition&#45;gazebo -->
<g id="edge23" class="edge">
<title>libignition&#45;transport4&#45;&gt;libignition&#45;gazebo</title>
<path fill="none" stroke="black" d="M1643.07,-1311.8C1649.05,-1292.43 1661.02,-1260.94 1680.4,-1240 1692.52,-1226.91 1708.62,-1216.19 1724.02,-1207.89"/>
<polygon fill="black" stroke="black" points="1725.33,-1211.16 1732.64,-1203.49 1722.14,-1204.92 1725.33,-1211.16"/>
</g>
<!-- libignition&#45;launch -->
<g id="node29" class="node">
<title>libignition&#45;launch</title>
<g id="a_node29"><a xlink:href="https://github.com/conda-forge/libignition-launch-feedstock" xlink:title="libignition launch">
<ellipse fill="#fde725" stroke="black" cx="1708.4" cy="-1114" rx="98.56" ry="18"/>
<text text-anchor="middle" x="1708.4" y="-1109.33" font-family="Times,serif" font-size="14.00">libignition launch</text>
</a>
</g>
</g>
<!-- libignition&#45;transport4&#45;&gt;libignition&#45;launch -->
<g id="edge24" class="edge">
<title>libignition&#45;transport4&#45;&gt;libignition&#45;launch</title>
<path fill="none" stroke="black" d="M1638.07,-1311.68C1638.13,-1281.2 1641.16,-1216.62 1663.4,-1168 1667.97,-1158 1674.99,-1148.41 1682.13,-1140.2"/>
<polygon fill="black" stroke="black" points="1684.57,-1142.72 1688.79,-1133 1679.43,-1137.97 1684.57,-1142.72"/>
</g>
<!-- libignition&#45;sensors&#45;&gt;libignition&#45;gazebo -->
<g id="edge25" class="edge">
<title>libignition&#45;sensors&#45;&gt;libignition&#45;gazebo</title>
<path fill="none" stroke="black" d="M1788.46,-1239.7C1786.33,-1232.24 1783.78,-1223.32 1781.39,-1214.97"/>
<polygon fill="black" stroke="black" points="1784.82,-1214.21 1778.7,-1205.56 1778.09,-1216.14 1784.82,-1214.21"/>
</g>
<!-- libignition&#45;gui&#45;&gt;libignition&#45;gazebo -->
<g id="edge26" class="edge">
<title>libignition&#45;gui&#45;&gt;libignition&#45;gazebo</title>
<path fill="none" stroke="black" d="M1564.65,-1243.42C1605.6,-1232.35 1663.74,-1216.64 1708.27,-1204.6"/>
<polygon fill="black" stroke="black" points="1709.07,-1208.01 1717.81,-1202.02 1707.25,-1201.25 1709.07,-1208.01"/>
</g>
<!-- libignition&#45;gui&#45;&gt;libignition&#45;launch -->
<g id="edge27" class="edge">
<title>libignition&#45;gui&#45;&gt;libignition&#45;launch</title>
<path fill="none" stroke="black" d="M1529.74,-1240.18C1547.65,-1221.17 1578.73,-1190 1609.4,-1168 1626.09,-1156.03 1645.8,-1144.94 1663.23,-1136.03"/>
<polygon fill="black" stroke="black" points="1664.46,-1139.33 1671.83,-1131.72 1661.32,-1133.07 1664.46,-1139.33"/>
</g>
<!-- libignition&#45;gazebo&#45;&gt;libignition&#45;launch -->
<g id="edge28" class="edge">
<title>libignition&#45;gazebo&#45;&gt;libignition&#45;launch</title>
<path fill="none" stroke="black" d="M1757.67,-1168.05C1749.84,-1159.63 1740.23,-1149.28 1731.58,-1139.97"/>
<polygon fill="black" stroke="black" points="1734.39,-1137.84 1725.02,-1132.9 1729.26,-1142.61 1734.39,-1137.84"/>
</g>
<!-- libignition&#45;msgs1 -->
<g id="node30" class="node">
<title>libignition&#45;msgs1</title>
<g id="a_node30"><a xlink:href="https://github.com/conda-forge/libignition-msgs1-feedstock" xlink:title="libignition msgs1">
<ellipse fill="#35b779" stroke="black" cx="1855.4" cy="-1402" rx="98.03" ry="18"/>
<text text-anchor="middle" x="1855.4" y="-1397.33" font-family="Times,serif" font-size="14.00">libignition msgs1</text>
</a>
</g>
</g>
<!-- libignition&#45;msgs1&#45;&gt;libignition&#45;transport4 -->
<g id="edge29" class="edge">
<title>libignition&#45;msgs1&#45;&gt;libignition&#45;transport4</title>
<path fill="none" stroke="black" d="M1808.32,-1385.81C1776.03,-1375.4 1732.94,-1361.5 1698.23,-1350.3"/>
<polygon fill="black" stroke="black" points="1699.31,-1346.97 1688.72,-1347.23 1697.16,-1353.63 1699.31,-1346.97"/>
</g>
<!-- libignition&#45;msgs1&#45;&gt;libignition&#45;sensors -->
<g id="edge30" class="edge">
<title>libignition&#45;msgs1&#45;&gt;libignition&#45;sensors</title>
<path fill="none" stroke="black" d="M1833.62,-1384.2C1823,-1374.76 1811.1,-1362.06 1804.4,-1348 1795.44,-1329.18 1792.84,-1305.7 1792.4,-1287.59"/>
<polygon fill="black" stroke="black" points="1795.9,-1287.8 1792.39,-1277.8 1788.9,-1287.81 1795.9,-1287.8"/>
</g>
<!-- libignition&#45;msgs1&#45;&gt;libignition&#45;gui -->
<g id="edge31" class="edge">
<title>libignition&#45;msgs1&#45;&gt;libignition&#45;gui</title>
<path fill="none" stroke="black" d="M1757.85,-1399.69C1667.26,-1396.15 1541.77,-1384.56 1510.4,-1348 1496.32,-1331.59 1498.81,-1306.57 1503.97,-1287.23"/>
<polygon fill="black" stroke="black" points="1507.28,-1288.36 1506.87,-1277.78 1500.59,-1286.31 1507.28,-1288.36"/>
</g>
<!-- libignition&#45;msgs1&#45;&gt;libignition&#45;gazebo -->
<g id="edge32" class="edge">
<title>libignition&#45;msgs1&#45;&gt;libignition&#45;gazebo</title>
<path fill="none" stroke="black" d="M1940.02,-1392.52C2002.83,-1382.26 2073.3,-1359.93 2046.4,-1312 2009.5,-1246.25 1927.15,-1214.9 1862.49,-1200.06"/>
<polygon fill="black" stroke="black" points="1863.46,-1196.69 1852.94,-1197.97 1861.96,-1203.53 1863.46,-1196.69"/>
</g>
<!-- libignition&#45;msgs1&#45;&gt;libignition&#45;launch -->
<g id="edge33" class="edge">
<title>libignition&#45;msgs1&#45;&gt;libignition&#45;launch</title>
<path fill="none" stroke="black" d="M1934.03,-1390.94C1985.63,-1382.54 2046.42,-1368.59 2062.4,-1348 2072.21,-1335.36 2067.53,-1327.16 2062.4,-1312 2024.5,-1199.96 1883.64,-1150.11 1791.44,-1129.09"/>
<polygon fill="black" stroke="black" points="1792.45,-1125.73 1781.93,-1126.99 1790.94,-1132.56 1792.45,-1125.73"/>
</g>
<!-- libignition&#45;fuel&#45;tools -->
<g id="node31" class="node">
<title>libignition&#45;fuel&#45;tools</title>
<g id="a_node31"><a xlink:href="https://github.com/conda-forge/libignition-fuel-tools-feedstock" xlink:title="libignition fuel tools">
<ellipse fill="#fde725" stroke="black" cx="1925.4" cy="-1330" rx="111.71" ry="18"/>
<text text-anchor="middle" x="1925.4" y="-1325.33" font-family="Times,serif" font-size="14.00">libignition fuel tools</text>
</a>
</g>
</g>
<!-- libignition&#45;msgs1&#45;&gt;libignition&#45;fuel&#45;tools -->
<g id="edge34" class="edge">
<title>libignition&#45;msgs1&#45;&gt;libignition&#45;fuel&#45;tools</title>
<path fill="none" stroke="black" d="M1872.35,-1384.05C1880.65,-1375.75 1890.82,-1365.58 1900.02,-1356.38"/>
<polygon fill="black" stroke="black" points="1902.46,-1358.89 1907.06,-1349.35 1897.51,-1353.94 1902.46,-1358.89"/>
</g>
<!-- libignition&#45;fuel&#45;tools&#45;&gt;libignition&#45;gazebo -->
<g id="edge35" class="edge">
<title>libignition&#45;fuel&#45;tools&#45;&gt;libignition&#45;gazebo</title>
<path fill="none" stroke="black" d="M1926.28,-1311.52C1926.32,-1291.89 1923.42,-1260.16 1906.4,-1240 1892.14,-1223.1 1871.72,-1211.54 1851.15,-1203.66"/>
<polygon fill="black" stroke="black" points="1852.43,-1200.4 1841.83,-1200.36 1850.1,-1207 1852.43,-1200.4"/>
</g>
<!-- cartographer -->
<g id="node34" class="node">
<title>cartographer</title>
<g id="a_node34"><a xlink:href="https://github.com/conda-forge/cartographer-feedstock" xlink:title="cartographer">
<ellipse fill="#35b779" stroke="black" cx="462.4" cy="-206" rx="76.99" ry="18"/>
<text text-anchor="middle" x="462.4" y="-201.33" font-family="Times,serif" font-size="14.00">cartographer</text>
</a>
</g>
</g>
<!-- go&#45;cockroach&#45;&gt;cartographer -->
<!-- google&#45;cloud&#45;cpp -->
<g id="node33" class="node">
<title>google&#45;cloud&#45;cpp</title>
<g id="a_node33"><a xlink:href="https://github.com/conda-forge/google-cloud-cpp-feedstock" xlink:title="google cloud cpp">
<ellipse fill="#35b779" stroke="black" cx="95.4" cy="-1402" rx="95.4" ry="18"/>
<text text-anchor="middle" x="95.4" y="-1397.33" font-family="Times,serif" font-size="14.00">google cloud cpp</text>
</a>
</g>
</g>
<!-- google&#45;cloud&#45;cpp&#45;&gt;tiledb -->
<g id="edge37" class="edge">
<title>google&#45;cloud&#45;cpp&#45;&gt;tiledb</title>
<path fill="none" stroke="black" d="M95.4,-1383.7C95.4,-1376.41 95.4,-1367.73 95.4,-1359.54"/>
<polygon fill="black" stroke="black" points="98.9,-1359.62 95.4,-1349.62 91.9,-1359.62 98.9,-1359.62"/>
</g>
<!-- tomviz -->
<g id="node35" class="node">
<title>tomviz</title>
<g id="a_node35"><a xlink:href="https://github.com/conda-forge/tomviz-feedstock" xlink:title="tomviz">
<ellipse fill="#35b779" stroke="black" cx="462.4" cy="-134" rx="44.9" ry="18"/>
<text text-anchor="middle" x="462.4" y="-129.32" font-family="Times,serif" font-size="14.00">tomviz</text>
</a>
</g>
</g>
<!-- cartographer&#45;&gt;tomviz -->
<!-- s2geometry -->
<g id="node36" class="node">
<title>s2geometry</title>
<g id="a_node36"><a xlink:href="https://github.com/conda-forge/s2geometry-feedstock" xlink:title="s2geometry">
<ellipse fill="#35b779" stroke="black" cx="462.4" cy="-90" rx="70.68" ry="18"/>
<text text-anchor="middle" x="462.4" y="-85.33" font-family="Times,serif" font-size="14.00">s2geometry</text>
</a>
</g>
</g>
<!-- s2geography -->
<g id="node37" class="node">
<title>s2geography</title>
<g id="a_node37"><a xlink:href="https://github.com/conda-forge/s2geography-feedstock" xlink:title="s2geography">
<ellipse fill="#fde725" stroke="black" cx="462.4" cy="-18" rx="75.94" ry="18"/>
<text text-anchor="middle" x="462.4" y="-13.32" font-family="Times,serif" font-size="14.00">s2geography</text>
</a>
</g>
</g>
<!-- s2geometry&#45;&gt;s2geography -->
<g id="edge40" class="edge">
<title>s2geometry&#45;&gt;s2geography</title>
<path fill="none" stroke="black" d="M462.4,-71.7C462.4,-64.41 462.4,-55.73 462.4,-47.54"/>
<polygon fill="black" stroke="black" points="465.9,-47.62 462.4,-37.62 458.9,-47.62 465.9,-47.62"/>
</g>
<!-- protozfits -->
<g id="node38" class="node">
<title>protozfits</title>
<g id="a_node38"><a xlink:href="https://github.com/conda-forge/protozfits-feedstock" xlink:title="protozfits">
<ellipse fill="#35b779" stroke="black" cx="1179.4" cy="-1618" rx="59.1" ry="18"/>
<text text-anchor="middle" x="1179.4" y="-1613.33" font-family="Times,serif" font-size="14.00">protozfits</text>
</a>
</g>
</g>
<!-- or&#45;tools -->
<g id="node39" class="node">
<title>or&#45;tools</title>
<g id="a_node39"><a xlink:href="https://github.com/conda-forge/or-tools-feedstock" xlink:title="or tools">
<ellipse fill="#35b779" stroke="black" cx="1179.4" cy="-1546" rx="49.1" ry="18"/>
<text text-anchor="middle" x="1179.4" y="-1541.33" font-family="Times,serif" font-size="14.00">or tools</text>
</a>
</g>
</g>
<!-- protozfits&#45;&gt;or&#45;tools -->
<!-- bear -->
<g id="node40" class="node">
<title>bear</title>
<g id="a_node40"><a xlink:href="https://github.com/conda-forge/bear-feedstock" xlink:title="bear">
<ellipse fill="#35b779" stroke="black" cx="1179.4" cy="-1474" rx="33.85" ry="18"/>
<text text-anchor="middle" x="1179.4" y="-1469.33" font-family="Times,serif" font-size="14.00">bear</text>
</a>
</g>
</g>
<!-- or&#45;tools&#45;&gt;bear -->
<!-- cpp&#45;opentelemetry&#45;sdk -->
<g id="node41" class="node">
<title>cpp&#45;opentelemetry&#45;sdk</title>
<g id="a_node41"><a xlink:href="https://github.com/conda-forge/cpp-opentelemetry-sdk-feedstock" xlink:title="cpp opentelemetry sdk">
<ellipse fill="#35b779" stroke="black" cx="1179.4" cy="-1402" rx="125.92" ry="18"/>
<text text-anchor="middle" x="1179.4" y="-1397.33" font-family="Times,serif" font-size="14.00">cpp opentelemetry sdk</text>
</a>
</g>
</g>
<!-- bear&#45;&gt;cpp&#45;opentelemetry&#45;sdk -->
<!-- singlejar -->
<g id="node42" class="node">
<title>singlejar</title>
<g id="a_node42"><a xlink:href="https://github.com/conda-forge/singlejar-feedstock" xlink:title="singlejar">
<ellipse fill="#35b779" stroke="black" cx="1179.4" cy="-1330" rx="54.89" ry="18"/>
<text text-anchor="middle" x="1179.4" y="-1325.33" font-family="Times,serif" font-size="14.00">singlejar</text>
</a>
</g>
</g>
<!-- cpp&#45;opentelemetry&#45;sdk&#45;&gt;singlejar -->
<!-- xilinx&#45;runtime -->
<g id="node43" class="node">
<title>xilinx&#45;runtime</title>
<g id="a_node43"><a xlink:href="https://github.com/conda-forge/xilinx-runtime-feedstock" xlink:title="xilinx runtime">
<ellipse fill="#35b779" stroke="black" cx="1179.4" cy="-1258" rx="81.72" ry="18"/>
<text text-anchor="middle" x="1179.4" y="-1253.33" font-family="Times,serif" font-size="14.00">xilinx runtime</text>
</a>
</g>
</g>
<!-- singlejar&#45;&gt;xilinx&#45;runtime -->
<!-- libpulsar -->
<g id="node44" class="node">
<title>libpulsar</title>
<g id="a_node44"><a xlink:href="https://github.com/conda-forge/libpulsar-feedstock" xlink:title="libpulsar">
<ellipse fill="#35b779" stroke="black" cx="1179.4" cy="-1186" rx="55.42" ry="18"/>
<text text-anchor="middle" x="1179.4" y="-1181.33" font-family="Times,serif" font-size="14.00">libpulsar</text>
</a>
</g>
</g>
<!-- xilinx&#45;runtime&#45;&gt;libpulsar -->
<!-- gnss&#45;sdr -->
<g id="node53" class="node">
<title>gnss&#45;sdr</title>
<g id="a_node53"><a xlink:href="https://github.com/conda-forge/gnss-sdr-feedstock" xlink:title="gnss sdr">
<ellipse fill="#35b779" stroke="black" cx="1179.4" cy="-1114" rx="53.84" ry="18"/>
<text text-anchor="middle" x="1179.4" y="-1109.33" font-family="Times,serif" font-size="14.00">gnss sdr</text>
</a>
</g>
</g>
<!-- libpulsar&#45;&gt;gnss&#45;sdr -->
<!-- gz&#45;msgs -->
<g id="node45" class="node">
<title>gz&#45;msgs</title>
<g id="a_node45"><a xlink:href="https://github.com/conda-forge/gz-msgs-feedstock" xlink:title="gz msgs">
<ellipse fill="#35b779" stroke="black" cx="1140.4" cy="-638" rx="52.26" ry="18"/>
<text text-anchor="middle" x="1140.4" y="-633.33" font-family="Times,serif" font-size="14.00">gz msgs</text>
</a>
</g>
</g>
<!-- gz&#45;transport -->
<g id="node46" class="node">
<title>gz&#45;transport</title>
<g id="a_node46"><a xlink:href="https://github.com/conda-forge/gz-transport-feedstock" xlink:title="gz transport">
<ellipse fill="#fde725" stroke="black" cx="1090.4" cy="-566" rx="73.3" ry="18"/>
<text text-anchor="middle" x="1090.4" y="-561.33" font-family="Times,serif" font-size="14.00">gz transport</text>
</a>
</g>
</g>
<!-- gz&#45;msgs&#45;&gt;gz&#45;transport -->
<g id="edge47" class="edge">
<title>gz&#45;msgs&#45;&gt;gz&#45;transport</title>
<path fill="none" stroke="black" d="M1128.3,-620.05C1122.52,-611.97 1115.49,-602.12 1109.05,-593.11"/>
<polygon fill="black" stroke="black" points="1111.93,-591.12 1103.27,-585.02 1106.24,-595.19 1111.93,-591.12"/>
</g>
<!-- gz&#45;fuel&#45;tools -->
<g id="node47" class="node">
<title>gz&#45;fuel&#45;tools</title>
<g id="a_node47"><a xlink:href="https://github.com/conda-forge/gz-fuel-tools-feedstock" xlink:title="gz fuel tools">
<ellipse fill="#fde725" stroke="black" cx="1291.4" cy="-566" rx="72.25" ry="18"/>
<text text-anchor="middle" x="1291.4" y="-561.33" font-family="Times,serif" font-size="14.00">gz fuel tools</text>
</a>
</g>
</g>
<!-- gz&#45;msgs&#45;&gt;gz&#45;fuel&#45;tools -->
<g id="edge48" class="edge">
<title>gz&#45;msgs&#45;&gt;gz&#45;fuel&#45;tools</title>
<path fill="none" stroke="black" d="M1170.6,-623C1192.74,-612.74 1223.12,-598.65 1247.88,-587.17"/>
<polygon fill="black" stroke="black" points="1249.14,-590.45 1256.74,-583.07 1246.19,-584.1 1249.14,-590.45"/>
</g>
<!-- gz&#45;gui -->
<g id="node48" class="node">
<title>gz&#45;gui</title>
<g id="a_node48"><a xlink:href="https://github.com/conda-forge/gz-gui-feedstock" xlink:title="gz gui">
<ellipse fill="#fde725" stroke="black" cx="999.4" cy="-494" rx="41.74" ry="18"/>
<text text-anchor="middle" x="999.4" y="-489.32" font-family="Times,serif" font-size="14.00">gz gui</text>
</a>
</g>
</g>
<!-- gz&#45;msgs&#45;&gt;gz&#45;gui -->
<g id="edge49" class="edge">
<title>gz&#45;msgs&#45;&gt;gz&#45;gui</title>
<path fill="none" stroke="black" d="M1092.59,-630.38C1063.53,-623.73 1028.29,-610.45 1008.4,-584 995.55,-566.92 993.92,-542.47 995.15,-523.53"/>
<polygon fill="black" stroke="black" points="998.62,-524.08 996.11,-513.78 991.65,-523.39 998.62,-524.08"/>
</g>
<!-- gz&#45;sensors -->
<g id="node49" class="node">
<title>gz&#45;sensors</title>
<g id="a_node49"><a xlink:href="https://github.com/conda-forge/gz-sensors-feedstock" xlink:title="gz sensors">
<ellipse fill="#fde725" stroke="black" cx="1199.4" cy="-494" rx="64.36" ry="18"/>
<text text-anchor="middle" x="1199.4" y="-489.32" font-family="Times,serif" font-size="14.00">gz sensors</text>
</a>
</g>
</g>
<!-- gz&#45;msgs&#45;&gt;gz&#45;sensors -->
<g id="edge50" class="edge">
<title>gz&#45;msgs&#45;&gt;gz&#45;sensors</title>
<path fill="none" stroke="black" d="M1151.9,-620.4C1158.55,-610.23 1166.72,-596.77 1172.4,-584 1181.14,-564.37 1188.09,-541.1 1192.75,-523.28"/>
<polygon fill="black" stroke="black" points="1196.12,-524.2 1195.17,-513.65 1189.34,-522.5 1196.12,-524.2"/>
</g>
<!-- gz&#45;sim -->
<g id="node50" class="node">
<title>gz&#45;sim</title>
<g id="a_node50"><a xlink:href="https://github.com/conda-forge/gz-sim-feedstock" xlink:title="gz sim">
<ellipse fill="#fde725" stroke="black" cx="1170.4" cy="-422" rx="43.84" ry="18"/>
<text text-anchor="middle" x="1170.4" y="-417.32" font-family="Times,serif" font-size="14.00">gz sim</text>
</a>
</g>
</g>
<!-- gz&#45;msgs&#45;&gt;gz&#45;sim -->
<g id="edge51" class="edge">
<title>gz&#45;msgs&#45;&gt;gz&#45;sim</title>
<path fill="none" stroke="black" d="M1190.72,-632.71C1252,-626.32 1350.12,-611.94 1372.4,-584 1425.16,-517.83 1290.36,-461.72 1215.86,-436.8"/>
<polygon fill="black" stroke="black" points="1217.36,-433.61 1206.77,-433.83 1215.19,-440.27 1217.36,-433.61"/>
</g>
<!-- gz&#45;launch -->
<g id="node51" class="node">
<title>gz&#45;launch</title>
<g id="a_node51"><a xlink:href="https://github.com/conda-forge/gz-launch-feedstock" xlink:title="gz launch">
<ellipse fill="#fde725" stroke="black" cx="1050.4" cy="-350" rx="59.1" ry="18"/>
<text text-anchor="middle" x="1050.4" y="-345.32" font-family="Times,serif" font-size="14.00">gz launch</text>
</a>
</g>
</g>
<!-- gz&#45;msgs&#45;&gt;gz&#45;launch -->
<g id="edge52" class="edge">
<title>gz&#45;msgs&#45;&gt;gz&#45;launch</title>
<path fill="none" stroke="black" d="M1094.69,-628.99C1063.23,-621.61 1021.93,-608.03 992.4,-584 963.31,-560.33 958.56,-548.1 948.4,-512 932.99,-457.24 984.29,-403.41 1019.64,-373.97"/>
<polygon fill="black" stroke="black" points="1021.48,-376.98 1027.06,-367.97 1017.08,-371.54 1021.48,-376.98"/>
</g>
<!-- gz&#45;transport&#45;&gt;gz&#45;gui -->
<g id="edge53" class="edge">
<title>gz&#45;transport&#45;&gt;gz&#45;gui</title>
<path fill="none" stroke="black" d="M1068.84,-548.41C1056.74,-539.11 1041.49,-527.38 1028.36,-517.28"/>
<polygon fill="black" stroke="black" points="1030.52,-514.52 1020.46,-511.2 1026.25,-520.07 1030.52,-514.52"/>
</g>
<!-- gz&#45;transport&#45;&gt;gz&#45;sensors -->
<g id="edge54" class="edge">
<title>gz&#45;transport&#45;&gt;gz&#45;sensors</title>
<path fill="none" stroke="black" d="M1115.68,-548.76C1130.37,-539.33 1149.07,-527.32 1165.08,-517.04"/>
<polygon fill="black" stroke="black" points="1166.84,-520.07 1173.36,-511.72 1163.05,-514.18 1166.84,-520.07"/>
</g>
<!-- gz&#45;transport&#45;&gt;gz&#45;sim -->
<g id="edge55" class="edge">
<title>gz&#45;transport&#45;&gt;gz&#45;sim</title>
<path fill="none" stroke="black" d="M1095.58,-547.87C1101.55,-529.39 1112.38,-499.46 1126.4,-476 1132.32,-466.1 1140.03,-456.13 1147.33,-447.55"/>
<polygon fill="black" stroke="black" points="1149.73,-450.13 1153.71,-440.32 1144.47,-445.5 1149.73,-450.13"/>
</g>
<!-- gz&#45;transport&#45;&gt;gz&#45;launch -->
<g id="edge56" class="edge">
<title>gz&#45;transport&#45;&gt;gz&#45;launch</title>
<path fill="none" stroke="black" d="M1087.2,-547.85C1080.33,-511.14 1064.17,-424.66 1055.73,-379.53"/>
<polygon fill="black" stroke="black" points="1059.18,-378.91 1053.9,-369.72 1052.3,-380.19 1059.18,-378.91"/>
</g>
<!-- gz&#45;fuel&#45;tools&#45;&gt;gz&#45;sim -->
<g id="edge57" class="edge">
<title>gz&#45;fuel&#45;tools&#45;&gt;gz&#45;sim</title>
<path fill="none" stroke="black" d="M1291.91,-547.82C1291.6,-528.47 1288.39,-496.99 1272.4,-476 1258.46,-457.7 1236.39,-445.13 1216.34,-436.85"/>
<polygon fill="black" stroke="black" points="1217.79,-433.65 1207.2,-433.33 1215.27,-440.19 1217.79,-433.65"/>
</g>
<!-- gz&#45;gui&#45;&gt;gz&#45;sim -->
<g id="edge58" class="edge">
<title>gz&#45;gui&#45;&gt;gz&#45;sim</title>
<path fill="none" stroke="black" d="M1028.8,-480.97C1056.64,-469.57 1098.71,-452.35 1129.76,-439.64"/>
<polygon fill="black" stroke="black" points="1130.91,-442.95 1138.84,-435.92 1128.26,-436.47 1130.91,-442.95"/>
</g>
<!-- gz&#45;gui&#45;&gt;gz&#45;launch -->
<g id="edge59" class="edge">
<title>gz&#45;gui&#45;&gt;gz&#45;launch</title>
<path fill="none" stroke="black" d="M1005.55,-475.87C1014.21,-451.78 1030.07,-407.6 1040.43,-378.77"/>
<polygon fill="black" stroke="black" points="1043.63,-380.21 1043.72,-369.61 1037.04,-377.84 1043.63,-380.21"/>
</g>
<!-- gz&#45;sensors&#45;&gt;gz&#45;sim -->
<g id="edge60" class="edge">
<title>gz&#45;sensors&#45;&gt;gz&#45;sim</title>
<path fill="none" stroke="black" d="M1192.23,-475.7C1189.11,-468.15 1185.36,-459.12 1181.87,-450.68"/>
<polygon fill="black" stroke="black" points="1185.13,-449.4 1178.07,-441.5 1178.66,-452.08 1185.13,-449.4"/>
</g>
<!-- gz&#45;sim&#45;&gt;gz&#45;launch -->
<g id="edge61" class="edge">
<title>gz&#45;sim&#45;&gt;gz&#45;launch</title>
<path fill="none" stroke="black" d="M1145.83,-406.67C1128.86,-396.77 1105.99,-383.43 1086.9,-372.29"/>
<polygon fill="black" stroke="black" points="1088.73,-369.31 1078.33,-367.29 1085.21,-375.36 1088.73,-369.31"/>
</g>
<!-- labmaze -->
<g id="node52" class="node">
<title>labmaze</title>
<g id="a_node52"><a xlink:href="https://github.com/conda-forge/labmaze-feedstock/pull/10" xlink:title="labmaze ❎">
<ellipse fill="#31688e" stroke="black" cx="857.4" cy="-1258" rx="68.04" ry="18"/>
<text text-anchor="middle" x="857.4" y="-1253.33" font-family="Times,serif" font-size="14.00" fill="white">labmaze ❎</text>
</a>
</g>
</g>
<!-- labmaze&#45;&gt;ray&#45;packages -->
<g id="edge62" class="edge">
<title>labmaze&#45;&gt;ray&#45;packages</title>
<path fill="none" stroke="black" d="M853.55,-1239.86C848.1,-1219.64 836.16,-1186.45 813.4,-1168 779.29,-1140.35 732.47,-1126.94 691.98,-1120.51"/>
<polygon fill="black" stroke="black" points="692.64,-1117.07 682.24,-1119.09 691.63,-1124 692.64,-1117.07"/>
</g>
<!-- tensorstore -->
<g id="node54" class="node">
<title>tensorstore</title>
<g id="a_node54"><a xlink:href="https://github.com/conda-forge/tensorstore-feedstock" xlink:title="tensorstore">
<ellipse fill="#35b779" stroke="black" cx="1179.4" cy="-1042" rx="69.1" ry="18"/>
<text text-anchor="middle" x="1179.4" y="-1037.33" font-family="Times,serif" font-size="14.00">tensorstore</text>
</a>
</g>
</g>
<!-- gnss&#45;sdr&#45;&gt;tensorstore -->
<!-- gcld3 -->
<g id="node55" class="node">
<title>gcld3</title>
<g id="a_node55"><a xlink:href="https://github.com/conda-forge/gcld3-feedstock" xlink:title="gcld3">
<ellipse fill="#35b779" stroke="black" cx="1179.4" cy="-970" rx="38.58" ry="18"/>
<text text-anchor="middle" x="1179.4" y="-965.33" font-family="Times,serif" font-size="14.00">gcld3</text>
</a>
</g>
</g>
<!-- tensorstore&#45;&gt;gcld3 -->
<!-- bloaty -->
<g id="node56" class="node">
<title>bloaty</title>
<g id="a_node56"><a xlink:href="https://github.com/conda-forge/bloaty-feedstock" xlink:title="bloaty">
<ellipse fill="#35b779" stroke="black" cx="1179.4" cy="-898" rx="42.26" ry="18"/>
<text text-anchor="middle" x="1179.4" y="-893.33" font-family="Times,serif" font-size="14.00">bloaty</text>
</a>
</g>
</g>
<!-- gcld3&#45;&gt;bloaty -->
</g>
</svg>
