<?xml version="1.0" encoding="UTF-8" standalone="no"?>
<!DOCTYPE svg PUBLIC "-//W3C//DTD SVG 1.1//EN"
 "http://www.w3.org/Graphics/SVG/1.1/DTD/svg11.dtd">
<!-- Generated by graphviz version 9.0.0 (20231125.0833)
 -->
<!-- Pages: 1 -->
<svg width="1561pt" height="1212pt"
 viewBox="0.00 0.00 1560.73 1212.00" xmlns="http://www.w3.org/2000/svg" xmlns:xlink="http://www.w3.org/1999/xlink">
<g id="graph0" class="graph" transform="scale(1 1) rotate(0) translate(4 1208)">
<polygon fill="white" stroke="none" points="-4,4 -4,-1208 1556.73,-1208 1556.73,4 -4,4"/>
<!-- bazel -->
<g id="node1" class="node">
<title>bazel</title>
<g id="a_node1"><a xlink:href="https://github.com/conda-forge/bazel-feedstock/pull/221" xlink:title="bazel ❎">
<ellipse fill="#31688e" stroke="black" cx="702.41" cy="-1186" rx="52.79" ry="18"/>
<text text-anchor="middle" x="702.41" y="-1181.33" font-family="Times,serif" font-size="14.00" fill="white">bazel ❎</text>
</a>
</g>
</g>
<!-- mosh -->
<g id="node2" class="node">
<title>mosh</title>
<g id="a_node2"><a xlink:href="https://github.com/conda-forge/mosh-feedstock" xlink:title="mosh">
<ellipse fill="#35b779" stroke="black" cx="702.41" cy="-1114" rx="38.06" ry="18"/>
<text text-anchor="middle" x="702.41" y="-1109.33" font-family="Times,serif" font-size="14.00">mosh</text>
</a>
</g>
</g>
<!-- bazel&#45;&gt;mosh -->
<!-- paraview -->
<g id="node3" class="node">
<title>paraview</title>
<g id="a_node3"><a xlink:href="https://github.com/conda-forge/paraview-feedstock" xlink:title="paraview">
<ellipse fill="#35b779" stroke="black" cx="702.41" cy="-1042" rx="57" ry="18"/>
<text text-anchor="middle" x="702.41" y="-1037.33" font-family="Times,serif" font-size="14.00">paraview</text>
</a>
</g>
</g>
<!-- mosh&#45;&gt;paraview -->
<!-- tensorflow -->
<g id="node4" class="node">
<title>tensorflow</title>
<g id="a_node4"><a xlink:href="https://github.com/conda-forge/tensorflow-feedstock" xlink:title="tensorflow">
<ellipse fill="#ff8c00" stroke="black" cx="702.41" cy="-970" rx="63.84" ry="18"/>
<text text-anchor="middle" x="702.41" y="-965.33" font-family="Times,serif" font-size="14.00">tensorflow</text>
</a>
</g>
</g>
<!-- paraview&#45;&gt;tensorflow -->
<!-- r&#45;protolite -->
<g id="node10" class="node">
<title>r&#45;protolite</title>
<g id="a_node10"><a xlink:href="https://github.com/conda-forge/r-protolite-feedstock" xlink:title="r protolite">
<ellipse fill="#35b779" stroke="black" cx="702.41" cy="-898" rx="62.26" ry="18"/>
<text text-anchor="middle" x="702.41" y="-893.33" font-family="Times,serif" font-size="14.00">r protolite</text>
</a>
</g>
</g>
<!-- tensorflow&#45;&gt;r&#45;protolite -->
<!-- qgis -->
<g id="node5" class="node">
<title>qgis</title>
<g id="a_node5"><a xlink:href="https://github.com/conda-forge/qgis-feedstock" xlink:title="qgis">
<ellipse fill="#fde725" stroke="black" cx="1172.41" cy="-314" rx="32.27" ry="18"/>
<text text-anchor="middle" x="1172.41" y="-309.32" font-family="Times,serif" font-size="14.00">qgis</text>
</a>
</g>
</g>
<!-- tiledb -->
<g id="node6" class="node">
<title>tiledb</title>
<g id="a_node6"><a xlink:href="https://github.com/conda-forge/tiledb-feedstock" xlink:title="tiledb">
<ellipse fill="#35b779" stroke="black" cx="1202.41" cy="-386" rx="40.16" ry="18"/>
<text text-anchor="middle" x="1202.41" y="-381.32" font-family="Times,serif" font-size="14.00">tiledb</text>
</a>
</g>
</g>
<!-- tiledb&#45;&gt;qgis -->
<g id="edge4" class="edge">
<title>tiledb&#45;&gt;qgis</title>
<path fill="none" stroke="black" d="M1195.15,-368.05C1191.83,-360.32 1187.82,-350.96 1184.09,-342.27"/>
<polygon fill="black" stroke="black" points="1187.36,-340.99 1180.2,-333.18 1180.92,-343.75 1187.36,-340.99"/>
</g>
<!-- gazebo -->
<g id="node7" class="node">
<title>gazebo</title>
<g id="a_node7"><a xlink:href="https://github.com/conda-forge/gazebo-feedstock" xlink:title="gazebo">
<ellipse fill="#fde725" stroke="black" cx="1232.41" cy="-242" rx="46.47" ry="18"/>
<text text-anchor="middle" x="1232.41" y="-237.32" font-family="Times,serif" font-size="14.00">gazebo</text>
</a>
</g>
</g>
<!-- tiledb&#45;&gt;gazebo -->
<g id="edge5" class="edge">
<title>tiledb&#45;&gt;gazebo</title>
<path fill="none" stroke="black" d="M1206.09,-367.59C1211.18,-343.5 1220.42,-299.75 1226.49,-271.03"/>
<polygon fill="black" stroke="black" points="1229.84,-272.1 1228.48,-261.59 1222.99,-270.65 1229.84,-272.1"/>
</g>
<!-- gazebo&#45;yarp&#45;plugins -->
<g id="node8" class="node">
<title>gazebo&#45;yarp&#45;plugins</title>
<g id="a_node8"><a xlink:href="https://github.com/conda-forge/gazebo-yarp-plugins-feedstock" xlink:title="gazebo yarp plugins">
<ellipse fill="#fde725" stroke="black" cx="1232.41" cy="-170" rx="112.24" ry="18"/>
<text text-anchor="middle" x="1232.41" y="-165.32" font-family="Times,serif" font-size="14.00">gazebo yarp plugins</text>
</a>
</g>
</g>
<!-- gazebo&#45;&gt;gazebo&#45;yarp&#45;plugins -->
<g id="edge6" class="edge">
<title>gazebo&#45;&gt;gazebo&#45;yarp&#45;plugins</title>
<path fill="none" stroke="black" d="M1232.41,-223.7C1232.41,-216.41 1232.41,-207.73 1232.41,-199.54"/>
<polygon fill="black" stroke="black" points="1235.91,-199.62 1232.41,-189.62 1228.91,-199.62 1235.91,-199.62"/>
</g>
<!-- pyaudi -->
<g id="node9" class="node">
<title>pyaudi</title>
<g id="a_node9"><a xlink:href="https://github.com/conda-forge/pyaudi-feedstock" xlink:title="pyaudi">
<ellipse fill="#fde725" stroke="black" cx="702.41" cy="-18" rx="44.9" ry="18"/>
<text text-anchor="middle" x="702.41" y="-13.32" font-family="Times,serif" font-size="14.00">pyaudi</text>
</a>
</g>
</g>
<!-- mongodb -->
<g id="node11" class="node">
<title>mongodb</title>
<g id="a_node11"><a xlink:href="https://github.com/conda-forge/mongodb-feedstock/pull/84" xlink:title="mongodb ❎">
<ellipse fill="#31688e" stroke="black" cx="702.41" cy="-826" rx="72.78" ry="18"/>
<text text-anchor="middle" x="702.41" y="-821.33" font-family="Times,serif" font-size="14.00" fill="white">mongodb ❎</text>
</a>
</g>
</g>
<!-- r&#45;protolite&#45;&gt;mongodb -->
<!-- zaber&#45;motion -->
<g id="node14" class="node">
<title>zaber&#45;motion</title>
<g id="a_node14"><a xlink:href="https://github.com/conda-forge/zaber-motion-feedstock" xlink:title="zaber motion">
<ellipse fill="#35b779" stroke="black" cx="702.41" cy="-754" rx="76.99" ry="18"/>
<text text-anchor="middle" x="702.41" y="-749.33" font-family="Times,serif" font-size="14.00">zaber motion</text>
</a>
</g>
</g>
<!-- mongodb&#45;&gt;zaber&#45;motion -->
<!-- pytorch&#45;cpu -->
<g id="node12" class="node">
<title>pytorch&#45;cpu</title>
<g id="a_node12"><a xlink:href="https://github.com/conda-forge/pytorch-cpu-feedstock/pull/221" xlink:title="pytorch cpu ❎">
<ellipse fill="#31688e" stroke="black" cx="586.41" cy="-278" rx="85.93" ry="18"/>
<text text-anchor="middle" x="586.41" y="-273.32" font-family="Times,serif" font-size="14.00" fill="white">pytorch cpu ❎</text>
</a>
</g>
</g>
<!-- ray&#45;packages -->
<g id="node13" class="node">
<title>ray&#45;packages</title>
<g id="a_node13"><a xlink:href="https://github.com/conda-forge/ray-packages-feedstock" xlink:title="ray packages">
<ellipse fill="#fde725" stroke="black" cx="737.41" cy="-206" rx="76.99" ry="18"/>
<text text-anchor="middle" x="737.41" y="-201.32" font-family="Times,serif" font-size="14.00">ray packages</text>
</a>
</g>
</g>
<!-- pytorch&#45;cpu&#45;&gt;ray&#45;packages -->
<g id="edge9" class="edge">
<title>pytorch&#45;cpu&#45;&gt;ray&#45;packages</title>
<path fill="none" stroke="black" d="M620.67,-261.12C642.25,-251.11 670.32,-238.1 693.52,-227.34"/>
<polygon fill="black" stroke="black" points="694.83,-230.6 702.43,-223.22 691.88,-224.25 694.83,-230.6"/>
</g>
<!-- google&#45;cloud&#45;cpp -->
<g id="node25" class="node">
<title>google&#45;cloud&#45;cpp</title>
<g id="a_node25"><a xlink:href="https://github.com/conda-forge/google-cloud-cpp-feedstock/pull/170" xlink:title="google cloud cpp ❎">
<ellipse fill="#31688e" stroke="black" cx="702.41" cy="-682" rx="110.66" ry="18"/>
<text text-anchor="middle" x="702.41" y="-677.33" font-family="Times,serif" font-size="14.00" fill="white">google cloud cpp ❎</text>
</a>
</g>
</g>
<!-- zaber&#45;motion&#45;&gt;google&#45;cloud&#45;cpp -->
<!-- jaxlib -->
<g id="node15" class="node">
<title>jaxlib</title>
<g id="a_node15"><a xlink:href="https://github.com/conda-forge/jaxlib-feedstock" xlink:title="jaxlib">
<ellipse fill="#ff8c00" stroke="black" cx="712.41" cy="-350" rx="38.58" ry="18"/>
<text text-anchor="middle" x="712.41" y="-345.32" font-family="Times,serif" font-size="14.00">jaxlib</text>
</a>
</g>
</g>
<!-- mujoco -->
<g id="node16" class="node">
<title>mujoco</title>
<g id="a_node16"><a xlink:href="https://github.com/conda-forge/mujoco-feedstock" xlink:title="mujoco">
<ellipse fill="#fde725" stroke="black" cx="737.41" cy="-278" rx="47" ry="18"/>
<text text-anchor="middle" x="737.41" y="-273.32" font-family="Times,serif" font-size="14.00">mujoco</text>
</a>
</g>
</g>
<!-- jaxlib&#45;&gt;mujoco -->
<g id="edge11" class="edge">
<title>jaxlib&#45;&gt;mujoco</title>
<path fill="none" stroke="black" d="M718.46,-332.05C721.15,-324.52 724.4,-315.44 727.43,-306.94"/>
<polygon fill="black" stroke="black" points="730.66,-308.3 730.73,-297.7 724.07,-305.94 730.66,-308.3"/>
</g>
<!-- mujoco&#45;&gt;ray&#45;packages -->
<g id="edge12" class="edge">
<title>mujoco&#45;&gt;ray&#45;packages</title>
<path fill="none" stroke="black" d="M737.41,-259.7C737.41,-252.41 737.41,-243.73 737.41,-235.54"/>
<polygon fill="black" stroke="black" points="740.91,-235.62 737.41,-225.62 733.91,-235.62 740.91,-235.62"/>
</g>
<!-- obake -->
<g id="node17" class="node">
<title>obake</title>
<g id="a_node17"><a xlink:href="https://github.com/conda-forge/obake-feedstock" xlink:title="obake">
<ellipse fill="#35b779" stroke="black" cx="702.41" cy="-90" rx="40.69" ry="18"/>
<text text-anchor="middle" x="702.41" y="-85.33" font-family="Times,serif" font-size="14.00">obake</text>
</a>
</g>
</g>
<!-- obake&#45;&gt;pyaudi -->
<g id="edge13" class="edge">
<title>obake&#45;&gt;pyaudi</title>
<path fill="none" stroke="black" d="M702.41,-71.7C702.41,-64.41 702.41,-55.73 702.41,-47.54"/>
<polygon fill="black" stroke="black" points="705.91,-47.62 702.41,-37.62 698.91,-47.62 705.91,-47.62"/>
</g>
<!-- libignition&#45;transport4 -->
<g id="node18" class="node">
<title>libignition&#45;transport4</title>
<g id="a_node18"><a xlink:href="https://github.com/conda-forge/libignition-transport4-feedstock" xlink:title="libignition transport4">
<ellipse fill="#fde725" stroke="black" cx="1118.41" cy="-898" rx="119.08" ry="18"/>
<text text-anchor="middle" x="1118.41" y="-893.33" font-family="Times,serif" font-size="14.00">libignition transport4</text>
</a>
</g>
</g>
<!-- libignition&#45;sensors -->
<g id="node19" class="node">
<title>libignition&#45;sensors</title>
<g id="a_node19"><a xlink:href="https://github.com/conda-forge/libignition-sensors-feedstock" xlink:title="libignition sensors">
<ellipse fill="#fde725" stroke="black" cx="1273.41" cy="-826" rx="103.82" ry="18"/>
<text text-anchor="middle" x="1273.41" y="-821.33" font-family="Times,serif" font-size="14.00">libignition sensors</text>
</a>
</g>
</g>
<!-- libignition&#45;transport4&#45;&gt;libignition&#45;sensors -->
<g id="edge14" class="edge">
<title>libignition&#45;transport4&#45;&gt;libignition&#45;sensors</title>
<path fill="none" stroke="black" d="M1155.14,-880.41C1176.65,-870.7 1204,-858.34 1226.99,-847.96"/>
<polygon fill="black" stroke="black" points="1228.15,-851.28 1235.83,-843.97 1225.27,-844.9 1228.15,-851.28"/>
</g>
<!-- libignition&#45;gui -->
<g id="node20" class="node">
<title>libignition&#45;gui</title>
<g id="a_node20"><a xlink:href="https://github.com/conda-forge/libignition-gui-feedstock" xlink:title="libignition gui">
<ellipse fill="#fde725" stroke="black" cx="994.41" cy="-826" rx="81.2" ry="18"/>
<text text-anchor="middle" x="994.41" y="-821.33" font-family="Times,serif" font-size="14.00">libignition gui</text>
</a>
</g>
</g>
<!-- libignition&#45;transport4&#45;&gt;libignition&#45;gui -->
<g id="edge15" class="edge">
<title>libignition&#45;transport4&#45;&gt;libignition&#45;gui</title>
<path fill="none" stroke="black" d="M1088.71,-880.23C1071.98,-870.79 1050.9,-858.89 1032.91,-848.74"/>
<polygon fill="black" stroke="black" points="1034.76,-845.76 1024.33,-843.89 1031.32,-851.86 1034.76,-845.76"/>
</g>
<!-- libignition&#45;gazebo -->
<g id="node21" class="node">
<title>libignition&#45;gazebo</title>
<g id="a_node21"><a xlink:href="https://github.com/conda-forge/libignition-gazebo-feedstock" xlink:title="libignition gazebo">
<ellipse fill="#fde725" stroke="black" cx="1253.41" cy="-754" rx="100.66" ry="18"/>
<text text-anchor="middle" x="1253.41" y="-749.33" font-family="Times,serif" font-size="14.00">libignition gazebo</text>
</a>
</g>
</g>
<!-- libignition&#45;transport4&#45;&gt;libignition&#45;gazebo -->
<g id="edge16" class="edge">
<title>libignition&#45;transport4&#45;&gt;libignition&#45;gazebo</title>
<path fill="none" stroke="black" d="M1123.08,-879.8C1129.06,-860.43 1141.02,-828.94 1160.41,-808 1172.53,-794.91 1188.63,-784.19 1204.03,-775.89"/>
<polygon fill="black" stroke="black" points="1205.34,-779.16 1212.65,-771.49 1202.15,-772.92 1205.34,-779.16"/>
</g>
<!-- libignition&#45;launch -->
<g id="node22" class="node">
<title>libignition&#45;launch</title>
<g id="a_node22"><a xlink:href="https://github.com/conda-forge/libignition-launch-feedstock" xlink:title="libignition launch">
<ellipse fill="#fde725" stroke="black" cx="1188.41" cy="-682" rx="98.56" ry="18"/>
<text text-anchor="middle" x="1188.41" y="-677.33" font-family="Times,serif" font-size="14.00">libignition launch</text>
</a>
</g>
</g>
<!-- libignition&#45;transport4&#45;&gt;libignition&#45;launch -->
<g id="edge17" class="edge">
<title>libignition&#45;transport4&#45;&gt;libignition&#45;launch</title>
<path fill="none" stroke="black" d="M1118.08,-879.68C1118.14,-849.2 1121.17,-784.62 1143.41,-736 1147.98,-726 1154.99,-716.41 1162.13,-708.2"/>
<polygon fill="black" stroke="black" points="1164.58,-710.72 1168.79,-701 1159.44,-705.97 1164.58,-710.72"/>
</g>
<!-- libignition&#45;sensors&#45;&gt;libignition&#45;gazebo -->
<g id="edge18" class="edge">
<title>libignition&#45;sensors&#45;&gt;libignition&#45;gazebo</title>
<path fill="none" stroke="black" d="M1268.46,-807.7C1266.33,-800.24 1263.79,-791.32 1261.4,-782.97"/>
<polygon fill="black" stroke="black" points="1264.82,-782.21 1258.71,-773.56 1258.09,-784.14 1264.82,-782.21"/>
</g>
<!-- libignition&#45;gui&#45;&gt;libignition&#45;gazebo -->
<g id="edge19" class="edge">
<title>libignition&#45;gui&#45;&gt;libignition&#45;gazebo</title>
<path fill="none" stroke="black" d="M1044.65,-811.42C1085.61,-800.35 1143.75,-784.64 1188.27,-772.6"/>
<polygon fill="black" stroke="black" points="1189.08,-776.01 1197.82,-770.02 1187.25,-769.25 1189.08,-776.01"/>
</g>
<!-- libignition&#45;gui&#45;&gt;libignition&#45;launch -->
<g id="edge20" class="edge">
<title>libignition&#45;gui&#45;&gt;libignition&#45;launch</title>
<path fill="none" stroke="black" d="M1009.75,-808.18C1027.66,-789.17 1058.74,-758 1089.41,-736 1106.09,-724.03 1125.81,-712.94 1143.24,-704.03"/>
<polygon fill="black" stroke="black" points="1144.46,-707.33 1151.84,-699.72 1141.33,-701.07 1144.46,-707.33"/>
</g>
<!-- libignition&#45;gazebo&#45;&gt;libignition&#45;launch -->
<g id="edge21" class="edge">
<title>libignition&#45;gazebo&#45;&gt;libignition&#45;launch</title>
<path fill="none" stroke="black" d="M1237.67,-736.05C1229.85,-727.63 1220.24,-717.28 1211.59,-707.97"/>
<polygon fill="black" stroke="black" points="1214.4,-705.84 1205.03,-700.9 1209.27,-710.61 1214.4,-705.84"/>
</g>
<!-- libignition&#45;msgs1 -->
<g id="node23" class="node">
<title>libignition&#45;msgs1</title>
<g id="a_node23"><a xlink:href="https://github.com/conda-forge/libignition-msgs1-feedstock/pull/103" xlink:title="libignition msgs1 ✓">
<ellipse fill="#31688e" stroke="black" cx="1335.41" cy="-970" rx="105.92" ry="18"/>
<text text-anchor="middle" x="1335.41" y="-965.33" font-family="Times,serif" font-size="14.00" fill="white">libignition msgs1 ✓</text>
</a>
</g>
</g>
<!-- libignition&#45;msgs1&#45;&gt;libignition&#45;transport4 -->
<g id="edge22" class="edge">
<title>libignition&#45;msgs1&#45;&gt;libignition&#45;transport4</title>
<path fill="none" stroke="black" d="M1287.52,-953.55C1255.31,-943.16 1212.6,-929.39 1178.17,-918.28"/>
<polygon fill="black" stroke="black" points="1179.34,-914.98 1168.74,-915.24 1177.19,-921.64 1179.34,-914.98"/>
</g>
<!-- libignition&#45;msgs1&#45;&gt;libignition&#45;sensors -->
<g id="edge23" class="edge">
<title>libignition&#45;msgs1&#45;&gt;libignition&#45;sensors</title>
<path fill="none" stroke="black" d="M1313.36,-951.97C1302.81,-942.55 1291.05,-929.95 1284.41,-916 1275.44,-897.18 1272.85,-873.7 1272.41,-855.59"/>
<polygon fill="black" stroke="black" points="1275.91,-855.8 1272.4,-845.8 1268.91,-855.81 1275.91,-855.8"/>
</g>
<!-- libignition&#45;msgs1&#45;&gt;libignition&#45;gui -->
<g id="edge24" class="edge">
<title>libignition&#45;msgs1&#45;&gt;libignition&#45;gui</title>
<path fill="none" stroke="black" d="M1230.09,-967.37C1140.24,-963.47 1020.89,-951.53 990.41,-916 976.33,-899.59 978.82,-874.57 983.98,-855.23"/>
<polygon fill="black" stroke="black" points="987.29,-856.36 986.87,-845.78 980.6,-854.31 987.29,-856.36"/>
</g>
<!-- libignition&#45;msgs1&#45;&gt;libignition&#45;gazebo -->
<g id="edge25" class="edge">
<title>libignition&#45;msgs1&#45;&gt;libignition&#45;gazebo</title>
<path fill="none" stroke="black" d="M1424.12,-959.84C1485.84,-949.28 1552.73,-926.89 1526.41,-880 1489.51,-814.25 1407.16,-782.9 1342.5,-768.06"/>
<polygon fill="black" stroke="black" points="1343.46,-764.69 1332.95,-765.97 1341.97,-771.53 1343.46,-764.69"/>
</g>
<!-- libignition&#45;msgs1&#45;&gt;libignition&#45;launch -->
<g id="edge26" class="edge">
<title>libignition&#45;msgs1&#45;&gt;libignition&#45;launch</title>
<path fill="none" stroke="black" d="M1417.63,-958.35C1468.43,-949.89 1526.8,-936.11 1542.41,-916 1552.22,-903.36 1547.54,-895.16 1542.41,-880 1504.51,-767.96 1363.65,-718.11 1271.45,-697.09"/>
<polygon fill="black" stroke="black" points="1272.45,-693.73 1261.93,-694.99 1270.95,-700.56 1272.45,-693.73"/>
</g>
<!-- libignition&#45;fuel&#45;tools -->
<g id="node24" class="node">
<title>libignition&#45;fuel&#45;tools</title>
<g id="a_node24"><a xlink:href="https://github.com/conda-forge/libignition-fuel-tools-feedstock" xlink:title="libignition fuel tools">
<ellipse fill="#fde725" stroke="black" cx="1405.41" cy="-898" rx="111.71" ry="18"/>
<text text-anchor="middle" x="1405.41" y="-893.33" font-family="Times,serif" font-size="14.00">libignition fuel tools</text>
</a>
</g>
</g>
<!-- libignition&#45;msgs1&#45;&gt;libignition&#45;fuel&#45;tools -->
<g id="edge27" class="edge">
<title>libignition&#45;msgs1&#45;&gt;libignition&#45;fuel&#45;tools</title>
<path fill="none" stroke="black" d="M1352.35,-952.05C1360.66,-943.75 1370.82,-933.58 1380.03,-924.38"/>
<polygon fill="black" stroke="black" points="1382.47,-926.89 1387.06,-917.35 1377.52,-921.94 1382.47,-926.89"/>
</g>
<!-- libignition&#45;fuel&#45;tools&#45;&gt;libignition&#45;gazebo -->
<g id="edge28" class="edge">
<title>libignition&#45;fuel&#45;tools&#45;&gt;libignition&#45;gazebo</title>
<path fill="none" stroke="black" d="M1406.29,-879.52C1406.33,-859.89 1403.43,-828.16 1386.41,-808 1372.14,-791.1 1351.72,-779.54 1331.15,-771.66"/>
<polygon fill="black" stroke="black" points="1332.44,-768.4 1321.84,-768.36 1330.1,-775 1332.44,-768.4"/>
</g>
<!-- go&#45;cockroach -->
<g id="node26" class="node">
<title>go&#45;cockroach</title>
<g id="a_node26"><a xlink:href="https://github.com/conda-forge/go-cockroach-feedstock" xlink:title="go cockroach">
<ellipse fill="#35b779" stroke="black" cx="702.41" cy="-610" rx="76.46" ry="18"/>
<text text-anchor="middle" x="702.41" y="-605.33" font-family="Times,serif" font-size="14.00">go cockroach</text>
</a>
</g>
</g>
<!-- google&#45;cloud&#45;cpp&#45;&gt;go&#45;cockroach -->
<!-- cartographer -->
<g id="node27" class="node">
<title>cartographer</title>
<g id="a_node27"><a xlink:href="https://github.com/conda-forge/cartographer-feedstock" xlink:title="cartographer">
<ellipse fill="#35b779" stroke="black" cx="702.41" cy="-538" rx="76.99" ry="18"/>
<text text-anchor="middle" x="702.41" y="-533.33" font-family="Times,serif" font-size="14.00">cartographer</text>
</a>
</g>
</g>
<!-- go&#45;cockroach&#45;&gt;cartographer -->
<!-- tomviz -->
<g id="node28" class="node">
<title>tomviz</title>
<g id="a_node28"><a xlink:href="https://github.com/conda-forge/tomviz-feedstock" xlink:title="tomviz">
<ellipse fill="#35b779" stroke="black" cx="702.41" cy="-466" rx="44.9" ry="18"/>
<text text-anchor="middle" x="702.41" y="-461.32" font-family="Times,serif" font-size="14.00">tomviz</text>
</a>
</g>
</g>
<!-- cartographer&#45;&gt;tomviz -->
<!-- s2geometry -->
<g id="node29" class="node">
<title>s2geometry</title>
<g id="a_node29"><a xlink:href="https://github.com/conda-forge/s2geometry-feedstock" xlink:title="s2geometry">
<ellipse fill="#35b779" stroke="black" cx="246.41" cy="-90" rx="70.68" ry="18"/>
<text text-anchor="middle" x="246.41" y="-85.33" font-family="Times,serif" font-size="14.00">s2geometry</text>
</a>
</g>
</g>
<!-- s2geography -->
<g id="node30" class="node">
<title>s2geography</title>
<g id="a_node30"><a xlink:href="https://github.com/conda-forge/s2geography-feedstock" xlink:title="s2geography">
<ellipse fill="#fde725" stroke="black" cx="246.41" cy="-18" rx="75.94" ry="18"/>
<text text-anchor="middle" x="246.41" y="-13.32" font-family="Times,serif" font-size="14.00">s2geography</text>
</a>
</g>
</g>
<!-- s2geometry&#45;&gt;s2geography -->
<g id="edge33" class="edge">
<title>s2geometry&#45;&gt;s2geography</title>
<path fill="none" stroke="black" d="M246.41,-71.7C246.41,-64.41 246.41,-55.73 246.41,-47.54"/>
<polygon fill="black" stroke="black" points="249.91,-47.62 246.41,-37.62 242.91,-47.62 249.91,-47.62"/>
</g>
<!-- protozfits -->
<g id="node31" class="node">
<title>protozfits</title>
<g id="a_node31"><a xlink:href="https://github.com/conda-forge/protozfits-feedstock" xlink:title="protozfits">
<ellipse fill="#35b779" stroke="black" cx="246.41" cy="-1186" rx="59.1" ry="18"/>
<text text-anchor="middle" x="246.41" y="-1181.33" font-family="Times,serif" font-size="14.00">protozfits</text>
</a>
</g>
</g>
<!-- imp -->
<g id="node32" class="node">
<title>imp</title>
<g id="a_node32"><a xlink:href="https://github.com/conda-forge/imp-feedstock" xlink:title="imp">
<ellipse fill="#35b779" stroke="black" cx="246.41" cy="-1114" rx="30.16" ry="18"/>
<text text-anchor="middle" x="246.41" y="-1109.33" font-family="Times,serif" font-size="14.00">imp</text>
</a>
</g>
</g>
<!-- protozfits&#45;&gt;imp -->
<!-- or&#45;tools -->
<g id="node33" class="node">
<title>or&#45;tools</title>
<g id="a_node33"><a xlink:href="https://github.com/conda-forge/or-tools-feedstock" xlink:title="or tools">
<ellipse fill="#35b779" stroke="black" cx="246.41" cy="-1042" rx="49.1" ry="18"/>
<text text-anchor="middle" x="246.41" y="-1037.33" font-family="Times,serif" font-size="14.00">or tools</text>
</a>
</g>
</g>
<!-- imp&#45;&gt;or&#45;tools -->
<!-- bear -->
<g id="node34" class="node">
<title>bear</title>
<g id="a_node34"><a xlink:href="https://github.com/conda-forge/bear-feedstock" xlink:title="bear">
<ellipse fill="#35b779" stroke="black" cx="246.41" cy="-970" rx="33.85" ry="18"/>
<text text-anchor="middle" x="246.41" y="-965.33" font-family="Times,serif" font-size="14.00">bear</text>
</a>
</g>
</g>
<!-- or&#45;tools&#45;&gt;bear -->
<!-- cpp&#45;opentelemetry&#45;sdk -->
<g id="node35" class="node">
<title>cpp&#45;opentelemetry&#45;sdk</title>
<g id="a_node35"><a xlink:href="https://github.com/conda-forge/cpp-opentelemetry-sdk-feedstock" xlink:title="cpp opentelemetry sdk">
<ellipse fill="#35b779" stroke="black" cx="246.41" cy="-898" rx="125.92" ry="18"/>
<text text-anchor="middle" x="246.41" y="-893.33" font-family="Times,serif" font-size="14.00">cpp opentelemetry sdk</text>
</a>
</g>
</g>
<!-- bear&#45;&gt;cpp&#45;opentelemetry&#45;sdk -->
<!-- singlejar -->
<g id="node36" class="node">
<title>singlejar</title>
<g id="a_node36"><a xlink:href="https://github.com/conda-forge/singlejar-feedstock" xlink:title="singlejar">
<ellipse fill="#35b779" stroke="black" cx="246.41" cy="-826" rx="54.89" ry="18"/>
<text text-anchor="middle" x="246.41" y="-821.33" font-family="Times,serif" font-size="14.00">singlejar</text>
</a>
</g>
</g>
<!-- cpp&#45;opentelemetry&#45;sdk&#45;&gt;singlejar -->
<!-- xilinx&#45;runtime -->
<g id="node37" class="node">
<title>xilinx&#45;runtime</title>
<g id="a_node37"><a xlink:href="https://github.com/conda-forge/xilinx-runtime-feedstock" xlink:title="xilinx runtime">
<ellipse fill="#35b779" stroke="black" cx="246.41" cy="-754" rx="81.72" ry="18"/>
<text text-anchor="middle" x="246.41" y="-749.33" font-family="Times,serif" font-size="14.00">xilinx runtime</text>
</a>
</g>
</g>
<!-- singlejar&#45;&gt;xilinx&#45;runtime -->
<!-- arcticdb -->
<g id="node38" class="node">
<title>arcticdb</title>
<g id="a_node38"><a xlink:href="https://github.com/conda-forge/arcticdb-feedstock" xlink:title="arcticdb">
<ellipse fill="#35b779" stroke="black" cx="246.41" cy="-682" rx="52.26" ry="18"/>
<text text-anchor="middle" x="246.41" y="-677.33" font-family="Times,serif" font-size="14.00">arcticdb</text>
</a>
</g>
</g>
<!-- xilinx&#45;runtime&#45;&gt;arcticdb -->
<!-- libpulsar -->
<g id="node47" class="node">
<title>libpulsar</title>
<g id="a_node47"><a xlink:href="https://github.com/conda-forge/libpulsar-feedstock" xlink:title="libpulsar">
<ellipse fill="#35b779" stroke="black" cx="246.41" cy="-610" rx="55.42" ry="18"/>
<text text-anchor="middle" x="246.41" y="-605.33" font-family="Times,serif" font-size="14.00">libpulsar</text>
</a>
</g>
</g>
<!-- arcticdb&#45;&gt;libpulsar -->
<!-- gz&#45;msgs -->
<g id="node39" class="node">
<title>gz&#45;msgs</title>
<g id="a_node39"><a xlink:href="https://github.com/conda-forge/gz-msgs-feedstock/pull/27" xlink:title="gz msgs ❎">
<ellipse fill="#31688e" stroke="black" cx="207.41" cy="-422" rx="67.52" ry="18"/>
<text text-anchor="middle" x="207.41" y="-417.32" font-family="Times,serif" font-size="14.00" fill="white">gz msgs ❎</text>
</a>
</g>
</g>
<!-- gz&#45;transport -->
<g id="node40" class="node">
<title>gz&#45;transport</title>
<g id="a_node40"><a xlink:href="https://github.com/conda-forge/gz-transport-feedstock" xlink:title="gz transport">
<ellipse fill="#fde725" stroke="black" cx="157.41" cy="-350" rx="73.3" ry="18"/>
<text text-anchor="middle" x="157.41" y="-345.32" font-family="Times,serif" font-size="14.00">gz transport</text>
</a>
</g>
</g>
<!-- gz&#45;msgs&#45;&gt;gz&#45;transport -->
<g id="edge41" class="edge">
<title>gz&#45;msgs&#45;&gt;gz&#45;transport</title>
<path fill="none" stroke="black" d="M195.3,-404.05C189.53,-395.97 182.5,-386.12 176.06,-377.11"/>
<polygon fill="black" stroke="black" points="178.94,-375.12 170.28,-369.02 173.24,-379.19 178.94,-375.12"/>
</g>
<!-- gz&#45;fuel&#45;tools -->
<g id="node41" class="node">
<title>gz&#45;fuel&#45;tools</title>
<g id="a_node41"><a xlink:href="https://github.com/conda-forge/gz-fuel-tools-feedstock" xlink:title="gz fuel tools">
<ellipse fill="#fde725" stroke="black" cx="358.41" cy="-350" rx="72.25" ry="18"/>
<text text-anchor="middle" x="358.41" y="-345.32" font-family="Times,serif" font-size="14.00">gz fuel tools</text>
</a>
</g>
</g>
<!-- gz&#45;msgs&#45;&gt;gz&#45;fuel&#45;tools -->
<g id="edge42" class="edge">
<title>gz&#45;msgs&#45;&gt;gz&#45;fuel&#45;tools</title>
<path fill="none" stroke="black" d="M240.17,-405.81C262.08,-395.65 291.16,-382.18 314.99,-371.13"/>
<polygon fill="black" stroke="black" points="316.21,-374.42 323.81,-367.04 313.27,-368.07 316.21,-374.42"/>
</g>
<!-- gz&#45;gui -->
<g id="node42" class="node">
<title>gz&#45;gui</title>
<g id="a_node42"><a xlink:href="https://github.com/conda-forge/gz-gui-feedstock" xlink:title="gz gui">
<ellipse fill="#fde725" stroke="black" cx="66.41" cy="-278" rx="41.74" ry="18"/>
<text text-anchor="middle" x="66.41" y="-273.32" font-family="Times,serif" font-size="14.00">gz gui</text>
</a>
</g>
</g>
<!-- gz&#45;msgs&#45;&gt;gz&#45;gui -->
<g id="edge43" class="edge">
<title>gz&#45;msgs&#45;&gt;gz&#45;gui</title>
<path fill="none" stroke="black" d="M150.31,-412.07C123.34,-404.81 93.22,-391.68 75.41,-368 62.56,-350.92 60.93,-326.47 62.16,-307.53"/>
<polygon fill="black" stroke="black" points="65.62,-308.08 63.12,-297.78 58.66,-307.39 65.62,-308.08"/>
</g>
<!-- gz&#45;sensors -->
<g id="node43" class="node">
<title>gz&#45;sensors</title>
<g id="a_node43"><a xlink:href="https://github.com/conda-forge/gz-sensors-feedstock" xlink:title="gz sensors">
<ellipse fill="#fde725" stroke="black" cx="266.41" cy="-278" rx="64.36" ry="18"/>
<text text-anchor="middle" x="266.41" y="-273.32" font-family="Times,serif" font-size="14.00">gz sensors</text>
</a>
</g>
</g>
<!-- gz&#45;msgs&#45;&gt;gz&#45;sensors -->
<g id="edge44" class="edge">
<title>gz&#45;msgs&#45;&gt;gz&#45;sensors</title>
<path fill="none" stroke="black" d="M219.21,-403.93C225.81,-393.82 233.81,-380.57 239.41,-368 248.15,-348.37 255.1,-325.1 259.76,-307.28"/>
<polygon fill="black" stroke="black" points="263.13,-308.2 262.18,-297.65 256.34,-306.5 263.13,-308.2"/>
</g>
<!-- gz&#45;sim -->
<g id="node44" class="node">
<title>gz&#45;sim</title>
<g id="a_node44"><a xlink:href="https://github.com/conda-forge/gz-sim-feedstock" xlink:title="gz sim">
<ellipse fill="#fde725" stroke="black" cx="237.41" cy="-206" rx="43.84" ry="18"/>
<text text-anchor="middle" x="237.41" y="-201.33" font-family="Times,serif" font-size="14.00">gz sim</text>
</a>
</g>
</g>
<!-- gz&#45;msgs&#45;&gt;gz&#45;sim -->
<g id="edge45" class="edge">
<title>gz&#45;msgs&#45;&gt;gz&#45;sim</title>
<path fill="none" stroke="black" d="M270.69,-415.3C331.99,-408.31 418.64,-394.05 439.41,-368 492.17,-301.83 357.37,-245.72 282.87,-220.8"/>
<polygon fill="black" stroke="black" points="284.37,-217.61 273.78,-217.83 282.19,-224.27 284.37,-217.61"/>
</g>
<!-- gz&#45;launch -->
<g id="node45" class="node">
<title>gz&#45;launch</title>
<g id="a_node45"><a xlink:href="https://github.com/conda-forge/gz-launch-feedstock" xlink:title="gz launch">
<ellipse fill="#fde725" stroke="black" cx="117.41" cy="-134" rx="59.1" ry="18"/>
<text text-anchor="middle" x="117.41" y="-129.32" font-family="Times,serif" font-size="14.00">gz launch</text>
</a>
</g>
</g>
<!-- gz&#45;msgs&#45;&gt;gz&#45;launch -->
<g id="edge46" class="edge">
<title>gz&#45;msgs&#45;&gt;gz&#45;launch</title>
<path fill="none" stroke="black" d="M153.38,-410.95C123.22,-403.2 86.4,-389.96 59.41,-368 30.32,-344.33 25.57,-332.1 15.41,-296 0,-241.24 51.29,-187.41 86.65,-157.97"/>
<polygon fill="black" stroke="black" points="88.49,-160.98 94.06,-151.97 84.09,-155.54 88.49,-160.98"/>
</g>
<!-- gz&#45;transport&#45;&gt;gz&#45;gui -->
<g id="edge47" class="edge">
<title>gz&#45;transport&#45;&gt;gz&#45;gui</title>
<path fill="none" stroke="black" d="M135.84,-332.41C123.75,-323.11 108.5,-311.38 95.37,-301.28"/>
<polygon fill="black" stroke="black" points="97.52,-298.52 87.46,-295.2 93.26,-304.07 97.52,-298.52"/>
</g>
<!-- gz&#45;transport&#45;&gt;gz&#45;sensors -->
<g id="edge48" class="edge">
<title>gz&#45;transport&#45;&gt;gz&#45;sensors</title>
<path fill="none" stroke="black" d="M182.69,-332.76C197.38,-323.33 216.08,-311.32 232.09,-301.04"/>
<polygon fill="black" stroke="black" points="233.84,-304.07 240.37,-295.72 230.06,-298.18 233.84,-304.07"/>
</g>
<!-- gz&#45;transport&#45;&gt;gz&#45;sim -->
<g id="edge49" class="edge">
<title>gz&#45;transport&#45;&gt;gz&#45;sim</title>
<path fill="none" stroke="black" d="M162.58,-331.87C168.56,-313.39 179.39,-283.46 193.41,-260 199.33,-250.1 207.03,-240.13 214.34,-231.55"/>
<polygon fill="black" stroke="black" points="216.73,-234.13 220.72,-224.32 211.48,-229.5 216.73,-234.13"/>
</g>
<!-- gz&#45;transport&#45;&gt;gz&#45;launch -->
<g id="edge50" class="edge">
<title>gz&#45;transport&#45;&gt;gz&#45;launch</title>
<path fill="none" stroke="black" d="M154.2,-331.85C147.34,-295.14 131.18,-208.66 122.74,-163.53"/>
<polygon fill="black" stroke="black" points="126.19,-162.91 120.91,-153.72 119.3,-164.19 126.19,-162.91"/>
</g>
<!-- gz&#45;fuel&#45;tools&#45;&gt;gz&#45;sim -->
<g id="edge51" class="edge">
<title>gz&#45;fuel&#45;tools&#45;&gt;gz&#45;sim</title>
<path fill="none" stroke="black" d="M358.91,-331.82C358.61,-312.47 355.4,-280.99 339.41,-260 325.47,-241.7 303.4,-229.13 283.35,-220.85"/>
<polygon fill="black" stroke="black" points="284.8,-217.65 274.21,-217.33 282.28,-224.19 284.8,-217.65"/>
</g>
<!-- gz&#45;gui&#45;&gt;gz&#45;sim -->
<g id="edge52" class="edge">
<title>gz&#45;gui&#45;&gt;gz&#45;sim</title>
<path fill="none" stroke="black" d="M95.8,-264.97C123.65,-253.57 165.71,-236.35 196.76,-223.64"/>
<polygon fill="black" stroke="black" points="197.92,-226.95 205.85,-219.92 195.27,-220.47 197.92,-226.95"/>
</g>
<!-- gz&#45;gui&#45;&gt;gz&#45;launch -->
<g id="edge53" class="edge">
<title>gz&#45;gui&#45;&gt;gz&#45;launch</title>
<path fill="none" stroke="black" d="M72.56,-259.87C81.21,-235.78 97.08,-191.6 107.43,-162.77"/>
<polygon fill="black" stroke="black" points="110.64,-164.21 110.72,-153.61 104.05,-161.84 110.64,-164.21"/>
</g>
<!-- gz&#45;sensors&#45;&gt;gz&#45;sim -->
<g id="edge54" class="edge">
<title>gz&#45;sensors&#45;&gt;gz&#45;sim</title>
<path fill="none" stroke="black" d="M259.24,-259.7C256.11,-252.15 252.37,-243.12 248.88,-234.68"/>
<polygon fill="black" stroke="black" points="252.13,-233.4 245.07,-225.5 245.67,-236.08 252.13,-233.4"/>
</g>
<!-- gz&#45;sim&#45;&gt;gz&#45;launch -->
<g id="edge55" class="edge">
<title>gz&#45;sim&#45;&gt;gz&#45;launch</title>
<path fill="none" stroke="black" d="M212.84,-190.67C195.86,-180.77 173,-167.43 153.91,-156.29"/>
<polygon fill="black" stroke="black" points="155.74,-153.31 145.34,-151.29 152.21,-159.36 155.74,-153.31"/>
</g>
<!-- labmaze -->
<g id="node46" class="node">
<title>labmaze</title>
<g id="a_node46"><a xlink:href="https://github.com/conda-forge/labmaze-feedstock/pull/10" xlink:title="labmaze ❎">
<ellipse fill="#31688e" stroke="black" cx="837.41" cy="-350" rx="68.04" ry="18"/>
<text text-anchor="middle" x="837.41" y="-345.32" font-family="Times,serif" font-size="14.00" fill="white">labmaze ❎</text>
</a>
</g>
</g>
<!-- labmaze&#45;&gt;ray&#45;packages -->
<g id="edge56" class="edge">
<title>labmaze&#45;&gt;ray&#45;packages</title>
<path fill="none" stroke="black" d="M830.95,-331.59C823.53,-312.87 810.2,-282.74 793.41,-260 785.82,-249.72 776.1,-239.73 766.89,-231.25"/>
<polygon fill="black" stroke="black" points="769.24,-228.66 759.44,-224.63 764.59,-233.89 769.24,-228.66"/>
</g>
<!-- gnss&#45;sdr -->
<g id="node48" class="node">
<title>gnss&#45;sdr</title>
<g id="a_node48"><a xlink:href="https://github.com/conda-forge/gnss-sdr-feedstock" xlink:title="gnss sdr">
<ellipse fill="#35b779" stroke="black" cx="246.41" cy="-538" rx="53.84" ry="18"/>
<text text-anchor="middle" x="246.41" y="-533.33" font-family="Times,serif" font-size="14.00">gnss sdr</text>
</a>
</g>
</g>
<!-- libpulsar&#45;&gt;gnss&#45;sdr -->
<!-- tensorstore -->
<g id="node49" class="node">
<title>tensorstore</title>
<g id="a_node49"><a xlink:href="https://github.com/conda-forge/tensorstore-feedstock/pull/20" xlink:title="tensorstore ✓">
<ellipse fill="#31688e" stroke="black" cx="246.41" cy="-466" rx="76.99" ry="18"/>
<text text-anchor="middle" x="246.41" y="-461.32" font-family="Times,serif" font-size="14.00" fill="white">tensorstore ✓</text>
</a>
</g>
</g>
<!-- gnss&#45;sdr&#45;&gt;tensorstore -->
<!-- gcld3 -->
<g id="node50" class="node">
<title>gcld3</title>
<g id="a_node50"><a xlink:href="https://github.com/conda-forge/gcld3-feedstock" xlink:title="gcld3">
<ellipse fill="#35b779" stroke="black" cx="1232.41" cy="-90" rx="38.58" ry="18"/>
<text text-anchor="middle" x="1232.41" y="-85.33" font-family="Times,serif" font-size="14.00">gcld3</text>
</a>
</g>
</g>
<!-- bloaty -->
<g id="node51" class="node">
<title>bloaty</title>
<g id="a_node51"><a xlink:href="https://github.com/conda-forge/bloaty-feedstock" xlink:title="bloaty">
<ellipse fill="#35b779" stroke="black" cx="1232.41" cy="-18" rx="42.26" ry="18"/>
<text text-anchor="middle" x="1232.41" y="-13.32" font-family="Times,serif" font-size="14.00">bloaty</text>
</a>
</g>
</g>
<!-- gcld3&#45;&gt;bloaty -->
</g>
</svg>
