<?xml version="1.0" encoding="UTF-8" standalone="no"?>
<!DOCTYPE svg PUBLIC "-//W3C//DTD SVG 1.1//EN"
 "http://www.w3.org/Graphics/SVG/1.1/DTD/svg11.dtd">
<!-- Generated by graphviz version 9.0.0 (20231125.0833)
 -->
<!-- Pages: 1 -->
<svg width="2233pt" height="1644pt"
 viewBox="0.00 0.00 2232.60 1644.00" xmlns="http://www.w3.org/2000/svg" xmlns:xlink="http://www.w3.org/1999/xlink">
<g id="graph0" class="graph" transform="scale(1 1) rotate(0) translate(4 1640)">
<polygon fill="white" stroke="none" points="-4,4 -4,-1640 2228.6,-1640 2228.6,4 -4,4"/>
<!-- arrow&#45;cpp -->
<g id="node1" class="node">
<title>arrow&#45;cpp</title>
<g id="a_node1"><a xlink:href="https://github.com/conda-forge/arrow-cpp-feedstock" xlink:title="arrow cpp">
<ellipse fill="#35b779" stroke="black" cx="614.7" cy="-1078" rx="61.73" ry="18"/>
<text text-anchor="middle" x="614.7" y="-1073.33" font-family="Times,serif" font-size="14.00">arrow cpp</text>
</a>
</g>
</g>
<!-- ray&#45;packages -->
<g id="node2" class="node">
<title>ray&#45;packages</title>
<g id="a_node2"><a xlink:href="https://github.com/conda-forge/ray-packages-feedstock" xlink:title="ray packages">
<ellipse fill="#fde725" stroke="black" cx="780.7" cy="-1006" rx="76.99" ry="18"/>
<text text-anchor="middle" x="780.7" y="-1001.33" font-family="Times,serif" font-size="14.00">ray packages</text>
</a>
</g>
</g>
<!-- arrow&#45;cpp&#45;&gt;ray&#45;packages -->
<g id="edge1" class="edge">
<title>arrow&#45;cpp&#45;&gt;ray&#45;packages</title>
<path fill="none" stroke="black" d="M648.69,-1062.67C673.31,-1052.28 706.89,-1038.12 734.02,-1026.68"/>
<polygon fill="black" stroke="black" points="735.2,-1029.98 743.06,-1022.87 732.48,-1023.53 735.2,-1029.98"/>
</g>
<!-- arcticdb -->
<g id="node3" class="node">
<title>arcticdb</title>
<g id="a_node3"><a xlink:href="https://github.com/conda-forge/arcticdb-feedstock" xlink:title="arcticdb">
<ellipse fill="#fde725" stroke="black" cx="614.7" cy="-1006" rx="52.26" ry="18"/>
<text text-anchor="middle" x="614.7" y="-1001.33" font-family="Times,serif" font-size="14.00">arcticdb</text>
</a>
</g>
</g>
<!-- arrow&#45;cpp&#45;&gt;arcticdb -->
<g id="edge2" class="edge">
<title>arrow&#45;cpp&#45;&gt;arcticdb</title>
<path fill="none" stroke="black" d="M614.7,-1059.7C614.7,-1052.41 614.7,-1043.73 614.7,-1035.54"/>
<polygon fill="black" stroke="black" points="618.2,-1035.62 614.7,-1025.62 611.2,-1035.62 618.2,-1035.62"/>
</g>
<!-- bazel -->
<g id="node4" class="node">
<title>bazel</title>
<g id="a_node4"><a xlink:href="https://github.com/conda-forge/bazel-feedstock" xlink:title="bazel">
<ellipse fill="#ff8c00" stroke="black" cx="538.7" cy="-854" rx="37.53" ry="18"/>
<text text-anchor="middle" x="538.7" y="-849.33" font-family="Times,serif" font-size="14.00">bazel</text>
</a>
</g>
</g>
<!-- mosh -->
<g id="node5" class="node">
<title>mosh</title>
<g id="a_node5"><a xlink:href="https://github.com/conda-forge/mosh-feedstock" xlink:title="mosh">
<ellipse fill="#35b779" stroke="black" cx="538.7" cy="-782" rx="38.06" ry="18"/>
<text text-anchor="middle" x="538.7" y="-777.33" font-family="Times,serif" font-size="14.00">mosh</text>
</a>
</g>
</g>
<!-- bazel&#45;&gt;mosh -->
<!-- onnx -->
<g id="node6" class="node">
<title>onnx</title>
<g id="a_node6"><a xlink:href="https://github.com/conda-forge/onnx-feedstock" xlink:title="onnx">
<ellipse fill="#35b779" stroke="black" cx="538.7" cy="-710" rx="35.42" ry="18"/>
<text text-anchor="middle" x="538.7" y="-705.33" font-family="Times,serif" font-size="14.00">onnx</text>
</a>
</g>
</g>
<!-- mosh&#45;&gt;onnx -->
<!-- paraview -->
<g id="node9" class="node">
<title>paraview</title>
<g id="a_node9"><a xlink:href="https://github.com/conda-forge/paraview-feedstock" xlink:title="paraview">
<ellipse fill="#35b779" stroke="black" cx="538.7" cy="-638" rx="57" ry="18"/>
<text text-anchor="middle" x="538.7" y="-633.33" font-family="Times,serif" font-size="14.00">paraview</text>
</a>
</g>
</g>
<!-- onnx&#45;&gt;paraview -->
<!-- mysql -->
<g id="node7" class="node">
<title>mysql</title>
<g id="a_node7"><a xlink:href="https://github.com/conda-forge/mysql-feedstock/pull/96" xlink:title="mysql ✓">
<ellipse fill="#31688e" stroke="black" cx="1904.7" cy="-530" rx="49.1" ry="18"/>
<text text-anchor="middle" x="1904.7" y="-525.33" font-family="Times,serif" font-size="14.00" fill="white">mysql ✓</text>
</a>
</g>
</g>
<!-- mysql&#45;connector&#45;python -->
<g id="node8" class="node">
<title>mysql&#45;connector&#45;python</title>
<g id="a_node8"><a xlink:href="https://github.com/conda-forge/mysql-connector-python-feedstock" xlink:title="mysql connector python">
<ellipse fill="#fde725" stroke="black" cx="1904.7" cy="-458" rx="131.7" ry="18"/>
<text text-anchor="middle" x="1904.7" y="-453.32" font-family="Times,serif" font-size="14.00">mysql connector python</text>
</a>
</g>
</g>
<!-- mysql&#45;&gt;mysql&#45;connector&#45;python -->
<g id="edge5" class="edge">
<title>mysql&#45;&gt;mysql&#45;connector&#45;python</title>
<path fill="none" stroke="black" d="M1904.7,-511.7C1904.7,-504.41 1904.7,-495.73 1904.7,-487.54"/>
<polygon fill="black" stroke="black" points="1908.2,-487.62 1904.7,-477.62 1901.2,-487.62 1908.2,-487.62"/>
</g>
<!-- tensorflow -->
<g id="node13" class="node">
<title>tensorflow</title>
<g id="a_node13"><a xlink:href="https://github.com/conda-forge/tensorflow-feedstock" xlink:title="tensorflow">
<ellipse fill="#35b779" stroke="black" cx="538.7" cy="-566" rx="63.84" ry="18"/>
<text text-anchor="middle" x="538.7" y="-561.33" font-family="Times,serif" font-size="14.00">tensorflow</text>
</a>
</g>
</g>
<!-- paraview&#45;&gt;tensorflow -->
<!-- opencv -->
<g id="node10" class="node">
<title>opencv</title>
<g id="a_node10"><a xlink:href="https://github.com/conda-forge/opencv-feedstock" xlink:title="opencv">
<ellipse fill="#35b779" stroke="black" cx="488.7" cy="-1078" rx="46.47" ry="18"/>
<text text-anchor="middle" x="488.7" y="-1073.33" font-family="Times,serif" font-size="14.00">opencv</text>
</a>
</g>
</g>
<!-- opencv&#45;&gt;ray&#45;packages -->
<g id="edge7" class="edge">
<title>opencv&#45;&gt;ray&#45;packages</title>
<path fill="none" stroke="black" d="M523.49,-1065.79C530.17,-1063.76 537.13,-1061.75 543.7,-1060 600.28,-1044.95 665.22,-1030.64 712.79,-1020.68"/>
<polygon fill="black" stroke="black" points="713.33,-1024.15 722.4,-1018.68 711.9,-1017.29 713.33,-1024.15"/>
</g>
<!-- imp -->
<g id="node11" class="node">
<title>imp</title>
<g id="a_node11"><a xlink:href="https://github.com/conda-forge/imp-feedstock" xlink:title="imp">
<ellipse fill="#fde725" stroke="black" cx="501.7" cy="-1006" rx="30.16" ry="18"/>
<text text-anchor="middle" x="501.7" y="-1001.33" font-family="Times,serif" font-size="14.00">imp</text>
</a>
</g>
</g>
<!-- opencv&#45;&gt;imp -->
<g id="edge8" class="edge">
<title>opencv&#45;&gt;imp</title>
<path fill="none" stroke="black" d="M491.91,-1059.7C493.28,-1052.32 494.92,-1043.52 496.45,-1035.25"/>
<polygon fill="black" stroke="black" points="499.86,-1036.06 498.25,-1025.59 492.98,-1034.79 499.86,-1036.06"/>
</g>
<!-- gazebo&#45;yarp&#45;plugins -->
<g id="node12" class="node">
<title>gazebo&#45;yarp&#45;plugins</title>
<g id="a_node12"><a xlink:href="https://github.com/conda-forge/gazebo-yarp-plugins-feedstock" xlink:title="gazebo yarp plugins">
<ellipse fill="#fde725" stroke="black" cx="341.7" cy="-1006" rx="112.24" ry="18"/>
<text text-anchor="middle" x="341.7" y="-1001.33" font-family="Times,serif" font-size="14.00">gazebo yarp plugins</text>
</a>
</g>
</g>
<!-- opencv&#45;&gt;gazebo&#45;yarp&#45;plugins -->
<g id="edge9" class="edge">
<title>opencv&#45;&gt;gazebo&#45;yarp&#45;plugins</title>
<path fill="none" stroke="black" d="M460.36,-1063.5C439.5,-1053.57 410.72,-1039.87 386.73,-1028.44"/>
<polygon fill="black" stroke="black" points="388.33,-1025.33 377.8,-1024.19 385.32,-1031.65 388.33,-1025.33"/>
</g>
<!-- r&#45;protolite -->
<g id="node18" class="node">
<title>r&#45;protolite</title>
<g id="a_node18"><a xlink:href="https://github.com/conda-forge/r-protolite-feedstock" xlink:title="r protolite">
<ellipse fill="#35b779" stroke="black" cx="538.7" cy="-494" rx="62.26" ry="18"/>
<text text-anchor="middle" x="538.7" y="-489.32" font-family="Times,serif" font-size="14.00">r protolite</text>
</a>
</g>
</g>
<!-- tensorflow&#45;&gt;r&#45;protolite -->
<!-- qgis -->
<g id="node14" class="node">
<title>qgis</title>
<g id="a_node14"><a xlink:href="https://github.com/conda-forge/qgis-feedstock" xlink:title="qgis">
<ellipse fill="#fde725" stroke="black" cx="281.7" cy="-1150" rx="32.27" ry="18"/>
<text text-anchor="middle" x="281.7" y="-1145.33" font-family="Times,serif" font-size="14.00">qgis</text>
</a>
</g>
</g>
<!-- tiledb -->
<g id="node15" class="node">
<title>tiledb</title>
<g id="a_node15"><a xlink:href="https://github.com/conda-forge/tiledb-feedstock" xlink:title="tiledb">
<ellipse fill="#fde725" stroke="black" cx="311.7" cy="-1222" rx="40.16" ry="18"/>
<text text-anchor="middle" x="311.7" y="-1217.33" font-family="Times,serif" font-size="14.00">tiledb</text>
</a>
</g>
</g>
<!-- tiledb&#45;&gt;qgis -->
<g id="edge11" class="edge">
<title>tiledb&#45;&gt;qgis</title>
<path fill="none" stroke="black" d="M304.44,-1204.05C301.12,-1196.32 297.11,-1186.96 293.39,-1178.27"/>
<polygon fill="black" stroke="black" points="296.65,-1176.99 289.49,-1169.18 290.21,-1179.75 296.65,-1176.99"/>
</g>
<!-- gazebo -->
<g id="node16" class="node">
<title>gazebo</title>
<g id="a_node16"><a xlink:href="https://github.com/conda-forge/gazebo-feedstock" xlink:title="gazebo">
<ellipse fill="#fde725" stroke="black" cx="341.7" cy="-1078" rx="46.47" ry="18"/>
<text text-anchor="middle" x="341.7" y="-1073.33" font-family="Times,serif" font-size="14.00">gazebo</text>
</a>
</g>
</g>
<!-- tiledb&#45;&gt;gazebo -->
<g id="edge12" class="edge">
<title>tiledb&#45;&gt;gazebo</title>
<path fill="none" stroke="black" d="M315.38,-1203.59C320.47,-1179.5 329.71,-1135.75 335.78,-1107.03"/>
<polygon fill="black" stroke="black" points="339.13,-1108.1 337.77,-1097.59 332.28,-1106.65 339.13,-1108.1"/>
</g>
<!-- gazebo&#45;&gt;gazebo&#45;yarp&#45;plugins -->
<g id="edge13" class="edge">
<title>gazebo&#45;&gt;gazebo&#45;yarp&#45;plugins</title>
<path fill="none" stroke="black" d="M341.7,-1059.7C341.7,-1052.41 341.7,-1043.73 341.7,-1035.54"/>
<polygon fill="black" stroke="black" points="345.2,-1035.62 341.7,-1025.62 338.2,-1035.62 345.2,-1035.62"/>
</g>
<!-- pyaudi -->
<g id="node17" class="node">
<title>pyaudi</title>
<g id="a_node17"><a xlink:href="https://github.com/conda-forge/pyaudi-feedstock" xlink:title="pyaudi">
<ellipse fill="#fde725" stroke="black" cx="1330.7" cy="-18" rx="44.9" ry="18"/>
<text text-anchor="middle" x="1330.7" y="-13.32" font-family="Times,serif" font-size="14.00">pyaudi</text>
</a>
</g>
</g>
<!-- mongodb -->
<g id="node19" class="node">
<title>mongodb</title>
<g id="a_node19"><a xlink:href="https://github.com/conda-forge/mongodb-feedstock" xlink:title="mongodb">
<ellipse fill="#35b779" stroke="black" cx="538.7" cy="-422" rx="57.52" ry="18"/>
<text text-anchor="middle" x="538.7" y="-417.32" font-family="Times,serif" font-size="14.00">mongodb</text>
</a>
</g>
</g>
<!-- r&#45;protolite&#45;&gt;mongodb -->
<!-- zaber&#45;motion -->
<g id="node21" class="node">
<title>zaber&#45;motion</title>
<g id="a_node21"><a xlink:href="https://github.com/conda-forge/zaber-motion-feedstock" xlink:title="zaber motion">
<ellipse fill="#35b779" stroke="black" cx="538.7" cy="-350" rx="76.99" ry="18"/>
<text text-anchor="middle" x="538.7" y="-345.32" font-family="Times,serif" font-size="14.00">zaber motion</text>
</a>
</g>
</g>
<!-- mongodb&#45;&gt;zaber&#45;motion -->
<!-- pytorch&#45;cpu -->
<g id="node20" class="node">
<title>pytorch&#45;cpu</title>
<g id="a_node20"><a xlink:href="https://github.com/conda-forge/pytorch-cpu-feedstock/pull/221" xlink:title="pytorch cpu ❎">
<ellipse fill="#31688e" stroke="black" cx="780.7" cy="-1078" rx="85.93" ry="18"/>
<text text-anchor="middle" x="780.7" y="-1073.33" font-family="Times,serif" font-size="14.00" fill="white">pytorch cpu ❎</text>
</a>
</g>
</g>
<!-- pytorch&#45;cpu&#45;&gt;ray&#45;packages -->
<g id="edge16" class="edge">
<title>pytorch&#45;cpu&#45;&gt;ray&#45;packages</title>
<path fill="none" stroke="black" d="M780.7,-1059.7C780.7,-1052.41 780.7,-1043.73 780.7,-1035.54"/>
<polygon fill="black" stroke="black" points="784.2,-1035.62 780.7,-1025.62 777.2,-1035.62 784.2,-1035.62"/>
</g>
<!-- go&#45;cockroach -->
<g id="node32" class="node">
<title>go&#45;cockroach</title>
<g id="a_node32"><a xlink:href="https://github.com/conda-forge/go-cockroach-feedstock" xlink:title="go cockroach">
<ellipse fill="#35b779" stroke="black" cx="538.7" cy="-278" rx="76.46" ry="18"/>
<text text-anchor="middle" x="538.7" y="-273.32" font-family="Times,serif" font-size="14.00">go cockroach</text>
</a>
</g>
</g>
<!-- zaber&#45;motion&#45;&gt;go&#45;cockroach -->
<!-- jaxlib -->
<g id="node22" class="node">
<title>jaxlib</title>
<g id="a_node22"><a xlink:href="https://github.com/conda-forge/jaxlib-feedstock" xlink:title="jaxlib">
<ellipse fill="#35b779" stroke="black" cx="914.7" cy="-1150" rx="38.58" ry="18"/>
<text text-anchor="middle" x="914.7" y="-1145.33" font-family="Times,serif" font-size="14.00">jaxlib</text>
</a>
</g>
</g>
<!-- mujoco -->
<g id="node23" class="node">
<title>mujoco</title>
<g id="a_node23"><a xlink:href="https://github.com/conda-forge/mujoco-feedstock" xlink:title="mujoco">
<ellipse fill="#fde725" stroke="black" cx="931.7" cy="-1078" rx="47" ry="18"/>
<text text-anchor="middle" x="931.7" y="-1073.33" font-family="Times,serif" font-size="14.00">mujoco</text>
</a>
</g>
</g>
<!-- jaxlib&#45;&gt;mujoco -->
<g id="edge18" class="edge">
<title>jaxlib&#45;&gt;mujoco</title>
<path fill="none" stroke="black" d="M918.9,-1131.7C920.69,-1124.32 922.83,-1115.52 924.84,-1107.25"/>
<polygon fill="black" stroke="black" points="928.23,-1108.12 927.19,-1097.58 921.43,-1106.47 928.23,-1108.12"/>
</g>
<!-- mujoco&#45;&gt;ray&#45;packages -->
<g id="edge19" class="edge">
<title>mujoco&#45;&gt;ray&#45;packages</title>
<path fill="none" stroke="black" d="M902.59,-1063.5C880.46,-1053.25 849.67,-1038.97 824.57,-1027.34"/>
<polygon fill="black" stroke="black" points="826.12,-1024.2 815.57,-1023.17 823.17,-1030.55 826.12,-1024.2"/>
</g>
<!-- obake -->
<g id="node24" class="node">
<title>obake</title>
<g id="a_node24"><a xlink:href="https://github.com/conda-forge/obake-feedstock" xlink:title="obake">
<ellipse fill="#35b779" stroke="black" cx="1330.7" cy="-90" rx="40.69" ry="18"/>
<text text-anchor="middle" x="1330.7" y="-85.33" font-family="Times,serif" font-size="14.00">obake</text>
</a>
</g>
</g>
<!-- obake&#45;&gt;pyaudi -->
<g id="edge20" class="edge">
<title>obake&#45;&gt;pyaudi</title>
<path fill="none" stroke="black" d="M1330.7,-71.7C1330.7,-64.41 1330.7,-55.73 1330.7,-47.54"/>
<polygon fill="black" stroke="black" points="1334.2,-47.62 1330.7,-37.62 1327.2,-47.62 1334.2,-47.62"/>
</g>
<!-- libignition&#45;transport4 -->
<g id="node25" class="node">
<title>libignition&#45;transport4</title>
<g id="a_node25"><a xlink:href="https://github.com/conda-forge/libignition-transport4-feedstock" xlink:title="libignition transport4">
<ellipse fill="#fde725" stroke="black" cx="1789.7" cy="-1330" rx="119.08" ry="18"/>
<text text-anchor="middle" x="1789.7" y="-1325.33" font-family="Times,serif" font-size="14.00">libignition transport4</text>
</a>
</g>
</g>
<!-- libignition&#45;sensors -->
<g id="node26" class="node">
<title>libignition&#45;sensors</title>
<g id="a_node26"><a xlink:href="https://github.com/conda-forge/libignition-sensors-feedstock" xlink:title="libignition sensors">
<ellipse fill="#fde725" stroke="black" cx="1944.7" cy="-1258" rx="103.82" ry="18"/>
<text text-anchor="middle" x="1944.7" y="-1253.33" font-family="Times,serif" font-size="14.00">libignition sensors</text>
</a>
</g>
</g>
<!-- libignition&#45;transport4&#45;&gt;libignition&#45;sensors -->
<g id="edge21" class="edge">
<title>libignition&#45;transport4&#45;&gt;libignition&#45;sensors</title>
<path fill="none" stroke="black" d="M1826.43,-1312.41C1847.94,-1302.7 1875.3,-1290.34 1898.28,-1279.96"/>
<polygon fill="black" stroke="black" points="1899.45,-1283.28 1907.12,-1275.97 1896.56,-1276.9 1899.45,-1283.28"/>
</g>
<!-- libignition&#45;gui -->
<g id="node27" class="node">
<title>libignition&#45;gui</title>
<g id="a_node27"><a xlink:href="https://github.com/conda-forge/libignition-gui-feedstock" xlink:title="libignition gui">
<ellipse fill="#fde725" stroke="black" cx="1665.7" cy="-1258" rx="81.2" ry="18"/>
<text text-anchor="middle" x="1665.7" y="-1253.33" font-family="Times,serif" font-size="14.00">libignition gui</text>
</a>
</g>
</g>
<!-- libignition&#45;transport4&#45;&gt;libignition&#45;gui -->
<g id="edge22" class="edge">
<title>libignition&#45;transport4&#45;&gt;libignition&#45;gui</title>
<path fill="none" stroke="black" d="M1760,-1312.23C1743.27,-1302.79 1722.19,-1290.89 1704.2,-1280.74"/>
<polygon fill="black" stroke="black" points="1706.05,-1277.76 1695.62,-1275.89 1702.61,-1283.86 1706.05,-1277.76"/>
</g>
<!-- libignition&#45;gazebo -->
<g id="node28" class="node">
<title>libignition&#45;gazebo</title>
<g id="a_node28"><a xlink:href="https://github.com/conda-forge/libignition-gazebo-feedstock" xlink:title="libignition gazebo">
<ellipse fill="#fde725" stroke="black" cx="1924.7" cy="-1186" rx="100.66" ry="18"/>
<text text-anchor="middle" x="1924.7" y="-1181.33" font-family="Times,serif" font-size="14.00">libignition gazebo</text>
</a>
</g>
</g>
<!-- libignition&#45;transport4&#45;&gt;libignition&#45;gazebo -->
<g id="edge23" class="edge">
<title>libignition&#45;transport4&#45;&gt;libignition&#45;gazebo</title>
<path fill="none" stroke="black" d="M1794.37,-1311.8C1800.35,-1292.43 1812.32,-1260.94 1831.7,-1240 1843.82,-1226.91 1859.92,-1216.19 1875.32,-1207.89"/>
<polygon fill="black" stroke="black" points="1876.63,-1211.16 1883.94,-1203.49 1873.44,-1204.92 1876.63,-1211.16"/>
</g>
<!-- libignition&#45;launch -->
<g id="node29" class="node">
<title>libignition&#45;launch</title>
<g id="a_node29"><a xlink:href="https://github.com/conda-forge/libignition-launch-feedstock" xlink:title="libignition launch">
<ellipse fill="#fde725" stroke="black" cx="1859.7" cy="-1114" rx="98.56" ry="18"/>
<text text-anchor="middle" x="1859.7" y="-1109.33" font-family="Times,serif" font-size="14.00">libignition launch</text>
</a>
</g>
</g>
<!-- libignition&#45;transport4&#45;&gt;libignition&#45;launch -->
<g id="edge24" class="edge">
<title>libignition&#45;transport4&#45;&gt;libignition&#45;launch</title>
<path fill="none" stroke="black" d="M1789.37,-1311.68C1789.43,-1281.2 1792.46,-1216.62 1814.7,-1168 1819.27,-1158 1826.29,-1148.41 1833.42,-1140.2"/>
<polygon fill="black" stroke="black" points="1835.87,-1142.72 1840.08,-1133 1830.73,-1137.97 1835.87,-1142.72"/>
</g>
<!-- libignition&#45;sensors&#45;&gt;libignition&#45;gazebo -->
<g id="edge25" class="edge">
<title>libignition&#45;sensors&#45;&gt;libignition&#45;gazebo</title>
<path fill="none" stroke="black" d="M1939.76,-1239.7C1937.62,-1232.24 1935.08,-1223.32 1932.69,-1214.97"/>
<polygon fill="black" stroke="black" points="1936.11,-1214.21 1930,-1205.56 1929.38,-1216.14 1936.11,-1214.21"/>
</g>
<!-- libignition&#45;gui&#45;&gt;libignition&#45;gazebo -->
<g id="edge26" class="edge">
<title>libignition&#45;gui&#45;&gt;libignition&#45;gazebo</title>
<path fill="none" stroke="black" d="M1715.94,-1243.42C1756.9,-1232.35 1815.04,-1216.64 1859.57,-1204.6"/>
<polygon fill="black" stroke="black" points="1860.37,-1208.01 1869.11,-1202.02 1858.55,-1201.25 1860.37,-1208.01"/>
</g>
<!-- libignition&#45;gui&#45;&gt;libignition&#45;launch -->
<g id="edge27" class="edge">
<title>libignition&#45;gui&#45;&gt;libignition&#45;launch</title>
<path fill="none" stroke="black" d="M1681.04,-1240.18C1698.95,-1221.17 1730.03,-1190 1760.7,-1168 1777.39,-1156.03 1797.1,-1144.94 1814.53,-1136.03"/>
<polygon fill="black" stroke="black" points="1815.75,-1139.33 1823.13,-1131.72 1812.62,-1133.07 1815.75,-1139.33"/>
</g>
<!-- libignition&#45;gazebo&#45;&gt;libignition&#45;launch -->
<g id="edge28" class="edge">
<title>libignition&#45;gazebo&#45;&gt;libignition&#45;launch</title>
<path fill="none" stroke="black" d="M1908.96,-1168.05C1901.14,-1159.63 1891.53,-1149.28 1882.88,-1139.97"/>
<polygon fill="black" stroke="black" points="1885.69,-1137.84 1876.32,-1132.9 1880.56,-1142.61 1885.69,-1137.84"/>
</g>
<!-- libignition&#45;msgs1 -->
<g id="node30" class="node">
<title>libignition&#45;msgs1</title>
<g id="a_node30"><a xlink:href="https://github.com/conda-forge/libignition-msgs1-feedstock" xlink:title="libignition msgs1">
<ellipse fill="#35b779" stroke="black" cx="2006.7" cy="-1402" rx="98.03" ry="18"/>
<text text-anchor="middle" x="2006.7" y="-1397.33" font-family="Times,serif" font-size="14.00">libignition msgs1</text>
</a>
</g>
</g>
<!-- libignition&#45;msgs1&#45;&gt;libignition&#45;transport4 -->
<g id="edge29" class="edge">
<title>libignition&#45;msgs1&#45;&gt;libignition&#45;transport4</title>
<path fill="none" stroke="black" d="M1959.61,-1385.81C1927.33,-1375.4 1884.24,-1361.5 1849.53,-1350.3"/>
<polygon fill="black" stroke="black" points="1850.61,-1346.97 1840.01,-1347.23 1848.46,-1353.63 1850.61,-1346.97"/>
</g>
<!-- libignition&#45;msgs1&#45;&gt;libignition&#45;sensors -->
<g id="edge30" class="edge">
<title>libignition&#45;msgs1&#45;&gt;libignition&#45;sensors</title>
<path fill="none" stroke="black" d="M1984.92,-1384.2C1974.3,-1374.76 1962.4,-1362.06 1955.7,-1348 1946.73,-1329.18 1944.14,-1305.7 1943.7,-1287.59"/>
<polygon fill="black" stroke="black" points="1947.2,-1287.8 1943.69,-1277.8 1940.2,-1287.81 1947.2,-1287.8"/>
</g>
<!-- libignition&#45;msgs1&#45;&gt;libignition&#45;gui -->
<g id="edge31" class="edge">
<title>libignition&#45;msgs1&#45;&gt;libignition&#45;gui</title>
<path fill="none" stroke="black" d="M1909.15,-1399.69C1818.56,-1396.15 1693.07,-1384.56 1661.7,-1348 1647.62,-1331.59 1650.11,-1306.57 1655.27,-1287.23"/>
<polygon fill="black" stroke="black" points="1658.58,-1288.36 1658.16,-1277.78 1651.89,-1286.31 1658.58,-1288.36"/>
</g>
<!-- libignition&#45;msgs1&#45;&gt;libignition&#45;gazebo -->
<g id="edge32" class="edge">
<title>libignition&#45;msgs1&#45;&gt;libignition&#45;gazebo</title>
<path fill="none" stroke="black" d="M2091.32,-1392.52C2154.13,-1382.26 2224.6,-1359.93 2197.7,-1312 2160.8,-1246.25 2078.45,-1214.9 2013.79,-1200.06"/>
<polygon fill="black" stroke="black" points="2014.76,-1196.69 2004.24,-1197.97 2013.26,-1203.53 2014.76,-1196.69"/>
</g>
<!-- libignition&#45;msgs1&#45;&gt;libignition&#45;launch -->
<g id="edge33" class="edge">
<title>libignition&#45;msgs1&#45;&gt;libignition&#45;launch</title>
<path fill="none" stroke="black" d="M2085.33,-1390.94C2136.93,-1382.54 2197.72,-1368.59 2213.7,-1348 2223.51,-1335.36 2218.83,-1327.16 2213.7,-1312 2175.8,-1199.96 2034.94,-1150.11 1942.74,-1129.09"/>
<polygon fill="black" stroke="black" points="1943.74,-1125.73 1933.23,-1126.99 1942.24,-1132.56 1943.74,-1125.73"/>
</g>
<!-- libignition&#45;fuel&#45;tools -->
<g id="node31" class="node">
<title>libignition&#45;fuel&#45;tools</title>
<g id="a_node31"><a xlink:href="https://github.com/conda-forge/libignition-fuel-tools-feedstock" xlink:title="libignition fuel tools">
<ellipse fill="#fde725" stroke="black" cx="2076.7" cy="-1330" rx="111.71" ry="18"/>
<text text-anchor="middle" x="2076.7" y="-1325.33" font-family="Times,serif" font-size="14.00">libignition fuel tools</text>
</a>
</g>
</g>
<!-- libignition&#45;msgs1&#45;&gt;libignition&#45;fuel&#45;tools -->
<g id="edge34" class="edge">
<title>libignition&#45;msgs1&#45;&gt;libignition&#45;fuel&#45;tools</title>
<path fill="none" stroke="black" d="M2023.64,-1384.05C2031.95,-1375.75 2042.12,-1365.58 2051.32,-1356.38"/>
<polygon fill="black" stroke="black" points="2053.76,-1358.89 2058.35,-1349.35 2048.81,-1353.94 2053.76,-1358.89"/>
</g>
<!-- libignition&#45;fuel&#45;tools&#45;&gt;libignition&#45;gazebo -->
<g id="edge35" class="edge">
<title>libignition&#45;fuel&#45;tools&#45;&gt;libignition&#45;gazebo</title>
<path fill="none" stroke="black" d="M2077.58,-1311.52C2077.62,-1291.89 2074.72,-1260.16 2057.7,-1240 2043.43,-1223.1 2023.02,-1211.54 2002.45,-1203.66"/>
<polygon fill="black" stroke="black" points="2003.73,-1200.4 1993.13,-1200.36 2001.39,-1207 2003.73,-1200.4"/>
</g>
<!-- cartographer -->
<g id="node34" class="node">
<title>cartographer</title>
<g id="a_node34"><a xlink:href="https://github.com/conda-forge/cartographer-feedstock" xlink:title="cartographer">
<ellipse fill="#35b779" stroke="black" cx="538.7" cy="-206" rx="76.99" ry="18"/>
<text text-anchor="middle" x="538.7" y="-201.33" font-family="Times,serif" font-size="14.00">cartographer</text>
</a>
</g>
</g>
<!-- go&#45;cockroach&#45;&gt;cartographer -->
<!-- google&#45;cloud&#45;cpp -->
<g id="node33" class="node">
<title>google&#45;cloud&#45;cpp</title>
<g id="a_node33"><a xlink:href="https://github.com/conda-forge/google-cloud-cpp-feedstock" xlink:title="google cloud cpp">
<ellipse fill="#fde725" stroke="black" cx="311.7" cy="-1294" rx="95.4" ry="18"/>
<text text-anchor="middle" x="311.7" y="-1289.33" font-family="Times,serif" font-size="14.00">google cloud cpp</text>
</a>
</g>
</g>
<!-- google&#45;cloud&#45;cpp&#45;&gt;tiledb -->
<g id="edge37" class="edge">
<title>google&#45;cloud&#45;cpp&#45;&gt;tiledb</title>
<path fill="none" stroke="black" d="M311.7,-1275.7C311.7,-1268.41 311.7,-1259.73 311.7,-1251.54"/>
<polygon fill="black" stroke="black" points="315.2,-1251.62 311.7,-1241.62 308.2,-1251.62 315.2,-1251.62"/>
</g>
<!-- sentencepiece -->
<g id="node35" class="node">
<title>sentencepiece</title>
<g id="a_node35"><a xlink:href="https://github.com/conda-forge/sentencepiece-feedstock" xlink:title="sentencepiece">
<ellipse fill="#35b779" stroke="black" cx="538.7" cy="-134" rx="82.25" ry="18"/>
<text text-anchor="middle" x="538.7" y="-129.32" font-family="Times,serif" font-size="14.00">sentencepiece</text>
</a>
</g>
</g>
<!-- cartographer&#45;&gt;sentencepiece -->
<!-- s2geometry -->
<g id="node36" class="node">
<title>s2geometry</title>
<g id="a_node36"><a xlink:href="https://github.com/conda-forge/s2geometry-feedstock" xlink:title="s2geometry">
<ellipse fill="#35b779" stroke="black" cx="538.7" cy="-90" rx="70.68" ry="18"/>
<text text-anchor="middle" x="538.7" y="-85.33" font-family="Times,serif" font-size="14.00">s2geometry</text>
</a>
</g>
</g>
<!-- s2geography -->
<g id="node37" class="node">
<title>s2geography</title>
<g id="a_node37"><a xlink:href="https://github.com/conda-forge/s2geography-feedstock" xlink:title="s2geography">
<ellipse fill="#fde725" stroke="black" cx="538.7" cy="-18" rx="75.94" ry="18"/>
<text text-anchor="middle" x="538.7" y="-13.32" font-family="Times,serif" font-size="14.00">s2geography</text>
</a>
</g>
</g>
<!-- s2geometry&#45;&gt;s2geography -->
<g id="edge40" class="edge">
<title>s2geometry&#45;&gt;s2geography</title>
<path fill="none" stroke="black" d="M538.7,-71.7C538.7,-64.41 538.7,-55.73 538.7,-47.54"/>
<polygon fill="black" stroke="black" points="542.2,-47.62 538.7,-37.62 535.2,-47.62 542.2,-47.62"/>
</g>
<!-- tomviz -->
<g id="node38" class="node">
<title>tomviz</title>
<g id="a_node38"><a xlink:href="https://github.com/conda-forge/tomviz-feedstock" xlink:title="tomviz">
<ellipse fill="#35b779" stroke="black" cx="1330.7" cy="-1618" rx="44.9" ry="18"/>
<text text-anchor="middle" x="1330.7" y="-1613.33" font-family="Times,serif" font-size="14.00">tomviz</text>
</a>
</g>
</g>
<!-- protozfits -->
<g id="node39" class="node">
<title>protozfits</title>
<g id="a_node39"><a xlink:href="https://github.com/conda-forge/protozfits-feedstock" xlink:title="protozfits">
<ellipse fill="#35b779" stroke="black" cx="1330.7" cy="-1546" rx="59.1" ry="18"/>
<text text-anchor="middle" x="1330.7" y="-1541.33" font-family="Times,serif" font-size="14.00">protozfits</text>
</a>
</g>
</g>
<!-- tomviz&#45;&gt;protozfits -->
<!-- or&#45;tools -->
<g id="node40" class="node">
<title>or&#45;tools</title>
<g id="a_node40"><a xlink:href="https://github.com/conda-forge/or-tools-feedstock" xlink:title="or tools">
<ellipse fill="#35b779" stroke="black" cx="1330.7" cy="-1474" rx="49.1" ry="18"/>
<text text-anchor="middle" x="1330.7" y="-1469.33" font-family="Times,serif" font-size="14.00">or tools</text>
</a>
</g>
</g>
<!-- protozfits&#45;&gt;or&#45;tools -->
<!-- bear -->
<g id="node41" class="node">
<title>bear</title>
<g id="a_node41"><a xlink:href="https://github.com/conda-forge/bear-feedstock" xlink:title="bear">
<ellipse fill="#35b779" stroke="black" cx="1330.7" cy="-1402" rx="33.85" ry="18"/>
<text text-anchor="middle" x="1330.7" y="-1397.33" font-family="Times,serif" font-size="14.00">bear</text>
</a>
</g>
</g>
<!-- or&#45;tools&#45;&gt;bear -->
<!-- cpp&#45;opentelemetry&#45;sdk -->
<g id="node42" class="node">
<title>cpp&#45;opentelemetry&#45;sdk</title>
<g id="a_node42"><a xlink:href="https://github.com/conda-forge/cpp-opentelemetry-sdk-feedstock" xlink:title="cpp opentelemetry sdk">
<ellipse fill="#35b779" stroke="black" cx="1330.7" cy="-1330" rx="125.92" ry="18"/>
<text text-anchor="middle" x="1330.7" y="-1325.33" font-family="Times,serif" font-size="14.00">cpp opentelemetry sdk</text>
</a>
</g>
</g>
<!-- bear&#45;&gt;cpp&#45;opentelemetry&#45;sdk -->
<!-- singlejar -->
<g id="node43" class="node">
<title>singlejar</title>
<g id="a_node43"><a xlink:href="https://github.com/conda-forge/singlejar-feedstock" xlink:title="singlejar">
<ellipse fill="#35b779" stroke="black" cx="1330.7" cy="-1258" rx="54.89" ry="18"/>
<text text-anchor="middle" x="1330.7" y="-1253.33" font-family="Times,serif" font-size="14.00">singlejar</text>
</a>
</g>
</g>
<!-- cpp&#45;opentelemetry&#45;sdk&#45;&gt;singlejar -->
<!-- xilinx&#45;runtime -->
<g id="node44" class="node">
<title>xilinx&#45;runtime</title>
<g id="a_node44"><a xlink:href="https://github.com/conda-forge/xilinx-runtime-feedstock" xlink:title="xilinx runtime">
<ellipse fill="#35b779" stroke="black" cx="1330.7" cy="-1186" rx="81.72" ry="18"/>
<text text-anchor="middle" x="1330.7" y="-1181.33" font-family="Times,serif" font-size="14.00">xilinx runtime</text>
</a>
</g>
</g>
<!-- singlejar&#45;&gt;xilinx&#45;runtime -->
<!-- libpulsar -->
<g id="node45" class="node">
<title>libpulsar</title>
<g id="a_node45"><a xlink:href="https://github.com/conda-forge/libpulsar-feedstock" xlink:title="libpulsar">
<ellipse fill="#35b779" stroke="black" cx="1330.7" cy="-1114" rx="55.42" ry="18"/>
<text text-anchor="middle" x="1330.7" y="-1109.33" font-family="Times,serif" font-size="14.00">libpulsar</text>
</a>
</g>
</g>
<!-- xilinx&#45;runtime&#45;&gt;libpulsar -->
<!-- gnss&#45;sdr -->
<g id="node54" class="node">
<title>gnss&#45;sdr</title>
<g id="a_node54"><a xlink:href="https://github.com/conda-forge/gnss-sdr-feedstock" xlink:title="gnss sdr">
<ellipse fill="#35b779" stroke="black" cx="1330.7" cy="-1042" rx="53.84" ry="18"/>
<text text-anchor="middle" x="1330.7" y="-1037.33" font-family="Times,serif" font-size="14.00">gnss sdr</text>
</a>
</g>
</g>
<!-- libpulsar&#45;&gt;gnss&#45;sdr -->
<!-- gz&#45;msgs -->
<g id="node46" class="node">
<title>gz&#45;msgs</title>
<g id="a_node46"><a xlink:href="https://github.com/conda-forge/gz-msgs-feedstock" xlink:title="gz msgs">
<ellipse fill="#35b779" stroke="black" cx="1291.7" cy="-638" rx="52.26" ry="18"/>
<text text-anchor="middle" x="1291.7" y="-633.33" font-family="Times,serif" font-size="14.00">gz msgs</text>
</a>
</g>
</g>
<!-- gz&#45;transport -->
<g id="node47" class="node">
<title>gz&#45;transport</title>
<g id="a_node47"><a xlink:href="https://github.com/conda-forge/gz-transport-feedstock" xlink:title="gz transport">
<ellipse fill="#fde725" stroke="black" cx="1241.7" cy="-566" rx="73.3" ry="18"/>
<text text-anchor="middle" x="1241.7" y="-561.33" font-family="Times,serif" font-size="14.00">gz transport</text>
</a>
</g>
</g>
<!-- gz&#45;msgs&#45;&gt;gz&#45;transport -->
<g id="edge48" class="edge">
<title>gz&#45;msgs&#45;&gt;gz&#45;transport</title>
<path fill="none" stroke="black" d="M1279.6,-620.05C1273.82,-611.97 1266.79,-602.12 1260.35,-593.11"/>
<polygon fill="black" stroke="black" points="1263.23,-591.12 1254.57,-585.02 1257.54,-595.19 1263.23,-591.12"/>
</g>
<!-- gz&#45;fuel&#45;tools -->
<g id="node48" class="node">
<title>gz&#45;fuel&#45;tools</title>
<g id="a_node48"><a xlink:href="https://github.com/conda-forge/gz-fuel-tools-feedstock" xlink:title="gz fuel tools">
<ellipse fill="#fde725" stroke="black" cx="1442.7" cy="-566" rx="72.25" ry="18"/>
<text text-anchor="middle" x="1442.7" y="-561.33" font-family="Times,serif" font-size="14.00">gz fuel tools</text>
</a>
</g>
</g>
<!-- gz&#45;msgs&#45;&gt;gz&#45;fuel&#45;tools -->
<g id="edge49" class="edge">
<title>gz&#45;msgs&#45;&gt;gz&#45;fuel&#45;tools</title>
<path fill="none" stroke="black" d="M1321.89,-623C1344.03,-612.74 1374.42,-598.65 1399.18,-587.17"/>
<polygon fill="black" stroke="black" points="1400.44,-590.45 1408.04,-583.07 1397.49,-584.1 1400.44,-590.45"/>
</g>
<!-- gz&#45;gui -->
<g id="node49" class="node">
<title>gz&#45;gui</title>
<g id="a_node49"><a xlink:href="https://github.com/conda-forge/gz-gui-feedstock" xlink:title="gz gui">
<ellipse fill="#fde725" stroke="black" cx="1150.7" cy="-494" rx="41.74" ry="18"/>
<text text-anchor="middle" x="1150.7" y="-489.32" font-family="Times,serif" font-size="14.00">gz gui</text>
</a>
</g>
</g>
<!-- gz&#45;msgs&#45;&gt;gz&#45;gui -->
<g id="edge50" class="edge">
<title>gz&#45;msgs&#45;&gt;gz&#45;gui</title>
<path fill="none" stroke="black" d="M1243.89,-630.38C1214.82,-623.73 1179.59,-610.45 1159.7,-584 1146.85,-566.92 1145.22,-542.47 1146.45,-523.53"/>
<polygon fill="black" stroke="black" points="1149.92,-524.08 1147.41,-513.78 1142.95,-523.39 1149.92,-524.08"/>
</g>
<!-- gz&#45;sensors -->
<g id="node50" class="node">
<title>gz&#45;sensors</title>
<g id="a_node50"><a xlink:href="https://github.com/conda-forge/gz-sensors-feedstock" xlink:title="gz sensors">
<ellipse fill="#fde725" stroke="black" cx="1350.7" cy="-494" rx="64.36" ry="18"/>
<text text-anchor="middle" x="1350.7" y="-489.32" font-family="Times,serif" font-size="14.00">gz sensors</text>
</a>
</g>
</g>
<!-- gz&#45;msgs&#45;&gt;gz&#45;sensors -->
<g id="edge51" class="edge">
<title>gz&#45;msgs&#45;&gt;gz&#45;sensors</title>
<path fill="none" stroke="black" d="M1303.19,-620.4C1309.85,-610.23 1318.02,-596.77 1323.7,-584 1332.44,-564.37 1339.39,-541.1 1344.05,-523.28"/>
<polygon fill="black" stroke="black" points="1347.42,-524.2 1346.47,-513.65 1340.63,-522.5 1347.42,-524.2"/>
</g>
<!-- gz&#45;sim -->
<g id="node51" class="node">
<title>gz&#45;sim</title>
<g id="a_node51"><a xlink:href="https://github.com/conda-forge/gz-sim-feedstock" xlink:title="gz sim">
<ellipse fill="#fde725" stroke="black" cx="1321.7" cy="-422" rx="43.84" ry="18"/>
<text text-anchor="middle" x="1321.7" y="-417.32" font-family="Times,serif" font-size="14.00">gz sim</text>
</a>
</g>
</g>
<!-- gz&#45;msgs&#45;&gt;gz&#45;sim -->
<g id="edge52" class="edge">
<title>gz&#45;msgs&#45;&gt;gz&#45;sim</title>
<path fill="none" stroke="black" d="M1342.02,-632.71C1403.3,-626.32 1501.42,-611.94 1523.7,-584 1576.46,-517.83 1441.66,-461.72 1367.16,-436.8"/>
<polygon fill="black" stroke="black" points="1368.66,-433.61 1358.07,-433.83 1366.48,-440.27 1368.66,-433.61"/>
</g>
<!-- gz&#45;launch -->
<g id="node52" class="node">
<title>gz&#45;launch</title>
<g id="a_node52"><a xlink:href="https://github.com/conda-forge/gz-launch-feedstock" xlink:title="gz launch">
<ellipse fill="#fde725" stroke="black" cx="1201.7" cy="-350" rx="59.1" ry="18"/>
<text text-anchor="middle" x="1201.7" y="-345.32" font-family="Times,serif" font-size="14.00">gz launch</text>
</a>
</g>
</g>
<!-- gz&#45;msgs&#45;&gt;gz&#45;launch -->
<g id="edge53" class="edge">
<title>gz&#45;msgs&#45;&gt;gz&#45;launch</title>
<path fill="none" stroke="black" d="M1245.99,-628.99C1214.52,-621.61 1173.23,-608.03 1143.7,-584 1114.61,-560.33 1109.86,-548.1 1099.7,-512 1084.29,-457.24 1135.59,-403.41 1170.94,-373.97"/>
<polygon fill="black" stroke="black" points="1172.78,-376.98 1178.36,-367.97 1168.38,-371.54 1172.78,-376.98"/>
</g>
<!-- gz&#45;transport&#45;&gt;gz&#45;gui -->
<g id="edge54" class="edge">
<title>gz&#45;transport&#45;&gt;gz&#45;gui</title>
<path fill="none" stroke="black" d="M1220.13,-548.41C1208.04,-539.11 1192.79,-527.38 1179.66,-517.28"/>
<polygon fill="black" stroke="black" points="1181.82,-514.52 1171.76,-511.2 1177.55,-520.07 1181.82,-514.52"/>
</g>
<!-- gz&#45;transport&#45;&gt;gz&#45;sensors -->
<g id="edge55" class="edge">
<title>gz&#45;transport&#45;&gt;gz&#45;sensors</title>
<path fill="none" stroke="black" d="M1266.98,-548.76C1281.67,-539.33 1300.37,-527.32 1316.38,-517.04"/>
<polygon fill="black" stroke="black" points="1318.14,-520.07 1324.66,-511.72 1314.35,-514.18 1318.14,-520.07"/>
</g>
<!-- gz&#45;transport&#45;&gt;gz&#45;sim -->
<g id="edge56" class="edge">
<title>gz&#45;transport&#45;&gt;gz&#45;sim</title>
<path fill="none" stroke="black" d="M1246.87,-547.87C1252.85,-529.39 1263.68,-499.46 1277.7,-476 1283.62,-466.1 1291.33,-456.13 1298.63,-447.55"/>
<polygon fill="black" stroke="black" points="1301.02,-450.13 1305.01,-440.32 1295.77,-445.5 1301.02,-450.13"/>
</g>
<!-- gz&#45;transport&#45;&gt;gz&#45;launch -->
<g id="edge57" class="edge">
<title>gz&#45;transport&#45;&gt;gz&#45;launch</title>
<path fill="none" stroke="black" d="M1238.49,-547.85C1231.63,-511.14 1215.47,-424.66 1207.03,-379.53"/>
<polygon fill="black" stroke="black" points="1210.48,-378.91 1205.2,-369.72 1203.6,-380.19 1210.48,-378.91"/>
</g>
<!-- gz&#45;fuel&#45;tools&#45;&gt;gz&#45;sim -->
<g id="edge58" class="edge">
<title>gz&#45;fuel&#45;tools&#45;&gt;gz&#45;sim</title>
<path fill="none" stroke="black" d="M1443.2,-547.82C1442.9,-528.47 1439.69,-496.99 1423.7,-476 1409.76,-457.7 1387.69,-445.13 1367.64,-436.85"/>
<polygon fill="black" stroke="black" points="1369.09,-433.65 1358.5,-433.33 1366.57,-440.19 1369.09,-433.65"/>
</g>
<!-- gz&#45;gui&#45;&gt;gz&#45;sim -->
<g id="edge59" class="edge">
<title>gz&#45;gui&#45;&gt;gz&#45;sim</title>
<path fill="none" stroke="black" d="M1180.1,-480.97C1207.94,-469.57 1250,-452.35 1281.06,-439.64"/>
<polygon fill="black" stroke="black" points="1282.21,-442.95 1290.14,-435.92 1279.56,-436.47 1282.21,-442.95"/>
</g>
<!-- gz&#45;gui&#45;&gt;gz&#45;launch -->
<g id="edge60" class="edge">
<title>gz&#45;gui&#45;&gt;gz&#45;launch</title>
<path fill="none" stroke="black" d="M1156.85,-475.87C1165.51,-451.78 1181.37,-407.6 1191.72,-378.77"/>
<polygon fill="black" stroke="black" points="1194.93,-380.21 1195.01,-369.61 1188.34,-377.84 1194.93,-380.21"/>
</g>
<!-- gz&#45;sensors&#45;&gt;gz&#45;sim -->
<g id="edge61" class="edge">
<title>gz&#45;sensors&#45;&gt;gz&#45;sim</title>
<path fill="none" stroke="black" d="M1343.53,-475.7C1340.41,-468.15 1336.66,-459.12 1333.17,-450.68"/>
<polygon fill="black" stroke="black" points="1336.43,-449.4 1329.36,-441.5 1329.96,-452.08 1336.43,-449.4"/>
</g>
<!-- gz&#45;sim&#45;&gt;gz&#45;launch -->
<g id="edge62" class="edge">
<title>gz&#45;sim&#45;&gt;gz&#45;launch</title>
<path fill="none" stroke="black" d="M1297.13,-406.67C1280.15,-396.77 1257.29,-383.43 1238.2,-372.29"/>
<polygon fill="black" stroke="black" points="1240.03,-369.31 1229.63,-367.29 1236.51,-375.36 1240.03,-369.31"/>
</g>
<!-- labmaze -->
<g id="node53" class="node">
<title>labmaze</title>
<g id="a_node53"><a xlink:href="https://github.com/conda-forge/labmaze-feedstock" xlink:title="labmaze">
<ellipse fill="#35b779" stroke="black" cx="1023.7" cy="-1150" rx="52.79" ry="18"/>
<text text-anchor="middle" x="1023.7" y="-1145.33" font-family="Times,serif" font-size="14.00">labmaze</text>
</a>
</g>
</g>
<!-- labmaze&#45;&gt;ray&#45;packages -->
<g id="edge63" class="edge">
<title>labmaze&#45;&gt;ray&#45;packages</title>
<path fill="none" stroke="black" d="M1021.4,-1131.57C1017.8,-1111.39 1008.9,-1078.54 987.7,-1060 954.77,-1031.21 908.26,-1017.69 867.67,-1011.49"/>
<polygon fill="black" stroke="black" points="868.27,-1008.04 857.89,-1010.14 867.31,-1014.98 868.27,-1008.04"/>
</g>
<!-- tensorstore -->
<g id="node55" class="node">
<title>tensorstore</title>
<g id="a_node55"><a xlink:href="https://github.com/conda-forge/tensorstore-feedstock" xlink:title="tensorstore">
<ellipse fill="#35b779" stroke="black" cx="1330.7" cy="-970" rx="69.1" ry="18"/>
<text text-anchor="middle" x="1330.7" y="-965.33" font-family="Times,serif" font-size="14.00">tensorstore</text>
</a>
</g>
</g>
<!-- gnss&#45;sdr&#45;&gt;tensorstore -->
<!-- gcld3 -->
<g id="node56" class="node">
<title>gcld3</title>
<g id="a_node56"><a xlink:href="https://github.com/conda-forge/gcld3-feedstock" xlink:title="gcld3">
<ellipse fill="#35b779" stroke="black" cx="1330.7" cy="-898" rx="38.58" ry="18"/>
<text text-anchor="middle" x="1330.7" y="-893.33" font-family="Times,serif" font-size="14.00">gcld3</text>
</a>
</g>
</g>
<!-- tensorstore&#45;&gt;gcld3 -->
<!-- bloaty -->
<g id="node57" class="node">
<title>bloaty</title>
<g id="a_node57"><a xlink:href="https://github.com/conda-forge/bloaty-feedstock" xlink:title="bloaty">
<ellipse fill="#35b779" stroke="black" cx="1904.7" cy="-54" rx="42.26" ry="18"/>
<text text-anchor="middle" x="1904.7" y="-49.33" font-family="Times,serif" font-size="14.00">bloaty</text>
</a>
</g>
</g>
<!-- google&#45;cloud&#45;cpp&#45;compute -->
<g id="node58" class="node">
<title>google&#45;cloud&#45;cpp&#45;compute</title>
<g id="a_node58"><a xlink:href="https://github.com/conda-forge/google-cloud-cpp-compute-feedstock" xlink:title="google cloud cpp compute">
<ellipse fill="#35b779" stroke="black" cx="141.7" cy="-1366" rx="141.7" ry="18"/>
<text text-anchor="middle" x="141.7" y="-1361.33" font-family="Times,serif" font-size="14.00">google cloud cpp compute</text>
</a>
</g>
</g>
<!-- google&#45;cloud&#45;cpp&#45;compute&#45;&gt;google&#45;cloud&#45;cpp -->
<g id="edge67" class="edge">
<title>google&#45;cloud&#45;cpp&#45;compute&#45;&gt;google&#45;cloud&#45;cpp</title>
<path fill="none" stroke="black" d="M181.99,-1348.41C206.13,-1338.47 237,-1325.76 262.56,-1315.23"/>
<polygon fill="black" stroke="black" points="263.85,-1318.49 271.76,-1311.44 261.18,-1312.02 263.85,-1318.49"/>
</g>
<!-- google&#45;cloud&#45;cpp&#45;bigquery -->
<g id="node59" class="node">
<title>google&#45;cloud&#45;cpp&#45;bigquery</title>
<g id="a_node59"><a xlink:href="https://github.com/conda-forge/google-cloud-cpp-bigquery-feedstock" xlink:title="google cloud cpp bigquery">
<ellipse fill="#35b779" stroke="black" cx="311.7" cy="-1438" rx="143.28" ry="18"/>
<text text-anchor="middle" x="311.7" y="-1433.33" font-family="Times,serif" font-size="14.00">google cloud cpp bigquery</text>
</a>
</g>
</g>
<!-- google&#45;cloud&#45;cpp&#45;bigquery&#45;&gt;google&#45;cloud&#45;cpp -->
<g id="edge68" class="edge">
<title>google&#45;cloud&#45;cpp&#45;bigquery&#45;&gt;google&#45;cloud&#45;cpp</title>
<path fill="none" stroke="black" d="M311.7,-1419.59C311.7,-1395.61 311.7,-1352.14 311.7,-1323.42"/>
<polygon fill="black" stroke="black" points="315.2,-1323.62 311.7,-1313.62 308.2,-1323.62 315.2,-1323.62"/>
</g>
<!-- google&#45;cloud&#45;cpp&#45;ai -->
<g id="node60" class="node">
<title>google&#45;cloud&#45;cpp&#45;ai</title>
<g id="a_node60"><a xlink:href="https://github.com/conda-forge/google-cloud-cpp-ai-feedstock" xlink:title="google cloud cpp ai">
<ellipse fill="#35b779" stroke="black" cx="482.7" cy="-1510" rx="107.5" ry="18"/>
<text text-anchor="middle" x="482.7" y="-1505.33" font-family="Times,serif" font-size="14.00">google cloud cpp ai</text>
</a>
</g>
</g>
<!-- google&#45;cloud&#45;cpp&#45;ai&#45;&gt;google&#45;cloud&#45;cpp -->
<g id="edge69" class="edge">
<title>google&#45;cloud&#45;cpp&#45;ai&#45;&gt;google&#45;cloud&#45;cpp</title>
<path fill="none" stroke="black" d="M482.34,-1491.7C481.22,-1472.81 477.25,-1442.27 463.7,-1420 436.27,-1374.91 386.6,-1338.72 351.51,-1317.11"/>
<polygon fill="black" stroke="black" points="353.71,-1314.34 343.33,-1312.19 350.1,-1320.34 353.71,-1314.34"/>
</g>
</g>
</svg>
