<?xml version="1.0" encoding="UTF-8" standalone="no"?>
<!DOCTYPE svg PUBLIC "-//W3C//DTD SVG 1.1//EN"
 "http://www.w3.org/Graphics/SVG/1.1/DTD/svg11.dtd">
<!-- Generated by graphviz version 9.0.0 (20231125.0833)
 -->
<!-- Pages: 1 -->
<svg width="2109pt" height="1644pt"
 viewBox="0.00 0.00 2109.18 1644.00" xmlns="http://www.w3.org/2000/svg" xmlns:xlink="http://www.w3.org/1999/xlink">
<g id="graph0" class="graph" transform="scale(1 1) rotate(0) translate(4 1640)">
<polygon fill="white" stroke="none" points="-4,4 -4,-1640 2105.18,-1640 2105.18,4 -4,4"/>
<!-- arrow&#45;cpp -->
<g id="node1" class="node">
<title>arrow&#45;cpp</title>
<g id="a_node1"><a xlink:href="https://github.com/conda-forge/arrow-cpp-feedstock/pull/1323" xlink:title="arrow cpp ❎">
<ellipse fill="#31688e" stroke="black" cx="453.28" cy="-1150" rx="76.99" ry="18"/>
<text text-anchor="middle" x="453.28" y="-1145.33" font-family="Times,serif" font-size="14.00" fill="white">arrow cpp ❎</text>
</a>
</g>
</g>
<!-- ray&#45;packages -->
<g id="node2" class="node">
<title>ray&#45;packages</title>
<g id="a_node2"><a xlink:href="https://github.com/conda-forge/ray-packages-feedstock" xlink:title="ray packages">
<ellipse fill="#fde725" stroke="black" cx="634.28" cy="-1078" rx="76.99" ry="18"/>
<text text-anchor="middle" x="634.28" y="-1073.33" font-family="Times,serif" font-size="14.00">ray packages</text>
</a>
</g>
</g>
<!-- arrow&#45;cpp&#45;&gt;ray&#45;packages -->
<g id="edge1" class="edge">
<title>arrow&#45;cpp&#45;&gt;ray&#45;packages</title>
<path fill="none" stroke="black" d="M491.66,-1134.15C518.93,-1123.61 555.76,-1109.36 585.17,-1097.99"/>
<polygon fill="black" stroke="black" points="586.16,-1101.36 594.22,-1094.49 583.63,-1094.83 586.16,-1101.36"/>
</g>
<!-- arcticdb -->
<g id="node3" class="node">
<title>arcticdb</title>
<g id="a_node3"><a xlink:href="https://github.com/conda-forge/arcticdb-feedstock" xlink:title="arcticdb">
<ellipse fill="#fde725" stroke="black" cx="453.28" cy="-1078" rx="52.26" ry="18"/>
<text text-anchor="middle" x="453.28" y="-1073.33" font-family="Times,serif" font-size="14.00">arcticdb</text>
</a>
</g>
</g>
<!-- arrow&#45;cpp&#45;&gt;arcticdb -->
<g id="edge2" class="edge">
<title>arrow&#45;cpp&#45;&gt;arcticdb</title>
<path fill="none" stroke="black" d="M453.28,-1131.7C453.28,-1124.41 453.28,-1115.73 453.28,-1107.54"/>
<polygon fill="black" stroke="black" points="456.78,-1107.62 453.28,-1097.62 449.78,-1107.62 456.78,-1107.62"/>
</g>
<!-- bazel -->
<g id="node4" class="node">
<title>bazel</title>
<g id="a_node4"><a xlink:href="https://github.com/conda-forge/bazel-feedstock" xlink:title="bazel">
<ellipse fill="#ff8c00" stroke="black" cx="476.28" cy="-854" rx="37.53" ry="18"/>
<text text-anchor="middle" x="476.28" y="-849.33" font-family="Times,serif" font-size="14.00">bazel</text>
</a>
</g>
</g>
<!-- mosh -->
<g id="node5" class="node">
<title>mosh</title>
<g id="a_node5"><a xlink:href="https://github.com/conda-forge/mosh-feedstock" xlink:title="mosh">
<ellipse fill="#35b779" stroke="black" cx="476.28" cy="-782" rx="38.06" ry="18"/>
<text text-anchor="middle" x="476.28" y="-777.33" font-family="Times,serif" font-size="14.00">mosh</text>
</a>
</g>
</g>
<!-- bazel&#45;&gt;mosh -->
<!-- onnx -->
<g id="node6" class="node">
<title>onnx</title>
<g id="a_node6"><a xlink:href="https://github.com/conda-forge/onnx-feedstock" xlink:title="onnx">
<ellipse fill="#35b779" stroke="black" cx="476.28" cy="-710" rx="35.42" ry="18"/>
<text text-anchor="middle" x="476.28" y="-705.33" font-family="Times,serif" font-size="14.00">onnx</text>
</a>
</g>
</g>
<!-- mosh&#45;&gt;onnx -->
<!-- paraview -->
<g id="node9" class="node">
<title>paraview</title>
<g id="a_node9"><a xlink:href="https://github.com/conda-forge/paraview-feedstock" xlink:title="paraview">
<ellipse fill="#35b779" stroke="black" cx="476.28" cy="-638" rx="57" ry="18"/>
<text text-anchor="middle" x="476.28" y="-633.33" font-family="Times,serif" font-size="14.00">paraview</text>
</a>
</g>
</g>
<!-- onnx&#45;&gt;paraview -->
<!-- mysql -->
<g id="node7" class="node">
<title>mysql</title>
<g id="a_node7"><a xlink:href="https://github.com/conda-forge/mysql-feedstock/pull/96" xlink:title="mysql ✓">
<ellipse fill="#31688e" stroke="black" cx="1781.28" cy="-530" rx="49.1" ry="18"/>
<text text-anchor="middle" x="1781.28" y="-525.33" font-family="Times,serif" font-size="14.00" fill="white">mysql ✓</text>
</a>
</g>
</g>
<!-- mysql&#45;connector&#45;python -->
<g id="node8" class="node">
<title>mysql&#45;connector&#45;python</title>
<g id="a_node8"><a xlink:href="https://github.com/conda-forge/mysql-connector-python-feedstock" xlink:title="mysql connector python">
<ellipse fill="#fde725" stroke="black" cx="1781.28" cy="-458" rx="131.7" ry="18"/>
<text text-anchor="middle" x="1781.28" y="-453.32" font-family="Times,serif" font-size="14.00">mysql connector python</text>
</a>
</g>
</g>
<!-- mysql&#45;&gt;mysql&#45;connector&#45;python -->
<g id="edge5" class="edge">
<title>mysql&#45;&gt;mysql&#45;connector&#45;python</title>
<path fill="none" stroke="black" d="M1781.28,-511.7C1781.28,-504.41 1781.28,-495.73 1781.28,-487.54"/>
<polygon fill="black" stroke="black" points="1784.78,-487.62 1781.28,-477.62 1777.78,-487.62 1784.78,-487.62"/>
</g>
<!-- tensorflow -->
<g id="node13" class="node">
<title>tensorflow</title>
<g id="a_node13"><a xlink:href="https://github.com/conda-forge/tensorflow-feedstock" xlink:title="tensorflow">
<ellipse fill="#35b779" stroke="black" cx="476.28" cy="-566" rx="63.84" ry="18"/>
<text text-anchor="middle" x="476.28" y="-561.33" font-family="Times,serif" font-size="14.00">tensorflow</text>
</a>
</g>
</g>
<!-- paraview&#45;&gt;tensorflow -->
<!-- opencv -->
<g id="node10" class="node">
<title>opencv</title>
<g id="a_node10"><a xlink:href="https://github.com/conda-forge/opencv-feedstock" xlink:title="opencv">
<ellipse fill="#35b779" stroke="black" cx="312.28" cy="-1150" rx="46.47" ry="18"/>
<text text-anchor="middle" x="312.28" y="-1145.33" font-family="Times,serif" font-size="14.00">opencv</text>
</a>
</g>
</g>
<!-- opencv&#45;&gt;ray&#45;packages -->
<g id="edge7" class="edge">
<title>opencv&#45;&gt;ray&#45;packages</title>
<path fill="none" stroke="black" d="M347.04,-1137.66C353.72,-1135.65 360.69,-1133.67 367.28,-1132 432.61,-1115.47 508.01,-1100.91 561.98,-1091.25"/>
<polygon fill="black" stroke="black" points="562.44,-1094.73 571.68,-1089.53 561.22,-1087.83 562.44,-1094.73"/>
</g>
<!-- imp -->
<g id="node11" class="node">
<title>imp</title>
<g id="a_node11"><a xlink:href="https://github.com/conda-forge/imp-feedstock" xlink:title="imp">
<ellipse fill="#fde725" stroke="black" cx="333.28" cy="-1078" rx="30.16" ry="18"/>
<text text-anchor="middle" x="333.28" y="-1073.33" font-family="Times,serif" font-size="14.00">imp</text>
</a>
</g>
</g>
<!-- opencv&#45;&gt;imp -->
<g id="edge8" class="edge">
<title>opencv&#45;&gt;imp</title>
<path fill="none" stroke="black" d="M317.47,-1131.7C319.71,-1124.24 322.38,-1115.32 324.89,-1106.97"/>
<polygon fill="black" stroke="black" points="328.19,-1108.14 327.71,-1097.55 321.49,-1106.13 328.19,-1108.14"/>
</g>
<!-- gazebo&#45;yarp&#45;plugins -->
<g id="node12" class="node">
<title>gazebo&#45;yarp&#45;plugins</title>
<g id="a_node12"><a xlink:href="https://github.com/conda-forge/gazebo-yarp-plugins-feedstock" xlink:title="gazebo yarp plugins">
<ellipse fill="#fde725" stroke="black" cx="173.28" cy="-1078" rx="112.24" ry="18"/>
<text text-anchor="middle" x="173.28" y="-1073.33" font-family="Times,serif" font-size="14.00">gazebo yarp plugins</text>
</a>
</g>
</g>
<!-- opencv&#45;&gt;gazebo&#45;yarp&#45;plugins -->
<g id="edge9" class="edge">
<title>opencv&#45;&gt;gazebo&#45;yarp&#45;plugins</title>
<path fill="none" stroke="black" d="M284.82,-1135.17C265.35,-1125.37 238.84,-1112.02 216.54,-1100.79"/>
<polygon fill="black" stroke="black" points="218.17,-1097.69 207.67,-1096.32 215.02,-1103.94 218.17,-1097.69"/>
</g>
<!-- r&#45;protolite -->
<g id="node18" class="node">
<title>r&#45;protolite</title>
<g id="a_node18"><a xlink:href="https://github.com/conda-forge/r-protolite-feedstock" xlink:title="r protolite">
<ellipse fill="#35b779" stroke="black" cx="476.28" cy="-494" rx="62.26" ry="18"/>
<text text-anchor="middle" x="476.28" y="-489.32" font-family="Times,serif" font-size="14.00">r protolite</text>
</a>
</g>
</g>
<!-- tensorflow&#45;&gt;r&#45;protolite -->
<!-- qgis -->
<g id="node14" class="node">
<title>qgis</title>
<g id="a_node14"><a xlink:href="https://github.com/conda-forge/qgis-feedstock" xlink:title="qgis">
<ellipse fill="#fde725" stroke="black" cx="113.28" cy="-1222" rx="32.27" ry="18"/>
<text text-anchor="middle" x="113.28" y="-1217.33" font-family="Times,serif" font-size="14.00">qgis</text>
</a>
</g>
</g>
<!-- tiledb -->
<g id="node15" class="node">
<title>tiledb</title>
<g id="a_node15"><a xlink:href="https://github.com/conda-forge/tiledb-feedstock" xlink:title="tiledb">
<ellipse fill="#fde725" stroke="black" cx="143.28" cy="-1294" rx="40.16" ry="18"/>
<text text-anchor="middle" x="143.28" y="-1289.33" font-family="Times,serif" font-size="14.00">tiledb</text>
</a>
</g>
</g>
<!-- tiledb&#45;&gt;qgis -->
<g id="edge11" class="edge">
<title>tiledb&#45;&gt;qgis</title>
<path fill="none" stroke="black" d="M136.02,-1276.05C132.7,-1268.32 128.69,-1258.96 124.96,-1250.27"/>
<polygon fill="black" stroke="black" points="128.23,-1248.99 121.07,-1241.18 121.79,-1251.75 128.23,-1248.99"/>
</g>
<!-- gazebo -->
<g id="node16" class="node">
<title>gazebo</title>
<g id="a_node16"><a xlink:href="https://github.com/conda-forge/gazebo-feedstock" xlink:title="gazebo">
<ellipse fill="#fde725" stroke="black" cx="173.28" cy="-1150" rx="46.47" ry="18"/>
<text text-anchor="middle" x="173.28" y="-1145.33" font-family="Times,serif" font-size="14.00">gazebo</text>
</a>
</g>
</g>
<!-- tiledb&#45;&gt;gazebo -->
<g id="edge12" class="edge">
<title>tiledb&#45;&gt;gazebo</title>
<path fill="none" stroke="black" d="M146.96,-1275.59C152.04,-1251.5 161.29,-1207.75 167.35,-1179.03"/>
<polygon fill="black" stroke="black" points="170.71,-1180.1 169.35,-1169.59 163.86,-1178.65 170.71,-1180.1"/>
</g>
<!-- gazebo&#45;&gt;gazebo&#45;yarp&#45;plugins -->
<g id="edge13" class="edge">
<title>gazebo&#45;&gt;gazebo&#45;yarp&#45;plugins</title>
<path fill="none" stroke="black" d="M173.28,-1131.7C173.28,-1124.41 173.28,-1115.73 173.28,-1107.54"/>
<polygon fill="black" stroke="black" points="176.78,-1107.62 173.28,-1097.62 169.78,-1107.62 176.78,-1107.62"/>
</g>
<!-- pyaudi -->
<g id="node17" class="node">
<title>pyaudi</title>
<g id="a_node17"><a xlink:href="https://github.com/conda-forge/pyaudi-feedstock" xlink:title="pyaudi">
<ellipse fill="#fde725" stroke="black" cx="1207.28" cy="-18" rx="44.9" ry="18"/>
<text text-anchor="middle" x="1207.28" y="-13.32" font-family="Times,serif" font-size="14.00">pyaudi</text>
</a>
</g>
</g>
<!-- mongodb -->
<g id="node19" class="node">
<title>mongodb</title>
<g id="a_node19"><a xlink:href="https://github.com/conda-forge/mongodb-feedstock/pull/84" xlink:title="mongodb ❎">
<ellipse fill="#31688e" stroke="black" cx="476.28" cy="-422" rx="72.78" ry="18"/>
<text text-anchor="middle" x="476.28" y="-417.32" font-family="Times,serif" font-size="14.00" fill="white">mongodb ❎</text>
</a>
</g>
</g>
<!-- r&#45;protolite&#45;&gt;mongodb -->
<!-- zaber&#45;motion -->
<g id="node21" class="node">
<title>zaber&#45;motion</title>
<g id="a_node21"><a xlink:href="https://github.com/conda-forge/zaber-motion-feedstock" xlink:title="zaber motion">
<ellipse fill="#35b779" stroke="black" cx="476.28" cy="-350" rx="76.99" ry="18"/>
<text text-anchor="middle" x="476.28" y="-345.32" font-family="Times,serif" font-size="14.00">zaber motion</text>
</a>
</g>
</g>
<!-- mongodb&#45;&gt;zaber&#45;motion -->
<!-- pytorch&#45;cpu -->
<g id="node20" class="node">
<title>pytorch&#45;cpu</title>
<g id="a_node20"><a xlink:href="https://github.com/conda-forge/pytorch-cpu-feedstock/pull/221" xlink:title="pytorch cpu ❎">
<ellipse fill="#31688e" stroke="black" cx="634.28" cy="-1150" rx="85.93" ry="18"/>
<text text-anchor="middle" x="634.28" y="-1145.33" font-family="Times,serif" font-size="14.00" fill="white">pytorch cpu ❎</text>
</a>
</g>
</g>
<!-- pytorch&#45;cpu&#45;&gt;ray&#45;packages -->
<g id="edge16" class="edge">
<title>pytorch&#45;cpu&#45;&gt;ray&#45;packages</title>
<path fill="none" stroke="black" d="M634.28,-1131.7C634.28,-1124.41 634.28,-1115.73 634.28,-1107.54"/>
<polygon fill="black" stroke="black" points="637.78,-1107.62 634.28,-1097.62 630.78,-1107.62 637.78,-1107.62"/>
</g>
<!-- go&#45;cockroach -->
<g id="node32" class="node">
<title>go&#45;cockroach</title>
<g id="a_node32"><a xlink:href="https://github.com/conda-forge/go-cockroach-feedstock" xlink:title="go cockroach">
<ellipse fill="#35b779" stroke="black" cx="476.28" cy="-278" rx="76.46" ry="18"/>
<text text-anchor="middle" x="476.28" y="-273.32" font-family="Times,serif" font-size="14.00">go cockroach</text>
</a>
</g>
</g>
<!-- zaber&#45;motion&#45;&gt;go&#45;cockroach -->
<!-- jaxlib -->
<g id="node22" class="node">
<title>jaxlib</title>
<g id="a_node22"><a xlink:href="https://github.com/conda-forge/jaxlib-feedstock" xlink:title="jaxlib">
<ellipse fill="#ff8c00" stroke="black" cx="760.28" cy="-1222" rx="38.58" ry="18"/>
<text text-anchor="middle" x="760.28" y="-1217.33" font-family="Times,serif" font-size="14.00">jaxlib</text>
</a>
</g>
</g>
<!-- mujoco -->
<g id="node23" class="node">
<title>mujoco</title>
<g id="a_node23"><a xlink:href="https://github.com/conda-forge/mujoco-feedstock" xlink:title="mujoco">
<ellipse fill="#fde725" stroke="black" cx="785.28" cy="-1150" rx="47" ry="18"/>
<text text-anchor="middle" x="785.28" y="-1145.33" font-family="Times,serif" font-size="14.00">mujoco</text>
</a>
</g>
</g>
<!-- jaxlib&#45;&gt;mujoco -->
<g id="edge18" class="edge">
<title>jaxlib&#45;&gt;mujoco</title>
<path fill="none" stroke="black" d="M766.33,-1204.05C769.02,-1196.52 772.26,-1187.44 775.3,-1178.94"/>
<polygon fill="black" stroke="black" points="778.53,-1180.3 778.6,-1169.7 771.94,-1177.94 778.53,-1180.3"/>
</g>
<!-- mujoco&#45;&gt;ray&#45;packages -->
<g id="edge19" class="edge">
<title>mujoco&#45;&gt;ray&#45;packages</title>
<path fill="none" stroke="black" d="M756.16,-1135.5C734.04,-1125.25 703.25,-1110.97 678.14,-1099.34"/>
<polygon fill="black" stroke="black" points="679.7,-1096.2 669.15,-1095.17 676.75,-1102.55 679.7,-1096.2"/>
</g>
<!-- obake -->
<g id="node24" class="node">
<title>obake</title>
<g id="a_node24"><a xlink:href="https://github.com/conda-forge/obake-feedstock" xlink:title="obake">
<ellipse fill="#35b779" stroke="black" cx="1207.28" cy="-90" rx="40.69" ry="18"/>
<text text-anchor="middle" x="1207.28" y="-85.33" font-family="Times,serif" font-size="14.00">obake</text>
</a>
</g>
</g>
<!-- obake&#45;&gt;pyaudi -->
<g id="edge20" class="edge">
<title>obake&#45;&gt;pyaudi</title>
<path fill="none" stroke="black" d="M1207.28,-71.7C1207.28,-64.41 1207.28,-55.73 1207.28,-47.54"/>
<polygon fill="black" stroke="black" points="1210.78,-47.62 1207.28,-37.62 1203.78,-47.62 1210.78,-47.62"/>
</g>
<!-- libignition&#45;transport4 -->
<g id="node25" class="node">
<title>libignition&#45;transport4</title>
<g id="a_node25"><a xlink:href="https://github.com/conda-forge/libignition-transport4-feedstock" xlink:title="libignition transport4">
<ellipse fill="#fde725" stroke="black" cx="1666.28" cy="-1330" rx="119.08" ry="18"/>
<text text-anchor="middle" x="1666.28" y="-1325.33" font-family="Times,serif" font-size="14.00">libignition transport4</text>
</a>
</g>
</g>
<!-- libignition&#45;sensors -->
<g id="node26" class="node">
<title>libignition&#45;sensors</title>
<g id="a_node26"><a xlink:href="https://github.com/conda-forge/libignition-sensors-feedstock" xlink:title="libignition sensors">
<ellipse fill="#fde725" stroke="black" cx="1821.28" cy="-1258" rx="103.82" ry="18"/>
<text text-anchor="middle" x="1821.28" y="-1253.33" font-family="Times,serif" font-size="14.00">libignition sensors</text>
</a>
</g>
</g>
<!-- libignition&#45;transport4&#45;&gt;libignition&#45;sensors -->
<g id="edge21" class="edge">
<title>libignition&#45;transport4&#45;&gt;libignition&#45;sensors</title>
<path fill="none" stroke="black" d="M1703.01,-1312.41C1724.51,-1302.7 1751.87,-1290.34 1774.86,-1279.96"/>
<polygon fill="black" stroke="black" points="1776.02,-1283.28 1783.7,-1275.97 1773.14,-1276.9 1776.02,-1283.28"/>
</g>
<!-- libignition&#45;gui -->
<g id="node27" class="node">
<title>libignition&#45;gui</title>
<g id="a_node27"><a xlink:href="https://github.com/conda-forge/libignition-gui-feedstock" xlink:title="libignition gui">
<ellipse fill="#fde725" stroke="black" cx="1542.28" cy="-1258" rx="81.2" ry="18"/>
<text text-anchor="middle" x="1542.28" y="-1253.33" font-family="Times,serif" font-size="14.00">libignition gui</text>
</a>
</g>
</g>
<!-- libignition&#45;transport4&#45;&gt;libignition&#45;gui -->
<g id="edge22" class="edge">
<title>libignition&#45;transport4&#45;&gt;libignition&#45;gui</title>
<path fill="none" stroke="black" d="M1636.58,-1312.23C1619.85,-1302.79 1598.77,-1290.89 1580.78,-1280.74"/>
<polygon fill="black" stroke="black" points="1582.63,-1277.76 1572.2,-1275.89 1579.19,-1283.86 1582.63,-1277.76"/>
</g>
<!-- libignition&#45;gazebo -->
<g id="node28" class="node">
<title>libignition&#45;gazebo</title>
<g id="a_node28"><a xlink:href="https://github.com/conda-forge/libignition-gazebo-feedstock" xlink:title="libignition gazebo">
<ellipse fill="#fde725" stroke="black" cx="1801.28" cy="-1186" rx="100.66" ry="18"/>
<text text-anchor="middle" x="1801.28" y="-1181.33" font-family="Times,serif" font-size="14.00">libignition gazebo</text>
</a>
</g>
</g>
<!-- libignition&#45;transport4&#45;&gt;libignition&#45;gazebo -->
<g id="edge23" class="edge">
<title>libignition&#45;transport4&#45;&gt;libignition&#45;gazebo</title>
<path fill="none" stroke="black" d="M1670.95,-1311.8C1676.93,-1292.43 1688.89,-1260.94 1708.28,-1240 1720.39,-1226.91 1736.5,-1216.19 1751.89,-1207.89"/>
<polygon fill="black" stroke="black" points="1753.21,-1211.16 1760.51,-1203.49 1750.02,-1204.92 1753.21,-1211.16"/>
</g>
<!-- libignition&#45;launch -->
<g id="node29" class="node">
<title>libignition&#45;launch</title>
<g id="a_node29"><a xlink:href="https://github.com/conda-forge/libignition-launch-feedstock" xlink:title="libignition launch">
<ellipse fill="#fde725" stroke="black" cx="1736.28" cy="-1114" rx="98.56" ry="18"/>
<text text-anchor="middle" x="1736.28" y="-1109.33" font-family="Times,serif" font-size="14.00">libignition launch</text>
</a>
</g>
</g>
<!-- libignition&#45;transport4&#45;&gt;libignition&#45;launch -->
<g id="edge24" class="edge">
<title>libignition&#45;transport4&#45;&gt;libignition&#45;launch</title>
<path fill="none" stroke="black" d="M1665.95,-1311.68C1666.01,-1281.2 1669.04,-1216.62 1691.28,-1168 1695.85,-1158 1702.86,-1148.41 1710,-1140.2"/>
<polygon fill="black" stroke="black" points="1712.45,-1142.72 1716.66,-1133 1707.3,-1137.97 1712.45,-1142.72"/>
</g>
<!-- libignition&#45;sensors&#45;&gt;libignition&#45;gazebo -->
<g id="edge25" class="edge">
<title>libignition&#45;sensors&#45;&gt;libignition&#45;gazebo</title>
<path fill="none" stroke="black" d="M1816.33,-1239.7C1814.2,-1232.24 1811.65,-1223.32 1809.27,-1214.97"/>
<polygon fill="black" stroke="black" points="1812.69,-1214.21 1806.58,-1205.56 1805.96,-1216.14 1812.69,-1214.21"/>
</g>
<!-- libignition&#45;gui&#45;&gt;libignition&#45;gazebo -->
<g id="edge26" class="edge">
<title>libignition&#45;gui&#45;&gt;libignition&#45;gazebo</title>
<path fill="none" stroke="black" d="M1592.52,-1243.42C1633.48,-1232.35 1691.62,-1216.64 1736.14,-1204.6"/>
<polygon fill="black" stroke="black" points="1736.95,-1208.01 1745.69,-1202.02 1735.12,-1201.25 1736.95,-1208.01"/>
</g>
<!-- libignition&#45;gui&#45;&gt;libignition&#45;launch -->
<g id="edge27" class="edge">
<title>libignition&#45;gui&#45;&gt;libignition&#45;launch</title>
<path fill="none" stroke="black" d="M1557.62,-1240.18C1575.52,-1221.17 1606.61,-1190 1637.28,-1168 1653.96,-1156.03 1673.68,-1144.94 1691.1,-1136.03"/>
<polygon fill="black" stroke="black" points="1692.33,-1139.33 1699.71,-1131.72 1689.2,-1133.07 1692.33,-1139.33"/>
</g>
<!-- libignition&#45;gazebo&#45;&gt;libignition&#45;launch -->
<g id="edge28" class="edge">
<title>libignition&#45;gazebo&#45;&gt;libignition&#45;launch</title>
<path fill="none" stroke="black" d="M1785.54,-1168.05C1777.72,-1159.63 1768.11,-1149.28 1759.46,-1139.97"/>
<polygon fill="black" stroke="black" points="1762.27,-1137.84 1752.9,-1132.9 1757.14,-1142.61 1762.27,-1137.84"/>
</g>
<!-- libignition&#45;msgs1 -->
<g id="node30" class="node">
<title>libignition&#45;msgs1</title>
<g id="a_node30"><a xlink:href="https://github.com/conda-forge/libignition-msgs1-feedstock" xlink:title="libignition msgs1">
<ellipse fill="#35b779" stroke="black" cx="1883.28" cy="-1402" rx="98.03" ry="18"/>
<text text-anchor="middle" x="1883.28" y="-1397.33" font-family="Times,serif" font-size="14.00">libignition msgs1</text>
</a>
</g>
</g>
<!-- libignition&#45;msgs1&#45;&gt;libignition&#45;transport4 -->
<g id="edge29" class="edge">
<title>libignition&#45;msgs1&#45;&gt;libignition&#45;transport4</title>
<path fill="none" stroke="black" d="M1836.19,-1385.81C1803.91,-1375.4 1760.81,-1361.5 1726.1,-1350.3"/>
<polygon fill="black" stroke="black" points="1727.18,-1346.97 1716.59,-1347.23 1725.03,-1353.63 1727.18,-1346.97"/>
</g>
<!-- libignition&#45;msgs1&#45;&gt;libignition&#45;sensors -->
<g id="edge30" class="edge">
<title>libignition&#45;msgs1&#45;&gt;libignition&#45;sensors</title>
<path fill="none" stroke="black" d="M1861.49,-1384.2C1850.87,-1374.76 1838.98,-1362.06 1832.28,-1348 1823.31,-1329.18 1820.72,-1305.7 1820.28,-1287.59"/>
<polygon fill="black" stroke="black" points="1823.78,-1287.8 1820.27,-1277.8 1816.78,-1287.81 1823.78,-1287.8"/>
</g>
<!-- libignition&#45;msgs1&#45;&gt;libignition&#45;gui -->
<g id="edge31" class="edge">
<title>libignition&#45;msgs1&#45;&gt;libignition&#45;gui</title>
<path fill="none" stroke="black" d="M1785.73,-1399.69C1695.14,-1396.15 1569.65,-1384.56 1538.28,-1348 1524.2,-1331.59 1526.69,-1306.57 1531.85,-1287.23"/>
<polygon fill="black" stroke="black" points="1535.16,-1288.36 1534.74,-1277.78 1528.47,-1286.31 1535.16,-1288.36"/>
</g>
<!-- libignition&#45;msgs1&#45;&gt;libignition&#45;gazebo -->
<g id="edge32" class="edge">
<title>libignition&#45;msgs1&#45;&gt;libignition&#45;gazebo</title>
<path fill="none" stroke="black" d="M1967.9,-1392.52C2030.71,-1382.26 2101.18,-1359.93 2074.28,-1312 2037.38,-1246.25 1955.03,-1214.9 1890.37,-1200.06"/>
<polygon fill="black" stroke="black" points="1891.33,-1196.69 1880.82,-1197.97 1889.84,-1203.53 1891.33,-1196.69"/>
</g>
<!-- libignition&#45;msgs1&#45;&gt;libignition&#45;launch -->
<g id="edge33" class="edge">
<title>libignition&#45;msgs1&#45;&gt;libignition&#45;launch</title>
<path fill="none" stroke="black" d="M1961.91,-1390.94C2013.51,-1382.54 2074.3,-1368.59 2090.28,-1348 2100.09,-1335.36 2095.4,-1327.16 2090.28,-1312 2052.38,-1199.96 1911.52,-1150.11 1819.32,-1129.09"/>
<polygon fill="black" stroke="black" points="1820.32,-1125.73 1809.8,-1126.99 1818.82,-1132.56 1820.32,-1125.73"/>
</g>
<!-- libignition&#45;fuel&#45;tools -->
<g id="node31" class="node">
<title>libignition&#45;fuel&#45;tools</title>
<g id="a_node31"><a xlink:href="https://github.com/conda-forge/libignition-fuel-tools-feedstock" xlink:title="libignition fuel tools">
<ellipse fill="#fde725" stroke="black" cx="1953.28" cy="-1330" rx="111.71" ry="18"/>
<text text-anchor="middle" x="1953.28" y="-1325.33" font-family="Times,serif" font-size="14.00">libignition fuel tools</text>
</a>
</g>
</g>
<!-- libignition&#45;msgs1&#45;&gt;libignition&#45;fuel&#45;tools -->
<g id="edge34" class="edge">
<title>libignition&#45;msgs1&#45;&gt;libignition&#45;fuel&#45;tools</title>
<path fill="none" stroke="black" d="M1900.22,-1384.05C1908.52,-1375.75 1918.69,-1365.58 1927.9,-1356.38"/>
<polygon fill="black" stroke="black" points="1930.34,-1358.89 1934.93,-1349.35 1925.39,-1353.94 1930.34,-1358.89"/>
</g>
<!-- libignition&#45;fuel&#45;tools&#45;&gt;libignition&#45;gazebo -->
<g id="edge35" class="edge">
<title>libignition&#45;fuel&#45;tools&#45;&gt;libignition&#45;gazebo</title>
<path fill="none" stroke="black" d="M1954.16,-1311.52C1954.2,-1291.89 1951.29,-1260.16 1934.28,-1240 1920.01,-1223.1 1899.59,-1211.54 1879.02,-1203.66"/>
<polygon fill="black" stroke="black" points="1880.31,-1200.4 1869.71,-1200.36 1877.97,-1207 1880.31,-1200.4"/>
</g>
<!-- cartographer -->
<g id="node34" class="node">
<title>cartographer</title>
<g id="a_node34"><a xlink:href="https://github.com/conda-forge/cartographer-feedstock" xlink:title="cartographer">
<ellipse fill="#35b779" stroke="black" cx="476.28" cy="-206" rx="76.99" ry="18"/>
<text text-anchor="middle" x="476.28" y="-201.33" font-family="Times,serif" font-size="14.00">cartographer</text>
</a>
</g>
</g>
<!-- go&#45;cockroach&#45;&gt;cartographer -->
<!-- google&#45;cloud&#45;cpp -->
<g id="node33" class="node">
<title>google&#45;cloud&#45;cpp</title>
<g id="a_node33"><a xlink:href="https://github.com/conda-forge/google-cloud-cpp-feedstock" xlink:title="google cloud cpp">
<ellipse fill="#fde725" stroke="black" cx="143.28" cy="-1366" rx="95.4" ry="18"/>
<text text-anchor="middle" x="143.28" y="-1361.33" font-family="Times,serif" font-size="14.00">google cloud cpp</text>
</a>
</g>
</g>
<!-- google&#45;cloud&#45;cpp&#45;&gt;tiledb -->
<g id="edge37" class="edge">
<title>google&#45;cloud&#45;cpp&#45;&gt;tiledb</title>
<path fill="none" stroke="black" d="M143.28,-1347.7C143.28,-1340.41 143.28,-1331.73 143.28,-1323.54"/>
<polygon fill="black" stroke="black" points="146.78,-1323.62 143.28,-1313.62 139.78,-1323.62 146.78,-1323.62"/>
</g>
<!-- tomviz -->
<g id="node35" class="node">
<title>tomviz</title>
<g id="a_node35"><a xlink:href="https://github.com/conda-forge/tomviz-feedstock" xlink:title="tomviz">
<ellipse fill="#35b779" stroke="black" cx="476.28" cy="-134" rx="44.9" ry="18"/>
<text text-anchor="middle" x="476.28" y="-129.32" font-family="Times,serif" font-size="14.00">tomviz</text>
</a>
</g>
</g>
<!-- cartographer&#45;&gt;tomviz -->
<!-- s2geometry -->
<g id="node36" class="node">
<title>s2geometry</title>
<g id="a_node36"><a xlink:href="https://github.com/conda-forge/s2geometry-feedstock" xlink:title="s2geometry">
<ellipse fill="#35b779" stroke="black" cx="476.28" cy="-90" rx="70.68" ry="18"/>
<text text-anchor="middle" x="476.28" y="-85.33" font-family="Times,serif" font-size="14.00">s2geometry</text>
</a>
</g>
</g>
<!-- s2geography -->
<g id="node37" class="node">
<title>s2geography</title>
<g id="a_node37"><a xlink:href="https://github.com/conda-forge/s2geography-feedstock" xlink:title="s2geography">
<ellipse fill="#fde725" stroke="black" cx="476.28" cy="-18" rx="75.94" ry="18"/>
<text text-anchor="middle" x="476.28" y="-13.32" font-family="Times,serif" font-size="14.00">s2geography</text>
</a>
</g>
</g>
<!-- s2geometry&#45;&gt;s2geography -->
<g id="edge40" class="edge">
<title>s2geometry&#45;&gt;s2geography</title>
<path fill="none" stroke="black" d="M476.28,-71.7C476.28,-64.41 476.28,-55.73 476.28,-47.54"/>
<polygon fill="black" stroke="black" points="479.78,-47.62 476.28,-37.62 472.78,-47.62 479.78,-47.62"/>
</g>
<!-- protozfits -->
<g id="node38" class="node">
<title>protozfits</title>
<g id="a_node38"><a xlink:href="https://github.com/conda-forge/protozfits-feedstock" xlink:title="protozfits">
<ellipse fill="#35b779" stroke="black" cx="1207.28" cy="-1618" rx="59.1" ry="18"/>
<text text-anchor="middle" x="1207.28" y="-1613.33" font-family="Times,serif" font-size="14.00">protozfits</text>
</a>
</g>
</g>
<!-- or&#45;tools -->
<g id="node39" class="node">
<title>or&#45;tools</title>
<g id="a_node39"><a xlink:href="https://github.com/conda-forge/or-tools-feedstock" xlink:title="or tools">
<ellipse fill="#35b779" stroke="black" cx="1207.28" cy="-1546" rx="49.1" ry="18"/>
<text text-anchor="middle" x="1207.28" y="-1541.33" font-family="Times,serif" font-size="14.00">or tools</text>
</a>
</g>
</g>
<!-- protozfits&#45;&gt;or&#45;tools -->
<!-- bear -->
<g id="node40" class="node">
<title>bear</title>
<g id="a_node40"><a xlink:href="https://github.com/conda-forge/bear-feedstock" xlink:title="bear">
<ellipse fill="#35b779" stroke="black" cx="1207.28" cy="-1474" rx="33.85" ry="18"/>
<text text-anchor="middle" x="1207.28" y="-1469.33" font-family="Times,serif" font-size="14.00">bear</text>
</a>
</g>
</g>
<!-- or&#45;tools&#45;&gt;bear -->
<!-- cpp&#45;opentelemetry&#45;sdk -->
<g id="node41" class="node">
<title>cpp&#45;opentelemetry&#45;sdk</title>
<g id="a_node41"><a xlink:href="https://github.com/conda-forge/cpp-opentelemetry-sdk-feedstock" xlink:title="cpp opentelemetry sdk">
<ellipse fill="#35b779" stroke="black" cx="1207.28" cy="-1402" rx="125.92" ry="18"/>
<text text-anchor="middle" x="1207.28" y="-1397.33" font-family="Times,serif" font-size="14.00">cpp opentelemetry sdk</text>
</a>
</g>
</g>
<!-- bear&#45;&gt;cpp&#45;opentelemetry&#45;sdk -->
<!-- singlejar -->
<g id="node42" class="node">
<title>singlejar</title>
<g id="a_node42"><a xlink:href="https://github.com/conda-forge/singlejar-feedstock" xlink:title="singlejar">
<ellipse fill="#35b779" stroke="black" cx="1207.28" cy="-1330" rx="54.89" ry="18"/>
<text text-anchor="middle" x="1207.28" y="-1325.33" font-family="Times,serif" font-size="14.00">singlejar</text>
</a>
</g>
</g>
<!-- cpp&#45;opentelemetry&#45;sdk&#45;&gt;singlejar -->
<!-- xilinx&#45;runtime -->
<g id="node43" class="node">
<title>xilinx&#45;runtime</title>
<g id="a_node43"><a xlink:href="https://github.com/conda-forge/xilinx-runtime-feedstock" xlink:title="xilinx runtime">
<ellipse fill="#35b779" stroke="black" cx="1207.28" cy="-1258" rx="81.72" ry="18"/>
<text text-anchor="middle" x="1207.28" y="-1253.33" font-family="Times,serif" font-size="14.00">xilinx runtime</text>
</a>
</g>
</g>
<!-- singlejar&#45;&gt;xilinx&#45;runtime -->
<!-- libpulsar -->
<g id="node44" class="node">
<title>libpulsar</title>
<g id="a_node44"><a xlink:href="https://github.com/conda-forge/libpulsar-feedstock" xlink:title="libpulsar">
<ellipse fill="#35b779" stroke="black" cx="1207.28" cy="-1186" rx="55.42" ry="18"/>
<text text-anchor="middle" x="1207.28" y="-1181.33" font-family="Times,serif" font-size="14.00">libpulsar</text>
</a>
</g>
</g>
<!-- xilinx&#45;runtime&#45;&gt;libpulsar -->
<!-- gnss&#45;sdr -->
<g id="node53" class="node">
<title>gnss&#45;sdr</title>
<g id="a_node53"><a xlink:href="https://github.com/conda-forge/gnss-sdr-feedstock" xlink:title="gnss sdr">
<ellipse fill="#35b779" stroke="black" cx="1207.28" cy="-1114" rx="53.84" ry="18"/>
<text text-anchor="middle" x="1207.28" y="-1109.33" font-family="Times,serif" font-size="14.00">gnss sdr</text>
</a>
</g>
</g>
<!-- libpulsar&#45;&gt;gnss&#45;sdr -->
<!-- gz&#45;msgs -->
<g id="node45" class="node">
<title>gz&#45;msgs</title>
<g id="a_node45"><a xlink:href="https://github.com/conda-forge/gz-msgs-feedstock" xlink:title="gz msgs">
<ellipse fill="#35b779" stroke="black" cx="1168.28" cy="-638" rx="52.26" ry="18"/>
<text text-anchor="middle" x="1168.28" y="-633.33" font-family="Times,serif" font-size="14.00">gz msgs</text>
</a>
</g>
</g>
<!-- gz&#45;transport -->
<g id="node46" class="node">
<title>gz&#45;transport</title>
<g id="a_node46"><a xlink:href="https://github.com/conda-forge/gz-transport-feedstock" xlink:title="gz transport">
<ellipse fill="#fde725" stroke="black" cx="1118.28" cy="-566" rx="73.3" ry="18"/>
<text text-anchor="middle" x="1118.28" y="-561.33" font-family="Times,serif" font-size="14.00">gz transport</text>
</a>
</g>
</g>
<!-- gz&#45;msgs&#45;&gt;gz&#45;transport -->
<g id="edge47" class="edge">
<title>gz&#45;msgs&#45;&gt;gz&#45;transport</title>
<path fill="none" stroke="black" d="M1156.17,-620.05C1150.4,-611.97 1143.36,-602.12 1136.93,-593.11"/>
<polygon fill="black" stroke="black" points="1139.81,-591.12 1131.15,-585.02 1134.11,-595.19 1139.81,-591.12"/>
</g>
<!-- gz&#45;fuel&#45;tools -->
<g id="node47" class="node">
<title>gz&#45;fuel&#45;tools</title>
<g id="a_node47"><a xlink:href="https://github.com/conda-forge/gz-fuel-tools-feedstock" xlink:title="gz fuel tools">
<ellipse fill="#fde725" stroke="black" cx="1319.28" cy="-566" rx="72.25" ry="18"/>
<text text-anchor="middle" x="1319.28" y="-561.33" font-family="Times,serif" font-size="14.00">gz fuel tools</text>
</a>
</g>
</g>
<!-- gz&#45;msgs&#45;&gt;gz&#45;fuel&#45;tools -->
<g id="edge48" class="edge">
<title>gz&#45;msgs&#45;&gt;gz&#45;fuel&#45;tools</title>
<path fill="none" stroke="black" d="M1198.47,-623C1220.61,-612.74 1251,-598.65 1275.76,-587.17"/>
<polygon fill="black" stroke="black" points="1277.01,-590.45 1284.61,-583.07 1274.07,-584.1 1277.01,-590.45"/>
</g>
<!-- gz&#45;gui -->
<g id="node48" class="node">
<title>gz&#45;gui</title>
<g id="a_node48"><a xlink:href="https://github.com/conda-forge/gz-gui-feedstock" xlink:title="gz gui">
<ellipse fill="#fde725" stroke="black" cx="1027.28" cy="-494" rx="41.74" ry="18"/>
<text text-anchor="middle" x="1027.28" y="-489.32" font-family="Times,serif" font-size="14.00">gz gui</text>
</a>
</g>
</g>
<!-- gz&#45;msgs&#45;&gt;gz&#45;gui -->
<g id="edge49" class="edge">
<title>gz&#45;msgs&#45;&gt;gz&#45;gui</title>
<path fill="none" stroke="black" d="M1120.47,-630.38C1091.4,-623.73 1056.17,-610.45 1036.28,-584 1023.43,-566.92 1021.79,-542.47 1023.03,-523.53"/>
<polygon fill="black" stroke="black" points="1026.49,-524.08 1023.98,-513.78 1019.53,-523.39 1026.49,-524.08"/>
</g>
<!-- gz&#45;sensors -->
<g id="node49" class="node">
<title>gz&#45;sensors</title>
<g id="a_node49"><a xlink:href="https://github.com/conda-forge/gz-sensors-feedstock" xlink:title="gz sensors">
<ellipse fill="#fde725" stroke="black" cx="1227.28" cy="-494" rx="64.36" ry="18"/>
<text text-anchor="middle" x="1227.28" y="-489.32" font-family="Times,serif" font-size="14.00">gz sensors</text>
</a>
</g>
</g>
<!-- gz&#45;msgs&#45;&gt;gz&#45;sensors -->
<g id="edge50" class="edge">
<title>gz&#45;msgs&#45;&gt;gz&#45;sensors</title>
<path fill="none" stroke="black" d="M1179.77,-620.4C1186.43,-610.23 1194.59,-596.77 1200.28,-584 1209.02,-564.37 1215.97,-541.1 1220.62,-523.28"/>
<polygon fill="black" stroke="black" points="1224,-524.2 1223.05,-513.65 1217.21,-522.5 1224,-524.2"/>
</g>
<!-- gz&#45;sim -->
<g id="node50" class="node">
<title>gz&#45;sim</title>
<g id="a_node50"><a xlink:href="https://github.com/conda-forge/gz-sim-feedstock" xlink:title="gz sim">
<ellipse fill="#fde725" stroke="black" cx="1198.28" cy="-422" rx="43.84" ry="18"/>
<text text-anchor="middle" x="1198.28" y="-417.32" font-family="Times,serif" font-size="14.00">gz sim</text>
</a>
</g>
</g>
<!-- gz&#45;msgs&#45;&gt;gz&#45;sim -->
<g id="edge51" class="edge">
<title>gz&#45;msgs&#45;&gt;gz&#45;sim</title>
<path fill="none" stroke="black" d="M1218.6,-632.71C1279.88,-626.32 1378,-611.94 1400.28,-584 1453.04,-517.83 1318.24,-461.72 1243.73,-436.8"/>
<polygon fill="black" stroke="black" points="1245.24,-433.61 1234.65,-433.83 1243.06,-440.27 1245.24,-433.61"/>
</g>
<!-- gz&#45;launch -->
<g id="node51" class="node">
<title>gz&#45;launch</title>
<g id="a_node51"><a xlink:href="https://github.com/conda-forge/gz-launch-feedstock" xlink:title="gz launch">
<ellipse fill="#fde725" stroke="black" cx="1078.28" cy="-350" rx="59.1" ry="18"/>
<text text-anchor="middle" x="1078.28" y="-345.32" font-family="Times,serif" font-size="14.00">gz launch</text>
</a>
</g>
</g>
<!-- gz&#45;msgs&#45;&gt;gz&#45;launch -->
<g id="edge52" class="edge">
<title>gz&#45;msgs&#45;&gt;gz&#45;launch</title>
<path fill="none" stroke="black" d="M1122.57,-628.99C1091.1,-621.61 1049.81,-608.03 1020.28,-584 991.19,-560.33 986.43,-548.1 976.28,-512 960.87,-457.24 1012.16,-403.41 1047.52,-373.97"/>
<polygon fill="black" stroke="black" points="1049.36,-376.98 1054.93,-367.97 1044.96,-371.54 1049.36,-376.98"/>
</g>
<!-- gz&#45;transport&#45;&gt;gz&#45;gui -->
<g id="edge53" class="edge">
<title>gz&#45;transport&#45;&gt;gz&#45;gui</title>
<path fill="none" stroke="black" d="M1096.71,-548.41C1084.62,-539.11 1069.37,-527.38 1056.24,-517.28"/>
<polygon fill="black" stroke="black" points="1058.39,-514.52 1048.33,-511.2 1054.13,-520.07 1058.39,-514.52"/>
</g>
<!-- gz&#45;transport&#45;&gt;gz&#45;sensors -->
<g id="edge54" class="edge">
<title>gz&#45;transport&#45;&gt;gz&#45;sensors</title>
<path fill="none" stroke="black" d="M1143.56,-548.76C1158.24,-539.33 1176.95,-527.32 1192.95,-517.04"/>
<polygon fill="black" stroke="black" points="1194.71,-520.07 1201.24,-511.72 1190.93,-514.18 1194.71,-520.07"/>
</g>
<!-- gz&#45;transport&#45;&gt;gz&#45;sim -->
<g id="edge55" class="edge">
<title>gz&#45;transport&#45;&gt;gz&#45;sim</title>
<path fill="none" stroke="black" d="M1123.45,-547.87C1129.42,-529.39 1140.26,-499.46 1154.28,-476 1160.2,-466.1 1167.9,-456.13 1175.21,-447.55"/>
<polygon fill="black" stroke="black" points="1177.6,-450.13 1181.59,-440.32 1172.35,-445.5 1177.6,-450.13"/>
</g>
<!-- gz&#45;transport&#45;&gt;gz&#45;launch -->
<g id="edge56" class="edge">
<title>gz&#45;transport&#45;&gt;gz&#45;launch</title>
<path fill="none" stroke="black" d="M1115.07,-547.85C1108.21,-511.14 1092.05,-424.66 1083.61,-379.53"/>
<polygon fill="black" stroke="black" points="1087.05,-378.91 1081.78,-369.72 1080.17,-380.19 1087.05,-378.91"/>
</g>
<!-- gz&#45;fuel&#45;tools&#45;&gt;gz&#45;sim -->
<g id="edge57" class="edge">
<title>gz&#45;fuel&#45;tools&#45;&gt;gz&#45;sim</title>
<path fill="none" stroke="black" d="M1319.78,-547.82C1319.48,-528.47 1316.27,-496.99 1300.28,-476 1286.34,-457.7 1264.27,-445.13 1244.22,-436.85"/>
<polygon fill="black" stroke="black" points="1245.66,-433.65 1235.07,-433.33 1243.15,-440.19 1245.66,-433.65"/>
</g>
<!-- gz&#45;gui&#45;&gt;gz&#45;sim -->
<g id="edge58" class="edge">
<title>gz&#45;gui&#45;&gt;gz&#45;sim</title>
<path fill="none" stroke="black" d="M1056.67,-480.97C1084.52,-469.57 1126.58,-452.35 1157.63,-439.64"/>
<polygon fill="black" stroke="black" points="1158.79,-442.95 1166.72,-435.92 1156.14,-436.47 1158.79,-442.95"/>
</g>
<!-- gz&#45;gui&#45;&gt;gz&#45;launch -->
<g id="edge59" class="edge">
<title>gz&#45;gui&#45;&gt;gz&#45;launch</title>
<path fill="none" stroke="black" d="M1033.43,-475.87C1042.08,-451.78 1057.95,-407.6 1068.3,-378.77"/>
<polygon fill="black" stroke="black" points="1071.51,-380.21 1071.59,-369.61 1064.92,-377.84 1071.51,-380.21"/>
</g>
<!-- gz&#45;sensors&#45;&gt;gz&#45;sim -->
<g id="edge60" class="edge">
<title>gz&#45;sensors&#45;&gt;gz&#45;sim</title>
<path fill="none" stroke="black" d="M1220.11,-475.7C1216.98,-468.15 1213.24,-459.12 1209.74,-450.68"/>
<polygon fill="black" stroke="black" points="1213,-449.4 1205.94,-441.5 1206.54,-452.08 1213,-449.4"/>
</g>
<!-- gz&#45;sim&#45;&gt;gz&#45;launch -->
<g id="edge61" class="edge">
<title>gz&#45;sim&#45;&gt;gz&#45;launch</title>
<path fill="none" stroke="black" d="M1173.7,-406.67C1156.73,-396.77 1133.87,-383.43 1114.77,-372.29"/>
<polygon fill="black" stroke="black" points="1116.61,-369.31 1106.21,-367.29 1113.08,-375.36 1116.61,-369.31"/>
</g>
<!-- labmaze -->
<g id="node52" class="node">
<title>labmaze</title>
<g id="a_node52"><a xlink:href="https://github.com/conda-forge/labmaze-feedstock/pull/10" xlink:title="labmaze ❎">
<ellipse fill="#31688e" stroke="black" cx="885.28" cy="-1222" rx="68.04" ry="18"/>
<text text-anchor="middle" x="885.28" y="-1217.33" font-family="Times,serif" font-size="14.00" fill="white">labmaze ❎</text>
</a>
</g>
</g>
<!-- labmaze&#45;&gt;ray&#45;packages -->
<g id="edge62" class="edge">
<title>labmaze&#45;&gt;ray&#45;packages</title>
<path fill="none" stroke="black" d="M881.42,-1203.86C875.97,-1183.64 864.04,-1150.45 841.28,-1132 807.16,-1104.35 760.34,-1090.94 719.86,-1084.51"/>
<polygon fill="black" stroke="black" points="720.52,-1081.07 710.12,-1083.09 719.51,-1088 720.52,-1081.07"/>
</g>
<!-- tensorstore -->
<g id="node54" class="node">
<title>tensorstore</title>
<g id="a_node54"><a xlink:href="https://github.com/conda-forge/tensorstore-feedstock" xlink:title="tensorstore">
<ellipse fill="#35b779" stroke="black" cx="1207.28" cy="-1042" rx="69.1" ry="18"/>
<text text-anchor="middle" x="1207.28" y="-1037.33" font-family="Times,serif" font-size="14.00">tensorstore</text>
</a>
</g>
</g>
<!-- gnss&#45;sdr&#45;&gt;tensorstore -->
<!-- gcld3 -->
<g id="node55" class="node">
<title>gcld3</title>
<g id="a_node55"><a xlink:href="https://github.com/conda-forge/gcld3-feedstock" xlink:title="gcld3">
<ellipse fill="#35b779" stroke="black" cx="1207.28" cy="-970" rx="38.58" ry="18"/>
<text text-anchor="middle" x="1207.28" y="-965.33" font-family="Times,serif" font-size="14.00">gcld3</text>
</a>
</g>
</g>
<!-- tensorstore&#45;&gt;gcld3 -->
<!-- bloaty -->
<g id="node56" class="node">
<title>bloaty</title>
<g id="a_node56"><a xlink:href="https://github.com/conda-forge/bloaty-feedstock" xlink:title="bloaty">
<ellipse fill="#35b779" stroke="black" cx="1207.28" cy="-898" rx="42.26" ry="18"/>
<text text-anchor="middle" x="1207.28" y="-893.33" font-family="Times,serif" font-size="14.00">bloaty</text>
</a>
</g>
</g>
<!-- gcld3&#45;&gt;bloaty -->
<!-- google&#45;cloud&#45;cpp&#45;bigquery -->
<g id="node57" class="node">
<title>google&#45;cloud&#45;cpp&#45;bigquery</title>
<g id="a_node57"><a xlink:href="https://github.com/conda-forge/google-cloud-cpp-bigquery-feedstock" xlink:title="google cloud cpp bigquery">
<ellipse fill="#ff8c00" stroke="black" cx="143.28" cy="-1438" rx="143.28" ry="18"/>
<text text-anchor="middle" x="143.28" y="-1433.33" font-family="Times,serif" font-size="14.00">google cloud cpp bigquery</text>
</a>
</g>
</g>
<!-- google&#45;cloud&#45;cpp&#45;bigquery&#45;&gt;google&#45;cloud&#45;cpp -->
<g id="edge67" class="edge">
<title>google&#45;cloud&#45;cpp&#45;bigquery&#45;&gt;google&#45;cloud&#45;cpp</title>
<path fill="none" stroke="black" d="M143.28,-1419.7C143.28,-1412.41 143.28,-1403.73 143.28,-1395.54"/>
<polygon fill="black" stroke="black" points="146.78,-1395.62 143.28,-1385.62 139.78,-1395.62 146.78,-1395.62"/>
</g>
</g>
</svg>
