<?xml version="1.0" encoding="UTF-8" standalone="no"?>
<!DOCTYPE svg PUBLIC "-//W3C//DTD SVG 1.1//EN"
 "http://www.w3.org/Graphics/SVG/1.1/DTD/svg11.dtd">
<!-- Generated by graphviz version 9.0.0 (20231125.0833)
 -->
<!-- Pages: 1 -->
<svg width="1380pt" height="1284pt"
 viewBox="0.00 0.00 1379.96 1284.00" xmlns="http://www.w3.org/2000/svg" xmlns:xlink="http://www.w3.org/1999/xlink">
<g id="graph0" class="graph" transform="scale(1 1) rotate(0) translate(4 1280)">
<polygon fill="white" stroke="none" points="-4,4 -4,-1280 1375.96,-1280 1375.96,4 -4,4"/>
<!-- mosh -->
<g id="node1" class="node">
<title>mosh</title>
<g id="a_node1"><a xlink:href="https://github.com/conda-forge/mosh-feedstock" xlink:title="mosh">
<ellipse fill="#35b779" stroke="black" cx="759.2" cy="-1258" rx="38.06" ry="18"/>
<text text-anchor="middle" x="759.2" y="-1253.33" font-family="Times,serif" font-size="14.00">mosh</text>
</a>
</g>
</g>
<!-- paraview -->
<g id="node2" class="node">
<title>paraview</title>
<g id="a_node2"><a xlink:href="https://github.com/conda-forge/paraview-feedstock/pull/231" xlink:title="paraview ❎">
<ellipse fill="#31688e" stroke="black" cx="759.2" cy="-1186" rx="72.25" ry="18"/>
<text text-anchor="middle" x="759.2" y="-1181.33" font-family="Times,serif" font-size="14.00" fill="white">paraview ❎</text>
</a>
</g>
</g>
<!-- mosh&#45;&gt;paraview -->
<!-- pyaudi -->
<g id="node3" class="node">
<title>pyaudi</title>
<g id="a_node3"><a xlink:href="https://github.com/conda-forge/pyaudi-feedstock" xlink:title="pyaudi">
<ellipse fill="#35b779" stroke="black" cx="759.2" cy="-1114" rx="44.9" ry="18"/>
<text text-anchor="middle" x="759.2" y="-1109.33" font-family="Times,serif" font-size="14.00">pyaudi</text>
</a>
</g>
</g>
<!-- paraview&#45;&gt;pyaudi -->
<!-- tensorflow -->
<g id="node8" class="node">
<title>tensorflow</title>
<g id="a_node8"><a xlink:href="https://github.com/conda-forge/tensorflow-feedstock" xlink:title="tensorflow">
<ellipse fill="#ff8c00" stroke="black" cx="759.2" cy="-1042" rx="63.84" ry="18"/>
<text text-anchor="middle" x="759.2" y="-1037.33" font-family="Times,serif" font-size="14.00">tensorflow</text>
</a>
</g>
</g>
<!-- pyaudi&#45;&gt;tensorflow -->
<!-- qgis -->
<g id="node4" class="node">
<title>qgis</title>
<g id="a_node4"><a xlink:href="https://github.com/conda-forge/qgis-feedstock" xlink:title="qgis">
<ellipse fill="#fde725" stroke="black" cx="699.2" cy="-350" rx="32.27" ry="18"/>
<text text-anchor="middle" x="699.2" y="-345.32" font-family="Times,serif" font-size="14.00">qgis</text>
</a>
</g>
</g>
<!-- tiledb -->
<g id="node5" class="node">
<title>tiledb</title>
<g id="a_node5"><a xlink:href="https://github.com/conda-forge/tiledb-feedstock" xlink:title="tiledb">
<ellipse fill="#ff8c00" stroke="black" cx="729.2" cy="-422" rx="40.16" ry="18"/>
<text text-anchor="middle" x="729.2" y="-417.32" font-family="Times,serif" font-size="14.00">tiledb</text>
</a>
</g>
</g>
<!-- tiledb&#45;&gt;qgis -->
<g id="edge3" class="edge">
<title>tiledb&#45;&gt;qgis</title>
<path fill="none" stroke="black" d="M721.94,-404.05C718.62,-396.32 714.61,-386.96 710.88,-378.27"/>
<polygon fill="black" stroke="black" points="714.15,-376.99 706.99,-369.18 707.71,-379.75 714.15,-376.99"/>
</g>
<!-- gazebo -->
<g id="node6" class="node">
<title>gazebo</title>
<g id="a_node6"><a xlink:href="https://github.com/conda-forge/gazebo-feedstock" xlink:title="gazebo">
<ellipse fill="#fde725" stroke="black" cx="759.2" cy="-278" rx="46.47" ry="18"/>
<text text-anchor="middle" x="759.2" y="-273.32" font-family="Times,serif" font-size="14.00">gazebo</text>
</a>
</g>
</g>
<!-- tiledb&#45;&gt;gazebo -->
<g id="edge4" class="edge">
<title>tiledb&#45;&gt;gazebo</title>
<path fill="none" stroke="black" d="M732.88,-403.59C737.96,-379.5 747.21,-335.75 753.28,-307.03"/>
<polygon fill="black" stroke="black" points="756.63,-308.1 755.27,-297.59 749.78,-306.65 756.63,-308.1"/>
</g>
<!-- gazebo&#45;yarp&#45;plugins -->
<g id="node7" class="node">
<title>gazebo&#45;yarp&#45;plugins</title>
<g id="a_node7"><a xlink:href="https://github.com/conda-forge/gazebo-yarp-plugins-feedstock" xlink:title="gazebo yarp plugins">
<ellipse fill="#fde725" stroke="black" cx="759.2" cy="-206" rx="112.24" ry="18"/>
<text text-anchor="middle" x="759.2" y="-201.32" font-family="Times,serif" font-size="14.00">gazebo yarp plugins</text>
</a>
</g>
</g>
<!-- gazebo&#45;&gt;gazebo&#45;yarp&#45;plugins -->
<g id="edge5" class="edge">
<title>gazebo&#45;&gt;gazebo&#45;yarp&#45;plugins</title>
<path fill="none" stroke="black" d="M759.2,-259.7C759.2,-252.41 759.2,-243.73 759.2,-235.54"/>
<polygon fill="black" stroke="black" points="762.7,-235.62 759.2,-225.62 755.7,-235.62 762.7,-235.62"/>
</g>
<!-- mongodb -->
<g id="node9" class="node">
<title>mongodb</title>
<g id="a_node9"><a xlink:href="https://github.com/conda-forge/mongodb-feedstock/pull/84" xlink:title="mongodb ❎">
<ellipse fill="#31688e" stroke="black" cx="759.2" cy="-970" rx="72.78" ry="18"/>
<text text-anchor="middle" x="759.2" y="-965.33" font-family="Times,serif" font-size="14.00" fill="white">mongodb ❎</text>
</a>
</g>
</g>
<!-- tensorflow&#45;&gt;mongodb -->
<!-- go&#45;cockroach -->
<g id="node12" class="node">
<title>go&#45;cockroach</title>
<g id="a_node12"><a xlink:href="https://github.com/conda-forge/go-cockroach-feedstock" xlink:title="go cockroach">
<ellipse fill="#35b779" stroke="black" cx="759.2" cy="-898" rx="76.46" ry="18"/>
<text text-anchor="middle" x="759.2" y="-893.33" font-family="Times,serif" font-size="14.00">go cockroach</text>
</a>
</g>
</g>
<!-- mongodb&#45;&gt;go&#45;cockroach -->
<!-- pytorch&#45;cpu -->
<g id="node10" class="node">
<title>pytorch&#45;cpu</title>
<g id="a_node10"><a xlink:href="https://github.com/conda-forge/pytorch-cpu-feedstock/pull/221" xlink:title="pytorch cpu ❎">
<ellipse fill="#31688e" stroke="black" cx="1070.2" cy="-314" rx="85.93" ry="18"/>
<text text-anchor="middle" x="1070.2" y="-309.32" font-family="Times,serif" font-size="14.00" fill="white">pytorch cpu ❎</text>
</a>
</g>
</g>
<!-- ray&#45;packages -->
<g id="node11" class="node">
<title>ray&#45;packages</title>
<g id="a_node11"><a xlink:href="https://github.com/conda-forge/ray-packages-feedstock" xlink:title="ray packages">
<ellipse fill="#fde725" stroke="black" cx="1145.2" cy="-242" rx="76.99" ry="18"/>
<text text-anchor="middle" x="1145.2" y="-237.32" font-family="Times,serif" font-size="14.00">ray packages</text>
</a>
</g>
</g>
<!-- pytorch&#45;cpu&#45;&gt;ray&#45;packages -->
<g id="edge8" class="edge">
<title>pytorch&#45;cpu&#45;&gt;ray&#45;packages</title>
<path fill="none" stroke="black" d="M1088.35,-296.05C1097.57,-287.46 1108.92,-276.86 1119.06,-267.4"/>
<polygon fill="black" stroke="black" points="1121.18,-270.2 1126.1,-260.82 1116.4,-265.09 1121.18,-270.2"/>
</g>
<!-- cartographer -->
<g id="node22" class="node">
<title>cartographer</title>
<g id="a_node22"><a xlink:href="https://github.com/conda-forge/cartographer-feedstock" xlink:title="cartographer">
<ellipse fill="#35b779" stroke="black" cx="759.2" cy="-826" rx="76.99" ry="18"/>
<text text-anchor="middle" x="759.2" y="-821.33" font-family="Times,serif" font-size="14.00">cartographer</text>
</a>
</g>
</g>
<!-- go&#45;cockroach&#45;&gt;cartographer -->
<!-- jaxlib -->
<g id="node13" class="node">
<title>jaxlib</title>
<g id="a_node13"><a xlink:href="https://github.com/conda-forge/jaxlib-feedstock" xlink:title="jaxlib">
<ellipse fill="#ff8c00" stroke="black" cx="1221.2" cy="-386" rx="38.58" ry="18"/>
<text text-anchor="middle" x="1221.2" y="-381.32" font-family="Times,serif" font-size="14.00">jaxlib</text>
</a>
</g>
</g>
<!-- mujoco -->
<g id="node14" class="node">
<title>mujoco</title>
<g id="a_node14"><a xlink:href="https://github.com/conda-forge/mujoco-feedstock" xlink:title="mujoco">
<ellipse fill="#fde725" stroke="black" cx="1221.2" cy="-314" rx="47" ry="18"/>
<text text-anchor="middle" x="1221.2" y="-309.32" font-family="Times,serif" font-size="14.00">mujoco</text>
</a>
</g>
</g>
<!-- jaxlib&#45;&gt;mujoco -->
<g id="edge10" class="edge">
<title>jaxlib&#45;&gt;mujoco</title>
<path fill="none" stroke="black" d="M1221.2,-367.7C1221.2,-360.41 1221.2,-351.73 1221.2,-343.54"/>
<polygon fill="black" stroke="black" points="1224.7,-343.62 1221.2,-333.62 1217.7,-343.62 1224.7,-343.62"/>
</g>
<!-- mujoco&#45;&gt;ray&#45;packages -->
<g id="edge11" class="edge">
<title>mujoco&#45;&gt;ray&#45;packages</title>
<path fill="none" stroke="black" d="M1203.95,-297.12C1194.41,-288.33 1182.36,-277.23 1171.66,-267.37"/>
<polygon fill="black" stroke="black" points="1174.28,-265.02 1164.55,-260.82 1169.53,-270.17 1174.28,-265.02"/>
</g>
<!-- libignition&#45;transport4 -->
<g id="node15" class="node">
<title>libignition&#45;transport4</title>
<g id="a_node15"><a xlink:href="https://github.com/conda-forge/libignition-transport4-feedstock" xlink:title="libignition transport4">
<ellipse fill="#fde725" stroke="black" cx="205.2" cy="-970" rx="119.08" ry="18"/>
<text text-anchor="middle" x="205.2" y="-965.33" font-family="Times,serif" font-size="14.00">libignition transport4</text>
</a>
</g>
</g>
<!-- libignition&#45;sensors -->
<g id="node16" class="node">
<title>libignition&#45;sensors</title>
<g id="a_node16"><a xlink:href="https://github.com/conda-forge/libignition-sensors-feedstock" xlink:title="libignition sensors">
<ellipse fill="#fde725" stroke="black" cx="360.2" cy="-898" rx="103.82" ry="18"/>
<text text-anchor="middle" x="360.2" y="-893.33" font-family="Times,serif" font-size="14.00">libignition sensors</text>
</a>
</g>
</g>
<!-- libignition&#45;transport4&#45;&gt;libignition&#45;sensors -->
<g id="edge12" class="edge">
<title>libignition&#45;transport4&#45;&gt;libignition&#45;sensors</title>
<path fill="none" stroke="black" d="M241.93,-952.41C263.44,-942.7 290.79,-930.34 313.78,-919.96"/>
<polygon fill="black" stroke="black" points="314.94,-923.28 322.62,-915.97 312.06,-916.9 314.94,-923.28"/>
</g>
<!-- libignition&#45;gui -->
<g id="node17" class="node">
<title>libignition&#45;gui</title>
<g id="a_node17"><a xlink:href="https://github.com/conda-forge/libignition-gui-feedstock" xlink:title="libignition gui">
<ellipse fill="#fde725" stroke="black" cx="81.2" cy="-898" rx="81.2" ry="18"/>
<text text-anchor="middle" x="81.2" y="-893.33" font-family="Times,serif" font-size="14.00">libignition gui</text>
</a>
</g>
</g>
<!-- libignition&#45;transport4&#45;&gt;libignition&#45;gui -->
<g id="edge13" class="edge">
<title>libignition&#45;transport4&#45;&gt;libignition&#45;gui</title>
<path fill="none" stroke="black" d="M175.5,-952.23C158.77,-942.79 137.69,-930.89 119.7,-920.74"/>
<polygon fill="black" stroke="black" points="121.55,-917.76 111.12,-915.89 118.11,-923.86 121.55,-917.76"/>
</g>
<!-- libignition&#45;gazebo -->
<g id="node18" class="node">
<title>libignition&#45;gazebo</title>
<g id="a_node18"><a xlink:href="https://github.com/conda-forge/libignition-gazebo-feedstock" xlink:title="libignition gazebo">
<ellipse fill="#fde725" stroke="black" cx="340.2" cy="-826" rx="100.66" ry="18"/>
<text text-anchor="middle" x="340.2" y="-821.33" font-family="Times,serif" font-size="14.00">libignition gazebo</text>
</a>
</g>
</g>
<!-- libignition&#45;transport4&#45;&gt;libignition&#45;gazebo -->
<g id="edge14" class="edge">
<title>libignition&#45;transport4&#45;&gt;libignition&#45;gazebo</title>
<path fill="none" stroke="black" d="M209.87,-951.8C215.85,-932.43 227.81,-900.94 247.2,-880 259.31,-866.91 275.42,-856.19 290.82,-847.89"/>
<polygon fill="black" stroke="black" points="292.13,-851.16 299.44,-843.49 288.94,-844.92 292.13,-851.16"/>
</g>
<!-- libignition&#45;launch -->
<g id="node19" class="node">
<title>libignition&#45;launch</title>
<g id="a_node19"><a xlink:href="https://github.com/conda-forge/libignition-launch-feedstock" xlink:title="libignition launch">
<ellipse fill="#fde725" stroke="black" cx="275.2" cy="-754" rx="98.56" ry="18"/>
<text text-anchor="middle" x="275.2" y="-749.33" font-family="Times,serif" font-size="14.00">libignition launch</text>
</a>
</g>
</g>
<!-- libignition&#45;transport4&#45;&gt;libignition&#45;launch -->
<g id="edge15" class="edge">
<title>libignition&#45;transport4&#45;&gt;libignition&#45;launch</title>
<path fill="none" stroke="black" d="M204.87,-951.68C204.93,-921.2 207.96,-856.62 230.2,-808 234.77,-798 241.78,-788.41 248.92,-780.2"/>
<polygon fill="black" stroke="black" points="251.37,-782.72 255.58,-773 246.23,-777.97 251.37,-782.72"/>
</g>
<!-- libignition&#45;sensors&#45;&gt;libignition&#45;gazebo -->
<g id="edge16" class="edge">
<title>libignition&#45;sensors&#45;&gt;libignition&#45;gazebo</title>
<path fill="none" stroke="black" d="M355.25,-879.7C353.12,-872.24 350.58,-863.32 348.19,-854.97"/>
<polygon fill="black" stroke="black" points="351.61,-854.21 345.5,-845.56 344.88,-856.14 351.61,-854.21"/>
</g>
<!-- libignition&#45;gui&#45;&gt;libignition&#45;gazebo -->
<g id="edge17" class="edge">
<title>libignition&#45;gui&#45;&gt;libignition&#45;gazebo</title>
<path fill="none" stroke="black" d="M131.44,-883.42C172.4,-872.35 230.54,-856.64 275.06,-844.6"/>
<polygon fill="black" stroke="black" points="275.87,-848.01 284.61,-842.02 274.04,-841.25 275.87,-848.01"/>
</g>
<!-- libignition&#45;gui&#45;&gt;libignition&#45;launch -->
<g id="edge18" class="edge">
<title>libignition&#45;gui&#45;&gt;libignition&#45;launch</title>
<path fill="none" stroke="black" d="M96.54,-880.18C114.45,-861.17 145.53,-830 176.2,-808 192.88,-796.03 212.6,-784.94 230.02,-776.03"/>
<polygon fill="black" stroke="black" points="231.25,-779.33 238.63,-771.72 228.12,-773.07 231.25,-779.33"/>
</g>
<!-- libignition&#45;gazebo&#45;&gt;libignition&#45;launch -->
<g id="edge19" class="edge">
<title>libignition&#45;gazebo&#45;&gt;libignition&#45;launch</title>
<path fill="none" stroke="black" d="M324.46,-808.05C316.64,-799.63 307.03,-789.28 298.38,-779.97"/>
<polygon fill="black" stroke="black" points="301.19,-777.84 291.82,-772.9 296.06,-782.61 301.19,-777.84"/>
</g>
<!-- libignition&#45;msgs1 -->
<g id="node20" class="node">
<title>libignition&#45;msgs1</title>
<g id="a_node20"><a xlink:href="https://github.com/conda-forge/libignition-msgs1-feedstock/pull/103" xlink:title="libignition msgs1 ✓">
<ellipse fill="#31688e" stroke="black" cx="422.2" cy="-1042" rx="105.92" ry="18"/>
<text text-anchor="middle" x="422.2" y="-1037.33" font-family="Times,serif" font-size="14.00" fill="white">libignition msgs1 ✓</text>
</a>
</g>
</g>
<!-- libignition&#45;msgs1&#45;&gt;libignition&#45;transport4 -->
<g id="edge20" class="edge">
<title>libignition&#45;msgs1&#45;&gt;libignition&#45;transport4</title>
<path fill="none" stroke="black" d="M374.31,-1025.55C342.1,-1015.16 299.39,-1001.39 264.96,-990.28"/>
<polygon fill="black" stroke="black" points="266.12,-986.98 255.53,-987.24 263.98,-993.64 266.12,-986.98"/>
</g>
<!-- libignition&#45;msgs1&#45;&gt;libignition&#45;sensors -->
<g id="edge21" class="edge">
<title>libignition&#45;msgs1&#45;&gt;libignition&#45;sensors</title>
<path fill="none" stroke="black" d="M400.15,-1023.97C389.6,-1014.55 377.84,-1001.95 371.2,-988 362.23,-969.18 359.64,-945.7 359.2,-927.59"/>
<polygon fill="black" stroke="black" points="362.7,-927.8 359.19,-917.8 355.7,-927.81 362.7,-927.8"/>
</g>
<!-- libignition&#45;msgs1&#45;&gt;libignition&#45;gui -->
<g id="edge22" class="edge">
<title>libignition&#45;msgs1&#45;&gt;libignition&#45;gui</title>
<path fill="none" stroke="black" d="M316.88,-1039.37C227.03,-1035.47 107.68,-1023.53 77.2,-988 63.12,-971.59 65.61,-946.57 70.77,-927.23"/>
<polygon fill="black" stroke="black" points="74.08,-928.36 73.66,-917.78 67.39,-926.31 74.08,-928.36"/>
</g>
<!-- libignition&#45;msgs1&#45;&gt;libignition&#45;gazebo -->
<g id="edge23" class="edge">
<title>libignition&#45;msgs1&#45;&gt;libignition&#45;gazebo</title>
<path fill="none" stroke="black" d="M510.91,-1031.84C572.63,-1021.28 639.52,-998.89 613.2,-952 576.3,-886.25 493.95,-854.9 429.29,-840.06"/>
<polygon fill="black" stroke="black" points="430.25,-836.69 419.74,-837.97 428.76,-843.53 430.25,-836.69"/>
</g>
<!-- libignition&#45;msgs1&#45;&gt;libignition&#45;launch -->
<g id="edge24" class="edge">
<title>libignition&#45;msgs1&#45;&gt;libignition&#45;launch</title>
<path fill="none" stroke="black" d="M504.42,-1030.35C555.22,-1021.89 613.59,-1008.11 629.2,-988 639.01,-975.36 634.32,-967.16 629.2,-952 591.3,-839.96 450.44,-790.11 358.24,-769.09"/>
<polygon fill="black" stroke="black" points="359.24,-765.73 348.72,-766.99 357.74,-772.56 359.24,-765.73"/>
</g>
<!-- libignition&#45;fuel&#45;tools -->
<g id="node21" class="node">
<title>libignition&#45;fuel&#45;tools</title>
<g id="a_node21"><a xlink:href="https://github.com/conda-forge/libignition-fuel-tools-feedstock" xlink:title="libignition fuel tools">
<ellipse fill="#fde725" stroke="black" cx="492.2" cy="-970" rx="111.71" ry="18"/>
<text text-anchor="middle" x="492.2" y="-965.33" font-family="Times,serif" font-size="14.00">libignition fuel tools</text>
</a>
</g>
</g>
<!-- libignition&#45;msgs1&#45;&gt;libignition&#45;fuel&#45;tools -->
<g id="edge25" class="edge">
<title>libignition&#45;msgs1&#45;&gt;libignition&#45;fuel&#45;tools</title>
<path fill="none" stroke="black" d="M439.14,-1024.05C447.45,-1015.75 457.61,-1005.58 466.82,-996.38"/>
<polygon fill="black" stroke="black" points="469.26,-998.89 473.85,-989.35 464.31,-993.94 469.26,-998.89"/>
</g>
<!-- libignition&#45;fuel&#45;tools&#45;&gt;libignition&#45;gazebo -->
<g id="edge26" class="edge">
<title>libignition&#45;fuel&#45;tools&#45;&gt;libignition&#45;gazebo</title>
<path fill="none" stroke="black" d="M493.08,-951.52C493.12,-931.89 490.22,-900.16 473.2,-880 458.93,-863.1 438.51,-851.54 417.94,-843.66"/>
<polygon fill="black" stroke="black" points="419.23,-840.4 408.63,-840.36 416.89,-847 419.23,-840.4"/>
</g>
<!-- tomviz -->
<g id="node23" class="node">
<title>tomviz</title>
<g id="a_node23"><a xlink:href="https://github.com/conda-forge/tomviz-feedstock" xlink:title="tomviz">
<ellipse fill="#ff8c00" stroke="black" cx="759.2" cy="-754" rx="44.9" ry="18"/>
<text text-anchor="middle" x="759.2" y="-749.33" font-family="Times,serif" font-size="14.00">tomviz</text>
</a>
</g>
</g>
<!-- cartographer&#45;&gt;tomviz -->
<!-- imp -->
<g id="node26" class="node">
<title>imp</title>
<g id="a_node26"><a xlink:href="https://github.com/conda-forge/imp-feedstock/pull/42" xlink:title="imp ✓">
<ellipse fill="#31688e" stroke="black" cx="759.2" cy="-682" rx="38.06" ry="18"/>
<text text-anchor="middle" x="759.2" y="-677.33" font-family="Times,serif" font-size="14.00" fill="white">imp ✓</text>
</a>
</g>
</g>
<!-- tomviz&#45;&gt;imp -->
<!-- s2geometry -->
<g id="node24" class="node">
<title>s2geometry</title>
<g id="a_node24"><a xlink:href="https://github.com/conda-forge/s2geometry-feedstock/pull/16" xlink:title="s2geometry ✓">
<ellipse fill="#31688e" stroke="black" cx="319.2" cy="-90" rx="78.57" ry="18"/>
<text text-anchor="middle" x="319.2" y="-85.33" font-family="Times,serif" font-size="14.00" fill="white">s2geometry ✓</text>
</a>
</g>
</g>
<!-- s2geography -->
<g id="node25" class="node">
<title>s2geography</title>
<g id="a_node25"><a xlink:href="https://github.com/conda-forge/s2geography-feedstock" xlink:title="s2geography">
<ellipse fill="#fde725" stroke="black" cx="319.2" cy="-18" rx="75.94" ry="18"/>
<text text-anchor="middle" x="319.2" y="-13.32" font-family="Times,serif" font-size="14.00">s2geography</text>
</a>
</g>
</g>
<!-- s2geometry&#45;&gt;s2geography -->
<g id="edge29" class="edge">
<title>s2geometry&#45;&gt;s2geography</title>
<path fill="none" stroke="black" d="M319.2,-71.7C319.2,-64.41 319.2,-55.73 319.2,-47.54"/>
<polygon fill="black" stroke="black" points="322.7,-47.62 319.2,-37.62 315.7,-47.62 322.7,-47.62"/>
</g>
<!-- or&#45;tools -->
<g id="node27" class="node">
<title>or&#45;tools</title>
<g id="a_node27"><a xlink:href="https://github.com/conda-forge/or-tools-feedstock/pull/55" xlink:title="or tools ❎">
<ellipse fill="#31688e" stroke="black" cx="759.2" cy="-610" rx="64.36" ry="18"/>
<text text-anchor="middle" x="759.2" y="-605.33" font-family="Times,serif" font-size="14.00" fill="white">or tools ❎</text>
</a>
</g>
</g>
<!-- imp&#45;&gt;or&#45;tools -->
<!-- bear -->
<g id="node28" class="node">
<title>bear</title>
<g id="a_node28"><a xlink:href="https://github.com/conda-forge/bear-feedstock" xlink:title="bear">
<ellipse fill="#35b779" stroke="black" cx="759.2" cy="-538" rx="33.85" ry="18"/>
<text text-anchor="middle" x="759.2" y="-533.33" font-family="Times,serif" font-size="14.00">bear</text>
</a>
</g>
</g>
<!-- or&#45;tools&#45;&gt;bear -->
<!-- cpp&#45;opentelemetry&#45;sdk -->
<g id="node29" class="node">
<title>cpp&#45;opentelemetry&#45;sdk</title>
<g id="a_node29"><a xlink:href="https://github.com/conda-forge/cpp-opentelemetry-sdk-feedstock" xlink:title="cpp opentelemetry sdk">
<ellipse fill="#35b779" stroke="black" cx="319.2" cy="-494" rx="125.92" ry="18"/>
<text text-anchor="middle" x="319.2" y="-489.32" font-family="Times,serif" font-size="14.00">cpp opentelemetry sdk</text>
</a>
</g>
</g>
<!-- xilinx&#45;runtime -->
<g id="node30" class="node">
<title>xilinx&#45;runtime</title>
<g id="a_node30"><a xlink:href="https://github.com/conda-forge/xilinx-runtime-feedstock/pull/31" xlink:title="xilinx runtime ❎">
<ellipse fill="#31688e" stroke="black" cx="319.2" cy="-422" rx="96.98" ry="18"/>
<text text-anchor="middle" x="319.2" y="-417.32" font-family="Times,serif" font-size="14.00" fill="white">xilinx runtime ❎</text>
</a>
</g>
</g>
<!-- cpp&#45;opentelemetry&#45;sdk&#45;&gt;xilinx&#45;runtime -->
<!-- arcticdb -->
<g id="node31" class="node">
<title>arcticdb</title>
<g id="a_node31"><a xlink:href="https://github.com/conda-forge/arcticdb-feedstock" xlink:title="arcticdb">
<ellipse fill="#35b779" stroke="black" cx="319.2" cy="-350" rx="52.26" ry="18"/>
<text text-anchor="middle" x="319.2" y="-345.32" font-family="Times,serif" font-size="14.00">arcticdb</text>
</a>
</g>
</g>
<!-- xilinx&#45;runtime&#45;&gt;arcticdb -->
<!-- gnss&#45;sdr -->
<g id="node39" class="node">
<title>gnss&#45;sdr</title>
<g id="a_node39"><a xlink:href="https://github.com/conda-forge/gnss-sdr-feedstock" xlink:title="gnss sdr">
<ellipse fill="#35b779" stroke="black" cx="319.2" cy="-278" rx="53.84" ry="18"/>
<text text-anchor="middle" x="319.2" y="-273.32" font-family="Times,serif" font-size="14.00">gnss sdr</text>
</a>
</g>
</g>
<!-- arcticdb&#45;&gt;gnss&#45;sdr -->
<!-- gz&#45;msgs -->
<g id="node32" class="node">
<title>gz&#45;msgs</title>
<g id="a_node32"><a xlink:href="https://github.com/conda-forge/gz-msgs-feedstock/pull/27" xlink:title="gz msgs ✓">
<ellipse fill="#31688e" stroke="black" cx="1087.2" cy="-1042" rx="60.15" ry="18"/>
<text text-anchor="middle" x="1087.2" y="-1037.33" font-family="Times,serif" font-size="14.00" fill="white">gz msgs ✓</text>
</a>
</g>
</g>
<!-- gz&#45;transport -->
<g id="node33" class="node">
<title>gz&#45;transport</title>
<g id="a_node33"><a xlink:href="https://github.com/conda-forge/gz-transport-feedstock" xlink:title="gz transport">
<ellipse fill="#fde725" stroke="black" cx="1037.2" cy="-970" rx="73.3" ry="18"/>
<text text-anchor="middle" x="1037.2" y="-965.33" font-family="Times,serif" font-size="14.00">gz transport</text>
</a>
</g>
</g>
<!-- gz&#45;msgs&#45;&gt;gz&#45;transport -->
<g id="edge35" class="edge">
<title>gz&#45;msgs&#45;&gt;gz&#45;transport</title>
<path fill="none" stroke="black" d="M1075.09,-1024.05C1069.32,-1015.97 1062.28,-1006.12 1055.85,-997.11"/>
<polygon fill="black" stroke="black" points="1058.73,-995.12 1050.07,-989.02 1053.03,-999.19 1058.73,-995.12"/>
</g>
<!-- gz&#45;fuel&#45;tools -->
<g id="node34" class="node">
<title>gz&#45;fuel&#45;tools</title>
<g id="a_node34"><a xlink:href="https://github.com/conda-forge/gz-fuel-tools-feedstock" xlink:title="gz fuel tools">
<ellipse fill="#fde725" stroke="black" cx="1238.2" cy="-970" rx="72.25" ry="18"/>
<text text-anchor="middle" x="1238.2" y="-965.33" font-family="Times,serif" font-size="14.00">gz fuel tools</text>
</a>
</g>
</g>
<!-- gz&#45;msgs&#45;&gt;gz&#45;fuel&#45;tools -->
<g id="edge36" class="edge">
<title>gz&#45;msgs&#45;&gt;gz&#45;fuel&#45;tools</title>
<path fill="none" stroke="black" d="M1118.85,-1026.33C1140.85,-1016.13 1170.45,-1002.41 1194.66,-991.18"/>
<polygon fill="black" stroke="black" points="1196.04,-994.4 1203.64,-987.02 1193.1,-988.05 1196.04,-994.4"/>
</g>
<!-- gz&#45;gui -->
<g id="node35" class="node">
<title>gz&#45;gui</title>
<g id="a_node35"><a xlink:href="https://github.com/conda-forge/gz-gui-feedstock" xlink:title="gz gui">
<ellipse fill="#fde725" stroke="black" cx="946.2" cy="-898" rx="41.74" ry="18"/>
<text text-anchor="middle" x="946.2" y="-893.33" font-family="Times,serif" font-size="14.00">gz gui</text>
</a>
</g>
</g>
<!-- gz&#45;msgs&#45;&gt;gz&#45;gui -->
<g id="edge37" class="edge">
<title>gz&#45;msgs&#45;&gt;gz&#45;gui</title>
<path fill="none" stroke="black" d="M1034.12,-1033.12C1006.17,-1026.09 973.9,-1012.87 955.2,-988 942.35,-970.92 940.71,-946.47 941.95,-927.53"/>
<polygon fill="black" stroke="black" points="945.41,-928.08 942.9,-917.78 938.45,-927.39 945.41,-928.08"/>
</g>
<!-- gz&#45;sensors -->
<g id="node36" class="node">
<title>gz&#45;sensors</title>
<g id="a_node36"><a xlink:href="https://github.com/conda-forge/gz-sensors-feedstock" xlink:title="gz sensors">
<ellipse fill="#fde725" stroke="black" cx="1146.2" cy="-898" rx="64.36" ry="18"/>
<text text-anchor="middle" x="1146.2" y="-893.33" font-family="Times,serif" font-size="14.00">gz sensors</text>
</a>
</g>
</g>
<!-- gz&#45;msgs&#45;&gt;gz&#45;sensors -->
<g id="edge38" class="edge">
<title>gz&#45;msgs&#45;&gt;gz&#45;sensors</title>
<path fill="none" stroke="black" d="M1099,-1023.93C1105.6,-1013.82 1113.6,-1000.57 1119.2,-988 1127.94,-968.37 1134.89,-945.1 1139.55,-927.28"/>
<polygon fill="black" stroke="black" points="1142.92,-928.2 1141.97,-917.65 1136.13,-926.5 1142.92,-928.2"/>
</g>
<!-- gz&#45;sim -->
<g id="node37" class="node">
<title>gz&#45;sim</title>
<g id="a_node37"><a xlink:href="https://github.com/conda-forge/gz-sim-feedstock" xlink:title="gz sim">
<ellipse fill="#fde725" stroke="black" cx="1117.2" cy="-826" rx="43.84" ry="18"/>
<text text-anchor="middle" x="1117.2" y="-821.33" font-family="Times,serif" font-size="14.00">gz sim</text>
</a>
</g>
</g>
<!-- gz&#45;msgs&#45;&gt;gz&#45;sim -->
<g id="edge39" class="edge">
<title>gz&#45;msgs&#45;&gt;gz&#45;sim</title>
<path fill="none" stroke="black" d="M1144.3,-1035.99C1205.79,-1029.27 1297.72,-1014.93 1319.2,-988 1371.96,-921.83 1237.16,-865.72 1162.66,-840.8"/>
<polygon fill="black" stroke="black" points="1164.16,-837.61 1153.57,-837.83 1161.98,-844.27 1164.16,-837.61"/>
</g>
<!-- gz&#45;launch -->
<g id="node38" class="node">
<title>gz&#45;launch</title>
<g id="a_node38"><a xlink:href="https://github.com/conda-forge/gz-launch-feedstock" xlink:title="gz launch">
<ellipse fill="#fde725" stroke="black" cx="997.2" cy="-754" rx="59.1" ry="18"/>
<text text-anchor="middle" x="997.2" y="-749.33" font-family="Times,serif" font-size="14.00">gz launch</text>
</a>
</g>
</g>
<!-- gz&#45;msgs&#45;&gt;gz&#45;launch -->
<g id="edge40" class="edge">
<title>gz&#45;msgs&#45;&gt;gz&#45;launch</title>
<path fill="none" stroke="black" d="M1036.68,-1031.83C1005.91,-1024.22 967.25,-1010.82 939.2,-988 910.11,-964.33 905.36,-952.1 895.2,-916 879.79,-861.24 931.08,-807.41 966.44,-777.97"/>
<polygon fill="black" stroke="black" points="968.28,-780.98 973.85,-771.97 963.88,-775.54 968.28,-780.98"/>
</g>
<!-- gz&#45;transport&#45;&gt;gz&#45;gui -->
<g id="edge41" class="edge">
<title>gz&#45;transport&#45;&gt;gz&#45;gui</title>
<path fill="none" stroke="black" d="M1015.63,-952.41C1003.54,-943.11 988.29,-931.38 975.16,-921.28"/>
<polygon fill="black" stroke="black" points="977.31,-918.52 967.25,-915.2 973.05,-924.07 977.31,-918.52"/>
</g>
<!-- gz&#45;transport&#45;&gt;gz&#45;sensors -->
<g id="edge42" class="edge">
<title>gz&#45;transport&#45;&gt;gz&#45;sensors</title>
<path fill="none" stroke="black" d="M1062.48,-952.76C1077.17,-943.33 1095.87,-931.32 1111.88,-921.04"/>
<polygon fill="black" stroke="black" points="1113.63,-924.07 1120.16,-915.72 1109.85,-918.18 1113.63,-924.07"/>
</g>
<!-- gz&#45;transport&#45;&gt;gz&#45;sim -->
<g id="edge43" class="edge">
<title>gz&#45;transport&#45;&gt;gz&#45;sim</title>
<path fill="none" stroke="black" d="M1042.37,-951.87C1048.35,-933.39 1059.18,-903.46 1073.2,-880 1079.12,-870.1 1086.82,-860.13 1094.13,-851.55"/>
<polygon fill="black" stroke="black" points="1096.52,-854.13 1100.51,-844.32 1091.27,-849.5 1096.52,-854.13"/>
</g>
<!-- gz&#45;transport&#45;&gt;gz&#45;launch -->
<g id="edge44" class="edge">
<title>gz&#45;transport&#45;&gt;gz&#45;launch</title>
<path fill="none" stroke="black" d="M1033.99,-951.85C1027.13,-915.14 1010.97,-828.66 1002.53,-783.53"/>
<polygon fill="black" stroke="black" points="1005.97,-782.91 1000.7,-773.72 999.09,-784.19 1005.97,-782.91"/>
</g>
<!-- gz&#45;fuel&#45;tools&#45;&gt;gz&#45;sim -->
<g id="edge45" class="edge">
<title>gz&#45;fuel&#45;tools&#45;&gt;gz&#45;sim</title>
<path fill="none" stroke="black" d="M1238.7,-951.82C1238.4,-932.47 1235.19,-900.99 1219.2,-880 1205.26,-861.7 1183.19,-849.13 1163.14,-840.85"/>
<polygon fill="black" stroke="black" points="1164.58,-837.65 1153.99,-837.33 1162.07,-844.19 1164.58,-837.65"/>
</g>
<!-- gz&#45;gui&#45;&gt;gz&#45;sim -->
<g id="edge46" class="edge">
<title>gz&#45;gui&#45;&gt;gz&#45;sim</title>
<path fill="none" stroke="black" d="M975.59,-884.97C1003.44,-873.57 1045.5,-856.35 1076.55,-843.64"/>
<polygon fill="black" stroke="black" points="1077.71,-846.95 1085.64,-839.92 1075.06,-840.47 1077.71,-846.95"/>
</g>
<!-- gz&#45;gui&#45;&gt;gz&#45;launch -->
<g id="edge47" class="edge">
<title>gz&#45;gui&#45;&gt;gz&#45;launch</title>
<path fill="none" stroke="black" d="M952.35,-879.87C961,-855.78 976.87,-811.6 987.22,-782.77"/>
<polygon fill="black" stroke="black" points="990.43,-784.21 990.51,-773.61 983.84,-781.84 990.43,-784.21"/>
</g>
<!-- gz&#45;sensors&#45;&gt;gz&#45;sim -->
<g id="edge48" class="edge">
<title>gz&#45;sensors&#45;&gt;gz&#45;sim</title>
<path fill="none" stroke="black" d="M1139.03,-879.7C1135.9,-872.15 1132.16,-863.12 1128.67,-854.68"/>
<polygon fill="black" stroke="black" points="1131.92,-853.4 1124.86,-845.5 1125.46,-856.08 1131.92,-853.4"/>
</g>
<!-- gz&#45;sim&#45;&gt;gz&#45;launch -->
<g id="edge49" class="edge">
<title>gz&#45;sim&#45;&gt;gz&#45;launch</title>
<path fill="none" stroke="black" d="M1092.62,-810.67C1075.65,-800.77 1052.79,-787.43 1033.7,-776.29"/>
<polygon fill="black" stroke="black" points="1035.53,-773.31 1025.13,-771.29 1032,-779.36 1035.53,-773.31"/>
</g>
<!-- gcld3 -->
<g id="node40" class="node">
<title>gcld3</title>
<g id="a_node40"><a xlink:href="https://github.com/conda-forge/gcld3-feedstock" xlink:title="gcld3">
<ellipse fill="#35b779" stroke="black" cx="319.2" cy="-206" rx="38.58" ry="18"/>
<text text-anchor="middle" x="319.2" y="-201.33" font-family="Times,serif" font-size="14.00">gcld3</text>
</a>
</g>
</g>
<!-- gnss&#45;sdr&#45;&gt;gcld3 -->
<!-- bloaty -->
<g id="node41" class="node">
<title>bloaty</title>
<g id="a_node41"><a xlink:href="https://github.com/conda-forge/bloaty-feedstock" xlink:title="bloaty">
<ellipse fill="#35b779" stroke="black" cx="319.2" cy="-134" rx="42.26" ry="18"/>
<text text-anchor="middle" x="319.2" y="-129.32" font-family="Times,serif" font-size="14.00">bloaty</text>
</a>
</g>
</g>
<!-- gcld3&#45;&gt;bloaty -->
</g>
</svg>
