<?xml version="1.0" encoding="UTF-8" standalone="no"?>
<!DOCTYPE svg PUBLIC "-//W3C//DTD SVG 1.1//EN"
 "http://www.w3.org/Graphics/SVG/1.1/DTD/svg11.dtd">
<!-- Generated by graphviz version 9.0.0 (20231125.0833)
 -->
<!-- Pages: 1 -->
<svg width="1292pt" height="1212pt"
 viewBox="0.00 0.00 1292.44 1212.00" xmlns="http://www.w3.org/2000/svg" xmlns:xlink="http://www.w3.org/1999/xlink">
<g id="graph0" class="graph" transform="scale(1 1) rotate(0) translate(4 1208)">
<polygon fill="white" stroke="none" points="-4,4 -4,-1208 1288.44,-1208 1288.44,4 -4,4"/>
<!-- bazel -->
<g id="node1" class="node">
<title>bazel</title>
<g id="a_node1"><a xlink:href="https://github.com/conda-forge/bazel-feedstock/pull/221" xlink:title="bazel ❎">
<ellipse fill="#31688e" stroke="black" cx="1172.2" cy="-1186" rx="52.79" ry="18"/>
<text text-anchor="middle" x="1172.2" y="-1181.33" font-family="Times,serif" font-size="14.00" fill="white">bazel ❎</text>
</a>
</g>
</g>
<!-- mosh -->
<g id="node2" class="node">
<title>mosh</title>
<g id="a_node2"><a xlink:href="https://github.com/conda-forge/mosh-feedstock" xlink:title="mosh">
<ellipse fill="#35b779" stroke="black" cx="1172.2" cy="-1114" rx="38.06" ry="18"/>
<text text-anchor="middle" x="1172.2" y="-1109.33" font-family="Times,serif" font-size="14.00">mosh</text>
</a>
</g>
</g>
<!-- bazel&#45;&gt;mosh -->
<!-- paraview -->
<g id="node3" class="node">
<title>paraview</title>
<g id="a_node3"><a xlink:href="https://github.com/conda-forge/paraview-feedstock/pull/231" xlink:title="paraview ❎">
<ellipse fill="#31688e" stroke="black" cx="1172.2" cy="-1042" rx="72.25" ry="18"/>
<text text-anchor="middle" x="1172.2" y="-1037.33" font-family="Times,serif" font-size="14.00" fill="white">paraview ❎</text>
</a>
</g>
</g>
<!-- mosh&#45;&gt;paraview -->
<!-- pyaudi -->
<g id="node4" class="node">
<title>pyaudi</title>
<g id="a_node4"><a xlink:href="https://github.com/conda-forge/pyaudi-feedstock" xlink:title="pyaudi">
<ellipse fill="#35b779" stroke="black" cx="1172.2" cy="-970" rx="44.9" ry="18"/>
<text text-anchor="middle" x="1172.2" y="-965.33" font-family="Times,serif" font-size="14.00">pyaudi</text>
</a>
</g>
</g>
<!-- paraview&#45;&gt;pyaudi -->
<!-- tensorflow -->
<g id="node9" class="node">
<title>tensorflow</title>
<g id="a_node9"><a xlink:href="https://github.com/conda-forge/tensorflow-feedstock" xlink:title="tensorflow">
<ellipse fill="#ff8c00" stroke="black" cx="1172.2" cy="-898" rx="63.84" ry="18"/>
<text text-anchor="middle" x="1172.2" y="-893.33" font-family="Times,serif" font-size="14.00">tensorflow</text>
</a>
</g>
</g>
<!-- pyaudi&#45;&gt;tensorflow -->
<!-- qgis -->
<g id="node5" class="node">
<title>qgis</title>
<g id="a_node5"><a xlink:href="https://github.com/conda-forge/qgis-feedstock" xlink:title="qgis">
<ellipse fill="#fde725" stroke="black" cx="1112.2" cy="-314" rx="32.27" ry="18"/>
<text text-anchor="middle" x="1112.2" y="-309.32" font-family="Times,serif" font-size="14.00">qgis</text>
</a>
</g>
</g>
<!-- tiledb -->
<g id="node6" class="node">
<title>tiledb</title>
<g id="a_node6"><a xlink:href="https://github.com/conda-forge/tiledb-feedstock" xlink:title="tiledb">
<ellipse fill="#ff8c00" stroke="black" cx="1142.2" cy="-386" rx="40.16" ry="18"/>
<text text-anchor="middle" x="1142.2" y="-381.32" font-family="Times,serif" font-size="14.00">tiledb</text>
</a>
</g>
</g>
<!-- tiledb&#45;&gt;qgis -->
<g id="edge4" class="edge">
<title>tiledb&#45;&gt;qgis</title>
<path fill="none" stroke="black" d="M1134.94,-368.05C1131.62,-360.32 1127.61,-350.96 1123.88,-342.27"/>
<polygon fill="black" stroke="black" points="1127.15,-340.99 1119.99,-333.18 1120.71,-343.75 1127.15,-340.99"/>
</g>
<!-- gazebo -->
<g id="node7" class="node">
<title>gazebo</title>
<g id="a_node7"><a xlink:href="https://github.com/conda-forge/gazebo-feedstock" xlink:title="gazebo">
<ellipse fill="#fde725" stroke="black" cx="1172.2" cy="-242" rx="46.47" ry="18"/>
<text text-anchor="middle" x="1172.2" y="-237.32" font-family="Times,serif" font-size="14.00">gazebo</text>
</a>
</g>
</g>
<!-- tiledb&#45;&gt;gazebo -->
<g id="edge5" class="edge">
<title>tiledb&#45;&gt;gazebo</title>
<path fill="none" stroke="black" d="M1145.88,-367.59C1150.96,-343.5 1160.21,-299.75 1166.28,-271.03"/>
<polygon fill="black" stroke="black" points="1169.63,-272.1 1168.27,-261.59 1162.78,-270.65 1169.63,-272.1"/>
</g>
<!-- gazebo&#45;yarp&#45;plugins -->
<g id="node8" class="node">
<title>gazebo&#45;yarp&#45;plugins</title>
<g id="a_node8"><a xlink:href="https://github.com/conda-forge/gazebo-yarp-plugins-feedstock" xlink:title="gazebo yarp plugins">
<ellipse fill="#fde725" stroke="black" cx="1172.2" cy="-170" rx="112.24" ry="18"/>
<text text-anchor="middle" x="1172.2" y="-165.32" font-family="Times,serif" font-size="14.00">gazebo yarp plugins</text>
</a>
</g>
</g>
<!-- gazebo&#45;&gt;gazebo&#45;yarp&#45;plugins -->
<g id="edge6" class="edge">
<title>gazebo&#45;&gt;gazebo&#45;yarp&#45;plugins</title>
<path fill="none" stroke="black" d="M1172.2,-223.7C1172.2,-216.41 1172.2,-207.73 1172.2,-199.54"/>
<polygon fill="black" stroke="black" points="1175.7,-199.62 1172.2,-189.62 1168.7,-199.62 1175.7,-199.62"/>
</g>
<!-- mongodb -->
<g id="node10" class="node">
<title>mongodb</title>
<g id="a_node10"><a xlink:href="https://github.com/conda-forge/mongodb-feedstock/pull/84" xlink:title="mongodb ❎">
<ellipse fill="#31688e" stroke="black" cx="1172.2" cy="-826" rx="72.78" ry="18"/>
<text text-anchor="middle" x="1172.2" y="-821.33" font-family="Times,serif" font-size="14.00" fill="white">mongodb ❎</text>
</a>
</g>
</g>
<!-- tensorflow&#45;&gt;mongodb -->
<!-- zaber&#45;motion -->
<g id="node13" class="node">
<title>zaber&#45;motion</title>
<g id="a_node13"><a xlink:href="https://github.com/conda-forge/zaber-motion-feedstock" xlink:title="zaber motion">
<ellipse fill="#35b779" stroke="black" cx="1172.2" cy="-754" rx="76.99" ry="18"/>
<text text-anchor="middle" x="1172.2" y="-749.33" font-family="Times,serif" font-size="14.00">zaber motion</text>
</a>
</g>
</g>
<!-- mongodb&#45;&gt;zaber&#45;motion -->
<!-- pytorch&#45;cpu -->
<g id="node11" class="node">
<title>pytorch&#45;cpu</title>
<g id="a_node11"><a xlink:href="https://github.com/conda-forge/pytorch-cpu-feedstock/pull/221" xlink:title="pytorch cpu ❎">
<ellipse fill="#31688e" stroke="black" cx="733.2" cy="-278" rx="85.93" ry="18"/>
<text text-anchor="middle" x="733.2" y="-273.32" font-family="Times,serif" font-size="14.00" fill="white">pytorch cpu ❎</text>
</a>
</g>
</g>
<!-- ray&#45;packages -->
<g id="node12" class="node">
<title>ray&#45;packages</title>
<g id="a_node12"><a xlink:href="https://github.com/conda-forge/ray-packages-feedstock" xlink:title="ray packages">
<ellipse fill="#fde725" stroke="black" cx="884.2" cy="-206" rx="76.99" ry="18"/>
<text text-anchor="middle" x="884.2" y="-201.32" font-family="Times,serif" font-size="14.00">ray packages</text>
</a>
</g>
</g>
<!-- pytorch&#45;cpu&#45;&gt;ray&#45;packages -->
<g id="edge9" class="edge">
<title>pytorch&#45;cpu&#45;&gt;ray&#45;packages</title>
<path fill="none" stroke="black" d="M767.46,-261.12C789.04,-251.11 817.11,-238.1 840.31,-227.34"/>
<polygon fill="black" stroke="black" points="841.62,-230.6 849.22,-223.22 838.67,-224.25 841.62,-230.6"/>
</g>
<!-- go&#45;cockroach -->
<g id="node23" class="node">
<title>go&#45;cockroach</title>
<g id="a_node23"><a xlink:href="https://github.com/conda-forge/go-cockroach-feedstock" xlink:title="go cockroach">
<ellipse fill="#35b779" stroke="black" cx="1172.2" cy="-682" rx="76.46" ry="18"/>
<text text-anchor="middle" x="1172.2" y="-677.33" font-family="Times,serif" font-size="14.00">go cockroach</text>
</a>
</g>
</g>
<!-- zaber&#45;motion&#45;&gt;go&#45;cockroach -->
<!-- jaxlib -->
<g id="node14" class="node">
<title>jaxlib</title>
<g id="a_node14"><a xlink:href="https://github.com/conda-forge/jaxlib-feedstock" xlink:title="jaxlib">
<ellipse fill="#ff8c00" stroke="black" cx="859.2" cy="-350" rx="38.58" ry="18"/>
<text text-anchor="middle" x="859.2" y="-345.32" font-family="Times,serif" font-size="14.00">jaxlib</text>
</a>
</g>
</g>
<!-- mujoco -->
<g id="node15" class="node">
<title>mujoco</title>
<g id="a_node15"><a xlink:href="https://github.com/conda-forge/mujoco-feedstock" xlink:title="mujoco">
<ellipse fill="#fde725" stroke="black" cx="884.2" cy="-278" rx="47" ry="18"/>
<text text-anchor="middle" x="884.2" y="-273.32" font-family="Times,serif" font-size="14.00">mujoco</text>
</a>
</g>
</g>
<!-- jaxlib&#45;&gt;mujoco -->
<g id="edge11" class="edge">
<title>jaxlib&#45;&gt;mujoco</title>
<path fill="none" stroke="black" d="M865.25,-332.05C867.94,-324.52 871.19,-315.44 874.22,-306.94"/>
<polygon fill="black" stroke="black" points="877.45,-308.3 877.52,-297.7 870.86,-305.94 877.45,-308.3"/>
</g>
<!-- mujoco&#45;&gt;ray&#45;packages -->
<g id="edge12" class="edge">
<title>mujoco&#45;&gt;ray&#45;packages</title>
<path fill="none" stroke="black" d="M884.2,-259.7C884.2,-252.41 884.2,-243.73 884.2,-235.54"/>
<polygon fill="black" stroke="black" points="887.7,-235.62 884.2,-225.62 880.7,-235.62 887.7,-235.62"/>
</g>
<!-- libignition&#45;transport4 -->
<g id="node16" class="node">
<title>libignition&#45;transport4</title>
<g id="a_node16"><a xlink:href="https://github.com/conda-forge/libignition-transport4-feedstock" xlink:title="libignition transport4">
<ellipse fill="#fde725" stroke="black" cx="205.2" cy="-898" rx="119.08" ry="18"/>
<text text-anchor="middle" x="205.2" y="-893.33" font-family="Times,serif" font-size="14.00">libignition transport4</text>
</a>
</g>
</g>
<!-- libignition&#45;sensors -->
<g id="node17" class="node">
<title>libignition&#45;sensors</title>
<g id="a_node17"><a xlink:href="https://github.com/conda-forge/libignition-sensors-feedstock" xlink:title="libignition sensors">
<ellipse fill="#fde725" stroke="black" cx="360.2" cy="-826" rx="103.82" ry="18"/>
<text text-anchor="middle" x="360.2" y="-821.33" font-family="Times,serif" font-size="14.00">libignition sensors</text>
</a>
</g>
</g>
<!-- libignition&#45;transport4&#45;&gt;libignition&#45;sensors -->
<g id="edge13" class="edge">
<title>libignition&#45;transport4&#45;&gt;libignition&#45;sensors</title>
<path fill="none" stroke="black" d="M241.93,-880.41C263.44,-870.7 290.79,-858.34 313.78,-847.96"/>
<polygon fill="black" stroke="black" points="314.94,-851.28 322.62,-843.97 312.06,-844.9 314.94,-851.28"/>
</g>
<!-- libignition&#45;gui -->
<g id="node18" class="node">
<title>libignition&#45;gui</title>
<g id="a_node18"><a xlink:href="https://github.com/conda-forge/libignition-gui-feedstock" xlink:title="libignition gui">
<ellipse fill="#fde725" stroke="black" cx="81.2" cy="-826" rx="81.2" ry="18"/>
<text text-anchor="middle" x="81.2" y="-821.33" font-family="Times,serif" font-size="14.00">libignition gui</text>
</a>
</g>
</g>
<!-- libignition&#45;transport4&#45;&gt;libignition&#45;gui -->
<g id="edge14" class="edge">
<title>libignition&#45;transport4&#45;&gt;libignition&#45;gui</title>
<path fill="none" stroke="black" d="M175.5,-880.23C158.77,-870.79 137.69,-858.89 119.7,-848.74"/>
<polygon fill="black" stroke="black" points="121.55,-845.76 111.12,-843.89 118.11,-851.86 121.55,-845.76"/>
</g>
<!-- libignition&#45;gazebo -->
<g id="node19" class="node">
<title>libignition&#45;gazebo</title>
<g id="a_node19"><a xlink:href="https://github.com/conda-forge/libignition-gazebo-feedstock" xlink:title="libignition gazebo">
<ellipse fill="#fde725" stroke="black" cx="340.2" cy="-754" rx="100.66" ry="18"/>
<text text-anchor="middle" x="340.2" y="-749.33" font-family="Times,serif" font-size="14.00">libignition gazebo</text>
</a>
</g>
</g>
<!-- libignition&#45;transport4&#45;&gt;libignition&#45;gazebo -->
<g id="edge15" class="edge">
<title>libignition&#45;transport4&#45;&gt;libignition&#45;gazebo</title>
<path fill="none" stroke="black" d="M209.87,-879.8C215.85,-860.43 227.81,-828.94 247.2,-808 259.31,-794.91 275.42,-784.19 290.82,-775.89"/>
<polygon fill="black" stroke="black" points="292.13,-779.16 299.44,-771.49 288.94,-772.92 292.13,-779.16"/>
</g>
<!-- libignition&#45;launch -->
<g id="node20" class="node">
<title>libignition&#45;launch</title>
<g id="a_node20"><a xlink:href="https://github.com/conda-forge/libignition-launch-feedstock" xlink:title="libignition launch">
<ellipse fill="#fde725" stroke="black" cx="275.2" cy="-682" rx="98.56" ry="18"/>
<text text-anchor="middle" x="275.2" y="-677.33" font-family="Times,serif" font-size="14.00">libignition launch</text>
</a>
</g>
</g>
<!-- libignition&#45;transport4&#45;&gt;libignition&#45;launch -->
<g id="edge16" class="edge">
<title>libignition&#45;transport4&#45;&gt;libignition&#45;launch</title>
<path fill="none" stroke="black" d="M204.87,-879.68C204.93,-849.2 207.96,-784.62 230.2,-736 234.77,-726 241.78,-716.41 248.92,-708.2"/>
<polygon fill="black" stroke="black" points="251.37,-710.72 255.58,-701 246.23,-705.97 251.37,-710.72"/>
</g>
<!-- libignition&#45;sensors&#45;&gt;libignition&#45;gazebo -->
<g id="edge17" class="edge">
<title>libignition&#45;sensors&#45;&gt;libignition&#45;gazebo</title>
<path fill="none" stroke="black" d="M355.25,-807.7C353.12,-800.24 350.58,-791.32 348.19,-782.97"/>
<polygon fill="black" stroke="black" points="351.61,-782.21 345.5,-773.56 344.88,-784.14 351.61,-782.21"/>
</g>
<!-- libignition&#45;gui&#45;&gt;libignition&#45;gazebo -->
<g id="edge18" class="edge">
<title>libignition&#45;gui&#45;&gt;libignition&#45;gazebo</title>
<path fill="none" stroke="black" d="M131.44,-811.42C172.4,-800.35 230.54,-784.64 275.06,-772.6"/>
<polygon fill="black" stroke="black" points="275.87,-776.01 284.61,-770.02 274.04,-769.25 275.87,-776.01"/>
</g>
<!-- libignition&#45;gui&#45;&gt;libignition&#45;launch -->
<g id="edge19" class="edge">
<title>libignition&#45;gui&#45;&gt;libignition&#45;launch</title>
<path fill="none" stroke="black" d="M96.54,-808.18C114.45,-789.17 145.53,-758 176.2,-736 192.88,-724.03 212.6,-712.94 230.02,-704.03"/>
<polygon fill="black" stroke="black" points="231.25,-707.33 238.63,-699.72 228.12,-701.07 231.25,-707.33"/>
</g>
<!-- libignition&#45;gazebo&#45;&gt;libignition&#45;launch -->
<g id="edge20" class="edge">
<title>libignition&#45;gazebo&#45;&gt;libignition&#45;launch</title>
<path fill="none" stroke="black" d="M324.46,-736.05C316.64,-727.63 307.03,-717.28 298.38,-707.97"/>
<polygon fill="black" stroke="black" points="301.19,-705.84 291.82,-700.9 296.06,-710.61 301.19,-705.84"/>
</g>
<!-- libignition&#45;msgs1 -->
<g id="node21" class="node">
<title>libignition&#45;msgs1</title>
<g id="a_node21"><a xlink:href="https://github.com/conda-forge/libignition-msgs1-feedstock/pull/103" xlink:title="libignition msgs1 ✓">
<ellipse fill="#31688e" stroke="black" cx="422.2" cy="-970" rx="105.92" ry="18"/>
<text text-anchor="middle" x="422.2" y="-965.33" font-family="Times,serif" font-size="14.00" fill="white">libignition msgs1 ✓</text>
</a>
</g>
</g>
<!-- libignition&#45;msgs1&#45;&gt;libignition&#45;transport4 -->
<g id="edge21" class="edge">
<title>libignition&#45;msgs1&#45;&gt;libignition&#45;transport4</title>
<path fill="none" stroke="black" d="M374.31,-953.55C342.1,-943.16 299.39,-929.39 264.96,-918.28"/>
<polygon fill="black" stroke="black" points="266.12,-914.98 255.53,-915.24 263.98,-921.64 266.12,-914.98"/>
</g>
<!-- libignition&#45;msgs1&#45;&gt;libignition&#45;sensors -->
<g id="edge22" class="edge">
<title>libignition&#45;msgs1&#45;&gt;libignition&#45;sensors</title>
<path fill="none" stroke="black" d="M400.15,-951.97C389.6,-942.55 377.84,-929.95 371.2,-916 362.23,-897.18 359.64,-873.7 359.2,-855.59"/>
<polygon fill="black" stroke="black" points="362.7,-855.8 359.19,-845.8 355.7,-855.81 362.7,-855.8"/>
</g>
<!-- libignition&#45;msgs1&#45;&gt;libignition&#45;gui -->
<g id="edge23" class="edge">
<title>libignition&#45;msgs1&#45;&gt;libignition&#45;gui</title>
<path fill="none" stroke="black" d="M316.88,-967.37C227.03,-963.47 107.68,-951.53 77.2,-916 63.12,-899.59 65.61,-874.57 70.77,-855.23"/>
<polygon fill="black" stroke="black" points="74.08,-856.36 73.66,-845.78 67.39,-854.31 74.08,-856.36"/>
</g>
<!-- libignition&#45;msgs1&#45;&gt;libignition&#45;gazebo -->
<g id="edge24" class="edge">
<title>libignition&#45;msgs1&#45;&gt;libignition&#45;gazebo</title>
<path fill="none" stroke="black" d="M510.91,-959.84C572.63,-949.28 639.52,-926.89 613.2,-880 576.3,-814.25 493.95,-782.9 429.29,-768.06"/>
<polygon fill="black" stroke="black" points="430.25,-764.69 419.74,-765.97 428.76,-771.53 430.25,-764.69"/>
</g>
<!-- libignition&#45;msgs1&#45;&gt;libignition&#45;launch -->
<g id="edge25" class="edge">
<title>libignition&#45;msgs1&#45;&gt;libignition&#45;launch</title>
<path fill="none" stroke="black" d="M504.42,-958.35C555.22,-949.89 613.59,-936.11 629.2,-916 639.01,-903.36 634.32,-895.16 629.2,-880 591.3,-767.96 450.44,-718.11 358.24,-697.09"/>
<polygon fill="black" stroke="black" points="359.24,-693.73 348.72,-694.99 357.74,-700.56 359.24,-693.73"/>
</g>
<!-- libignition&#45;fuel&#45;tools -->
<g id="node22" class="node">
<title>libignition&#45;fuel&#45;tools</title>
<g id="a_node22"><a xlink:href="https://github.com/conda-forge/libignition-fuel-tools-feedstock" xlink:title="libignition fuel tools">
<ellipse fill="#fde725" stroke="black" cx="492.2" cy="-898" rx="111.71" ry="18"/>
<text text-anchor="middle" x="492.2" y="-893.33" font-family="Times,serif" font-size="14.00">libignition fuel tools</text>
</a>
</g>
</g>
<!-- libignition&#45;msgs1&#45;&gt;libignition&#45;fuel&#45;tools -->
<g id="edge26" class="edge">
<title>libignition&#45;msgs1&#45;&gt;libignition&#45;fuel&#45;tools</title>
<path fill="none" stroke="black" d="M439.14,-952.05C447.45,-943.75 457.61,-933.58 466.82,-924.38"/>
<polygon fill="black" stroke="black" points="469.26,-926.89 473.85,-917.35 464.31,-921.94 469.26,-926.89"/>
</g>
<!-- libignition&#45;fuel&#45;tools&#45;&gt;libignition&#45;gazebo -->
<g id="edge27" class="edge">
<title>libignition&#45;fuel&#45;tools&#45;&gt;libignition&#45;gazebo</title>
<path fill="none" stroke="black" d="M493.08,-879.52C493.12,-859.89 490.22,-828.16 473.2,-808 458.93,-791.1 438.51,-779.54 417.94,-771.66"/>
<polygon fill="black" stroke="black" points="419.23,-768.4 408.63,-768.36 416.89,-775 419.23,-768.4"/>
</g>
<!-- cartographer -->
<g id="node24" class="node">
<title>cartographer</title>
<g id="a_node24"><a xlink:href="https://github.com/conda-forge/cartographer-feedstock" xlink:title="cartographer">
<ellipse fill="#35b779" stroke="black" cx="1172.2" cy="-610" rx="76.99" ry="18"/>
<text text-anchor="middle" x="1172.2" y="-605.33" font-family="Times,serif" font-size="14.00">cartographer</text>
</a>
</g>
</g>
<!-- go&#45;cockroach&#45;&gt;cartographer -->
<!-- tomviz -->
<g id="node25" class="node">
<title>tomviz</title>
<g id="a_node25"><a xlink:href="https://github.com/conda-forge/tomviz-feedstock" xlink:title="tomviz">
<ellipse fill="#35b779" stroke="black" cx="1172.2" cy="-538" rx="44.9" ry="18"/>
<text text-anchor="middle" x="1172.2" y="-533.33" font-family="Times,serif" font-size="14.00">tomviz</text>
</a>
</g>
</g>
<!-- cartographer&#45;&gt;tomviz -->
<!-- imp -->
<g id="node28" class="node">
<title>imp</title>
<g id="a_node28"><a xlink:href="https://github.com/conda-forge/imp-feedstock/pull/42" xlink:title="imp ❎">
<ellipse fill="#31688e" stroke="black" cx="1172.2" cy="-466" rx="45.42" ry="18"/>
<text text-anchor="middle" x="1172.2" y="-461.32" font-family="Times,serif" font-size="14.00" fill="white">imp ❎</text>
</a>
</g>
</g>
<!-- tomviz&#45;&gt;imp -->
<!-- s2geometry -->
<g id="node26" class="node">
<title>s2geometry</title>
<g id="a_node26"><a xlink:href="https://github.com/conda-forge/s2geometry-feedstock/pull/16" xlink:title="s2geometry ✓">
<ellipse fill="#31688e" stroke="black" cx="319.2" cy="-90" rx="78.57" ry="18"/>
<text text-anchor="middle" x="319.2" y="-85.33" font-family="Times,serif" font-size="14.00" fill="white">s2geometry ✓</text>
</a>
</g>
</g>
<!-- s2geography -->
<g id="node27" class="node">
<title>s2geography</title>
<g id="a_node27"><a xlink:href="https://github.com/conda-forge/s2geography-feedstock" xlink:title="s2geography">
<ellipse fill="#fde725" stroke="black" cx="319.2" cy="-18" rx="75.94" ry="18"/>
<text text-anchor="middle" x="319.2" y="-13.32" font-family="Times,serif" font-size="14.00">s2geography</text>
</a>
</g>
</g>
<!-- s2geometry&#45;&gt;s2geography -->
<g id="edge31" class="edge">
<title>s2geometry&#45;&gt;s2geography</title>
<path fill="none" stroke="black" d="M319.2,-71.7C319.2,-64.41 319.2,-55.73 319.2,-47.54"/>
<polygon fill="black" stroke="black" points="322.7,-47.62 319.2,-37.62 315.7,-47.62 322.7,-47.62"/>
</g>
<!-- or&#45;tools -->
<g id="node29" class="node">
<title>or&#45;tools</title>
<g id="a_node29"><a xlink:href="https://github.com/conda-forge/or-tools-feedstock/pull/55" xlink:title="or tools ❎">
<ellipse fill="#31688e" stroke="black" cx="850.2" cy="-1150" rx="64.36" ry="18"/>
<text text-anchor="middle" x="850.2" y="-1145.33" font-family="Times,serif" font-size="14.00" fill="white">or tools ❎</text>
</a>
</g>
</g>
<!-- bear -->
<g id="node30" class="node">
<title>bear</title>
<g id="a_node30"><a xlink:href="https://github.com/conda-forge/bear-feedstock" xlink:title="bear">
<ellipse fill="#35b779" stroke="black" cx="850.2" cy="-1078" rx="33.85" ry="18"/>
<text text-anchor="middle" x="850.2" y="-1073.33" font-family="Times,serif" font-size="14.00">bear</text>
</a>
</g>
</g>
<!-- or&#45;tools&#45;&gt;bear -->
<!-- cpp&#45;opentelemetry&#45;sdk -->
<g id="node31" class="node">
<title>cpp&#45;opentelemetry&#45;sdk</title>
<g id="a_node31"><a xlink:href="https://github.com/conda-forge/cpp-opentelemetry-sdk-feedstock" xlink:title="cpp opentelemetry sdk">
<ellipse fill="#35b779" stroke="black" cx="850.2" cy="-1006" rx="125.92" ry="18"/>
<text text-anchor="middle" x="850.2" y="-1001.33" font-family="Times,serif" font-size="14.00">cpp opentelemetry sdk</text>
</a>
</g>
</g>
<!-- bear&#45;&gt;cpp&#45;opentelemetry&#45;sdk -->
<!-- singlejar -->
<g id="node32" class="node">
<title>singlejar</title>
<g id="a_node32"><a xlink:href="https://github.com/conda-forge/singlejar-feedstock" xlink:title="singlejar">
<ellipse fill="#35b779" stroke="black" cx="850.2" cy="-934" rx="54.89" ry="18"/>
<text text-anchor="middle" x="850.2" y="-929.33" font-family="Times,serif" font-size="14.00">singlejar</text>
</a>
</g>
</g>
<!-- cpp&#45;opentelemetry&#45;sdk&#45;&gt;singlejar -->
<!-- xilinx&#45;runtime -->
<g id="node33" class="node">
<title>xilinx&#45;runtime</title>
<g id="a_node33"><a xlink:href="https://github.com/conda-forge/xilinx-runtime-feedstock" xlink:title="xilinx runtime">
<ellipse fill="#35b779" stroke="black" cx="850.2" cy="-862" rx="81.72" ry="18"/>
<text text-anchor="middle" x="850.2" y="-857.33" font-family="Times,serif" font-size="14.00">xilinx runtime</text>
</a>
</g>
</g>
<!-- singlejar&#45;&gt;xilinx&#45;runtime -->
<!-- arcticdb -->
<g id="node34" class="node">
<title>arcticdb</title>
<g id="a_node34"><a xlink:href="https://github.com/conda-forge/arcticdb-feedstock" xlink:title="arcticdb">
<ellipse fill="#35b779" stroke="black" cx="850.2" cy="-790" rx="52.26" ry="18"/>
<text text-anchor="middle" x="850.2" y="-785.33" font-family="Times,serif" font-size="14.00">arcticdb</text>
</a>
</g>
</g>
<!-- xilinx&#45;runtime&#45;&gt;arcticdb -->
<!-- gnss&#45;sdr -->
<g id="node43" class="node">
<title>gnss&#45;sdr</title>
<g id="a_node43"><a xlink:href="https://github.com/conda-forge/gnss-sdr-feedstock" xlink:title="gnss sdr">
<ellipse fill="#35b779" stroke="black" cx="850.2" cy="-718" rx="53.84" ry="18"/>
<text text-anchor="middle" x="850.2" y="-713.33" font-family="Times,serif" font-size="14.00">gnss sdr</text>
</a>
</g>
</g>
<!-- arcticdb&#45;&gt;gnss&#45;sdr -->
<!-- gz&#45;msgs -->
<g id="node35" class="node">
<title>gz&#45;msgs</title>
<g id="a_node35"><a xlink:href="https://github.com/conda-forge/gz-msgs-feedstock/pull/27" xlink:title="gz msgs ✓">
<ellipse fill="#31688e" stroke="black" cx="281.2" cy="-422" rx="60.15" ry="18"/>
<text text-anchor="middle" x="281.2" y="-417.32" font-family="Times,serif" font-size="14.00" fill="white">gz msgs ✓</text>
</a>
</g>
</g>
<!-- gz&#45;transport -->
<g id="node36" class="node">
<title>gz&#45;transport</title>
<g id="a_node36"><a xlink:href="https://github.com/conda-forge/gz-transport-feedstock" xlink:title="gz transport">
<ellipse fill="#fde725" stroke="black" cx="231.2" cy="-350" rx="73.3" ry="18"/>
<text text-anchor="middle" x="231.2" y="-345.32" font-family="Times,serif" font-size="14.00">gz transport</text>
</a>
</g>
</g>
<!-- gz&#45;msgs&#45;&gt;gz&#45;transport -->
<g id="edge38" class="edge">
<title>gz&#45;msgs&#45;&gt;gz&#45;transport</title>
<path fill="none" stroke="black" d="M269.09,-404.05C263.32,-395.97 256.28,-386.12 249.85,-377.11"/>
<polygon fill="black" stroke="black" points="252.73,-375.12 244.07,-369.02 247.03,-379.19 252.73,-375.12"/>
</g>
<!-- gz&#45;fuel&#45;tools -->
<g id="node37" class="node">
<title>gz&#45;fuel&#45;tools</title>
<g id="a_node37"><a xlink:href="https://github.com/conda-forge/gz-fuel-tools-feedstock" xlink:title="gz fuel tools">
<ellipse fill="#fde725" stroke="black" cx="432.2" cy="-350" rx="72.25" ry="18"/>
<text text-anchor="middle" x="432.2" y="-345.32" font-family="Times,serif" font-size="14.00">gz fuel tools</text>
</a>
</g>
</g>
<!-- gz&#45;msgs&#45;&gt;gz&#45;fuel&#45;tools -->
<g id="edge39" class="edge">
<title>gz&#45;msgs&#45;&gt;gz&#45;fuel&#45;tools</title>
<path fill="none" stroke="black" d="M312.85,-406.33C334.85,-396.13 364.45,-382.41 388.66,-371.18"/>
<polygon fill="black" stroke="black" points="390.04,-374.4 397.64,-367.02 387.1,-368.05 390.04,-374.4"/>
</g>
<!-- gz&#45;gui -->
<g id="node38" class="node">
<title>gz&#45;gui</title>
<g id="a_node38"><a xlink:href="https://github.com/conda-forge/gz-gui-feedstock" xlink:title="gz gui">
<ellipse fill="#fde725" stroke="black" cx="140.2" cy="-278" rx="41.74" ry="18"/>
<text text-anchor="middle" x="140.2" y="-273.32" font-family="Times,serif" font-size="14.00">gz gui</text>
</a>
</g>
</g>
<!-- gz&#45;msgs&#45;&gt;gz&#45;gui -->
<g id="edge40" class="edge">
<title>gz&#45;msgs&#45;&gt;gz&#45;gui</title>
<path fill="none" stroke="black" d="M228.12,-413.12C200.17,-406.09 167.9,-392.87 149.2,-368 136.35,-350.92 134.71,-326.47 135.95,-307.53"/>
<polygon fill="black" stroke="black" points="139.41,-308.08 136.9,-297.78 132.45,-307.39 139.41,-308.08"/>
</g>
<!-- gz&#45;sensors -->
<g id="node39" class="node">
<title>gz&#45;sensors</title>
<g id="a_node39"><a xlink:href="https://github.com/conda-forge/gz-sensors-feedstock" xlink:title="gz sensors">
<ellipse fill="#fde725" stroke="black" cx="340.2" cy="-278" rx="64.36" ry="18"/>
<text text-anchor="middle" x="340.2" y="-273.32" font-family="Times,serif" font-size="14.00">gz sensors</text>
</a>
</g>
</g>
<!-- gz&#45;msgs&#45;&gt;gz&#45;sensors -->
<g id="edge41" class="edge">
<title>gz&#45;msgs&#45;&gt;gz&#45;sensors</title>
<path fill="none" stroke="black" d="M293,-403.93C299.6,-393.82 307.6,-380.57 313.2,-368 321.94,-348.37 328.89,-325.1 333.55,-307.28"/>
<polygon fill="black" stroke="black" points="336.92,-308.2 335.97,-297.65 330.13,-306.5 336.92,-308.2"/>
</g>
<!-- gz&#45;sim -->
<g id="node40" class="node">
<title>gz&#45;sim</title>
<g id="a_node40"><a xlink:href="https://github.com/conda-forge/gz-sim-feedstock" xlink:title="gz sim">
<ellipse fill="#fde725" stroke="black" cx="311.2" cy="-206" rx="43.84" ry="18"/>
<text text-anchor="middle" x="311.2" y="-201.33" font-family="Times,serif" font-size="14.00">gz sim</text>
</a>
</g>
</g>
<!-- gz&#45;msgs&#45;&gt;gz&#45;sim -->
<g id="edge42" class="edge">
<title>gz&#45;msgs&#45;&gt;gz&#45;sim</title>
<path fill="none" stroke="black" d="M338.3,-415.99C399.79,-409.27 491.72,-394.93 513.2,-368 565.96,-301.83 431.16,-245.72 356.66,-220.8"/>
<polygon fill="black" stroke="black" points="358.16,-217.61 347.57,-217.83 355.98,-224.27 358.16,-217.61"/>
</g>
<!-- gz&#45;launch -->
<g id="node41" class="node">
<title>gz&#45;launch</title>
<g id="a_node41"><a xlink:href="https://github.com/conda-forge/gz-launch-feedstock" xlink:title="gz launch">
<ellipse fill="#fde725" stroke="black" cx="191.2" cy="-134" rx="59.1" ry="18"/>
<text text-anchor="middle" x="191.2" y="-129.32" font-family="Times,serif" font-size="14.00">gz launch</text>
</a>
</g>
</g>
<!-- gz&#45;msgs&#45;&gt;gz&#45;launch -->
<g id="edge43" class="edge">
<title>gz&#45;msgs&#45;&gt;gz&#45;launch</title>
<path fill="none" stroke="black" d="M230.68,-411.83C199.91,-404.22 161.25,-390.82 133.2,-368 104.11,-344.33 99.36,-332.1 89.2,-296 73.79,-241.24 125.08,-187.41 160.44,-157.97"/>
<polygon fill="black" stroke="black" points="162.28,-160.98 167.85,-151.97 157.88,-155.54 162.28,-160.98"/>
</g>
<!-- gz&#45;transport&#45;&gt;gz&#45;gui -->
<g id="edge44" class="edge">
<title>gz&#45;transport&#45;&gt;gz&#45;gui</title>
<path fill="none" stroke="black" d="M209.63,-332.41C197.54,-323.11 182.29,-311.38 169.16,-301.28"/>
<polygon fill="black" stroke="black" points="171.31,-298.52 161.25,-295.2 167.05,-304.07 171.31,-298.52"/>
</g>
<!-- gz&#45;transport&#45;&gt;gz&#45;sensors -->
<g id="edge45" class="edge">
<title>gz&#45;transport&#45;&gt;gz&#45;sensors</title>
<path fill="none" stroke="black" d="M256.48,-332.76C271.17,-323.33 289.87,-311.32 305.88,-301.04"/>
<polygon fill="black" stroke="black" points="307.63,-304.07 314.16,-295.72 303.85,-298.18 307.63,-304.07"/>
</g>
<!-- gz&#45;transport&#45;&gt;gz&#45;sim -->
<g id="edge46" class="edge">
<title>gz&#45;transport&#45;&gt;gz&#45;sim</title>
<path fill="none" stroke="black" d="M236.37,-331.87C242.35,-313.39 253.18,-283.46 267.2,-260 273.12,-250.1 280.82,-240.13 288.13,-231.55"/>
<polygon fill="black" stroke="black" points="290.52,-234.13 294.51,-224.32 285.27,-229.5 290.52,-234.13"/>
</g>
<!-- gz&#45;transport&#45;&gt;gz&#45;launch -->
<g id="edge47" class="edge">
<title>gz&#45;transport&#45;&gt;gz&#45;launch</title>
<path fill="none" stroke="black" d="M227.99,-331.85C221.13,-295.14 204.97,-208.66 196.53,-163.53"/>
<polygon fill="black" stroke="black" points="199.97,-162.91 194.7,-153.72 193.09,-164.19 199.97,-162.91"/>
</g>
<!-- gz&#45;fuel&#45;tools&#45;&gt;gz&#45;sim -->
<g id="edge48" class="edge">
<title>gz&#45;fuel&#45;tools&#45;&gt;gz&#45;sim</title>
<path fill="none" stroke="black" d="M432.7,-331.82C432.4,-312.47 429.19,-280.99 413.2,-260 399.26,-241.7 377.19,-229.13 357.14,-220.85"/>
<polygon fill="black" stroke="black" points="358.58,-217.65 347.99,-217.33 356.07,-224.19 358.58,-217.65"/>
</g>
<!-- gz&#45;gui&#45;&gt;gz&#45;sim -->
<g id="edge49" class="edge">
<title>gz&#45;gui&#45;&gt;gz&#45;sim</title>
<path fill="none" stroke="black" d="M169.59,-264.97C197.44,-253.57 239.5,-236.35 270.55,-223.64"/>
<polygon fill="black" stroke="black" points="271.71,-226.95 279.64,-219.92 269.06,-220.47 271.71,-226.95"/>
</g>
<!-- gz&#45;gui&#45;&gt;gz&#45;launch -->
<g id="edge50" class="edge">
<title>gz&#45;gui&#45;&gt;gz&#45;launch</title>
<path fill="none" stroke="black" d="M146.35,-259.87C155,-235.78 170.87,-191.6 181.22,-162.77"/>
<polygon fill="black" stroke="black" points="184.43,-164.21 184.51,-153.61 177.84,-161.84 184.43,-164.21"/>
</g>
<!-- gz&#45;sensors&#45;&gt;gz&#45;sim -->
<g id="edge51" class="edge">
<title>gz&#45;sensors&#45;&gt;gz&#45;sim</title>
<path fill="none" stroke="black" d="M333.03,-259.7C329.9,-252.15 326.16,-243.12 322.67,-234.68"/>
<polygon fill="black" stroke="black" points="325.92,-233.4 318.86,-225.5 319.46,-236.08 325.92,-233.4"/>
</g>
<!-- gz&#45;sim&#45;&gt;gz&#45;launch -->
<g id="edge52" class="edge">
<title>gz&#45;sim&#45;&gt;gz&#45;launch</title>
<path fill="none" stroke="black" d="M286.62,-190.67C269.65,-180.77 246.79,-167.43 227.7,-156.29"/>
<polygon fill="black" stroke="black" points="229.53,-153.31 219.13,-151.29 226,-159.36 229.53,-153.31"/>
</g>
<!-- labmaze -->
<g id="node42" class="node">
<title>labmaze</title>
<g id="a_node42"><a xlink:href="https://github.com/conda-forge/labmaze-feedstock/pull/10" xlink:title="labmaze ❎">
<ellipse fill="#31688e" stroke="black" cx="984.2" cy="-350" rx="68.04" ry="18"/>
<text text-anchor="middle" x="984.2" y="-345.32" font-family="Times,serif" font-size="14.00" fill="white">labmaze ❎</text>
</a>
</g>
</g>
<!-- labmaze&#45;&gt;ray&#45;packages -->
<g id="edge53" class="edge">
<title>labmaze&#45;&gt;ray&#45;packages</title>
<path fill="none" stroke="black" d="M977.74,-331.59C970.32,-312.87 956.99,-282.74 940.2,-260 932.61,-249.72 922.89,-239.73 913.68,-231.25"/>
<polygon fill="black" stroke="black" points="916.03,-228.66 906.23,-224.63 911.38,-233.89 916.03,-228.66"/>
</g>
<!-- tensorstore -->
<g id="node44" class="node">
<title>tensorstore</title>
<g id="a_node44"><a xlink:href="https://github.com/conda-forge/tensorstore-feedstock/pull/20" xlink:title="tensorstore ✓">
<ellipse fill="#31688e" stroke="black" cx="850.2" cy="-646" rx="76.99" ry="18"/>
<text text-anchor="middle" x="850.2" y="-641.33" font-family="Times,serif" font-size="14.00" fill="white">tensorstore ✓</text>
</a>
</g>
</g>
<!-- gnss&#45;sdr&#45;&gt;tensorstore -->
<!-- gcld3 -->
<g id="node45" class="node">
<title>gcld3</title>
<g id="a_node45"><a xlink:href="https://github.com/conda-forge/gcld3-feedstock" xlink:title="gcld3">
<ellipse fill="#35b779" stroke="black" cx="850.2" cy="-574" rx="38.58" ry="18"/>
<text text-anchor="middle" x="850.2" y="-569.33" font-family="Times,serif" font-size="14.00">gcld3</text>
</a>
</g>
</g>
<!-- tensorstore&#45;&gt;gcld3 -->
<!-- bloaty -->
<g id="node46" class="node">
<title>bloaty</title>
<g id="a_node46"><a xlink:href="https://github.com/conda-forge/bloaty-feedstock" xlink:title="bloaty">
<ellipse fill="#35b779" stroke="black" cx="850.2" cy="-502" rx="42.26" ry="18"/>
<text text-anchor="middle" x="850.2" y="-497.32" font-family="Times,serif" font-size="14.00">bloaty</text>
</a>
</g>
</g>
<!-- gcld3&#45;&gt;bloaty -->
</g>
</svg>
