<?xml version="1.0" encoding="UTF-8" standalone="no"?>
<!DOCTYPE svg PUBLIC "-//W3C//DTD SVG 1.1//EN"
 "http://www.w3.org/Graphics/SVG/1.1/DTD/svg11.dtd">
<!-- Generated by graphviz version 9.0.0 (20231125.0833)
 -->
<!-- Pages: 1 -->
<svg width="1166pt" height="1212pt"
 viewBox="0.00 0.00 1166.01 1212.00" xmlns="http://www.w3.org/2000/svg" xmlns:xlink="http://www.w3.org/1999/xlink">
<g id="graph0" class="graph" transform="scale(1 1) rotate(0) translate(4 1208)">
<polygon fill="white" stroke="none" points="-4,4 -4,-1208 1162.01,-1208 1162.01,4 -4,4"/>
<!-- mosh -->
<g id="node1" class="node">
<title>mosh</title>
<g id="a_node1"><a xlink:href="https://github.com/conda-forge/mosh-feedstock/pull/38" xlink:title="mosh ✓">
<ellipse fill="#31688e" stroke="black" cx="125.92" cy="-1186" rx="45.95" ry="18"/>
<text text-anchor="middle" x="125.92" y="-1181.33" font-family="Times,serif" font-size="14.00" fill="white">mosh ✓</text>
</a>
</g>
</g>
<!-- paraview -->
<g id="node2" class="node">
<title>paraview</title>
<g id="a_node2"><a xlink:href="https://github.com/conda-forge/paraview-feedstock/pull/231" xlink:title="paraview ✓">
<ellipse fill="#31688e" stroke="black" cx="125.92" cy="-1114" rx="64.89" ry="18"/>
<text text-anchor="middle" x="125.92" y="-1109.33" font-family="Times,serif" font-size="14.00" fill="white">paraview ✓</text>
</a>
</g>
</g>
<!-- mosh&#45;&gt;paraview -->
<!-- pyaudi -->
<g id="node3" class="node">
<title>pyaudi</title>
<g id="a_node3"><a xlink:href="https://github.com/conda-forge/pyaudi-feedstock" xlink:title="pyaudi">
<ellipse fill="#ff8c00" stroke="black" cx="125.92" cy="-1042" rx="44.9" ry="18"/>
<text text-anchor="middle" x="125.92" y="-1037.33" font-family="Times,serif" font-size="14.00">pyaudi</text>
</a>
</g>
</g>
<!-- paraview&#45;&gt;pyaudi -->
<!-- tensorflow -->
<g id="node8" class="node">
<title>tensorflow</title>
<g id="a_node8"><a xlink:href="https://github.com/conda-forge/tensorflow-feedstock" xlink:title="tensorflow">
<ellipse fill="#ff8c00" stroke="black" cx="125.92" cy="-970" rx="63.84" ry="18"/>
<text text-anchor="middle" x="125.92" y="-965.33" font-family="Times,serif" font-size="14.00">tensorflow</text>
</a>
</g>
</g>
<!-- pyaudi&#45;&gt;tensorflow -->
<!-- qgis -->
<g id="node4" class="node">
<title>qgis</title>
<g id="a_node4"><a xlink:href="https://github.com/conda-forge/qgis-feedstock" xlink:title="qgis">
<ellipse fill="#fde725" stroke="black" cx="434.92" cy="-314" rx="32.27" ry="18"/>
<text text-anchor="middle" x="434.92" y="-309.32" font-family="Times,serif" font-size="14.00">qgis</text>
</a>
</g>
</g>
<!-- tiledb -->
<g id="node5" class="node">
<title>tiledb</title>
<g id="a_node5"><a xlink:href="https://github.com/conda-forge/tiledb-feedstock" xlink:title="tiledb">
<ellipse fill="#ff8c00" stroke="black" cx="464.92" cy="-386" rx="40.16" ry="18"/>
<text text-anchor="middle" x="464.92" y="-381.32" font-family="Times,serif" font-size="14.00">tiledb</text>
</a>
</g>
</g>
<!-- tiledb&#45;&gt;qgis -->
<g id="edge3" class="edge">
<title>tiledb&#45;&gt;qgis</title>
<path fill="none" stroke="black" d="M457.66,-368.05C454.34,-360.32 450.33,-350.96 446.6,-342.27"/>
<polygon fill="black" stroke="black" points="449.86,-340.99 442.71,-333.18 443.43,-343.75 449.86,-340.99"/>
</g>
<!-- gazebo -->
<g id="node6" class="node">
<title>gazebo</title>
<g id="a_node6"><a xlink:href="https://github.com/conda-forge/gazebo-feedstock" xlink:title="gazebo">
<ellipse fill="#fde725" stroke="black" cx="494.92" cy="-242" rx="46.47" ry="18"/>
<text text-anchor="middle" x="494.92" y="-237.32" font-family="Times,serif" font-size="14.00">gazebo</text>
</a>
</g>
</g>
<!-- tiledb&#45;&gt;gazebo -->
<g id="edge4" class="edge">
<title>tiledb&#45;&gt;gazebo</title>
<path fill="none" stroke="black" d="M468.6,-367.59C473.68,-343.5 482.93,-299.75 488.99,-271.03"/>
<polygon fill="black" stroke="black" points="492.35,-272.1 490.99,-261.59 485.5,-270.65 492.35,-272.1"/>
</g>
<!-- gazebo&#45;yarp&#45;plugins -->
<g id="node7" class="node">
<title>gazebo&#45;yarp&#45;plugins</title>
<g id="a_node7"><a xlink:href="https://github.com/conda-forge/gazebo-yarp-plugins-feedstock" xlink:title="gazebo yarp plugins">
<ellipse fill="#fde725" stroke="black" cx="494.92" cy="-170" rx="112.24" ry="18"/>
<text text-anchor="middle" x="494.92" y="-165.32" font-family="Times,serif" font-size="14.00">gazebo yarp plugins</text>
</a>
</g>
</g>
<!-- gazebo&#45;&gt;gazebo&#45;yarp&#45;plugins -->
<g id="edge5" class="edge">
<title>gazebo&#45;&gt;gazebo&#45;yarp&#45;plugins</title>
<path fill="none" stroke="black" d="M494.92,-223.7C494.92,-216.41 494.92,-207.73 494.92,-199.54"/>
<polygon fill="black" stroke="black" points="498.42,-199.62 494.92,-189.62 491.42,-199.62 498.42,-199.62"/>
</g>
<!-- mongodb -->
<g id="node9" class="node">
<title>mongodb</title>
<g id="a_node9"><a xlink:href="https://github.com/conda-forge/mongodb-feedstock/pull/84" xlink:title="mongodb ❎">
<ellipse fill="#31688e" stroke="black" cx="125.92" cy="-898" rx="72.78" ry="18"/>
<text text-anchor="middle" x="125.92" y="-893.33" font-family="Times,serif" font-size="14.00" fill="white">mongodb ❎</text>
</a>
</g>
</g>
<!-- tensorflow&#45;&gt;mongodb -->
<!-- go&#45;cockroach -->
<g id="node12" class="node">
<title>go&#45;cockroach</title>
<g id="a_node12"><a xlink:href="https://github.com/conda-forge/go-cockroach-feedstock" xlink:title="go cockroach">
<ellipse fill="#35b779" stroke="black" cx="125.92" cy="-826" rx="76.46" ry="18"/>
<text text-anchor="middle" x="125.92" y="-821.33" font-family="Times,serif" font-size="14.00">go cockroach</text>
</a>
</g>
</g>
<!-- mongodb&#45;&gt;go&#45;cockroach -->
<!-- pytorch&#45;cpu -->
<g id="node10" class="node">
<title>pytorch&#45;cpu</title>
<g id="a_node10"><a xlink:href="https://github.com/conda-forge/pytorch-cpu-feedstock/pull/221" xlink:title="pytorch cpu ❎">
<ellipse fill="#31688e" stroke="black" cx="891.92" cy="-278" rx="85.93" ry="18"/>
<text text-anchor="middle" x="891.92" y="-273.32" font-family="Times,serif" font-size="14.00" fill="white">pytorch cpu ❎</text>
</a>
</g>
</g>
<!-- ray&#45;packages -->
<g id="node11" class="node">
<title>ray&#45;packages</title>
<g id="a_node11"><a xlink:href="https://github.com/conda-forge/ray-packages-feedstock" xlink:title="ray packages">
<ellipse fill="#fde725" stroke="black" cx="966.92" cy="-206" rx="76.99" ry="18"/>
<text text-anchor="middle" x="966.92" y="-201.32" font-family="Times,serif" font-size="14.00">ray packages</text>
</a>
</g>
</g>
<!-- pytorch&#45;cpu&#45;&gt;ray&#45;packages -->
<g id="edge8" class="edge">
<title>pytorch&#45;cpu&#45;&gt;ray&#45;packages</title>
<path fill="none" stroke="black" d="M910.07,-260.05C919.29,-251.46 930.64,-240.86 940.78,-231.4"/>
<polygon fill="black" stroke="black" points="942.9,-234.2 947.82,-224.82 938.12,-229.09 942.9,-234.2"/>
</g>
<!-- cartographer -->
<g id="node15" class="node">
<title>cartographer</title>
<g id="a_node15"><a xlink:href="https://github.com/conda-forge/cartographer-feedstock" xlink:title="cartographer">
<ellipse fill="#35b779" stroke="black" cx="125.92" cy="-754" rx="76.99" ry="18"/>
<text text-anchor="middle" x="125.92" y="-749.33" font-family="Times,serif" font-size="14.00">cartographer</text>
</a>
</g>
</g>
<!-- go&#45;cockroach&#45;&gt;cartographer -->
<!-- jaxlib -->
<g id="node13" class="node">
<title>jaxlib</title>
<g id="a_node13"><a xlink:href="https://github.com/conda-forge/jaxlib-feedstock" xlink:title="jaxlib">
<ellipse fill="#ff8c00" stroke="black" cx="1042.92" cy="-350" rx="38.58" ry="18"/>
<text text-anchor="middle" x="1042.92" y="-345.32" font-family="Times,serif" font-size="14.00">jaxlib</text>
</a>
</g>
</g>
<!-- mujoco -->
<g id="node14" class="node">
<title>mujoco</title>
<g id="a_node14"><a xlink:href="https://github.com/conda-forge/mujoco-feedstock" xlink:title="mujoco">
<ellipse fill="#fde725" stroke="black" cx="1042.92" cy="-278" rx="47" ry="18"/>
<text text-anchor="middle" x="1042.92" y="-273.32" font-family="Times,serif" font-size="14.00">mujoco</text>
</a>
</g>
</g>
<!-- jaxlib&#45;&gt;mujoco -->
<g id="edge10" class="edge">
<title>jaxlib&#45;&gt;mujoco</title>
<path fill="none" stroke="black" d="M1042.92,-331.7C1042.92,-324.41 1042.92,-315.73 1042.92,-307.54"/>
<polygon fill="black" stroke="black" points="1046.42,-307.62 1042.92,-297.62 1039.42,-307.62 1046.42,-307.62"/>
</g>
<!-- mujoco&#45;&gt;ray&#45;packages -->
<g id="edge11" class="edge">
<title>mujoco&#45;&gt;ray&#45;packages</title>
<path fill="none" stroke="black" d="M1025.67,-261.12C1016.13,-252.33 1004.08,-241.23 993.38,-231.37"/>
<polygon fill="black" stroke="black" points="995.99,-229.02 986.27,-224.82 991.25,-234.17 995.99,-229.02"/>
</g>
<!-- tomviz -->
<g id="node16" class="node">
<title>tomviz</title>
<g id="a_node16"><a xlink:href="https://github.com/conda-forge/tomviz-feedstock" xlink:title="tomviz">
<ellipse fill="#ff8c00" stroke="black" cx="125.92" cy="-682" rx="44.9" ry="18"/>
<text text-anchor="middle" x="125.92" y="-677.33" font-family="Times,serif" font-size="14.00">tomviz</text>
</a>
</g>
</g>
<!-- cartographer&#45;&gt;tomviz -->
<!-- or&#45;tools -->
<g id="node19" class="node">
<title>or&#45;tools</title>
<g id="a_node19"><a xlink:href="https://github.com/conda-forge/or-tools-feedstock/pull/55" xlink:title="or tools ❎">
<ellipse fill="#31688e" stroke="black" cx="125.92" cy="-610" rx="64.36" ry="18"/>
<text text-anchor="middle" x="125.92" y="-605.33" font-family="Times,serif" font-size="14.00" fill="white">or tools ❎</text>
</a>
</g>
</g>
<!-- tomviz&#45;&gt;or&#45;tools -->
<!-- s2geometry -->
<g id="node17" class="node">
<title>s2geometry</title>
<g id="a_node17"><a xlink:href="https://github.com/conda-forge/s2geometry-feedstock/pull/16" xlink:title="s2geometry ✓">
<ellipse fill="#31688e" stroke="black" cx="125.92" cy="-90" rx="78.57" ry="18"/>
<text text-anchor="middle" x="125.92" y="-85.33" font-family="Times,serif" font-size="14.00" fill="white">s2geometry ✓</text>
</a>
</g>
</g>
<!-- s2geography -->
<g id="node18" class="node">
<title>s2geography</title>
<g id="a_node18"><a xlink:href="https://github.com/conda-forge/s2geography-feedstock" xlink:title="s2geography">
<ellipse fill="#fde725" stroke="black" cx="125.92" cy="-18" rx="75.94" ry="18"/>
<text text-anchor="middle" x="125.92" y="-13.32" font-family="Times,serif" font-size="14.00">s2geography</text>
</a>
</g>
</g>
<!-- s2geometry&#45;&gt;s2geography -->
<g id="edge14" class="edge">
<title>s2geometry&#45;&gt;s2geography</title>
<path fill="none" stroke="black" d="M125.92,-71.7C125.92,-64.41 125.92,-55.73 125.92,-47.54"/>
<polygon fill="black" stroke="black" points="129.42,-47.62 125.92,-37.62 122.42,-47.62 129.42,-47.62"/>
</g>
<!-- bear -->
<g id="node24" class="node">
<title>bear</title>
<g id="a_node24"><a xlink:href="https://github.com/conda-forge/bear-feedstock" xlink:title="bear">
<ellipse fill="#35b779" stroke="black" cx="125.92" cy="-538" rx="33.85" ry="18"/>
<text text-anchor="middle" x="125.92" y="-533.33" font-family="Times,serif" font-size="14.00">bear</text>
</a>
</g>
</g>
<!-- or&#45;tools&#45;&gt;bear -->
<!-- libignition&#45;sensors -->
<g id="node20" class="node">
<title>libignition&#45;sensors</title>
<g id="a_node20"><a xlink:href="https://github.com/conda-forge/libignition-sensors-feedstock/pull/51" xlink:title="libignition sensors ✓">
<ellipse fill="#31688e" stroke="black" cx="849.92" cy="-898" rx="111.71" ry="18"/>
<text text-anchor="middle" x="849.92" y="-893.33" font-family="Times,serif" font-size="14.00" fill="white">libignition sensors ✓</text>
</a>
</g>
</g>
<!-- libignition&#45;gazebo -->
<g id="node21" class="node">
<title>libignition&#45;gazebo</title>
<g id="a_node21"><a xlink:href="https://github.com/conda-forge/libignition-gazebo-feedstock" xlink:title="libignition gazebo">
<ellipse fill="#fde725" stroke="black" cx="939.92" cy="-826" rx="100.66" ry="18"/>
<text text-anchor="middle" x="939.92" y="-821.33" font-family="Times,serif" font-size="14.00">libignition gazebo</text>
</a>
</g>
</g>
<!-- libignition&#45;sensors&#45;&gt;libignition&#45;gazebo -->
<g id="edge16" class="edge">
<title>libignition&#45;sensors&#45;&gt;libignition&#45;gazebo</title>
<path fill="none" stroke="black" d="M871.7,-880.05C882.9,-871.35 896.73,-860.59 909,-851.04"/>
<polygon fill="black" stroke="black" points="911.08,-853.86 916.82,-844.96 906.78,-848.34 911.08,-853.86"/>
</g>
<!-- libignition&#45;launch -->
<g id="node22" class="node">
<title>libignition&#45;launch</title>
<g id="a_node22"><a xlink:href="https://github.com/conda-forge/libignition-launch-feedstock" xlink:title="libignition launch">
<ellipse fill="#fde725" stroke="black" cx="1003.92" cy="-754" rx="98.56" ry="18"/>
<text text-anchor="middle" x="1003.92" y="-749.33" font-family="Times,serif" font-size="14.00">libignition launch</text>
</a>
</g>
</g>
<!-- libignition&#45;gazebo&#45;&gt;libignition&#45;launch -->
<g id="edge17" class="edge">
<title>libignition&#45;gazebo&#45;&gt;libignition&#45;launch</title>
<path fill="none" stroke="black" d="M955.41,-808.05C963.04,-799.71 972.38,-789.49 980.83,-780.25"/>
<polygon fill="black" stroke="black" points="983.38,-782.65 987.55,-772.91 978.22,-777.92 983.38,-782.65"/>
</g>
<!-- libignition&#45;gui -->
<g id="node23" class="node">
<title>libignition&#45;gui</title>
<g id="a_node23"><a xlink:href="https://github.com/conda-forge/libignition-gui-feedstock/pull/47" xlink:title="libignition gui ✓">
<ellipse fill="#31688e" stroke="black" cx="1068.92" cy="-898" rx="89.09" ry="18"/>
<text text-anchor="middle" x="1068.92" y="-893.33" font-family="Times,serif" font-size="14.00" fill="white">libignition gui ✓</text>
</a>
</g>
</g>
<!-- libignition&#45;gui&#45;&gt;libignition&#45;gazebo -->
<g id="edge18" class="edge">
<title>libignition&#45;gui&#45;&gt;libignition&#45;gazebo</title>
<path fill="none" stroke="black" d="M1038.67,-880.59C1021.33,-871.18 999.33,-859.24 980.5,-849.02"/>
<polygon fill="black" stroke="black" points="982.21,-845.97 971.75,-844.27 978.87,-852.12 982.21,-845.97"/>
</g>
<!-- libignition&#45;gui&#45;&gt;libignition&#45;launch -->
<g id="edge19" class="edge">
<title>libignition&#45;gui&#45;&gt;libignition&#45;launch</title>
<path fill="none" stroke="black" d="M1067.8,-879.76C1066.03,-861.19 1061.48,-831.19 1049.92,-808 1044.97,-798.07 1037.72,-788.5 1030.43,-780.29"/>
<polygon fill="black" stroke="black" points="1033.05,-777.96 1023.65,-773.06 1027.94,-782.75 1033.05,-777.96"/>
</g>
<!-- cpp&#45;opentelemetry&#45;sdk -->
<g id="node25" class="node">
<title>cpp&#45;opentelemetry&#45;sdk</title>
<g id="a_node25"><a xlink:href="https://github.com/conda-forge/cpp-opentelemetry-sdk-feedstock" xlink:title="cpp opentelemetry sdk">
<ellipse fill="#35b779" stroke="black" cx="125.92" cy="-466" rx="125.92" ry="18"/>
<text text-anchor="middle" x="125.92" y="-461.32" font-family="Times,serif" font-size="14.00">cpp opentelemetry sdk</text>
</a>
</g>
</g>
<!-- bear&#45;&gt;cpp&#45;opentelemetry&#45;sdk -->
<!-- xilinx&#45;runtime -->
<g id="node26" class="node">
<title>xilinx&#45;runtime</title>
<g id="a_node26"><a xlink:href="https://github.com/conda-forge/xilinx-runtime-feedstock/pull/31" xlink:title="xilinx runtime ❎">
<ellipse fill="#31688e" stroke="black" cx="125.92" cy="-422" rx="96.98" ry="18"/>
<text text-anchor="middle" x="125.92" y="-417.32" font-family="Times,serif" font-size="14.00" fill="white">xilinx runtime ❎</text>
</a>
</g>
</g>
<!-- arcticdb -->
<g id="node27" class="node">
<title>arcticdb</title>
<g id="a_node27"><a xlink:href="https://github.com/conda-forge/arcticdb-feedstock" xlink:title="arcticdb">
<ellipse fill="#35b779" stroke="black" cx="125.92" cy="-350" rx="52.26" ry="18"/>
<text text-anchor="middle" x="125.92" y="-345.32" font-family="Times,serif" font-size="14.00">arcticdb</text>
</a>
</g>
</g>
<!-- xilinx&#45;runtime&#45;&gt;arcticdb -->
<!-- gnss&#45;sdr -->
<g id="node34" class="node">
<title>gnss&#45;sdr</title>
<g id="a_node34"><a xlink:href="https://github.com/conda-forge/gnss-sdr-feedstock" xlink:title="gnss sdr">
<ellipse fill="#35b779" stroke="black" cx="125.92" cy="-278" rx="53.84" ry="18"/>
<text text-anchor="middle" x="125.92" y="-273.32" font-family="Times,serif" font-size="14.00">gnss sdr</text>
</a>
</g>
</g>
<!-- arcticdb&#45;&gt;gnss&#45;sdr -->
<!-- gz&#45;transport -->
<g id="node28" class="node">
<title>gz&#45;transport</title>
<g id="a_node28"><a xlink:href="https://github.com/conda-forge/gz-transport-feedstock/pull/29" xlink:title="gz transport ❎">
<ellipse fill="#31688e" stroke="black" cx="532.92" cy="-934" rx="88.56" ry="18"/>
<text text-anchor="middle" x="532.92" y="-929.33" font-family="Times,serif" font-size="14.00" fill="white">gz transport ❎</text>
</a>
</g>
</g>
<!-- gz&#45;gui -->
<g id="node29" class="node">
<title>gz&#45;gui</title>
<g id="a_node29"><a xlink:href="https://github.com/conda-forge/gz-gui-feedstock" xlink:title="gz gui">
<ellipse fill="#fde725" stroke="black" cx="648.92" cy="-862" rx="41.74" ry="18"/>
<text text-anchor="middle" x="648.92" y="-857.33" font-family="Times,serif" font-size="14.00">gz gui</text>
</a>
</g>
</g>
<!-- gz&#45;transport&#45;&gt;gz&#45;gui -->
<g id="edge23" class="edge">
<title>gz&#45;transport&#45;&gt;gz&#45;gui</title>
<path fill="none" stroke="black" d="M560.41,-916.41C576.99,-906.41 598.21,-893.6 615.72,-883.03"/>
<polygon fill="black" stroke="black" points="617.49,-886.05 624.24,-877.89 613.87,-880.06 617.49,-886.05"/>
</g>
<!-- gz&#45;sensors -->
<g id="node30" class="node">
<title>gz&#45;sensors</title>
<g id="a_node30"><a xlink:href="https://github.com/conda-forge/gz-sensors-feedstock" xlink:title="gz sensors">
<ellipse fill="#fde725" stroke="black" cx="324.92" cy="-862" rx="64.36" ry="18"/>
<text text-anchor="middle" x="324.92" y="-857.33" font-family="Times,serif" font-size="14.00">gz sensors</text>
</a>
</g>
</g>
<!-- gz&#45;transport&#45;&gt;gz&#45;sensors -->
<g id="edge24" class="edge">
<title>gz&#45;transport&#45;&gt;gz&#45;sensors</title>
<path fill="none" stroke="black" d="M488.55,-918.07C455.5,-906.95 410.31,-891.74 375.8,-880.12"/>
<polygon fill="black" stroke="black" points="377.02,-876.84 366.43,-876.97 374.79,-883.48 377.02,-876.84"/>
</g>
<!-- gz&#45;sim -->
<g id="node31" class="node">
<title>gz&#45;sim</title>
<g id="a_node31"><a xlink:href="https://github.com/conda-forge/gz-sim-feedstock" xlink:title="gz sim">
<ellipse fill="#fde725" stroke="black" cx="516.92" cy="-790" rx="43.84" ry="18"/>
<text text-anchor="middle" x="516.92" y="-785.33" font-family="Times,serif" font-size="14.00">gz sim</text>
</a>
</g>
</g>
<!-- gz&#45;transport&#45;&gt;gz&#45;sim -->
<g id="edge25" class="edge">
<title>gz&#45;transport&#45;&gt;gz&#45;sim</title>
<path fill="none" stroke="black" d="M484.51,-918.55C465.93,-910.38 446.64,-898.07 435.92,-880 427.75,-866.24 428.31,-858.07 435.92,-844 444.51,-828.11 460.16,-816.23 475.43,-807.78"/>
<polygon fill="black" stroke="black" points="476.67,-811.07 483.98,-803.41 473.49,-804.84 476.67,-811.07"/>
</g>
<!-- gz&#45;launch -->
<g id="node32" class="node">
<title>gz&#45;launch</title>
<g id="a_node32"><a xlink:href="https://github.com/conda-forge/gz-launch-feedstock" xlink:title="gz launch">
<ellipse fill="#fde725" stroke="black" cx="648.92" cy="-718" rx="59.1" ry="18"/>
<text text-anchor="middle" x="648.92" y="-713.33" font-family="Times,serif" font-size="14.00">gz launch</text>
</a>
</g>
</g>
<!-- gz&#45;transport&#45;&gt;gz&#45;launch -->
<g id="edge26" class="edge">
<title>gz&#45;transport&#45;&gt;gz&#45;launch</title>
<path fill="none" stroke="black" d="M615.5,-927.11C647.16,-920.34 680.34,-906.76 699.92,-880 730.31,-838.47 695.06,-778.22 669.89,-744.43"/>
<polygon fill="black" stroke="black" points="672.92,-742.63 664.04,-736.84 667.37,-746.9 672.92,-742.63"/>
</g>
<!-- gz&#45;gui&#45;&gt;gz&#45;sim -->
<g id="edge27" class="edge">
<title>gz&#45;gui&#45;&gt;gz&#45;sim</title>
<path fill="none" stroke="black" d="M623.47,-847.5C603.42,-836.87 575.22,-821.92 552.86,-810.06"/>
<polygon fill="black" stroke="black" points="554.55,-807 544.08,-805.4 551.27,-813.18 554.55,-807"/>
</g>
<!-- gz&#45;gui&#45;&gt;gz&#45;launch -->
<g id="edge28" class="edge">
<title>gz&#45;gui&#45;&gt;gz&#45;launch</title>
<path fill="none" stroke="black" d="M648.92,-843.59C648.92,-819.61 648.92,-776.14 648.92,-747.42"/>
<polygon fill="black" stroke="black" points="652.42,-747.62 648.92,-737.62 645.42,-747.62 652.42,-747.62"/>
</g>
<!-- gz&#45;sensors&#45;&gt;gz&#45;sim -->
<g id="edge29" class="edge">
<title>gz&#45;sensors&#45;&gt;gz&#45;sim</title>
<path fill="none" stroke="black" d="M362.85,-847.17C394.86,-835.5 440.66,-818.8 474.01,-806.64"/>
<polygon fill="black" stroke="black" points="475.18,-809.94 483.38,-803.23 472.78,-803.37 475.18,-809.94"/>
</g>
<!-- gz&#45;sim&#45;&gt;gz&#45;launch -->
<g id="edge30" class="edge">
<title>gz&#45;sim&#45;&gt;gz&#45;launch</title>
<path fill="none" stroke="black" d="M543,-775.17C562.33,-764.92 588.97,-750.79 610.7,-739.27"/>
<polygon fill="black" stroke="black" points="612.08,-742.5 619.27,-734.72 608.8,-736.31 612.08,-742.5"/>
</g>
<!-- gz&#45;fuel&#45;tools -->
<g id="node33" class="node">
<title>gz&#45;fuel&#45;tools</title>
<g id="a_node33"><a xlink:href="https://github.com/conda-forge/gz-fuel-tools-feedstock" xlink:title="gz fuel tools">
<ellipse fill="#ff8c00" stroke="black" cx="516.92" cy="-862" rx="72.25" ry="18"/>
<text text-anchor="middle" x="516.92" y="-857.33" font-family="Times,serif" font-size="14.00">gz fuel tools</text>
</a>
</g>
</g>
<!-- gz&#45;fuel&#45;tools&#45;&gt;gz&#45;sim -->
<g id="edge31" class="edge">
<title>gz&#45;fuel&#45;tools&#45;&gt;gz&#45;sim</title>
<path fill="none" stroke="black" d="M516.92,-843.7C516.92,-836.41 516.92,-827.73 516.92,-819.54"/>
<polygon fill="black" stroke="black" points="520.42,-819.62 516.92,-809.62 513.42,-819.62 520.42,-819.62"/>
</g>
<!-- gcld3 -->
<g id="node35" class="node">
<title>gcld3</title>
<g id="a_node35"><a xlink:href="https://github.com/conda-forge/gcld3-feedstock" xlink:title="gcld3">
<ellipse fill="#35b779" stroke="black" cx="125.92" cy="-206" rx="38.58" ry="18"/>
<text text-anchor="middle" x="125.92" y="-201.33" font-family="Times,serif" font-size="14.00">gcld3</text>
</a>
</g>
</g>
<!-- gnss&#45;sdr&#45;&gt;gcld3 -->
<!-- bloaty -->
<g id="node36" class="node">
<title>bloaty</title>
<g id="a_node36"><a xlink:href="https://github.com/conda-forge/bloaty-feedstock" xlink:title="bloaty">
<ellipse fill="#35b779" stroke="black" cx="125.92" cy="-134" rx="42.26" ry="18"/>
<text text-anchor="middle" x="125.92" y="-129.32" font-family="Times,serif" font-size="14.00">bloaty</text>
</a>
</g>
</g>
<!-- gcld3&#45;&gt;bloaty -->
</g>
</svg>
