<?xml version="1.0" encoding="UTF-8" standalone="no"?>
<!DOCTYPE svg PUBLIC "-//W3C//DTD SVG 1.1//EN"
 "http://www.w3.org/Graphics/SVG/1.1/DTD/svg11.dtd">
<!-- Generated by graphviz version 7.1.0 (20230122.1345)
 -->
<!-- Pages: 1 -->
<svg width="228pt" height="116pt"
 viewBox="0.00 0.00 227.74 116.00" xmlns="http://www.w3.org/2000/svg" xmlns:xlink="http://www.w3.org/1999/xlink">
<g id="graph0" class="graph" transform="scale(1 1) rotate(0) translate(4 112)">
<polygon fill="white" stroke="none" points="-4,4 -4,-112 223.74,-112 223.74,4 -4,4"/>
<!-- gdal -->
<g id="node1" class="node">
<title>gdal</title>
<g id="a_node1"><a xlink:href="https://github.com/conda-forge/gdal-feedstock" xlink:title="gdal">
<ellipse fill="#fde725" stroke="black" cx="30.55" cy="-18" rx="30.59" ry="18"/>
<text text-anchor="middle" x="30.55" y="-14.3" font-family="Times,serif" font-size="14.00">gdal</text>
</a>
</g>
</g>
<!-- libtiff -->
<g id="node2" class="node">
<title>libtiff</title>
<g id="a_node2"><a xlink:href="https://github.com/conda-forge/libtiff-feedstock" xlink:title="libtiff">
<ellipse fill="#35b779" stroke="black" cx="89.55" cy="-90" rx="36" ry="18"/>
<text text-anchor="middle" x="89.55" y="-86.3" font-family="Times,serif" font-size="14.00">libtiff</text>
</a>
</g>
</g>
<!-- libtiff&#45;&gt;gdal -->
<g id="edge1" class="edge">
<title>libtiff&#45;&gt;gdal</title>
<path fill="none" stroke="black" d="M76.16,-73.12C68.66,-64.22 59.16,-52.95 50.78,-43"/>
<polygon fill="black" stroke="black" points="53.57,-40.89 44.45,-35.5 48.22,-45.4 53.57,-40.89"/>
</g>
<!-- imagecodecs -->
<g id="node3" class="node">
<title>imagecodecs</title>
<g id="a_node3"><a xlink:href="https://github.com/conda-forge/imagecodecs-feedstock" xlink:title="imagecodecs">
<ellipse fill="#fde725" stroke="black" cx="149.55" cy="-18" rx="70.39" ry="18"/>
<text text-anchor="middle" x="149.55" y="-14.3" font-family="Times,serif" font-size="14.00">imagecodecs</text>
</a>
</g>
</g>
<!-- libtiff&#45;&gt;imagecodecs -->
<g id="edge2" class="edge">
<title>libtiff&#45;&gt;imagecodecs</title>
<path fill="none" stroke="black" d="M103.16,-73.12C110.47,-64.59 119.64,-53.89 127.9,-44.25"/>
<polygon fill="black" stroke="black" points="130.31,-46.82 134.16,-36.95 125,-42.26 130.31,-46.82"/>
</g>
</g>
</svg>
