<?xml version="1.0" encoding="UTF-8" standalone="no"?>
<!DOCTYPE svg PUBLIC "-//W3C//DTD SVG 1.1//EN"
 "http://www.w3.org/Graphics/SVG/1.1/DTD/svg11.dtd">
<!-- Generated by graphviz version 8.1.0 (20230707.2238)
 -->
<!-- Pages: 1 -->
<svg width="242pt" height="116pt"
 viewBox="0.00 0.00 242.20 116.00" xmlns="http://www.w3.org/2000/svg" xmlns:xlink="http://www.w3.org/1999/xlink">
<g id="graph0" class="graph" transform="scale(1 1) rotate(0) translate(4 112)">
<polygon fill="white" stroke="none" points="-4,4 -4,-112 238.2,-112 238.2,4 -4,4"/>
<!-- gdal -->
<g id="node1" class="node">
<title>gdal</title>
<g id="a_node1"><a xlink:href="https://github.com/conda-forge/gdal-feedstock" xlink:title="gdal">
<ellipse fill="#fde725" stroke="black" cx="32.79" cy="-18" rx="32.79" ry="18"/>
<text text-anchor="middle" x="32.79" y="-13.32" font-family="Times,serif" font-size="14.00">gdal</text>
</a>
</g>
</g>
<!-- libtiff -->
<g id="node2" class="node">
<title>libtiff</title>
<g id="a_node2"><a xlink:href="https://github.com/conda-forge/libtiff-feedstock" xlink:title="libtiff">
<ellipse fill="#35b779" stroke="black" cx="95.79" cy="-90" rx="38.06" ry="18"/>
<text text-anchor="middle" x="95.79" y="-85.33" font-family="Times,serif" font-size="14.00">libtiff</text>
</a>
</g>
</g>
<!-- libtiff&#45;&gt;gdal -->
<g id="edge1" class="edge">
<title>libtiff&#45;&gt;gdal</title>
<path fill="none" stroke="black" d="M81.5,-73.12C73.33,-64.04 62.94,-52.49 53.85,-42.39"/>
<polygon fill="black" stroke="black" points="56.89,-40.43 47.6,-35.34 51.69,-45.11 56.89,-40.43"/>
</g>
<!-- imagecodecs -->
<g id="node3" class="node">
<title>imagecodecs</title>
<g id="a_node3"><a xlink:href="https://github.com/conda-forge/imagecodecs-feedstock" xlink:title="imagecodecs">
<ellipse fill="#fde725" stroke="black" cx="158.79" cy="-18" rx="75.41" ry="18"/>
<text text-anchor="middle" x="158.79" y="-13.32" font-family="Times,serif" font-size="14.00">imagecodecs</text>
</a>
</g>
</g>
<!-- libtiff&#45;&gt;imagecodecs -->
<g id="edge2" class="edge">
<title>libtiff&#45;&gt;imagecodecs</title>
<path fill="none" stroke="black" d="M110.09,-73.12C117.84,-64.51 127.59,-53.67 136.33,-43.96"/>
<polygon fill="black" stroke="black" points="138.59,-46.57 142.68,-36.8 133.39,-41.89 138.59,-46.57"/>
</g>
</g>
</svg>
