<?xml version="1.0" encoding="UTF-8" standalone="no"?>
<!DOCTYPE svg PUBLIC "-//W3C//DTD SVG 1.1//EN"
 "http://www.w3.org/Graphics/SVG/1.1/DTD/svg11.dtd">
<!-- Generated by graphviz version 8.1.0 (20230707.2238)
 -->
<!-- Pages: 1 -->
<svg width="593pt" height="304pt"
 viewBox="0.00 0.00 592.51 304.00" xmlns="http://www.w3.org/2000/svg" xmlns:xlink="http://www.w3.org/1999/xlink">
<g id="graph0" class="graph" transform="scale(1 1) rotate(0) translate(4 300)">
<polygon fill="white" stroke="none" points="-4,4 -4,-300 588.51,-300 588.51,4 -4,4"/>
<!-- gap -->
<g id="node1" class="node">
<title>gap</title>
<g id="a_node1"><a xlink:href="https://github.com/conda-forge/gap-feedstock" xlink:title="gap">
<ellipse fill="#fde725" stroke="black" cx="54.89" cy="-134" rx="29.64" ry="18"/>
<text text-anchor="middle" x="54.89" y="-129.32" font-family="Times,serif" font-size="14.00">gap</text>
</a>
</g>
</g>
<!-- sagelib -->
<g id="node4" class="node">
<title>sagelib</title>
<g id="a_node4"><a xlink:href="https://github.com/conda-forge/sagelib-feedstock" xlink:title="sagelib">
<ellipse fill="#fde725" stroke="black" cx="54.89" cy="-62" rx="47" ry="18"/>
<text text-anchor="middle" x="54.89" y="-57.33" font-family="Times,serif" font-size="14.00">sagelib</text>
</a>
</g>
</g>
<!-- gap&#45;&gt;sagelib -->
<g id="edge1" class="edge">
<title>gap&#45;&gt;sagelib</title>
<path fill="none" stroke="black" d="M54.89,-115.7C54.89,-108.24 54.89,-99.32 54.89,-90.97"/>
<polygon fill="black" stroke="black" points="58.39,-91.1 54.89,-81.1 51.39,-91.1 58.39,-91.1"/>
</g>
<!-- mppp -->
<g id="node2" class="node">
<title>mppp</title>
<g id="a_node2"><a xlink:href="https://github.com/conda-forge/mppp-feedstock" xlink:title="mppp">
<ellipse fill="#ff8c00" stroke="black" cx="333.89" cy="-18" rx="39.63" ry="18"/>
<text text-anchor="middle" x="333.89" y="-13.32" font-family="Times,serif" font-size="14.00">mppp</text>
</a>
</g>
</g>
<!-- python&#45;symengine -->
<g id="node3" class="node">
<title>python&#45;symengine</title>
<g id="a_node3"><a xlink:href="https://github.com/conda-forge/python-symengine-feedstock" xlink:title="python symengine">
<ellipse fill="#fde725" stroke="black" cx="333.89" cy="-134" rx="103.29" ry="18"/>
<text text-anchor="middle" x="333.89" y="-129.32" font-family="Times,serif" font-size="14.00">python symengine</text>
</a>
</g>
</g>
<!-- symengine -->
<g id="node5" class="node">
<title>symengine</title>
<g id="a_node5"><a xlink:href="https://github.com/conda-forge/symengine-feedstock/pull/41" xlink:title="symengine ❎">
<ellipse fill="#31688e" stroke="black" cx="333.89" cy="-206" rx="80.67" ry="18"/>
<text text-anchor="middle" x="333.89" y="-201.33" font-family="Times,serif" font-size="14.00" fill="white">symengine ❎</text>
</a>
</g>
</g>
<!-- symengine&#45;&gt;python&#45;symengine -->
<g id="edge2" class="edge">
<title>symengine&#45;&gt;python&#45;symengine</title>
<path fill="none" stroke="black" d="M333.89,-187.7C333.89,-180.24 333.89,-171.32 333.89,-162.97"/>
<polygon fill="black" stroke="black" points="337.39,-163.1 333.89,-153.1 330.39,-163.1 337.39,-163.1"/>
</g>
<!-- python&#45;flint -->
<g id="node6" class="node">
<title>python&#45;flint</title>
<g id="a_node6"><a xlink:href="https://github.com/conda-forge/python-flint-feedstock" xlink:title="python flint">
<ellipse fill="#fde725" stroke="black" cx="111.89" cy="-18" rx="69.1" ry="18"/>
<text text-anchor="middle" x="111.89" y="-13.32" font-family="Times,serif" font-size="14.00">python flint</text>
</a>
</g>
</g>
<!-- e&#45;antic -->
<g id="node7" class="node">
<title>e&#45;antic</title>
<g id="a_node7"><a xlink:href="https://github.com/conda-forge/e-antic-feedstock" xlink:title="e antic">
<ellipse fill="#ff8c00" stroke="black" cx="114.89" cy="-278" rx="44.89" ry="18"/>
<text text-anchor="middle" x="114.89" y="-273.32" font-family="Times,serif" font-size="14.00">e antic</text>
</a>
</g>
</g>
<!-- normaliz -->
<g id="node8" class="node">
<title>normaliz</title>
<g id="a_node8"><a xlink:href="https://github.com/conda-forge/normaliz-feedstock" xlink:title="normaliz">
<ellipse fill="#fde725" stroke="black" cx="54.89" cy="-206" rx="54.89" ry="18"/>
<text text-anchor="middle" x="54.89" y="-201.32" font-family="Times,serif" font-size="14.00">normaliz</text>
</a>
</g>
</g>
<!-- e&#45;antic&#45;&gt;normaliz -->
<g id="edge4" class="edge">
<title>e&#45;antic&#45;&gt;normaliz</title>
<path fill="none" stroke="black" d="M100.97,-260.76C93.58,-252.14 84.35,-241.36 76.09,-231.73"/>
<polygon fill="black" stroke="black" points="78.31,-229.95 69.15,-224.63 73,-234.5 78.31,-229.95"/>
</g>
<!-- flatsurf -->
<g id="node9" class="node">
<title>flatsurf</title>
<g id="a_node9"><a xlink:href="https://github.com/conda-forge/flatsurf-feedstock" xlink:title="flatsurf">
<ellipse fill="#fde725" stroke="black" cx="174.89" cy="-206" rx="47.53" ry="18"/>
<text text-anchor="middle" x="174.89" y="-201.32" font-family="Times,serif" font-size="14.00">flatsurf</text>
</a>
</g>
</g>
<!-- e&#45;antic&#45;&gt;flatsurf -->
<g id="edge3" class="edge">
<title>e&#45;antic&#45;&gt;flatsurf</title>
<path fill="none" stroke="black" d="M128.81,-260.76C136.2,-252.14 145.44,-241.36 153.7,-231.73"/>
<polygon fill="black" stroke="black" points="156.78,-234.5 160.63,-224.63 151.47,-229.95 156.78,-234.5"/>
</g>
<!-- normaliz&#45;&gt;gap -->
<g id="edge5" class="edge">
<title>normaliz&#45;&gt;gap</title>
<path fill="none" stroke="black" d="M54.89,-187.7C54.89,-180.24 54.89,-171.32 54.89,-162.97"/>
<polygon fill="black" stroke="black" points="58.39,-163.1 54.89,-153.1 51.39,-163.1 58.39,-163.1"/>
</g>
<!-- gravelamps -->
<g id="node10" class="node">
<title>gravelamps</title>
<g id="a_node10"><a xlink:href="https://github.com/conda-forge/gravelamps-feedstock" xlink:title="gravelamps">
<ellipse fill="#ff8c00" stroke="black" cx="514.89" cy="-170" rx="69.62" ry="18"/>
<text text-anchor="middle" x="514.89" y="-165.32" font-family="Times,serif" font-size="14.00">gravelamps</text>
</a>
</g>
</g>
</g>
</svg>
