<?xml version="1.0" encoding="UTF-8" standalone="no"?>
<!DOCTYPE svg PUBLIC "-//W3C//DTD SVG 1.1//EN"
 "http://www.w3.org/Graphics/SVG/1.1/DTD/svg11.dtd">
<!-- Generated by graphviz version 9.0.0 (20231125.0833)
 -->
<!-- Pages: 1 -->
<svg width="510pt" height="232pt"
 viewBox="0.00 0.00 510.17 232.00" xmlns="http://www.w3.org/2000/svg" xmlns:xlink="http://www.w3.org/1999/xlink">
<g id="graph0" class="graph" transform="scale(1 1) rotate(0) translate(4 228)">
<polygon fill="white" stroke="none" points="-4,4 -4,-228 506.17,-228 506.17,4 -4,4"/>
<!-- gap -->
<g id="node1" class="node">
<title>gap</title>
<g id="a_node1"><a xlink:href="https://github.com/conda-forge/gap-feedstock" xlink:title="gap">
<ellipse fill="#fde725" stroke="black" cx="269.29" cy="-134" rx="29.64" ry="18"/>
<text text-anchor="middle" x="269.29" y="-129.32" font-family="Times,serif" font-size="14.00">gap</text>
</a>
</g>
</g>
<!-- sagelib -->
<g id="node3" class="node">
<title>sagelib</title>
<g id="a_node3"><a xlink:href="https://github.com/conda-forge/sagelib-feedstock" xlink:title="sagelib">
<ellipse fill="#fde725" stroke="black" cx="269.29" cy="-62" rx="47" ry="18"/>
<text text-anchor="middle" x="269.29" y="-57.33" font-family="Times,serif" font-size="14.00">sagelib</text>
</a>
</g>
</g>
<!-- gap&#45;&gt;sagelib -->
<g id="edge1" class="edge">
<title>gap&#45;&gt;sagelib</title>
<path fill="none" stroke="black" d="M269.29,-115.7C269.29,-108.41 269.29,-99.73 269.29,-91.54"/>
<polygon fill="black" stroke="black" points="272.79,-91.62 269.29,-81.62 265.79,-91.62 272.79,-91.62"/>
</g>
<!-- python&#45;symengine -->
<g id="node2" class="node">
<title>python&#45;symengine</title>
<g id="a_node2"><a xlink:href="https://github.com/conda-forge/python-symengine-feedstock" xlink:title="python symengine">
<ellipse fill="#fde725" stroke="black" cx="103.29" cy="-98" rx="103.29" ry="18"/>
<text text-anchor="middle" x="103.29" y="-93.33" font-family="Times,serif" font-size="14.00">python symengine</text>
</a>
</g>
</g>
<!-- symengine -->
<g id="node4" class="node">
<title>symengine</title>
<g id="a_node4"><a xlink:href="https://github.com/conda-forge/symengine-feedstock/pull/43" xlink:title="symengine ❎">
<ellipse fill="#31688e" stroke="black" cx="103.29" cy="-170" rx="80.67" ry="18"/>
<text text-anchor="middle" x="103.29" y="-165.33" font-family="Times,serif" font-size="14.00" fill="white">symengine ❎</text>
</a>
</g>
</g>
<!-- symengine&#45;&gt;python&#45;symengine -->
<g id="edge2" class="edge">
<title>symengine&#45;&gt;python&#45;symengine</title>
<path fill="none" stroke="black" d="M103.29,-151.7C103.29,-144.41 103.29,-135.73 103.29,-127.54"/>
<polygon fill="black" stroke="black" points="106.79,-127.62 103.29,-117.62 99.79,-127.62 106.79,-127.62"/>
</g>
<!-- normaliz -->
<g id="node5" class="node">
<title>normaliz</title>
<g id="a_node5"><a xlink:href="https://github.com/conda-forge/normaliz-feedstock" xlink:title="normaliz">
<ellipse fill="#35b779" stroke="black" cx="269.29" cy="-206" rx="54.89" ry="18"/>
<text text-anchor="middle" x="269.29" y="-201.32" font-family="Times,serif" font-size="14.00">normaliz</text>
</a>
</g>
</g>
<!-- normaliz&#45;&gt;gap -->
<g id="edge3" class="edge">
<title>normaliz&#45;&gt;gap</title>
<path fill="none" stroke="black" d="M269.29,-187.7C269.29,-180.41 269.29,-171.73 269.29,-163.54"/>
<polygon fill="black" stroke="black" points="272.79,-163.62 269.29,-153.62 265.79,-163.62 272.79,-163.62"/>
</g>
<!-- flatsurf -->
<g id="node6" class="node">
<title>flatsurf</title>
<g id="a_node6"><a xlink:href="https://github.com/conda-forge/flatsurf-feedstock" xlink:title="flatsurf">
<ellipse fill="#35b779" stroke="black" cx="103.29" cy="-18" rx="47.53" ry="18"/>
<text text-anchor="middle" x="103.29" y="-13.32" font-family="Times,serif" font-size="14.00">flatsurf</text>
</a>
</g>
</g>
<!-- gravelamps -->
<g id="node7" class="node">
<title>gravelamps</title>
<g id="a_node7"><a xlink:href="https://github.com/conda-forge/gravelamps-feedstock/pull/9" xlink:title="gravelamps ❎">
<ellipse fill="#31688e" stroke="black" cx="417.29" cy="-134" rx="84.88" ry="18"/>
<text text-anchor="middle" x="417.29" y="-129.32" font-family="Times,serif" font-size="14.00" fill="white">gravelamps ❎</text>
</a>
</g>
</g>
</g>
</svg>
