<?xml version="1.0" encoding="UTF-8" standalone="no"?>
<!DOCTYPE svg PUBLIC "-//W3C//DTD SVG 1.1//EN"
 "http://www.w3.org/Graphics/SVG/1.1/DTD/svg11.dtd">
<!-- Generated by graphviz version 9.0.0 (20231125.0833)
 -->
<!-- Pages: 1 -->
<svg width="540pt" height="188pt"
 viewBox="0.00 0.00 540.03 188.00" xmlns="http://www.w3.org/2000/svg" xmlns:xlink="http://www.w3.org/1999/xlink">
<g id="graph0" class="graph" transform="scale(1 1) rotate(0) translate(4 184)">
<polygon fill="white" stroke="none" points="-4,4 -4,-184 536.03,-184 536.03,4 -4,4"/>
<!-- gap -->
<g id="node1" class="node">
<title>gap</title>
<g id="a_node1"><a xlink:href="https://github.com/conda-forge/gap-feedstock" xlink:title="gap">
<ellipse fill="#fde725" stroke="black" cx="70.15" cy="-90" rx="29.64" ry="18"/>
<text text-anchor="middle" x="70.15" y="-85.33" font-family="Times,serif" font-size="14.00">gap</text>
</a>
</g>
</g>
<!-- sagelib -->
<g id="node3" class="node">
<title>sagelib</title>
<g id="a_node3"><a xlink:href="https://github.com/conda-forge/sagelib-feedstock" xlink:title="sagelib">
<ellipse fill="#fde725" stroke="black" cx="70.15" cy="-18" rx="47" ry="18"/>
<text text-anchor="middle" x="70.15" y="-13.32" font-family="Times,serif" font-size="14.00">sagelib</text>
</a>
</g>
</g>
<!-- gap&#45;&gt;sagelib -->
<g id="edge1" class="edge">
<title>gap&#45;&gt;sagelib</title>
<path fill="none" stroke="black" d="M70.15,-71.7C70.15,-64.41 70.15,-55.73 70.15,-47.54"/>
<polygon fill="black" stroke="black" points="73.65,-47.62 70.15,-37.62 66.65,-47.62 73.65,-47.62"/>
</g>
<!-- python&#45;symengine -->
<g id="node2" class="node">
<title>python&#45;symengine</title>
<g id="a_node2"><a xlink:href="https://github.com/conda-forge/python-symengine-feedstock" xlink:title="python symengine">
<ellipse fill="#35b779" stroke="black" cx="251.15" cy="-90" rx="103.29" ry="18"/>
<text text-anchor="middle" x="251.15" y="-85.33" font-family="Times,serif" font-size="14.00">python symengine</text>
</a>
</g>
</g>
<!-- normaliz -->
<g id="node4" class="node">
<title>normaliz</title>
<g id="a_node4"><a xlink:href="https://github.com/conda-forge/normaliz-feedstock/pull/50" xlink:title="normaliz ❎">
<ellipse fill="#31688e" stroke="black" cx="70.15" cy="-162" rx="70.15" ry="18"/>
<text text-anchor="middle" x="70.15" y="-157.32" font-family="Times,serif" font-size="14.00" fill="white">normaliz ❎</text>
</a>
</g>
</g>
<!-- normaliz&#45;&gt;gap -->
<g id="edge2" class="edge">
<title>normaliz&#45;&gt;gap</title>
<path fill="none" stroke="black" d="M70.15,-143.7C70.15,-136.41 70.15,-127.73 70.15,-119.54"/>
<polygon fill="black" stroke="black" points="73.65,-119.62 70.15,-109.62 66.65,-119.62 73.65,-119.62"/>
</g>
<!-- gravelamps -->
<g id="node5" class="node">
<title>gravelamps</title>
<g id="a_node5"><a xlink:href="https://github.com/conda-forge/gravelamps-feedstock/pull/9" xlink:title="gravelamps ❎">
<ellipse fill="#31688e" stroke="black" cx="447.15" cy="-90" rx="84.88" ry="18"/>
<text text-anchor="middle" x="447.15" y="-85.33" font-family="Times,serif" font-size="14.00" fill="white">gravelamps ❎</text>
</a>
</g>
</g>
</g>
</svg>
