<?xml version="1.0" encoding="UTF-8" standalone="no"?>
<!DOCTYPE svg PUBLIC "-//W3C//DTD SVG 1.1//EN"
 "http://www.w3.org/Graphics/SVG/1.1/DTD/svg11.dtd">
<!-- Generated by graphviz version 8.1.0 (20230707.2238)
 -->
<!-- Pages: 1 -->
<svg width="1037pt" height="332pt"
 viewBox="0.00 0.00 1037.03 332.00" xmlns="http://www.w3.org/2000/svg" xmlns:xlink="http://www.w3.org/1999/xlink">
<g id="graph0" class="graph" transform="scale(1 1) rotate(0) translate(4 328)">
<polygon fill="white" stroke="none" points="-4,4 -4,-328 1033.03,-328 1033.03,4 -4,4"/>
<!-- arb -->
<g id="node1" class="node">
<title>arb</title>
<g id="a_node1"><a xlink:href="https://github.com/conda-forge/arb-feedstock" xlink:title="arb">
<ellipse fill="#35b779" stroke="black" cx="399.74" cy="-306" rx="28.06" ry="18"/>
<text text-anchor="middle" x="399.74" y="-301.32" font-family="Times,serif" font-size="14.00">arb</text>
</a>
</g>
</g>
<!-- mppp -->
<g id="node2" class="node">
<title>mppp</title>
<g id="a_node2"><a xlink:href="https://github.com/conda-forge/mppp-feedstock" xlink:title="mppp">
<ellipse fill="#fde725" stroke="black" cx="399.74" cy="-234" rx="39.63" ry="18"/>
<text text-anchor="middle" x="399.74" y="-229.32" font-family="Times,serif" font-size="14.00">mppp</text>
</a>
</g>
</g>
<!-- arb&#45;&gt;mppp -->
<g id="edge1" class="edge">
<title>arb&#45;&gt;mppp</title>
<path fill="none" stroke="black" d="M399.74,-287.7C399.74,-280.24 399.74,-271.32 399.74,-262.97"/>
<polygon fill="black" stroke="black" points="403.24,-263.1 399.74,-253.1 396.24,-263.1 403.24,-263.1"/>
</g>
<!-- sagelib -->
<g id="node3" class="node">
<title>sagelib</title>
<g id="a_node3"><a xlink:href="https://github.com/conda-forge/sagelib-feedstock" xlink:title="sagelib">
<ellipse fill="#fde725" stroke="black" cx="319.74" cy="-18" rx="47" ry="18"/>
<text text-anchor="middle" x="319.74" y="-13.32" font-family="Times,serif" font-size="14.00">sagelib</text>
</a>
</g>
</g>
<!-- arb&#45;&gt;sagelib -->
<g id="edge2" class="edge">
<title>arb&#45;&gt;sagelib</title>
<path fill="none" stroke="black" d="M421.89,-294.63C470.06,-270.59 577.09,-208.19 539.74,-144 503.25,-81.31 422.3,-47.48 369.43,-31.37"/>
<polygon fill="black" stroke="black" points="370.51,-27.75 359.93,-28.29 368.54,-34.46 370.51,-27.75"/>
</g>
<!-- python&#45;flint -->
<g id="node4" class="node">
<title>python&#45;flint</title>
<g id="a_node4"><a xlink:href="https://github.com/conda-forge/python-flint-feedstock" xlink:title="python flint">
<ellipse fill="#fde725" stroke="black" cx="461.74" cy="-162" rx="69.1" ry="18"/>
<text text-anchor="middle" x="461.74" y="-157.32" font-family="Times,serif" font-size="14.00">python flint</text>
</a>
</g>
</g>
<!-- arb&#45;&gt;python&#45;flint -->
<g id="edge3" class="edge">
<title>arb&#45;&gt;python&#45;flint</title>
<path fill="none" stroke="black" d="M416.62,-291.55C427.63,-281.79 441.28,-267.6 448.74,-252 457.84,-232.95 460.95,-209.21 461.86,-191.04"/>
<polygon fill="black" stroke="black" points="465.39,-191.37 462.18,-181.27 458.39,-191.16 465.39,-191.37"/>
</g>
<!-- e&#45;antic -->
<g id="node5" class="node">
<title>e&#45;antic</title>
<g id="a_node5"><a xlink:href="https://github.com/conda-forge/e-antic-feedstock" xlink:title="e antic">
<ellipse fill="#fde725" stroke="black" cx="220.74" cy="-234" rx="44.9" ry="18"/>
<text text-anchor="middle" x="220.74" y="-229.32" font-family="Times,serif" font-size="14.00">e antic</text>
</a>
</g>
</g>
<!-- arb&#45;&gt;e&#45;antic -->
<g id="edge4" class="edge">
<title>arb&#45;&gt;e&#45;antic</title>
<path fill="none" stroke="black" d="M376.34,-295.85C347.36,-284.52 297.49,-265.01 262.02,-251.14"/>
<polygon fill="black" stroke="black" points="263.56,-247.6 252.97,-247.21 261.01,-254.11 263.56,-247.6"/>
</g>
<!-- normaliz -->
<g id="node6" class="node">
<title>normaliz</title>
<g id="a_node6"><a xlink:href="https://github.com/conda-forge/normaliz-feedstock" xlink:title="normaliz">
<ellipse fill="#fde725" stroke="black" cx="319.74" cy="-162" rx="54.89" ry="18"/>
<text text-anchor="middle" x="319.74" y="-157.32" font-family="Times,serif" font-size="14.00">normaliz</text>
</a>
</g>
</g>
<!-- arb&#45;&gt;normaliz -->
<g id="edge5" class="edge">
<title>arb&#45;&gt;normaliz</title>
<path fill="none" stroke="black" d="M383.78,-291.05C373.18,-281.07 359.64,-266.83 350.74,-252 339.3,-232.95 331.27,-209.06 326.26,-190.83"/>
<polygon fill="black" stroke="black" points="329.42,-190.1 323.52,-181.31 322.65,-191.87 329.42,-190.1"/>
</g>
<!-- flatsurf -->
<g id="node7" class="node">
<title>flatsurf</title>
<g id="a_node7"><a xlink:href="https://github.com/conda-forge/flatsurf-feedstock" xlink:title="flatsurf">
<ellipse fill="#fde725" stroke="black" cx="199.74" cy="-162" rx="47.53" ry="18"/>
<text text-anchor="middle" x="199.74" y="-157.32" font-family="Times,serif" font-size="14.00">flatsurf</text>
</a>
</g>
</g>
<!-- arb&#45;&gt;flatsurf -->
<g id="edge6" class="edge">
<title>arb&#45;&gt;flatsurf</title>
<path fill="none" stroke="black" d="M381.54,-292.01C357.21,-274.66 312.76,-242.97 274.74,-216 260.16,-205.66 243.96,-194.21 230.36,-184.6"/>
<polygon fill="black" stroke="black" points="232.6,-181.2 222.41,-178.29 228.56,-186.91 232.6,-181.2"/>
</g>
<!-- gravelamps -->
<g id="node8" class="node">
<title>gravelamps</title>
<g id="a_node8"><a xlink:href="https://github.com/conda-forge/gravelamps-feedstock" xlink:title="gravelamps">
<ellipse fill="#fde725" stroke="black" cx="744.74" cy="-90" rx="69.62" ry="18"/>
<text text-anchor="middle" x="744.74" y="-85.33" font-family="Times,serif" font-size="14.00">gravelamps</text>
</a>
</g>
</g>
<!-- arb&#45;&gt;gravelamps -->
<g id="edge7" class="edge">
<title>arb&#45;&gt;gravelamps</title>
<path fill="none" stroke="black" d="M426.75,-300.66C462.15,-294.11 525.3,-279.47 572.74,-252 635.88,-215.44 694.54,-151.66 724.31,-116.34"/>
<polygon fill="black" stroke="black" points="727.53,-118.94 731.24,-109.01 722.15,-114.46 727.53,-118.94"/>
</g>
<!-- e&#45;antic&#45;&gt;normaliz -->
<g id="edge8" class="edge">
<title>e&#45;antic&#45;&gt;normaliz</title>
<path fill="none" stroke="black" d="M242.22,-217.81C255.69,-208.29 273.28,-195.85 288.31,-185.22"/>
<polygon fill="black" stroke="black" points="290.12,-187.52 296.27,-178.89 286.08,-181.8 290.12,-187.52"/>
</g>
<!-- e&#45;antic&#45;&gt;flatsurf -->
<g id="edge9" class="edge">
<title>e&#45;antic&#45;&gt;flatsurf</title>
<path fill="none" stroke="black" d="M215.55,-215.7C213.26,-208.07 210.51,-198.92 207.96,-190.4"/>
<polygon fill="black" stroke="black" points="211.1,-189.68 204.87,-181.1 204.39,-191.69 211.1,-189.68"/>
</g>
<!-- gap -->
<g id="node9" class="node">
<title>gap</title>
<g id="a_node9"><a xlink:href="https://github.com/conda-forge/gap-feedstock" xlink:title="gap">
<ellipse fill="#fde725" stroke="black" cx="319.74" cy="-90" rx="29.64" ry="18"/>
<text text-anchor="middle" x="319.74" y="-85.33" font-family="Times,serif" font-size="14.00">gap</text>
</a>
</g>
</g>
<!-- normaliz&#45;&gt;gap -->
<g id="edge10" class="edge">
<title>normaliz&#45;&gt;gap</title>
<path fill="none" stroke="black" d="M319.74,-143.7C319.74,-136.24 319.74,-127.32 319.74,-118.97"/>
<polygon fill="black" stroke="black" points="323.24,-119.1 319.74,-109.1 316.24,-119.1 323.24,-119.1"/>
</g>
<!-- gap&#45;&gt;sagelib -->
<g id="edge12" class="edge">
<title>gap&#45;&gt;sagelib</title>
<path fill="none" stroke="black" d="M319.74,-71.7C319.74,-64.24 319.74,-55.32 319.74,-46.97"/>
<polygon fill="black" stroke="black" points="323.24,-47.1 319.74,-37.1 316.24,-47.1 323.24,-47.1"/>
</g>
<!-- eclib -->
<g id="node10" class="node">
<title>eclib</title>
<g id="a_node10"><a xlink:href="https://github.com/conda-forge/eclib-feedstock" xlink:title="eclib">
<ellipse fill="#35b779" stroke="black" cx="621.74" cy="-90" rx="34.9" ry="18"/>
<text text-anchor="middle" x="621.74" y="-85.33" font-family="Times,serif" font-size="14.00">eclib</text>
</a>
</g>
</g>
<!-- eclib&#45;&gt;sagelib -->
<g id="edge11" class="edge">
<title>eclib&#45;&gt;sagelib</title>
<path fill="none" stroke="black" d="M593.95,-78.67C587.07,-76.3 579.68,-73.92 572.74,-72 504.5,-53.1 424.27,-37.36 372.76,-28.07"/>
<polygon fill="black" stroke="black" points="373.67,-24.5 363.21,-26.19 372.44,-31.39 373.67,-24.5"/>
</g>
<!-- linbox -->
<g id="node11" class="node">
<title>linbox</title>
<g id="a_node11"><a xlink:href="https://github.com/conda-forge/linbox-feedstock" xlink:title="linbox">
<ellipse fill="#35b779" stroke="black" cx="41.74" cy="-162" rx="41.74" ry="18"/>
<text text-anchor="middle" x="41.74" y="-157.32" font-family="Times,serif" font-size="14.00">linbox</text>
</a>
</g>
</g>
<!-- linbox&#45;&gt;sagelib -->
<g id="edge13" class="edge">
<title>linbox&#45;&gt;sagelib</title>
<path fill="none" stroke="black" d="M47.91,-143.74C56.09,-123.39 72.51,-90.08 97.74,-72 146,-37.42 213.81,-25.16 261.76,-20.94"/>
<polygon fill="black" stroke="black" points="261.89,-24.37 271.58,-20.1 261.34,-17.39 261.89,-24.37"/>
</g>
<!-- python&#45;symengine -->
<g id="node12" class="node">
<title>python&#45;symengine</title>
<g id="a_node12"><a xlink:href="https://github.com/conda-forge/python-symengine-feedstock" xlink:title="python symengine">
<ellipse fill="#fde725" stroke="black" cx="925.74" cy="-126" rx="103.29" ry="18"/>
<text text-anchor="middle" x="925.74" y="-121.33" font-family="Times,serif" font-size="14.00">python symengine</text>
</a>
</g>
</g>
<!-- singular -->
<g id="node13" class="node">
<title>singular</title>
<g id="a_node13"><a xlink:href="https://github.com/conda-forge/singular-feedstock" xlink:title="singular">
<ellipse fill="#35b779" stroke="black" cx="105.74" cy="-234" rx="52.26" ry="18"/>
<text text-anchor="middle" x="105.74" y="-229.32" font-family="Times,serif" font-size="14.00">singular</text>
</a>
</g>
</g>
<!-- singular&#45;&gt;sagelib -->
<g id="edge14" class="edge">
<title>singular&#45;&gt;sagelib</title>
<path fill="none" stroke="black" d="M109.81,-215.78C114.98,-196.67 125.38,-165.69 142.74,-144 180.99,-96.21 242.12,-58.67 281.59,-37.66"/>
<polygon fill="black" stroke="black" points="282.89,-40.41 290.13,-32.68 279.65,-34.21 282.89,-40.41"/>
</g>
<!-- symengine -->
<g id="node14" class="node">
<title>symengine</title>
<g id="a_node14"><a xlink:href="https://github.com/conda-forge/symengine-feedstock" xlink:title="symengine">
<ellipse fill="#35b779" stroke="black" cx="925.74" cy="-198" rx="65.41" ry="18"/>
<text text-anchor="middle" x="925.74" y="-193.32" font-family="Times,serif" font-size="14.00">symengine</text>
</a>
</g>
</g>
<!-- symengine&#45;&gt;python&#45;symengine -->
<g id="edge15" class="edge">
<title>symengine&#45;&gt;python&#45;symengine</title>
<path fill="none" stroke="black" d="M925.74,-179.7C925.74,-172.24 925.74,-163.32 925.74,-154.97"/>
<polygon fill="black" stroke="black" points="929.24,-155.1 925.74,-145.1 922.24,-155.1 929.24,-155.1"/>
</g>
<!-- antic -->
<g id="node15" class="node">
<title>antic</title>
<g id="a_node15"><a xlink:href="https://github.com/conda-forge/antic-feedstock" xlink:title="antic">
<ellipse fill="#35b779" stroke="black" cx="220.74" cy="-306" rx="35.95" ry="18"/>
<text text-anchor="middle" x="220.74" y="-301.32" font-family="Times,serif" font-size="14.00">antic</text>
</a>
</g>
</g>
<!-- antic&#45;&gt;e&#45;antic -->
<g id="edge16" class="edge">
<title>antic&#45;&gt;e&#45;antic</title>
<path fill="none" stroke="black" d="M220.74,-287.7C220.74,-280.24 220.74,-271.32 220.74,-262.97"/>
<polygon fill="black" stroke="black" points="224.24,-263.1 220.74,-253.1 217.24,-263.1 224.24,-263.1"/>
</g>
</g>
</svg>
