<?xml version="1.0" encoding="UTF-8" standalone="no"?>
<!DOCTYPE svg PUBLIC "-//W3C//DTD SVG 1.1//EN"
 "http://www.w3.org/Graphics/SVG/1.1/DTD/svg11.dtd">
<!-- Generated by graphviz version 9.0.0 (20231125.0833)
 -->
<!-- Pages: 1 -->
<svg width="2143pt" height="1716pt"
 viewBox="0.00 0.00 2143.14 1716.00" xmlns="http://www.w3.org/2000/svg" xmlns:xlink="http://www.w3.org/1999/xlink">
<g id="graph0" class="graph" transform="scale(1 1) rotate(0) translate(4 1712)">
<polygon fill="white" stroke="none" points="-4,4 -4,-1712 2139.14,-1712 2139.14,4 -4,4"/>
<!-- arrow&#45;cpp -->
<g id="node1" class="node">
<title>arrow&#45;cpp</title>
<g id="a_node1"><a xlink:href="https://github.com/conda-forge/arrow-cpp-feedstock" xlink:title="arrow cpp">
<ellipse fill="#35b779" stroke="black" cx="385.24" cy="-1330" rx="61.73" ry="18"/>
<text text-anchor="middle" x="385.24" y="-1325.33" font-family="Times,serif" font-size="14.00">arrow cpp</text>
</a>
</g>
</g>
<!-- ray&#45;packages -->
<g id="node2" class="node">
<title>ray&#45;packages</title>
<g id="a_node2"><a xlink:href="https://github.com/conda-forge/ray-packages-feedstock" xlink:title="ray packages">
<ellipse fill="#fde725" stroke="black" cx="560.24" cy="-1258" rx="76.99" ry="18"/>
<text text-anchor="middle" x="560.24" y="-1253.33" font-family="Times,serif" font-size="14.00">ray packages</text>
</a>
</g>
</g>
<!-- arrow&#45;cpp&#45;&gt;ray&#45;packages -->
<g id="edge1" class="edge">
<title>arrow&#45;cpp&#45;&gt;ray&#45;packages</title>
<path fill="none" stroke="black" d="M420.65,-1314.83C446.86,-1304.35 482.88,-1289.94 511.77,-1278.39"/>
<polygon fill="black" stroke="black" points="513.06,-1281.64 521.05,-1274.68 510.46,-1275.14 513.06,-1281.64"/>
</g>
<!-- arcticdb -->
<g id="node3" class="node">
<title>arcticdb</title>
<g id="a_node3"><a xlink:href="https://github.com/conda-forge/arcticdb-feedstock" xlink:title="arcticdb">
<ellipse fill="#fde725" stroke="black" cx="385.24" cy="-1258" rx="52.26" ry="18"/>
<text text-anchor="middle" x="385.24" y="-1253.33" font-family="Times,serif" font-size="14.00">arcticdb</text>
</a>
</g>
</g>
<!-- arrow&#45;cpp&#45;&gt;arcticdb -->
<g id="edge2" class="edge">
<title>arrow&#45;cpp&#45;&gt;arcticdb</title>
<path fill="none" stroke="black" d="M385.24,-1311.7C385.24,-1304.41 385.24,-1295.73 385.24,-1287.54"/>
<polygon fill="black" stroke="black" points="388.74,-1287.62 385.24,-1277.62 381.74,-1287.62 388.74,-1287.62"/>
</g>
<!-- bazel -->
<g id="node4" class="node">
<title>bazel</title>
<g id="a_node4"><a xlink:href="https://github.com/conda-forge/bazel-feedstock" xlink:title="bazel">
<ellipse fill="#35b779" stroke="black" cx="444.24" cy="-926" rx="37.53" ry="18"/>
<text text-anchor="middle" x="444.24" y="-921.33" font-family="Times,serif" font-size="14.00">bazel</text>
</a>
</g>
</g>
<!-- mosh -->
<g id="node5" class="node">
<title>mosh</title>
<g id="a_node5"><a xlink:href="https://github.com/conda-forge/mosh-feedstock" xlink:title="mosh">
<ellipse fill="#35b779" stroke="black" cx="444.24" cy="-854" rx="38.06" ry="18"/>
<text text-anchor="middle" x="444.24" y="-849.33" font-family="Times,serif" font-size="14.00">mosh</text>
</a>
</g>
</g>
<!-- bazel&#45;&gt;mosh -->
<!-- mysql -->
<g id="node6" class="node">
<title>mysql</title>
<g id="a_node6"><a xlink:href="https://github.com/conda-forge/mysql-feedstock/pull/97" xlink:title="mysql ✓">
<ellipse fill="#31688e" stroke="black" cx="444.24" cy="-782" rx="49.1" ry="18"/>
<text text-anchor="middle" x="444.24" y="-777.33" font-family="Times,serif" font-size="14.00" fill="white">mysql ✓</text>
</a>
</g>
</g>
<!-- mosh&#45;&gt;mysql -->
<!-- onnx -->
<g id="node7" class="node">
<title>onnx</title>
<g id="a_node7"><a xlink:href="https://github.com/conda-forge/onnx-feedstock" xlink:title="onnx">
<ellipse fill="#35b779" stroke="black" cx="444.24" cy="-710" rx="35.42" ry="18"/>
<text text-anchor="middle" x="444.24" y="-705.33" font-family="Times,serif" font-size="14.00">onnx</text>
</a>
</g>
</g>
<!-- mysql&#45;&gt;onnx -->
<!-- paraview -->
<g id="node8" class="node">
<title>paraview</title>
<g id="a_node8"><a xlink:href="https://github.com/conda-forge/paraview-feedstock" xlink:title="paraview">
<ellipse fill="#35b779" stroke="black" cx="444.24" cy="-638" rx="57" ry="18"/>
<text text-anchor="middle" x="444.24" y="-633.33" font-family="Times,serif" font-size="14.00">paraview</text>
</a>
</g>
</g>
<!-- onnx&#45;&gt;paraview -->
<!-- qgis -->
<g id="node12" class="node">
<title>qgis</title>
<g id="a_node12"><a xlink:href="https://github.com/conda-forge/qgis-feedstock" xlink:title="qgis">
<ellipse fill="#35b779" stroke="black" cx="444.24" cy="-566" rx="32.27" ry="18"/>
<text text-anchor="middle" x="444.24" y="-561.33" font-family="Times,serif" font-size="14.00">qgis</text>
</a>
</g>
</g>
<!-- paraview&#45;&gt;qgis -->
<!-- opencv -->
<g id="node9" class="node">
<title>opencv</title>
<g id="a_node9"><a xlink:href="https://github.com/conda-forge/opencv-feedstock" xlink:title="opencv">
<ellipse fill="#fde725" stroke="black" cx="259.24" cy="-1330" rx="46.47" ry="18"/>
<text text-anchor="middle" x="259.24" y="-1325.33" font-family="Times,serif" font-size="14.00">opencv</text>
</a>
</g>
</g>
<!-- opencv&#45;&gt;ray&#45;packages -->
<g id="edge7" class="edge">
<title>opencv&#45;&gt;ray&#45;packages</title>
<path fill="none" stroke="black" d="M294.02,-1317.75C300.7,-1315.73 307.66,-1313.72 314.24,-1312 373.25,-1296.55 441.07,-1282.19 490.53,-1272.32"/>
<polygon fill="black" stroke="black" points="491.13,-1275.77 500.26,-1270.4 489.77,-1268.91 491.13,-1275.77"/>
</g>
<!-- imp -->
<g id="node10" class="node">
<title>imp</title>
<g id="a_node10"><a xlink:href="https://github.com/conda-forge/imp-feedstock" xlink:title="imp">
<ellipse fill="#fde725" stroke="black" cx="272.24" cy="-1258" rx="30.16" ry="18"/>
<text text-anchor="middle" x="272.24" y="-1253.33" font-family="Times,serif" font-size="14.00">imp</text>
</a>
</g>
</g>
<!-- opencv&#45;&gt;imp -->
<g id="edge8" class="edge">
<title>opencv&#45;&gt;imp</title>
<path fill="none" stroke="black" d="M262.45,-1311.7C263.82,-1304.32 265.45,-1295.52 266.99,-1287.25"/>
<polygon fill="black" stroke="black" points="270.4,-1288.06 268.78,-1277.59 263.52,-1286.79 270.4,-1288.06"/>
</g>
<!-- gazebo&#45;yarp&#45;plugins -->
<g id="node11" class="node">
<title>gazebo&#45;yarp&#45;plugins</title>
<g id="a_node11"><a xlink:href="https://github.com/conda-forge/gazebo-yarp-plugins-feedstock" xlink:title="gazebo yarp plugins">
<ellipse fill="#fde725" stroke="black" cx="112.24" cy="-1258" rx="112.24" ry="18"/>
<text text-anchor="middle" x="112.24" y="-1253.33" font-family="Times,serif" font-size="14.00">gazebo yarp plugins</text>
</a>
</g>
</g>
<!-- opencv&#45;&gt;gazebo&#45;yarp&#45;plugins -->
<g id="edge9" class="edge">
<title>opencv&#45;&gt;gazebo&#45;yarp&#45;plugins</title>
<path fill="none" stroke="black" d="M230.89,-1315.5C210.04,-1305.57 181.26,-1291.87 157.26,-1280.44"/>
<polygon fill="black" stroke="black" points="158.87,-1277.33 148.34,-1276.19 155.86,-1283.65 158.87,-1277.33"/>
</g>
<!-- r&#45;protolite -->
<g id="node13" class="node">
<title>r&#45;protolite</title>
<g id="a_node13"><a xlink:href="https://github.com/conda-forge/r-protolite-feedstock" xlink:title="r protolite">
<ellipse fill="#35b779" stroke="black" cx="444.24" cy="-494" rx="62.26" ry="18"/>
<text text-anchor="middle" x="444.24" y="-489.32" font-family="Times,serif" font-size="14.00">r protolite</text>
</a>
</g>
</g>
<!-- qgis&#45;&gt;r&#45;protolite -->
<!-- mongodb -->
<g id="node16" class="node">
<title>mongodb</title>
<g id="a_node16"><a xlink:href="https://github.com/conda-forge/mongodb-feedstock" xlink:title="mongodb">
<ellipse fill="#35b779" stroke="black" cx="444.24" cy="-422" rx="57.52" ry="18"/>
<text text-anchor="middle" x="444.24" y="-417.32" font-family="Times,serif" font-size="14.00">mongodb</text>
</a>
</g>
</g>
<!-- r&#45;protolite&#45;&gt;mongodb -->
<!-- pyaudi -->
<g id="node14" class="node">
<title>pyaudi</title>
<g id="a_node14"><a xlink:href="https://github.com/conda-forge/pyaudi-feedstock" xlink:title="pyaudi">
<ellipse fill="#fde725" stroke="black" cx="1815.24" cy="-54" rx="44.9" ry="18"/>
<text text-anchor="middle" x="1815.24" y="-49.33" font-family="Times,serif" font-size="14.00">pyaudi</text>
</a>
</g>
</g>
<!-- tensorflow -->
<g id="node15" class="node">
<title>tensorflow</title>
<g id="a_node15"><a xlink:href="https://github.com/conda-forge/tensorflow-feedstock" xlink:title="tensorflow">
<ellipse fill="#fde725" stroke="black" cx="825.24" cy="-1258" rx="63.84" ry="18"/>
<text text-anchor="middle" x="825.24" y="-1253.33" font-family="Times,serif" font-size="14.00">tensorflow</text>
</a>
</g>
</g>
<!-- zaber&#45;motion -->
<g id="node18" class="node">
<title>zaber&#45;motion</title>
<g id="a_node18"><a xlink:href="https://github.com/conda-forge/zaber-motion-feedstock" xlink:title="zaber motion">
<ellipse fill="#35b779" stroke="black" cx="444.24" cy="-350" rx="76.99" ry="18"/>
<text text-anchor="middle" x="444.24" y="-345.32" font-family="Times,serif" font-size="14.00">zaber motion</text>
</a>
</g>
</g>
<!-- mongodb&#45;&gt;zaber&#45;motion -->
<!-- pytorch&#45;cpu -->
<g id="node17" class="node">
<title>pytorch&#45;cpu</title>
<g id="a_node17"><a xlink:href="https://github.com/conda-forge/pytorch-cpu-feedstock" xlink:title="pytorch cpu">
<ellipse fill="#35b779" stroke="black" cx="686.24" cy="-1330" rx="70.68" ry="18"/>
<text text-anchor="middle" x="686.24" y="-1325.33" font-family="Times,serif" font-size="14.00">pytorch cpu</text>
</a>
</g>
</g>
<!-- pytorch&#45;cpu&#45;&gt;ray&#45;packages -->
<g id="edge13" class="edge">
<title>pytorch&#45;cpu&#45;&gt;ray&#45;packages</title>
<path fill="none" stroke="black" d="M657.65,-1313.12C640.29,-1303.47 617.91,-1291.04 598.98,-1280.52"/>
<polygon fill="black" stroke="black" points="600.92,-1277.6 590.47,-1275.8 597.52,-1283.71 600.92,-1277.6"/>
</g>
<!-- go&#45;cockroach -->
<g id="node30" class="node">
<title>go&#45;cockroach</title>
<g id="a_node30"><a xlink:href="https://github.com/conda-forge/go-cockroach-feedstock" xlink:title="go cockroach">
<ellipse fill="#35b779" stroke="black" cx="444.24" cy="-278" rx="76.46" ry="18"/>
<text text-anchor="middle" x="444.24" y="-273.32" font-family="Times,serif" font-size="14.00">go cockroach</text>
</a>
</g>
</g>
<!-- zaber&#45;motion&#45;&gt;go&#45;cockroach -->
<!-- jaxlib -->
<g id="node19" class="node">
<title>jaxlib</title>
<g id="a_node19"><a xlink:href="https://github.com/conda-forge/jaxlib-feedstock" xlink:title="jaxlib">
<ellipse fill="#35b779" stroke="black" cx="478.24" cy="-1402" rx="38.58" ry="18"/>
<text text-anchor="middle" x="478.24" y="-1397.33" font-family="Times,serif" font-size="14.00">jaxlib</text>
</a>
</g>
</g>
<!-- mujoco -->
<g id="node20" class="node">
<title>mujoco</title>
<g id="a_node20"><a xlink:href="https://github.com/conda-forge/mujoco-feedstock" xlink:title="mujoco">
<ellipse fill="#fde725" stroke="black" cx="512.24" cy="-1330" rx="47" ry="18"/>
<text text-anchor="middle" x="512.24" y="-1325.33" font-family="Times,serif" font-size="14.00">mujoco</text>
</a>
</g>
</g>
<!-- jaxlib&#45;&gt;mujoco -->
<g id="edge15" class="edge">
<title>jaxlib&#45;&gt;mujoco</title>
<path fill="none" stroke="black" d="M486.47,-1384.05C490.27,-1376.23 494.87,-1366.75 499.13,-1357.98"/>
<polygon fill="black" stroke="black" points="502.2,-1359.67 503.42,-1349.15 495.9,-1356.62 502.2,-1359.67"/>
</g>
<!-- mujoco&#45;&gt;ray&#45;packages -->
<g id="edge16" class="edge">
<title>mujoco&#45;&gt;ray&#45;packages</title>
<path fill="none" stroke="black" d="M523.61,-1312.41C529.15,-1304.34 535.94,-1294.43 542.17,-1285.35"/>
<polygon fill="black" stroke="black" points="544.99,-1287.43 547.75,-1277.2 539.21,-1283.47 544.99,-1287.43"/>
</g>
<!-- obake -->
<g id="node21" class="node">
<title>obake</title>
<g id="a_node21"><a xlink:href="https://github.com/conda-forge/obake-feedstock" xlink:title="obake">
<ellipse fill="#35b779" stroke="black" cx="1815.24" cy="-126" rx="40.69" ry="18"/>
<text text-anchor="middle" x="1815.24" y="-121.33" font-family="Times,serif" font-size="14.00">obake</text>
</a>
</g>
</g>
<!-- obake&#45;&gt;pyaudi -->
<g id="edge17" class="edge">
<title>obake&#45;&gt;pyaudi</title>
<path fill="none" stroke="black" d="M1815.24,-107.7C1815.24,-100.41 1815.24,-91.73 1815.24,-83.54"/>
<polygon fill="black" stroke="black" points="1818.74,-83.62 1815.24,-73.62 1811.74,-83.62 1818.74,-83.62"/>
</g>
<!-- libignition&#45;transport4 -->
<g id="node22" class="node">
<title>libignition&#45;transport4</title>
<g id="a_node22"><a xlink:href="https://github.com/conda-forge/libignition-transport4-feedstock" xlink:title="libignition transport4">
<ellipse fill="#fde725" stroke="black" cx="1700.24" cy="-1402" rx="119.08" ry="18"/>
<text text-anchor="middle" x="1700.24" y="-1397.33" font-family="Times,serif" font-size="14.00">libignition transport4</text>
</a>
</g>
</g>
<!-- libignition&#45;sensors -->
<g id="node23" class="node">
<title>libignition&#45;sensors</title>
<g id="a_node23"><a xlink:href="https://github.com/conda-forge/libignition-sensors-feedstock" xlink:title="libignition sensors">
<ellipse fill="#fde725" stroke="black" cx="1855.24" cy="-1330" rx="103.82" ry="18"/>
<text text-anchor="middle" x="1855.24" y="-1325.33" font-family="Times,serif" font-size="14.00">libignition sensors</text>
</a>
</g>
</g>
<!-- libignition&#45;transport4&#45;&gt;libignition&#45;sensors -->
<g id="edge18" class="edge">
<title>libignition&#45;transport4&#45;&gt;libignition&#45;sensors</title>
<path fill="none" stroke="black" d="M1736.97,-1384.41C1758.47,-1374.7 1785.83,-1362.34 1808.82,-1351.96"/>
<polygon fill="black" stroke="black" points="1809.98,-1355.28 1817.66,-1347.97 1807.1,-1348.9 1809.98,-1355.28"/>
</g>
<!-- libignition&#45;gui -->
<g id="node24" class="node">
<title>libignition&#45;gui</title>
<g id="a_node24"><a xlink:href="https://github.com/conda-forge/libignition-gui-feedstock" xlink:title="libignition gui">
<ellipse fill="#fde725" stroke="black" cx="1576.24" cy="-1330" rx="81.2" ry="18"/>
<text text-anchor="middle" x="1576.24" y="-1325.33" font-family="Times,serif" font-size="14.00">libignition gui</text>
</a>
</g>
</g>
<!-- libignition&#45;transport4&#45;&gt;libignition&#45;gui -->
<g id="edge19" class="edge">
<title>libignition&#45;transport4&#45;&gt;libignition&#45;gui</title>
<path fill="none" stroke="black" d="M1670.54,-1384.23C1653.81,-1374.79 1632.73,-1362.89 1614.74,-1352.74"/>
<polygon fill="black" stroke="black" points="1616.59,-1349.76 1606.16,-1347.89 1613.15,-1355.86 1616.59,-1349.76"/>
</g>
<!-- libignition&#45;gazebo -->
<g id="node25" class="node">
<title>libignition&#45;gazebo</title>
<g id="a_node25"><a xlink:href="https://github.com/conda-forge/libignition-gazebo-feedstock" xlink:title="libignition gazebo">
<ellipse fill="#fde725" stroke="black" cx="1835.24" cy="-1258" rx="100.66" ry="18"/>
<text text-anchor="middle" x="1835.24" y="-1253.33" font-family="Times,serif" font-size="14.00">libignition gazebo</text>
</a>
</g>
</g>
<!-- libignition&#45;transport4&#45;&gt;libignition&#45;gazebo -->
<g id="edge20" class="edge">
<title>libignition&#45;transport4&#45;&gt;libignition&#45;gazebo</title>
<path fill="none" stroke="black" d="M1704.91,-1383.8C1710.89,-1364.43 1722.85,-1332.94 1742.24,-1312 1754.35,-1298.91 1770.46,-1288.19 1785.85,-1279.89"/>
<polygon fill="black" stroke="black" points="1787.17,-1283.16 1794.47,-1275.49 1783.98,-1276.92 1787.17,-1283.16"/>
</g>
<!-- libignition&#45;launch -->
<g id="node26" class="node">
<title>libignition&#45;launch</title>
<g id="a_node26"><a xlink:href="https://github.com/conda-forge/libignition-launch-feedstock" xlink:title="libignition launch">
<ellipse fill="#fde725" stroke="black" cx="1770.24" cy="-1186" rx="98.56" ry="18"/>
<text text-anchor="middle" x="1770.24" y="-1181.33" font-family="Times,serif" font-size="14.00">libignition launch</text>
</a>
</g>
</g>
<!-- libignition&#45;transport4&#45;&gt;libignition&#45;launch -->
<g id="edge21" class="edge">
<title>libignition&#45;transport4&#45;&gt;libignition&#45;launch</title>
<path fill="none" stroke="black" d="M1699.91,-1383.68C1699.97,-1353.2 1703,-1288.62 1725.24,-1240 1729.81,-1230 1736.82,-1220.41 1743.96,-1212.2"/>
<polygon fill="black" stroke="black" points="1746.41,-1214.72 1750.62,-1205 1741.26,-1209.97 1746.41,-1214.72"/>
</g>
<!-- libignition&#45;sensors&#45;&gt;libignition&#45;gazebo -->
<g id="edge22" class="edge">
<title>libignition&#45;sensors&#45;&gt;libignition&#45;gazebo</title>
<path fill="none" stroke="black" d="M1850.29,-1311.7C1848.16,-1304.24 1845.61,-1295.32 1843.23,-1286.97"/>
<polygon fill="black" stroke="black" points="1846.65,-1286.21 1840.54,-1277.56 1839.92,-1288.14 1846.65,-1286.21"/>
</g>
<!-- libignition&#45;gui&#45;&gt;libignition&#45;gazebo -->
<g id="edge23" class="edge">
<title>libignition&#45;gui&#45;&gt;libignition&#45;gazebo</title>
<path fill="none" stroke="black" d="M1626.48,-1315.42C1667.44,-1304.35 1725.58,-1288.64 1770.1,-1276.6"/>
<polygon fill="black" stroke="black" points="1770.91,-1280.01 1779.65,-1274.02 1769.08,-1273.25 1770.91,-1280.01"/>
</g>
<!-- libignition&#45;gui&#45;&gt;libignition&#45;launch -->
<g id="edge24" class="edge">
<title>libignition&#45;gui&#45;&gt;libignition&#45;launch</title>
<path fill="none" stroke="black" d="M1591.58,-1312.18C1609.48,-1293.17 1640.57,-1262 1671.24,-1240 1687.92,-1228.03 1707.64,-1216.94 1725.06,-1208.03"/>
<polygon fill="black" stroke="black" points="1726.29,-1211.33 1733.67,-1203.72 1723.16,-1205.07 1726.29,-1211.33"/>
</g>
<!-- libignition&#45;gazebo&#45;&gt;libignition&#45;launch -->
<g id="edge25" class="edge">
<title>libignition&#45;gazebo&#45;&gt;libignition&#45;launch</title>
<path fill="none" stroke="black" d="M1819.5,-1240.05C1811.68,-1231.63 1802.07,-1221.28 1793.42,-1211.97"/>
<polygon fill="black" stroke="black" points="1796.23,-1209.84 1786.86,-1204.9 1791.1,-1214.61 1796.23,-1209.84"/>
</g>
<!-- libignition&#45;msgs1 -->
<g id="node27" class="node">
<title>libignition&#45;msgs1</title>
<g id="a_node27"><a xlink:href="https://github.com/conda-forge/libignition-msgs1-feedstock" xlink:title="libignition msgs1">
<ellipse fill="#35b779" stroke="black" cx="1917.24" cy="-1474" rx="98.03" ry="18"/>
<text text-anchor="middle" x="1917.24" y="-1469.33" font-family="Times,serif" font-size="14.00">libignition msgs1</text>
</a>
</g>
</g>
<!-- libignition&#45;msgs1&#45;&gt;libignition&#45;transport4 -->
<g id="edge26" class="edge">
<title>libignition&#45;msgs1&#45;&gt;libignition&#45;transport4</title>
<path fill="none" stroke="black" d="M1870.15,-1457.81C1837.87,-1447.4 1794.77,-1433.5 1760.06,-1422.3"/>
<polygon fill="black" stroke="black" points="1761.14,-1418.97 1750.55,-1419.23 1758.99,-1425.63 1761.14,-1418.97"/>
</g>
<!-- libignition&#45;msgs1&#45;&gt;libignition&#45;sensors -->
<g id="edge27" class="edge">
<title>libignition&#45;msgs1&#45;&gt;libignition&#45;sensors</title>
<path fill="none" stroke="black" d="M1895.45,-1456.2C1884.83,-1446.76 1872.94,-1434.06 1866.24,-1420 1857.27,-1401.18 1854.68,-1377.7 1854.24,-1359.59"/>
<polygon fill="black" stroke="black" points="1857.74,-1359.8 1854.23,-1349.8 1850.74,-1359.81 1857.74,-1359.8"/>
</g>
<!-- libignition&#45;msgs1&#45;&gt;libignition&#45;gui -->
<g id="edge28" class="edge">
<title>libignition&#45;msgs1&#45;&gt;libignition&#45;gui</title>
<path fill="none" stroke="black" d="M1819.69,-1471.69C1729.1,-1468.15 1603.61,-1456.56 1572.24,-1420 1558.16,-1403.59 1560.65,-1378.57 1565.81,-1359.23"/>
<polygon fill="black" stroke="black" points="1569.12,-1360.36 1568.7,-1349.78 1562.43,-1358.31 1569.12,-1360.36"/>
</g>
<!-- libignition&#45;msgs1&#45;&gt;libignition&#45;gazebo -->
<g id="edge29" class="edge">
<title>libignition&#45;msgs1&#45;&gt;libignition&#45;gazebo</title>
<path fill="none" stroke="black" d="M2001.86,-1464.52C2064.67,-1454.26 2135.14,-1431.93 2108.24,-1384 2071.34,-1318.25 1988.99,-1286.9 1924.33,-1272.06"/>
<polygon fill="black" stroke="black" points="1925.29,-1268.69 1914.78,-1269.97 1923.8,-1275.53 1925.29,-1268.69"/>
</g>
<!-- libignition&#45;msgs1&#45;&gt;libignition&#45;launch -->
<g id="edge30" class="edge">
<title>libignition&#45;msgs1&#45;&gt;libignition&#45;launch</title>
<path fill="none" stroke="black" d="M1995.87,-1462.94C2047.47,-1454.54 2108.26,-1440.59 2124.24,-1420 2134.05,-1407.36 2129.36,-1399.16 2124.24,-1384 2086.34,-1271.96 1945.48,-1222.11 1853.28,-1201.09"/>
<polygon fill="black" stroke="black" points="1854.28,-1197.73 1843.76,-1198.99 1852.78,-1204.56 1854.28,-1197.73"/>
</g>
<!-- libignition&#45;fuel&#45;tools -->
<g id="node28" class="node">
<title>libignition&#45;fuel&#45;tools</title>
<g id="a_node28"><a xlink:href="https://github.com/conda-forge/libignition-fuel-tools-feedstock" xlink:title="libignition fuel tools">
<ellipse fill="#fde725" stroke="black" cx="1987.24" cy="-1402" rx="111.71" ry="18"/>
<text text-anchor="middle" x="1987.24" y="-1397.33" font-family="Times,serif" font-size="14.00">libignition fuel tools</text>
</a>
</g>
</g>
<!-- libignition&#45;msgs1&#45;&gt;libignition&#45;fuel&#45;tools -->
<g id="edge31" class="edge">
<title>libignition&#45;msgs1&#45;&gt;libignition&#45;fuel&#45;tools</title>
<path fill="none" stroke="black" d="M1934.18,-1456.05C1942.48,-1447.75 1952.65,-1437.58 1961.86,-1428.38"/>
<polygon fill="black" stroke="black" points="1964.3,-1430.89 1968.89,-1421.35 1959.35,-1425.94 1964.3,-1430.89"/>
</g>
<!-- libignition&#45;fuel&#45;tools&#45;&gt;libignition&#45;gazebo -->
<g id="edge32" class="edge">
<title>libignition&#45;fuel&#45;tools&#45;&gt;libignition&#45;gazebo</title>
<path fill="none" stroke="black" d="M1988.11,-1383.52C1988.15,-1363.89 1985.25,-1332.16 1968.24,-1312 1953.97,-1295.1 1933.55,-1283.54 1912.98,-1275.66"/>
<polygon fill="black" stroke="black" points="1914.27,-1272.4 1903.67,-1272.36 1911.93,-1279 1914.27,-1272.4"/>
</g>
<!-- gazebo -->
<g id="node29" class="node">
<title>gazebo</title>
<g id="a_node29"><a xlink:href="https://github.com/conda-forge/gazebo-feedstock" xlink:title="gazebo">
<ellipse fill="#35b779" stroke="black" cx="112.24" cy="-1330" rx="46.47" ry="18"/>
<text text-anchor="middle" x="112.24" y="-1325.33" font-family="Times,serif" font-size="14.00">gazebo</text>
</a>
</g>
</g>
<!-- gazebo&#45;&gt;gazebo&#45;yarp&#45;plugins -->
<g id="edge33" class="edge">
<title>gazebo&#45;&gt;gazebo&#45;yarp&#45;plugins</title>
<path fill="none" stroke="black" d="M112.24,-1311.7C112.24,-1304.41 112.24,-1295.73 112.24,-1287.54"/>
<polygon fill="black" stroke="black" points="115.74,-1287.62 112.24,-1277.62 108.74,-1287.62 115.74,-1287.62"/>
</g>
<!-- cartographer -->
<g id="node32" class="node">
<title>cartographer</title>
<g id="a_node32"><a xlink:href="https://github.com/conda-forge/cartographer-feedstock" xlink:title="cartographer">
<ellipse fill="#35b779" stroke="black" cx="444.24" cy="-206" rx="76.99" ry="18"/>
<text text-anchor="middle" x="444.24" y="-201.32" font-family="Times,serif" font-size="14.00">cartographer</text>
</a>
</g>
</g>
<!-- go&#45;cockroach&#45;&gt;cartographer -->
<!-- google&#45;cloud&#45;cpp -->
<g id="node31" class="node">
<title>google&#45;cloud&#45;cpp</title>
<g id="a_node31"><a xlink:href="https://github.com/conda-forge/google-cloud-cpp-feedstock" xlink:title="google cloud cpp">
<ellipse fill="#fde725" stroke="black" cx="1208.24" cy="-458" rx="95.4" ry="18"/>
<text text-anchor="middle" x="1208.24" y="-453.32" font-family="Times,serif" font-size="14.00">google cloud cpp</text>
</a>
</g>
</g>
<!-- sentencepiece -->
<g id="node33" class="node">
<title>sentencepiece</title>
<g id="a_node33"><a xlink:href="https://github.com/conda-forge/sentencepiece-feedstock" xlink:title="sentencepiece">
<ellipse fill="#35b779" stroke="black" cx="1192.24" cy="-1690" rx="82.25" ry="18"/>
<text text-anchor="middle" x="1192.24" y="-1685.33" font-family="Times,serif" font-size="14.00">sentencepiece</text>
</a>
</g>
</g>
<!-- tomviz -->
<g id="node34" class="node">
<title>tomviz</title>
<g id="a_node34"><a xlink:href="https://github.com/conda-forge/tomviz-feedstock" xlink:title="tomviz">
<ellipse fill="#35b779" stroke="black" cx="1192.24" cy="-1618" rx="44.9" ry="18"/>
<text text-anchor="middle" x="1192.24" y="-1613.33" font-family="Times,serif" font-size="14.00">tomviz</text>
</a>
</g>
</g>
<!-- sentencepiece&#45;&gt;tomviz -->
<!-- protozfits -->
<g id="node38" class="node">
<title>protozfits</title>
<g id="a_node38"><a xlink:href="https://github.com/conda-forge/protozfits-feedstock" xlink:title="protozfits">
<ellipse fill="#35b779" stroke="black" cx="1192.24" cy="-1546" rx="59.1" ry="18"/>
<text text-anchor="middle" x="1192.24" y="-1541.33" font-family="Times,serif" font-size="14.00">protozfits</text>
</a>
</g>
</g>
<!-- tomviz&#45;&gt;protozfits -->
<!-- s2geometry -->
<g id="node35" class="node">
<title>s2geometry</title>
<g id="a_node35"><a xlink:href="https://github.com/conda-forge/s2geometry-feedstock" xlink:title="s2geometry">
<ellipse fill="#35b779" stroke="black" cx="1192.24" cy="-126" rx="70.68" ry="18"/>
<text text-anchor="middle" x="1192.24" y="-121.33" font-family="Times,serif" font-size="14.00">s2geometry</text>
</a>
</g>
</g>
<!-- s2geography -->
<g id="node36" class="node">
<title>s2geography</title>
<g id="a_node36"><a xlink:href="https://github.com/conda-forge/s2geography-feedstock" xlink:title="s2geography">
<ellipse fill="#fde725" stroke="black" cx="1192.24" cy="-54" rx="75.94" ry="18"/>
<text text-anchor="middle" x="1192.24" y="-49.33" font-family="Times,serif" font-size="14.00">s2geography</text>
</a>
</g>
</g>
<!-- s2geometry&#45;&gt;s2geography -->
<g id="edge37" class="edge">
<title>s2geometry&#45;&gt;s2geography</title>
<path fill="none" stroke="black" d="M1192.24,-107.7C1192.24,-100.41 1192.24,-91.73 1192.24,-83.54"/>
<polygon fill="black" stroke="black" points="1195.74,-83.62 1192.24,-73.62 1188.74,-83.62 1195.74,-83.62"/>
</g>
<!-- dm&#45;tree -->
<g id="node37" class="node">
<title>dm&#45;tree</title>
<g id="a_node37"><a xlink:href="https://github.com/conda-forge/dm-tree-feedstock" xlink:title="dm tree">
<ellipse fill="#35b779" stroke="black" cx="825.24" cy="-1330" rx="50.68" ry="18"/>
<text text-anchor="middle" x="825.24" y="-1325.33" font-family="Times,serif" font-size="14.00">dm tree</text>
</a>
</g>
</g>
<!-- dm&#45;tree&#45;&gt;ray&#45;packages -->
<g id="edge38" class="edge">
<title>dm&#45;tree&#45;&gt;ray&#45;packages</title>
<path fill="none" stroke="black" d="M786.88,-1317.78C780.02,-1315.82 772.92,-1313.82 766.24,-1312 718.2,-1298.9 663.63,-1284.9 622.72,-1274.58"/>
<polygon fill="black" stroke="black" points="623.58,-1271.19 613.03,-1272.14 621.87,-1277.98 623.58,-1271.19"/>
</g>
<!-- dm&#45;tree&#45;&gt;tensorflow -->
<g id="edge39" class="edge">
<title>dm&#45;tree&#45;&gt;tensorflow</title>
<path fill="none" stroke="black" d="M825.24,-1311.7C825.24,-1304.41 825.24,-1295.73 825.24,-1287.54"/>
<polygon fill="black" stroke="black" points="828.74,-1287.62 825.24,-1277.62 821.74,-1287.62 828.74,-1287.62"/>
</g>
<!-- grpc_java_plugin -->
<g id="node39" class="node">
<title>grpc_java_plugin</title>
<g id="a_node39"><a xlink:href="https://github.com/conda-forge/grpc_java_plugin-feedstock" xlink:title="grpc_java_plugin">
<ellipse fill="#35b779" stroke="black" cx="1192.24" cy="-1474" rx="95.4" ry="18"/>
<text text-anchor="middle" x="1192.24" y="-1469.33" font-family="Times,serif" font-size="14.00">grpc_java_plugin</text>
</a>
</g>
</g>
<!-- protozfits&#45;&gt;grpc_java_plugin -->
<!-- or&#45;tools -->
<g id="node40" class="node">
<title>or&#45;tools</title>
<g id="a_node40"><a xlink:href="https://github.com/conda-forge/or-tools-feedstock" xlink:title="or tools">
<ellipse fill="#35b779" stroke="black" cx="1192.24" cy="-1402" rx="49.1" ry="18"/>
<text text-anchor="middle" x="1192.24" y="-1397.33" font-family="Times,serif" font-size="14.00">or tools</text>
</a>
</g>
</g>
<!-- grpc_java_plugin&#45;&gt;or&#45;tools -->
<!-- bear -->
<g id="node41" class="node">
<title>bear</title>
<g id="a_node41"><a xlink:href="https://github.com/conda-forge/bear-feedstock" xlink:title="bear">
<ellipse fill="#35b779" stroke="black" cx="1192.24" cy="-1330" rx="33.85" ry="18"/>
<text text-anchor="middle" x="1192.24" y="-1325.33" font-family="Times,serif" font-size="14.00">bear</text>
</a>
</g>
</g>
<!-- or&#45;tools&#45;&gt;bear -->
<!-- cpp&#45;opentelemetry&#45;sdk -->
<g id="node42" class="node">
<title>cpp&#45;opentelemetry&#45;sdk</title>
<g id="a_node42"><a xlink:href="https://github.com/conda-forge/cpp-opentelemetry-sdk-feedstock" xlink:title="cpp opentelemetry sdk">
<ellipse fill="#35b779" stroke="black" cx="1192.24" cy="-1258" rx="125.92" ry="18"/>
<text text-anchor="middle" x="1192.24" y="-1253.33" font-family="Times,serif" font-size="14.00">cpp opentelemetry sdk</text>
</a>
</g>
</g>
<!-- bear&#45;&gt;cpp&#45;opentelemetry&#45;sdk -->
<!-- singlejar -->
<g id="node43" class="node">
<title>singlejar</title>
<g id="a_node43"><a xlink:href="https://github.com/conda-forge/singlejar-feedstock" xlink:title="singlejar">
<ellipse fill="#35b779" stroke="black" cx="1192.24" cy="-1186" rx="54.89" ry="18"/>
<text text-anchor="middle" x="1192.24" y="-1181.33" font-family="Times,serif" font-size="14.00">singlejar</text>
</a>
</g>
</g>
<!-- cpp&#45;opentelemetry&#45;sdk&#45;&gt;singlejar -->
<!-- xilinx&#45;runtime -->
<g id="node44" class="node">
<title>xilinx&#45;runtime</title>
<g id="a_node44"><a xlink:href="https://github.com/conda-forge/xilinx-runtime-feedstock" xlink:title="xilinx runtime">
<ellipse fill="#35b779" stroke="black" cx="1192.24" cy="-1114" rx="81.72" ry="18"/>
<text text-anchor="middle" x="1192.24" y="-1109.33" font-family="Times,serif" font-size="14.00">xilinx runtime</text>
</a>
</g>
</g>
<!-- singlejar&#45;&gt;xilinx&#45;runtime -->
<!-- libpulsar -->
<g id="node45" class="node">
<title>libpulsar</title>
<g id="a_node45"><a xlink:href="https://github.com/conda-forge/libpulsar-feedstock" xlink:title="libpulsar">
<ellipse fill="#35b779" stroke="black" cx="1192.24" cy="-1042" rx="55.42" ry="18"/>
<text text-anchor="middle" x="1192.24" y="-1037.33" font-family="Times,serif" font-size="14.00">libpulsar</text>
</a>
</g>
</g>
<!-- xilinx&#45;runtime&#45;&gt;libpulsar -->
<!-- gnss&#45;sdr -->
<g id="node55" class="node">
<title>gnss&#45;sdr</title>
<g id="a_node55"><a xlink:href="https://github.com/conda-forge/gnss-sdr-feedstock" xlink:title="gnss sdr">
<ellipse fill="#35b779" stroke="black" cx="1192.24" cy="-970" rx="53.84" ry="18"/>
<text text-anchor="middle" x="1192.24" y="-965.33" font-family="Times,serif" font-size="14.00">gnss sdr</text>
</a>
</g>
</g>
<!-- libpulsar&#45;&gt;gnss&#45;sdr -->
<!-- gz&#45;msgs -->
<g id="node46" class="node">
<title>gz&#45;msgs</title>
<g id="a_node46"><a xlink:href="https://github.com/conda-forge/gz-msgs-feedstock" xlink:title="gz msgs">
<ellipse fill="#35b779" stroke="black" cx="1776.24" cy="-710" rx="52.26" ry="18"/>
<text text-anchor="middle" x="1776.24" y="-705.33" font-family="Times,serif" font-size="14.00">gz msgs</text>
</a>
</g>
</g>
<!-- gz&#45;transport -->
<g id="node47" class="node">
<title>gz&#45;transport</title>
<g id="a_node47"><a xlink:href="https://github.com/conda-forge/gz-transport-feedstock" xlink:title="gz transport">
<ellipse fill="#fde725" stroke="black" cx="1726.24" cy="-638" rx="73.3" ry="18"/>
<text text-anchor="middle" x="1726.24" y="-633.33" font-family="Times,serif" font-size="14.00">gz transport</text>
</a>
</g>
</g>
<!-- gz&#45;msgs&#45;&gt;gz&#45;transport -->
<g id="edge48" class="edge">
<title>gz&#45;msgs&#45;&gt;gz&#45;transport</title>
<path fill="none" stroke="black" d="M1764.13,-692.05C1758.36,-683.97 1751.32,-674.12 1744.89,-665.11"/>
<polygon fill="black" stroke="black" points="1747.77,-663.12 1739.11,-657.02 1742.07,-667.19 1747.77,-663.12"/>
</g>
<!-- gz&#45;fuel&#45;tools -->
<g id="node48" class="node">
<title>gz&#45;fuel&#45;tools</title>
<g id="a_node48"><a xlink:href="https://github.com/conda-forge/gz-fuel-tools-feedstock" xlink:title="gz fuel tools">
<ellipse fill="#fde725" stroke="black" cx="1927.24" cy="-638" rx="72.25" ry="18"/>
<text text-anchor="middle" x="1927.24" y="-633.33" font-family="Times,serif" font-size="14.00">gz fuel tools</text>
</a>
</g>
</g>
<!-- gz&#45;msgs&#45;&gt;gz&#45;fuel&#45;tools -->
<g id="edge49" class="edge">
<title>gz&#45;msgs&#45;&gt;gz&#45;fuel&#45;tools</title>
<path fill="none" stroke="black" d="M1806.43,-695C1828.57,-684.74 1858.96,-670.65 1883.72,-659.17"/>
<polygon fill="black" stroke="black" points="1884.97,-662.45 1892.57,-655.07 1882.03,-656.1 1884.97,-662.45"/>
</g>
<!-- gz&#45;gui -->
<g id="node49" class="node">
<title>gz&#45;gui</title>
<g id="a_node49"><a xlink:href="https://github.com/conda-forge/gz-gui-feedstock" xlink:title="gz gui">
<ellipse fill="#fde725" stroke="black" cx="1635.24" cy="-566" rx="41.74" ry="18"/>
<text text-anchor="middle" x="1635.24" y="-561.33" font-family="Times,serif" font-size="14.00">gz gui</text>
</a>
</g>
</g>
<!-- gz&#45;msgs&#45;&gt;gz&#45;gui -->
<g id="edge50" class="edge">
<title>gz&#45;msgs&#45;&gt;gz&#45;gui</title>
<path fill="none" stroke="black" d="M1728.43,-702.38C1699.36,-695.73 1664.13,-682.45 1644.24,-656 1631.39,-638.92 1629.75,-614.47 1630.99,-595.53"/>
<polygon fill="black" stroke="black" points="1634.45,-596.08 1631.94,-585.78 1627.49,-595.39 1634.45,-596.08"/>
</g>
<!-- gz&#45;sensors -->
<g id="node50" class="node">
<title>gz&#45;sensors</title>
<g id="a_node50"><a xlink:href="https://github.com/conda-forge/gz-sensors-feedstock" xlink:title="gz sensors">
<ellipse fill="#fde725" stroke="black" cx="1835.24" cy="-566" rx="64.36" ry="18"/>
<text text-anchor="middle" x="1835.24" y="-561.33" font-family="Times,serif" font-size="14.00">gz sensors</text>
</a>
</g>
</g>
<!-- gz&#45;msgs&#45;&gt;gz&#45;sensors -->
<g id="edge51" class="edge">
<title>gz&#45;msgs&#45;&gt;gz&#45;sensors</title>
<path fill="none" stroke="black" d="M1787.73,-692.4C1794.39,-682.23 1802.55,-668.77 1808.24,-656 1816.98,-636.37 1823.93,-613.1 1828.58,-595.28"/>
<polygon fill="black" stroke="black" points="1831.96,-596.2 1831.01,-585.65 1825.17,-594.5 1831.96,-596.2"/>
</g>
<!-- gz&#45;sim -->
<g id="node51" class="node">
<title>gz&#45;sim</title>
<g id="a_node51"><a xlink:href="https://github.com/conda-forge/gz-sim-feedstock" xlink:title="gz sim">
<ellipse fill="#fde725" stroke="black" cx="1806.24" cy="-494" rx="43.84" ry="18"/>
<text text-anchor="middle" x="1806.24" y="-489.32" font-family="Times,serif" font-size="14.00">gz sim</text>
</a>
</g>
</g>
<!-- gz&#45;msgs&#45;&gt;gz&#45;sim -->
<g id="edge52" class="edge">
<title>gz&#45;msgs&#45;&gt;gz&#45;sim</title>
<path fill="none" stroke="black" d="M1826.56,-704.71C1887.84,-698.32 1985.96,-683.94 2008.24,-656 2061,-589.83 1926.2,-533.72 1851.69,-508.8"/>
<polygon fill="black" stroke="black" points="1853.2,-505.61 1842.61,-505.83 1851.02,-512.27 1853.2,-505.61"/>
</g>
<!-- gz&#45;launch -->
<g id="node52" class="node">
<title>gz&#45;launch</title>
<g id="a_node52"><a xlink:href="https://github.com/conda-forge/gz-launch-feedstock" xlink:title="gz launch">
<ellipse fill="#fde725" stroke="black" cx="1686.24" cy="-422" rx="59.1" ry="18"/>
<text text-anchor="middle" x="1686.24" y="-417.32" font-family="Times,serif" font-size="14.00">gz launch</text>
</a>
</g>
</g>
<!-- gz&#45;msgs&#45;&gt;gz&#45;launch -->
<g id="edge53" class="edge">
<title>gz&#45;msgs&#45;&gt;gz&#45;launch</title>
<path fill="none" stroke="black" d="M1730.53,-700.99C1699.06,-693.61 1657.77,-680.03 1628.24,-656 1599.15,-632.33 1594.39,-620.1 1584.24,-584 1568.83,-529.24 1620.12,-475.41 1655.48,-445.97"/>
<polygon fill="black" stroke="black" points="1657.32,-448.98 1662.89,-439.97 1652.92,-443.54 1657.32,-448.98"/>
</g>
<!-- gz&#45;transport&#45;&gt;gz&#45;gui -->
<g id="edge54" class="edge">
<title>gz&#45;transport&#45;&gt;gz&#45;gui</title>
<path fill="none" stroke="black" d="M1704.67,-620.41C1692.58,-611.11 1677.32,-599.38 1664.2,-589.28"/>
<polygon fill="black" stroke="black" points="1666.35,-586.52 1656.29,-583.2 1662.09,-592.07 1666.35,-586.52"/>
</g>
<!-- gz&#45;transport&#45;&gt;gz&#45;sensors -->
<g id="edge55" class="edge">
<title>gz&#45;transport&#45;&gt;gz&#45;sensors</title>
<path fill="none" stroke="black" d="M1751.52,-620.76C1766.2,-611.33 1784.91,-599.32 1800.91,-589.04"/>
<polygon fill="black" stroke="black" points="1802.67,-592.07 1809.2,-583.72 1798.89,-586.18 1802.67,-592.07"/>
</g>
<!-- gz&#45;transport&#45;&gt;gz&#45;sim -->
<g id="edge56" class="edge">
<title>gz&#45;transport&#45;&gt;gz&#45;sim</title>
<path fill="none" stroke="black" d="M1731.41,-619.87C1737.38,-601.39 1748.22,-571.46 1762.24,-548 1768.16,-538.1 1775.86,-528.13 1783.17,-519.55"/>
<polygon fill="black" stroke="black" points="1785.56,-522.13 1789.55,-512.32 1780.31,-517.5 1785.56,-522.13"/>
</g>
<!-- gz&#45;transport&#45;&gt;gz&#45;launch -->
<g id="edge57" class="edge">
<title>gz&#45;transport&#45;&gt;gz&#45;launch</title>
<path fill="none" stroke="black" d="M1723.03,-619.85C1716.17,-583.14 1700.01,-496.66 1691.57,-451.53"/>
<polygon fill="black" stroke="black" points="1695.01,-450.91 1689.74,-441.72 1688.13,-452.19 1695.01,-450.91"/>
</g>
<!-- gz&#45;fuel&#45;tools&#45;&gt;gz&#45;sim -->
<g id="edge58" class="edge">
<title>gz&#45;fuel&#45;tools&#45;&gt;gz&#45;sim</title>
<path fill="none" stroke="black" d="M1927.74,-619.82C1927.44,-600.47 1924.23,-568.99 1908.24,-548 1894.3,-529.7 1872.23,-517.13 1852.18,-508.85"/>
<polygon fill="black" stroke="black" points="1853.62,-505.65 1843.03,-505.33 1851.11,-512.19 1853.62,-505.65"/>
</g>
<!-- gz&#45;gui&#45;&gt;gz&#45;sim -->
<g id="edge59" class="edge">
<title>gz&#45;gui&#45;&gt;gz&#45;sim</title>
<path fill="none" stroke="black" d="M1664.63,-552.97C1692.48,-541.57 1734.54,-524.35 1765.59,-511.64"/>
<polygon fill="black" stroke="black" points="1766.75,-514.95 1774.68,-507.92 1764.1,-508.47 1766.75,-514.95"/>
</g>
<!-- gz&#45;gui&#45;&gt;gz&#45;launch -->
<g id="edge60" class="edge">
<title>gz&#45;gui&#45;&gt;gz&#45;launch</title>
<path fill="none" stroke="black" d="M1641.39,-547.87C1650.04,-523.78 1665.91,-479.6 1676.26,-450.77"/>
<polygon fill="black" stroke="black" points="1679.47,-452.21 1679.55,-441.61 1672.88,-449.84 1679.47,-452.21"/>
</g>
<!-- gz&#45;sensors&#45;&gt;gz&#45;sim -->
<g id="edge61" class="edge">
<title>gz&#45;sensors&#45;&gt;gz&#45;sim</title>
<path fill="none" stroke="black" d="M1828.07,-547.7C1824.94,-540.15 1821.2,-531.12 1817.7,-522.68"/>
<polygon fill="black" stroke="black" points="1820.96,-521.4 1813.9,-513.5 1814.5,-524.08 1820.96,-521.4"/>
</g>
<!-- gz&#45;sim&#45;&gt;gz&#45;launch -->
<g id="edge62" class="edge">
<title>gz&#45;sim&#45;&gt;gz&#45;launch</title>
<path fill="none" stroke="black" d="M1781.66,-478.67C1764.69,-468.77 1741.83,-455.43 1722.73,-444.29"/>
<polygon fill="black" stroke="black" points="1724.57,-441.31 1714.17,-439.29 1721.04,-447.36 1724.57,-441.31"/>
</g>
<!-- labmaze -->
<g id="node53" class="node">
<title>labmaze</title>
<g id="a_node53"><a xlink:href="https://github.com/conda-forge/labmaze-feedstock" xlink:title="labmaze">
<ellipse fill="#35b779" stroke="black" cx="587.24" cy="-1402" rx="52.79" ry="18"/>
<text text-anchor="middle" x="587.24" y="-1397.33" font-family="Times,serif" font-size="14.00">labmaze</text>
</a>
</g>
</g>
<!-- labmaze&#45;&gt;ray&#45;packages -->
<g id="edge63" class="edge">
<title>labmaze&#45;&gt;ray&#45;packages</title>
<path fill="none" stroke="black" d="M583.93,-1383.59C579.37,-1359.61 571.1,-1316.14 565.64,-1287.42"/>
<polygon fill="black" stroke="black" points="569.08,-1286.77 563.77,-1277.6 562.2,-1288.08 569.08,-1286.77"/>
</g>
<!-- openvino -->
<g id="node54" class="node">
<title>openvino</title>
<g id="a_node54"><a xlink:href="https://github.com/conda-forge/openvino-feedstock/pull/78" xlink:title="openvino ❎">
<ellipse fill="#31688e" stroke="black" cx="259.24" cy="-1402" rx="71.73" ry="18"/>
<text text-anchor="middle" x="259.24" y="-1397.33" font-family="Times,serif" font-size="14.00" fill="white">openvino ❎</text>
</a>
</g>
</g>
<!-- openvino&#45;&gt;opencv -->
<g id="edge64" class="edge">
<title>openvino&#45;&gt;opencv</title>
<path fill="none" stroke="black" d="M259.24,-1383.7C259.24,-1376.41 259.24,-1367.73 259.24,-1359.54"/>
<polygon fill="black" stroke="black" points="262.74,-1359.62 259.24,-1349.62 255.74,-1359.62 262.74,-1359.62"/>
</g>
<!-- tensorstore -->
<g id="node56" class="node">
<title>tensorstore</title>
<g id="a_node56"><a xlink:href="https://github.com/conda-forge/tensorstore-feedstock" xlink:title="tensorstore">
<ellipse fill="#35b779" stroke="black" cx="444.24" cy="-162" rx="69.1" ry="18"/>
<text text-anchor="middle" x="444.24" y="-157.32" font-family="Times,serif" font-size="14.00">tensorstore</text>
</a>
</g>
</g>
<!-- gcld3 -->
<g id="node57" class="node">
<title>gcld3</title>
<g id="a_node57"><a xlink:href="https://github.com/conda-forge/gcld3-feedstock" xlink:title="gcld3">
<ellipse fill="#35b779" stroke="black" cx="444.24" cy="-90" rx="38.58" ry="18"/>
<text text-anchor="middle" x="444.24" y="-85.33" font-family="Times,serif" font-size="14.00">gcld3</text>
</a>
</g>
</g>
<!-- tensorstore&#45;&gt;gcld3 -->
<!-- bloaty -->
<g id="node58" class="node">
<title>bloaty</title>
<g id="a_node58"><a xlink:href="https://github.com/conda-forge/bloaty-feedstock" xlink:title="bloaty">
<ellipse fill="#35b779" stroke="black" cx="444.24" cy="-18" rx="42.26" ry="18"/>
<text text-anchor="middle" x="444.24" y="-13.32" font-family="Times,serif" font-size="14.00">bloaty</text>
</a>
</g>
</g>
<!-- gcld3&#45;&gt;bloaty -->
<!-- google&#45;cloud&#45;cpp&#45;compute -->
<g id="node59" class="node">
<title>google&#45;cloud&#45;cpp&#45;compute</title>
<g id="a_node59"><a xlink:href="https://github.com/conda-forge/google-cloud-cpp-compute-feedstock" xlink:title="google cloud cpp compute">
<ellipse fill="#35b779" stroke="black" cx="1038.24" cy="-530" rx="141.7" ry="18"/>
<text text-anchor="middle" x="1038.24" y="-525.33" font-family="Times,serif" font-size="14.00">google cloud cpp compute</text>
</a>
</g>
</g>
<!-- google&#45;cloud&#45;cpp&#45;compute&#45;&gt;google&#45;cloud&#45;cpp -->
<g id="edge68" class="edge">
<title>google&#45;cloud&#45;cpp&#45;compute&#45;&gt;google&#45;cloud&#45;cpp</title>
<path fill="none" stroke="black" d="M1078.52,-512.41C1102.67,-502.47 1133.53,-489.76 1159.1,-479.23"/>
<polygon fill="black" stroke="black" points="1160.39,-482.49 1168.3,-475.44 1157.72,-476.02 1160.39,-482.49"/>
</g>
<!-- google&#45;cloud&#45;cpp&#45;bigquery -->
<g id="node60" class="node">
<title>google&#45;cloud&#45;cpp&#45;bigquery</title>
<g id="a_node60"><a xlink:href="https://github.com/conda-forge/google-cloud-cpp-bigquery-feedstock" xlink:title="google cloud cpp bigquery">
<ellipse fill="#35b779" stroke="black" cx="1208.24" cy="-602" rx="143.28" ry="18"/>
<text text-anchor="middle" x="1208.24" y="-597.33" font-family="Times,serif" font-size="14.00">google cloud cpp bigquery</text>
</a>
</g>
</g>
<!-- google&#45;cloud&#45;cpp&#45;bigquery&#45;&gt;google&#45;cloud&#45;cpp -->
<g id="edge69" class="edge">
<title>google&#45;cloud&#45;cpp&#45;bigquery&#45;&gt;google&#45;cloud&#45;cpp</title>
<path fill="none" stroke="black" d="M1208.24,-583.59C1208.24,-559.61 1208.24,-516.14 1208.24,-487.42"/>
<polygon fill="black" stroke="black" points="1211.74,-487.62 1208.24,-477.62 1204.74,-487.62 1211.74,-487.62"/>
</g>
<!-- google&#45;cloud&#45;cpp&#45;ai -->
<g id="node61" class="node">
<title>google&#45;cloud&#45;cpp&#45;ai</title>
<g id="a_node61"><a xlink:href="https://github.com/conda-forge/google-cloud-cpp-ai-feedstock" xlink:title="google cloud cpp ai">
<ellipse fill="#35b779" stroke="black" cx="1379.24" cy="-674" rx="107.5" ry="18"/>
<text text-anchor="middle" x="1379.24" y="-669.33" font-family="Times,serif" font-size="14.00">google cloud cpp ai</text>
</a>
</g>
</g>
<!-- google&#45;cloud&#45;cpp&#45;ai&#45;&gt;google&#45;cloud&#45;cpp -->
<g id="edge70" class="edge">
<title>google&#45;cloud&#45;cpp&#45;ai&#45;&gt;google&#45;cloud&#45;cpp</title>
<path fill="none" stroke="black" d="M1378.88,-655.7C1377.76,-636.81 1373.78,-606.27 1360.24,-584 1332.81,-538.91 1283.14,-502.72 1248.05,-481.11"/>
<polygon fill="black" stroke="black" points="1250.24,-478.34 1239.87,-476.19 1246.63,-484.34 1250.24,-478.34"/>
</g>
</g>
</svg>
