<?xml version="1.0" encoding="UTF-8" standalone="no"?>
<!DOCTYPE svg PUBLIC "-//W3C//DTD SVG 1.1//EN"
 "http://www.w3.org/Graphics/SVG/1.1/DTD/svg11.dtd">
<!-- Generated by graphviz version 8.1.0 (20230707.2238)
 -->
<!-- Pages: 1 -->
<svg width="1454pt" height="1284pt"
 viewBox="0.00 0.00 1453.71 1284.00" xmlns="http://www.w3.org/2000/svg" xmlns:xlink="http://www.w3.org/1999/xlink">
<g id="graph0" class="graph" transform="scale(1 1) rotate(0) translate(4 1280)">
<polygon fill="white" stroke="none" points="-4,4 -4,-1280 1449.71,-1280 1449.71,4 -4,4"/>
<!-- arrow&#45;cpp -->
<g id="node1" class="node">
<title>arrow&#45;cpp</title>
<g id="a_node1"><a xlink:href="https://github.com/conda-forge/arrow-cpp-feedstock" xlink:title="arrow cpp">
<ellipse fill="#fde725" stroke="black" cx="856.47" cy="-54" rx="61.73" ry="18"/>
<text text-anchor="middle" x="856.47" y="-49.33" font-family="Times,serif" font-size="14.00">arrow cpp</text>
</a>
</g>
</g>
<!-- bazel -->
<g id="node2" class="node">
<title>bazel</title>
<g id="a_node2"><a xlink:href="https://github.com/conda-forge/bazel-feedstock" xlink:title="bazel">
<ellipse fill="#ff8c00" stroke="black" cx="1333.47" cy="-1258" rx="37.53" ry="18"/>
<text text-anchor="middle" x="1333.47" y="-1253.33" font-family="Times,serif" font-size="14.00">bazel</text>
</a>
</g>
</g>
<!-- mosh -->
<g id="node3" class="node">
<title>mosh</title>
<g id="a_node3"><a xlink:href="https://github.com/conda-forge/mosh-feedstock" xlink:title="mosh">
<ellipse fill="#35b779" stroke="black" cx="1333.47" cy="-1186" rx="38.06" ry="18"/>
<text text-anchor="middle" x="1333.47" y="-1181.33" font-family="Times,serif" font-size="14.00">mosh</text>
</a>
</g>
</g>
<!-- bazel&#45;&gt;mosh -->
<!-- onnx -->
<g id="node4" class="node">
<title>onnx</title>
<g id="a_node4"><a xlink:href="https://github.com/conda-forge/onnx-feedstock/pull/104" xlink:title="onnx ✓">
<ellipse fill="#31688e" stroke="black" cx="1333.47" cy="-1114" rx="43.32" ry="18"/>
<text text-anchor="middle" x="1333.47" y="-1109.33" font-family="Times,serif" font-size="14.00" fill="white">onnx ✓</text>
</a>
</g>
</g>
<!-- mosh&#45;&gt;onnx -->
<!-- paraview -->
<g id="node7" class="node">
<title>paraview</title>
<g id="a_node7"><a xlink:href="https://github.com/conda-forge/paraview-feedstock" xlink:title="paraview">
<ellipse fill="#35b779" stroke="black" cx="1333.47" cy="-1042" rx="57" ry="18"/>
<text text-anchor="middle" x="1333.47" y="-1037.33" font-family="Times,serif" font-size="14.00">paraview</text>
</a>
</g>
</g>
<!-- onnx&#45;&gt;paraview -->
<!-- mysql -->
<g id="node5" class="node">
<title>mysql</title>
<g id="a_node5"><a xlink:href="https://github.com/conda-forge/mysql-feedstock/pull/89" xlink:title="mysql ✓">
<ellipse fill="#31688e" stroke="black" cx="856.47" cy="-386" rx="49.1" ry="18"/>
<text text-anchor="middle" x="856.47" y="-381.32" font-family="Times,serif" font-size="14.00" fill="white">mysql ✓</text>
</a>
</g>
</g>
<!-- mysql&#45;connector&#45;python -->
<g id="node6" class="node">
<title>mysql&#45;connector&#45;python</title>
<g id="a_node6"><a xlink:href="https://github.com/conda-forge/mysql-connector-python-feedstock" xlink:title="mysql connector python">
<ellipse fill="#fde725" stroke="black" cx="856.47" cy="-314" rx="131.7" ry="18"/>
<text text-anchor="middle" x="856.47" y="-309.32" font-family="Times,serif" font-size="14.00">mysql connector python</text>
</a>
</g>
</g>
<!-- mysql&#45;&gt;mysql&#45;connector&#45;python -->
<g id="edge3" class="edge">
<title>mysql&#45;&gt;mysql&#45;connector&#45;python</title>
<path fill="none" stroke="black" d="M856.47,-367.7C856.47,-360.24 856.47,-351.32 856.47,-342.97"/>
<polygon fill="black" stroke="black" points="859.97,-343.1 856.47,-333.1 852.97,-343.1 859.97,-343.1"/>
</g>
<!-- qgis -->
<g id="node8" class="node">
<title>qgis</title>
<g id="a_node8"><a xlink:href="https://github.com/conda-forge/qgis-feedstock" xlink:title="qgis">
<ellipse fill="#35b779" stroke="black" cx="1333.47" cy="-970" rx="32.27" ry="18"/>
<text text-anchor="middle" x="1333.47" y="-965.33" font-family="Times,serif" font-size="14.00">qgis</text>
</a>
</g>
</g>
<!-- paraview&#45;&gt;qgis -->
<!-- tensorflow -->
<g id="node9" class="node">
<title>tensorflow</title>
<g id="a_node9"><a xlink:href="https://github.com/conda-forge/tensorflow-feedstock" xlink:title="tensorflow">
<ellipse fill="#ff8c00" stroke="black" cx="1333.47" cy="-898" rx="63.84" ry="18"/>
<text text-anchor="middle" x="1333.47" y="-893.33" font-family="Times,serif" font-size="14.00">tensorflow</text>
</a>
</g>
</g>
<!-- qgis&#45;&gt;tensorflow -->
<!-- r&#45;protolite -->
<g id="node10" class="node">
<title>r&#45;protolite</title>
<g id="a_node10"><a xlink:href="https://github.com/conda-forge/r-protolite-feedstock/pull/36" xlink:title="r protolite ✓">
<ellipse fill="#31688e" stroke="black" cx="1333.47" cy="-826" rx="70.15" ry="18"/>
<text text-anchor="middle" x="1333.47" y="-821.33" font-family="Times,serif" font-size="14.00" fill="white">r protolite ✓</text>
</a>
</g>
</g>
<!-- tensorflow&#45;&gt;r&#45;protolite -->
<!-- pytorch&#45;cpu -->
<g id="node11" class="node">
<title>pytorch&#45;cpu</title>
<g id="a_node11"><a xlink:href="https://github.com/conda-forge/pytorch-cpu-feedstock/pull/197" xlink:title="pytorch cpu ❎">
<ellipse fill="#31688e" stroke="black" cx="1333.47" cy="-754" rx="85.93" ry="18"/>
<text text-anchor="middle" x="1333.47" y="-749.33" font-family="Times,serif" font-size="14.00" fill="white">pytorch cpu ❎</text>
</a>
</g>
</g>
<!-- r&#45;protolite&#45;&gt;pytorch&#45;cpu -->
<!-- jaxlib -->
<g id="node12" class="node">
<title>jaxlib</title>
<g id="a_node12"><a xlink:href="https://github.com/conda-forge/jaxlib-feedstock" xlink:title="jaxlib">
<ellipse fill="#ff8c00" stroke="black" cx="1333.47" cy="-682" rx="38.58" ry="18"/>
<text text-anchor="middle" x="1333.47" y="-677.33" font-family="Times,serif" font-size="14.00">jaxlib</text>
</a>
</g>
</g>
<!-- pytorch&#45;cpu&#45;&gt;jaxlib -->
<!-- zaber&#45;motion -->
<g id="node14" class="node">
<title>zaber&#45;motion</title>
<g id="a_node14"><a xlink:href="https://github.com/conda-forge/zaber-motion-feedstock" xlink:title="zaber motion">
<ellipse fill="#35b779" stroke="black" cx="1333.47" cy="-610" rx="76.99" ry="18"/>
<text text-anchor="middle" x="1333.47" y="-605.33" font-family="Times,serif" font-size="14.00">zaber motion</text>
</a>
</g>
</g>
<!-- jaxlib&#45;&gt;zaber&#45;motion -->
<!-- orc -->
<g id="node13" class="node">
<title>orc</title>
<g id="a_node13"><a xlink:href="https://github.com/conda-forge/orc-feedstock/pull/68" xlink:title="orc ✓">
<ellipse fill="#31688e" stroke="black" cx="856.47" cy="-126" rx="34.9" ry="18"/>
<text text-anchor="middle" x="856.47" y="-121.33" font-family="Times,serif" font-size="14.00" fill="white">orc ✓</text>
</a>
</g>
</g>
<!-- orc&#45;&gt;arrow&#45;cpp -->
<g id="edge10" class="edge">
<title>orc&#45;&gt;arrow&#45;cpp</title>
<path fill="none" stroke="black" d="M856.47,-107.7C856.47,-100.24 856.47,-91.32 856.47,-82.97"/>
<polygon fill="black" stroke="black" points="859.97,-83.1 856.47,-73.1 852.97,-83.1 859.97,-83.1"/>
</g>
<!-- go&#45;cockroach -->
<g id="node23" class="node">
<title>go&#45;cockroach</title>
<g id="a_node23"><a xlink:href="https://github.com/conda-forge/go-cockroach-feedstock" xlink:title="go cockroach">
<ellipse fill="#35b779" stroke="black" cx="1333.47" cy="-538" rx="76.46" ry="18"/>
<text text-anchor="middle" x="1333.47" y="-533.33" font-family="Times,serif" font-size="14.00">go cockroach</text>
</a>
</g>
</g>
<!-- zaber&#45;motion&#45;&gt;go&#45;cockroach -->
<!-- libignition&#45;transport4 -->
<g id="node15" class="node">
<title>libignition&#45;transport4</title>
<g id="a_node15"><a xlink:href="https://github.com/conda-forge/libignition-transport4-feedstock" xlink:title="libignition transport4">
<ellipse fill="#35b779" stroke="black" cx="911.47" cy="-1006" rx="119.08" ry="18"/>
<text text-anchor="middle" x="911.47" y="-1001.33" font-family="Times,serif" font-size="14.00">libignition transport4</text>
</a>
</g>
</g>
<!-- libignition&#45;sensors -->
<g id="node16" class="node">
<title>libignition&#45;sensors</title>
<g id="a_node16"><a xlink:href="https://github.com/conda-forge/libignition-sensors-feedstock" xlink:title="libignition sensors">
<ellipse fill="#fde725" stroke="black" cx="604.47" cy="-934" rx="103.82" ry="18"/>
<text text-anchor="middle" x="604.47" y="-929.33" font-family="Times,serif" font-size="14.00">libignition sensors</text>
</a>
</g>
</g>
<!-- libignition&#45;transport4&#45;&gt;libignition&#45;sensors -->
<g id="edge12" class="edge">
<title>libignition&#45;transport4&#45;&gt;libignition&#45;sensors</title>
<path fill="none" stroke="black" d="M847.49,-990.41C797.43,-979 727.84,-963.13 675.96,-951.3"/>
<polygon fill="black" stroke="black" points="677.03,-947.73 666.5,-948.91 675.47,-954.55 677.03,-947.73"/>
</g>
<!-- libignition&#45;gui -->
<g id="node17" class="node">
<title>libignition&#45;gui</title>
<g id="a_node17"><a xlink:href="https://github.com/conda-forge/libignition-gui-feedstock" xlink:title="libignition gui">
<ellipse fill="#fde725" stroke="black" cx="1087.47" cy="-934" rx="81.2" ry="18"/>
<text text-anchor="middle" x="1087.47" y="-929.33" font-family="Times,serif" font-size="14.00">libignition gui</text>
</a>
</g>
</g>
<!-- libignition&#45;transport4&#45;&gt;libignition&#45;gui -->
<g id="edge13" class="edge">
<title>libignition&#45;transport4&#45;&gt;libignition&#45;gui</title>
<path fill="none" stroke="black" d="M952.29,-988.76C978.14,-978.49 1011.69,-965.14 1038.9,-954.32"/>
<polygon fill="black" stroke="black" points="1039.99,-957.26 1047.99,-950.31 1037.4,-950.75 1039.99,-957.26"/>
</g>
<!-- libignition&#45;gazebo -->
<g id="node18" class="node">
<title>libignition&#45;gazebo</title>
<g id="a_node18"><a xlink:href="https://github.com/conda-forge/libignition-gazebo-feedstock" xlink:title="libignition gazebo">
<ellipse fill="#fde725" stroke="black" cx="876.47" cy="-862" rx="100.66" ry="18"/>
<text text-anchor="middle" x="876.47" y="-857.33" font-family="Times,serif" font-size="14.00">libignition gazebo</text>
</a>
</g>
</g>
<!-- libignition&#45;transport4&#45;&gt;libignition&#45;gazebo -->
<g id="edge14" class="edge">
<title>libignition&#45;transport4&#45;&gt;libignition&#45;gazebo</title>
<path fill="none" stroke="black" d="M820.71,-994.08C795.52,-986.39 770.88,-973.51 755.47,-952 746.16,-938.99 746.72,-929.39 755.47,-916 766.27,-899.48 783.49,-888.08 801.58,-880.22"/>
<polygon fill="black" stroke="black" points="802.69,-883.15 810.69,-876.21 800.1,-876.64 802.69,-883.15"/>
</g>
<!-- libignition&#45;launch -->
<g id="node19" class="node">
<title>libignition&#45;launch</title>
<g id="a_node19"><a xlink:href="https://github.com/conda-forge/libignition-launch-feedstock" xlink:title="libignition launch">
<ellipse fill="#fde725" stroke="black" cx="1087.47" cy="-790" rx="98.56" ry="18"/>
<text text-anchor="middle" x="1087.47" y="-785.33" font-family="Times,serif" font-size="14.00">libignition launch</text>
</a>
</g>
</g>
<!-- libignition&#45;transport4&#45;&gt;libignition&#45;launch -->
<g id="edge15" class="edge">
<title>libignition&#45;transport4&#45;&gt;libignition&#45;launch</title>
<path fill="none" stroke="black" d="M1017.21,-997.46C1082.27,-990.36 1157.02,-976.94 1177.47,-952 1213.45,-908.15 1156.57,-847.92 1118.1,-814.96"/>
<polygon fill="black" stroke="black" points="1120.65,-811.69 1110.73,-807.96 1116.16,-817.06 1120.65,-811.69"/>
</g>
<!-- libignition&#45;sensors&#45;&gt;libignition&#45;gazebo -->
<g id="edge16" class="edge">
<title>libignition&#45;sensors&#45;&gt;libignition&#45;gazebo</title>
<path fill="none" stroke="black" d="M660.83,-918.5C704.29,-907.31 764.49,-891.82 810.24,-880.05"/>
<polygon fill="black" stroke="black" points="810.84,-883.25 819.65,-877.37 809.1,-876.47 810.84,-883.25"/>
</g>
<!-- libignition&#45;gui&#45;&gt;libignition&#45;gazebo -->
<g id="edge17" class="edge">
<title>libignition&#45;gui&#45;&gt;libignition&#45;gazebo</title>
<path fill="none" stroke="black" d="M1043.5,-918.41C1011.54,-907.81 968,-893.36 933.38,-881.88"/>
<polygon fill="black" stroke="black" points="934.55,-878.25 923.95,-878.42 932.34,-884.89 934.55,-878.25"/>
</g>
<!-- libignition&#45;gui&#45;&gt;libignition&#45;launch -->
<g id="edge18" class="edge">
<title>libignition&#45;gui&#45;&gt;libignition&#45;launch</title>
<path fill="none" stroke="black" d="M1087.47,-915.59C1087.47,-891.5 1087.47,-847.75 1087.47,-819.03"/>
<polygon fill="black" stroke="black" points="1090.97,-819.11 1087.47,-809.11 1083.97,-819.11 1090.97,-819.11"/>
</g>
<!-- libignition&#45;gazebo&#45;&gt;libignition&#45;launch -->
<g id="edge19" class="edge">
<title>libignition&#45;gazebo&#45;&gt;libignition&#45;launch</title>
<path fill="none" stroke="black" d="M922.78,-845.64C954.66,-835.06 997.21,-820.95 1031.07,-809.71"/>
<polygon fill="black" stroke="black" points="1031.89,-812.8 1040.28,-806.33 1029.68,-806.15 1031.89,-812.8"/>
</g>
<!-- gazebo -->
<g id="node20" class="node">
<title>gazebo</title>
<g id="a_node20"><a xlink:href="https://github.com/conda-forge/gazebo-feedstock" xlink:title="gazebo">
<ellipse fill="#35b779" stroke="black" cx="1333.47" cy="-386" rx="46.47" ry="18"/>
<text text-anchor="middle" x="1333.47" y="-381.32" font-family="Times,serif" font-size="14.00">gazebo</text>
</a>
</g>
</g>
<!-- gazebo&#45;yarp&#45;plugins -->
<g id="node21" class="node">
<title>gazebo&#45;yarp&#45;plugins</title>
<g id="a_node21"><a xlink:href="https://github.com/conda-forge/gazebo-yarp-plugins-feedstock" xlink:title="gazebo yarp plugins">
<ellipse fill="#fde725" stroke="black" cx="1333.47" cy="-314" rx="112.24" ry="18"/>
<text text-anchor="middle" x="1333.47" y="-309.32" font-family="Times,serif" font-size="14.00">gazebo yarp plugins</text>
</a>
</g>
</g>
<!-- gazebo&#45;&gt;gazebo&#45;yarp&#45;plugins -->
<g id="edge20" class="edge">
<title>gazebo&#45;&gt;gazebo&#45;yarp&#45;plugins</title>
<path fill="none" stroke="black" d="M1333.47,-367.7C1333.47,-360.24 1333.47,-351.32 1333.47,-342.97"/>
<polygon fill="black" stroke="black" points="1336.97,-343.1 1333.47,-333.1 1329.97,-343.1 1336.97,-343.1"/>
</g>
<!-- libignition&#45;fuel&#45;tools -->
<g id="node22" class="node">
<title>libignition&#45;fuel&#45;tools</title>
<g id="a_node22"><a xlink:href="https://github.com/conda-forge/libignition-fuel-tools-feedstock" xlink:title="libignition fuel tools">
<ellipse fill="#35b779" stroke="black" cx="876.47" cy="-934" rx="111.71" ry="18"/>
<text text-anchor="middle" x="876.47" y="-929.33" font-family="Times,serif" font-size="14.00">libignition fuel tools</text>
</a>
</g>
</g>
<!-- libignition&#45;fuel&#45;tools&#45;&gt;libignition&#45;gazebo -->
<g id="edge21" class="edge">
<title>libignition&#45;fuel&#45;tools&#45;&gt;libignition&#45;gazebo</title>
<path fill="none" stroke="black" d="M876.47,-915.7C876.47,-908.24 876.47,-899.32 876.47,-890.97"/>
<polygon fill="black" stroke="black" points="879.97,-891.1 876.47,-881.1 872.97,-891.1 879.97,-891.1"/>
</g>
<!-- cartographer -->
<g id="node24" class="node">
<title>cartographer</title>
<g id="a_node24"><a xlink:href="https://github.com/conda-forge/cartographer-feedstock" xlink:title="cartographer">
<ellipse fill="#35b779" stroke="black" cx="246.47" cy="-1258" rx="76.99" ry="18"/>
<text text-anchor="middle" x="246.47" y="-1253.33" font-family="Times,serif" font-size="14.00">cartographer</text>
</a>
</g>
</g>
<!-- tomviz -->
<g id="node25" class="node">
<title>tomviz</title>
<g id="a_node25"><a xlink:href="https://github.com/conda-forge/tomviz-feedstock" xlink:title="tomviz">
<ellipse fill="#35b779" stroke="black" cx="246.47" cy="-1186" rx="44.9" ry="18"/>
<text text-anchor="middle" x="246.47" y="-1181.33" font-family="Times,serif" font-size="14.00">tomviz</text>
</a>
</g>
</g>
<!-- cartographer&#45;&gt;tomviz -->
<!-- protozfits -->
<g id="node26" class="node">
<title>protozfits</title>
<g id="a_node26"><a xlink:href="https://github.com/conda-forge/protozfits-feedstock" xlink:title="protozfits">
<ellipse fill="#35b779" stroke="black" cx="246.47" cy="-1114" rx="59.1" ry="18"/>
<text text-anchor="middle" x="246.47" y="-1109.33" font-family="Times,serif" font-size="14.00">protozfits</text>
</a>
</g>
</g>
<!-- tomviz&#45;&gt;protozfits -->
<!-- grpc_java_plugin -->
<g id="node27" class="node">
<title>grpc_java_plugin</title>
<g id="a_node27"><a xlink:href="https://github.com/conda-forge/grpc_java_plugin-feedstock/pull/76" xlink:title="grpc_java_plugin ✓">
<ellipse fill="#31688e" stroke="black" cx="246.47" cy="-1042" rx="103.29" ry="18"/>
<text text-anchor="middle" x="246.47" y="-1037.33" font-family="Times,serif" font-size="14.00" fill="white">grpc_java_plugin ✓</text>
</a>
</g>
</g>
<!-- protozfits&#45;&gt;grpc_java_plugin -->
<!-- imp -->
<g id="node28" class="node">
<title>imp</title>
<g id="a_node28"><a xlink:href="https://github.com/conda-forge/imp-feedstock" xlink:title="imp">
<ellipse fill="#35b779" stroke="black" cx="246.47" cy="-970" rx="30.16" ry="18"/>
<text text-anchor="middle" x="246.47" y="-965.33" font-family="Times,serif" font-size="14.00">imp</text>
</a>
</g>
</g>
<!-- grpc_java_plugin&#45;&gt;imp -->
<!-- or&#45;tools -->
<g id="node29" class="node">
<title>or&#45;tools</title>
<g id="a_node29"><a xlink:href="https://github.com/conda-forge/or-tools-feedstock" xlink:title="or tools">
<ellipse fill="#35b779" stroke="black" cx="246.47" cy="-898" rx="49.1" ry="18"/>
<text text-anchor="middle" x="246.47" y="-893.33" font-family="Times,serif" font-size="14.00">or tools</text>
</a>
</g>
</g>
<!-- imp&#45;&gt;or&#45;tools -->
<!-- bear -->
<g id="node30" class="node">
<title>bear</title>
<g id="a_node30"><a xlink:href="https://github.com/conda-forge/bear-feedstock" xlink:title="bear">
<ellipse fill="#35b779" stroke="black" cx="246.47" cy="-826" rx="33.85" ry="18"/>
<text text-anchor="middle" x="246.47" y="-821.33" font-family="Times,serif" font-size="14.00">bear</text>
</a>
</g>
</g>
<!-- or&#45;tools&#45;&gt;bear -->
<!-- cpp&#45;opentelemetry&#45;sdk -->
<g id="node31" class="node">
<title>cpp&#45;opentelemetry&#45;sdk</title>
<g id="a_node31"><a xlink:href="https://github.com/conda-forge/cpp-opentelemetry-sdk-feedstock" xlink:title="cpp opentelemetry sdk">
<ellipse fill="#35b779" stroke="black" cx="246.47" cy="-754" rx="125.92" ry="18"/>
<text text-anchor="middle" x="246.47" y="-749.33" font-family="Times,serif" font-size="14.00">cpp opentelemetry sdk</text>
</a>
</g>
</g>
<!-- bear&#45;&gt;cpp&#45;opentelemetry&#45;sdk -->
<!-- singlejar -->
<g id="node32" class="node">
<title>singlejar</title>
<g id="a_node32"><a xlink:href="https://github.com/conda-forge/singlejar-feedstock" xlink:title="singlejar">
<ellipse fill="#35b779" stroke="black" cx="246.47" cy="-682" rx="54.89" ry="18"/>
<text text-anchor="middle" x="246.47" y="-677.33" font-family="Times,serif" font-size="14.00">singlejar</text>
</a>
</g>
</g>
<!-- cpp&#45;opentelemetry&#45;sdk&#45;&gt;singlejar -->
<!-- xilinx&#45;runtime -->
<g id="node33" class="node">
<title>xilinx&#45;runtime</title>
<g id="a_node33"><a xlink:href="https://github.com/conda-forge/xilinx-runtime-feedstock" xlink:title="xilinx runtime">
<ellipse fill="#35b779" stroke="black" cx="246.47" cy="-610" rx="81.72" ry="18"/>
<text text-anchor="middle" x="246.47" y="-605.33" font-family="Times,serif" font-size="14.00">xilinx runtime</text>
</a>
</g>
</g>
<!-- singlejar&#45;&gt;xilinx&#45;runtime -->
<!-- arcticdb -->
<g id="node34" class="node">
<title>arcticdb</title>
<g id="a_node34"><a xlink:href="https://github.com/conda-forge/arcticdb-feedstock" xlink:title="arcticdb">
<ellipse fill="#35b779" stroke="black" cx="246.47" cy="-538" rx="52.26" ry="18"/>
<text text-anchor="middle" x="246.47" y="-533.33" font-family="Times,serif" font-size="14.00">arcticdb</text>
</a>
</g>
</g>
<!-- xilinx&#45;runtime&#45;&gt;arcticdb -->
<!-- gz&#45;msgs -->
<g id="node35" class="node">
<title>gz&#45;msgs</title>
<g id="a_node35"><a xlink:href="https://github.com/conda-forge/gz-msgs-feedstock/pull/20" xlink:title="gz msgs ❎">
<ellipse fill="#31688e" stroke="black" cx="207.47" cy="-494" rx="67.52" ry="18"/>
<text text-anchor="middle" x="207.47" y="-489.32" font-family="Times,serif" font-size="14.00" fill="white">gz msgs ❎</text>
</a>
</g>
</g>
<!-- gz&#45;transport -->
<g id="node36" class="node">
<title>gz&#45;transport</title>
<g id="a_node36"><a xlink:href="https://github.com/conda-forge/gz-transport-feedstock" xlink:title="gz transport">
<ellipse fill="#fde725" stroke="black" cx="157.47" cy="-422" rx="73.3" ry="18"/>
<text text-anchor="middle" x="157.47" y="-417.32" font-family="Times,serif" font-size="14.00">gz transport</text>
</a>
</g>
</g>
<!-- gz&#45;msgs&#45;&gt;gz&#45;transport -->
<g id="edge33" class="edge">
<title>gz&#45;msgs&#45;&gt;gz&#45;transport</title>
<path fill="none" stroke="black" d="M195.37,-476.05C189.47,-467.8 182.26,-457.7 175.71,-448.54"/>
<polygon fill="black" stroke="black" points="178.13,-446.89 169.47,-440.79 172.43,-450.96 178.13,-446.89"/>
</g>
<!-- gz&#45;fuel&#45;tools -->
<g id="node37" class="node">
<title>gz&#45;fuel&#45;tools</title>
<g id="a_node37"><a xlink:href="https://github.com/conda-forge/gz-fuel-tools-feedstock" xlink:title="gz fuel tools">
<ellipse fill="#fde725" stroke="black" cx="358.47" cy="-422" rx="72.25" ry="18"/>
<text text-anchor="middle" x="358.47" y="-417.32" font-family="Times,serif" font-size="14.00">gz fuel tools</text>
</a>
</g>
</g>
<!-- gz&#45;msgs&#45;&gt;gz&#45;fuel&#45;tools -->
<g id="edge34" class="edge">
<title>gz&#45;msgs&#45;&gt;gz&#45;fuel&#45;tools</title>
<path fill="none" stroke="black" d="M240.24,-477.81C262.25,-467.61 291.48,-454.06 315.38,-442.98"/>
<polygon fill="black" stroke="black" points="316.65,-445.78 324.25,-438.4 313.71,-439.43 316.65,-445.78"/>
</g>
<!-- gz&#45;gui -->
<g id="node38" class="node">
<title>gz&#45;gui</title>
<g id="a_node38"><a xlink:href="https://github.com/conda-forge/gz-gui-feedstock" xlink:title="gz gui">
<ellipse fill="#fde725" stroke="black" cx="66.47" cy="-350" rx="41.74" ry="18"/>
<text text-anchor="middle" x="66.47" y="-345.32" font-family="Times,serif" font-size="14.00">gz gui</text>
</a>
</g>
</g>
<!-- gz&#45;msgs&#45;&gt;gz&#45;gui -->
<g id="edge35" class="edge">
<title>gz&#45;msgs&#45;&gt;gz&#45;gui</title>
<path fill="none" stroke="black" d="M150.38,-484.07C123.4,-476.81 93.29,-463.68 75.47,-440 62.5,-422.75 60.96,-398.01 62.26,-378.99"/>
<polygon fill="black" stroke="black" points="65.82,-379.57 63.33,-369.28 58.86,-378.88 65.82,-379.57"/>
</g>
<!-- gz&#45;sensors -->
<g id="node39" class="node">
<title>gz&#45;sensors</title>
<g id="a_node39"><a xlink:href="https://github.com/conda-forge/gz-sensors-feedstock" xlink:title="gz sensors">
<ellipse fill="#fde725" stroke="black" cx="266.47" cy="-350" rx="64.36" ry="18"/>
<text text-anchor="middle" x="266.47" y="-345.32" font-family="Times,serif" font-size="14.00">gz sensors</text>
</a>
</g>
</g>
<!-- gz&#45;msgs&#45;&gt;gz&#45;sensors -->
<g id="edge36" class="edge">
<title>gz&#45;msgs&#45;&gt;gz&#45;sensors</title>
<path fill="none" stroke="black" d="M219.28,-475.93C225.88,-465.82 233.88,-452.57 239.47,-440 248.3,-420.18 255.3,-396.65 259.95,-378.77"/>
<polygon fill="black" stroke="black" points="263.57,-379.73 262.61,-369.18 256.78,-378.03 263.57,-379.73"/>
</g>
<!-- gz&#45;sim -->
<g id="node40" class="node">
<title>gz&#45;sim</title>
<g id="a_node40"><a xlink:href="https://github.com/conda-forge/gz-sim-feedstock" xlink:title="gz sim">
<ellipse fill="#fde725" stroke="black" cx="237.47" cy="-278" rx="43.84" ry="18"/>
<text text-anchor="middle" x="237.47" y="-273.32" font-family="Times,serif" font-size="14.00">gz sim</text>
</a>
</g>
</g>
<!-- gz&#45;msgs&#45;&gt;gz&#45;sim -->
<g id="edge37" class="edge">
<title>gz&#45;msgs&#45;&gt;gz&#45;sim</title>
<path fill="none" stroke="black" d="M270.76,-487.3C332.06,-480.31 418.71,-466.05 439.47,-440 492.34,-373.69 356.88,-317.49 282.47,-292.65"/>
<polygon fill="black" stroke="black" points="284,-289.14 273.41,-289.36 281.82,-295.79 284,-289.14"/>
</g>
<!-- gz&#45;launch -->
<g id="node41" class="node">
<title>gz&#45;launch</title>
<g id="a_node41"><a xlink:href="https://github.com/conda-forge/gz-launch-feedstock" xlink:title="gz launch">
<ellipse fill="#fde725" stroke="black" cx="117.47" cy="-206" rx="59.1" ry="18"/>
<text text-anchor="middle" x="117.47" y="-201.32" font-family="Times,serif" font-size="14.00">gz launch</text>
</a>
</g>
</g>
<!-- gz&#45;msgs&#45;&gt;gz&#45;launch -->
<g id="edge38" class="edge">
<title>gz&#45;msgs&#45;&gt;gz&#45;launch</title>
<path fill="none" stroke="black" d="M153.44,-482.95C123.28,-475.2 86.46,-461.96 59.47,-440 30.39,-416.33 25.63,-404.1 15.47,-368 0,-313 51.8,-258.96 87.16,-229.59"/>
<polygon fill="black" stroke="black" points="88.72,-232.02 94.31,-223.02 84.33,-226.58 88.72,-232.02"/>
</g>
<!-- gz&#45;transport&#45;&gt;gz&#45;gui -->
<g id="edge39" class="edge">
<title>gz&#45;transport&#45;&gt;gz&#45;gui</title>
<path fill="none" stroke="black" d="M135.91,-404.41C123.58,-394.93 107.97,-382.92 94.67,-372.69"/>
<polygon fill="black" stroke="black" points="97.39,-369.6 87.33,-366.27 93.12,-375.15 97.39,-369.6"/>
</g>
<!-- gz&#45;transport&#45;&gt;gz&#45;sensors -->
<g id="edge40" class="edge">
<title>gz&#45;transport&#45;&gt;gz&#45;sensors</title>
<path fill="none" stroke="black" d="M182.75,-404.76C197.58,-395.24 216.5,-383.09 232.6,-372.75"/>
<polygon fill="black" stroke="black" points="234.18,-375.25 240.71,-366.91 230.4,-369.36 234.18,-375.25"/>
</g>
<!-- gz&#45;transport&#45;&gt;gz&#45;sim -->
<g id="edge41" class="edge">
<title>gz&#45;transport&#45;&gt;gz&#45;sim</title>
<path fill="none" stroke="black" d="M162.65,-403.87C168.62,-385.39 179.45,-355.46 193.47,-332 199.45,-321.99 207.26,-311.92 214.64,-303.28"/>
<polygon fill="black" stroke="black" points="216.79,-305.99 220.78,-296.18 211.54,-301.36 216.79,-305.99"/>
</g>
<!-- gz&#45;transport&#45;&gt;gz&#45;launch -->
<g id="edge42" class="edge">
<title>gz&#45;transport&#45;&gt;gz&#45;launch</title>
<path fill="none" stroke="black" d="M154.27,-403.85C147.38,-366.99 131.1,-279.92 122.7,-234.96"/>
<polygon fill="black" stroke="black" points="125.97,-234.42 120.69,-225.23 119.09,-235.71 125.97,-234.42"/>
</g>
<!-- gz&#45;fuel&#45;tools&#45;&gt;gz&#45;sim -->
<g id="edge43" class="edge">
<title>gz&#45;fuel&#45;tools&#45;&gt;gz&#45;sim</title>
<path fill="none" stroke="black" d="M358.98,-403.82C358.68,-384.47 355.46,-352.99 339.47,-332 325.4,-313.53 303.06,-300.9 282.86,-292.62"/>
<polygon fill="black" stroke="black" points="284.45,-289.1 273.86,-288.79 281.94,-295.63 284.45,-289.1"/>
</g>
<!-- gz&#45;gui&#45;&gt;gz&#45;sim -->
<g id="edge44" class="edge">
<title>gz&#45;gui&#45;&gt;gz&#45;sim</title>
<path fill="none" stroke="black" d="M95.87,-336.97C123.84,-325.52 166.15,-308.2 197.24,-295.47"/>
<polygon fill="black" stroke="black" points="198.38,-298.37 206.31,-291.35 195.73,-291.9 198.38,-298.37"/>
</g>
<!-- gz&#45;gui&#45;&gt;gz&#45;launch -->
<g id="edge45" class="edge">
<title>gz&#45;gui&#45;&gt;gz&#45;launch</title>
<path fill="none" stroke="black" d="M72.63,-331.87C81.32,-307.67 97.29,-263.21 107.64,-234.39"/>
<polygon fill="black" stroke="black" points="111.21,-235.78 111.3,-225.19 104.63,-233.42 111.21,-235.78"/>
</g>
<!-- gz&#45;sensors&#45;&gt;gz&#45;sim -->
<g id="edge46" class="edge">
<title>gz&#45;sensors&#45;&gt;gz&#45;sim</title>
<path fill="none" stroke="black" d="M259.31,-331.7C256.11,-323.98 252.27,-314.71 248.71,-306.11"/>
<polygon fill="black" stroke="black" points="251.62,-305 244.56,-297.1 245.15,-307.68 251.62,-305"/>
</g>
<!-- gz&#45;sim&#45;&gt;gz&#45;launch -->
<g id="edge47" class="edge">
<title>gz&#45;sim&#45;&gt;gz&#45;launch</title>
<path fill="none" stroke="black" d="M212.9,-262.67C195.77,-252.67 172.64,-239.18 153.44,-227.98"/>
<polygon fill="black" stroke="black" points="155.5,-224.55 145.1,-222.53 151.97,-230.59 155.5,-224.55"/>
</g>
<!-- libpulsar -->
<g id="node42" class="node">
<title>libpulsar</title>
<g id="a_node42"><a xlink:href="https://github.com/conda-forge/libpulsar-feedstock" xlink:title="libpulsar">
<ellipse fill="#35b779" stroke="black" cx="246.47" cy="-162" rx="55.42" ry="18"/>
<text text-anchor="middle" x="246.47" y="-157.32" font-family="Times,serif" font-size="14.00">libpulsar</text>
</a>
</g>
</g>
<!-- gnss&#45;sdr -->
<g id="node43" class="node">
<title>gnss&#45;sdr</title>
<g id="a_node43"><a xlink:href="https://github.com/conda-forge/gnss-sdr-feedstock" xlink:title="gnss sdr">
<ellipse fill="#35b779" stroke="black" cx="246.47" cy="-90" rx="53.84" ry="18"/>
<text text-anchor="middle" x="246.47" y="-85.33" font-family="Times,serif" font-size="14.00">gnss sdr</text>
</a>
</g>
</g>
<!-- libpulsar&#45;&gt;gnss&#45;sdr -->
<!-- tensorstore -->
<g id="node44" class="node">
<title>tensorstore</title>
<g id="a_node44"><a xlink:href="https://github.com/conda-forge/tensorstore-feedstock" xlink:title="tensorstore">
<ellipse fill="#35b779" stroke="black" cx="246.47" cy="-18" rx="69.1" ry="18"/>
<text text-anchor="middle" x="246.47" y="-13.32" font-family="Times,serif" font-size="14.00">tensorstore</text>
</a>
</g>
</g>
<!-- gnss&#45;sdr&#45;&gt;tensorstore -->
</g>
</svg>
