<?xml version="1.0" encoding="UTF-8" standalone="no"?>
<!DOCTYPE svg PUBLIC "-//W3C//DTD SVG 1.1//EN"
 "http://www.w3.org/Graphics/SVG/1.1/DTD/svg11.dtd">
<!-- Generated by graphviz version 9.0.0 (20231125.0833)
 -->
<!-- Pages: 1 -->
<svg width="2221pt" height="1644pt"
 viewBox="0.00 0.00 2221.33 1644.00" xmlns="http://www.w3.org/2000/svg" xmlns:xlink="http://www.w3.org/1999/xlink">
<g id="graph0" class="graph" transform="scale(1 1) rotate(0) translate(4 1640)">
<polygon fill="white" stroke="none" points="-4,4 -4,-1640 2217.33,-1640 2217.33,4 -4,4"/>
<!-- arrow&#45;cpp -->
<g id="node1" class="node">
<title>arrow&#45;cpp</title>
<g id="a_node1"><a xlink:href="https://github.com/conda-forge/arrow-cpp-feedstock" xlink:title="arrow cpp">
<ellipse fill="#000000" stroke="black" cx="817.24" cy="-1258" rx="61.73" ry="18"/>
<text text-anchor="middle" x="817.24" y="-1253.33" font-family="Times,serif" font-size="14.00" fill="white">arrow cpp</text>
</a>
</g>
</g>
<!-- ray&#45;packages -->
<g id="node2" class="node">
<title>ray&#45;packages</title>
<g id="a_node2"><a xlink:href="https://github.com/conda-forge/ray-packages-feedstock" xlink:title="ray packages">
<ellipse fill="#fde725" stroke="black" cx="476.24" cy="-1186" rx="76.99" ry="18"/>
<text text-anchor="middle" x="476.24" y="-1181.33" font-family="Times,serif" font-size="14.00">ray packages</text>
</a>
</g>
</g>
<!-- arrow&#45;cpp&#45;&gt;ray&#45;packages -->
<g id="edge1" class="edge">
<title>arrow&#45;cpp&#45;&gt;ray&#45;packages</title>
<path fill="none" stroke="black" d="M771.37,-1245.55C763.34,-1243.63 755.06,-1241.71 747.24,-1240 679.33,-1225.12 601.4,-1210.09 546.59,-1199.86"/>
<polygon fill="black" stroke="black" points="547.56,-1196.48 537.09,-1198.09 546.28,-1203.36 547.56,-1196.48"/>
</g>
<!-- arcticdb -->
<g id="node3" class="node">
<title>arcticdb</title>
<g id="a_node3"><a xlink:href="https://github.com/conda-forge/arcticdb-feedstock" xlink:title="arcticdb">
<ellipse fill="#fde725" stroke="black" cx="817.24" cy="-1186" rx="52.26" ry="18"/>
<text text-anchor="middle" x="817.24" y="-1181.33" font-family="Times,serif" font-size="14.00">arcticdb</text>
</a>
</g>
</g>
<!-- arrow&#45;cpp&#45;&gt;arcticdb -->
<g id="edge2" class="edge">
<title>arrow&#45;cpp&#45;&gt;arcticdb</title>
<path fill="none" stroke="black" d="M817.24,-1239.7C817.24,-1232.41 817.24,-1223.73 817.24,-1215.54"/>
<polygon fill="black" stroke="black" points="820.74,-1215.62 817.24,-1205.62 813.74,-1215.62 820.74,-1215.62"/>
</g>
<!-- bazel -->
<g id="node4" class="node">
<title>bazel</title>
<g id="a_node4"><a xlink:href="https://github.com/conda-forge/bazel-feedstock/pull/231" xlink:title="bazel ❎">
<ellipse fill="#31688e" stroke="black" cx="439.24" cy="-854" rx="52.79" ry="18"/>
<text text-anchor="middle" x="439.24" y="-849.33" font-family="Times,serif" font-size="14.00" fill="white">bazel ❎</text>
</a>
</g>
</g>
<!-- mosh -->
<g id="node5" class="node">
<title>mosh</title>
<g id="a_node5"><a xlink:href="https://github.com/conda-forge/mosh-feedstock" xlink:title="mosh">
<ellipse fill="#35b779" stroke="black" cx="439.24" cy="-782" rx="38.06" ry="18"/>
<text text-anchor="middle" x="439.24" y="-777.33" font-family="Times,serif" font-size="14.00">mosh</text>
</a>
</g>
</g>
<!-- bazel&#45;&gt;mosh -->
<!-- mysql -->
<g id="node6" class="node">
<title>mysql</title>
<g id="a_node6"><a xlink:href="https://github.com/conda-forge/mysql-feedstock/pull/97" xlink:title="mysql ✓">
<ellipse fill="#31688e" stroke="black" cx="439.24" cy="-710" rx="49.1" ry="18"/>
<text text-anchor="middle" x="439.24" y="-705.33" font-family="Times,serif" font-size="14.00" fill="white">mysql ✓</text>
</a>
</g>
</g>
<!-- mosh&#45;&gt;mysql -->
<!-- onnx -->
<g id="node7" class="node">
<title>onnx</title>
<g id="a_node7"><a xlink:href="https://github.com/conda-forge/onnx-feedstock/pull/109" xlink:title="onnx ✓">
<ellipse fill="#31688e" stroke="black" cx="439.24" cy="-638" rx="43.32" ry="18"/>
<text text-anchor="middle" x="439.24" y="-633.33" font-family="Times,serif" font-size="14.00" fill="white">onnx ✓</text>
</a>
</g>
</g>
<!-- mysql&#45;&gt;onnx -->
<!-- paraview -->
<g id="node8" class="node">
<title>paraview</title>
<g id="a_node8"><a xlink:href="https://github.com/conda-forge/paraview-feedstock" xlink:title="paraview">
<ellipse fill="#35b779" stroke="black" cx="439.24" cy="-566" rx="57" ry="18"/>
<text text-anchor="middle" x="439.24" y="-561.33" font-family="Times,serif" font-size="14.00">paraview</text>
</a>
</g>
</g>
<!-- onnx&#45;&gt;paraview -->
<!-- qgis -->
<g id="node12" class="node">
<title>qgis</title>
<g id="a_node12"><a xlink:href="https://github.com/conda-forge/qgis-feedstock" xlink:title="qgis">
<ellipse fill="#35b779" stroke="black" cx="439.24" cy="-494" rx="32.27" ry="18"/>
<text text-anchor="middle" x="439.24" y="-489.32" font-family="Times,serif" font-size="14.00">qgis</text>
</a>
</g>
</g>
<!-- paraview&#45;&gt;qgis -->
<!-- opencv -->
<g id="node9" class="node">
<title>opencv</title>
<g id="a_node9"><a xlink:href="https://github.com/conda-forge/opencv-feedstock" xlink:title="opencv">
<ellipse fill="#ff8c00" stroke="black" cx="247.24" cy="-1258" rx="46.47" ry="18"/>
<text text-anchor="middle" x="247.24" y="-1253.33" font-family="Times,serif" font-size="14.00">opencv</text>
</a>
</g>
</g>
<!-- opencv&#45;&gt;ray&#45;packages -->
<g id="edge7" class="edge">
<title>opencv&#45;&gt;ray&#45;packages</title>
<path fill="none" stroke="black" d="M282.73,-1246C289.22,-1244 295.93,-1241.93 302.24,-1240 341.46,-1227.96 385.7,-1214.49 419.75,-1204.14"/>
<polygon fill="black" stroke="black" points="420.43,-1207.59 428.98,-1201.34 418.39,-1200.9 420.43,-1207.59"/>
</g>
<!-- imp -->
<g id="node10" class="node">
<title>imp</title>
<g id="a_node10"><a xlink:href="https://github.com/conda-forge/imp-feedstock" xlink:title="imp">
<ellipse fill="#fde725" stroke="black" cx="272.24" cy="-1186" rx="30.16" ry="18"/>
<text text-anchor="middle" x="272.24" y="-1181.33" font-family="Times,serif" font-size="14.00">imp</text>
</a>
</g>
</g>
<!-- opencv&#45;&gt;imp -->
<g id="edge8" class="edge">
<title>opencv&#45;&gt;imp</title>
<path fill="none" stroke="black" d="M253.42,-1239.7C256.11,-1232.15 259.34,-1223.12 262.35,-1214.68"/>
<polygon fill="black" stroke="black" points="265.55,-1216.12 265.62,-1205.53 258.96,-1213.77 265.55,-1216.12"/>
</g>
<!-- gazebo&#45;yarp&#45;plugins -->
<g id="node11" class="node">
<title>gazebo&#45;yarp&#45;plugins</title>
<g id="a_node11"><a xlink:href="https://github.com/conda-forge/gazebo-yarp-plugins-feedstock" xlink:title="gazebo yarp plugins">
<ellipse fill="#fde725" stroke="black" cx="112.24" cy="-1186" rx="112.24" ry="18"/>
<text text-anchor="middle" x="112.24" y="-1181.33" font-family="Times,serif" font-size="14.00">gazebo yarp plugins</text>
</a>
</g>
</g>
<!-- opencv&#45;&gt;gazebo&#45;yarp&#45;plugins -->
<g id="edge9" class="edge">
<title>opencv&#45;&gt;gazebo&#45;yarp&#45;plugins</title>
<path fill="none" stroke="black" d="M220.24,-1243C201.46,-1233.27 176.05,-1220.09 154.59,-1208.96"/>
<polygon fill="black" stroke="black" points="156.25,-1205.88 145.76,-1204.38 153.03,-1212.09 156.25,-1205.88"/>
</g>
<!-- r&#45;protolite -->
<g id="node13" class="node">
<title>r&#45;protolite</title>
<g id="a_node13"><a xlink:href="https://github.com/conda-forge/r-protolite-feedstock/pull/39" xlink:title="r protolite ✓">
<ellipse fill="#31688e" stroke="black" cx="439.24" cy="-422" rx="70.15" ry="18"/>
<text text-anchor="middle" x="439.24" y="-417.32" font-family="Times,serif" font-size="14.00" fill="white">r protolite ✓</text>
</a>
</g>
</g>
<!-- qgis&#45;&gt;r&#45;protolite -->
<!-- mongodb -->
<g id="node16" class="node">
<title>mongodb</title>
<g id="a_node16"><a xlink:href="https://github.com/conda-forge/mongodb-feedstock/pull/87" xlink:title="mongodb ❎">
<ellipse fill="#31688e" stroke="black" cx="439.24" cy="-350" rx="72.78" ry="18"/>
<text text-anchor="middle" x="439.24" y="-345.32" font-family="Times,serif" font-size="14.00" fill="white">mongodb ❎</text>
</a>
</g>
</g>
<!-- r&#45;protolite&#45;&gt;mongodb -->
<!-- pyaudi -->
<g id="node14" class="node">
<title>pyaudi</title>
<g id="a_node14"><a xlink:href="https://github.com/conda-forge/pyaudi-feedstock" xlink:title="pyaudi">
<ellipse fill="#fde725" stroke="black" cx="1182.24" cy="-18" rx="44.9" ry="18"/>
<text text-anchor="middle" x="1182.24" y="-13.32" font-family="Times,serif" font-size="14.00">pyaudi</text>
</a>
</g>
</g>
<!-- tensorflow -->
<g id="node15" class="node">
<title>tensorflow</title>
<g id="a_node15"><a xlink:href="https://github.com/conda-forge/tensorflow-feedstock" xlink:title="tensorflow">
<ellipse fill="#fde725" stroke="black" cx="679.24" cy="-1186" rx="63.84" ry="18"/>
<text text-anchor="middle" x="679.24" y="-1181.33" font-family="Times,serif" font-size="14.00">tensorflow</text>
</a>
</g>
</g>
<!-- zaber&#45;motion -->
<g id="node18" class="node">
<title>zaber&#45;motion</title>
<g id="a_node18"><a xlink:href="https://github.com/conda-forge/zaber-motion-feedstock" xlink:title="zaber motion">
<ellipse fill="#35b779" stroke="black" cx="439.24" cy="-278" rx="76.99" ry="18"/>
<text text-anchor="middle" x="439.24" y="-273.32" font-family="Times,serif" font-size="14.00">zaber motion</text>
</a>
</g>
</g>
<!-- mongodb&#45;&gt;zaber&#45;motion -->
<!-- pytorch&#45;cpu -->
<g id="node17" class="node">
<title>pytorch&#45;cpu</title>
<g id="a_node17"><a xlink:href="https://github.com/conda-forge/pytorch-cpu-feedstock" xlink:title="pytorch cpu">
<ellipse fill="#000000" stroke="black" cx="532.24" cy="-1258" rx="70.68" ry="18"/>
<text text-anchor="middle" x="532.24" y="-1253.33" font-family="Times,serif" font-size="14.00" fill="white">pytorch cpu</text>
</a>
</g>
</g>
<!-- pytorch&#45;cpu&#45;&gt;ray&#45;packages -->
<g id="edge13" class="edge">
<title>pytorch&#45;cpu&#45;&gt;ray&#45;packages</title>
<path fill="none" stroke="black" d="M518.68,-1240.05C512.08,-1231.8 504,-1221.7 496.67,-1212.54"/>
<polygon fill="black" stroke="black" points="499.59,-1210.59 490.61,-1204.97 494.13,-1214.97 499.59,-1210.59"/>
</g>
<!-- go&#45;cockroach -->
<g id="node29" class="node">
<title>go&#45;cockroach</title>
<g id="a_node29"><a xlink:href="https://github.com/conda-forge/go-cockroach-feedstock" xlink:title="go cockroach">
<ellipse fill="#35b779" stroke="black" cx="439.24" cy="-206" rx="76.46" ry="18"/>
<text text-anchor="middle" x="439.24" y="-201.33" font-family="Times,serif" font-size="14.00">go cockroach</text>
</a>
</g>
</g>
<!-- zaber&#45;motion&#45;&gt;go&#45;cockroach -->
<!-- jaxlib -->
<g id="node19" class="node">
<title>jaxlib</title>
<g id="a_node19"><a xlink:href="https://github.com/conda-forge/jaxlib-feedstock" xlink:title="jaxlib">
<ellipse fill="#000000" stroke="black" cx="308.24" cy="-1330" rx="38.58" ry="18"/>
<text text-anchor="middle" x="308.24" y="-1325.33" font-family="Times,serif" font-size="14.00" fill="white">jaxlib</text>
</a>
</g>
</g>
<!-- mujoco -->
<g id="node20" class="node">
<title>mujoco</title>
<g id="a_node20"><a xlink:href="https://github.com/conda-forge/mujoco-feedstock" xlink:title="mujoco">
<ellipse fill="#fde725" stroke="black" cx="358.24" cy="-1258" rx="47" ry="18"/>
<text text-anchor="middle" x="358.24" y="-1253.33" font-family="Times,serif" font-size="14.00">mujoco</text>
</a>
</g>
</g>
<!-- jaxlib&#45;&gt;mujoco -->
<g id="edge15" class="edge">
<title>jaxlib&#45;&gt;mujoco</title>
<path fill="none" stroke="black" d="M320.09,-1312.41C326,-1304.13 333.29,-1293.92 339.91,-1284.66"/>
<polygon fill="black" stroke="black" points="342.63,-1286.87 345.59,-1276.7 336.93,-1282.8 342.63,-1286.87"/>
</g>
<!-- mujoco&#45;&gt;ray&#45;packages -->
<g id="edge16" class="edge">
<title>mujoco&#45;&gt;ray&#45;packages</title>
<path fill="none" stroke="black" d="M382.97,-1242.33C399.28,-1232.65 420.93,-1219.81 439.27,-1208.93"/>
<polygon fill="black" stroke="black" points="440.95,-1212 447.76,-1203.89 437.37,-1205.98 440.95,-1212"/>
</g>
<!-- obake -->
<g id="node21" class="node">
<title>obake</title>
<g id="a_node21"><a xlink:href="https://github.com/conda-forge/obake-feedstock/pull/45" xlink:title="obake ✓">
<ellipse fill="#31688e" stroke="black" cx="1182.24" cy="-90" rx="48.58" ry="18"/>
<text text-anchor="middle" x="1182.24" y="-85.33" font-family="Times,serif" font-size="14.00" fill="white">obake ✓</text>
</a>
</g>
</g>
<!-- obake&#45;&gt;pyaudi -->
<g id="edge17" class="edge">
<title>obake&#45;&gt;pyaudi</title>
<path fill="none" stroke="black" d="M1182.24,-71.7C1182.24,-64.41 1182.24,-55.73 1182.24,-47.54"/>
<polygon fill="black" stroke="black" points="1185.74,-47.62 1182.24,-37.62 1178.74,-47.62 1185.74,-47.62"/>
</g>
<!-- libignition&#45;transport4 -->
<g id="node22" class="node">
<title>libignition&#45;transport4</title>
<g id="a_node22"><a xlink:href="https://github.com/conda-forge/libignition-transport4-feedstock/pull/98" xlink:title="libignition transport4 ✓">
<ellipse fill="#31688e" stroke="black" cx="1903.24" cy="-1366" rx="126.97" ry="18"/>
<text text-anchor="middle" x="1903.24" y="-1361.33" font-family="Times,serif" font-size="14.00" fill="white">libignition transport4 ✓</text>
</a>
</g>
</g>
<!-- libignition&#45;sensors -->
<g id="node23" class="node">
<title>libignition&#45;sensors</title>
<g id="a_node23"><a xlink:href="https://github.com/conda-forge/libignition-sensors-feedstock" xlink:title="libignition sensors">
<ellipse fill="#fde725" stroke="black" cx="1588.24" cy="-1294" rx="103.82" ry="18"/>
<text text-anchor="middle" x="1588.24" y="-1289.33" font-family="Times,serif" font-size="14.00">libignition sensors</text>
</a>
</g>
</g>
<!-- libignition&#45;transport4&#45;&gt;libignition&#45;sensors -->
<g id="edge18" class="edge">
<title>libignition&#45;transport4&#45;&gt;libignition&#45;sensors</title>
<path fill="none" stroke="black" d="M1836.82,-1350.24C1785.42,-1338.82 1714.31,-1323.02 1661.3,-1311.24"/>
<polygon fill="black" stroke="black" points="1662.28,-1307.87 1651.76,-1309.12 1660.76,-1314.7 1662.28,-1307.87"/>
</g>
<!-- libignition&#45;gui -->
<g id="node24" class="node">
<title>libignition&#45;gui</title>
<g id="a_node24"><a xlink:href="https://github.com/conda-forge/libignition-gui-feedstock" xlink:title="libignition gui">
<ellipse fill="#fde725" stroke="black" cx="2087.24" cy="-1294" rx="81.2" ry="18"/>
<text text-anchor="middle" x="2087.24" y="-1289.33" font-family="Times,serif" font-size="14.00">libignition gui</text>
</a>
</g>
</g>
<!-- libignition&#45;transport4&#45;&gt;libignition&#45;gui -->
<g id="edge19" class="edge">
<title>libignition&#45;transport4&#45;&gt;libignition&#45;gui</title>
<path fill="none" stroke="black" d="M1945.91,-1348.76C1973.12,-1338.41 2008.49,-1324.96 2037.05,-1314.09"/>
<polygon fill="black" stroke="black" points="2038.11,-1317.44 2046.21,-1310.61 2035.62,-1310.89 2038.11,-1317.44"/>
</g>
<!-- libignition&#45;gazebo -->
<g id="node25" class="node">
<title>libignition&#45;gazebo</title>
<g id="a_node25"><a xlink:href="https://github.com/conda-forge/libignition-gazebo-feedstock" xlink:title="libignition gazebo">
<ellipse fill="#fde725" stroke="black" cx="1868.24" cy="-1222" rx="100.66" ry="18"/>
<text text-anchor="middle" x="1868.24" y="-1217.33" font-family="Times,serif" font-size="14.00">libignition gazebo</text>
</a>
</g>
</g>
<!-- libignition&#45;transport4&#45;&gt;libignition&#45;gazebo -->
<g id="edge20" class="edge">
<title>libignition&#45;transport4&#45;&gt;libignition&#45;gazebo</title>
<path fill="none" stroke="black" d="M1804.93,-1354.25C1779.5,-1346.5 1754.91,-1333.53 1739.24,-1312 1729.82,-1299.06 1730.33,-1289.29 1739.24,-1276 1750.73,-1258.86 1768.86,-1247.26 1787.94,-1239.41"/>
<polygon fill="black" stroke="black" points="1789.05,-1242.73 1797.19,-1235.95 1786.6,-1236.17 1789.05,-1242.73"/>
</g>
<!-- libignition&#45;launch -->
<g id="node26" class="node">
<title>libignition&#45;launch</title>
<g id="a_node26"><a xlink:href="https://github.com/conda-forge/libignition-launch-feedstock" xlink:title="libignition launch">
<ellipse fill="#fde725" stroke="black" cx="2087.24" cy="-1150" rx="98.56" ry="18"/>
<text text-anchor="middle" x="2087.24" y="-1145.33" font-family="Times,serif" font-size="14.00">libignition launch</text>
</a>
</g>
</g>
<!-- libignition&#45;transport4&#45;&gt;libignition&#45;launch -->
<g id="edge21" class="edge">
<title>libignition&#45;transport4&#45;&gt;libignition&#45;launch</title>
<path fill="none" stroke="black" d="M2016.17,-1357.46C2082.2,-1350.44 2156.54,-1337.09 2177.24,-1312 2213.33,-1268.26 2156.41,-1207.98 2117.9,-1174.98"/>
<polygon fill="black" stroke="black" points="2120.6,-1172.68 2110.68,-1168.96 2116.11,-1178.05 2120.6,-1172.68"/>
</g>
<!-- libignition&#45;sensors&#45;&gt;libignition&#45;gazebo -->
<g id="edge22" class="edge">
<title>libignition&#45;sensors&#45;&gt;libignition&#45;gazebo</title>
<path fill="none" stroke="black" d="M1645.58,-1278.67C1690.46,-1267.45 1752.99,-1251.81 1800.37,-1239.97"/>
<polygon fill="black" stroke="black" points="1801.13,-1243.38 1809.99,-1237.56 1799.44,-1236.59 1801.13,-1243.38"/>
</g>
<!-- libignition&#45;gui&#45;&gt;libignition&#45;gazebo -->
<g id="edge23" class="edge">
<title>libignition&#45;gui&#45;&gt;libignition&#45;gazebo</title>
<path fill="none" stroke="black" d="M2042.13,-1278.58C2008.76,-1267.92 1963.04,-1253.3 1926.84,-1241.73"/>
<polygon fill="black" stroke="black" points="1927.98,-1238.42 1917.39,-1238.71 1925.84,-1245.09 1927.98,-1238.42"/>
</g>
<!-- libignition&#45;gui&#45;&gt;libignition&#45;launch -->
<g id="edge24" class="edge">
<title>libignition&#45;gui&#45;&gt;libignition&#45;launch</title>
<path fill="none" stroke="black" d="M2087.24,-1275.59C2087.24,-1251.61 2087.24,-1208.14 2087.24,-1179.42"/>
<polygon fill="black" stroke="black" points="2090.74,-1179.62 2087.24,-1169.62 2083.74,-1179.62 2090.74,-1179.62"/>
</g>
<!-- libignition&#45;gazebo&#45;&gt;libignition&#45;launch -->
<g id="edge25" class="edge">
<title>libignition&#45;gazebo&#45;&gt;libignition&#45;launch</title>
<path fill="none" stroke="black" d="M1916.03,-1205.72C1949.33,-1195.08 1993.94,-1180.82 2029.28,-1169.52"/>
<polygon fill="black" stroke="black" points="2030.02,-1172.96 2038.48,-1166.58 2027.89,-1166.29 2030.02,-1172.96"/>
</g>
<!-- gazebo -->
<g id="node27" class="node">
<title>gazebo</title>
<g id="a_node27"><a xlink:href="https://github.com/conda-forge/gazebo-feedstock" xlink:title="gazebo">
<ellipse fill="#35b779" stroke="black" cx="112.24" cy="-1258" rx="46.47" ry="18"/>
<text text-anchor="middle" x="112.24" y="-1253.33" font-family="Times,serif" font-size="14.00">gazebo</text>
</a>
</g>
</g>
<!-- gazebo&#45;&gt;gazebo&#45;yarp&#45;plugins -->
<g id="edge26" class="edge">
<title>gazebo&#45;&gt;gazebo&#45;yarp&#45;plugins</title>
<path fill="none" stroke="black" d="M112.24,-1239.7C112.24,-1232.41 112.24,-1223.73 112.24,-1215.54"/>
<polygon fill="black" stroke="black" points="115.74,-1215.62 112.24,-1205.62 108.74,-1215.62 115.74,-1215.62"/>
</g>
<!-- libignition&#45;fuel&#45;tools -->
<g id="node28" class="node">
<title>libignition&#45;fuel&#45;tools</title>
<g id="a_node28"><a xlink:href="https://github.com/conda-forge/libignition-fuel-tools-feedstock/pull/89" xlink:title="libignition fuel tools ✓">
<ellipse fill="#31688e" stroke="black" cx="1868.24" cy="-1294" rx="119.6" ry="18"/>
<text text-anchor="middle" x="1868.24" y="-1289.33" font-family="Times,serif" font-size="14.00" fill="white">libignition fuel tools ✓</text>
</a>
</g>
</g>
<!-- libignition&#45;fuel&#45;tools&#45;&gt;libignition&#45;gazebo -->
<g id="edge27" class="edge">
<title>libignition&#45;fuel&#45;tools&#45;&gt;libignition&#45;gazebo</title>
<path fill="none" stroke="black" d="M1868.24,-1275.7C1868.24,-1268.41 1868.24,-1259.73 1868.24,-1251.54"/>
<polygon fill="black" stroke="black" points="1871.74,-1251.62 1868.24,-1241.62 1864.74,-1251.62 1871.74,-1251.62"/>
</g>
<!-- cartographer -->
<g id="node31" class="node">
<title>cartographer</title>
<g id="a_node31"><a xlink:href="https://github.com/conda-forge/cartographer-feedstock" xlink:title="cartographer">
<ellipse fill="#35b779" stroke="black" cx="439.24" cy="-134" rx="76.99" ry="18"/>
<text text-anchor="middle" x="439.24" y="-129.32" font-family="Times,serif" font-size="14.00">cartographer</text>
</a>
</g>
</g>
<!-- go&#45;cockroach&#45;&gt;cartographer -->
<!-- google&#45;cloud&#45;cpp -->
<g id="node30" class="node">
<title>google&#45;cloud&#45;cpp</title>
<g id="a_node30"><a xlink:href="https://github.com/conda-forge/google-cloud-cpp-feedstock" xlink:title="google cloud cpp">
<ellipse fill="#fde725" stroke="black" cx="1198.24" cy="-386" rx="95.4" ry="18"/>
<text text-anchor="middle" x="1198.24" y="-381.32" font-family="Times,serif" font-size="14.00">google cloud cpp</text>
</a>
</g>
</g>
<!-- s2geometry -->
<g id="node32" class="node">
<title>s2geometry</title>
<g id="a_node32"><a xlink:href="https://github.com/conda-forge/s2geometry-feedstock/pull/18" xlink:title="s2geometry ✓">
<ellipse fill="#31688e" stroke="black" cx="439.24" cy="-90" rx="78.57" ry="18"/>
<text text-anchor="middle" x="439.24" y="-85.33" font-family="Times,serif" font-size="14.00" fill="white">s2geometry ✓</text>
</a>
</g>
</g>
<!-- s2geography -->
<g id="node33" class="node">
<title>s2geography</title>
<g id="a_node33"><a xlink:href="https://github.com/conda-forge/s2geography-feedstock" xlink:title="s2geography">
<ellipse fill="#fde725" stroke="black" cx="439.24" cy="-18" rx="75.94" ry="18"/>
<text text-anchor="middle" x="439.24" y="-13.32" font-family="Times,serif" font-size="14.00">s2geography</text>
</a>
</g>
</g>
<!-- s2geometry&#45;&gt;s2geography -->
<g id="edge30" class="edge">
<title>s2geometry&#45;&gt;s2geography</title>
<path fill="none" stroke="black" d="M439.24,-71.7C439.24,-64.41 439.24,-55.73 439.24,-47.54"/>
<polygon fill="black" stroke="black" points="442.74,-47.62 439.24,-37.62 435.74,-47.62 442.74,-47.62"/>
</g>
<!-- dm&#45;tree -->
<g id="node34" class="node">
<title>dm&#45;tree</title>
<g id="a_node34"><a xlink:href="https://github.com/conda-forge/dm-tree-feedstock/pull/39" xlink:title="dm tree ✓">
<ellipse fill="#31688e" stroke="black" cx="679.24" cy="-1258" rx="58.57" ry="18"/>
<text text-anchor="middle" x="679.24" y="-1253.33" font-family="Times,serif" font-size="14.00" fill="white">dm tree ✓</text>
</a>
</g>
</g>
<!-- dm&#45;tree&#45;&gt;ray&#45;packages -->
<g id="edge31" class="edge">
<title>dm&#45;tree&#45;&gt;ray&#45;packages</title>
<path fill="none" stroke="black" d="M641.53,-1244C609.84,-1233.07 564.19,-1217.33 528.89,-1205.16"/>
<polygon fill="black" stroke="black" points="530.32,-1201.95 519.73,-1202 528.04,-1208.57 530.32,-1201.95"/>
</g>
<!-- dm&#45;tree&#45;&gt;tensorflow -->
<g id="edge32" class="edge">
<title>dm&#45;tree&#45;&gt;tensorflow</title>
<path fill="none" stroke="black" d="M679.24,-1239.7C679.24,-1232.41 679.24,-1223.73 679.24,-1215.54"/>
<polygon fill="black" stroke="black" points="682.74,-1215.62 679.24,-1205.62 675.74,-1215.62 682.74,-1215.62"/>
</g>
<!-- tomviz -->
<g id="node35" class="node">
<title>tomviz</title>
<g id="a_node35"><a xlink:href="https://github.com/conda-forge/tomviz-feedstock" xlink:title="tomviz">
<ellipse fill="#35b779" stroke="black" cx="1182.24" cy="-1618" rx="44.9" ry="18"/>
<text text-anchor="middle" x="1182.24" y="-1613.33" font-family="Times,serif" font-size="14.00">tomviz</text>
</a>
</g>
</g>
<!-- protozfits -->
<g id="node36" class="node">
<title>protozfits</title>
<g id="a_node36"><a xlink:href="https://github.com/conda-forge/protozfits-feedstock/pull/34" xlink:title="protozfits ✓">
<ellipse fill="#31688e" stroke="black" cx="1182.24" cy="-1546" rx="66.99" ry="18"/>
<text text-anchor="middle" x="1182.24" y="-1541.33" font-family="Times,serif" font-size="14.00" fill="white">protozfits ✓</text>
</a>
</g>
</g>
<!-- tomviz&#45;&gt;protozfits -->
<!-- or&#45;tools -->
<g id="node37" class="node">
<title>or&#45;tools</title>
<g id="a_node37"><a xlink:href="https://github.com/conda-forge/or-tools-feedstock/pull/56" xlink:title="or tools ❎">
<ellipse fill="#31688e" stroke="black" cx="1182.24" cy="-1474" rx="64.36" ry="18"/>
<text text-anchor="middle" x="1182.24" y="-1469.33" font-family="Times,serif" font-size="14.00" fill="white">or tools ❎</text>
</a>
</g>
</g>
<!-- protozfits&#45;&gt;or&#45;tools -->
<!-- bear -->
<g id="node38" class="node">
<title>bear</title>
<g id="a_node38"><a xlink:href="https://github.com/conda-forge/bear-feedstock" xlink:title="bear">
<ellipse fill="#35b779" stroke="black" cx="1182.24" cy="-1402" rx="33.85" ry="18"/>
<text text-anchor="middle" x="1182.24" y="-1397.33" font-family="Times,serif" font-size="14.00">bear</text>
</a>
</g>
</g>
<!-- or&#45;tools&#45;&gt;bear -->
<!-- cpp&#45;opentelemetry&#45;sdk -->
<g id="node39" class="node">
<title>cpp&#45;opentelemetry&#45;sdk</title>
<g id="a_node39"><a xlink:href="https://github.com/conda-forge/cpp-opentelemetry-sdk-feedstock" xlink:title="cpp opentelemetry sdk">
<ellipse fill="#35b779" stroke="black" cx="1182.24" cy="-1330" rx="125.92" ry="18"/>
<text text-anchor="middle" x="1182.24" y="-1325.33" font-family="Times,serif" font-size="14.00">cpp opentelemetry sdk</text>
</a>
</g>
</g>
<!-- bear&#45;&gt;cpp&#45;opentelemetry&#45;sdk -->
<!-- singlejar -->
<g id="node40" class="node">
<title>singlejar</title>
<g id="a_node40"><a xlink:href="https://github.com/conda-forge/singlejar-feedstock" xlink:title="singlejar">
<ellipse fill="#35b779" stroke="black" cx="1182.24" cy="-1258" rx="54.89" ry="18"/>
<text text-anchor="middle" x="1182.24" y="-1253.33" font-family="Times,serif" font-size="14.00">singlejar</text>
</a>
</g>
</g>
<!-- cpp&#45;opentelemetry&#45;sdk&#45;&gt;singlejar -->
<!-- xilinx&#45;runtime -->
<g id="node41" class="node">
<title>xilinx&#45;runtime</title>
<g id="a_node41"><a xlink:href="https://github.com/conda-forge/xilinx-runtime-feedstock" xlink:title="xilinx runtime">
<ellipse fill="#35b779" stroke="black" cx="1182.24" cy="-1186" rx="81.72" ry="18"/>
<text text-anchor="middle" x="1182.24" y="-1181.33" font-family="Times,serif" font-size="14.00">xilinx runtime</text>
</a>
</g>
</g>
<!-- singlejar&#45;&gt;xilinx&#45;runtime -->
<!-- libpulsar -->
<g id="node42" class="node">
<title>libpulsar</title>
<g id="a_node42"><a xlink:href="https://github.com/conda-forge/libpulsar-feedstock/pull/15" xlink:title="libpulsar ✓">
<ellipse fill="#31688e" stroke="black" cx="1182.24" cy="-1114" rx="63.31" ry="18"/>
<text text-anchor="middle" x="1182.24" y="-1109.33" font-family="Times,serif" font-size="14.00" fill="white">libpulsar ✓</text>
</a>
</g>
</g>
<!-- xilinx&#45;runtime&#45;&gt;libpulsar -->
<!-- gnss&#45;sdr -->
<g id="node50" class="node">
<title>gnss&#45;sdr</title>
<g id="a_node50"><a xlink:href="https://github.com/conda-forge/gnss-sdr-feedstock" xlink:title="gnss sdr">
<ellipse fill="#35b779" stroke="black" cx="1182.24" cy="-1042" rx="53.84" ry="18"/>
<text text-anchor="middle" x="1182.24" y="-1037.33" font-family="Times,serif" font-size="14.00">gnss sdr</text>
</a>
</g>
</g>
<!-- libpulsar&#45;&gt;gnss&#45;sdr -->
<!-- gz&#45;transport -->
<g id="node43" class="node">
<title>gz&#45;transport</title>
<g id="a_node43"><a xlink:href="https://github.com/conda-forge/gz-transport-feedstock" xlink:title="gz transport">
<ellipse fill="#35b779" stroke="black" cx="1887.24" cy="-602" rx="73.3" ry="18"/>
<text text-anchor="middle" x="1887.24" y="-597.33" font-family="Times,serif" font-size="14.00">gz transport</text>
</a>
</g>
</g>
<!-- gz&#45;gui -->
<g id="node44" class="node">
<title>gz&#45;gui</title>
<g id="a_node44"><a xlink:href="https://github.com/conda-forge/gz-gui-feedstock" xlink:title="gz gui">
<ellipse fill="#fde725" stroke="black" cx="2003.24" cy="-530" rx="41.74" ry="18"/>
<text text-anchor="middle" x="2003.24" y="-525.33" font-family="Times,serif" font-size="14.00">gz gui</text>
</a>
</g>
</g>
<!-- gz&#45;transport&#45;&gt;gz&#45;gui -->
<g id="edge40" class="edge">
<title>gz&#45;transport&#45;&gt;gz&#45;gui</title>
<path fill="none" stroke="black" d="M1913.85,-584.94C1930.67,-574.79 1952.53,-561.6 1970.42,-550.81"/>
<polygon fill="black" stroke="black" points="1971.84,-554.03 1978.59,-545.87 1968.22,-548.04 1971.84,-554.03"/>
</g>
<!-- gz&#45;sensors -->
<g id="node45" class="node">
<title>gz&#45;sensors</title>
<g id="a_node45"><a xlink:href="https://github.com/conda-forge/gz-sensors-feedstock" xlink:title="gz sensors">
<ellipse fill="#fde725" stroke="black" cx="1679.24" cy="-530" rx="64.36" ry="18"/>
<text text-anchor="middle" x="1679.24" y="-525.33" font-family="Times,serif" font-size="14.00">gz sensors</text>
</a>
</g>
</g>
<!-- gz&#45;transport&#45;&gt;gz&#45;sensors -->
<g id="edge41" class="edge">
<title>gz&#45;transport&#45;&gt;gz&#45;sensors</title>
<path fill="none" stroke="black" d="M1845.15,-586.83C1811.8,-575.61 1765.09,-559.89 1729.73,-547.99"/>
<polygon fill="black" stroke="black" points="1731.18,-544.79 1720.58,-544.91 1728.95,-551.42 1731.18,-544.79"/>
</g>
<!-- gz&#45;sim -->
<g id="node46" class="node">
<title>gz&#45;sim</title>
<g id="a_node46"><a xlink:href="https://github.com/conda-forge/gz-sim-feedstock" xlink:title="gz sim">
<ellipse fill="#fde725" stroke="black" cx="1871.24" cy="-458" rx="43.84" ry="18"/>
<text text-anchor="middle" x="1871.24" y="-453.32" font-family="Times,serif" font-size="14.00">gz sim</text>
</a>
</g>
</g>
<!-- gz&#45;transport&#45;&gt;gz&#45;sim -->
<g id="edge42" class="edge">
<title>gz&#45;transport&#45;&gt;gz&#45;sim</title>
<path fill="none" stroke="black" d="M1841.37,-587.64C1822.03,-579.49 1801.45,-566.9 1790.24,-548 1782.07,-534.24 1782.63,-526.07 1790.24,-512 1798.83,-496.11 1814.48,-484.23 1829.75,-475.78"/>
<polygon fill="black" stroke="black" points="1830.99,-479.07 1838.3,-471.41 1827.81,-472.84 1830.99,-479.07"/>
</g>
<!-- gz&#45;launch -->
<g id="node47" class="node">
<title>gz&#45;launch</title>
<g id="a_node47"><a xlink:href="https://github.com/conda-forge/gz-launch-feedstock" xlink:title="gz launch">
<ellipse fill="#fde725" stroke="black" cx="2003.24" cy="-386" rx="59.1" ry="18"/>
<text text-anchor="middle" x="2003.24" y="-381.32" font-family="Times,serif" font-size="14.00">gz launch</text>
</a>
</g>
</g>
<!-- gz&#45;transport&#45;&gt;gz&#45;launch -->
<g id="edge43" class="edge">
<title>gz&#45;transport&#45;&gt;gz&#45;launch</title>
<path fill="none" stroke="black" d="M1958.16,-597.33C1993.05,-591.5 2032.23,-578.07 2054.24,-548 2084.63,-506.47 2049.38,-446.22 2024.21,-412.43"/>
<polygon fill="black" stroke="black" points="2027.24,-410.63 2018.36,-404.84 2021.69,-414.9 2027.24,-410.63"/>
</g>
<!-- gz&#45;gui&#45;&gt;gz&#45;sim -->
<g id="edge44" class="edge">
<title>gz&#45;gui&#45;&gt;gz&#45;sim</title>
<path fill="none" stroke="black" d="M1977.79,-515.5C1957.74,-504.87 1929.54,-489.92 1907.18,-478.06"/>
<polygon fill="black" stroke="black" points="1908.87,-475 1898.4,-473.4 1905.59,-481.18 1908.87,-475"/>
</g>
<!-- gz&#45;gui&#45;&gt;gz&#45;launch -->
<g id="edge45" class="edge">
<title>gz&#45;gui&#45;&gt;gz&#45;launch</title>
<path fill="none" stroke="black" d="M2003.24,-511.59C2003.24,-487.61 2003.24,-444.14 2003.24,-415.42"/>
<polygon fill="black" stroke="black" points="2006.74,-415.62 2003.24,-405.62 1999.74,-415.62 2006.74,-415.62"/>
</g>
<!-- gz&#45;sensors&#45;&gt;gz&#45;sim -->
<g id="edge46" class="edge">
<title>gz&#45;sensors&#45;&gt;gz&#45;sim</title>
<path fill="none" stroke="black" d="M1717.17,-515.17C1749.18,-503.5 1794.98,-486.8 1828.33,-474.64"/>
<polygon fill="black" stroke="black" points="1829.5,-477.94 1837.7,-471.23 1827.1,-471.37 1829.5,-477.94"/>
</g>
<!-- gz&#45;sim&#45;&gt;gz&#45;launch -->
<g id="edge47" class="edge">
<title>gz&#45;sim&#45;&gt;gz&#45;launch</title>
<path fill="none" stroke="black" d="M1897.32,-443.17C1916.65,-432.92 1943.29,-418.79 1965.02,-407.27"/>
<polygon fill="black" stroke="black" points="1966.4,-410.5 1973.59,-402.72 1963.12,-404.31 1966.4,-410.5"/>
</g>
<!-- gz&#45;fuel&#45;tools -->
<g id="node48" class="node">
<title>gz&#45;fuel&#45;tools</title>
<g id="a_node48"><a xlink:href="https://github.com/conda-forge/gz-fuel-tools-feedstock" xlink:title="gz fuel tools">
<ellipse fill="#35b779" stroke="black" cx="1871.24" cy="-530" rx="72.25" ry="18"/>
<text text-anchor="middle" x="1871.24" y="-525.33" font-family="Times,serif" font-size="14.00">gz fuel tools</text>
</a>
</g>
</g>
<!-- gz&#45;fuel&#45;tools&#45;&gt;gz&#45;sim -->
<g id="edge48" class="edge">
<title>gz&#45;fuel&#45;tools&#45;&gt;gz&#45;sim</title>
<path fill="none" stroke="black" d="M1871.24,-511.7C1871.24,-504.41 1871.24,-495.73 1871.24,-487.54"/>
<polygon fill="black" stroke="black" points="1874.74,-487.62 1871.24,-477.62 1867.74,-487.62 1874.74,-487.62"/>
</g>
<!-- labmaze -->
<g id="node49" class="node">
<title>labmaze</title>
<g id="a_node49"><a xlink:href="https://github.com/conda-forge/labmaze-feedstock/pull/11" xlink:title="labmaze ❎">
<ellipse fill="#31688e" stroke="black" cx="433.24" cy="-1330" rx="68.04" ry="18"/>
<text text-anchor="middle" x="433.24" y="-1325.33" font-family="Times,serif" font-size="14.00" fill="white">labmaze ❎</text>
</a>
</g>
</g>
<!-- labmaze&#45;&gt;ray&#45;packages -->
<g id="edge49" class="edge">
<title>labmaze&#45;&gt;ray&#45;packages</title>
<path fill="none" stroke="black" d="M435.81,-1311.65C438.76,-1293.5 444.24,-1264.31 452.24,-1240 455.01,-1231.56 458.72,-1222.65 462.38,-1214.61"/>
<polygon fill="black" stroke="black" points="465.51,-1216.19 466.62,-1205.66 459.18,-1213.2 465.51,-1216.19"/>
</g>
<!-- tensorstore -->
<g id="node51" class="node">
<title>tensorstore</title>
<g id="a_node51"><a xlink:href="https://github.com/conda-forge/tensorstore-feedstock/pull/23" xlink:title="tensorstore ✓">
<ellipse fill="#31688e" stroke="black" cx="1182.24" cy="-970" rx="76.99" ry="18"/>
<text text-anchor="middle" x="1182.24" y="-965.33" font-family="Times,serif" font-size="14.00" fill="white">tensorstore ✓</text>
</a>
</g>
</g>
<!-- gnss&#45;sdr&#45;&gt;tensorstore -->
<!-- gcld3 -->
<g id="node52" class="node">
<title>gcld3</title>
<g id="a_node52"><a xlink:href="https://github.com/conda-forge/gcld3-feedstock" xlink:title="gcld3">
<ellipse fill="#35b779" stroke="black" cx="1182.24" cy="-898" rx="38.58" ry="18"/>
<text text-anchor="middle" x="1182.24" y="-893.33" font-family="Times,serif" font-size="14.00">gcld3</text>
</a>
</g>
</g>
<!-- tensorstore&#45;&gt;gcld3 -->
<!-- bloaty -->
<g id="node53" class="node">
<title>bloaty</title>
<g id="a_node53"><a xlink:href="https://github.com/conda-forge/bloaty-feedstock" xlink:title="bloaty">
<ellipse fill="#35b779" stroke="black" cx="1849.24" cy="-54" rx="42.26" ry="18"/>
<text text-anchor="middle" x="1849.24" y="-49.33" font-family="Times,serif" font-size="14.00">bloaty</text>
</a>
</g>
</g>
<!-- google&#45;cloud&#45;cpp&#45;compute -->
<g id="node54" class="node">
<title>google&#45;cloud&#45;cpp&#45;compute</title>
<g id="a_node54"><a xlink:href="https://github.com/conda-forge/google-cloud-cpp-compute-feedstock" xlink:title="google cloud cpp compute">
<ellipse fill="#35b779" stroke="black" cx="1028.24" cy="-458" rx="141.7" ry="18"/>
<text text-anchor="middle" x="1028.24" y="-453.32" font-family="Times,serif" font-size="14.00">google cloud cpp compute</text>
</a>
</g>
</g>
<!-- google&#45;cloud&#45;cpp&#45;compute&#45;&gt;google&#45;cloud&#45;cpp -->
<g id="edge53" class="edge">
<title>google&#45;cloud&#45;cpp&#45;compute&#45;&gt;google&#45;cloud&#45;cpp</title>
<path fill="none" stroke="black" d="M1068.52,-440.41C1092.67,-430.47 1123.53,-417.76 1149.1,-407.23"/>
<polygon fill="black" stroke="black" points="1150.39,-410.49 1158.3,-403.44 1147.72,-404.02 1150.39,-410.49"/>
</g>
<!-- google&#45;cloud&#45;cpp&#45;bigquery -->
<g id="node55" class="node">
<title>google&#45;cloud&#45;cpp&#45;bigquery</title>
<g id="a_node55"><a xlink:href="https://github.com/conda-forge/google-cloud-cpp-bigquery-feedstock" xlink:title="google cloud cpp bigquery">
<ellipse fill="#35b779" stroke="black" cx="1198.24" cy="-530" rx="143.28" ry="18"/>
<text text-anchor="middle" x="1198.24" y="-525.33" font-family="Times,serif" font-size="14.00">google cloud cpp bigquery</text>
</a>
</g>
</g>
<!-- google&#45;cloud&#45;cpp&#45;bigquery&#45;&gt;google&#45;cloud&#45;cpp -->
<g id="edge54" class="edge">
<title>google&#45;cloud&#45;cpp&#45;bigquery&#45;&gt;google&#45;cloud&#45;cpp</title>
<path fill="none" stroke="black" d="M1198.24,-511.59C1198.24,-487.61 1198.24,-444.14 1198.24,-415.42"/>
<polygon fill="black" stroke="black" points="1201.74,-415.62 1198.24,-405.62 1194.74,-415.62 1201.74,-415.62"/>
</g>
<!-- google&#45;cloud&#45;cpp&#45;ai -->
<g id="node56" class="node">
<title>google&#45;cloud&#45;cpp&#45;ai</title>
<g id="a_node56"><a xlink:href="https://github.com/conda-forge/google-cloud-cpp-ai-feedstock" xlink:title="google cloud cpp ai">
<ellipse fill="#35b779" stroke="black" cx="1369.24" cy="-602" rx="107.5" ry="18"/>
<text text-anchor="middle" x="1369.24" y="-597.33" font-family="Times,serif" font-size="14.00">google cloud cpp ai</text>
</a>
</g>
</g>
<!-- google&#45;cloud&#45;cpp&#45;ai&#45;&gt;google&#45;cloud&#45;cpp -->
<g id="edge55" class="edge">
<title>google&#45;cloud&#45;cpp&#45;ai&#45;&gt;google&#45;cloud&#45;cpp</title>
<path fill="none" stroke="black" d="M1368.88,-583.7C1367.76,-564.81 1363.78,-534.27 1350.24,-512 1322.81,-466.91 1273.14,-430.72 1238.05,-409.11"/>
<polygon fill="black" stroke="black" points="1240.24,-406.34 1229.87,-404.19 1236.63,-412.34 1240.24,-406.34"/>
</g>
</g>
</svg>
