<?xml version="1.0" encoding="UTF-8" standalone="no"?>
<!DOCTYPE svg PUBLIC "-//W3C//DTD SVG 1.1//EN"
 "http://www.w3.org/Graphics/SVG/1.1/DTD/svg11.dtd">
<!-- Generated by graphviz version 9.0.0 (20231125.0833)
 -->
<!-- Pages: 1 -->
<svg width="2591pt" height="952pt"
 viewBox="0.00 0.00 2591.13 952.00" xmlns="http://www.w3.org/2000/svg" xmlns:xlink="http://www.w3.org/1999/xlink">
<g id="graph0" class="graph" transform="scale(1 1) rotate(0) translate(4 948)">
<polygon fill="white" stroke="none" points="-4,4 -4,-948 2587.13,-948 2587.13,4 -4,4"/>
<!-- arrow&#45;cpp -->
<g id="node1" class="node">
<title>arrow&#45;cpp</title>
<g id="a_node1"><a xlink:href="https://github.com/conda-forge/arrow-cpp-feedstock" xlink:title="arrow cpp">
<ellipse fill="#fde725" stroke="black" cx="61.73" cy="-674" rx="61.73" ry="18"/>
<text text-anchor="middle" x="61.73" y="-669.33" font-family="Times,serif" font-size="14.00">arrow cpp</text>
</a>
</g>
</g>
<!-- ray&#45;packages -->
<g id="node2" class="node">
<title>ray&#45;packages</title>
<g id="a_node2"><a xlink:href="https://github.com/conda-forge/ray-packages-feedstock" xlink:title="ray packages">
<ellipse fill="#fde725" stroke="black" cx="218.73" cy="-386" rx="76.99" ry="18"/>
<text text-anchor="middle" x="218.73" y="-381.32" font-family="Times,serif" font-size="14.00">ray packages</text>
</a>
</g>
</g>
<!-- arrow&#45;cpp&#45;&gt;ray&#45;packages -->
<g id="edge1" class="edge">
<title>arrow&#45;cpp&#45;&gt;ray&#45;packages</title>
<path fill="none" stroke="black" d="M54.44,-655.79C47.78,-637.5 40.16,-607.97 48.73,-584 75.51,-509.05 145.95,-443.96 187.26,-410.66"/>
<polygon fill="black" stroke="black" points="189.25,-413.55 194.92,-404.59 184.91,-408.06 189.25,-413.55"/>
</g>
<!-- arcticdb -->
<g id="node3" class="node">
<title>arcticdb</title>
<g id="a_node3"><a xlink:href="https://github.com/conda-forge/arcticdb-feedstock" xlink:title="arcticdb">
<ellipse fill="#fde725" stroke="black" cx="109.73" cy="-602" rx="52.26" ry="18"/>
<text text-anchor="middle" x="109.73" y="-597.33" font-family="Times,serif" font-size="14.00">arcticdb</text>
</a>
</g>
</g>
<!-- arrow&#45;cpp&#45;&gt;arcticdb -->
<g id="edge2" class="edge">
<title>arrow&#45;cpp&#45;&gt;arcticdb</title>
<path fill="none" stroke="black" d="M73.35,-656.05C78.89,-647.97 85.65,-638.12 91.83,-629.11"/>
<polygon fill="black" stroke="black" points="94.59,-631.26 97.36,-621.04 88.82,-627.31 94.59,-631.26"/>
</g>
<!-- bazel -->
<g id="node4" class="node">
<title>bazel</title>
<g id="a_node4"><a xlink:href="https://github.com/conda-forge/bazel-feedstock" xlink:title="bazel">
<ellipse fill="#fde725" stroke="black" cx="528.73" cy="-674" rx="37.53" ry="18"/>
<text text-anchor="middle" x="528.73" y="-669.33" font-family="Times,serif" font-size="14.00">bazel</text>
</a>
</g>
</g>
<!-- mosh -->
<g id="node5" class="node">
<title>mosh</title>
<g id="a_node5"><a xlink:href="https://github.com/conda-forge/mosh-feedstock" xlink:title="mosh">
<ellipse fill="#35b779" stroke="black" cx="2487.73" cy="-926" rx="38.06" ry="18"/>
<text text-anchor="middle" x="2487.73" y="-921.33" font-family="Times,serif" font-size="14.00">mosh</text>
</a>
</g>
</g>
<!-- mysql -->
<g id="node6" class="node">
<title>mysql</title>
<g id="a_node6"><a xlink:href="https://github.com/conda-forge/mysql-feedstock" xlink:title="mysql">
<ellipse fill="#35b779" stroke="black" cx="2487.73" cy="-854" rx="41.21" ry="18"/>
<text text-anchor="middle" x="2487.73" y="-849.33" font-family="Times,serif" font-size="14.00">mysql</text>
</a>
</g>
</g>
<!-- mosh&#45;&gt;mysql -->
<!-- paraview -->
<g id="node7" class="node">
<title>paraview</title>
<g id="a_node7"><a xlink:href="https://github.com/conda-forge/paraview-feedstock" xlink:title="paraview">
<ellipse fill="#35b779" stroke="black" cx="2487.73" cy="-782" rx="57" ry="18"/>
<text text-anchor="middle" x="2487.73" y="-777.33" font-family="Times,serif" font-size="14.00">paraview</text>
</a>
</g>
</g>
<!-- mysql&#45;&gt;paraview -->
<!-- r&#45;protolite -->
<g id="node12" class="node">
<title>r&#45;protolite</title>
<g id="a_node12"><a xlink:href="https://github.com/conda-forge/r-protolite-feedstock" xlink:title="r protolite">
<ellipse fill="#35b779" stroke="black" cx="2487.73" cy="-710" rx="62.26" ry="18"/>
<text text-anchor="middle" x="2487.73" y="-705.33" font-family="Times,serif" font-size="14.00">r protolite</text>
</a>
</g>
</g>
<!-- paraview&#45;&gt;r&#45;protolite -->
<!-- onnx -->
<g id="node8" class="node">
<title>onnx</title>
<g id="a_node8"><a xlink:href="https://github.com/conda-forge/onnx-feedstock" xlink:title="onnx">
<ellipse fill="#fde725" stroke="black" cx="462.73" cy="-602" rx="35.42" ry="18"/>
<text text-anchor="middle" x="462.73" y="-597.33" font-family="Times,serif" font-size="14.00">onnx</text>
</a>
</g>
</g>
<!-- opencv -->
<g id="node9" class="node">
<title>opencv</title>
<g id="a_node9"><a xlink:href="https://github.com/conda-forge/opencv-feedstock" xlink:title="opencv">
<ellipse fill="#fde725" stroke="black" cx="276.73" cy="-530" rx="46.47" ry="18"/>
<text text-anchor="middle" x="276.73" y="-525.33" font-family="Times,serif" font-size="14.00">opencv</text>
</a>
</g>
</g>
<!-- opencv&#45;&gt;ray&#45;packages -->
<g id="edge5" class="edge">
<title>opencv&#45;&gt;ray&#45;packages</title>
<path fill="none" stroke="black" d="M261.73,-512.5C253.47,-502.59 243.72,-489.34 237.73,-476 229.11,-456.82 224.32,-433.53 221.7,-415.59"/>
<polygon fill="black" stroke="black" points="225.21,-415.37 220.45,-405.9 218.26,-416.27 225.21,-415.37"/>
</g>
<!-- imp -->
<g id="node10" class="node">
<title>imp</title>
<g id="a_node10"><a xlink:href="https://github.com/conda-forge/imp-feedstock" xlink:title="imp">
<ellipse fill="#fde725" stroke="black" cx="276.73" cy="-458" rx="30.16" ry="18"/>
<text text-anchor="middle" x="276.73" y="-453.32" font-family="Times,serif" font-size="14.00">imp</text>
</a>
</g>
</g>
<!-- opencv&#45;&gt;imp -->
<g id="edge6" class="edge">
<title>opencv&#45;&gt;imp</title>
<path fill="none" stroke="black" d="M276.73,-511.7C276.73,-504.41 276.73,-495.73 276.73,-487.54"/>
<polygon fill="black" stroke="black" points="280.23,-487.62 276.73,-477.62 273.23,-487.62 280.23,-487.62"/>
</g>
<!-- gazebo&#45;yarp&#45;plugins -->
<g id="node11" class="node">
<title>gazebo&#45;yarp&#45;plugins</title>
<g id="a_node11"><a xlink:href="https://github.com/conda-forge/gazebo-yarp-plugins-feedstock" xlink:title="gazebo yarp plugins">
<ellipse fill="#fde725" stroke="black" cx="596.73" cy="-458" rx="112.24" ry="18"/>
<text text-anchor="middle" x="596.73" y="-453.32" font-family="Times,serif" font-size="14.00">gazebo yarp plugins</text>
</a>
</g>
</g>
<!-- opencv&#45;&gt;gazebo&#45;yarp&#45;plugins -->
<g id="edge7" class="edge">
<title>opencv&#45;&gt;gazebo&#45;yarp&#45;plugins</title>
<path fill="none" stroke="black" d="M316.61,-520.28C367.69,-509.1 457.25,-489.51 521.36,-475.49"/>
<polygon fill="black" stroke="black" points="521.72,-478.99 530.74,-473.43 520.23,-472.15 521.72,-478.99"/>
</g>
<!-- go&#45;cockroach -->
<g id="node33" class="node">
<title>go&#45;cockroach</title>
<g id="a_node33"><a xlink:href="https://github.com/conda-forge/go-cockroach-feedstock" xlink:title="go cockroach">
<ellipse fill="#35b779" stroke="black" cx="2487.73" cy="-638" rx="76.46" ry="18"/>
<text text-anchor="middle" x="2487.73" y="-633.33" font-family="Times,serif" font-size="14.00">go cockroach</text>
</a>
</g>
</g>
<!-- r&#45;protolite&#45;&gt;go&#45;cockroach -->
<!-- protobuf -->
<g id="node13" class="node">
<title>protobuf</title>
<g id="a_node13"><a xlink:href="https://github.com/conda-forge/protobuf-feedstock" xlink:title="protobuf">
<ellipse fill="#35b779" stroke="black" cx="730.73" cy="-746" rx="54.36" ry="18"/>
<text text-anchor="middle" x="730.73" y="-741.33" font-family="Times,serif" font-size="14.00">protobuf</text>
</a>
</g>
</g>
<!-- protobuf&#45;&gt;arrow&#45;cpp -->
<g id="edge9" class="edge">
<title>protobuf&#45;&gt;arrow&#45;cpp</title>
<path fill="none" stroke="black" d="M676.88,-742.55C572.4,-737.28 335.09,-722.76 137.73,-692 131.64,-691.05 125.3,-689.9 119,-688.65"/>
<polygon fill="black" stroke="black" points="119.75,-685.23 109.25,-686.62 118.32,-692.08 119.75,-685.23"/>
</g>
<!-- protobuf&#45;&gt;ray&#45;packages -->
<g id="edge10" class="edge">
<title>protobuf&#45;&gt;ray&#45;packages</title>
<path fill="none" stroke="black" d="M678.39,-740.88C557.6,-730.12 265.62,-696.54 211.73,-620 168.04,-557.94 192.12,-461.77 208.12,-414.76"/>
<polygon fill="black" stroke="black" points="211.32,-416.21 211.37,-405.61 204.73,-413.87 211.32,-416.21"/>
</g>
<!-- protobuf&#45;&gt;arcticdb -->
<g id="edge11" class="edge">
<title>protobuf&#45;&gt;arcticdb</title>
<path fill="none" stroke="black" d="M676.16,-745.33C553.54,-745.21 260.33,-739.76 175.73,-692 151.2,-678.15 133.13,-651.01 122.16,-630.33"/>
<polygon fill="black" stroke="black" points="125.37,-628.92 117.76,-621.56 119.12,-632.06 125.37,-628.92"/>
</g>
<!-- protobuf&#45;&gt;bazel -->
<g id="edge12" class="edge">
<title>protobuf&#45;&gt;bazel</title>
<path fill="none" stroke="black" d="M693.71,-732.55C662.27,-721.92 615.97,-706.16 575.73,-692 573.4,-691.18 571.01,-690.33 568.6,-689.48"/>
<polygon fill="black" stroke="black" points="570.05,-686.28 559.46,-686.2 567.69,-692.87 570.05,-686.28"/>
</g>
<!-- protobuf&#45;&gt;onnx -->
<g id="edge13" class="edge">
<title>protobuf&#45;&gt;onnx</title>
<path fill="none" stroke="black" d="M678.55,-740.51C613.88,-733.86 508.89,-719.14 481.73,-692 466.09,-676.37 461.87,-651.23 461.26,-631.65"/>
<polygon fill="black" stroke="black" points="464.76,-631.83 461.28,-621.82 457.76,-631.82 464.76,-631.83"/>
</g>
<!-- protobuf&#45;&gt;imp -->
<g id="edge14" class="edge">
<title>protobuf&#45;&gt;imp</title>
<path fill="none" stroke="black" d="M679.42,-739.54C611.28,-731.53 495.38,-715 459.73,-692 377.24,-638.79 395.79,-586.38 331.73,-512 322.36,-501.12 311.08,-489.96 301.17,-480.71"/>
<polygon fill="black" stroke="black" points="303.76,-478.33 294.03,-474.14 299.02,-483.49 303.76,-478.33"/>
</g>
<!-- tiledb -->
<g id="node14" class="node">
<title>tiledb</title>
<g id="a_node14"><a xlink:href="https://github.com/conda-forge/tiledb-feedstock" xlink:title="tiledb">
<ellipse fill="#fde725" stroke="black" cx="624.73" cy="-674" rx="40.16" ry="18"/>
<text text-anchor="middle" x="624.73" y="-669.33" font-family="Times,serif" font-size="14.00">tiledb</text>
</a>
</g>
</g>
<!-- protobuf&#45;&gt;tiledb -->
<g id="edge15" class="edge">
<title>protobuf&#45;&gt;tiledb</title>
<path fill="none" stroke="black" d="M707.21,-729.46C692.11,-719.5 672.35,-706.44 655.95,-695.61"/>
<polygon fill="black" stroke="black" points="658.28,-692.96 648,-690.37 654.42,-698.8 658.28,-692.96"/>
</g>
<!-- tensorflow -->
<g id="node15" class="node">
<title>tensorflow</title>
<g id="a_node15"><a xlink:href="https://github.com/conda-forge/tensorflow-feedstock" xlink:title="tensorflow">
<ellipse fill="#fde725" stroke="black" cx="784.73" cy="-530" rx="63.84" ry="18"/>
<text text-anchor="middle" x="784.73" y="-525.33" font-family="Times,serif" font-size="14.00">tensorflow</text>
</a>
</g>
</g>
<!-- protobuf&#45;&gt;tensorflow -->
<g id="edge16" class="edge">
<title>protobuf&#45;&gt;tensorflow</title>
<path fill="none" stroke="black" d="M734.06,-727.87C737.62,-709.89 743.6,-680.85 749.73,-656 757.97,-622.57 768.84,-584.51 776.27,-559.26"/>
<polygon fill="black" stroke="black" points="779.6,-560.33 779.09,-549.75 772.89,-558.35 779.6,-560.33"/>
</g>
<!-- jaxlib -->
<g id="node16" class="node">
<title>jaxlib</title>
<g id="a_node16"><a xlink:href="https://github.com/conda-forge/jaxlib-feedstock" xlink:title="jaxlib">
<ellipse fill="#fde725" stroke="black" cx="765.73" cy="-458" rx="38.58" ry="18"/>
<text text-anchor="middle" x="765.73" y="-453.32" font-family="Times,serif" font-size="14.00">jaxlib</text>
</a>
</g>
</g>
<!-- protobuf&#45;&gt;jaxlib -->
<g id="edge17" class="edge">
<title>protobuf&#45;&gt;jaxlib</title>
<path fill="none" stroke="black" d="M724.1,-727.77C709.88,-687.96 680.16,-587.22 711.73,-512 716.83,-499.85 726.22,-489.09 735.76,-480.49"/>
<polygon fill="black" stroke="black" points="737.86,-483.29 743.28,-474.19 733.37,-477.93 737.86,-483.29"/>
</g>
<!-- zaber&#45;motion -->
<g id="node17" class="node">
<title>zaber&#45;motion</title>
<g id="a_node17"><a xlink:href="https://github.com/conda-forge/zaber-motion-feedstock" xlink:title="zaber motion">
<ellipse fill="#fde725" stroke="black" cx="967.73" cy="-386" rx="76.99" ry="18"/>
<text text-anchor="middle" x="967.73" y="-381.32" font-family="Times,serif" font-size="14.00">zaber motion</text>
</a>
</g>
</g>
<!-- protobuf&#45;&gt;zaber&#45;motion -->
<g id="edge18" class="edge">
<title>protobuf&#45;&gt;zaber&#45;motion</title>
<path fill="none" stroke="black" d="M778.47,-737.09C878.67,-719.12 1101.73,-671.45 1101.73,-603 1101.73,-603 1101.73,-603 1101.73,-529 1101.73,-488.55 1107.99,-471.59 1082.73,-440 1069.46,-423.41 1049.83,-411.8 1030.53,-403.76"/>
<polygon fill="black" stroke="black" points="1031.88,-400.54 1021.3,-400.2 1029.37,-407.07 1031.88,-400.54"/>
</g>
<!-- protozfits -->
<g id="node18" class="node">
<title>protozfits</title>
<g id="a_node18"><a xlink:href="https://github.com/conda-forge/protozfits-feedstock" xlink:title="protozfits">
<ellipse fill="#fde725" stroke="black" cx="817.73" cy="-674" rx="59.1" ry="18"/>
<text text-anchor="middle" x="817.73" y="-669.33" font-family="Times,serif" font-size="14.00">protozfits</text>
</a>
</g>
</g>
<!-- protobuf&#45;&gt;protozfits -->
<g id="edge19" class="edge">
<title>protobuf&#45;&gt;protozfits</title>
<path fill="none" stroke="black" d="M750.47,-729.12C761.77,-720.03 776.15,-708.46 788.71,-698.35"/>
<polygon fill="black" stroke="black" points="790.69,-701.25 796.28,-692.26 786.3,-695.8 790.69,-701.25"/>
</g>
<!-- or&#45;tools -->
<g id="node19" class="node">
<title>or&#45;tools</title>
<g id="a_node19"><a xlink:href="https://github.com/conda-forge/or-tools-feedstock" xlink:title="or tools">
<ellipse fill="#fde725" stroke="black" cx="865.73" cy="-602" rx="49.1" ry="18"/>
<text text-anchor="middle" x="865.73" y="-597.33" font-family="Times,serif" font-size="14.00">or tools</text>
</a>
</g>
</g>
<!-- protobuf&#45;&gt;or&#45;tools -->
<g id="edge20" class="edge">
<title>protobuf&#45;&gt;or&#45;tools</title>
<path fill="none" stroke="black" d="M784.24,-742C819.33,-736.93 862.82,-724.04 885.73,-692 898.65,-673.93 891.41,-648.95 882.22,-630.05"/>
<polygon fill="black" stroke="black" points="885.37,-628.52 877.59,-621.33 879.19,-631.8 885.37,-628.52"/>
</g>
<!-- bear -->
<g id="node20" class="node">
<title>bear</title>
<g id="a_node20"><a xlink:href="https://github.com/conda-forge/bear-feedstock" xlink:title="bear">
<ellipse fill="#fde725" stroke="black" cx="918.73" cy="-530" rx="33.85" ry="18"/>
<text text-anchor="middle" x="918.73" y="-525.33" font-family="Times,serif" font-size="14.00">bear</text>
</a>
</g>
</g>
<!-- protobuf&#45;&gt;bear -->
<g id="edge21" class="edge">
<title>protobuf&#45;&gt;bear</title>
<path fill="none" stroke="black" d="M783.75,-741.69C821.73,-736.55 871.48,-723.72 902.73,-692 937,-657.21 932.1,-595.42 925.43,-559.35"/>
<polygon fill="black" stroke="black" points="928.88,-558.76 923.46,-549.66 922.02,-560.16 928.88,-558.76"/>
</g>
<!-- cpp&#45;opentelemetry&#45;sdk -->
<g id="node21" class="node">
<title>cpp&#45;opentelemetry&#45;sdk</title>
<g id="a_node21"><a xlink:href="https://github.com/conda-forge/cpp-opentelemetry-sdk-feedstock" xlink:title="cpp opentelemetry sdk">
<ellipse fill="#fde725" stroke="black" cx="947.73" cy="-458" rx="125.92" ry="18"/>
<text text-anchor="middle" x="947.73" y="-453.32" font-family="Times,serif" font-size="14.00">cpp opentelemetry sdk</text>
</a>
</g>
</g>
<!-- protobuf&#45;&gt;cpp&#45;opentelemetry&#45;sdk -->
<g id="edge22" class="edge">
<title>protobuf&#45;&gt;cpp&#45;opentelemetry&#45;sdk</title>
<path fill="none" stroke="black" d="M785.17,-744.71C829.28,-741.47 889.95,-729.74 926.73,-692 983.61,-633.64 972.22,-592.82 961.73,-512 960.68,-503.88 958.75,-495.24 956.66,-487.34"/>
<polygon fill="black" stroke="black" points="960.07,-486.55 953.97,-477.9 953.34,-488.47 960.07,-486.55"/>
</g>
<!-- xilinx&#45;runtime -->
<g id="node22" class="node">
<title>xilinx&#45;runtime</title>
<g id="a_node22"><a xlink:href="https://github.com/conda-forge/xilinx-runtime-feedstock" xlink:title="xilinx runtime">
<ellipse fill="#fde725" stroke="black" cx="1144.73" cy="-386" rx="81.72" ry="18"/>
<text text-anchor="middle" x="1144.73" y="-381.32" font-family="Times,serif" font-size="14.00">xilinx runtime</text>
</a>
</g>
</g>
<!-- protobuf&#45;&gt;xilinx&#45;runtime -->
<g id="edge23" class="edge">
<title>protobuf&#45;&gt;xilinx&#45;runtime</title>
<path fill="none" stroke="black" d="M784.9,-743.15C846.08,-739.32 947.44,-727.62 1026.73,-692 1085.05,-665.81 1139.73,-666.93 1139.73,-603 1139.73,-603 1139.73,-603 1139.73,-529 1139.73,-489.72 1141.67,-444.36 1143.13,-415.68"/>
<polygon fill="black" stroke="black" points="1146.61,-416.16 1143.64,-405.99 1139.62,-415.79 1146.61,-416.16"/>
</g>
<!-- gz&#45;msgs -->
<g id="node23" class="node">
<title>gz&#45;msgs</title>
<g id="a_node23"><a xlink:href="https://github.com/conda-forge/gz-msgs-feedstock" xlink:title="gz msgs">
<ellipse fill="#fde725" stroke="black" cx="1347.73" cy="-674" rx="52.26" ry="18"/>
<text text-anchor="middle" x="1347.73" y="-669.33" font-family="Times,serif" font-size="14.00">gz msgs</text>
</a>
</g>
</g>
<!-- protobuf&#45;&gt;gz&#45;msgs -->
<g id="edge24" class="edge">
<title>protobuf&#45;&gt;gz&#45;msgs</title>
<path fill="none" stroke="black" d="M784.62,-742.86C884.13,-738.23 1103.15,-724.94 1284.73,-692 1289.06,-691.21 1293.52,-690.28 1297.98,-689.25"/>
<polygon fill="black" stroke="black" points="1298.63,-692.69 1307.51,-686.91 1296.96,-685.9 1298.63,-692.69"/>
</g>
<!-- gnss&#45;sdr -->
<g id="node24" class="node">
<title>gnss&#45;sdr</title>
<g id="a_node24"><a xlink:href="https://github.com/conda-forge/gnss-sdr-feedstock" xlink:title="gnss sdr">
<ellipse fill="#fde725" stroke="black" cx="1221.73" cy="-674" rx="53.84" ry="18"/>
<text text-anchor="middle" x="1221.73" y="-669.33" font-family="Times,serif" font-size="14.00">gnss sdr</text>
</a>
</g>
</g>
<!-- protobuf&#45;&gt;gnss&#45;sdr -->
<g id="edge25" class="edge">
<title>protobuf&#45;&gt;gnss&#45;sdr</title>
<path fill="none" stroke="black" d="M782.81,-740.51C862.95,-733.14 1021.14,-716.79 1153.73,-692 1158.99,-691.02 1164.44,-689.87 1169.87,-688.65"/>
<polygon fill="black" stroke="black" points="1170.51,-692.09 1179.44,-686.4 1168.9,-685.28 1170.51,-692.09"/>
</g>
<!-- qgis -->
<g id="node25" class="node">
<title>qgis</title>
<g id="a_node25"><a xlink:href="https://github.com/conda-forge/qgis-feedstock" xlink:title="qgis">
<ellipse fill="#fde725" stroke="black" cx="632.73" cy="-602" rx="32.27" ry="18"/>
<text text-anchor="middle" x="632.73" y="-597.33" font-family="Times,serif" font-size="14.00">qgis</text>
</a>
</g>
</g>
<!-- tiledb&#45;&gt;qgis -->
<g id="edge26" class="edge">
<title>tiledb&#45;&gt;qgis</title>
<path fill="none" stroke="black" d="M626.71,-655.7C627.54,-648.41 628.53,-639.73 629.47,-631.54"/>
<polygon fill="black" stroke="black" points="632.95,-631.94 630.6,-621.61 625.99,-631.15 632.95,-631.94"/>
</g>
<!-- gazebo -->
<g id="node26" class="node">
<title>gazebo</title>
<g id="a_node26"><a xlink:href="https://github.com/conda-forge/gazebo-feedstock" xlink:title="gazebo">
<ellipse fill="#fde725" stroke="black" cx="588.73" cy="-530" rx="46.47" ry="18"/>
<text text-anchor="middle" x="588.73" y="-525.33" font-family="Times,serif" font-size="14.00">gazebo</text>
</a>
</g>
</g>
<!-- tiledb&#45;&gt;gazebo -->
<g id="edge27" class="edge">
<title>tiledb&#45;&gt;gazebo</title>
<path fill="none" stroke="black" d="M611.6,-656.92C604.28,-646.94 595.83,-633.48 591.73,-620 585.77,-600.41 585.18,-577.27 585.99,-559.5"/>
<polygon fill="black" stroke="black" points="589.47,-559.87 586.63,-549.67 582.49,-559.42 589.47,-559.87"/>
</g>
<!-- jaxlib&#45;&gt;ray&#45;packages -->
<g id="edge28" class="edge">
<title>jaxlib&#45;&gt;ray&#45;packages</title>
<path fill="none" stroke="black" d="M736.86,-445.55C730.63,-443.42 724.02,-441.43 717.73,-440 575.59,-407.75 406.11,-395.02 305.74,-390.06"/>
<polygon fill="black" stroke="black" points="306.11,-386.58 295.96,-389.6 305.78,-393.57 306.11,-386.58"/>
</g>
<!-- gz&#45;transport -->
<g id="node27" class="node">
<title>gz&#45;transport</title>
<g id="a_node27"><a xlink:href="https://github.com/conda-forge/gz-transport-feedstock" xlink:title="gz transport">
<ellipse fill="#fde725" stroke="black" cx="1347.73" cy="-602" rx="73.3" ry="18"/>
<text text-anchor="middle" x="1347.73" y="-597.33" font-family="Times,serif" font-size="14.00">gz transport</text>
</a>
</g>
</g>
<!-- gz&#45;msgs&#45;&gt;gz&#45;transport -->
<g id="edge29" class="edge">
<title>gz&#45;msgs&#45;&gt;gz&#45;transport</title>
<path fill="none" stroke="black" d="M1347.73,-655.7C1347.73,-648.41 1347.73,-639.73 1347.73,-631.54"/>
<polygon fill="black" stroke="black" points="1351.23,-631.62 1347.73,-621.62 1344.23,-631.62 1351.23,-631.62"/>
</g>
<!-- gz&#45;fuel&#45;tools -->
<g id="node28" class="node">
<title>gz&#45;fuel&#45;tools</title>
<g id="a_node28"><a xlink:href="https://github.com/conda-forge/gz-fuel-tools-feedstock" xlink:title="gz fuel tools">
<ellipse fill="#fde725" stroke="black" cx="1602.73" cy="-530" rx="72.25" ry="18"/>
<text text-anchor="middle" x="1602.73" y="-525.33" font-family="Times,serif" font-size="14.00">gz fuel tools</text>
</a>
</g>
</g>
<!-- gz&#45;msgs&#45;&gt;gz&#45;fuel&#45;tools -->
<g id="edge30" class="edge">
<title>gz&#45;msgs&#45;&gt;gz&#45;fuel&#45;tools</title>
<path fill="none" stroke="black" d="M1376.5,-658.51C1397.04,-648.06 1425.25,-633.47 1449.73,-620 1489.88,-597.91 1535.18,-571.35 1566,-553.03"/>
<polygon fill="black" stroke="black" points="1567.77,-556.05 1574.57,-547.92 1564.18,-550.03 1567.77,-556.05"/>
</g>
<!-- gz&#45;gui -->
<g id="node29" class="node">
<title>gz&#45;gui</title>
<g id="a_node29"><a xlink:href="https://github.com/conda-forge/gz-gui-feedstock" xlink:title="gz gui">
<ellipse fill="#fde725" stroke="black" cx="1247.73" cy="-530" rx="41.74" ry="18"/>
<text text-anchor="middle" x="1247.73" y="-525.33" font-family="Times,serif" font-size="14.00">gz gui</text>
</a>
</g>
</g>
<!-- gz&#45;msgs&#45;&gt;gz&#45;gui -->
<g id="edge31" class="edge">
<title>gz&#45;msgs&#45;&gt;gz&#45;gui</title>
<path fill="none" stroke="black" d="M1315.08,-659.53C1297.81,-650.76 1277.76,-637.65 1265.73,-620 1253.64,-602.26 1249.32,-578.21 1247.92,-559.59"/>
<polygon fill="black" stroke="black" points="1251.43,-559.58 1247.45,-549.76 1244.43,-559.92 1251.43,-559.58"/>
</g>
<!-- gz&#45;sensors -->
<g id="node30" class="node">
<title>gz&#45;sensors</title>
<g id="a_node30"><a xlink:href="https://github.com/conda-forge/gz-sensors-feedstock" xlink:title="gz sensors">
<ellipse fill="#fde725" stroke="black" cx="1447.73" cy="-530" rx="64.36" ry="18"/>
<text text-anchor="middle" x="1447.73" y="-525.33" font-family="Times,serif" font-size="14.00">gz sensors</text>
</a>
</g>
</g>
<!-- gz&#45;msgs&#45;&gt;gz&#45;sensors -->
<g id="edge32" class="edge">
<title>gz&#45;msgs&#45;&gt;gz&#45;sensors</title>
<path fill="none" stroke="black" d="M1380.38,-659.53C1397.65,-650.76 1417.7,-637.65 1429.73,-620 1441.82,-602.26 1446.14,-578.21 1447.54,-559.59"/>
<polygon fill="black" stroke="black" points="1451.03,-559.92 1448.01,-549.76 1444.03,-559.58 1451.03,-559.92"/>
</g>
<!-- gz&#45;sim -->
<g id="node31" class="node">
<title>gz&#45;sim</title>
<g id="a_node31"><a xlink:href="https://github.com/conda-forge/gz-sim-feedstock" xlink:title="gz sim">
<ellipse fill="#fde725" stroke="black" cx="1418.73" cy="-458" rx="43.84" ry="18"/>
<text text-anchor="middle" x="1418.73" y="-453.32" font-family="Times,serif" font-size="14.00">gz sim</text>
</a>
</g>
</g>
<!-- gz&#45;msgs&#45;&gt;gz&#45;sim -->
<g id="edge33" class="edge">
<title>gz&#45;msgs&#45;&gt;gz&#45;sim</title>
<path fill="none" stroke="black" d="M1399.61,-671.08C1476.74,-665.1 1619.45,-641.27 1683.73,-548 1735.82,-472.41 1566.25,-459.93 1474.15,-458.57"/>
<polygon fill="black" stroke="black" points="1474.33,-455.08 1464.29,-458.47 1474.25,-462.08 1474.33,-455.08"/>
</g>
<!-- gz&#45;launch -->
<g id="node32" class="node">
<title>gz&#45;launch</title>
<g id="a_node32"><a xlink:href="https://github.com/conda-forge/gz-launch-feedstock" xlink:title="gz launch">
<ellipse fill="#fde725" stroke="black" cx="1312.73" cy="-386" rx="59.1" ry="18"/>
<text text-anchor="middle" x="1312.73" y="-381.32" font-family="Times,serif" font-size="14.00">gz launch</text>
</a>
</g>
</g>
<!-- gz&#45;msgs&#45;&gt;gz&#45;launch -->
<g id="edge34" class="edge">
<title>gz&#45;msgs&#45;&gt;gz&#45;launch</title>
<path fill="none" stroke="black" d="M1314.25,-660C1293.59,-650.88 1267.36,-637.25 1247.73,-620 1218.27,-594.12 1208.62,-585.37 1196.73,-548 1178.69,-491.32 1237.75,-437.86 1278.12,-409.06"/>
<polygon fill="black" stroke="black" points="1279.94,-412.05 1286.17,-403.48 1275.96,-406.3 1279.94,-412.05"/>
</g>
<!-- gazebo&#45;&gt;gazebo&#45;yarp&#45;plugins -->
<g id="edge35" class="edge">
<title>gazebo&#45;&gt;gazebo&#45;yarp&#45;plugins</title>
<path fill="none" stroke="black" d="M590.71,-511.7C591.54,-504.41 592.53,-495.73 593.47,-487.54"/>
<polygon fill="black" stroke="black" points="596.95,-487.94 594.6,-477.61 589.99,-487.15 596.95,-487.94"/>
</g>
<!-- gz&#45;transport&#45;&gt;gz&#45;gui -->
<g id="edge60" class="edge">
<title>gz&#45;transport&#45;&gt;gz&#45;gui</title>
<path fill="none" stroke="black" d="M1324.28,-584.59C1310.55,-574.97 1293.05,-562.73 1278.25,-552.37"/>
<polygon fill="black" stroke="black" points="1280.42,-549.61 1270.22,-546.75 1276.41,-555.35 1280.42,-549.61"/>
</g>
<!-- gz&#45;transport&#45;&gt;gz&#45;sensors -->
<g id="edge61" class="edge">
<title>gz&#45;transport&#45;&gt;gz&#45;sensors</title>
<path fill="none" stroke="black" d="M1371.18,-584.59C1384.44,-575.31 1401.2,-563.57 1415.67,-553.44"/>
<polygon fill="black" stroke="black" points="1417.35,-556.54 1423.54,-547.94 1413.34,-550.8 1417.35,-556.54"/>
</g>
<!-- gz&#45;transport&#45;&gt;gz&#45;sim -->
<g id="edge62" class="edge">
<title>gz&#45;transport&#45;&gt;gz&#45;sim</title>
<path fill="none" stroke="black" d="M1350.82,-583.81C1354.63,-565.29 1362.18,-535.32 1374.73,-512 1380.2,-501.84 1387.79,-491.81 1395.14,-483.25"/>
<polygon fill="black" stroke="black" points="1397.52,-485.84 1401.59,-476.06 1392.31,-481.17 1397.52,-485.84"/>
</g>
<!-- gz&#45;transport&#45;&gt;gz&#45;launch -->
<g id="edge63" class="edge">
<title>gz&#45;transport&#45;&gt;gz&#45;launch</title>
<path fill="none" stroke="black" d="M1344.93,-583.85C1338.92,-547.14 1324.78,-460.66 1317.4,-415.53"/>
<polygon fill="black" stroke="black" points="1320.86,-415.03 1315.79,-405.73 1313.95,-416.16 1320.86,-415.03"/>
</g>
<!-- gz&#45;fuel&#45;tools&#45;&gt;gz&#45;sim -->
<g id="edge64" class="edge">
<title>gz&#45;fuel&#45;tools&#45;&gt;gz&#45;sim</title>
<path fill="none" stroke="black" d="M1564.16,-514.33C1533.9,-502.81 1491.84,-486.81 1460.73,-474.98"/>
<polygon fill="black" stroke="black" points="1462.23,-471.8 1451.64,-471.52 1459.74,-478.35 1462.23,-471.8"/>
</g>
<!-- gz&#45;gui&#45;&gt;gz&#45;sim -->
<g id="edge65" class="edge">
<title>gz&#45;gui&#45;&gt;gz&#45;sim</title>
<path fill="none" stroke="black" d="M1277.13,-516.97C1304.97,-505.57 1347.04,-488.35 1378.09,-475.64"/>
<polygon fill="black" stroke="black" points="1379.24,-478.95 1387.17,-471.92 1376.59,-472.47 1379.24,-478.95"/>
</g>
<!-- gz&#45;gui&#45;&gt;gz&#45;launch -->
<g id="edge66" class="edge">
<title>gz&#45;gui&#45;&gt;gz&#45;launch</title>
<path fill="none" stroke="black" d="M1255.57,-511.87C1266.65,-487.67 1287,-443.21 1300.19,-414.39"/>
<polygon fill="black" stroke="black" points="1303.25,-416.11 1304.23,-405.57 1296.89,-413.2 1303.25,-416.11"/>
</g>
<!-- gz&#45;sensors&#45;&gt;gz&#45;sim -->
<g id="edge67" class="edge">
<title>gz&#45;sensors&#45;&gt;gz&#45;sim</title>
<path fill="none" stroke="black" d="M1440.56,-511.7C1437.44,-504.15 1433.69,-495.12 1430.2,-486.68"/>
<polygon fill="black" stroke="black" points="1433.46,-485.4 1426.4,-477.5 1426.99,-488.08 1433.46,-485.4"/>
</g>
<!-- gz&#45;sim&#45;&gt;gz&#45;launch -->
<g id="edge68" class="edge">
<title>gz&#45;sim&#45;&gt;gz&#45;launch</title>
<path fill="none" stroke="black" d="M1396.25,-442.15C1381.62,-432.49 1362.28,-419.72 1345.9,-408.9"/>
<polygon fill="black" stroke="black" points="1348.19,-406.22 1337.91,-403.63 1344.33,-412.06 1348.19,-406.22"/>
</g>
<!-- cartographer -->
<g id="node43" class="node">
<title>cartographer</title>
<g id="a_node43"><a xlink:href="https://github.com/conda-forge/cartographer-feedstock" xlink:title="cartographer">
<ellipse fill="#35b779" stroke="black" cx="2487.73" cy="-566" rx="76.99" ry="18"/>
<text text-anchor="middle" x="2487.73" y="-561.33" font-family="Times,serif" font-size="14.00">cartographer</text>
</a>
</g>
</g>
<!-- go&#45;cockroach&#45;&gt;cartographer -->
<!-- pytorch&#45;cpu -->
<g id="node34" class="node">
<title>pytorch&#45;cpu</title>
<g id="a_node34"><a xlink:href="https://github.com/conda-forge/pytorch-cpu-feedstock" xlink:title="pytorch cpu">
<ellipse fill="#35b779" stroke="black" cx="395.73" cy="-458" rx="70.68" ry="18"/>
<text text-anchor="middle" x="395.73" y="-453.32" font-family="Times,serif" font-size="14.00">pytorch cpu</text>
</a>
</g>
</g>
<!-- pytorch&#45;cpu&#45;&gt;ray&#45;packages -->
<g id="edge37" class="edge">
<title>pytorch&#45;cpu&#45;&gt;ray&#45;packages</title>
<path fill="none" stroke="black" d="M358.63,-442.33C332.11,-431.84 296.17,-417.63 267.36,-406.23"/>
<polygon fill="black" stroke="black" points="268.7,-403 258.11,-402.57 266.12,-409.51 268.7,-403"/>
</g>
<!-- orc -->
<g id="node35" class="node">
<title>orc</title>
<g id="a_node35"><a xlink:href="https://github.com/conda-forge/orc-feedstock" xlink:title="orc">
<ellipse fill="#35b779" stroke="black" cx="61.73" cy="-746" rx="27.01" ry="18"/>
<text text-anchor="middle" x="61.73" y="-741.33" font-family="Times,serif" font-size="14.00">orc</text>
</a>
</g>
</g>
<!-- orc&#45;&gt;arrow&#45;cpp -->
<g id="edge38" class="edge">
<title>orc&#45;&gt;arrow&#45;cpp</title>
<path fill="none" stroke="black" d="M61.73,-727.7C61.73,-720.41 61.73,-711.73 61.73,-703.54"/>
<polygon fill="black" stroke="black" points="65.23,-703.62 61.73,-693.62 58.23,-703.62 65.23,-703.62"/>
</g>
<!-- libignition&#45;transport4 -->
<g id="node36" class="node">
<title>libignition&#45;transport4</title>
<g id="a_node36"><a xlink:href="https://github.com/conda-forge/libignition-transport4-feedstock" xlink:title="libignition transport4">
<ellipse fill="#fde725" stroke="black" cx="1949.73" cy="-638" rx="119.08" ry="18"/>
<text text-anchor="middle" x="1949.73" y="-633.33" font-family="Times,serif" font-size="14.00">libignition transport4</text>
</a>
</g>
</g>
<!-- libignition&#45;sensors -->
<g id="node37" class="node">
<title>libignition&#45;sensors</title>
<g id="a_node37"><a xlink:href="https://github.com/conda-forge/libignition-sensors-feedstock" xlink:title="libignition sensors">
<ellipse fill="#fde725" stroke="black" cx="2104.73" cy="-566" rx="103.82" ry="18"/>
<text text-anchor="middle" x="2104.73" y="-561.33" font-family="Times,serif" font-size="14.00">libignition sensors</text>
</a>
</g>
</g>
<!-- libignition&#45;transport4&#45;&gt;libignition&#45;sensors -->
<g id="edge39" class="edge">
<title>libignition&#45;transport4&#45;&gt;libignition&#45;sensors</title>
<path fill="none" stroke="black" d="M1986.46,-620.41C2007.97,-610.7 2035.33,-598.34 2058.31,-587.96"/>
<polygon fill="black" stroke="black" points="2059.48,-591.28 2067.15,-583.97 2056.6,-584.9 2059.48,-591.28"/>
</g>
<!-- libignition&#45;gui -->
<g id="node38" class="node">
<title>libignition&#45;gui</title>
<g id="a_node38"><a xlink:href="https://github.com/conda-forge/libignition-gui-feedstock" xlink:title="libignition gui">
<ellipse fill="#fde725" stroke="black" cx="1825.73" cy="-566" rx="81.2" ry="18"/>
<text text-anchor="middle" x="1825.73" y="-561.33" font-family="Times,serif" font-size="14.00">libignition gui</text>
</a>
</g>
</g>
<!-- libignition&#45;transport4&#45;&gt;libignition&#45;gui -->
<g id="edge40" class="edge">
<title>libignition&#45;transport4&#45;&gt;libignition&#45;gui</title>
<path fill="none" stroke="black" d="M1920.03,-620.23C1903.3,-610.79 1882.22,-598.89 1864.24,-588.74"/>
<polygon fill="black" stroke="black" points="1866.08,-585.76 1855.65,-583.89 1862.64,-591.86 1866.08,-585.76"/>
</g>
<!-- libignition&#45;gazebo -->
<g id="node39" class="node">
<title>libignition&#45;gazebo</title>
<g id="a_node39"><a xlink:href="https://github.com/conda-forge/libignition-gazebo-feedstock" xlink:title="libignition gazebo">
<ellipse fill="#fde725" stroke="black" cx="2084.73" cy="-494" rx="100.66" ry="18"/>
<text text-anchor="middle" x="2084.73" y="-489.32" font-family="Times,serif" font-size="14.00">libignition gazebo</text>
</a>
</g>
</g>
<!-- libignition&#45;transport4&#45;&gt;libignition&#45;gazebo -->
<g id="edge41" class="edge">
<title>libignition&#45;transport4&#45;&gt;libignition&#45;gazebo</title>
<path fill="none" stroke="black" d="M1954.4,-619.8C1960.38,-600.43 1972.35,-568.94 1991.73,-548 2003.85,-534.91 2019.95,-524.19 2035.35,-515.89"/>
<polygon fill="black" stroke="black" points="2036.66,-519.16 2043.97,-511.49 2033.47,-512.92 2036.66,-519.16"/>
</g>
<!-- libignition&#45;launch -->
<g id="node40" class="node">
<title>libignition&#45;launch</title>
<g id="a_node40"><a xlink:href="https://github.com/conda-forge/libignition-launch-feedstock" xlink:title="libignition launch">
<ellipse fill="#fde725" stroke="black" cx="2019.73" cy="-422" rx="98.56" ry="18"/>
<text text-anchor="middle" x="2019.73" y="-417.32" font-family="Times,serif" font-size="14.00">libignition launch</text>
</a>
</g>
</g>
<!-- libignition&#45;transport4&#45;&gt;libignition&#45;launch -->
<g id="edge42" class="edge">
<title>libignition&#45;transport4&#45;&gt;libignition&#45;launch</title>
<path fill="none" stroke="black" d="M1949.4,-619.68C1949.46,-589.2 1952.49,-524.62 1974.73,-476 1979.3,-466 1986.32,-456.41 1993.45,-448.2"/>
<polygon fill="black" stroke="black" points="1995.9,-450.72 2000.11,-441 1990.76,-445.97 1995.9,-450.72"/>
</g>
<!-- libignition&#45;sensors&#45;&gt;libignition&#45;gazebo -->
<g id="edge43" class="edge">
<title>libignition&#45;sensors&#45;&gt;libignition&#45;gazebo</title>
<path fill="none" stroke="black" d="M2099.79,-547.7C2097.66,-540.24 2095.11,-531.32 2092.72,-522.97"/>
<polygon fill="black" stroke="black" points="2096.15,-522.21 2090.03,-513.56 2089.41,-524.14 2096.15,-522.21"/>
</g>
<!-- libignition&#45;gui&#45;&gt;libignition&#45;gazebo -->
<g id="edge44" class="edge">
<title>libignition&#45;gui&#45;&gt;libignition&#45;gazebo</title>
<path fill="none" stroke="black" d="M1875.98,-551.42C1916.93,-540.35 1975.07,-524.64 2019.6,-512.6"/>
<polygon fill="black" stroke="black" points="2020.4,-516.01 2029.14,-510.02 2018.58,-509.25 2020.4,-516.01"/>
</g>
<!-- libignition&#45;gui&#45;&gt;libignition&#45;launch -->
<g id="edge45" class="edge">
<title>libignition&#45;gui&#45;&gt;libignition&#45;launch</title>
<path fill="none" stroke="black" d="M1841.07,-548.18C1858.98,-529.17 1890.06,-498 1920.73,-476 1937.42,-464.03 1957.13,-452.94 1974.56,-444.03"/>
<polygon fill="black" stroke="black" points="1975.78,-447.33 1983.16,-439.72 1972.65,-441.07 1975.78,-447.33"/>
</g>
<!-- libignition&#45;gazebo&#45;&gt;libignition&#45;launch -->
<g id="edge46" class="edge">
<title>libignition&#45;gazebo&#45;&gt;libignition&#45;launch</title>
<path fill="none" stroke="black" d="M2069,-476.05C2061.17,-467.63 2051.56,-457.28 2042.91,-447.97"/>
<polygon fill="black" stroke="black" points="2045.72,-445.84 2036.35,-440.9 2040.59,-450.61 2045.72,-445.84"/>
</g>
<!-- libignition&#45;msgs1 -->
<g id="node41" class="node">
<title>libignition&#45;msgs1</title>
<g id="a_node41"><a xlink:href="https://github.com/conda-forge/libignition-msgs1-feedstock" xlink:title="libignition msgs1">
<ellipse fill="#35b779" stroke="black" cx="2166.73" cy="-710" rx="98.03" ry="18"/>
<text text-anchor="middle" x="2166.73" y="-705.33" font-family="Times,serif" font-size="14.00">libignition msgs1</text>
</a>
</g>
</g>
<!-- libignition&#45;msgs1&#45;&gt;libignition&#45;transport4 -->
<g id="edge47" class="edge">
<title>libignition&#45;msgs1&#45;&gt;libignition&#45;transport4</title>
<path fill="none" stroke="black" d="M2119.64,-693.81C2087.36,-683.4 2044.27,-669.5 2009.56,-658.3"/>
<polygon fill="black" stroke="black" points="2010.64,-654.97 2000.05,-655.23 2008.49,-661.63 2010.64,-654.97"/>
</g>
<!-- libignition&#45;msgs1&#45;&gt;libignition&#45;sensors -->
<g id="edge48" class="edge">
<title>libignition&#45;msgs1&#45;&gt;libignition&#45;sensors</title>
<path fill="none" stroke="black" d="M2144.95,-692.2C2134.33,-682.76 2122.43,-670.06 2115.73,-656 2106.77,-637.18 2104.17,-613.7 2103.73,-595.59"/>
<polygon fill="black" stroke="black" points="2107.23,-595.8 2103.72,-585.8 2100.23,-595.81 2107.23,-595.8"/>
</g>
<!-- libignition&#45;msgs1&#45;&gt;libignition&#45;gui -->
<g id="edge49" class="edge">
<title>libignition&#45;msgs1&#45;&gt;libignition&#45;gui</title>
<path fill="none" stroke="black" d="M2069.18,-707.69C1978.59,-704.15 1853.1,-692.56 1821.73,-656 1807.65,-639.59 1810.14,-614.57 1815.3,-595.23"/>
<polygon fill="black" stroke="black" points="1818.61,-596.36 1818.2,-585.78 1811.92,-594.31 1818.61,-596.36"/>
</g>
<!-- libignition&#45;msgs1&#45;&gt;libignition&#45;gazebo -->
<g id="edge50" class="edge">
<title>libignition&#45;msgs1&#45;&gt;libignition&#45;gazebo</title>
<path fill="none" stroke="black" d="M2251.35,-700.52C2314.16,-690.26 2384.63,-667.93 2357.73,-620 2320.83,-554.25 2238.48,-522.9 2173.82,-508.06"/>
<polygon fill="black" stroke="black" points="2174.79,-504.69 2164.27,-505.97 2173.29,-511.53 2174.79,-504.69"/>
</g>
<!-- libignition&#45;msgs1&#45;&gt;libignition&#45;launch -->
<g id="edge51" class="edge">
<title>libignition&#45;msgs1&#45;&gt;libignition&#45;launch</title>
<path fill="none" stroke="black" d="M2245.36,-698.94C2296.96,-690.54 2357.75,-676.59 2373.73,-656 2383.54,-643.36 2378.86,-635.16 2373.73,-620 2335.83,-507.96 2194.97,-458.11 2102.77,-437.09"/>
<polygon fill="black" stroke="black" points="2103.78,-433.73 2093.26,-434.99 2102.27,-440.56 2103.78,-433.73"/>
</g>
<!-- libignition&#45;fuel&#45;tools -->
<g id="node42" class="node">
<title>libignition&#45;fuel&#45;tools</title>
<g id="a_node42"><a xlink:href="https://github.com/conda-forge/libignition-fuel-tools-feedstock" xlink:title="libignition fuel tools">
<ellipse fill="#fde725" stroke="black" cx="2236.73" cy="-638" rx="111.71" ry="18"/>
<text text-anchor="middle" x="2236.73" y="-633.33" font-family="Times,serif" font-size="14.00">libignition fuel tools</text>
</a>
</g>
</g>
<!-- libignition&#45;msgs1&#45;&gt;libignition&#45;fuel&#45;tools -->
<g id="edge52" class="edge">
<title>libignition&#45;msgs1&#45;&gt;libignition&#45;fuel&#45;tools</title>
<path fill="none" stroke="black" d="M2183.68,-692.05C2191.98,-683.75 2202.15,-673.58 2211.35,-664.38"/>
<polygon fill="black" stroke="black" points="2213.79,-666.89 2218.38,-657.35 2208.84,-661.94 2213.79,-666.89"/>
</g>
<!-- libignition&#45;fuel&#45;tools&#45;&gt;libignition&#45;gazebo -->
<g id="edge53" class="edge">
<title>libignition&#45;fuel&#45;tools&#45;&gt;libignition&#45;gazebo</title>
<path fill="none" stroke="black" d="M2237.61,-619.52C2237.65,-599.89 2234.75,-568.16 2217.73,-548 2203.46,-531.1 2183.05,-519.54 2162.48,-511.66"/>
<polygon fill="black" stroke="black" points="2163.76,-508.4 2153.16,-508.36 2161.43,-515 2163.76,-508.4"/>
</g>
<!-- sentencepiece -->
<g id="node44" class="node">
<title>sentencepiece</title>
<g id="a_node44"><a xlink:href="https://github.com/conda-forge/sentencepiece-feedstock" xlink:title="sentencepiece">
<ellipse fill="#35b779" stroke="black" cx="2487.73" cy="-494" rx="82.25" ry="18"/>
<text text-anchor="middle" x="2487.73" y="-489.32" font-family="Times,serif" font-size="14.00">sentencepiece</text>
</a>
</g>
</g>
<!-- cartographer&#45;&gt;sentencepiece -->
<!-- tomviz -->
<g id="node45" class="node">
<title>tomviz</title>
<g id="a_node45"><a xlink:href="https://github.com/conda-forge/tomviz-feedstock" xlink:title="tomviz">
<ellipse fill="#35b779" stroke="black" cx="2487.73" cy="-422" rx="44.9" ry="18"/>
<text text-anchor="middle" x="2487.73" y="-417.32" font-family="Times,serif" font-size="14.00">tomviz</text>
</a>
</g>
</g>
<!-- sentencepiece&#45;&gt;tomviz -->
<!-- grpc_java_plugin -->
<g id="node46" class="node">
<title>grpc_java_plugin</title>
<g id="a_node46"><a xlink:href="https://github.com/conda-forge/grpc_java_plugin-feedstock" xlink:title="grpc_java_plugin">
<ellipse fill="#35b779" stroke="black" cx="2487.73" cy="-350" rx="95.4" ry="18"/>
<text text-anchor="middle" x="2487.73" y="-345.32" font-family="Times,serif" font-size="14.00">grpc_java_plugin</text>
</a>
</g>
</g>
<!-- tomviz&#45;&gt;grpc_java_plugin -->
<!-- singlejar -->
<g id="node47" class="node">
<title>singlejar</title>
<g id="a_node47"><a xlink:href="https://github.com/conda-forge/singlejar-feedstock" xlink:title="singlejar">
<ellipse fill="#35b779" stroke="black" cx="2487.73" cy="-278" rx="54.89" ry="18"/>
<text text-anchor="middle" x="2487.73" y="-273.32" font-family="Times,serif" font-size="14.00">singlejar</text>
</a>
</g>
</g>
<!-- grpc_java_plugin&#45;&gt;singlejar -->
<!-- libpulsar -->
<g id="node48" class="node">
<title>libpulsar</title>
<g id="a_node48"><a xlink:href="https://github.com/conda-forge/libpulsar-feedstock" xlink:title="libpulsar">
<ellipse fill="#35b779" stroke="black" cx="2487.73" cy="-206" rx="55.42" ry="18"/>
<text text-anchor="middle" x="2487.73" y="-201.32" font-family="Times,serif" font-size="14.00">libpulsar</text>
</a>
</g>
</g>
<!-- singlejar&#45;&gt;libpulsar -->
<!-- openvino -->
<g id="node49" class="node">
<title>openvino</title>
<g id="a_node49"><a xlink:href="https://github.com/conda-forge/openvino-feedstock" xlink:title="openvino">
<ellipse fill="#35b779" stroke="black" cx="276.73" cy="-602" rx="56.47" ry="18"/>
<text text-anchor="middle" x="276.73" y="-597.33" font-family="Times,serif" font-size="14.00">openvino</text>
</a>
</g>
</g>
<!-- openvino&#45;&gt;opencv -->
<g id="edge69" class="edge">
<title>openvino&#45;&gt;opencv</title>
<path fill="none" stroke="black" d="M276.73,-583.7C276.73,-576.41 276.73,-567.73 276.73,-559.54"/>
<polygon fill="black" stroke="black" points="280.23,-559.62 276.73,-549.62 273.23,-559.62 280.23,-559.62"/>
</g>
<!-- tensorstore -->
<g id="node50" class="node">
<title>tensorstore</title>
<g id="a_node50"><a xlink:href="https://github.com/conda-forge/tensorstore-feedstock" xlink:title="tensorstore">
<ellipse fill="#35b779" stroke="black" cx="867.73" cy="-162" rx="69.1" ry="18"/>
<text text-anchor="middle" x="867.73" y="-157.32" font-family="Times,serif" font-size="14.00">tensorstore</text>
</a>
</g>
</g>
<!-- gcld3 -->
<g id="node51" class="node">
<title>gcld3</title>
<g id="a_node51"><a xlink:href="https://github.com/conda-forge/gcld3-feedstock" xlink:title="gcld3">
<ellipse fill="#35b779" stroke="black" cx="867.73" cy="-90" rx="38.58" ry="18"/>
<text text-anchor="middle" x="867.73" y="-85.33" font-family="Times,serif" font-size="14.00">gcld3</text>
</a>
</g>
</g>
<!-- tensorstore&#45;&gt;gcld3 -->
<!-- bloaty -->
<g id="node52" class="node">
<title>bloaty</title>
<g id="a_node52"><a xlink:href="https://github.com/conda-forge/bloaty-feedstock" xlink:title="bloaty">
<ellipse fill="#35b779" stroke="black" cx="867.73" cy="-18" rx="42.26" ry="18"/>
<text text-anchor="middle" x="867.73" y="-13.32" font-family="Times,serif" font-size="14.00">bloaty</text>
</a>
</g>
</g>
<!-- gcld3&#45;&gt;bloaty -->
</g>
</svg>
