<?xml version="1.0" encoding="UTF-8" standalone="no"?>
<!DOCTYPE svg PUBLIC "-//W3C//DTD SVG 1.1//EN"
 "http://www.w3.org/Graphics/SVG/1.1/DTD/svg11.dtd">
<!-- Generated by graphviz version 8.1.0 (20230707.2238)
 -->
<!-- Pages: 1 -->
<svg width="1454pt" height="1212pt"
 viewBox="0.00 0.00 1453.71 1212.00" xmlns="http://www.w3.org/2000/svg" xmlns:xlink="http://www.w3.org/1999/xlink">
<g id="graph0" class="graph" transform="scale(1 1) rotate(0) translate(4 1208)">
<polygon fill="white" stroke="none" points="-4,4 -4,-1208 1449.71,-1208 1449.71,4 -4,4"/>
<!-- arrow&#45;cpp -->
<g id="node1" class="node">
<title>arrow&#45;cpp</title>
<g id="a_node1"><a xlink:href="https://github.com/conda-forge/arrow-cpp-feedstock" xlink:title="arrow cpp">
<ellipse fill="#fde725" stroke="black" cx="246.47" cy="-18" rx="61.73" ry="18"/>
<text text-anchor="middle" x="246.47" y="-13.32" font-family="Times,serif" font-size="14.00">arrow cpp</text>
</a>
</g>
</g>
<!-- bazel -->
<g id="node2" class="node">
<title>bazel</title>
<g id="a_node2"><a xlink:href="https://github.com/conda-forge/bazel-feedstock" xlink:title="bazel">
<ellipse fill="#ff8c00" stroke="black" cx="1333.47" cy="-1186" rx="37.53" ry="18"/>
<text text-anchor="middle" x="1333.47" y="-1181.33" font-family="Times,serif" font-size="14.00">bazel</text>
</a>
</g>
</g>
<!-- mosh -->
<g id="node3" class="node">
<title>mosh</title>
<g id="a_node3"><a xlink:href="https://github.com/conda-forge/mosh-feedstock" xlink:title="mosh">
<ellipse fill="#35b779" stroke="black" cx="1333.47" cy="-1114" rx="38.06" ry="18"/>
<text text-anchor="middle" x="1333.47" y="-1109.33" font-family="Times,serif" font-size="14.00">mosh</text>
</a>
</g>
</g>
<!-- bazel&#45;&gt;mosh -->
<!-- onnx -->
<g id="node4" class="node">
<title>onnx</title>
<g id="a_node4"><a xlink:href="https://github.com/conda-forge/onnx-feedstock/pull/104" xlink:title="onnx ✓">
<ellipse fill="#31688e" stroke="black" cx="1333.47" cy="-1042" rx="43.32" ry="18"/>
<text text-anchor="middle" x="1333.47" y="-1037.33" font-family="Times,serif" font-size="14.00" fill="white">onnx ✓</text>
</a>
</g>
</g>
<!-- mosh&#45;&gt;onnx -->
<!-- paraview -->
<g id="node7" class="node">
<title>paraview</title>
<g id="a_node7"><a xlink:href="https://github.com/conda-forge/paraview-feedstock" xlink:title="paraview">
<ellipse fill="#35b779" stroke="black" cx="1333.47" cy="-970" rx="57" ry="18"/>
<text text-anchor="middle" x="1333.47" y="-965.33" font-family="Times,serif" font-size="14.00">paraview</text>
</a>
</g>
</g>
<!-- onnx&#45;&gt;paraview -->
<!-- mysql -->
<g id="node5" class="node">
<title>mysql</title>
<g id="a_node5"><a xlink:href="https://github.com/conda-forge/mysql-feedstock/pull/89" xlink:title="mysql ✓">
<ellipse fill="#31688e" stroke="black" cx="856.47" cy="-314" rx="49.1" ry="18"/>
<text text-anchor="middle" x="856.47" y="-309.32" font-family="Times,serif" font-size="14.00" fill="white">mysql ✓</text>
</a>
</g>
</g>
<!-- mysql&#45;connector&#45;python -->
<g id="node6" class="node">
<title>mysql&#45;connector&#45;python</title>
<g id="a_node6"><a xlink:href="https://github.com/conda-forge/mysql-connector-python-feedstock" xlink:title="mysql connector python">
<ellipse fill="#fde725" stroke="black" cx="856.47" cy="-242" rx="131.7" ry="18"/>
<text text-anchor="middle" x="856.47" y="-237.32" font-family="Times,serif" font-size="14.00">mysql connector python</text>
</a>
</g>
</g>
<!-- mysql&#45;&gt;mysql&#45;connector&#45;python -->
<g id="edge3" class="edge">
<title>mysql&#45;&gt;mysql&#45;connector&#45;python</title>
<path fill="none" stroke="black" d="M856.47,-295.7C856.47,-288.24 856.47,-279.32 856.47,-270.97"/>
<polygon fill="black" stroke="black" points="859.97,-271.1 856.47,-261.1 852.97,-271.1 859.97,-271.1"/>
</g>
<!-- qgis -->
<g id="node8" class="node">
<title>qgis</title>
<g id="a_node8"><a xlink:href="https://github.com/conda-forge/qgis-feedstock" xlink:title="qgis">
<ellipse fill="#35b779" stroke="black" cx="1333.47" cy="-898" rx="32.27" ry="18"/>
<text text-anchor="middle" x="1333.47" y="-893.33" font-family="Times,serif" font-size="14.00">qgis</text>
</a>
</g>
</g>
<!-- paraview&#45;&gt;qgis -->
<!-- tensorflow -->
<g id="node9" class="node">
<title>tensorflow</title>
<g id="a_node9"><a xlink:href="https://github.com/conda-forge/tensorflow-feedstock" xlink:title="tensorflow">
<ellipse fill="#ff8c00" stroke="black" cx="1333.47" cy="-826" rx="63.84" ry="18"/>
<text text-anchor="middle" x="1333.47" y="-821.33" font-family="Times,serif" font-size="14.00">tensorflow</text>
</a>
</g>
</g>
<!-- qgis&#45;&gt;tensorflow -->
<!-- pytorch&#45;cpu -->
<g id="node10" class="node">
<title>pytorch&#45;cpu</title>
<g id="a_node10"><a xlink:href="https://github.com/conda-forge/pytorch-cpu-feedstock/pull/197" xlink:title="pytorch cpu ❎">
<ellipse fill="#31688e" stroke="black" cx="1333.47" cy="-754" rx="85.93" ry="18"/>
<text text-anchor="middle" x="1333.47" y="-749.33" font-family="Times,serif" font-size="14.00" fill="white">pytorch cpu ❎</text>
</a>
</g>
</g>
<!-- tensorflow&#45;&gt;pytorch&#45;cpu -->
<!-- jaxlib -->
<g id="node11" class="node">
<title>jaxlib</title>
<g id="a_node11"><a xlink:href="https://github.com/conda-forge/jaxlib-feedstock" xlink:title="jaxlib">
<ellipse fill="#ff8c00" stroke="black" cx="1333.47" cy="-682" rx="38.58" ry="18"/>
<text text-anchor="middle" x="1333.47" y="-677.33" font-family="Times,serif" font-size="14.00">jaxlib</text>
</a>
</g>
</g>
<!-- pytorch&#45;cpu&#45;&gt;jaxlib -->
<!-- zaber&#45;motion -->
<g id="node13" class="node">
<title>zaber&#45;motion</title>
<g id="a_node13"><a xlink:href="https://github.com/conda-forge/zaber-motion-feedstock" xlink:title="zaber motion">
<ellipse fill="#35b779" stroke="black" cx="1333.47" cy="-610" rx="76.99" ry="18"/>
<text text-anchor="middle" x="1333.47" y="-605.33" font-family="Times,serif" font-size="14.00">zaber motion</text>
</a>
</g>
</g>
<!-- jaxlib&#45;&gt;zaber&#45;motion -->
<!-- orc -->
<g id="node12" class="node">
<title>orc</title>
<g id="a_node12"><a xlink:href="https://github.com/conda-forge/orc-feedstock/pull/68" xlink:title="orc ✓">
<ellipse fill="#31688e" stroke="black" cx="246.47" cy="-90" rx="34.9" ry="18"/>
<text text-anchor="middle" x="246.47" y="-85.33" font-family="Times,serif" font-size="14.00" fill="white">orc ✓</text>
</a>
</g>
</g>
<!-- orc&#45;&gt;arrow&#45;cpp -->
<g id="edge9" class="edge">
<title>orc&#45;&gt;arrow&#45;cpp</title>
<path fill="none" stroke="black" d="M246.47,-71.7C246.47,-64.24 246.47,-55.32 246.47,-46.97"/>
<polygon fill="black" stroke="black" points="249.97,-47.1 246.47,-37.1 242.97,-47.1 249.97,-47.1"/>
</g>
<!-- go&#45;cockroach -->
<g id="node22" class="node">
<title>go&#45;cockroach</title>
<g id="a_node22"><a xlink:href="https://github.com/conda-forge/go-cockroach-feedstock" xlink:title="go cockroach">
<ellipse fill="#35b779" stroke="black" cx="1333.47" cy="-538" rx="76.46" ry="18"/>
<text text-anchor="middle" x="1333.47" y="-533.33" font-family="Times,serif" font-size="14.00">go cockroach</text>
</a>
</g>
</g>
<!-- zaber&#45;motion&#45;&gt;go&#45;cockroach -->
<!-- libignition&#45;transport4 -->
<g id="node14" class="node">
<title>libignition&#45;transport4</title>
<g id="a_node14"><a xlink:href="https://github.com/conda-forge/libignition-transport4-feedstock" xlink:title="libignition transport4">
<ellipse fill="#35b779" stroke="black" cx="911.47" cy="-934" rx="119.08" ry="18"/>
<text text-anchor="middle" x="911.47" y="-929.33" font-family="Times,serif" font-size="14.00">libignition transport4</text>
</a>
</g>
</g>
<!-- libignition&#45;sensors -->
<g id="node15" class="node">
<title>libignition&#45;sensors</title>
<g id="a_node15"><a xlink:href="https://github.com/conda-forge/libignition-sensors-feedstock" xlink:title="libignition sensors">
<ellipse fill="#fde725" stroke="black" cx="604.47" cy="-862" rx="103.82" ry="18"/>
<text text-anchor="middle" x="604.47" y="-857.33" font-family="Times,serif" font-size="14.00">libignition sensors</text>
</a>
</g>
</g>
<!-- libignition&#45;transport4&#45;&gt;libignition&#45;sensors -->
<g id="edge11" class="edge">
<title>libignition&#45;transport4&#45;&gt;libignition&#45;sensors</title>
<path fill="none" stroke="black" d="M847.49,-918.41C797.43,-907 727.84,-891.13 675.96,-879.3"/>
<polygon fill="black" stroke="black" points="677.03,-875.73 666.5,-876.91 675.47,-882.55 677.03,-875.73"/>
</g>
<!-- libignition&#45;gui -->
<g id="node16" class="node">
<title>libignition&#45;gui</title>
<g id="a_node16"><a xlink:href="https://github.com/conda-forge/libignition-gui-feedstock" xlink:title="libignition gui">
<ellipse fill="#fde725" stroke="black" cx="1087.47" cy="-862" rx="81.2" ry="18"/>
<text text-anchor="middle" x="1087.47" y="-857.33" font-family="Times,serif" font-size="14.00">libignition gui</text>
</a>
</g>
</g>
<!-- libignition&#45;transport4&#45;&gt;libignition&#45;gui -->
<g id="edge12" class="edge">
<title>libignition&#45;transport4&#45;&gt;libignition&#45;gui</title>
<path fill="none" stroke="black" d="M952.29,-916.76C978.14,-906.49 1011.69,-893.14 1038.9,-882.32"/>
<polygon fill="black" stroke="black" points="1039.99,-885.26 1047.99,-878.31 1037.4,-878.75 1039.99,-885.26"/>
</g>
<!-- libignition&#45;gazebo -->
<g id="node17" class="node">
<title>libignition&#45;gazebo</title>
<g id="a_node17"><a xlink:href="https://github.com/conda-forge/libignition-gazebo-feedstock" xlink:title="libignition gazebo">
<ellipse fill="#fde725" stroke="black" cx="876.47" cy="-790" rx="100.66" ry="18"/>
<text text-anchor="middle" x="876.47" y="-785.33" font-family="Times,serif" font-size="14.00">libignition gazebo</text>
</a>
</g>
</g>
<!-- libignition&#45;transport4&#45;&gt;libignition&#45;gazebo -->
<g id="edge13" class="edge">
<title>libignition&#45;transport4&#45;&gt;libignition&#45;gazebo</title>
<path fill="none" stroke="black" d="M820.71,-922.08C795.52,-914.39 770.88,-901.51 755.47,-880 746.16,-866.99 746.72,-857.39 755.47,-844 766.27,-827.48 783.49,-816.08 801.58,-808.22"/>
<polygon fill="black" stroke="black" points="802.69,-811.15 810.69,-804.21 800.1,-804.64 802.69,-811.15"/>
</g>
<!-- libignition&#45;launch -->
<g id="node18" class="node">
<title>libignition&#45;launch</title>
<g id="a_node18"><a xlink:href="https://github.com/conda-forge/libignition-launch-feedstock" xlink:title="libignition launch">
<ellipse fill="#fde725" stroke="black" cx="1087.47" cy="-718" rx="98.56" ry="18"/>
<text text-anchor="middle" x="1087.47" y="-713.33" font-family="Times,serif" font-size="14.00">libignition launch</text>
</a>
</g>
</g>
<!-- libignition&#45;transport4&#45;&gt;libignition&#45;launch -->
<g id="edge14" class="edge">
<title>libignition&#45;transport4&#45;&gt;libignition&#45;launch</title>
<path fill="none" stroke="black" d="M1017.21,-925.46C1082.27,-918.36 1157.02,-904.94 1177.47,-880 1213.45,-836.15 1156.57,-775.92 1118.1,-742.96"/>
<polygon fill="black" stroke="black" points="1120.65,-739.69 1110.73,-735.96 1116.16,-745.06 1120.65,-739.69"/>
</g>
<!-- libignition&#45;sensors&#45;&gt;libignition&#45;gazebo -->
<g id="edge15" class="edge">
<title>libignition&#45;sensors&#45;&gt;libignition&#45;gazebo</title>
<path fill="none" stroke="black" d="M660.83,-846.5C704.29,-835.31 764.49,-819.82 810.24,-808.05"/>
<polygon fill="black" stroke="black" points="810.84,-811.25 819.65,-805.37 809.1,-804.47 810.84,-811.25"/>
</g>
<!-- libignition&#45;gui&#45;&gt;libignition&#45;gazebo -->
<g id="edge16" class="edge">
<title>libignition&#45;gui&#45;&gt;libignition&#45;gazebo</title>
<path fill="none" stroke="black" d="M1043.5,-846.41C1011.54,-835.81 968,-821.36 933.38,-809.88"/>
<polygon fill="black" stroke="black" points="934.55,-806.25 923.95,-806.42 932.34,-812.89 934.55,-806.25"/>
</g>
<!-- libignition&#45;gui&#45;&gt;libignition&#45;launch -->
<g id="edge17" class="edge">
<title>libignition&#45;gui&#45;&gt;libignition&#45;launch</title>
<path fill="none" stroke="black" d="M1087.47,-843.59C1087.47,-819.5 1087.47,-775.75 1087.47,-747.03"/>
<polygon fill="black" stroke="black" points="1090.97,-747.11 1087.47,-737.11 1083.97,-747.11 1090.97,-747.11"/>
</g>
<!-- libignition&#45;gazebo&#45;&gt;libignition&#45;launch -->
<g id="edge18" class="edge">
<title>libignition&#45;gazebo&#45;&gt;libignition&#45;launch</title>
<path fill="none" stroke="black" d="M922.78,-773.64C954.66,-763.06 997.21,-748.95 1031.07,-737.71"/>
<polygon fill="black" stroke="black" points="1031.89,-740.8 1040.28,-734.33 1029.68,-734.15 1031.89,-740.8"/>
</g>
<!-- gazebo -->
<g id="node19" class="node">
<title>gazebo</title>
<g id="a_node19"><a xlink:href="https://github.com/conda-forge/gazebo-feedstock" xlink:title="gazebo">
<ellipse fill="#35b779" stroke="black" cx="1333.47" cy="-314" rx="46.47" ry="18"/>
<text text-anchor="middle" x="1333.47" y="-309.32" font-family="Times,serif" font-size="14.00">gazebo</text>
</a>
</g>
</g>
<!-- gazebo&#45;yarp&#45;plugins -->
<g id="node20" class="node">
<title>gazebo&#45;yarp&#45;plugins</title>
<g id="a_node20"><a xlink:href="https://github.com/conda-forge/gazebo-yarp-plugins-feedstock" xlink:title="gazebo yarp plugins">
<ellipse fill="#fde725" stroke="black" cx="1333.47" cy="-242" rx="112.24" ry="18"/>
<text text-anchor="middle" x="1333.47" y="-237.32" font-family="Times,serif" font-size="14.00">gazebo yarp plugins</text>
</a>
</g>
</g>
<!-- gazebo&#45;&gt;gazebo&#45;yarp&#45;plugins -->
<g id="edge19" class="edge">
<title>gazebo&#45;&gt;gazebo&#45;yarp&#45;plugins</title>
<path fill="none" stroke="black" d="M1333.47,-295.7C1333.47,-288.24 1333.47,-279.32 1333.47,-270.97"/>
<polygon fill="black" stroke="black" points="1336.97,-271.1 1333.47,-261.1 1329.97,-271.1 1336.97,-271.1"/>
</g>
<!-- libignition&#45;fuel&#45;tools -->
<g id="node21" class="node">
<title>libignition&#45;fuel&#45;tools</title>
<g id="a_node21"><a xlink:href="https://github.com/conda-forge/libignition-fuel-tools-feedstock" xlink:title="libignition fuel tools">
<ellipse fill="#35b779" stroke="black" cx="876.47" cy="-862" rx="111.71" ry="18"/>
<text text-anchor="middle" x="876.47" y="-857.33" font-family="Times,serif" font-size="14.00">libignition fuel tools</text>
</a>
</g>
</g>
<!-- libignition&#45;fuel&#45;tools&#45;&gt;libignition&#45;gazebo -->
<g id="edge20" class="edge">
<title>libignition&#45;fuel&#45;tools&#45;&gt;libignition&#45;gazebo</title>
<path fill="none" stroke="black" d="M876.47,-843.7C876.47,-836.24 876.47,-827.32 876.47,-818.97"/>
<polygon fill="black" stroke="black" points="879.97,-819.1 876.47,-809.1 872.97,-819.1 879.97,-819.1"/>
</g>
<!-- cartographer -->
<g id="node23" class="node">
<title>cartographer</title>
<g id="a_node23"><a xlink:href="https://github.com/conda-forge/cartographer-feedstock" xlink:title="cartographer">
<ellipse fill="#35b779" stroke="black" cx="1333.47" cy="-466" rx="76.99" ry="18"/>
<text text-anchor="middle" x="1333.47" y="-461.32" font-family="Times,serif" font-size="14.00">cartographer</text>
</a>
</g>
</g>
<!-- go&#45;cockroach&#45;&gt;cartographer -->
<!-- tomviz -->
<g id="node24" class="node">
<title>tomviz</title>
<g id="a_node24"><a xlink:href="https://github.com/conda-forge/tomviz-feedstock" xlink:title="tomviz">
<ellipse fill="#35b779" stroke="black" cx="246.47" cy="-1186" rx="44.9" ry="18"/>
<text text-anchor="middle" x="246.47" y="-1181.33" font-family="Times,serif" font-size="14.00">tomviz</text>
</a>
</g>
</g>
<!-- grpc_java_plugin -->
<g id="node25" class="node">
<title>grpc_java_plugin</title>
<g id="a_node25"><a xlink:href="https://github.com/conda-forge/grpc_java_plugin-feedstock/pull/76" xlink:title="grpc_java_plugin ✓">
<ellipse fill="#31688e" stroke="black" cx="246.47" cy="-1114" rx="103.29" ry="18"/>
<text text-anchor="middle" x="246.47" y="-1109.33" font-family="Times,serif" font-size="14.00" fill="white">grpc_java_plugin ✓</text>
</a>
</g>
</g>
<!-- tomviz&#45;&gt;grpc_java_plugin -->
<!-- imp -->
<g id="node26" class="node">
<title>imp</title>
<g id="a_node26"><a xlink:href="https://github.com/conda-forge/imp-feedstock" xlink:title="imp">
<ellipse fill="#35b779" stroke="black" cx="246.47" cy="-1042" rx="30.16" ry="18"/>
<text text-anchor="middle" x="246.47" y="-1037.33" font-family="Times,serif" font-size="14.00">imp</text>
</a>
</g>
</g>
<!-- grpc_java_plugin&#45;&gt;imp -->
<!-- or&#45;tools -->
<g id="node27" class="node">
<title>or&#45;tools</title>
<g id="a_node27"><a xlink:href="https://github.com/conda-forge/or-tools-feedstock/pull/52" xlink:title="or tools ❎">
<ellipse fill="#31688e" stroke="black" cx="246.47" cy="-970" rx="64.36" ry="18"/>
<text text-anchor="middle" x="246.47" y="-965.33" font-family="Times,serif" font-size="14.00" fill="white">or tools ❎</text>
</a>
</g>
</g>
<!-- imp&#45;&gt;or&#45;tools -->
<!-- bear -->
<g id="node28" class="node">
<title>bear</title>
<g id="a_node28"><a xlink:href="https://github.com/conda-forge/bear-feedstock" xlink:title="bear">
<ellipse fill="#35b779" stroke="black" cx="246.47" cy="-898" rx="33.85" ry="18"/>
<text text-anchor="middle" x="246.47" y="-893.33" font-family="Times,serif" font-size="14.00">bear</text>
</a>
</g>
</g>
<!-- or&#45;tools&#45;&gt;bear -->
<!-- cpp&#45;opentelemetry&#45;sdk -->
<g id="node29" class="node">
<title>cpp&#45;opentelemetry&#45;sdk</title>
<g id="a_node29"><a xlink:href="https://github.com/conda-forge/cpp-opentelemetry-sdk-feedstock" xlink:title="cpp opentelemetry sdk">
<ellipse fill="#35b779" stroke="black" cx="246.47" cy="-826" rx="125.92" ry="18"/>
<text text-anchor="middle" x="246.47" y="-821.33" font-family="Times,serif" font-size="14.00">cpp opentelemetry sdk</text>
</a>
</g>
</g>
<!-- bear&#45;&gt;cpp&#45;opentelemetry&#45;sdk -->
<!-- singlejar -->
<g id="node30" class="node">
<title>singlejar</title>
<g id="a_node30"><a xlink:href="https://github.com/conda-forge/singlejar-feedstock" xlink:title="singlejar">
<ellipse fill="#35b779" stroke="black" cx="246.47" cy="-754" rx="54.89" ry="18"/>
<text text-anchor="middle" x="246.47" y="-749.33" font-family="Times,serif" font-size="14.00">singlejar</text>
</a>
</g>
</g>
<!-- cpp&#45;opentelemetry&#45;sdk&#45;&gt;singlejar -->
<!-- xilinx&#45;runtime -->
<g id="node31" class="node">
<title>xilinx&#45;runtime</title>
<g id="a_node31"><a xlink:href="https://github.com/conda-forge/xilinx-runtime-feedstock" xlink:title="xilinx runtime">
<ellipse fill="#35b779" stroke="black" cx="246.47" cy="-682" rx="81.72" ry="18"/>
<text text-anchor="middle" x="246.47" y="-677.33" font-family="Times,serif" font-size="14.00">xilinx runtime</text>
</a>
</g>
</g>
<!-- singlejar&#45;&gt;xilinx&#45;runtime -->
<!-- arcticdb -->
<g id="node32" class="node">
<title>arcticdb</title>
<g id="a_node32"><a xlink:href="https://github.com/conda-forge/arcticdb-feedstock" xlink:title="arcticdb">
<ellipse fill="#35b779" stroke="black" cx="246.47" cy="-610" rx="52.26" ry="18"/>
<text text-anchor="middle" x="246.47" y="-605.33" font-family="Times,serif" font-size="14.00">arcticdb</text>
</a>
</g>
</g>
<!-- xilinx&#45;runtime&#45;&gt;arcticdb -->
<!-- libpulsar -->
<g id="node40" class="node">
<title>libpulsar</title>
<g id="a_node40"><a xlink:href="https://github.com/conda-forge/libpulsar-feedstock/pull/9" xlink:title="libpulsar ✓">
<ellipse fill="#31688e" stroke="black" cx="246.47" cy="-538" rx="63.31" ry="18"/>
<text text-anchor="middle" x="246.47" y="-533.33" font-family="Times,serif" font-size="14.00" fill="white">libpulsar ✓</text>
</a>
</g>
</g>
<!-- arcticdb&#45;&gt;libpulsar -->
<!-- gz&#45;msgs -->
<g id="node33" class="node">
<title>gz&#45;msgs</title>
<g id="a_node33"><a xlink:href="https://github.com/conda-forge/gz-msgs-feedstock/pull/20" xlink:title="gz msgs ❎">
<ellipse fill="#31688e" stroke="black" cx="207.47" cy="-422" rx="67.52" ry="18"/>
<text text-anchor="middle" x="207.47" y="-417.32" font-family="Times,serif" font-size="14.00" fill="white">gz msgs ❎</text>
</a>
</g>
</g>
<!-- gz&#45;transport -->
<g id="node34" class="node">
<title>gz&#45;transport</title>
<g id="a_node34"><a xlink:href="https://github.com/conda-forge/gz-transport-feedstock" xlink:title="gz transport">
<ellipse fill="#fde725" stroke="black" cx="157.47" cy="-350" rx="73.3" ry="18"/>
<text text-anchor="middle" x="157.47" y="-345.32" font-family="Times,serif" font-size="14.00">gz transport</text>
</a>
</g>
</g>
<!-- gz&#45;msgs&#45;&gt;gz&#45;transport -->
<g id="edge31" class="edge">
<title>gz&#45;msgs&#45;&gt;gz&#45;transport</title>
<path fill="none" stroke="black" d="M195.37,-404.05C189.47,-395.8 182.26,-385.7 175.71,-376.54"/>
<polygon fill="black" stroke="black" points="178.13,-374.89 169.47,-368.79 172.43,-378.96 178.13,-374.89"/>
</g>
<!-- gz&#45;fuel&#45;tools -->
<g id="node35" class="node">
<title>gz&#45;fuel&#45;tools</title>
<g id="a_node35"><a xlink:href="https://github.com/conda-forge/gz-fuel-tools-feedstock" xlink:title="gz fuel tools">
<ellipse fill="#fde725" stroke="black" cx="358.47" cy="-350" rx="72.25" ry="18"/>
<text text-anchor="middle" x="358.47" y="-345.32" font-family="Times,serif" font-size="14.00">gz fuel tools</text>
</a>
</g>
</g>
<!-- gz&#45;msgs&#45;&gt;gz&#45;fuel&#45;tools -->
<g id="edge32" class="edge">
<title>gz&#45;msgs&#45;&gt;gz&#45;fuel&#45;tools</title>
<path fill="none" stroke="black" d="M240.24,-405.81C262.25,-395.61 291.48,-382.06 315.38,-370.98"/>
<polygon fill="black" stroke="black" points="316.65,-373.78 324.25,-366.4 313.71,-367.43 316.65,-373.78"/>
</g>
<!-- gz&#45;gui -->
<g id="node36" class="node">
<title>gz&#45;gui</title>
<g id="a_node36"><a xlink:href="https://github.com/conda-forge/gz-gui-feedstock" xlink:title="gz gui">
<ellipse fill="#fde725" stroke="black" cx="66.47" cy="-278" rx="41.74" ry="18"/>
<text text-anchor="middle" x="66.47" y="-273.32" font-family="Times,serif" font-size="14.00">gz gui</text>
</a>
</g>
</g>
<!-- gz&#45;msgs&#45;&gt;gz&#45;gui -->
<g id="edge33" class="edge">
<title>gz&#45;msgs&#45;&gt;gz&#45;gui</title>
<path fill="none" stroke="black" d="M150.38,-412.07C123.4,-404.81 93.29,-391.68 75.47,-368 62.5,-350.75 60.96,-326.01 62.26,-306.99"/>
<polygon fill="black" stroke="black" points="65.82,-307.57 63.33,-297.28 58.86,-306.88 65.82,-307.57"/>
</g>
<!-- gz&#45;sensors -->
<g id="node37" class="node">
<title>gz&#45;sensors</title>
<g id="a_node37"><a xlink:href="https://github.com/conda-forge/gz-sensors-feedstock" xlink:title="gz sensors">
<ellipse fill="#fde725" stroke="black" cx="266.47" cy="-278" rx="64.36" ry="18"/>
<text text-anchor="middle" x="266.47" y="-273.32" font-family="Times,serif" font-size="14.00">gz sensors</text>
</a>
</g>
</g>
<!-- gz&#45;msgs&#45;&gt;gz&#45;sensors -->
<g id="edge34" class="edge">
<title>gz&#45;msgs&#45;&gt;gz&#45;sensors</title>
<path fill="none" stroke="black" d="M219.28,-403.93C225.88,-393.82 233.88,-380.57 239.47,-368 248.3,-348.18 255.3,-324.65 259.95,-306.77"/>
<polygon fill="black" stroke="black" points="263.57,-307.73 262.61,-297.18 256.78,-306.03 263.57,-307.73"/>
</g>
<!-- gz&#45;sim -->
<g id="node38" class="node">
<title>gz&#45;sim</title>
<g id="a_node38"><a xlink:href="https://github.com/conda-forge/gz-sim-feedstock" xlink:title="gz sim">
<ellipse fill="#fde725" stroke="black" cx="237.47" cy="-206" rx="43.84" ry="18"/>
<text text-anchor="middle" x="237.47" y="-201.33" font-family="Times,serif" font-size="14.00">gz sim</text>
</a>
</g>
</g>
<!-- gz&#45;msgs&#45;&gt;gz&#45;sim -->
<g id="edge35" class="edge">
<title>gz&#45;msgs&#45;&gt;gz&#45;sim</title>
<path fill="none" stroke="black" d="M270.76,-415.3C332.06,-408.31 418.71,-394.05 439.47,-368 492.34,-301.69 356.88,-245.49 282.47,-220.65"/>
<polygon fill="black" stroke="black" points="284,-217.14 273.41,-217.36 281.82,-223.79 284,-217.14"/>
</g>
<!-- gz&#45;launch -->
<g id="node39" class="node">
<title>gz&#45;launch</title>
<g id="a_node39"><a xlink:href="https://github.com/conda-forge/gz-launch-feedstock" xlink:title="gz launch">
<ellipse fill="#fde725" stroke="black" cx="117.47" cy="-134" rx="59.1" ry="18"/>
<text text-anchor="middle" x="117.47" y="-129.32" font-family="Times,serif" font-size="14.00">gz launch</text>
</a>
</g>
</g>
<!-- gz&#45;msgs&#45;&gt;gz&#45;launch -->
<g id="edge36" class="edge">
<title>gz&#45;msgs&#45;&gt;gz&#45;launch</title>
<path fill="none" stroke="black" d="M153.44,-410.95C123.28,-403.2 86.46,-389.96 59.47,-368 30.39,-344.33 25.63,-332.1 15.47,-296 0,-241 51.8,-186.96 87.16,-157.59"/>
<polygon fill="black" stroke="black" points="88.72,-160.02 94.31,-151.02 84.33,-154.58 88.72,-160.02"/>
</g>
<!-- gz&#45;transport&#45;&gt;gz&#45;gui -->
<g id="edge37" class="edge">
<title>gz&#45;transport&#45;&gt;gz&#45;gui</title>
<path fill="none" stroke="black" d="M135.91,-332.41C123.58,-322.93 107.97,-310.92 94.67,-300.69"/>
<polygon fill="black" stroke="black" points="97.39,-297.6 87.33,-294.27 93.12,-303.15 97.39,-297.6"/>
</g>
<!-- gz&#45;transport&#45;&gt;gz&#45;sensors -->
<g id="edge38" class="edge">
<title>gz&#45;transport&#45;&gt;gz&#45;sensors</title>
<path fill="none" stroke="black" d="M182.75,-332.76C197.58,-323.24 216.5,-311.09 232.6,-300.75"/>
<polygon fill="black" stroke="black" points="234.18,-303.25 240.71,-294.91 230.4,-297.36 234.18,-303.25"/>
</g>
<!-- gz&#45;transport&#45;&gt;gz&#45;sim -->
<g id="edge39" class="edge">
<title>gz&#45;transport&#45;&gt;gz&#45;sim</title>
<path fill="none" stroke="black" d="M162.65,-331.87C168.62,-313.39 179.45,-283.46 193.47,-260 199.45,-249.99 207.26,-239.92 214.64,-231.28"/>
<polygon fill="black" stroke="black" points="216.79,-233.99 220.78,-224.18 211.54,-229.36 216.79,-233.99"/>
</g>
<!-- gz&#45;transport&#45;&gt;gz&#45;launch -->
<g id="edge40" class="edge">
<title>gz&#45;transport&#45;&gt;gz&#45;launch</title>
<path fill="none" stroke="black" d="M154.27,-331.85C147.38,-294.99 131.1,-207.92 122.7,-162.96"/>
<polygon fill="black" stroke="black" points="125.97,-162.42 120.69,-153.23 119.09,-163.71 125.97,-162.42"/>
</g>
<!-- gz&#45;fuel&#45;tools&#45;&gt;gz&#45;sim -->
<g id="edge41" class="edge">
<title>gz&#45;fuel&#45;tools&#45;&gt;gz&#45;sim</title>
<path fill="none" stroke="black" d="M358.98,-331.82C358.68,-312.47 355.46,-280.99 339.47,-260 325.4,-241.53 303.06,-228.9 282.86,-220.62"/>
<polygon fill="black" stroke="black" points="284.45,-217.1 273.86,-216.79 281.94,-223.63 284.45,-217.1"/>
</g>
<!-- gz&#45;gui&#45;&gt;gz&#45;sim -->
<g id="edge42" class="edge">
<title>gz&#45;gui&#45;&gt;gz&#45;sim</title>
<path fill="none" stroke="black" d="M95.87,-264.97C123.84,-253.52 166.15,-236.2 197.24,-223.47"/>
<polygon fill="black" stroke="black" points="198.38,-226.37 206.31,-219.35 195.73,-219.9 198.38,-226.37"/>
</g>
<!-- gz&#45;gui&#45;&gt;gz&#45;launch -->
<g id="edge43" class="edge">
<title>gz&#45;gui&#45;&gt;gz&#45;launch</title>
<path fill="none" stroke="black" d="M72.63,-259.87C81.32,-235.67 97.29,-191.21 107.64,-162.39"/>
<polygon fill="black" stroke="black" points="111.21,-163.78 111.3,-153.19 104.63,-161.42 111.21,-163.78"/>
</g>
<!-- gz&#45;sensors&#45;&gt;gz&#45;sim -->
<g id="edge44" class="edge">
<title>gz&#45;sensors&#45;&gt;gz&#45;sim</title>
<path fill="none" stroke="black" d="M259.31,-259.7C256.11,-251.98 252.27,-242.71 248.71,-234.11"/>
<polygon fill="black" stroke="black" points="251.62,-233 244.56,-225.1 245.15,-235.68 251.62,-233"/>
</g>
<!-- gz&#45;sim&#45;&gt;gz&#45;launch -->
<g id="edge45" class="edge">
<title>gz&#45;sim&#45;&gt;gz&#45;launch</title>
<path fill="none" stroke="black" d="M212.9,-190.67C195.77,-180.67 172.64,-167.18 153.44,-155.98"/>
<polygon fill="black" stroke="black" points="155.5,-152.55 145.1,-150.53 151.97,-158.59 155.5,-152.55"/>
</g>
<!-- gnss&#45;sdr -->
<g id="node41" class="node">
<title>gnss&#45;sdr</title>
<g id="a_node41"><a xlink:href="https://github.com/conda-forge/gnss-sdr-feedstock" xlink:title="gnss sdr">
<ellipse fill="#35b779" stroke="black" cx="246.47" cy="-466" rx="53.84" ry="18"/>
<text text-anchor="middle" x="246.47" y="-461.32" font-family="Times,serif" font-size="14.00">gnss sdr</text>
</a>
</g>
</g>
<!-- libpulsar&#45;&gt;gnss&#45;sdr -->
</g>
</svg>
