<?xml version="1.0" encoding="UTF-8" standalone="no"?>
<!DOCTYPE svg PUBLIC "-//W3C//DTD SVG 1.1//EN"
 "http://www.w3.org/Graphics/SVG/1.1/DTD/svg11.dtd">
<!-- Generated by graphviz version 9.0.0 (20231125.0833)
 -->
<!-- Pages: 1 -->
<svg width="2205pt" height="1644pt"
 viewBox="0.00 0.00 2205.21 1644.00" xmlns="http://www.w3.org/2000/svg" xmlns:xlink="http://www.w3.org/1999/xlink">
<g id="graph0" class="graph" transform="scale(1 1) rotate(0) translate(4 1640)">
<polygon fill="white" stroke="none" points="-4,4 -4,-1640 2201.21,-1640 2201.21,4 -4,4"/>
<!-- arrow&#45;cpp -->
<g id="node1" class="node">
<title>arrow&#45;cpp</title>
<g id="a_node1"><a xlink:href="https://github.com/conda-forge/arrow-cpp-feedstock" xlink:title="arrow cpp">
<ellipse fill="#000000" stroke="black" cx="817.24" cy="-1258" rx="61.73" ry="18"/>
<text text-anchor="middle" x="817.24" y="-1253.33" font-family="Times,serif" font-size="14.00" fill="white">arrow cpp</text>
</a>
</g>
</g>
<!-- ray&#45;packages -->
<g id="node2" class="node">
<title>ray&#45;packages</title>
<g id="a_node2"><a xlink:href="https://github.com/conda-forge/ray-packages-feedstock" xlink:title="ray packages">
<ellipse fill="#fde725" stroke="black" cx="476.24" cy="-1186" rx="76.99" ry="18"/>
<text text-anchor="middle" x="476.24" y="-1181.33" font-family="Times,serif" font-size="14.00">ray packages</text>
</a>
</g>
</g>
<!-- arrow&#45;cpp&#45;&gt;ray&#45;packages -->
<g id="edge1" class="edge">
<title>arrow&#45;cpp&#45;&gt;ray&#45;packages</title>
<path fill="none" stroke="black" d="M771.37,-1245.55C763.34,-1243.63 755.06,-1241.71 747.24,-1240 679.33,-1225.12 601.4,-1210.09 546.59,-1199.86"/>
<polygon fill="black" stroke="black" points="547.56,-1196.48 537.09,-1198.09 546.28,-1203.36 547.56,-1196.48"/>
</g>
<!-- arcticdb -->
<g id="node3" class="node">
<title>arcticdb</title>
<g id="a_node3"><a xlink:href="https://github.com/conda-forge/arcticdb-feedstock" xlink:title="arcticdb">
<ellipse fill="#fde725" stroke="black" cx="817.24" cy="-1186" rx="52.26" ry="18"/>
<text text-anchor="middle" x="817.24" y="-1181.33" font-family="Times,serif" font-size="14.00">arcticdb</text>
</a>
</g>
</g>
<!-- arrow&#45;cpp&#45;&gt;arcticdb -->
<g id="edge2" class="edge">
<title>arrow&#45;cpp&#45;&gt;arcticdb</title>
<path fill="none" stroke="black" d="M817.24,-1239.7C817.24,-1232.41 817.24,-1223.73 817.24,-1215.54"/>
<polygon fill="black" stroke="black" points="820.74,-1215.62 817.24,-1205.62 813.74,-1215.62 820.74,-1215.62"/>
</g>
<!-- bazel -->
<g id="node4" class="node">
<title>bazel</title>
<g id="a_node4"><a xlink:href="https://github.com/conda-forge/bazel-feedstock/pull/231" xlink:title="bazel ❎">
<ellipse fill="#31688e" stroke="black" cx="439.24" cy="-854" rx="52.79" ry="18"/>
<text text-anchor="middle" x="439.24" y="-849.33" font-family="Times,serif" font-size="14.00" fill="white">bazel ❎</text>
</a>
</g>
</g>
<!-- mosh -->
<g id="node5" class="node">
<title>mosh</title>
<g id="a_node5"><a xlink:href="https://github.com/conda-forge/mosh-feedstock" xlink:title="mosh">
<ellipse fill="#35b779" stroke="black" cx="439.24" cy="-782" rx="38.06" ry="18"/>
<text text-anchor="middle" x="439.24" y="-777.33" font-family="Times,serif" font-size="14.00">mosh</text>
</a>
</g>
</g>
<!-- bazel&#45;&gt;mosh -->
<!-- mysql -->
<g id="node6" class="node">
<title>mysql</title>
<g id="a_node6"><a xlink:href="https://github.com/conda-forge/mysql-feedstock/pull/97" xlink:title="mysql ✓">
<ellipse fill="#31688e" stroke="black" cx="439.24" cy="-710" rx="49.1" ry="18"/>
<text text-anchor="middle" x="439.24" y="-705.33" font-family="Times,serif" font-size="14.00" fill="white">mysql ✓</text>
</a>
</g>
</g>
<!-- mosh&#45;&gt;mysql -->
<!-- onnx -->
<g id="node7" class="node">
<title>onnx</title>
<g id="a_node7"><a xlink:href="https://github.com/conda-forge/onnx-feedstock/pull/109" xlink:title="onnx ✓">
<ellipse fill="#31688e" stroke="black" cx="439.24" cy="-638" rx="43.32" ry="18"/>
<text text-anchor="middle" x="439.24" y="-633.33" font-family="Times,serif" font-size="14.00" fill="white">onnx ✓</text>
</a>
</g>
</g>
<!-- mysql&#45;&gt;onnx -->
<!-- paraview -->
<g id="node8" class="node">
<title>paraview</title>
<g id="a_node8"><a xlink:href="https://github.com/conda-forge/paraview-feedstock" xlink:title="paraview">
<ellipse fill="#35b779" stroke="black" cx="439.24" cy="-566" rx="57" ry="18"/>
<text text-anchor="middle" x="439.24" y="-561.33" font-family="Times,serif" font-size="14.00">paraview</text>
</a>
</g>
</g>
<!-- onnx&#45;&gt;paraview -->
<!-- qgis -->
<g id="node12" class="node">
<title>qgis</title>
<g id="a_node12"><a xlink:href="https://github.com/conda-forge/qgis-feedstock" xlink:title="qgis">
<ellipse fill="#35b779" stroke="black" cx="439.24" cy="-494" rx="32.27" ry="18"/>
<text text-anchor="middle" x="439.24" y="-489.32" font-family="Times,serif" font-size="14.00">qgis</text>
</a>
</g>
</g>
<!-- paraview&#45;&gt;qgis -->
<!-- opencv -->
<g id="node9" class="node">
<title>opencv</title>
<g id="a_node9"><a xlink:href="https://github.com/conda-forge/opencv-feedstock" xlink:title="opencv">
<ellipse fill="#35b779" stroke="black" cx="247.24" cy="-1258" rx="46.47" ry="18"/>
<text text-anchor="middle" x="247.24" y="-1253.33" font-family="Times,serif" font-size="14.00">opencv</text>
</a>
</g>
</g>
<!-- opencv&#45;&gt;ray&#45;packages -->
<g id="edge7" class="edge">
<title>opencv&#45;&gt;ray&#45;packages</title>
<path fill="none" stroke="black" d="M282.73,-1246C289.22,-1244 295.93,-1241.93 302.24,-1240 341.46,-1227.96 385.7,-1214.49 419.75,-1204.14"/>
<polygon fill="black" stroke="black" points="420.43,-1207.59 428.98,-1201.34 418.39,-1200.9 420.43,-1207.59"/>
</g>
<!-- imp -->
<g id="node10" class="node">
<title>imp</title>
<g id="a_node10"><a xlink:href="https://github.com/conda-forge/imp-feedstock" xlink:title="imp">
<ellipse fill="#fde725" stroke="black" cx="272.24" cy="-1186" rx="30.16" ry="18"/>
<text text-anchor="middle" x="272.24" y="-1181.33" font-family="Times,serif" font-size="14.00">imp</text>
</a>
</g>
</g>
<!-- opencv&#45;&gt;imp -->
<g id="edge8" class="edge">
<title>opencv&#45;&gt;imp</title>
<path fill="none" stroke="black" d="M253.42,-1239.7C256.11,-1232.15 259.34,-1223.12 262.35,-1214.68"/>
<polygon fill="black" stroke="black" points="265.55,-1216.12 265.62,-1205.53 258.96,-1213.77 265.55,-1216.12"/>
</g>
<!-- gazebo&#45;yarp&#45;plugins -->
<g id="node11" class="node">
<title>gazebo&#45;yarp&#45;plugins</title>
<g id="a_node11"><a xlink:href="https://github.com/conda-forge/gazebo-yarp-plugins-feedstock" xlink:title="gazebo yarp plugins">
<ellipse fill="#fde725" stroke="black" cx="112.24" cy="-1186" rx="112.24" ry="18"/>
<text text-anchor="middle" x="112.24" y="-1181.33" font-family="Times,serif" font-size="14.00">gazebo yarp plugins</text>
</a>
</g>
</g>
<!-- opencv&#45;&gt;gazebo&#45;yarp&#45;plugins -->
<g id="edge9" class="edge">
<title>opencv&#45;&gt;gazebo&#45;yarp&#45;plugins</title>
<path fill="none" stroke="black" d="M220.24,-1243C201.46,-1233.27 176.05,-1220.09 154.59,-1208.96"/>
<polygon fill="black" stroke="black" points="156.25,-1205.88 145.76,-1204.38 153.03,-1212.09 156.25,-1205.88"/>
</g>
<!-- r&#45;protolite -->
<g id="node13" class="node">
<title>r&#45;protolite</title>
<g id="a_node13"><a xlink:href="https://github.com/conda-forge/r-protolite-feedstock/pull/39" xlink:title="r protolite ❎">
<ellipse fill="#31688e" stroke="black" cx="439.24" cy="-422" rx="77.52" ry="18"/>
<text text-anchor="middle" x="439.24" y="-417.32" font-family="Times,serif" font-size="14.00" fill="white">r protolite ❎</text>
</a>
</g>
</g>
<!-- qgis&#45;&gt;r&#45;protolite -->
<!-- mongodb -->
<g id="node16" class="node">
<title>mongodb</title>
<g id="a_node16"><a xlink:href="https://github.com/conda-forge/mongodb-feedstock/pull/87" xlink:title="mongodb ❎">
<ellipse fill="#31688e" stroke="black" cx="439.24" cy="-350" rx="72.78" ry="18"/>
<text text-anchor="middle" x="439.24" y="-345.32" font-family="Times,serif" font-size="14.00" fill="white">mongodb ❎</text>
</a>
</g>
</g>
<!-- r&#45;protolite&#45;&gt;mongodb -->
<!-- pyaudi -->
<g id="node14" class="node">
<title>pyaudi</title>
<g id="a_node14"><a xlink:href="https://github.com/conda-forge/pyaudi-feedstock" xlink:title="pyaudi">
<ellipse fill="#fde725" stroke="black" cx="1182.24" cy="-18" rx="44.9" ry="18"/>
<text text-anchor="middle" x="1182.24" y="-13.32" font-family="Times,serif" font-size="14.00">pyaudi</text>
</a>
</g>
</g>
<!-- tensorflow -->
<g id="node15" class="node">
<title>tensorflow</title>
<g id="a_node15"><a xlink:href="https://github.com/conda-forge/tensorflow-feedstock" xlink:title="tensorflow">
<ellipse fill="#fde725" stroke="black" cx="679.24" cy="-1186" rx="63.84" ry="18"/>
<text text-anchor="middle" x="679.24" y="-1181.33" font-family="Times,serif" font-size="14.00">tensorflow</text>
</a>
</g>
</g>
<!-- zaber&#45;motion -->
<g id="node18" class="node">
<title>zaber&#45;motion</title>
<g id="a_node18"><a xlink:href="https://github.com/conda-forge/zaber-motion-feedstock" xlink:title="zaber motion">
<ellipse fill="#35b779" stroke="black" cx="439.24" cy="-278" rx="76.99" ry="18"/>
<text text-anchor="middle" x="439.24" y="-273.32" font-family="Times,serif" font-size="14.00">zaber motion</text>
</a>
</g>
</g>
<!-- mongodb&#45;&gt;zaber&#45;motion -->
<!-- pytorch&#45;cpu -->
<g id="node17" class="node">
<title>pytorch&#45;cpu</title>
<g id="a_node17"><a xlink:href="https://github.com/conda-forge/pytorch-cpu-feedstock" xlink:title="pytorch cpu">
<ellipse fill="#000000" stroke="black" cx="532.24" cy="-1258" rx="70.68" ry="18"/>
<text text-anchor="middle" x="532.24" y="-1253.33" font-family="Times,serif" font-size="14.00" fill="white">pytorch cpu</text>
</a>
</g>
</g>
<!-- pytorch&#45;cpu&#45;&gt;ray&#45;packages -->
<g id="edge13" class="edge">
<title>pytorch&#45;cpu&#45;&gt;ray&#45;packages</title>
<path fill="none" stroke="black" d="M518.68,-1240.05C512.08,-1231.8 504,-1221.7 496.67,-1212.54"/>
<polygon fill="black" stroke="black" points="499.59,-1210.59 490.61,-1204.97 494.13,-1214.97 499.59,-1210.59"/>
</g>
<!-- go&#45;cockroach -->
<g id="node29" class="node">
<title>go&#45;cockroach</title>
<g id="a_node29"><a xlink:href="https://github.com/conda-forge/go-cockroach-feedstock" xlink:title="go cockroach">
<ellipse fill="#35b779" stroke="black" cx="439.24" cy="-206" rx="76.46" ry="18"/>
<text text-anchor="middle" x="439.24" y="-201.33" font-family="Times,serif" font-size="14.00">go cockroach</text>
</a>
</g>
</g>
<!-- zaber&#45;motion&#45;&gt;go&#45;cockroach -->
<!-- jaxlib -->
<g id="node19" class="node">
<title>jaxlib</title>
<g id="a_node19"><a xlink:href="https://github.com/conda-forge/jaxlib-feedstock" xlink:title="jaxlib">
<ellipse fill="#000000" stroke="black" cx="308.24" cy="-1330" rx="38.58" ry="18"/>
<text text-anchor="middle" x="308.24" y="-1325.33" font-family="Times,serif" font-size="14.00" fill="white">jaxlib</text>
</a>
</g>
</g>
<!-- mujoco -->
<g id="node20" class="node">
<title>mujoco</title>
<g id="a_node20"><a xlink:href="https://github.com/conda-forge/mujoco-feedstock" xlink:title="mujoco">
<ellipse fill="#fde725" stroke="black" cx="358.24" cy="-1258" rx="47" ry="18"/>
<text text-anchor="middle" x="358.24" y="-1253.33" font-family="Times,serif" font-size="14.00">mujoco</text>
</a>
</g>
</g>
<!-- jaxlib&#45;&gt;mujoco -->
<g id="edge15" class="edge">
<title>jaxlib&#45;&gt;mujoco</title>
<path fill="none" stroke="black" d="M320.09,-1312.41C326,-1304.13 333.29,-1293.92 339.91,-1284.66"/>
<polygon fill="black" stroke="black" points="342.63,-1286.87 345.59,-1276.7 336.93,-1282.8 342.63,-1286.87"/>
</g>
<!-- mujoco&#45;&gt;ray&#45;packages -->
<g id="edge16" class="edge">
<title>mujoco&#45;&gt;ray&#45;packages</title>
<path fill="none" stroke="black" d="M382.97,-1242.33C399.28,-1232.65 420.93,-1219.81 439.27,-1208.93"/>
<polygon fill="black" stroke="black" points="440.95,-1212 447.76,-1203.89 437.37,-1205.98 440.95,-1212"/>
</g>
<!-- obake -->
<g id="node21" class="node">
<title>obake</title>
<g id="a_node21"><a xlink:href="https://github.com/conda-forge/obake-feedstock/pull/45" xlink:title="obake ❎">
<ellipse fill="#31688e" stroke="black" cx="1182.24" cy="-90" rx="55.94" ry="18"/>
<text text-anchor="middle" x="1182.24" y="-85.33" font-family="Times,serif" font-size="14.00" fill="white">obake ❎</text>
</a>
</g>
</g>
<!-- obake&#45;&gt;pyaudi -->
<g id="edge17" class="edge">
<title>obake&#45;&gt;pyaudi</title>
<path fill="none" stroke="black" d="M1182.24,-71.7C1182.24,-64.41 1182.24,-55.73 1182.24,-47.54"/>
<polygon fill="black" stroke="black" points="1185.74,-47.62 1182.24,-37.62 1178.74,-47.62 1185.74,-47.62"/>
</g>
<!-- libignition&#45;transport4 -->
<g id="node22" class="node">
<title>libignition&#45;transport4</title>
<g id="a_node22"><a xlink:href="https://github.com/conda-forge/libignition-transport4-feedstock" xlink:title="libignition transport4">
<ellipse fill="#35b779" stroke="black" cx="1895.24" cy="-1366" rx="119.08" ry="18"/>
<text text-anchor="middle" x="1895.24" y="-1361.33" font-family="Times,serif" font-size="14.00">libignition transport4</text>
</a>
</g>
</g>
<!-- libignition&#45;sensors -->
<g id="node23" class="node">
<title>libignition&#45;sensors</title>
<g id="a_node23"><a xlink:href="https://github.com/conda-forge/libignition-sensors-feedstock" xlink:title="libignition sensors">
<ellipse fill="#fde725" stroke="black" cx="1588.24" cy="-1294" rx="103.82" ry="18"/>
<text text-anchor="middle" x="1588.24" y="-1289.33" font-family="Times,serif" font-size="14.00">libignition sensors</text>
</a>
</g>
</g>
<!-- libignition&#45;transport4&#45;&gt;libignition&#45;sensors -->
<g id="edge18" class="edge">
<title>libignition&#45;transport4&#45;&gt;libignition&#45;sensors</title>
<path fill="none" stroke="black" d="M1831.25,-1350.41C1781.4,-1339.04 1712.19,-1323.26 1660.37,-1311.45"/>
<polygon fill="black" stroke="black" points="1661.27,-1308.06 1650.74,-1309.25 1659.71,-1314.89 1661.27,-1308.06"/>
</g>
<!-- libignition&#45;gui -->
<g id="node24" class="node">
<title>libignition&#45;gui</title>
<g id="a_node24"><a xlink:href="https://github.com/conda-forge/libignition-gui-feedstock" xlink:title="libignition gui">
<ellipse fill="#fde725" stroke="black" cx="2071.24" cy="-1294" rx="81.2" ry="18"/>
<text text-anchor="middle" x="2071.24" y="-1289.33" font-family="Times,serif" font-size="14.00">libignition gui</text>
</a>
</g>
</g>
<!-- libignition&#45;transport4&#45;&gt;libignition&#45;gui -->
<g id="edge19" class="edge">
<title>libignition&#45;transport4&#45;&gt;libignition&#45;gui</title>
<path fill="none" stroke="black" d="M1936.06,-1348.76C1961.79,-1338.53 1995.15,-1325.26 2022.3,-1314.46"/>
<polygon fill="black" stroke="black" points="2023.34,-1317.82 2031.34,-1310.87 2020.76,-1311.31 2023.34,-1317.82"/>
</g>
<!-- libignition&#45;gazebo -->
<g id="node25" class="node">
<title>libignition&#45;gazebo</title>
<g id="a_node25"><a xlink:href="https://github.com/conda-forge/libignition-gazebo-feedstock" xlink:title="libignition gazebo">
<ellipse fill="#fde725" stroke="black" cx="1860.24" cy="-1222" rx="100.66" ry="18"/>
<text text-anchor="middle" x="1860.24" y="-1217.33" font-family="Times,serif" font-size="14.00">libignition gazebo</text>
</a>
</g>
</g>
<!-- libignition&#45;transport4&#45;&gt;libignition&#45;gazebo -->
<g id="edge20" class="edge">
<title>libignition&#45;transport4&#45;&gt;libignition&#45;gazebo</title>
<path fill="none" stroke="black" d="M1804.48,-1354.08C1779.29,-1346.39 1754.65,-1333.51 1739.24,-1312 1729.92,-1298.99 1730.48,-1289.39 1739.24,-1276 1749.94,-1259.63 1766.93,-1248.29 1784.84,-1240.44"/>
<polygon fill="black" stroke="black" points="1786.05,-1243.72 1794.05,-1236.77 1783.46,-1237.22 1786.05,-1243.72"/>
</g>
<!-- libignition&#45;launch -->
<g id="node26" class="node">
<title>libignition&#45;launch</title>
<g id="a_node26"><a xlink:href="https://github.com/conda-forge/libignition-launch-feedstock" xlink:title="libignition launch">
<ellipse fill="#fde725" stroke="black" cx="2071.24" cy="-1150" rx="98.56" ry="18"/>
<text text-anchor="middle" x="2071.24" y="-1145.33" font-family="Times,serif" font-size="14.00">libignition launch</text>
</a>
</g>
</g>
<!-- libignition&#45;transport4&#45;&gt;libignition&#45;launch -->
<g id="edge21" class="edge">
<title>libignition&#45;transport4&#45;&gt;libignition&#45;launch</title>
<path fill="none" stroke="black" d="M2000.97,-1357.46C2066.04,-1350.36 2140.78,-1336.94 2161.24,-1312 2197.21,-1268.15 2140.33,-1207.92 2101.86,-1174.96"/>
<polygon fill="black" stroke="black" points="2104.57,-1172.66 2094.66,-1168.93 2100.09,-1178.03 2104.57,-1172.66"/>
</g>
<!-- libignition&#45;sensors&#45;&gt;libignition&#45;gazebo -->
<g id="edge22" class="edge">
<title>libignition&#45;sensors&#45;&gt;libignition&#45;gazebo</title>
<path fill="none" stroke="black" d="M1644.6,-1278.5C1687.87,-1267.36 1747.74,-1251.95 1793.42,-1240.19"/>
<polygon fill="black" stroke="black" points="1794.14,-1243.62 1802.95,-1237.74 1792.39,-1236.85 1794.14,-1243.62"/>
</g>
<!-- libignition&#45;gui&#45;&gt;libignition&#45;gazebo -->
<g id="edge23" class="edge">
<title>libignition&#45;gui&#45;&gt;libignition&#45;gazebo</title>
<path fill="none" stroke="black" d="M2027.26,-1278.41C1995.44,-1267.85 1952.14,-1253.49 1917.6,-1242.03"/>
<polygon fill="black" stroke="black" points="1918.75,-1238.72 1908.15,-1238.9 1916.54,-1245.37 1918.75,-1238.72"/>
</g>
<!-- libignition&#45;gui&#45;&gt;libignition&#45;launch -->
<g id="edge24" class="edge">
<title>libignition&#45;gui&#45;&gt;libignition&#45;launch</title>
<path fill="none" stroke="black" d="M2071.24,-1275.59C2071.24,-1251.61 2071.24,-1208.14 2071.24,-1179.42"/>
<polygon fill="black" stroke="black" points="2074.74,-1179.62 2071.24,-1169.62 2067.74,-1179.62 2074.74,-1179.62"/>
</g>
<!-- libignition&#45;gazebo&#45;&gt;libignition&#45;launch -->
<g id="edge25" class="edge">
<title>libignition&#45;gazebo&#45;&gt;libignition&#45;launch</title>
<path fill="none" stroke="black" d="M1906.54,-1205.64C1938.29,-1195.11 1980.6,-1181.07 2014.39,-1169.86"/>
<polygon fill="black" stroke="black" points="2015.21,-1173.27 2023.6,-1166.8 2013.01,-1166.63 2015.21,-1173.27"/>
</g>
<!-- gazebo -->
<g id="node27" class="node">
<title>gazebo</title>
<g id="a_node27"><a xlink:href="https://github.com/conda-forge/gazebo-feedstock" xlink:title="gazebo">
<ellipse fill="#35b779" stroke="black" cx="112.24" cy="-1258" rx="46.47" ry="18"/>
<text text-anchor="middle" x="112.24" y="-1253.33" font-family="Times,serif" font-size="14.00">gazebo</text>
</a>
</g>
</g>
<!-- gazebo&#45;&gt;gazebo&#45;yarp&#45;plugins -->
<g id="edge26" class="edge">
<title>gazebo&#45;&gt;gazebo&#45;yarp&#45;plugins</title>
<path fill="none" stroke="black" d="M112.24,-1239.7C112.24,-1232.41 112.24,-1223.73 112.24,-1215.54"/>
<polygon fill="black" stroke="black" points="115.74,-1215.62 112.24,-1205.62 108.74,-1215.62 115.74,-1215.62"/>
</g>
<!-- libignition&#45;fuel&#45;tools -->
<g id="node28" class="node">
<title>libignition&#45;fuel&#45;tools</title>
<g id="a_node28"><a xlink:href="https://github.com/conda-forge/libignition-fuel-tools-feedstock" xlink:title="libignition fuel tools">
<ellipse fill="#35b779" stroke="black" cx="1860.24" cy="-1294" rx="111.71" ry="18"/>
<text text-anchor="middle" x="1860.24" y="-1289.33" font-family="Times,serif" font-size="14.00">libignition fuel tools</text>
</a>
</g>
</g>
<!-- libignition&#45;fuel&#45;tools&#45;&gt;libignition&#45;gazebo -->
<g id="edge27" class="edge">
<title>libignition&#45;fuel&#45;tools&#45;&gt;libignition&#45;gazebo</title>
<path fill="none" stroke="black" d="M1860.24,-1275.7C1860.24,-1268.41 1860.24,-1259.73 1860.24,-1251.54"/>
<polygon fill="black" stroke="black" points="1863.74,-1251.62 1860.24,-1241.62 1856.74,-1251.62 1863.74,-1251.62"/>
</g>
<!-- cartographer -->
<g id="node31" class="node">
<title>cartographer</title>
<g id="a_node31"><a xlink:href="https://github.com/conda-forge/cartographer-feedstock" xlink:title="cartographer">
<ellipse fill="#35b779" stroke="black" cx="439.24" cy="-134" rx="76.99" ry="18"/>
<text text-anchor="middle" x="439.24" y="-129.32" font-family="Times,serif" font-size="14.00">cartographer</text>
</a>
</g>
</g>
<!-- go&#45;cockroach&#45;&gt;cartographer -->
<!-- google&#45;cloud&#45;cpp -->
<g id="node30" class="node">
<title>google&#45;cloud&#45;cpp</title>
<g id="a_node30"><a xlink:href="https://github.com/conda-forge/google-cloud-cpp-feedstock" xlink:title="google cloud cpp">
<ellipse fill="#fde725" stroke="black" cx="1198.24" cy="-386" rx="95.4" ry="18"/>
<text text-anchor="middle" x="1198.24" y="-381.32" font-family="Times,serif" font-size="14.00">google cloud cpp</text>
</a>
</g>
</g>
<!-- s2geometry -->
<g id="node32" class="node">
<title>s2geometry</title>
<g id="a_node32"><a xlink:href="https://github.com/conda-forge/s2geometry-feedstock/pull/18" xlink:title="s2geometry ❎">
<ellipse fill="#31688e" stroke="black" cx="439.24" cy="-90" rx="85.93" ry="18"/>
<text text-anchor="middle" x="439.24" y="-85.33" font-family="Times,serif" font-size="14.00" fill="white">s2geometry ❎</text>
</a>
</g>
</g>
<!-- s2geography -->
<g id="node33" class="node">
<title>s2geography</title>
<g id="a_node33"><a xlink:href="https://github.com/conda-forge/s2geography-feedstock" xlink:title="s2geography">
<ellipse fill="#fde725" stroke="black" cx="439.24" cy="-18" rx="75.94" ry="18"/>
<text text-anchor="middle" x="439.24" y="-13.32" font-family="Times,serif" font-size="14.00">s2geography</text>
</a>
</g>
</g>
<!-- s2geometry&#45;&gt;s2geography -->
<g id="edge30" class="edge">
<title>s2geometry&#45;&gt;s2geography</title>
<path fill="none" stroke="black" d="M439.24,-71.7C439.24,-64.41 439.24,-55.73 439.24,-47.54"/>
<polygon fill="black" stroke="black" points="442.74,-47.62 439.24,-37.62 435.74,-47.62 442.74,-47.62"/>
</g>
<!-- dm&#45;tree -->
<g id="node34" class="node">
<title>dm&#45;tree</title>
<g id="a_node34"><a xlink:href="https://github.com/conda-forge/dm-tree-feedstock/pull/39" xlink:title="dm tree ✓">
<ellipse fill="#31688e" stroke="black" cx="679.24" cy="-1258" rx="58.57" ry="18"/>
<text text-anchor="middle" x="679.24" y="-1253.33" font-family="Times,serif" font-size="14.00" fill="white">dm tree ✓</text>
</a>
</g>
</g>
<!-- dm&#45;tree&#45;&gt;ray&#45;packages -->
<g id="edge31" class="edge">
<title>dm&#45;tree&#45;&gt;ray&#45;packages</title>
<path fill="none" stroke="black" d="M641.53,-1244C609.84,-1233.07 564.19,-1217.33 528.89,-1205.16"/>
<polygon fill="black" stroke="black" points="530.32,-1201.95 519.73,-1202 528.04,-1208.57 530.32,-1201.95"/>
</g>
<!-- dm&#45;tree&#45;&gt;tensorflow -->
<g id="edge32" class="edge">
<title>dm&#45;tree&#45;&gt;tensorflow</title>
<path fill="none" stroke="black" d="M679.24,-1239.7C679.24,-1232.41 679.24,-1223.73 679.24,-1215.54"/>
<polygon fill="black" stroke="black" points="682.74,-1215.62 679.24,-1205.62 675.74,-1215.62 682.74,-1215.62"/>
</g>
<!-- tomviz -->
<g id="node35" class="node">
<title>tomviz</title>
<g id="a_node35"><a xlink:href="https://github.com/conda-forge/tomviz-feedstock" xlink:title="tomviz">
<ellipse fill="#35b779" stroke="black" cx="1182.24" cy="-1618" rx="44.9" ry="18"/>
<text text-anchor="middle" x="1182.24" y="-1613.33" font-family="Times,serif" font-size="14.00">tomviz</text>
</a>
</g>
</g>
<!-- protozfits -->
<g id="node36" class="node">
<title>protozfits</title>
<g id="a_node36"><a xlink:href="https://github.com/conda-forge/protozfits-feedstock/pull/34" xlink:title="protozfits ❎">
<ellipse fill="#31688e" stroke="black" cx="1182.24" cy="-1546" rx="74.36" ry="18"/>
<text text-anchor="middle" x="1182.24" y="-1541.33" font-family="Times,serif" font-size="14.00" fill="white">protozfits ❎</text>
</a>
</g>
</g>
<!-- tomviz&#45;&gt;protozfits -->
<!-- or&#45;tools -->
<g id="node37" class="node">
<title>or&#45;tools</title>
<g id="a_node37"><a xlink:href="https://github.com/conda-forge/or-tools-feedstock" xlink:title="or tools">
<ellipse fill="#35b779" stroke="black" cx="1182.24" cy="-1474" rx="49.1" ry="18"/>
<text text-anchor="middle" x="1182.24" y="-1469.33" font-family="Times,serif" font-size="14.00">or tools</text>
</a>
</g>
</g>
<!-- protozfits&#45;&gt;or&#45;tools -->
<!-- bear -->
<g id="node38" class="node">
<title>bear</title>
<g id="a_node38"><a xlink:href="https://github.com/conda-forge/bear-feedstock" xlink:title="bear">
<ellipse fill="#35b779" stroke="black" cx="1182.24" cy="-1402" rx="33.85" ry="18"/>
<text text-anchor="middle" x="1182.24" y="-1397.33" font-family="Times,serif" font-size="14.00">bear</text>
</a>
</g>
</g>
<!-- or&#45;tools&#45;&gt;bear -->
<!-- cpp&#45;opentelemetry&#45;sdk -->
<g id="node39" class="node">
<title>cpp&#45;opentelemetry&#45;sdk</title>
<g id="a_node39"><a xlink:href="https://github.com/conda-forge/cpp-opentelemetry-sdk-feedstock" xlink:title="cpp opentelemetry sdk">
<ellipse fill="#35b779" stroke="black" cx="1182.24" cy="-1330" rx="125.92" ry="18"/>
<text text-anchor="middle" x="1182.24" y="-1325.33" font-family="Times,serif" font-size="14.00">cpp opentelemetry sdk</text>
</a>
</g>
</g>
<!-- bear&#45;&gt;cpp&#45;opentelemetry&#45;sdk -->
<!-- singlejar -->
<g id="node40" class="node">
<title>singlejar</title>
<g id="a_node40"><a xlink:href="https://github.com/conda-forge/singlejar-feedstock" xlink:title="singlejar">
<ellipse fill="#35b779" stroke="black" cx="1182.24" cy="-1258" rx="54.89" ry="18"/>
<text text-anchor="middle" x="1182.24" y="-1253.33" font-family="Times,serif" font-size="14.00">singlejar</text>
</a>
</g>
</g>
<!-- cpp&#45;opentelemetry&#45;sdk&#45;&gt;singlejar -->
<!-- xilinx&#45;runtime -->
<g id="node41" class="node">
<title>xilinx&#45;runtime</title>
<g id="a_node41"><a xlink:href="https://github.com/conda-forge/xilinx-runtime-feedstock" xlink:title="xilinx runtime">
<ellipse fill="#35b779" stroke="black" cx="1182.24" cy="-1186" rx="81.72" ry="18"/>
<text text-anchor="middle" x="1182.24" y="-1181.33" font-family="Times,serif" font-size="14.00">xilinx runtime</text>
</a>
</g>
</g>
<!-- singlejar&#45;&gt;xilinx&#45;runtime -->
<!-- libpulsar -->
<g id="node42" class="node">
<title>libpulsar</title>
<g id="a_node42"><a xlink:href="https://github.com/conda-forge/libpulsar-feedstock/pull/15" xlink:title="libpulsar ❎">
<ellipse fill="#31688e" stroke="black" cx="1182.24" cy="-1114" rx="70.68" ry="18"/>
<text text-anchor="middle" x="1182.24" y="-1109.33" font-family="Times,serif" font-size="14.00" fill="white">libpulsar ❎</text>
</a>
</g>
</g>
<!-- xilinx&#45;runtime&#45;&gt;libpulsar -->
<!-- gnss&#45;sdr -->
<g id="node51" class="node">
<title>gnss&#45;sdr</title>
<g id="a_node51"><a xlink:href="https://github.com/conda-forge/gnss-sdr-feedstock" xlink:title="gnss sdr">
<ellipse fill="#35b779" stroke="black" cx="1182.24" cy="-1042" rx="53.84" ry="18"/>
<text text-anchor="middle" x="1182.24" y="-1037.33" font-family="Times,serif" font-size="14.00">gnss sdr</text>
</a>
</g>
</g>
<!-- libpulsar&#45;&gt;gnss&#45;sdr -->
<!-- gz&#45;msgs -->
<g id="node43" class="node">
<title>gz&#45;msgs</title>
<g id="a_node43"><a xlink:href="https://github.com/conda-forge/gz-msgs-feedstock/pull/30" xlink:title="gz msgs ❎">
<ellipse fill="#31688e" stroke="black" cx="1802.24" cy="-638" rx="67.52" ry="18"/>
<text text-anchor="middle" x="1802.24" y="-633.33" font-family="Times,serif" font-size="14.00" fill="white">gz msgs ❎</text>
</a>
</g>
</g>
<!-- gz&#45;transport -->
<g id="node44" class="node">
<title>gz&#45;transport</title>
<g id="a_node44"><a xlink:href="https://github.com/conda-forge/gz-transport-feedstock" xlink:title="gz transport">
<ellipse fill="#fde725" stroke="black" cx="1752.24" cy="-566" rx="73.3" ry="18"/>
<text text-anchor="middle" x="1752.24" y="-561.33" font-family="Times,serif" font-size="14.00">gz transport</text>
</a>
</g>
</g>
<!-- gz&#45;msgs&#45;&gt;gz&#45;transport -->
<g id="edge40" class="edge">
<title>gz&#45;msgs&#45;&gt;gz&#45;transport</title>
<path fill="none" stroke="black" d="M1790.13,-620.05C1784.36,-611.97 1777.32,-602.12 1770.89,-593.11"/>
<polygon fill="black" stroke="black" points="1773.77,-591.12 1765.11,-585.02 1768.07,-595.19 1773.77,-591.12"/>
</g>
<!-- gz&#45;fuel&#45;tools -->
<g id="node45" class="node">
<title>gz&#45;fuel&#45;tools</title>
<g id="a_node45"><a xlink:href="https://github.com/conda-forge/gz-fuel-tools-feedstock" xlink:title="gz fuel tools">
<ellipse fill="#fde725" stroke="black" cx="1953.24" cy="-566" rx="72.25" ry="18"/>
<text text-anchor="middle" x="1953.24" y="-561.33" font-family="Times,serif" font-size="14.00">gz fuel tools</text>
</a>
</g>
</g>
<!-- gz&#45;msgs&#45;&gt;gz&#45;fuel&#45;tools -->
<g id="edge41" class="edge">
<title>gz&#45;msgs&#45;&gt;gz&#45;fuel&#45;tools</title>
<path fill="none" stroke="black" d="M1835,-621.81C1856.91,-611.65 1885.99,-598.18 1909.82,-587.13"/>
<polygon fill="black" stroke="black" points="1911.04,-590.42 1918.64,-583.04 1908.1,-584.07 1911.04,-590.42"/>
</g>
<!-- gz&#45;gui -->
<g id="node46" class="node">
<title>gz&#45;gui</title>
<g id="a_node46"><a xlink:href="https://github.com/conda-forge/gz-gui-feedstock" xlink:title="gz gui">
<ellipse fill="#fde725" stroke="black" cx="1661.24" cy="-494" rx="41.74" ry="18"/>
<text text-anchor="middle" x="1661.24" y="-489.32" font-family="Times,serif" font-size="14.00">gz gui</text>
</a>
</g>
</g>
<!-- gz&#45;msgs&#45;&gt;gz&#45;gui -->
<g id="edge42" class="edge">
<title>gz&#45;msgs&#45;&gt;gz&#45;gui</title>
<path fill="none" stroke="black" d="M1745.14,-628.07C1718.17,-620.81 1688.05,-607.68 1670.24,-584 1657.39,-566.92 1655.75,-542.47 1656.99,-523.53"/>
<polygon fill="black" stroke="black" points="1660.45,-524.08 1657.94,-513.78 1653.49,-523.39 1660.45,-524.08"/>
</g>
<!-- gz&#45;sensors -->
<g id="node47" class="node">
<title>gz&#45;sensors</title>
<g id="a_node47"><a xlink:href="https://github.com/conda-forge/gz-sensors-feedstock" xlink:title="gz sensors">
<ellipse fill="#fde725" stroke="black" cx="1861.24" cy="-494" rx="64.36" ry="18"/>
<text text-anchor="middle" x="1861.24" y="-489.32" font-family="Times,serif" font-size="14.00">gz sensors</text>
</a>
</g>
</g>
<!-- gz&#45;msgs&#45;&gt;gz&#45;sensors -->
<g id="edge43" class="edge">
<title>gz&#45;msgs&#45;&gt;gz&#45;sensors</title>
<path fill="none" stroke="black" d="M1814.04,-619.93C1820.64,-609.82 1828.64,-596.57 1834.24,-584 1842.98,-564.37 1849.93,-541.1 1854.58,-523.28"/>
<polygon fill="black" stroke="black" points="1857.96,-524.2 1857.01,-513.65 1851.17,-522.5 1857.96,-524.2"/>
</g>
<!-- gz&#45;sim -->
<g id="node48" class="node">
<title>gz&#45;sim</title>
<g id="a_node48"><a xlink:href="https://github.com/conda-forge/gz-sim-feedstock" xlink:title="gz sim">
<ellipse fill="#fde725" stroke="black" cx="1832.24" cy="-422" rx="43.84" ry="18"/>
<text text-anchor="middle" x="1832.24" y="-417.32" font-family="Times,serif" font-size="14.00">gz sim</text>
</a>
</g>
</g>
<!-- gz&#45;msgs&#45;&gt;gz&#45;sim -->
<g id="edge44" class="edge">
<title>gz&#45;msgs&#45;&gt;gz&#45;sim</title>
<path fill="none" stroke="black" d="M1865.52,-631.3C1926.82,-624.31 2013.47,-610.05 2034.24,-584 2087,-517.83 1952.2,-461.72 1877.69,-436.8"/>
<polygon fill="black" stroke="black" points="1879.2,-433.61 1868.61,-433.83 1877.02,-440.27 1879.2,-433.61"/>
</g>
<!-- gz&#45;launch -->
<g id="node49" class="node">
<title>gz&#45;launch</title>
<g id="a_node49"><a xlink:href="https://github.com/conda-forge/gz-launch-feedstock" xlink:title="gz launch">
<ellipse fill="#fde725" stroke="black" cx="1712.24" cy="-350" rx="59.1" ry="18"/>
<text text-anchor="middle" x="1712.24" y="-345.32" font-family="Times,serif" font-size="14.00">gz launch</text>
</a>
</g>
</g>
<!-- gz&#45;msgs&#45;&gt;gz&#45;launch -->
<g id="edge45" class="edge">
<title>gz&#45;msgs&#45;&gt;gz&#45;launch</title>
<path fill="none" stroke="black" d="M1748.21,-626.95C1718.04,-619.2 1681.23,-605.96 1654.24,-584 1625.15,-560.33 1620.39,-548.1 1610.24,-512 1594.83,-457.24 1646.12,-403.41 1681.48,-373.97"/>
<polygon fill="black" stroke="black" points="1683.32,-376.98 1688.89,-367.97 1678.92,-371.54 1683.32,-376.98"/>
</g>
<!-- gz&#45;transport&#45;&gt;gz&#45;gui -->
<g id="edge46" class="edge">
<title>gz&#45;transport&#45;&gt;gz&#45;gui</title>
<path fill="none" stroke="black" d="M1730.67,-548.41C1718.58,-539.11 1703.32,-527.38 1690.2,-517.28"/>
<polygon fill="black" stroke="black" points="1692.35,-514.52 1682.29,-511.2 1688.09,-520.07 1692.35,-514.52"/>
</g>
<!-- gz&#45;transport&#45;&gt;gz&#45;sensors -->
<g id="edge47" class="edge">
<title>gz&#45;transport&#45;&gt;gz&#45;sensors</title>
<path fill="none" stroke="black" d="M1777.52,-548.76C1792.2,-539.33 1810.91,-527.32 1826.91,-517.04"/>
<polygon fill="black" stroke="black" points="1828.67,-520.07 1835.2,-511.72 1824.89,-514.18 1828.67,-520.07"/>
</g>
<!-- gz&#45;transport&#45;&gt;gz&#45;sim -->
<g id="edge48" class="edge">
<title>gz&#45;transport&#45;&gt;gz&#45;sim</title>
<path fill="none" stroke="black" d="M1757.41,-547.87C1763.38,-529.39 1774.22,-499.46 1788.24,-476 1794.16,-466.1 1801.86,-456.13 1809.17,-447.55"/>
<polygon fill="black" stroke="black" points="1811.56,-450.13 1815.55,-440.32 1806.31,-445.5 1811.56,-450.13"/>
</g>
<!-- gz&#45;transport&#45;&gt;gz&#45;launch -->
<g id="edge49" class="edge">
<title>gz&#45;transport&#45;&gt;gz&#45;launch</title>
<path fill="none" stroke="black" d="M1749.03,-547.85C1742.17,-511.14 1726.01,-424.66 1717.57,-379.53"/>
<polygon fill="black" stroke="black" points="1721.01,-378.91 1715.74,-369.72 1714.13,-380.19 1721.01,-378.91"/>
</g>
<!-- gz&#45;fuel&#45;tools&#45;&gt;gz&#45;sim -->
<g id="edge50" class="edge">
<title>gz&#45;fuel&#45;tools&#45;&gt;gz&#45;sim</title>
<path fill="none" stroke="black" d="M1953.74,-547.82C1953.44,-528.47 1950.23,-496.99 1934.24,-476 1920.3,-457.7 1898.23,-445.13 1878.18,-436.85"/>
<polygon fill="black" stroke="black" points="1879.62,-433.65 1869.03,-433.33 1877.11,-440.19 1879.62,-433.65"/>
</g>
<!-- gz&#45;gui&#45;&gt;gz&#45;sim -->
<g id="edge51" class="edge">
<title>gz&#45;gui&#45;&gt;gz&#45;sim</title>
<path fill="none" stroke="black" d="M1690.63,-480.97C1718.48,-469.57 1760.54,-452.35 1791.59,-439.64"/>
<polygon fill="black" stroke="black" points="1792.75,-442.95 1800.68,-435.92 1790.1,-436.47 1792.75,-442.95"/>
</g>
<!-- gz&#45;gui&#45;&gt;gz&#45;launch -->
<g id="edge52" class="edge">
<title>gz&#45;gui&#45;&gt;gz&#45;launch</title>
<path fill="none" stroke="black" d="M1667.39,-475.87C1676.04,-451.78 1691.91,-407.6 1702.26,-378.77"/>
<polygon fill="black" stroke="black" points="1705.47,-380.21 1705.55,-369.61 1698.88,-377.84 1705.47,-380.21"/>
</g>
<!-- gz&#45;sensors&#45;&gt;gz&#45;sim -->
<g id="edge53" class="edge">
<title>gz&#45;sensors&#45;&gt;gz&#45;sim</title>
<path fill="none" stroke="black" d="M1854.07,-475.7C1850.94,-468.15 1847.2,-459.12 1843.7,-450.68"/>
<polygon fill="black" stroke="black" points="1846.96,-449.4 1839.9,-441.5 1840.5,-452.08 1846.96,-449.4"/>
</g>
<!-- gz&#45;sim&#45;&gt;gz&#45;launch -->
<g id="edge54" class="edge">
<title>gz&#45;sim&#45;&gt;gz&#45;launch</title>
<path fill="none" stroke="black" d="M1807.66,-406.67C1790.69,-396.77 1767.83,-383.43 1748.73,-372.29"/>
<polygon fill="black" stroke="black" points="1750.57,-369.31 1740.17,-367.29 1747.04,-375.36 1750.57,-369.31"/>
</g>
<!-- labmaze -->
<g id="node50" class="node">
<title>labmaze</title>
<g id="a_node50"><a xlink:href="https://github.com/conda-forge/labmaze-feedstock/pull/11" xlink:title="labmaze ❎">
<ellipse fill="#31688e" stroke="black" cx="433.24" cy="-1330" rx="68.04" ry="18"/>
<text text-anchor="middle" x="433.24" y="-1325.33" font-family="Times,serif" font-size="14.00" fill="white">labmaze ❎</text>
</a>
</g>
</g>
<!-- labmaze&#45;&gt;ray&#45;packages -->
<g id="edge55" class="edge">
<title>labmaze&#45;&gt;ray&#45;packages</title>
<path fill="none" stroke="black" d="M435.81,-1311.65C438.76,-1293.5 444.24,-1264.31 452.24,-1240 455.01,-1231.56 458.72,-1222.65 462.38,-1214.61"/>
<polygon fill="black" stroke="black" points="465.51,-1216.19 466.62,-1205.66 459.18,-1213.2 465.51,-1216.19"/>
</g>
<!-- tensorstore -->
<g id="node52" class="node">
<title>tensorstore</title>
<g id="a_node52"><a xlink:href="https://github.com/conda-forge/tensorstore-feedstock/pull/23" xlink:title="tensorstore ✓">
<ellipse fill="#31688e" stroke="black" cx="1182.24" cy="-970" rx="76.99" ry="18"/>
<text text-anchor="middle" x="1182.24" y="-965.33" font-family="Times,serif" font-size="14.00" fill="white">tensorstore ✓</text>
</a>
</g>
</g>
<!-- gnss&#45;sdr&#45;&gt;tensorstore -->
<!-- gcld3 -->
<g id="node53" class="node">
<title>gcld3</title>
<g id="a_node53"><a xlink:href="https://github.com/conda-forge/gcld3-feedstock" xlink:title="gcld3">
<ellipse fill="#35b779" stroke="black" cx="1182.24" cy="-898" rx="38.58" ry="18"/>
<text text-anchor="middle" x="1182.24" y="-893.33" font-family="Times,serif" font-size="14.00">gcld3</text>
</a>
</g>
</g>
<!-- tensorstore&#45;&gt;gcld3 -->
<!-- bloaty -->
<g id="node54" class="node">
<title>bloaty</title>
<g id="a_node54"><a xlink:href="https://github.com/conda-forge/bloaty-feedstock" xlink:title="bloaty">
<ellipse fill="#35b779" stroke="black" cx="1841.24" cy="-54" rx="42.26" ry="18"/>
<text text-anchor="middle" x="1841.24" y="-49.33" font-family="Times,serif" font-size="14.00">bloaty</text>
</a>
</g>
</g>
<!-- google&#45;cloud&#45;cpp&#45;compute -->
<g id="node55" class="node">
<title>google&#45;cloud&#45;cpp&#45;compute</title>
<g id="a_node55"><a xlink:href="https://github.com/conda-forge/google-cloud-cpp-compute-feedstock" xlink:title="google cloud cpp compute">
<ellipse fill="#35b779" stroke="black" cx="1028.24" cy="-458" rx="141.7" ry="18"/>
<text text-anchor="middle" x="1028.24" y="-453.32" font-family="Times,serif" font-size="14.00">google cloud cpp compute</text>
</a>
</g>
</g>
<!-- google&#45;cloud&#45;cpp&#45;compute&#45;&gt;google&#45;cloud&#45;cpp -->
<g id="edge59" class="edge">
<title>google&#45;cloud&#45;cpp&#45;compute&#45;&gt;google&#45;cloud&#45;cpp</title>
<path fill="none" stroke="black" d="M1068.52,-440.41C1092.67,-430.47 1123.53,-417.76 1149.1,-407.23"/>
<polygon fill="black" stroke="black" points="1150.39,-410.49 1158.3,-403.44 1147.72,-404.02 1150.39,-410.49"/>
</g>
<!-- google&#45;cloud&#45;cpp&#45;bigquery -->
<g id="node56" class="node">
<title>google&#45;cloud&#45;cpp&#45;bigquery</title>
<g id="a_node56"><a xlink:href="https://github.com/conda-forge/google-cloud-cpp-bigquery-feedstock" xlink:title="google cloud cpp bigquery">
<ellipse fill="#35b779" stroke="black" cx="1198.24" cy="-530" rx="143.28" ry="18"/>
<text text-anchor="middle" x="1198.24" y="-525.33" font-family="Times,serif" font-size="14.00">google cloud cpp bigquery</text>
</a>
</g>
</g>
<!-- google&#45;cloud&#45;cpp&#45;bigquery&#45;&gt;google&#45;cloud&#45;cpp -->
<g id="edge60" class="edge">
<title>google&#45;cloud&#45;cpp&#45;bigquery&#45;&gt;google&#45;cloud&#45;cpp</title>
<path fill="none" stroke="black" d="M1198.24,-511.59C1198.24,-487.61 1198.24,-444.14 1198.24,-415.42"/>
<polygon fill="black" stroke="black" points="1201.74,-415.62 1198.24,-405.62 1194.74,-415.62 1201.74,-415.62"/>
</g>
<!-- google&#45;cloud&#45;cpp&#45;ai -->
<g id="node57" class="node">
<title>google&#45;cloud&#45;cpp&#45;ai</title>
<g id="a_node57"><a xlink:href="https://github.com/conda-forge/google-cloud-cpp-ai-feedstock" xlink:title="google cloud cpp ai">
<ellipse fill="#35b779" stroke="black" cx="1369.24" cy="-602" rx="107.5" ry="18"/>
<text text-anchor="middle" x="1369.24" y="-597.33" font-family="Times,serif" font-size="14.00">google cloud cpp ai</text>
</a>
</g>
</g>
<!-- google&#45;cloud&#45;cpp&#45;ai&#45;&gt;google&#45;cloud&#45;cpp -->
<g id="edge61" class="edge">
<title>google&#45;cloud&#45;cpp&#45;ai&#45;&gt;google&#45;cloud&#45;cpp</title>
<path fill="none" stroke="black" d="M1368.88,-583.7C1367.76,-564.81 1363.78,-534.27 1350.24,-512 1322.81,-466.91 1273.14,-430.72 1238.05,-409.11"/>
<polygon fill="black" stroke="black" points="1240.24,-406.34 1229.87,-404.19 1236.63,-412.34 1240.24,-406.34"/>
</g>
</g>
</svg>
