<?xml version="1.0" encoding="UTF-8" standalone="no"?>
<!DOCTYPE svg PUBLIC "-//W3C//DTD SVG 1.1//EN"
 "http://www.w3.org/Graphics/SVG/1.1/DTD/svg11.dtd">
<!-- Generated by graphviz version 8.1.0 (20230707.2238)
 -->
<!-- Pages: 1 -->
<svg width="1384pt" height="1140pt"
 viewBox="0.00 0.00 1384.19 1140.00" xmlns="http://www.w3.org/2000/svg" xmlns:xlink="http://www.w3.org/1999/xlink">
<g id="graph0" class="graph" transform="scale(1 1) rotate(0) translate(4 1136)">
<polygon fill="white" stroke="none" points="-4,4 -4,-1136 1380.19,-1136 1380.19,4 -4,4"/>
<!-- arrow&#45;cpp -->
<g id="node1" class="node">
<title>arrow&#45;cpp</title>
<g id="a_node1"><a xlink:href="https://github.com/conda-forge/arrow-cpp-feedstock" xlink:title="arrow cpp">
<ellipse fill="#fde725" stroke="black" cx="603.36" cy="-242" rx="61.73" ry="18"/>
<text text-anchor="middle" x="603.36" y="-237.32" font-family="Times,serif" font-size="14.00">arrow cpp</text>
</a>
</g>
</g>
<!-- dask&#45;sql -->
<g id="node2" class="node">
<title>dask&#45;sql</title>
<g id="a_node2"><a xlink:href="https://github.com/conda-forge/dask-sql-feedstock" xlink:title="dask sql">
<ellipse fill="#fde725" stroke="black" cx="603.36" cy="-170" rx="52.26" ry="18"/>
<text text-anchor="middle" x="603.36" y="-165.32" font-family="Times,serif" font-size="14.00">dask sql</text>
</a>
</g>
</g>
<!-- arrow&#45;cpp&#45;&gt;dask&#45;sql -->
<g id="edge1" class="edge">
<title>arrow&#45;cpp&#45;&gt;dask&#45;sql</title>
<path fill="none" stroke="black" d="M603.36,-223.7C603.36,-216.24 603.36,-207.32 603.36,-198.97"/>
<polygon fill="black" stroke="black" points="606.86,-199.1 603.36,-189.1 599.86,-199.1 606.86,-199.1"/>
</g>
<!-- bazel -->
<g id="node3" class="node">
<title>bazel</title>
<g id="a_node3"><a xlink:href="https://github.com/conda-forge/bazel-feedstock/pull/207" xlink:title="bazel ❎">
<ellipse fill="#31688e" stroke="black" cx="234.36" cy="-1114" rx="52.79" ry="18"/>
<text text-anchor="middle" x="234.36" y="-1109.33" font-family="Times,serif" font-size="14.00" fill="white">bazel ❎</text>
</a>
</g>
</g>
<!-- mosh -->
<g id="node4" class="node">
<title>mosh</title>
<g id="a_node4"><a xlink:href="https://github.com/conda-forge/mosh-feedstock" xlink:title="mosh">
<ellipse fill="#35b779" stroke="black" cx="234.36" cy="-1042" rx="38.06" ry="18"/>
<text text-anchor="middle" x="234.36" y="-1037.33" font-family="Times,serif" font-size="14.00">mosh</text>
</a>
</g>
</g>
<!-- bazel&#45;&gt;mosh -->
<!-- mysql&#45;connector&#45;python -->
<g id="node5" class="node">
<title>mysql&#45;connector&#45;python</title>
<g id="a_node5"><a xlink:href="https://github.com/conda-forge/mysql-connector-python-feedstock" xlink:title="mysql connector python">
<ellipse fill="#ff8c00" stroke="black" cx="234.36" cy="-970" rx="131.7" ry="18"/>
<text text-anchor="middle" x="234.36" y="-965.33" font-family="Times,serif" font-size="14.00">mysql connector python</text>
</a>
</g>
</g>
<!-- mosh&#45;&gt;mysql&#45;connector&#45;python -->
<!-- onnx -->
<g id="node6" class="node">
<title>onnx</title>
<g id="a_node6"><a xlink:href="https://github.com/conda-forge/onnx-feedstock" xlink:title="onnx">
<ellipse fill="#ff8c00" stroke="black" cx="234.36" cy="-898" rx="35.42" ry="18"/>
<text text-anchor="middle" x="234.36" y="-893.33" font-family="Times,serif" font-size="14.00">onnx</text>
</a>
</g>
</g>
<!-- mysql&#45;connector&#45;python&#45;&gt;onnx -->
<!-- paraview -->
<g id="node7" class="node">
<title>paraview</title>
<g id="a_node7"><a xlink:href="https://github.com/conda-forge/paraview-feedstock" xlink:title="paraview">
<ellipse fill="#35b779" stroke="black" cx="234.36" cy="-826" rx="57" ry="18"/>
<text text-anchor="middle" x="234.36" y="-821.33" font-family="Times,serif" font-size="14.00">paraview</text>
</a>
</g>
</g>
<!-- onnx&#45;&gt;paraview -->
<!-- qgis -->
<g id="node8" class="node">
<title>qgis</title>
<g id="a_node8"><a xlink:href="https://github.com/conda-forge/qgis-feedstock" xlink:title="qgis">
<ellipse fill="#35b779" stroke="black" cx="234.36" cy="-754" rx="32.27" ry="18"/>
<text text-anchor="middle" x="234.36" y="-749.33" font-family="Times,serif" font-size="14.00">qgis</text>
</a>
</g>
</g>
<!-- paraview&#45;&gt;qgis -->
<!-- r&#45;protolite -->
<g id="node9" class="node">
<title>r&#45;protolite</title>
<g id="a_node9"><a xlink:href="https://github.com/conda-forge/r-protolite-feedstock" xlink:title="r protolite">
<ellipse fill="#35b779" stroke="black" cx="234.36" cy="-682" rx="62.26" ry="18"/>
<text text-anchor="middle" x="234.36" y="-677.33" font-family="Times,serif" font-size="14.00">r protolite</text>
</a>
</g>
</g>
<!-- qgis&#45;&gt;r&#45;protolite -->
<!-- pytorch&#45;cpu -->
<g id="node11" class="node">
<title>pytorch&#45;cpu</title>
<g id="a_node11"><a xlink:href="https://github.com/conda-forge/pytorch-cpu-feedstock/pull/189" xlink:title="pytorch cpu ❎">
<ellipse fill="#31688e" stroke="black" cx="234.36" cy="-610" rx="85.93" ry="18"/>
<text text-anchor="middle" x="234.36" y="-605.33" font-family="Times,serif" font-size="14.00" fill="white">pytorch cpu ❎</text>
</a>
</g>
</g>
<!-- r&#45;protolite&#45;&gt;pytorch&#45;cpu -->
<!-- tensorflow -->
<g id="node10" class="node">
<title>tensorflow</title>
<g id="a_node10"><a xlink:href="https://github.com/conda-forge/tensorflow-feedstock" xlink:title="tensorflow">
<ellipse fill="#fde725" stroke="black" cx="234.36" cy="-18" rx="63.84" ry="18"/>
<text text-anchor="middle" x="234.36" y="-13.32" font-family="Times,serif" font-size="14.00">tensorflow</text>
</a>
</g>
</g>
<!-- zaber&#45;motion -->
<g id="node12" class="node">
<title>zaber&#45;motion</title>
<g id="a_node12"><a xlink:href="https://github.com/conda-forge/zaber-motion-feedstock" xlink:title="zaber motion">
<ellipse fill="#35b779" stroke="black" cx="234.36" cy="-538" rx="76.99" ry="18"/>
<text text-anchor="middle" x="234.36" y="-533.33" font-family="Times,serif" font-size="14.00">zaber motion</text>
</a>
</g>
</g>
<!-- pytorch&#45;cpu&#45;&gt;zaber&#45;motion -->
<!-- go&#45;cockroach -->
<g id="node23" class="node">
<title>go&#45;cockroach</title>
<g id="a_node23"><a xlink:href="https://github.com/conda-forge/go-cockroach-feedstock" xlink:title="go cockroach">
<ellipse fill="#35b779" stroke="black" cx="234.36" cy="-466" rx="76.46" ry="18"/>
<text text-anchor="middle" x="234.36" y="-461.32" font-family="Times,serif" font-size="14.00">go cockroach</text>
</a>
</g>
</g>
<!-- zaber&#45;motion&#45;&gt;go&#45;cockroach -->
<!-- jaxlib -->
<g id="node13" class="node">
<title>jaxlib</title>
<g id="a_node13"><a xlink:href="https://github.com/conda-forge/jaxlib-feedstock" xlink:title="jaxlib">
<ellipse fill="#ff8c00" stroke="black" cx="234.36" cy="-90" rx="38.58" ry="18"/>
<text text-anchor="middle" x="234.36" y="-85.33" font-family="Times,serif" font-size="14.00">jaxlib</text>
</a>
</g>
</g>
<!-- jaxlib&#45;&gt;tensorflow -->
<g id="edge10" class="edge">
<title>jaxlib&#45;&gt;tensorflow</title>
<path fill="none" stroke="black" d="M234.36,-71.7C234.36,-64.24 234.36,-55.32 234.36,-46.97"/>
<polygon fill="black" stroke="black" points="237.86,-47.1 234.36,-37.1 230.86,-47.1 237.86,-47.1"/>
</g>
<!-- libignition&#45;transport4 -->
<g id="node14" class="node">
<title>libignition&#45;transport4</title>
<g id="a_node14"><a xlink:href="https://github.com/conda-forge/libignition-transport4-feedstock" xlink:title="libignition transport4">
<ellipse fill="#fde725" stroke="black" cx="942.36" cy="-826" rx="119.08" ry="18"/>
<text text-anchor="middle" x="942.36" y="-821.33" font-family="Times,serif" font-size="14.00">libignition transport4</text>
</a>
</g>
</g>
<!-- libignition&#45;sensors -->
<g id="node15" class="node">
<title>libignition&#45;sensors</title>
<g id="a_node15"><a xlink:href="https://github.com/conda-forge/libignition-sensors-feedstock" xlink:title="libignition sensors">
<ellipse fill="#fde725" stroke="black" cx="1097.36" cy="-754" rx="103.82" ry="18"/>
<text text-anchor="middle" x="1097.36" y="-749.33" font-family="Times,serif" font-size="14.00">libignition sensors</text>
</a>
</g>
</g>
<!-- libignition&#45;transport4&#45;&gt;libignition&#45;sensors -->
<g id="edge11" class="edge">
<title>libignition&#45;transport4&#45;&gt;libignition&#45;sensors</title>
<path fill="none" stroke="black" d="M979.09,-808.41C1000.69,-798.66 1028.2,-786.23 1051.25,-775.82"/>
<polygon fill="black" stroke="black" points="1052.49,-778.65 1060.16,-771.35 1049.61,-772.28 1052.49,-778.65"/>
</g>
<!-- libignition&#45;gui -->
<g id="node16" class="node">
<title>libignition&#45;gui</title>
<g id="a_node16"><a xlink:href="https://github.com/conda-forge/libignition-gui-feedstock" xlink:title="libignition gui">
<ellipse fill="#fde725" stroke="black" cx="818.36" cy="-754" rx="81.2" ry="18"/>
<text text-anchor="middle" x="818.36" y="-749.33" font-family="Times,serif" font-size="14.00">libignition gui</text>
</a>
</g>
</g>
<!-- libignition&#45;transport4&#45;&gt;libignition&#45;gui -->
<g id="edge12" class="edge">
<title>libignition&#45;transport4&#45;&gt;libignition&#45;gui</title>
<path fill="none" stroke="black" d="M912.66,-808.23C895.7,-798.66 874.26,-786.56 856.11,-776.31"/>
<polygon fill="black" stroke="black" points="858.39,-773.02 847.97,-771.15 854.95,-779.11 858.39,-773.02"/>
</g>
<!-- libignition&#45;gazebo -->
<g id="node17" class="node">
<title>libignition&#45;gazebo</title>
<g id="a_node17"><a xlink:href="https://github.com/conda-forge/libignition-gazebo-feedstock" xlink:title="libignition gazebo">
<ellipse fill="#fde725" stroke="black" cx="1077.36" cy="-682" rx="100.66" ry="18"/>
<text text-anchor="middle" x="1077.36" y="-677.33" font-family="Times,serif" font-size="14.00">libignition gazebo</text>
</a>
</g>
</g>
<!-- libignition&#45;transport4&#45;&gt;libignition&#45;gazebo -->
<g id="edge13" class="edge">
<title>libignition&#45;transport4&#45;&gt;libignition&#45;gazebo</title>
<path fill="none" stroke="black" d="M947.03,-807.8C953.01,-788.43 964.98,-756.94 984.36,-736 996.59,-722.79 1012.89,-711.98 1028.42,-703.66"/>
<polygon fill="black" stroke="black" points="1029.63,-706.46 1036.95,-698.8 1026.45,-700.22 1029.63,-706.46"/>
</g>
<!-- libignition&#45;launch -->
<g id="node18" class="node">
<title>libignition&#45;launch</title>
<g id="a_node18"><a xlink:href="https://github.com/conda-forge/libignition-launch-feedstock" xlink:title="libignition launch">
<ellipse fill="#fde725" stroke="black" cx="1012.36" cy="-610" rx="98.56" ry="18"/>
<text text-anchor="middle" x="1012.36" y="-605.33" font-family="Times,serif" font-size="14.00">libignition launch</text>
</a>
</g>
</g>
<!-- libignition&#45;transport4&#45;&gt;libignition&#45;launch -->
<g id="edge14" class="edge">
<title>libignition&#45;transport4&#45;&gt;libignition&#45;launch</title>
<path fill="none" stroke="black" d="M942.03,-807.68C942.09,-777.2 945.12,-712.62 967.36,-664 971.98,-653.9 979.1,-644.21 986.31,-635.94"/>
<polygon fill="black" stroke="black" points="988.55,-638.6 992.77,-628.89 983.41,-633.85 988.55,-638.6"/>
</g>
<!-- libignition&#45;sensors&#45;&gt;libignition&#45;gazebo -->
<g id="edge15" class="edge">
<title>libignition&#45;sensors&#45;&gt;libignition&#45;gazebo</title>
<path fill="none" stroke="black" d="M1092.42,-735.7C1090.26,-728.15 1087.68,-719.12 1085.27,-710.68"/>
<polygon fill="black" stroke="black" points="1088.36,-709.76 1082.25,-701.1 1081.63,-711.68 1088.36,-709.76"/>
</g>
<!-- libignition&#45;gui&#45;&gt;libignition&#45;gazebo -->
<g id="edge16" class="edge">
<title>libignition&#45;gui&#45;&gt;libignition&#45;gazebo</title>
<path fill="none" stroke="black" d="M868.61,-739.42C909.73,-728.3 968.19,-712.5 1012.79,-700.45"/>
<polygon fill="black" stroke="black" points="1013.49,-703.62 1022.23,-697.63 1011.67,-696.86 1013.49,-703.62"/>
</g>
<!-- libignition&#45;gui&#45;&gt;libignition&#45;launch -->
<g id="edge17" class="edge">
<title>libignition&#45;gui&#45;&gt;libignition&#45;launch</title>
<path fill="none" stroke="black" d="M833.7,-736.18C851.61,-717.17 882.69,-686 913.36,-664 930.2,-651.92 950.13,-640.73 967.68,-631.78"/>
<polygon fill="black" stroke="black" points="968.77,-634.65 976.14,-627.05 965.63,-628.39 968.77,-634.65"/>
</g>
<!-- libignition&#45;gazebo&#45;&gt;libignition&#45;launch -->
<g id="edge18" class="edge">
<title>libignition&#45;gazebo&#45;&gt;libignition&#45;launch</title>
<path fill="none" stroke="black" d="M1061.63,-664.05C1053.72,-655.54 1044,-645.07 1035.28,-635.68"/>
<polygon fill="black" stroke="black" points="1038.32,-633.74 1028.95,-628.79 1033.19,-638.5 1038.32,-633.74"/>
</g>
<!-- libignition&#45;msgs1 -->
<g id="node19" class="node">
<title>libignition&#45;msgs1</title>
<g id="a_node19"><a xlink:href="https://github.com/conda-forge/libignition-msgs1-feedstock/pull/95" xlink:title="libignition msgs1 ❎">
<ellipse fill="#31688e" stroke="black" cx="1159.36" cy="-898" rx="113.29" ry="18"/>
<text text-anchor="middle" x="1159.36" y="-893.33" font-family="Times,serif" font-size="14.00" fill="white">libignition msgs1 ❎</text>
</a>
</g>
</g>
<!-- libignition&#45;msgs1&#45;&gt;libignition&#45;transport4 -->
<g id="edge19" class="edge">
<title>libignition&#45;msgs1&#45;&gt;libignition&#45;transport4</title>
<path fill="none" stroke="black" d="M1110.66,-881.29C1078.39,-870.88 1035.85,-857.16 1001.61,-846.11"/>
<polygon fill="black" stroke="black" points="1002.86,-842.52 992.27,-842.78 1000.71,-849.18 1002.86,-842.52"/>
</g>
<!-- libignition&#45;msgs1&#45;&gt;libignition&#45;sensors -->
<g id="edge20" class="edge">
<title>libignition&#45;msgs1&#45;&gt;libignition&#45;sensors</title>
<path fill="none" stroke="black" d="M1137.31,-879.97C1126.76,-870.55 1115.01,-857.95 1108.36,-844 1099.31,-825 1096.75,-801.25 1096.35,-783.07"/>
<polygon fill="black" stroke="black" points="1099.85,-783.29 1096.35,-773.29 1092.85,-783.29 1099.85,-783.29"/>
</g>
<!-- libignition&#45;msgs1&#45;&gt;libignition&#45;gui -->
<g id="edge21" class="edge">
<title>libignition&#45;msgs1&#45;&gt;libignition&#45;gui</title>
<path fill="none" stroke="black" d="M1047.45,-895.07C958.45,-890.88 844.11,-878.66 814.36,-844 800.15,-827.44 802.82,-802.1 808.08,-782.69"/>
<polygon fill="black" stroke="black" points="811.67,-783.92 811.27,-773.33 804.98,-781.85 811.67,-783.92"/>
</g>
<!-- libignition&#45;msgs1&#45;&gt;libignition&#45;gazebo -->
<g id="edge22" class="edge">
<title>libignition&#45;msgs1&#45;&gt;libignition&#45;gazebo</title>
<path fill="none" stroke="black" d="M1251.54,-887.23C1312.27,-876.43 1376.19,-854.02 1350.36,-808 1313.38,-742.12 1230.77,-710.77 1166.05,-695.97"/>
<polygon fill="black" stroke="black" points="1166.94,-692.36 1156.42,-693.65 1165.44,-699.2 1166.94,-692.36"/>
</g>
<!-- libignition&#45;msgs1&#45;&gt;libignition&#45;launch -->
<g id="edge23" class="edge">
<title>libignition&#45;msgs1&#45;&gt;libignition&#45;launch</title>
<path fill="none" stroke="black" d="M1244.65,-885.83C1294.7,-877.34 1351.06,-863.71 1366.36,-844 1376.17,-831.36 1371.49,-823.16 1366.36,-808 1328.42,-695.85 1187.32,-646.01 1095.12,-625.03"/>
<polygon fill="black" stroke="black" points="1095.93,-621.4 1085.41,-622.67 1094.42,-628.24 1095.93,-621.4"/>
</g>
<!-- libignition&#45;fuel&#45;tools -->
<g id="node20" class="node">
<title>libignition&#45;fuel&#45;tools</title>
<g id="a_node20"><a xlink:href="https://github.com/conda-forge/libignition-fuel-tools-feedstock" xlink:title="libignition fuel tools">
<ellipse fill="#fde725" stroke="black" cx="1229.36" cy="-826" rx="111.71" ry="18"/>
<text text-anchor="middle" x="1229.36" y="-821.33" font-family="Times,serif" font-size="14.00">libignition fuel tools</text>
</a>
</g>
</g>
<!-- libignition&#45;msgs1&#45;&gt;libignition&#45;fuel&#45;tools -->
<g id="edge24" class="edge">
<title>libignition&#45;msgs1&#45;&gt;libignition&#45;fuel&#45;tools</title>
<path fill="none" stroke="black" d="M1176.31,-880.05C1184.78,-871.58 1195.19,-861.17 1204.55,-851.82"/>
<polygon fill="black" stroke="black" points="1206.49,-854.82 1211.09,-845.28 1201.54,-849.87 1206.49,-854.82"/>
</g>
<!-- libignition&#45;fuel&#45;tools&#45;&gt;libignition&#45;gazebo -->
<g id="edge25" class="edge">
<title>libignition&#45;fuel&#45;tools&#45;&gt;libignition&#45;gazebo</title>
<path fill="none" stroke="black" d="M1230.24,-807.52C1230.28,-787.89 1227.38,-756.16 1210.36,-736 1195.96,-718.94 1175.3,-707.33 1154.54,-699.44"/>
<polygon fill="black" stroke="black" points="1155.96,-695.88 1145.37,-695.86 1153.64,-702.48 1155.96,-695.88"/>
</g>
<!-- gazebo -->
<g id="node21" class="node">
<title>gazebo</title>
<g id="a_node21"><a xlink:href="https://github.com/conda-forge/gazebo-feedstock" xlink:title="gazebo">
<ellipse fill="#35b779" stroke="black" cx="1057.36" cy="-278" rx="46.47" ry="18"/>
<text text-anchor="middle" x="1057.36" y="-273.32" font-family="Times,serif" font-size="14.00">gazebo</text>
</a>
</g>
</g>
<!-- gazebo&#45;yarp&#45;plugins -->
<g id="node22" class="node">
<title>gazebo&#45;yarp&#45;plugins</title>
<g id="a_node22"><a xlink:href="https://github.com/conda-forge/gazebo-yarp-plugins-feedstock" xlink:title="gazebo yarp plugins">
<ellipse fill="#fde725" stroke="black" cx="1057.36" cy="-206" rx="112.24" ry="18"/>
<text text-anchor="middle" x="1057.36" y="-201.32" font-family="Times,serif" font-size="14.00">gazebo yarp plugins</text>
</a>
</g>
</g>
<!-- gazebo&#45;&gt;gazebo&#45;yarp&#45;plugins -->
<g id="edge26" class="edge">
<title>gazebo&#45;&gt;gazebo&#45;yarp&#45;plugins</title>
<path fill="none" stroke="black" d="M1057.36,-259.7C1057.36,-252.24 1057.36,-243.32 1057.36,-234.97"/>
<polygon fill="black" stroke="black" points="1060.86,-235.1 1057.36,-225.1 1053.86,-235.1 1060.86,-235.1"/>
</g>
<!-- cartographer -->
<g id="node25" class="node">
<title>cartographer</title>
<g id="a_node25"><a xlink:href="https://github.com/conda-forge/cartographer-feedstock" xlink:title="cartographer">
<ellipse fill="#35b779" stroke="black" cx="234.36" cy="-394" rx="76.99" ry="18"/>
<text text-anchor="middle" x="234.36" y="-389.32" font-family="Times,serif" font-size="14.00">cartographer</text>
</a>
</g>
</g>
<!-- go&#45;cockroach&#45;&gt;cartographer -->
<!-- google&#45;cloud&#45;cpp -->
<g id="node24" class="node">
<title>google&#45;cloud&#45;cpp</title>
<g id="a_node24"><a xlink:href="https://github.com/conda-forge/google-cloud-cpp-feedstock/pull/150" xlink:title="google cloud cpp ❎">
<ellipse fill="#31688e" stroke="black" cx="603.36" cy="-314" rx="110.66" ry="18"/>
<text text-anchor="middle" x="603.36" y="-309.32" font-family="Times,serif" font-size="14.00" fill="white">google cloud cpp ❎</text>
</a>
</g>
</g>
<!-- google&#45;cloud&#45;cpp&#45;&gt;arrow&#45;cpp -->
<g id="edge28" class="edge">
<title>google&#45;cloud&#45;cpp&#45;&gt;arrow&#45;cpp</title>
<path fill="none" stroke="black" d="M603.36,-295.7C603.36,-288.24 603.36,-279.32 603.36,-270.97"/>
<polygon fill="black" stroke="black" points="606.86,-271.1 603.36,-261.1 599.86,-271.1 606.86,-271.1"/>
</g>
<!-- tomviz -->
<g id="node26" class="node">
<title>tomviz</title>
<g id="a_node26"><a xlink:href="https://github.com/conda-forge/tomviz-feedstock" xlink:title="tomviz">
<ellipse fill="#35b779" stroke="black" cx="603.36" cy="-1114" rx="44.9" ry="18"/>
<text text-anchor="middle" x="603.36" y="-1109.33" font-family="Times,serif" font-size="14.00">tomviz</text>
</a>
</g>
</g>
<!-- protozfits -->
<g id="node27" class="node">
<title>protozfits</title>
<g id="a_node27"><a xlink:href="https://github.com/conda-forge/protozfits-feedstock" xlink:title="protozfits">
<ellipse fill="#35b779" stroke="black" cx="603.36" cy="-1042" rx="59.1" ry="18"/>
<text text-anchor="middle" x="603.36" y="-1037.33" font-family="Times,serif" font-size="14.00">protozfits</text>
</a>
</g>
</g>
<!-- tomviz&#45;&gt;protozfits -->
<!-- imp -->
<g id="node28" class="node">
<title>imp</title>
<g id="a_node28"><a xlink:href="https://github.com/conda-forge/imp-feedstock" xlink:title="imp">
<ellipse fill="#35b779" stroke="black" cx="603.36" cy="-970" rx="30.16" ry="18"/>
<text text-anchor="middle" x="603.36" y="-965.33" font-family="Times,serif" font-size="14.00">imp</text>
</a>
</g>
</g>
<!-- protozfits&#45;&gt;imp -->
<!-- or&#45;tools -->
<g id="node29" class="node">
<title>or&#45;tools</title>
<g id="a_node29"><a xlink:href="https://github.com/conda-forge/or-tools-feedstock" xlink:title="or tools">
<ellipse fill="#35b779" stroke="black" cx="603.36" cy="-898" rx="49.1" ry="18"/>
<text text-anchor="middle" x="603.36" y="-893.33" font-family="Times,serif" font-size="14.00">or tools</text>
</a>
</g>
</g>
<!-- imp&#45;&gt;or&#45;tools -->
<!-- bear -->
<g id="node30" class="node">
<title>bear</title>
<g id="a_node30"><a xlink:href="https://github.com/conda-forge/bear-feedstock" xlink:title="bear">
<ellipse fill="#35b779" stroke="black" cx="603.36" cy="-826" rx="33.85" ry="18"/>
<text text-anchor="middle" x="603.36" y="-821.33" font-family="Times,serif" font-size="14.00">bear</text>
</a>
</g>
</g>
<!-- or&#45;tools&#45;&gt;bear -->
<!-- cpp&#45;opentelemetry&#45;sdk -->
<g id="node31" class="node">
<title>cpp&#45;opentelemetry&#45;sdk</title>
<g id="a_node31"><a xlink:href="https://github.com/conda-forge/cpp-opentelemetry-sdk-feedstock" xlink:title="cpp opentelemetry sdk">
<ellipse fill="#35b779" stroke="black" cx="603.36" cy="-754" rx="125.92" ry="18"/>
<text text-anchor="middle" x="603.36" y="-749.33" font-family="Times,serif" font-size="14.00">cpp opentelemetry sdk</text>
</a>
</g>
</g>
<!-- bear&#45;&gt;cpp&#45;opentelemetry&#45;sdk -->
<!-- singlejar -->
<g id="node32" class="node">
<title>singlejar</title>
<g id="a_node32"><a xlink:href="https://github.com/conda-forge/singlejar-feedstock" xlink:title="singlejar">
<ellipse fill="#35b779" stroke="black" cx="603.36" cy="-682" rx="54.89" ry="18"/>
<text text-anchor="middle" x="603.36" y="-677.33" font-family="Times,serif" font-size="14.00">singlejar</text>
</a>
</g>
</g>
<!-- cpp&#45;opentelemetry&#45;sdk&#45;&gt;singlejar -->
<!-- xilinx&#45;runtime -->
<g id="node33" class="node">
<title>xilinx&#45;runtime</title>
<g id="a_node33"><a xlink:href="https://github.com/conda-forge/xilinx-runtime-feedstock" xlink:title="xilinx runtime">
<ellipse fill="#35b779" stroke="black" cx="603.36" cy="-610" rx="81.72" ry="18"/>
<text text-anchor="middle" x="603.36" y="-605.33" font-family="Times,serif" font-size="14.00">xilinx runtime</text>
</a>
</g>
</g>
<!-- singlejar&#45;&gt;xilinx&#45;runtime -->
<!-- gz&#45;msgs -->
<g id="node34" class="node">
<title>gz&#45;msgs</title>
<g id="a_node34"><a xlink:href="https://github.com/conda-forge/gz-msgs-feedstock" xlink:title="gz msgs">
<ellipse fill="#35b779" stroke="black" cx="603.36" cy="-538" rx="52.26" ry="18"/>
<text text-anchor="middle" x="603.36" y="-533.33" font-family="Times,serif" font-size="14.00">gz msgs</text>
</a>
</g>
</g>
<!-- xilinx&#45;runtime&#45;&gt;gz&#45;msgs -->
<!-- arcticdb -->
<g id="node35" class="node">
<title>arcticdb</title>
<g id="a_node35"><a xlink:href="https://github.com/conda-forge/arcticdb-feedstock" xlink:title="arcticdb">
<ellipse fill="#35b779" stroke="black" cx="603.36" cy="-466" rx="52.26" ry="18"/>
<text text-anchor="middle" x="603.36" y="-461.32" font-family="Times,serif" font-size="14.00">arcticdb</text>
</a>
</g>
</g>
<!-- gz&#45;msgs&#45;&gt;arcticdb -->
<!-- libpulsar -->
<g id="node42" class="node">
<title>libpulsar</title>
<g id="a_node42"><a xlink:href="https://github.com/conda-forge/libpulsar-feedstock" xlink:title="libpulsar">
<ellipse fill="#35b779" stroke="black" cx="603.36" cy="-394" rx="55.42" ry="18"/>
<text text-anchor="middle" x="603.36" y="-389.32" font-family="Times,serif" font-size="14.00">libpulsar</text>
</a>
</g>
</g>
<!-- arcticdb&#45;&gt;libpulsar -->
<!-- gz&#45;transport -->
<g id="node36" class="node">
<title>gz&#45;transport</title>
<g id="a_node36"><a xlink:href="https://github.com/conda-forge/gz-transport-feedstock" xlink:title="gz transport">
<ellipse fill="#35b779" stroke="black" cx="272.36" cy="-350" rx="73.3" ry="18"/>
<text text-anchor="middle" x="272.36" y="-345.32" font-family="Times,serif" font-size="14.00">gz transport</text>
</a>
</g>
</g>
<!-- gz&#45;gui -->
<g id="node37" class="node">
<title>gz&#45;gui</title>
<g id="a_node37"><a xlink:href="https://github.com/conda-forge/gz-gui-feedstock" xlink:title="gz gui">
<ellipse fill="#fde725" stroke="black" cx="388.36" cy="-278" rx="41.74" ry="18"/>
<text text-anchor="middle" x="388.36" y="-273.32" font-family="Times,serif" font-size="14.00">gz gui</text>
</a>
</g>
</g>
<!-- gz&#45;transport&#45;&gt;gz&#45;gui -->
<g id="edge39" class="edge">
<title>gz&#45;transport&#45;&gt;gz&#45;gui</title>
<path fill="none" stroke="black" d="M298.97,-332.94C315.95,-322.7 338.05,-309.36 356.04,-298.51"/>
<polygon fill="black" stroke="black" points="357.26,-301.25 364.01,-293.09 353.64,-295.26 357.26,-301.25"/>
</g>
<!-- gz&#45;sensors -->
<g id="node38" class="node">
<title>gz&#45;sensors</title>
<g id="a_node38"><a xlink:href="https://github.com/conda-forge/gz-sensors-feedstock" xlink:title="gz sensors">
<ellipse fill="#fde725" stroke="black" cx="64.36" cy="-278" rx="64.36" ry="18"/>
<text text-anchor="middle" x="64.36" y="-273.32" font-family="Times,serif" font-size="14.00">gz sensors</text>
</a>
</g>
</g>
<!-- gz&#45;transport&#45;&gt;gz&#45;sensors -->
<g id="edge40" class="edge">
<title>gz&#45;transport&#45;&gt;gz&#45;sensors</title>
<path fill="none" stroke="black" d="M230.27,-334.83C196.78,-323.56 149.81,-307.76 114.4,-295.84"/>
<polygon fill="black" stroke="black" points="115.87,-292.3 105.27,-292.43 113.63,-298.94 115.87,-292.3"/>
</g>
<!-- gz&#45;sim -->
<g id="node39" class="node">
<title>gz&#45;sim</title>
<g id="a_node39"><a xlink:href="https://github.com/conda-forge/gz-sim-feedstock" xlink:title="gz sim">
<ellipse fill="#fde725" stroke="black" cx="256.36" cy="-206" rx="43.84" ry="18"/>
<text text-anchor="middle" x="256.36" y="-201.33" font-family="Times,serif" font-size="14.00">gz sim</text>
</a>
</g>
</g>
<!-- gz&#45;transport&#45;&gt;gz&#45;sim -->
<g id="edge41" class="edge">
<title>gz&#45;transport&#45;&gt;gz&#45;sim</title>
<path fill="none" stroke="black" d="M226.49,-335.64C207.16,-327.49 186.57,-314.9 175.36,-296 167.2,-282.24 167.75,-274.07 175.36,-260 184.03,-243.96 199.9,-232 215.31,-223.54"/>
<polygon fill="black" stroke="black" points="216.45,-226.37 223.77,-218.72 213.27,-220.14 216.45,-226.37"/>
</g>
<!-- gz&#45;launch -->
<g id="node40" class="node">
<title>gz&#45;launch</title>
<g id="a_node40"><a xlink:href="https://github.com/conda-forge/gz-launch-feedstock" xlink:title="gz launch">
<ellipse fill="#fde725" stroke="black" cx="388.36" cy="-134" rx="59.1" ry="18"/>
<text text-anchor="middle" x="388.36" y="-129.32" font-family="Times,serif" font-size="14.00">gz launch</text>
</a>
</g>
</g>
<!-- gz&#45;transport&#45;&gt;gz&#45;launch -->
<g id="edge42" class="edge">
<title>gz&#45;transport&#45;&gt;gz&#45;launch</title>
<path fill="none" stroke="black" d="M343.29,-345.33C378.17,-339.5 417.36,-326.07 439.36,-296 469.88,-254.3 434.2,-193.7 409.01,-160"/>
<polygon fill="black" stroke="black" points="411.44,-158.42 402.56,-152.64 405.9,-162.69 411.44,-158.42"/>
</g>
<!-- gz&#45;gui&#45;&gt;gz&#45;sim -->
<g id="edge43" class="edge">
<title>gz&#45;gui&#45;&gt;gz&#45;sim</title>
<path fill="none" stroke="black" d="M362.91,-263.5C342.68,-252.77 314.15,-237.65 291.7,-225.74"/>
<polygon fill="black" stroke="black" points="293.66,-222.29 283.18,-220.69 290.38,-228.47 293.66,-222.29"/>
</g>
<!-- gz&#45;gui&#45;&gt;gz&#45;launch -->
<g id="edge44" class="edge">
<title>gz&#45;gui&#45;&gt;gz&#45;launch</title>
<path fill="none" stroke="black" d="M388.36,-259.59C388.36,-235.5 388.36,-191.75 388.36,-163.03"/>
<polygon fill="black" stroke="black" points="391.86,-163.11 388.36,-153.11 384.86,-163.11 391.86,-163.11"/>
</g>
<!-- gz&#45;sensors&#45;&gt;gz&#45;sim -->
<g id="edge45" class="edge">
<title>gz&#45;sensors&#45;&gt;gz&#45;sim</title>
<path fill="none" stroke="black" d="M102.29,-263.17C134.58,-251.4 180.91,-234.51 214.32,-222.33"/>
<polygon fill="black" stroke="black" points="215.05,-225.42 223.24,-218.71 212.65,-218.85 215.05,-225.42"/>
</g>
<!-- gz&#45;sim&#45;&gt;gz&#45;launch -->
<g id="edge46" class="edge">
<title>gz&#45;sim&#45;&gt;gz&#45;launch</title>
<path fill="none" stroke="black" d="M282.44,-191.17C301.86,-180.87 328.66,-166.66 350.44,-155.11"/>
<polygon fill="black" stroke="black" points="351.86,-157.79 359.05,-150.01 348.58,-151.61 351.86,-157.79"/>
</g>
<!-- gz&#45;fuel&#45;tools -->
<g id="node41" class="node">
<title>gz&#45;fuel&#45;tools</title>
<g id="a_node41"><a xlink:href="https://github.com/conda-forge/gz-fuel-tools-feedstock" xlink:title="gz fuel tools">
<ellipse fill="#35b779" stroke="black" cx="256.36" cy="-278" rx="72.25" ry="18"/>
<text text-anchor="middle" x="256.36" y="-273.32" font-family="Times,serif" font-size="14.00">gz fuel tools</text>
</a>
</g>
</g>
<!-- gz&#45;fuel&#45;tools&#45;&gt;gz&#45;sim -->
<g id="edge47" class="edge">
<title>gz&#45;fuel&#45;tools&#45;&gt;gz&#45;sim</title>
<path fill="none" stroke="black" d="M256.36,-259.7C256.36,-252.24 256.36,-243.32 256.36,-234.97"/>
<polygon fill="black" stroke="black" points="259.86,-235.1 256.36,-225.1 252.86,-235.1 259.86,-235.1"/>
</g>
<!-- gnss&#45;sdr -->
<g id="node43" class="node">
<title>gnss&#45;sdr</title>
<g id="a_node43"><a xlink:href="https://github.com/conda-forge/gnss-sdr-feedstock" xlink:title="gnss sdr">
<ellipse fill="#35b779" stroke="black" cx="603.36" cy="-54" rx="53.84" ry="18"/>
<text text-anchor="middle" x="603.36" y="-49.33" font-family="Times,serif" font-size="14.00">gnss sdr</text>
</a>
</g>
</g>
</g>
</svg>
