<?xml version="1.0" encoding="UTF-8" standalone="no"?>
<!DOCTYPE svg PUBLIC "-//W3C//DTD SVG 1.1//EN"
 "http://www.w3.org/Graphics/SVG/1.1/DTD/svg11.dtd">
<!-- Generated by graphviz version 9.0.0 (20231125.0833)
 -->
<!-- Pages: 1 -->
<svg width="1409pt" height="880pt"
 viewBox="0.00 0.00 1408.98 880.00" xmlns="http://www.w3.org/2000/svg" xmlns:xlink="http://www.w3.org/1999/xlink">
<g id="graph0" class="graph" transform="scale(1 1) rotate(0) translate(4 876)">
<polygon fill="white" stroke="none" points="-4,4 -4,-876 1404.98,-876 1404.98,4 -4,4"/>
<!-- arrow&#45;cpp -->
<g id="node1" class="node">
<title>arrow&#45;cpp</title>
<g id="a_node1"><a xlink:href="https://github.com/conda-forge/arrow-cpp-feedstock" xlink:title="arrow cpp">
<ellipse fill="#000000" stroke="black" cx="817.24" cy="-494" rx="61.73" ry="18"/>
<text text-anchor="middle" x="817.24" y="-489.32" font-family="Times,serif" font-size="14.00" fill="white">arrow cpp</text>
</a>
</g>
</g>
<!-- ray&#45;packages -->
<g id="node2" class="node">
<title>ray&#45;packages</title>
<g id="a_node2"><a xlink:href="https://github.com/conda-forge/ray-packages-feedstock" xlink:title="ray packages">
<ellipse fill="#fde725" stroke="black" cx="476.24" cy="-422" rx="76.99" ry="18"/>
<text text-anchor="middle" x="476.24" y="-417.32" font-family="Times,serif" font-size="14.00">ray packages</text>
</a>
</g>
</g>
<!-- arrow&#45;cpp&#45;&gt;ray&#45;packages -->
<g id="edge1" class="edge">
<title>arrow&#45;cpp&#45;&gt;ray&#45;packages</title>
<path fill="none" stroke="black" d="M771.37,-481.55C763.34,-479.63 755.06,-477.71 747.24,-476 679.33,-461.12 601.4,-446.09 546.59,-435.86"/>
<polygon fill="black" stroke="black" points="547.56,-432.48 537.09,-434.09 546.28,-439.36 547.56,-432.48"/>
</g>
<!-- arcticdb -->
<g id="node3" class="node">
<title>arcticdb</title>
<g id="a_node3"><a xlink:href="https://github.com/conda-forge/arcticdb-feedstock" xlink:title="arcticdb">
<ellipse fill="#fde725" stroke="black" cx="817.24" cy="-422" rx="52.26" ry="18"/>
<text text-anchor="middle" x="817.24" y="-417.32" font-family="Times,serif" font-size="14.00">arcticdb</text>
</a>
</g>
</g>
<!-- arrow&#45;cpp&#45;&gt;arcticdb -->
<g id="edge2" class="edge">
<title>arrow&#45;cpp&#45;&gt;arcticdb</title>
<path fill="none" stroke="black" d="M817.24,-475.7C817.24,-468.41 817.24,-459.73 817.24,-451.54"/>
<polygon fill="black" stroke="black" points="820.74,-451.62 817.24,-441.62 813.74,-451.62 820.74,-451.62"/>
</g>
<!-- bazel -->
<g id="node4" class="node">
<title>bazel</title>
<g id="a_node4"><a xlink:href="https://github.com/conda-forge/bazel-feedstock/pull/231" xlink:title="bazel ❎">
<ellipse fill="#31688e" stroke="black" cx="997.24" cy="-854" rx="52.79" ry="18"/>
<text text-anchor="middle" x="997.24" y="-849.33" font-family="Times,serif" font-size="14.00" fill="white">bazel ❎</text>
</a>
</g>
</g>
<!-- mongodb -->
<g id="node5" class="node">
<title>mongodb</title>
<g id="a_node5"><a xlink:href="https://github.com/conda-forge/mongodb-feedstock/pull/87" xlink:title="mongodb ❎">
<ellipse fill="#31688e" stroke="black" cx="997.24" cy="-782" rx="72.78" ry="18"/>
<text text-anchor="middle" x="997.24" y="-777.33" font-family="Times,serif" font-size="14.00" fill="white">mongodb ❎</text>
</a>
</g>
</g>
<!-- bazel&#45;&gt;mongodb -->
<!-- google&#45;cloud&#45;cpp -->
<g id="node11" class="node">
<title>google&#45;cloud&#45;cpp</title>
<g id="a_node11"><a xlink:href="https://github.com/conda-forge/google-cloud-cpp-feedstock/pull/174" xlink:title="google cloud cpp ❎">
<ellipse fill="#31688e" stroke="black" cx="997.24" cy="-710" rx="110.66" ry="18"/>
<text text-anchor="middle" x="997.24" y="-705.33" font-family="Times,serif" font-size="14.00" fill="white">google cloud cpp ❎</text>
</a>
</g>
</g>
<!-- mongodb&#45;&gt;google&#45;cloud&#45;cpp -->
<!-- opencv -->
<g id="node6" class="node">
<title>opencv</title>
<g id="a_node6"><a xlink:href="https://github.com/conda-forge/opencv-feedstock" xlink:title="opencv">
<ellipse fill="#ff8c00" stroke="black" cx="247.24" cy="-494" rx="46.47" ry="18"/>
<text text-anchor="middle" x="247.24" y="-489.32" font-family="Times,serif" font-size="14.00">opencv</text>
</a>
</g>
</g>
<!-- opencv&#45;&gt;ray&#45;packages -->
<g id="edge4" class="edge">
<title>opencv&#45;&gt;ray&#45;packages</title>
<path fill="none" stroke="black" d="M282.73,-482C289.22,-480 295.93,-477.93 302.24,-476 341.46,-463.96 385.7,-450.49 419.75,-440.14"/>
<polygon fill="black" stroke="black" points="420.43,-443.59 428.98,-437.34 418.39,-436.9 420.43,-443.59"/>
</g>
<!-- imp -->
<g id="node7" class="node">
<title>imp</title>
<g id="a_node7"><a xlink:href="https://github.com/conda-forge/imp-feedstock" xlink:title="imp">
<ellipse fill="#fde725" stroke="black" cx="272.24" cy="-422" rx="30.16" ry="18"/>
<text text-anchor="middle" x="272.24" y="-417.32" font-family="Times,serif" font-size="14.00">imp</text>
</a>
</g>
</g>
<!-- opencv&#45;&gt;imp -->
<g id="edge5" class="edge">
<title>opencv&#45;&gt;imp</title>
<path fill="none" stroke="black" d="M253.42,-475.7C256.11,-468.15 259.34,-459.12 262.35,-450.68"/>
<polygon fill="black" stroke="black" points="265.55,-452.12 265.62,-441.53 258.96,-449.77 265.55,-452.12"/>
</g>
<!-- gazebo&#45;yarp&#45;plugins -->
<g id="node8" class="node">
<title>gazebo&#45;yarp&#45;plugins</title>
<g id="a_node8"><a xlink:href="https://github.com/conda-forge/gazebo-yarp-plugins-feedstock" xlink:title="gazebo yarp plugins">
<ellipse fill="#fde725" stroke="black" cx="112.24" cy="-422" rx="112.24" ry="18"/>
<text text-anchor="middle" x="112.24" y="-417.32" font-family="Times,serif" font-size="14.00">gazebo yarp plugins</text>
</a>
</g>
</g>
<!-- opencv&#45;&gt;gazebo&#45;yarp&#45;plugins -->
<g id="edge6" class="edge">
<title>opencv&#45;&gt;gazebo&#45;yarp&#45;plugins</title>
<path fill="none" stroke="black" d="M220.24,-479C201.46,-469.27 176.05,-456.09 154.59,-444.96"/>
<polygon fill="black" stroke="black" points="156.25,-441.88 145.76,-440.38 153.03,-448.09 156.25,-441.88"/>
</g>
<!-- tensorflow -->
<g id="node9" class="node">
<title>tensorflow</title>
<g id="a_node9"><a xlink:href="https://github.com/conda-forge/tensorflow-feedstock" xlink:title="tensorflow">
<ellipse fill="#fde725" stroke="black" cx="679.24" cy="-422" rx="63.84" ry="18"/>
<text text-anchor="middle" x="679.24" y="-417.32" font-family="Times,serif" font-size="14.00">tensorflow</text>
</a>
</g>
</g>
<!-- pytorch&#45;cpu -->
<g id="node10" class="node">
<title>pytorch&#45;cpu</title>
<g id="a_node10"><a xlink:href="https://github.com/conda-forge/pytorch-cpu-feedstock" xlink:title="pytorch cpu">
<ellipse fill="#000000" stroke="black" cx="532.24" cy="-494" rx="70.68" ry="18"/>
<text text-anchor="middle" x="532.24" y="-489.32" font-family="Times,serif" font-size="14.00" fill="white">pytorch cpu</text>
</a>
</g>
</g>
<!-- pytorch&#45;cpu&#45;&gt;ray&#45;packages -->
<g id="edge7" class="edge">
<title>pytorch&#45;cpu&#45;&gt;ray&#45;packages</title>
<path fill="none" stroke="black" d="M518.68,-476.05C512.08,-467.8 504,-457.7 496.67,-448.54"/>
<polygon fill="black" stroke="black" points="499.59,-446.59 490.61,-440.97 494.13,-450.97 499.59,-446.59"/>
</g>
<!-- go&#45;cockroach -->
<g id="node15" class="node">
<title>go&#45;cockroach</title>
<g id="a_node15"><a xlink:href="https://github.com/conda-forge/go-cockroach-feedstock" xlink:title="go cockroach">
<ellipse fill="#ff8c00" stroke="black" cx="997.24" cy="-638" rx="76.46" ry="18"/>
<text text-anchor="middle" x="997.24" y="-633.33" font-family="Times,serif" font-size="14.00">go cockroach</text>
</a>
</g>
</g>
<!-- google&#45;cloud&#45;cpp&#45;&gt;go&#45;cockroach -->
<!-- jaxlib -->
<g id="node12" class="node">
<title>jaxlib</title>
<g id="a_node12"><a xlink:href="https://github.com/conda-forge/jaxlib-feedstock" xlink:title="jaxlib">
<ellipse fill="#000000" stroke="black" cx="308.24" cy="-566" rx="38.58" ry="18"/>
<text text-anchor="middle" x="308.24" y="-561.33" font-family="Times,serif" font-size="14.00" fill="white">jaxlib</text>
</a>
</g>
</g>
<!-- mujoco -->
<g id="node13" class="node">
<title>mujoco</title>
<g id="a_node13"><a xlink:href="https://github.com/conda-forge/mujoco-feedstock" xlink:title="mujoco">
<ellipse fill="#fde725" stroke="black" cx="358.24" cy="-494" rx="47" ry="18"/>
<text text-anchor="middle" x="358.24" y="-489.32" font-family="Times,serif" font-size="14.00">mujoco</text>
</a>
</g>
</g>
<!-- jaxlib&#45;&gt;mujoco -->
<g id="edge9" class="edge">
<title>jaxlib&#45;&gt;mujoco</title>
<path fill="none" stroke="black" d="M320.09,-548.41C326,-540.13 333.29,-529.92 339.91,-520.66"/>
<polygon fill="black" stroke="black" points="342.63,-522.87 345.59,-512.7 336.93,-518.8 342.63,-522.87"/>
</g>
<!-- mujoco&#45;&gt;ray&#45;packages -->
<g id="edge10" class="edge">
<title>mujoco&#45;&gt;ray&#45;packages</title>
<path fill="none" stroke="black" d="M382.97,-478.33C399.28,-468.65 420.93,-455.81 439.27,-444.93"/>
<polygon fill="black" stroke="black" points="440.95,-448 447.76,-439.89 437.37,-441.98 440.95,-448"/>
</g>
<!-- gazebo -->
<g id="node14" class="node">
<title>gazebo</title>
<g id="a_node14"><a xlink:href="https://github.com/conda-forge/gazebo-feedstock" xlink:title="gazebo">
<ellipse fill="#ff8c00" stroke="black" cx="112.24" cy="-494" rx="46.47" ry="18"/>
<text text-anchor="middle" x="112.24" y="-489.32" font-family="Times,serif" font-size="14.00">gazebo</text>
</a>
</g>
</g>
<!-- gazebo&#45;&gt;gazebo&#45;yarp&#45;plugins -->
<g id="edge11" class="edge">
<title>gazebo&#45;&gt;gazebo&#45;yarp&#45;plugins</title>
<path fill="none" stroke="black" d="M112.24,-475.7C112.24,-468.41 112.24,-459.73 112.24,-451.54"/>
<polygon fill="black" stroke="black" points="115.74,-451.62 112.24,-441.62 108.74,-451.62 115.74,-451.62"/>
</g>
<!-- cartographer -->
<g id="node16" class="node">
<title>cartographer</title>
<g id="a_node16"><a xlink:href="https://github.com/conda-forge/cartographer-feedstock/pull/68" xlink:title="cartographer ❎">
<ellipse fill="#31688e" stroke="black" cx="997.24" cy="-566" rx="92.25" ry="18"/>
<text text-anchor="middle" x="997.24" y="-561.33" font-family="Times,serif" font-size="14.00" fill="white">cartographer ❎</text>
</a>
</g>
</g>
<!-- go&#45;cockroach&#45;&gt;cartographer -->
<!-- tomviz -->
<g id="node17" class="node">
<title>tomviz</title>
<g id="a_node17"><a xlink:href="https://github.com/conda-forge/tomviz-feedstock" xlink:title="tomviz">
<ellipse fill="#ff8c00" stroke="black" cx="997.24" cy="-494" rx="44.9" ry="18"/>
<text text-anchor="middle" x="997.24" y="-489.32" font-family="Times,serif" font-size="14.00">tomviz</text>
</a>
</g>
</g>
<!-- cartographer&#45;&gt;tomviz -->
<!-- or&#45;tools -->
<g id="node21" class="node">
<title>or&#45;tools</title>
<g id="a_node21"><a xlink:href="https://github.com/conda-forge/or-tools-feedstock/pull/56" xlink:title="or tools ❎">
<ellipse fill="#31688e" stroke="black" cx="997.24" cy="-422" rx="64.36" ry="18"/>
<text text-anchor="middle" x="997.24" y="-417.32" font-family="Times,serif" font-size="14.00" fill="white">or tools ❎</text>
</a>
</g>
</g>
<!-- tomviz&#45;&gt;or&#45;tools -->
<!-- s2geometry -->
<g id="node18" class="node">
<title>s2geometry</title>
<g id="a_node18"><a xlink:href="https://github.com/conda-forge/s2geometry-feedstock/pull/18" xlink:title="s2geometry ✓">
<ellipse fill="#31688e" stroke="black" cx="997.24" cy="-90" rx="78.57" ry="18"/>
<text text-anchor="middle" x="997.24" y="-85.33" font-family="Times,serif" font-size="14.00" fill="white">s2geometry ✓</text>
</a>
</g>
</g>
<!-- s2geography -->
<g id="node19" class="node">
<title>s2geography</title>
<g id="a_node19"><a xlink:href="https://github.com/conda-forge/s2geography-feedstock" xlink:title="s2geography">
<ellipse fill="#fde725" stroke="black" cx="997.24" cy="-18" rx="75.94" ry="18"/>
<text text-anchor="middle" x="997.24" y="-13.32" font-family="Times,serif" font-size="14.00">s2geography</text>
</a>
</g>
</g>
<!-- s2geometry&#45;&gt;s2geography -->
<g id="edge15" class="edge">
<title>s2geometry&#45;&gt;s2geography</title>
<path fill="none" stroke="black" d="M997.24,-71.7C997.24,-64.41 997.24,-55.73 997.24,-47.54"/>
<polygon fill="black" stroke="black" points="1000.74,-47.62 997.24,-37.62 993.74,-47.62 1000.74,-47.62"/>
</g>
<!-- dm&#45;tree -->
<g id="node20" class="node">
<title>dm&#45;tree</title>
<g id="a_node20"><a xlink:href="https://github.com/conda-forge/dm-tree-feedstock/pull/39" xlink:title="dm tree ✓">
<ellipse fill="#31688e" stroke="black" cx="679.24" cy="-494" rx="58.57" ry="18"/>
<text text-anchor="middle" x="679.24" y="-489.32" font-family="Times,serif" font-size="14.00" fill="white">dm tree ✓</text>
</a>
</g>
</g>
<!-- dm&#45;tree&#45;&gt;ray&#45;packages -->
<g id="edge16" class="edge">
<title>dm&#45;tree&#45;&gt;ray&#45;packages</title>
<path fill="none" stroke="black" d="M641.53,-480C609.84,-469.07 564.19,-453.33 528.89,-441.16"/>
<polygon fill="black" stroke="black" points="530.32,-437.95 519.73,-438 528.04,-444.57 530.32,-437.95"/>
</g>
<!-- dm&#45;tree&#45;&gt;tensorflow -->
<g id="edge17" class="edge">
<title>dm&#45;tree&#45;&gt;tensorflow</title>
<path fill="none" stroke="black" d="M679.24,-475.7C679.24,-468.41 679.24,-459.73 679.24,-451.54"/>
<polygon fill="black" stroke="black" points="682.74,-451.62 679.24,-441.62 675.74,-451.62 682.74,-451.62"/>
</g>
<!-- bear -->
<g id="node24" class="node">
<title>bear</title>
<g id="a_node24"><a xlink:href="https://github.com/conda-forge/bear-feedstock" xlink:title="bear">
<ellipse fill="#35b779" stroke="black" cx="997.24" cy="-350" rx="33.85" ry="18"/>
<text text-anchor="middle" x="997.24" y="-345.32" font-family="Times,serif" font-size="14.00">bear</text>
</a>
</g>
</g>
<!-- or&#45;tools&#45;&gt;bear -->
<!-- libignition&#45;gazebo -->
<g id="node22" class="node">
<title>libignition&#45;gazebo</title>
<g id="a_node22"><a xlink:href="https://github.com/conda-forge/libignition-gazebo-feedstock" xlink:title="libignition gazebo">
<ellipse fill="#ff8c00" stroke="black" cx="439.24" cy="-90" rx="100.66" ry="18"/>
<text text-anchor="middle" x="439.24" y="-85.33" font-family="Times,serif" font-size="14.00">libignition gazebo</text>
</a>
</g>
</g>
<!-- libignition&#45;launch -->
<g id="node23" class="node">
<title>libignition&#45;launch</title>
<g id="a_node23"><a xlink:href="https://github.com/conda-forge/libignition-launch-feedstock" xlink:title="libignition launch">
<ellipse fill="#fde725" stroke="black" cx="439.24" cy="-18" rx="98.56" ry="18"/>
<text text-anchor="middle" x="439.24" y="-13.32" font-family="Times,serif" font-size="14.00">libignition launch</text>
</a>
</g>
</g>
<!-- libignition&#45;gazebo&#45;&gt;libignition&#45;launch -->
<g id="edge19" class="edge">
<title>libignition&#45;gazebo&#45;&gt;libignition&#45;launch</title>
<path fill="none" stroke="black" d="M439.24,-71.7C439.24,-64.41 439.24,-55.73 439.24,-47.54"/>
<polygon fill="black" stroke="black" points="442.74,-47.62 439.24,-37.62 435.74,-47.62 442.74,-47.62"/>
</g>
<!-- xilinx&#45;runtime -->
<g id="node25" class="node">
<title>xilinx&#45;runtime</title>
<g id="a_node25"><a xlink:href="https://github.com/conda-forge/xilinx-runtime-feedstock/pull/32" xlink:title="xilinx runtime ❎">
<ellipse fill="#31688e" stroke="black" cx="997.24" cy="-278" rx="96.98" ry="18"/>
<text text-anchor="middle" x="997.24" y="-273.32" font-family="Times,serif" font-size="14.00" fill="white">xilinx runtime ❎</text>
</a>
</g>
</g>
<!-- bear&#45;&gt;xilinx&#45;runtime -->
<!-- gnss&#45;sdr -->
<g id="node26" class="node">
<title>gnss&#45;sdr</title>
<g id="a_node26"><a xlink:href="https://github.com/conda-forge/gnss-sdr-feedstock/pull/20" xlink:title="gnss sdr ✓">
<ellipse fill="#31688e" stroke="black" cx="997.24" cy="-206" rx="61.73" ry="18"/>
<text text-anchor="middle" x="997.24" y="-201.33" font-family="Times,serif" font-size="14.00" fill="white">gnss sdr ✓</text>
</a>
</g>
</g>
<!-- xilinx&#45;runtime&#45;&gt;gnss&#45;sdr -->
<!-- gcld3 -->
<g id="node33" class="node">
<title>gcld3</title>
<g id="a_node33"><a xlink:href="https://github.com/conda-forge/gcld3-feedstock/pull/7" xlink:title="gcld3 ✓">
<ellipse fill="#31688e" stroke="black" cx="997.24" cy="-134" rx="46.47" ry="18"/>
<text text-anchor="middle" x="997.24" y="-129.32" font-family="Times,serif" font-size="14.00" fill="white">gcld3 ✓</text>
</a>
</g>
</g>
<!-- gnss&#45;sdr&#45;&gt;gcld3 -->
<!-- gz&#45;fuel&#45;tools -->
<g id="node27" class="node">
<title>gz&#45;fuel&#45;tools</title>
<g id="a_node27"><a xlink:href="https://github.com/conda-forge/gz-fuel-tools-feedstock" xlink:title="gz fuel tools">
<ellipse fill="#ff8c00" stroke="black" cx="1188.24" cy="-530" rx="72.25" ry="18"/>
<text text-anchor="middle" x="1188.24" y="-525.33" font-family="Times,serif" font-size="14.00">gz fuel tools</text>
</a>
</g>
</g>
<!-- gz&#45;sim -->
<g id="node28" class="node">
<title>gz&#45;sim</title>
<g id="a_node28"><a xlink:href="https://github.com/conda-forge/gz-sim-feedstock" xlink:title="gz sim">
<ellipse fill="#fde725" stroke="black" cx="1287.24" cy="-458" rx="43.84" ry="18"/>
<text text-anchor="middle" x="1287.24" y="-453.32" font-family="Times,serif" font-size="14.00">gz sim</text>
</a>
</g>
</g>
<!-- gz&#45;fuel&#45;tools&#45;&gt;gz&#45;sim -->
<g id="edge23" class="edge">
<title>gz&#45;fuel&#45;tools&#45;&gt;gz&#45;sim</title>
<path fill="none" stroke="black" d="M1211.45,-512.59C1224.95,-503.04 1242.13,-490.9 1256.72,-480.58"/>
<polygon fill="black" stroke="black" points="1258.48,-483.62 1264.63,-474.99 1254.44,-477.9 1258.48,-483.62"/>
</g>
<!-- gz&#45;launch -->
<g id="node29" class="node">
<title>gz&#45;launch</title>
<g id="a_node29"><a xlink:href="https://github.com/conda-forge/gz-launch-feedstock" xlink:title="gz launch">
<ellipse fill="#fde725" stroke="black" cx="1323.24" cy="-386" rx="59.1" ry="18"/>
<text text-anchor="middle" x="1323.24" y="-381.32" font-family="Times,serif" font-size="14.00">gz launch</text>
</a>
</g>
</g>
<!-- gz&#45;sim&#45;&gt;gz&#45;launch -->
<g id="edge24" class="edge">
<title>gz&#45;sim&#45;&gt;gz&#45;launch</title>
<path fill="none" stroke="black" d="M1295.95,-440.05C1299.92,-432.35 1304.71,-423.03 1309.16,-414.36"/>
<polygon fill="black" stroke="black" points="1312.2,-416.11 1313.66,-405.62 1305.97,-412.91 1312.2,-416.11"/>
</g>
<!-- gz&#45;gui -->
<g id="node30" class="node">
<title>gz&#45;gui</title>
<g id="a_node30"><a xlink:href="https://github.com/conda-forge/gz-gui-feedstock" xlink:title="gz gui">
<ellipse fill="#ff8c00" stroke="black" cx="1359.24" cy="-530" rx="41.74" ry="18"/>
<text text-anchor="middle" x="1359.24" y="-525.33" font-family="Times,serif" font-size="14.00">gz gui</text>
</a>
</g>
</g>
<!-- gz&#45;gui&#45;&gt;gz&#45;sim -->
<g id="edge25" class="edge">
<title>gz&#45;gui&#45;&gt;gz&#45;sim</title>
<path fill="none" stroke="black" d="M1342.9,-513.12C1333.69,-504.17 1322.01,-492.81 1311.73,-482.81"/>
<polygon fill="black" stroke="black" points="1314.21,-480.34 1304.6,-475.88 1309.33,-485.36 1314.21,-480.34"/>
</g>
<!-- gz&#45;gui&#45;&gt;gz&#45;launch -->
<g id="edge26" class="edge">
<title>gz&#45;gui&#45;&gt;gz&#45;launch</title>
<path fill="none" stroke="black" d="M1356.1,-511.82C1352.68,-493.8 1346.83,-464.73 1340.24,-440 1338.04,-431.75 1335.33,-422.88 1332.73,-414.8"/>
<polygon fill="black" stroke="black" points="1336.12,-413.9 1329.66,-405.49 1329.47,-416.09 1336.12,-413.9"/>
</g>
<!-- gz&#45;sensors -->
<g id="node31" class="node">
<title>gz&#45;sensors</title>
<g id="a_node31"><a xlink:href="https://github.com/conda-forge/gz-sensors-feedstock" xlink:title="gz sensors">
<ellipse fill="#ff8c00" stroke="black" cx="1288.24" cy="-602" rx="64.36" ry="18"/>
<text text-anchor="middle" x="1288.24" y="-597.33" font-family="Times,serif" font-size="14.00">gz sensors</text>
</a>
</g>
</g>
<!-- gz&#45;sensors&#45;&gt;gz&#45;sim -->
<g id="edge27" class="edge">
<title>gz&#45;sensors&#45;&gt;gz&#45;sim</title>
<path fill="none" stroke="black" d="M1288.11,-583.59C1287.95,-559.61 1287.64,-516.14 1287.44,-487.42"/>
<polygon fill="black" stroke="black" points="1290.94,-487.6 1287.37,-477.62 1283.94,-487.65 1290.94,-487.6"/>
</g>
<!-- labmaze -->
<g id="node32" class="node">
<title>labmaze</title>
<g id="a_node32"><a xlink:href="https://github.com/conda-forge/labmaze-feedstock/pull/11" xlink:title="labmaze ❎">
<ellipse fill="#31688e" stroke="black" cx="433.24" cy="-566" rx="68.04" ry="18"/>
<text text-anchor="middle" x="433.24" y="-561.33" font-family="Times,serif" font-size="14.00" fill="white">labmaze ❎</text>
</a>
</g>
</g>
<!-- labmaze&#45;&gt;ray&#45;packages -->
<g id="edge28" class="edge">
<title>labmaze&#45;&gt;ray&#45;packages</title>
<path fill="none" stroke="black" d="M435.81,-547.65C438.76,-529.5 444.24,-500.31 452.24,-476 455.01,-467.56 458.72,-458.65 462.38,-450.61"/>
<polygon fill="black" stroke="black" points="465.51,-452.19 466.62,-441.66 459.18,-449.2 465.51,-452.19"/>
</g>
<!-- bloaty -->
<g id="node34" class="node">
<title>bloaty</title>
<g id="a_node34"><a xlink:href="https://github.com/conda-forge/bloaty-feedstock" xlink:title="bloaty">
<ellipse fill="#35b779" stroke="black" cx="1258.24" cy="-54" rx="42.26" ry="18"/>
<text text-anchor="middle" x="1258.24" y="-49.33" font-family="Times,serif" font-size="14.00">bloaty</text>
</a>
</g>
</g>
</g>
</svg>
