<?xml version="1.0" encoding="UTF-8" standalone="no"?>
<!DOCTYPE svg PUBLIC "-//W3C//DTD SVG 1.1//EN"
 "http://www.w3.org/Graphics/SVG/1.1/DTD/svg11.dtd">
<!-- Generated by graphviz version 9.0.0 (20231125.0833)
 -->
<!-- Pages: 1 -->
<svg width="464pt" height="232pt"
 viewBox="0.00 0.00 464.26 232.00" xmlns="http://www.w3.org/2000/svg" xmlns:xlink="http://www.w3.org/1999/xlink">
<g id="graph0" class="graph" transform="scale(1 1) rotate(0) translate(4 228)">
<polygon fill="white" stroke="none" points="-4,4 -4,-228 460.26,-228 460.26,4 -4,4"/>
<!-- openmpi -->
<g id="node1" class="node">
<title>openmpi</title>
<g id="a_node1"><a xlink:href="https://github.com/conda-forge/openmpi-feedstock" xlink:title="openmpi">
<ellipse fill="#35b779" stroke="black" cx="179.78" cy="-206" rx="54.36" ry="18"/>
<text text-anchor="middle" x="179.78" y="-201.32" font-family="Times,serif" font-size="14.00">openmpi</text>
</a>
</g>
</g>
<!-- paraprobe -->
<g id="node6" class="node">
<title>paraprobe</title>
<g id="a_node6"><a xlink:href="https://github.com/conda-forge/paraprobe-feedstock" xlink:title="paraprobe">
<ellipse fill="#fde725" stroke="black" cx="62.78" cy="-134" rx="62.78" ry="18"/>
<text text-anchor="middle" x="62.78" y="-129.32" font-family="Times,serif" font-size="14.00">paraprobe</text>
</a>
</g>
</g>
<!-- openmpi&#45;&gt;paraprobe -->
<g id="edge2" class="edge">
<title>openmpi&#45;&gt;paraprobe</title>
<path fill="none" stroke="black" d="M154.4,-189.81C138.14,-180.09 116.8,-167.32 98.8,-156.55"/>
<polygon fill="black" stroke="black" points="100.61,-153.55 90.23,-151.42 97.01,-159.56 100.61,-153.55"/>
</g>
<!-- flux&#45;core -->
<g id="node7" class="node">
<title>flux&#45;core</title>
<g id="a_node7"><a xlink:href="https://github.com/conda-forge/flux-core-feedstock" xlink:title="flux core">
<ellipse fill="#fde725" stroke="black" cx="197.78" cy="-134" rx="54.36" ry="18"/>
<text text-anchor="middle" x="197.78" y="-129.32" font-family="Times,serif" font-size="14.00">flux core</text>
</a>
</g>
</g>
<!-- openmpi&#45;&gt;flux&#45;core -->
<g id="edge1" class="edge">
<title>openmpi&#45;&gt;flux&#45;core</title>
<path fill="none" stroke="black" d="M184.23,-187.7C186.13,-180.32 188.39,-171.52 190.52,-163.25"/>
<polygon fill="black" stroke="black" points="193.91,-164.13 193.01,-153.57 187.13,-162.38 193.91,-164.13"/>
</g>
<!-- pocl -->
<g id="node2" class="node">
<title>pocl</title>
<g id="a_node2"><a xlink:href="https://github.com/conda-forge/pocl-feedstock" xlink:title="pocl">
<ellipse fill="#35b779" stroke="black" cx="129.78" cy="-18" rx="31.74" ry="18"/>
<text text-anchor="middle" x="129.78" y="-13.32" font-family="Times,serif" font-size="14.00">pocl</text>
</a>
</g>
</g>
<!-- tbb -->
<g id="node3" class="node">
<title>tbb</title>
<g id="a_node3"><a xlink:href="https://github.com/conda-forge/tbb-feedstock" xlink:title="tbb">
<ellipse fill="#35b779" stroke="black" cx="62.78" cy="-206" rx="28.06" ry="18"/>
<text text-anchor="middle" x="62.78" y="-201.32" font-family="Times,serif" font-size="14.00">tbb</text>
</a>
</g>
</g>
<!-- tbb&#45;&gt;paraprobe -->
<g id="edge3" class="edge">
<title>tbb&#45;&gt;paraprobe</title>
<path fill="none" stroke="black" d="M62.78,-187.7C62.78,-180.41 62.78,-171.73 62.78,-163.54"/>
<polygon fill="black" stroke="black" points="66.28,-163.62 62.78,-153.62 59.28,-163.62 66.28,-163.62"/>
</g>
<!-- gromacs -->
<g id="node4" class="node">
<title>gromacs</title>
<g id="a_node4"><a xlink:href="https://github.com/conda-forge/gromacs-feedstock" xlink:title="gromacs">
<ellipse fill="#35b779" stroke="black" cx="321.78" cy="-134" rx="53.84" ry="18"/>
<text text-anchor="middle" x="321.78" y="-129.32" font-family="Times,serif" font-size="14.00">gromacs</text>
</a>
</g>
</g>
<!-- hpx -->
<g id="node5" class="node">
<title>hpx</title>
<g id="a_node5"><a xlink:href="https://github.com/conda-forge/hpx-feedstock" xlink:title="hpx">
<ellipse fill="#35b779" stroke="black" cx="321.78" cy="-18" rx="29.64" ry="18"/>
<text text-anchor="middle" x="321.78" y="-13.32" font-family="Times,serif" font-size="14.00">hpx</text>
</a>
</g>
</g>
<!-- flux&#45;sched -->
<g id="node8" class="node">
<title>flux&#45;sched</title>
<g id="a_node8"><a xlink:href="https://github.com/conda-forge/flux-sched-feedstock" xlink:title="flux sched">
<ellipse fill="#fde725" stroke="black" cx="197.78" cy="-62" rx="61.73" ry="18"/>
<text text-anchor="middle" x="197.78" y="-57.33" font-family="Times,serif" font-size="14.00">flux sched</text>
</a>
</g>
</g>
<!-- flux&#45;core&#45;&gt;flux&#45;sched -->
<g id="edge4" class="edge">
<title>flux&#45;core&#45;&gt;flux&#45;sched</title>
<path fill="none" stroke="black" d="M197.78,-115.7C197.78,-108.41 197.78,-99.73 197.78,-91.54"/>
<polygon fill="black" stroke="black" points="201.28,-91.62 197.78,-81.62 194.28,-91.62 201.28,-91.62"/>
</g>
<!-- spral -->
<g id="node9" class="node">
<title>spral</title>
<g id="a_node9"><a xlink:href="https://github.com/conda-forge/spral-feedstock" xlink:title="spral">
<ellipse fill="#35b779" stroke="black" cx="419.78" cy="-134" rx="36.48" ry="18"/>
<text text-anchor="middle" x="419.78" y="-129.32" font-family="Times,serif" font-size="14.00">spral</text>
</a>
</g>
</g>
</g>
</svg>
