<?xml version="1.0" encoding="UTF-8" standalone="no"?>
<!DOCTYPE svg PUBLIC "-//W3C//DTD SVG 1.1//EN"
 "http://www.w3.org/Graphics/SVG/1.1/DTD/svg11.dtd">
<!-- Generated by graphviz version 9.0.0 (20231125.0833)
 -->
<!-- Pages: 1 -->
<svg width="268pt" height="188pt"
 viewBox="0.00 0.00 267.51 188.00" xmlns="http://www.w3.org/2000/svg" xmlns:xlink="http://www.w3.org/1999/xlink">
<g id="graph0" class="graph" transform="scale(1 1) rotate(0) translate(4 184)">
<polygon fill="white" stroke="none" points="-4,4 -4,-184 263.51,-184 263.51,4 -4,4"/>
<!-- openmpi -->
<g id="node1" class="node">
<title>openmpi</title>
<g id="a_node1"><a xlink:href="https://github.com/conda-forge/openmpi-feedstock/pull/141" xlink:title="openmpi ❎">
<ellipse fill="#31688e" stroke="black" cx="129.78" cy="-162" rx="69.62" ry="18"/>
<text text-anchor="middle" x="129.78" y="-157.32" font-family="Times,serif" font-size="14.00" fill="white">openmpi ❎</text>
</a>
</g>
</g>
<!-- paraprobe -->
<g id="node2" class="node">
<title>paraprobe</title>
<g id="a_node2"><a xlink:href="https://github.com/conda-forge/paraprobe-feedstock" xlink:title="paraprobe">
<ellipse fill="#fde725" stroke="black" cx="62.78" cy="-90" rx="62.78" ry="18"/>
<text text-anchor="middle" x="62.78" y="-85.33" font-family="Times,serif" font-size="14.00">paraprobe</text>
</a>
</g>
</g>
<!-- openmpi&#45;&gt;paraprobe -->
<g id="edge2" class="edge">
<title>openmpi&#45;&gt;paraprobe</title>
<path fill="none" stroke="black" d="M113.56,-144.05C105.5,-135.63 95.59,-125.28 86.68,-115.97"/>
<polygon fill="black" stroke="black" points="89.34,-113.69 79.9,-108.88 84.28,-118.53 89.34,-113.69"/>
</g>
<!-- flux&#45;core -->
<g id="node3" class="node">
<title>flux&#45;core</title>
<g id="a_node3"><a xlink:href="https://github.com/conda-forge/flux-core-feedstock" xlink:title="flux core">
<ellipse fill="#fde725" stroke="black" cx="197.78" cy="-90" rx="54.36" ry="18"/>
<text text-anchor="middle" x="197.78" y="-85.33" font-family="Times,serif" font-size="14.00">flux core</text>
</a>
</g>
</g>
<!-- openmpi&#45;&gt;flux&#45;core -->
<g id="edge1" class="edge">
<title>openmpi&#45;&gt;flux&#45;core</title>
<path fill="none" stroke="black" d="M146.24,-144.05C154.55,-135.5 164.78,-124.97 173.93,-115.56"/>
<polygon fill="black" stroke="black" points="176.43,-118 180.89,-108.39 171.41,-113.13 176.43,-118"/>
</g>
<!-- flux&#45;sched -->
<g id="node4" class="node">
<title>flux&#45;sched</title>
<g id="a_node4"><a xlink:href="https://github.com/conda-forge/flux-sched-feedstock" xlink:title="flux sched">
<ellipse fill="#fde725" stroke="black" cx="197.78" cy="-18" rx="61.73" ry="18"/>
<text text-anchor="middle" x="197.78" y="-13.32" font-family="Times,serif" font-size="14.00">flux sched</text>
</a>
</g>
</g>
<!-- flux&#45;core&#45;&gt;flux&#45;sched -->
<g id="edge3" class="edge">
<title>flux&#45;core&#45;&gt;flux&#45;sched</title>
<path fill="none" stroke="black" d="M197.78,-71.7C197.78,-64.41 197.78,-55.73 197.78,-47.54"/>
<polygon fill="black" stroke="black" points="201.28,-47.62 197.78,-37.62 194.28,-47.62 201.28,-47.62"/>
</g>
</g>
</svg>
