<?xml version="1.0" encoding="UTF-8" standalone="no"?>
<!DOCTYPE svg PUBLIC "-//W3C//DTD SVG 1.1//EN"
 "http://www.w3.org/Graphics/SVG/1.1/DTD/svg11.dtd">
<!-- Generated by graphviz version 8.1.0 (20230707.2238)
 -->
<!-- Pages: 1 -->
<svg width="2851pt" height="952pt"
 viewBox="0.00 0.00 2851.37 952.00" xmlns="http://www.w3.org/2000/svg" xmlns:xlink="http://www.w3.org/1999/xlink">
<g id="graph0" class="graph" transform="scale(1 1) rotate(0) translate(4 948)">
<polygon fill="white" stroke="none" points="-4,4 -4,-948 2847.37,-948 2847.37,4 -4,4"/>
<!-- dlib -->
<g id="node1" class="node">
<title>dlib</title>
<g id="a_node1"><a xlink:href="https://github.com/conda-forge/dlib-feedstock" xlink:title="dlib">
<ellipse fill="#fde725" stroke="black" cx="1549" cy="-602" rx="30.16" ry="18"/>
<text text-anchor="middle" x="1549" y="-597.33" font-family="Times,serif" font-size="14.00">dlib</text>
</a>
</g>
</g>
<!-- emacs -->
<g id="node2" class="node">
<title>emacs</title>
<g id="a_node2"><a xlink:href="https://github.com/conda-forge/emacs-feedstock" xlink:title="emacs">
<ellipse fill="#ff8c00" stroke="black" cx="2415" cy="-926" rx="42.79" ry="18"/>
<text text-anchor="middle" x="2415" y="-921.33" font-family="Times,serif" font-size="14.00">emacs</text>
</a>
</g>
</g>
<!-- libitk -->
<g id="node3" class="node">
<title>libitk</title>
<g id="a_node3"><a xlink:href="https://github.com/conda-forge/libitk-feedstock" xlink:title="libitk">
<ellipse fill="#ff8c00" stroke="black" cx="2415" cy="-854" rx="37" ry="18"/>
<text text-anchor="middle" x="2415" y="-849.33" font-family="Times,serif" font-size="14.00">libitk</text>
</a>
</g>
</g>
<!-- emacs&#45;&gt;libitk -->
<!-- openmotif -->
<g id="node13" class="node">
<title>openmotif</title>
<g id="a_node13"><a xlink:href="https://github.com/conda-forge/openmotif-feedstock/pull/15" xlink:title="openmotif ✓">
<ellipse fill="#31688e" stroke="black" cx="2415" cy="-782" rx="69.62" ry="18"/>
<text text-anchor="middle" x="2415" y="-777.33" font-family="Times,serif" font-size="14.00" fill="white">openmotif ✓</text>
</a>
</g>
</g>
<!-- libitk&#45;&gt;openmotif -->
<!-- freeimage -->
<g id="node4" class="node">
<title>freeimage</title>
<g id="a_node4"><a xlink:href="https://github.com/conda-forge/freeimage-feedstock" xlink:title="freeimage">
<ellipse fill="#fde725" stroke="black" cx="2223" cy="-602" rx="61.73" ry="18"/>
<text text-anchor="middle" x="2223" y="-597.33" font-family="Times,serif" font-size="14.00">freeimage</text>
</a>
</g>
</g>
<!-- gdal -->
<g id="node5" class="node">
<title>gdal</title>
<g id="a_node5"><a xlink:href="https://github.com/conda-forge/gdal-feedstock" xlink:title="gdal">
<ellipse fill="#fde725" stroke="black" cx="764" cy="-602" rx="32.79" ry="18"/>
<text text-anchor="middle" x="764" y="-597.33" font-family="Times,serif" font-size="14.00">gdal</text>
</a>
</g>
</g>
<!-- ncl -->
<g id="node6" class="node">
<title>ncl</title>
<g id="a_node6"><a xlink:href="https://github.com/conda-forge/ncl-feedstock" xlink:title="ncl">
<ellipse fill="#fde725" stroke="black" cx="950" cy="-530" rx="27" ry="18"/>
<text text-anchor="middle" x="950" y="-525.33" font-family="Times,serif" font-size="14.00">ncl</text>
</a>
</g>
</g>
<!-- gdal&#45;&gt;ncl -->
<g id="edge2" class="edge">
<title>gdal&#45;&gt;ncl</title>
<path fill="none" stroke="black" d="M790.65,-590.97C823.93,-578.45 880.86,-557.02 916.9,-543.46"/>
<polygon fill="black" stroke="black" points="917.79,-546.48 925.92,-539.69 915.33,-539.93 917.79,-546.48"/>
</g>
<!-- mapserver -->
<g id="node7" class="node">
<title>mapserver</title>
<g id="a_node7"><a xlink:href="https://github.com/conda-forge/mapserver-feedstock" xlink:title="mapserver">
<ellipse fill="#fde725" stroke="black" cx="681" cy="-530" rx="64.89" ry="18"/>
<text text-anchor="middle" x="681" y="-525.33" font-family="Times,serif" font-size="14.00">mapserver</text>
</a>
</g>
</g>
<!-- gdal&#45;&gt;mapserver -->
<g id="edge3" class="edge">
<title>gdal&#45;&gt;mapserver</title>
<path fill="none" stroke="black" d="M746.8,-586.5C735.84,-577.26 721.4,-565.07 708.83,-554.47"/>
<polygon fill="black" stroke="black" points="711.4,-551.22 701.5,-547.45 706.89,-556.57 711.4,-551.22"/>
</g>
<!-- imagemagick -->
<g id="node8" class="node">
<title>imagemagick</title>
<g id="a_node8"><a xlink:href="https://github.com/conda-forge/imagemagick-feedstock" xlink:title="imagemagick">
<ellipse fill="#fde725" stroke="black" cx="969" cy="-602" rx="77.52" ry="18"/>
<text text-anchor="middle" x="969" y="-597.33" font-family="Times,serif" font-size="14.00">imagemagick</text>
</a>
</g>
</g>
<!-- imagemagick&#45;&gt;ncl -->
<g id="edge4" class="edge">
<title>imagemagick&#45;&gt;ncl</title>
<path fill="none" stroke="black" d="M964.3,-583.7C962.25,-576.15 959.8,-567.12 957.51,-558.68"/>
<polygon fill="black" stroke="black" points="960.64,-557.84 954.64,-549.1 953.88,-559.67 960.64,-557.84"/>
</g>
<!-- libvips -->
<g id="node9" class="node">
<title>libvips</title>
<g id="a_node9"><a xlink:href="https://github.com/conda-forge/libvips-feedstock" xlink:title="libvips">
<ellipse fill="#fde725" stroke="black" cx="1156" cy="-530" rx="44.37" ry="18"/>
<text text-anchor="middle" x="1156" y="-525.33" font-family="Times,serif" font-size="14.00">libvips</text>
</a>
</g>
</g>
<!-- imagemagick&#45;&gt;libvips -->
<g id="edge5" class="edge">
<title>imagemagick&#45;&gt;libvips</title>
<path fill="none" stroke="black" d="M1008.66,-586.15C1039.58,-574.58 1082.41,-558.55 1113.93,-546.75"/>
<polygon fill="black" stroke="black" points="1115.01,-549.71 1123.15,-542.92 1112.56,-543.15 1115.01,-549.71"/>
</g>
<!-- imread -->
<g id="node10" class="node">
<title>imread</title>
<g id="a_node10"><a xlink:href="https://github.com/conda-forge/imread-feedstock" xlink:title="imread">
<ellipse fill="#fde725" stroke="black" cx="1347" cy="-674" rx="46.47" ry="18"/>
<text text-anchor="middle" x="1347" y="-669.33" font-family="Times,serif" font-size="14.00">imread</text>
</a>
</g>
</g>
<!-- libgd -->
<g id="node11" class="node">
<title>libgd</title>
<g id="a_node11"><a xlink:href="https://github.com/conda-forge/libgd-feedstock" xlink:title="libgd">
<ellipse fill="#fde725" stroke="black" cx="1033" cy="-674" rx="36.48" ry="18"/>
<text text-anchor="middle" x="1033" y="-669.33" font-family="Times,serif" font-size="14.00">libgd</text>
</a>
</g>
</g>
<!-- libgd&#45;&gt;imagemagick -->
<g id="edge6" class="edge">
<title>libgd&#45;&gt;imagemagick</title>
<path fill="none" stroke="black" d="M1018.48,-657.12C1010.52,-648.42 1000.49,-637.45 991.55,-627.66"/>
<polygon fill="black" stroke="black" points="994.69,-625.82 985.36,-620.8 989.52,-630.54 994.69,-625.82"/>
</g>
<!-- graphicsmagick -->
<g id="node12" class="node">
<title>graphicsmagick</title>
<g id="a_node12"><a xlink:href="https://github.com/conda-forge/graphicsmagick-feedstock" xlink:title="graphicsmagick">
<ellipse fill="#fde725" stroke="black" cx="1155" cy="-602" rx="90.14" ry="18"/>
<text text-anchor="middle" x="1155" y="-597.33" font-family="Times,serif" font-size="14.00">graphicsmagick</text>
</a>
</g>
</g>
<!-- libgd&#45;&gt;graphicsmagick -->
<g id="edge7" class="edge">
<title>libgd&#45;&gt;graphicsmagick</title>
<path fill="none" stroke="black" d="M1056.23,-659.67C1073.34,-649.85 1096.99,-636.28 1116.86,-624.88"/>
<polygon fill="black" stroke="black" points="1118.33,-627.5 1125.26,-619.49 1114.85,-621.43 1118.33,-627.5"/>
</g>
<!-- xfig -->
<g id="node22" class="node">
<title>xfig</title>
<g id="a_node22"><a xlink:href="https://github.com/conda-forge/xfig-feedstock/pull/8" xlink:title="xfig ✓">
<ellipse fill="#31688e" stroke="black" cx="2415" cy="-710" rx="37.53" ry="18"/>
<text text-anchor="middle" x="2415" y="-705.33" font-family="Times,serif" font-size="14.00" fill="white">xfig ✓</text>
</a>
</g>
</g>
<!-- openmotif&#45;&gt;xfig -->
<!-- opencv -->
<g id="node14" class="node">
<title>opencv</title>
<g id="a_node14"><a xlink:href="https://github.com/conda-forge/opencv-feedstock" xlink:title="opencv">
<ellipse fill="#fde725" stroke="black" cx="231" cy="-674" rx="46.47" ry="18"/>
<text text-anchor="middle" x="231" y="-669.33" font-family="Times,serif" font-size="14.00">opencv</text>
</a>
</g>
</g>
<!-- yarp -->
<g id="node15" class="node">
<title>yarp</title>
<g id="a_node15"><a xlink:href="https://github.com/conda-forge/yarp-feedstock" xlink:title="yarp">
<ellipse fill="#fde725" stroke="black" cx="147" cy="-602" rx="33.85" ry="18"/>
<text text-anchor="middle" x="147" y="-597.33" font-family="Times,serif" font-size="14.00">yarp</text>
</a>
</g>
</g>
<!-- opencv&#45;&gt;yarp -->
<g id="edge9" class="edge">
<title>opencv&#45;&gt;yarp</title>
<path fill="none" stroke="black" d="M211.94,-657.12C200.38,-647.48 185.47,-635.06 172.85,-624.54"/>
<polygon fill="black" stroke="black" points="175.48,-621.34 165.55,-617.63 170.99,-626.72 175.48,-621.34"/>
</g>
<!-- visp -->
<g id="node16" class="node">
<title>visp</title>
<g id="a_node16"><a xlink:href="https://github.com/conda-forge/visp-feedstock" xlink:title="visp">
<ellipse fill="#fde725" stroke="black" cx="231" cy="-602" rx="31.74" ry="18"/>
<text text-anchor="middle" x="231" y="-597.33" font-family="Times,serif" font-size="14.00">visp</text>
</a>
</g>
</g>
<!-- opencv&#45;&gt;visp -->
<g id="edge10" class="edge">
<title>opencv&#45;&gt;visp</title>
<path fill="none" stroke="black" d="M231,-655.7C231,-648.24 231,-639.32 231,-630.97"/>
<polygon fill="black" stroke="black" points="234.5,-631.1 231,-621.1 227.5,-631.1 234.5,-631.1"/>
</g>
<!-- openjdk -->
<g id="node17" class="node">
<title>openjdk</title>
<g id="a_node17"><a xlink:href="https://github.com/conda-forge/openjdk-feedstock" xlink:title="openjdk">
<ellipse fill="#fde725" stroke="black" cx="2017" cy="-674" rx="50.68" ry="18"/>
<text text-anchor="middle" x="2017" y="-669.33" font-family="Times,serif" font-size="14.00">openjdk</text>
</a>
</g>
</g>
<!-- tensorflow -->
<g id="node18" class="node">
<title>tensorflow</title>
<g id="a_node18"><a xlink:href="https://github.com/conda-forge/tensorflow-feedstock" xlink:title="tensorflow">
<ellipse fill="#fde725" stroke="black" cx="1977" cy="-602" rx="63.84" ry="18"/>
<text text-anchor="middle" x="1977" y="-597.33" font-family="Times,serif" font-size="14.00">tensorflow</text>
</a>
</g>
</g>
<!-- openjdk&#45;&gt;tensorflow -->
<g id="edge11" class="edge">
<title>openjdk&#45;&gt;tensorflow</title>
<path fill="none" stroke="black" d="M2007.32,-656.05C2002.81,-648.18 1997.35,-638.62 1992.31,-629.79"/>
<polygon fill="black" stroke="black" points="1994.87,-628.22 1986.87,-621.28 1988.79,-631.69 1994.87,-628.22"/>
</g>
<!-- swi&#45;prolog -->
<g id="node19" class="node">
<title>swi&#45;prolog</title>
<g id="a_node19"><a xlink:href="https://github.com/conda-forge/swi-prolog-feedstock" xlink:title="swi prolog">
<ellipse fill="#fde725" stroke="black" cx="1976" cy="-530" rx="63.31" ry="18"/>
<text text-anchor="middle" x="1976" y="-525.33" font-family="Times,serif" font-size="14.00">swi prolog</text>
</a>
</g>
</g>
<!-- openjdk&#45;&gt;swi&#45;prolog -->
<g id="edge12" class="edge">
<title>openjdk&#45;&gt;swi&#45;prolog</title>
<path fill="none" stroke="black" d="M2031.25,-656.43C2045.12,-638.17 2062.43,-608.19 2050,-584 2043.03,-570.43 2030.78,-559.55 2018.24,-551.27"/>
<polygon fill="black" stroke="black" points="2020.48,-547.93 2010.13,-545.7 2016.83,-553.9 2020.48,-547.93"/>
</g>
<!-- libpano13 -->
<g id="node20" class="node">
<title>libpano13</title>
<g id="a_node20"><a xlink:href="https://github.com/conda-forge/libpano13-feedstock" xlink:title="libpano13">
<ellipse fill="#fde725" stroke="black" cx="2183" cy="-458" rx="60.68" ry="18"/>
<text text-anchor="middle" x="2183" y="-453.32" font-family="Times,serif" font-size="14.00">libpano13</text>
</a>
</g>
</g>
<!-- openjdk&#45;&gt;libpano13 -->
<g id="edge13" class="edge">
<title>openjdk&#45;&gt;libpano13</title>
<path fill="none" stroke="black" d="M2036.04,-657.22C2062.05,-634.95 2108.96,-592.06 2140,-548 2153.55,-528.77 2164.92,-504.61 2172.56,-486.32"/>
<polygon fill="black" stroke="black" points="2176.1,-487.89 2176.61,-477.31 2169.61,-485.26 2176.1,-487.89"/>
</g>
<!-- hugin -->
<g id="node21" class="node">
<title>hugin</title>
<g id="a_node21"><a xlink:href="https://github.com/conda-forge/hugin-feedstock" xlink:title="hugin">
<ellipse fill="#fde725" stroke="black" cx="2138" cy="-386" rx="39.63" ry="18"/>
<text text-anchor="middle" x="2138" y="-381.32" font-family="Times,serif" font-size="14.00">hugin</text>
</a>
</g>
</g>
<!-- libpano13&#45;&gt;hugin -->
<g id="edge14" class="edge">
<title>libpano13&#45;&gt;hugin</title>
<path fill="none" stroke="black" d="M2172.11,-440.05C2166.85,-431.89 2160.44,-421.91 2154.6,-412.82"/>
<polygon fill="black" stroke="black" points="2157.14,-411.31 2148.79,-404.79 2151.26,-415.09 2157.14,-411.31"/>
</g>
<!-- u3d -->
<g id="node41" class="node">
<title>u3d</title>
<g id="a_node41"><a xlink:href="https://github.com/conda-forge/u3d-feedstock/pull/25" xlink:title="u3d ✓">
<ellipse fill="#31688e" stroke="black" cx="2415" cy="-638" rx="38.06" ry="18"/>
<text text-anchor="middle" x="2415" y="-633.33" font-family="Times,serif" font-size="14.00" fill="white">u3d ✓</text>
</a>
</g>
</g>
<!-- xfig&#45;&gt;u3d -->
<!-- paraview -->
<g id="node23" class="node">
<title>paraview</title>
<g id="a_node23"><a xlink:href="https://github.com/conda-forge/paraview-feedstock" xlink:title="paraview">
<ellipse fill="#fde725" stroke="black" cx="1358" cy="-602" rx="57" ry="18"/>
<text text-anchor="middle" x="1358" y="-597.33" font-family="Times,serif" font-size="14.00">paraview</text>
</a>
</g>
</g>
<!-- pillow -->
<g id="node24" class="node">
<title>pillow</title>
<g id="a_node24"><a xlink:href="https://github.com/conda-forge/pillow-feedstock" xlink:title="pillow">
<ellipse fill="#fde725" stroke="black" cx="1607" cy="-674" rx="41.21" ry="18"/>
<text text-anchor="middle" x="1607" y="-669.33" font-family="Times,serif" font-size="14.00">pillow</text>
</a>
</g>
</g>
<!-- pillow&#45;&gt;dlib -->
<g id="edge16" class="edge">
<title>pillow&#45;&gt;dlib</title>
<path fill="none" stroke="black" d="M1593.55,-656.76C1586.2,-647.89 1576.95,-636.74 1568.8,-626.89"/>
<polygon fill="black" stroke="black" points="1571.05,-625.13 1561.98,-619.67 1565.66,-629.6 1571.05,-625.13"/>
</g>
<!-- pillow&#45;&gt;paraview -->
<g id="edge17" class="edge">
<title>pillow&#45;&gt;paraview</title>
<path fill="none" stroke="black" d="M1572.9,-663.41C1530.83,-651.59 1458.89,-631.36 1409.94,-617.6"/>
<polygon fill="black" stroke="black" points="1411.13,-614.02 1400.56,-614.68 1409.24,-620.76 1411.13,-614.02"/>
</g>
<!-- torchvision -->
<g id="node25" class="node">
<title>torchvision</title>
<g id="a_node25"><a xlink:href="https://github.com/conda-forge/torchvision-feedstock" xlink:title="torchvision">
<ellipse fill="#fde725" stroke="black" cx="1645" cy="-530" rx="66.99" ry="18"/>
<text text-anchor="middle" x="1645" y="-525.33" font-family="Times,serif" font-size="14.00">torchvision</text>
</a>
</g>
</g>
<!-- pillow&#45;&gt;torchvision -->
<g id="edge18" class="edge">
<title>pillow&#45;&gt;torchvision</title>
<path fill="none" stroke="black" d="M1611.58,-655.87C1618.03,-631.78 1629.85,-587.6 1637.57,-558.77"/>
<polygon fill="black" stroke="black" points="1641.2,-559.75 1640.4,-549.19 1634.43,-557.94 1641.2,-559.75"/>
</g>
<!-- wxpython -->
<g id="node26" class="node">
<title>wxpython</title>
<g id="a_node26"><a xlink:href="https://github.com/conda-forge/wxpython-feedstock" xlink:title="wxpython">
<ellipse fill="#fde725" stroke="black" cx="1740" cy="-458" rx="60.15" ry="18"/>
<text text-anchor="middle" x="1740" y="-453.32" font-family="Times,serif" font-size="14.00">wxpython</text>
</a>
</g>
</g>
<!-- pillow&#45;&gt;wxpython -->
<g id="edge19" class="edge">
<title>pillow&#45;&gt;wxpython</title>
<path fill="none" stroke="black" d="M1626.08,-657.84C1651.83,-636.29 1697.23,-594.23 1721,-548 1730.76,-529.01 1735.51,-505.26 1737.82,-487.07"/>
<polygon fill="black" stroke="black" points="1741.39,-487.61 1738.99,-477.29 1734.43,-486.86 1741.39,-487.61"/>
</g>
<!-- lammps -->
<g id="node27" class="node">
<title>lammps</title>
<g id="a_node27"><a xlink:href="https://github.com/conda-forge/lammps-feedstock" xlink:title="lammps">
<ellipse fill="#fde725" stroke="black" cx="1550" cy="-386" rx="50.68" ry="18"/>
<text text-anchor="middle" x="1550" y="-381.32" font-family="Times,serif" font-size="14.00">lammps</text>
</a>
</g>
</g>
<!-- pillow&#45;&gt;lammps -->
<g id="edge20" class="edge">
<title>pillow&#45;&gt;lammps</title>
<path fill="none" stroke="black" d="M1604.73,-655.55C1602.02,-637.31 1596.73,-608.06 1588,-584 1581.83,-566.99 1574.37,-565.28 1569,-548 1555,-503 1551.19,-447.99 1550.22,-415.32"/>
<polygon fill="black" stroke="black" points="1553.7,-415.27 1549.98,-405.35 1546.7,-415.42 1553.7,-415.27"/>
</g>
<!-- panda3d -->
<g id="node28" class="node">
<title>panda3d</title>
<g id="a_node28"><a xlink:href="https://github.com/conda-forge/panda3d-feedstock" xlink:title="panda3d">
<ellipse fill="#fde725" stroke="black" cx="1765" cy="-602" rx="54.36" ry="18"/>
<text text-anchor="middle" x="1765" y="-597.33" font-family="Times,serif" font-size="14.00">panda3d</text>
</a>
</g>
</g>
<!-- pillow&#45;&gt;panda3d -->
<g id="edge21" class="edge">
<title>pillow&#45;&gt;panda3d</title>
<path fill="none" stroke="black" d="M1635.25,-660.49C1659.83,-649.59 1695.79,-633.66 1723.62,-621.33"/>
<polygon fill="black" stroke="black" points="1724.75,-624.22 1732.47,-616.97 1721.91,-617.82 1724.75,-624.22"/>
</g>
<!-- xpra -->
<g id="node29" class="node">
<title>xpra</title>
<g id="a_node29"><a xlink:href="https://github.com/conda-forge/xpra-feedstock" xlink:title="xpra">
<ellipse fill="#fde725" stroke="black" cx="1467" cy="-602" rx="33.85" ry="18"/>
<text text-anchor="middle" x="1467" y="-597.33" font-family="Times,serif" font-size="14.00">xpra</text>
</a>
</g>
</g>
<!-- pillow&#45;&gt;xpra -->
<g id="edge22" class="edge">
<title>pillow&#45;&gt;xpra</title>
<path fill="none" stroke="black" d="M1580.67,-659.83C1557.97,-648.49 1525.08,-632.04 1500.51,-619.76"/>
<polygon fill="black" stroke="black" points="1502.39,-616.28 1491.88,-614.94 1499.26,-622.54 1502.39,-616.28"/>
</g>
<!-- poppler -->
<g id="node30" class="node">
<title>poppler</title>
<g id="a_node30"><a xlink:href="https://github.com/conda-forge/poppler-feedstock" xlink:title="poppler">
<ellipse fill="#fde725" stroke="black" cx="764" cy="-674" rx="49.63" ry="18"/>
<text text-anchor="middle" x="764" y="-669.33" font-family="Times,serif" font-size="14.00">poppler</text>
</a>
</g>
</g>
<!-- poppler&#45;&gt;gdal -->
<g id="edge23" class="edge">
<title>poppler&#45;&gt;gdal</title>
<path fill="none" stroke="black" d="M764,-655.7C764,-648.24 764,-639.32 764,-630.97"/>
<polygon fill="black" stroke="black" points="767.5,-631.1 764,-621.1 760.5,-631.1 767.5,-631.1"/>
</g>
<!-- poppler&#45;&gt;libvips -->
<g id="edge24" class="edge">
<title>poppler&#45;&gt;libvips</title>
<path fill="none" stroke="black" d="M780.38,-656.69C801.81,-636.35 841.44,-602.05 882,-584 953.59,-552.15 1044.07,-539.39 1101.01,-534.31"/>
<polygon fill="black" stroke="black" points="1101.26,-537.72 1110.94,-533.39 1100.68,-530.74 1101.26,-537.72"/>
</g>
<!-- ipe -->
<g id="node31" class="node">
<title>ipe</title>
<g id="a_node31"><a xlink:href="https://github.com/conda-forge/ipe-feedstock" xlink:title="ipe">
<ellipse fill="#fde725" stroke="black" cx="600" cy="-602" rx="27" ry="18"/>
<text text-anchor="middle" x="600" y="-597.33" font-family="Times,serif" font-size="14.00">ipe</text>
</a>
</g>
</g>
<!-- poppler&#45;&gt;ipe -->
<g id="edge25" class="edge">
<title>poppler&#45;&gt;ipe</title>
<path fill="none" stroke="black" d="M731.46,-660.04C705.48,-649.56 668.22,-634.27 636,-620 634.54,-619.35 633.05,-618.68 631.54,-618"/>
<polygon fill="black" stroke="black" points="633.17,-614.44 622.62,-613.42 630.23,-620.79 633.17,-614.44"/>
</g>
<!-- sane -->
<g id="node32" class="node">
<title>sane</title>
<g id="a_node32"><a xlink:href="https://github.com/conda-forge/sane-feedstock" xlink:title="sane">
<ellipse fill="#fde725" stroke="black" cx="679" cy="-602" rx="34.37" ry="18"/>
<text text-anchor="middle" x="679" y="-597.33" font-family="Times,serif" font-size="14.00">sane</text>
</a>
</g>
</g>
<!-- poppler&#45;&gt;sane -->
<g id="edge26" class="edge">
<title>poppler&#45;&gt;sane</title>
<path fill="none" stroke="black" d="M744.71,-657.12C733.01,-647.48 717.92,-635.06 705.16,-624.54"/>
<polygon fill="black" stroke="black" points="707.71,-621.28 697.76,-617.63 703.26,-626.69 707.71,-621.28"/>
</g>
<!-- r&#45;base -->
<g id="node33" class="node">
<title>r&#45;base</title>
<g id="a_node33"><a xlink:href="https://github.com/conda-forge/r-base-feedstock/pull/282" xlink:title="r base ❎">
<ellipse fill="#31688e" stroke="black" cx="2685" cy="-746" rx="57.52" ry="18"/>
<text text-anchor="middle" x="2685" y="-741.33" font-family="Times,serif" font-size="14.00" fill="white">r base ❎</text>
</a>
</g>
</g>
<!-- r&#45;cairo -->
<g id="node34" class="node">
<title>r&#45;cairo</title>
<g id="a_node34"><a xlink:href="https://github.com/conda-forge/r-cairo-feedstock" xlink:title="r cairo">
<ellipse fill="#fde725" stroke="black" cx="2560" cy="-674" rx="43.84" ry="18"/>
<text text-anchor="middle" x="2560" y="-669.33" font-family="Times,serif" font-size="14.00">r cairo</text>
</a>
</g>
</g>
<!-- r&#45;base&#45;&gt;r&#45;cairo -->
<g id="edge27" class="edge">
<title>r&#45;base&#45;&gt;r&#45;cairo</title>
<path fill="none" stroke="black" d="M2657.88,-729.81C2639.24,-719.38 2614.35,-705.44 2594.33,-694.23"/>
<polygon fill="black" stroke="black" points="2596.38,-690.8 2585.95,-688.97 2592.96,-696.91 2596.38,-690.8"/>
</g>
<!-- r&#45;jpeg -->
<g id="node35" class="node">
<title>r&#45;jpeg</title>
<g id="a_node35"><a xlink:href="https://github.com/conda-forge/r-jpeg-feedstock" xlink:title="r jpeg">
<ellipse fill="#fde725" stroke="black" cx="2616" cy="-602" rx="40.69" ry="18"/>
<text text-anchor="middle" x="2616" y="-597.33" font-family="Times,serif" font-size="14.00">r jpeg</text>
</a>
</g>
</g>
<!-- r&#45;base&#45;&gt;r&#45;jpeg -->
<g id="edge28" class="edge">
<title>r&#45;base&#45;&gt;r&#45;jpeg</title>
<path fill="none" stroke="black" d="M2676.68,-727.87C2664.8,-703.43 2642.89,-658.33 2628.9,-629.55"/>
<polygon fill="black" stroke="black" points="2631.66,-628.21 2624.14,-620.75 2625.36,-631.27 2631.66,-628.21"/>
</g>
<!-- r&#45;qpdf -->
<g id="node36" class="node">
<title>r&#45;qpdf</title>
<g id="a_node36"><a xlink:href="https://github.com/conda-forge/r-qpdf-feedstock" xlink:title="r qpdf">
<ellipse fill="#fde725" stroke="black" cx="2669" cy="-530" rx="41.74" ry="18"/>
<text text-anchor="middle" x="2669" y="-525.33" font-family="Times,serif" font-size="14.00">r qpdf</text>
</a>
</g>
</g>
<!-- r&#45;base&#45;&gt;r&#45;qpdf -->
<g id="edge29" class="edge">
<title>r&#45;base&#45;&gt;r&#45;qpdf</title>
<path fill="none" stroke="black" d="M2683.72,-727.85C2680.96,-690.99 2674.45,-603.92 2671.09,-558.96"/>
<polygon fill="black" stroke="black" points="2674.52,-558.94 2670.29,-549.23 2667.54,-559.47 2674.52,-558.94"/>
</g>
<!-- r&#45;ragg -->
<g id="node37" class="node">
<title>r&#45;ragg</title>
<g id="a_node37"><a xlink:href="https://github.com/conda-forge/r-ragg-feedstock" xlink:title="r ragg">
<ellipse fill="#fde725" stroke="black" cx="2739" cy="-458" rx="42.26" ry="18"/>
<text text-anchor="middle" x="2739" y="-453.32" font-family="Times,serif" font-size="14.00">r ragg</text>
</a>
</g>
</g>
<!-- r&#45;base&#45;&gt;r&#45;ragg -->
<g id="edge30" class="edge">
<title>r&#45;base&#45;&gt;r&#45;ragg</title>
<path fill="none" stroke="black" d="M2688.3,-727.54C2697.36,-679.56 2722.69,-545.39 2733.74,-486.88"/>
<polygon fill="black" stroke="black" points="2737.33,-487.71 2735.75,-477.23 2730.45,-486.41 2737.33,-487.71"/>
</g>
<!-- harp -->
<g id="node38" class="node">
<title>harp</title>
<g id="a_node38"><a xlink:href="https://github.com/conda-forge/harp-feedstock" xlink:title="harp">
<ellipse fill="#fde725" stroke="black" cx="2809" cy="-386" rx="34.37" ry="18"/>
<text text-anchor="middle" x="2809" y="-381.32" font-family="Times,serif" font-size="14.00">harp</text>
</a>
</g>
</g>
<!-- r&#45;base&#45;&gt;harp -->
<g id="edge31" class="edge">
<title>r&#45;base&#45;&gt;harp</title>
<path fill="none" stroke="black" d="M2712.21,-729.9C2748.71,-707.41 2809,-661.42 2809,-603 2809,-603 2809,-603 2809,-529 2809,-489.57 2809,-443.97 2809,-415.31"/>
<polygon fill="black" stroke="black" points="2812.5,-415.49 2809,-405.49 2805.5,-415.49 2812.5,-415.49"/>
</g>
<!-- vigra -->
<g id="node39" class="node">
<title>vigra</title>
<g id="a_node39"><a xlink:href="https://github.com/conda-forge/vigra-feedstock" xlink:title="vigra">
<ellipse fill="#ff8c00" stroke="black" cx="2094" cy="-530" rx="37" ry="18"/>
<text text-anchor="middle" x="2094" y="-525.33" font-family="Times,serif" font-size="14.00">vigra</text>
</a>
</g>
</g>
<!-- vigra&#45;&gt;hugin -->
<g id="edge33" class="edge">
<title>vigra&#45;&gt;hugin</title>
<path fill="none" stroke="black" d="M2096.49,-511.62C2099.38,-493.45 2104.81,-464.25 2113,-440 2116.01,-431.09 2120.1,-421.71 2124.11,-413.35"/>
<polygon fill="black" stroke="black" points="2127.55,-415.28 2128.87,-404.77 2121.28,-412.17 2127.55,-415.28"/>
</g>
<!-- enblend -->
<g id="node40" class="node">
<title>enblend</title>
<g id="a_node40"><a xlink:href="https://github.com/conda-forge/enblend-feedstock" xlink:title="enblend">
<ellipse fill="#fde725" stroke="black" cx="2015" cy="-458" rx="51.21" ry="18"/>
<text text-anchor="middle" x="2015" y="-453.32" font-family="Times,serif" font-size="14.00">enblend</text>
</a>
</g>
</g>
<!-- vigra&#45;&gt;enblend -->
<g id="edge32" class="edge">
<title>vigra&#45;&gt;enblend</title>
<path fill="none" stroke="black" d="M2076.86,-513.81C2066.49,-504.62 2053.05,-492.72 2041.35,-482.35"/>
<polygon fill="black" stroke="black" points="2044.01,-480.15 2034.21,-476.13 2039.37,-485.39 2044.01,-480.15"/>
</g>
<!-- enblend&#45;&gt;hugin -->
<g id="edge34" class="edge">
<title>enblend&#45;&gt;hugin</title>
<path fill="none" stroke="black" d="M2041.08,-442.15C2059.63,-431.6 2084.69,-417.34 2104.68,-405.96"/>
<polygon fill="black" stroke="black" points="2106.08,-408.62 2113.04,-400.64 2102.61,-402.54 2106.08,-408.62"/>
</g>
<!-- qpdf -->
<g id="node42" class="node">
<title>qpdf</title>
<g id="a_node42"><a xlink:href="https://github.com/conda-forge/qpdf-feedstock/pull/35" xlink:title="qpdf ✓">
<ellipse fill="#31688e" stroke="black" cx="2415" cy="-566" rx="41.74" ry="18"/>
<text text-anchor="middle" x="2415" y="-561.33" font-family="Times,serif" font-size="14.00" fill="white">qpdf ✓</text>
</a>
</g>
</g>
<!-- u3d&#45;&gt;qpdf -->
<!-- accimage -->
<g id="node52" class="node">
<title>accimage</title>
<g id="a_node52"><a xlink:href="https://github.com/conda-forge/accimage-feedstock/pull/14" xlink:title="accimage ✓">
<ellipse fill="#31688e" stroke="black" cx="2415" cy="-494" rx="65.94" ry="18"/>
<text text-anchor="middle" x="2415" y="-489.32" font-family="Times,serif" font-size="14.00" fill="white">accimage ✓</text>
</a>
</g>
</g>
<!-- qpdf&#45;&gt;accimage -->
<!-- vtk -->
<g id="node43" class="node">
<title>vtk</title>
<g id="a_node43"><a xlink:href="https://github.com/conda-forge/vtk-feedstock" xlink:title="vtk">
<ellipse fill="#fde725" stroke="black" cx="140" cy="-674" rx="27.01" ry="18"/>
<text text-anchor="middle" x="140" y="-669.33" font-family="Times,serif" font-size="14.00">vtk</text>
</a>
</g>
</g>
<!-- libwebp -->
<g id="node44" class="node">
<title>libwebp</title>
<g id="a_node44"><a xlink:href="https://github.com/conda-forge/libwebp-feedstock" xlink:title="libwebp">
<ellipse fill="#ff8c00" stroke="black" cx="1001" cy="-746" rx="50.68" ry="18"/>
<text text-anchor="middle" x="1001" y="-741.33" font-family="Times,serif" font-size="14.00">libwebp</text>
</a>
</g>
</g>
<!-- libwebp&#45;&gt;imagemagick -->
<g id="edge37" class="edge">
<title>libwebp&#45;&gt;imagemagick</title>
<path fill="none" stroke="black" d="M996.65,-727.85C994.06,-717.48 990.75,-704 988,-692 983.33,-671.66 978.43,-648.62 974.77,-631.08"/>
<polygon fill="black" stroke="black" points="978.02,-630.51 972.56,-621.43 971.16,-631.93 978.02,-630.51"/>
</g>
<!-- libwebp&#45;&gt;libvips -->
<g id="edge38" class="edge">
<title>libwebp&#45;&gt;libvips</title>
<path fill="none" stroke="black" d="M1046.37,-737.48C1106.02,-724.89 1208.57,-693.29 1254,-620 1262.43,-606.4 1262.19,-597.74 1254,-584 1242.7,-565.04 1222,-552.45 1202.53,-544.32"/>
<polygon fill="black" stroke="black" points="1204.1,-540.79 1193.51,-540.47 1201.59,-547.33 1204.1,-540.79"/>
</g>
<!-- libwebp&#45;&gt;imread -->
<g id="edge39" class="edge">
<title>libwebp&#45;&gt;imread</title>
<path fill="none" stroke="black" d="M1046.84,-737.85C1103.55,-728.7 1202.91,-711.66 1287,-692 1291.39,-690.97 1295.93,-689.83 1300.47,-688.64"/>
<polygon fill="black" stroke="black" points="1301.23,-691.79 1309.97,-685.79 1299.4,-685.03 1301.23,-691.79"/>
</g>
<!-- libwebp&#45;&gt;libgd -->
<g id="edge40" class="edge">
<title>libwebp&#45;&gt;libgd</title>
<path fill="none" stroke="black" d="M1008.75,-728.05C1012.36,-720.14 1016.75,-710.54 1020.8,-701.69"/>
<polygon fill="black" stroke="black" points="1024.35,-703.34 1025.32,-692.79 1017.98,-700.43 1024.35,-703.34"/>
</g>
<!-- libwebp&#45;&gt;graphicsmagick -->
<g id="edge41" class="edge">
<title>libwebp&#45;&gt;graphicsmagick</title>
<path fill="none" stroke="black" d="M1026.11,-730.02C1041.76,-720.14 1061.92,-706.4 1078,-692 1099.58,-672.68 1120.88,-647.45 1135.59,-628.8"/>
<polygon fill="black" stroke="black" points="1138.88,-631.26 1142.25,-621.22 1133.35,-626.97 1138.88,-631.26"/>
</g>
<!-- libwebp&#45;&gt;opencv -->
<g id="edge42" class="edge">
<title>libwebp&#45;&gt;opencv</title>
<path fill="none" stroke="black" d="M950.71,-742.83C838.09,-737.59 557.23,-722.36 324,-692 310.26,-690.21 295.46,-687.75 281.81,-685.26"/>
<polygon fill="black" stroke="black" points="282.61,-681.66 272.14,-683.27 281.33,-688.55 282.61,-681.66"/>
</g>
<!-- libwebp&#45;&gt;pillow -->
<g id="edge43" class="edge">
<title>libwebp&#45;&gt;pillow</title>
<path fill="none" stroke="black" d="M1048.8,-739.48C1161.3,-726.48 1441.91,-694.07 1556.77,-680.8"/>
<polygon fill="black" stroke="black" points="1556.83,-684.2 1566.36,-679.58 1556.03,-677.25 1556.83,-684.2"/>
</g>
<!-- libwebp&#45;&gt;xpra -->
<g id="edge44" class="edge">
<title>libwebp&#45;&gt;xpra</title>
<path fill="none" stroke="black" d="M1051.32,-743.24C1145.4,-739.15 1343.73,-726.59 1402,-692 1426.21,-677.63 1444.06,-650.38 1454.87,-629.8"/>
<polygon fill="black" stroke="black" points="1458.41,-631.54 1459.74,-621.03 1452.14,-628.42 1458.41,-631.54"/>
</g>
<!-- qtwebkit -->
<g id="node45" class="node">
<title>qtwebkit</title>
<g id="a_node45"><a xlink:href="https://github.com/conda-forge/qtwebkit-feedstock" xlink:title="qtwebkit">
<ellipse fill="#fde725" stroke="black" cx="565" cy="-674" rx="55.42" ry="18"/>
<text text-anchor="middle" x="565" y="-669.33" font-family="Times,serif" font-size="14.00">qtwebkit</text>
</a>
</g>
</g>
<!-- libwebp&#45;&gt;qtwebkit -->
<g id="edge45" class="edge">
<title>libwebp&#45;&gt;qtwebkit</title>
<path fill="none" stroke="black" d="M953.24,-739.62C882.97,-731.36 747.74,-714.17 634,-692 628.69,-690.96 623.17,-689.78 617.67,-688.54"/>
<polygon fill="black" stroke="black" points="618.72,-684.96 608.18,-686.09 617.12,-691.77 618.72,-684.96"/>
</g>
<!-- leptonica -->
<g id="node46" class="node">
<title>leptonica</title>
<g id="a_node46"><a xlink:href="https://github.com/conda-forge/leptonica-feedstock" xlink:title="leptonica">
<ellipse fill="#fde725" stroke="black" cx="498" cy="-602" rx="57" ry="18"/>
<text text-anchor="middle" x="498" y="-597.33" font-family="Times,serif" font-size="14.00">leptonica</text>
</a>
</g>
</g>
<!-- libwebp&#45;&gt;leptonica -->
<g id="edge46" class="edge">
<title>libwebp&#45;&gt;leptonica</title>
<path fill="none" stroke="black" d="M950.45,-743.79C889.55,-740.61 785.41,-729.57 705,-692 682.42,-681.45 683.81,-668.05 662,-656 642.59,-645.27 590.66,-629.2 550.38,-617.56"/>
<polygon fill="black" stroke="black" points="551.47,-613.95 540.9,-614.56 549.55,-620.68 551.47,-613.95"/>
</g>
<!-- tesseract -->
<g id="node47" class="node">
<title>tesseract</title>
<g id="a_node47"><a xlink:href="https://github.com/conda-forge/tesseract-feedstock" xlink:title="tesseract">
<ellipse fill="#fde725" stroke="black" cx="456" cy="-530" rx="57.52" ry="18"/>
<text text-anchor="middle" x="456" y="-525.33" font-family="Times,serif" font-size="14.00">tesseract</text>
</a>
</g>
</g>
<!-- libwebp&#45;&gt;tesseract -->
<g id="edge47" class="edge">
<title>libwebp&#45;&gt;tesseract</title>
<path fill="none" stroke="black" d="M951.75,-741.31C870.19,-734.55 711.22,-718.38 662,-692 642.87,-681.75 648,-666.5 629,-656 551.1,-612.95 489,-688.36 432,-620 417.27,-602.34 426.64,-576.45 437.7,-557.15"/>
<polygon fill="black" stroke="black" points="441.07,-559.35 443.34,-549 435.11,-555.68 441.07,-559.35"/>
</g>
<!-- sdl_image -->
<g id="node48" class="node">
<title>sdl_image</title>
<g id="a_node48"><a xlink:href="https://github.com/conda-forge/sdl_image-feedstock" xlink:title="sdl_image">
<ellipse fill="#fde725" stroke="black" cx="825" cy="-530" rx="61.2" ry="18"/>
<text text-anchor="middle" x="825" y="-525.33" font-family="Times,serif" font-size="14.00">sdl_image</text>
</a>
</g>
</g>
<!-- libwebp&#45;&gt;sdl_image -->
<g id="edge48" class="edge">
<title>libwebp&#45;&gt;sdl_image</title>
<path fill="none" stroke="black" d="M983.76,-728.95C959.59,-706 914.92,-661.96 882,-620 866.33,-600.02 850.94,-575.64 840.12,-557.45"/>
<polygon fill="black" stroke="black" points="842.68,-555.9 834.6,-549.05 836.64,-559.44 842.68,-555.9"/>
</g>
<!-- imagecodecs -->
<g id="node49" class="node">
<title>imagecodecs</title>
<g id="a_node49"><a xlink:href="https://github.com/conda-forge/imagecodecs-feedstock" xlink:title="imagecodecs">
<ellipse fill="#fde725" stroke="black" cx="1744" cy="-674" rx="75.41" ry="18"/>
<text text-anchor="middle" x="1744" y="-669.33" font-family="Times,serif" font-size="14.00">imagecodecs</text>
</a>
</g>
</g>
<!-- libwebp&#45;&gt;imagecodecs -->
<g id="edge49" class="edge">
<title>libwebp&#45;&gt;imagecodecs</title>
<path fill="none" stroke="black" d="M1051.41,-742.86C1161.66,-737.76 1432.31,-722.93 1657,-692 1663.88,-691.05 1671.05,-689.91 1678.17,-688.67"/>
<polygon fill="black" stroke="black" points="1678.71,-691.95 1687.93,-686.73 1677.46,-685.06 1678.71,-691.95"/>
</g>
<!-- qt&#45;webengine -->
<g id="node50" class="node">
<title>qt&#45;webengine</title>
<g id="a_node50"><a xlink:href="https://github.com/conda-forge/qt-webengine-feedstock" xlink:title="qt webengine">
<ellipse fill="#fde725" stroke="black" cx="412" cy="-674" rx="79.09" ry="18"/>
<text text-anchor="middle" x="412" y="-669.33" font-family="Times,serif" font-size="14.00">qt webengine</text>
</a>
</g>
</g>
<!-- libwebp&#45;&gt;qt&#45;webengine -->
<g id="edge50" class="edge">
<title>libwebp&#45;&gt;qt&#45;webengine</title>
<path fill="none" stroke="black" d="M951.86,-741.16C862.05,-733.83 665.49,-716.39 501,-692 494.1,-690.98 486.92,-689.8 479.76,-688.55"/>
<polygon fill="black" stroke="black" points="480.79,-685 470.33,-686.68 479.56,-691.89 480.79,-685"/>
</g>
<!-- leptonica&#45;&gt;tesseract -->
<g id="edge51" class="edge">
<title>leptonica&#45;&gt;tesseract</title>
<path fill="none" stroke="black" d="M487.83,-584.05C482.98,-575.97 477.07,-566.12 471.67,-557.11"/>
<polygon fill="black" stroke="black" points="474.22,-555.56 466.07,-548.79 468.22,-559.16 474.22,-555.56"/>
</g>
<!-- imagecodecs&#45;&gt;panda3d -->
<g id="edge52" class="edge">
<title>imagecodecs&#45;&gt;panda3d</title>
<path fill="none" stroke="black" d="M1749.19,-655.7C1751.48,-648.07 1754.22,-638.92 1756.78,-630.4"/>
<polygon fill="black" stroke="black" points="1760.35,-631.69 1759.87,-621.1 1753.64,-629.68 1760.35,-631.69"/>
</g>
<!-- simage -->
<g id="node51" class="node">
<title>simage</title>
<g id="a_node51"><a xlink:href="https://github.com/conda-forge/simage-feedstock" xlink:title="simage">
<ellipse fill="#fde725" stroke="black" cx="47" cy="-602" rx="47" ry="18"/>
<text text-anchor="middle" x="47" y="-597.33" font-family="Times,serif" font-size="14.00">simage</text>
</a>
</g>
</g>
<!-- fitstools -->
<g id="node53" class="node">
<title>fitstools</title>
<g id="a_node53"><a xlink:href="https://github.com/conda-forge/fitstools-feedstock/pull/6" xlink:title="fitstools ❎">
<ellipse fill="#31688e" stroke="black" cx="2415" cy="-422" rx="66.47" ry="18"/>
<text text-anchor="middle" x="2415" y="-417.32" font-family="Times,serif" font-size="14.00" fill="white">fitstools ❎</text>
</a>
</g>
</g>
<!-- accimage&#45;&gt;fitstools -->
<!-- openscenegraph -->
<g id="node54" class="node">
<title>openscenegraph</title>
<g id="a_node54"><a xlink:href="https://github.com/conda-forge/openscenegraph-feedstock" xlink:title="openscenegraph">
<ellipse fill="#ff8c00" stroke="black" cx="2415" cy="-350" rx="93.3" ry="18"/>
<text text-anchor="middle" x="2415" y="-345.32" font-family="Times,serif" font-size="14.00">openscenegraph</text>
</a>
</g>
</g>
<!-- fitstools&#45;&gt;openscenegraph -->
<!-- vscode&#45;python -->
<g id="node57" class="node">
<title>vscode&#45;python</title>
<g id="a_node57"><a xlink:href="https://github.com/conda-forge/vscode-python-feedstock" xlink:title="vscode python">
<ellipse fill="#ff8c00" stroke="black" cx="2415" cy="-278" rx="83.3" ry="18"/>
<text text-anchor="middle" x="2415" y="-273.32" font-family="Times,serif" font-size="14.00">vscode python</text>
</a>
</g>
</g>
<!-- openscenegraph&#45;&gt;vscode&#45;python -->
<!-- lcms2 -->
<g id="node55" class="node">
<title>lcms2</title>
<g id="a_node55"><a xlink:href="https://github.com/conda-forge/lcms2-feedstock/pull/24" xlink:title="lcms2 ✓">
<ellipse fill="#31688e" stroke="black" cx="1866" cy="-746" rx="48.58" ry="18"/>
<text text-anchor="middle" x="1866" y="-741.33" font-family="Times,serif" font-size="14.00" fill="white">lcms2 ✓</text>
</a>
</g>
</g>
<!-- lcms2&#45;&gt;libvips -->
<g id="edge56" class="edge">
<title>lcms2&#45;&gt;libvips</title>
<path fill="none" stroke="black" d="M1867.83,-727.63C1870.31,-694.03 1870.29,-620.27 1828,-584 1804.67,-563.99 1367.08,-541.13 1210.85,-533.57"/>
<polygon fill="black" stroke="black" points="1211.25,-530.04 1201.1,-533.06 1210.92,-537.03 1211.25,-530.04"/>
</g>
<!-- lcms2&#45;&gt;openjdk -->
<g id="edge57" class="edge">
<title>lcms2&#45;&gt;openjdk</title>
<path fill="none" stroke="black" d="M1895.47,-731.34C1918.81,-720.52 1951.63,-705.3 1977.29,-693.41"/>
<polygon fill="black" stroke="black" points="1978.48,-696.25 1986.08,-688.87 1975.54,-689.9 1978.48,-696.25"/>
</g>
<!-- lcms2&#45;&gt;hugin -->
<g id="edge61" class="edge">
<title>lcms2&#45;&gt;hugin</title>
<path fill="none" stroke="black" d="M1913.37,-741.53C1997.18,-734.79 2167.77,-718.27 2221,-692 2272.01,-666.82 2313,-659.89 2313,-603 2313,-603 2313,-603 2313,-529 2313,-460.92 2232.14,-419.78 2180.35,-400.42"/>
<polygon fill="black" stroke="black" points="2181.69,-396.82 2171.1,-396.72 2179.32,-403.4 2181.69,-396.82"/>
</g>
<!-- lcms2&#45;&gt;pillow -->
<g id="edge58" class="edge">
<title>lcms2&#45;&gt;pillow</title>
<path fill="none" stroke="black" d="M1825.93,-735.43C1784.29,-725.31 1717.3,-708.55 1660,-692 1656.61,-691.02 1653.11,-689.98 1649.6,-688.9"/>
<polygon fill="black" stroke="black" points="1650.73,-685.28 1640.14,-685.64 1648.64,-691.96 1650.73,-685.28"/>
</g>
<!-- lcms2&#45;&gt;poppler -->
<g id="edge59" class="edge">
<title>lcms2&#45;&gt;poppler</title>
<path fill="none" stroke="black" d="M1817.92,-742.36C1685.54,-735.03 1304.52,-713.56 988,-692 931.92,-688.18 867.99,-683.27 822.82,-679.71"/>
<polygon fill="black" stroke="black" points="823.29,-676.16 813.05,-678.86 822.74,-683.14 823.29,-676.16"/>
</g>
<!-- lcms2&#45;&gt;enblend -->
<g id="edge60" class="edge">
<title>lcms2&#45;&gt;enblend</title>
<path fill="none" stroke="black" d="M1867.91,-727.54C1873.62,-676.37 1891.03,-529.3 1904,-512 1918.31,-492.91 1941.27,-480.39 1962.61,-472.34"/>
<polygon fill="black" stroke="black" points="1963.62,-475.34 1971.91,-468.74 1961.31,-468.74 1963.62,-475.34"/>
</g>
<!-- lcms2&#45;&gt;imagecodecs -->
<g id="edge62" class="edge">
<title>lcms2&#45;&gt;imagecodecs</title>
<path fill="none" stroke="black" d="M1840.42,-730.33C1823.33,-720.52 1800.55,-707.45 1781.43,-696.48"/>
<polygon fill="black" stroke="black" points="1783.51,-693.06 1773.09,-691.12 1780.03,-699.13 1783.51,-693.06"/>
</g>
<!-- libraw -->
<g id="node56" class="node">
<title>libraw</title>
<g id="a_node56"><a xlink:href="https://github.com/conda-forge/libraw-feedstock" xlink:title="libraw">
<ellipse fill="#fde725" stroke="black" cx="2169" cy="-674" rx="42.79" ry="18"/>
<text text-anchor="middle" x="2169" y="-669.33" font-family="Times,serif" font-size="14.00">libraw</text>
</a>
</g>
</g>
<!-- lcms2&#45;&gt;libraw -->
<g id="edge63" class="edge">
<title>lcms2&#45;&gt;libraw</title>
<path fill="none" stroke="black" d="M1906.55,-735.63C1962.26,-722.76 2062.29,-699.65 2121.46,-685.98"/>
<polygon fill="black" stroke="black" points="2122.06,-689.21 2131.01,-683.54 2120.48,-682.39 2122.06,-689.21"/>
</g>
<!-- libraw&#45;&gt;freeimage -->
<g id="edge64" class="edge">
<title>libraw&#45;&gt;freeimage</title>
<path fill="none" stroke="black" d="M2181.8,-656.41C2188.23,-648.08 2196.16,-637.8 2203.34,-628.49"/>
<polygon fill="black" stroke="black" points="2206.58,-631.01 2209.92,-620.96 2201.04,-626.74 2206.58,-631.01"/>
</g>
<!-- podofo -->
<g id="node58" class="node">
<title>podofo</title>
<g id="a_node58"><a xlink:href="https://github.com/conda-forge/podofo-feedstock" xlink:title="podofo">
<ellipse fill="#ff8c00" stroke="black" cx="2415" cy="-206" rx="44.9" ry="18"/>
<text text-anchor="middle" x="2415" y="-201.32" font-family="Times,serif" font-size="14.00">podofo</text>
</a>
</g>
</g>
<!-- vscode&#45;python&#45;&gt;podofo -->
<!-- djvulibre -->
<g id="node59" class="node">
<title>djvulibre</title>
<g id="a_node59"><a xlink:href="https://github.com/conda-forge/djvulibre-feedstock" xlink:title="djvulibre">
<ellipse fill="#ff8c00" stroke="black" cx="1157" cy="-162" rx="55.94" ry="18"/>
<text text-anchor="middle" x="1157" y="-157.32" font-family="Times,serif" font-size="14.00">djvulibre</text>
</a>
</g>
</g>
<!-- pdfmm -->
<g id="node60" class="node">
<title>pdfmm</title>
<g id="a_node60"><a xlink:href="https://github.com/conda-forge/pdfmm-feedstock" xlink:title="pdfmm">
<ellipse fill="#ff8c00" stroke="black" cx="1157" cy="-90" rx="46.47" ry="18"/>
<text text-anchor="middle" x="1157" y="-85.33" font-family="Times,serif" font-size="14.00">pdfmm</text>
</a>
</g>
</g>
<!-- djvulibre&#45;&gt;pdfmm -->
<!-- libjxl&#45;split -->
<g id="node62" class="node">
<title>libjxl&#45;split</title>
<g id="a_node62"><a xlink:href="https://github.com/conda-forge/libjxl-split-feedstock/pull/7" xlink:title="libjxl split ✓">
<ellipse fill="#31688e" stroke="black" cx="1157" cy="-18" rx="69.1" ry="18"/>
<text text-anchor="middle" x="1157" y="-13.32" font-family="Times,serif" font-size="14.00" fill="white">libjxl split ✓</text>
</a>
</g>
</g>
<!-- pdfmm&#45;&gt;libjxl&#45;split -->
<!-- qt&#45;main -->
<g id="node61" class="node">
<title>qt&#45;main</title>
<g id="a_node61"><a xlink:href="https://github.com/conda-forge/qt-main-feedstock/pull/195" xlink:title="qt main ❎">
<ellipse fill="#31688e" stroke="black" cx="359" cy="-746" rx="64.89" ry="18"/>
<text text-anchor="middle" x="359" y="-741.33" font-family="Times,serif" font-size="14.00" fill="white">qt main ❎</text>
</a>
</g>
</g>
<!-- qt&#45;main&#45;&gt;graphicsmagick -->
<g id="edge68" class="edge">
<title>qt&#45;main&#45;&gt;graphicsmagick</title>
<path fill="none" stroke="black" d="M421.73,-740.8C511.33,-734.13 680.82,-719.02 823,-692 921.08,-673.36 1032.76,-641.07 1098.37,-620.94"/>
<polygon fill="black" stroke="black" points="1098.97,-624.1 1107.5,-617.81 1096.91,-617.42 1098.97,-624.1"/>
</g>
<!-- qt&#45;main&#45;&gt;opencv -->
<g id="edge69" class="edge">
<title>qt&#45;main&#45;&gt;opencv</title>
<path fill="none" stroke="black" d="M330.59,-729.46C311.73,-719.15 286.82,-705.53 266.63,-694.49"/>
<polygon fill="black" stroke="black" points="268.6,-691.03 258.15,-689.3 265.24,-697.17 268.6,-691.03"/>
</g>
<!-- qt&#45;main&#45;&gt;yarp -->
<g id="edge70" class="edge">
<title>qt&#45;main&#45;&gt;yarp</title>
<path fill="none" stroke="black" d="M296.3,-740.83C228.78,-734.88 127.79,-721.24 104,-692 87.77,-672.06 105.27,-644.97 122.57,-625.94"/>
<polygon fill="black" stroke="black" points="124.73,-628.7 129.13,-619.06 119.68,-623.85 124.73,-628.7"/>
</g>
<!-- qt&#45;main&#45;&gt;paraview -->
<g id="edge71" class="edge">
<title>qt&#45;main&#45;&gt;paraview</title>
<path fill="none" stroke="black" d="M424.12,-745.27C551.1,-744.69 840.19,-737.9 1078,-692 1163.4,-675.52 1259.25,-641.51 1313.75,-620.63"/>
<polygon fill="black" stroke="black" points="1314.69,-623.63 1322.76,-616.77 1312.17,-617.1 1314.69,-623.63"/>
</g>
<!-- qt&#45;main&#45;&gt;poppler -->
<g id="edge72" class="edge">
<title>qt&#45;main&#45;&gt;poppler</title>
<path fill="none" stroke="black" d="M412.78,-735.7C490.05,-722.35 631.71,-697.87 709.42,-684.43"/>
<polygon fill="black" stroke="black" points="709.69,-687.77 718.95,-682.61 708.5,-680.87 709.69,-687.77"/>
</g>
<!-- qt&#45;main&#45;&gt;ipe -->
<g id="edge73" class="edge">
<title>qt&#45;main&#45;&gt;ipe</title>
<path fill="none" stroke="black" d="M342.98,-728.17C326.56,-708.86 305.8,-677.14 324,-656 359.19,-615.14 512.4,-635.68 564,-620 565.77,-619.46 567.57,-618.85 569.36,-618.18"/>
<polygon fill="black" stroke="black" points="570.6,-621.04 578.47,-613.95 567.89,-614.59 570.6,-621.04"/>
</g>
<!-- qt&#45;main&#45;&gt;vtk -->
<g id="edge74" class="edge">
<title>qt&#45;main&#45;&gt;vtk</title>
<path fill="none" stroke="black" d="M311.31,-733.42C273.97,-723.82 221.01,-709.02 176,-692 174.31,-691.36 172.59,-690.68 170.87,-689.96"/>
<polygon fill="black" stroke="black" points="172.64,-686.48 162.08,-685.64 169.81,-692.88 172.64,-686.48"/>
</g>
<!-- qt&#45;main&#45;&gt;qtwebkit -->
<g id="edge75" class="edge">
<title>qt&#45;main&#45;&gt;qtwebkit</title>
<path fill="none" stroke="black" d="M398.72,-731.5C432.66,-719.97 481.58,-703.35 517.57,-691.12"/>
<polygon fill="black" stroke="black" points="518.49,-694.16 526.83,-687.63 516.23,-687.53 518.49,-694.16"/>
</g>
<!-- qt&#45;main&#45;&gt;qt&#45;webengine -->
<g id="edge76" class="edge">
<title>qt&#45;main&#45;&gt;qt&#45;webengine</title>
<path fill="none" stroke="black" d="M371.83,-728.05C378.08,-719.8 385.73,-709.7 392.66,-700.54"/>
<polygon fill="black" stroke="black" points="396.04,-702.87 399.29,-692.79 390.46,-698.65 396.04,-702.87"/>
</g>
<!-- qt&#45;main&#45;&gt;simage -->
<g id="edge77" class="edge">
<title>qt&#45;main&#45;&gt;simage</title>
<path fill="none" stroke="black" d="M298.69,-738.98C230.77,-731.17 125.72,-715.68 94,-692 73.91,-677.01 61.58,-650.88 54.62,-630.79"/>
<polygon fill="black" stroke="black" points="57.67,-629.83 51.29,-621.37 51,-631.96 57.67,-629.83"/>
</g>
</g>
</svg>
