<?xml version="1.0" encoding="UTF-8" standalone="no"?>
<!DOCTYPE svg PUBLIC "-//W3C//DTD SVG 1.1//EN"
 "http://www.w3.org/Graphics/SVG/1.1/DTD/svg11.dtd">
<!-- Generated by graphviz version 8.1.0 (20230707.2238)
 -->
<!-- Pages: 1 -->
<svg width="2979pt" height="952pt"
 viewBox="0.00 0.00 2979.37 952.00" xmlns="http://www.w3.org/2000/svg" xmlns:xlink="http://www.w3.org/1999/xlink">
<g id="graph0" class="graph" transform="scale(1 1) rotate(0) translate(4 948)">
<polygon fill="white" stroke="none" points="-4,4 -4,-948 2975.37,-948 2975.37,4 -4,4"/>
<!-- dlib -->
<g id="node1" class="node">
<title>dlib</title>
<g id="a_node1"><a xlink:href="https://github.com/conda-forge/dlib-feedstock" xlink:title="dlib">
<ellipse fill="#fde725" stroke="black" cx="1780" cy="-602" rx="30.16" ry="18"/>
<text text-anchor="middle" x="1780" y="-597.33" font-family="Times,serif" font-size="14.00">dlib</text>
</a>
</g>
</g>
<!-- emacs -->
<g id="node2" class="node">
<title>emacs</title>
<g id="a_node2"><a xlink:href="https://github.com/conda-forge/emacs-feedstock" xlink:title="emacs">
<ellipse fill="#ff8c00" stroke="black" cx="2543" cy="-926" rx="42.79" ry="18"/>
<text text-anchor="middle" x="2543" y="-921.33" font-family="Times,serif" font-size="14.00">emacs</text>
</a>
</g>
</g>
<!-- libitk -->
<g id="node3" class="node">
<title>libitk</title>
<g id="a_node3"><a xlink:href="https://github.com/conda-forge/libitk-feedstock" xlink:title="libitk">
<ellipse fill="#ff8c00" stroke="black" cx="2543" cy="-854" rx="37" ry="18"/>
<text text-anchor="middle" x="2543" y="-849.33" font-family="Times,serif" font-size="14.00">libitk</text>
</a>
</g>
</g>
<!-- emacs&#45;&gt;libitk -->
<!-- openmotif -->
<g id="node14" class="node">
<title>openmotif</title>
<g id="a_node14"><a xlink:href="https://github.com/conda-forge/openmotif-feedstock/pull/15" xlink:title="openmotif ✓">
<ellipse fill="#31688e" stroke="black" cx="2543" cy="-782" rx="69.62" ry="18"/>
<text text-anchor="middle" x="2543" y="-777.33" font-family="Times,serif" font-size="14.00" fill="white">openmotif ✓</text>
</a>
</g>
</g>
<!-- libitk&#45;&gt;openmotif -->
<!-- freeimage -->
<g id="node4" class="node">
<title>freeimage</title>
<g id="a_node4"><a xlink:href="https://github.com/conda-forge/freeimage-feedstock" xlink:title="freeimage">
<ellipse fill="#fde725" stroke="black" cx="2043" cy="-602" rx="61.73" ry="18"/>
<text text-anchor="middle" x="2043" y="-597.33" font-family="Times,serif" font-size="14.00">freeimage</text>
</a>
</g>
</g>
<!-- gdal -->
<g id="node5" class="node">
<title>gdal</title>
<g id="a_node5"><a xlink:href="https://github.com/conda-forge/gdal-feedstock" xlink:title="gdal">
<ellipse fill="#fde725" stroke="black" cx="820" cy="-602" rx="32.79" ry="18"/>
<text text-anchor="middle" x="820" y="-597.33" font-family="Times,serif" font-size="14.00">gdal</text>
</a>
</g>
</g>
<!-- ncl -->
<g id="node6" class="node">
<title>ncl</title>
<g id="a_node6"><a xlink:href="https://github.com/conda-forge/ncl-feedstock" xlink:title="ncl">
<ellipse fill="#fde725" stroke="black" cx="1018" cy="-530" rx="27" ry="18"/>
<text text-anchor="middle" x="1018" y="-525.33" font-family="Times,serif" font-size="14.00">ncl</text>
</a>
</g>
</g>
<!-- gdal&#45;&gt;ncl -->
<g id="edge2" class="edge">
<title>gdal&#45;&gt;ncl</title>
<path fill="none" stroke="black" d="M845.67,-590.34C851.05,-588.18 856.69,-585.97 862,-584 903.55,-568.55 951.96,-552.38 983.71,-542.03"/>
<polygon fill="black" stroke="black" points="984.37,-545.17 992.8,-538.75 982.2,-538.51 984.37,-545.17"/>
</g>
<!-- mapserver -->
<g id="node7" class="node">
<title>mapserver</title>
<g id="a_node7"><a xlink:href="https://github.com/conda-forge/mapserver-feedstock" xlink:title="mapserver">
<ellipse fill="#fde725" stroke="black" cx="831" cy="-530" rx="64.89" ry="18"/>
<text text-anchor="middle" x="831" y="-525.33" font-family="Times,serif" font-size="14.00">mapserver</text>
</a>
</g>
</g>
<!-- gdal&#45;&gt;mapserver -->
<g id="edge3" class="edge">
<title>gdal&#45;&gt;mapserver</title>
<path fill="none" stroke="black" d="M822.72,-583.7C823.89,-576.24 825.29,-567.32 826.6,-558.97"/>
<polygon fill="black" stroke="black" points="830.22,-559.53 828.31,-549.1 823.3,-558.44 830.22,-559.53"/>
</g>
<!-- geotiff -->
<g id="node8" class="node">
<title>geotiff</title>
<g id="a_node8"><a xlink:href="https://github.com/conda-forge/geotiff-feedstock/pull/62" xlink:title="geotiff ✓">
<ellipse fill="#31688e" stroke="black" cx="803" cy="-674" rx="51.21" ry="18"/>
<text text-anchor="middle" x="803" y="-669.33" font-family="Times,serif" font-size="14.00" fill="white">geotiff ✓</text>
</a>
</g>
</g>
<!-- geotiff&#45;&gt;gdal -->
<g id="edge4" class="edge">
<title>geotiff&#45;&gt;gdal</title>
<path fill="none" stroke="black" d="M807.2,-655.7C809.03,-648.15 811.23,-639.12 813.28,-630.68"/>
<polygon fill="black" stroke="black" points="816.89,-631.65 815.85,-621.1 810.08,-630 816.89,-631.65"/>
</g>
<!-- imagemagick -->
<g id="node9" class="node">
<title>imagemagick</title>
<g id="a_node9"><a xlink:href="https://github.com/conda-forge/imagemagick-feedstock" xlink:title="imagemagick">
<ellipse fill="#fde725" stroke="black" cx="1073" cy="-602" rx="77.52" ry="18"/>
<text text-anchor="middle" x="1073" y="-597.33" font-family="Times,serif" font-size="14.00">imagemagick</text>
</a>
</g>
</g>
<!-- imagemagick&#45;&gt;ncl -->
<g id="edge5" class="edge">
<title>imagemagick&#45;&gt;ncl</title>
<path fill="none" stroke="black" d="M1059.69,-584.05C1052.77,-575.26 1044.21,-564.36 1036.65,-554.74"/>
<polygon fill="black" stroke="black" points="1039,-553.06 1030.06,-547.36 1033.49,-557.38 1039,-553.06"/>
</g>
<!-- libvips -->
<g id="node10" class="node">
<title>libvips</title>
<g id="a_node10"><a xlink:href="https://github.com/conda-forge/libvips-feedstock" xlink:title="libvips">
<ellipse fill="#fde725" stroke="black" cx="1128" cy="-530" rx="44.37" ry="18"/>
<text text-anchor="middle" x="1128" y="-525.33" font-family="Times,serif" font-size="14.00">libvips</text>
</a>
</g>
</g>
<!-- imagemagick&#45;&gt;libvips -->
<g id="edge6" class="edge">
<title>imagemagick&#45;&gt;libvips</title>
<path fill="none" stroke="black" d="M1086.31,-584.05C1092.96,-575.59 1101.14,-565.19 1108.48,-555.84"/>
<polygon fill="black" stroke="black" points="1111.76,-558.33 1115.19,-548.31 1106.26,-554.01 1111.76,-558.33"/>
</g>
<!-- imread -->
<g id="node11" class="node">
<title>imread</title>
<g id="a_node11"><a xlink:href="https://github.com/conda-forge/imread-feedstock" xlink:title="imread">
<ellipse fill="#fde725" stroke="black" cx="1496" cy="-674" rx="46.47" ry="18"/>
<text text-anchor="middle" x="1496" y="-669.33" font-family="Times,serif" font-size="14.00">imread</text>
</a>
</g>
</g>
<!-- libgd -->
<g id="node12" class="node">
<title>libgd</title>
<g id="a_node12"><a xlink:href="https://github.com/conda-forge/libgd-feedstock" xlink:title="libgd">
<ellipse fill="#fde725" stroke="black" cx="1137" cy="-674" rx="36.48" ry="18"/>
<text text-anchor="middle" x="1137" y="-669.33" font-family="Times,serif" font-size="14.00">libgd</text>
</a>
</g>
</g>
<!-- libgd&#45;&gt;imagemagick -->
<g id="edge7" class="edge">
<title>libgd&#45;&gt;imagemagick</title>
<path fill="none" stroke="black" d="M1122.48,-657.12C1114.52,-648.42 1104.49,-637.45 1095.55,-627.66"/>
<polygon fill="black" stroke="black" points="1098.69,-625.82 1089.36,-620.8 1093.52,-630.54 1098.69,-625.82"/>
</g>
<!-- graphicsmagick -->
<g id="node13" class="node">
<title>graphicsmagick</title>
<g id="a_node13"><a xlink:href="https://github.com/conda-forge/graphicsmagick-feedstock" xlink:title="graphicsmagick">
<ellipse fill="#fde725" stroke="black" cx="1259" cy="-602" rx="90.14" ry="18"/>
<text text-anchor="middle" x="1259" y="-597.33" font-family="Times,serif" font-size="14.00">graphicsmagick</text>
</a>
</g>
</g>
<!-- libgd&#45;&gt;graphicsmagick -->
<g id="edge8" class="edge">
<title>libgd&#45;&gt;graphicsmagick</title>
<path fill="none" stroke="black" d="M1160.23,-659.67C1177.34,-649.85 1200.99,-636.28 1220.86,-624.88"/>
<polygon fill="black" stroke="black" points="1222.33,-627.5 1229.26,-619.49 1218.85,-621.43 1222.33,-627.5"/>
</g>
<!-- xfig -->
<g id="node23" class="node">
<title>xfig</title>
<g id="a_node23"><a xlink:href="https://github.com/conda-forge/xfig-feedstock/pull/8" xlink:title="xfig ✓">
<ellipse fill="#31688e" stroke="black" cx="2543" cy="-710" rx="37.53" ry="18"/>
<text text-anchor="middle" x="2543" y="-705.33" font-family="Times,serif" font-size="14.00" fill="white">xfig ✓</text>
</a>
</g>
</g>
<!-- openmotif&#45;&gt;xfig -->
<!-- opencv -->
<g id="node15" class="node">
<title>opencv</title>
<g id="a_node15"><a xlink:href="https://github.com/conda-forge/opencv-feedstock" xlink:title="opencv">
<ellipse fill="#fde725" stroke="black" cx="231" cy="-674" rx="46.47" ry="18"/>
<text text-anchor="middle" x="231" y="-669.33" font-family="Times,serif" font-size="14.00">opencv</text>
</a>
</g>
</g>
<!-- yarp -->
<g id="node16" class="node">
<title>yarp</title>
<g id="a_node16"><a xlink:href="https://github.com/conda-forge/yarp-feedstock" xlink:title="yarp">
<ellipse fill="#fde725" stroke="black" cx="147" cy="-602" rx="33.85" ry="18"/>
<text text-anchor="middle" x="147" y="-597.33" font-family="Times,serif" font-size="14.00">yarp</text>
</a>
</g>
</g>
<!-- opencv&#45;&gt;yarp -->
<g id="edge10" class="edge">
<title>opencv&#45;&gt;yarp</title>
<path fill="none" stroke="black" d="M211.94,-657.12C200.38,-647.48 185.47,-635.06 172.85,-624.54"/>
<polygon fill="black" stroke="black" points="175.48,-621.34 165.55,-617.63 170.99,-626.72 175.48,-621.34"/>
</g>
<!-- visp -->
<g id="node17" class="node">
<title>visp</title>
<g id="a_node17"><a xlink:href="https://github.com/conda-forge/visp-feedstock" xlink:title="visp">
<ellipse fill="#fde725" stroke="black" cx="231" cy="-602" rx="31.74" ry="18"/>
<text text-anchor="middle" x="231" y="-597.33" font-family="Times,serif" font-size="14.00">visp</text>
</a>
</g>
</g>
<!-- opencv&#45;&gt;visp -->
<g id="edge11" class="edge">
<title>opencv&#45;&gt;visp</title>
<path fill="none" stroke="black" d="M231,-655.7C231,-648.24 231,-639.32 231,-630.97"/>
<polygon fill="black" stroke="black" points="234.5,-631.1 231,-621.1 227.5,-631.1 234.5,-631.1"/>
</g>
<!-- openjdk -->
<g id="node18" class="node">
<title>openjdk</title>
<g id="a_node18"><a xlink:href="https://github.com/conda-forge/openjdk-feedstock" xlink:title="openjdk">
<ellipse fill="#fde725" stroke="black" cx="2237" cy="-674" rx="50.68" ry="18"/>
<text text-anchor="middle" x="2237" y="-669.33" font-family="Times,serif" font-size="14.00">openjdk</text>
</a>
</g>
</g>
<!-- tensorflow -->
<g id="node19" class="node">
<title>tensorflow</title>
<g id="a_node19"><a xlink:href="https://github.com/conda-forge/tensorflow-feedstock" xlink:title="tensorflow">
<ellipse fill="#fde725" stroke="black" cx="2263" cy="-602" rx="63.84" ry="18"/>
<text text-anchor="middle" x="2263" y="-597.33" font-family="Times,serif" font-size="14.00">tensorflow</text>
</a>
</g>
</g>
<!-- openjdk&#45;&gt;tensorflow -->
<g id="edge12" class="edge">
<title>openjdk&#45;&gt;tensorflow</title>
<path fill="none" stroke="black" d="M2243.43,-655.7C2246.26,-648.07 2249.66,-638.92 2252.82,-630.4"/>
<polygon fill="black" stroke="black" points="2256.45,-631.7 2256.65,-621.1 2249.88,-629.26 2256.45,-631.7"/>
</g>
<!-- swi&#45;prolog -->
<g id="node20" class="node">
<title>swi&#45;prolog</title>
<g id="a_node20"><a xlink:href="https://github.com/conda-forge/swi-prolog-feedstock" xlink:title="swi prolog">
<ellipse fill="#fde725" stroke="black" cx="2267" cy="-530" rx="63.31" ry="18"/>
<text text-anchor="middle" x="2267" y="-525.33" font-family="Times,serif" font-size="14.00">swi prolog</text>
</a>
</g>
</g>
<!-- openjdk&#45;&gt;swi&#45;prolog -->
<g id="edge13" class="edge">
<title>openjdk&#45;&gt;swi&#45;prolog</title>
<path fill="none" stroke="black" d="M2276.88,-662.56C2298.43,-654.66 2323.18,-641.41 2336,-620 2344.22,-606.27 2343.07,-598.35 2336,-584 2329.56,-570.94 2318.18,-560.19 2306.5,-551.88"/>
<polygon fill="black" stroke="black" points="2308.86,-548.58 2298.59,-545.99 2305,-554.42 2308.86,-548.58"/>
</g>
<!-- libpano13 -->
<g id="node21" class="node">
<title>libpano13</title>
<g id="a_node21"><a xlink:href="https://github.com/conda-forge/libpano13-feedstock" xlink:title="libpano13">
<ellipse fill="#fde725" stroke="black" cx="2222" cy="-458" rx="60.68" ry="18"/>
<text text-anchor="middle" x="2222" y="-453.32" font-family="Times,serif" font-size="14.00">libpano13</text>
</a>
</g>
</g>
<!-- openjdk&#45;&gt;libpano13 -->
<g id="edge14" class="edge">
<title>openjdk&#45;&gt;libpano13</title>
<path fill="none" stroke="black" d="M2217.2,-657.09C2206.97,-647.55 2195.5,-634.49 2190,-620 2183.88,-603.87 2190.5,-528.24 2195,-512 2197.51,-502.94 2201.64,-493.63 2205.94,-485.38"/>
<polygon fill="black" stroke="black" points="2209.38,-487.39 2211.15,-476.95 2203.25,-484.01 2209.38,-487.39"/>
</g>
<!-- hugin -->
<g id="node22" class="node">
<title>hugin</title>
<g id="a_node22"><a xlink:href="https://github.com/conda-forge/hugin-feedstock" xlink:title="hugin">
<ellipse fill="#fde725" stroke="black" cx="2266" cy="-386" rx="39.63" ry="18"/>
<text text-anchor="middle" x="2266" y="-381.32" font-family="Times,serif" font-size="14.00">hugin</text>
</a>
</g>
</g>
<!-- libpano13&#45;&gt;hugin -->
<g id="edge15" class="edge">
<title>libpano13&#45;&gt;hugin</title>
<path fill="none" stroke="black" d="M2232.65,-440.05C2237.78,-431.89 2244.05,-421.91 2249.77,-412.82"/>
<polygon fill="black" stroke="black" points="2253.09,-415.12 2255.45,-404.79 2247.16,-411.39 2253.09,-415.12"/>
</g>
<!-- u3d -->
<g id="node42" class="node">
<title>u3d</title>
<g id="a_node42"><a xlink:href="https://github.com/conda-forge/u3d-feedstock/pull/25" xlink:title="u3d ✓">
<ellipse fill="#31688e" stroke="black" cx="2543" cy="-638" rx="38.06" ry="18"/>
<text text-anchor="middle" x="2543" y="-633.33" font-family="Times,serif" font-size="14.00" fill="white">u3d ✓</text>
</a>
</g>
</g>
<!-- xfig&#45;&gt;u3d -->
<!-- paraview -->
<g id="node24" class="node">
<title>paraview</title>
<g id="a_node24"><a xlink:href="https://github.com/conda-forge/paraview-feedstock" xlink:title="paraview">
<ellipse fill="#fde725" stroke="black" cx="1424" cy="-602" rx="57" ry="18"/>
<text text-anchor="middle" x="1424" y="-597.33" font-family="Times,serif" font-size="14.00">paraview</text>
</a>
</g>
</g>
<!-- pillow -->
<g id="node25" class="node">
<title>pillow</title>
<g id="a_node25"><a xlink:href="https://github.com/conda-forge/pillow-feedstock" xlink:title="pillow">
<ellipse fill="#fde725" stroke="black" cx="1808" cy="-674" rx="41.21" ry="18"/>
<text text-anchor="middle" x="1808" y="-669.33" font-family="Times,serif" font-size="14.00">pillow</text>
</a>
</g>
</g>
<!-- pillow&#45;&gt;dlib -->
<g id="edge17" class="edge">
<title>pillow&#45;&gt;dlib</title>
<path fill="none" stroke="black" d="M1801.22,-656.05C1798.09,-648.23 1794.3,-638.75 1790.79,-629.98"/>
<polygon fill="black" stroke="black" points="1793.68,-628.77 1786.71,-620.79 1787.18,-631.37 1793.68,-628.77"/>
</g>
<!-- pillow&#45;&gt;paraview -->
<g id="edge18" class="edge">
<title>pillow&#45;&gt;paraview</title>
<path fill="none" stroke="black" d="M1776.95,-661.74C1770.42,-659.63 1763.53,-657.59 1757,-656 1656.9,-631.63 1629.73,-636.31 1528,-620 1513.89,-617.74 1498.71,-615.27 1484.43,-612.94"/>
<polygon fill="black" stroke="black" points="1485.15,-609.35 1474.72,-611.19 1484.02,-616.26 1485.15,-609.35"/>
</g>
<!-- torchvision -->
<g id="node26" class="node">
<title>torchvision</title>
<g id="a_node26"><a xlink:href="https://github.com/conda-forge/torchvision-feedstock" xlink:title="torchvision">
<ellipse fill="#fde725" stroke="black" cx="1915" cy="-530" rx="66.99" ry="18"/>
<text text-anchor="middle" x="1915" y="-525.33" font-family="Times,serif" font-size="14.00">torchvision</text>
</a>
</g>
</g>
<!-- pillow&#45;&gt;torchvision -->
<g id="edge19" class="edge">
<title>pillow&#45;&gt;torchvision</title>
<path fill="none" stroke="black" d="M1821.81,-657.02C1830.65,-646.64 1842.24,-632.71 1852,-620 1867.99,-599.15 1885.17,-574.75 1897.53,-556.77"/>
<polygon fill="black" stroke="black" points="1900.77,-559.24 1903.53,-549.01 1895,-555.28 1900.77,-559.24"/>
</g>
<!-- wxpython -->
<g id="node27" class="node">
<title>wxpython</title>
<g id="a_node27"><a xlink:href="https://github.com/conda-forge/wxpython-feedstock" xlink:title="wxpython">
<ellipse fill="#fde725" stroke="black" cx="2010" cy="-458" rx="60.15" ry="18"/>
<text text-anchor="middle" x="2010" y="-453.32" font-family="Times,serif" font-size="14.00">wxpython</text>
</a>
</g>
</g>
<!-- pillow&#45;&gt;wxpython -->
<g id="edge20" class="edge">
<title>pillow&#45;&gt;wxpython</title>
<path fill="none" stroke="black" d="M1837.64,-661.25C1878.86,-643.3 1952.74,-605.03 1991,-548 2003.1,-529.96 2007.68,-505.63 2009.33,-486.97"/>
<polygon fill="black" stroke="black" points="2012.88,-487.39 2010.02,-477.19 2005.89,-486.95 2012.88,-487.39"/>
</g>
<!-- lammps -->
<g id="node28" class="node">
<title>lammps</title>
<g id="a_node28"><a xlink:href="https://github.com/conda-forge/lammps-feedstock" xlink:title="lammps">
<ellipse fill="#fde725" stroke="black" cx="1820" cy="-386" rx="50.68" ry="18"/>
<text text-anchor="middle" x="1820" y="-381.32" font-family="Times,serif" font-size="14.00">lammps</text>
</a>
</g>
</g>
<!-- pillow&#45;&gt;lammps -->
<g id="edge21" class="edge">
<title>pillow&#45;&gt;lammps</title>
<path fill="none" stroke="black" d="M1812.44,-655.95C1814.91,-645.63 1817.73,-632.15 1819,-620 1826.71,-546.48 1823.92,-459.19 1821.69,-415.26"/>
<polygon fill="black" stroke="black" points="1825.14,-415.11 1821.1,-405.31 1818.15,-415.48 1825.14,-415.11"/>
</g>
<!-- panda3d -->
<g id="node29" class="node">
<title>panda3d</title>
<g id="a_node29"><a xlink:href="https://github.com/conda-forge/panda3d-feedstock" xlink:title="panda3d">
<ellipse fill="#fde725" stroke="black" cx="1677" cy="-602" rx="54.36" ry="18"/>
<text text-anchor="middle" x="1677" y="-597.33" font-family="Times,serif" font-size="14.00">panda3d</text>
</a>
</g>
</g>
<!-- pillow&#45;&gt;panda3d -->
<g id="edge22" class="edge">
<title>pillow&#45;&gt;panda3d</title>
<path fill="none" stroke="black" d="M1782.74,-659.5C1763.4,-649.17 1736.41,-634.75 1714.54,-623.06"/>
<polygon fill="black" stroke="black" points="1716.37,-619.54 1705.9,-617.91 1713.07,-625.71 1716.37,-619.54"/>
</g>
<!-- xpra -->
<g id="node30" class="node">
<title>xpra</title>
<g id="a_node30"><a xlink:href="https://github.com/conda-forge/xpra-feedstock" xlink:title="xpra">
<ellipse fill="#fde725" stroke="black" cx="1571" cy="-602" rx="33.85" ry="18"/>
<text text-anchor="middle" x="1571" y="-597.33" font-family="Times,serif" font-size="14.00">xpra</text>
</a>
</g>
</g>
<!-- pillow&#45;&gt;xpra -->
<g id="edge23" class="edge">
<title>pillow&#45;&gt;xpra</title>
<path fill="none" stroke="black" d="M1776.28,-662.02C1769.93,-659.93 1763.27,-657.83 1757,-656 1694.09,-637.62 1676.38,-640.09 1614,-620 1611.7,-619.26 1609.35,-618.46 1606.99,-617.62"/>
<polygon fill="black" stroke="black" points="1608.32,-614.01 1597.72,-613.8 1605.87,-620.57 1608.32,-614.01"/>
</g>
<!-- poppler -->
<g id="node31" class="node">
<title>poppler</title>
<g id="a_node31"><a xlink:href="https://github.com/conda-forge/poppler-feedstock" xlink:title="poppler">
<ellipse fill="#fde725" stroke="black" cx="922" cy="-674" rx="49.63" ry="18"/>
<text text-anchor="middle" x="922" y="-669.33" font-family="Times,serif" font-size="14.00">poppler</text>
</a>
</g>
</g>
<!-- poppler&#45;&gt;gdal -->
<g id="edge24" class="edge">
<title>poppler&#45;&gt;gdal</title>
<path fill="none" stroke="black" d="M899.61,-657.64C884.71,-647.41 864.99,-633.88 848.9,-622.84"/>
<polygon fill="black" stroke="black" points="851.14,-619.44 840.92,-616.67 847.18,-625.21 851.14,-619.44"/>
</g>
<!-- poppler&#45;&gt;libvips -->
<g id="edge25" class="edge">
<title>poppler&#45;&gt;libvips</title>
<path fill="none" stroke="black" d="M930.29,-655.91C940.73,-636.06 960.44,-603.52 986,-584 1013.28,-563.16 1049.64,-549.79 1078.74,-541.7"/>
<polygon fill="black" stroke="black" points="1079.33,-544.9 1088.1,-538.95 1077.54,-538.13 1079.33,-544.9"/>
</g>
<!-- ipe -->
<g id="node32" class="node">
<title>ipe</title>
<g id="a_node32"><a xlink:href="https://github.com/conda-forge/ipe-feedstock" xlink:title="ipe">
<ellipse fill="#fde725" stroke="black" cx="742" cy="-602" rx="27" ry="18"/>
<text text-anchor="middle" x="742" y="-597.33" font-family="Times,serif" font-size="14.00">ipe</text>
</a>
</g>
</g>
<!-- poppler&#45;&gt;ipe -->
<g id="edge26" class="edge">
<title>poppler&#45;&gt;ipe</title>
<path fill="none" stroke="black" d="M886.74,-661C857.38,-650.78 814.61,-635.34 778,-620 776.33,-619.3 774.63,-618.57 772.92,-617.82"/>
<polygon fill="black" stroke="black" points="774.73,-614.34 764.18,-613.38 771.83,-620.71 774.73,-614.34"/>
</g>
<!-- sane -->
<g id="node33" class="node">
<title>sane</title>
<g id="a_node33"><a xlink:href="https://github.com/conda-forge/sane-feedstock" xlink:title="sane">
<ellipse fill="#fde725" stroke="black" cx="905" cy="-602" rx="34.37" ry="18"/>
<text text-anchor="middle" x="905" y="-597.33" font-family="Times,serif" font-size="14.00">sane</text>
</a>
</g>
</g>
<!-- poppler&#45;&gt;sane -->
<g id="edge27" class="edge">
<title>poppler&#45;&gt;sane</title>
<path fill="none" stroke="black" d="M917.8,-655.7C915.96,-648.15 913.77,-639.12 911.72,-630.68"/>
<polygon fill="black" stroke="black" points="914.91,-630 909.15,-621.1 908.11,-631.65 914.91,-630"/>
</g>
<!-- r&#45;base -->
<g id="node34" class="node">
<title>r&#45;base</title>
<g id="a_node34"><a xlink:href="https://github.com/conda-forge/r-base-feedstock" xlink:title="r base">
<ellipse fill="#ff8c00" stroke="black" cx="2813" cy="-746" rx="42.26" ry="18"/>
<text text-anchor="middle" x="2813" y="-741.33" font-family="Times,serif" font-size="14.00">r base</text>
</a>
</g>
</g>
<!-- r&#45;cairo -->
<g id="node35" class="node">
<title>r&#45;cairo</title>
<g id="a_node35"><a xlink:href="https://github.com/conda-forge/r-cairo-feedstock" xlink:title="r cairo">
<ellipse fill="#fde725" stroke="black" cx="2688" cy="-674" rx="43.84" ry="18"/>
<text text-anchor="middle" x="2688" y="-669.33" font-family="Times,serif" font-size="14.00">r cairo</text>
</a>
</g>
</g>
<!-- r&#45;base&#45;&gt;r&#45;cairo -->
<g id="edge28" class="edge">
<title>r&#45;base&#45;&gt;r&#45;cairo</title>
<path fill="none" stroke="black" d="M2788,-731C2769.18,-720.46 2743.16,-705.89 2722.38,-694.25"/>
<polygon fill="black" stroke="black" points="2724.39,-690.81 2713.95,-688.97 2720.97,-696.91 2724.39,-690.81"/>
</g>
<!-- r&#45;jpeg -->
<g id="node36" class="node">
<title>r&#45;jpeg</title>
<g id="a_node36"><a xlink:href="https://github.com/conda-forge/r-jpeg-feedstock" xlink:title="r jpeg">
<ellipse fill="#fde725" stroke="black" cx="2744" cy="-602" rx="40.69" ry="18"/>
<text text-anchor="middle" x="2744" y="-597.33" font-family="Times,serif" font-size="14.00">r jpeg</text>
</a>
</g>
</g>
<!-- r&#45;base&#45;&gt;r&#45;jpeg -->
<g id="edge29" class="edge">
<title>r&#45;base&#45;&gt;r&#45;jpeg</title>
<path fill="none" stroke="black" d="M2804.68,-727.87C2792.8,-703.43 2770.89,-658.33 2756.9,-629.55"/>
<polygon fill="black" stroke="black" points="2759.66,-628.21 2752.14,-620.75 2753.36,-631.27 2759.66,-628.21"/>
</g>
<!-- r&#45;qpdf -->
<g id="node37" class="node">
<title>r&#45;qpdf</title>
<g id="a_node37"><a xlink:href="https://github.com/conda-forge/r-qpdf-feedstock" xlink:title="r qpdf">
<ellipse fill="#fde725" stroke="black" cx="2797" cy="-530" rx="41.74" ry="18"/>
<text text-anchor="middle" x="2797" y="-525.33" font-family="Times,serif" font-size="14.00">r qpdf</text>
</a>
</g>
</g>
<!-- r&#45;base&#45;&gt;r&#45;qpdf -->
<g id="edge30" class="edge">
<title>r&#45;base&#45;&gt;r&#45;qpdf</title>
<path fill="none" stroke="black" d="M2811.72,-727.85C2808.96,-690.99 2802.45,-603.92 2799.09,-558.96"/>
<polygon fill="black" stroke="black" points="2802.52,-558.94 2798.29,-549.23 2795.54,-559.47 2802.52,-558.94"/>
</g>
<!-- r&#45;ragg -->
<g id="node38" class="node">
<title>r&#45;ragg</title>
<g id="a_node38"><a xlink:href="https://github.com/conda-forge/r-ragg-feedstock" xlink:title="r ragg">
<ellipse fill="#fde725" stroke="black" cx="2867" cy="-458" rx="42.26" ry="18"/>
<text text-anchor="middle" x="2867" y="-453.32" font-family="Times,serif" font-size="14.00">r ragg</text>
</a>
</g>
</g>
<!-- r&#45;base&#45;&gt;r&#45;ragg -->
<g id="edge31" class="edge">
<title>r&#45;base&#45;&gt;r&#45;ragg</title>
<path fill="none" stroke="black" d="M2816.22,-727.97C2825.2,-680.39 2850.62,-545.75 2861.71,-487"/>
<polygon fill="black" stroke="black" points="2865.32,-487.78 2863.73,-477.31 2858.44,-486.48 2865.32,-487.78"/>
</g>
<!-- harp -->
<g id="node39" class="node">
<title>harp</title>
<g id="a_node39"><a xlink:href="https://github.com/conda-forge/harp-feedstock" xlink:title="harp">
<ellipse fill="#fde725" stroke="black" cx="2937" cy="-386" rx="34.37" ry="18"/>
<text text-anchor="middle" x="2937" y="-381.32" font-family="Times,serif" font-size="14.00">harp</text>
</a>
</g>
</g>
<!-- r&#45;base&#45;&gt;harp -->
<g id="edge32" class="edge">
<title>r&#45;base&#45;&gt;harp</title>
<path fill="none" stroke="black" d="M2838.09,-731.2C2874.33,-709.21 2937,-662.57 2937,-603 2937,-603 2937,-603 2937,-529 2937,-489.57 2937,-443.97 2937,-415.31"/>
<polygon fill="black" stroke="black" points="2940.5,-415.49 2937,-405.49 2933.5,-415.49 2940.5,-415.49"/>
</g>
<!-- vigra -->
<g id="node40" class="node">
<title>vigra</title>
<g id="a_node40"><a xlink:href="https://github.com/conda-forge/vigra-feedstock" xlink:title="vigra">
<ellipse fill="#ff8c00" stroke="black" cx="2385" cy="-530" rx="37" ry="18"/>
<text text-anchor="middle" x="2385" y="-525.33" font-family="Times,serif" font-size="14.00">vigra</text>
</a>
</g>
</g>
<!-- vigra&#45;&gt;hugin -->
<g id="edge34" class="edge">
<title>vigra&#45;&gt;hugin</title>
<path fill="none" stroke="black" d="M2367.61,-513.74C2356.37,-503.53 2341.72,-489.53 2330,-476 2312.49,-455.78 2294.92,-430.95 2282.64,-412.66"/>
<polygon fill="black" stroke="black" points="2285.17,-411.14 2276.72,-404.74 2279.33,-415.01 2285.17,-411.14"/>
</g>
<!-- enblend -->
<g id="node41" class="node">
<title>enblend</title>
<g id="a_node41"><a xlink:href="https://github.com/conda-forge/enblend-feedstock" xlink:title="enblend">
<ellipse fill="#fde725" stroke="black" cx="2390" cy="-458" rx="51.21" ry="18"/>
<text text-anchor="middle" x="2390" y="-453.32" font-family="Times,serif" font-size="14.00">enblend</text>
</a>
</g>
</g>
<!-- vigra&#45;&gt;enblend -->
<g id="edge33" class="edge">
<title>vigra&#45;&gt;enblend</title>
<path fill="none" stroke="black" d="M2386.24,-511.7C2386.77,-504.24 2387.4,-495.32 2388,-486.97"/>
<polygon fill="black" stroke="black" points="2391.56,-487.33 2388.78,-477.1 2384.57,-486.83 2391.56,-487.33"/>
</g>
<!-- enblend&#45;&gt;hugin -->
<g id="edge35" class="edge">
<title>enblend&#45;&gt;hugin</title>
<path fill="none" stroke="black" d="M2363.7,-442.15C2345.01,-431.6 2319.74,-417.34 2299.59,-405.96"/>
<polygon fill="black" stroke="black" points="2301.58,-402.5 2291.16,-400.64 2298.14,-408.6 2301.58,-402.5"/>
</g>
<!-- qpdf -->
<g id="node43" class="node">
<title>qpdf</title>
<g id="a_node43"><a xlink:href="https://github.com/conda-forge/qpdf-feedstock/pull/35" xlink:title="qpdf ✓">
<ellipse fill="#31688e" stroke="black" cx="2543" cy="-566" rx="41.74" ry="18"/>
<text text-anchor="middle" x="2543" y="-561.33" font-family="Times,serif" font-size="14.00" fill="white">qpdf ✓</text>
</a>
</g>
</g>
<!-- u3d&#45;&gt;qpdf -->
<!-- accimage -->
<g id="node53" class="node">
<title>accimage</title>
<g id="a_node53"><a xlink:href="https://github.com/conda-forge/accimage-feedstock/pull/14" xlink:title="accimage ✓">
<ellipse fill="#31688e" stroke="black" cx="2543" cy="-494" rx="65.94" ry="18"/>
<text text-anchor="middle" x="2543" y="-489.32" font-family="Times,serif" font-size="14.00" fill="white">accimage ✓</text>
</a>
</g>
</g>
<!-- qpdf&#45;&gt;accimage -->
<!-- vtk -->
<g id="node44" class="node">
<title>vtk</title>
<g id="a_node44"><a xlink:href="https://github.com/conda-forge/vtk-feedstock" xlink:title="vtk">
<ellipse fill="#fde725" stroke="black" cx="140" cy="-674" rx="27.01" ry="18"/>
<text text-anchor="middle" x="140" y="-669.33" font-family="Times,serif" font-size="14.00">vtk</text>
</a>
</g>
</g>
<!-- libwebp -->
<g id="node45" class="node">
<title>libwebp</title>
<g id="a_node45"><a xlink:href="https://github.com/conda-forge/libwebp-feedstock" xlink:title="libwebp">
<ellipse fill="#ff8c00" stroke="black" cx="1105" cy="-746" rx="50.68" ry="18"/>
<text text-anchor="middle" x="1105" y="-741.33" font-family="Times,serif" font-size="14.00">libwebp</text>
</a>
</g>
</g>
<!-- libwebp&#45;&gt;imagemagick -->
<g id="edge38" class="edge">
<title>libwebp&#45;&gt;imagemagick</title>
<path fill="none" stroke="black" d="M1100.65,-727.85C1098.06,-717.48 1094.75,-704 1092,-692 1087.33,-671.66 1082.43,-648.62 1078.77,-631.08"/>
<polygon fill="black" stroke="black" points="1082.02,-630.51 1076.56,-621.43 1075.16,-631.93 1082.02,-630.51"/>
</g>
<!-- libwebp&#45;&gt;libvips -->
<g id="edge39" class="edge">
<title>libwebp&#45;&gt;libvips</title>
<path fill="none" stroke="black" d="M1149.81,-737.25C1242.44,-720.22 1449.7,-676.5 1490,-620 1499.29,-606.97 1500.46,-596.11 1490,-584 1451.08,-538.96 1275.1,-531.46 1183.62,-530.68"/>
<polygon fill="black" stroke="black" points="1183.65,-527.17 1173.63,-530.61 1183.61,-534.17 1183.65,-527.17"/>
</g>
<!-- libwebp&#45;&gt;imread -->
<g id="edge40" class="edge">
<title>libwebp&#45;&gt;imread</title>
<path fill="none" stroke="black" d="M1152.47,-739.18C1217.04,-730.86 1335.98,-714.1 1436,-692 1440.58,-690.99 1445.34,-689.83 1450.07,-688.61"/>
<polygon fill="black" stroke="black" points="1450.57,-691.83 1459.32,-685.85 1448.76,-685.07 1450.57,-691.83"/>
</g>
<!-- libwebp&#45;&gt;libgd -->
<g id="edge41" class="edge">
<title>libwebp&#45;&gt;libgd</title>
<path fill="none" stroke="black" d="M1112.75,-728.05C1116.36,-720.14 1120.75,-710.54 1124.8,-701.69"/>
<polygon fill="black" stroke="black" points="1128.35,-703.34 1129.32,-692.79 1121.98,-700.43 1128.35,-703.34"/>
</g>
<!-- libwebp&#45;&gt;graphicsmagick -->
<g id="edge42" class="edge">
<title>libwebp&#45;&gt;graphicsmagick</title>
<path fill="none" stroke="black" d="M1146.75,-735.35C1172.32,-727.51 1204.06,-714.04 1225,-692 1241,-675.16 1249.68,-650.01 1254.25,-630.74"/>
<polygon fill="black" stroke="black" points="1257.84,-631.69 1256.49,-621.18 1250.99,-630.23 1257.84,-631.69"/>
</g>
<!-- libwebp&#45;&gt;opencv -->
<g id="edge43" class="edge">
<title>libwebp&#45;&gt;opencv</title>
<path fill="none" stroke="black" d="M1054.56,-743.55C930.07,-739.55 598.43,-726.28 324,-692 310.25,-690.28 295.45,-687.85 281.8,-685.36"/>
<polygon fill="black" stroke="black" points="282.6,-681.76 272.13,-683.36 281.31,-688.64 282.6,-681.76"/>
</g>
<!-- libwebp&#45;&gt;pillow -->
<g id="edge44" class="edge">
<title>libwebp&#45;&gt;pillow</title>
<path fill="none" stroke="black" d="M1155.89,-745C1266.46,-744.11 1536.4,-737.05 1757,-692 1760.38,-691.31 1763.85,-690.46 1767.32,-689.52"/>
<polygon fill="black" stroke="black" points="1767.99,-692.67 1776.58,-686.46 1766,-685.96 1767.99,-692.67"/>
</g>
<!-- libwebp&#45;&gt;xpra -->
<g id="edge45" class="edge">
<title>libwebp&#45;&gt;xpra</title>
<path fill="none" stroke="black" d="M1155.12,-742.27C1265.48,-735.82 1522.01,-718.15 1551,-692 1567.71,-676.92 1572.03,-651.16 1572.57,-631.22"/>
<polygon fill="black" stroke="black" points="1576.06,-631.26 1572.51,-621.28 1569.06,-631.3 1576.06,-631.26"/>
</g>
<!-- qtwebkit -->
<g id="node46" class="node">
<title>qtwebkit</title>
<g id="a_node46"><a xlink:href="https://github.com/conda-forge/qtwebkit-feedstock" xlink:title="qtwebkit">
<ellipse fill="#fde725" stroke="black" cx="388" cy="-674" rx="55.42" ry="18"/>
<text text-anchor="middle" x="388" y="-669.33" font-family="Times,serif" font-size="14.00">qtwebkit</text>
</a>
</g>
</g>
<!-- libwebp&#45;&gt;qtwebkit -->
<g id="edge46" class="edge">
<title>libwebp&#45;&gt;qtwebkit</title>
<path fill="none" stroke="black" d="M1054.32,-743.89C944.16,-740.82 674.96,-729.75 453,-692 448.35,-691.21 443.54,-690.24 438.74,-689.18"/>
<polygon fill="black" stroke="black" points="439.87,-685.61 429.33,-686.71 438.26,-692.42 439.87,-685.61"/>
</g>
<!-- leptonica -->
<g id="node47" class="node">
<title>leptonica</title>
<g id="a_node47"><a xlink:href="https://github.com/conda-forge/leptonica-feedstock" xlink:title="leptonica">
<ellipse fill="#fde725" stroke="black" cx="602" cy="-602" rx="57" ry="18"/>
<text text-anchor="middle" x="602" y="-597.33" font-family="Times,serif" font-size="14.00">leptonica</text>
</a>
</g>
</g>
<!-- libwebp&#45;&gt;leptonica -->
<g id="edge47" class="edge">
<title>libwebp&#45;&gt;leptonica</title>
<path fill="none" stroke="black" d="M1055.41,-741.75C963.63,-735.18 771.04,-718.63 710,-692 700.68,-687.93 657.33,-651.1 628.47,-626.11"/>
<polygon fill="black" stroke="black" points="631.24,-623.01 621.39,-619.1 626.65,-628.3 631.24,-623.01"/>
</g>
<!-- tesseract -->
<g id="node48" class="node">
<title>tesseract</title>
<g id="a_node48"><a xlink:href="https://github.com/conda-forge/tesseract-feedstock" xlink:title="tesseract">
<ellipse fill="#fde725" stroke="black" cx="534" cy="-530" rx="57.52" ry="18"/>
<text text-anchor="middle" x="534" y="-525.33" font-family="Times,serif" font-size="14.00">tesseract</text>
</a>
</g>
</g>
<!-- libwebp&#45;&gt;tesseract -->
<g id="edge48" class="edge">
<title>libwebp&#45;&gt;tesseract</title>
<path fill="none" stroke="black" d="M1054.53,-743.34C953.34,-739.31 729.54,-726.65 662,-692 642.69,-682.09 646.92,-668.24 629,-656 592.4,-631.01 561.46,-656.28 536,-620 523.66,-602.42 524.13,-577.71 527.13,-558.78"/>
<polygon fill="black" stroke="black" points="530.73,-559.61 529.18,-549.13 523.86,-558.29 530.73,-559.61"/>
</g>
<!-- sdl_image -->
<g id="node49" class="node">
<title>sdl_image</title>
<g id="a_node49"><a xlink:href="https://github.com/conda-forge/sdl_image-feedstock" xlink:title="sdl_image">
<ellipse fill="#fde725" stroke="black" cx="687" cy="-530" rx="61.2" ry="18"/>
<text text-anchor="middle" x="687" y="-525.33" font-family="Times,serif" font-size="14.00">sdl_image</text>
</a>
</g>
</g>
<!-- libwebp&#45;&gt;sdl_image -->
<g id="edge49" class="edge">
<title>libwebp&#45;&gt;sdl_image</title>
<path fill="none" stroke="black" d="M1054.66,-743.23C967.25,-739.26 792.02,-727.05 743,-692 700.46,-661.58 689.96,-596.44 687.54,-559.01"/>
<polygon fill="black" stroke="black" points="691.01,-559.17 687.03,-549.35 684.02,-559.51 691.01,-559.17"/>
</g>
<!-- imagecodecs -->
<g id="node50" class="node">
<title>imagecodecs</title>
<g id="a_node50"><a xlink:href="https://github.com/conda-forge/imagecodecs-feedstock" xlink:title="imagecodecs">
<ellipse fill="#fde725" stroke="black" cx="1673" cy="-674" rx="75.41" ry="18"/>
<text text-anchor="middle" x="1673" y="-669.33" font-family="Times,serif" font-size="14.00">imagecodecs</text>
</a>
</g>
</g>
<!-- libwebp&#45;&gt;imagecodecs -->
<g id="edge50" class="edge">
<title>libwebp&#45;&gt;imagecodecs</title>
<path fill="none" stroke="black" d="M1154.12,-740.85C1241.07,-733.21 1427.63,-715.55 1584,-692 1591.29,-690.9 1598.9,-689.63 1606.47,-688.3"/>
<polygon fill="black" stroke="black" points="1606.88,-691.6 1616.09,-686.37 1605.63,-684.71 1606.88,-691.6"/>
</g>
<!-- qt&#45;webengine -->
<g id="node51" class="node">
<title>qt&#45;webengine</title>
<g id="a_node51"><a xlink:href="https://github.com/conda-forge/qt-webengine-feedstock" xlink:title="qt webengine">
<ellipse fill="#fde725" stroke="black" cx="541" cy="-674" rx="79.09" ry="18"/>
<text text-anchor="middle" x="541" y="-669.33" font-family="Times,serif" font-size="14.00">qt webengine</text>
</a>
</g>
</g>
<!-- libwebp&#45;&gt;qt&#45;webengine -->
<g id="edge51" class="edge">
<title>libwebp&#45;&gt;qt&#45;webengine</title>
<path fill="none" stroke="black" d="M1056.38,-740.64C970.77,-732.72 787.65,-714.66 634,-692 626.41,-690.88 618.49,-689.6 610.61,-688.26"/>
<polygon fill="black" stroke="black" points="611.39,-684.67 600.94,-686.4 610.19,-691.57 611.39,-684.67"/>
</g>
<!-- leptonica&#45;&gt;tesseract -->
<g id="edge52" class="edge">
<title>leptonica&#45;&gt;tesseract</title>
<path fill="none" stroke="black" d="M585.88,-584.41C577.42,-575.69 566.88,-564.85 557.52,-555.21"/>
<polygon fill="black" stroke="black" points="560.48,-553.2 551,-548.47 555.46,-558.08 560.48,-553.2"/>
</g>
<!-- imagecodecs&#45;&gt;panda3d -->
<g id="edge53" class="edge">
<title>imagecodecs&#45;&gt;panda3d</title>
<path fill="none" stroke="black" d="M1673.99,-655.7C1674.41,-648.24 1674.92,-639.32 1675.4,-630.97"/>
<polygon fill="black" stroke="black" points="1678.95,-631.29 1676.02,-621.1 1671.96,-630.89 1678.95,-631.29"/>
</g>
<!-- simage -->
<g id="node52" class="node">
<title>simage</title>
<g id="a_node52"><a xlink:href="https://github.com/conda-forge/simage-feedstock" xlink:title="simage">
<ellipse fill="#fde725" stroke="black" cx="47" cy="-602" rx="47" ry="18"/>
<text text-anchor="middle" x="47" y="-597.33" font-family="Times,serif" font-size="14.00">simage</text>
</a>
</g>
</g>
<!-- fitstools -->
<g id="node54" class="node">
<title>fitstools</title>
<g id="a_node54"><a xlink:href="https://github.com/conda-forge/fitstools-feedstock/pull/6" xlink:title="fitstools ❎">
<ellipse fill="#31688e" stroke="black" cx="2543" cy="-422" rx="66.47" ry="18"/>
<text text-anchor="middle" x="2543" y="-417.32" font-family="Times,serif" font-size="14.00" fill="white">fitstools ❎</text>
</a>
</g>
</g>
<!-- accimage&#45;&gt;fitstools -->
<!-- openscenegraph -->
<g id="node55" class="node">
<title>openscenegraph</title>
<g id="a_node55"><a xlink:href="https://github.com/conda-forge/openscenegraph-feedstock" xlink:title="openscenegraph">
<ellipse fill="#ff8c00" stroke="black" cx="2543" cy="-350" rx="93.3" ry="18"/>
<text text-anchor="middle" x="2543" y="-345.32" font-family="Times,serif" font-size="14.00">openscenegraph</text>
</a>
</g>
</g>
<!-- fitstools&#45;&gt;openscenegraph -->
<!-- vscode&#45;python -->
<g id="node58" class="node">
<title>vscode&#45;python</title>
<g id="a_node58"><a xlink:href="https://github.com/conda-forge/vscode-python-feedstock" xlink:title="vscode python">
<ellipse fill="#ff8c00" stroke="black" cx="2543" cy="-278" rx="83.3" ry="18"/>
<text text-anchor="middle" x="2543" y="-273.32" font-family="Times,serif" font-size="14.00">vscode python</text>
</a>
</g>
</g>
<!-- openscenegraph&#45;&gt;vscode&#45;python -->
<!-- lcms2 -->
<g id="node56" class="node">
<title>lcms2</title>
<g id="a_node56"><a xlink:href="https://github.com/conda-forge/lcms2-feedstock" xlink:title="lcms2">
<ellipse fill="#ff8c00" stroke="black" cx="1960" cy="-746" rx="40.69" ry="18"/>
<text text-anchor="middle" x="1960" y="-741.33" font-family="Times,serif" font-size="14.00">lcms2</text>
</a>
</g>
</g>
<!-- lcms2&#45;&gt;libvips -->
<g id="edge57" class="edge">
<title>lcms2&#45;&gt;libvips</title>
<path fill="none" stroke="black" d="M1951.13,-727.98C1932.18,-693.65 1884.12,-616.59 1819,-584 1762.69,-555.82 1336.37,-538.28 1182.86,-532.83"/>
<polygon fill="black" stroke="black" points="1183.41,-529.31 1173.29,-532.46 1183.16,-536.31 1183.41,-529.31"/>
</g>
<!-- lcms2&#45;&gt;openjdk -->
<g id="edge58" class="edge">
<title>lcms2&#45;&gt;openjdk</title>
<path fill="none" stroke="black" d="M1994.8,-736.21C2043.12,-723.99 2130.86,-701.82 2186.41,-687.78"/>
<polygon fill="black" stroke="black" points="2186.9,-691.02 2195.74,-685.17 2185.18,-684.23 2186.9,-691.02"/>
</g>
<!-- lcms2&#45;&gt;hugin -->
<g id="edge62" class="edge">
<title>lcms2&#45;&gt;hugin</title>
<path fill="none" stroke="black" d="M1992.54,-734.88C2042.65,-717.03 2133,-674.88 2133,-603 2133,-603 2133,-603 2133,-529 2133,-488.55 2126.79,-471.63 2152,-440 2169,-418.67 2196.58,-405.53 2220.36,-397.67"/>
<polygon fill="black" stroke="black" points="2221.08,-400.8 2229.61,-394.52 2219.03,-394.11 2221.08,-400.8"/>
</g>
<!-- lcms2&#45;&gt;pillow -->
<g id="edge59" class="edge">
<title>lcms2&#45;&gt;pillow</title>
<path fill="none" stroke="black" d="M1932.47,-732.32C1908.12,-721.11 1872.38,-704.65 1845.43,-692.24"/>
<polygon fill="black" stroke="black" points="1847.12,-688.7 1836.58,-687.7 1844.2,-695.06 1847.12,-688.7"/>
</g>
<!-- lcms2&#45;&gt;poppler -->
<g id="edge60" class="edge">
<title>lcms2&#45;&gt;poppler</title>
<path fill="none" stroke="black" d="M1919.73,-743.1C1796.02,-737.13 1410.66,-717.65 1092,-692 1054.55,-688.99 1012.53,-684.79 979.64,-681.32"/>
<polygon fill="black" stroke="black" points="980.17,-677.75 969.86,-680.18 979.43,-684.71 980.17,-677.75"/>
</g>
<!-- lcms2&#45;&gt;enblend -->
<g id="edge61" class="edge">
<title>lcms2&#45;&gt;enblend</title>
<path fill="none" stroke="black" d="M2000.2,-741.97C2078.03,-735.59 2246.14,-719.04 2297,-692 2374.19,-650.96 2399,-629.36 2431,-548 2436.86,-533.11 2436.17,-527.14 2431,-512 2427.48,-501.71 2421.06,-491.86 2414.33,-483.51"/>
<polygon fill="black" stroke="black" points="2416.5,-481.67 2407.31,-476.39 2411.21,-486.24 2416.5,-481.67"/>
</g>
<!-- lcms2&#45;&gt;imagecodecs -->
<g id="edge63" class="edge">
<title>lcms2&#45;&gt;imagecodecs</title>
<path fill="none" stroke="black" d="M1924.81,-736.42C1877.6,-724.9 1793.01,-704.27 1735,-690.12"/>
<polygon fill="black" stroke="black" points="1736.04,-686.53 1725.5,-687.56 1734.38,-693.33 1736.04,-686.53"/>
</g>
<!-- libraw -->
<g id="node57" class="node">
<title>libraw</title>
<g id="a_node57"><a xlink:href="https://github.com/conda-forge/libraw-feedstock" xlink:title="libraw">
<ellipse fill="#fde725" stroke="black" cx="2002" cy="-674" rx="42.79" ry="18"/>
<text text-anchor="middle" x="2002" y="-669.33" font-family="Times,serif" font-size="14.00">libraw</text>
</a>
</g>
</g>
<!-- lcms2&#45;&gt;libraw -->
<g id="edge64" class="edge">
<title>lcms2&#45;&gt;libraw</title>
<path fill="none" stroke="black" d="M1969.95,-728.41C1974.8,-720.34 1980.74,-710.43 1986.19,-701.35"/>
<polygon fill="black" stroke="black" points="1989.68,-703.33 1991.83,-692.96 1983.68,-699.73 1989.68,-703.33"/>
</g>
<!-- libraw&#45;&gt;freeimage -->
<g id="edge65" class="edge">
<title>libraw&#45;&gt;freeimage</title>
<path fill="none" stroke="black" d="M2011.92,-656.05C2016.66,-647.97 2022.43,-638.12 2027.71,-629.11"/>
<polygon fill="black" stroke="black" points="2031.13,-631.19 2033.17,-620.79 2025.09,-627.65 2031.13,-631.19"/>
</g>
<!-- podofo -->
<g id="node59" class="node">
<title>podofo</title>
<g id="a_node59"><a xlink:href="https://github.com/conda-forge/podofo-feedstock" xlink:title="podofo">
<ellipse fill="#ff8c00" stroke="black" cx="2543" cy="-206" rx="44.9" ry="18"/>
<text text-anchor="middle" x="2543" y="-201.32" font-family="Times,serif" font-size="14.00">podofo</text>
</a>
</g>
</g>
<!-- vscode&#45;python&#45;&gt;podofo -->
<!-- djvulibre -->
<g id="node60" class="node">
<title>djvulibre</title>
<g id="a_node60"><a xlink:href="https://github.com/conda-forge/djvulibre-feedstock" xlink:title="djvulibre">
<ellipse fill="#ff8c00" stroke="black" cx="1221" cy="-162" rx="55.94" ry="18"/>
<text text-anchor="middle" x="1221" y="-157.32" font-family="Times,serif" font-size="14.00">djvulibre</text>
</a>
</g>
</g>
<!-- pdfmm -->
<g id="node61" class="node">
<title>pdfmm</title>
<g id="a_node61"><a xlink:href="https://github.com/conda-forge/pdfmm-feedstock" xlink:title="pdfmm">
<ellipse fill="#ff8c00" stroke="black" cx="1221" cy="-90" rx="46.47" ry="18"/>
<text text-anchor="middle" x="1221" y="-85.33" font-family="Times,serif" font-size="14.00">pdfmm</text>
</a>
</g>
</g>
<!-- djvulibre&#45;&gt;pdfmm -->
<!-- libjxl&#45;split -->
<g id="node63" class="node">
<title>libjxl&#45;split</title>
<g id="a_node63"><a xlink:href="https://github.com/conda-forge/libjxl-split-feedstock/pull/7" xlink:title="libjxl split ✓">
<ellipse fill="#31688e" stroke="black" cx="1221" cy="-18" rx="69.1" ry="18"/>
<text text-anchor="middle" x="1221" y="-13.32" font-family="Times,serif" font-size="14.00" fill="white">libjxl split ✓</text>
</a>
</g>
</g>
<!-- pdfmm&#45;&gt;libjxl&#45;split -->
<!-- qt&#45;main -->
<g id="node62" class="node">
<title>qt&#45;main</title>
<g id="a_node62"><a xlink:href="https://github.com/conda-forge/qt-main-feedstock/pull/195" xlink:title="qt main ❎">
<ellipse fill="#31688e" stroke="black" cx="347" cy="-746" rx="64.89" ry="18"/>
<text text-anchor="middle" x="347" y="-741.33" font-family="Times,serif" font-size="14.00" fill="white">qt main ❎</text>
</a>
</g>
</g>
<!-- qt&#45;main&#45;&gt;graphicsmagick -->
<g id="edge69" class="edge">
<title>qt&#45;main&#45;&gt;graphicsmagick</title>
<path fill="none" stroke="black" d="M411.9,-743.76C596.18,-739.83 1113.72,-725.87 1182,-692 1209.33,-678.44 1230.98,-650.41 1244.27,-629.41"/>
<polygon fill="black" stroke="black" points="1247.76,-631.41 1249.95,-621.05 1241.77,-627.78 1247.76,-631.41"/>
</g>
<!-- qt&#45;main&#45;&gt;opencv -->
<g id="edge70" class="edge">
<title>qt&#45;main&#45;&gt;opencv</title>
<path fill="none" stroke="black" d="M320.68,-729.12C303.94,-719.02 282.13,-705.86 264.21,-695.04"/>
<polygon fill="black" stroke="black" points="266.61,-691.8 256.24,-689.63 262.99,-697.79 266.61,-691.8"/>
</g>
<!-- qt&#45;main&#45;&gt;yarp -->
<g id="edge71" class="edge">
<title>qt&#45;main&#45;&gt;yarp</title>
<path fill="none" stroke="black" d="M285.18,-740.19C220.83,-733.74 126.34,-719.74 104,-692 87.87,-671.98 105.35,-644.9 122.62,-625.89"/>
<polygon fill="black" stroke="black" points="124.77,-628.67 129.17,-619.03 119.72,-623.82 124.77,-628.67"/>
</g>
<!-- qt&#45;main&#45;&gt;paraview -->
<g id="edge72" class="edge">
<title>qt&#45;main&#45;&gt;paraview</title>
<path fill="none" stroke="black" d="M411.77,-743.94C586.4,-740.61 1064.08,-728.36 1217,-692 1279.45,-677.15 1346.89,-644.77 1387.26,-623.43"/>
<polygon fill="black" stroke="black" points="1388.76,-626.07 1395.93,-618.27 1385.46,-619.9 1388.76,-626.07"/>
</g>
<!-- qt&#45;main&#45;&gt;poppler -->
<g id="edge73" class="edge">
<title>qt&#45;main&#45;&gt;poppler</title>
<path fill="none" stroke="black" d="M410.68,-742.11C508.64,-736.86 701.87,-723.23 863,-692 866.89,-691.25 870.9,-690.35 874.9,-689.37"/>
<polygon fill="black" stroke="black" points="875.63,-692.54 884.42,-686.63 873.86,-685.77 875.63,-692.54"/>
</g>
<!-- qt&#45;main&#45;&gt;ipe -->
<g id="edge74" class="edge">
<title>qt&#45;main&#45;&gt;ipe</title>
<path fill="none" stroke="black" d="M334.58,-728.09C321.75,-708.41 305.95,-676.04 324,-656 375.44,-598.89 592.18,-632.63 668,-620 680.64,-617.89 694.36,-614.94 706.5,-612.08"/>
<polygon fill="black" stroke="black" points="707.25,-615.26 716.14,-609.5 705.6,-608.45 707.25,-615.26"/>
</g>
<!-- qt&#45;main&#45;&gt;vtk -->
<g id="edge75" class="edge">
<title>qt&#45;main&#45;&gt;vtk</title>
<path fill="none" stroke="black" d="M301.4,-732.76C266.6,-722.96 217.71,-708.22 176,-692 174.32,-691.35 172.6,-690.65 170.88,-689.92"/>
<polygon fill="black" stroke="black" points="172.66,-686.44 162.1,-685.57 169.82,-692.83 172.66,-686.44"/>
</g>
<!-- qt&#45;main&#45;&gt;qtwebkit -->
<g id="edge76" class="edge">
<title>qt&#45;main&#45;&gt;qtwebkit</title>
<path fill="none" stroke="black" d="M356.92,-728.05C361.66,-719.97 367.43,-710.12 372.71,-701.11"/>
<polygon fill="black" stroke="black" points="376.13,-703.19 378.17,-692.79 370.09,-699.65 376.13,-703.19"/>
</g>
<!-- qt&#45;main&#45;&gt;qt&#45;webengine -->
<g id="edge77" class="edge">
<title>qt&#45;main&#45;&gt;qt&#45;webengine</title>
<path fill="none" stroke="black" d="M385.33,-731.17C415.22,-720.38 457.02,-705.3 489.78,-693.48"/>
<polygon fill="black" stroke="black" points="490.85,-696.45 499.07,-689.77 488.48,-689.87 490.85,-696.45"/>
</g>
<!-- qt&#45;main&#45;&gt;simage -->
<g id="edge78" class="edge">
<title>qt&#45;main&#45;&gt;simage</title>
<path fill="none" stroke="black" d="M287.38,-738.41C222.47,-730.23 123.93,-714.55 94,-692 73.98,-676.92 61.64,-650.8 54.66,-630.74"/>
<polygon fill="black" stroke="black" points="57.71,-629.78 51.32,-621.33 51.04,-631.92 57.71,-629.78"/>
</g>
</g>
</svg>
