<?xml version="1.0" encoding="UTF-8" standalone="no"?>
<!DOCTYPE svg PUBLIC "-//W3C//DTD SVG 1.1//EN"
 "http://www.w3.org/Graphics/SVG/1.1/DTD/svg11.dtd">
<!-- Generated by graphviz version 8.1.0 (20230707.2238)
 -->
<!-- Pages: 1 -->
<svg width="1382pt" height="880pt"
 viewBox="0.00 0.00 1382.14 880.00" xmlns="http://www.w3.org/2000/svg" xmlns:xlink="http://www.w3.org/1999/xlink">
<g id="graph0" class="graph" transform="scale(1 1) rotate(0) translate(4 876)">
<polygon fill="white" stroke="none" points="-4,4 -4,-876 1378.14,-876 1378.14,4 -4,4"/>
<!-- dlib -->
<g id="node1" class="node">
<title>dlib</title>
<g id="a_node1"><a xlink:href="https://github.com/conda-forge/dlib-feedstock" xlink:title="dlib">
<ellipse fill="#ff8c00" stroke="black" cx="1096.85" cy="-854" rx="30.16" ry="18"/>
<text text-anchor="middle" x="1096.85" y="-849.33" font-family="Times,serif" font-size="14.00">dlib</text>
</a>
</g>
</g>
<!-- emacs -->
<g id="node2" class="node">
<title>emacs</title>
<g id="a_node2"><a xlink:href="https://github.com/conda-forge/emacs-feedstock" xlink:title="emacs">
<ellipse fill="#ff8c00" stroke="black" cx="1096.85" cy="-782" rx="42.79" ry="18"/>
<text text-anchor="middle" x="1096.85" y="-777.33" font-family="Times,serif" font-size="14.00">emacs</text>
</a>
</g>
</g>
<!-- dlib&#45;&gt;emacs -->
<!-- libitk -->
<g id="node3" class="node">
<title>libitk</title>
<g id="a_node3"><a xlink:href="https://github.com/conda-forge/libitk-feedstock" xlink:title="libitk">
<ellipse fill="#ff8c00" stroke="black" cx="1096.85" cy="-710" rx="37" ry="18"/>
<text text-anchor="middle" x="1096.85" y="-705.33" font-family="Times,serif" font-size="14.00">libitk</text>
</a>
</g>
</g>
<!-- emacs&#45;&gt;libitk -->
<!-- openmotif -->
<g id="node9" class="node">
<title>openmotif</title>
<g id="a_node9"><a xlink:href="https://github.com/conda-forge/openmotif-feedstock/pull/15" xlink:title="openmotif ✓">
<ellipse fill="#31688e" stroke="black" cx="1096.85" cy="-638" rx="69.62" ry="18"/>
<text text-anchor="middle" x="1096.85" y="-633.33" font-family="Times,serif" font-size="14.00" fill="white">openmotif ✓</text>
</a>
</g>
</g>
<!-- libitk&#45;&gt;openmotif -->
<!-- freeimage -->
<g id="node4" class="node">
<title>freeimage</title>
<g id="a_node4"><a xlink:href="https://github.com/conda-forge/freeimage-feedstock/pull/46" xlink:title="freeimage ❎">
<ellipse fill="#31688e" stroke="black" cx="316.85" cy="-530" rx="76.99" ry="18"/>
<text text-anchor="middle" x="316.85" y="-525.33" font-family="Times,serif" font-size="14.00" fill="white">freeimage ❎</text>
</a>
</g>
</g>
<!-- gmsh -->
<g id="node5" class="node">
<title>gmsh</title>
<g id="a_node5"><a xlink:href="https://github.com/conda-forge/gmsh-feedstock" xlink:title="gmsh">
<ellipse fill="#fde725" stroke="black" cx="255.85" cy="-458" rx="38.58" ry="18"/>
<text text-anchor="middle" x="255.85" y="-453.32" font-family="Times,serif" font-size="14.00">gmsh</text>
</a>
</g>
</g>
<!-- freeimage&#45;&gt;gmsh -->
<g id="edge3" class="edge">
<title>freeimage&#45;&gt;gmsh</title>
<path fill="none" stroke="black" d="M302.08,-512.05C294.44,-503.29 285,-492.45 276.64,-482.86"/>
<polygon fill="black" stroke="black" points="278.85,-481.07 269.64,-475.83 273.57,-485.67 278.85,-481.07"/>
</g>
<!-- gdal -->
<g id="node6" class="node">
<title>gdal</title>
<g id="a_node6"><a xlink:href="https://github.com/conda-forge/gdal-feedstock" xlink:title="gdal">
<ellipse fill="#fde725" stroke="black" cx="588.85" cy="-530" rx="32.79" ry="18"/>
<text text-anchor="middle" x="588.85" y="-525.33" font-family="Times,serif" font-size="14.00">gdal</text>
</a>
</g>
</g>
<!-- ncl -->
<g id="node7" class="node">
<title>ncl</title>
<g id="a_node7"><a xlink:href="https://github.com/conda-forge/ncl-feedstock" xlink:title="ncl">
<ellipse fill="#fde725" stroke="black" cx="590.85" cy="-458" rx="27" ry="18"/>
<text text-anchor="middle" x="590.85" y="-453.32" font-family="Times,serif" font-size="14.00">ncl</text>
</a>
</g>
</g>
<!-- gdal&#45;&gt;ncl -->
<g id="edge4" class="edge">
<title>gdal&#45;&gt;ncl</title>
<path fill="none" stroke="black" d="M589.34,-511.7C589.55,-504.24 589.81,-495.32 590.05,-486.97"/>
<polygon fill="black" stroke="black" points="593.57,-487.2 590.36,-477.1 586.57,-487 593.57,-487.2"/>
</g>
<!-- mapserver -->
<g id="node8" class="node">
<title>mapserver</title>
<g id="a_node8"><a xlink:href="https://github.com/conda-forge/mapserver-feedstock" xlink:title="mapserver">
<ellipse fill="#fde725" stroke="black" cx="535.85" cy="-386" rx="64.89" ry="18"/>
<text text-anchor="middle" x="535.85" y="-381.32" font-family="Times,serif" font-size="14.00">mapserver</text>
</a>
</g>
</g>
<!-- gdal&#45;&gt;mapserver -->
<g id="edge5" class="edge">
<title>gdal&#45;&gt;mapserver</title>
<path fill="none" stroke="black" d="M576.51,-513.13C569.21,-503.02 560.34,-489.34 554.85,-476 546.81,-456.46 541.98,-433.06 539.21,-415.15"/>
<polygon fill="black" stroke="black" points="542.54,-414.68 537.67,-405.27 535.6,-415.67 542.54,-414.68"/>
</g>
<!-- wxpython -->
<g id="node13" class="node">
<title>wxpython</title>
<g id="a_node13"><a xlink:href="https://github.com/conda-forge/wxpython-feedstock" xlink:title="wxpython">
<ellipse fill="#ff8c00" stroke="black" cx="1096.85" cy="-566" rx="60.15" ry="18"/>
<text text-anchor="middle" x="1096.85" y="-561.33" font-family="Times,serif" font-size="14.00">wxpython</text>
</a>
</g>
</g>
<!-- openmotif&#45;&gt;wxpython -->
<!-- opencv -->
<g id="node10" class="node">
<title>opencv</title>
<g id="a_node10"><a xlink:href="https://github.com/conda-forge/opencv-feedstock" xlink:title="opencv">
<ellipse fill="#fde725" stroke="black" cx="117.85" cy="-602" rx="46.47" ry="18"/>
<text text-anchor="middle" x="117.85" y="-597.33" font-family="Times,serif" font-size="14.00">opencv</text>
</a>
</g>
</g>
<!-- yarp -->
<g id="node11" class="node">
<title>yarp</title>
<g id="a_node11"><a xlink:href="https://github.com/conda-forge/yarp-feedstock" xlink:title="yarp">
<ellipse fill="#fde725" stroke="black" cx="33.85" cy="-530" rx="33.85" ry="18"/>
<text text-anchor="middle" x="33.85" y="-525.33" font-family="Times,serif" font-size="14.00">yarp</text>
</a>
</g>
</g>
<!-- opencv&#45;&gt;yarp -->
<g id="edge7" class="edge">
<title>opencv&#45;&gt;yarp</title>
<path fill="none" stroke="black" d="M98.79,-585.12C87.22,-575.48 72.31,-563.06 59.7,-552.54"/>
<polygon fill="black" stroke="black" points="62.32,-549.34 52.4,-545.63 57.84,-554.72 62.32,-549.34"/>
</g>
<!-- visp -->
<g id="node12" class="node">
<title>visp</title>
<g id="a_node12"><a xlink:href="https://github.com/conda-forge/visp-feedstock" xlink:title="visp">
<ellipse fill="#fde725" stroke="black" cx="117.85" cy="-530" rx="31.74" ry="18"/>
<text text-anchor="middle" x="117.85" y="-525.33" font-family="Times,serif" font-size="14.00">visp</text>
</a>
</g>
</g>
<!-- opencv&#45;&gt;visp -->
<g id="edge8" class="edge">
<title>opencv&#45;&gt;visp</title>
<path fill="none" stroke="black" d="M117.85,-583.7C117.85,-576.24 117.85,-567.32 117.85,-558.97"/>
<polygon fill="black" stroke="black" points="121.35,-559.1 117.85,-549.1 114.35,-559.1 121.35,-559.1"/>
</g>
<!-- xfig -->
<g id="node19" class="node">
<title>xfig</title>
<g id="a_node19"><a xlink:href="https://github.com/conda-forge/xfig-feedstock/pull/8" xlink:title="xfig ✓">
<ellipse fill="#31688e" stroke="black" cx="1096.85" cy="-494" rx="37.53" ry="18"/>
<text text-anchor="middle" x="1096.85" y="-489.32" font-family="Times,serif" font-size="14.00" fill="white">xfig ✓</text>
</a>
</g>
</g>
<!-- wxpython&#45;&gt;xfig -->
<!-- paraview -->
<g id="node14" class="node">
<title>paraview</title>
<g id="a_node14"><a xlink:href="https://github.com/conda-forge/paraview-feedstock" xlink:title="paraview">
<ellipse fill="#fde725" stroke="black" cx="425.85" cy="-602" rx="57" ry="18"/>
<text text-anchor="middle" x="425.85" y="-597.33" font-family="Times,serif" font-size="14.00">paraview</text>
</a>
</g>
</g>
<!-- poppler -->
<g id="node15" class="node">
<title>poppler</title>
<g id="a_node15"><a xlink:href="https://github.com/conda-forge/poppler-feedstock" xlink:title="poppler">
<ellipse fill="#fde725" stroke="black" cx="588.85" cy="-602" rx="49.63" ry="18"/>
<text text-anchor="middle" x="588.85" y="-597.33" font-family="Times,serif" font-size="14.00">poppler</text>
</a>
</g>
</g>
<!-- poppler&#45;&gt;gdal -->
<g id="edge10" class="edge">
<title>poppler&#45;&gt;gdal</title>
<path fill="none" stroke="black" d="M588.85,-583.7C588.85,-576.24 588.85,-567.32 588.85,-558.97"/>
<polygon fill="black" stroke="black" points="592.35,-559.1 588.85,-549.1 585.35,-559.1 592.35,-559.1"/>
</g>
<!-- libvips -->
<g id="node16" class="node">
<title>libvips</title>
<g id="a_node16"><a xlink:href="https://github.com/conda-forge/libvips-feedstock" xlink:title="libvips">
<ellipse fill="#fde725" stroke="black" cx="493.85" cy="-530" rx="44.37" ry="18"/>
<text text-anchor="middle" x="493.85" y="-525.33" font-family="Times,serif" font-size="14.00">libvips</text>
</a>
</g>
</g>
<!-- poppler&#45;&gt;libvips -->
<g id="edge11" class="edge">
<title>poppler&#45;&gt;libvips</title>
<path fill="none" stroke="black" d="M567.76,-585.46C554.64,-575.79 537.56,-563.21 523.13,-552.58"/>
<polygon fill="black" stroke="black" points="525.67,-549.37 515.54,-546.25 521.52,-555 525.67,-549.37"/>
</g>
<!-- ipe -->
<g id="node17" class="node">
<title>ipe</title>
<g id="a_node17"><a xlink:href="https://github.com/conda-forge/ipe-feedstock" xlink:title="ipe">
<ellipse fill="#fde725" stroke="black" cx="666.85" cy="-530" rx="27" ry="18"/>
<text text-anchor="middle" x="666.85" y="-525.33" font-family="Times,serif" font-size="14.00">ipe</text>
</a>
</g>
</g>
<!-- poppler&#45;&gt;ipe -->
<g id="edge12" class="edge">
<title>poppler&#45;&gt;ipe</title>
<path fill="none" stroke="black" d="M606.94,-584.76C617.73,-575.08 631.55,-562.67 643.2,-552.22"/>
<polygon fill="black" stroke="black" points="645.12,-555.3 650.23,-546.02 640.45,-550.09 645.12,-555.3"/>
</g>
<!-- sane -->
<g id="node18" class="node">
<title>sane</title>
<g id="a_node18"><a xlink:href="https://github.com/conda-forge/sane-feedstock" xlink:title="sane">
<ellipse fill="#fde725" stroke="black" cx="421.85" cy="-458" rx="34.37" ry="18"/>
<text text-anchor="middle" x="421.85" y="-453.32" font-family="Times,serif" font-size="14.00">sane</text>
</a>
</g>
</g>
<!-- poppler&#45;&gt;sane -->
<g id="edge13" class="edge">
<title>poppler&#45;&gt;sane</title>
<path fill="none" stroke="black" d="M551.45,-589.69C510.14,-576.88 448.42,-556.65 440.85,-548 426.31,-531.38 421.98,-506.37 421.05,-487.1"/>
<polygon fill="black" stroke="black" points="424.53,-487.17 420.84,-477.24 417.53,-487.3 424.53,-487.17"/>
</g>
<!-- u3d -->
<g id="node20" class="node">
<title>u3d</title>
<g id="a_node20"><a xlink:href="https://github.com/conda-forge/u3d-feedstock/pull/25" xlink:title="u3d ✓">
<ellipse fill="#31688e" stroke="black" cx="1096.85" cy="-422" rx="38.06" ry="18"/>
<text text-anchor="middle" x="1096.85" y="-417.32" font-family="Times,serif" font-size="14.00" fill="white">u3d ✓</text>
</a>
</g>
</g>
<!-- xfig&#45;&gt;u3d -->
<!-- tensorflow -->
<g id="node21" class="node">
<title>tensorflow</title>
<g id="a_node21"><a xlink:href="https://github.com/conda-forge/tensorflow-feedstock" xlink:title="tensorflow">
<ellipse fill="#ff8c00" stroke="black" cx="1096.85" cy="-350" rx="63.84" ry="18"/>
<text text-anchor="middle" x="1096.85" y="-345.32" font-family="Times,serif" font-size="14.00">tensorflow</text>
</a>
</g>
</g>
<!-- u3d&#45;&gt;tensorflow -->
<!-- lammps -->
<g id="node25" class="node">
<title>lammps</title>
<g id="a_node25"><a xlink:href="https://github.com/conda-forge/lammps-feedstock" xlink:title="lammps">
<ellipse fill="#000000" stroke="black" cx="1096.85" cy="-278" rx="50.68" ry="18"/>
<text text-anchor="middle" x="1096.85" y="-273.32" font-family="Times,serif" font-size="14.00" fill="white">lammps</text>
</a>
</g>
</g>
<!-- tensorflow&#45;&gt;lammps -->
<!-- vtk -->
<g id="node22" class="node">
<title>vtk</title>
<g id="a_node22"><a xlink:href="https://github.com/conda-forge/vtk-feedstock" xlink:title="vtk">
<ellipse fill="#fde725" stroke="black" cx="194.85" cy="-530" rx="27.01" ry="18"/>
<text text-anchor="middle" x="194.85" y="-525.33" font-family="Times,serif" font-size="14.00">vtk</text>
</a>
</g>
</g>
<!-- vtk&#45;&gt;gmsh -->
<g id="edge17" class="edge">
<title>vtk&#45;&gt;gmsh</title>
<path fill="none" stroke="black" d="M208.08,-513.81C215.86,-504.89 225.86,-493.41 234.71,-483.26"/>
<polygon fill="black" stroke="black" points="237.86,-485.97 241.79,-476.13 232.58,-481.37 237.86,-485.97"/>
</g>
<!-- simage -->
<g id="node23" class="node">
<title>simage</title>
<g id="a_node23"><a xlink:href="https://github.com/conda-forge/simage-feedstock" xlink:title="simage">
<ellipse fill="#fde725" stroke="black" cx="684.85" cy="-458" rx="47" ry="18"/>
<text text-anchor="middle" x="684.85" y="-453.32" font-family="Times,serif" font-size="14.00">simage</text>
</a>
</g>
</g>
<!-- qtwebkit -->
<g id="node24" class="node">
<title>qtwebkit</title>
<g id="a_node24"><a xlink:href="https://github.com/conda-forge/qtwebkit-feedstock" xlink:title="qtwebkit">
<ellipse fill="#fde725" stroke="black" cx="736.85" cy="-386" rx="55.42" ry="18"/>
<text text-anchor="middle" x="736.85" y="-381.32" font-family="Times,serif" font-size="14.00">qtwebkit</text>
</a>
</g>
</g>
<!-- qpdf -->
<g id="node26" class="node">
<title>qpdf</title>
<g id="a_node26"><a xlink:href="https://github.com/conda-forge/qpdf-feedstock/pull/35" xlink:title="qpdf ✓">
<ellipse fill="#31688e" stroke="black" cx="1096.85" cy="-206" rx="41.74" ry="18"/>
<text text-anchor="middle" x="1096.85" y="-201.33" font-family="Times,serif" font-size="14.00" fill="white">qpdf ✓</text>
</a>
</g>
</g>
<!-- lammps&#45;&gt;qpdf -->
<!-- openimageio -->
<g id="node29" class="node">
<title>openimageio</title>
<g id="a_node29"><a xlink:href="https://github.com/conda-forge/openimageio-feedstock/pull/90" xlink:title="openimageio ✓">
<ellipse fill="#31688e" stroke="black" cx="1096.85" cy="-134" rx="82.77" ry="18"/>
<text text-anchor="middle" x="1096.85" y="-129.32" font-family="Times,serif" font-size="14.00" fill="white">openimageio ✓</text>
</a>
</g>
</g>
<!-- qpdf&#45;&gt;openimageio -->
<!-- leptonica -->
<g id="node27" class="node">
<title>leptonica</title>
<g id="a_node27"><a xlink:href="https://github.com/conda-forge/leptonica-feedstock/pull/46" xlink:title="leptonica ✓">
<ellipse fill="#31688e" stroke="black" cx="502.85" cy="-90" rx="64.89" ry="18"/>
<text text-anchor="middle" x="502.85" y="-85.33" font-family="Times,serif" font-size="14.00" fill="white">leptonica ✓</text>
</a>
</g>
</g>
<!-- tesseract -->
<g id="node28" class="node">
<title>tesseract</title>
<g id="a_node28"><a xlink:href="https://github.com/conda-forge/tesseract-feedstock" xlink:title="tesseract">
<ellipse fill="#fde725" stroke="black" cx="502.85" cy="-18" rx="57.52" ry="18"/>
<text text-anchor="middle" x="502.85" y="-13.32" font-family="Times,serif" font-size="14.00">tesseract</text>
</a>
</g>
</g>
<!-- leptonica&#45;&gt;tesseract -->
<g id="edge20" class="edge">
<title>leptonica&#45;&gt;tesseract</title>
<path fill="none" stroke="black" d="M502.85,-71.7C502.85,-64.24 502.85,-55.32 502.85,-46.97"/>
<polygon fill="black" stroke="black" points="506.35,-47.1 502.85,-37.1 499.35,-47.1 506.35,-47.1"/>
</g>
<!-- graphicsmagick -->
<g id="node30" class="node">
<title>graphicsmagick</title>
<g id="a_node30"><a xlink:href="https://github.com/conda-forge/graphicsmagick-feedstock" xlink:title="graphicsmagick">
<ellipse fill="#fde725" stroke="black" cx="819.85" cy="-314" rx="90.14" ry="18"/>
<text text-anchor="middle" x="819.85" y="-309.32" font-family="Times,serif" font-size="14.00">graphicsmagick</text>
</a>
</g>
</g>
<!-- accimage -->
<g id="node31" class="node">
<title>accimage</title>
<g id="a_node31"><a xlink:href="https://github.com/conda-forge/accimage-feedstock/pull/14" xlink:title="accimage ✓">
<ellipse fill="#31688e" stroke="black" cx="1280.85" cy="-818" rx="65.94" ry="18"/>
<text text-anchor="middle" x="1280.85" y="-813.33" font-family="Times,serif" font-size="14.00" fill="white">accimage ✓</text>
</a>
</g>
</g>
<!-- fitstools -->
<g id="node32" class="node">
<title>fitstools</title>
<g id="a_node32"><a xlink:href="https://github.com/conda-forge/fitstools-feedstock/pull/6" xlink:title="fitstools ❎">
<ellipse fill="#31688e" stroke="black" cx="1280.85" cy="-746" rx="66.47" ry="18"/>
<text text-anchor="middle" x="1280.85" y="-741.33" font-family="Times,serif" font-size="14.00" fill="white">fitstools ❎</text>
</a>
</g>
</g>
<!-- accimage&#45;&gt;fitstools -->
<!-- openscenegraph -->
<g id="node33" class="node">
<title>openscenegraph</title>
<g id="a_node33"><a xlink:href="https://github.com/conda-forge/openscenegraph-feedstock" xlink:title="openscenegraph">
<ellipse fill="#ff8c00" stroke="black" cx="1280.85" cy="-674" rx="93.3" ry="18"/>
<text text-anchor="middle" x="1280.85" y="-669.33" font-family="Times,serif" font-size="14.00">openscenegraph</text>
</a>
</g>
</g>
<!-- fitstools&#45;&gt;openscenegraph -->
<!-- hugin -->
<g id="node34" class="node">
<title>hugin</title>
<g id="a_node34"><a xlink:href="https://github.com/conda-forge/hugin-feedstock" xlink:title="hugin">
<ellipse fill="#ff8c00" stroke="black" cx="1280.85" cy="-602" rx="39.63" ry="18"/>
<text text-anchor="middle" x="1280.85" y="-597.33" font-family="Times,serif" font-size="14.00">hugin</text>
</a>
</g>
</g>
<!-- openscenegraph&#45;&gt;hugin -->
<!-- vscode&#45;python -->
<g id="node35" class="node">
<title>vscode&#45;python</title>
<g id="a_node35"><a xlink:href="https://github.com/conda-forge/vscode-python-feedstock" xlink:title="vscode python">
<ellipse fill="#ff8c00" stroke="black" cx="1280.85" cy="-530" rx="83.3" ry="18"/>
<text text-anchor="middle" x="1280.85" y="-525.33" font-family="Times,serif" font-size="14.00">vscode python</text>
</a>
</g>
</g>
<!-- hugin&#45;&gt;vscode&#45;python -->
<!-- harp -->
<g id="node36" class="node">
<title>harp</title>
<g id="a_node36"><a xlink:href="https://github.com/conda-forge/harp-feedstock/pull/34" xlink:title="harp ❎">
<ellipse fill="#31688e" stroke="black" cx="1280.85" cy="-458" rx="49.63" ry="18"/>
<text text-anchor="middle" x="1280.85" y="-453.32" font-family="Times,serif" font-size="14.00" fill="white">harp ❎</text>
</a>
</g>
</g>
<!-- vscode&#45;python&#45;&gt;harp -->
<!-- podofo -->
<g id="node37" class="node">
<title>podofo</title>
<g id="a_node37"><a xlink:href="https://github.com/conda-forge/podofo-feedstock" xlink:title="podofo">
<ellipse fill="#ff8c00" stroke="black" cx="1280.85" cy="-386" rx="44.9" ry="18"/>
<text text-anchor="middle" x="1280.85" y="-381.32" font-family="Times,serif" font-size="14.00">podofo</text>
</a>
</g>
</g>
<!-- harp&#45;&gt;podofo -->
<!-- djvulibre -->
<g id="node38" class="node">
<title>djvulibre</title>
<g id="a_node38"><a xlink:href="https://github.com/conda-forge/djvulibre-feedstock" xlink:title="djvulibre">
<ellipse fill="#ff8c00" stroke="black" cx="1280.85" cy="-314" rx="55.94" ry="18"/>
<text text-anchor="middle" x="1280.85" y="-309.32" font-family="Times,serif" font-size="14.00">djvulibre</text>
</a>
</g>
</g>
<!-- podofo&#45;&gt;djvulibre -->
<!-- xpra -->
<g id="node39" class="node">
<title>xpra</title>
<g id="a_node39"><a xlink:href="https://github.com/conda-forge/xpra-feedstock/pull/28" xlink:title="xpra ✓">
<ellipse fill="#31688e" stroke="black" cx="1280.85" cy="-242" rx="41.74" ry="18"/>
<text text-anchor="middle" x="1280.85" y="-237.32" font-family="Times,serif" font-size="14.00" fill="white">xpra ✓</text>
</a>
</g>
</g>
<!-- djvulibre&#45;&gt;xpra -->
<!-- pdfmm -->
<g id="node42" class="node">
<title>pdfmm</title>
<g id="a_node42"><a xlink:href="https://github.com/conda-forge/pdfmm-feedstock" xlink:title="pdfmm">
<ellipse fill="#ff8c00" stroke="black" cx="1280.85" cy="-170" rx="46.47" ry="18"/>
<text text-anchor="middle" x="1280.85" y="-165.32" font-family="Times,serif" font-size="14.00">pdfmm</text>
</a>
</g>
</g>
<!-- xpra&#45;&gt;pdfmm -->
<!-- qt&#45;main -->
<g id="node40" class="node">
<title>qt&#45;main</title>
<g id="a_node40"><a xlink:href="https://github.com/conda-forge/qt-main-feedstock/pull/195" xlink:title="qt main ❎">
<ellipse fill="#31688e" stroke="black" cx="627.85" cy="-674" rx="64.89" ry="18"/>
<text text-anchor="middle" x="627.85" y="-669.33" font-family="Times,serif" font-size="14.00" fill="white">qt main ❎</text>
</a>
</g>
</g>
<!-- qt&#45;main&#45;&gt;opencv -->
<g id="edge30" class="edge">
<title>qt&#45;main&#45;&gt;opencv</title>
<path fill="none" stroke="black" d="M570.83,-665.17C471.72,-651.57 268.99,-623.75 171.95,-610.43"/>
<polygon fill="black" stroke="black" points="172.6,-606.84 162.22,-608.95 171.65,-613.78 172.6,-606.84"/>
</g>
<!-- qt&#45;main&#45;&gt;yarp -->
<g id="edge31" class="edge">
<title>qt&#45;main&#45;&gt;yarp</title>
<path fill="none" stroke="black" d="M563.56,-670.9C423.72,-665.77 101.27,-650.73 62.85,-620 44.62,-605.42 37.72,-579.19 35.17,-558.97"/>
<polygon fill="black" stroke="black" points="38.57,-558.8 34.14,-549.18 31.6,-559.47 38.57,-558.8"/>
</g>
<!-- qt&#45;main&#45;&gt;paraview -->
<g id="edge32" class="edge">
<title>qt&#45;main&#45;&gt;paraview</title>
<path fill="none" stroke="black" d="M588.42,-659.34C555.4,-647.89 508.17,-631.53 473.13,-619.38"/>
<polygon fill="black" stroke="black" points="474.72,-615.89 464.13,-615.92 472.43,-622.5 474.72,-615.89"/>
</g>
<!-- qt&#45;main&#45;&gt;poppler -->
<g id="edge33" class="edge">
<title>qt&#45;main&#45;&gt;poppler</title>
<path fill="none" stroke="black" d="M618.41,-656.05C613.9,-647.97 608.41,-638.12 603.39,-629.11"/>
<polygon fill="black" stroke="black" points="606.12,-627.82 598.2,-620.79 600.01,-631.23 606.12,-627.82"/>
</g>
<!-- qt&#45;main&#45;&gt;ipe -->
<g id="edge34" class="edge">
<title>qt&#45;main&#45;&gt;ipe</title>
<path fill="none" stroke="black" d="M634.99,-656.04C639.14,-645.74 644.24,-632.27 647.85,-620 653.76,-599.85 658.66,-576.64 661.99,-558.97"/>
<polygon fill="black" stroke="black" points="665.6,-559.72 663.96,-549.25 658.71,-558.46 665.6,-559.72"/>
</g>
<!-- qt&#45;main&#45;&gt;vtk -->
<g id="edge35" class="edge">
<title>qt&#45;main&#45;&gt;vtk</title>
<path fill="none" stroke="black" d="M595.24,-658.07C575.55,-648.4 550.36,-634.87 529.85,-620 511.01,-606.35 512.82,-594.07 491.85,-584 386.29,-533.31 343.08,-581.39 230.85,-548 229.07,-547.47 227.27,-546.87 225.47,-546.21"/>
<polygon fill="black" stroke="black" points="226.94,-542.61 216.36,-542 224.25,-549.07 226.94,-542.61"/>
</g>
<!-- qt&#45;main&#45;&gt;simage -->
<g id="edge36" class="edge">
<title>qt&#45;main&#45;&gt;simage</title>
<path fill="none" stroke="black" d="M642.56,-656.32C661.36,-633.69 692.67,-591.1 702.85,-548 707.71,-527.42 702.53,-503.97 696.5,-486.3"/>
<polygon fill="black" stroke="black" points="699.48,-485.29 692.72,-477.13 692.92,-487.73 699.48,-485.29"/>
</g>
<!-- qt&#45;main&#45;&gt;qtwebkit -->
<g id="edge37" class="edge">
<title>qt&#45;main&#45;&gt;qtwebkit</title>
<path fill="none" stroke="black" d="M654.09,-657.19C667.63,-647.86 683.44,-634.96 693.85,-620 741.08,-552.13 743.96,-522.62 740.85,-440 740.54,-431.85 739.97,-423.02 739.35,-414.94"/>
<polygon fill="black" stroke="black" points="742.77,-414.85 738.47,-405.17 735.8,-415.42 742.77,-414.85"/>
</g>
<!-- qt&#45;main&#45;&gt;graphicsmagick -->
<g id="edge38" class="edge">
<title>qt&#45;main&#45;&gt;graphicsmagick</title>
<path fill="none" stroke="black" d="M673.84,-660.98C730.64,-643.04 819.85,-603.35 819.85,-531 819.85,-531 819.85,-531 819.85,-457 819.85,-417.57 819.85,-371.97 819.85,-343.31"/>
<polygon fill="black" stroke="black" points="823.35,-343.49 819.85,-333.49 816.35,-343.49 823.35,-343.49"/>
</g>
<!-- qt&#45;webengine -->
<g id="node41" class="node">
<title>qt&#45;webengine</title>
<g id="a_node41"><a xlink:href="https://github.com/conda-forge/qt-webengine-feedstock" xlink:title="qt webengine">
<ellipse fill="#fde725" stroke="black" cx="926.85" cy="-602" rx="79.09" ry="18"/>
<text text-anchor="middle" x="926.85" y="-597.33" font-family="Times,serif" font-size="14.00">qt webengine</text>
</a>
</g>
</g>
<!-- qt&#45;main&#45;&gt;qt&#45;webengine -->
<g id="edge39" class="edge">
<title>qt&#45;main&#45;&gt;qt&#45;webengine</title>
<path fill="none" stroke="black" d="M676.22,-661.68C726.84,-649.82 806.57,-631.16 862.48,-618.07"/>
<polygon fill="black" stroke="black" points="863.04,-621.3 871.98,-615.61 861.45,-614.48 863.04,-621.3"/>
</g>
</g>
</svg>
