<?xml version="1.0" encoding="UTF-8" standalone="no"?>
<!DOCTYPE svg PUBLIC "-//W3C//DTD SVG 1.1//EN"
 "http://www.w3.org/Graphics/SVG/1.1/DTD/svg11.dtd">
<!-- Generated by graphviz version 8.1.0 (20230707.2238)
 -->
<!-- Pages: 1 -->
<svg width="2990pt" height="952pt"
 viewBox="0.00 0.00 2990.37 952.00" xmlns="http://www.w3.org/2000/svg" xmlns:xlink="http://www.w3.org/1999/xlink">
<g id="graph0" class="graph" transform="scale(1 1) rotate(0) translate(4 948)">
<polygon fill="white" stroke="none" points="-4,4 -4,-948 2986.37,-948 2986.37,4 -4,4"/>
<!-- dlib -->
<g id="node1" class="node">
<title>dlib</title>
<g id="a_node1"><a xlink:href="https://github.com/conda-forge/dlib-feedstock" xlink:title="dlib">
<ellipse fill="#fde725" stroke="black" cx="1791" cy="-602" rx="30.16" ry="18"/>
<text text-anchor="middle" x="1791" y="-597.33" font-family="Times,serif" font-size="14.00">dlib</text>
</a>
</g>
</g>
<!-- emacs -->
<g id="node2" class="node">
<title>emacs</title>
<g id="a_node2"><a xlink:href="https://github.com/conda-forge/emacs-feedstock" xlink:title="emacs">
<ellipse fill="#ff8c00" stroke="black" cx="2554" cy="-926" rx="42.79" ry="18"/>
<text text-anchor="middle" x="2554" y="-921.33" font-family="Times,serif" font-size="14.00">emacs</text>
</a>
</g>
</g>
<!-- libitk -->
<g id="node3" class="node">
<title>libitk</title>
<g id="a_node3"><a xlink:href="https://github.com/conda-forge/libitk-feedstock" xlink:title="libitk">
<ellipse fill="#ff8c00" stroke="black" cx="2554" cy="-854" rx="37" ry="18"/>
<text text-anchor="middle" x="2554" y="-849.33" font-family="Times,serif" font-size="14.00">libitk</text>
</a>
</g>
</g>
<!-- emacs&#45;&gt;libitk -->
<!-- openmotif -->
<g id="node14" class="node">
<title>openmotif</title>
<g id="a_node14"><a xlink:href="https://github.com/conda-forge/openmotif-feedstock/pull/15" xlink:title="openmotif ✓">
<ellipse fill="#31688e" stroke="black" cx="2554" cy="-782" rx="69.62" ry="18"/>
<text text-anchor="middle" x="2554" y="-777.33" font-family="Times,serif" font-size="14.00" fill="white">openmotif ✓</text>
</a>
</g>
</g>
<!-- libitk&#45;&gt;openmotif -->
<!-- freeimage -->
<g id="node4" class="node">
<title>freeimage</title>
<g id="a_node4"><a xlink:href="https://github.com/conda-forge/freeimage-feedstock" xlink:title="freeimage">
<ellipse fill="#fde725" stroke="black" cx="2054" cy="-602" rx="61.73" ry="18"/>
<text text-anchor="middle" x="2054" y="-597.33" font-family="Times,serif" font-size="14.00">freeimage</text>
</a>
</g>
</g>
<!-- gdal -->
<g id="node5" class="node">
<title>gdal</title>
<g id="a_node5"><a xlink:href="https://github.com/conda-forge/gdal-feedstock" xlink:title="gdal">
<ellipse fill="#fde725" stroke="black" cx="831" cy="-602" rx="32.79" ry="18"/>
<text text-anchor="middle" x="831" y="-597.33" font-family="Times,serif" font-size="14.00">gdal</text>
</a>
</g>
</g>
<!-- ncl -->
<g id="node6" class="node">
<title>ncl</title>
<g id="a_node6"><a xlink:href="https://github.com/conda-forge/ncl-feedstock" xlink:title="ncl">
<ellipse fill="#fde725" stroke="black" cx="1029" cy="-530" rx="27" ry="18"/>
<text text-anchor="middle" x="1029" y="-525.33" font-family="Times,serif" font-size="14.00">ncl</text>
</a>
</g>
</g>
<!-- gdal&#45;&gt;ncl -->
<g id="edge2" class="edge">
<title>gdal&#45;&gt;ncl</title>
<path fill="none" stroke="black" d="M856.67,-590.34C862.05,-588.18 867.69,-585.97 873,-584 914.55,-568.55 962.96,-552.38 994.71,-542.03"/>
<polygon fill="black" stroke="black" points="995.37,-545.17 1003.8,-538.75 993.2,-538.51 995.37,-545.17"/>
</g>
<!-- mapserver -->
<g id="node7" class="node">
<title>mapserver</title>
<g id="a_node7"><a xlink:href="https://github.com/conda-forge/mapserver-feedstock" xlink:title="mapserver">
<ellipse fill="#fde725" stroke="black" cx="842" cy="-530" rx="64.89" ry="18"/>
<text text-anchor="middle" x="842" y="-525.33" font-family="Times,serif" font-size="14.00">mapserver</text>
</a>
</g>
</g>
<!-- gdal&#45;&gt;mapserver -->
<g id="edge3" class="edge">
<title>gdal&#45;&gt;mapserver</title>
<path fill="none" stroke="black" d="M833.72,-583.7C834.89,-576.24 836.29,-567.32 837.6,-558.97"/>
<polygon fill="black" stroke="black" points="841.22,-559.53 839.31,-549.1 834.3,-558.44 841.22,-559.53"/>
</g>
<!-- geotiff -->
<g id="node8" class="node">
<title>geotiff</title>
<g id="a_node8"><a xlink:href="https://github.com/conda-forge/geotiff-feedstock/pull/62" xlink:title="geotiff ❎">
<ellipse fill="#31688e" stroke="black" cx="811" cy="-674" rx="58.57" ry="18"/>
<text text-anchor="middle" x="811" y="-669.33" font-family="Times,serif" font-size="14.00" fill="white">geotiff ❎</text>
</a>
</g>
</g>
<!-- geotiff&#45;&gt;gdal -->
<g id="edge4" class="edge">
<title>geotiff&#45;&gt;gdal</title>
<path fill="none" stroke="black" d="M815.94,-655.7C818.1,-648.15 820.68,-639.12 823.09,-630.68"/>
<polygon fill="black" stroke="black" points="826.73,-631.68 826.11,-621.1 820,-629.76 826.73,-631.68"/>
</g>
<!-- imagemagick -->
<g id="node9" class="node">
<title>imagemagick</title>
<g id="a_node9"><a xlink:href="https://github.com/conda-forge/imagemagick-feedstock" xlink:title="imagemagick">
<ellipse fill="#fde725" stroke="black" cx="1084" cy="-602" rx="77.52" ry="18"/>
<text text-anchor="middle" x="1084" y="-597.33" font-family="Times,serif" font-size="14.00">imagemagick</text>
</a>
</g>
</g>
<!-- imagemagick&#45;&gt;ncl -->
<g id="edge5" class="edge">
<title>imagemagick&#45;&gt;ncl</title>
<path fill="none" stroke="black" d="M1070.69,-584.05C1063.77,-575.26 1055.21,-564.36 1047.65,-554.74"/>
<polygon fill="black" stroke="black" points="1050,-553.06 1041.06,-547.36 1044.49,-557.38 1050,-553.06"/>
</g>
<!-- libvips -->
<g id="node10" class="node">
<title>libvips</title>
<g id="a_node10"><a xlink:href="https://github.com/conda-forge/libvips-feedstock" xlink:title="libvips">
<ellipse fill="#fde725" stroke="black" cx="1139" cy="-530" rx="44.37" ry="18"/>
<text text-anchor="middle" x="1139" y="-525.33" font-family="Times,serif" font-size="14.00">libvips</text>
</a>
</g>
</g>
<!-- imagemagick&#45;&gt;libvips -->
<g id="edge6" class="edge">
<title>imagemagick&#45;&gt;libvips</title>
<path fill="none" stroke="black" d="M1097.31,-584.05C1103.96,-575.59 1112.14,-565.19 1119.48,-555.84"/>
<polygon fill="black" stroke="black" points="1122.76,-558.33 1126.19,-548.31 1117.26,-554.01 1122.76,-558.33"/>
</g>
<!-- imread -->
<g id="node11" class="node">
<title>imread</title>
<g id="a_node11"><a xlink:href="https://github.com/conda-forge/imread-feedstock" xlink:title="imread">
<ellipse fill="#fde725" stroke="black" cx="1507" cy="-674" rx="46.47" ry="18"/>
<text text-anchor="middle" x="1507" y="-669.33" font-family="Times,serif" font-size="14.00">imread</text>
</a>
</g>
</g>
<!-- libgd -->
<g id="node12" class="node">
<title>libgd</title>
<g id="a_node12"><a xlink:href="https://github.com/conda-forge/libgd-feedstock" xlink:title="libgd">
<ellipse fill="#fde725" stroke="black" cx="1148" cy="-674" rx="36.48" ry="18"/>
<text text-anchor="middle" x="1148" y="-669.33" font-family="Times,serif" font-size="14.00">libgd</text>
</a>
</g>
</g>
<!-- libgd&#45;&gt;imagemagick -->
<g id="edge7" class="edge">
<title>libgd&#45;&gt;imagemagick</title>
<path fill="none" stroke="black" d="M1133.48,-657.12C1125.52,-648.42 1115.49,-637.45 1106.55,-627.66"/>
<polygon fill="black" stroke="black" points="1109.69,-625.82 1100.36,-620.8 1104.52,-630.54 1109.69,-625.82"/>
</g>
<!-- graphicsmagick -->
<g id="node13" class="node">
<title>graphicsmagick</title>
<g id="a_node13"><a xlink:href="https://github.com/conda-forge/graphicsmagick-feedstock" xlink:title="graphicsmagick">
<ellipse fill="#fde725" stroke="black" cx="1270" cy="-602" rx="90.14" ry="18"/>
<text text-anchor="middle" x="1270" y="-597.33" font-family="Times,serif" font-size="14.00">graphicsmagick</text>
</a>
</g>
</g>
<!-- libgd&#45;&gt;graphicsmagick -->
<g id="edge8" class="edge">
<title>libgd&#45;&gt;graphicsmagick</title>
<path fill="none" stroke="black" d="M1171.23,-659.67C1188.34,-649.85 1211.99,-636.28 1231.86,-624.88"/>
<polygon fill="black" stroke="black" points="1233.33,-627.5 1240.26,-619.49 1229.85,-621.43 1233.33,-627.5"/>
</g>
<!-- xfig -->
<g id="node23" class="node">
<title>xfig</title>
<g id="a_node23"><a xlink:href="https://github.com/conda-forge/xfig-feedstock/pull/8" xlink:title="xfig ✓">
<ellipse fill="#31688e" stroke="black" cx="2554" cy="-710" rx="37.53" ry="18"/>
<text text-anchor="middle" x="2554" y="-705.33" font-family="Times,serif" font-size="14.00" fill="white">xfig ✓</text>
</a>
</g>
</g>
<!-- openmotif&#45;&gt;xfig -->
<!-- opencv -->
<g id="node15" class="node">
<title>opencv</title>
<g id="a_node15"><a xlink:href="https://github.com/conda-forge/opencv-feedstock" xlink:title="opencv">
<ellipse fill="#fde725" stroke="black" cx="231" cy="-674" rx="46.47" ry="18"/>
<text text-anchor="middle" x="231" y="-669.33" font-family="Times,serif" font-size="14.00">opencv</text>
</a>
</g>
</g>
<!-- yarp -->
<g id="node16" class="node">
<title>yarp</title>
<g id="a_node16"><a xlink:href="https://github.com/conda-forge/yarp-feedstock" xlink:title="yarp">
<ellipse fill="#fde725" stroke="black" cx="147" cy="-602" rx="33.85" ry="18"/>
<text text-anchor="middle" x="147" y="-597.33" font-family="Times,serif" font-size="14.00">yarp</text>
</a>
</g>
</g>
<!-- opencv&#45;&gt;yarp -->
<g id="edge10" class="edge">
<title>opencv&#45;&gt;yarp</title>
<path fill="none" stroke="black" d="M211.94,-657.12C200.38,-647.48 185.47,-635.06 172.85,-624.54"/>
<polygon fill="black" stroke="black" points="175.48,-621.34 165.55,-617.63 170.99,-626.72 175.48,-621.34"/>
</g>
<!-- visp -->
<g id="node17" class="node">
<title>visp</title>
<g id="a_node17"><a xlink:href="https://github.com/conda-forge/visp-feedstock" xlink:title="visp">
<ellipse fill="#fde725" stroke="black" cx="231" cy="-602" rx="31.74" ry="18"/>
<text text-anchor="middle" x="231" y="-597.33" font-family="Times,serif" font-size="14.00">visp</text>
</a>
</g>
</g>
<!-- opencv&#45;&gt;visp -->
<g id="edge11" class="edge">
<title>opencv&#45;&gt;visp</title>
<path fill="none" stroke="black" d="M231,-655.7C231,-648.24 231,-639.32 231,-630.97"/>
<polygon fill="black" stroke="black" points="234.5,-631.1 231,-621.1 227.5,-631.1 234.5,-631.1"/>
</g>
<!-- openjdk -->
<g id="node18" class="node">
<title>openjdk</title>
<g id="a_node18"><a xlink:href="https://github.com/conda-forge/openjdk-feedstock" xlink:title="openjdk">
<ellipse fill="#fde725" stroke="black" cx="2248" cy="-674" rx="50.68" ry="18"/>
<text text-anchor="middle" x="2248" y="-669.33" font-family="Times,serif" font-size="14.00">openjdk</text>
</a>
</g>
</g>
<!-- tensorflow -->
<g id="node19" class="node">
<title>tensorflow</title>
<g id="a_node19"><a xlink:href="https://github.com/conda-forge/tensorflow-feedstock" xlink:title="tensorflow">
<ellipse fill="#fde725" stroke="black" cx="2274" cy="-602" rx="63.84" ry="18"/>
<text text-anchor="middle" x="2274" y="-597.33" font-family="Times,serif" font-size="14.00">tensorflow</text>
</a>
</g>
</g>
<!-- openjdk&#45;&gt;tensorflow -->
<g id="edge12" class="edge">
<title>openjdk&#45;&gt;tensorflow</title>
<path fill="none" stroke="black" d="M2254.43,-655.7C2257.26,-648.07 2260.66,-638.92 2263.82,-630.4"/>
<polygon fill="black" stroke="black" points="2267.45,-631.7 2267.65,-621.1 2260.88,-629.26 2267.45,-631.7"/>
</g>
<!-- swi&#45;prolog -->
<g id="node20" class="node">
<title>swi&#45;prolog</title>
<g id="a_node20"><a xlink:href="https://github.com/conda-forge/swi-prolog-feedstock" xlink:title="swi prolog">
<ellipse fill="#fde725" stroke="black" cx="2278" cy="-530" rx="63.31" ry="18"/>
<text text-anchor="middle" x="2278" y="-525.33" font-family="Times,serif" font-size="14.00">swi prolog</text>
</a>
</g>
</g>
<!-- openjdk&#45;&gt;swi&#45;prolog -->
<g id="edge13" class="edge">
<title>openjdk&#45;&gt;swi&#45;prolog</title>
<path fill="none" stroke="black" d="M2287.88,-662.56C2309.43,-654.66 2334.18,-641.41 2347,-620 2355.22,-606.27 2354.07,-598.35 2347,-584 2340.56,-570.94 2329.18,-560.19 2317.5,-551.88"/>
<polygon fill="black" stroke="black" points="2319.86,-548.58 2309.59,-545.99 2316,-554.42 2319.86,-548.58"/>
</g>
<!-- libpano13 -->
<g id="node21" class="node">
<title>libpano13</title>
<g id="a_node21"><a xlink:href="https://github.com/conda-forge/libpano13-feedstock" xlink:title="libpano13">
<ellipse fill="#fde725" stroke="black" cx="2233" cy="-458" rx="60.68" ry="18"/>
<text text-anchor="middle" x="2233" y="-453.32" font-family="Times,serif" font-size="14.00">libpano13</text>
</a>
</g>
</g>
<!-- openjdk&#45;&gt;libpano13 -->
<g id="edge14" class="edge">
<title>openjdk&#45;&gt;libpano13</title>
<path fill="none" stroke="black" d="M2228.2,-657.09C2217.97,-647.55 2206.5,-634.49 2201,-620 2194.88,-603.87 2201.5,-528.24 2206,-512 2208.51,-502.94 2212.64,-493.63 2216.94,-485.38"/>
<polygon fill="black" stroke="black" points="2220.38,-487.39 2222.15,-476.95 2214.25,-484.01 2220.38,-487.39"/>
</g>
<!-- hugin -->
<g id="node22" class="node">
<title>hugin</title>
<g id="a_node22"><a xlink:href="https://github.com/conda-forge/hugin-feedstock" xlink:title="hugin">
<ellipse fill="#fde725" stroke="black" cx="2277" cy="-386" rx="39.63" ry="18"/>
<text text-anchor="middle" x="2277" y="-381.32" font-family="Times,serif" font-size="14.00">hugin</text>
</a>
</g>
</g>
<!-- libpano13&#45;&gt;hugin -->
<g id="edge15" class="edge">
<title>libpano13&#45;&gt;hugin</title>
<path fill="none" stroke="black" d="M2243.65,-440.05C2248.78,-431.89 2255.05,-421.91 2260.77,-412.82"/>
<polygon fill="black" stroke="black" points="2264.09,-415.12 2266.45,-404.79 2258.16,-411.39 2264.09,-415.12"/>
</g>
<!-- u3d -->
<g id="node42" class="node">
<title>u3d</title>
<g id="a_node42"><a xlink:href="https://github.com/conda-forge/u3d-feedstock/pull/25" xlink:title="u3d ✓">
<ellipse fill="#31688e" stroke="black" cx="2554" cy="-638" rx="38.06" ry="18"/>
<text text-anchor="middle" x="2554" y="-633.33" font-family="Times,serif" font-size="14.00" fill="white">u3d ✓</text>
</a>
</g>
</g>
<!-- xfig&#45;&gt;u3d -->
<!-- paraview -->
<g id="node24" class="node">
<title>paraview</title>
<g id="a_node24"><a xlink:href="https://github.com/conda-forge/paraview-feedstock" xlink:title="paraview">
<ellipse fill="#fde725" stroke="black" cx="1435" cy="-602" rx="57" ry="18"/>
<text text-anchor="middle" x="1435" y="-597.33" font-family="Times,serif" font-size="14.00">paraview</text>
</a>
</g>
</g>
<!-- pillow -->
<g id="node25" class="node">
<title>pillow</title>
<g id="a_node25"><a xlink:href="https://github.com/conda-forge/pillow-feedstock" xlink:title="pillow">
<ellipse fill="#fde725" stroke="black" cx="1819" cy="-674" rx="41.21" ry="18"/>
<text text-anchor="middle" x="1819" y="-669.33" font-family="Times,serif" font-size="14.00">pillow</text>
</a>
</g>
</g>
<!-- pillow&#45;&gt;dlib -->
<g id="edge17" class="edge">
<title>pillow&#45;&gt;dlib</title>
<path fill="none" stroke="black" d="M1812.22,-656.05C1809.09,-648.23 1805.3,-638.75 1801.79,-629.98"/>
<polygon fill="black" stroke="black" points="1804.68,-628.77 1797.71,-620.79 1798.18,-631.37 1804.68,-628.77"/>
</g>
<!-- pillow&#45;&gt;paraview -->
<g id="edge18" class="edge">
<title>pillow&#45;&gt;paraview</title>
<path fill="none" stroke="black" d="M1787.95,-661.74C1781.42,-659.63 1774.53,-657.59 1768,-656 1667.9,-631.63 1640.73,-636.31 1539,-620 1524.89,-617.74 1509.71,-615.27 1495.43,-612.94"/>
<polygon fill="black" stroke="black" points="1496.15,-609.35 1485.72,-611.19 1495.02,-616.26 1496.15,-609.35"/>
</g>
<!-- torchvision -->
<g id="node26" class="node">
<title>torchvision</title>
<g id="a_node26"><a xlink:href="https://github.com/conda-forge/torchvision-feedstock" xlink:title="torchvision">
<ellipse fill="#fde725" stroke="black" cx="1926" cy="-530" rx="66.99" ry="18"/>
<text text-anchor="middle" x="1926" y="-525.33" font-family="Times,serif" font-size="14.00">torchvision</text>
</a>
</g>
</g>
<!-- pillow&#45;&gt;torchvision -->
<g id="edge19" class="edge">
<title>pillow&#45;&gt;torchvision</title>
<path fill="none" stroke="black" d="M1832.81,-657.02C1841.65,-646.64 1853.24,-632.71 1863,-620 1878.99,-599.15 1896.17,-574.75 1908.53,-556.77"/>
<polygon fill="black" stroke="black" points="1911.77,-559.24 1914.53,-549.01 1906,-555.28 1911.77,-559.24"/>
</g>
<!-- wxpython -->
<g id="node27" class="node">
<title>wxpython</title>
<g id="a_node27"><a xlink:href="https://github.com/conda-forge/wxpython-feedstock" xlink:title="wxpython">
<ellipse fill="#fde725" stroke="black" cx="2021" cy="-458" rx="60.15" ry="18"/>
<text text-anchor="middle" x="2021" y="-453.32" font-family="Times,serif" font-size="14.00">wxpython</text>
</a>
</g>
</g>
<!-- pillow&#45;&gt;wxpython -->
<g id="edge20" class="edge">
<title>pillow&#45;&gt;wxpython</title>
<path fill="none" stroke="black" d="M1848.64,-661.25C1889.86,-643.3 1963.74,-605.03 2002,-548 2014.1,-529.96 2018.68,-505.63 2020.33,-486.97"/>
<polygon fill="black" stroke="black" points="2023.88,-487.39 2021.02,-477.19 2016.89,-486.95 2023.88,-487.39"/>
</g>
<!-- lammps -->
<g id="node28" class="node">
<title>lammps</title>
<g id="a_node28"><a xlink:href="https://github.com/conda-forge/lammps-feedstock" xlink:title="lammps">
<ellipse fill="#fde725" stroke="black" cx="1831" cy="-386" rx="50.68" ry="18"/>
<text text-anchor="middle" x="1831" y="-381.32" font-family="Times,serif" font-size="14.00">lammps</text>
</a>
</g>
</g>
<!-- pillow&#45;&gt;lammps -->
<g id="edge21" class="edge">
<title>pillow&#45;&gt;lammps</title>
<path fill="none" stroke="black" d="M1823.44,-655.95C1825.91,-645.63 1828.73,-632.15 1830,-620 1837.71,-546.48 1834.92,-459.19 1832.69,-415.26"/>
<polygon fill="black" stroke="black" points="1836.14,-415.11 1832.1,-405.31 1829.15,-415.48 1836.14,-415.11"/>
</g>
<!-- panda3d -->
<g id="node29" class="node">
<title>panda3d</title>
<g id="a_node29"><a xlink:href="https://github.com/conda-forge/panda3d-feedstock" xlink:title="panda3d">
<ellipse fill="#fde725" stroke="black" cx="1688" cy="-602" rx="54.36" ry="18"/>
<text text-anchor="middle" x="1688" y="-597.33" font-family="Times,serif" font-size="14.00">panda3d</text>
</a>
</g>
</g>
<!-- pillow&#45;&gt;panda3d -->
<g id="edge22" class="edge">
<title>pillow&#45;&gt;panda3d</title>
<path fill="none" stroke="black" d="M1793.74,-659.5C1774.4,-649.17 1747.41,-634.75 1725.54,-623.06"/>
<polygon fill="black" stroke="black" points="1727.37,-619.54 1716.9,-617.91 1724.07,-625.71 1727.37,-619.54"/>
</g>
<!-- xpra -->
<g id="node30" class="node">
<title>xpra</title>
<g id="a_node30"><a xlink:href="https://github.com/conda-forge/xpra-feedstock" xlink:title="xpra">
<ellipse fill="#fde725" stroke="black" cx="1582" cy="-602" rx="33.85" ry="18"/>
<text text-anchor="middle" x="1582" y="-597.33" font-family="Times,serif" font-size="14.00">xpra</text>
</a>
</g>
</g>
<!-- pillow&#45;&gt;xpra -->
<g id="edge23" class="edge">
<title>pillow&#45;&gt;xpra</title>
<path fill="none" stroke="black" d="M1787.28,-662.02C1780.93,-659.93 1774.27,-657.83 1768,-656 1705.09,-637.62 1687.38,-640.09 1625,-620 1622.7,-619.26 1620.35,-618.46 1617.99,-617.62"/>
<polygon fill="black" stroke="black" points="1619.32,-614.01 1608.72,-613.8 1616.87,-620.57 1619.32,-614.01"/>
</g>
<!-- poppler -->
<g id="node31" class="node">
<title>poppler</title>
<g id="a_node31"><a xlink:href="https://github.com/conda-forge/poppler-feedstock" xlink:title="poppler">
<ellipse fill="#fde725" stroke="black" cx="937" cy="-674" rx="49.63" ry="18"/>
<text text-anchor="middle" x="937" y="-669.33" font-family="Times,serif" font-size="14.00">poppler</text>
</a>
</g>
</g>
<!-- poppler&#45;&gt;gdal -->
<g id="edge24" class="edge">
<title>poppler&#45;&gt;gdal</title>
<path fill="none" stroke="black" d="M913.74,-657.64C898,-647.25 877.1,-633.44 860.24,-622.31"/>
<polygon fill="black" stroke="black" points="862.62,-619.03 852.35,-616.44 858.76,-624.87 862.62,-619.03"/>
</g>
<!-- poppler&#45;&gt;libvips -->
<g id="edge25" class="edge">
<title>poppler&#45;&gt;libvips</title>
<path fill="none" stroke="black" d="M944.51,-655.9C954.04,-636.04 972.26,-603.49 997,-584 1023.87,-562.82 1060.08,-549.48 1089.21,-541.49"/>
<polygon fill="black" stroke="black" points="1089.8,-544.69 1098.59,-538.78 1088.03,-537.91 1089.8,-544.69"/>
</g>
<!-- ipe -->
<g id="node32" class="node">
<title>ipe</title>
<g id="a_node32"><a xlink:href="https://github.com/conda-forge/ipe-feedstock" xlink:title="ipe">
<ellipse fill="#fde725" stroke="black" cx="753" cy="-602" rx="27" ry="18"/>
<text text-anchor="middle" x="753" y="-597.33" font-family="Times,serif" font-size="14.00">ipe</text>
</a>
</g>
</g>
<!-- poppler&#45;&gt;ipe -->
<g id="edge26" class="edge">
<title>poppler&#45;&gt;ipe</title>
<path fill="none" stroke="black" d="M901.04,-661.22C870.84,-651.06 826.7,-635.61 789,-620 787.33,-619.31 785.63,-618.58 783.92,-617.83"/>
<polygon fill="black" stroke="black" points="785.72,-614.36 775.17,-613.41 782.83,-620.73 785.72,-614.36"/>
</g>
<!-- sane -->
<g id="node33" class="node">
<title>sane</title>
<g id="a_node33"><a xlink:href="https://github.com/conda-forge/sane-feedstock" xlink:title="sane">
<ellipse fill="#fde725" stroke="black" cx="916" cy="-602" rx="34.37" ry="18"/>
<text text-anchor="middle" x="916" y="-597.33" font-family="Times,serif" font-size="14.00">sane</text>
</a>
</g>
</g>
<!-- poppler&#45;&gt;sane -->
<g id="edge27" class="edge">
<title>poppler&#45;&gt;sane</title>
<path fill="none" stroke="black" d="M931.81,-655.7C929.52,-648.07 926.77,-638.92 924.22,-630.4"/>
<polygon fill="black" stroke="black" points="927.36,-629.68 921.13,-621.1 920.65,-631.69 927.36,-629.68"/>
</g>
<!-- r&#45;base -->
<g id="node34" class="node">
<title>r&#45;base</title>
<g id="a_node34"><a xlink:href="https://github.com/conda-forge/r-base-feedstock" xlink:title="r base">
<ellipse fill="#ff8c00" stroke="black" cx="2824" cy="-746" rx="42.26" ry="18"/>
<text text-anchor="middle" x="2824" y="-741.33" font-family="Times,serif" font-size="14.00">r base</text>
</a>
</g>
</g>
<!-- r&#45;cairo -->
<g id="node35" class="node">
<title>r&#45;cairo</title>
<g id="a_node35"><a xlink:href="https://github.com/conda-forge/r-cairo-feedstock" xlink:title="r cairo">
<ellipse fill="#fde725" stroke="black" cx="2699" cy="-674" rx="43.84" ry="18"/>
<text text-anchor="middle" x="2699" y="-669.33" font-family="Times,serif" font-size="14.00">r cairo</text>
</a>
</g>
</g>
<!-- r&#45;base&#45;&gt;r&#45;cairo -->
<g id="edge28" class="edge">
<title>r&#45;base&#45;&gt;r&#45;cairo</title>
<path fill="none" stroke="black" d="M2799,-731C2780.18,-720.46 2754.16,-705.89 2733.38,-694.25"/>
<polygon fill="black" stroke="black" points="2735.39,-690.81 2724.95,-688.97 2731.97,-696.91 2735.39,-690.81"/>
</g>
<!-- r&#45;jpeg -->
<g id="node36" class="node">
<title>r&#45;jpeg</title>
<g id="a_node36"><a xlink:href="https://github.com/conda-forge/r-jpeg-feedstock" xlink:title="r jpeg">
<ellipse fill="#fde725" stroke="black" cx="2755" cy="-602" rx="40.69" ry="18"/>
<text text-anchor="middle" x="2755" y="-597.33" font-family="Times,serif" font-size="14.00">r jpeg</text>
</a>
</g>
</g>
<!-- r&#45;base&#45;&gt;r&#45;jpeg -->
<g id="edge29" class="edge">
<title>r&#45;base&#45;&gt;r&#45;jpeg</title>
<path fill="none" stroke="black" d="M2815.68,-727.87C2803.8,-703.43 2781.89,-658.33 2767.9,-629.55"/>
<polygon fill="black" stroke="black" points="2770.66,-628.21 2763.14,-620.75 2764.36,-631.27 2770.66,-628.21"/>
</g>
<!-- r&#45;qpdf -->
<g id="node37" class="node">
<title>r&#45;qpdf</title>
<g id="a_node37"><a xlink:href="https://github.com/conda-forge/r-qpdf-feedstock" xlink:title="r qpdf">
<ellipse fill="#fde725" stroke="black" cx="2808" cy="-530" rx="41.74" ry="18"/>
<text text-anchor="middle" x="2808" y="-525.33" font-family="Times,serif" font-size="14.00">r qpdf</text>
</a>
</g>
</g>
<!-- r&#45;base&#45;&gt;r&#45;qpdf -->
<g id="edge30" class="edge">
<title>r&#45;base&#45;&gt;r&#45;qpdf</title>
<path fill="none" stroke="black" d="M2822.72,-727.85C2819.96,-690.99 2813.45,-603.92 2810.09,-558.96"/>
<polygon fill="black" stroke="black" points="2813.52,-558.94 2809.29,-549.23 2806.54,-559.47 2813.52,-558.94"/>
</g>
<!-- r&#45;ragg -->
<g id="node38" class="node">
<title>r&#45;ragg</title>
<g id="a_node38"><a xlink:href="https://github.com/conda-forge/r-ragg-feedstock" xlink:title="r ragg">
<ellipse fill="#fde725" stroke="black" cx="2878" cy="-458" rx="42.26" ry="18"/>
<text text-anchor="middle" x="2878" y="-453.32" font-family="Times,serif" font-size="14.00">r ragg</text>
</a>
</g>
</g>
<!-- r&#45;base&#45;&gt;r&#45;ragg -->
<g id="edge31" class="edge">
<title>r&#45;base&#45;&gt;r&#45;ragg</title>
<path fill="none" stroke="black" d="M2827.22,-727.97C2836.2,-680.39 2861.62,-545.75 2872.71,-487"/>
<polygon fill="black" stroke="black" points="2876.32,-487.78 2874.73,-477.31 2869.44,-486.48 2876.32,-487.78"/>
</g>
<!-- harp -->
<g id="node39" class="node">
<title>harp</title>
<g id="a_node39"><a xlink:href="https://github.com/conda-forge/harp-feedstock" xlink:title="harp">
<ellipse fill="#fde725" stroke="black" cx="2948" cy="-386" rx="34.37" ry="18"/>
<text text-anchor="middle" x="2948" y="-381.32" font-family="Times,serif" font-size="14.00">harp</text>
</a>
</g>
</g>
<!-- r&#45;base&#45;&gt;harp -->
<g id="edge32" class="edge">
<title>r&#45;base&#45;&gt;harp</title>
<path fill="none" stroke="black" d="M2849.09,-731.2C2885.33,-709.21 2948,-662.57 2948,-603 2948,-603 2948,-603 2948,-529 2948,-489.57 2948,-443.97 2948,-415.31"/>
<polygon fill="black" stroke="black" points="2951.5,-415.49 2948,-405.49 2944.5,-415.49 2951.5,-415.49"/>
</g>
<!-- vigra -->
<g id="node40" class="node">
<title>vigra</title>
<g id="a_node40"><a xlink:href="https://github.com/conda-forge/vigra-feedstock" xlink:title="vigra">
<ellipse fill="#ff8c00" stroke="black" cx="2396" cy="-530" rx="37" ry="18"/>
<text text-anchor="middle" x="2396" y="-525.33" font-family="Times,serif" font-size="14.00">vigra</text>
</a>
</g>
</g>
<!-- vigra&#45;&gt;hugin -->
<g id="edge34" class="edge">
<title>vigra&#45;&gt;hugin</title>
<path fill="none" stroke="black" d="M2378.61,-513.74C2367.37,-503.53 2352.72,-489.53 2341,-476 2323.49,-455.78 2305.92,-430.95 2293.64,-412.66"/>
<polygon fill="black" stroke="black" points="2296.17,-411.14 2287.72,-404.74 2290.33,-415.01 2296.17,-411.14"/>
</g>
<!-- enblend -->
<g id="node41" class="node">
<title>enblend</title>
<g id="a_node41"><a xlink:href="https://github.com/conda-forge/enblend-feedstock" xlink:title="enblend">
<ellipse fill="#fde725" stroke="black" cx="2401" cy="-458" rx="51.21" ry="18"/>
<text text-anchor="middle" x="2401" y="-453.32" font-family="Times,serif" font-size="14.00">enblend</text>
</a>
</g>
</g>
<!-- vigra&#45;&gt;enblend -->
<g id="edge33" class="edge">
<title>vigra&#45;&gt;enblend</title>
<path fill="none" stroke="black" d="M2397.24,-511.7C2397.77,-504.24 2398.4,-495.32 2399,-486.97"/>
<polygon fill="black" stroke="black" points="2402.56,-487.33 2399.78,-477.1 2395.57,-486.83 2402.56,-487.33"/>
</g>
<!-- enblend&#45;&gt;hugin -->
<g id="edge35" class="edge">
<title>enblend&#45;&gt;hugin</title>
<path fill="none" stroke="black" d="M2374.7,-442.15C2356.01,-431.6 2330.74,-417.34 2310.59,-405.96"/>
<polygon fill="black" stroke="black" points="2312.58,-402.5 2302.16,-400.64 2309.14,-408.6 2312.58,-402.5"/>
</g>
<!-- qpdf -->
<g id="node43" class="node">
<title>qpdf</title>
<g id="a_node43"><a xlink:href="https://github.com/conda-forge/qpdf-feedstock/pull/35" xlink:title="qpdf ✓">
<ellipse fill="#31688e" stroke="black" cx="2554" cy="-566" rx="41.74" ry="18"/>
<text text-anchor="middle" x="2554" y="-561.33" font-family="Times,serif" font-size="14.00" fill="white">qpdf ✓</text>
</a>
</g>
</g>
<!-- u3d&#45;&gt;qpdf -->
<!-- accimage -->
<g id="node53" class="node">
<title>accimage</title>
<g id="a_node53"><a xlink:href="https://github.com/conda-forge/accimage-feedstock/pull/14" xlink:title="accimage ✓">
<ellipse fill="#31688e" stroke="black" cx="2554" cy="-494" rx="65.94" ry="18"/>
<text text-anchor="middle" x="2554" y="-489.32" font-family="Times,serif" font-size="14.00" fill="white">accimage ✓</text>
</a>
</g>
</g>
<!-- qpdf&#45;&gt;accimage -->
<!-- vtk -->
<g id="node44" class="node">
<title>vtk</title>
<g id="a_node44"><a xlink:href="https://github.com/conda-forge/vtk-feedstock" xlink:title="vtk">
<ellipse fill="#fde725" stroke="black" cx="140" cy="-674" rx="27.01" ry="18"/>
<text text-anchor="middle" x="140" y="-669.33" font-family="Times,serif" font-size="14.00">vtk</text>
</a>
</g>
</g>
<!-- libwebp -->
<g id="node45" class="node">
<title>libwebp</title>
<g id="a_node45"><a xlink:href="https://github.com/conda-forge/libwebp-feedstock" xlink:title="libwebp">
<ellipse fill="#ff8c00" stroke="black" cx="1116" cy="-746" rx="50.68" ry="18"/>
<text text-anchor="middle" x="1116" y="-741.33" font-family="Times,serif" font-size="14.00">libwebp</text>
</a>
</g>
</g>
<!-- libwebp&#45;&gt;imagemagick -->
<g id="edge38" class="edge">
<title>libwebp&#45;&gt;imagemagick</title>
<path fill="none" stroke="black" d="M1111.65,-727.85C1109.06,-717.48 1105.75,-704 1103,-692 1098.33,-671.66 1093.43,-648.62 1089.77,-631.08"/>
<polygon fill="black" stroke="black" points="1093.02,-630.51 1087.56,-621.43 1086.16,-631.93 1093.02,-630.51"/>
</g>
<!-- libwebp&#45;&gt;libvips -->
<g id="edge39" class="edge">
<title>libwebp&#45;&gt;libvips</title>
<path fill="none" stroke="black" d="M1160.81,-737.25C1253.44,-720.22 1460.7,-676.5 1501,-620 1510.29,-606.97 1511.46,-596.11 1501,-584 1462.08,-538.96 1286.1,-531.46 1194.62,-530.68"/>
<polygon fill="black" stroke="black" points="1194.65,-527.17 1184.63,-530.61 1194.61,-534.17 1194.65,-527.17"/>
</g>
<!-- libwebp&#45;&gt;imread -->
<g id="edge40" class="edge">
<title>libwebp&#45;&gt;imread</title>
<path fill="none" stroke="black" d="M1163.47,-739.18C1228.04,-730.86 1346.98,-714.1 1447,-692 1451.58,-690.99 1456.34,-689.83 1461.07,-688.61"/>
<polygon fill="black" stroke="black" points="1461.57,-691.83 1470.32,-685.85 1459.76,-685.07 1461.57,-691.83"/>
</g>
<!-- libwebp&#45;&gt;libgd -->
<g id="edge41" class="edge">
<title>libwebp&#45;&gt;libgd</title>
<path fill="none" stroke="black" d="M1123.75,-728.05C1127.36,-720.14 1131.75,-710.54 1135.8,-701.69"/>
<polygon fill="black" stroke="black" points="1139.35,-703.34 1140.32,-692.79 1132.98,-700.43 1139.35,-703.34"/>
</g>
<!-- libwebp&#45;&gt;graphicsmagick -->
<g id="edge42" class="edge">
<title>libwebp&#45;&gt;graphicsmagick</title>
<path fill="none" stroke="black" d="M1157.75,-735.35C1183.32,-727.51 1215.06,-714.04 1236,-692 1252,-675.16 1260.68,-650.01 1265.25,-630.74"/>
<polygon fill="black" stroke="black" points="1268.84,-631.69 1267.49,-621.18 1261.99,-630.23 1268.84,-631.69"/>
</g>
<!-- libwebp&#45;&gt;opencv -->
<g id="edge43" class="edge">
<title>libwebp&#45;&gt;opencv</title>
<path fill="none" stroke="black" d="M1065.31,-743.61C939.43,-739.73 602.63,-726.67 324,-692 310.25,-690.29 295.45,-687.86 281.79,-685.37"/>
<polygon fill="black" stroke="black" points="282.6,-681.77 272.13,-683.37 281.31,-688.65 282.6,-681.77"/>
</g>
<!-- libwebp&#45;&gt;pillow -->
<g id="edge44" class="edge">
<title>libwebp&#45;&gt;pillow</title>
<path fill="none" stroke="black" d="M1166.89,-745C1277.46,-744.11 1547.4,-737.05 1768,-692 1771.38,-691.31 1774.85,-690.46 1778.32,-689.52"/>
<polygon fill="black" stroke="black" points="1778.99,-692.67 1787.58,-686.46 1777,-685.96 1778.99,-692.67"/>
</g>
<!-- libwebp&#45;&gt;xpra -->
<g id="edge45" class="edge">
<title>libwebp&#45;&gt;xpra</title>
<path fill="none" stroke="black" d="M1166.12,-742.27C1276.48,-735.82 1533.01,-718.15 1562,-692 1578.71,-676.92 1583.03,-651.16 1583.57,-631.22"/>
<polygon fill="black" stroke="black" points="1587.06,-631.26 1583.51,-621.28 1580.06,-631.3 1587.06,-631.26"/>
</g>
<!-- qtwebkit -->
<g id="node46" class="node">
<title>qtwebkit</title>
<g id="a_node46"><a xlink:href="https://github.com/conda-forge/qtwebkit-feedstock" xlink:title="qtwebkit">
<ellipse fill="#fde725" stroke="black" cx="388" cy="-674" rx="55.42" ry="18"/>
<text text-anchor="middle" x="388" y="-669.33" font-family="Times,serif" font-size="14.00">qtwebkit</text>
</a>
</g>
</g>
<!-- libwebp&#45;&gt;qtwebkit -->
<g id="edge46" class="edge">
<title>libwebp&#45;&gt;qtwebkit</title>
<path fill="none" stroke="black" d="M1065.31,-743.98C953.83,-741.09 679.28,-730.33 453,-692 448.35,-691.21 443.54,-690.25 438.74,-689.18"/>
<polygon fill="black" stroke="black" points="439.86,-685.62 429.33,-686.72 438.26,-692.43 439.86,-685.62"/>
</g>
<!-- leptonica -->
<g id="node47" class="node">
<title>leptonica</title>
<g id="a_node47"><a xlink:href="https://github.com/conda-forge/leptonica-feedstock" xlink:title="leptonica">
<ellipse fill="#fde725" stroke="black" cx="613" cy="-602" rx="57" ry="18"/>
<text text-anchor="middle" x="613" y="-597.33" font-family="Times,serif" font-size="14.00">leptonica</text>
</a>
</g>
</g>
<!-- libwebp&#45;&gt;leptonica -->
<g id="edge47" class="edge">
<title>libwebp&#45;&gt;leptonica</title>
<path fill="none" stroke="black" d="M1066,-742.24C971.88,-736.43 772.26,-721.01 710,-692 693.32,-684.23 659.25,-651.02 636.26,-627.45"/>
<polygon fill="black" stroke="black" points="639.11,-625.33 629.64,-620.58 634.08,-630.2 639.11,-625.33"/>
</g>
<!-- tesseract -->
<g id="node48" class="node">
<title>tesseract</title>
<g id="a_node48"><a xlink:href="https://github.com/conda-forge/tesseract-feedstock" xlink:title="tesseract">
<ellipse fill="#fde725" stroke="black" cx="545" cy="-530" rx="57.52" ry="18"/>
<text text-anchor="middle" x="545" y="-525.33" font-family="Times,serif" font-size="14.00">tesseract</text>
</a>
</g>
</g>
<!-- libwebp&#45;&gt;tesseract -->
<g id="edge48" class="edge">
<title>libwebp&#45;&gt;tesseract</title>
<path fill="none" stroke="black" d="M1065.38,-743.31C962.67,-739.18 733.62,-726.33 664,-692 643.98,-682.13 647.33,-668.72 629,-656 596.3,-633.31 569.14,-653.08 547,-620 535.13,-602.26 535.48,-577.76 538.33,-558.95"/>
<polygon fill="black" stroke="black" points="541.91,-559.83 540.28,-549.36 535.02,-558.56 541.91,-559.83"/>
</g>
<!-- sdl_image -->
<g id="node49" class="node">
<title>sdl_image</title>
<g id="a_node49"><a xlink:href="https://github.com/conda-forge/sdl_image-feedstock" xlink:title="sdl_image">
<ellipse fill="#fde725" stroke="black" cx="698" cy="-530" rx="61.2" ry="18"/>
<text text-anchor="middle" x="698" y="-525.33" font-family="Times,serif" font-size="14.00">sdl_image</text>
</a>
</g>
</g>
<!-- libwebp&#45;&gt;sdl_image -->
<g id="edge49" class="edge">
<title>libwebp&#45;&gt;sdl_image</title>
<path fill="none" stroke="black" d="M1065.44,-744.11C975.24,-741.51 791.46,-731.41 743,-692 703.48,-659.86 697,-596.12 696.83,-559.21"/>
<polygon fill="black" stroke="black" points="700.34,-559.29 696.96,-549.24 693.34,-559.2 700.34,-559.29"/>
</g>
<!-- imagecodecs -->
<g id="node50" class="node">
<title>imagecodecs</title>
<g id="a_node50"><a xlink:href="https://github.com/conda-forge/imagecodecs-feedstock" xlink:title="imagecodecs">
<ellipse fill="#fde725" stroke="black" cx="1684" cy="-674" rx="75.41" ry="18"/>
<text text-anchor="middle" x="1684" y="-669.33" font-family="Times,serif" font-size="14.00">imagecodecs</text>
</a>
</g>
</g>
<!-- libwebp&#45;&gt;imagecodecs -->
<g id="edge50" class="edge">
<title>libwebp&#45;&gt;imagecodecs</title>
<path fill="none" stroke="black" d="M1165.12,-740.85C1252.07,-733.21 1438.63,-715.55 1595,-692 1602.29,-690.9 1609.9,-689.63 1617.47,-688.3"/>
<polygon fill="black" stroke="black" points="1617.88,-691.6 1627.09,-686.37 1616.63,-684.71 1617.88,-691.6"/>
</g>
<!-- qt&#45;webengine -->
<g id="node51" class="node">
<title>qt&#45;webengine</title>
<g id="a_node51"><a xlink:href="https://github.com/conda-forge/qt-webengine-feedstock" xlink:title="qt webengine">
<ellipse fill="#fde725" stroke="black" cx="541" cy="-674" rx="79.09" ry="18"/>
<text text-anchor="middle" x="541" y="-669.33" font-family="Times,serif" font-size="14.00">qt webengine</text>
</a>
</g>
</g>
<!-- libwebp&#45;&gt;qt&#45;webengine -->
<g id="edge51" class="edge">
<title>libwebp&#45;&gt;qt&#45;webengine</title>
<path fill="none" stroke="black" d="M1066.93,-740.77C979.62,-732.98 791.64,-715.05 634,-692 626.41,-690.89 618.49,-689.62 610.61,-688.28"/>
<polygon fill="black" stroke="black" points="611.38,-684.69 600.93,-686.43 610.19,-691.59 611.38,-684.69"/>
</g>
<!-- leptonica&#45;&gt;tesseract -->
<g id="edge52" class="edge">
<title>leptonica&#45;&gt;tesseract</title>
<path fill="none" stroke="black" d="M596.88,-584.41C588.42,-575.69 577.88,-564.85 568.52,-555.21"/>
<polygon fill="black" stroke="black" points="571.48,-553.2 562,-548.47 566.46,-558.08 571.48,-553.2"/>
</g>
<!-- imagecodecs&#45;&gt;panda3d -->
<g id="edge53" class="edge">
<title>imagecodecs&#45;&gt;panda3d</title>
<path fill="none" stroke="black" d="M1684.99,-655.7C1685.41,-648.24 1685.92,-639.32 1686.4,-630.97"/>
<polygon fill="black" stroke="black" points="1689.95,-631.29 1687.02,-621.1 1682.96,-630.89 1689.95,-631.29"/>
</g>
<!-- simage -->
<g id="node52" class="node">
<title>simage</title>
<g id="a_node52"><a xlink:href="https://github.com/conda-forge/simage-feedstock" xlink:title="simage">
<ellipse fill="#fde725" stroke="black" cx="47" cy="-602" rx="47" ry="18"/>
<text text-anchor="middle" x="47" y="-597.33" font-family="Times,serif" font-size="14.00">simage</text>
</a>
</g>
</g>
<!-- fitstools -->
<g id="node54" class="node">
<title>fitstools</title>
<g id="a_node54"><a xlink:href="https://github.com/conda-forge/fitstools-feedstock/pull/6" xlink:title="fitstools ❎">
<ellipse fill="#31688e" stroke="black" cx="2554" cy="-422" rx="66.47" ry="18"/>
<text text-anchor="middle" x="2554" y="-417.32" font-family="Times,serif" font-size="14.00" fill="white">fitstools ❎</text>
</a>
</g>
</g>
<!-- accimage&#45;&gt;fitstools -->
<!-- openscenegraph -->
<g id="node55" class="node">
<title>openscenegraph</title>
<g id="a_node55"><a xlink:href="https://github.com/conda-forge/openscenegraph-feedstock" xlink:title="openscenegraph">
<ellipse fill="#ff8c00" stroke="black" cx="2554" cy="-350" rx="93.3" ry="18"/>
<text text-anchor="middle" x="2554" y="-345.32" font-family="Times,serif" font-size="14.00">openscenegraph</text>
</a>
</g>
</g>
<!-- fitstools&#45;&gt;openscenegraph -->
<!-- vscode&#45;python -->
<g id="node58" class="node">
<title>vscode&#45;python</title>
<g id="a_node58"><a xlink:href="https://github.com/conda-forge/vscode-python-feedstock" xlink:title="vscode python">
<ellipse fill="#ff8c00" stroke="black" cx="2554" cy="-278" rx="83.3" ry="18"/>
<text text-anchor="middle" x="2554" y="-273.32" font-family="Times,serif" font-size="14.00">vscode python</text>
</a>
</g>
</g>
<!-- openscenegraph&#45;&gt;vscode&#45;python -->
<!-- lcms2 -->
<g id="node56" class="node">
<title>lcms2</title>
<g id="a_node56"><a xlink:href="https://github.com/conda-forge/lcms2-feedstock" xlink:title="lcms2">
<ellipse fill="#ff8c00" stroke="black" cx="1971" cy="-746" rx="40.69" ry="18"/>
<text text-anchor="middle" x="1971" y="-741.33" font-family="Times,serif" font-size="14.00">lcms2</text>
</a>
</g>
</g>
<!-- lcms2&#45;&gt;libvips -->
<g id="edge57" class="edge">
<title>lcms2&#45;&gt;libvips</title>
<path fill="none" stroke="black" d="M1962.13,-727.98C1943.18,-693.65 1895.12,-616.59 1830,-584 1773.69,-555.82 1347.37,-538.28 1193.86,-532.83"/>
<polygon fill="black" stroke="black" points="1194.41,-529.31 1184.29,-532.46 1194.16,-536.31 1194.41,-529.31"/>
</g>
<!-- lcms2&#45;&gt;openjdk -->
<g id="edge58" class="edge">
<title>lcms2&#45;&gt;openjdk</title>
<path fill="none" stroke="black" d="M2005.8,-736.21C2054.12,-723.99 2141.86,-701.82 2197.41,-687.78"/>
<polygon fill="black" stroke="black" points="2197.9,-691.02 2206.74,-685.17 2196.18,-684.23 2197.9,-691.02"/>
</g>
<!-- lcms2&#45;&gt;hugin -->
<g id="edge62" class="edge">
<title>lcms2&#45;&gt;hugin</title>
<path fill="none" stroke="black" d="M2003.54,-734.88C2053.65,-717.03 2144,-674.88 2144,-603 2144,-603 2144,-603 2144,-529 2144,-488.55 2137.79,-471.63 2163,-440 2180,-418.67 2207.58,-405.53 2231.36,-397.67"/>
<polygon fill="black" stroke="black" points="2232.08,-400.8 2240.61,-394.52 2230.03,-394.11 2232.08,-400.8"/>
</g>
<!-- lcms2&#45;&gt;pillow -->
<g id="edge59" class="edge">
<title>lcms2&#45;&gt;pillow</title>
<path fill="none" stroke="black" d="M1943.47,-732.32C1919.12,-721.11 1883.38,-704.65 1856.43,-692.24"/>
<polygon fill="black" stroke="black" points="1858.12,-688.7 1847.58,-687.7 1855.2,-695.06 1858.12,-688.7"/>
</g>
<!-- lcms2&#45;&gt;poppler -->
<g id="edge60" class="edge">
<title>lcms2&#45;&gt;poppler</title>
<path fill="none" stroke="black" d="M1930.72,-743.13C1807.01,-737.26 1421.63,-718.03 1103,-692 1066.97,-689.06 1026.62,-684.94 994.73,-681.5"/>
<polygon fill="black" stroke="black" points="995.14,-677.92 984.82,-680.31 994.38,-684.87 995.14,-677.92"/>
</g>
<!-- lcms2&#45;&gt;enblend -->
<g id="edge61" class="edge">
<title>lcms2&#45;&gt;enblend</title>
<path fill="none" stroke="black" d="M2011.2,-741.97C2089.03,-735.59 2257.14,-719.04 2308,-692 2385.19,-650.96 2410,-629.36 2442,-548 2447.86,-533.11 2447.17,-527.14 2442,-512 2438.48,-501.71 2432.06,-491.86 2425.33,-483.51"/>
<polygon fill="black" stroke="black" points="2427.5,-481.67 2418.31,-476.39 2422.21,-486.24 2427.5,-481.67"/>
</g>
<!-- lcms2&#45;&gt;imagecodecs -->
<g id="edge63" class="edge">
<title>lcms2&#45;&gt;imagecodecs</title>
<path fill="none" stroke="black" d="M1935.81,-736.42C1888.6,-724.9 1804.01,-704.27 1746,-690.12"/>
<polygon fill="black" stroke="black" points="1747.04,-686.53 1736.5,-687.56 1745.38,-693.33 1747.04,-686.53"/>
</g>
<!-- libraw -->
<g id="node57" class="node">
<title>libraw</title>
<g id="a_node57"><a xlink:href="https://github.com/conda-forge/libraw-feedstock" xlink:title="libraw">
<ellipse fill="#fde725" stroke="black" cx="2013" cy="-674" rx="42.79" ry="18"/>
<text text-anchor="middle" x="2013" y="-669.33" font-family="Times,serif" font-size="14.00">libraw</text>
</a>
</g>
</g>
<!-- lcms2&#45;&gt;libraw -->
<g id="edge64" class="edge">
<title>lcms2&#45;&gt;libraw</title>
<path fill="none" stroke="black" d="M1980.95,-728.41C1985.8,-720.34 1991.74,-710.43 1997.19,-701.35"/>
<polygon fill="black" stroke="black" points="2000.68,-703.33 2002.83,-692.96 1994.68,-699.73 2000.68,-703.33"/>
</g>
<!-- libraw&#45;&gt;freeimage -->
<g id="edge65" class="edge">
<title>libraw&#45;&gt;freeimage</title>
<path fill="none" stroke="black" d="M2022.92,-656.05C2027.66,-647.97 2033.43,-638.12 2038.71,-629.11"/>
<polygon fill="black" stroke="black" points="2042.13,-631.19 2044.17,-620.79 2036.09,-627.65 2042.13,-631.19"/>
</g>
<!-- podofo -->
<g id="node59" class="node">
<title>podofo</title>
<g id="a_node59"><a xlink:href="https://github.com/conda-forge/podofo-feedstock" xlink:title="podofo">
<ellipse fill="#ff8c00" stroke="black" cx="2554" cy="-206" rx="44.9" ry="18"/>
<text text-anchor="middle" x="2554" y="-201.32" font-family="Times,serif" font-size="14.00">podofo</text>
</a>
</g>
</g>
<!-- vscode&#45;python&#45;&gt;podofo -->
<!-- djvulibre -->
<g id="node60" class="node">
<title>djvulibre</title>
<g id="a_node60"><a xlink:href="https://github.com/conda-forge/djvulibre-feedstock" xlink:title="djvulibre">
<ellipse fill="#ff8c00" stroke="black" cx="1227" cy="-162" rx="55.94" ry="18"/>
<text text-anchor="middle" x="1227" y="-157.32" font-family="Times,serif" font-size="14.00">djvulibre</text>
</a>
</g>
</g>
<!-- pdfmm -->
<g id="node61" class="node">
<title>pdfmm</title>
<g id="a_node61"><a xlink:href="https://github.com/conda-forge/pdfmm-feedstock" xlink:title="pdfmm">
<ellipse fill="#ff8c00" stroke="black" cx="1227" cy="-90" rx="46.47" ry="18"/>
<text text-anchor="middle" x="1227" y="-85.33" font-family="Times,serif" font-size="14.00">pdfmm</text>
</a>
</g>
</g>
<!-- djvulibre&#45;&gt;pdfmm -->
<!-- libjxl&#45;split -->
<g id="node63" class="node">
<title>libjxl&#45;split</title>
<g id="a_node63"><a xlink:href="https://github.com/conda-forge/libjxl-split-feedstock/pull/7" xlink:title="libjxl split ✓">
<ellipse fill="#31688e" stroke="black" cx="1227" cy="-18" rx="69.1" ry="18"/>
<text text-anchor="middle" x="1227" y="-13.32" font-family="Times,serif" font-size="14.00" fill="white">libjxl split ✓</text>
</a>
</g>
</g>
<!-- pdfmm&#45;&gt;libjxl&#45;split -->
<!-- qt&#45;main -->
<g id="node62" class="node">
<title>qt&#45;main</title>
<g id="a_node62"><a xlink:href="https://github.com/conda-forge/qt-main-feedstock/pull/195" xlink:title="qt main ❎">
<ellipse fill="#31688e" stroke="black" cx="347" cy="-746" rx="64.89" ry="18"/>
<text text-anchor="middle" x="347" y="-741.33" font-family="Times,serif" font-size="14.00" fill="white">qt main ❎</text>
</a>
</g>
</g>
<!-- qt&#45;main&#45;&gt;graphicsmagick -->
<g id="edge69" class="edge">
<title>qt&#45;main&#45;&gt;graphicsmagick</title>
<path fill="none" stroke="black" d="M411.76,-743.82C597.59,-740.02 1123.69,-726.34 1193,-692 1220.34,-678.45 1241.99,-650.42 1255.28,-629.42"/>
<polygon fill="black" stroke="black" points="1258.76,-631.42 1260.95,-621.05 1252.78,-627.79 1258.76,-631.42"/>
</g>
<!-- qt&#45;main&#45;&gt;opencv -->
<g id="edge70" class="edge">
<title>qt&#45;main&#45;&gt;opencv</title>
<path fill="none" stroke="black" d="M320.68,-729.12C303.94,-719.02 282.13,-705.86 264.21,-695.04"/>
<polygon fill="black" stroke="black" points="266.61,-691.8 256.24,-689.63 262.99,-697.79 266.61,-691.8"/>
</g>
<!-- qt&#45;main&#45;&gt;yarp -->
<g id="edge71" class="edge">
<title>qt&#45;main&#45;&gt;yarp</title>
<path fill="none" stroke="black" d="M285.18,-740.19C220.83,-733.74 126.34,-719.74 104,-692 87.87,-671.98 105.35,-644.9 122.62,-625.89"/>
<polygon fill="black" stroke="black" points="124.77,-628.67 129.17,-619.03 119.72,-623.82 124.77,-628.67"/>
</g>
<!-- qt&#45;main&#45;&gt;paraview -->
<g id="edge72" class="edge">
<title>qt&#45;main&#45;&gt;paraview</title>
<path fill="none" stroke="black" d="M411.95,-743.99C588.26,-740.79 1072.95,-728.81 1228,-692 1290.45,-677.17 1357.89,-644.79 1398.27,-623.44"/>
<polygon fill="black" stroke="black" points="1399.76,-626.08 1406.93,-618.27 1396.46,-619.91 1399.76,-626.08"/>
</g>
<!-- qt&#45;main&#45;&gt;poppler -->
<g id="edge73" class="edge">
<title>qt&#45;main&#45;&gt;poppler</title>
<path fill="none" stroke="black" d="M411.02,-742.46C511.51,-737.62 712.04,-724.49 879,-692 882.66,-691.29 886.43,-690.44 890.2,-689.52"/>
<polygon fill="black" stroke="black" points="890.96,-692.68 899.74,-686.75 889.18,-685.91 890.96,-692.68"/>
</g>
<!-- qt&#45;main&#45;&gt;ipe -->
<g id="edge74" class="edge">
<title>qt&#45;main&#45;&gt;ipe</title>
<path fill="none" stroke="black" d="M334.57,-728.08C321.73,-708.39 305.92,-676.01 324,-656 377.16,-597.17 600.76,-632.9 679,-620 691.65,-617.91 705.36,-614.96 717.51,-612.1"/>
<polygon fill="black" stroke="black" points="718.25,-615.28 727.15,-609.52 716.61,-608.47 718.25,-615.28"/>
</g>
<!-- qt&#45;main&#45;&gt;vtk -->
<g id="edge75" class="edge">
<title>qt&#45;main&#45;&gt;vtk</title>
<path fill="none" stroke="black" d="M301.4,-732.76C266.6,-722.96 217.71,-708.22 176,-692 174.32,-691.35 172.6,-690.65 170.88,-689.92"/>
<polygon fill="black" stroke="black" points="172.66,-686.44 162.1,-685.57 169.82,-692.83 172.66,-686.44"/>
</g>
<!-- qt&#45;main&#45;&gt;qtwebkit -->
<g id="edge76" class="edge">
<title>qt&#45;main&#45;&gt;qtwebkit</title>
<path fill="none" stroke="black" d="M356.92,-728.05C361.66,-719.97 367.43,-710.12 372.71,-701.11"/>
<polygon fill="black" stroke="black" points="376.13,-703.19 378.17,-692.79 370.09,-699.65 376.13,-703.19"/>
</g>
<!-- qt&#45;main&#45;&gt;qt&#45;webengine -->
<g id="edge77" class="edge">
<title>qt&#45;main&#45;&gt;qt&#45;webengine</title>
<path fill="none" stroke="black" d="M385.33,-731.17C415.22,-720.38 457.02,-705.3 489.78,-693.48"/>
<polygon fill="black" stroke="black" points="490.85,-696.45 499.07,-689.77 488.48,-689.87 490.85,-696.45"/>
</g>
<!-- qt&#45;main&#45;&gt;simage -->
<g id="edge78" class="edge">
<title>qt&#45;main&#45;&gt;simage</title>
<path fill="none" stroke="black" d="M287.38,-738.41C222.47,-730.23 123.93,-714.55 94,-692 73.98,-676.92 61.64,-650.8 54.66,-630.74"/>
<polygon fill="black" stroke="black" points="57.71,-629.78 51.32,-621.33 51.04,-631.92 57.71,-629.78"/>
</g>
</g>
</svg>
