<?xml version="1.0" encoding="UTF-8" standalone="no"?>
<!DOCTYPE svg PUBLIC "-//W3C//DTD SVG 1.1//EN"
 "http://www.w3.org/Graphics/SVG/1.1/DTD/svg11.dtd">
<!-- Generated by graphviz version 7.1.0 (20230122.1345)
 -->
<!-- Pages: 1 -->
<svg width="1382pt" height="1384pt"
 viewBox="0.00 0.00 1381.50 1384.00" xmlns="http://www.w3.org/2000/svg" xmlns:xlink="http://www.w3.org/1999/xlink">
<g id="graph0" class="graph" transform="scale(1 1) rotate(0) translate(4 1380)">
<polygon fill="white" stroke="none" points="-4,4 -4,-1380 1377.5,-1380 1377.5,4 -4,4"/>
<!-- cdms2 -->
<g id="node1" class="node">
<title>cdms2</title>
<g id="a_node1"><a xlink:href="https://github.com/conda-forge/cdms2-feedstock" xlink:title="cdms2">
<ellipse fill="#fde725" stroke="black" cx="109" cy="-926" rx="41" ry="18"/>
<text text-anchor="middle" x="109" y="-922.3" font-family="Times,serif" font-size="14.00">cdms2</text>
</a>
</g>
</g>
<!-- cdo -->
<g id="node2" class="node">
<title>cdo</title>
<g id="a_node2"><a xlink:href="https://github.com/conda-forge/cdo-feedstock" xlink:title="cdo">
<ellipse fill="#fde725" stroke="black" cx="865" cy="-998" rx="27" ry="18"/>
<text text-anchor="middle" x="865" y="-994.3" font-family="Times,serif" font-size="14.00">cdo</text>
</a>
</g>
</g>
<!-- cdtime -->
<g id="node3" class="node">
<title>cdtime</title>
<g id="a_node3"><a xlink:href="https://github.com/conda-forge/cdtime-feedstock" xlink:title="cdtime">
<ellipse fill="#fde725" stroke="black" cx="179" cy="-998" rx="42.49" ry="18"/>
<text text-anchor="middle" x="179" y="-994.3" font-family="Times,serif" font-size="14.00">cdtime</text>
</a>
</g>
</g>
<!-- cdtime&#45;&gt;cdms2 -->
<g id="edge1" class="edge">
<title>cdtime&#45;&gt;cdms2</title>
<path fill="none" stroke="black" d="M163.12,-981.12C154.17,-972.17 142.81,-960.81 132.81,-950.81"/>
<polygon fill="black" stroke="black" points="135.44,-948.49 125.89,-943.89 130.49,-953.44 135.44,-948.49"/>
</g>
<!-- eccodes -->
<g id="node4" class="node">
<title>eccodes</title>
<g id="a_node4"><a xlink:href="https://github.com/conda-forge/eccodes-feedstock" xlink:title="eccodes">
<ellipse fill="#ff8c00" stroke="black" cx="1087" cy="-1142" rx="47.5" ry="18"/>
<text text-anchor="middle" x="1087" y="-1138.3" font-family="Times,serif" font-size="14.00">eccodes</text>
</a>
</g>
</g>
<!-- eccodes&#45;&gt;cdo -->
<g id="edge2" class="edge">
<title>eccodes&#45;&gt;cdo</title>
<path fill="none" stroke="black" d="M1040.55,-1137.45C977.97,-1131.6 871.68,-1117.5 848,-1088 833.86,-1070.38 840.93,-1044.52 849.87,-1025.21"/>
<polygon fill="black" stroke="black" points="852.97,-1026.83 854.37,-1016.33 846.73,-1023.67 852.97,-1026.83"/>
</g>
<!-- magics -->
<g id="node5" class="node">
<title>magics</title>
<g id="a_node5"><a xlink:href="https://github.com/conda-forge/magics-feedstock" xlink:title="magics">
<ellipse fill="#fde725" stroke="black" cx="901" cy="-1070" rx="43.59" ry="18"/>
<text text-anchor="middle" x="901" y="-1066.3" font-family="Times,serif" font-size="14.00">magics</text>
</a>
</g>
</g>
<!-- eccodes&#45;&gt;magics -->
<g id="edge3" class="edge">
<title>eccodes&#45;&gt;magics</title>
<path fill="none" stroke="black" d="M1054.18,-1128.65C1023.21,-1116.99 976.66,-1099.47 943,-1086.81"/>
<polygon fill="black" stroke="black" points="944.57,-1083.66 933.98,-1083.41 942.11,-1090.21 944.57,-1083.66"/>
</g>
<!-- metview -->
<g id="node6" class="node">
<title>metview</title>
<g id="a_node6"><a xlink:href="https://github.com/conda-forge/metview-feedstock" xlink:title="metview">
<ellipse fill="#fde725" stroke="black" cx="973" cy="-926" rx="50.09" ry="18"/>
<text text-anchor="middle" x="973" y="-922.3" font-family="Times,serif" font-size="14.00">metview</text>
</a>
</g>
</g>
<!-- eccodes&#45;&gt;metview -->
<g id="edge4" class="edge">
<title>eccodes&#45;&gt;metview</title>
<path fill="none" stroke="black" d="M1070.83,-1124.78C1049.4,-1102.33 1012,-1059.6 992,-1016 983.23,-996.89 978.45,-973.6 975.87,-955.64"/>
<polygon fill="black" stroke="black" points="979.37,-955.42 974.64,-945.94 972.43,-956.3 979.37,-955.42"/>
</g>
<!-- magics&#45;metview -->
<g id="node7" class="node">
<title>magics&#45;metview</title>
<g id="a_node7"><a xlink:href="https://github.com/conda-forge/magics-metview-feedstock" xlink:title="magics metview">
<ellipse fill="#fde725" stroke="black" cx="1087" cy="-998" rx="86" ry="18"/>
<text text-anchor="middle" x="1087" y="-994.3" font-family="Times,serif" font-size="14.00">magics metview</text>
</a>
</g>
</g>
<!-- eccodes&#45;&gt;magics&#45;metview -->
<g id="edge5" class="edge">
<title>eccodes&#45;&gt;magics&#45;metview</title>
<path fill="none" stroke="black" d="M1087,-1123.59C1087,-1099.61 1087,-1056.14 1087,-1027.42"/>
<polygon fill="black" stroke="black" points="1090.5,-1027.62 1087,-1017.62 1083.5,-1027.62 1090.5,-1027.62"/>
</g>
<!-- magics&#45;metview&#45;batch -->
<g id="node8" class="node">
<title>magics&#45;metview&#45;batch</title>
<g id="a_node8"><a xlink:href="https://github.com/conda-forge/magics-metview-batch-feedstock" xlink:title="magics metview batch">
<ellipse fill="#fde725" stroke="black" cx="1156" cy="-926" rx="114.5" ry="18"/>
<text text-anchor="middle" x="1156" y="-922.3" font-family="Times,serif" font-size="14.00">magics metview batch</text>
</a>
</g>
</g>
<!-- eccodes&#45;&gt;magics&#45;metview&#45;batch -->
<g id="edge6" class="edge">
<title>eccodes&#45;&gt;magics&#45;metview&#45;batch</title>
<path fill="none" stroke="black" d="M1104.94,-1124.95C1127.97,-1103.02 1166.77,-1061.2 1182,-1016 1188.96,-995.34 1181.28,-971.63 1172.5,-953.88"/>
<polygon fill="black" stroke="black" points="1175.83,-952.69 1168.02,-945.52 1169.66,-955.99 1175.83,-952.69"/>
</g>
<!-- metview&#45;batch -->
<g id="node9" class="node">
<title>metview&#45;batch</title>
<g id="a_node9"><a xlink:href="https://github.com/conda-forge/metview-batch-feedstock" xlink:title="metview batch">
<ellipse fill="#fde725" stroke="black" cx="1180" cy="-854" rx="79.5" ry="18"/>
<text text-anchor="middle" x="1180" y="-850.3" font-family="Times,serif" font-size="14.00">metview batch</text>
</a>
</g>
</g>
<!-- eccodes&#45;&gt;metview&#45;batch -->
<g id="edge7" class="edge">
<title>eccodes&#45;&gt;metview&#45;batch</title>
<path fill="none" stroke="black" d="M1113.03,-1126.7C1129.47,-1116.99 1150.63,-1103.18 1167,-1088 1226.47,-1032.89 1252.69,-1020.69 1279,-944 1284.19,-928.87 1287.22,-921.73 1279,-908 1269.71,-892.49 1254.16,-881.26 1238.1,-873.25"/>
<polygon fill="black" stroke="black" points="1240.01,-870.27 1229.46,-869.29 1237.1,-876.64 1240.01,-870.27"/>
</g>
<!-- fimex -->
<g id="node10" class="node">
<title>fimex</title>
<g id="a_node10"><a xlink:href="https://github.com/conda-forge/fimex-feedstock" xlink:title="fimex">
<ellipse fill="#fde725" stroke="black" cx="1337" cy="-854" rx="36.5" ry="18"/>
<text text-anchor="middle" x="1337" y="-850.3" font-family="Times,serif" font-size="14.00">fimex</text>
</a>
</g>
</g>
<!-- eccodes&#45;&gt;fimex -->
<g id="edge8" class="edge">
<title>eccodes&#45;&gt;fimex</title>
<path fill="none" stroke="black" d="M1121.29,-1129.08C1144.96,-1119.92 1176.46,-1105.83 1201,-1088 1236.36,-1062.31 1244.15,-1052.63 1268,-1016 1296.2,-972.69 1317.37,-915.92 1328.41,-882.66"/>
<polygon fill="black" stroke="black" points="1331.67,-883.96 1331.43,-873.37 1325.01,-881.8 1331.67,-883.96"/>
</g>
<!-- magics&#45;&gt;cdo -->
<g id="edge9" class="edge">
<title>magics&#45;&gt;cdo</title>
<path fill="none" stroke="black" d="M892.29,-1052.05C888.16,-1044.03 883.13,-1034.26 878.52,-1025.3"/>
<polygon fill="black" stroke="black" points="881.76,-1023.95 874.08,-1016.65 875.54,-1027.15 881.76,-1023.95"/>
</g>
<!-- magics&#45;metview&#45;&gt;metview -->
<g id="edge10" class="edge">
<title>magics&#45;metview&#45;&gt;metview</title>
<path fill="none" stroke="black" d="M1060.27,-980.59C1044.43,-970.86 1024.19,-958.43 1007.19,-947.99"/>
<polygon fill="black" stroke="black" points="1009.26,-945.16 998.9,-942.91 1005.59,-951.12 1009.26,-945.16"/>
</g>
<!-- magics&#45;metview&#45;batch&#45;&gt;metview&#45;batch -->
<g id="edge11" class="edge">
<title>magics&#45;metview&#45;batch&#45;&gt;metview&#45;batch</title>
<path fill="none" stroke="black" d="M1161.93,-907.7C1164.49,-900.24 1167.55,-891.32 1170.41,-882.97"/>
<polygon fill="black" stroke="black" points="1173.71,-884.13 1173.64,-873.54 1167.09,-881.86 1173.71,-884.13"/>
</g>
<!-- esmf -->
<g id="node11" class="node">
<title>esmf</title>
<g id="a_node11"><a xlink:href="https://github.com/conda-forge/esmf-feedstock" xlink:title="esmf">
<ellipse fill="#fde725" stroke="black" cx="281" cy="-998" rx="33.29" ry="18"/>
<text text-anchor="middle" x="281" y="-994.3" font-family="Times,serif" font-size="14.00">esmf</text>
</a>
</g>
</g>
<!-- esmf&#45;&gt;cdms2 -->
<g id="edge12" class="edge">
<title>esmf&#45;&gt;cdms2</title>
<path fill="none" stroke="black" d="M254.88,-986.37C226.68,-974.89 181.42,-956.47 148.79,-943.19"/>
<polygon fill="black" stroke="black" points="150.24,-940 139.66,-939.48 147.6,-946.49 150.24,-940"/>
</g>
<!-- ncl -->
<g id="node12" class="node">
<title>ncl</title>
<g id="a_node12"><a xlink:href="https://github.com/conda-forge/ncl-feedstock" xlink:title="ncl">
<ellipse fill="#fde725" stroke="black" cx="317" cy="-926" rx="27" ry="18"/>
<text text-anchor="middle" x="317" y="-922.3" font-family="Times,serif" font-size="14.00">ncl</text>
</a>
</g>
</g>
<!-- esmf&#45;&gt;ncl -->
<g id="edge13" class="edge">
<title>esmf&#45;&gt;ncl</title>
<path fill="none" stroke="black" d="M289.53,-980.41C293.66,-972.39 298.71,-962.57 303.35,-953.54"/>
<polygon fill="black" stroke="black" points="306.38,-955.31 307.84,-944.82 300.15,-952.11 306.38,-955.31"/>
</g>
<!-- nco -->
<g id="node13" class="node">
<title>nco</title>
<g id="a_node13"><a xlink:href="https://github.com/conda-forge/nco-feedstock" xlink:title="nco">
<ellipse fill="#fde725" stroke="black" cx="245" cy="-926" rx="27" ry="18"/>
<text text-anchor="middle" x="245" y="-922.3" font-family="Times,serif" font-size="14.00">nco</text>
</a>
</g>
</g>
<!-- esmf&#45;&gt;nco -->
<g id="edge14" class="edge">
<title>esmf&#45;&gt;nco</title>
<path fill="none" stroke="black" d="M272.47,-980.41C268.34,-972.39 263.29,-962.57 258.65,-953.54"/>
<polygon fill="black" stroke="black" points="261.85,-952.11 254.16,-944.82 255.62,-955.31 261.85,-952.11"/>
</g>
<!-- gdal -->
<g id="node14" class="node">
<title>gdal</title>
<g id="a_node14"><a xlink:href="https://github.com/conda-forge/gdal-feedstock" xlink:title="gdal">
<ellipse fill="#ff8c00" stroke="black" cx="424" cy="-998" rx="30.59" ry="18"/>
<text text-anchor="middle" x="424" y="-994.3" font-family="Times,serif" font-size="14.00">gdal</text>
</a>
</g>
</g>
<!-- gdal&#45;&gt;ncl -->
<g id="edge15" class="edge">
<title>gdal&#45;&gt;ncl</title>
<path fill="none" stroke="black" d="M404.12,-984C387.53,-973.14 363.67,-957.53 345.11,-945.39"/>
<polygon fill="black" stroke="black" points="347.24,-942.6 336.96,-940.06 343.41,-948.46 347.24,-942.6"/>
</g>
<!-- gmt -->
<g id="node15" class="node">
<title>gmt</title>
<g id="a_node15"><a xlink:href="https://github.com/conda-forge/gmt-feedstock" xlink:title="gmt">
<ellipse fill="#fde725" stroke="black" cx="481" cy="-926" rx="29.5" ry="18"/>
<text text-anchor="middle" x="481" y="-922.3" font-family="Times,serif" font-size="14.00">gmt</text>
</a>
</g>
</g>
<!-- gdal&#45;&gt;gmt -->
<g id="edge16" class="edge">
<title>gdal&#45;&gt;gmt</title>
<path fill="none" stroke="black" d="M436.65,-981.46C443.88,-972.58 453.11,-961.25 461.27,-951.22"/>
<polygon fill="black" stroke="black" points="463.83,-953.63 467.43,-943.67 458.4,-949.21 463.83,-953.63"/>
</g>
<!-- pynio -->
<g id="node16" class="node">
<title>pynio</title>
<g id="a_node16"><a xlink:href="https://github.com/conda-forge/pynio-feedstock" xlink:title="pynio">
<ellipse fill="#fde725" stroke="black" cx="359" cy="-854" rx="36.5" ry="18"/>
<text text-anchor="middle" x="359" y="-850.3" font-family="Times,serif" font-size="14.00">pynio</text>
</a>
</g>
</g>
<!-- gdal&#45;&gt;pynio -->
<g id="edge17" class="edge">
<title>gdal&#45;&gt;pynio</title>
<path fill="none" stroke="black" d="M416.29,-980.15C405.2,-955.92 384.62,-910.96 371.38,-882.05"/>
<polygon fill="black" stroke="black" points="374.68,-880.84 367.33,-873.2 368.31,-883.75 374.68,-880.84"/>
</g>
<!-- mdal -->
<g id="node17" class="node">
<title>mdal</title>
<g id="a_node17"><a xlink:href="https://github.com/conda-forge/mdal-feedstock" xlink:title="mdal">
<ellipse fill="#fde725" stroke="black" cx="424" cy="-782" rx="34" ry="18"/>
<text text-anchor="middle" x="424" y="-778.3" font-family="Times,serif" font-size="14.00">mdal</text>
</a>
</g>
</g>
<!-- gdal&#45;&gt;mdal -->
<g id="edge18" class="edge">
<title>gdal&#45;&gt;mdal</title>
<path fill="none" stroke="black" d="M424,-979.85C424,-943.14 424,-856.66 424,-811.53"/>
<polygon fill="black" stroke="black" points="427.5,-811.75 424,-801.75 420.5,-811.75 427.5,-811.75"/>
</g>
<!-- r&#45;gdalcubes -->
<g id="node18" class="node">
<title>r&#45;gdalcubes</title>
<g id="a_node18"><a xlink:href="https://github.com/conda-forge/r-gdalcubes-feedstock" xlink:title="r gdalcubes">
<ellipse fill="#fde725" stroke="black" cx="593" cy="-926" rx="65" ry="18"/>
<text text-anchor="middle" x="593" y="-922.3" font-family="Times,serif" font-size="14.00">r gdalcubes</text>
</a>
</g>
</g>
<!-- gdal&#45;&gt;r&#45;gdalcubes -->
<g id="edge19" class="edge">
<title>gdal&#45;&gt;r&#45;gdalcubes</title>
<path fill="none" stroke="black" d="M448.57,-986.82C474.4,-976.12 515.61,-959.05 547.42,-945.88"/>
<polygon fill="black" stroke="black" points="548.51,-949.22 556.41,-942.16 545.83,-942.75 548.51,-949.22"/>
</g>
<!-- libcdms -->
<g id="node19" class="node">
<title>libcdms</title>
<g id="a_node19"><a xlink:href="https://github.com/conda-forge/libcdms-feedstock" xlink:title="libcdms">
<ellipse fill="#fde725" stroke="black" cx="108" cy="-1142" rx="47" ry="18"/>
<text text-anchor="middle" x="108" y="-1138.3" font-family="Times,serif" font-size="14.00">libcdms</text>
</a>
</g>
</g>
<!-- libcdms&#45;&gt;cdms2 -->
<g id="edge20" class="edge">
<title>libcdms&#45;&gt;cdms2</title>
<path fill="none" stroke="black" d="M93.14,-1124.71C85.18,-1114.86 76.18,-1101.61 72,-1088 57.69,-1041.45 78.64,-985.82 94.37,-953.63"/>
<polygon fill="black" stroke="black" points="97.34,-955.51 98.76,-945.01 91.11,-952.34 97.34,-955.51"/>
</g>
<!-- libcdms&#45;&gt;cdtime -->
<g id="edge21" class="edge">
<title>libcdms&#45;&gt;cdtime</title>
<path fill="none" stroke="black" d="M138.05,-1127.69C153.93,-1118.9 171.97,-1105.72 181,-1088 190.5,-1069.36 189.4,-1045.55 186.24,-1027.25"/>
<polygon fill="black" stroke="black" points="189.71,-1026.71 184.27,-1017.61 182.85,-1028.11 189.71,-1026.71"/>
</g>
<!-- libdrs_f -->
<g id="node20" class="node">
<title>libdrs_f</title>
<g id="a_node20"><a xlink:href="https://github.com/conda-forge/libdrs_f-feedstock" xlink:title="libdrs_f">
<ellipse fill="#fde725" stroke="black" cx="127" cy="-1070" rx="45.5" ry="18"/>
<text text-anchor="middle" x="127" y="-1066.3" font-family="Times,serif" font-size="14.00">libdrs_f</text>
</a>
</g>
</g>
<!-- libcdms&#45;&gt;libdrs_f -->
<g id="edge22" class="edge">
<title>libcdms&#45;&gt;libdrs_f</title>
<path fill="none" stroke="black" d="M112.7,-1123.7C114.72,-1116.24 117.14,-1107.32 119.41,-1098.97"/>
<polygon fill="black" stroke="black" points="122.72,-1100.13 121.96,-1089.57 115.96,-1098.3 122.72,-1100.13"/>
</g>
<!-- libdrs_f&#45;&gt;cdms2 -->
<g id="edge23" class="edge">
<title>libdrs_f&#45;&gt;cdms2</title>
<path fill="none" stroke="black" d="M124.79,-1051.59C121.75,-1027.61 116.24,-984.14 112.6,-955.42"/>
<polygon fill="black" stroke="black" points="116.09,-955.09 111.36,-945.61 109.14,-955.97 116.09,-955.09"/>
</g>
<!-- libdrs_f&#45;&gt;cdtime -->
<g id="edge24" class="edge">
<title>libdrs_f&#45;&gt;cdtime</title>
<path fill="none" stroke="black" d="M139.32,-1052.41C145.48,-1044.13 153.06,-1033.92 159.94,-1024.66"/>
<polygon fill="black" stroke="black" points="162.71,-1026.8 165.86,-1016.68 157.09,-1022.63 162.71,-1026.8"/>
</g>
<!-- libdrs -->
<g id="node21" class="node">
<title>libdrs</title>
<g id="a_node21"><a xlink:href="https://github.com/conda-forge/libdrs-feedstock/pull/45" xlink:title="libdrs ❎">
<ellipse fill="#31688e" stroke="black" cx="52" cy="-1214" rx="52" ry="18"/>
<text text-anchor="middle" x="52" y="-1210.3" font-family="Times,serif" font-size="14.00" fill="white">libdrs ❎</text>
</a>
</g>
</g>
<!-- libdrs&#45;&gt;cdms2 -->
<g id="edge25" class="edge">
<title>libdrs&#45;&gt;cdms2</title>
<path fill="none" stroke="black" d="M49.78,-1195.53C45.43,-1155.64 38.68,-1055.46 69,-980 73.06,-969.9 79.57,-960.03 86.17,-951.61"/>
<polygon fill="black" stroke="black" points="88.85,-953.86 92.56,-943.94 83.47,-949.38 88.85,-953.86"/>
</g>
<!-- libdrs&#45;&gt;libcdms -->
<g id="edge26" class="edge">
<title>libdrs&#45;&gt;libcdms</title>
<path fill="none" stroke="black" d="M65.27,-1196.41C71.97,-1188.04 80.23,-1177.71 87.7,-1168.37"/>
<polygon fill="black" stroke="black" points="90.36,-1170.65 93.88,-1160.65 84.9,-1166.27 90.36,-1170.65"/>
</g>
<!-- moab -->
<g id="node22" class="node">
<title>moab</title>
<g id="a_node22"><a xlink:href="https://github.com/conda-forge/moab-feedstock/pull/81" xlink:title="moab ✓">
<ellipse fill="#31688e" stroke="black" cx="746" cy="-1358" rx="43.59" ry="18"/>
<text text-anchor="middle" x="746" y="-1354.3" font-family="Times,serif" font-size="14.00" fill="white">moab ✓</text>
</a>
</g>
</g>
<!-- netcdf&#45;cxx4 -->
<g id="node23" class="node">
<title>netcdf&#45;cxx4</title>
<g id="a_node23"><a xlink:href="https://github.com/conda-forge/netcdf-cxx4-feedstock" xlink:title="netcdf cxx4">
<ellipse fill="#ff8c00" stroke="black" cx="746" cy="-1286" rx="64.5" ry="18"/>
<text text-anchor="middle" x="746" y="-1282.3" font-family="Times,serif" font-size="14.00">netcdf cxx4</text>
</a>
</g>
</g>
<!-- moab&#45;&gt;netcdf&#45;cxx4 -->
<!-- pyferret -->
<g id="node24" class="node">
<title>pyferret</title>
<g id="a_node24"><a xlink:href="https://github.com/conda-forge/pyferret-feedstock" xlink:title="pyferret">
<ellipse fill="#35b779" stroke="black" cx="746" cy="-1214" rx="48.99" ry="18"/>
<text text-anchor="middle" x="746" y="-1210.3" font-family="Times,serif" font-size="14.00">pyferret</text>
</a>
</g>
</g>
<!-- netcdf&#45;cxx4&#45;&gt;pyferret -->
<!-- r&#45;rnetcdf -->
<g id="node27" class="node">
<title>r&#45;rnetcdf</title>
<g id="a_node27"><a xlink:href="https://github.com/conda-forge/r-rnetcdf-feedstock" xlink:title="r rnetcdf">
<ellipse fill="#ff8c00" stroke="black" cx="746" cy="-1142" rx="52" ry="18"/>
<text text-anchor="middle" x="746" y="-1138.3" font-family="Times,serif" font-size="14.00">r rnetcdf</text>
</a>
</g>
</g>
<!-- pyferret&#45;&gt;r&#45;rnetcdf -->
<!-- paraview -->
<g id="node25" class="node">
<title>paraview</title>
<g id="a_node25"><a xlink:href="https://github.com/conda-forge/paraview-feedstock" xlink:title="paraview">
<ellipse fill="#ff8c00" stroke="black" cx="746" cy="-342" rx="53.5" ry="18"/>
<text text-anchor="middle" x="746" y="-338.3" font-family="Times,serif" font-size="14.00">paraview</text>
</a>
</g>
</g>
<!-- lfric_reader -->
<g id="node26" class="node">
<title>lfric_reader</title>
<g id="a_node26"><a xlink:href="https://github.com/conda-forge/lfric_reader-feedstock" xlink:title="lfric_reader">
<ellipse fill="#fde725" stroke="black" cx="746" cy="-270" rx="64.5" ry="18"/>
<text text-anchor="middle" x="746" y="-266.3" font-family="Times,serif" font-size="14.00">lfric_reader</text>
</a>
</g>
</g>
<!-- paraview&#45;&gt;lfric_reader -->
<g id="edge29" class="edge">
<title>paraview&#45;&gt;lfric_reader</title>
<path fill="none" stroke="black" d="M746,-323.7C746,-316.41 746,-307.73 746,-299.54"/>
<polygon fill="black" stroke="black" points="749.5,-299.62 746,-289.62 742.5,-299.62 749.5,-299.62"/>
</g>
<!-- wgrib2 -->
<g id="node29" class="node">
<title>wgrib2</title>
<g id="a_node29"><a xlink:href="https://github.com/conda-forge/wgrib2-feedstock" xlink:title="wgrib2">
<ellipse fill="#ff8c00" stroke="black" cx="746" cy="-1070" rx="43.59" ry="18"/>
<text text-anchor="middle" x="746" y="-1066.3" font-family="Times,serif" font-size="14.00">wgrib2</text>
</a>
</g>
</g>
<!-- r&#45;rnetcdf&#45;&gt;wgrib2 -->
<!-- r&#45;ncdf4 -->
<g id="node28" class="node">
<title>r&#45;ncdf4</title>
<g id="a_node28"><a xlink:href="https://github.com/conda-forge/r-ncdf4-feedstock" xlink:title="r ncdf4">
<ellipse fill="#ff8c00" stroke="black" cx="593" cy="-998" rx="44.39" ry="18"/>
<text text-anchor="middle" x="593" y="-994.3" font-family="Times,serif" font-size="14.00">r ncdf4</text>
</a>
</g>
</g>
<!-- r&#45;ncdf4&#45;&gt;r&#45;gdalcubes -->
<g id="edge31" class="edge">
<title>r&#45;ncdf4&#45;&gt;r&#45;gdalcubes</title>
<path fill="none" stroke="black" d="M593,-979.7C593,-972.41 593,-963.73 593,-955.54"/>
<polygon fill="black" stroke="black" points="596.5,-955.62 593,-945.62 589.5,-955.62 596.5,-955.62"/>
</g>
<!-- siesta -->
<g id="node30" class="node">
<title>siesta</title>
<g id="a_node30"><a xlink:href="https://github.com/conda-forge/siesta-feedstock" xlink:title="siesta">
<ellipse fill="#ff8c00" stroke="black" cx="746" cy="-998" rx="38.5" ry="18"/>
<text text-anchor="middle" x="746" y="-994.3" font-family="Times,serif" font-size="14.00">siesta</text>
</a>
</g>
</g>
<!-- wgrib2&#45;&gt;siesta -->
<!-- vic -->
<g id="node31" class="node">
<title>vic</title>
<g id="a_node31"><a xlink:href="https://github.com/conda-forge/vic-feedstock/pull/21" xlink:title="vic ❎">
<ellipse fill="#31688e" stroke="black" cx="746" cy="-926" rx="38.5" ry="18"/>
<text text-anchor="middle" x="746" y="-922.3" font-family="Times,serif" font-size="14.00" fill="white">vic ❎</text>
</a>
</g>
</g>
<!-- siesta&#45;&gt;vic -->
<!-- vmd&#45;python -->
<g id="node32" class="node">
<title>vmd&#45;python</title>
<g id="a_node32"><a xlink:href="https://github.com/conda-forge/vmd-python-feedstock/pull/30" xlink:title="vmd python ❎">
<ellipse fill="#31688e" stroke="black" cx="746" cy="-854" rx="80" ry="18"/>
<text text-anchor="middle" x="746" y="-850.3" font-family="Times,serif" font-size="14.00" fill="white">vmd python ❎</text>
</a>
</g>
</g>
<!-- vic&#45;&gt;vmd&#45;python -->
<!-- ovito -->
<g id="node33" class="node">
<title>ovito</title>
<g id="a_node33"><a xlink:href="https://github.com/conda-forge/ovito-feedstock" xlink:title="ovito">
<ellipse fill="#35b779" stroke="black" cx="746" cy="-782" rx="34" ry="18"/>
<text text-anchor="middle" x="746" y="-778.3" font-family="Times,serif" font-size="14.00">ovito</text>
</a>
</g>
</g>
<!-- vmd&#45;python&#45;&gt;ovito -->
<!-- cmor -->
<g id="node34" class="node">
<title>cmor</title>
<g id="a_node34"><a xlink:href="https://github.com/conda-forge/cmor-feedstock/pull/58" xlink:title="cmor ✓">
<ellipse fill="#31688e" stroke="black" cx="746" cy="-710" rx="41.69" ry="18"/>
<text text-anchor="middle" x="746" y="-706.3" font-family="Times,serif" font-size="14.00" fill="white">cmor ✓</text>
</a>
</g>
</g>
<!-- ovito&#45;&gt;cmor -->
<!-- ambertools -->
<g id="node35" class="node">
<title>ambertools</title>
<g id="a_node35"><a xlink:href="https://github.com/conda-forge/ambertools-feedstock/pull/103" xlink:title="ambertools ✓">
<ellipse fill="#31688e" stroke="black" cx="746" cy="-638" rx="70.39" ry="18"/>
<text text-anchor="middle" x="746" y="-634.3" font-family="Times,serif" font-size="14.00" fill="white">ambertools ✓</text>
</a>
</g>
</g>
<!-- cmor&#45;&gt;ambertools -->
<!-- fpocket -->
<g id="node36" class="node">
<title>fpocket</title>
<g id="a_node36"><a xlink:href="https://github.com/conda-forge/fpocket-feedstock" xlink:title="fpocket">
<ellipse fill="#35b779" stroke="black" cx="329" cy="-594" rx="45" ry="18"/>
<text text-anchor="middle" x="329" y="-590.3" font-family="Times,serif" font-size="14.00">fpocket</text>
</a>
</g>
</g>
<!-- ncview -->
<g id="node37" class="node">
<title>ncview</title>
<g id="a_node37"><a xlink:href="https://github.com/conda-forge/ncview-feedstock" xlink:title="ncview">
<ellipse fill="#35b779" stroke="black" cx="329" cy="-522" rx="43" ry="18"/>
<text text-anchor="middle" x="329" y="-518.3" font-family="Times,serif" font-size="14.00">ncview</text>
</a>
</g>
</g>
<!-- fpocket&#45;&gt;ncview -->
<!-- netcdf&#45;cxx&#45;legacy -->
<g id="node38" class="node">
<title>netcdf&#45;cxx&#45;legacy</title>
<g id="a_node38"><a xlink:href="https://github.com/conda-forge/netcdf-cxx-legacy-feedstock" xlink:title="netcdf cxx legacy">
<ellipse fill="#35b779" stroke="black" cx="329" cy="-450" rx="91" ry="18"/>
<text text-anchor="middle" x="329" y="-446.3" font-family="Times,serif" font-size="14.00">netcdf cxx legacy</text>
</a>
</g>
</g>
<!-- ncview&#45;&gt;netcdf&#45;cxx&#45;legacy -->
<!-- nccmp -->
<g id="node39" class="node">
<title>nccmp</title>
<g id="a_node39"><a xlink:href="https://github.com/conda-forge/nccmp-feedstock" xlink:title="nccmp">
<ellipse fill="#35b779" stroke="black" cx="329" cy="-378" rx="41" ry="18"/>
<text text-anchor="middle" x="329" y="-374.3" font-family="Times,serif" font-size="14.00">nccmp</text>
</a>
</g>
</g>
<!-- netcdf&#45;cxx&#45;legacy&#45;&gt;nccmp -->
<!-- abinit -->
<g id="node40" class="node">
<title>abinit</title>
<g id="a_node40"><a xlink:href="https://github.com/conda-forge/abinit-feedstock" xlink:title="abinit">
<ellipse fill="#35b779" stroke="black" cx="329" cy="-306" rx="37.89" ry="18"/>
<text text-anchor="middle" x="329" y="-302.3" font-family="Times,serif" font-size="14.00">abinit</text>
</a>
</g>
</g>
<!-- nccmp&#45;&gt;abinit -->
<!-- tempest&#45;extremes -->
<g id="node41" class="node">
<title>tempest&#45;extremes</title>
<g id="a_node41"><a xlink:href="https://github.com/conda-forge/tempest-extremes-feedstock/pull/7" xlink:title="tempest extremes ✓">
<ellipse fill="#31688e" stroke="black" cx="329" cy="-234" rx="102.88" ry="18"/>
<text text-anchor="middle" x="329" y="-230.3" font-family="Times,serif" font-size="14.00" fill="white">tempest extremes ✓</text>
</a>
</g>
</g>
<!-- abinit&#45;&gt;tempest&#45;extremes -->
<!-- ccr -->
<g id="node42" class="node">
<title>ccr</title>
<g id="a_node42"><a xlink:href="https://github.com/conda-forge/ccr-feedstock" xlink:title="ccr">
<ellipse fill="#35b779" stroke="black" cx="329" cy="-162" rx="27" ry="18"/>
<text text-anchor="middle" x="329" y="-158.3" font-family="Times,serif" font-size="14.00">ccr</text>
</a>
</g>
</g>
<!-- tempest&#45;extremes&#45;&gt;ccr -->
<!-- loos -->
<g id="node43" class="node">
<title>loos</title>
<g id="a_node43"><a xlink:href="https://github.com/conda-forge/loos-feedstock" xlink:title="loos">
<ellipse fill="#35b779" stroke="black" cx="329" cy="-90" rx="29.5" ry="18"/>
<text text-anchor="middle" x="329" y="-86.3" font-family="Times,serif" font-size="14.00">loos</text>
</a>
</g>
</g>
<!-- ccr&#45;&gt;loos -->
<!-- rubin&#45;libradtran -->
<g id="node44" class="node">
<title>rubin&#45;libradtran</title>
<g id="a_node44"><a xlink:href="https://github.com/conda-forge/rubin-libradtran-feedstock/pull/5" xlink:title="rubin libradtran ✓">
<ellipse fill="#31688e" stroke="black" cx="329" cy="-18" rx="93" ry="18"/>
<text text-anchor="middle" x="329" y="-14.3" font-family="Times,serif" font-size="14.00" fill="white">rubin libradtran ✓</text>
</a>
</g>
</g>
<!-- loos&#45;&gt;rubin&#45;libradtran -->
<!-- parallelio -->
<g id="node45" class="node">
<title>parallelio</title>
<g id="a_node45"><a xlink:href="https://github.com/conda-forge/parallelio-feedstock/pull/12" xlink:title="parallelio ✓">
<ellipse fill="#31688e" stroke="black" cx="291" cy="-1070" rx="61.99" ry="18"/>
<text text-anchor="middle" x="291" y="-1066.3" font-family="Times,serif" font-size="14.00" fill="white">parallelio ✓</text>
</a>
</g>
</g>
<!-- parallelio&#45;&gt;esmf -->
<g id="edge47" class="edge">
<title>parallelio&#45;&gt;esmf</title>
<path fill="none" stroke="black" d="M288.53,-1051.7C287.47,-1044.32 286.22,-1035.52 285.04,-1027.25"/>
<polygon fill="black" stroke="black" points="288.54,-1027.01 283.66,-1017.6 281.61,-1028 288.54,-1027.01"/>
</g>
</g>
</svg>
