<?xml version="1.0" encoding="UTF-8" standalone="no"?>
<!DOCTYPE svg PUBLIC "-//W3C//DTD SVG 1.1//EN"
 "http://www.w3.org/Graphics/SVG/1.1/DTD/svg11.dtd">
<!-- Generated by graphviz version 8.0.3 (20230418.1244)
 -->
<!-- Pages: 1 -->
<svg width="692pt" height="996pt"
 viewBox="0.00 0.00 691.78 996.00" xmlns="http://www.w3.org/2000/svg" xmlns:xlink="http://www.w3.org/1999/xlink">
<g id="graph0" class="graph" transform="scale(1 1) rotate(0) translate(4 992)">
<polygon fill="white" stroke="none" points="-4,4 -4,-992 687.78,-992 687.78,4 -4,4"/>
<!-- cdms2 -->
<g id="node1" class="node">
<title>cdms2</title>
<g id="a_node1"><a xlink:href="https://github.com/conda-forge/cdms2-feedstock" xlink:title="cdms2">
<ellipse fill="#fde725" stroke="black" cx="296.09" cy="-466" rx="41" ry="18"/>
<text text-anchor="middle" x="296.09" y="-462.3" font-family="Times,serif" font-size="14.00">cdms2</text>
</a>
</g>
</g>
<!-- cdo -->
<g id="node2" class="node">
<title>cdo</title>
<g id="a_node2"><a xlink:href="https://github.com/conda-forge/cdo-feedstock" xlink:title="cdo">
<ellipse fill="#fde725" stroke="black" cx="100.09" cy="-18" rx="27" ry="18"/>
<text text-anchor="middle" x="100.09" y="-14.3" font-family="Times,serif" font-size="14.00">cdo</text>
</a>
</g>
</g>
<!-- cdtime -->
<g id="node3" class="node">
<title>cdtime</title>
<g id="a_node3"><a xlink:href="https://github.com/conda-forge/cdtime-feedstock" xlink:title="cdtime">
<ellipse fill="#fde725" stroke="black" cx="331.09" cy="-538" rx="42.49" ry="18"/>
<text text-anchor="middle" x="331.09" y="-534.3" font-family="Times,serif" font-size="14.00">cdtime</text>
</a>
</g>
</g>
<!-- cdtime&#45;&gt;cdms2 -->
<g id="edge1" class="edge">
<title>cdtime&#45;&gt;cdms2</title>
<path fill="none" stroke="black" d="M322.62,-520.05C318.62,-512.06 313.76,-502.33 309.29,-493.4"/>
<polygon fill="black" stroke="black" points="312.09,-492.17 304.49,-484.79 305.83,-495.3 312.09,-492.17"/>
</g>
<!-- libcdms -->
<g id="node4" class="node">
<title>libcdms</title>
<g id="a_node4"><a xlink:href="https://github.com/conda-forge/libcdms-feedstock" xlink:title="libcdms">
<ellipse fill="#fde725" stroke="black" cx="298.09" cy="-682" rx="47" ry="18"/>
<text text-anchor="middle" x="298.09" y="-678.3" font-family="Times,serif" font-size="14.00">libcdms</text>
</a>
</g>
</g>
<!-- libcdms&#45;&gt;cdms2 -->
<g id="edge2" class="edge">
<title>libcdms&#45;&gt;cdms2</title>
<path fill="none" stroke="black" d="M293.32,-664.03C285.7,-634.62 272.37,-572.31 280.09,-520 281.35,-511.5 283.67,-502.48 286.17,-494.33"/>
<polygon fill="black" stroke="black" points="289.81,-495.49 289.61,-484.9 283.16,-493.3 289.81,-495.49"/>
</g>
<!-- libcdms&#45;&gt;cdtime -->
<g id="edge3" class="edge">
<title>libcdms&#45;&gt;cdtime</title>
<path fill="none" stroke="black" d="M301.9,-663.58C305.85,-645.62 312.26,-616.82 318.09,-592 320.03,-583.76 322.2,-574.81 324.2,-566.65"/>
<polygon fill="black" stroke="black" points="327.79,-567.71 326.79,-557.17 320.99,-566.03 327.79,-567.71"/>
</g>
<!-- libdrs_f -->
<g id="node5" class="node">
<title>libdrs_f</title>
<g id="a_node5"><a xlink:href="https://github.com/conda-forge/libdrs_f-feedstock" xlink:title="libdrs_f">
<ellipse fill="#fde725" stroke="black" cx="373.09" cy="-610" rx="45.5" ry="18"/>
<text text-anchor="middle" x="373.09" y="-606.3" font-family="Times,serif" font-size="14.00">libdrs_f</text>
</a>
</g>
</g>
<!-- libcdms&#45;&gt;libdrs_f -->
<g id="edge4" class="edge">
<title>libcdms&#45;&gt;libdrs_f</title>
<path fill="none" stroke="black" d="M315.11,-665.12C324.82,-656.05 337.18,-644.52 347.99,-634.43"/>
<polygon fill="black" stroke="black" points="349.96,-637.45 354.88,-628.06 345.18,-632.33 349.96,-637.45"/>
</g>
<!-- libdrs_f&#45;&gt;cdms2 -->
<g id="edge5" class="edge">
<title>libdrs_f&#45;&gt;cdms2</title>
<path fill="none" stroke="black" d="M380.43,-591.74C387.23,-572.88 394.58,-542.37 382.09,-520 372.51,-502.85 354.85,-490.56 338.01,-482.16"/>
<polygon fill="black" stroke="black" points="339.81,-478.67 329.26,-477.66 336.88,-485.03 339.81,-478.67"/>
</g>
<!-- libdrs_f&#45;&gt;cdtime -->
<g id="edge6" class="edge">
<title>libdrs_f&#45;&gt;cdtime</title>
<path fill="none" stroke="black" d="M362.92,-592.05C358.07,-583.97 352.16,-574.12 346.76,-565.11"/>
<polygon fill="black" stroke="black" points="349.31,-563.56 341.16,-556.79 343.31,-567.16 349.31,-563.56"/>
</g>
<!-- libdrs -->
<g id="node6" class="node">
<title>libdrs</title>
<g id="a_node6"><a xlink:href="https://github.com/conda-forge/libdrs-feedstock/pull/45" xlink:title="libdrs ❎">
<ellipse fill="#31688e" stroke="black" cx="260.09" cy="-754" rx="52" ry="18"/>
<text text-anchor="middle" x="260.09" y="-750.3" font-family="Times,serif" font-size="14.00" fill="white">libdrs ❎</text>
</a>
</g>
</g>
<!-- libdrs&#45;&gt;cdms2 -->
<g id="edge7" class="edge">
<title>libdrs&#45;&gt;cdms2</title>
<path fill="none" stroke="black" d="M252.61,-735.7C248.62,-725.52 244.12,-712.27 242.09,-700 239.48,-684.21 240.35,-679.9 242.09,-664 249.24,-598.83 254.34,-582.51 274.09,-520 276.83,-511.32 280.42,-502.08 283.91,-493.79"/>
<polygon fill="black" stroke="black" points="287.42,-495.47 288.18,-484.9 281,-492.69 287.42,-495.47"/>
</g>
<!-- libdrs&#45;&gt;libcdms -->
<g id="edge8" class="edge">
<title>libdrs&#45;&gt;libcdms</title>
<path fill="none" stroke="black" d="M269.29,-736.05C273.63,-728.06 278.91,-718.33 283.76,-709.4"/>
<polygon fill="black" stroke="black" points="287.28,-711.25 288.98,-700.79 281.13,-707.91 287.28,-711.25"/>
</g>
<!-- magics -->
<g id="node7" class="node">
<title>magics</title>
<g id="a_node7"><a xlink:href="https://github.com/conda-forge/magics-feedstock/pull/120" xlink:title="magics ❎">
<ellipse fill="#31688e" stroke="black" cx="100.09" cy="-90" rx="58" ry="18"/>
<text text-anchor="middle" x="100.09" y="-86.3" font-family="Times,serif" font-size="14.00" fill="white">magics ❎</text>
</a>
</g>
</g>
<!-- magics&#45;&gt;cdo -->
<g id="edge9" class="edge">
<title>magics&#45;&gt;cdo</title>
<path fill="none" stroke="black" d="M100.09,-71.7C100.09,-64.24 100.09,-55.32 100.09,-46.97"/>
<polygon fill="black" stroke="black" points="103.59,-47.1 100.09,-37.1 96.59,-47.1 103.59,-47.1"/>
</g>
<!-- ncl -->
<g id="node8" class="node">
<title>ncl</title>
<g id="a_node8"><a xlink:href="https://github.com/conda-forge/ncl-feedstock" xlink:title="ncl">
<ellipse fill="#ff8c00" stroke="black" cx="100.09" cy="-970" rx="27" ry="18"/>
<text text-anchor="middle" x="100.09" y="-966.3" font-family="Times,serif" font-size="14.00">ncl</text>
</a>
</g>
</g>
<!-- netcdf&#45;cxx4 -->
<g id="node9" class="node">
<title>netcdf&#45;cxx4</title>
<g id="a_node9"><a xlink:href="https://github.com/conda-forge/netcdf-cxx4-feedstock" xlink:title="netcdf cxx4">
<ellipse fill="#ff8c00" stroke="black" cx="100.09" cy="-898" rx="64.5" ry="18"/>
<text text-anchor="middle" x="100.09" y="-894.3" font-family="Times,serif" font-size="14.00">netcdf cxx4</text>
</a>
</g>
</g>
<!-- ncl&#45;&gt;netcdf&#45;cxx4 -->
<!-- pyferret -->
<g id="node10" class="node">
<title>pyferret</title>
<g id="a_node10"><a xlink:href="https://github.com/conda-forge/pyferret-feedstock" xlink:title="pyferret">
<ellipse fill="#ff8c00" stroke="black" cx="100.09" cy="-826" rx="48.99" ry="18"/>
<text text-anchor="middle" x="100.09" y="-822.3" font-family="Times,serif" font-size="14.00">pyferret</text>
</a>
</g>
</g>
<!-- netcdf&#45;cxx4&#45;&gt;pyferret -->
<!-- pynio -->
<g id="node11" class="node">
<title>pynio</title>
<g id="a_node11"><a xlink:href="https://github.com/conda-forge/pynio-feedstock/pull/129" xlink:title="pynio ❎">
<ellipse fill="#31688e" stroke="black" cx="100.09" cy="-754" rx="50.09" ry="18"/>
<text text-anchor="middle" x="100.09" y="-750.3" font-family="Times,serif" font-size="14.00" fill="white">pynio ❎</text>
</a>
</g>
</g>
<!-- pyferret&#45;&gt;pynio -->
<!-- r&#45;rnetcdf -->
<g id="node12" class="node">
<title>r&#45;rnetcdf</title>
<g id="a_node12"><a xlink:href="https://github.com/conda-forge/r-rnetcdf-feedstock" xlink:title="r rnetcdf">
<ellipse fill="#ff8c00" stroke="black" cx="100.09" cy="-682" rx="52" ry="18"/>
<text text-anchor="middle" x="100.09" y="-678.3" font-family="Times,serif" font-size="14.00">r rnetcdf</text>
</a>
</g>
</g>
<!-- pynio&#45;&gt;r&#45;rnetcdf -->
<!-- wgrib2 -->
<g id="node15" class="node">
<title>wgrib2</title>
<g id="a_node15"><a xlink:href="https://github.com/conda-forge/wgrib2-feedstock" xlink:title="wgrib2">
<ellipse fill="#ff8c00" stroke="black" cx="100.09" cy="-610" rx="43.59" ry="18"/>
<text text-anchor="middle" x="100.09" y="-606.3" font-family="Times,serif" font-size="14.00">wgrib2</text>
</a>
</g>
</g>
<!-- r&#45;rnetcdf&#45;&gt;wgrib2 -->
<!-- r&#45;ncdf4 -->
<g id="node13" class="node">
<title>r&#45;ncdf4</title>
<g id="a_node13"><a xlink:href="https://github.com/conda-forge/r-ncdf4-feedstock" xlink:title="r ncdf4">
<ellipse fill="#ff8c00" stroke="black" cx="555.09" cy="-206" rx="44.39" ry="18"/>
<text text-anchor="middle" x="555.09" y="-202.3" font-family="Times,serif" font-size="14.00">r ncdf4</text>
</a>
</g>
</g>
<!-- r&#45;gdalcubes -->
<g id="node14" class="node">
<title>r&#45;gdalcubes</title>
<g id="a_node14"><a xlink:href="https://github.com/conda-forge/r-gdalcubes-feedstock" xlink:title="r gdalcubes">
<ellipse fill="#fde725" stroke="black" cx="555.09" cy="-134" rx="65" ry="18"/>
<text text-anchor="middle" x="555.09" y="-130.3" font-family="Times,serif" font-size="14.00">r gdalcubes</text>
</a>
</g>
</g>
<!-- r&#45;ncdf4&#45;&gt;r&#45;gdalcubes -->
<g id="edge14" class="edge">
<title>r&#45;ncdf4&#45;&gt;r&#45;gdalcubes</title>
<path fill="none" stroke="black" d="M555.09,-187.7C555.09,-180.24 555.09,-171.32 555.09,-162.97"/>
<polygon fill="black" stroke="black" points="558.59,-163.1 555.09,-153.1 551.59,-163.1 558.59,-163.1"/>
</g>
<!-- siesta -->
<g id="node16" class="node">
<title>siesta</title>
<g id="a_node16"><a xlink:href="https://github.com/conda-forge/siesta-feedstock" xlink:title="siesta">
<ellipse fill="#ff8c00" stroke="black" cx="100.09" cy="-538" rx="38.5" ry="18"/>
<text text-anchor="middle" x="100.09" y="-534.3" font-family="Times,serif" font-size="14.00">siesta</text>
</a>
</g>
</g>
<!-- wgrib2&#45;&gt;siesta -->
<!-- vic -->
<g id="node17" class="node">
<title>vic</title>
<g id="a_node17"><a xlink:href="https://github.com/conda-forge/vic-feedstock/pull/21" xlink:title="vic ❎">
<ellipse fill="#31688e" stroke="black" cx="100.09" cy="-466" rx="38.5" ry="18"/>
<text text-anchor="middle" x="100.09" y="-462.3" font-family="Times,serif" font-size="14.00" fill="white">vic ❎</text>
</a>
</g>
</g>
<!-- siesta&#45;&gt;vic -->
<!-- vmd&#45;python -->
<g id="node18" class="node">
<title>vmd&#45;python</title>
<g id="a_node18"><a xlink:href="https://github.com/conda-forge/vmd-python-feedstock/pull/30" xlink:title="vmd python ❎">
<ellipse fill="#31688e" stroke="black" cx="100.09" cy="-394" rx="80" ry="18"/>
<text text-anchor="middle" x="100.09" y="-390.3" font-family="Times,serif" font-size="14.00" fill="white">vmd python ❎</text>
</a>
</g>
</g>
<!-- vic&#45;&gt;vmd&#45;python -->
<!-- ambertools -->
<g id="node19" class="node">
<title>ambertools</title>
<g id="a_node19"><a xlink:href="https://github.com/conda-forge/ambertools-feedstock/pull/107" xlink:title="ambertools ✓">
<ellipse fill="#31688e" stroke="black" cx="100.09" cy="-322" rx="70.39" ry="18"/>
<text text-anchor="middle" x="100.09" y="-318.3" font-family="Times,serif" font-size="14.00" fill="white">ambertools ✓</text>
</a>
</g>
</g>
<!-- vmd&#45;python&#45;&gt;ambertools -->
<!-- fimex -->
<g id="node21" class="node">
<title>fimex</title>
<g id="a_node21"><a xlink:href="https://github.com/conda-forge/fimex-feedstock/pull/54" xlink:title="fimex ❎">
<ellipse fill="#31688e" stroke="black" cx="100.09" cy="-250" rx="50.09" ry="18"/>
<text text-anchor="middle" x="100.09" y="-246.3" font-family="Times,serif" font-size="14.00" fill="white">fimex ❎</text>
</a>
</g>
</g>
<!-- ambertools&#45;&gt;fimex -->
<!-- metview -->
<g id="node20" class="node">
<title>metview</title>
<g id="a_node20"><a xlink:href="https://github.com/conda-forge/metview-feedstock" xlink:title="metview">
<ellipse fill="#fde725" stroke="black" cx="100.09" cy="-134" rx="50.09" ry="18"/>
<text text-anchor="middle" x="100.09" y="-130.3" font-family="Times,serif" font-size="14.00">metview</text>
</a>
</g>
</g>
<!-- magics&#45;metview -->
<g id="node22" class="node">
<title>magics&#45;metview</title>
<g id="a_node22"><a xlink:href="https://github.com/conda-forge/magics-metview-feedstock/pull/63" xlink:title="magics metview ❎">
<ellipse fill="#31688e" stroke="black" cx="100.09" cy="-206" rx="100.18" ry="18"/>
<text text-anchor="middle" x="100.09" y="-202.3" font-family="Times,serif" font-size="14.00" fill="white">magics metview ❎</text>
</a>
</g>
</g>
<!-- magics&#45;metview&#45;&gt;metview -->
<g id="edge21" class="edge">
<title>magics&#45;metview&#45;&gt;metview</title>
<path fill="none" stroke="black" d="M100.09,-187.7C100.09,-180.24 100.09,-171.32 100.09,-162.97"/>
<polygon fill="black" stroke="black" points="103.59,-163.1 100.09,-153.1 96.59,-163.1 103.59,-163.1"/>
</g>
<!-- magics&#45;metview&#45;batch -->
<g id="node23" class="node">
<title>magics&#45;metview&#45;batch</title>
<g id="a_node23"><a xlink:href="https://github.com/conda-forge/magics-metview-batch-feedstock/pull/54" xlink:title="magics metview batch ❎">
<ellipse fill="#31688e" stroke="black" cx="555.09" cy="-646" rx="128.88" ry="18"/>
<text text-anchor="middle" x="555.09" y="-642.3" font-family="Times,serif" font-size="14.00" fill="white">magics metview batch ❎</text>
</a>
</g>
</g>
<!-- metview&#45;batch -->
<g id="node24" class="node">
<title>metview&#45;batch</title>
<g id="a_node24"><a xlink:href="https://github.com/conda-forge/metview-batch-feedstock" xlink:title="metview batch">
<ellipse fill="#fde725" stroke="black" cx="555.09" cy="-574" rx="79.5" ry="18"/>
<text text-anchor="middle" x="555.09" y="-570.3" font-family="Times,serif" font-size="14.00">metview batch</text>
</a>
</g>
</g>
<!-- magics&#45;metview&#45;batch&#45;&gt;metview&#45;batch -->
<g id="edge22" class="edge">
<title>magics&#45;metview&#45;batch&#45;&gt;metview&#45;batch</title>
<path fill="none" stroke="black" d="M555.09,-627.7C555.09,-620.24 555.09,-611.32 555.09,-602.97"/>
<polygon fill="black" stroke="black" points="558.59,-603.1 555.09,-593.1 551.59,-603.1 558.59,-603.1"/>
</g>
<!-- lfric_reader -->
<g id="node25" class="node">
<title>lfric_reader</title>
<g id="a_node25"><a xlink:href="https://github.com/conda-forge/lfric_reader-feedstock/pull/16" xlink:title="lfric_reader ❎">
<ellipse fill="#31688e" stroke="black" cx="313.09" cy="-206" rx="78.79" ry="18"/>
<text text-anchor="middle" x="313.09" y="-202.3" font-family="Times,serif" font-size="14.00" fill="white">lfric_reader ❎</text>
</a>
</g>
</g>
<!-- loos -->
<g id="node26" class="node">
<title>loos</title>
<g id="a_node26"><a xlink:href="https://github.com/conda-forge/loos-feedstock/pull/10" xlink:title="loos ❎">
<ellipse fill="#31688e" stroke="black" cx="313.09" cy="-134" rx="43.59" ry="18"/>
<text text-anchor="middle" x="313.09" y="-130.3" font-family="Times,serif" font-size="14.00" fill="white">loos ❎</text>
</a>
</g>
</g>
<!-- lfric_reader&#45;&gt;loos -->
</g>
</svg>
