<?xml version="1.0" encoding="UTF-8" standalone="no"?>
<!DOCTYPE svg PUBLIC "-//W3C//DTD SVG 1.1//EN"
 "http://www.w3.org/Graphics/SVG/1.1/DTD/svg11.dtd">
<!-- Generated by graphviz version 7.1.0 (20230122.1345)
 -->
<!-- Pages: 1 -->
<svg width="652pt" height="1140pt"
 viewBox="0.00 0.00 651.69 1140.00" xmlns="http://www.w3.org/2000/svg" xmlns:xlink="http://www.w3.org/1999/xlink">
<g id="graph0" class="graph" transform="scale(1 1) rotate(0) translate(4 1136)">
<polygon fill="white" stroke="none" points="-4,4 -4,-1136 647.69,-1136 647.69,4 -4,4"/>
<!-- cdms2 -->
<g id="node1" class="node">
<title>cdms2</title>
<g id="a_node1"><a xlink:href="https://github.com/conda-forge/cdms2-feedstock" xlink:title="cdms2">
<ellipse fill="#fde725" stroke="black" cx="256" cy="-610" rx="41" ry="18"/>
<text text-anchor="middle" x="256" y="-606.3" font-family="Times,serif" font-size="14.00">cdms2</text>
</a>
</g>
</g>
<!-- cdo -->
<g id="node2" class="node">
<title>cdo</title>
<g id="a_node2"><a xlink:href="https://github.com/conda-forge/cdo-feedstock" xlink:title="cdo">
<ellipse fill="#fde725" stroke="black" cx="273" cy="-18" rx="27" ry="18"/>
<text text-anchor="middle" x="273" y="-14.3" font-family="Times,serif" font-size="14.00">cdo</text>
</a>
</g>
</g>
<!-- cdtime -->
<g id="node3" class="node">
<title>cdtime</title>
<g id="a_node3"><a xlink:href="https://github.com/conda-forge/cdtime-feedstock" xlink:title="cdtime">
<ellipse fill="#fde725" stroke="black" cx="291" cy="-682" rx="42.49" ry="18"/>
<text text-anchor="middle" x="291" y="-678.3" font-family="Times,serif" font-size="14.00">cdtime</text>
</a>
</g>
</g>
<!-- cdtime&#45;&gt;cdms2 -->
<g id="edge1" class="edge">
<title>cdtime&#45;&gt;cdms2</title>
<path fill="none" stroke="black" d="M282.53,-664.05C278.62,-656.23 273.87,-646.75 269.49,-637.98"/>
<polygon fill="black" stroke="black" points="272.67,-636.52 265.07,-629.14 266.41,-639.65 272.67,-636.52"/>
</g>
<!-- libcdms -->
<g id="node4" class="node">
<title>libcdms</title>
<g id="a_node4"><a xlink:href="https://github.com/conda-forge/libcdms-feedstock" xlink:title="libcdms">
<ellipse fill="#fde725" stroke="black" cx="258" cy="-826" rx="47" ry="18"/>
<text text-anchor="middle" x="258" y="-822.3" font-family="Times,serif" font-size="14.00">libcdms</text>
</a>
</g>
</g>
<!-- libcdms&#45;&gt;cdms2 -->
<g id="edge2" class="edge">
<title>libcdms&#45;&gt;cdms2</title>
<path fill="none" stroke="black" d="M253.23,-808.03C245.6,-778.62 232.28,-716.31 240,-664 241.24,-655.6 243.53,-646.68 246,-638.61"/>
<polygon fill="black" stroke="black" points="249.25,-639.93 249.04,-629.33 242.6,-637.74 249.25,-639.93"/>
</g>
<!-- libcdms&#45;&gt;cdtime -->
<g id="edge3" class="edge">
<title>libcdms&#45;&gt;cdtime</title>
<path fill="none" stroke="black" d="M261.81,-807.58C265.76,-789.62 272.17,-760.82 278,-736 279.89,-727.94 282.01,-719.22 283.97,-711.21"/>
<polygon fill="black" stroke="black" points="287.34,-712.18 286.34,-701.63 280.54,-710.5 287.34,-712.18"/>
</g>
<!-- libdrs_f -->
<g id="node5" class="node">
<title>libdrs_f</title>
<g id="a_node5"><a xlink:href="https://github.com/conda-forge/libdrs_f-feedstock" xlink:title="libdrs_f">
<ellipse fill="#fde725" stroke="black" cx="333" cy="-754" rx="45.5" ry="18"/>
<text text-anchor="middle" x="333" y="-750.3" font-family="Times,serif" font-size="14.00">libdrs_f</text>
</a>
</g>
</g>
<!-- libcdms&#45;&gt;libdrs_f -->
<g id="edge4" class="edge">
<title>libcdms&#45;&gt;libdrs_f</title>
<path fill="none" stroke="black" d="M275.02,-809.12C284.64,-800.14 296.84,-788.74 307.58,-778.73"/>
<polygon fill="black" stroke="black" points="309.76,-781.48 314.68,-772.1 304.98,-776.36 309.76,-781.48"/>
</g>
<!-- libdrs_f&#45;&gt;cdms2 -->
<g id="edge5" class="edge">
<title>libdrs_f&#45;&gt;cdms2</title>
<path fill="none" stroke="black" d="M340.34,-735.74C347.14,-716.88 354.49,-686.37 342,-664 332.51,-647.01 315.09,-634.79 298.4,-626.4"/>
<polygon fill="black" stroke="black" points="300.09,-623.32 289.55,-622.29 297.15,-629.68 300.09,-623.32"/>
</g>
<!-- libdrs_f&#45;&gt;cdtime -->
<g id="edge6" class="edge">
<title>libdrs_f&#45;&gt;cdtime</title>
<path fill="none" stroke="black" d="M322.83,-736.05C318.04,-728.06 312.2,-718.33 306.84,-709.4"/>
<polygon fill="black" stroke="black" points="310,-707.86 301.85,-701.09 304,-711.46 310,-707.86"/>
</g>
<!-- libdrs -->
<g id="node6" class="node">
<title>libdrs</title>
<g id="a_node6"><a xlink:href="https://github.com/conda-forge/libdrs-feedstock/pull/45" xlink:title="libdrs ❎">
<ellipse fill="#31688e" stroke="black" cx="220" cy="-898" rx="52" ry="18"/>
<text text-anchor="middle" x="220" y="-894.3" font-family="Times,serif" font-size="14.00" fill="white">libdrs ❎</text>
</a>
</g>
</g>
<!-- libdrs&#45;&gt;cdms2 -->
<g id="edge7" class="edge">
<title>libdrs&#45;&gt;cdms2</title>
<path fill="none" stroke="black" d="M212.52,-879.7C208.53,-869.52 204.03,-856.27 202,-844 199.39,-828.21 200.25,-823.9 202,-808 209.15,-742.83 214.25,-726.51 234,-664 236.68,-655.51 240.17,-646.49 243.58,-638.34"/>
<polygon fill="black" stroke="black" points="246.74,-639.86 247.49,-629.29 240.31,-637.08 246.74,-639.86"/>
</g>
<!-- libdrs&#45;&gt;libcdms -->
<g id="edge8" class="edge">
<title>libdrs&#45;&gt;libcdms</title>
<path fill="none" stroke="black" d="M229.2,-880.05C233.49,-872.14 238.71,-862.54 243.51,-853.69"/>
<polygon fill="black" stroke="black" points="246.47,-855.58 248.16,-845.12 240.32,-852.24 246.47,-855.58"/>
</g>
<!-- magics -->
<g id="node7" class="node">
<title>magics</title>
<g id="a_node7"><a xlink:href="https://github.com/conda-forge/magics-feedstock/pull/120" xlink:title="magics ❎">
<ellipse fill="#31688e" stroke="black" cx="273" cy="-90" rx="58" ry="18"/>
<text text-anchor="middle" x="273" y="-86.3" font-family="Times,serif" font-size="14.00" fill="white">magics ❎</text>
</a>
</g>
</g>
<!-- magics&#45;&gt;cdo -->
<g id="edge9" class="edge">
<title>magics&#45;&gt;cdo</title>
<path fill="none" stroke="black" d="M273,-71.7C273,-64.41 273,-55.73 273,-47.54"/>
<polygon fill="black" stroke="black" points="276.5,-47.62 273,-37.62 269.5,-47.62 276.5,-47.62"/>
</g>
<!-- ncl -->
<g id="node8" class="node">
<title>ncl</title>
<g id="a_node8"><a xlink:href="https://github.com/conda-forge/ncl-feedstock" xlink:title="ncl">
<ellipse fill="#ff8c00" stroke="black" cx="80" cy="-1114" rx="27" ry="18"/>
<text text-anchor="middle" x="80" y="-1110.3" font-family="Times,serif" font-size="14.00">ncl</text>
</a>
</g>
</g>
<!-- netcdf&#45;cxx4 -->
<g id="node9" class="node">
<title>netcdf&#45;cxx4</title>
<g id="a_node9"><a xlink:href="https://github.com/conda-forge/netcdf-cxx4-feedstock" xlink:title="netcdf cxx4">
<ellipse fill="#ff8c00" stroke="black" cx="80" cy="-1042" rx="64.5" ry="18"/>
<text text-anchor="middle" x="80" y="-1038.3" font-family="Times,serif" font-size="14.00">netcdf cxx4</text>
</a>
</g>
</g>
<!-- ncl&#45;&gt;netcdf&#45;cxx4 -->
<!-- pyferret -->
<g id="node10" class="node">
<title>pyferret</title>
<g id="a_node10"><a xlink:href="https://github.com/conda-forge/pyferret-feedstock" xlink:title="pyferret">
<ellipse fill="#ff8c00" stroke="black" cx="80" cy="-970" rx="48.99" ry="18"/>
<text text-anchor="middle" x="80" y="-966.3" font-family="Times,serif" font-size="14.00">pyferret</text>
</a>
</g>
</g>
<!-- netcdf&#45;cxx4&#45;&gt;pyferret -->
<!-- pynio -->
<g id="node13" class="node">
<title>pynio</title>
<g id="a_node13"><a xlink:href="https://github.com/conda-forge/pynio-feedstock" xlink:title="pynio">
<ellipse fill="#ff8c00" stroke="black" cx="80" cy="-898" rx="36.5" ry="18"/>
<text text-anchor="middle" x="80" y="-894.3" font-family="Times,serif" font-size="14.00">pynio</text>
</a>
</g>
</g>
<!-- pyferret&#45;&gt;pynio -->
<!-- paraview -->
<g id="node11" class="node">
<title>paraview</title>
<g id="a_node11"><a xlink:href="https://github.com/conda-forge/paraview-feedstock" xlink:title="paraview">
<ellipse fill="#ff8c00" stroke="black" cx="80" cy="-90" rx="53.5" ry="18"/>
<text text-anchor="middle" x="80" y="-86.3" font-family="Times,serif" font-size="14.00">paraview</text>
</a>
</g>
</g>
<!-- lfric_reader -->
<g id="node12" class="node">
<title>lfric_reader</title>
<g id="a_node12"><a xlink:href="https://github.com/conda-forge/lfric_reader-feedstock" xlink:title="lfric_reader">
<ellipse fill="#fde725" stroke="black" cx="80" cy="-18" rx="64.5" ry="18"/>
<text text-anchor="middle" x="80" y="-14.3" font-family="Times,serif" font-size="14.00">lfric_reader</text>
</a>
</g>
</g>
<!-- paraview&#45;&gt;lfric_reader -->
<g id="edge12" class="edge">
<title>paraview&#45;&gt;lfric_reader</title>
<path fill="none" stroke="black" d="M80,-71.7C80,-64.41 80,-55.73 80,-47.54"/>
<polygon fill="black" stroke="black" points="83.5,-47.62 80,-37.62 76.5,-47.62 83.5,-47.62"/>
</g>
<!-- r&#45;rnetcdf -->
<g id="node14" class="node">
<title>r&#45;rnetcdf</title>
<g id="a_node14"><a xlink:href="https://github.com/conda-forge/r-rnetcdf-feedstock" xlink:title="r rnetcdf">
<ellipse fill="#ff8c00" stroke="black" cx="80" cy="-826" rx="52" ry="18"/>
<text text-anchor="middle" x="80" y="-822.3" font-family="Times,serif" font-size="14.00">r rnetcdf</text>
</a>
</g>
</g>
<!-- pynio&#45;&gt;r&#45;rnetcdf -->
<!-- wgrib2 -->
<g id="node17" class="node">
<title>wgrib2</title>
<g id="a_node17"><a xlink:href="https://github.com/conda-forge/wgrib2-feedstock" xlink:title="wgrib2">
<ellipse fill="#ff8c00" stroke="black" cx="80" cy="-754" rx="43.59" ry="18"/>
<text text-anchor="middle" x="80" y="-750.3" font-family="Times,serif" font-size="14.00">wgrib2</text>
</a>
</g>
</g>
<!-- r&#45;rnetcdf&#45;&gt;wgrib2 -->
<!-- r&#45;ncdf4 -->
<g id="node15" class="node">
<title>r&#45;ncdf4</title>
<g id="a_node15"><a xlink:href="https://github.com/conda-forge/r-ncdf4-feedstock" xlink:title="r ncdf4">
<ellipse fill="#ff8c00" stroke="black" cx="515" cy="-278" rx="44.39" ry="18"/>
<text text-anchor="middle" x="515" y="-274.3" font-family="Times,serif" font-size="14.00">r ncdf4</text>
</a>
</g>
</g>
<!-- r&#45;gdalcubes -->
<g id="node16" class="node">
<title>r&#45;gdalcubes</title>
<g id="a_node16"><a xlink:href="https://github.com/conda-forge/r-gdalcubes-feedstock" xlink:title="r gdalcubes">
<ellipse fill="#fde725" stroke="black" cx="515" cy="-206" rx="65" ry="18"/>
<text text-anchor="middle" x="515" y="-202.3" font-family="Times,serif" font-size="14.00">r gdalcubes</text>
</a>
</g>
</g>
<!-- r&#45;ncdf4&#45;&gt;r&#45;gdalcubes -->
<g id="edge15" class="edge">
<title>r&#45;ncdf4&#45;&gt;r&#45;gdalcubes</title>
<path fill="none" stroke="black" d="M515,-259.7C515,-252.41 515,-243.73 515,-235.54"/>
<polygon fill="black" stroke="black" points="518.5,-235.62 515,-225.62 511.5,-235.62 518.5,-235.62"/>
</g>
<!-- siesta -->
<g id="node18" class="node">
<title>siesta</title>
<g id="a_node18"><a xlink:href="https://github.com/conda-forge/siesta-feedstock" xlink:title="siesta">
<ellipse fill="#ff8c00" stroke="black" cx="80" cy="-682" rx="38.5" ry="18"/>
<text text-anchor="middle" x="80" y="-678.3" font-family="Times,serif" font-size="14.00">siesta</text>
</a>
</g>
</g>
<!-- wgrib2&#45;&gt;siesta -->
<!-- vic -->
<g id="node19" class="node">
<title>vic</title>
<g id="a_node19"><a xlink:href="https://github.com/conda-forge/vic-feedstock/pull/21" xlink:title="vic ❎">
<ellipse fill="#31688e" stroke="black" cx="80" cy="-610" rx="38.5" ry="18"/>
<text text-anchor="middle" x="80" y="-606.3" font-family="Times,serif" font-size="14.00" fill="white">vic ❎</text>
</a>
</g>
</g>
<!-- siesta&#45;&gt;vic -->
<!-- vmd&#45;python -->
<g id="node20" class="node">
<title>vmd&#45;python</title>
<g id="a_node20"><a xlink:href="https://github.com/conda-forge/vmd-python-feedstock/pull/30" xlink:title="vmd python ❎">
<ellipse fill="#31688e" stroke="black" cx="80" cy="-538" rx="80" ry="18"/>
<text text-anchor="middle" x="80" y="-534.3" font-family="Times,serif" font-size="14.00" fill="white">vmd python ❎</text>
</a>
</g>
</g>
<!-- vic&#45;&gt;vmd&#45;python -->
<!-- ambertools -->
<g id="node21" class="node">
<title>ambertools</title>
<g id="a_node21"><a xlink:href="https://github.com/conda-forge/ambertools-feedstock/pull/103" xlink:title="ambertools ✓">
<ellipse fill="#31688e" stroke="black" cx="80" cy="-466" rx="70.39" ry="18"/>
<text text-anchor="middle" x="80" y="-462.3" font-family="Times,serif" font-size="14.00" fill="white">ambertools ✓</text>
</a>
</g>
</g>
<!-- vmd&#45;python&#45;&gt;ambertools -->
<!-- fpocket -->
<g id="node23" class="node">
<title>fpocket</title>
<g id="a_node23"><a xlink:href="https://github.com/conda-forge/fpocket-feedstock/pull/19" xlink:title="fpocket ✓">
<ellipse fill="#31688e" stroke="black" cx="80" cy="-394" rx="52" ry="18"/>
<text text-anchor="middle" x="80" y="-390.3" font-family="Times,serif" font-size="14.00" fill="white">fpocket ✓</text>
</a>
</g>
</g>
<!-- ambertools&#45;&gt;fpocket -->
<!-- metview -->
<g id="node22" class="node">
<title>metview</title>
<g id="a_node22"><a xlink:href="https://github.com/conda-forge/metview-feedstock" xlink:title="metview">
<ellipse fill="#fde725" stroke="black" cx="273" cy="-206" rx="50.09" ry="18"/>
<text text-anchor="middle" x="273" y="-202.3" font-family="Times,serif" font-size="14.00">metview</text>
</a>
</g>
</g>
<!-- magics&#45;metview -->
<g id="node24" class="node">
<title>magics&#45;metview</title>
<g id="a_node24"><a xlink:href="https://github.com/conda-forge/magics-metview-feedstock/pull/63" xlink:title="magics metview ❎">
<ellipse fill="#31688e" stroke="black" cx="273" cy="-278" rx="100.18" ry="18"/>
<text text-anchor="middle" x="273" y="-274.3" font-family="Times,serif" font-size="14.00" fill="white">magics metview ❎</text>
</a>
</g>
</g>
<!-- magics&#45;metview&#45;&gt;metview -->
<g id="edge22" class="edge">
<title>magics&#45;metview&#45;&gt;metview</title>
<path fill="none" stroke="black" d="M273,-259.7C273,-252.41 273,-243.73 273,-235.54"/>
<polygon fill="black" stroke="black" points="276.5,-235.62 273,-225.62 269.5,-235.62 276.5,-235.62"/>
</g>
<!-- magics&#45;metview&#45;batch -->
<g id="node25" class="node">
<title>magics&#45;metview&#45;batch</title>
<g id="a_node25"><a xlink:href="https://github.com/conda-forge/magics-metview-batch-feedstock/pull/54" xlink:title="magics metview batch ❎">
<ellipse fill="#31688e" stroke="black" cx="515" cy="-790" rx="128.88" ry="18"/>
<text text-anchor="middle" x="515" y="-786.3" font-family="Times,serif" font-size="14.00" fill="white">magics metview batch ❎</text>
</a>
</g>
</g>
<!-- metview&#45;batch -->
<g id="node26" class="node">
<title>metview&#45;batch</title>
<g id="a_node26"><a xlink:href="https://github.com/conda-forge/metview-batch-feedstock" xlink:title="metview batch">
<ellipse fill="#fde725" stroke="black" cx="515" cy="-718" rx="79.5" ry="18"/>
<text text-anchor="middle" x="515" y="-714.3" font-family="Times,serif" font-size="14.00">metview batch</text>
</a>
</g>
</g>
<!-- magics&#45;metview&#45;batch&#45;&gt;metview&#45;batch -->
<g id="edge23" class="edge">
<title>magics&#45;metview&#45;batch&#45;&gt;metview&#45;batch</title>
<path fill="none" stroke="black" d="M515,-771.7C515,-764.41 515,-755.73 515,-747.54"/>
<polygon fill="black" stroke="black" points="518.5,-747.62 515,-737.62 511.5,-747.62 518.5,-747.62"/>
</g>
<!-- nccmp -->
<g id="node27" class="node">
<title>nccmp</title>
<g id="a_node27"><a xlink:href="https://github.com/conda-forge/nccmp-feedstock" xlink:title="nccmp">
<ellipse fill="#ff8c00" stroke="black" cx="80" cy="-350" rx="41" ry="18"/>
<text text-anchor="middle" x="80" y="-346.3" font-family="Times,serif" font-size="14.00">nccmp</text>
</a>
</g>
</g>
<!-- mdal -->
<g id="node28" class="node">
<title>mdal</title>
<g id="a_node28"><a xlink:href="https://github.com/conda-forge/mdal-feedstock/pull/40" xlink:title="mdal ❎">
<ellipse fill="#31688e" stroke="black" cx="80" cy="-278" rx="48.19" ry="18"/>
<text text-anchor="middle" x="80" y="-274.3" font-family="Times,serif" font-size="14.00" fill="white">mdal ❎</text>
</a>
</g>
</g>
<!-- nccmp&#45;&gt;mdal -->
<!-- fimex -->
<g id="node29" class="node">
<title>fimex</title>
<g id="a_node29"><a xlink:href="https://github.com/conda-forge/fimex-feedstock/pull/54" xlink:title="fimex ❎">
<ellipse fill="#31688e" stroke="black" cx="80" cy="-206" rx="50.09" ry="18"/>
<text text-anchor="middle" x="80" y="-202.3" font-family="Times,serif" font-size="14.00" fill="white">fimex ❎</text>
</a>
</g>
</g>
<!-- mdal&#45;&gt;fimex -->
<!-- loos -->
<g id="node30" class="node">
<title>loos</title>
<g id="a_node30"><a xlink:href="https://github.com/conda-forge/loos-feedstock/pull/9" xlink:title="loos ❎">
<ellipse fill="#31688e" stroke="black" cx="80" cy="-134" rx="43.59" ry="18"/>
<text text-anchor="middle" x="80" y="-130.3" font-family="Times,serif" font-size="14.00" fill="white">loos ❎</text>
</a>
</g>
</g>
<!-- fimex&#45;&gt;loos -->
</g>
</svg>
