<?xml version="1.0" encoding="UTF-8" standalone="no"?>
<!DOCTYPE svg PUBLIC "-//W3C//DTD SVG 1.1//EN"
 "http://www.w3.org/Graphics/SVG/1.1/DTD/svg11.dtd">
<!-- Generated by graphviz version 7.1.0 (20230122.1345)
 -->
<!-- Pages: 1 -->
<svg width="622pt" height="996pt"
 viewBox="0.00 0.00 621.69 996.00" xmlns="http://www.w3.org/2000/svg" xmlns:xlink="http://www.w3.org/1999/xlink">
<g id="graph0" class="graph" transform="scale(1 1) rotate(0) translate(4 992)">
<polygon fill="white" stroke="none" points="-4,4 -4,-992 617.69,-992 617.69,4 -4,4"/>
<!-- cdms2 -->
<g id="node1" class="node">
<title>cdms2</title>
<g id="a_node1"><a xlink:href="https://github.com/conda-forge/cdms2-feedstock" xlink:title="cdms2">
<ellipse fill="#fde725" stroke="black" cx="353.69" cy="-466" rx="41" ry="18"/>
<text text-anchor="middle" x="353.69" y="-462.3" font-family="Times,serif" font-size="14.00">cdms2</text>
</a>
</g>
</g>
<!-- cdo -->
<g id="node2" class="node">
<title>cdo</title>
<g id="a_node2"><a xlink:href="https://github.com/conda-forge/cdo-feedstock" xlink:title="cdo">
<ellipse fill="#fde725" stroke="black" cx="370.69" cy="-18" rx="27" ry="18"/>
<text text-anchor="middle" x="370.69" y="-14.3" font-family="Times,serif" font-size="14.00">cdo</text>
</a>
</g>
</g>
<!-- cdtime -->
<g id="node3" class="node">
<title>cdtime</title>
<g id="a_node3"><a xlink:href="https://github.com/conda-forge/cdtime-feedstock" xlink:title="cdtime">
<ellipse fill="#fde725" stroke="black" cx="388.69" cy="-538" rx="42.49" ry="18"/>
<text text-anchor="middle" x="388.69" y="-534.3" font-family="Times,serif" font-size="14.00">cdtime</text>
</a>
</g>
</g>
<!-- cdtime&#45;&gt;cdms2 -->
<g id="edge1" class="edge">
<title>cdtime&#45;&gt;cdms2</title>
<path fill="none" stroke="black" d="M380.22,-520.05C376.3,-512.23 371.56,-502.75 367.18,-493.98"/>
<polygon fill="black" stroke="black" points="370.36,-492.52 362.76,-485.14 364.1,-495.65 370.36,-492.52"/>
</g>
<!-- gmt -->
<g id="node4" class="node">
<title>gmt</title>
<g id="a_node4"><a xlink:href="https://github.com/conda-forge/gmt-feedstock" xlink:title="gmt">
<ellipse fill="#35b779" stroke="black" cx="128.69" cy="-970" rx="29.5" ry="18"/>
<text text-anchor="middle" x="128.69" y="-966.3" font-family="Times,serif" font-size="14.00">gmt</text>
</a>
</g>
</g>
<!-- ncl -->
<g id="node5" class="node">
<title>ncl</title>
<g id="a_node5"><a xlink:href="https://github.com/conda-forge/ncl-feedstock" xlink:title="ncl">
<ellipse fill="#35b779" stroke="black" cx="128.69" cy="-898" rx="27" ry="18"/>
<text text-anchor="middle" x="128.69" y="-894.3" font-family="Times,serif" font-size="14.00">ncl</text>
</a>
</g>
</g>
<!-- gmt&#45;&gt;ncl -->
<!-- netcdf&#45;cxx4 -->
<g id="node10" class="node">
<title>netcdf&#45;cxx4</title>
<g id="a_node10"><a xlink:href="https://github.com/conda-forge/netcdf-cxx4-feedstock" xlink:title="netcdf cxx4">
<ellipse fill="#ff8c00" stroke="black" cx="128.69" cy="-826" rx="64.5" ry="18"/>
<text text-anchor="middle" x="128.69" y="-822.3" font-family="Times,serif" font-size="14.00">netcdf cxx4</text>
</a>
</g>
</g>
<!-- ncl&#45;&gt;netcdf&#45;cxx4 -->
<!-- libcdms -->
<g id="node6" class="node">
<title>libcdms</title>
<g id="a_node6"><a xlink:href="https://github.com/conda-forge/libcdms-feedstock" xlink:title="libcdms">
<ellipse fill="#fde725" stroke="black" cx="355.69" cy="-682" rx="47" ry="18"/>
<text text-anchor="middle" x="355.69" y="-678.3" font-family="Times,serif" font-size="14.00">libcdms</text>
</a>
</g>
</g>
<!-- libcdms&#45;&gt;cdms2 -->
<g id="edge3" class="edge">
<title>libcdms&#45;&gt;cdms2</title>
<path fill="none" stroke="black" d="M350.92,-664.03C343.29,-634.62 329.97,-572.31 337.69,-520 338.93,-511.6 341.22,-502.68 343.69,-494.61"/>
<polygon fill="black" stroke="black" points="346.94,-495.93 346.73,-485.33 340.29,-493.74 346.94,-495.93"/>
</g>
<!-- libcdms&#45;&gt;cdtime -->
<g id="edge4" class="edge">
<title>libcdms&#45;&gt;cdtime</title>
<path fill="none" stroke="black" d="M359.5,-663.58C363.45,-645.62 369.86,-616.82 375.69,-592 377.58,-583.94 379.7,-575.22 381.66,-567.21"/>
<polygon fill="black" stroke="black" points="385.03,-568.18 384.03,-557.63 378.23,-566.5 385.03,-568.18"/>
</g>
<!-- libdrs_f -->
<g id="node7" class="node">
<title>libdrs_f</title>
<g id="a_node7"><a xlink:href="https://github.com/conda-forge/libdrs_f-feedstock" xlink:title="libdrs_f">
<ellipse fill="#fde725" stroke="black" cx="430.69" cy="-610" rx="45.5" ry="18"/>
<text text-anchor="middle" x="430.69" y="-606.3" font-family="Times,serif" font-size="14.00">libdrs_f</text>
</a>
</g>
</g>
<!-- libcdms&#45;&gt;libdrs_f -->
<g id="edge5" class="edge">
<title>libcdms&#45;&gt;libdrs_f</title>
<path fill="none" stroke="black" d="M372.71,-665.12C382.32,-656.14 394.53,-644.74 405.27,-634.73"/>
<polygon fill="black" stroke="black" points="407.45,-637.48 412.37,-628.1 402.67,-632.36 407.45,-637.48"/>
</g>
<!-- libdrs_f&#45;&gt;cdms2 -->
<g id="edge6" class="edge">
<title>libdrs_f&#45;&gt;cdms2</title>
<path fill="none" stroke="black" d="M438.03,-591.74C444.83,-572.88 452.18,-542.37 439.69,-520 430.2,-503.01 412.78,-490.79 396.08,-482.4"/>
<polygon fill="black" stroke="black" points="397.78,-479.32 387.23,-478.29 394.84,-485.68 397.78,-479.32"/>
</g>
<!-- libdrs_f&#45;&gt;cdtime -->
<g id="edge7" class="edge">
<title>libdrs_f&#45;&gt;cdtime</title>
<path fill="none" stroke="black" d="M420.52,-592.05C415.72,-584.06 409.89,-574.33 404.53,-565.4"/>
<polygon fill="black" stroke="black" points="407.69,-563.86 399.54,-557.09 401.68,-567.46 407.69,-563.86"/>
</g>
<!-- libdrs -->
<g id="node8" class="node">
<title>libdrs</title>
<g id="a_node8"><a xlink:href="https://github.com/conda-forge/libdrs-feedstock/pull/45" xlink:title="libdrs ❎">
<ellipse fill="#31688e" stroke="black" cx="317.69" cy="-754" rx="52" ry="18"/>
<text text-anchor="middle" x="317.69" y="-750.3" font-family="Times,serif" font-size="14.00" fill="white">libdrs ❎</text>
</a>
</g>
</g>
<!-- libdrs&#45;&gt;cdms2 -->
<g id="edge8" class="edge">
<title>libdrs&#45;&gt;cdms2</title>
<path fill="none" stroke="black" d="M310.21,-735.7C306.22,-725.52 301.72,-712.27 299.69,-700 297.08,-684.21 297.94,-679.9 299.69,-664 306.84,-598.83 311.93,-582.51 331.69,-520 334.37,-511.51 337.86,-502.49 341.27,-494.34"/>
<polygon fill="black" stroke="black" points="344.43,-495.86 345.18,-485.29 338,-493.08 344.43,-495.86"/>
</g>
<!-- libdrs&#45;&gt;libcdms -->
<g id="edge9" class="edge">
<title>libdrs&#45;&gt;libcdms</title>
<path fill="none" stroke="black" d="M326.89,-736.05C331.18,-728.14 336.4,-718.54 341.2,-709.69"/>
<polygon fill="black" stroke="black" points="344.16,-711.58 345.85,-701.12 338.01,-708.24 344.16,-711.58"/>
</g>
<!-- magics -->
<g id="node9" class="node">
<title>magics</title>
<g id="a_node9"><a xlink:href="https://github.com/conda-forge/magics-feedstock/pull/120" xlink:title="magics ❎">
<ellipse fill="#31688e" stroke="black" cx="370.69" cy="-90" rx="58" ry="18"/>
<text text-anchor="middle" x="370.69" y="-86.3" font-family="Times,serif" font-size="14.00" fill="white">magics ❎</text>
</a>
</g>
</g>
<!-- magics&#45;&gt;cdo -->
<g id="edge10" class="edge">
<title>magics&#45;&gt;cdo</title>
<path fill="none" stroke="black" d="M370.69,-71.7C370.69,-64.41 370.69,-55.73 370.69,-47.54"/>
<polygon fill="black" stroke="black" points="374.19,-47.62 370.69,-37.62 367.19,-47.62 374.19,-47.62"/>
</g>
<!-- pyferret -->
<g id="node11" class="node">
<title>pyferret</title>
<g id="a_node11"><a xlink:href="https://github.com/conda-forge/pyferret-feedstock" xlink:title="pyferret">
<ellipse fill="#ff8c00" stroke="black" cx="128.69" cy="-754" rx="48.99" ry="18"/>
<text text-anchor="middle" x="128.69" y="-750.3" font-family="Times,serif" font-size="14.00">pyferret</text>
</a>
</g>
</g>
<!-- netcdf&#45;cxx4&#45;&gt;pyferret -->
<!-- pynio -->
<g id="node14" class="node">
<title>pynio</title>
<g id="a_node14"><a xlink:href="https://github.com/conda-forge/pynio-feedstock" xlink:title="pynio">
<ellipse fill="#35b779" stroke="black" cx="128.69" cy="-682" rx="36.5" ry="18"/>
<text text-anchor="middle" x="128.69" y="-678.3" font-family="Times,serif" font-size="14.00">pynio</text>
</a>
</g>
</g>
<!-- pyferret&#45;&gt;pynio -->
<!-- paraview -->
<g id="node12" class="node">
<title>paraview</title>
<g id="a_node12"><a xlink:href="https://github.com/conda-forge/paraview-feedstock" xlink:title="paraview">
<ellipse fill="#ff8c00" stroke="black" cx="128.69" cy="-90" rx="53.5" ry="18"/>
<text text-anchor="middle" x="128.69" y="-86.3" font-family="Times,serif" font-size="14.00">paraview</text>
</a>
</g>
</g>
<!-- lfric_reader -->
<g id="node13" class="node">
<title>lfric_reader</title>
<g id="a_node13"><a xlink:href="https://github.com/conda-forge/lfric_reader-feedstock" xlink:title="lfric_reader">
<ellipse fill="#fde725" stroke="black" cx="128.69" cy="-18" rx="64.5" ry="18"/>
<text text-anchor="middle" x="128.69" y="-14.3" font-family="Times,serif" font-size="14.00">lfric_reader</text>
</a>
</g>
</g>
<!-- paraview&#45;&gt;lfric_reader -->
<g id="edge13" class="edge">
<title>paraview&#45;&gt;lfric_reader</title>
<path fill="none" stroke="black" d="M128.69,-71.7C128.69,-64.41 128.69,-55.73 128.69,-47.54"/>
<polygon fill="black" stroke="black" points="132.19,-47.62 128.69,-37.62 125.19,-47.62 132.19,-47.62"/>
</g>
<!-- r&#45;rnetcdf -->
<g id="node15" class="node">
<title>r&#45;rnetcdf</title>
<g id="a_node15"><a xlink:href="https://github.com/conda-forge/r-rnetcdf-feedstock" xlink:title="r rnetcdf">
<ellipse fill="#ff8c00" stroke="black" cx="128.69" cy="-610" rx="52" ry="18"/>
<text text-anchor="middle" x="128.69" y="-606.3" font-family="Times,serif" font-size="14.00">r rnetcdf</text>
</a>
</g>
</g>
<!-- pynio&#45;&gt;r&#45;rnetcdf -->
<!-- wgrib2 -->
<g id="node18" class="node">
<title>wgrib2</title>
<g id="a_node18"><a xlink:href="https://github.com/conda-forge/wgrib2-feedstock" xlink:title="wgrib2">
<ellipse fill="#ff8c00" stroke="black" cx="128.69" cy="-538" rx="43.59" ry="18"/>
<text text-anchor="middle" x="128.69" y="-534.3" font-family="Times,serif" font-size="14.00">wgrib2</text>
</a>
</g>
</g>
<!-- r&#45;rnetcdf&#45;&gt;wgrib2 -->
<!-- r&#45;ncdf4 -->
<g id="node16" class="node">
<title>r&#45;ncdf4</title>
<g id="a_node16"><a xlink:href="https://github.com/conda-forge/r-ncdf4-feedstock" xlink:title="r ncdf4">
<ellipse fill="#ff8c00" stroke="black" cx="548.69" cy="-206" rx="44.39" ry="18"/>
<text text-anchor="middle" x="548.69" y="-202.3" font-family="Times,serif" font-size="14.00">r ncdf4</text>
</a>
</g>
</g>
<!-- r&#45;gdalcubes -->
<g id="node17" class="node">
<title>r&#45;gdalcubes</title>
<g id="a_node17"><a xlink:href="https://github.com/conda-forge/r-gdalcubes-feedstock" xlink:title="r gdalcubes">
<ellipse fill="#fde725" stroke="black" cx="548.69" cy="-134" rx="65" ry="18"/>
<text text-anchor="middle" x="548.69" y="-130.3" font-family="Times,serif" font-size="14.00">r gdalcubes</text>
</a>
</g>
</g>
<!-- r&#45;ncdf4&#45;&gt;r&#45;gdalcubes -->
<g id="edge16" class="edge">
<title>r&#45;ncdf4&#45;&gt;r&#45;gdalcubes</title>
<path fill="none" stroke="black" d="M548.69,-187.7C548.69,-180.41 548.69,-171.73 548.69,-163.54"/>
<polygon fill="black" stroke="black" points="552.19,-163.62 548.69,-153.62 545.19,-163.62 552.19,-163.62"/>
</g>
<!-- siesta -->
<g id="node19" class="node">
<title>siesta</title>
<g id="a_node19"><a xlink:href="https://github.com/conda-forge/siesta-feedstock" xlink:title="siesta">
<ellipse fill="#ff8c00" stroke="black" cx="128.69" cy="-466" rx="38.5" ry="18"/>
<text text-anchor="middle" x="128.69" y="-462.3" font-family="Times,serif" font-size="14.00">siesta</text>
</a>
</g>
</g>
<!-- wgrib2&#45;&gt;siesta -->
<!-- vic -->
<g id="node20" class="node">
<title>vic</title>
<g id="a_node20"><a xlink:href="https://github.com/conda-forge/vic-feedstock/pull/21" xlink:title="vic ❎">
<ellipse fill="#31688e" stroke="black" cx="128.69" cy="-394" rx="38.5" ry="18"/>
<text text-anchor="middle" x="128.69" y="-390.3" font-family="Times,serif" font-size="14.00" fill="white">vic ❎</text>
</a>
</g>
</g>
<!-- siesta&#45;&gt;vic -->
<!-- vmd&#45;python -->
<g id="node21" class="node">
<title>vmd&#45;python</title>
<g id="a_node21"><a xlink:href="https://github.com/conda-forge/vmd-python-feedstock/pull/30" xlink:title="vmd python ❎">
<ellipse fill="#31688e" stroke="black" cx="128.69" cy="-322" rx="80" ry="18"/>
<text text-anchor="middle" x="128.69" y="-318.3" font-family="Times,serif" font-size="14.00" fill="white">vmd python ❎</text>
</a>
</g>
</g>
<!-- vic&#45;&gt;vmd&#45;python -->
<!-- ambertools -->
<g id="node22" class="node">
<title>ambertools</title>
<g id="a_node22"><a xlink:href="https://github.com/conda-forge/ambertools-feedstock/pull/103" xlink:title="ambertools ✓">
<ellipse fill="#31688e" stroke="black" cx="128.69" cy="-250" rx="70.39" ry="18"/>
<text text-anchor="middle" x="128.69" y="-246.3" font-family="Times,serif" font-size="14.00" fill="white">ambertools ✓</text>
</a>
</g>
</g>
<!-- vmd&#45;python&#45;&gt;ambertools -->
<!-- metview -->
<g id="node23" class="node">
<title>metview</title>
<g id="a_node23"><a xlink:href="https://github.com/conda-forge/metview-feedstock" xlink:title="metview">
<ellipse fill="#fde725" stroke="black" cx="370.69" cy="-134" rx="50.09" ry="18"/>
<text text-anchor="middle" x="370.69" y="-130.3" font-family="Times,serif" font-size="14.00">metview</text>
</a>
</g>
</g>
<!-- fpocket -->
<g id="node24" class="node">
<title>fpocket</title>
<g id="a_node24"><a xlink:href="https://github.com/conda-forge/fpocket-feedstock/pull/19" xlink:title="fpocket ✓">
<ellipse fill="#31688e" stroke="black" cx="548.69" cy="-754" rx="52" ry="18"/>
<text text-anchor="middle" x="548.69" y="-750.3" font-family="Times,serif" font-size="14.00" fill="white">fpocket ✓</text>
</a>
</g>
</g>
<!-- nccmp -->
<g id="node25" class="node">
<title>nccmp</title>
<g id="a_node25"><a xlink:href="https://github.com/conda-forge/nccmp-feedstock" xlink:title="nccmp">
<ellipse fill="#ff8c00" stroke="black" cx="548.69" cy="-682" rx="41" ry="18"/>
<text text-anchor="middle" x="548.69" y="-678.3" font-family="Times,serif" font-size="14.00">nccmp</text>
</a>
</g>
</g>
<!-- fpocket&#45;&gt;nccmp -->
<!-- mdal -->
<g id="node29" class="node">
<title>mdal</title>
<g id="a_node29"><a xlink:href="https://github.com/conda-forge/mdal-feedstock" xlink:title="mdal">
<ellipse fill="#35b779" stroke="black" cx="548.69" cy="-610" rx="34" ry="18"/>
<text text-anchor="middle" x="548.69" y="-606.3" font-family="Times,serif" font-size="14.00">mdal</text>
</a>
</g>
</g>
<!-- nccmp&#45;&gt;mdal -->
<!-- magics&#45;metview -->
<g id="node26" class="node">
<title>magics&#45;metview</title>
<g id="a_node26"><a xlink:href="https://github.com/conda-forge/magics-metview-feedstock/pull/63" xlink:title="magics metview ❎">
<ellipse fill="#31688e" stroke="black" cx="370.69" cy="-206" rx="100.18" ry="18"/>
<text text-anchor="middle" x="370.69" y="-202.3" font-family="Times,serif" font-size="14.00" fill="white">magics metview ❎</text>
</a>
</g>
</g>
<!-- magics&#45;metview&#45;&gt;metview -->
<g id="edge23" class="edge">
<title>magics&#45;metview&#45;&gt;metview</title>
<path fill="none" stroke="black" d="M370.69,-187.7C370.69,-180.41 370.69,-171.73 370.69,-163.54"/>
<polygon fill="black" stroke="black" points="374.19,-163.62 370.69,-153.62 367.19,-163.62 374.19,-163.62"/>
</g>
<!-- magics&#45;metview&#45;batch -->
<g id="node27" class="node">
<title>magics&#45;metview&#45;batch</title>
<g id="a_node27"><a xlink:href="https://github.com/conda-forge/magics-metview-batch-feedstock/pull/54" xlink:title="magics metview batch ❎">
<ellipse fill="#31688e" stroke="black" cx="128.69" cy="-206" rx="128.88" ry="18"/>
<text text-anchor="middle" x="128.69" y="-202.3" font-family="Times,serif" font-size="14.00" fill="white">magics metview batch ❎</text>
</a>
</g>
</g>
<!-- metview&#45;batch -->
<g id="node28" class="node">
<title>metview&#45;batch</title>
<g id="a_node28"><a xlink:href="https://github.com/conda-forge/metview-batch-feedstock" xlink:title="metview batch">
<ellipse fill="#fde725" stroke="black" cx="128.69" cy="-134" rx="79.5" ry="18"/>
<text text-anchor="middle" x="128.69" y="-130.3" font-family="Times,serif" font-size="14.00">metview batch</text>
</a>
</g>
</g>
<!-- magics&#45;metview&#45;batch&#45;&gt;metview&#45;batch -->
<g id="edge24" class="edge">
<title>magics&#45;metview&#45;batch&#45;&gt;metview&#45;batch</title>
<path fill="none" stroke="black" d="M128.69,-187.7C128.69,-180.41 128.69,-171.73 128.69,-163.54"/>
<polygon fill="black" stroke="black" points="132.19,-163.62 128.69,-153.62 125.19,-163.62 132.19,-163.62"/>
</g>
<!-- fimex -->
<g id="node30" class="node">
<title>fimex</title>
<g id="a_node30"><a xlink:href="https://github.com/conda-forge/fimex-feedstock/pull/54" xlink:title="fimex ❎">
<ellipse fill="#31688e" stroke="black" cx="548.69" cy="-538" rx="50.09" ry="18"/>
<text text-anchor="middle" x="548.69" y="-534.3" font-family="Times,serif" font-size="14.00" fill="white">fimex ❎</text>
</a>
</g>
</g>
<!-- mdal&#45;&gt;fimex -->
<!-- loos -->
<g id="node31" class="node">
<title>loos</title>
<g id="a_node31"><a xlink:href="https://github.com/conda-forge/loos-feedstock/pull/9" xlink:title="loos ❎">
<ellipse fill="#31688e" stroke="black" cx="548.69" cy="-466" rx="43.59" ry="18"/>
<text text-anchor="middle" x="548.69" y="-462.3" font-family="Times,serif" font-size="14.00" fill="white">loos ❎</text>
</a>
</g>
</g>
<!-- fimex&#45;&gt;loos -->
</g>
</svg>
