<?xml version="1.0" encoding="UTF-8" standalone="no"?>
<!DOCTYPE svg PUBLIC "-//W3C//DTD SVG 1.1//EN"
 "http://www.w3.org/Graphics/SVG/1.1/DTD/svg11.dtd">
<!-- Generated by graphviz version 8.0.5 (20230506.1012)
 -->
<!-- Pages: 1 -->
<svg width="729pt" height="592pt"
 viewBox="0.00 0.00 729.05 592.00" xmlns="http://www.w3.org/2000/svg" xmlns:xlink="http://www.w3.org/1999/xlink">
<g id="graph0" class="graph" transform="scale(1 1) rotate(0) translate(4 588)">
<polygon fill="white" stroke="none" points="-4,4 -4,-588 725.05,-588 725.05,4 -4,4"/>
<!-- cdms2 -->
<g id="node1" class="node">
<title>cdms2</title>
<g id="a_node1"><a xlink:href="https://github.com/conda-forge/cdms2-feedstock" xlink:title="cdms2">
<ellipse fill="#fde725" stroke="black" cx="306.5" cy="-206" rx="43.84" ry="18"/>
<text text-anchor="middle" x="306.5" y="-201.32" font-family="Times,serif" font-size="14.00">cdms2</text>
</a>
</g>
</g>
<!-- cdtime -->
<g id="node2" class="node">
<title>cdtime</title>
<g id="a_node2"><a xlink:href="https://github.com/conda-forge/cdtime-feedstock" xlink:title="cdtime">
<ellipse fill="#fde725" stroke="black" cx="343.5" cy="-278" rx="45.42" ry="18"/>
<text text-anchor="middle" x="343.5" y="-273.32" font-family="Times,serif" font-size="14.00">cdtime</text>
</a>
</g>
</g>
<!-- cdtime&#45;&gt;cdms2 -->
<g id="edge1" class="edge">
<title>cdtime&#45;&gt;cdms2</title>
<path fill="none" stroke="black" d="M334.55,-260.05C330.32,-252.06 325.18,-242.33 320.46,-233.4"/>
<polygon fill="black" stroke="black" points="323.14,-231.99 315.38,-224.79 316.96,-235.27 323.14,-231.99"/>
</g>
<!-- libcdms -->
<g id="node3" class="node">
<title>libcdms</title>
<g id="a_node3"><a xlink:href="https://github.com/conda-forge/libcdms-feedstock" xlink:title="libcdms">
<ellipse fill="#fde725" stroke="black" cx="310.5" cy="-422" rx="50.16" ry="18"/>
<text text-anchor="middle" x="310.5" y="-417.32" font-family="Times,serif" font-size="14.00">libcdms</text>
</a>
</g>
</g>
<!-- libcdms&#45;&gt;cdms2 -->
<g id="edge2" class="edge">
<title>libcdms&#45;&gt;cdms2</title>
<path fill="none" stroke="black" d="M305.11,-404.04C296.48,-374.64 281.31,-312.36 289.5,-260 290.85,-251.37 293.37,-242.23 296.06,-234.01"/>
<polygon fill="black" stroke="black" points="299.61,-235.45 299.61,-224.86 293.01,-233.14 299.61,-235.45"/>
</g>
<!-- libcdms&#45;&gt;cdtime -->
<g id="edge3" class="edge">
<title>libcdms&#45;&gt;cdtime</title>
<path fill="none" stroke="black" d="M313.97,-403.55C317.61,-385.57 323.6,-356.74 329.5,-332 331.48,-323.73 333.78,-314.77 335.94,-306.62"/>
<polygon fill="black" stroke="black" points="339.54,-307.7 338.75,-297.13 332.78,-305.88 339.54,-307.7"/>
</g>
<!-- libdrs_f -->
<g id="node4" class="node">
<title>libdrs_f</title>
<g id="a_node4"><a xlink:href="https://github.com/conda-forge/libdrs_f-feedstock" xlink:title="libdrs_f">
<ellipse fill="#fde725" stroke="black" cx="387.5" cy="-350" rx="48.58" ry="18"/>
<text text-anchor="middle" x="387.5" y="-345.32" font-family="Times,serif" font-size="14.00">libdrs_f</text>
</a>
</g>
</g>
<!-- libcdms&#45;&gt;libdrs_f -->
<g id="edge4" class="edge">
<title>libcdms&#45;&gt;libdrs_f</title>
<path fill="none" stroke="black" d="M328.36,-404.76C338.27,-395.75 350.78,-384.39 361.73,-374.43"/>
<polygon fill="black" stroke="black" points="363.7,-377.46 368.74,-368.15 358.99,-372.28 363.7,-377.46"/>
</g>
<!-- libdrs_f&#45;&gt;cdms2 -->
<g id="edge5" class="edge">
<title>libdrs_f&#45;&gt;cdms2</title>
<path fill="none" stroke="black" d="M395.11,-332.03C402.34,-313.16 410.37,-282.38 397.5,-260 387.28,-242.21 368.53,-229.84 350.7,-221.54"/>
<polygon fill="black" stroke="black" points="352.52,-218.08 341.95,-217.35 349.75,-224.51 352.52,-218.08"/>
</g>
<!-- libdrs_f&#45;&gt;cdtime -->
<g id="edge6" class="edge">
<title>libdrs_f&#45;&gt;cdtime</title>
<path fill="none" stroke="black" d="M376.85,-332.05C371.72,-323.89 365.45,-313.91 359.74,-304.82"/>
<polygon fill="black" stroke="black" points="362.34,-303.39 354.06,-296.79 356.41,-307.12 362.34,-303.39"/>
</g>
<!-- libdrs -->
<g id="node5" class="node">
<title>libdrs</title>
<g id="a_node5"><a xlink:href="https://github.com/conda-forge/libdrs-feedstock/pull/45" xlink:title="libdrs ✓">
<ellipse fill="#31688e" stroke="black" cx="271.5" cy="-494" rx="48.05" ry="18"/>
<text text-anchor="middle" x="271.5" y="-489.32" font-family="Times,serif" font-size="14.00" fill="white">libdrs ✓</text>
</a>
</g>
</g>
<!-- libdrs&#45;&gt;cdms2 -->
<g id="edge7" class="edge">
<title>libdrs&#45;&gt;cdms2</title>
<path fill="none" stroke="black" d="M263.2,-475.79C258.76,-465.63 253.76,-452.38 251.5,-440 248.63,-424.26 249.76,-419.9 251.5,-404 258.66,-338.83 263.25,-322.35 283.5,-260 286.34,-251.28 290.08,-242.03 293.72,-233.74"/>
<polygon fill="black" stroke="black" points="297.25,-235.42 298.2,-224.87 290.88,-232.53 297.25,-235.42"/>
</g>
<!-- libdrs&#45;&gt;libcdms -->
<g id="edge8" class="edge">
<title>libdrs&#45;&gt;libcdms</title>
<path fill="none" stroke="black" d="M280.94,-476.05C285.45,-467.97 290.94,-458.12 295.96,-449.11"/>
<polygon fill="black" stroke="black" points="299.34,-451.23 301.15,-440.79 293.22,-447.82 299.34,-451.23"/>
</g>
<!-- netcdf&#45;cxx4 -->
<g id="node6" class="node">
<title>netcdf&#45;cxx4</title>
<g id="a_node6"><a xlink:href="https://github.com/conda-forge/netcdf-cxx4-feedstock" xlink:title="netcdf cxx4">
<ellipse fill="#ff8c00" stroke="black" cx="107.5" cy="-566" rx="69.1" ry="18"/>
<text text-anchor="middle" x="107.5" y="-561.33" font-family="Times,serif" font-size="14.00">netcdf cxx4</text>
</a>
</g>
</g>
<!-- pynio -->
<g id="node7" class="node">
<title>pynio</title>
<g id="a_node7"><a xlink:href="https://github.com/conda-forge/pynio-feedstock/pull/129" xlink:title="pynio ❎">
<ellipse fill="#31688e" stroke="black" cx="107.5" cy="-494" rx="53.84" ry="18"/>
<text text-anchor="middle" x="107.5" y="-489.32" font-family="Times,serif" font-size="14.00" fill="white">pynio ❎</text>
</a>
</g>
</g>
<!-- netcdf&#45;cxx4&#45;&gt;pynio -->
<!-- siesta -->
<g id="node8" class="node">
<title>siesta</title>
<g id="a_node8"><a xlink:href="https://github.com/conda-forge/siesta-feedstock" xlink:title="siesta">
<ellipse fill="#ff8c00" stroke="black" cx="107.5" cy="-422" rx="40.69" ry="18"/>
<text text-anchor="middle" x="107.5" y="-417.32" font-family="Times,serif" font-size="14.00">siesta</text>
</a>
</g>
</g>
<!-- pynio&#45;&gt;siesta -->
<!-- vic -->
<g id="node9" class="node">
<title>vic</title>
<g id="a_node9"><a xlink:href="https://github.com/conda-forge/vic-feedstock/pull/21" xlink:title="vic ❎">
<ellipse fill="#31688e" stroke="black" cx="107.5" cy="-350" rx="40.69" ry="18"/>
<text text-anchor="middle" x="107.5" y="-345.32" font-family="Times,serif" font-size="14.00" fill="white">vic ❎</text>
</a>
</g>
</g>
<!-- siesta&#45;&gt;vic -->
<!-- vmd&#45;python -->
<g id="node10" class="node">
<title>vmd&#45;python</title>
<g id="a_node10"><a xlink:href="https://github.com/conda-forge/vmd-python-feedstock/pull/30" xlink:title="vmd python ❎">
<ellipse fill="#31688e" stroke="black" cx="107.5" cy="-278" rx="85.93" ry="18"/>
<text text-anchor="middle" x="107.5" y="-273.32" font-family="Times,serif" font-size="14.00" fill="white">vmd python ❎</text>
</a>
</g>
</g>
<!-- vic&#45;&gt;vmd&#45;python -->
<!-- fimex -->
<g id="node11" class="node">
<title>fimex</title>
<g id="a_node11"><a xlink:href="https://github.com/conda-forge/fimex-feedstock/pull/54" xlink:title="fimex ❎">
<ellipse fill="#31688e" stroke="black" cx="107.5" cy="-206" rx="53.84" ry="18"/>
<text text-anchor="middle" x="107.5" y="-201.33" font-family="Times,serif" font-size="14.00" fill="white">fimex ❎</text>
</a>
</g>
</g>
<!-- vmd&#45;python&#45;&gt;fimex -->
<!-- loos -->
<g id="node16" class="node">
<title>loos</title>
<g id="a_node16"><a xlink:href="https://github.com/conda-forge/loos-feedstock/pull/10" xlink:title="loos ❎">
<ellipse fill="#31688e" stroke="black" cx="107.5" cy="-134" rx="46.47" ry="18"/>
<text text-anchor="middle" x="107.5" y="-129.32" font-family="Times,serif" font-size="14.00" fill="white">loos ❎</text>
</a>
</g>
</g>
<!-- fimex&#45;&gt;loos -->
<!-- metview -->
<g id="node12" class="node">
<title>metview</title>
<g id="a_node12"><a xlink:href="https://github.com/conda-forge/metview-feedstock" xlink:title="metview">
<ellipse fill="#fde725" stroke="black" cx="107.5" cy="-18" rx="53.84" ry="18"/>
<text text-anchor="middle" x="107.5" y="-13.32" font-family="Times,serif" font-size="14.00">metview</text>
</a>
</g>
</g>
<!-- magics&#45;metview -->
<g id="node13" class="node">
<title>magics&#45;metview</title>
<g id="a_node13"><a xlink:href="https://github.com/conda-forge/magics-metview-feedstock/pull/67" xlink:title="magics metview ❎">
<ellipse fill="#31688e" stroke="black" cx="107.5" cy="-90" rx="107.5" ry="18"/>
<text text-anchor="middle" x="107.5" y="-85.33" font-family="Times,serif" font-size="14.00" fill="white">magics metview ❎</text>
</a>
</g>
</g>
<!-- magics&#45;metview&#45;&gt;metview -->
<g id="edge14" class="edge">
<title>magics&#45;metview&#45;&gt;metview</title>
<path fill="none" stroke="black" d="M107.5,-71.7C107.5,-64.24 107.5,-55.32 107.5,-46.97"/>
<polygon fill="black" stroke="black" points="111,-47.1 107.5,-37.1 104,-47.1 111,-47.1"/>
</g>
<!-- magics&#45;metview&#45;batch -->
<g id="node14" class="node">
<title>magics&#45;metview&#45;batch</title>
<g id="a_node14"><a xlink:href="https://github.com/conda-forge/magics-metview-batch-feedstock/pull/58" xlink:title="magics metview batch ❎">
<ellipse fill="#31688e" stroke="black" cx="582.5" cy="-386" rx="138.54" ry="18"/>
<text text-anchor="middle" x="582.5" y="-381.32" font-family="Times,serif" font-size="14.00" fill="white">magics metview batch ❎</text>
</a>
</g>
</g>
<!-- metview&#45;batch -->
<g id="node15" class="node">
<title>metview&#45;batch</title>
<g id="a_node15"><a xlink:href="https://github.com/conda-forge/metview-batch-feedstock" xlink:title="metview batch">
<ellipse fill="#fde725" stroke="black" cx="582.5" cy="-314" rx="84.88" ry="18"/>
<text text-anchor="middle" x="582.5" y="-309.32" font-family="Times,serif" font-size="14.00">metview batch</text>
</a>
</g>
</g>
<!-- magics&#45;metview&#45;batch&#45;&gt;metview&#45;batch -->
<g id="edge15" class="edge">
<title>magics&#45;metview&#45;batch&#45;&gt;metview&#45;batch</title>
<path fill="none" stroke="black" d="M582.5,-367.7C582.5,-360.24 582.5,-351.32 582.5,-342.97"/>
<polygon fill="black" stroke="black" points="586,-343.1 582.5,-333.1 579,-343.1 586,-343.1"/>
</g>
</g>
</svg>
