<?xml version="1.0" encoding="UTF-8" standalone="no"?>
<!DOCTYPE svg PUBLIC "-//W3C//DTD SVG 1.1//EN"
 "http://www.w3.org/Graphics/SVG/1.1/DTD/svg11.dtd">
<!-- Generated by graphviz version 8.0.5 (20230506.1012)
 -->
<!-- Pages: 1 -->
<svg width="736pt" height="808pt"
 viewBox="0.00 0.00 736.05 808.00" xmlns="http://www.w3.org/2000/svg" xmlns:xlink="http://www.w3.org/1999/xlink">
<g id="graph0" class="graph" transform="scale(1 1) rotate(0) translate(4 804)">
<polygon fill="white" stroke="none" points="-4,4 -4,-804 732.05,-804 732.05,4 -4,4"/>
<!-- cdms2 -->
<g id="node1" class="node">
<title>cdms2</title>
<g id="a_node1"><a xlink:href="https://github.com/conda-forge/cdms2-feedstock" xlink:title="cdms2">
<ellipse fill="#fde725" stroke="black" cx="313.5" cy="-314" rx="43.84" ry="18"/>
<text text-anchor="middle" x="313.5" y="-309.32" font-family="Times,serif" font-size="14.00">cdms2</text>
</a>
</g>
</g>
<!-- cdo -->
<g id="node2" class="node">
<title>cdo</title>
<g id="a_node2"><a xlink:href="https://github.com/conda-forge/cdo-feedstock" xlink:title="cdo">
<ellipse fill="#fde725" stroke="black" cx="333.5" cy="-18" rx="28.59" ry="18"/>
<text text-anchor="middle" x="333.5" y="-13.32" font-family="Times,serif" font-size="14.00">cdo</text>
</a>
</g>
</g>
<!-- cdtime -->
<g id="node3" class="node">
<title>cdtime</title>
<g id="a_node3"><a xlink:href="https://github.com/conda-forge/cdtime-feedstock" xlink:title="cdtime">
<ellipse fill="#fde725" stroke="black" cx="350.5" cy="-386" rx="45.42" ry="18"/>
<text text-anchor="middle" x="350.5" y="-381.32" font-family="Times,serif" font-size="14.00">cdtime</text>
</a>
</g>
</g>
<!-- cdtime&#45;&gt;cdms2 -->
<g id="edge1" class="edge">
<title>cdtime&#45;&gt;cdms2</title>
<path fill="none" stroke="black" d="M341.55,-368.05C337.32,-360.06 332.18,-350.33 327.46,-341.4"/>
<polygon fill="black" stroke="black" points="330.14,-339.99 322.38,-332.79 323.96,-343.27 330.14,-339.99"/>
</g>
<!-- libcdms -->
<g id="node4" class="node">
<title>libcdms</title>
<g id="a_node4"><a xlink:href="https://github.com/conda-forge/libcdms-feedstock" xlink:title="libcdms">
<ellipse fill="#fde725" stroke="black" cx="317.5" cy="-530" rx="50.16" ry="18"/>
<text text-anchor="middle" x="317.5" y="-525.33" font-family="Times,serif" font-size="14.00">libcdms</text>
</a>
</g>
</g>
<!-- libcdms&#45;&gt;cdms2 -->
<g id="edge2" class="edge">
<title>libcdms&#45;&gt;cdms2</title>
<path fill="none" stroke="black" d="M312.11,-512.04C303.48,-482.64 288.31,-420.36 296.5,-368 297.85,-359.37 300.37,-350.23 303.06,-342.01"/>
<polygon fill="black" stroke="black" points="306.61,-343.45 306.61,-332.86 300.01,-341.14 306.61,-343.45"/>
</g>
<!-- libcdms&#45;&gt;cdtime -->
<g id="edge3" class="edge">
<title>libcdms&#45;&gt;cdtime</title>
<path fill="none" stroke="black" d="M320.97,-511.55C324.61,-493.57 330.6,-464.74 336.5,-440 338.48,-431.73 340.78,-422.77 342.94,-414.62"/>
<polygon fill="black" stroke="black" points="346.54,-415.7 345.75,-405.13 339.78,-413.88 346.54,-415.7"/>
</g>
<!-- libdrs_f -->
<g id="node5" class="node">
<title>libdrs_f</title>
<g id="a_node5"><a xlink:href="https://github.com/conda-forge/libdrs_f-feedstock" xlink:title="libdrs_f">
<ellipse fill="#fde725" stroke="black" cx="394.5" cy="-458" rx="48.58" ry="18"/>
<text text-anchor="middle" x="394.5" y="-453.32" font-family="Times,serif" font-size="14.00">libdrs_f</text>
</a>
</g>
</g>
<!-- libcdms&#45;&gt;libdrs_f -->
<g id="edge4" class="edge">
<title>libcdms&#45;&gt;libdrs_f</title>
<path fill="none" stroke="black" d="M335.36,-512.76C345.27,-503.75 357.78,-492.39 368.73,-482.43"/>
<polygon fill="black" stroke="black" points="370.7,-485.46 375.74,-476.15 365.99,-480.28 370.7,-485.46"/>
</g>
<!-- libdrs_f&#45;&gt;cdms2 -->
<g id="edge5" class="edge">
<title>libdrs_f&#45;&gt;cdms2</title>
<path fill="none" stroke="black" d="M402.11,-440.03C409.34,-421.16 417.37,-390.38 404.5,-368 394.28,-350.21 375.53,-337.84 357.7,-329.54"/>
<polygon fill="black" stroke="black" points="359.52,-326.08 348.95,-325.35 356.75,-332.51 359.52,-326.08"/>
</g>
<!-- libdrs_f&#45;&gt;cdtime -->
<g id="edge6" class="edge">
<title>libdrs_f&#45;&gt;cdtime</title>
<path fill="none" stroke="black" d="M383.85,-440.05C378.72,-431.89 372.45,-421.91 366.74,-412.82"/>
<polygon fill="black" stroke="black" points="369.34,-411.39 361.06,-404.79 363.41,-415.12 369.34,-411.39"/>
</g>
<!-- libdrs -->
<g id="node6" class="node">
<title>libdrs</title>
<g id="a_node6"><a xlink:href="https://github.com/conda-forge/libdrs-feedstock/pull/45" xlink:title="libdrs ❎">
<ellipse fill="#31688e" stroke="black" cx="278.5" cy="-602" rx="55.42" ry="18"/>
<text text-anchor="middle" x="278.5" y="-597.33" font-family="Times,serif" font-size="14.00" fill="white">libdrs ❎</text>
</a>
</g>
</g>
<!-- libdrs&#45;&gt;cdms2 -->
<g id="edge7" class="edge">
<title>libdrs&#45;&gt;cdms2</title>
<path fill="none" stroke="black" d="M270.2,-583.79C265.76,-573.63 260.76,-560.38 258.5,-548 255.63,-532.26 256.76,-527.9 258.5,-512 265.66,-446.83 270.25,-430.35 290.5,-368 293.34,-359.28 297.08,-350.03 300.72,-341.74"/>
<polygon fill="black" stroke="black" points="304.25,-343.42 305.2,-332.87 297.88,-340.53 304.25,-343.42"/>
</g>
<!-- libdrs&#45;&gt;libcdms -->
<g id="edge8" class="edge">
<title>libdrs&#45;&gt;libcdms</title>
<path fill="none" stroke="black" d="M287.94,-584.05C292.45,-575.97 297.94,-566.12 302.96,-557.11"/>
<polygon fill="black" stroke="black" points="306.34,-559.23 308.15,-548.79 300.22,-555.82 306.34,-559.23"/>
</g>
<!-- magics -->
<g id="node7" class="node">
<title>magics</title>
<g id="a_node7"><a xlink:href="https://github.com/conda-forge/magics-feedstock/pull/120" xlink:title="magics ❎">
<ellipse fill="#31688e" stroke="black" cx="333.5" cy="-90" rx="61.73" ry="18"/>
<text text-anchor="middle" x="333.5" y="-85.33" font-family="Times,serif" font-size="14.00" fill="white">magics ❎</text>
</a>
</g>
</g>
<!-- magics&#45;&gt;cdo -->
<g id="edge9" class="edge">
<title>magics&#45;&gt;cdo</title>
<path fill="none" stroke="black" d="M333.5,-71.7C333.5,-64.24 333.5,-55.32 333.5,-46.97"/>
<polygon fill="black" stroke="black" points="337,-47.1 333.5,-37.1 330,-47.1 337,-47.1"/>
</g>
<!-- ncl -->
<g id="node8" class="node">
<title>ncl</title>
<g id="a_node8"><a xlink:href="https://github.com/conda-forge/ncl-feedstock" xlink:title="ncl">
<ellipse fill="#ff8c00" stroke="black" cx="107.5" cy="-782" rx="27" ry="18"/>
<text text-anchor="middle" x="107.5" y="-777.33" font-family="Times,serif" font-size="14.00">ncl</text>
</a>
</g>
</g>
<!-- netcdf&#45;cxx4 -->
<g id="node9" class="node">
<title>netcdf&#45;cxx4</title>
<g id="a_node9"><a xlink:href="https://github.com/conda-forge/netcdf-cxx4-feedstock" xlink:title="netcdf cxx4">
<ellipse fill="#ff8c00" stroke="black" cx="107.5" cy="-710" rx="69.1" ry="18"/>
<text text-anchor="middle" x="107.5" y="-705.33" font-family="Times,serif" font-size="14.00">netcdf cxx4</text>
</a>
</g>
</g>
<!-- ncl&#45;&gt;netcdf&#45;cxx4 -->
<!-- pyferret -->
<g id="node10" class="node">
<title>pyferret</title>
<g id="a_node10"><a xlink:href="https://github.com/conda-forge/pyferret-feedstock" xlink:title="pyferret">
<ellipse fill="#ff8c00" stroke="black" cx="107.5" cy="-638" rx="52.26" ry="18"/>
<text text-anchor="middle" x="107.5" y="-633.33" font-family="Times,serif" font-size="14.00">pyferret</text>
</a>
</g>
</g>
<!-- netcdf&#45;cxx4&#45;&gt;pyferret -->
<!-- pynio -->
<g id="node11" class="node">
<title>pynio</title>
<g id="a_node11"><a xlink:href="https://github.com/conda-forge/pynio-feedstock/pull/129" xlink:title="pynio ❎">
<ellipse fill="#31688e" stroke="black" cx="107.5" cy="-566" rx="53.84" ry="18"/>
<text text-anchor="middle" x="107.5" y="-561.33" font-family="Times,serif" font-size="14.00" fill="white">pynio ❎</text>
</a>
</g>
</g>
<!-- pyferret&#45;&gt;pynio -->
<!-- wgrib2 -->
<g id="node12" class="node">
<title>wgrib2</title>
<g id="a_node12"><a xlink:href="https://github.com/conda-forge/wgrib2-feedstock" xlink:title="wgrib2">
<ellipse fill="#ff8c00" stroke="black" cx="107.5" cy="-494" rx="46.47" ry="18"/>
<text text-anchor="middle" x="107.5" y="-489.32" font-family="Times,serif" font-size="14.00">wgrib2</text>
</a>
</g>
</g>
<!-- pynio&#45;&gt;wgrib2 -->
<!-- siesta -->
<g id="node13" class="node">
<title>siesta</title>
<g id="a_node13"><a xlink:href="https://github.com/conda-forge/siesta-feedstock" xlink:title="siesta">
<ellipse fill="#ff8c00" stroke="black" cx="107.5" cy="-422" rx="40.69" ry="18"/>
<text text-anchor="middle" x="107.5" y="-417.32" font-family="Times,serif" font-size="14.00">siesta</text>
</a>
</g>
</g>
<!-- wgrib2&#45;&gt;siesta -->
<!-- vic -->
<g id="node14" class="node">
<title>vic</title>
<g id="a_node14"><a xlink:href="https://github.com/conda-forge/vic-feedstock/pull/21" xlink:title="vic ❎">
<ellipse fill="#31688e" stroke="black" cx="107.5" cy="-350" rx="40.69" ry="18"/>
<text text-anchor="middle" x="107.5" y="-345.32" font-family="Times,serif" font-size="14.00" fill="white">vic ❎</text>
</a>
</g>
</g>
<!-- siesta&#45;&gt;vic -->
<!-- vmd&#45;python -->
<g id="node15" class="node">
<title>vmd&#45;python</title>
<g id="a_node15"><a xlink:href="https://github.com/conda-forge/vmd-python-feedstock/pull/30" xlink:title="vmd python ❎">
<ellipse fill="#31688e" stroke="black" cx="107.5" cy="-278" rx="85.93" ry="18"/>
<text text-anchor="middle" x="107.5" y="-273.32" font-family="Times,serif" font-size="14.00" fill="white">vmd python ❎</text>
</a>
</g>
</g>
<!-- vic&#45;&gt;vmd&#45;python -->
<!-- fimex -->
<g id="node16" class="node">
<title>fimex</title>
<g id="a_node16"><a xlink:href="https://github.com/conda-forge/fimex-feedstock/pull/54" xlink:title="fimex ❎">
<ellipse fill="#31688e" stroke="black" cx="107.5" cy="-206" rx="53.84" ry="18"/>
<text text-anchor="middle" x="107.5" y="-201.33" font-family="Times,serif" font-size="14.00" fill="white">fimex ❎</text>
</a>
</g>
</g>
<!-- vmd&#45;python&#45;&gt;fimex -->
<!-- loos -->
<g id="node21" class="node">
<title>loos</title>
<g id="a_node21"><a xlink:href="https://github.com/conda-forge/loos-feedstock/pull/10" xlink:title="loos ❎">
<ellipse fill="#31688e" stroke="black" cx="107.5" cy="-134" rx="46.47" ry="18"/>
<text text-anchor="middle" x="107.5" y="-129.32" font-family="Times,serif" font-size="14.00" fill="white">loos ❎</text>
</a>
</g>
</g>
<!-- fimex&#45;&gt;loos -->
<!-- metview -->
<g id="node17" class="node">
<title>metview</title>
<g id="a_node17"><a xlink:href="https://github.com/conda-forge/metview-feedstock" xlink:title="metview">
<ellipse fill="#fde725" stroke="black" cx="107.5" cy="-18" rx="53.84" ry="18"/>
<text text-anchor="middle" x="107.5" y="-13.32" font-family="Times,serif" font-size="14.00">metview</text>
</a>
</g>
</g>
<!-- magics&#45;metview -->
<g id="node18" class="node">
<title>magics&#45;metview</title>
<g id="a_node18"><a xlink:href="https://github.com/conda-forge/magics-metview-feedstock/pull/63" xlink:title="magics metview ❎">
<ellipse fill="#31688e" stroke="black" cx="107.5" cy="-90" rx="107.5" ry="18"/>
<text text-anchor="middle" x="107.5" y="-85.33" font-family="Times,serif" font-size="14.00" fill="white">magics metview ❎</text>
</a>
</g>
</g>
<!-- magics&#45;metview&#45;&gt;metview -->
<g id="edge18" class="edge">
<title>magics&#45;metview&#45;&gt;metview</title>
<path fill="none" stroke="black" d="M107.5,-71.7C107.5,-64.24 107.5,-55.32 107.5,-46.97"/>
<polygon fill="black" stroke="black" points="111,-47.1 107.5,-37.1 104,-47.1 111,-47.1"/>
</g>
<!-- magics&#45;metview&#45;batch -->
<g id="node19" class="node">
<title>magics&#45;metview&#45;batch</title>
<g id="a_node19"><a xlink:href="https://github.com/conda-forge/magics-metview-batch-feedstock/pull/54" xlink:title="magics metview batch ❎">
<ellipse fill="#31688e" stroke="black" cx="589.5" cy="-494" rx="138.54" ry="18"/>
<text text-anchor="middle" x="589.5" y="-489.32" font-family="Times,serif" font-size="14.00" fill="white">magics metview batch ❎</text>
</a>
</g>
</g>
<!-- metview&#45;batch -->
<g id="node20" class="node">
<title>metview&#45;batch</title>
<g id="a_node20"><a xlink:href="https://github.com/conda-forge/metview-batch-feedstock" xlink:title="metview batch">
<ellipse fill="#fde725" stroke="black" cx="589.5" cy="-422" rx="84.88" ry="18"/>
<text text-anchor="middle" x="589.5" y="-417.32" font-family="Times,serif" font-size="14.00">metview batch</text>
</a>
</g>
</g>
<!-- magics&#45;metview&#45;batch&#45;&gt;metview&#45;batch -->
<g id="edge19" class="edge">
<title>magics&#45;metview&#45;batch&#45;&gt;metview&#45;batch</title>
<path fill="none" stroke="black" d="M589.5,-475.7C589.5,-468.24 589.5,-459.32 589.5,-450.97"/>
<polygon fill="black" stroke="black" points="593,-451.1 589.5,-441.1 586,-451.1 593,-451.1"/>
</g>
</g>
</svg>
