<?xml version="1.0" encoding="UTF-8" standalone="no"?>
<!DOCTYPE svg PUBLIC "-//W3C//DTD SVG 1.1//EN"
 "http://www.w3.org/Graphics/SVG/1.1/DTD/svg11.dtd">
<!-- Generated by graphviz version 8.0.5 (20230506.1012)
 -->
<!-- Pages: 1 -->
<svg width="736pt" height="924pt"
 viewBox="0.00 0.00 736.05 924.00" xmlns="http://www.w3.org/2000/svg" xmlns:xlink="http://www.w3.org/1999/xlink">
<g id="graph0" class="graph" transform="scale(1 1) rotate(0) translate(4 920)">
<polygon fill="white" stroke="none" points="-4,4 -4,-920 732.05,-920 732.05,4 -4,4"/>
<!-- cdms2 -->
<g id="node1" class="node">
<title>cdms2</title>
<g id="a_node1"><a xlink:href="https://github.com/conda-forge/cdms2-feedstock" xlink:title="cdms2">
<ellipse fill="#fde725" stroke="black" cx="313.5" cy="-394" rx="43.84" ry="18"/>
<text text-anchor="middle" x="313.5" y="-389.32" font-family="Times,serif" font-size="14.00">cdms2</text>
</a>
</g>
</g>
<!-- cdo -->
<g id="node2" class="node">
<title>cdo</title>
<g id="a_node2"><a xlink:href="https://github.com/conda-forge/cdo-feedstock" xlink:title="cdo">
<ellipse fill="#fde725" stroke="black" cx="589.5" cy="-62" rx="28.59" ry="18"/>
<text text-anchor="middle" x="589.5" y="-57.33" font-family="Times,serif" font-size="14.00">cdo</text>
</a>
</g>
</g>
<!-- cdtime -->
<g id="node3" class="node">
<title>cdtime</title>
<g id="a_node3"><a xlink:href="https://github.com/conda-forge/cdtime-feedstock" xlink:title="cdtime">
<ellipse fill="#fde725" stroke="black" cx="350.5" cy="-466" rx="45.42" ry="18"/>
<text text-anchor="middle" x="350.5" y="-461.32" font-family="Times,serif" font-size="14.00">cdtime</text>
</a>
</g>
</g>
<!-- cdtime&#45;&gt;cdms2 -->
<g id="edge1" class="edge">
<title>cdtime&#45;&gt;cdms2</title>
<path fill="none" stroke="black" d="M341.55,-448.05C337.32,-440.06 332.18,-430.33 327.46,-421.4"/>
<polygon fill="black" stroke="black" points="330.14,-419.99 322.38,-412.79 323.96,-423.27 330.14,-419.99"/>
</g>
<!-- libcdms -->
<g id="node4" class="node">
<title>libcdms</title>
<g id="a_node4"><a xlink:href="https://github.com/conda-forge/libcdms-feedstock" xlink:title="libcdms">
<ellipse fill="#fde725" stroke="black" cx="317.5" cy="-610" rx="50.16" ry="18"/>
<text text-anchor="middle" x="317.5" y="-605.33" font-family="Times,serif" font-size="14.00">libcdms</text>
</a>
</g>
</g>
<!-- libcdms&#45;&gt;cdms2 -->
<g id="edge2" class="edge">
<title>libcdms&#45;&gt;cdms2</title>
<path fill="none" stroke="black" d="M312.11,-592.04C303.48,-562.64 288.31,-500.36 296.5,-448 297.85,-439.37 300.37,-430.23 303.06,-422.01"/>
<polygon fill="black" stroke="black" points="306.61,-423.45 306.61,-412.86 300.01,-421.14 306.61,-423.45"/>
</g>
<!-- libcdms&#45;&gt;cdtime -->
<g id="edge3" class="edge">
<title>libcdms&#45;&gt;cdtime</title>
<path fill="none" stroke="black" d="M320.97,-591.55C324.61,-573.57 330.6,-544.74 336.5,-520 338.48,-511.73 340.78,-502.77 342.94,-494.62"/>
<polygon fill="black" stroke="black" points="346.54,-495.7 345.75,-485.13 339.78,-493.88 346.54,-495.7"/>
</g>
<!-- libdrs_f -->
<g id="node5" class="node">
<title>libdrs_f</title>
<g id="a_node5"><a xlink:href="https://github.com/conda-forge/libdrs_f-feedstock" xlink:title="libdrs_f">
<ellipse fill="#fde725" stroke="black" cx="394.5" cy="-538" rx="48.58" ry="18"/>
<text text-anchor="middle" x="394.5" y="-533.33" font-family="Times,serif" font-size="14.00">libdrs_f</text>
</a>
</g>
</g>
<!-- libcdms&#45;&gt;libdrs_f -->
<g id="edge4" class="edge">
<title>libcdms&#45;&gt;libdrs_f</title>
<path fill="none" stroke="black" d="M335.36,-592.76C345.27,-583.75 357.78,-572.39 368.73,-562.43"/>
<polygon fill="black" stroke="black" points="370.7,-565.46 375.74,-556.15 365.99,-560.28 370.7,-565.46"/>
</g>
<!-- libdrs_f&#45;&gt;cdms2 -->
<g id="edge5" class="edge">
<title>libdrs_f&#45;&gt;cdms2</title>
<path fill="none" stroke="black" d="M402.11,-520.03C409.34,-501.16 417.37,-470.38 404.5,-448 394.28,-430.21 375.53,-417.84 357.7,-409.54"/>
<polygon fill="black" stroke="black" points="359.52,-406.08 348.95,-405.35 356.75,-412.51 359.52,-406.08"/>
</g>
<!-- libdrs_f&#45;&gt;cdtime -->
<g id="edge6" class="edge">
<title>libdrs_f&#45;&gt;cdtime</title>
<path fill="none" stroke="black" d="M383.85,-520.05C378.72,-511.89 372.45,-501.91 366.74,-492.82"/>
<polygon fill="black" stroke="black" points="369.34,-491.39 361.06,-484.79 363.41,-495.12 369.34,-491.39"/>
</g>
<!-- libdrs -->
<g id="node6" class="node">
<title>libdrs</title>
<g id="a_node6"><a xlink:href="https://github.com/conda-forge/libdrs-feedstock/pull/45" xlink:title="libdrs ❎">
<ellipse fill="#31688e" stroke="black" cx="278.5" cy="-682" rx="55.42" ry="18"/>
<text text-anchor="middle" x="278.5" y="-677.33" font-family="Times,serif" font-size="14.00" fill="white">libdrs ❎</text>
</a>
</g>
</g>
<!-- libdrs&#45;&gt;cdms2 -->
<g id="edge7" class="edge">
<title>libdrs&#45;&gt;cdms2</title>
<path fill="none" stroke="black" d="M270.2,-663.79C265.76,-653.63 260.76,-640.38 258.5,-628 255.63,-612.26 256.76,-607.9 258.5,-592 265.66,-526.83 270.25,-510.35 290.5,-448 293.34,-439.28 297.08,-430.03 300.72,-421.74"/>
<polygon fill="black" stroke="black" points="304.25,-423.42 305.2,-412.87 297.88,-420.53 304.25,-423.42"/>
</g>
<!-- libdrs&#45;&gt;libcdms -->
<g id="edge8" class="edge">
<title>libdrs&#45;&gt;libcdms</title>
<path fill="none" stroke="black" d="M287.94,-664.05C292.45,-655.97 297.94,-646.12 302.96,-637.11"/>
<polygon fill="black" stroke="black" points="306.34,-639.23 308.15,-628.79 300.22,-635.82 306.34,-639.23"/>
</g>
<!-- magics -->
<g id="node7" class="node">
<title>magics</title>
<g id="a_node7"><a xlink:href="https://github.com/conda-forge/magics-feedstock/pull/120" xlink:title="magics ❎">
<ellipse fill="#31688e" stroke="black" cx="589.5" cy="-134" rx="61.73" ry="18"/>
<text text-anchor="middle" x="589.5" y="-129.32" font-family="Times,serif" font-size="14.00" fill="white">magics ❎</text>
</a>
</g>
</g>
<!-- magics&#45;&gt;cdo -->
<g id="edge9" class="edge">
<title>magics&#45;&gt;cdo</title>
<path fill="none" stroke="black" d="M589.5,-115.7C589.5,-108.24 589.5,-99.32 589.5,-90.97"/>
<polygon fill="black" stroke="black" points="593,-91.1 589.5,-81.1 586,-91.1 593,-91.1"/>
</g>
<!-- ncl -->
<g id="node8" class="node">
<title>ncl</title>
<g id="a_node8"><a xlink:href="https://github.com/conda-forge/ncl-feedstock" xlink:title="ncl">
<ellipse fill="#ff8c00" stroke="black" cx="107.5" cy="-898" rx="27" ry="18"/>
<text text-anchor="middle" x="107.5" y="-893.33" font-family="Times,serif" font-size="14.00">ncl</text>
</a>
</g>
</g>
<!-- netcdf&#45;cxx4 -->
<g id="node9" class="node">
<title>netcdf&#45;cxx4</title>
<g id="a_node9"><a xlink:href="https://github.com/conda-forge/netcdf-cxx4-feedstock" xlink:title="netcdf cxx4">
<ellipse fill="#ff8c00" stroke="black" cx="107.5" cy="-826" rx="69.1" ry="18"/>
<text text-anchor="middle" x="107.5" y="-821.33" font-family="Times,serif" font-size="14.00">netcdf cxx4</text>
</a>
</g>
</g>
<!-- ncl&#45;&gt;netcdf&#45;cxx4 -->
<!-- pyferret -->
<g id="node10" class="node">
<title>pyferret</title>
<g id="a_node10"><a xlink:href="https://github.com/conda-forge/pyferret-feedstock" xlink:title="pyferret">
<ellipse fill="#ff8c00" stroke="black" cx="107.5" cy="-754" rx="52.26" ry="18"/>
<text text-anchor="middle" x="107.5" y="-749.33" font-family="Times,serif" font-size="14.00">pyferret</text>
</a>
</g>
</g>
<!-- netcdf&#45;cxx4&#45;&gt;pyferret -->
<!-- pynio -->
<g id="node11" class="node">
<title>pynio</title>
<g id="a_node11"><a xlink:href="https://github.com/conda-forge/pynio-feedstock/pull/129" xlink:title="pynio ❎">
<ellipse fill="#31688e" stroke="black" cx="107.5" cy="-682" rx="53.84" ry="18"/>
<text text-anchor="middle" x="107.5" y="-677.33" font-family="Times,serif" font-size="14.00" fill="white">pynio ❎</text>
</a>
</g>
</g>
<!-- pyferret&#45;&gt;pynio -->
<!-- r&#45;rnetcdf -->
<g id="node12" class="node">
<title>r&#45;rnetcdf</title>
<g id="a_node12"><a xlink:href="https://github.com/conda-forge/r-rnetcdf-feedstock" xlink:title="r rnetcdf">
<ellipse fill="#ff8c00" stroke="black" cx="107.5" cy="-610" rx="55.42" ry="18"/>
<text text-anchor="middle" x="107.5" y="-605.33" font-family="Times,serif" font-size="14.00">r rnetcdf</text>
</a>
</g>
</g>
<!-- pynio&#45;&gt;r&#45;rnetcdf -->
<!-- wgrib2 -->
<g id="node15" class="node">
<title>wgrib2</title>
<g id="a_node15"><a xlink:href="https://github.com/conda-forge/wgrib2-feedstock" xlink:title="wgrib2">
<ellipse fill="#ff8c00" stroke="black" cx="107.5" cy="-538" rx="46.47" ry="18"/>
<text text-anchor="middle" x="107.5" y="-533.33" font-family="Times,serif" font-size="14.00">wgrib2</text>
</a>
</g>
</g>
<!-- r&#45;rnetcdf&#45;&gt;wgrib2 -->
<!-- r&#45;ncdf4 -->
<g id="node13" class="node">
<title>r&#45;ncdf4</title>
<g id="a_node13"><a xlink:href="https://github.com/conda-forge/r-ncdf4-feedstock" xlink:title="r ncdf4">
<ellipse fill="#ff8c00" stroke="black" cx="333.5" cy="-134" rx="47" ry="18"/>
<text text-anchor="middle" x="333.5" y="-129.32" font-family="Times,serif" font-size="14.00">r ncdf4</text>
</a>
</g>
</g>
<!-- r&#45;gdalcubes -->
<g id="node14" class="node">
<title>r&#45;gdalcubes</title>
<g id="a_node14"><a xlink:href="https://github.com/conda-forge/r-gdalcubes-feedstock" xlink:title="r gdalcubes">
<ellipse fill="#fde725" stroke="black" cx="333.5" cy="-62" rx="69.62" ry="18"/>
<text text-anchor="middle" x="333.5" y="-57.33" font-family="Times,serif" font-size="14.00">r gdalcubes</text>
</a>
</g>
</g>
<!-- r&#45;ncdf4&#45;&gt;r&#45;gdalcubes -->
<g id="edge14" class="edge">
<title>r&#45;ncdf4&#45;&gt;r&#45;gdalcubes</title>
<path fill="none" stroke="black" d="M333.5,-115.7C333.5,-108.24 333.5,-99.32 333.5,-90.97"/>
<polygon fill="black" stroke="black" points="337,-91.1 333.5,-81.1 330,-91.1 337,-91.1"/>
</g>
<!-- siesta -->
<g id="node16" class="node">
<title>siesta</title>
<g id="a_node16"><a xlink:href="https://github.com/conda-forge/siesta-feedstock" xlink:title="siesta">
<ellipse fill="#ff8c00" stroke="black" cx="107.5" cy="-466" rx="40.69" ry="18"/>
<text text-anchor="middle" x="107.5" y="-461.32" font-family="Times,serif" font-size="14.00">siesta</text>
</a>
</g>
</g>
<!-- wgrib2&#45;&gt;siesta -->
<!-- vic -->
<g id="node17" class="node">
<title>vic</title>
<g id="a_node17"><a xlink:href="https://github.com/conda-forge/vic-feedstock/pull/21" xlink:title="vic ❎">
<ellipse fill="#31688e" stroke="black" cx="107.5" cy="-394" rx="40.69" ry="18"/>
<text text-anchor="middle" x="107.5" y="-389.32" font-family="Times,serif" font-size="14.00" fill="white">vic ❎</text>
</a>
</g>
</g>
<!-- siesta&#45;&gt;vic -->
<!-- vmd&#45;python -->
<g id="node18" class="node">
<title>vmd&#45;python</title>
<g id="a_node18"><a xlink:href="https://github.com/conda-forge/vmd-python-feedstock/pull/30" xlink:title="vmd python ❎">
<ellipse fill="#31688e" stroke="black" cx="107.5" cy="-322" rx="85.93" ry="18"/>
<text text-anchor="middle" x="107.5" y="-317.32" font-family="Times,serif" font-size="14.00" fill="white">vmd python ❎</text>
</a>
</g>
</g>
<!-- vic&#45;&gt;vmd&#45;python -->
<!-- fimex -->
<g id="node19" class="node">
<title>fimex</title>
<g id="a_node19"><a xlink:href="https://github.com/conda-forge/fimex-feedstock/pull/54" xlink:title="fimex ❎">
<ellipse fill="#31688e" stroke="black" cx="107.5" cy="-250" rx="53.84" ry="18"/>
<text text-anchor="middle" x="107.5" y="-245.32" font-family="Times,serif" font-size="14.00" fill="white">fimex ❎</text>
</a>
</g>
</g>
<!-- vmd&#45;python&#45;&gt;fimex -->
<!-- lfric_reader -->
<g id="node24" class="node">
<title>lfric_reader</title>
<g id="a_node24"><a xlink:href="https://github.com/conda-forge/lfric_reader-feedstock/pull/16" xlink:title="lfric_reader ✓">
<ellipse fill="#31688e" stroke="black" cx="107.5" cy="-178" rx="76.99" ry="18"/>
<text text-anchor="middle" x="107.5" y="-173.32" font-family="Times,serif" font-size="14.00" fill="white">lfric_reader ✓</text>
</a>
</g>
</g>
<!-- fimex&#45;&gt;lfric_reader -->
<!-- metview -->
<g id="node20" class="node">
<title>metview</title>
<g id="a_node20"><a xlink:href="https://github.com/conda-forge/metview-feedstock" xlink:title="metview">
<ellipse fill="#fde725" stroke="black" cx="107.5" cy="-62" rx="53.84" ry="18"/>
<text text-anchor="middle" x="107.5" y="-57.33" font-family="Times,serif" font-size="14.00">metview</text>
</a>
</g>
</g>
<!-- magics&#45;metview -->
<g id="node21" class="node">
<title>magics&#45;metview</title>
<g id="a_node21"><a xlink:href="https://github.com/conda-forge/magics-metview-feedstock/pull/63" xlink:title="magics metview ❎">
<ellipse fill="#31688e" stroke="black" cx="107.5" cy="-134" rx="107.5" ry="18"/>
<text text-anchor="middle" x="107.5" y="-129.32" font-family="Times,serif" font-size="14.00" fill="white">magics metview ❎</text>
</a>
</g>
</g>
<!-- magics&#45;metview&#45;&gt;metview -->
<g id="edge20" class="edge">
<title>magics&#45;metview&#45;&gt;metview</title>
<path fill="none" stroke="black" d="M107.5,-115.7C107.5,-108.24 107.5,-99.32 107.5,-90.97"/>
<polygon fill="black" stroke="black" points="111,-91.1 107.5,-81.1 104,-91.1 111,-91.1"/>
</g>
<!-- magics&#45;metview&#45;batch -->
<g id="node22" class="node">
<title>magics&#45;metview&#45;batch</title>
<g id="a_node22"><a xlink:href="https://github.com/conda-forge/magics-metview-batch-feedstock/pull/54" xlink:title="magics metview batch ❎">
<ellipse fill="#31688e" stroke="black" cx="589.5" cy="-574" rx="138.54" ry="18"/>
<text text-anchor="middle" x="589.5" y="-569.33" font-family="Times,serif" font-size="14.00" fill="white">magics metview batch ❎</text>
</a>
</g>
</g>
<!-- metview&#45;batch -->
<g id="node23" class="node">
<title>metview&#45;batch</title>
<g id="a_node23"><a xlink:href="https://github.com/conda-forge/metview-batch-feedstock" xlink:title="metview batch">
<ellipse fill="#fde725" stroke="black" cx="589.5" cy="-502" rx="84.88" ry="18"/>
<text text-anchor="middle" x="589.5" y="-497.32" font-family="Times,serif" font-size="14.00">metview batch</text>
</a>
</g>
</g>
<!-- magics&#45;metview&#45;batch&#45;&gt;metview&#45;batch -->
<g id="edge21" class="edge">
<title>magics&#45;metview&#45;batch&#45;&gt;metview&#45;batch</title>
<path fill="none" stroke="black" d="M589.5,-555.7C589.5,-548.24 589.5,-539.32 589.5,-530.97"/>
<polygon fill="black" stroke="black" points="593,-531.1 589.5,-521.1 586,-531.1 593,-531.1"/>
</g>
<!-- loos -->
<g id="node25" class="node">
<title>loos</title>
<g id="a_node25"><a xlink:href="https://github.com/conda-forge/loos-feedstock/pull/10" xlink:title="loos ❎">
<ellipse fill="#31688e" stroke="black" cx="107.5" cy="-18" rx="46.47" ry="18"/>
<text text-anchor="middle" x="107.5" y="-13.32" font-family="Times,serif" font-size="14.00" fill="white">loos ❎</text>
</a>
</g>
</g>
</g>
</svg>
