<?xml version="1.0" encoding="UTF-8" standalone="no"?>
<!DOCTYPE svg PUBLIC "-//W3C//DTD SVG 1.1//EN"
 "http://www.w3.org/Graphics/SVG/1.1/DTD/svg11.dtd">
<!-- Generated by graphviz version 2.42.3 (20191010.1750)
 -->
<!-- Title: %3 Pages: 1 -->
<svg width="672pt" height="116pt"
 viewBox="0.00 0.00 671.88 116.00" xmlns="http://www.w3.org/2000/svg" xmlns:xlink="http://www.w3.org/1999/xlink">
<g id="graph0" class="graph" transform="scale(1 1) rotate(0) translate(4 112)">
<title>%3</title>
<polygon fill="white" stroke="transparent" points="-4,4 -4,-112 667.88,-112 667.88,4 -4,4"/>
<!-- ecmwf_grib -->
<g id="node1" class="node">
<title>ecmwf_grib</title>
<ellipse fill="#31688e" stroke="black" cx="93.59" cy="-90" rx="59.59" ry="18"/>
<text text-anchor="middle" x="93.59" y="-86.3" font-family="Times,serif" font-size="14.00" fill="white">ecmwf_grib</text>
</g>
<!-- python&#45;ecmwf_grib -->
<g id="node4" class="node">
<title>python&#45;ecmwf_grib</title>
<ellipse fill="#fde725" stroke="black" cx="93.59" cy="-18" rx="93.68" ry="18"/>
<text text-anchor="middle" x="93.59" y="-14.3" font-family="Times,serif" font-size="14.00">python ecmwf_grib</text>
</g>
<!-- ecmwf_grib&#45;&gt;python&#45;ecmwf_grib -->
<g id="edge1" class="edge">
<title>ecmwf_grib&#45;&gt;python&#45;ecmwf_grib</title>
<path fill="none" stroke="black" d="M93.59,-71.7C93.59,-63.98 93.59,-54.71 93.59,-46.11"/>
<polygon fill="black" stroke="black" points="97.09,-46.1 93.59,-36.1 90.09,-46.1 97.09,-46.1"/>
</g>
<!-- magics -->
<g id="node2" class="node">
<title>magics</title>
<ellipse fill="#31688e" stroke="black" cx="249.59" cy="-90" rx="40.09" ry="18"/>
<text text-anchor="middle" x="249.59" y="-86.3" font-family="Times,serif" font-size="14.00" fill="white">magics</text>
</g>
<!-- metview -->
<g id="node6" class="node">
<title>metview</title>
<ellipse fill="#fde725" stroke="black" cx="249.59" cy="-18" rx="44.69" ry="18"/>
<text text-anchor="middle" x="249.59" y="-14.3" font-family="Times,serif" font-size="14.00">metview</text>
</g>
<!-- magics&#45;&gt;metview -->
<g id="edge2" class="edge">
<title>magics&#45;&gt;metview</title>
<path fill="none" stroke="black" d="M249.59,-71.7C249.59,-63.98 249.59,-54.71 249.59,-46.11"/>
<polygon fill="black" stroke="black" points="253.09,-46.1 249.59,-36.1 246.09,-46.1 253.09,-46.1"/>
</g>
<!-- paraview -->
<g id="node3" class="node">
<title>paraview</title>
<ellipse fill="#31688e" stroke="black" cx="357.59" cy="-90" rx="50.09" ry="18"/>
<text text-anchor="middle" x="357.59" y="-86.3" font-family="Times,serif" font-size="14.00" fill="white">paraview</text>
</g>
<!-- cmor -->
<g id="node5" class="node">
<title>cmor</title>
<ellipse fill="#31688e" stroke="black" cx="456.59" cy="-90" rx="30.59" ry="18"/>
<text text-anchor="middle" x="456.59" y="-86.3" font-family="Times,serif" font-size="14.00" fill="white">cmor</text>
</g>
<!-- magics&#45;metview -->
<g id="node7" class="node">
<title>magics&#45;metview</title>
<ellipse fill="#31688e" stroke="black" cx="584.59" cy="-90" rx="79.09" ry="18"/>
<text text-anchor="middle" x="584.59" y="-86.3" font-family="Times,serif" font-size="14.00" fill="white">magics metview</text>
</g>
</g>
</svg>
