<?xml version="1.0" encoding="UTF-8" standalone="no"?>
<!DOCTYPE svg PUBLIC "-//W3C//DTD SVG 1.1//EN"
 "http://www.w3.org/Graphics/SVG/1.1/DTD/svg11.dtd">
<!-- Generated by graphviz version 7.1.0 (20230122.1345)
 -->
<!-- Pages: 1 -->
<svg width="1056pt" height="996pt"
 viewBox="0.00 0.00 1055.50 996.00" xmlns="http://www.w3.org/2000/svg" xmlns:xlink="http://www.w3.org/1999/xlink">
<g id="graph0" class="graph" transform="scale(1 1) rotate(0) translate(4 992)">
<polygon fill="white" stroke="none" points="-4,4 -4,-992 1051.5,-992 1051.5,4 -4,4"/>
<!-- cdms2 -->
<g id="node1" class="node">
<title>cdms2</title>
<g id="a_node1"><a xlink:href="https://github.com/conda-forge/cdms2-feedstock" xlink:title="cdms2">
<ellipse fill="#fde725" stroke="black" cx="123" cy="-538" rx="41" ry="18"/>
<text text-anchor="middle" x="123" y="-534.3" font-family="Times,serif" font-size="14.00">cdms2</text>
</a>
</g>
</g>
<!-- cdo -->
<g id="node2" class="node">
<title>cdo</title>
<g id="a_node2"><a xlink:href="https://github.com/conda-forge/cdo-feedstock" xlink:title="cdo">
<ellipse fill="#fde725" stroke="black" cx="933" cy="-134" rx="27" ry="18"/>
<text text-anchor="middle" x="933" y="-130.3" font-family="Times,serif" font-size="14.00">cdo</text>
</a>
</g>
</g>
<!-- cdtime -->
<g id="node3" class="node">
<title>cdtime</title>
<g id="a_node3"><a xlink:href="https://github.com/conda-forge/cdtime-feedstock" xlink:title="cdtime">
<ellipse fill="#fde725" stroke="black" cx="123" cy="-610" rx="42.49" ry="18"/>
<text text-anchor="middle" x="123" y="-606.3" font-family="Times,serif" font-size="14.00">cdtime</text>
</a>
</g>
</g>
<!-- cdtime&#45;&gt;cdms2 -->
<g id="edge1" class="edge">
<title>cdtime&#45;&gt;cdms2</title>
<path fill="none" stroke="black" d="M123,-591.7C123,-584.41 123,-575.73 123,-567.54"/>
<polygon fill="black" stroke="black" points="126.5,-567.62 123,-557.62 119.5,-567.62 126.5,-567.62"/>
</g>
<!-- esmf -->
<g id="node4" class="node">
<title>esmf</title>
<g id="a_node4"><a xlink:href="https://github.com/conda-forge/esmf-feedstock" xlink:title="esmf">
<ellipse fill="#35b779" stroke="black" cx="254" cy="-610" rx="33.29" ry="18"/>
<text text-anchor="middle" x="254" y="-606.3" font-family="Times,serif" font-size="14.00">esmf</text>
</a>
</g>
</g>
<!-- esmf&#45;&gt;cdms2 -->
<g id="edge2" class="edge">
<title>esmf&#45;&gt;cdms2</title>
<path fill="none" stroke="black" d="M230.88,-596.65C210.75,-585.89 181.27,-570.14 158.21,-557.81"/>
<polygon fill="black" stroke="black" points="159.92,-554.76 149.45,-553.14 156.63,-560.94 159.92,-554.76"/>
</g>
<!-- ncl -->
<g id="node5" class="node">
<title>ncl</title>
<g id="a_node5"><a xlink:href="https://github.com/conda-forge/ncl-feedstock" xlink:title="ncl">
<ellipse fill="#fde725" stroke="black" cx="303" cy="-538" rx="27" ry="18"/>
<text text-anchor="middle" x="303" y="-534.3" font-family="Times,serif" font-size="14.00">ncl</text>
</a>
</g>
</g>
<!-- esmf&#45;&gt;ncl -->
<g id="edge3" class="edge">
<title>esmf&#45;&gt;ncl</title>
<path fill="none" stroke="black" d="M265.36,-592.76C271.32,-584.25 278.75,-573.64 285.44,-564.09"/>
<polygon fill="black" stroke="black" points="288.3,-566.11 291.17,-555.91 282.56,-562.09 288.3,-566.11"/>
</g>
<!-- nco -->
<g id="node6" class="node">
<title>nco</title>
<g id="a_node6"><a xlink:href="https://github.com/conda-forge/nco-feedstock" xlink:title="nco">
<ellipse fill="#fde725" stroke="black" cx="231" cy="-538" rx="27" ry="18"/>
<text text-anchor="middle" x="231" y="-534.3" font-family="Times,serif" font-size="14.00">nco</text>
</a>
</g>
</g>
<!-- esmf&#45;&gt;nco -->
<g id="edge4" class="edge">
<title>esmf&#45;&gt;nco</title>
<path fill="none" stroke="black" d="M248.43,-592.05C245.92,-584.4 242.88,-575.16 240.05,-566.56"/>
<polygon fill="black" stroke="black" points="243.44,-565.63 236.99,-557.23 236.79,-567.82 243.44,-565.63"/>
</g>
<!-- gdal -->
<g id="node7" class="node">
<title>gdal</title>
<g id="a_node7"><a xlink:href="https://github.com/conda-forge/gdal-feedstock" xlink:title="gdal">
<ellipse fill="#ff8c00" stroke="black" cx="434" cy="-610" rx="30.59" ry="18"/>
<text text-anchor="middle" x="434" y="-606.3" font-family="Times,serif" font-size="14.00">gdal</text>
</a>
</g>
</g>
<!-- gdal&#45;&gt;ncl -->
<g id="edge5" class="edge">
<title>gdal&#45;&gt;ncl</title>
<path fill="none" stroke="black" d="M411.78,-597.13C390.28,-585.64 357.54,-568.14 333.59,-555.35"/>
<polygon fill="black" stroke="black" points="335.41,-552.35 324.94,-550.72 332.11,-558.52 335.41,-552.35"/>
</g>
<!-- gmt -->
<g id="node8" class="node">
<title>gmt</title>
<g id="a_node8"><a xlink:href="https://github.com/conda-forge/gmt-feedstock" xlink:title="gmt">
<ellipse fill="#fde725" stroke="black" cx="377" cy="-538" rx="29.5" ry="18"/>
<text text-anchor="middle" x="377" y="-534.3" font-family="Times,serif" font-size="14.00">gmt</text>
</a>
</g>
</g>
<!-- gdal&#45;&gt;gmt -->
<g id="edge6" class="edge">
<title>gdal&#45;&gt;gmt</title>
<path fill="none" stroke="black" d="M421.35,-593.46C414.12,-584.58 404.89,-573.25 396.73,-563.22"/>
<polygon fill="black" stroke="black" points="399.6,-561.21 390.57,-555.67 394.17,-565.63 399.6,-561.21"/>
</g>
<!-- pynio -->
<g id="node9" class="node">
<title>pynio</title>
<g id="a_node9"><a xlink:href="https://github.com/conda-forge/pynio-feedstock" xlink:title="pynio">
<ellipse fill="#fde725" stroke="black" cx="420" cy="-466" rx="36.5" ry="18"/>
<text text-anchor="middle" x="420" y="-462.3" font-family="Times,serif" font-size="14.00">pynio</text>
</a>
</g>
</g>
<!-- gdal&#45;&gt;pynio -->
<g id="edge7" class="edge">
<title>gdal&#45;&gt;pynio</title>
<path fill="none" stroke="black" d="M432.28,-591.59C429.92,-567.61 425.63,-524.14 422.8,-495.42"/>
<polygon fill="black" stroke="black" points="426.3,-495.23 421.84,-485.62 419.33,-495.91 426.3,-495.23"/>
</g>
<!-- mdal -->
<g id="node10" class="node">
<title>mdal</title>
<g id="a_node10"><a xlink:href="https://github.com/conda-forge/mdal-feedstock" xlink:title="mdal">
<ellipse fill="#fde725" stroke="black" cx="485" cy="-394" rx="34" ry="18"/>
<text text-anchor="middle" x="485" y="-390.3" font-family="Times,serif" font-size="14.00">mdal</text>
</a>
</g>
</g>
<!-- gdal&#45;&gt;mdal -->
<g id="edge8" class="edge">
<title>gdal&#45;&gt;mdal</title>
<path fill="none" stroke="black" d="M438.33,-592.05C444.43,-568.03 455.85,-522.73 465,-484 469.79,-463.71 474.95,-440.76 478.82,-423.24"/>
<polygon fill="black" stroke="black" points="482.22,-424.08 480.95,-413.57 475.38,-422.58 482.22,-424.08"/>
</g>
<!-- r&#45;gdalcubes -->
<g id="node11" class="node">
<title>r&#45;gdalcubes</title>
<g id="a_node11"><a xlink:href="https://github.com/conda-forge/r-gdalcubes-feedstock" xlink:title="r gdalcubes">
<ellipse fill="#fde725" stroke="black" cx="578" cy="-538" rx="65" ry="18"/>
<text text-anchor="middle" x="578" y="-534.3" font-family="Times,serif" font-size="14.00">r gdalcubes</text>
</a>
</g>
</g>
<!-- gdal&#45;&gt;r&#45;gdalcubes -->
<g id="edge9" class="edge">
<title>gdal&#45;&gt;r&#45;gdalcubes</title>
<path fill="none" stroke="black" d="M457.14,-597.75C478.52,-587.36 510.79,-571.67 536.6,-559.12"/>
<polygon fill="black" stroke="black" points="538.04,-562.32 545.5,-554.8 534.98,-556.02 538.04,-562.32"/>
</g>
<!-- libcdms -->
<g id="node12" class="node">
<title>libcdms</title>
<g id="a_node12"><a xlink:href="https://github.com/conda-forge/libcdms-feedstock" xlink:title="libcdms">
<ellipse fill="#fde725" stroke="black" cx="90" cy="-754" rx="47" ry="18"/>
<text text-anchor="middle" x="90" y="-750.3" font-family="Times,serif" font-size="14.00">libcdms</text>
</a>
</g>
</g>
<!-- libcdms&#45;&gt;cdms2 -->
<g id="edge10" class="edge">
<title>libcdms&#45;&gt;cdms2</title>
<path fill="none" stroke="black" d="M82.86,-735.82C71.41,-705.56 52.13,-641.3 72,-592 76.67,-580.42 85.21,-569.96 93.98,-561.44"/>
<polygon fill="black" stroke="black" points="96.13,-564.22 101.22,-554.92 91.45,-559.01 96.13,-564.22"/>
</g>
<!-- libcdms&#45;&gt;cdtime -->
<g id="edge11" class="edge">
<title>libcdms&#45;&gt;cdtime</title>
<path fill="none" stroke="black" d="M93.81,-735.58C97.76,-717.62 104.17,-688.82 110,-664 111.89,-655.94 114.01,-647.22 115.97,-639.21"/>
<polygon fill="black" stroke="black" points="119.34,-640.18 118.34,-629.63 112.54,-638.5 119.34,-640.18"/>
</g>
<!-- libdrs_f -->
<g id="node13" class="node">
<title>libdrs_f</title>
<g id="a_node13"><a xlink:href="https://github.com/conda-forge/libdrs_f-feedstock" xlink:title="libdrs_f">
<ellipse fill="#fde725" stroke="black" cx="165" cy="-682" rx="45.5" ry="18"/>
<text text-anchor="middle" x="165" y="-678.3" font-family="Times,serif" font-size="14.00">libdrs_f</text>
</a>
</g>
</g>
<!-- libcdms&#45;&gt;libdrs_f -->
<g id="edge12" class="edge">
<title>libcdms&#45;&gt;libdrs_f</title>
<path fill="none" stroke="black" d="M107.02,-737.12C116.64,-728.14 128.84,-716.74 139.58,-706.73"/>
<polygon fill="black" stroke="black" points="141.76,-709.48 146.68,-700.1 136.98,-704.36 141.76,-709.48"/>
</g>
<!-- libdrs_f&#45;&gt;cdms2 -->
<g id="edge13" class="edge">
<title>libdrs_f&#45;&gt;cdms2</title>
<path fill="none" stroke="black" d="M171.34,-663.93C177.15,-645.5 183.52,-615.62 174,-592 169.33,-580.42 160.79,-569.96 152.02,-561.44"/>
<polygon fill="black" stroke="black" points="154.55,-559.01 144.78,-554.92 149.87,-564.22 154.55,-559.01"/>
</g>
<!-- libdrs_f&#45;&gt;cdtime -->
<g id="edge14" class="edge">
<title>libdrs_f&#45;&gt;cdtime</title>
<path fill="none" stroke="black" d="M154.83,-664.05C150.04,-656.06 144.2,-646.33 138.84,-637.4"/>
<polygon fill="black" stroke="black" points="142,-635.86 133.85,-629.09 136,-639.46 142,-635.86"/>
</g>
<!-- libdrs -->
<g id="node14" class="node">
<title>libdrs</title>
<g id="a_node14"><a xlink:href="https://github.com/conda-forge/libdrs-feedstock/pull/45" xlink:title="libdrs ❎">
<ellipse fill="#31688e" stroke="black" cx="52" cy="-826" rx="52" ry="18"/>
<text text-anchor="middle" x="52" y="-822.3" font-family="Times,serif" font-size="14.00" fill="white">libdrs ❎</text>
</a>
</g>
</g>
<!-- libdrs&#45;&gt;cdms2 -->
<g id="edge15" class="edge">
<title>libdrs&#45;&gt;cdms2</title>
<path fill="none" stroke="black" d="M44.52,-807.7C40.53,-797.52 36.03,-784.27 34,-772 23.9,-710.84 58.84,-595.74 61,-592 68.26,-579.45 79.62,-568.47 90.65,-559.8"/>
<polygon fill="black" stroke="black" points="92.56,-562.74 98.52,-553.98 88.39,-557.11 92.56,-562.74"/>
</g>
<!-- libdrs&#45;&gt;libcdms -->
<g id="edge16" class="edge">
<title>libdrs&#45;&gt;libcdms</title>
<path fill="none" stroke="black" d="M61.2,-808.05C65.49,-800.14 70.71,-790.54 75.51,-781.69"/>
<polygon fill="black" stroke="black" points="78.47,-783.58 80.16,-773.12 72.32,-780.24 78.47,-783.58"/>
</g>
<!-- magics -->
<g id="node15" class="node">
<title>magics</title>
<g id="a_node15"><a xlink:href="https://github.com/conda-forge/magics-feedstock" xlink:title="magics">
<ellipse fill="#35b779" stroke="black" cx="933" cy="-206" rx="43.59" ry="18"/>
<text text-anchor="middle" x="933" y="-202.3" font-family="Times,serif" font-size="14.00">magics</text>
</a>
</g>
</g>
<!-- magics&#45;&gt;cdo -->
<g id="edge17" class="edge">
<title>magics&#45;&gt;cdo</title>
<path fill="none" stroke="black" d="M933,-187.7C933,-180.41 933,-171.73 933,-163.54"/>
<polygon fill="black" stroke="black" points="936.5,-163.62 933,-153.62 929.5,-163.62 936.5,-163.62"/>
</g>
<!-- netcdf&#45;cxx4 -->
<g id="node16" class="node">
<title>netcdf&#45;cxx4</title>
<g id="a_node16"><a xlink:href="https://github.com/conda-forge/netcdf-cxx4-feedstock" xlink:title="netcdf cxx4">
<ellipse fill="#ff8c00" stroke="black" cx="731" cy="-970" rx="64.5" ry="18"/>
<text text-anchor="middle" x="731" y="-966.3" font-family="Times,serif" font-size="14.00">netcdf cxx4</text>
</a>
</g>
</g>
<!-- pyferret -->
<g id="node17" class="node">
<title>pyferret</title>
<g id="a_node17"><a xlink:href="https://github.com/conda-forge/pyferret-feedstock" xlink:title="pyferret">
<ellipse fill="#ff8c00" stroke="black" cx="731" cy="-898" rx="48.99" ry="18"/>
<text text-anchor="middle" x="731" y="-894.3" font-family="Times,serif" font-size="14.00">pyferret</text>
</a>
</g>
</g>
<!-- netcdf&#45;cxx4&#45;&gt;pyferret -->
<!-- r&#45;rnetcdf -->
<g id="node20" class="node">
<title>r&#45;rnetcdf</title>
<g id="a_node20"><a xlink:href="https://github.com/conda-forge/r-rnetcdf-feedstock" xlink:title="r rnetcdf">
<ellipse fill="#ff8c00" stroke="black" cx="731" cy="-826" rx="52" ry="18"/>
<text text-anchor="middle" x="731" y="-822.3" font-family="Times,serif" font-size="14.00">r rnetcdf</text>
</a>
</g>
</g>
<!-- pyferret&#45;&gt;r&#45;rnetcdf -->
<!-- paraview -->
<g id="node18" class="node">
<title>paraview</title>
<g id="a_node18"><a xlink:href="https://github.com/conda-forge/paraview-feedstock" xlink:title="paraview">
<ellipse fill="#ff8c00" stroke="black" cx="731" cy="-206" rx="53.5" ry="18"/>
<text text-anchor="middle" x="731" y="-202.3" font-family="Times,serif" font-size="14.00">paraview</text>
</a>
</g>
</g>
<!-- lfric_reader -->
<g id="node19" class="node">
<title>lfric_reader</title>
<g id="a_node19"><a xlink:href="https://github.com/conda-forge/lfric_reader-feedstock" xlink:title="lfric_reader">
<ellipse fill="#fde725" stroke="black" cx="731" cy="-134" rx="64.5" ry="18"/>
<text text-anchor="middle" x="731" y="-130.3" font-family="Times,serif" font-size="14.00">lfric_reader</text>
</a>
</g>
</g>
<!-- paraview&#45;&gt;lfric_reader -->
<g id="edge19" class="edge">
<title>paraview&#45;&gt;lfric_reader</title>
<path fill="none" stroke="black" d="M731,-187.7C731,-180.41 731,-171.73 731,-163.54"/>
<polygon fill="black" stroke="black" points="734.5,-163.62 731,-153.62 727.5,-163.62 734.5,-163.62"/>
</g>
<!-- wgrib2 -->
<g id="node22" class="node">
<title>wgrib2</title>
<g id="a_node22"><a xlink:href="https://github.com/conda-forge/wgrib2-feedstock" xlink:title="wgrib2">
<ellipse fill="#ff8c00" stroke="black" cx="731" cy="-754" rx="43.59" ry="18"/>
<text text-anchor="middle" x="731" y="-750.3" font-family="Times,serif" font-size="14.00">wgrib2</text>
</a>
</g>
</g>
<!-- r&#45;rnetcdf&#45;&gt;wgrib2 -->
<!-- r&#45;ncdf4 -->
<g id="node21" class="node">
<title>r&#45;ncdf4</title>
<g id="a_node21"><a xlink:href="https://github.com/conda-forge/r-ncdf4-feedstock" xlink:title="r ncdf4">
<ellipse fill="#ff8c00" stroke="black" cx="578" cy="-610" rx="44.39" ry="18"/>
<text text-anchor="middle" x="578" y="-606.3" font-family="Times,serif" font-size="14.00">r ncdf4</text>
</a>
</g>
</g>
<!-- r&#45;ncdf4&#45;&gt;r&#45;gdalcubes -->
<g id="edge21" class="edge">
<title>r&#45;ncdf4&#45;&gt;r&#45;gdalcubes</title>
<path fill="none" stroke="black" d="M578,-591.7C578,-584.41 578,-575.73 578,-567.54"/>
<polygon fill="black" stroke="black" points="581.5,-567.62 578,-557.62 574.5,-567.62 581.5,-567.62"/>
</g>
<!-- siesta -->
<g id="node23" class="node">
<title>siesta</title>
<g id="a_node23"><a xlink:href="https://github.com/conda-forge/siesta-feedstock" xlink:title="siesta">
<ellipse fill="#ff8c00" stroke="black" cx="731" cy="-682" rx="38.5" ry="18"/>
<text text-anchor="middle" x="731" y="-678.3" font-family="Times,serif" font-size="14.00">siesta</text>
</a>
</g>
</g>
<!-- wgrib2&#45;&gt;siesta -->
<!-- vic -->
<g id="node24" class="node">
<title>vic</title>
<g id="a_node24"><a xlink:href="https://github.com/conda-forge/vic-feedstock/pull/21" xlink:title="vic ❎">
<ellipse fill="#31688e" stroke="black" cx="731" cy="-610" rx="38.5" ry="18"/>
<text text-anchor="middle" x="731" y="-606.3" font-family="Times,serif" font-size="14.00" fill="white">vic ❎</text>
</a>
</g>
</g>
<!-- siesta&#45;&gt;vic -->
<!-- vmd&#45;python -->
<g id="node25" class="node">
<title>vmd&#45;python</title>
<g id="a_node25"><a xlink:href="https://github.com/conda-forge/vmd-python-feedstock/pull/30" xlink:title="vmd python ❎">
<ellipse fill="#31688e" stroke="black" cx="731" cy="-538" rx="80" ry="18"/>
<text text-anchor="middle" x="731" y="-534.3" font-family="Times,serif" font-size="14.00" fill="white">vmd python ❎</text>
</a>
</g>
</g>
<!-- vic&#45;&gt;vmd&#45;python -->
<!-- ambertools -->
<g id="node26" class="node">
<title>ambertools</title>
<g id="a_node26"><a xlink:href="https://github.com/conda-forge/ambertools-feedstock/pull/103" xlink:title="ambertools ✓">
<ellipse fill="#31688e" stroke="black" cx="731" cy="-466" rx="70.39" ry="18"/>
<text text-anchor="middle" x="731" y="-462.3" font-family="Times,serif" font-size="14.00" fill="white">ambertools ✓</text>
</a>
</g>
</g>
<!-- vmd&#45;python&#45;&gt;ambertools -->
<!-- fpocket -->
<g id="node28" class="node">
<title>fpocket</title>
<g id="a_node28"><a xlink:href="https://github.com/conda-forge/fpocket-feedstock/pull/19" xlink:title="fpocket ✓">
<ellipse fill="#31688e" stroke="black" cx="731" cy="-394" rx="52" ry="18"/>
<text text-anchor="middle" x="731" y="-390.3" font-family="Times,serif" font-size="14.00" fill="white">fpocket ✓</text>
</a>
</g>
</g>
<!-- ambertools&#45;&gt;fpocket -->
<!-- metview -->
<g id="node27" class="node">
<title>metview</title>
<g id="a_node27"><a xlink:href="https://github.com/conda-forge/metview-feedstock" xlink:title="metview">
<ellipse fill="#fde725" stroke="black" cx="321" cy="-134" rx="50.09" ry="18"/>
<text text-anchor="middle" x="321" y="-130.3" font-family="Times,serif" font-size="14.00">metview</text>
</a>
</g>
</g>
<!-- nccmp -->
<g id="node29" class="node">
<title>nccmp</title>
<g id="a_node29"><a xlink:href="https://github.com/conda-forge/nccmp-feedstock" xlink:title="nccmp">
<ellipse fill="#ff8c00" stroke="black" cx="731" cy="-322" rx="41" ry="18"/>
<text text-anchor="middle" x="731" y="-318.3" font-family="Times,serif" font-size="14.00">nccmp</text>
</a>
</g>
</g>
<!-- fpocket&#45;&gt;nccmp -->
<!-- abinit -->
<g id="node33" class="node">
<title>abinit</title>
<g id="a_node33"><a xlink:href="https://github.com/conda-forge/abinit-feedstock/pull/47" xlink:title="abinit ✓">
<ellipse fill="#31688e" stroke="black" cx="731" cy="-250" rx="45" ry="18"/>
<text text-anchor="middle" x="731" y="-246.3" font-family="Times,serif" font-size="14.00" fill="white">abinit ✓</text>
</a>
</g>
</g>
<!-- nccmp&#45;&gt;abinit -->
<!-- magics&#45;metview -->
<g id="node30" class="node">
<title>magics&#45;metview</title>
<g id="a_node30"><a xlink:href="https://github.com/conda-forge/magics-metview-feedstock" xlink:title="magics metview">
<ellipse fill="#35b779" stroke="black" cx="321" cy="-206" rx="86" ry="18"/>
<text text-anchor="middle" x="321" y="-202.3" font-family="Times,serif" font-size="14.00">magics metview</text>
</a>
</g>
</g>
<!-- magics&#45;metview&#45;&gt;metview -->
<g id="edge29" class="edge">
<title>magics&#45;metview&#45;&gt;metview</title>
<path fill="none" stroke="black" d="M321,-187.7C321,-180.41 321,-171.73 321,-163.54"/>
<polygon fill="black" stroke="black" points="324.5,-163.62 321,-153.62 317.5,-163.62 324.5,-163.62"/>
</g>
<!-- magics&#45;metview&#45;batch -->
<g id="node31" class="node">
<title>magics&#45;metview&#45;batch</title>
<g id="a_node31"><a xlink:href="https://github.com/conda-forge/magics-metview-batch-feedstock" xlink:title="magics metview batch">
<ellipse fill="#35b779" stroke="black" cx="933" cy="-646" rx="114.5" ry="18"/>
<text text-anchor="middle" x="933" y="-642.3" font-family="Times,serif" font-size="14.00">magics metview batch</text>
</a>
</g>
</g>
<!-- metview&#45;batch -->
<g id="node32" class="node">
<title>metview&#45;batch</title>
<g id="a_node32"><a xlink:href="https://github.com/conda-forge/metview-batch-feedstock" xlink:title="metview batch">
<ellipse fill="#fde725" stroke="black" cx="933" cy="-574" rx="79.5" ry="18"/>
<text text-anchor="middle" x="933" y="-570.3" font-family="Times,serif" font-size="14.00">metview batch</text>
</a>
</g>
</g>
<!-- magics&#45;metview&#45;batch&#45;&gt;metview&#45;batch -->
<g id="edge30" class="edge">
<title>magics&#45;metview&#45;batch&#45;&gt;metview&#45;batch</title>
<path fill="none" stroke="black" d="M933,-627.7C933,-620.41 933,-611.73 933,-603.54"/>
<polygon fill="black" stroke="black" points="936.5,-603.62 933,-593.62 929.5,-603.62 936.5,-603.62"/>
</g>
<!-- fimex -->
<g id="node34" class="node">
<title>fimex</title>
<g id="a_node34"><a xlink:href="https://github.com/conda-forge/fimex-feedstock" xlink:title="fimex">
<ellipse fill="#35b779" stroke="black" cx="321" cy="-90" rx="36.5" ry="18"/>
<text text-anchor="middle" x="321" y="-86.3" font-family="Times,serif" font-size="14.00">fimex</text>
</a>
</g>
</g>
<!-- loos -->
<g id="node35" class="node">
<title>loos</title>
<g id="a_node35"><a xlink:href="https://github.com/conda-forge/loos-feedstock/pull/9" xlink:title="loos ❎">
<ellipse fill="#31688e" stroke="black" cx="321" cy="-18" rx="43.59" ry="18"/>
<text text-anchor="middle" x="321" y="-14.3" font-family="Times,serif" font-size="14.00" fill="white">loos ❎</text>
</a>
</g>
</g>
<!-- fimex&#45;&gt;loos -->
</g>
</svg>
