<?xml version="1.0" encoding="UTF-8" standalone="no"?>
<!DOCTYPE svg PUBLIC "-//W3C//DTD SVG 1.1//EN"
 "http://www.w3.org/Graphics/SVG/1.1/DTD/svg11.dtd">
<!-- Generated by graphviz version 7.1.0 (20230122.1345)
 -->
<!-- Pages: 1 -->
<svg width="1093pt" height="924pt"
 viewBox="0.00 0.00 1092.69 924.00" xmlns="http://www.w3.org/2000/svg" xmlns:xlink="http://www.w3.org/1999/xlink">
<g id="graph0" class="graph" transform="scale(1 1) rotate(0) translate(4 920)">
<polygon fill="white" stroke="none" points="-4,4 -4,-920 1088.69,-920 1088.69,4 -4,4"/>
<!-- cdms2 -->
<g id="node1" class="node">
<title>cdms2</title>
<g id="a_node1"><a xlink:href="https://github.com/conda-forge/cdms2-feedstock" xlink:title="cdms2">
<ellipse fill="#fde725" stroke="black" cx="123" cy="-466" rx="41" ry="18"/>
<text text-anchor="middle" x="123" y="-462.3" font-family="Times,serif" font-size="14.00">cdms2</text>
</a>
</g>
</g>
<!-- cdo -->
<g id="node2" class="node">
<title>cdo</title>
<g id="a_node2"><a xlink:href="https://github.com/conda-forge/cdo-feedstock" xlink:title="cdo">
<ellipse fill="#fde725" stroke="black" cx="956" cy="-62" rx="27" ry="18"/>
<text text-anchor="middle" x="956" y="-58.3" font-family="Times,serif" font-size="14.00">cdo</text>
</a>
</g>
</g>
<!-- cdtime -->
<g id="node3" class="node">
<title>cdtime</title>
<g id="a_node3"><a xlink:href="https://github.com/conda-forge/cdtime-feedstock" xlink:title="cdtime">
<ellipse fill="#fde725" stroke="black" cx="123" cy="-538" rx="42.49" ry="18"/>
<text text-anchor="middle" x="123" y="-534.3" font-family="Times,serif" font-size="14.00">cdtime</text>
</a>
</g>
</g>
<!-- cdtime&#45;&gt;cdms2 -->
<g id="edge1" class="edge">
<title>cdtime&#45;&gt;cdms2</title>
<path fill="none" stroke="black" d="M123,-519.7C123,-512.41 123,-503.73 123,-495.54"/>
<polygon fill="black" stroke="black" points="126.5,-495.62 123,-485.62 119.5,-495.62 126.5,-495.62"/>
</g>
<!-- esmf -->
<g id="node4" class="node">
<title>esmf</title>
<g id="a_node4"><a xlink:href="https://github.com/conda-forge/esmf-feedstock/pull/99" xlink:title="esmf ❎">
<ellipse fill="#31688e" stroke="black" cx="269" cy="-538" rx="47.5" ry="18"/>
<text text-anchor="middle" x="269" y="-534.3" font-family="Times,serif" font-size="14.00" fill="white">esmf ❎</text>
</a>
</g>
</g>
<!-- esmf&#45;&gt;cdms2 -->
<g id="edge2" class="edge">
<title>esmf&#45;&gt;cdms2</title>
<path fill="none" stroke="black" d="M240.5,-523.34C217.56,-512.34 185.13,-496.79 160.15,-484.81"/>
<polygon fill="black" stroke="black" points="161.84,-481.74 151.31,-480.57 158.81,-488.05 161.84,-481.74"/>
</g>
<!-- ncl -->
<g id="node5" class="node">
<title>ncl</title>
<g id="a_node5"><a xlink:href="https://github.com/conda-forge/ncl-feedstock" xlink:title="ncl">
<ellipse fill="#fde725" stroke="black" cx="311" cy="-466" rx="27" ry="18"/>
<text text-anchor="middle" x="311" y="-462.3" font-family="Times,serif" font-size="14.00">ncl</text>
</a>
</g>
</g>
<!-- esmf&#45;&gt;ncl -->
<g id="edge3" class="edge">
<title>esmf&#45;&gt;ncl</title>
<path fill="none" stroke="black" d="M279.17,-520.05C284.11,-511.82 290.15,-501.76 295.63,-492.61"/>
<polygon fill="black" stroke="black" points="298.58,-494.5 300.72,-484.13 292.58,-490.9 298.58,-494.5"/>
</g>
<!-- nco -->
<g id="node6" class="node">
<title>nco</title>
<g id="a_node6"><a xlink:href="https://github.com/conda-forge/nco-feedstock" xlink:title="nco">
<ellipse fill="#fde725" stroke="black" cx="239" cy="-466" rx="27" ry="18"/>
<text text-anchor="middle" x="239" y="-462.3" font-family="Times,serif" font-size="14.00">nco</text>
</a>
</g>
</g>
<!-- esmf&#45;&gt;nco -->
<g id="edge4" class="edge">
<title>esmf&#45;&gt;nco</title>
<path fill="none" stroke="black" d="M261.74,-520.05C258.42,-512.32 254.41,-502.96 250.69,-494.27"/>
<polygon fill="black" stroke="black" points="253.95,-492.99 246.79,-485.18 247.51,-495.75 253.95,-492.99"/>
</g>
<!-- gdal -->
<g id="node7" class="node">
<title>gdal</title>
<g id="a_node7"><a xlink:href="https://github.com/conda-forge/gdal-feedstock" xlink:title="gdal">
<ellipse fill="#ff8c00" stroke="black" cx="442" cy="-538" rx="30.59" ry="18"/>
<text text-anchor="middle" x="442" y="-534.3" font-family="Times,serif" font-size="14.00">gdal</text>
</a>
</g>
</g>
<!-- gdal&#45;&gt;ncl -->
<g id="edge5" class="edge">
<title>gdal&#45;&gt;ncl</title>
<path fill="none" stroke="black" d="M419.78,-525.13C398.28,-513.64 365.54,-496.14 341.59,-483.35"/>
<polygon fill="black" stroke="black" points="343.41,-480.35 332.94,-478.72 340.11,-486.52 343.41,-480.35"/>
</g>
<!-- gmt -->
<g id="node8" class="node">
<title>gmt</title>
<g id="a_node8"><a xlink:href="https://github.com/conda-forge/gmt-feedstock" xlink:title="gmt">
<ellipse fill="#fde725" stroke="black" cx="385" cy="-466" rx="29.5" ry="18"/>
<text text-anchor="middle" x="385" y="-462.3" font-family="Times,serif" font-size="14.00">gmt</text>
</a>
</g>
</g>
<!-- gdal&#45;&gt;gmt -->
<g id="edge6" class="edge">
<title>gdal&#45;&gt;gmt</title>
<path fill="none" stroke="black" d="M429.35,-521.46C422.12,-512.58 412.89,-501.25 404.73,-491.22"/>
<polygon fill="black" stroke="black" points="407.6,-489.21 398.57,-483.67 402.17,-493.63 407.6,-489.21"/>
</g>
<!-- pynio -->
<g id="node9" class="node">
<title>pynio</title>
<g id="a_node9"><a xlink:href="https://github.com/conda-forge/pynio-feedstock" xlink:title="pynio">
<ellipse fill="#fde725" stroke="black" cx="429" cy="-394" rx="36.5" ry="18"/>
<text text-anchor="middle" x="429" y="-390.3" font-family="Times,serif" font-size="14.00">pynio</text>
</a>
</g>
</g>
<!-- gdal&#45;&gt;pynio -->
<g id="edge7" class="edge">
<title>gdal&#45;&gt;pynio</title>
<path fill="none" stroke="black" d="M440.41,-519.59C438.21,-495.61 434.23,-452.14 431.6,-423.42"/>
<polygon fill="black" stroke="black" points="435.1,-423.26 430.7,-413.62 428.13,-423.9 435.1,-423.26"/>
</g>
<!-- mdal -->
<g id="node10" class="node">
<title>mdal</title>
<g id="a_node10"><a xlink:href="https://github.com/conda-forge/mdal-feedstock" xlink:title="mdal">
<ellipse fill="#fde725" stroke="black" cx="494" cy="-322" rx="34" ry="18"/>
<text text-anchor="middle" x="494" y="-318.3" font-family="Times,serif" font-size="14.00">mdal</text>
</a>
</g>
</g>
<!-- gdal&#45;&gt;mdal -->
<g id="edge8" class="edge">
<title>gdal&#45;&gt;mdal</title>
<path fill="none" stroke="black" d="M446.51,-520.06C452.85,-496.06 464.68,-450.77 474,-412 478.87,-391.73 484.02,-368.78 487.87,-351.26"/>
<polygon fill="black" stroke="black" points="491.27,-352.09 489.99,-341.58 484.44,-350.6 491.27,-352.09"/>
</g>
<!-- r&#45;gdalcubes -->
<g id="node11" class="node">
<title>r&#45;gdalcubes</title>
<g id="a_node11"><a xlink:href="https://github.com/conda-forge/r-gdalcubes-feedstock" xlink:title="r gdalcubes">
<ellipse fill="#fde725" stroke="black" cx="587" cy="-466" rx="65" ry="18"/>
<text text-anchor="middle" x="587" y="-462.3" font-family="Times,serif" font-size="14.00">r gdalcubes</text>
</a>
</g>
</g>
<!-- gdal&#45;&gt;r&#45;gdalcubes -->
<g id="edge9" class="edge">
<title>gdal&#45;&gt;r&#45;gdalcubes</title>
<path fill="none" stroke="black" d="M465.3,-525.75C486.83,-515.36 519.32,-499.67 545.32,-487.12"/>
<polygon fill="black" stroke="black" points="546.8,-490.29 554.28,-482.79 543.76,-483.99 546.8,-490.29"/>
</g>
<!-- libcdms -->
<g id="node12" class="node">
<title>libcdms</title>
<g id="a_node12"><a xlink:href="https://github.com/conda-forge/libcdms-feedstock" xlink:title="libcdms">
<ellipse fill="#fde725" stroke="black" cx="90" cy="-682" rx="47" ry="18"/>
<text text-anchor="middle" x="90" y="-678.3" font-family="Times,serif" font-size="14.00">libcdms</text>
</a>
</g>
</g>
<!-- libcdms&#45;&gt;cdms2 -->
<g id="edge10" class="edge">
<title>libcdms&#45;&gt;cdms2</title>
<path fill="none" stroke="black" d="M82.86,-663.82C71.41,-633.56 52.13,-569.3 72,-520 76.67,-508.42 85.21,-497.96 93.98,-489.44"/>
<polygon fill="black" stroke="black" points="96.13,-492.22 101.22,-482.92 91.45,-487.01 96.13,-492.22"/>
</g>
<!-- libcdms&#45;&gt;cdtime -->
<g id="edge11" class="edge">
<title>libcdms&#45;&gt;cdtime</title>
<path fill="none" stroke="black" d="M93.81,-663.58C97.76,-645.62 104.17,-616.82 110,-592 111.89,-583.94 114.01,-575.22 115.97,-567.21"/>
<polygon fill="black" stroke="black" points="119.34,-568.18 118.34,-557.63 112.54,-566.5 119.34,-568.18"/>
</g>
<!-- libdrs_f -->
<g id="node13" class="node">
<title>libdrs_f</title>
<g id="a_node13"><a xlink:href="https://github.com/conda-forge/libdrs_f-feedstock" xlink:title="libdrs_f">
<ellipse fill="#fde725" stroke="black" cx="165" cy="-610" rx="45.5" ry="18"/>
<text text-anchor="middle" x="165" y="-606.3" font-family="Times,serif" font-size="14.00">libdrs_f</text>
</a>
</g>
</g>
<!-- libcdms&#45;&gt;libdrs_f -->
<g id="edge12" class="edge">
<title>libcdms&#45;&gt;libdrs_f</title>
<path fill="none" stroke="black" d="M107.02,-665.12C116.64,-656.14 128.84,-644.74 139.58,-634.73"/>
<polygon fill="black" stroke="black" points="141.76,-637.48 146.68,-628.1 136.98,-632.36 141.76,-637.48"/>
</g>
<!-- libdrs_f&#45;&gt;cdms2 -->
<g id="edge13" class="edge">
<title>libdrs_f&#45;&gt;cdms2</title>
<path fill="none" stroke="black" d="M171.34,-591.93C177.15,-573.5 183.52,-543.62 174,-520 169.33,-508.42 160.79,-497.96 152.02,-489.44"/>
<polygon fill="black" stroke="black" points="154.55,-487.01 144.78,-482.92 149.87,-492.22 154.55,-487.01"/>
</g>
<!-- libdrs_f&#45;&gt;cdtime -->
<g id="edge14" class="edge">
<title>libdrs_f&#45;&gt;cdtime</title>
<path fill="none" stroke="black" d="M154.83,-592.05C150.04,-584.06 144.2,-574.33 138.84,-565.4"/>
<polygon fill="black" stroke="black" points="142,-563.86 133.85,-557.09 136,-567.46 142,-563.86"/>
</g>
<!-- libdrs -->
<g id="node14" class="node">
<title>libdrs</title>
<g id="a_node14"><a xlink:href="https://github.com/conda-forge/libdrs-feedstock/pull/45" xlink:title="libdrs ❎">
<ellipse fill="#31688e" stroke="black" cx="52" cy="-754" rx="52" ry="18"/>
<text text-anchor="middle" x="52" y="-750.3" font-family="Times,serif" font-size="14.00" fill="white">libdrs ❎</text>
</a>
</g>
</g>
<!-- libdrs&#45;&gt;cdms2 -->
<g id="edge15" class="edge">
<title>libdrs&#45;&gt;cdms2</title>
<path fill="none" stroke="black" d="M44.52,-735.7C40.53,-725.52 36.03,-712.27 34,-700 23.9,-638.84 58.84,-523.74 61,-520 68.26,-507.45 79.62,-496.47 90.65,-487.8"/>
<polygon fill="black" stroke="black" points="92.56,-490.74 98.52,-481.98 88.39,-485.11 92.56,-490.74"/>
</g>
<!-- libdrs&#45;&gt;libcdms -->
<g id="edge16" class="edge">
<title>libdrs&#45;&gt;libcdms</title>
<path fill="none" stroke="black" d="M61.2,-736.05C65.49,-728.14 70.71,-718.54 75.51,-709.69"/>
<polygon fill="black" stroke="black" points="78.47,-711.58 80.16,-701.12 72.32,-708.24 78.47,-711.58"/>
</g>
<!-- magics -->
<g id="node15" class="node">
<title>magics</title>
<g id="a_node15"><a xlink:href="https://github.com/conda-forge/magics-feedstock/pull/120" xlink:title="magics ❎">
<ellipse fill="#31688e" stroke="black" cx="956" cy="-134" rx="58" ry="18"/>
<text text-anchor="middle" x="956" y="-130.3" font-family="Times,serif" font-size="14.00" fill="white">magics ❎</text>
</a>
</g>
</g>
<!-- magics&#45;&gt;cdo -->
<g id="edge17" class="edge">
<title>magics&#45;&gt;cdo</title>
<path fill="none" stroke="black" d="M956,-115.7C956,-108.41 956,-99.73 956,-91.54"/>
<polygon fill="black" stroke="black" points="959.5,-91.62 956,-81.62 952.5,-91.62 959.5,-91.62"/>
</g>
<!-- netcdf&#45;cxx4 -->
<g id="node16" class="node">
<title>netcdf&#45;cxx4</title>
<g id="a_node16"><a xlink:href="https://github.com/conda-forge/netcdf-cxx4-feedstock" xlink:title="netcdf cxx4">
<ellipse fill="#ff8c00" stroke="black" cx="740" cy="-898" rx="64.5" ry="18"/>
<text text-anchor="middle" x="740" y="-894.3" font-family="Times,serif" font-size="14.00">netcdf cxx4</text>
</a>
</g>
</g>
<!-- pyferret -->
<g id="node17" class="node">
<title>pyferret</title>
<g id="a_node17"><a xlink:href="https://github.com/conda-forge/pyferret-feedstock" xlink:title="pyferret">
<ellipse fill="#ff8c00" stroke="black" cx="740" cy="-826" rx="48.99" ry="18"/>
<text text-anchor="middle" x="740" y="-822.3" font-family="Times,serif" font-size="14.00">pyferret</text>
</a>
</g>
</g>
<!-- netcdf&#45;cxx4&#45;&gt;pyferret -->
<!-- r&#45;rnetcdf -->
<g id="node20" class="node">
<title>r&#45;rnetcdf</title>
<g id="a_node20"><a xlink:href="https://github.com/conda-forge/r-rnetcdf-feedstock" xlink:title="r rnetcdf">
<ellipse fill="#ff8c00" stroke="black" cx="740" cy="-754" rx="52" ry="18"/>
<text text-anchor="middle" x="740" y="-750.3" font-family="Times,serif" font-size="14.00">r rnetcdf</text>
</a>
</g>
</g>
<!-- pyferret&#45;&gt;r&#45;rnetcdf -->
<!-- paraview -->
<g id="node18" class="node">
<title>paraview</title>
<g id="a_node18"><a xlink:href="https://github.com/conda-forge/paraview-feedstock" xlink:title="paraview">
<ellipse fill="#ff8c00" stroke="black" cx="740" cy="-134" rx="53.5" ry="18"/>
<text text-anchor="middle" x="740" y="-130.3" font-family="Times,serif" font-size="14.00">paraview</text>
</a>
</g>
</g>
<!-- lfric_reader -->
<g id="node19" class="node">
<title>lfric_reader</title>
<g id="a_node19"><a xlink:href="https://github.com/conda-forge/lfric_reader-feedstock" xlink:title="lfric_reader">
<ellipse fill="#fde725" stroke="black" cx="740" cy="-62" rx="64.5" ry="18"/>
<text text-anchor="middle" x="740" y="-58.3" font-family="Times,serif" font-size="14.00">lfric_reader</text>
</a>
</g>
</g>
<!-- paraview&#45;&gt;lfric_reader -->
<g id="edge19" class="edge">
<title>paraview&#45;&gt;lfric_reader</title>
<path fill="none" stroke="black" d="M740,-115.7C740,-108.41 740,-99.73 740,-91.54"/>
<polygon fill="black" stroke="black" points="743.5,-91.62 740,-81.62 736.5,-91.62 743.5,-91.62"/>
</g>
<!-- wgrib2 -->
<g id="node22" class="node">
<title>wgrib2</title>
<g id="a_node22"><a xlink:href="https://github.com/conda-forge/wgrib2-feedstock" xlink:title="wgrib2">
<ellipse fill="#ff8c00" stroke="black" cx="740" cy="-682" rx="43.59" ry="18"/>
<text text-anchor="middle" x="740" y="-678.3" font-family="Times,serif" font-size="14.00">wgrib2</text>
</a>
</g>
</g>
<!-- r&#45;rnetcdf&#45;&gt;wgrib2 -->
<!-- r&#45;ncdf4 -->
<g id="node21" class="node">
<title>r&#45;ncdf4</title>
<g id="a_node21"><a xlink:href="https://github.com/conda-forge/r-ncdf4-feedstock" xlink:title="r ncdf4">
<ellipse fill="#ff8c00" stroke="black" cx="587" cy="-538" rx="44.39" ry="18"/>
<text text-anchor="middle" x="587" y="-534.3" font-family="Times,serif" font-size="14.00">r ncdf4</text>
</a>
</g>
</g>
<!-- r&#45;ncdf4&#45;&gt;r&#45;gdalcubes -->
<g id="edge21" class="edge">
<title>r&#45;ncdf4&#45;&gt;r&#45;gdalcubes</title>
<path fill="none" stroke="black" d="M587,-519.7C587,-512.41 587,-503.73 587,-495.54"/>
<polygon fill="black" stroke="black" points="590.5,-495.62 587,-485.62 583.5,-495.62 590.5,-495.62"/>
</g>
<!-- siesta -->
<g id="node23" class="node">
<title>siesta</title>
<g id="a_node23"><a xlink:href="https://github.com/conda-forge/siesta-feedstock" xlink:title="siesta">
<ellipse fill="#ff8c00" stroke="black" cx="740" cy="-610" rx="38.5" ry="18"/>
<text text-anchor="middle" x="740" y="-606.3" font-family="Times,serif" font-size="14.00">siesta</text>
</a>
</g>
</g>
<!-- wgrib2&#45;&gt;siesta -->
<!-- vic -->
<g id="node24" class="node">
<title>vic</title>
<g id="a_node24"><a xlink:href="https://github.com/conda-forge/vic-feedstock/pull/21" xlink:title="vic ❎">
<ellipse fill="#31688e" stroke="black" cx="740" cy="-538" rx="38.5" ry="18"/>
<text text-anchor="middle" x="740" y="-534.3" font-family="Times,serif" font-size="14.00" fill="white">vic ❎</text>
</a>
</g>
</g>
<!-- siesta&#45;&gt;vic -->
<!-- vmd&#45;python -->
<g id="node25" class="node">
<title>vmd&#45;python</title>
<g id="a_node25"><a xlink:href="https://github.com/conda-forge/vmd-python-feedstock/pull/30" xlink:title="vmd python ❎">
<ellipse fill="#31688e" stroke="black" cx="740" cy="-466" rx="80" ry="18"/>
<text text-anchor="middle" x="740" y="-462.3" font-family="Times,serif" font-size="14.00" fill="white">vmd python ❎</text>
</a>
</g>
</g>
<!-- vic&#45;&gt;vmd&#45;python -->
<!-- ambertools -->
<g id="node26" class="node">
<title>ambertools</title>
<g id="a_node26"><a xlink:href="https://github.com/conda-forge/ambertools-feedstock/pull/103" xlink:title="ambertools ✓">
<ellipse fill="#31688e" stroke="black" cx="740" cy="-394" rx="70.39" ry="18"/>
<text text-anchor="middle" x="740" y="-390.3" font-family="Times,serif" font-size="14.00" fill="white">ambertools ✓</text>
</a>
</g>
</g>
<!-- vmd&#45;python&#45;&gt;ambertools -->
<!-- fpocket -->
<g id="node28" class="node">
<title>fpocket</title>
<g id="a_node28"><a xlink:href="https://github.com/conda-forge/fpocket-feedstock/pull/19" xlink:title="fpocket ✓">
<ellipse fill="#31688e" stroke="black" cx="740" cy="-322" rx="52" ry="18"/>
<text text-anchor="middle" x="740" y="-318.3" font-family="Times,serif" font-size="14.00" fill="white">fpocket ✓</text>
</a>
</g>
</g>
<!-- ambertools&#45;&gt;fpocket -->
<!-- metview -->
<g id="node27" class="node">
<title>metview</title>
<g id="a_node27"><a xlink:href="https://github.com/conda-forge/metview-feedstock" xlink:title="metview">
<ellipse fill="#fde725" stroke="black" cx="326" cy="-62" rx="50.09" ry="18"/>
<text text-anchor="middle" x="326" y="-58.3" font-family="Times,serif" font-size="14.00">metview</text>
</a>
</g>
</g>
<!-- nccmp -->
<g id="node29" class="node">
<title>nccmp</title>
<g id="a_node29"><a xlink:href="https://github.com/conda-forge/nccmp-feedstock" xlink:title="nccmp">
<ellipse fill="#ff8c00" stroke="black" cx="740" cy="-250" rx="41" ry="18"/>
<text text-anchor="middle" x="740" y="-246.3" font-family="Times,serif" font-size="14.00">nccmp</text>
</a>
</g>
</g>
<!-- fpocket&#45;&gt;nccmp -->
<!-- fimex -->
<g id="node33" class="node">
<title>fimex</title>
<g id="a_node33"><a xlink:href="https://github.com/conda-forge/fimex-feedstock" xlink:title="fimex">
<ellipse fill="#35b779" stroke="black" cx="740" cy="-178" rx="36.5" ry="18"/>
<text text-anchor="middle" x="740" y="-174.3" font-family="Times,serif" font-size="14.00">fimex</text>
</a>
</g>
</g>
<!-- nccmp&#45;&gt;fimex -->
<!-- magics&#45;metview -->
<g id="node30" class="node">
<title>magics&#45;metview</title>
<g id="a_node30"><a xlink:href="https://github.com/conda-forge/magics-metview-feedstock" xlink:title="magics metview">
<ellipse fill="#35b779" stroke="black" cx="326" cy="-134" rx="86" ry="18"/>
<text text-anchor="middle" x="326" y="-130.3" font-family="Times,serif" font-size="14.00">magics metview</text>
</a>
</g>
</g>
<!-- magics&#45;metview&#45;&gt;metview -->
<g id="edge29" class="edge">
<title>magics&#45;metview&#45;&gt;metview</title>
<path fill="none" stroke="black" d="M326,-115.7C326,-108.41 326,-99.73 326,-91.54"/>
<polygon fill="black" stroke="black" points="329.5,-91.62 326,-81.62 322.5,-91.62 329.5,-91.62"/>
</g>
<!-- magics&#45;metview&#45;batch -->
<g id="node31" class="node">
<title>magics&#45;metview&#45;batch</title>
<g id="a_node31"><a xlink:href="https://github.com/conda-forge/magics-metview-batch-feedstock/pull/54" xlink:title="magics metview batch ❎">
<ellipse fill="#31688e" stroke="black" cx="956" cy="-574" rx="128.88" ry="18"/>
<text text-anchor="middle" x="956" y="-570.3" font-family="Times,serif" font-size="14.00" fill="white">magics metview batch ❎</text>
</a>
</g>
</g>
<!-- metview&#45;batch -->
<g id="node32" class="node">
<title>metview&#45;batch</title>
<g id="a_node32"><a xlink:href="https://github.com/conda-forge/metview-batch-feedstock" xlink:title="metview batch">
<ellipse fill="#fde725" stroke="black" cx="956" cy="-502" rx="79.5" ry="18"/>
<text text-anchor="middle" x="956" y="-498.3" font-family="Times,serif" font-size="14.00">metview batch</text>
</a>
</g>
</g>
<!-- magics&#45;metview&#45;batch&#45;&gt;metview&#45;batch -->
<g id="edge30" class="edge">
<title>magics&#45;metview&#45;batch&#45;&gt;metview&#45;batch</title>
<path fill="none" stroke="black" d="M956,-555.7C956,-548.41 956,-539.73 956,-531.54"/>
<polygon fill="black" stroke="black" points="959.5,-531.62 956,-521.62 952.5,-531.62 959.5,-531.62"/>
</g>
<!-- loos -->
<g id="node34" class="node">
<title>loos</title>
<g id="a_node34"><a xlink:href="https://github.com/conda-forge/loos-feedstock/pull/9" xlink:title="loos ❎">
<ellipse fill="#31688e" stroke="black" cx="326" cy="-18" rx="43.59" ry="18"/>
<text text-anchor="middle" x="326" y="-14.3" font-family="Times,serif" font-size="14.00" fill="white">loos ❎</text>
</a>
</g>
</g>
</g>
</svg>
