<?xml version="1.0" encoding="UTF-8" standalone="no"?>
<!DOCTYPE svg PUBLIC "-//W3C//DTD SVG 1.1//EN"
 "http://www.w3.org/Graphics/SVG/1.1/DTD/svg11.dtd">
<!-- Generated by graphviz version 7.1.0 (20230122.1345)
 -->
<!-- Pages: 1 -->
<svg width="692pt" height="1068pt"
 viewBox="0.00 0.00 691.78 1068.00" xmlns="http://www.w3.org/2000/svg" xmlns:xlink="http://www.w3.org/1999/xlink">
<g id="graph0" class="graph" transform="scale(1 1) rotate(0) translate(4 1064)">
<polygon fill="white" stroke="none" points="-4,4 -4,-1064 687.78,-1064 687.78,4 -4,4"/>
<!-- cdms2 -->
<g id="node1" class="node">
<title>cdms2</title>
<g id="a_node1"><a xlink:href="https://github.com/conda-forge/cdms2-feedstock" xlink:title="cdms2">
<ellipse fill="#fde725" stroke="black" cx="296.09" cy="-538" rx="41" ry="18"/>
<text text-anchor="middle" x="296.09" y="-534.3" font-family="Times,serif" font-size="14.00">cdms2</text>
</a>
</g>
</g>
<!-- cdo -->
<g id="node2" class="node">
<title>cdo</title>
<g id="a_node2"><a xlink:href="https://github.com/conda-forge/cdo-feedstock" xlink:title="cdo">
<ellipse fill="#fde725" stroke="black" cx="313.09" cy="-18" rx="27" ry="18"/>
<text text-anchor="middle" x="313.09" y="-14.3" font-family="Times,serif" font-size="14.00">cdo</text>
</a>
</g>
</g>
<!-- cdtime -->
<g id="node3" class="node">
<title>cdtime</title>
<g id="a_node3"><a xlink:href="https://github.com/conda-forge/cdtime-feedstock" xlink:title="cdtime">
<ellipse fill="#fde725" stroke="black" cx="331.09" cy="-610" rx="42.49" ry="18"/>
<text text-anchor="middle" x="331.09" y="-606.3" font-family="Times,serif" font-size="14.00">cdtime</text>
</a>
</g>
</g>
<!-- cdtime&#45;&gt;cdms2 -->
<g id="edge1" class="edge">
<title>cdtime&#45;&gt;cdms2</title>
<path fill="none" stroke="black" d="M322.62,-592.05C318.71,-584.23 313.97,-574.75 309.58,-565.98"/>
<polygon fill="black" stroke="black" points="312.77,-564.52 305.16,-557.14 306.5,-567.65 312.77,-564.52"/>
</g>
<!-- libcdms -->
<g id="node4" class="node">
<title>libcdms</title>
<g id="a_node4"><a xlink:href="https://github.com/conda-forge/libcdms-feedstock" xlink:title="libcdms">
<ellipse fill="#fde725" stroke="black" cx="298.09" cy="-754" rx="47" ry="18"/>
<text text-anchor="middle" x="298.09" y="-750.3" font-family="Times,serif" font-size="14.00">libcdms</text>
</a>
</g>
</g>
<!-- libcdms&#45;&gt;cdms2 -->
<g id="edge2" class="edge">
<title>libcdms&#45;&gt;cdms2</title>
<path fill="none" stroke="black" d="M293.32,-736.03C285.7,-706.62 272.37,-644.31 280.09,-592 281.33,-583.6 283.62,-574.68 286.09,-566.61"/>
<polygon fill="black" stroke="black" points="289.34,-567.93 289.13,-557.33 282.69,-565.74 289.34,-567.93"/>
</g>
<!-- libcdms&#45;&gt;cdtime -->
<g id="edge3" class="edge">
<title>libcdms&#45;&gt;cdtime</title>
<path fill="none" stroke="black" d="M301.9,-735.58C305.85,-717.62 312.26,-688.82 318.09,-664 319.98,-655.94 322.1,-647.22 324.06,-639.21"/>
<polygon fill="black" stroke="black" points="327.43,-640.18 326.43,-629.63 320.63,-638.5 327.43,-640.18"/>
</g>
<!-- libdrs_f -->
<g id="node5" class="node">
<title>libdrs_f</title>
<g id="a_node5"><a xlink:href="https://github.com/conda-forge/libdrs_f-feedstock" xlink:title="libdrs_f">
<ellipse fill="#fde725" stroke="black" cx="373.09" cy="-682" rx="45.5" ry="18"/>
<text text-anchor="middle" x="373.09" y="-678.3" font-family="Times,serif" font-size="14.00">libdrs_f</text>
</a>
</g>
</g>
<!-- libcdms&#45;&gt;libdrs_f -->
<g id="edge4" class="edge">
<title>libcdms&#45;&gt;libdrs_f</title>
<path fill="none" stroke="black" d="M315.11,-737.12C324.73,-728.14 336.94,-716.74 347.67,-706.73"/>
<polygon fill="black" stroke="black" points="349.85,-709.48 354.77,-700.1 345.08,-704.36 349.85,-709.48"/>
</g>
<!-- libdrs_f&#45;&gt;cdms2 -->
<g id="edge5" class="edge">
<title>libdrs_f&#45;&gt;cdms2</title>
<path fill="none" stroke="black" d="M380.43,-663.74C387.23,-644.88 394.58,-614.37 382.09,-592 372.6,-575.01 355.18,-562.79 338.49,-554.4"/>
<polygon fill="black" stroke="black" points="340.18,-551.32 329.64,-550.29 337.24,-557.68 340.18,-551.32"/>
</g>
<!-- libdrs_f&#45;&gt;cdtime -->
<g id="edge6" class="edge">
<title>libdrs_f&#45;&gt;cdtime</title>
<path fill="none" stroke="black" d="M362.92,-664.05C358.13,-656.06 352.29,-646.33 346.93,-637.4"/>
<polygon fill="black" stroke="black" points="350.09,-635.86 341.94,-629.09 344.09,-639.46 350.09,-635.86"/>
</g>
<!-- libdrs -->
<g id="node6" class="node">
<title>libdrs</title>
<g id="a_node6"><a xlink:href="https://github.com/conda-forge/libdrs-feedstock/pull/45" xlink:title="libdrs ❎">
<ellipse fill="#31688e" stroke="black" cx="260.09" cy="-826" rx="52" ry="18"/>
<text text-anchor="middle" x="260.09" y="-822.3" font-family="Times,serif" font-size="14.00" fill="white">libdrs ❎</text>
</a>
</g>
</g>
<!-- libdrs&#45;&gt;cdms2 -->
<g id="edge7" class="edge">
<title>libdrs&#45;&gt;cdms2</title>
<path fill="none" stroke="black" d="M252.61,-807.7C248.62,-797.52 244.12,-784.27 242.09,-772 239.48,-756.21 240.35,-751.9 242.09,-736 249.24,-670.83 254.34,-654.51 274.09,-592 276.77,-583.51 280.27,-574.49 283.67,-566.34"/>
<polygon fill="black" stroke="black" points="286.83,-567.86 287.58,-557.29 280.4,-565.08 286.83,-567.86"/>
</g>
<!-- libdrs&#45;&gt;libcdms -->
<g id="edge8" class="edge">
<title>libdrs&#45;&gt;libcdms</title>
<path fill="none" stroke="black" d="M269.29,-808.05C273.58,-800.14 278.8,-790.54 283.6,-781.69"/>
<polygon fill="black" stroke="black" points="286.56,-783.58 288.25,-773.12 280.41,-780.24 286.56,-783.58"/>
</g>
<!-- magics -->
<g id="node7" class="node">
<title>magics</title>
<g id="a_node7"><a xlink:href="https://github.com/conda-forge/magics-feedstock/pull/120" xlink:title="magics ❎">
<ellipse fill="#31688e" stroke="black" cx="313.09" cy="-90" rx="58" ry="18"/>
<text text-anchor="middle" x="313.09" y="-86.3" font-family="Times,serif" font-size="14.00" fill="white">magics ❎</text>
</a>
</g>
</g>
<!-- magics&#45;&gt;cdo -->
<g id="edge9" class="edge">
<title>magics&#45;&gt;cdo</title>
<path fill="none" stroke="black" d="M313.09,-71.7C313.09,-64.41 313.09,-55.73 313.09,-47.54"/>
<polygon fill="black" stroke="black" points="316.59,-47.62 313.09,-37.62 309.59,-47.62 316.59,-47.62"/>
</g>
<!-- ncl -->
<g id="node8" class="node">
<title>ncl</title>
<g id="a_node8"><a xlink:href="https://github.com/conda-forge/ncl-feedstock" xlink:title="ncl">
<ellipse fill="#ff8c00" stroke="black" cx="100.09" cy="-1042" rx="27" ry="18"/>
<text text-anchor="middle" x="100.09" y="-1038.3" font-family="Times,serif" font-size="14.00">ncl</text>
</a>
</g>
</g>
<!-- netcdf&#45;cxx4 -->
<g id="node9" class="node">
<title>netcdf&#45;cxx4</title>
<g id="a_node9"><a xlink:href="https://github.com/conda-forge/netcdf-cxx4-feedstock" xlink:title="netcdf cxx4">
<ellipse fill="#ff8c00" stroke="black" cx="100.09" cy="-970" rx="64.5" ry="18"/>
<text text-anchor="middle" x="100.09" y="-966.3" font-family="Times,serif" font-size="14.00">netcdf cxx4</text>
</a>
</g>
</g>
<!-- ncl&#45;&gt;netcdf&#45;cxx4 -->
<!-- pyferret -->
<g id="node10" class="node">
<title>pyferret</title>
<g id="a_node10"><a xlink:href="https://github.com/conda-forge/pyferret-feedstock" xlink:title="pyferret">
<ellipse fill="#ff8c00" stroke="black" cx="100.09" cy="-898" rx="48.99" ry="18"/>
<text text-anchor="middle" x="100.09" y="-894.3" font-family="Times,serif" font-size="14.00">pyferret</text>
</a>
</g>
</g>
<!-- netcdf&#45;cxx4&#45;&gt;pyferret -->
<!-- pynio -->
<g id="node13" class="node">
<title>pynio</title>
<g id="a_node13"><a xlink:href="https://github.com/conda-forge/pynio-feedstock" xlink:title="pynio">
<ellipse fill="#ff8c00" stroke="black" cx="100.09" cy="-826" rx="36.5" ry="18"/>
<text text-anchor="middle" x="100.09" y="-822.3" font-family="Times,serif" font-size="14.00">pynio</text>
</a>
</g>
</g>
<!-- pyferret&#45;&gt;pynio -->
<!-- paraview -->
<g id="node11" class="node">
<title>paraview</title>
<g id="a_node11"><a xlink:href="https://github.com/conda-forge/paraview-feedstock" xlink:title="paraview">
<ellipse fill="#ff8c00" stroke="black" cx="100.09" cy="-90" rx="53.5" ry="18"/>
<text text-anchor="middle" x="100.09" y="-86.3" font-family="Times,serif" font-size="14.00">paraview</text>
</a>
</g>
</g>
<!-- lfric_reader -->
<g id="node12" class="node">
<title>lfric_reader</title>
<g id="a_node12"><a xlink:href="https://github.com/conda-forge/lfric_reader-feedstock" xlink:title="lfric_reader">
<ellipse fill="#fde725" stroke="black" cx="100.09" cy="-18" rx="64.5" ry="18"/>
<text text-anchor="middle" x="100.09" y="-14.3" font-family="Times,serif" font-size="14.00">lfric_reader</text>
</a>
</g>
</g>
<!-- paraview&#45;&gt;lfric_reader -->
<g id="edge12" class="edge">
<title>paraview&#45;&gt;lfric_reader</title>
<path fill="none" stroke="black" d="M100.09,-71.7C100.09,-64.41 100.09,-55.73 100.09,-47.54"/>
<polygon fill="black" stroke="black" points="103.59,-47.62 100.09,-37.62 96.59,-47.62 103.59,-47.62"/>
</g>
<!-- r&#45;rnetcdf -->
<g id="node14" class="node">
<title>r&#45;rnetcdf</title>
<g id="a_node14"><a xlink:href="https://github.com/conda-forge/r-rnetcdf-feedstock" xlink:title="r rnetcdf">
<ellipse fill="#ff8c00" stroke="black" cx="100.09" cy="-754" rx="52" ry="18"/>
<text text-anchor="middle" x="100.09" y="-750.3" font-family="Times,serif" font-size="14.00">r rnetcdf</text>
</a>
</g>
</g>
<!-- pynio&#45;&gt;r&#45;rnetcdf -->
<!-- wgrib2 -->
<g id="node17" class="node">
<title>wgrib2</title>
<g id="a_node17"><a xlink:href="https://github.com/conda-forge/wgrib2-feedstock" xlink:title="wgrib2">
<ellipse fill="#ff8c00" stroke="black" cx="100.09" cy="-682" rx="43.59" ry="18"/>
<text text-anchor="middle" x="100.09" y="-678.3" font-family="Times,serif" font-size="14.00">wgrib2</text>
</a>
</g>
</g>
<!-- r&#45;rnetcdf&#45;&gt;wgrib2 -->
<!-- r&#45;ncdf4 -->
<g id="node15" class="node">
<title>r&#45;ncdf4</title>
<g id="a_node15"><a xlink:href="https://github.com/conda-forge/r-ncdf4-feedstock" xlink:title="r ncdf4">
<ellipse fill="#ff8c00" stroke="black" cx="555.09" cy="-242" rx="44.39" ry="18"/>
<text text-anchor="middle" x="555.09" y="-238.3" font-family="Times,serif" font-size="14.00">r ncdf4</text>
</a>
</g>
</g>
<!-- r&#45;gdalcubes -->
<g id="node16" class="node">
<title>r&#45;gdalcubes</title>
<g id="a_node16"><a xlink:href="https://github.com/conda-forge/r-gdalcubes-feedstock" xlink:title="r gdalcubes">
<ellipse fill="#fde725" stroke="black" cx="555.09" cy="-170" rx="65" ry="18"/>
<text text-anchor="middle" x="555.09" y="-166.3" font-family="Times,serif" font-size="14.00">r gdalcubes</text>
</a>
</g>
</g>
<!-- r&#45;ncdf4&#45;&gt;r&#45;gdalcubes -->
<g id="edge15" class="edge">
<title>r&#45;ncdf4&#45;&gt;r&#45;gdalcubes</title>
<path fill="none" stroke="black" d="M555.09,-223.7C555.09,-216.41 555.09,-207.73 555.09,-199.54"/>
<polygon fill="black" stroke="black" points="558.59,-199.62 555.09,-189.62 551.59,-199.62 558.59,-199.62"/>
</g>
<!-- siesta -->
<g id="node18" class="node">
<title>siesta</title>
<g id="a_node18"><a xlink:href="https://github.com/conda-forge/siesta-feedstock" xlink:title="siesta">
<ellipse fill="#ff8c00" stroke="black" cx="100.09" cy="-610" rx="38.5" ry="18"/>
<text text-anchor="middle" x="100.09" y="-606.3" font-family="Times,serif" font-size="14.00">siesta</text>
</a>
</g>
</g>
<!-- wgrib2&#45;&gt;siesta -->
<!-- vic -->
<g id="node19" class="node">
<title>vic</title>
<g id="a_node19"><a xlink:href="https://github.com/conda-forge/vic-feedstock/pull/21" xlink:title="vic ❎">
<ellipse fill="#31688e" stroke="black" cx="100.09" cy="-538" rx="38.5" ry="18"/>
<text text-anchor="middle" x="100.09" y="-534.3" font-family="Times,serif" font-size="14.00" fill="white">vic ❎</text>
</a>
</g>
</g>
<!-- siesta&#45;&gt;vic -->
<!-- vmd&#45;python -->
<g id="node20" class="node">
<title>vmd&#45;python</title>
<g id="a_node20"><a xlink:href="https://github.com/conda-forge/vmd-python-feedstock/pull/30" xlink:title="vmd python ❎">
<ellipse fill="#31688e" stroke="black" cx="100.09" cy="-466" rx="80" ry="18"/>
<text text-anchor="middle" x="100.09" y="-462.3" font-family="Times,serif" font-size="14.00" fill="white">vmd python ❎</text>
</a>
</g>
</g>
<!-- vic&#45;&gt;vmd&#45;python -->
<!-- ambertools -->
<g id="node21" class="node">
<title>ambertools</title>
<g id="a_node21"><a xlink:href="https://github.com/conda-forge/ambertools-feedstock/pull/103" xlink:title="ambertools ✓">
<ellipse fill="#31688e" stroke="black" cx="100.09" cy="-394" rx="70.39" ry="18"/>
<text text-anchor="middle" x="100.09" y="-390.3" font-family="Times,serif" font-size="14.00" fill="white">ambertools ✓</text>
</a>
</g>
</g>
<!-- vmd&#45;python&#45;&gt;ambertools -->
<!-- fpocket -->
<g id="node23" class="node">
<title>fpocket</title>
<g id="a_node23"><a xlink:href="https://github.com/conda-forge/fpocket-feedstock/pull/19" xlink:title="fpocket ✓">
<ellipse fill="#31688e" stroke="black" cx="100.09" cy="-322" rx="52" ry="18"/>
<text text-anchor="middle" x="100.09" y="-318.3" font-family="Times,serif" font-size="14.00" fill="white">fpocket ✓</text>
</a>
</g>
</g>
<!-- ambertools&#45;&gt;fpocket -->
<!-- metview -->
<g id="node22" class="node">
<title>metview</title>
<g id="a_node22"><a xlink:href="https://github.com/conda-forge/metview-feedstock" xlink:title="metview">
<ellipse fill="#fde725" stroke="black" cx="100.09" cy="-170" rx="50.09" ry="18"/>
<text text-anchor="middle" x="100.09" y="-166.3" font-family="Times,serif" font-size="14.00">metview</text>
</a>
</g>
</g>
<!-- magics&#45;metview -->
<g id="node24" class="node">
<title>magics&#45;metview</title>
<g id="a_node24"><a xlink:href="https://github.com/conda-forge/magics-metview-feedstock/pull/63" xlink:title="magics metview ❎">
<ellipse fill="#31688e" stroke="black" cx="100.09" cy="-242" rx="100.18" ry="18"/>
<text text-anchor="middle" x="100.09" y="-238.3" font-family="Times,serif" font-size="14.00" fill="white">magics metview ❎</text>
</a>
</g>
</g>
<!-- magics&#45;metview&#45;&gt;metview -->
<g id="edge22" class="edge">
<title>magics&#45;metview&#45;&gt;metview</title>
<path fill="none" stroke="black" d="M100.09,-223.7C100.09,-216.41 100.09,-207.73 100.09,-199.54"/>
<polygon fill="black" stroke="black" points="103.59,-199.62 100.09,-189.62 96.59,-199.62 103.59,-199.62"/>
</g>
<!-- magics&#45;metview&#45;batch -->
<g id="node25" class="node">
<title>magics&#45;metview&#45;batch</title>
<g id="a_node25"><a xlink:href="https://github.com/conda-forge/magics-metview-batch-feedstock/pull/54" xlink:title="magics metview batch ❎">
<ellipse fill="#31688e" stroke="black" cx="555.09" cy="-718" rx="128.88" ry="18"/>
<text text-anchor="middle" x="555.09" y="-714.3" font-family="Times,serif" font-size="14.00" fill="white">magics metview batch ❎</text>
</a>
</g>
</g>
<!-- metview&#45;batch -->
<g id="node26" class="node">
<title>metview&#45;batch</title>
<g id="a_node26"><a xlink:href="https://github.com/conda-forge/metview-batch-feedstock" xlink:title="metview batch">
<ellipse fill="#fde725" stroke="black" cx="555.09" cy="-646" rx="79.5" ry="18"/>
<text text-anchor="middle" x="555.09" y="-642.3" font-family="Times,serif" font-size="14.00">metview batch</text>
</a>
</g>
</g>
<!-- magics&#45;metview&#45;batch&#45;&gt;metview&#45;batch -->
<g id="edge23" class="edge">
<title>magics&#45;metview&#45;batch&#45;&gt;metview&#45;batch</title>
<path fill="none" stroke="black" d="M555.09,-699.7C555.09,-692.41 555.09,-683.73 555.09,-675.54"/>
<polygon fill="black" stroke="black" points="558.59,-675.62 555.09,-665.62 551.59,-675.62 558.59,-675.62"/>
</g>
<!-- nccmp -->
<g id="node27" class="node">
<title>nccmp</title>
<g id="a_node27"><a xlink:href="https://github.com/conda-forge/nccmp-feedstock" xlink:title="nccmp">
<ellipse fill="#ff8c00" stroke="black" cx="313.09" cy="-278" rx="41" ry="18"/>
<text text-anchor="middle" x="313.09" y="-274.3" font-family="Times,serif" font-size="14.00">nccmp</text>
</a>
</g>
</g>
<!-- fimex -->
<g id="node28" class="node">
<title>fimex</title>
<g id="a_node28"><a xlink:href="https://github.com/conda-forge/fimex-feedstock/pull/54" xlink:title="fimex ❎">
<ellipse fill="#31688e" stroke="black" cx="313.09" cy="-206" rx="50.09" ry="18"/>
<text text-anchor="middle" x="313.09" y="-202.3" font-family="Times,serif" font-size="14.00" fill="white">fimex ❎</text>
</a>
</g>
</g>
<!-- nccmp&#45;&gt;fimex -->
<!-- loos -->
<g id="node29" class="node">
<title>loos</title>
<g id="a_node29"><a xlink:href="https://github.com/conda-forge/loos-feedstock/pull/9" xlink:title="loos ❎">
<ellipse fill="#31688e" stroke="black" cx="313.09" cy="-134" rx="43.59" ry="18"/>
<text text-anchor="middle" x="313.09" y="-130.3" font-family="Times,serif" font-size="14.00" fill="white">loos ❎</text>
</a>
</g>
</g>
<!-- fimex&#45;&gt;loos -->
</g>
</svg>
