<?xml version="1.0" encoding="UTF-8" standalone="no"?>
<!DOCTYPE svg PUBLIC "-//W3C//DTD SVG 1.1//EN"
 "http://www.w3.org/Graphics/SVG/1.1/DTD/svg11.dtd">
<!-- Generated by graphviz version 8.0.5 (20230506.1012)
 -->
<!-- Pages: 1 -->
<svg width="1726pt" height="1212pt"
 viewBox="0.00 0.00 1725.62 1212.00" xmlns="http://www.w3.org/2000/svg" xmlns:xlink="http://www.w3.org/1999/xlink">
<g id="graph0" class="graph" transform="scale(1 1) rotate(0) translate(4 1208)">
<polygon fill="white" stroke="none" points="-4,4 -4,-1208 1721.62,-1208 1721.62,4 -4,4"/>
<!-- arrow&#45;cpp -->
<g id="node1" class="node">
<title>arrow&#45;cpp</title>
<g id="a_node1"><a xlink:href="https://github.com/conda-forge/arrow-cpp-feedstock" xlink:title="arrow cpp">
<ellipse fill="#fde725" stroke="black" cx="1133.7" cy="-242" rx="61.73" ry="18"/>
<text text-anchor="middle" x="1133.7" y="-237.32" font-family="Times,serif" font-size="14.00">arrow cpp</text>
</a>
</g>
</g>
<!-- dask&#45;sql -->
<g id="node2" class="node">
<title>dask&#45;sql</title>
<g id="a_node2"><a xlink:href="https://github.com/conda-forge/dask-sql-feedstock" xlink:title="dask sql">
<ellipse fill="#fde725" stroke="black" cx="1133.7" cy="-170" rx="52.26" ry="18"/>
<text text-anchor="middle" x="1133.7" y="-165.32" font-family="Times,serif" font-size="14.00">dask sql</text>
</a>
</g>
</g>
<!-- arrow&#45;cpp&#45;&gt;dask&#45;sql -->
<g id="edge1" class="edge">
<title>arrow&#45;cpp&#45;&gt;dask&#45;sql</title>
<path fill="none" stroke="black" d="M1133.7,-223.7C1133.7,-216.24 1133.7,-207.32 1133.7,-198.97"/>
<polygon fill="black" stroke="black" points="1137.2,-199.1 1133.7,-189.1 1130.2,-199.1 1137.2,-199.1"/>
</g>
<!-- bazel -->
<g id="node3" class="node">
<title>bazel</title>
<g id="a_node3"><a xlink:href="https://github.com/conda-forge/bazel-feedstock" xlink:title="bazel">
<ellipse fill="#ff8c00" stroke="black" cx="1591.7" cy="-1186" rx="37.53" ry="18"/>
<text text-anchor="middle" x="1591.7" y="-1181.33" font-family="Times,serif" font-size="14.00">bazel</text>
</a>
</g>
</g>
<!-- mosh -->
<g id="node4" class="node">
<title>mosh</title>
<g id="a_node4"><a xlink:href="https://github.com/conda-forge/mosh-feedstock" xlink:title="mosh">
<ellipse fill="#35b779" stroke="black" cx="1591.7" cy="-1114" rx="38.06" ry="18"/>
<text text-anchor="middle" x="1591.7" y="-1109.33" font-family="Times,serif" font-size="14.00">mosh</text>
</a>
</g>
</g>
<!-- bazel&#45;&gt;mosh -->
<!-- paraview -->
<g id="node5" class="node">
<title>paraview</title>
<g id="a_node5"><a xlink:href="https://github.com/conda-forge/paraview-feedstock" xlink:title="paraview">
<ellipse fill="#35b779" stroke="black" cx="1591.7" cy="-1042" rx="57" ry="18"/>
<text text-anchor="middle" x="1591.7" y="-1037.33" font-family="Times,serif" font-size="14.00">paraview</text>
</a>
</g>
</g>
<!-- mosh&#45;&gt;paraview -->
<!-- qgis -->
<g id="node9" class="node">
<title>qgis</title>
<g id="a_node9"><a xlink:href="https://github.com/conda-forge/qgis-feedstock" xlink:title="qgis">
<ellipse fill="#35b779" stroke="black" cx="1591.7" cy="-970" rx="32.27" ry="18"/>
<text text-anchor="middle" x="1591.7" y="-965.33" font-family="Times,serif" font-size="14.00">qgis</text>
</a>
</g>
</g>
<!-- paraview&#45;&gt;qgis -->
<!-- mysql -->
<g id="node6" class="node">
<title>mysql</title>
<g id="a_node6"><a xlink:href="https://github.com/conda-forge/mysql-feedstock/pull/81" xlink:title="mysql ✓">
<ellipse fill="#31688e" stroke="black" cx="131.7" cy="-1006" rx="49.1" ry="18"/>
<text text-anchor="middle" x="131.7" y="-1001.33" font-family="Times,serif" font-size="14.00" fill="white">mysql ✓</text>
</a>
</g>
</g>
<!-- mysql&#45;connector&#45;python -->
<g id="node7" class="node">
<title>mysql&#45;connector&#45;python</title>
<g id="a_node7"><a xlink:href="https://github.com/conda-forge/mysql-connector-python-feedstock" xlink:title="mysql connector python">
<ellipse fill="#fde725" stroke="black" cx="131.7" cy="-934" rx="131.7" ry="18"/>
<text text-anchor="middle" x="131.7" y="-929.33" font-family="Times,serif" font-size="14.00">mysql connector python</text>
</a>
</g>
</g>
<!-- mysql&#45;&gt;mysql&#45;connector&#45;python -->
<g id="edge4" class="edge">
<title>mysql&#45;&gt;mysql&#45;connector&#45;python</title>
<path fill="none" stroke="black" d="M131.7,-987.7C131.7,-980.24 131.7,-971.32 131.7,-962.97"/>
<polygon fill="black" stroke="black" points="135.2,-963.1 131.7,-953.1 128.2,-963.1 135.2,-963.1"/>
</g>
<!-- onnx -->
<g id="node8" class="node">
<title>onnx</title>
<g id="a_node8"><a xlink:href="https://github.com/conda-forge/onnx-feedstock" xlink:title="onnx">
<ellipse fill="#fde725" stroke="black" cx="316.7" cy="-934" rx="35.42" ry="18"/>
<text text-anchor="middle" x="316.7" y="-929.33" font-family="Times,serif" font-size="14.00">onnx</text>
</a>
</g>
</g>
<!-- libhdfs3 -->
<g id="node18" class="node">
<title>libhdfs3</title>
<g id="a_node18"><a xlink:href="https://github.com/conda-forge/libhdfs3-feedstock" xlink:title="libhdfs3">
<ellipse fill="#35b779" stroke="black" cx="1591.7" cy="-898" rx="51.74" ry="18"/>
<text text-anchor="middle" x="1591.7" y="-893.33" font-family="Times,serif" font-size="14.00">libhdfs3</text>
</a>
</g>
</g>
<!-- qgis&#45;&gt;libhdfs3 -->
<!-- protobuf -->
<g id="node10" class="node">
<title>protobuf</title>
<g id="a_node10"><a xlink:href="https://github.com/conda-forge/protobuf-feedstock/pull/193" xlink:title="protobuf ✓">
<ellipse fill="#31688e" stroke="black" cx="455.7" cy="-1006" rx="62.26" ry="18"/>
<text text-anchor="middle" x="455.7" y="-1001.33" font-family="Times,serif" font-size="14.00" fill="white">protobuf ✓</text>
</a>
</g>
</g>
<!-- protobuf&#45;&gt;mysql&#45;connector&#45;python -->
<g id="edge6" class="edge">
<title>protobuf&#45;&gt;mysql&#45;connector&#45;python</title>
<path fill="none" stroke="black" d="M406.85,-994.44C354.87,-983.22 271.87,-965.28 210.61,-952.05"/>
<polygon fill="black" stroke="black" points="211.72,-948.49 201.2,-949.8 210.24,-955.33 211.72,-948.49"/>
</g>
<!-- protobuf&#45;&gt;onnx -->
<g id="edge7" class="edge">
<title>protobuf&#45;&gt;onnx</title>
<path fill="none" stroke="black" d="M425.54,-989.81C403.56,-978.74 373.76,-963.73 350.89,-952.22"/>
<polygon fill="black" stroke="black" points="352.75,-948.73 342.25,-947.36 349.61,-954.98 352.75,-948.73"/>
</g>
<!-- tensorflow -->
<g id="node11" class="node">
<title>tensorflow</title>
<g id="a_node11"><a xlink:href="https://github.com/conda-forge/tensorflow-feedstock" xlink:title="tensorflow">
<ellipse fill="#fde725" stroke="black" cx="325.7" cy="-862" rx="63.84" ry="18"/>
<text text-anchor="middle" x="325.7" y="-857.33" font-family="Times,serif" font-size="14.00">tensorflow</text>
</a>
</g>
</g>
<!-- protobuf&#45;&gt;tensorflow -->
<g id="edge8" class="edge">
<title>protobuf&#45;&gt;tensorflow</title>
<path fill="none" stroke="black" d="M439.07,-988.52C428.74,-978.18 415.27,-964.48 403.7,-952 384.13,-930.9 362.63,-906.24 347.16,-888.24"/>
<polygon fill="black" stroke="black" points="349.25,-886.3 340.09,-880.98 343.93,-890.85 349.25,-886.3"/>
</g>
<!-- zaber&#45;motion -->
<g id="node12" class="node">
<title>zaber&#45;motion</title>
<g id="a_node12"><a xlink:href="https://github.com/conda-forge/zaber-motion-feedstock" xlink:title="zaber motion">
<ellipse fill="#fde725" stroke="black" cx="350.7" cy="-790" rx="76.99" ry="18"/>
<text text-anchor="middle" x="350.7" y="-785.33" font-family="Times,serif" font-size="14.00">zaber motion</text>
</a>
</g>
</g>
<!-- protobuf&#45;&gt;zaber&#45;motion -->
<g id="edge9" class="edge">
<title>protobuf&#45;&gt;zaber&#45;motion</title>
<path fill="none" stroke="black" d="M450.57,-987.83C439.62,-951.73 413.75,-869.21 398.7,-844 392.63,-833.82 384.41,-823.86 376.49,-815.38"/>
<polygon fill="black" stroke="black" points="379.54,-813.47 370.06,-808.73 374.52,-818.34 379.54,-813.47"/>
</g>
<!-- protozfits -->
<g id="node13" class="node">
<title>protozfits</title>
<g id="a_node13"><a xlink:href="https://github.com/conda-forge/protozfits-feedstock" xlink:title="protozfits">
<ellipse fill="#fde725" stroke="black" cx="406.7" cy="-718" rx="59.1" ry="18"/>
<text text-anchor="middle" x="406.7" y="-713.33" font-family="Times,serif" font-size="14.00">protozfits</text>
</a>
</g>
</g>
<!-- protobuf&#45;&gt;protozfits -->
<g id="edge10" class="edge">
<title>protobuf&#45;&gt;protozfits</title>
<path fill="none" stroke="black" d="M456.8,-987.57C458.73,-948.16 460.55,-849.59 436.7,-772 433.84,-762.7 429.17,-753.24 424.35,-744.94"/>
<polygon fill="black" stroke="black" points="426.94,-743.48 418.72,-736.8 420.98,-747.15 426.94,-743.48"/>
</g>
<!-- imp -->
<g id="node14" class="node">
<title>imp</title>
<g id="a_node14"><a xlink:href="https://github.com/conda-forge/imp-feedstock" xlink:title="imp">
<ellipse fill="#fde725" stroke="black" cx="493.7" cy="-646" rx="30.16" ry="18"/>
<text text-anchor="middle" x="493.7" y="-641.33" font-family="Times,serif" font-size="14.00">imp</text>
</a>
</g>
</g>
<!-- protobuf&#45;&gt;imp -->
<g id="edge11" class="edge">
<title>protobuf&#45;&gt;imp</title>
<path fill="none" stroke="black" d="M463.39,-987.91C474.5,-961.62 493.7,-909.45 493.7,-863 493.7,-863 493.7,-863 493.7,-789 493.7,-749.57 493.7,-703.97 493.7,-675.31"/>
<polygon fill="black" stroke="black" points="497.2,-675.49 493.7,-665.49 490.2,-675.49 497.2,-675.49"/>
</g>
<!-- or&#45;tools -->
<g id="node15" class="node">
<title>or&#45;tools</title>
<g id="a_node15"><a xlink:href="https://github.com/conda-forge/or-tools-feedstock" xlink:title="or tools">
<ellipse fill="#fde725" stroke="black" cx="570.7" cy="-934" rx="49.1" ry="18"/>
<text text-anchor="middle" x="570.7" y="-929.33" font-family="Times,serif" font-size="14.00">or tools</text>
</a>
</g>
</g>
<!-- protobuf&#45;&gt;or&#45;tools -->
<g id="edge12" class="edge">
<title>protobuf&#45;&gt;or&#45;tools</title>
<path fill="none" stroke="black" d="M481.51,-989.29C497.83,-979.36 519.09,-966.41 536.77,-955.66"/>
<polygon fill="black" stroke="black" points="538.44,-958.13 545.16,-949.94 534.8,-952.15 538.44,-958.13"/>
</g>
<!-- xilinx&#45;runtime -->
<g id="node16" class="node">
<title>xilinx&#45;runtime</title>
<g id="a_node16"><a xlink:href="https://github.com/conda-forge/xilinx-runtime-feedstock" xlink:title="xilinx runtime">
<ellipse fill="#fde725" stroke="black" cx="647.7" cy="-862" rx="81.72" ry="18"/>
<text text-anchor="middle" x="647.7" y="-857.33" font-family="Times,serif" font-size="14.00">xilinx runtime</text>
</a>
</g>
</g>
<!-- protobuf&#45;&gt;xilinx&#45;runtime -->
<g id="edge13" class="edge">
<title>protobuf&#45;&gt;xilinx&#45;runtime</title>
<path fill="none" stroke="black" d="M516.33,-1001.56C553.85,-996.19 600.15,-983.15 628.7,-952 643.63,-935.72 647.92,-910.68 648.74,-891.31"/>
<polygon fill="black" stroke="black" points="652.25,-891.42 648.87,-881.38 645.25,-891.34 652.25,-891.42"/>
</g>
<!-- arcticdb -->
<g id="node17" class="node">
<title>arcticdb</title>
<g id="a_node17"><a xlink:href="https://github.com/conda-forge/arcticdb-feedstock" xlink:title="arcticdb">
<ellipse fill="#fde725" stroke="black" cx="757.7" cy="-790" rx="52.26" ry="18"/>
<text text-anchor="middle" x="757.7" y="-785.33" font-family="Times,serif" font-size="14.00">arcticdb</text>
</a>
</g>
</g>
<!-- protobuf&#45;&gt;arcticdb -->
<g id="edge14" class="edge">
<title>protobuf&#45;&gt;arcticdb</title>
<path fill="none" stroke="black" d="M509.96,-996.76C550.64,-989.09 606.78,-975.26 651.7,-952 696.27,-928.92 712.69,-922.92 738.7,-880 749.84,-861.62 754.51,-837.66 756.43,-819.22"/>
<polygon fill="black" stroke="black" points="760,-819.54 757.33,-809.29 753.02,-818.97 760,-819.54"/>
</g>
<!-- r&#45;protolite -->
<g id="node19" class="node">
<title>r&#45;protolite</title>
<g id="a_node19"><a xlink:href="https://github.com/conda-forge/r-protolite-feedstock" xlink:title="r protolite">
<ellipse fill="#35b779" stroke="black" cx="1591.7" cy="-826" rx="62.26" ry="18"/>
<text text-anchor="middle" x="1591.7" y="-821.33" font-family="Times,serif" font-size="14.00">r protolite</text>
</a>
</g>
</g>
<!-- libhdfs3&#45;&gt;r&#45;protolite -->
<!-- jaxlib -->
<g id="node20" class="node">
<title>jaxlib</title>
<g id="a_node20"><a xlink:href="https://github.com/conda-forge/jaxlib-feedstock" xlink:title="jaxlib">
<ellipse fill="#ff8c00" stroke="black" cx="1591.7" cy="-754" rx="38.58" ry="18"/>
<text text-anchor="middle" x="1591.7" y="-749.33" font-family="Times,serif" font-size="14.00">jaxlib</text>
</a>
</g>
</g>
<!-- r&#45;protolite&#45;&gt;jaxlib -->
<!-- go&#45;cockroach -->
<g id="node22" class="node">
<title>go&#45;cockroach</title>
<g id="a_node22"><a xlink:href="https://github.com/conda-forge/go-cockroach-feedstock" xlink:title="go cockroach">
<ellipse fill="#35b779" stroke="black" cx="1591.7" cy="-682" rx="76.46" ry="18"/>
<text text-anchor="middle" x="1591.7" y="-677.33" font-family="Times,serif" font-size="14.00">go cockroach</text>
</a>
</g>
</g>
<!-- jaxlib&#45;&gt;go&#45;cockroach -->
<!-- pytorch&#45;cpu -->
<g id="node21" class="node">
<title>pytorch&#45;cpu</title>
<g id="a_node21"><a xlink:href="https://github.com/conda-forge/pytorch-cpu-feedstock/pull/173" xlink:title="pytorch cpu ❎">
<ellipse fill="#31688e" stroke="black" cx="1076.7" cy="-314" rx="85.93" ry="18"/>
<text text-anchor="middle" x="1076.7" y="-309.32" font-family="Times,serif" font-size="14.00" fill="white">pytorch cpu ❎</text>
</a>
</g>
</g>
<!-- pytorch&#45;cpu&#45;&gt;arrow&#45;cpp -->
<g id="edge18" class="edge">
<title>pytorch&#45;cpu&#45;&gt;arrow&#45;cpp</title>
<path fill="none" stroke="black" d="M1090.5,-296.05C1097.29,-287.71 1105.62,-277.49 1113.14,-268.25"/>
<polygon fill="black" stroke="black" points="1116.43,-270.75 1120.03,-260.79 1111,-266.33 1116.43,-270.75"/>
</g>
<!-- cartographer -->
<g id="node33" class="node">
<title>cartographer</title>
<g id="a_node33"><a xlink:href="https://github.com/conda-forge/cartographer-feedstock" xlink:title="cartographer">
<ellipse fill="#35b779" stroke="black" cx="1591.7" cy="-610" rx="76.99" ry="18"/>
<text text-anchor="middle" x="1591.7" y="-605.33" font-family="Times,serif" font-size="14.00">cartographer</text>
</a>
</g>
</g>
<!-- go&#45;cockroach&#45;&gt;cartographer -->
<!-- libignition&#45;transport4 -->
<g id="node23" class="node">
<title>libignition&#45;transport4</title>
<g id="a_node23"><a xlink:href="https://github.com/conda-forge/libignition-transport4-feedstock" xlink:title="libignition transport4">
<ellipse fill="#fde725" stroke="black" cx="1023.7" cy="-898" rx="119.08" ry="18"/>
<text text-anchor="middle" x="1023.7" y="-893.33" font-family="Times,serif" font-size="14.00">libignition transport4</text>
</a>
</g>
</g>
<!-- libignition&#45;sensors -->
<g id="node24" class="node">
<title>libignition&#45;sensors</title>
<g id="a_node24"><a xlink:href="https://github.com/conda-forge/libignition-sensors-feedstock" xlink:title="libignition sensors">
<ellipse fill="#fde725" stroke="black" cx="1178.7" cy="-826" rx="103.82" ry="18"/>
<text text-anchor="middle" x="1178.7" y="-821.33" font-family="Times,serif" font-size="14.00">libignition sensors</text>
</a>
</g>
</g>
<!-- libignition&#45;transport4&#45;&gt;libignition&#45;sensors -->
<g id="edge20" class="edge">
<title>libignition&#45;transport4&#45;&gt;libignition&#45;sensors</title>
<path fill="none" stroke="black" d="M1060.44,-880.41C1082.04,-870.66 1109.55,-858.23 1132.59,-847.82"/>
<polygon fill="black" stroke="black" points="1133.83,-850.65 1141.5,-843.35 1130.95,-844.28 1133.83,-850.65"/>
</g>
<!-- libignition&#45;gui -->
<g id="node25" class="node">
<title>libignition&#45;gui</title>
<g id="a_node25"><a xlink:href="https://github.com/conda-forge/libignition-gui-feedstock" xlink:title="libignition gui">
<ellipse fill="#fde725" stroke="black" cx="899.7" cy="-826" rx="81.2" ry="18"/>
<text text-anchor="middle" x="899.7" y="-821.33" font-family="Times,serif" font-size="14.00">libignition gui</text>
</a>
</g>
</g>
<!-- libignition&#45;transport4&#45;&gt;libignition&#45;gui -->
<g id="edge21" class="edge">
<title>libignition&#45;transport4&#45;&gt;libignition&#45;gui</title>
<path fill="none" stroke="black" d="M994,-880.23C977.04,-870.66 955.6,-858.56 937.46,-848.31"/>
<polygon fill="black" stroke="black" points="939.74,-845.02 929.31,-843.15 936.3,-851.11 939.74,-845.02"/>
</g>
<!-- libignition&#45;gazebo -->
<g id="node26" class="node">
<title>libignition&#45;gazebo</title>
<g id="a_node26"><a xlink:href="https://github.com/conda-forge/libignition-gazebo-feedstock" xlink:title="libignition gazebo">
<ellipse fill="#fde725" stroke="black" cx="1158.7" cy="-754" rx="100.66" ry="18"/>
<text text-anchor="middle" x="1158.7" y="-749.33" font-family="Times,serif" font-size="14.00">libignition gazebo</text>
</a>
</g>
</g>
<!-- libignition&#45;transport4&#45;&gt;libignition&#45;gazebo -->
<g id="edge22" class="edge">
<title>libignition&#45;transport4&#45;&gt;libignition&#45;gazebo</title>
<path fill="none" stroke="black" d="M1028.37,-879.8C1034.35,-860.43 1046.32,-828.94 1065.7,-808 1077.93,-794.79 1094.23,-783.98 1109.76,-775.66"/>
<polygon fill="black" stroke="black" points="1110.97,-778.46 1118.29,-770.8 1107.79,-772.22 1110.97,-778.46"/>
</g>
<!-- libignition&#45;launch -->
<g id="node27" class="node">
<title>libignition&#45;launch</title>
<g id="a_node27"><a xlink:href="https://github.com/conda-forge/libignition-launch-feedstock" xlink:title="libignition launch">
<ellipse fill="#fde725" stroke="black" cx="1093.7" cy="-682" rx="98.56" ry="18"/>
<text text-anchor="middle" x="1093.7" y="-677.33" font-family="Times,serif" font-size="14.00">libignition launch</text>
</a>
</g>
</g>
<!-- libignition&#45;transport4&#45;&gt;libignition&#45;launch -->
<g id="edge23" class="edge">
<title>libignition&#45;transport4&#45;&gt;libignition&#45;launch</title>
<path fill="none" stroke="black" d="M1023.37,-879.68C1023.44,-849.2 1026.47,-784.62 1048.7,-736 1053.32,-725.9 1060.44,-716.21 1067.66,-707.94"/>
<polygon fill="black" stroke="black" points="1069.89,-710.6 1074.11,-700.89 1064.75,-705.85 1069.89,-710.6"/>
</g>
<!-- libignition&#45;sensors&#45;&gt;libignition&#45;gazebo -->
<g id="edge24" class="edge">
<title>libignition&#45;sensors&#45;&gt;libignition&#45;gazebo</title>
<path fill="none" stroke="black" d="M1173.76,-807.7C1171.6,-800.15 1169.02,-791.12 1166.61,-782.68"/>
<polygon fill="black" stroke="black" points="1169.7,-781.76 1163.59,-773.1 1162.97,-783.68 1169.7,-781.76"/>
</g>
<!-- libignition&#45;gui&#45;&gt;libignition&#45;gazebo -->
<g id="edge25" class="edge">
<title>libignition&#45;gui&#45;&gt;libignition&#45;gazebo</title>
<path fill="none" stroke="black" d="M949.95,-811.42C991.08,-800.3 1049.54,-784.5 1094.13,-772.45"/>
<polygon fill="black" stroke="black" points="1094.84,-775.62 1103.58,-769.63 1093.01,-768.86 1094.84,-775.62"/>
</g>
<!-- libignition&#45;gui&#45;&gt;libignition&#45;launch -->
<g id="edge26" class="edge">
<title>libignition&#45;gui&#45;&gt;libignition&#45;launch</title>
<path fill="none" stroke="black" d="M915.04,-808.18C932.95,-789.17 964.03,-758 994.7,-736 1011.55,-723.92 1031.47,-712.73 1049.02,-703.78"/>
<polygon fill="black" stroke="black" points="1050.11,-706.65 1057.49,-699.05 1046.98,-700.39 1050.11,-706.65"/>
</g>
<!-- libignition&#45;gazebo&#45;&gt;libignition&#45;launch -->
<g id="edge27" class="edge">
<title>libignition&#45;gazebo&#45;&gt;libignition&#45;launch</title>
<path fill="none" stroke="black" d="M1142.97,-736.05C1135.06,-727.54 1125.34,-717.07 1116.62,-707.68"/>
<polygon fill="black" stroke="black" points="1119.66,-705.74 1110.29,-700.79 1114.53,-710.5 1119.66,-705.74"/>
</g>
<!-- libignition&#45;msgs1 -->
<g id="node28" class="node">
<title>libignition&#45;msgs1</title>
<g id="a_node28"><a xlink:href="https://github.com/conda-forge/libignition-msgs1-feedstock" xlink:title="libignition msgs1">
<ellipse fill="#35b779" stroke="black" cx="1240.7" cy="-970" rx="98.03" ry="18"/>
<text text-anchor="middle" x="1240.7" y="-965.33" font-family="Times,serif" font-size="14.00">libignition msgs1</text>
</a>
</g>
</g>
<!-- libignition&#45;msgs1&#45;&gt;libignition&#45;transport4 -->
<g id="edge28" class="edge">
<title>libignition&#45;msgs1&#45;&gt;libignition&#45;transport4</title>
<path fill="none" stroke="black" d="M1193.62,-953.81C1161.06,-943.31 1117.49,-929.25 1082.63,-918.01"/>
<polygon fill="black" stroke="black" points="1084.17,-914.51 1073.58,-914.77 1082.02,-921.17 1084.17,-914.51"/>
</g>
<!-- libignition&#45;msgs1&#45;&gt;libignition&#45;sensors -->
<g id="edge29" class="edge">
<title>libignition&#45;msgs1&#45;&gt;libignition&#45;sensors</title>
<path fill="none" stroke="black" d="M1218.92,-952.2C1208.3,-942.76 1196.4,-930.06 1189.7,-916 1180.65,-897 1178.09,-873.25 1177.69,-855.07"/>
<polygon fill="black" stroke="black" points="1181.19,-855.29 1177.69,-845.29 1174.19,-855.29 1181.19,-855.29"/>
</g>
<!-- libignition&#45;msgs1&#45;&gt;libignition&#45;gui -->
<g id="edge30" class="edge">
<title>libignition&#45;msgs1&#45;&gt;libignition&#45;gui</title>
<path fill="none" stroke="black" d="M1143.16,-967.69C1052.56,-964.15 927.08,-952.56 895.7,-916 881.49,-899.44 884.16,-874.1 889.42,-854.69"/>
<polygon fill="black" stroke="black" points="893.01,-855.92 892.61,-845.33 886.32,-853.85 893.01,-855.92"/>
</g>
<!-- libignition&#45;msgs1&#45;&gt;libignition&#45;gazebo -->
<g id="edge31" class="edge">
<title>libignition&#45;msgs1&#45;&gt;libignition&#45;gazebo</title>
<path fill="none" stroke="black" d="M1325.33,-960.52C1388.14,-950.26 1458.61,-927.93 1431.7,-880 1394.72,-814.12 1312.12,-782.77 1247.39,-767.97"/>
<polygon fill="black" stroke="black" points="1248.28,-764.36 1237.76,-765.65 1246.79,-771.2 1248.28,-764.36"/>
</g>
<!-- libignition&#45;msgs1&#45;&gt;libignition&#45;launch -->
<g id="edge32" class="edge">
<title>libignition&#45;msgs1&#45;&gt;libignition&#45;launch</title>
<path fill="none" stroke="black" d="M1319.33,-958.94C1370.93,-950.54 1431.72,-936.59 1447.7,-916 1457.51,-903.36 1452.83,-895.16 1447.7,-880 1409.77,-767.85 1268.66,-718.01 1176.46,-697.03"/>
<polygon fill="black" stroke="black" points="1177.27,-693.4 1166.75,-694.67 1175.76,-700.24 1177.27,-693.4"/>
</g>
<!-- libignition&#45;fuel&#45;tools -->
<g id="node29" class="node">
<title>libignition&#45;fuel&#45;tools</title>
<g id="a_node29"><a xlink:href="https://github.com/conda-forge/libignition-fuel-tools-feedstock" xlink:title="libignition fuel tools">
<ellipse fill="#fde725" stroke="black" cx="1310.7" cy="-898" rx="111.71" ry="18"/>
<text text-anchor="middle" x="1310.7" y="-893.33" font-family="Times,serif" font-size="14.00">libignition fuel tools</text>
</a>
</g>
</g>
<!-- libignition&#45;msgs1&#45;&gt;libignition&#45;fuel&#45;tools -->
<g id="edge33" class="edge">
<title>libignition&#45;msgs1&#45;&gt;libignition&#45;fuel&#45;tools</title>
<path fill="none" stroke="black" d="M1257.65,-952.05C1266.12,-943.58 1276.53,-933.17 1285.89,-923.82"/>
<polygon fill="black" stroke="black" points="1287.83,-926.82 1292.43,-917.28 1282.88,-921.87 1287.83,-926.82"/>
</g>
<!-- libignition&#45;fuel&#45;tools&#45;&gt;libignition&#45;gazebo -->
<g id="edge34" class="edge">
<title>libignition&#45;fuel&#45;tools&#45;&gt;libignition&#45;gazebo</title>
<path fill="none" stroke="black" d="M1311.58,-879.52C1311.62,-859.89 1308.72,-828.16 1291.7,-808 1277.31,-790.94 1256.64,-779.33 1235.88,-771.44"/>
<polygon fill="black" stroke="black" points="1237.3,-767.88 1226.71,-767.86 1234.98,-774.48 1237.3,-767.88"/>
</g>
<!-- gazebo -->
<g id="node30" class="node">
<title>gazebo</title>
<g id="a_node30"><a xlink:href="https://github.com/conda-forge/gazebo-feedstock" xlink:title="gazebo">
<ellipse fill="#35b779" stroke="black" cx="404.7" cy="-90" rx="46.47" ry="18"/>
<text text-anchor="middle" x="404.7" y="-85.33" font-family="Times,serif" font-size="14.00">gazebo</text>
</a>
</g>
</g>
<!-- gazebo&#45;yarp&#45;plugins -->
<g id="node31" class="node">
<title>gazebo&#45;yarp&#45;plugins</title>
<g id="a_node31"><a xlink:href="https://github.com/conda-forge/gazebo-yarp-plugins-feedstock" xlink:title="gazebo yarp plugins">
<ellipse fill="#fde725" stroke="black" cx="404.7" cy="-18" rx="112.24" ry="18"/>
<text text-anchor="middle" x="404.7" y="-13.32" font-family="Times,serif" font-size="14.00">gazebo yarp plugins</text>
</a>
</g>
</g>
<!-- gazebo&#45;&gt;gazebo&#45;yarp&#45;plugins -->
<g id="edge35" class="edge">
<title>gazebo&#45;&gt;gazebo&#45;yarp&#45;plugins</title>
<path fill="none" stroke="black" d="M404.7,-71.7C404.7,-64.24 404.7,-55.32 404.7,-46.97"/>
<polygon fill="black" stroke="black" points="408.2,-47.1 404.7,-37.1 401.2,-47.1 408.2,-47.1"/>
</g>
<!-- google&#45;cloud&#45;cpp -->
<g id="node32" class="node">
<title>google&#45;cloud&#45;cpp</title>
<g id="a_node32"><a xlink:href="https://github.com/conda-forge/google-cloud-cpp-feedstock" xlink:title="google cloud cpp">
<ellipse fill="#ff8c00" stroke="black" cx="1190.7" cy="-386" rx="95.4" ry="18"/>
<text text-anchor="middle" x="1190.7" y="-381.32" font-family="Times,serif" font-size="14.00">google cloud cpp</text>
</a>
</g>
</g>
<!-- google&#45;cloud&#45;cpp&#45;&gt;arrow&#45;cpp -->
<g id="edge36" class="edge">
<title>google&#45;cloud&#45;cpp&#45;&gt;arrow&#45;cpp</title>
<path fill="none" stroke="black" d="M1189.12,-367.62C1186.97,-349.2 1182.11,-319.55 1171.7,-296 1167.4,-286.27 1161.13,-276.53 1154.93,-268.12"/>
<polygon fill="black" stroke="black" points="1157.19,-266.33 1148.31,-260.56 1151.66,-270.61 1157.19,-266.33"/>
</g>
<!-- sentencepiece -->
<g id="node34" class="node">
<title>sentencepiece</title>
<g id="a_node34"><a xlink:href="https://github.com/conda-forge/sentencepiece-feedstock/pull/41" xlink:title="sentencepiece ✓">
<ellipse fill="#31688e" stroke="black" cx="1591.7" cy="-538" rx="90.14" ry="18"/>
<text text-anchor="middle" x="1591.7" y="-533.33" font-family="Times,serif" font-size="14.00" fill="white">sentencepiece ✓</text>
</a>
</g>
</g>
<!-- cartographer&#45;&gt;sentencepiece -->
<!-- tomviz -->
<g id="node35" class="node">
<title>tomviz</title>
<g id="a_node35"><a xlink:href="https://github.com/conda-forge/tomviz-feedstock" xlink:title="tomviz">
<ellipse fill="#35b779" stroke="black" cx="1591.7" cy="-466" rx="44.9" ry="18"/>
<text text-anchor="middle" x="1591.7" y="-461.32" font-family="Times,serif" font-size="14.00">tomviz</text>
</a>
</g>
</g>
<!-- sentencepiece&#45;&gt;tomviz -->
<!-- bear -->
<g id="node36" class="node">
<title>bear</title>
<g id="a_node36"><a xlink:href="https://github.com/conda-forge/bear-feedstock" xlink:title="bear">
<ellipse fill="#35b779" stroke="black" cx="1591.7" cy="-386" rx="33.85" ry="18"/>
<text text-anchor="middle" x="1591.7" y="-381.32" font-family="Times,serif" font-size="14.00">bear</text>
</a>
</g>
</g>
<!-- cpp&#45;opentelemetry&#45;sdk -->
<g id="node37" class="node">
<title>cpp&#45;opentelemetry&#45;sdk</title>
<g id="a_node37"><a xlink:href="https://github.com/conda-forge/cpp-opentelemetry-sdk-feedstock" xlink:title="cpp opentelemetry sdk">
<ellipse fill="#35b779" stroke="black" cx="1591.7" cy="-314" rx="125.92" ry="18"/>
<text text-anchor="middle" x="1591.7" y="-309.32" font-family="Times,serif" font-size="14.00">cpp opentelemetry sdk</text>
</a>
</g>
</g>
<!-- bear&#45;&gt;cpp&#45;opentelemetry&#45;sdk -->
<!-- singlejar -->
<g id="node38" class="node">
<title>singlejar</title>
<g id="a_node38"><a xlink:href="https://github.com/conda-forge/singlejar-feedstock" xlink:title="singlejar">
<ellipse fill="#35b779" stroke="black" cx="1591.7" cy="-242" rx="54.89" ry="18"/>
<text text-anchor="middle" x="1591.7" y="-237.32" font-family="Times,serif" font-size="14.00">singlejar</text>
</a>
</g>
</g>
<!-- cpp&#45;opentelemetry&#45;sdk&#45;&gt;singlejar -->
<!-- libpulsar -->
<g id="node39" class="node">
<title>libpulsar</title>
<g id="a_node39"><a xlink:href="https://github.com/conda-forge/libpulsar-feedstock" xlink:title="libpulsar">
<ellipse fill="#35b779" stroke="black" cx="1591.7" cy="-170" rx="55.42" ry="18"/>
<text text-anchor="middle" x="1591.7" y="-165.32" font-family="Times,serif" font-size="14.00">libpulsar</text>
</a>
</g>
</g>
<!-- singlejar&#45;&gt;libpulsar -->
<!-- gz&#45;msgs -->
<g id="node40" class="node">
<title>gz&#45;msgs</title>
<g id="a_node40"><a xlink:href="https://github.com/conda-forge/gz-msgs-feedstock" xlink:title="gz msgs">
<ellipse fill="#35b779" stroke="black" cx="366.7" cy="-422" rx="52.26" ry="18"/>
<text text-anchor="middle" x="366.7" y="-417.32" font-family="Times,serif" font-size="14.00">gz msgs</text>
</a>
</g>
</g>
<!-- gz&#45;transport -->
<g id="node41" class="node">
<title>gz&#45;transport</title>
<g id="a_node41"><a xlink:href="https://github.com/conda-forge/gz-transport-feedstock" xlink:title="gz transport">
<ellipse fill="#fde725" stroke="black" cx="316.7" cy="-350" rx="73.3" ry="18"/>
<text text-anchor="middle" x="316.7" y="-345.32" font-family="Times,serif" font-size="14.00">gz transport</text>
</a>
</g>
</g>
<!-- gz&#45;msgs&#45;&gt;gz&#45;transport -->
<g id="edge43" class="edge">
<title>gz&#45;msgs&#45;&gt;gz&#45;transport</title>
<path fill="none" stroke="black" d="M354.6,-404.05C348.7,-395.8 341.49,-385.7 334.94,-376.54"/>
<polygon fill="black" stroke="black" points="337.36,-374.89 328.69,-368.79 331.66,-378.96 337.36,-374.89"/>
</g>
<!-- gz&#45;fuel&#45;tools -->
<g id="node42" class="node">
<title>gz&#45;fuel&#45;tools</title>
<g id="a_node42"><a xlink:href="https://github.com/conda-forge/gz-fuel-tools-feedstock" xlink:title="gz fuel tools">
<ellipse fill="#fde725" stroke="black" cx="517.7" cy="-350" rx="72.25" ry="18"/>
<text text-anchor="middle" x="517.7" y="-345.32" font-family="Times,serif" font-size="14.00">gz fuel tools</text>
</a>
</g>
</g>
<!-- gz&#45;msgs&#45;&gt;gz&#45;fuel&#45;tools -->
<g id="edge44" class="edge">
<title>gz&#45;msgs&#45;&gt;gz&#45;fuel&#45;tools</title>
<path fill="none" stroke="black" d="M396.9,-407C419.14,-396.69 449.7,-382.53 474.52,-371.02"/>
<polygon fill="black" stroke="black" points="475.81,-373.81 483.41,-366.43 472.87,-367.46 475.81,-373.81"/>
</g>
<!-- gz&#45;gui -->
<g id="node43" class="node">
<title>gz&#45;gui</title>
<g id="a_node43"><a xlink:href="https://github.com/conda-forge/gz-gui-feedstock" xlink:title="gz gui">
<ellipse fill="#fde725" stroke="black" cx="225.7" cy="-278" rx="41.74" ry="18"/>
<text text-anchor="middle" x="225.7" y="-273.32" font-family="Times,serif" font-size="14.00">gz gui</text>
</a>
</g>
</g>
<!-- gz&#45;msgs&#45;&gt;gz&#45;gui -->
<g id="edge45" class="edge">
<title>gz&#45;msgs&#45;&gt;gz&#45;gui</title>
<path fill="none" stroke="black" d="M318.89,-414.38C289.83,-407.73 254.59,-394.45 234.7,-368 221.73,-350.75 220.19,-326.01 221.49,-306.99"/>
<polygon fill="black" stroke="black" points="225.05,-307.57 222.56,-297.28 218.08,-306.88 225.05,-307.57"/>
</g>
<!-- gz&#45;sensors -->
<g id="node44" class="node">
<title>gz&#45;sensors</title>
<g id="a_node44"><a xlink:href="https://github.com/conda-forge/gz-sensors-feedstock" xlink:title="gz sensors">
<ellipse fill="#fde725" stroke="black" cx="425.7" cy="-278" rx="64.36" ry="18"/>
<text text-anchor="middle" x="425.7" y="-273.32" font-family="Times,serif" font-size="14.00">gz sensors</text>
</a>
</g>
</g>
<!-- gz&#45;msgs&#45;&gt;gz&#45;sensors -->
<g id="edge46" class="edge">
<title>gz&#45;msgs&#45;&gt;gz&#45;sensors</title>
<path fill="none" stroke="black" d="M378.2,-404.4C384.86,-394.23 393.02,-380.77 398.7,-368 407.53,-348.18 414.52,-324.65 419.18,-306.77"/>
<polygon fill="black" stroke="black" points="422.8,-307.73 421.84,-297.18 416.01,-306.03 422.8,-307.73"/>
</g>
<!-- gz&#45;sim -->
<g id="node45" class="node">
<title>gz&#45;sim</title>
<g id="a_node45"><a xlink:href="https://github.com/conda-forge/gz-sim-feedstock" xlink:title="gz sim">
<ellipse fill="#fde725" stroke="black" cx="396.7" cy="-206" rx="43.84" ry="18"/>
<text text-anchor="middle" x="396.7" y="-201.33" font-family="Times,serif" font-size="14.00">gz sim</text>
</a>
</g>
</g>
<!-- gz&#45;msgs&#45;&gt;gz&#45;sim -->
<g id="edge47" class="edge">
<title>gz&#45;msgs&#45;&gt;gz&#45;sim</title>
<path fill="none" stroke="black" d="M417.03,-416.71C478.31,-410.32 576.42,-395.94 598.7,-368 651.57,-301.69 516.11,-245.49 441.7,-220.65"/>
<polygon fill="black" stroke="black" points="443.23,-217.14 432.64,-217.36 441.05,-223.79 443.23,-217.14"/>
</g>
<!-- gz&#45;launch -->
<g id="node46" class="node">
<title>gz&#45;launch</title>
<g id="a_node46"><a xlink:href="https://github.com/conda-forge/gz-launch-feedstock" xlink:title="gz launch">
<ellipse fill="#fde725" stroke="black" cx="276.7" cy="-134" rx="59.1" ry="18"/>
<text text-anchor="middle" x="276.7" y="-129.32" font-family="Times,serif" font-size="14.00">gz launch</text>
</a>
</g>
</g>
<!-- gz&#45;msgs&#45;&gt;gz&#45;launch -->
<g id="edge48" class="edge">
<title>gz&#45;msgs&#45;&gt;gz&#45;launch</title>
<path fill="none" stroke="black" d="M321,-412.99C289.53,-405.61 248.23,-392.03 218.7,-368 189.61,-344.33 184.86,-332.1 174.7,-296 159.23,-241 211.03,-186.96 246.39,-157.59"/>
<polygon fill="black" stroke="black" points="247.95,-160.02 253.54,-151.02 243.56,-154.58 247.95,-160.02"/>
</g>
<!-- gz&#45;transport&#45;&gt;gz&#45;gui -->
<g id="edge49" class="edge">
<title>gz&#45;transport&#45;&gt;gz&#45;gui</title>
<path fill="none" stroke="black" d="M295.14,-332.41C282.81,-322.93 267.2,-310.92 253.9,-300.69"/>
<polygon fill="black" stroke="black" points="256.62,-297.6 246.56,-294.27 252.35,-303.15 256.62,-297.6"/>
</g>
<!-- gz&#45;transport&#45;&gt;gz&#45;sensors -->
<g id="edge50" class="edge">
<title>gz&#45;transport&#45;&gt;gz&#45;sensors</title>
<path fill="none" stroke="black" d="M341.98,-332.76C356.81,-323.24 375.73,-311.09 391.83,-300.75"/>
<polygon fill="black" stroke="black" points="393.41,-303.25 399.93,-294.91 389.63,-297.36 393.41,-303.25"/>
</g>
<!-- gz&#45;transport&#45;&gt;gz&#45;sim -->
<g id="edge51" class="edge">
<title>gz&#45;transport&#45;&gt;gz&#45;sim</title>
<path fill="none" stroke="black" d="M321.88,-331.87C327.85,-313.39 338.68,-283.46 352.7,-260 358.68,-249.99 366.49,-239.92 373.87,-231.28"/>
<polygon fill="black" stroke="black" points="376.02,-233.99 380.01,-224.18 370.77,-229.36 376.02,-233.99"/>
</g>
<!-- gz&#45;transport&#45;&gt;gz&#45;launch -->
<g id="edge52" class="edge">
<title>gz&#45;transport&#45;&gt;gz&#45;launch</title>
<path fill="none" stroke="black" d="M313.5,-331.85C306.61,-294.99 290.33,-207.92 281.93,-162.96"/>
<polygon fill="black" stroke="black" points="285.2,-162.42 279.92,-153.23 278.32,-163.71 285.2,-162.42"/>
</g>
<!-- gz&#45;fuel&#45;tools&#45;&gt;gz&#45;sim -->
<g id="edge53" class="edge">
<title>gz&#45;fuel&#45;tools&#45;&gt;gz&#45;sim</title>
<path fill="none" stroke="black" d="M518.21,-331.82C517.91,-312.47 514.69,-280.99 498.7,-260 484.63,-241.53 462.29,-228.9 442.09,-220.62"/>
<polygon fill="black" stroke="black" points="443.68,-217.1 433.09,-216.79 441.17,-223.63 443.68,-217.1"/>
</g>
<!-- gz&#45;gui&#45;&gt;gz&#45;sim -->
<g id="edge54" class="edge">
<title>gz&#45;gui&#45;&gt;gz&#45;sim</title>
<path fill="none" stroke="black" d="M255.1,-264.97C283.07,-253.52 325.38,-236.2 356.47,-223.47"/>
<polygon fill="black" stroke="black" points="357.61,-226.37 365.54,-219.35 354.96,-219.9 357.61,-226.37"/>
</g>
<!-- gz&#45;gui&#45;&gt;gz&#45;launch -->
<g id="edge55" class="edge">
<title>gz&#45;gui&#45;&gt;gz&#45;launch</title>
<path fill="none" stroke="black" d="M231.85,-259.87C240.55,-235.67 256.51,-191.21 266.86,-162.39"/>
<polygon fill="black" stroke="black" points="270.44,-163.78 270.53,-153.19 263.86,-161.42 270.44,-163.78"/>
</g>
<!-- gz&#45;sensors&#45;&gt;gz&#45;sim -->
<g id="edge56" class="edge">
<title>gz&#45;sensors&#45;&gt;gz&#45;sim</title>
<path fill="none" stroke="black" d="M418.53,-259.7C415.34,-251.98 411.5,-242.71 407.94,-234.11"/>
<polygon fill="black" stroke="black" points="410.85,-233 403.79,-225.1 404.38,-235.68 410.85,-233"/>
</g>
<!-- gz&#45;sim&#45;&gt;gz&#45;launch -->
<g id="edge57" class="edge">
<title>gz&#45;sim&#45;&gt;gz&#45;launch</title>
<path fill="none" stroke="black" d="M372.13,-190.67C355,-180.67 331.87,-167.18 312.67,-155.98"/>
<polygon fill="black" stroke="black" points="314.73,-152.55 304.33,-150.53 311.2,-158.59 314.73,-152.55"/>
</g>
</g>
</svg>
