<?xml version="1.0" encoding="UTF-8" standalone="no"?>
<!DOCTYPE svg PUBLIC "-//W3C//DTD SVG 1.1//EN"
 "http://www.w3.org/Graphics/SVG/1.1/DTD/svg11.dtd">
<!-- Generated by graphviz version 9.0.0 (20231125.0833)
 -->
<!-- Pages: 1 -->
<svg width="1861pt" height="1428pt"
 viewBox="0.00 0.00 1860.84 1428.00" xmlns="http://www.w3.org/2000/svg" xmlns:xlink="http://www.w3.org/1999/xlink">
<g id="graph0" class="graph" transform="scale(1 1) rotate(0) translate(4 1424)">
<polygon fill="white" stroke="none" points="-4,4 -4,-1424 1856.84,-1424 1856.84,4 -4,4"/>
<!-- arrow&#45;cpp -->
<g id="node1" class="node">
<title>arrow&#45;cpp</title>
<g id="a_node1"><a xlink:href="https://github.com/conda-forge/arrow-cpp-feedstock" xlink:title="arrow cpp">
<ellipse fill="#fde725" stroke="black" cx="1516.82" cy="-1042" rx="61.73" ry="18"/>
<text text-anchor="middle" x="1516.82" y="-1037.33" font-family="Times,serif" font-size="14.00">arrow cpp</text>
</a>
</g>
</g>
<!-- ray&#45;packages -->
<g id="node2" class="node">
<title>ray&#45;packages</title>
<g id="a_node2"><a xlink:href="https://github.com/conda-forge/ray-packages-feedstock" xlink:title="ray packages">
<ellipse fill="#fde725" stroke="black" cx="1383.82" cy="-970" rx="76.99" ry="18"/>
<text text-anchor="middle" x="1383.82" y="-965.33" font-family="Times,serif" font-size="14.00">ray packages</text>
</a>
</g>
</g>
<!-- arrow&#45;cpp&#45;&gt;ray&#45;packages -->
<g id="edge1" class="edge">
<title>arrow&#45;cpp&#45;&gt;ray&#45;packages</title>
<path fill="none" stroke="black" d="M1487.96,-1025.81C1469.27,-1015.97 1444.66,-1003.02 1424.06,-992.18"/>
<polygon fill="black" stroke="black" points="1425.83,-989.15 1415.35,-987.59 1422.57,-995.35 1425.83,-989.15"/>
</g>
<!-- arcticdb -->
<g id="node3" class="node">
<title>arcticdb</title>
<g id="a_node3"><a xlink:href="https://github.com/conda-forge/arcticdb-feedstock" xlink:title="arcticdb">
<ellipse fill="#fde725" stroke="black" cx="1530.82" cy="-970" rx="52.26" ry="18"/>
<text text-anchor="middle" x="1530.82" y="-965.33" font-family="Times,serif" font-size="14.00">arcticdb</text>
</a>
</g>
</g>
<!-- arrow&#45;cpp&#45;&gt;arcticdb -->
<g id="edge2" class="edge">
<title>arrow&#45;cpp&#45;&gt;arcticdb</title>
<path fill="none" stroke="black" d="M1520.28,-1023.7C1521.76,-1016.32 1523.52,-1007.52 1525.17,-999.25"/>
<polygon fill="black" stroke="black" points="1528.57,-1000.08 1527.1,-989.59 1521.71,-998.71 1528.57,-1000.08"/>
</g>
<!-- bazel -->
<g id="node4" class="node">
<title>bazel</title>
<g id="a_node4"><a xlink:href="https://github.com/conda-forge/bazel-feedstock" xlink:title="bazel">
<ellipse fill="#ff8c00" stroke="black" cx="985.82" cy="-1402" rx="37.53" ry="18"/>
<text text-anchor="middle" x="985.82" y="-1397.33" font-family="Times,serif" font-size="14.00">bazel</text>
</a>
</g>
</g>
<!-- mosh -->
<g id="node5" class="node">
<title>mosh</title>
<g id="a_node5"><a xlink:href="https://github.com/conda-forge/mosh-feedstock/pull/37" xlink:title="mosh ❎">
<ellipse fill="#31688e" stroke="black" cx="985.82" cy="-1330" rx="53.31" ry="18"/>
<text text-anchor="middle" x="985.82" y="-1325.33" font-family="Times,serif" font-size="14.00" fill="white">mosh ❎</text>
</a>
</g>
</g>
<!-- bazel&#45;&gt;mosh -->
<!-- onnx -->
<g id="node6" class="node">
<title>onnx</title>
<g id="a_node6"><a xlink:href="https://github.com/conda-forge/onnx-feedstock/pull/107" xlink:title="onnx ✓">
<ellipse fill="#31688e" stroke="black" cx="985.82" cy="-1258" rx="43.32" ry="18"/>
<text text-anchor="middle" x="985.82" y="-1253.33" font-family="Times,serif" font-size="14.00" fill="white">onnx ✓</text>
</a>
</g>
</g>
<!-- mosh&#45;&gt;onnx -->
<!-- paraview -->
<g id="node9" class="node">
<title>paraview</title>
<g id="a_node9"><a xlink:href="https://github.com/conda-forge/paraview-feedstock/pull/230" xlink:title="paraview ✓">
<ellipse fill="#31688e" stroke="black" cx="985.82" cy="-1186" rx="64.89" ry="18"/>
<text text-anchor="middle" x="985.82" y="-1181.33" font-family="Times,serif" font-size="14.00" fill="white">paraview ✓</text>
</a>
</g>
</g>
<!-- onnx&#45;&gt;paraview -->
<!-- mysql -->
<g id="node7" class="node">
<title>mysql</title>
<g id="a_node7"><a xlink:href="https://github.com/conda-forge/mysql-feedstock/pull/92" xlink:title="mysql ❎">
<ellipse fill="#31688e" stroke="black" cx="1540.82" cy="-422" rx="56.47" ry="18"/>
<text text-anchor="middle" x="1540.82" y="-417.32" font-family="Times,serif" font-size="14.00" fill="white">mysql ❎</text>
</a>
</g>
</g>
<!-- mysql&#45;connector&#45;python -->
<g id="node8" class="node">
<title>mysql&#45;connector&#45;python</title>
<g id="a_node8"><a xlink:href="https://github.com/conda-forge/mysql-connector-python-feedstock" xlink:title="mysql connector python">
<ellipse fill="#fde725" stroke="black" cx="1540.82" cy="-350" rx="131.7" ry="18"/>
<text text-anchor="middle" x="1540.82" y="-345.32" font-family="Times,serif" font-size="14.00">mysql connector python</text>
</a>
</g>
</g>
<!-- mysql&#45;&gt;mysql&#45;connector&#45;python -->
<g id="edge5" class="edge">
<title>mysql&#45;&gt;mysql&#45;connector&#45;python</title>
<path fill="none" stroke="black" d="M1540.82,-403.7C1540.82,-396.41 1540.82,-387.73 1540.82,-379.54"/>
<polygon fill="black" stroke="black" points="1544.32,-379.62 1540.82,-369.62 1537.32,-379.62 1544.32,-379.62"/>
</g>
<!-- tensorflow -->
<g id="node10" class="node">
<title>tensorflow</title>
<g id="a_node10"><a xlink:href="https://github.com/conda-forge/tensorflow-feedstock" xlink:title="tensorflow">
<ellipse fill="#ff8c00" stroke="black" cx="985.82" cy="-1114" rx="63.84" ry="18"/>
<text text-anchor="middle" x="985.82" y="-1109.33" font-family="Times,serif" font-size="14.00">tensorflow</text>
</a>
</g>
</g>
<!-- paraview&#45;&gt;tensorflow -->
<!-- go&#45;cockroach -->
<g id="node11" class="node">
<title>go&#45;cockroach</title>
<g id="a_node11"><a xlink:href="https://github.com/conda-forge/go-cockroach-feedstock" xlink:title="go cockroach">
<ellipse fill="#ff8c00" stroke="black" cx="985.82" cy="-1042" rx="76.46" ry="18"/>
<text text-anchor="middle" x="985.82" y="-1037.33" font-family="Times,serif" font-size="14.00">go cockroach</text>
</a>
</g>
</g>
<!-- tensorflow&#45;&gt;go&#45;cockroach -->
<!-- cartographer -->
<g id="node24" class="node">
<title>cartographer</title>
<g id="a_node24"><a xlink:href="https://github.com/conda-forge/cartographer-feedstock" xlink:title="cartographer">
<ellipse fill="#35b779" stroke="black" cx="985.82" cy="-970" rx="76.99" ry="18"/>
<text text-anchor="middle" x="985.82" y="-965.33" font-family="Times,serif" font-size="14.00">cartographer</text>
</a>
</g>
</g>
<!-- go&#45;cockroach&#45;&gt;cartographer -->
<!-- pytorch&#45;cpu -->
<g id="node12" class="node">
<title>pytorch&#45;cpu</title>
<g id="a_node12"><a xlink:href="https://github.com/conda-forge/pytorch-cpu-feedstock" xlink:title="pytorch cpu">
<ellipse fill="#000000" stroke="black" cx="1299.82" cy="-1042" rx="70.68" ry="18"/>
<text text-anchor="middle" x="1299.82" y="-1037.33" font-family="Times,serif" font-size="14.00" fill="white">pytorch cpu</text>
</a>
</g>
</g>
<!-- pytorch&#45;cpu&#45;&gt;ray&#45;packages -->
<g id="edge9" class="edge">
<title>pytorch&#45;cpu&#45;&gt;ray&#45;packages</title>
<path fill="none" stroke="black" d="M1319.73,-1024.41C1330.32,-1015.58 1343.53,-1004.57 1355.21,-994.84"/>
<polygon fill="black" stroke="black" points="1357.16,-997.77 1362.6,-988.68 1352.68,-992.39 1357.16,-997.77"/>
</g>
<!-- jaxlib -->
<g id="node13" class="node">
<title>jaxlib</title>
<g id="a_node13"><a xlink:href="https://github.com/conda-forge/jaxlib-feedstock" xlink:title="jaxlib">
<ellipse fill="#ff8c00" stroke="black" cx="1398.82" cy="-1114" rx="38.58" ry="18"/>
<text text-anchor="middle" x="1398.82" y="-1109.33" font-family="Times,serif" font-size="14.00">jaxlib</text>
</a>
</g>
</g>
<!-- jaxlib&#45;&gt;ray&#45;packages -->
<g id="edge10" class="edge">
<title>jaxlib&#45;&gt;ray&#45;packages</title>
<path fill="none" stroke="black" d="M1396.98,-1095.59C1394.45,-1071.61 1389.86,-1028.14 1386.82,-999.42"/>
<polygon fill="black" stroke="black" points="1390.32,-999.19 1385.79,-989.62 1383.36,-999.93 1390.32,-999.19"/>
</g>
<!-- libignition&#45;transport4 -->
<g id="node14" class="node">
<title>libignition&#45;transport4</title>
<g id="a_node14"><a xlink:href="https://github.com/conda-forge/libignition-transport4-feedstock/pull/93" xlink:title="libignition transport4 ❎">
<ellipse fill="#31688e" stroke="black" cx="425.82" cy="-1150" rx="134.33" ry="18"/>
<text text-anchor="middle" x="425.82" y="-1145.33" font-family="Times,serif" font-size="14.00" fill="white">libignition transport4 ❎</text>
</a>
</g>
</g>
<!-- libignition&#45;sensors -->
<g id="node15" class="node">
<title>libignition&#45;sensors</title>
<g id="a_node15"><a xlink:href="https://github.com/conda-forge/libignition-sensors-feedstock" xlink:title="libignition sensors">
<ellipse fill="#fde725" stroke="black" cx="103.82" cy="-1078" rx="103.82" ry="18"/>
<text text-anchor="middle" x="103.82" y="-1073.33" font-family="Times,serif" font-size="14.00">libignition sensors</text>
</a>
</g>
</g>
<!-- libignition&#45;transport4&#45;&gt;libignition&#45;sensors -->
<g id="edge11" class="edge">
<title>libignition&#45;transport4&#45;&gt;libignition&#45;sensors</title>
<path fill="none" stroke="black" d="M357.53,-1134.15C304.88,-1122.71 232.16,-1106.9 178.07,-1095.14"/>
<polygon fill="black" stroke="black" points="178.81,-1091.72 168.3,-1093.02 177.33,-1098.56 178.81,-1091.72"/>
</g>
<!-- libignition&#45;gui -->
<g id="node16" class="node">
<title>libignition&#45;gui</title>
<g id="a_node16"><a xlink:href="https://github.com/conda-forge/libignition-gui-feedstock" xlink:title="libignition gui">
<ellipse fill="#fde725" stroke="black" cx="616.82" cy="-1078" rx="81.2" ry="18"/>
<text text-anchor="middle" x="616.82" y="-1073.33" font-family="Times,serif" font-size="14.00">libignition gui</text>
</a>
</g>
</g>
<!-- libignition&#45;transport4&#45;&gt;libignition&#45;gui -->
<g id="edge12" class="edge">
<title>libignition&#45;transport4&#45;&gt;libignition&#45;gui</title>
<path fill="none" stroke="black" d="M470.6,-1132.59C498.98,-1122.19 535.78,-1108.7 565.36,-1097.86"/>
<polygon fill="black" stroke="black" points="566.3,-1101.24 574.48,-1094.52 563.89,-1094.67 566.3,-1101.24"/>
</g>
<!-- libignition&#45;gazebo -->
<g id="node17" class="node">
<title>libignition&#45;gazebo</title>
<g id="a_node17"><a xlink:href="https://github.com/conda-forge/libignition-gazebo-feedstock" xlink:title="libignition gazebo">
<ellipse fill="#fde725" stroke="black" cx="390.82" cy="-1006" rx="100.66" ry="18"/>
<text text-anchor="middle" x="390.82" y="-1001.33" font-family="Times,serif" font-size="14.00">libignition gazebo</text>
</a>
</g>
</g>
<!-- libignition&#45;transport4&#45;&gt;libignition&#45;gazebo -->
<g id="edge13" class="edge">
<title>libignition&#45;transport4&#45;&gt;libignition&#45;gazebo</title>
<path fill="none" stroke="black" d="M321.17,-1138.53C295.46,-1130.71 270.77,-1117.64 254.82,-1096 245.33,-1083.12 245.79,-1073.21 254.82,-1060 267.06,-1042.1 286.31,-1030.24 306.53,-1022.39"/>
<polygon fill="black" stroke="black" points="307.46,-1025.77 315.72,-1019.14 305.13,-1019.17 307.46,-1025.77"/>
</g>
<!-- libignition&#45;launch -->
<g id="node18" class="node">
<title>libignition&#45;launch</title>
<g id="a_node18"><a xlink:href="https://github.com/conda-forge/libignition-launch-feedstock" xlink:title="libignition launch">
<ellipse fill="#fde725" stroke="black" cx="616.82" cy="-934" rx="98.56" ry="18"/>
<text text-anchor="middle" x="616.82" y="-929.33" font-family="Times,serif" font-size="14.00">libignition launch</text>
</a>
</g>
</g>
<!-- libignition&#45;transport4&#45;&gt;libignition&#45;launch -->
<g id="edge14" class="edge">
<title>libignition&#45;transport4&#45;&gt;libignition&#45;launch</title>
<path fill="none" stroke="black" d="M545.4,-1141.46C612.13,-1134.48 685.95,-1121.18 706.82,-1096 743.02,-1052.34 686.05,-992.03 647.51,-959.01"/>
<polygon fill="black" stroke="black" points="650.21,-956.7 640.29,-952.97 645.72,-962.07 650.21,-956.7"/>
</g>
<!-- libignition&#45;sensors&#45;&gt;libignition&#45;gazebo -->
<g id="edge15" class="edge">
<title>libignition&#45;sensors&#45;&gt;libignition&#45;gazebo</title>
<path fill="none" stroke="black" d="M162.25,-1062.75C208.47,-1051.48 273.12,-1035.71 321.88,-1023.81"/>
<polygon fill="black" stroke="black" points="322.61,-1027.24 331.5,-1021.47 320.95,-1020.44 322.61,-1027.24"/>
</g>
<!-- libignition&#45;gui&#45;&gt;libignition&#45;gazebo -->
<g id="edge16" class="edge">
<title>libignition&#45;gui&#45;&gt;libignition&#45;gazebo</title>
<path fill="none" stroke="black" d="M570.81,-1062.75C536.04,-1051.98 488.03,-1037.11 450.34,-1025.43"/>
<polygon fill="black" stroke="black" points="451.53,-1022.14 440.94,-1022.53 449.46,-1028.83 451.53,-1022.14"/>
</g>
<!-- libignition&#45;gui&#45;&gt;libignition&#45;launch -->
<g id="edge17" class="edge">
<title>libignition&#45;gui&#45;&gt;libignition&#45;launch</title>
<path fill="none" stroke="black" d="M616.82,-1059.59C616.82,-1035.61 616.82,-992.14 616.82,-963.42"/>
<polygon fill="black" stroke="black" points="620.32,-963.62 616.82,-953.62 613.32,-963.62 620.32,-963.62"/>
</g>
<!-- libignition&#45;gazebo&#45;&gt;libignition&#45;launch -->
<g id="edge18" class="edge">
<title>libignition&#45;gazebo&#45;&gt;libignition&#45;launch</title>
<path fill="none" stroke="black" d="M439.58,-989.9C474.18,-979.18 520.82,-964.73 557.57,-953.35"/>
<polygon fill="black" stroke="black" points="558.18,-956.83 566.7,-950.52 556.11,-950.14 558.18,-956.83"/>
</g>
<!-- gazebo -->
<g id="node19" class="node">
<title>gazebo</title>
<g id="a_node19"><a xlink:href="https://github.com/conda-forge/gazebo-feedstock" xlink:title="gazebo">
<ellipse fill="#ff8c00" stroke="black" cx="371.82" cy="-90" rx="46.47" ry="18"/>
<text text-anchor="middle" x="371.82" y="-85.33" font-family="Times,serif" font-size="14.00">gazebo</text>
</a>
</g>
</g>
<!-- gazebo&#45;yarp&#45;plugins -->
<g id="node20" class="node">
<title>gazebo&#45;yarp&#45;plugins</title>
<g id="a_node20"><a xlink:href="https://github.com/conda-forge/gazebo-yarp-plugins-feedstock" xlink:title="gazebo yarp plugins">
<ellipse fill="#fde725" stroke="black" cx="371.82" cy="-18" rx="112.24" ry="18"/>
<text text-anchor="middle" x="371.82" y="-13.32" font-family="Times,serif" font-size="14.00">gazebo yarp plugins</text>
</a>
</g>
</g>
<!-- gazebo&#45;&gt;gazebo&#45;yarp&#45;plugins -->
<g id="edge19" class="edge">
<title>gazebo&#45;&gt;gazebo&#45;yarp&#45;plugins</title>
<path fill="none" stroke="black" d="M371.82,-71.7C371.82,-64.41 371.82,-55.73 371.82,-47.54"/>
<polygon fill="black" stroke="black" points="375.32,-47.62 371.82,-37.62 368.32,-47.62 375.32,-47.62"/>
</g>
<!-- libignition&#45;fuel&#45;tools -->
<g id="node21" class="node">
<title>libignition&#45;fuel&#45;tools</title>
<g id="a_node21"><a xlink:href="https://github.com/conda-forge/libignition-fuel-tools-feedstock/pull/83" xlink:title="libignition fuel tools ❎">
<ellipse fill="#31688e" stroke="black" cx="390.82" cy="-1078" rx="126.97" ry="18"/>
<text text-anchor="middle" x="390.82" y="-1073.33" font-family="Times,serif" font-size="14.00" fill="white">libignition fuel tools ❎</text>
</a>
</g>
</g>
<!-- libignition&#45;fuel&#45;tools&#45;&gt;libignition&#45;gazebo -->
<g id="edge20" class="edge">
<title>libignition&#45;fuel&#45;tools&#45;&gt;libignition&#45;gazebo</title>
<path fill="none" stroke="black" d="M390.82,-1059.7C390.82,-1052.41 390.82,-1043.73 390.82,-1035.54"/>
<polygon fill="black" stroke="black" points="394.32,-1035.62 390.82,-1025.62 387.32,-1035.62 394.32,-1035.62"/>
</g>
<!-- google&#45;cloud&#45;cpp -->
<g id="node22" class="node">
<title>google&#45;cloud&#45;cpp</title>
<g id="a_node22"><a xlink:href="https://github.com/conda-forge/google-cloud-cpp-feedstock" xlink:title="google cloud cpp">
<ellipse fill="#ff8c00" stroke="black" cx="1724.82" cy="-1114" rx="95.4" ry="18"/>
<text text-anchor="middle" x="1724.82" y="-1109.33" font-family="Times,serif" font-size="14.00">google cloud cpp</text>
</a>
</g>
</g>
<!-- google&#45;cloud&#45;cpp&#45;&gt;arrow&#45;cpp -->
<g id="edge21" class="edge">
<title>google&#45;cloud&#45;cpp&#45;&gt;arrow&#45;cpp</title>
<path fill="none" stroke="black" d="M1679.43,-1097.72C1646.21,-1086.54 1601.14,-1071.38 1566.88,-1059.85"/>
<polygon fill="black" stroke="black" points="1568.19,-1056.59 1557.59,-1056.72 1565.96,-1063.23 1568.19,-1056.59"/>
</g>
<!-- google&#45;cloud&#45;cpp&#45;core -->
<g id="node23" class="node">
<title>google&#45;cloud&#45;cpp&#45;core</title>
<g id="a_node23"><a xlink:href="https://github.com/conda-forge/google-cloud-cpp-core-feedstock/pull/6" xlink:title="google cloud cpp core ✓">
<ellipse fill="#31688e" stroke="black" cx="1724.82" cy="-1042" rx="128.02" ry="18"/>
<text text-anchor="middle" x="1724.82" y="-1037.33" font-family="Times,serif" font-size="14.00" fill="white">google cloud cpp core ✓</text>
</a>
</g>
</g>
<!-- google&#45;cloud&#45;cpp&#45;&gt;google&#45;cloud&#45;cpp&#45;core -->
<g id="edge22" class="edge">
<title>google&#45;cloud&#45;cpp&#45;&gt;google&#45;cloud&#45;cpp&#45;core</title>
<path fill="none" stroke="black" d="M1718.9,-1095.7C1718.15,-1088.41 1717.91,-1079.73 1718.17,-1071.54"/>
<polygon fill="black" stroke="black" points="1721.66,-1071.82 1718.83,-1061.61 1714.68,-1071.36 1721.66,-1071.82"/>
</g>
<!-- google&#45;cloud&#45;cpp&#45;core&#45;&gt;google&#45;cloud&#45;cpp -->
<g id="edge23" class="edge">
<title>google&#45;cloud&#45;cpp&#45;core&#45;&gt;google&#45;cloud&#45;cpp</title>
<path fill="none" stroke="black" d="M1730.72,-1060.1C1731.48,-1067.37 1731.73,-1076.04 1731.47,-1084.24"/>
<polygon fill="black" stroke="black" points="1727.98,-1083.98 1730.83,-1094.19 1734.97,-1084.43 1727.98,-1083.98"/>
</g>
<!-- tomviz -->
<g id="node25" class="node">
<title>tomviz</title>
<g id="a_node25"><a xlink:href="https://github.com/conda-forge/tomviz-feedstock" xlink:title="tomviz">
<ellipse fill="#ff8c00" stroke="black" cx="985.82" cy="-898" rx="44.9" ry="18"/>
<text text-anchor="middle" x="985.82" y="-893.33" font-family="Times,serif" font-size="14.00">tomviz</text>
</a>
</g>
</g>
<!-- cartographer&#45;&gt;tomviz -->
<!-- grpc_java_plugin -->
<g id="node26" class="node">
<title>grpc_java_plugin</title>
<g id="a_node26"><a xlink:href="https://github.com/conda-forge/grpc_java_plugin-feedstock/pull/77" xlink:title="grpc_java_plugin ❎">
<ellipse fill="#31688e" stroke="black" cx="985.82" cy="-826" rx="110.66" ry="18"/>
<text text-anchor="middle" x="985.82" y="-821.33" font-family="Times,serif" font-size="14.00" fill="white">grpc_java_plugin ❎</text>
</a>
</g>
</g>
<!-- tomviz&#45;&gt;grpc_java_plugin -->
<!-- imp -->
<g id="node27" class="node">
<title>imp</title>
<g id="a_node27"><a xlink:href="https://github.com/conda-forge/imp-feedstock/pull/41" xlink:title="imp ❎">
<ellipse fill="#31688e" stroke="black" cx="985.82" cy="-754" rx="45.42" ry="18"/>
<text text-anchor="middle" x="985.82" y="-749.33" font-family="Times,serif" font-size="14.00" fill="white">imp ❎</text>
</a>
</g>
</g>
<!-- grpc_java_plugin&#45;&gt;imp -->
<!-- or&#45;tools -->
<g id="node28" class="node">
<title>or&#45;tools</title>
<g id="a_node28"><a xlink:href="https://github.com/conda-forge/or-tools-feedstock/pull/54" xlink:title="or tools ❎">
<ellipse fill="#31688e" stroke="black" cx="985.82" cy="-682" rx="64.36" ry="18"/>
<text text-anchor="middle" x="985.82" y="-677.33" font-family="Times,serif" font-size="14.00" fill="white">or tools ❎</text>
</a>
</g>
</g>
<!-- imp&#45;&gt;or&#45;tools -->
<!-- bear -->
<g id="node29" class="node">
<title>bear</title>
<g id="a_node29"><a xlink:href="https://github.com/conda-forge/bear-feedstock" xlink:title="bear">
<ellipse fill="#35b779" stroke="black" cx="371.82" cy="-638" rx="33.85" ry="18"/>
<text text-anchor="middle" x="371.82" y="-633.33" font-family="Times,serif" font-size="14.00">bear</text>
</a>
</g>
</g>
<!-- cpp&#45;opentelemetry&#45;sdk -->
<g id="node30" class="node">
<title>cpp&#45;opentelemetry&#45;sdk</title>
<g id="a_node30"><a xlink:href="https://github.com/conda-forge/cpp-opentelemetry-sdk-feedstock" xlink:title="cpp opentelemetry sdk">
<ellipse fill="#35b779" stroke="black" cx="371.82" cy="-566" rx="125.92" ry="18"/>
<text text-anchor="middle" x="371.82" y="-561.33" font-family="Times,serif" font-size="14.00">cpp opentelemetry sdk</text>
</a>
</g>
</g>
<!-- bear&#45;&gt;cpp&#45;opentelemetry&#45;sdk -->
<!-- singlejar -->
<g id="node31" class="node">
<title>singlejar</title>
<g id="a_node31"><a xlink:href="https://github.com/conda-forge/singlejar-feedstock/pull/43" xlink:title="singlejar ✓">
<ellipse fill="#31688e" stroke="black" cx="371.82" cy="-494" rx="62.78" ry="18"/>
<text text-anchor="middle" x="371.82" y="-489.32" font-family="Times,serif" font-size="14.00" fill="white">singlejar ✓</text>
</a>
</g>
</g>
<!-- cpp&#45;opentelemetry&#45;sdk&#45;&gt;singlejar -->
<!-- xilinx&#45;runtime -->
<g id="node32" class="node">
<title>xilinx&#45;runtime</title>
<g id="a_node32"><a xlink:href="https://github.com/conda-forge/xilinx-runtime-feedstock/pull/30" xlink:title="xilinx runtime ✓">
<ellipse fill="#31688e" stroke="black" cx="371.82" cy="-422" rx="89.61" ry="18"/>
<text text-anchor="middle" x="371.82" y="-417.32" font-family="Times,serif" font-size="14.00" fill="white">xilinx runtime ✓</text>
</a>
</g>
</g>
<!-- singlejar&#45;&gt;xilinx&#45;runtime -->
<!-- libpulsar -->
<g id="node33" class="node">
<title>libpulsar</title>
<g id="a_node33"><a xlink:href="https://github.com/conda-forge/libpulsar-feedstock/pull/13" xlink:title="libpulsar ✓">
<ellipse fill="#31688e" stroke="black" cx="371.82" cy="-350" rx="63.31" ry="18"/>
<text text-anchor="middle" x="371.82" y="-345.32" font-family="Times,serif" font-size="14.00" fill="white">libpulsar ✓</text>
</a>
</g>
</g>
<!-- xilinx&#45;runtime&#45;&gt;libpulsar -->
<!-- gnss&#45;sdr -->
<g id="node40" class="node">
<title>gnss&#45;sdr</title>
<g id="a_node40"><a xlink:href="https://github.com/conda-forge/gnss-sdr-feedstock" xlink:title="gnss sdr">
<ellipse fill="#35b779" stroke="black" cx="371.82" cy="-278" rx="53.84" ry="18"/>
<text text-anchor="middle" x="371.82" y="-273.32" font-family="Times,serif" font-size="14.00">gnss sdr</text>
</a>
</g>
</g>
<!-- libpulsar&#45;&gt;gnss&#45;sdr -->
<!-- gz&#45;transport -->
<g id="node34" class="node">
<title>gz&#45;transport</title>
<g id="a_node34"><a xlink:href="https://github.com/conda-forge/gz-transport-feedstock" xlink:title="gz transport">
<ellipse fill="#ff8c00" stroke="black" cx="1023.82" cy="-494" rx="73.3" ry="18"/>
<text text-anchor="middle" x="1023.82" y="-489.32" font-family="Times,serif" font-size="14.00">gz transport</text>
</a>
</g>
</g>
<!-- gz&#45;gui -->
<g id="node35" class="node">
<title>gz&#45;gui</title>
<g id="a_node35"><a xlink:href="https://github.com/conda-forge/gz-gui-feedstock" xlink:title="gz gui">
<ellipse fill="#fde725" stroke="black" cx="1139.82" cy="-422" rx="41.74" ry="18"/>
<text text-anchor="middle" x="1139.82" y="-417.32" font-family="Times,serif" font-size="14.00">gz gui</text>
</a>
</g>
</g>
<!-- gz&#45;transport&#45;&gt;gz&#45;gui -->
<g id="edge33" class="edge">
<title>gz&#45;transport&#45;&gt;gz&#45;gui</title>
<path fill="none" stroke="black" d="M1050.43,-476.94C1067.25,-466.79 1089.11,-453.6 1107,-442.81"/>
<polygon fill="black" stroke="black" points="1108.42,-446.03 1115.18,-437.87 1104.81,-440.04 1108.42,-446.03"/>
</g>
<!-- gz&#45;sensors -->
<g id="node36" class="node">
<title>gz&#45;sensors</title>
<g id="a_node36"><a xlink:href="https://github.com/conda-forge/gz-sensors-feedstock" xlink:title="gz sensors">
<ellipse fill="#fde725" stroke="black" cx="815.82" cy="-422" rx="64.36" ry="18"/>
<text text-anchor="middle" x="815.82" y="-417.32" font-family="Times,serif" font-size="14.00">gz sensors</text>
</a>
</g>
</g>
<!-- gz&#45;transport&#45;&gt;gz&#45;sensors -->
<g id="edge34" class="edge">
<title>gz&#45;transport&#45;&gt;gz&#45;sensors</title>
<path fill="none" stroke="black" d="M981.73,-478.83C948.38,-467.61 901.68,-451.89 866.32,-439.99"/>
<polygon fill="black" stroke="black" points="867.76,-436.79 857.17,-436.91 865.53,-443.42 867.76,-436.79"/>
</g>
<!-- gz&#45;sim -->
<g id="node37" class="node">
<title>gz&#45;sim</title>
<g id="a_node37"><a xlink:href="https://github.com/conda-forge/gz-sim-feedstock" xlink:title="gz sim">
<ellipse fill="#fde725" stroke="black" cx="1007.82" cy="-350" rx="43.84" ry="18"/>
<text text-anchor="middle" x="1007.82" y="-345.32" font-family="Times,serif" font-size="14.00">gz sim</text>
</a>
</g>
</g>
<!-- gz&#45;transport&#45;&gt;gz&#45;sim -->
<g id="edge35" class="edge">
<title>gz&#45;transport&#45;&gt;gz&#45;sim</title>
<path fill="none" stroke="black" d="M977.95,-479.64C958.62,-471.49 938.03,-458.9 926.82,-440 918.66,-426.24 919.21,-418.07 926.82,-404 935.41,-388.11 951.06,-376.23 966.33,-367.78"/>
<polygon fill="black" stroke="black" points="967.57,-371.07 974.89,-363.41 964.39,-364.84 967.57,-371.07"/>
</g>
<!-- gz&#45;launch -->
<g id="node38" class="node">
<title>gz&#45;launch</title>
<g id="a_node38"><a xlink:href="https://github.com/conda-forge/gz-launch-feedstock" xlink:title="gz launch">
<ellipse fill="#fde725" stroke="black" cx="1139.82" cy="-278" rx="59.1" ry="18"/>
<text text-anchor="middle" x="1139.82" y="-273.32" font-family="Times,serif" font-size="14.00">gz launch</text>
</a>
</g>
</g>
<!-- gz&#45;transport&#45;&gt;gz&#45;launch -->
<g id="edge36" class="edge">
<title>gz&#45;transport&#45;&gt;gz&#45;launch</title>
<path fill="none" stroke="black" d="M1094.75,-489.33C1129.63,-483.5 1168.82,-470.07 1190.82,-440 1221.21,-398.47 1185.96,-338.22 1160.79,-304.43"/>
<polygon fill="black" stroke="black" points="1163.82,-302.63 1154.95,-296.84 1158.27,-306.9 1163.82,-302.63"/>
</g>
<!-- gz&#45;gui&#45;&gt;gz&#45;sim -->
<g id="edge37" class="edge">
<title>gz&#45;gui&#45;&gt;gz&#45;sim</title>
<path fill="none" stroke="black" d="M1114.37,-407.5C1094.32,-396.87 1066.12,-381.92 1043.77,-370.06"/>
<polygon fill="black" stroke="black" points="1045.46,-367 1034.98,-365.4 1042.18,-373.18 1045.46,-367"/>
</g>
<!-- gz&#45;gui&#45;&gt;gz&#45;launch -->
<g id="edge38" class="edge">
<title>gz&#45;gui&#45;&gt;gz&#45;launch</title>
<path fill="none" stroke="black" d="M1139.82,-403.59C1139.82,-379.61 1139.82,-336.14 1139.82,-307.42"/>
<polygon fill="black" stroke="black" points="1143.32,-307.62 1139.82,-297.62 1136.32,-307.62 1143.32,-307.62"/>
</g>
<!-- gz&#45;sensors&#45;&gt;gz&#45;sim -->
<g id="edge39" class="edge">
<title>gz&#45;sensors&#45;&gt;gz&#45;sim</title>
<path fill="none" stroke="black" d="M853.75,-407.17C885.76,-395.5 931.57,-378.8 964.91,-366.64"/>
<polygon fill="black" stroke="black" points="966.08,-369.94 974.28,-363.23 963.68,-363.37 966.08,-369.94"/>
</g>
<!-- gz&#45;sim&#45;&gt;gz&#45;launch -->
<g id="edge40" class="edge">
<title>gz&#45;sim&#45;&gt;gz&#45;launch</title>
<path fill="none" stroke="black" d="M1033.9,-335.17C1053.23,-324.92 1079.87,-310.79 1101.6,-299.27"/>
<polygon fill="black" stroke="black" points="1102.98,-302.5 1110.17,-294.72 1099.7,-296.31 1102.98,-302.5"/>
</g>
<!-- gz&#45;fuel&#45;tools -->
<g id="node39" class="node">
<title>gz&#45;fuel&#45;tools</title>
<g id="a_node39"><a xlink:href="https://github.com/conda-forge/gz-fuel-tools-feedstock" xlink:title="gz fuel tools">
<ellipse fill="#ff8c00" stroke="black" cx="1007.82" cy="-422" rx="72.25" ry="18"/>
<text text-anchor="middle" x="1007.82" y="-417.32" font-family="Times,serif" font-size="14.00">gz fuel tools</text>
</a>
</g>
</g>
<!-- gz&#45;fuel&#45;tools&#45;&gt;gz&#45;sim -->
<g id="edge41" class="edge">
<title>gz&#45;fuel&#45;tools&#45;&gt;gz&#45;sim</title>
<path fill="none" stroke="black" d="M1007.82,-403.7C1007.82,-396.41 1007.82,-387.73 1007.82,-379.54"/>
<polygon fill="black" stroke="black" points="1011.32,-379.62 1007.82,-369.62 1004.32,-379.62 1011.32,-379.62"/>
</g>
<!-- tensorstore -->
<g id="node41" class="node">
<title>tensorstore</title>
<g id="a_node41"><a xlink:href="https://github.com/conda-forge/tensorstore-feedstock/pull/17" xlink:title="tensorstore ✓">
<ellipse fill="#31688e" stroke="black" cx="371.82" cy="-206" rx="76.99" ry="18"/>
<text text-anchor="middle" x="371.82" y="-201.33" font-family="Times,serif" font-size="14.00" fill="white">tensorstore ✓</text>
</a>
</g>
</g>
<!-- gnss&#45;sdr&#45;&gt;tensorstore -->
<!-- gcld3 -->
<g id="node42" class="node">
<title>gcld3</title>
<g id="a_node42"><a xlink:href="https://github.com/conda-forge/gcld3-feedstock" xlink:title="gcld3">
<ellipse fill="#35b779" stroke="black" cx="371.82" cy="-134" rx="38.58" ry="18"/>
<text text-anchor="middle" x="371.82" y="-129.32" font-family="Times,serif" font-size="14.00">gcld3</text>
</a>
</g>
</g>
<!-- tensorstore&#45;&gt;gcld3 -->
</g>
</svg>
