<?xml version="1.0" encoding="UTF-8" standalone="no"?>
<!DOCTYPE svg PUBLIC "-//W3C//DTD SVG 1.1//EN"
 "http://www.w3.org/Graphics/SVG/1.1/DTD/svg11.dtd">
<!-- Generated by graphviz version 9.0.0 (20231125.0833)
 -->
<!-- Pages: 1 -->
<svg width="2100pt" height="1572pt"
 viewBox="0.00 0.00 2100.14 1572.00" xmlns="http://www.w3.org/2000/svg" xmlns:xlink="http://www.w3.org/1999/xlink">
<g id="graph0" class="graph" transform="scale(1 1) rotate(0) translate(4 1568)">
<polygon fill="white" stroke="none" points="-4,4 -4,-1568 2096.14,-1568 2096.14,4 -4,4"/>
<!-- arrow&#45;cpp -->
<g id="node1" class="node">
<title>arrow&#45;cpp</title>
<g id="a_node1"><a xlink:href="https://github.com/conda-forge/arrow-cpp-feedstock" xlink:title="arrow cpp">
<ellipse fill="#fde725" stroke="black" cx="594.24" cy="-1186" rx="61.73" ry="18"/>
<text text-anchor="middle" x="594.24" y="-1181.33" font-family="Times,serif" font-size="14.00">arrow cpp</text>
</a>
</g>
</g>
<!-- ray&#45;packages -->
<g id="node2" class="node">
<title>ray&#45;packages</title>
<g id="a_node2"><a xlink:href="https://github.com/conda-forge/ray-packages-feedstock" xlink:title="ray packages">
<ellipse fill="#fde725" stroke="black" cx="426.24" cy="-1114" rx="76.99" ry="18"/>
<text text-anchor="middle" x="426.24" y="-1109.33" font-family="Times,serif" font-size="14.00">ray packages</text>
</a>
</g>
</g>
<!-- arrow&#45;cpp&#45;&gt;ray&#45;packages -->
<g id="edge1" class="edge">
<title>arrow&#45;cpp&#45;&gt;ray&#45;packages</title>
<path fill="none" stroke="black" d="M559.83,-1170.67C534.92,-1160.28 500.93,-1146.12 473.48,-1134.68"/>
<polygon fill="black" stroke="black" points="474.9,-1131.48 464.32,-1130.87 472.2,-1137.94 474.9,-1131.48"/>
</g>
<!-- arcticdb -->
<g id="node3" class="node">
<title>arcticdb</title>
<g id="a_node3"><a xlink:href="https://github.com/conda-forge/arcticdb-feedstock" xlink:title="arcticdb">
<ellipse fill="#fde725" stroke="black" cx="594.24" cy="-1114" rx="52.26" ry="18"/>
<text text-anchor="middle" x="594.24" y="-1109.33" font-family="Times,serif" font-size="14.00">arcticdb</text>
</a>
</g>
</g>
<!-- arrow&#45;cpp&#45;&gt;arcticdb -->
<g id="edge2" class="edge">
<title>arrow&#45;cpp&#45;&gt;arcticdb</title>
<path fill="none" stroke="black" d="M594.24,-1167.7C594.24,-1160.41 594.24,-1151.73 594.24,-1143.54"/>
<polygon fill="black" stroke="black" points="597.74,-1143.62 594.24,-1133.62 590.74,-1143.62 597.74,-1143.62"/>
</g>
<!-- bazel -->
<g id="node4" class="node">
<title>bazel</title>
<g id="a_node4"><a xlink:href="https://github.com/conda-forge/bazel-feedstock" xlink:title="bazel">
<ellipse fill="#ff8c00" stroke="black" cx="472.24" cy="-782" rx="37.53" ry="18"/>
<text text-anchor="middle" x="472.24" y="-777.33" font-family="Times,serif" font-size="14.00">bazel</text>
</a>
</g>
</g>
<!-- mosh -->
<g id="node5" class="node">
<title>mosh</title>
<g id="a_node5"><a xlink:href="https://github.com/conda-forge/mosh-feedstock" xlink:title="mosh">
<ellipse fill="#35b779" stroke="black" cx="472.24" cy="-710" rx="38.06" ry="18"/>
<text text-anchor="middle" x="472.24" y="-705.33" font-family="Times,serif" font-size="14.00">mosh</text>
</a>
</g>
</g>
<!-- bazel&#45;&gt;mosh -->
<!-- onnx -->
<g id="node6" class="node">
<title>onnx</title>
<g id="a_node6"><a xlink:href="https://github.com/conda-forge/onnx-feedstock" xlink:title="onnx">
<ellipse fill="#35b779" stroke="black" cx="472.24" cy="-638" rx="35.42" ry="18"/>
<text text-anchor="middle" x="472.24" y="-633.33" font-family="Times,serif" font-size="14.00">onnx</text>
</a>
</g>
</g>
<!-- mosh&#45;&gt;onnx -->
<!-- paraview -->
<g id="node9" class="node">
<title>paraview</title>
<g id="a_node9"><a xlink:href="https://github.com/conda-forge/paraview-feedstock" xlink:title="paraview">
<ellipse fill="#35b779" stroke="black" cx="472.24" cy="-566" rx="57" ry="18"/>
<text text-anchor="middle" x="472.24" y="-561.33" font-family="Times,serif" font-size="14.00">paraview</text>
</a>
</g>
</g>
<!-- onnx&#45;&gt;paraview -->
<!-- mysql -->
<g id="node7" class="node">
<title>mysql</title>
<g id="a_node7"><a xlink:href="https://github.com/conda-forge/mysql-feedstock/pull/92" xlink:title="mysql ❎">
<ellipse fill="#31688e" stroke="black" cx="1772.24" cy="-458" rx="56.47" ry="18"/>
<text text-anchor="middle" x="1772.24" y="-453.32" font-family="Times,serif" font-size="14.00" fill="white">mysql ❎</text>
</a>
</g>
</g>
<!-- mysql&#45;connector&#45;python -->
<g id="node8" class="node">
<title>mysql&#45;connector&#45;python</title>
<g id="a_node8"><a xlink:href="https://github.com/conda-forge/mysql-connector-python-feedstock" xlink:title="mysql connector python">
<ellipse fill="#fde725" stroke="black" cx="1772.24" cy="-386" rx="131.7" ry="18"/>
<text text-anchor="middle" x="1772.24" y="-381.32" font-family="Times,serif" font-size="14.00">mysql connector python</text>
</a>
</g>
</g>
<!-- mysql&#45;&gt;mysql&#45;connector&#45;python -->
<g id="edge5" class="edge">
<title>mysql&#45;&gt;mysql&#45;connector&#45;python</title>
<path fill="none" stroke="black" d="M1772.24,-439.7C1772.24,-432.41 1772.24,-423.73 1772.24,-415.54"/>
<polygon fill="black" stroke="black" points="1775.74,-415.62 1772.24,-405.62 1768.74,-415.62 1775.74,-415.62"/>
</g>
<!-- qgis -->
<g id="node13" class="node">
<title>qgis</title>
<g id="a_node13"><a xlink:href="https://github.com/conda-forge/qgis-feedstock" xlink:title="qgis">
<ellipse fill="#35b779" stroke="black" cx="472.24" cy="-494" rx="32.27" ry="18"/>
<text text-anchor="middle" x="472.24" y="-489.32" font-family="Times,serif" font-size="14.00">qgis</text>
</a>
</g>
</g>
<!-- paraview&#45;&gt;qgis -->
<!-- opencv -->
<g id="node10" class="node">
<title>opencv</title>
<g id="a_node10"><a xlink:href="https://github.com/conda-forge/opencv-feedstock/pull/391" xlink:title="opencv ❎">
<ellipse fill="#31688e" stroke="black" cx="255.24" cy="-1186" rx="61.73" ry="18"/>
<text text-anchor="middle" x="255.24" y="-1181.33" font-family="Times,serif" font-size="14.00" fill="white">opencv ❎</text>
</a>
</g>
</g>
<!-- opencv&#45;&gt;ray&#45;packages -->
<g id="edge7" class="edge">
<title>opencv&#45;&gt;ray&#45;packages</title>
<path fill="none" stroke="black" d="M289.84,-1170.83C315.46,-1160.35 350.65,-1145.94 378.88,-1134.39"/>
<polygon fill="black" stroke="black" points="379.99,-1137.71 387.92,-1130.69 377.34,-1131.24 379.99,-1137.71"/>
</g>
<!-- imp -->
<g id="node11" class="node">
<title>imp</title>
<g id="a_node11"><a xlink:href="https://github.com/conda-forge/imp-feedstock" xlink:title="imp">
<ellipse fill="#fde725" stroke="black" cx="272.24" cy="-1114" rx="30.16" ry="18"/>
<text text-anchor="middle" x="272.24" y="-1109.33" font-family="Times,serif" font-size="14.00">imp</text>
</a>
</g>
</g>
<!-- opencv&#45;&gt;imp -->
<g id="edge8" class="edge">
<title>opencv&#45;&gt;imp</title>
<path fill="none" stroke="black" d="M259.44,-1167.7C261.23,-1160.32 263.37,-1151.52 265.38,-1143.25"/>
<polygon fill="black" stroke="black" points="268.77,-1144.12 267.73,-1133.58 261.96,-1142.47 268.77,-1144.12"/>
</g>
<!-- gazebo&#45;yarp&#45;plugins -->
<g id="node12" class="node">
<title>gazebo&#45;yarp&#45;plugins</title>
<g id="a_node12"><a xlink:href="https://github.com/conda-forge/gazebo-yarp-plugins-feedstock" xlink:title="gazebo yarp plugins">
<ellipse fill="#fde725" stroke="black" cx="112.24" cy="-1114" rx="112.24" ry="18"/>
<text text-anchor="middle" x="112.24" y="-1109.33" font-family="Times,serif" font-size="14.00">gazebo yarp plugins</text>
</a>
</g>
</g>
<!-- opencv&#45;&gt;gazebo&#45;yarp&#45;plugins -->
<g id="edge9" class="edge">
<title>opencv&#45;&gt;gazebo&#45;yarp&#45;plugins</title>
<path fill="none" stroke="black" d="M224.56,-1169.98C204.65,-1160.24 178.39,-1147.38 156.27,-1136.56"/>
<polygon fill="black" stroke="black" points="158,-1133.5 147.47,-1132.25 154.92,-1139.79 158,-1133.5"/>
</g>
<!-- tensorflow -->
<g id="node14" class="node">
<title>tensorflow</title>
<g id="a_node14"><a xlink:href="https://github.com/conda-forge/tensorflow-feedstock" xlink:title="tensorflow">
<ellipse fill="#ff8c00" stroke="black" cx="472.24" cy="-422" rx="63.84" ry="18"/>
<text text-anchor="middle" x="472.24" y="-417.32" font-family="Times,serif" font-size="14.00">tensorflow</text>
</a>
</g>
</g>
<!-- qgis&#45;&gt;tensorflow -->
<!-- r&#45;protolite -->
<g id="node15" class="node">
<title>r&#45;protolite</title>
<g id="a_node15"><a xlink:href="https://github.com/conda-forge/r-protolite-feedstock" xlink:title="r protolite">
<ellipse fill="#35b779" stroke="black" cx="472.24" cy="-350" rx="62.26" ry="18"/>
<text text-anchor="middle" x="472.24" y="-345.32" font-family="Times,serif" font-size="14.00">r protolite</text>
</a>
</g>
</g>
<!-- tensorflow&#45;&gt;r&#45;protolite -->
<!-- zaber&#45;motion -->
<g id="node16" class="node">
<title>zaber&#45;motion</title>
<g id="a_node16"><a xlink:href="https://github.com/conda-forge/zaber-motion-feedstock" xlink:title="zaber motion">
<ellipse fill="#35b779" stroke="black" cx="472.24" cy="-278" rx="76.99" ry="18"/>
<text text-anchor="middle" x="472.24" y="-273.32" font-family="Times,serif" font-size="14.00">zaber motion</text>
</a>
</g>
</g>
<!-- r&#45;protolite&#45;&gt;zaber&#45;motion -->
<!-- go&#45;cockroach -->
<g id="node27" class="node">
<title>go&#45;cockroach</title>
<g id="a_node27"><a xlink:href="https://github.com/conda-forge/go-cockroach-feedstock" xlink:title="go cockroach">
<ellipse fill="#35b779" stroke="black" cx="472.24" cy="-206" rx="76.46" ry="18"/>
<text text-anchor="middle" x="472.24" y="-201.32" font-family="Times,serif" font-size="14.00">go cockroach</text>
</a>
</g>
</g>
<!-- zaber&#45;motion&#45;&gt;go&#45;cockroach -->
<!-- pytorch&#45;cpu -->
<g id="node17" class="node">
<title>pytorch&#45;cpu</title>
<g id="a_node17"><a xlink:href="https://github.com/conda-forge/pytorch-cpu-feedstock" xlink:title="pytorch cpu">
<ellipse fill="#000000" stroke="black" cx="405.24" cy="-1186" rx="70.68" ry="18"/>
<text text-anchor="middle" x="405.24" y="-1181.33" font-family="Times,serif" font-size="14.00" fill="white">pytorch cpu</text>
</a>
</g>
</g>
<!-- pytorch&#45;cpu&#45;&gt;ray&#45;packages -->
<g id="edge14" class="edge">
<title>pytorch&#45;cpu&#45;&gt;ray&#45;packages</title>
<path fill="none" stroke="black" d="M410.43,-1167.7C412.67,-1160.24 415.34,-1151.32 417.85,-1142.97"/>
<polygon fill="black" stroke="black" points="421.15,-1144.14 420.67,-1133.55 414.45,-1142.13 421.15,-1144.14"/>
</g>
<!-- jaxlib -->
<g id="node18" class="node">
<title>jaxlib</title>
<g id="a_node18"><a xlink:href="https://github.com/conda-forge/jaxlib-feedstock" xlink:title="jaxlib">
<ellipse fill="#ff8c00" stroke="black" cx="504.24" cy="-1258" rx="38.58" ry="18"/>
<text text-anchor="middle" x="504.24" y="-1253.33" font-family="Times,serif" font-size="14.00">jaxlib</text>
</a>
</g>
</g>
<!-- jaxlib&#45;&gt;ray&#45;packages -->
<g id="edge15" class="edge">
<title>jaxlib&#45;&gt;ray&#45;packages</title>
<path fill="none" stroke="black" d="M503.69,-1239.81C502.41,-1221.01 498.29,-1190.56 485.24,-1168 478.8,-1156.87 469.2,-1146.8 459.61,-1138.51"/>
<polygon fill="black" stroke="black" points="462.03,-1135.97 452.07,-1132.37 457.61,-1141.4 462.03,-1135.97"/>
</g>
<!-- libignition&#45;transport4 -->
<g id="node19" class="node">
<title>libignition&#45;transport4</title>
<g id="a_node19"><a xlink:href="https://github.com/conda-forge/libignition-transport4-feedstock" xlink:title="libignition transport4">
<ellipse fill="#fde725" stroke="black" cx="1657.24" cy="-1258" rx="119.08" ry="18"/>
<text text-anchor="middle" x="1657.24" y="-1253.33" font-family="Times,serif" font-size="14.00">libignition transport4</text>
</a>
</g>
</g>
<!-- libignition&#45;sensors -->
<g id="node20" class="node">
<title>libignition&#45;sensors</title>
<g id="a_node20"><a xlink:href="https://github.com/conda-forge/libignition-sensors-feedstock" xlink:title="libignition sensors">
<ellipse fill="#fde725" stroke="black" cx="1812.24" cy="-1186" rx="103.82" ry="18"/>
<text text-anchor="middle" x="1812.24" y="-1181.33" font-family="Times,serif" font-size="14.00">libignition sensors</text>
</a>
</g>
</g>
<!-- libignition&#45;transport4&#45;&gt;libignition&#45;sensors -->
<g id="edge16" class="edge">
<title>libignition&#45;transport4&#45;&gt;libignition&#45;sensors</title>
<path fill="none" stroke="black" d="M1693.97,-1240.41C1715.47,-1230.7 1742.83,-1218.34 1765.82,-1207.96"/>
<polygon fill="black" stroke="black" points="1766.98,-1211.28 1774.66,-1203.97 1764.1,-1204.9 1766.98,-1211.28"/>
</g>
<!-- libignition&#45;gui -->
<g id="node21" class="node">
<title>libignition&#45;gui</title>
<g id="a_node21"><a xlink:href="https://github.com/conda-forge/libignition-gui-feedstock" xlink:title="libignition gui">
<ellipse fill="#fde725" stroke="black" cx="1533.24" cy="-1186" rx="81.2" ry="18"/>
<text text-anchor="middle" x="1533.24" y="-1181.33" font-family="Times,serif" font-size="14.00">libignition gui</text>
</a>
</g>
</g>
<!-- libignition&#45;transport4&#45;&gt;libignition&#45;gui -->
<g id="edge17" class="edge">
<title>libignition&#45;transport4&#45;&gt;libignition&#45;gui</title>
<path fill="none" stroke="black" d="M1627.54,-1240.23C1610.81,-1230.79 1589.73,-1218.89 1571.74,-1208.74"/>
<polygon fill="black" stroke="black" points="1573.59,-1205.76 1563.16,-1203.89 1570.15,-1211.86 1573.59,-1205.76"/>
</g>
<!-- libignition&#45;gazebo -->
<g id="node22" class="node">
<title>libignition&#45;gazebo</title>
<g id="a_node22"><a xlink:href="https://github.com/conda-forge/libignition-gazebo-feedstock" xlink:title="libignition gazebo">
<ellipse fill="#fde725" stroke="black" cx="1792.24" cy="-1114" rx="100.66" ry="18"/>
<text text-anchor="middle" x="1792.24" y="-1109.33" font-family="Times,serif" font-size="14.00">libignition gazebo</text>
</a>
</g>
</g>
<!-- libignition&#45;transport4&#45;&gt;libignition&#45;gazebo -->
<g id="edge18" class="edge">
<title>libignition&#45;transport4&#45;&gt;libignition&#45;gazebo</title>
<path fill="none" stroke="black" d="M1661.91,-1239.8C1667.89,-1220.43 1679.85,-1188.94 1699.24,-1168 1711.35,-1154.91 1727.46,-1144.19 1742.85,-1135.89"/>
<polygon fill="black" stroke="black" points="1744.17,-1139.16 1751.47,-1131.49 1740.98,-1132.92 1744.17,-1139.16"/>
</g>
<!-- libignition&#45;launch -->
<g id="node23" class="node">
<title>libignition&#45;launch</title>
<g id="a_node23"><a xlink:href="https://github.com/conda-forge/libignition-launch-feedstock" xlink:title="libignition launch">
<ellipse fill="#fde725" stroke="black" cx="1727.24" cy="-1042" rx="98.56" ry="18"/>
<text text-anchor="middle" x="1727.24" y="-1037.33" font-family="Times,serif" font-size="14.00">libignition launch</text>
</a>
</g>
</g>
<!-- libignition&#45;transport4&#45;&gt;libignition&#45;launch -->
<g id="edge19" class="edge">
<title>libignition&#45;transport4&#45;&gt;libignition&#45;launch</title>
<path fill="none" stroke="black" d="M1656.91,-1239.68C1656.97,-1209.2 1660,-1144.62 1682.24,-1096 1686.81,-1086 1693.82,-1076.41 1700.96,-1068.2"/>
<polygon fill="black" stroke="black" points="1703.41,-1070.72 1707.62,-1061 1698.26,-1065.97 1703.41,-1070.72"/>
</g>
<!-- libignition&#45;sensors&#45;&gt;libignition&#45;gazebo -->
<g id="edge20" class="edge">
<title>libignition&#45;sensors&#45;&gt;libignition&#45;gazebo</title>
<path fill="none" stroke="black" d="M1807.29,-1167.7C1805.16,-1160.24 1802.61,-1151.32 1800.23,-1142.97"/>
<polygon fill="black" stroke="black" points="1803.65,-1142.21 1797.54,-1133.56 1796.92,-1144.14 1803.65,-1142.21"/>
</g>
<!-- libignition&#45;gui&#45;&gt;libignition&#45;gazebo -->
<g id="edge21" class="edge">
<title>libignition&#45;gui&#45;&gt;libignition&#45;gazebo</title>
<path fill="none" stroke="black" d="M1583.48,-1171.42C1624.44,-1160.35 1682.58,-1144.64 1727.1,-1132.6"/>
<polygon fill="black" stroke="black" points="1727.91,-1136.01 1736.65,-1130.02 1726.08,-1129.25 1727.91,-1136.01"/>
</g>
<!-- libignition&#45;gui&#45;&gt;libignition&#45;launch -->
<g id="edge22" class="edge">
<title>libignition&#45;gui&#45;&gt;libignition&#45;launch</title>
<path fill="none" stroke="black" d="M1548.58,-1168.18C1566.48,-1149.17 1597.57,-1118 1628.24,-1096 1644.92,-1084.03 1664.64,-1072.94 1682.06,-1064.03"/>
<polygon fill="black" stroke="black" points="1683.29,-1067.33 1690.67,-1059.72 1680.16,-1061.07 1683.29,-1067.33"/>
</g>
<!-- libignition&#45;gazebo&#45;&gt;libignition&#45;launch -->
<g id="edge23" class="edge">
<title>libignition&#45;gazebo&#45;&gt;libignition&#45;launch</title>
<path fill="none" stroke="black" d="M1776.5,-1096.05C1768.68,-1087.63 1759.07,-1077.28 1750.42,-1067.97"/>
<polygon fill="black" stroke="black" points="1753.23,-1065.84 1743.86,-1060.9 1748.1,-1070.61 1753.23,-1065.84"/>
</g>
<!-- libignition&#45;msgs1 -->
<g id="node24" class="node">
<title>libignition&#45;msgs1</title>
<g id="a_node24"><a xlink:href="https://github.com/conda-forge/libignition-msgs1-feedstock" xlink:title="libignition msgs1">
<ellipse fill="#35b779" stroke="black" cx="1874.24" cy="-1330" rx="98.03" ry="18"/>
<text text-anchor="middle" x="1874.24" y="-1325.33" font-family="Times,serif" font-size="14.00">libignition msgs1</text>
</a>
</g>
</g>
<!-- libignition&#45;msgs1&#45;&gt;libignition&#45;transport4 -->
<g id="edge24" class="edge">
<title>libignition&#45;msgs1&#45;&gt;libignition&#45;transport4</title>
<path fill="none" stroke="black" d="M1827.15,-1313.81C1794.87,-1303.4 1751.77,-1289.5 1717.06,-1278.3"/>
<polygon fill="black" stroke="black" points="1718.14,-1274.97 1707.55,-1275.23 1715.99,-1281.63 1718.14,-1274.97"/>
</g>
<!-- libignition&#45;msgs1&#45;&gt;libignition&#45;sensors -->
<g id="edge25" class="edge">
<title>libignition&#45;msgs1&#45;&gt;libignition&#45;sensors</title>
<path fill="none" stroke="black" d="M1852.45,-1312.2C1841.83,-1302.76 1829.94,-1290.06 1823.24,-1276 1814.27,-1257.18 1811.68,-1233.7 1811.24,-1215.59"/>
<polygon fill="black" stroke="black" points="1814.74,-1215.8 1811.23,-1205.8 1807.74,-1215.81 1814.74,-1215.8"/>
</g>
<!-- libignition&#45;msgs1&#45;&gt;libignition&#45;gui -->
<g id="edge26" class="edge">
<title>libignition&#45;msgs1&#45;&gt;libignition&#45;gui</title>
<path fill="none" stroke="black" d="M1776.69,-1327.69C1686.1,-1324.15 1560.61,-1312.56 1529.24,-1276 1515.16,-1259.59 1517.65,-1234.57 1522.81,-1215.23"/>
<polygon fill="black" stroke="black" points="1526.12,-1216.36 1525.7,-1205.78 1519.43,-1214.31 1526.12,-1216.36"/>
</g>
<!-- libignition&#45;msgs1&#45;&gt;libignition&#45;gazebo -->
<g id="edge27" class="edge">
<title>libignition&#45;msgs1&#45;&gt;libignition&#45;gazebo</title>
<path fill="none" stroke="black" d="M1958.86,-1320.52C2021.67,-1310.26 2092.14,-1287.93 2065.24,-1240 2028.34,-1174.25 1945.99,-1142.9 1881.33,-1128.06"/>
<polygon fill="black" stroke="black" points="1882.29,-1124.69 1871.78,-1125.97 1880.8,-1131.53 1882.29,-1124.69"/>
</g>
<!-- libignition&#45;msgs1&#45;&gt;libignition&#45;launch -->
<g id="edge28" class="edge">
<title>libignition&#45;msgs1&#45;&gt;libignition&#45;launch</title>
<path fill="none" stroke="black" d="M1952.87,-1318.94C2004.47,-1310.54 2065.26,-1296.59 2081.24,-1276 2091.05,-1263.36 2086.36,-1255.16 2081.24,-1240 2043.34,-1127.96 1902.48,-1078.11 1810.28,-1057.09"/>
<polygon fill="black" stroke="black" points="1811.28,-1053.73 1800.76,-1054.99 1809.78,-1060.56 1811.28,-1053.73"/>
</g>
<!-- libignition&#45;fuel&#45;tools -->
<g id="node25" class="node">
<title>libignition&#45;fuel&#45;tools</title>
<g id="a_node25"><a xlink:href="https://github.com/conda-forge/libignition-fuel-tools-feedstock" xlink:title="libignition fuel tools">
<ellipse fill="#fde725" stroke="black" cx="1944.24" cy="-1258" rx="111.71" ry="18"/>
<text text-anchor="middle" x="1944.24" y="-1253.33" font-family="Times,serif" font-size="14.00">libignition fuel tools</text>
</a>
</g>
</g>
<!-- libignition&#45;msgs1&#45;&gt;libignition&#45;fuel&#45;tools -->
<g id="edge29" class="edge">
<title>libignition&#45;msgs1&#45;&gt;libignition&#45;fuel&#45;tools</title>
<path fill="none" stroke="black" d="M1891.18,-1312.05C1899.48,-1303.75 1909.65,-1293.58 1918.86,-1284.38"/>
<polygon fill="black" stroke="black" points="1921.3,-1286.89 1925.89,-1277.35 1916.35,-1281.94 1921.3,-1286.89"/>
</g>
<!-- libignition&#45;fuel&#45;tools&#45;&gt;libignition&#45;gazebo -->
<g id="edge30" class="edge">
<title>libignition&#45;fuel&#45;tools&#45;&gt;libignition&#45;gazebo</title>
<path fill="none" stroke="black" d="M1945.11,-1239.52C1945.15,-1219.89 1942.25,-1188.16 1925.24,-1168 1910.97,-1151.1 1890.55,-1139.54 1869.98,-1131.66"/>
<polygon fill="black" stroke="black" points="1871.27,-1128.4 1860.67,-1128.36 1868.93,-1135 1871.27,-1128.4"/>
</g>
<!-- gazebo -->
<g id="node26" class="node">
<title>gazebo</title>
<g id="a_node26"><a xlink:href="https://github.com/conda-forge/gazebo-feedstock" xlink:title="gazebo">
<ellipse fill="#35b779" stroke="black" cx="112.24" cy="-1186" rx="46.47" ry="18"/>
<text text-anchor="middle" x="112.24" y="-1181.33" font-family="Times,serif" font-size="14.00">gazebo</text>
</a>
</g>
</g>
<!-- gazebo&#45;&gt;gazebo&#45;yarp&#45;plugins -->
<g id="edge31" class="edge">
<title>gazebo&#45;&gt;gazebo&#45;yarp&#45;plugins</title>
<path fill="none" stroke="black" d="M112.24,-1167.7C112.24,-1160.41 112.24,-1151.73 112.24,-1143.54"/>
<polygon fill="black" stroke="black" points="115.74,-1143.62 112.24,-1133.62 108.74,-1143.62 115.74,-1143.62"/>
</g>
<!-- cartographer -->
<g id="node30" class="node">
<title>cartographer</title>
<g id="a_node30"><a xlink:href="https://github.com/conda-forge/cartographer-feedstock" xlink:title="cartographer">
<ellipse fill="#35b779" stroke="black" cx="472.24" cy="-134" rx="76.99" ry="18"/>
<text text-anchor="middle" x="472.24" y="-129.32" font-family="Times,serif" font-size="14.00">cartographer</text>
</a>
</g>
</g>
<!-- go&#45;cockroach&#45;&gt;cartographer -->
<!-- google&#45;cloud&#45;cpp -->
<g id="node28" class="node">
<title>google&#45;cloud&#45;cpp</title>
<g id="a_node28"><a xlink:href="https://github.com/conda-forge/google-cloud-cpp-feedstock" xlink:title="google cloud cpp">
<ellipse fill="#ff8c00" stroke="black" cx="809.24" cy="-1258" rx="95.4" ry="18"/>
<text text-anchor="middle" x="809.24" y="-1253.33" font-family="Times,serif" font-size="14.00">google cloud cpp</text>
</a>
</g>
</g>
<!-- google&#45;cloud&#45;cpp&#45;&gt;arrow&#45;cpp -->
<g id="edge33" class="edge">
<title>google&#45;cloud&#45;cpp&#45;&gt;arrow&#45;cpp</title>
<path fill="none" stroke="black" d="M762.85,-1241.9C728.17,-1230.61 680.78,-1215.18 645.07,-1203.55"/>
<polygon fill="black" stroke="black" points="646.43,-1200.31 635.83,-1200.54 644.26,-1206.97 646.43,-1200.31"/>
</g>
<!-- google&#45;cloud&#45;cpp&#45;core -->
<g id="node29" class="node">
<title>google&#45;cloud&#45;cpp&#45;core</title>
<g id="a_node29"><a xlink:href="https://github.com/conda-forge/google-cloud-cpp-core-feedstock/pull/6" xlink:title="google cloud cpp core ❎">
<ellipse fill="#31688e" stroke="black" cx="809.24" cy="-1186" rx="135.39" ry="18"/>
<text text-anchor="middle" x="809.24" y="-1181.33" font-family="Times,serif" font-size="14.00" fill="white">google cloud cpp core ❎</text>
</a>
</g>
</g>
<!-- google&#45;cloud&#45;cpp&#45;&gt;google&#45;cloud&#45;cpp&#45;core -->
<g id="edge34" class="edge">
<title>google&#45;cloud&#45;cpp&#45;&gt;google&#45;cloud&#45;cpp&#45;core</title>
<path fill="none" stroke="black" d="M803.32,-1239.7C802.57,-1232.41 802.33,-1223.73 802.59,-1215.54"/>
<polygon fill="black" stroke="black" points="806.08,-1215.82 803.24,-1205.61 799.09,-1215.36 806.08,-1215.82"/>
</g>
<!-- google&#45;cloud&#45;cpp&#45;core&#45;&gt;google&#45;cloud&#45;cpp -->
<g id="edge35" class="edge">
<title>google&#45;cloud&#45;cpp&#45;core&#45;&gt;google&#45;cloud&#45;cpp</title>
<path fill="none" stroke="black" d="M815.13,-1204.1C815.89,-1211.37 816.15,-1220.04 815.89,-1228.24"/>
<polygon fill="black" stroke="black" points="812.4,-1227.98 815.25,-1238.19 819.39,-1228.43 812.4,-1227.98"/>
</g>
<!-- sentencepiece -->
<g id="node31" class="node">
<title>sentencepiece</title>
<g id="a_node31"><a xlink:href="https://github.com/conda-forge/sentencepiece-feedstock" xlink:title="sentencepiece">
<ellipse fill="#35b779" stroke="black" cx="472.24" cy="-62" rx="82.25" ry="18"/>
<text text-anchor="middle" x="472.24" y="-57.33" font-family="Times,serif" font-size="14.00">sentencepiece</text>
</a>
</g>
</g>
<!-- cartographer&#45;&gt;sentencepiece -->
<!-- tomviz -->
<g id="node32" class="node">
<title>tomviz</title>
<g id="a_node32"><a xlink:href="https://github.com/conda-forge/tomviz-feedstock" xlink:title="tomviz">
<ellipse fill="#35b779" stroke="black" cx="1198.24" cy="-1546" rx="44.9" ry="18"/>
<text text-anchor="middle" x="1198.24" y="-1541.33" font-family="Times,serif" font-size="14.00">tomviz</text>
</a>
</g>
</g>
<!-- protozfits -->
<g id="node33" class="node">
<title>protozfits</title>
<g id="a_node33"><a xlink:href="https://github.com/conda-forge/protozfits-feedstock" xlink:title="protozfits">
<ellipse fill="#35b779" stroke="black" cx="1198.24" cy="-1474" rx="59.1" ry="18"/>
<text text-anchor="middle" x="1198.24" y="-1469.33" font-family="Times,serif" font-size="14.00">protozfits</text>
</a>
</g>
</g>
<!-- tomviz&#45;&gt;protozfits -->
<!-- grpc_java_plugin -->
<g id="node34" class="node">
<title>grpc_java_plugin</title>
<g id="a_node34"><a xlink:href="https://github.com/conda-forge/grpc_java_plugin-feedstock/pull/77" xlink:title="grpc_java_plugin ❎">
<ellipse fill="#31688e" stroke="black" cx="1198.24" cy="-1402" rx="110.66" ry="18"/>
<text text-anchor="middle" x="1198.24" y="-1397.33" font-family="Times,serif" font-size="14.00" fill="white">grpc_java_plugin ❎</text>
</a>
</g>
</g>
<!-- protozfits&#45;&gt;grpc_java_plugin -->
<!-- or&#45;tools -->
<g id="node35" class="node">
<title>or&#45;tools</title>
<g id="a_node35"><a xlink:href="https://github.com/conda-forge/or-tools-feedstock" xlink:title="or tools">
<ellipse fill="#35b779" stroke="black" cx="1198.24" cy="-1330" rx="49.1" ry="18"/>
<text text-anchor="middle" x="1198.24" y="-1325.33" font-family="Times,serif" font-size="14.00">or tools</text>
</a>
</g>
</g>
<!-- grpc_java_plugin&#45;&gt;or&#45;tools -->
<!-- bear -->
<g id="node36" class="node">
<title>bear</title>
<g id="a_node36"><a xlink:href="https://github.com/conda-forge/bear-feedstock" xlink:title="bear">
<ellipse fill="#35b779" stroke="black" cx="1198.24" cy="-1258" rx="33.85" ry="18"/>
<text text-anchor="middle" x="1198.24" y="-1253.33" font-family="Times,serif" font-size="14.00">bear</text>
</a>
</g>
</g>
<!-- or&#45;tools&#45;&gt;bear -->
<!-- cpp&#45;opentelemetry&#45;sdk -->
<g id="node37" class="node">
<title>cpp&#45;opentelemetry&#45;sdk</title>
<g id="a_node37"><a xlink:href="https://github.com/conda-forge/cpp-opentelemetry-sdk-feedstock" xlink:title="cpp opentelemetry sdk">
<ellipse fill="#35b779" stroke="black" cx="1198.24" cy="-1186" rx="125.92" ry="18"/>
<text text-anchor="middle" x="1198.24" y="-1181.33" font-family="Times,serif" font-size="14.00">cpp opentelemetry sdk</text>
</a>
</g>
</g>
<!-- bear&#45;&gt;cpp&#45;opentelemetry&#45;sdk -->
<!-- singlejar -->
<g id="node38" class="node">
<title>singlejar</title>
<g id="a_node38"><a xlink:href="https://github.com/conda-forge/singlejar-feedstock" xlink:title="singlejar">
<ellipse fill="#35b779" stroke="black" cx="1198.24" cy="-1114" rx="54.89" ry="18"/>
<text text-anchor="middle" x="1198.24" y="-1109.33" font-family="Times,serif" font-size="14.00">singlejar</text>
</a>
</g>
</g>
<!-- cpp&#45;opentelemetry&#45;sdk&#45;&gt;singlejar -->
<!-- xilinx&#45;runtime -->
<g id="node39" class="node">
<title>xilinx&#45;runtime</title>
<g id="a_node39"><a xlink:href="https://github.com/conda-forge/xilinx-runtime-feedstock" xlink:title="xilinx runtime">
<ellipse fill="#35b779" stroke="black" cx="1198.24" cy="-1042" rx="81.72" ry="18"/>
<text text-anchor="middle" x="1198.24" y="-1037.33" font-family="Times,serif" font-size="14.00">xilinx runtime</text>
</a>
</g>
</g>
<!-- singlejar&#45;&gt;xilinx&#45;runtime -->
<!-- libpulsar -->
<g id="node40" class="node">
<title>libpulsar</title>
<g id="a_node40"><a xlink:href="https://github.com/conda-forge/libpulsar-feedstock" xlink:title="libpulsar">
<ellipse fill="#35b779" stroke="black" cx="1198.24" cy="-970" rx="55.42" ry="18"/>
<text text-anchor="middle" x="1198.24" y="-965.33" font-family="Times,serif" font-size="14.00">libpulsar</text>
</a>
</g>
</g>
<!-- xilinx&#45;runtime&#45;&gt;libpulsar -->
<!-- gnss&#45;sdr -->
<g id="node48" class="node">
<title>gnss&#45;sdr</title>
<g id="a_node48"><a xlink:href="https://github.com/conda-forge/gnss-sdr-feedstock" xlink:title="gnss sdr">
<ellipse fill="#35b779" stroke="black" cx="1198.24" cy="-898" rx="53.84" ry="18"/>
<text text-anchor="middle" x="1198.24" y="-893.33" font-family="Times,serif" font-size="14.00">gnss sdr</text>
</a>
</g>
</g>
<!-- libpulsar&#45;&gt;gnss&#45;sdr -->
<!-- gz&#45;msgs -->
<g id="node41" class="node">
<title>gz&#45;msgs</title>
<g id="a_node41"><a xlink:href="https://github.com/conda-forge/gz-msgs-feedstock" xlink:title="gz msgs">
<ellipse fill="#35b779" stroke="black" cx="1160.24" cy="-566" rx="52.26" ry="18"/>
<text text-anchor="middle" x="1160.24" y="-561.33" font-family="Times,serif" font-size="14.00">gz msgs</text>
</a>
</g>
</g>
<!-- gz&#45;transport -->
<g id="node42" class="node">
<title>gz&#45;transport</title>
<g id="a_node42"><a xlink:href="https://github.com/conda-forge/gz-transport-feedstock" xlink:title="gz transport">
<ellipse fill="#fde725" stroke="black" cx="1110.24" cy="-494" rx="73.3" ry="18"/>
<text text-anchor="middle" x="1110.24" y="-489.32" font-family="Times,serif" font-size="14.00">gz transport</text>
</a>
</g>
</g>
<!-- gz&#45;msgs&#45;&gt;gz&#45;transport -->
<g id="edge46" class="edge">
<title>gz&#45;msgs&#45;&gt;gz&#45;transport</title>
<path fill="none" stroke="black" d="M1148.13,-548.05C1142.36,-539.97 1135.32,-530.12 1128.89,-521.11"/>
<polygon fill="black" stroke="black" points="1131.77,-519.12 1123.11,-513.02 1126.07,-523.19 1131.77,-519.12"/>
</g>
<!-- gz&#45;fuel&#45;tools -->
<g id="node43" class="node">
<title>gz&#45;fuel&#45;tools</title>
<g id="a_node43"><a xlink:href="https://github.com/conda-forge/gz-fuel-tools-feedstock" xlink:title="gz fuel tools">
<ellipse fill="#fde725" stroke="black" cx="1311.24" cy="-494" rx="72.25" ry="18"/>
<text text-anchor="middle" x="1311.24" y="-489.32" font-family="Times,serif" font-size="14.00">gz fuel tools</text>
</a>
</g>
</g>
<!-- gz&#45;msgs&#45;&gt;gz&#45;fuel&#45;tools -->
<g id="edge47" class="edge">
<title>gz&#45;msgs&#45;&gt;gz&#45;fuel&#45;tools</title>
<path fill="none" stroke="black" d="M1190.43,-551C1212.57,-540.74 1242.96,-526.65 1267.72,-515.17"/>
<polygon fill="black" stroke="black" points="1268.97,-518.45 1276.57,-511.07 1266.03,-512.1 1268.97,-518.45"/>
</g>
<!-- gz&#45;gui -->
<g id="node44" class="node">
<title>gz&#45;gui</title>
<g id="a_node44"><a xlink:href="https://github.com/conda-forge/gz-gui-feedstock" xlink:title="gz gui">
<ellipse fill="#fde725" stroke="black" cx="1019.24" cy="-422" rx="41.74" ry="18"/>
<text text-anchor="middle" x="1019.24" y="-417.32" font-family="Times,serif" font-size="14.00">gz gui</text>
</a>
</g>
</g>
<!-- gz&#45;msgs&#45;&gt;gz&#45;gui -->
<g id="edge48" class="edge">
<title>gz&#45;msgs&#45;&gt;gz&#45;gui</title>
<path fill="none" stroke="black" d="M1112.43,-558.38C1083.36,-551.73 1048.13,-538.45 1028.24,-512 1015.39,-494.92 1013.75,-470.47 1014.99,-451.53"/>
<polygon fill="black" stroke="black" points="1018.45,-452.08 1015.94,-441.78 1011.49,-451.39 1018.45,-452.08"/>
</g>
<!-- gz&#45;sensors -->
<g id="node45" class="node">
<title>gz&#45;sensors</title>
<g id="a_node45"><a xlink:href="https://github.com/conda-forge/gz-sensors-feedstock" xlink:title="gz sensors">
<ellipse fill="#fde725" stroke="black" cx="1219.24" cy="-422" rx="64.36" ry="18"/>
<text text-anchor="middle" x="1219.24" y="-417.32" font-family="Times,serif" font-size="14.00">gz sensors</text>
</a>
</g>
</g>
<!-- gz&#45;msgs&#45;&gt;gz&#45;sensors -->
<g id="edge49" class="edge">
<title>gz&#45;msgs&#45;&gt;gz&#45;sensors</title>
<path fill="none" stroke="black" d="M1171.73,-548.4C1178.39,-538.23 1186.55,-524.77 1192.24,-512 1200.98,-492.37 1207.93,-469.1 1212.58,-451.28"/>
<polygon fill="black" stroke="black" points="1215.96,-452.2 1215.01,-441.65 1209.17,-450.5 1215.96,-452.2"/>
</g>
<!-- gz&#45;sim -->
<g id="node46" class="node">
<title>gz&#45;sim</title>
<g id="a_node46"><a xlink:href="https://github.com/conda-forge/gz-sim-feedstock" xlink:title="gz sim">
<ellipse fill="#fde725" stroke="black" cx="1190.24" cy="-350" rx="43.84" ry="18"/>
<text text-anchor="middle" x="1190.24" y="-345.32" font-family="Times,serif" font-size="14.00">gz sim</text>
</a>
</g>
</g>
<!-- gz&#45;msgs&#45;&gt;gz&#45;sim -->
<g id="edge50" class="edge">
<title>gz&#45;msgs&#45;&gt;gz&#45;sim</title>
<path fill="none" stroke="black" d="M1210.56,-560.71C1271.84,-554.32 1369.96,-539.94 1392.24,-512 1445,-445.83 1310.2,-389.72 1235.69,-364.8"/>
<polygon fill="black" stroke="black" points="1237.2,-361.61 1226.61,-361.83 1235.02,-368.27 1237.2,-361.61"/>
</g>
<!-- gz&#45;launch -->
<g id="node47" class="node">
<title>gz&#45;launch</title>
<g id="a_node47"><a xlink:href="https://github.com/conda-forge/gz-launch-feedstock" xlink:title="gz launch">
<ellipse fill="#fde725" stroke="black" cx="1070.24" cy="-278" rx="59.1" ry="18"/>
<text text-anchor="middle" x="1070.24" y="-273.32" font-family="Times,serif" font-size="14.00">gz launch</text>
</a>
</g>
</g>
<!-- gz&#45;msgs&#45;&gt;gz&#45;launch -->
<g id="edge51" class="edge">
<title>gz&#45;msgs&#45;&gt;gz&#45;launch</title>
<path fill="none" stroke="black" d="M1114.53,-556.99C1083.06,-549.61 1041.77,-536.03 1012.24,-512 983.15,-488.33 978.39,-476.1 968.24,-440 952.83,-385.24 1004.12,-331.41 1039.48,-301.97"/>
<polygon fill="black" stroke="black" points="1041.32,-304.98 1046.89,-295.97 1036.92,-299.54 1041.32,-304.98"/>
</g>
<!-- gz&#45;transport&#45;&gt;gz&#45;gui -->
<g id="edge52" class="edge">
<title>gz&#45;transport&#45;&gt;gz&#45;gui</title>
<path fill="none" stroke="black" d="M1088.67,-476.41C1076.58,-467.11 1061.32,-455.38 1048.2,-445.28"/>
<polygon fill="black" stroke="black" points="1050.35,-442.52 1040.29,-439.2 1046.09,-448.07 1050.35,-442.52"/>
</g>
<!-- gz&#45;transport&#45;&gt;gz&#45;sensors -->
<g id="edge53" class="edge">
<title>gz&#45;transport&#45;&gt;gz&#45;sensors</title>
<path fill="none" stroke="black" d="M1135.52,-476.76C1150.2,-467.33 1168.91,-455.32 1184.91,-445.04"/>
<polygon fill="black" stroke="black" points="1186.67,-448.07 1193.2,-439.72 1182.89,-442.18 1186.67,-448.07"/>
</g>
<!-- gz&#45;transport&#45;&gt;gz&#45;sim -->
<g id="edge54" class="edge">
<title>gz&#45;transport&#45;&gt;gz&#45;sim</title>
<path fill="none" stroke="black" d="M1115.41,-475.87C1121.38,-457.39 1132.22,-427.46 1146.24,-404 1152.16,-394.1 1159.86,-384.13 1167.17,-375.55"/>
<polygon fill="black" stroke="black" points="1169.56,-378.13 1173.55,-368.32 1164.31,-373.5 1169.56,-378.13"/>
</g>
<!-- gz&#45;transport&#45;&gt;gz&#45;launch -->
<g id="edge55" class="edge">
<title>gz&#45;transport&#45;&gt;gz&#45;launch</title>
<path fill="none" stroke="black" d="M1107.03,-475.85C1100.17,-439.14 1084.01,-352.66 1075.57,-307.53"/>
<polygon fill="black" stroke="black" points="1079.01,-306.91 1073.74,-297.72 1072.13,-308.19 1079.01,-306.91"/>
</g>
<!-- gz&#45;fuel&#45;tools&#45;&gt;gz&#45;sim -->
<g id="edge56" class="edge">
<title>gz&#45;fuel&#45;tools&#45;&gt;gz&#45;sim</title>
<path fill="none" stroke="black" d="M1311.74,-475.82C1311.44,-456.47 1308.23,-424.99 1292.24,-404 1278.3,-385.7 1256.23,-373.13 1236.18,-364.85"/>
<polygon fill="black" stroke="black" points="1237.62,-361.65 1227.03,-361.33 1235.11,-368.19 1237.62,-361.65"/>
</g>
<!-- gz&#45;gui&#45;&gt;gz&#45;sim -->
<g id="edge57" class="edge">
<title>gz&#45;gui&#45;&gt;gz&#45;sim</title>
<path fill="none" stroke="black" d="M1048.63,-408.97C1076.48,-397.57 1118.54,-380.35 1149.59,-367.64"/>
<polygon fill="black" stroke="black" points="1150.75,-370.95 1158.68,-363.92 1148.1,-364.47 1150.75,-370.95"/>
</g>
<!-- gz&#45;gui&#45;&gt;gz&#45;launch -->
<g id="edge58" class="edge">
<title>gz&#45;gui&#45;&gt;gz&#45;launch</title>
<path fill="none" stroke="black" d="M1025.39,-403.87C1034.04,-379.78 1049.91,-335.6 1060.26,-306.77"/>
<polygon fill="black" stroke="black" points="1063.47,-308.21 1063.55,-297.61 1056.88,-305.84 1063.47,-308.21"/>
</g>
<!-- gz&#45;sensors&#45;&gt;gz&#45;sim -->
<g id="edge59" class="edge">
<title>gz&#45;sensors&#45;&gt;gz&#45;sim</title>
<path fill="none" stroke="black" d="M1212.07,-403.7C1208.94,-396.15 1205.2,-387.12 1201.7,-378.68"/>
<polygon fill="black" stroke="black" points="1204.96,-377.4 1197.9,-369.5 1198.5,-380.08 1204.96,-377.4"/>
</g>
<!-- gz&#45;sim&#45;&gt;gz&#45;launch -->
<g id="edge60" class="edge">
<title>gz&#45;sim&#45;&gt;gz&#45;launch</title>
<path fill="none" stroke="black" d="M1165.66,-334.67C1148.69,-324.77 1125.83,-311.43 1106.73,-300.29"/>
<polygon fill="black" stroke="black" points="1108.57,-297.31 1098.17,-295.29 1105.04,-303.36 1108.57,-297.31"/>
</g>
<!-- tensorstore -->
<g id="node49" class="node">
<title>tensorstore</title>
<g id="a_node49"><a xlink:href="https://github.com/conda-forge/tensorstore-feedstock" xlink:title="tensorstore">
<ellipse fill="#35b779" stroke="black" cx="1198.24" cy="-826" rx="69.1" ry="18"/>
<text text-anchor="middle" x="1198.24" y="-821.33" font-family="Times,serif" font-size="14.00">tensorstore</text>
</a>
</g>
</g>
<!-- gnss&#45;sdr&#45;&gt;tensorstore -->
<!-- gcld3 -->
<g id="node50" class="node">
<title>gcld3</title>
<g id="a_node50"><a xlink:href="https://github.com/conda-forge/gcld3-feedstock" xlink:title="gcld3">
<ellipse fill="#35b779" stroke="black" cx="472.24" cy="-18" rx="38.58" ry="18"/>
<text text-anchor="middle" x="472.24" y="-13.32" font-family="Times,serif" font-size="14.00">gcld3</text>
</a>
</g>
</g>
</g>
</svg>
