<?xml version="1.0" encoding="UTF-8" standalone="no"?>
<!DOCTYPE svg PUBLIC "-//W3C//DTD SVG 1.1//EN"
 "http://www.w3.org/Graphics/SVG/1.1/DTD/svg11.dtd">
<!-- Generated by graphviz version 8.1.0 (20230707.2238)
 -->
<!-- Pages: 1 -->
<svg width="560pt" height="160pt"
 viewBox="0.00 0.00 559.77 160.00" xmlns="http://www.w3.org/2000/svg" xmlns:xlink="http://www.w3.org/1999/xlink">
<g id="graph0" class="graph" transform="scale(1 1) rotate(0) translate(4 156)">
<polygon fill="white" stroke="none" points="-4,4 -4,-156 555.77,-156 555.77,4 -4,4"/>
<!-- postgis -->
<g id="node1" class="node">
<title>postgis</title>
<g id="a_node1"><a xlink:href="https://github.com/conda-forge/postgis-feedstock" xlink:title="postgis">
<ellipse fill="#ff8c00" stroke="black" cx="303.89" cy="-134" rx="47.53" ry="18"/>
<text text-anchor="middle" x="303.89" y="-129.32" font-family="Times,serif" font-size="14.00">postgis</text>
</a>
</g>
</g>
<!-- pgrouting -->
<g id="node4" class="node">
<title>pgrouting</title>
<g id="a_node4"><a xlink:href="https://github.com/conda-forge/pgrouting-feedstock" xlink:title="pgrouting">
<ellipse fill="#fde725" stroke="black" cx="303.89" cy="-62" rx="60.68" ry="18"/>
<text text-anchor="middle" x="303.89" y="-57.33" font-family="Times,serif" font-size="14.00">pgrouting</text>
</a>
</g>
</g>
<!-- postgis&#45;&gt;pgrouting -->
<g id="edge1" class="edge">
<title>postgis&#45;&gt;pgrouting</title>
<path fill="none" stroke="black" d="M303.89,-115.7C303.89,-108.24 303.89,-99.32 303.89,-90.97"/>
<polygon fill="black" stroke="black" points="307.39,-91.1 303.89,-81.1 300.39,-91.1 307.39,-91.1"/>
</g>
<!-- qgis -->
<g id="node2" class="node">
<title>qgis</title>
<g id="a_node2"><a xlink:href="https://github.com/conda-forge/qgis-feedstock" xlink:title="qgis">
<ellipse fill="#fde725" stroke="black" cx="64.89" cy="-62" rx="32.27" ry="18"/>
<text text-anchor="middle" x="64.89" y="-57.33" font-family="Times,serif" font-size="14.00">qgis</text>
</a>
</g>
</g>
<!-- r&#45;rpostgresql -->
<g id="node3" class="node">
<title>r&#45;rpostgresql</title>
<g id="a_node3"><a xlink:href="https://github.com/conda-forge/r-rpostgresql-feedstock/pull/20" xlink:title="r rpostgresql ✓">
<ellipse fill="#31688e" stroke="black" cx="466.89" cy="-98" rx="84.88" ry="18"/>
<text text-anchor="middle" x="466.89" y="-93.33" font-family="Times,serif" font-size="14.00" fill="white">r rpostgresql ✓</text>
</a>
</g>
</g>
<!-- psqlodbc -->
<g id="node5" class="node">
<title>psqlodbc</title>
<g id="a_node5"><a xlink:href="https://github.com/conda-forge/psqlodbc-feedstock/pull/4" xlink:title="psqlodbc ❎">
<ellipse fill="#31688e" stroke="black" cx="112.89" cy="-18" rx="71.2" ry="18"/>
<text text-anchor="middle" x="112.89" y="-13.32" font-family="Times,serif" font-size="14.00" fill="white">psqlodbc ❎</text>
</a>
</g>
</g>
<!-- soci -->
<g id="node6" class="node">
<title>soci</title>
<g id="a_node6"><a xlink:href="https://github.com/conda-forge/soci-feedstock/pull/14" xlink:title="soci ✓">
<ellipse fill="#31688e" stroke="black" cx="185.89" cy="-134" rx="38.58" ry="18"/>
<text text-anchor="middle" x="185.89" y="-129.32" font-family="Times,serif" font-size="14.00" fill="white">soci ✓</text>
</a>
</g>
</g>
<!-- rstudio -->
<g id="node8" class="node">
<title>rstudio</title>
<g id="a_node8"><a xlink:href="https://github.com/conda-forge/rstudio-feedstock" xlink:title="rstudio">
<ellipse fill="#fde725" stroke="black" cx="173.89" cy="-62" rx="47" ry="18"/>
<text text-anchor="middle" x="173.89" y="-57.33" font-family="Times,serif" font-size="14.00">rstudio</text>
</a>
</g>
</g>
<!-- soci&#45;&gt;rstudio -->
<g id="edge2" class="edge">
<title>soci&#45;&gt;rstudio</title>
<path fill="none" stroke="black" d="M182.92,-115.7C181.63,-108.15 180.08,-99.12 178.63,-90.68"/>
<polygon fill="black" stroke="black" points="181.96,-90.37 176.82,-81.1 175.06,-91.55 181.96,-90.37"/>
</g>
<!-- qt&#45;main -->
<g id="node7" class="node">
<title>qt&#45;main</title>
<g id="a_node7"><a xlink:href="https://github.com/conda-forge/qt-main-feedstock/pull/192" xlink:title="qt main ❎">
<ellipse fill="#31688e" stroke="black" cx="64.89" cy="-134" rx="64.89" ry="18"/>
<text text-anchor="middle" x="64.89" y="-129.32" font-family="Times,serif" font-size="14.00" fill="white">qt main ❎</text>
</a>
</g>
</g>
<!-- qt&#45;main&#45;&gt;qgis -->
<g id="edge3" class="edge">
<title>qt&#45;main&#45;&gt;qgis</title>
<path fill="none" stroke="black" d="M64.89,-115.7C64.89,-108.24 64.89,-99.32 64.89,-90.97"/>
<polygon fill="black" stroke="black" points="68.39,-91.1 64.89,-81.1 61.39,-91.1 68.39,-91.1"/>
</g>
<!-- qt&#45;main&#45;&gt;rstudio -->
<g id="edge4" class="edge">
<title>qt&#45;main&#45;&gt;rstudio</title>
<path fill="none" stroke="black" d="M89.89,-116.94C105.27,-107.06 125.14,-94.31 141.68,-83.68"/>
<polygon fill="black" stroke="black" points="142.96,-86.38 149.49,-78.03 139.18,-80.49 142.96,-86.38"/>
</g>
<!-- pgvector -->
<g id="node9" class="node">
<title>pgvector</title>
<g id="a_node9"><a xlink:href="https://github.com/conda-forge/pgvector-feedstock/pull/17" xlink:title="pgvector ❎">
<ellipse fill="#31688e" stroke="black" cx="303.89" cy="-18" rx="70.67" ry="18"/>
<text text-anchor="middle" x="303.89" y="-13.32" font-family="Times,serif" font-size="14.00" fill="white">pgvector ❎</text>
</a>
</g>
</g>
</g>
</svg>
