<?xml version="1.0" encoding="UTF-8" standalone="no"?>
<!DOCTYPE svg PUBLIC "-//W3C//DTD SVG 1.1//EN"
 "http://www.w3.org/Graphics/SVG/1.1/DTD/svg11.dtd">
<!-- Generated by graphviz version 8.1.0 (20230707.2238)
 -->
<!-- Pages: 1 -->
<svg width="630pt" height="160pt"
 viewBox="0.00 0.00 629.52 160.00" xmlns="http://www.w3.org/2000/svg" xmlns:xlink="http://www.w3.org/1999/xlink">
<g id="graph0" class="graph" transform="scale(1 1) rotate(0) translate(4 156)">
<polygon fill="white" stroke="none" points="-4,4 -4,-156 625.52,-156 625.52,4 -4,4"/>
<!-- gdal -->
<g id="node1" class="node">
<title>gdal</title>
<g id="a_node1"><a xlink:href="https://github.com/conda-forge/gdal-feedstock" xlink:title="gdal">
<ellipse fill="#35b779" stroke="black" cx="145.53" cy="-134" rx="32.79" ry="18"/>
<text text-anchor="middle" x="145.53" y="-129.32" font-family="Times,serif" font-size="14.00">gdal</text>
</a>
</g>
</g>
<!-- postgis -->
<g id="node2" class="node">
<title>postgis</title>
<g id="a_node2"><a xlink:href="https://github.com/conda-forge/postgis-feedstock" xlink:title="postgis">
<ellipse fill="#fde725" stroke="black" cx="47.53" cy="-62" rx="47.53" ry="18"/>
<text text-anchor="middle" x="47.53" y="-57.33" font-family="Times,serif" font-size="14.00">postgis</text>
</a>
</g>
</g>
<!-- gdal&#45;&gt;postgis -->
<g id="edge3" class="edge">
<title>gdal&#45;&gt;postgis</title>
<path fill="none" stroke="black" d="M126.16,-119.17C112.36,-109.31 93.53,-95.86 77.76,-84.6"/>
<polygon fill="black" stroke="black" points="80.06,-81.22 69.89,-78.26 75.99,-86.92 80.06,-81.22"/>
</g>
<!-- pdal -->
<g id="node4" class="node">
<title>pdal</title>
<g id="a_node4"><a xlink:href="https://github.com/conda-forge/pdal-feedstock" xlink:title="pdal">
<ellipse fill="#fde725" stroke="black" cx="145.53" cy="-62" rx="32.79" ry="18"/>
<text text-anchor="middle" x="145.53" y="-57.33" font-family="Times,serif" font-size="14.00">pdal</text>
</a>
</g>
</g>
<!-- gdal&#45;&gt;pdal -->
<g id="edge2" class="edge">
<title>gdal&#45;&gt;pdal</title>
<path fill="none" stroke="black" d="M145.53,-115.7C145.53,-108.24 145.53,-99.32 145.53,-90.97"/>
<polygon fill="black" stroke="black" points="149.03,-91.1 145.53,-81.1 142.03,-91.1 149.03,-91.1"/>
</g>
<!-- mapserver -->
<g id="node7" class="node">
<title>mapserver</title>
<g id="a_node7"><a xlink:href="https://github.com/conda-forge/mapserver-feedstock" xlink:title="mapserver">
<ellipse fill="#fde725" stroke="black" cx="261.53" cy="-62" rx="64.89" ry="18"/>
<text text-anchor="middle" x="261.53" y="-57.33" font-family="Times,serif" font-size="14.00">mapserver</text>
</a>
</g>
</g>
<!-- gdal&#45;&gt;mapserver -->
<g id="edge1" class="edge">
<title>gdal&#45;&gt;mapserver</title>
<path fill="none" stroke="black" d="M167.07,-120C183.55,-110.05 206.63,-96.13 225.85,-84.53"/>
<polygon fill="black" stroke="black" points="227.46,-87.04 234.21,-78.88 223.84,-81.05 227.46,-87.04"/>
</g>
<!-- r&#45;rpostgresql -->
<g id="node3" class="node">
<title>r&#45;rpostgresql</title>
<g id="a_node3"><a xlink:href="https://github.com/conda-forge/r-rpostgresql-feedstock" xlink:title="r rpostgresql">
<ellipse fill="#35b779" stroke="black" cx="163.53" cy="-18" rx="76.99" ry="18"/>
<text text-anchor="middle" x="163.53" y="-13.32" font-family="Times,serif" font-size="14.00">r rpostgresql</text>
</a>
</g>
</g>
<!-- soci -->
<g id="node5" class="node">
<title>soci</title>
<g id="a_node5"><a xlink:href="https://github.com/conda-forge/soci-feedstock" xlink:title="soci">
<ellipse fill="#35b779" stroke="black" cx="574.53" cy="-134" rx="30.69" ry="18"/>
<text text-anchor="middle" x="574.53" y="-129.32" font-family="Times,serif" font-size="14.00">soci</text>
</a>
</g>
</g>
<!-- rstudio -->
<g id="node8" class="node">
<title>rstudio</title>
<g id="a_node8"><a xlink:href="https://github.com/conda-forge/rstudio-feedstock" xlink:title="rstudio">
<ellipse fill="#fde725" stroke="black" cx="574.53" cy="-62" rx="47" ry="18"/>
<text text-anchor="middle" x="574.53" y="-57.33" font-family="Times,serif" font-size="14.00">rstudio</text>
</a>
</g>
</g>
<!-- soci&#45;&gt;rstudio -->
<g id="edge4" class="edge">
<title>soci&#45;&gt;rstudio</title>
<path fill="none" stroke="black" d="M574.53,-115.7C574.53,-108.24 574.53,-99.32 574.53,-90.97"/>
<polygon fill="black" stroke="black" points="578.03,-91.1 574.53,-81.1 571.03,-91.1 578.03,-91.1"/>
</g>
<!-- libpqxx -->
<g id="node6" class="node">
<title>libpqxx</title>
<g id="a_node6"><a xlink:href="https://github.com/conda-forge/libpqxx-feedstock" xlink:title="libpqxx">
<ellipse fill="#35b779" stroke="black" cx="427.53" cy="-18" rx="48.05" ry="18"/>
<text text-anchor="middle" x="427.53" y="-13.32" font-family="Times,serif" font-size="14.00">libpqxx</text>
</a>
</g>
</g>
<!-- arrow&#45;adbc&#45;split -->
<g id="node9" class="node">
<title>arrow&#45;adbc&#45;split</title>
<g id="a_node9"><a xlink:href="https://github.com/conda-forge/arrow-adbc-split-feedstock" xlink:title="arrow adbc split">
<ellipse fill="#35b779" stroke="black" cx="427.53" cy="-98" rx="92.77" ry="18"/>
<text text-anchor="middle" x="427.53" y="-93.33" font-family="Times,serif" font-size="14.00">arrow adbc split</text>
</a>
</g>
</g>
</g>
</svg>
