<?xml version="1.0" encoding="UTF-8" standalone="no"?>
<!DOCTYPE svg PUBLIC "-//W3C//DTD SVG 1.1//EN"
 "http://www.w3.org/Graphics/SVG/1.1/DTD/svg11.dtd">
<!-- Generated by graphviz version 8.1.0 (20230707.2238)
 -->
<!-- Pages: 1 -->
<svg width="2260pt" height="952pt"
 viewBox="0.00 0.00 2260.35 952.00" xmlns="http://www.w3.org/2000/svg" xmlns:xlink="http://www.w3.org/1999/xlink">
<g id="graph0" class="graph" transform="scale(1 1) rotate(0) translate(4 948)">
<polygon fill="white" stroke="none" points="-4,4 -4,-948 2256.35,-948 2256.35,4 -4,4"/>
<!-- emacs -->
<g id="node1" class="node">
<title>emacs</title>
<g id="a_node1"><a xlink:href="https://github.com/conda-forge/emacs-feedstock" xlink:title="emacs">
<ellipse fill="#35b779" stroke="black" cx="2143.79" cy="-926" rx="42.79" ry="18"/>
<text text-anchor="middle" x="2143.79" y="-921.33" font-family="Times,serif" font-size="14.00">emacs</text>
</a>
</g>
</g>
<!-- libitk -->
<g id="node2" class="node">
<title>libitk</title>
<g id="a_node2"><a xlink:href="https://github.com/conda-forge/libitk-feedstock/pull/85" xlink:title="libitk ✓">
<ellipse fill="#31688e" stroke="black" cx="2143.79" cy="-854" rx="44.9" ry="18"/>
<text text-anchor="middle" x="2143.79" y="-849.33" font-family="Times,serif" font-size="14.00" fill="white">libitk ✓</text>
</a>
</g>
</g>
<!-- emacs&#45;&gt;libitk -->
<!-- r&#45;cairo -->
<g id="node11" class="node">
<title>r&#45;cairo</title>
<g id="a_node11"><a xlink:href="https://github.com/conda-forge/r-cairo-feedstock" xlink:title="r cairo">
<ellipse fill="#ff8c00" stroke="black" cx="2143.79" cy="-782" rx="43.84" ry="18"/>
<text text-anchor="middle" x="2143.79" y="-777.33" font-family="Times,serif" font-size="14.00">r cairo</text>
</a>
</g>
</g>
<!-- libitk&#45;&gt;r&#45;cairo -->
<!-- freeimage -->
<g id="node3" class="node">
<title>freeimage</title>
<g id="a_node3"><a xlink:href="https://github.com/conda-forge/freeimage-feedstock" xlink:title="freeimage">
<ellipse fill="#fde725" stroke="black" cx="278.79" cy="-674" rx="61.73" ry="18"/>
<text text-anchor="middle" x="278.79" y="-669.33" font-family="Times,serif" font-size="14.00">freeimage</text>
</a>
</g>
</g>
<!-- gdal -->
<g id="node4" class="node">
<title>gdal</title>
<g id="a_node4"><a xlink:href="https://github.com/conda-forge/gdal-feedstock" xlink:title="gdal">
<ellipse fill="#fde725" stroke="black" cx="32.79" cy="-602" rx="32.79" ry="18"/>
<text text-anchor="middle" x="32.79" y="-597.33" font-family="Times,serif" font-size="14.00">gdal</text>
</a>
</g>
</g>
<!-- imagemagick -->
<g id="node5" class="node">
<title>imagemagick</title>
<g id="a_node5"><a xlink:href="https://github.com/conda-forge/imagemagick-feedstock" xlink:title="imagemagick">
<ellipse fill="#fde725" stroke="black" cx="1060.79" cy="-602" rx="77.52" ry="18"/>
<text text-anchor="middle" x="1060.79" y="-597.33" font-family="Times,serif" font-size="14.00">imagemagick</text>
</a>
</g>
</g>
<!-- libvips -->
<g id="node6" class="node">
<title>libvips</title>
<g id="a_node6"><a xlink:href="https://github.com/conda-forge/libvips-feedstock" xlink:title="libvips">
<ellipse fill="#fde725" stroke="black" cx="368.79" cy="-530" rx="44.37" ry="18"/>
<text text-anchor="middle" x="368.79" y="-525.33" font-family="Times,serif" font-size="14.00">libvips</text>
</a>
</g>
</g>
<!-- imagemagick&#45;&gt;libvips -->
<g id="edge2" class="edge">
<title>imagemagick&#45;&gt;libvips</title>
<path fill="none" stroke="black" d="M1003.51,-589.55C992.04,-587.5 980.06,-585.53 968.79,-584 768.65,-556.73 528.94,-540.44 423.32,-534.08"/>
<polygon fill="black" stroke="black" points="423.81,-530.55 413.62,-533.45 423.39,-537.53 423.81,-530.55"/>
</g>
<!-- imread -->
<g id="node7" class="node">
<title>imread</title>
<g id="a_node7"><a xlink:href="https://github.com/conda-forge/imread-feedstock" xlink:title="imread">
<ellipse fill="#fde725" stroke="black" cx="1120.79" cy="-674" rx="46.47" ry="18"/>
<text text-anchor="middle" x="1120.79" y="-669.33" font-family="Times,serif" font-size="14.00">imread</text>
</a>
</g>
</g>
<!-- libgd -->
<g id="node8" class="node">
<title>libgd</title>
<g id="a_node8"><a xlink:href="https://github.com/conda-forge/libgd-feedstock" xlink:title="libgd">
<ellipse fill="#fde725" stroke="black" cx="1258.79" cy="-674" rx="36.48" ry="18"/>
<text text-anchor="middle" x="1258.79" y="-669.33" font-family="Times,serif" font-size="14.00">libgd</text>
</a>
</g>
</g>
<!-- libgd&#45;&gt;imagemagick -->
<g id="edge3" class="edge">
<title>libgd&#45;&gt;imagemagick</title>
<path fill="none" stroke="black" d="M1229.58,-662.67C1198.8,-651.79 1149.72,-634.44 1112.4,-621.24"/>
<polygon fill="black" stroke="black" points="1113.8,-617.67 1103.21,-617.64 1111.47,-624.27 1113.8,-617.67"/>
</g>
<!-- graphicsmagick -->
<g id="node9" class="node">
<title>graphicsmagick</title>
<g id="a_node9"><a xlink:href="https://github.com/conda-forge/graphicsmagick-feedstock" xlink:title="graphicsmagick">
<ellipse fill="#fde725" stroke="black" cx="1246.79" cy="-602" rx="90.14" ry="18"/>
<text text-anchor="middle" x="1246.79" y="-597.33" font-family="Times,serif" font-size="14.00">graphicsmagick</text>
</a>
</g>
</g>
<!-- libgd&#45;&gt;graphicsmagick -->
<g id="edge4" class="edge">
<title>libgd&#45;&gt;graphicsmagick</title>
<path fill="none" stroke="black" d="M1255.83,-655.7C1254.53,-648.15 1252.99,-639.12 1251.54,-630.68"/>
<polygon fill="black" stroke="black" points="1254.87,-630.37 1249.73,-621.1 1247.97,-631.55 1254.87,-630.37"/>
</g>
<!-- root -->
<g id="node10" class="node">
<title>root</title>
<g id="a_node10"><a xlink:href="https://github.com/conda-forge/root-feedstock" xlink:title="root">
<ellipse fill="#fde725" stroke="black" cx="1386.79" cy="-602" rx="31.74" ry="18"/>
<text text-anchor="middle" x="1386.79" y="-597.33" font-family="Times,serif" font-size="14.00">root</text>
</a>
</g>
</g>
<!-- libgd&#45;&gt;root -->
<g id="edge5" class="edge">
<title>libgd&#45;&gt;root</title>
<path fill="none" stroke="black" d="M1282.57,-660C1302.98,-648.84 1332.55,-632.66 1354.99,-620.39"/>
<polygon fill="black" stroke="black" points="1356.34,-623.1 1363.43,-615.23 1352.98,-616.96 1356.34,-623.1"/>
</g>
<!-- astromatic&#45;stiff -->
<g id="node24" class="node">
<title>astromatic&#45;stiff</title>
<g id="a_node24"><a xlink:href="https://github.com/conda-forge/astromatic-stiff-feedstock" xlink:title="astromatic stiff">
<ellipse fill="#35b779" stroke="black" cx="2143.79" cy="-710" rx="87.51" ry="18"/>
<text text-anchor="middle" x="2143.79" y="-705.33" font-family="Times,serif" font-size="14.00">astromatic stiff</text>
</a>
</g>
</g>
<!-- r&#45;cairo&#45;&gt;astromatic&#45;stiff -->
<!-- opencv -->
<g id="node12" class="node">
<title>opencv</title>
<g id="a_node12"><a xlink:href="https://github.com/conda-forge/opencv-feedstock" xlink:title="opencv">
<ellipse fill="#fde725" stroke="black" cx="1482.79" cy="-602" rx="46.47" ry="18"/>
<text text-anchor="middle" x="1482.79" y="-597.33" font-family="Times,serif" font-size="14.00">opencv</text>
</a>
</g>
</g>
<!-- openjpeg -->
<g id="node13" class="node">
<title>openjpeg</title>
<g id="a_node13"><a xlink:href="https://github.com/conda-forge/openjpeg-feedstock/pull/48" xlink:title="openjpeg ✓">
<ellipse fill="#31688e" stroke="black" cx="387.79" cy="-746" rx="64.89" ry="18"/>
<text text-anchor="middle" x="387.79" y="-741.33" font-family="Times,serif" font-size="14.00" fill="white">openjpeg ✓</text>
</a>
</g>
</g>
<!-- openjpeg&#45;&gt;freeimage -->
<g id="edge7" class="edge">
<title>openjpeg&#45;&gt;freeimage</title>
<path fill="none" stroke="black" d="M362.79,-728.94C347.87,-719.36 328.72,-707.06 312.48,-696.63"/>
<polygon fill="black" stroke="black" points="314.61,-693.2 304.31,-690.74 310.83,-699.09 314.61,-693.2"/>
</g>
<!-- openjpeg&#45;&gt;gdal -->
<g id="edge8" class="edge">
<title>openjpeg&#45;&gt;gdal</title>
<path fill="none" stroke="black" d="M323.12,-743.27C236.66,-739.59 89.84,-728.05 51.79,-692 35.5,-676.56 31.44,-650.83 31.05,-631"/>
<polygon fill="black" stroke="black" points="34.56,-631.17 31.19,-621.13 27.56,-631.09 34.56,-631.17"/>
</g>
<!-- openjpeg&#45;&gt;imagemagick -->
<g id="edge9" class="edge">
<title>openjpeg&#45;&gt;imagemagick</title>
<path fill="none" stroke="black" d="M452.5,-743.63C580.83,-740.15 862.85,-728.48 951.79,-692 986.32,-677.84 1018.44,-648.9 1038.74,-627.85"/>
<polygon fill="black" stroke="black" points="1040.88,-630.63 1045.18,-620.94 1035.78,-625.83 1040.88,-630.63"/>
</g>
<!-- openjpeg&#45;&gt;libvips -->
<g id="edge10" class="edge">
<title>openjpeg&#45;&gt;libvips</title>
<path fill="none" stroke="black" d="M386.27,-727.85C383,-690.99 375.27,-603.92 371.28,-558.96"/>
<polygon fill="black" stroke="black" points="374.69,-558.88 370.32,-549.23 367.72,-559.5 374.69,-558.88"/>
</g>
<!-- pillow -->
<g id="node14" class="node">
<title>pillow</title>
<g id="a_node14"><a xlink:href="https://github.com/conda-forge/pillow-feedstock" xlink:title="pillow">
<ellipse fill="#fde725" stroke="black" cx="901.79" cy="-674" rx="41.21" ry="18"/>
<text text-anchor="middle" x="901.79" y="-669.33" font-family="Times,serif" font-size="14.00">pillow</text>
</a>
</g>
</g>
<!-- openjpeg&#45;&gt;pillow -->
<g id="edge11" class="edge">
<title>openjpeg&#45;&gt;pillow</title>
<path fill="none" stroke="black" d="M451.55,-742.04C541.66,-736.88 710.97,-723.6 851.79,-692 854.81,-691.32 857.91,-690.53 861,-689.66"/>
<polygon fill="black" stroke="black" points="861.87,-692.75 870.42,-686.48 859.83,-686.05 861.87,-692.75"/>
</g>
<!-- poppler -->
<g id="node15" class="node">
<title>poppler</title>
<g id="a_node15"><a xlink:href="https://github.com/conda-forge/poppler-feedstock" xlink:title="poppler">
<ellipse fill="#fde725" stroke="black" cx="110.79" cy="-674" rx="49.63" ry="18"/>
<text text-anchor="middle" x="110.79" y="-669.33" font-family="Times,serif" font-size="14.00">poppler</text>
</a>
</g>
</g>
<!-- openjpeg&#45;&gt;poppler -->
<g id="edge12" class="edge">
<title>openjpeg&#45;&gt;poppler</title>
<path fill="none" stroke="black" d="M340.36,-733.43C297.16,-722.83 231.63,-706.62 174.79,-692 170.1,-690.79 165.21,-689.52 160.32,-688.24"/>
<polygon fill="black" stroke="black" points="161.25,-684.6 150.69,-685.44 159.47,-691.37 161.25,-684.6"/>
</g>
<!-- leptonica -->
<g id="node16" class="node">
<title>leptonica</title>
<g id="a_node16"><a xlink:href="https://github.com/conda-forge/leptonica-feedstock" xlink:title="leptonica">
<ellipse fill="#fde725" stroke="black" cx="491.79" cy="-674" rx="57" ry="18"/>
<text text-anchor="middle" x="491.79" y="-669.33" font-family="Times,serif" font-size="14.00">leptonica</text>
</a>
</g>
</g>
<!-- openjpeg&#45;&gt;leptonica -->
<g id="edge13" class="edge">
<title>openjpeg&#45;&gt;leptonica</title>
<path fill="none" stroke="black" d="M411.65,-728.94C425.89,-719.36 444.16,-707.06 459.65,-696.63"/>
<polygon fill="black" stroke="black" points="461.06,-699.23 467.4,-690.74 457.15,-693.42 461.06,-699.23"/>
</g>
<!-- tesseract -->
<g id="node17" class="node">
<title>tesseract</title>
<g id="a_node17"><a xlink:href="https://github.com/conda-forge/tesseract-feedstock" xlink:title="tesseract">
<ellipse fill="#fde725" stroke="black" cx="491.79" cy="-602" rx="57.52" ry="18"/>
<text text-anchor="middle" x="491.79" y="-597.33" font-family="Times,serif" font-size="14.00">tesseract</text>
</a>
</g>
</g>
<!-- openjpeg&#45;&gt;tesseract -->
<g id="edge14" class="edge">
<title>openjpeg&#45;&gt;tesseract</title>
<path fill="none" stroke="black" d="M392.44,-727.63C398.1,-708.68 409.04,-678.09 425.79,-656 434.78,-644.15 446.98,-633.39 458.44,-624.7"/>
<polygon fill="black" stroke="black" points="459.97,-627.19 466,-618.48 455.85,-621.53 459.97,-627.19"/>
</g>
<!-- openslide -->
<g id="node18" class="node">
<title>openslide</title>
<g id="a_node18"><a xlink:href="https://github.com/conda-forge/openslide-feedstock" xlink:title="openslide">
<ellipse fill="#fde725" stroke="black" cx="277.79" cy="-602" rx="59.1" ry="18"/>
<text text-anchor="middle" x="277.79" y="-597.33" font-family="Times,serif" font-size="14.00">openslide</text>
</a>
</g>
</g>
<!-- openjpeg&#45;&gt;openslide -->
<g id="edge15" class="edge">
<title>openjpeg&#45;&gt;openslide</title>
<path fill="none" stroke="black" d="M332.91,-736.2C285.71,-727.38 222.92,-712.22 207.79,-692 198.21,-679.19 200.67,-670.33 207.79,-656 214.39,-642.73 226.07,-631.9 238.03,-623.56"/>
<polygon fill="black" stroke="black" points="239.64,-626.04 246.14,-617.67 235.84,-620.16 239.64,-626.04"/>
</g>
<!-- imagecodecs -->
<g id="node19" class="node">
<title>imagecodecs</title>
<g id="a_node19"><a xlink:href="https://github.com/conda-forge/imagecodecs-feedstock" xlink:title="imagecodecs">
<ellipse fill="#fde725" stroke="black" cx="679.79" cy="-674" rx="75.41" ry="18"/>
<text text-anchor="middle" x="679.79" y="-669.33" font-family="Times,serif" font-size="14.00">imagecodecs</text>
</a>
</g>
</g>
<!-- openjpeg&#45;&gt;imagecodecs -->
<g id="edge16" class="edge">
<title>openjpeg&#45;&gt;imagecodecs</title>
<path fill="none" stroke="black" d="M435.69,-733.52C485.29,-721.63 563,-703 617.39,-689.96"/>
<polygon fill="black" stroke="black" points="618.03,-693.17 626.94,-687.43 616.4,-686.36 618.03,-693.17"/>
</g>
<!-- paraview -->
<g id="node20" class="node">
<title>paraview</title>
<g id="a_node20"><a xlink:href="https://github.com/conda-forge/paraview-feedstock" xlink:title="paraview">
<ellipse fill="#fde725" stroke="black" cx="831.79" cy="-602" rx="57" ry="18"/>
<text text-anchor="middle" x="831.79" y="-597.33" font-family="Times,serif" font-size="14.00">paraview</text>
</a>
</g>
</g>
<!-- pillow&#45;&gt;paraview -->
<g id="edge17" class="edge">
<title>pillow&#45;&gt;paraview</title>
<path fill="none" stroke="black" d="M885.91,-657.12C877,-648.2 865.7,-636.91 855.74,-626.94"/>
<polygon fill="black" stroke="black" points="858.65,-624.9 849.1,-620.31 853.7,-629.85 858.65,-624.9"/>
</g>
<!-- wxpython -->
<g id="node21" class="node">
<title>wxpython</title>
<g id="a_node21"><a xlink:href="https://github.com/conda-forge/wxpython-feedstock" xlink:title="wxpython">
<ellipse fill="#fde725" stroke="black" cx="916.79" cy="-530" rx="60.15" ry="18"/>
<text text-anchor="middle" x="916.79" y="-525.33" font-family="Times,serif" font-size="14.00">wxpython</text>
</a>
</g>
</g>
<!-- pillow&#45;&gt;wxpython -->
<g id="edge18" class="edge">
<title>pillow&#45;&gt;wxpython</title>
<path fill="none" stroke="black" d="M903.63,-655.59C906.18,-631.5 910.8,-587.75 913.83,-559.03"/>
<polygon fill="black" stroke="black" points="917.42,-559.42 914.99,-549.11 910.46,-558.69 917.42,-559.42"/>
</g>
<!-- puma -->
<g id="node22" class="node">
<title>puma</title>
<g id="a_node22"><a xlink:href="https://github.com/conda-forge/puma-feedstock" xlink:title="puma">
<ellipse fill="#fde725" stroke="black" cx="717.79" cy="-602" rx="39.11" ry="18"/>
<text text-anchor="middle" x="717.79" y="-597.33" font-family="Times,serif" font-size="14.00">puma</text>
</a>
</g>
</g>
<!-- pillow&#45;&gt;puma -->
<g id="edge19" class="edge">
<title>pillow&#45;&gt;puma</title>
<path fill="none" stroke="black" d="M871.41,-661.44C840.24,-649.58 791.6,-631.08 757.42,-618.07"/>
<polygon fill="black" stroke="black" points="758.9,-614.51 748.31,-614.23 756.41,-621.06 758.9,-614.51"/>
</g>
<!-- poppler&#45;&gt;gdal -->
<g id="edge20" class="edge">
<title>poppler&#45;&gt;gdal</title>
<path fill="none" stroke="black" d="M92.7,-656.76C82.2,-647.34 68.83,-635.34 57.38,-625.06"/>
<polygon fill="black" stroke="black" points="60.24,-623.03 50.46,-618.95 55.56,-628.24 60.24,-623.03"/>
</g>
<!-- poppler&#45;&gt;libvips -->
<g id="edge21" class="edge">
<title>poppler&#45;&gt;libvips</title>
<path fill="none" stroke="black" d="M125.31,-656.31C143.32,-636.52 175.84,-603.76 209.79,-584 244.03,-564.08 286.8,-550.36 319.36,-541.88"/>
<polygon fill="black" stroke="black" points="320.15,-545.04 328.99,-539.2 318.44,-538.25 320.15,-545.04"/>
</g>
<!-- sane -->
<g id="node23" class="node">
<title>sane</title>
<g id="a_node23"><a xlink:href="https://github.com/conda-forge/sane-feedstock" xlink:title="sane">
<ellipse fill="#fde725" stroke="black" cx="117.79" cy="-602" rx="34.37" ry="18"/>
<text text-anchor="middle" x="117.79" y="-597.33" font-family="Times,serif" font-size="14.00">sane</text>
</a>
</g>
</g>
<!-- poppler&#45;&gt;sane -->
<g id="edge22" class="edge">
<title>poppler&#45;&gt;sane</title>
<path fill="none" stroke="black" d="M112.52,-655.7C113.27,-648.24 114.16,-639.32 115,-630.97"/>
<polygon fill="black" stroke="black" points="118.57,-631.4 116.08,-621.1 111.61,-630.71 118.57,-631.4"/>
</g>
<!-- leptonica&#45;&gt;tesseract -->
<g id="edge23" class="edge">
<title>leptonica&#45;&gt;tesseract</title>
<path fill="none" stroke="black" d="M491.79,-655.7C491.79,-648.24 491.79,-639.32 491.79,-630.97"/>
<polygon fill="black" stroke="black" points="495.29,-631.1 491.79,-621.1 488.29,-631.1 495.29,-631.1"/>
</g>
<!-- openslide&#45;&gt;libvips -->
<g id="edge24" class="edge">
<title>openslide&#45;&gt;libvips</title>
<path fill="none" stroke="black" d="M298.9,-584.76C311.22,-575.29 326.92,-563.21 340.32,-552.9"/>
<polygon fill="black" stroke="black" points="341.95,-555.3 347.74,-546.43 337.68,-549.75 341.95,-555.3"/>
</g>
<!-- imagecodecs&#45;&gt;puma -->
<g id="edge25" class="edge">
<title>imagecodecs&#45;&gt;puma</title>
<path fill="none" stroke="black" d="M689.19,-655.7C693.53,-647.7 698.78,-638.02 703.6,-629.15"/>
<polygon fill="black" stroke="black" points="707.08,-631.08 708.77,-620.62 700.92,-627.74 707.08,-631.08"/>
</g>
<!-- r&#45;ragg -->
<g id="node34" class="node">
<title>r&#45;ragg</title>
<g id="a_node34"><a xlink:href="https://github.com/conda-forge/r-ragg-feedstock/pull/32" xlink:title="r ragg ❎">
<ellipse fill="#31688e" stroke="black" cx="2143.79" cy="-638" rx="57.52" ry="18"/>
<text text-anchor="middle" x="2143.79" y="-633.33" font-family="Times,serif" font-size="14.00" fill="white">r ragg ❎</text>
</a>
</g>
</g>
<!-- astromatic&#45;stiff&#45;&gt;r&#45;ragg -->
<!-- vigra -->
<g id="node25" class="node">
<title>vigra</title>
<g id="a_node25"><a xlink:href="https://github.com/conda-forge/vigra-feedstock" xlink:title="vigra">
<ellipse fill="#ff8c00" stroke="black" cx="830.79" cy="-162" rx="37" ry="18"/>
<text text-anchor="middle" x="830.79" y="-157.32" font-family="Times,serif" font-size="14.00">vigra</text>
</a>
</g>
</g>
<!-- enblend -->
<g id="node26" class="node">
<title>enblend</title>
<g id="a_node26"><a xlink:href="https://github.com/conda-forge/enblend-feedstock" xlink:title="enblend">
<ellipse fill="#fde725" stroke="black" cx="791.79" cy="-90" rx="51.21" ry="18"/>
<text text-anchor="middle" x="791.79" y="-85.33" font-family="Times,serif" font-size="14.00">enblend</text>
</a>
</g>
</g>
<!-- vigra&#45;&gt;enblend -->
<g id="edge27" class="edge">
<title>vigra&#45;&gt;enblend</title>
<path fill="none" stroke="black" d="M821.55,-144.41C817.05,-136.34 811.53,-126.43 806.48,-117.35"/>
<polygon fill="black" stroke="black" points="809.17,-115.99 801.24,-108.96 803.05,-119.4 809.17,-115.99"/>
</g>
<!-- hugin -->
<g id="node27" class="node">
<title>hugin</title>
<g id="a_node27"><a xlink:href="https://github.com/conda-forge/hugin-feedstock" xlink:title="hugin">
<ellipse fill="#fde725" stroke="black" cx="870.79" cy="-18" rx="39.63" ry="18"/>
<text text-anchor="middle" x="870.79" y="-13.32" font-family="Times,serif" font-size="14.00">hugin</text>
</a>
</g>
</g>
<!-- vigra&#45;&gt;hugin -->
<g id="edge28" class="edge">
<title>vigra&#45;&gt;hugin</title>
<path fill="none" stroke="black" d="M838.34,-144.07C842.71,-133.79 848.07,-120.32 851.79,-108 857.87,-87.9 862.76,-64.69 866.06,-47.01"/>
<polygon fill="black" stroke="black" points="869.66,-47.74 867.99,-37.28 862.77,-46.5 869.66,-47.74"/>
</g>
<!-- enblend&#45;&gt;hugin -->
<g id="edge29" class="edge">
<title>enblend&#45;&gt;hugin</title>
<path fill="none" stroke="black" d="M810.12,-72.76C820.61,-63.47 833.93,-51.67 845.41,-41.49"/>
<polygon fill="black" stroke="black" points="847.22,-44.68 852.38,-35.43 842.58,-39.44 847.22,-44.68"/>
</g>
<!-- vtk -->
<g id="node28" class="node">
<title>vtk</title>
<g id="a_node28"><a xlink:href="https://github.com/conda-forge/vtk-feedstock/pull/309" xlink:title="vtk ✓">
<ellipse fill="#31688e" stroke="black" cx="807.79" cy="-674" rx="34.9" ry="18"/>
<text text-anchor="middle" x="807.79" y="-669.33" font-family="Times,serif" font-size="14.00" fill="white">vtk ✓</text>
</a>
</g>
</g>
<!-- vtk&#45;&gt;puma -->
<g id="edge30" class="edge">
<title>vtk&#45;&gt;puma</title>
<path fill="none" stroke="black" d="M789.15,-658.5C776.53,-648.68 759.63,-635.54 745.46,-624.51"/>
<polygon fill="black" stroke="black" points="748.08,-621.35 738.04,-617.97 743.78,-626.87 748.08,-621.35"/>
</g>
<!-- libwebp -->
<g id="node29" class="node">
<title>libwebp</title>
<g id="a_node29"><a xlink:href="https://github.com/conda-forge/libwebp-feedstock/pull/53" xlink:title="libwebp ✓">
<ellipse fill="#31688e" stroke="black" cx="1120.79" cy="-746" rx="58.57" ry="18"/>
<text text-anchor="middle" x="1120.79" y="-741.33" font-family="Times,serif" font-size="14.00" fill="white">libwebp ✓</text>
</a>
</g>
</g>
<!-- libwebp&#45;&gt;imagemagick -->
<g id="edge31" class="edge">
<title>libwebp&#45;&gt;imagemagick</title>
<path fill="none" stroke="black" d="M1097.47,-729.18C1085.77,-719.85 1072.65,-706.95 1065.79,-692 1057.07,-672.99 1056.17,-649.24 1057.26,-631.06"/>
<polygon fill="black" stroke="black" points="1060.81,-631.54 1058.17,-621.28 1053.84,-630.95 1060.81,-631.54"/>
</g>
<!-- libwebp&#45;&gt;libvips -->
<g id="edge32" class="edge">
<title>libwebp&#45;&gt;libvips</title>
<path fill="none" stroke="black" d="M1099.75,-728.84C1048.65,-689.75 920.56,-592.64 897.79,-584 812.1,-551.49 541.01,-537.53 423.74,-532.9"/>
<polygon fill="black" stroke="black" points="424.01,-529.37 413.88,-532.48 423.74,-536.36 424.01,-529.37"/>
</g>
<!-- libwebp&#45;&gt;imread -->
<g id="edge33" class="edge">
<title>libwebp&#45;&gt;imread</title>
<path fill="none" stroke="black" d="M1120.79,-727.7C1120.79,-720.24 1120.79,-711.32 1120.79,-702.97"/>
<polygon fill="black" stroke="black" points="1124.29,-703.1 1120.79,-693.1 1117.29,-703.1 1124.29,-703.1"/>
</g>
<!-- libwebp&#45;&gt;libgd -->
<g id="edge34" class="edge">
<title>libwebp&#45;&gt;libgd</title>
<path fill="none" stroke="black" d="M1150.06,-730.15C1171.84,-719.11 1201.63,-704 1224.52,-692.39"/>
<polygon fill="black" stroke="black" points="1225.85,-695.13 1233.18,-687.48 1222.68,-688.89 1225.85,-695.13"/>
</g>
<!-- libwebp&#45;&gt;graphicsmagick -->
<g id="edge35" class="edge">
<title>libwebp&#45;&gt;graphicsmagick</title>
<path fill="none" stroke="black" d="M1138.96,-728.62C1149.97,-718.42 1164.1,-704.84 1175.79,-692 1194.44,-671.53 1213.93,-646.81 1227.77,-628.63"/>
<polygon fill="black" stroke="black" points="1230.85,-631.36 1234.08,-621.27 1225.26,-627.14 1230.85,-631.36"/>
</g>
<!-- libwebp&#45;&gt;opencv -->
<g id="edge36" class="edge">
<title>libwebp&#45;&gt;opencv</title>
<path fill="none" stroke="black" d="M1179.37,-744.25C1268.02,-741.82 1430.15,-731.87 1469.79,-692 1485.35,-676.36 1487.69,-650.88 1486.67,-631.18"/>
<polygon fill="black" stroke="black" points="1490.09,-631.04 1485.76,-621.37 1483.11,-631.63 1490.09,-631.04"/>
</g>
<!-- libwebp&#45;&gt;pillow -->
<g id="edge37" class="edge">
<title>libwebp&#45;&gt;pillow</title>
<path fill="none" stroke="black" d="M1081.13,-732.32C1042.63,-720.02 984.36,-701.39 944.77,-688.74"/>
<polygon fill="black" stroke="black" points="945.97,-685.13 935.38,-685.42 943.84,-691.79 945.97,-685.13"/>
</g>
<!-- libwebp&#45;&gt;leptonica -->
<g id="edge38" class="edge">
<title>libwebp&#45;&gt;leptonica</title>
<path fill="none" stroke="black" d="M1063.01,-742.19C961.33,-736.65 743.98,-722.14 562.79,-692 557.01,-691.04 551,-689.87 545.03,-688.6"/>
<polygon fill="black" stroke="black" points="545.92,-684.99 535.4,-686.23 544.4,-691.82 545.92,-684.99"/>
</g>
<!-- libwebp&#45;&gt;tesseract -->
<g id="edge39" class="edge">
<title>libwebp&#45;&gt;tesseract</title>
<path fill="none" stroke="black" d="M1062.16,-743.82C943.15,-740.65 677.63,-729.48 595.79,-692 574.64,-682.31 575.32,-671.3 557.79,-656 546.06,-645.76 532.73,-634.91 521.13,-625.72"/>
<polygon fill="black" stroke="black" points="523.68,-622.49 513.66,-619.05 519.35,-627.98 523.68,-622.49"/>
</g>
<!-- libwebp&#45;&gt;imagecodecs -->
<g id="edge40" class="edge">
<title>libwebp&#45;&gt;imagecodecs</title>
<path fill="none" stroke="black" d="M1067.73,-738.01C997.88,-728.6 871.34,-710.85 763.79,-692 757.79,-690.95 751.55,-689.79 745.31,-688.6"/>
<polygon fill="black" stroke="black" points="746.33,-685.04 735.84,-686.57 744.99,-691.91 746.33,-685.04"/>
</g>
<!-- openimageio -->
<g id="node30" class="node">
<title>openimageio</title>
<g id="a_node30"><a xlink:href="https://github.com/conda-forge/openimageio-feedstock" xlink:title="openimageio">
<ellipse fill="#fde725" stroke="black" cx="1523.79" cy="-530" rx="74.88" ry="18"/>
<text text-anchor="middle" x="1523.79" y="-525.33" font-family="Times,serif" font-size="14.00">openimageio</text>
</a>
</g>
</g>
<!-- libwebp&#45;&gt;openimageio -->
<g id="edge41" class="edge">
<title>libwebp&#45;&gt;openimageio</title>
<path fill="none" stroke="black" d="M1178.71,-742.48C1269.49,-737.57 1440.17,-724.26 1490.79,-692 1523.02,-671.46 1526.9,-656.63 1537.79,-620 1543.78,-599.89 1539.65,-576.41 1534.36,-558.62"/>
<polygon fill="black" stroke="black" points="1537.43,-557.78 1530.99,-549.36 1530.78,-559.96 1537.43,-557.78"/>
</g>
<!-- sdl_image -->
<g id="node31" class="node">
<title>sdl_image</title>
<g id="a_node31"><a xlink:href="https://github.com/conda-forge/sdl_image-feedstock" xlink:title="sdl_image">
<ellipse fill="#fde725" stroke="black" cx="1626.79" cy="-458" rx="61.2" ry="18"/>
<text text-anchor="middle" x="1626.79" y="-453.32" font-family="Times,serif" font-size="14.00">sdl_image</text>
</a>
</g>
</g>
<!-- libwebp&#45;&gt;sdl_image -->
<g id="edge42" class="edge">
<title>libwebp&#45;&gt;sdl_image</title>
<path fill="none" stroke="black" d="M1178.97,-743.45C1276.24,-739.86 1466.65,-728.28 1521.79,-692 1592.63,-645.39 1616.22,-538.52 1623.63,-487.34"/>
<polygon fill="black" stroke="black" points="1627.23,-487.82 1625.08,-477.44 1620.29,-486.89 1627.23,-487.82"/>
</g>
<!-- tomviz -->
<g id="node32" class="node">
<title>tomviz</title>
<g id="a_node32"><a xlink:href="https://github.com/conda-forge/tomviz-feedstock" xlink:title="tomviz">
<ellipse fill="#fde725" stroke="black" cx="1715.79" cy="-386" rx="44.9" ry="18"/>
<text text-anchor="middle" x="1715.79" y="-381.32" font-family="Times,serif" font-size="14.00">tomviz</text>
</a>
</g>
</g>
<!-- libwebp&#45;&gt;tomviz -->
<g id="edge43" class="edge">
<title>libwebp&#45;&gt;tomviz</title>
<path fill="none" stroke="black" d="M1179.2,-743.41C1329.11,-737.77 1715.79,-712.58 1715.79,-603 1715.79,-603 1715.79,-603 1715.79,-529 1715.79,-489.57 1715.79,-443.97 1715.79,-415.31"/>
<polygon fill="black" stroke="black" points="1719.29,-415.49 1715.79,-405.49 1712.29,-415.49 1719.29,-415.49"/>
</g>
<!-- afterimage -->
<g id="node33" class="node">
<title>afterimage</title>
<g id="a_node33"><a xlink:href="https://github.com/conda-forge/afterimage-feedstock/pull/15" xlink:title="afterimage ✓">
<ellipse fill="#31688e" stroke="black" cx="1386.79" cy="-674" rx="73.83" ry="18"/>
<text text-anchor="middle" x="1386.79" y="-669.33" font-family="Times,serif" font-size="14.00" fill="white">afterimage ✓</text>
</a>
</g>
</g>
<!-- afterimage&#45;&gt;root -->
<g id="edge44" class="edge">
<title>afterimage&#45;&gt;root</title>
<path fill="none" stroke="black" d="M1386.79,-655.7C1386.79,-648.24 1386.79,-639.32 1386.79,-630.97"/>
<polygon fill="black" stroke="black" points="1390.29,-631.1 1386.79,-621.1 1383.29,-631.1 1390.29,-631.1"/>
</g>
<!-- netpbm -->
<g id="node35" class="node">
<title>netpbm</title>
<g id="a_node35"><a xlink:href="https://github.com/conda-forge/netpbm-feedstock" xlink:title="netpbm">
<ellipse fill="#35b779" stroke="black" cx="2143.79" cy="-566" rx="49.63" ry="18"/>
<text text-anchor="middle" x="2143.79" y="-561.33" font-family="Times,serif" font-size="14.00">netpbm</text>
</a>
</g>
</g>
<!-- r&#45;ragg&#45;&gt;netpbm -->
<!-- gnuastro -->
<g id="node36" class="node">
<title>gnuastro</title>
<g id="a_node36"><a xlink:href="https://github.com/conda-forge/gnuastro-feedstock" xlink:title="gnuastro">
<ellipse fill="#35b779" stroke="black" cx="2143.79" cy="-494" rx="55.94" ry="18"/>
<text text-anchor="middle" x="2143.79" y="-489.32" font-family="Times,serif" font-size="14.00">gnuastro</text>
</a>
</g>
</g>
<!-- netpbm&#45;&gt;gnuastro -->
<!-- r&#45;rtiff -->
<g id="node37" class="node">
<title>r&#45;rtiff</title>
<g id="a_node37"><a xlink:href="https://github.com/conda-forge/r-rtiff-feedstock" xlink:title="r rtiff">
<ellipse fill="#35b779" stroke="black" cx="2143.79" cy="-422" rx="38.06" ry="18"/>
<text text-anchor="middle" x="2143.79" y="-417.32" font-family="Times,serif" font-size="14.00">r rtiff</text>
</a>
</g>
</g>
<!-- gnuastro&#45;&gt;r&#45;rtiff -->
<!-- pylibtiff -->
<g id="node38" class="node">
<title>pylibtiff</title>
<g id="a_node38"><a xlink:href="https://github.com/conda-forge/pylibtiff-feedstock/pull/26" xlink:title="pylibtiff ✓">
<ellipse fill="#31688e" stroke="black" cx="2143.79" cy="-350" rx="58.05" ry="18"/>
<text text-anchor="middle" x="2143.79" y="-345.32" font-family="Times,serif" font-size="14.00" fill="white">pylibtiff ✓</text>
</a>
</g>
</g>
<!-- r&#45;rtiff&#45;&gt;pylibtiff -->
<!-- openscenegraph -->
<g id="node39" class="node">
<title>openscenegraph</title>
<g id="a_node39"><a xlink:href="https://github.com/conda-forge/openscenegraph-feedstock/pull/31" xlink:title="openscenegraph ❎">
<ellipse fill="#31688e" stroke="black" cx="2143.79" cy="-278" rx="108.55" ry="18"/>
<text text-anchor="middle" x="2143.79" y="-273.32" font-family="Times,serif" font-size="14.00" fill="white">openscenegraph ❎</text>
</a>
</g>
</g>
<!-- pylibtiff&#45;&gt;openscenegraph -->
<!-- match&#45;series -->
<g id="node40" class="node">
<title>match&#45;series</title>
<g id="a_node40"><a xlink:href="https://github.com/conda-forge/match-series-feedstock" xlink:title="match series">
<ellipse fill="#35b779" stroke="black" cx="2143.79" cy="-206" rx="75.41" ry="18"/>
<text text-anchor="middle" x="2143.79" y="-201.32" font-family="Times,serif" font-size="14.00">match series</text>
</a>
</g>
</g>
<!-- openscenegraph&#45;&gt;match&#45;series -->
<!-- libpano13 -->
<g id="node41" class="node">
<title>libpano13</title>
<g id="a_node41"><a xlink:href="https://github.com/conda-forge/libpano13-feedstock" xlink:title="libpano13">
<ellipse fill="#35b779" stroke="black" cx="959.79" cy="-90" rx="60.68" ry="18"/>
<text text-anchor="middle" x="959.79" y="-85.33" font-family="Times,serif" font-size="14.00">libpano13</text>
</a>
</g>
</g>
<!-- libpano13&#45;&gt;hugin -->
<g id="edge52" class="edge">
<title>libpano13&#45;&gt;hugin</title>
<path fill="none" stroke="black" d="M939.15,-72.76C927.14,-63.31 911.83,-51.27 898.74,-40.98"/>
<polygon fill="black" stroke="black" points="901.13,-37.62 891.11,-34.19 896.8,-43.12 901.13,-37.62"/>
</g>
<!-- povray -->
<g id="node42" class="node">
<title>povray</title>
<g id="a_node42"><a xlink:href="https://github.com/conda-forge/povray-feedstock" xlink:title="povray">
<ellipse fill="#35b779" stroke="black" cx="1897.79" cy="-926" rx="45.42" ry="18"/>
<text text-anchor="middle" x="1897.79" y="-921.33" font-family="Times,serif" font-size="14.00">povray</text>
</a>
</g>
</g>
<!-- exitwavereconstruction -->
<g id="node43" class="node">
<title>exitwavereconstruction</title>
<g id="a_node43"><a xlink:href="https://github.com/conda-forge/exitwavereconstruction-feedstock" xlink:title="exitwavereconstruction">
<ellipse fill="#35b779" stroke="black" cx="1897.79" cy="-854" rx="129.07" ry="18"/>
<text text-anchor="middle" x="1897.79" y="-849.33" font-family="Times,serif" font-size="14.00">exitwavereconstruction</text>
</a>
</g>
</g>
<!-- povray&#45;&gt;exitwavereconstruction -->
<!-- pytiff -->
<g id="node44" class="node">
<title>pytiff</title>
<g id="a_node44"><a xlink:href="https://github.com/conda-forge/pytiff-feedstock" xlink:title="pytiff">
<ellipse fill="#35b779" stroke="black" cx="1897.79" cy="-782" rx="37.53" ry="18"/>
<text text-anchor="middle" x="1897.79" y="-777.33" font-family="Times,serif" font-size="14.00">pytiff</text>
</a>
</g>
</g>
<!-- exitwavereconstruction&#45;&gt;pytiff -->
<!-- r&#45;imager -->
<g id="node45" class="node">
<title>r&#45;imager</title>
<g id="a_node45"><a xlink:href="https://github.com/conda-forge/r-imager-feedstock" xlink:title="r imager">
<ellipse fill="#35b779" stroke="black" cx="1897.79" cy="-710" rx="54.36" ry="18"/>
<text text-anchor="middle" x="1897.79" y="-705.33" font-family="Times,serif" font-size="14.00">r imager</text>
</a>
</g>
</g>
<!-- pytiff&#45;&gt;r&#45;imager -->
<!-- gtk4 -->
<g id="node46" class="node">
<title>gtk4</title>
<g id="a_node46"><a xlink:href="https://github.com/conda-forge/gtk4-feedstock" xlink:title="gtk4">
<ellipse fill="#35b779" stroke="black" cx="1897.79" cy="-638" rx="33.85" ry="18"/>
<text text-anchor="middle" x="1897.79" y="-633.33" font-family="Times,serif" font-size="14.00">gtk4</text>
</a>
</g>
</g>
<!-- r&#45;imager&#45;&gt;gtk4 -->
<!-- cudadecon -->
<g id="node47" class="node">
<title>cudadecon</title>
<g id="a_node47"><a xlink:href="https://github.com/conda-forge/cudadecon-feedstock" xlink:title="cudadecon">
<ellipse fill="#35b779" stroke="black" cx="1897.79" cy="-566" rx="64.36" ry="18"/>
<text text-anchor="middle" x="1897.79" y="-561.33" font-family="Times,serif" font-size="14.00">cudadecon</text>
</a>
</g>
</g>
<!-- gtk4&#45;&gt;cudadecon -->
<!-- cudasirecon -->
<g id="node48" class="node">
<title>cudasirecon</title>
<g id="a_node48"><a xlink:href="https://github.com/conda-forge/cudasirecon-feedstock" xlink:title="cudasirecon">
<ellipse fill="#35b779" stroke="black" cx="1897.79" cy="-494" rx="71.2" ry="18"/>
<text text-anchor="middle" x="1897.79" y="-489.32" font-family="Times,serif" font-size="14.00">cudasirecon</text>
</a>
</g>
</g>
<!-- cudadecon&#45;&gt;cudasirecon -->
<!-- podofo -->
<g id="node49" class="node">
<title>podofo</title>
<g id="a_node49"><a xlink:href="https://github.com/conda-forge/podofo-feedstock" xlink:title="podofo">
<ellipse fill="#35b779" stroke="black" cx="1897.79" cy="-422" rx="44.9" ry="18"/>
<text text-anchor="middle" x="1897.79" y="-417.32" font-family="Times,serif" font-size="14.00">podofo</text>
</a>
</g>
</g>
<!-- cudasirecon&#45;&gt;podofo -->
<!-- djvulibre -->
<g id="node50" class="node">
<title>djvulibre</title>
<g id="a_node50"><a xlink:href="https://github.com/conda-forge/djvulibre-feedstock" xlink:title="djvulibre">
<ellipse fill="#35b779" stroke="black" cx="1897.79" cy="-350" rx="55.94" ry="18"/>
<text text-anchor="middle" x="1897.79" y="-345.32" font-family="Times,serif" font-size="14.00">djvulibre</text>
</a>
</g>
</g>
<!-- podofo&#45;&gt;djvulibre -->
<!-- tvips&#45;tools -->
<g id="node51" class="node">
<title>tvips&#45;tools</title>
<g id="a_node51"><a xlink:href="https://github.com/conda-forge/tvips-tools-feedstock" xlink:title="tvips tools">
<ellipse fill="#35b779" stroke="black" cx="1897.79" cy="-278" rx="63.31" ry="18"/>
<text text-anchor="middle" x="1897.79" y="-273.32" font-family="Times,serif" font-size="14.00">tvips tools</text>
</a>
</g>
</g>
<!-- djvulibre&#45;&gt;tvips&#45;tools -->
<!-- microed&#45;tools -->
<g id="node52" class="node">
<title>microed&#45;tools</title>
<g id="a_node52"><a xlink:href="https://github.com/conda-forge/microed-tools-feedstock" xlink:title="microed tools">
<ellipse fill="#35b779" stroke="black" cx="1897.79" cy="-206" rx="79.09" ry="18"/>
<text text-anchor="middle" x="1897.79" y="-201.32" font-family="Times,serif" font-size="14.00">microed tools</text>
</a>
</g>
</g>
<!-- tvips&#45;tools&#45;&gt;microed&#45;tools -->
<!-- diplib -->
<g id="node53" class="node">
<title>diplib</title>
<g id="a_node53"><a xlink:href="https://github.com/conda-forge/diplib-feedstock" xlink:title="diplib">
<ellipse fill="#ff8c00" stroke="black" cx="1897.79" cy="-126" rx="39.63" ry="18"/>
<text text-anchor="middle" x="1897.79" y="-121.33" font-family="Times,serif" font-size="14.00">diplib</text>
</a>
</g>
</g>
<!-- pdfmm -->
<g id="node54" class="node">
<title>pdfmm</title>
<g id="a_node54"><a xlink:href="https://github.com/conda-forge/pdfmm-feedstock" xlink:title="pdfmm">
<ellipse fill="#35b779" stroke="black" cx="1897.79" cy="-54" rx="46.47" ry="18"/>
<text text-anchor="middle" x="1897.79" y="-49.33" font-family="Times,serif" font-size="14.00">pdfmm</text>
</a>
</g>
</g>
<!-- diplib&#45;&gt;pdfmm -->
<!-- nyxus -->
<g id="node55" class="node">
<title>nyxus</title>
<g id="a_node55"><a xlink:href="https://github.com/conda-forge/nyxus-feedstock" xlink:title="nyxus">
<ellipse fill="#fde725" stroke="black" cx="2143.79" cy="-54" rx="40.69" ry="18"/>
<text text-anchor="middle" x="2143.79" y="-49.33" font-family="Times,serif" font-size="14.00">nyxus</text>
</a>
</g>
</g>
<!-- dcmtk -->
<g id="node56" class="node">
<title>dcmtk</title>
<g id="a_node56"><a xlink:href="https://github.com/conda-forge/dcmtk-feedstock" xlink:title="dcmtk">
<ellipse fill="#35b779" stroke="black" cx="2143.79" cy="-126" rx="42.26" ry="18"/>
<text text-anchor="middle" x="2143.79" y="-121.33" font-family="Times,serif" font-size="14.00">dcmtk</text>
</a>
</g>
</g>
<!-- dcmtk&#45;&gt;nyxus -->
<g id="edge64" class="edge">
<title>dcmtk&#45;&gt;nyxus</title>
<path fill="none" stroke="black" d="M2143.79,-107.7C2143.79,-100.24 2143.79,-91.32 2143.79,-82.97"/>
<polygon fill="black" stroke="black" points="2147.29,-83.1 2143.79,-73.1 2140.29,-83.1 2147.29,-83.1"/>
</g>
</g>
</svg>
