<?xml version="1.0" encoding="UTF-8" standalone="no"?>
<!DOCTYPE svg PUBLIC "-//W3C//DTD SVG 1.1//EN"
 "http://www.w3.org/Graphics/SVG/1.1/DTD/svg11.dtd">
<!-- Generated by graphviz version 8.1.0 (20230707.2238)
 -->
<!-- Pages: 1 -->
<svg width="2990pt" height="880pt"
 viewBox="0.00 0.00 2990.08 880.00" xmlns="http://www.w3.org/2000/svg" xmlns:xlink="http://www.w3.org/1999/xlink">
<g id="graph0" class="graph" transform="scale(1 1) rotate(0) translate(4 876)">
<polygon fill="white" stroke="none" points="-4,4 -4,-876 2986.08,-876 2986.08,4 -4,4"/>
<!-- emacs -->
<g id="node1" class="node">
<title>emacs</title>
<g id="a_node1"><a xlink:href="https://github.com/conda-forge/emacs-feedstock" xlink:title="emacs">
<ellipse fill="#35b779" stroke="black" cx="2623.01" cy="-854" rx="42.79" ry="18"/>
<text text-anchor="middle" x="2623.01" y="-849.33" font-family="Times,serif" font-size="14.00">emacs</text>
</a>
</g>
</g>
<!-- libcdms -->
<g id="node2" class="node">
<title>libcdms</title>
<g id="a_node2"><a xlink:href="https://github.com/conda-forge/libcdms-feedstock" xlink:title="libcdms">
<ellipse fill="#35b779" stroke="black" cx="2623.01" cy="-782" rx="50.16" ry="18"/>
<text text-anchor="middle" x="2623.01" y="-777.33" font-family="Times,serif" font-size="14.00">libcdms</text>
</a>
</g>
</g>
<!-- emacs&#45;&gt;libcdms -->
<!-- libitk -->
<g id="node15" class="node">
<title>libitk</title>
<g id="a_node15"><a xlink:href="https://github.com/conda-forge/libitk-feedstock" xlink:title="libitk">
<ellipse fill="#35b779" stroke="black" cx="2623.01" cy="-710" rx="37" ry="18"/>
<text text-anchor="middle" x="2623.01" y="-705.33" font-family="Times,serif" font-size="14.00">libitk</text>
</a>
</g>
</g>
<!-- libcdms&#45;&gt;libitk -->
<!-- freeimage -->
<g id="node3" class="node">
<title>freeimage</title>
<g id="a_node3"><a xlink:href="https://github.com/conda-forge/freeimage-feedstock" xlink:title="freeimage">
<ellipse fill="#fde725" stroke="black" cx="306.01" cy="-602" rx="61.73" ry="18"/>
<text text-anchor="middle" x="306.01" y="-597.33" font-family="Times,serif" font-size="14.00">freeimage</text>
</a>
</g>
</g>
<!-- gdal -->
<g id="node4" class="node">
<title>gdal</title>
<g id="a_node4"><a xlink:href="https://github.com/conda-forge/gdal-feedstock" xlink:title="gdal">
<ellipse fill="#fde725" stroke="black" cx="120.01" cy="-530" rx="32.79" ry="18"/>
<text text-anchor="middle" x="120.01" y="-525.33" font-family="Times,serif" font-size="14.00">gdal</text>
</a>
</g>
</g>
<!-- gdk&#45;pixbuf -->
<g id="node5" class="node">
<title>gdk&#45;pixbuf</title>
<g id="a_node5"><a xlink:href="https://github.com/conda-forge/gdk-pixbuf-feedstock/pull/41" xlink:title="gdk pixbuf ❎">
<ellipse fill="#31688e" stroke="black" cx="1435.01" cy="-602" rx="79.62" ry="18"/>
<text text-anchor="middle" x="1435.01" y="-597.33" font-family="Times,serif" font-size="14.00" fill="white">gdk pixbuf ❎</text>
</a>
</g>
</g>
<!-- imagemagick -->
<g id="node6" class="node">
<title>imagemagick</title>
<g id="a_node6"><a xlink:href="https://github.com/conda-forge/imagemagick-feedstock" xlink:title="imagemagick">
<ellipse fill="#fde725" stroke="black" cx="1221.01" cy="-530" rx="77.52" ry="18"/>
<text text-anchor="middle" x="1221.01" y="-525.33" font-family="Times,serif" font-size="14.00">imagemagick</text>
</a>
</g>
</g>
<!-- gdk&#45;pixbuf&#45;&gt;imagemagick -->
<g id="edge2" class="edge">
<title>gdk&#45;pixbuf&#45;&gt;imagemagick</title>
<path fill="none" stroke="black" d="M1390.93,-586.58C1357.29,-575.58 1310.8,-560.37 1274.95,-548.64"/>
<polygon fill="black" stroke="black" points="1276.26,-545.06 1265.66,-545.28 1274.08,-551.72 1276.26,-545.06"/>
</g>
<!-- root -->
<g id="node7" class="node">
<title>root</title>
<g id="a_node7"><a xlink:href="https://github.com/conda-forge/root-feedstock" xlink:title="root">
<ellipse fill="#fde725" stroke="black" cx="1809.01" cy="-530" rx="31.74" ry="18"/>
<text text-anchor="middle" x="1809.01" y="-525.33" font-family="Times,serif" font-size="14.00">root</text>
</a>
</g>
</g>
<!-- gdk&#45;pixbuf&#45;&gt;root -->
<g id="edge3" class="edge">
<title>gdk&#45;pixbuf&#45;&gt;root</title>
<path fill="none" stroke="black" d="M1507.85,-594.39C1576.03,-587.04 1680.27,-572.8 1768.01,-548 1770.3,-547.35 1772.63,-546.61 1774.96,-545.82"/>
<polygon fill="black" stroke="black" points="1775.92,-548.82 1784.06,-542.03 1773.47,-542.26 1775.92,-548.82"/>
</g>
<!-- openslide -->
<g id="node8" class="node">
<title>openslide</title>
<g id="a_node8"><a xlink:href="https://github.com/conda-forge/openslide-feedstock" xlink:title="openslide">
<ellipse fill="#fde725" stroke="black" cx="1066.01" cy="-530" rx="59.1" ry="18"/>
<text text-anchor="middle" x="1066.01" y="-525.33" font-family="Times,serif" font-size="14.00">openslide</text>
</a>
</g>
</g>
<!-- gdk&#45;pixbuf&#45;&gt;openslide -->
<g id="edge4" class="edge">
<title>gdk&#45;pixbuf&#45;&gt;openslide</title>
<path fill="none" stroke="black" d="M1370.75,-591.04C1309.63,-581.24 1215.23,-565.28 1134.01,-548 1129.59,-547.06 1125.02,-546.03 1120.44,-544.97"/>
<polygon fill="black" stroke="black" points="1121.34,-541.35 1110.8,-542.43 1119.71,-548.16 1121.34,-541.35"/>
</g>
<!-- wxwidgets -->
<g id="node9" class="node">
<title>wxwidgets</title>
<g id="a_node9"><a xlink:href="https://github.com/conda-forge/wxwidgets-feedstock" xlink:title="wxwidgets">
<ellipse fill="#fde725" stroke="black" cx="1458.01" cy="-530" rx="64.89" ry="18"/>
<text text-anchor="middle" x="1458.01" y="-525.33" font-family="Times,serif" font-size="14.00">wxwidgets</text>
</a>
</g>
</g>
<!-- gdk&#45;pixbuf&#45;&gt;wxwidgets -->
<g id="edge5" class="edge">
<title>gdk&#45;pixbuf&#45;&gt;wxwidgets</title>
<path fill="none" stroke="black" d="M1440.69,-583.7C1443.2,-576.07 1446.21,-566.92 1449.01,-558.4"/>
<polygon fill="black" stroke="black" points="1452.59,-559.7 1452.39,-549.1 1445.94,-557.51 1452.59,-559.7"/>
</g>
<!-- gtk4 -->
<g id="node10" class="node">
<title>gtk4</title>
<g id="a_node10"><a xlink:href="https://github.com/conda-forge/gtk4-feedstock" xlink:title="gtk4">
<ellipse fill="#fde725" stroke="black" cx="1389.01" cy="-458" rx="33.85" ry="18"/>
<text text-anchor="middle" x="1389.01" y="-453.32" font-family="Times,serif" font-size="14.00">gtk4</text>
</a>
</g>
</g>
<!-- gdk&#45;pixbuf&#45;&gt;gtk4 -->
<g id="edge6" class="edge">
<title>gdk&#45;pixbuf&#45;&gt;gtk4</title>
<path fill="none" stroke="black" d="M1412.24,-584.28C1401.49,-574.96 1389.78,-562.33 1384.01,-548 1376.19,-528.6 1378.02,-504.87 1381.49,-486.8"/>
<polygon fill="black" stroke="black" points="1385.11,-487.62 1383.86,-477.1 1378.28,-486.11 1385.11,-487.62"/>
</g>
<!-- libvips -->
<g id="node11" class="node">
<title>libvips</title>
<g id="a_node11"><a xlink:href="https://github.com/conda-forge/libvips-feedstock" xlink:title="libvips">
<ellipse fill="#fde725" stroke="black" cx="868.01" cy="-458" rx="44.37" ry="18"/>
<text text-anchor="middle" x="868.01" y="-453.32" font-family="Times,serif" font-size="14.00">libvips</text>
</a>
</g>
</g>
<!-- imagemagick&#45;&gt;libvips -->
<g id="edge7" class="edge">
<title>imagemagick&#45;&gt;libvips</title>
<path fill="none" stroke="black" d="M1163.51,-517.6C1095.36,-504.08 982.91,-481.79 918.15,-468.94"/>
<polygon fill="black" stroke="black" points="918.9,-465.33 908.41,-466.81 917.54,-472.19 918.9,-465.33"/>
</g>
<!-- openslide&#45;&gt;libvips -->
<g id="edge8" class="edge">
<title>openslide&#45;&gt;libvips</title>
<path fill="none" stroke="black" d="M1028.76,-515.83C995.22,-503.97 945.93,-486.55 910.78,-474.12"/>
<polygon fill="black" stroke="black" points="912.41,-470.63 901.81,-470.6 910.07,-477.23 912.41,-470.63"/>
</g>
<!-- hugin -->
<g id="node12" class="node">
<title>hugin</title>
<g id="a_node12"><a xlink:href="https://github.com/conda-forge/hugin-feedstock" xlink:title="hugin">
<ellipse fill="#fde725" stroke="black" cx="2347.01" cy="-458" rx="39.63" ry="18"/>
<text text-anchor="middle" x="2347.01" y="-453.32" font-family="Times,serif" font-size="14.00">hugin</text>
</a>
</g>
</g>
<!-- wxwidgets&#45;&gt;hugin -->
<g id="edge9" class="edge">
<title>wxwidgets&#45;&gt;hugin</title>
<path fill="none" stroke="black" d="M1512.28,-519.72C1530.57,-516.87 1551.13,-513.97 1570.01,-512 1846.74,-483.09 1917.76,-499.47 2195.01,-476 2229.65,-473.07 2268.61,-468.69 2298.42,-465.11"/>
<polygon fill="black" stroke="black" points="2298.45,-468.51 2307.96,-463.83 2297.61,-461.56 2298.45,-468.51"/>
</g>
<!-- geotiff -->
<g id="node13" class="node">
<title>geotiff</title>
<g id="a_node13"><a xlink:href="https://github.com/conda-forge/geotiff-feedstock" xlink:title="geotiff">
<ellipse fill="#fde725" stroke="black" cx="107.01" cy="-602" rx="43.32" ry="18"/>
<text text-anchor="middle" x="107.01" y="-597.33" font-family="Times,serif" font-size="14.00">geotiff</text>
</a>
</g>
</g>
<!-- geotiff&#45;&gt;gdal -->
<g id="edge10" class="edge">
<title>geotiff&#45;&gt;gdal</title>
<path fill="none" stroke="black" d="M110.22,-583.7C111.62,-576.15 113.3,-567.12 114.87,-558.68"/>
<polygon fill="black" stroke="black" points="118.45,-559.58 116.83,-549.1 111.56,-558.3 118.45,-559.58"/>
</g>
<!-- imread -->
<g id="node14" class="node">
<title>imread</title>
<g id="a_node14"><a xlink:href="https://github.com/conda-forge/imread-feedstock" xlink:title="imread">
<ellipse fill="#fde725" stroke="black" cx="1253.01" cy="-602" rx="46.47" ry="18"/>
<text text-anchor="middle" x="1253.01" y="-597.33" font-family="Times,serif" font-size="14.00">imread</text>
</a>
</g>
</g>
<!-- sdl2_image -->
<g id="node18" class="node">
<title>sdl2_image</title>
<g id="a_node18"><a xlink:href="https://github.com/conda-forge/sdl2_image-feedstock" xlink:title="sdl2_image">
<ellipse fill="#35b779" stroke="black" cx="2623.01" cy="-638" rx="67.52" ry="18"/>
<text text-anchor="middle" x="2623.01" y="-633.33" font-family="Times,serif" font-size="14.00">sdl2_image</text>
</a>
</g>
</g>
<!-- libitk&#45;&gt;sdl2_image -->
<!-- libgd -->
<g id="node16" class="node">
<title>libgd</title>
<g id="a_node16"><a xlink:href="https://github.com/conda-forge/libgd-feedstock" xlink:title="libgd">
<ellipse fill="#fde725" stroke="black" cx="1655.01" cy="-602" rx="36.48" ry="18"/>
<text text-anchor="middle" x="1655.01" y="-597.33" font-family="Times,serif" font-size="14.00">libgd</text>
</a>
</g>
</g>
<!-- libgd&#45;&gt;imagemagick -->
<g id="edge12" class="edge">
<title>libgd&#45;&gt;imagemagick</title>
<path fill="none" stroke="black" d="M1620.59,-595.45C1550.22,-584.1 1388.56,-558.03 1293.84,-542.75"/>
<polygon fill="black" stroke="black" points="1294.62,-539.17 1284.19,-541.03 1293.51,-546.08 1294.62,-539.17"/>
</g>
<!-- libgd&#45;&gt;root -->
<g id="edge13" class="edge">
<title>libgd&#45;&gt;root</title>
<path fill="none" stroke="black" d="M1681.13,-589.13C1706.96,-577.38 1746.62,-559.36 1774.92,-546.49"/>
<polygon fill="black" stroke="black" points="1776.13,-549.33 1783.79,-542.01 1773.24,-542.96 1776.13,-549.33"/>
</g>
<!-- graphicsmagick -->
<g id="node17" class="node">
<title>graphicsmagick</title>
<g id="a_node17"><a xlink:href="https://github.com/conda-forge/graphicsmagick-feedstock" xlink:title="graphicsmagick">
<ellipse fill="#fde725" stroke="black" cx="1669.01" cy="-530" rx="90.14" ry="18"/>
<text text-anchor="middle" x="1669.01" y="-525.33" font-family="Times,serif" font-size="14.00">graphicsmagick</text>
</a>
</g>
</g>
<!-- libgd&#45;&gt;graphicsmagick -->
<g id="edge14" class="edge">
<title>libgd&#45;&gt;graphicsmagick</title>
<path fill="none" stroke="black" d="M1658.47,-583.7C1659.98,-576.15 1661.78,-567.12 1663.47,-558.68"/>
<polygon fill="black" stroke="black" points="1667.06,-559.6 1665.59,-549.1 1660.19,-558.22 1667.06,-559.6"/>
</g>
<!-- astromatic&#45;stiff -->
<g id="node44" class="node">
<title>astromatic&#45;stiff</title>
<g id="a_node44"><a xlink:href="https://github.com/conda-forge/astromatic-stiff-feedstock" xlink:title="astromatic stiff">
<ellipse fill="#35b779" stroke="black" cx="2623.01" cy="-566" rx="87.51" ry="18"/>
<text text-anchor="middle" x="2623.01" y="-561.33" font-family="Times,serif" font-size="14.00">astromatic stiff</text>
</a>
</g>
</g>
<!-- sdl2_image&#45;&gt;astromatic&#45;stiff -->
<!-- opencv -->
<g id="node19" class="node">
<title>opencv</title>
<g id="a_node19"><a xlink:href="https://github.com/conda-forge/opencv-feedstock" xlink:title="opencv">
<ellipse fill="#fde725" stroke="black" cx="942.01" cy="-530" rx="46.47" ry="18"/>
<text text-anchor="middle" x="942.01" y="-525.33" font-family="Times,serif" font-size="14.00">opencv</text>
</a>
</g>
</g>
<!-- openjpeg -->
<g id="node20" class="node">
<title>openjpeg</title>
<g id="a_node20"><a xlink:href="https://github.com/conda-forge/openjpeg-feedstock/pull/48" xlink:title="openjpeg ❎">
<ellipse fill="#31688e" stroke="black" cx="617.01" cy="-674" rx="72.25" ry="18"/>
<text text-anchor="middle" x="617.01" y="-669.33" font-family="Times,serif" font-size="14.00" fill="white">openjpeg ❎</text>
</a>
</g>
</g>
<!-- openjpeg&#45;&gt;freeimage -->
<g id="edge16" class="edge">
<title>openjpeg&#45;&gt;freeimage</title>
<path fill="none" stroke="black" d="M563.33,-661.55C514.44,-651.03 440.28,-634.87 376.01,-620 371.62,-618.99 367.08,-617.92 362.53,-616.84"/>
<polygon fill="black" stroke="black" points="363.45,-613.22 352.91,-614.3 361.82,-620.03 363.45,-613.22"/>
</g>
<!-- openjpeg&#45;&gt;gdal -->
<g id="edge17" class="edge">
<title>openjpeg&#45;&gt;gdal</title>
<path fill="none" stroke="black" d="M548.72,-667.77C454.54,-659.85 290.16,-643.21 235.01,-620 198.69,-604.72 163.91,-575 142.3,-554.11"/>
<polygon fill="black" stroke="black" points="145.26,-552.13 135.68,-547.59 140.34,-557.11 145.26,-552.13"/>
</g>
<!-- openjpeg&#45;&gt;imagemagick -->
<g id="edge18" class="edge">
<title>openjpeg&#45;&gt;imagemagick</title>
<path fill="none" stroke="black" d="M686.96,-669.03C766.05,-663.29 898.1,-649.86 1008.01,-620 1070.18,-603.11 1138.25,-572.34 1180.31,-551.78"/>
<polygon fill="black" stroke="black" points="1181.74,-554.48 1189.16,-546.92 1178.64,-548.21 1181.74,-554.48"/>
</g>
<!-- openjpeg&#45;&gt;openslide -->
<g id="edge19" class="edge">
<title>openjpeg&#45;&gt;openslide</title>
<path fill="none" stroke="black" d="M684.86,-667.6C772.86,-659.78 920.93,-643.6 970.01,-620 1000.83,-605.17 1028.59,-577.02 1046.24,-556.33"/>
<polygon fill="black" stroke="black" points="1049.47,-558.92 1053.16,-548.99 1044.08,-554.45 1049.47,-558.92"/>
</g>
<!-- openjpeg&#45;&gt;libvips -->
<g id="edge20" class="edge">
<title>openjpeg&#45;&gt;libvips</title>
<path fill="none" stroke="black" d="M577.33,-658.61C560.17,-650.17 541.8,-637.64 532.01,-620 508.72,-578.03 500.82,-548.49 532.01,-512 567.43,-470.55 726.57,-461.32 812.52,-459.4"/>
<polygon fill="black" stroke="black" points="812.45,-462.88 822.38,-459.18 812.31,-455.88 812.45,-462.88"/>
</g>
<!-- pillow -->
<g id="node21" class="node">
<title>pillow</title>
<g id="a_node21"><a xlink:href="https://github.com/conda-forge/pillow-feedstock" xlink:title="pillow">
<ellipse fill="#fde725" stroke="black" cx="582.01" cy="-602" rx="41.21" ry="18"/>
<text text-anchor="middle" x="582.01" y="-597.33" font-family="Times,serif" font-size="14.00">pillow</text>
</a>
</g>
</g>
<!-- openjpeg&#45;&gt;pillow -->
<g id="edge21" class="edge">
<title>openjpeg&#45;&gt;pillow</title>
<path fill="none" stroke="black" d="M608.36,-655.7C604.46,-647.9 599.76,-638.51 595.42,-629.83"/>
<polygon fill="black" stroke="black" points="598.16,-628.48 590.56,-621.1 591.9,-631.61 598.16,-628.48"/>
</g>
<!-- poppler -->
<g id="node22" class="node">
<title>poppler</title>
<g id="a_node22"><a xlink:href="https://github.com/conda-forge/poppler-feedstock" xlink:title="poppler">
<ellipse fill="#fde725" stroke="black" cx="435.01" cy="-602" rx="49.63" ry="18"/>
<text text-anchor="middle" x="435.01" y="-597.33" font-family="Times,serif" font-size="14.00">poppler</text>
</a>
</g>
</g>
<!-- openjpeg&#45;&gt;poppler -->
<g id="edge22" class="edge">
<title>openjpeg&#45;&gt;poppler</title>
<path fill="none" stroke="black" d="M578.85,-658.33C549.45,-647.02 508.78,-631.37 478.18,-619.61"/>
<polygon fill="black" stroke="black" points="479.81,-616.1 469.22,-615.77 477.3,-622.63 479.81,-616.1"/>
</g>
<!-- leptonica -->
<g id="node23" class="node">
<title>leptonica</title>
<g id="a_node23"><a xlink:href="https://github.com/conda-forge/leptonica-feedstock" xlink:title="leptonica">
<ellipse fill="#fde725" stroke="black" cx="904.01" cy="-602" rx="57" ry="18"/>
<text text-anchor="middle" x="904.01" y="-597.33" font-family="Times,serif" font-size="14.00">leptonica</text>
</a>
</g>
</g>
<!-- openjpeg&#45;&gt;leptonica -->
<g id="edge23" class="edge">
<title>openjpeg&#45;&gt;leptonica</title>
<path fill="none" stroke="black" d="M668.42,-660.93C713.25,-650.34 780,-634.43 838.01,-620 842.09,-618.98 846.31,-617.92 850.55,-616.85"/>
<polygon fill="black" stroke="black" points="851.25,-620.03 860.08,-614.17 849.52,-613.25 851.25,-620.03"/>
</g>
<!-- tesseract -->
<g id="node24" class="node">
<title>tesseract</title>
<g id="a_node24"><a xlink:href="https://github.com/conda-forge/tesseract-feedstock" xlink:title="tesseract">
<ellipse fill="#fde725" stroke="black" cx="782.01" cy="-530" rx="57.52" ry="18"/>
<text text-anchor="middle" x="782.01" y="-525.33" font-family="Times,serif" font-size="14.00">tesseract</text>
</a>
</g>
</g>
<!-- openjpeg&#45;&gt;tesseract -->
<g id="edge24" class="edge">
<title>openjpeg&#45;&gt;tesseract</title>
<path fill="none" stroke="black" d="M623.56,-655.88C631.81,-636.3 647.65,-604.32 670.01,-584 687.72,-567.9 711.2,-555.78 732.08,-547.22"/>
<polygon fill="black" stroke="black" points="733.05,-550.21 741.09,-543.31 730.5,-543.69 733.05,-550.21"/>
</g>
<!-- imagecodecs -->
<g id="node25" class="node">
<title>imagecodecs</title>
<g id="a_node25"><a xlink:href="https://github.com/conda-forge/imagecodecs-feedstock" xlink:title="imagecodecs">
<ellipse fill="#fde725" stroke="black" cx="754.01" cy="-602" rx="75.41" ry="18"/>
<text text-anchor="middle" x="754.01" y="-597.33" font-family="Times,serif" font-size="14.00">imagecodecs</text>
</a>
</g>
</g>
<!-- openjpeg&#45;&gt;imagecodecs -->
<g id="edge25" class="edge">
<title>openjpeg&#45;&gt;imagecodecs</title>
<path fill="none" stroke="black" d="M647.75,-657.29C667.23,-647.34 692.63,-634.36 713.71,-623.59"/>
<polygon fill="black" stroke="black" points="715.05,-626.32 722.36,-618.66 711.87,-620.09 715.05,-626.32"/>
</g>
<!-- paraview -->
<g id="node26" class="node">
<title>paraview</title>
<g id="a_node26"><a xlink:href="https://github.com/conda-forge/paraview-feedstock" xlink:title="paraview">
<ellipse fill="#fde725" stroke="black" cx="241.01" cy="-530" rx="57" ry="18"/>
<text text-anchor="middle" x="241.01" y="-525.33" font-family="Times,serif" font-size="14.00">paraview</text>
</a>
</g>
</g>
<!-- pillow&#45;&gt;paraview -->
<g id="edge26" class="edge">
<title>pillow&#45;&gt;paraview</title>
<path fill="none" stroke="black" d="M545.19,-593.44C485.89,-581.27 368.78,-557.23 298.43,-542.79"/>
<polygon fill="black" stroke="black" points="299.48,-539.23 288.98,-540.64 298.07,-546.08 299.48,-539.23"/>
</g>
<!-- wxpython -->
<g id="node27" class="node">
<title>wxpython</title>
<g id="a_node27"><a xlink:href="https://github.com/conda-forge/wxpython-feedstock" xlink:title="wxpython">
<ellipse fill="#fde725" stroke="black" cx="601.01" cy="-530" rx="60.15" ry="18"/>
<text text-anchor="middle" x="601.01" y="-525.33" font-family="Times,serif" font-size="14.00">wxpython</text>
</a>
</g>
</g>
<!-- pillow&#45;&gt;wxpython -->
<g id="edge27" class="edge">
<title>pillow&#45;&gt;wxpython</title>
<path fill="none" stroke="black" d="M586.7,-583.7C588.75,-576.15 591.2,-567.12 593.49,-558.68"/>
<polygon fill="black" stroke="black" points="597.12,-559.67 596.36,-549.1 590.37,-557.84 597.12,-559.67"/>
</g>
<!-- puma -->
<g id="node28" class="node">
<title>puma</title>
<g id="a_node28"><a xlink:href="https://github.com/conda-forge/puma-feedstock" xlink:title="puma">
<ellipse fill="#fde725" stroke="black" cx="475.01" cy="-458" rx="39.11" ry="18"/>
<text text-anchor="middle" x="475.01" y="-453.32" font-family="Times,serif" font-size="14.00">puma</text>
</a>
</g>
</g>
<!-- pillow&#45;&gt;puma -->
<g id="edge28" class="edge">
<title>pillow&#45;&gt;puma</title>
<path fill="none" stroke="black" d="M565.87,-585.46C555.65,-575.26 542.44,-561.36 532.01,-548 516.29,-527.87 500.81,-503.31 489.95,-485.1"/>
<polygon fill="black" stroke="black" points="492.52,-483.54 484.43,-476.7 486.48,-487.09 492.52,-483.54"/>
</g>
<!-- poppler&#45;&gt;gdal -->
<g id="edge29" class="edge">
<title>poppler&#45;&gt;gdal</title>
<path fill="none" stroke="black" d="M398.04,-589.51C391.09,-587.54 383.85,-585.61 377.01,-584 288.23,-563.14 263.63,-569.51 175.01,-548 169.36,-546.63 163.44,-545.01 157.67,-543.31"/>
<polygon fill="black" stroke="black" points="159.1,-539.79 148.52,-540.23 157.07,-546.49 159.1,-539.79"/>
</g>
<!-- poppler&#45;&gt;libvips -->
<g id="edge30" class="edge">
<title>poppler&#45;&gt;libvips</title>
<path fill="none" stroke="black" d="M442.12,-584.02C451.75,-563.31 471.02,-528.97 499.01,-512 550.74,-480.64 723.71,-466.82 813.25,-461.64"/>
<polygon fill="black" stroke="black" points="813.21,-465.09 823,-461.04 812.82,-458.1 813.21,-465.09"/>
</g>
<!-- sane -->
<g id="node29" class="node">
<title>sane</title>
<g id="a_node29"><a xlink:href="https://github.com/conda-forge/sane-feedstock" xlink:title="sane">
<ellipse fill="#fde725" stroke="black" cx="375.01" cy="-530" rx="34.37" ry="18"/>
<text text-anchor="middle" x="375.01" y="-525.33" font-family="Times,serif" font-size="14.00">sane</text>
</a>
</g>
</g>
<!-- poppler&#45;&gt;sane -->
<g id="edge31" class="edge">
<title>poppler&#45;&gt;sane</title>
<path fill="none" stroke="black" d="M420.79,-584.41C413.28,-575.66 403.94,-564.75 395.65,-555.08"/>
<polygon fill="black" stroke="black" points="397.88,-553.3 388.71,-547.99 392.56,-557.86 397.88,-553.3"/>
</g>
<!-- leptonica&#45;&gt;tesseract -->
<g id="edge32" class="edge">
<title>leptonica&#45;&gt;tesseract</title>
<path fill="none" stroke="black" d="M877.23,-585.64C859.91,-575.7 837.15,-562.64 818.22,-551.78"/>
<polygon fill="black" stroke="black" points="820.13,-548.27 809.72,-546.33 816.65,-554.34 820.13,-548.27"/>
</g>
<!-- imagecodecs&#45;&gt;puma -->
<g id="edge33" class="edge">
<title>imagecodecs&#45;&gt;puma</title>
<path fill="none" stroke="black" d="M742.43,-583.9C727.87,-563.72 700.99,-530.57 670.01,-512 624.66,-484.83 565.14,-471.28 523.84,-464.73"/>
<polygon fill="black" stroke="black" points="524.37,-461.12 513.96,-463.1 523.33,-468.05 524.37,-461.12"/>
</g>
<!-- proj.4 -->
<g id="node30" class="node">
<title>proj.4</title>
<g id="a_node30"><a xlink:href="https://github.com/conda-forge/proj.4-feedstock/pull/136" xlink:title="proj 4 ❎">
<ellipse fill="#31688e" stroke="black" cx="72.01" cy="-674" rx="55.94" ry="18"/>
<text text-anchor="middle" x="72.01" y="-669.33" font-family="Times,serif" font-size="14.00" fill="white">proj 4 ❎</text>
</a>
</g>
</g>
<!-- proj.4&#45;&gt;gdal -->
<g id="edge34" class="edge">
<title>proj.4&#45;&gt;gdal</title>
<path fill="none" stroke="black" d="M62.71,-655.81C54.03,-637.28 43.94,-607.3 55.01,-584 61.89,-569.5 74.9,-557.66 87.48,-548.88"/>
<polygon fill="black" stroke="black" points="89,-551.42 95.48,-543.03 85.19,-545.55 89,-551.42"/>
</g>
<!-- proj.4&#45;&gt;geotiff -->
<g id="edge35" class="edge">
<title>proj.4&#45;&gt;geotiff</title>
<path fill="none" stroke="black" d="M80.48,-656.05C84.48,-648.06 89.34,-638.33 93.81,-629.4"/>
<polygon fill="black" stroke="black" points="97.27,-631.3 98.61,-620.79 91.01,-628.17 97.27,-631.3"/>
</g>
<!-- proj.4&#45;&gt;paraview -->
<g id="edge36" class="edge">
<title>proj.4&#45;&gt;paraview</title>
<path fill="none" stroke="black" d="M100.76,-658.16C118.39,-648.43 140.95,-634.8 159.01,-620 182.43,-600.8 205.48,-575 221.14,-556.12"/>
<polygon fill="black" stroke="black" points="224.39,-558.68 228,-548.73 218.97,-554.25 224.39,-558.68"/>
</g>
<!-- vtk -->
<g id="node31" class="node">
<title>vtk</title>
<g id="a_node31"><a xlink:href="https://github.com/conda-forge/vtk-feedstock" xlink:title="vtk">
<ellipse fill="#fde725" stroke="black" cx="27.01" cy="-530" rx="27.01" ry="18"/>
<text text-anchor="middle" x="27.01" y="-525.33" font-family="Times,serif" font-size="14.00">vtk</text>
</a>
</g>
</g>
<!-- proj.4&#45;&gt;vtk -->
<g id="edge37" class="edge">
<title>proj.4&#45;&gt;vtk</title>
<path fill="none" stroke="black" d="M50.71,-657.11C39.9,-647.68 27.84,-634.7 22.01,-620 14.28,-600.56 16.11,-576.84 19.56,-558.77"/>
<polygon fill="black" stroke="black" points="23.18,-559.6 21.9,-549.08 16.34,-558.1 23.18,-559.6"/>
</g>
<!-- vtk&#45;&gt;puma -->
<g id="edge38" class="edge">
<title>vtk&#45;&gt;puma</title>
<path fill="none" stroke="black" d="M50.1,-520.27C58.75,-517.28 68.73,-514.14 78.01,-512 201.34,-483.48 350.02,-468.72 425.63,-462.57"/>
<polygon fill="black" stroke="black" points="425.56,-466.01 435.25,-461.73 425,-459.03 425.56,-466.01"/>
</g>
<!-- r&#45;base -->
<g id="node32" class="node">
<title>r&#45;base</title>
<g id="a_node32"><a xlink:href="https://github.com/conda-forge/r-base-feedstock/pull/274" xlink:title="r base ✓">
<ellipse fill="#31688e" stroke="black" cx="2056.01" cy="-602" rx="50.16" ry="18"/>
<text text-anchor="middle" x="2056.01" y="-597.33" font-family="Times,serif" font-size="14.00" fill="white">r base ✓</text>
</a>
</g>
</g>
<!-- r&#45;base&#45;&gt;root -->
<g id="edge39" class="edge">
<title>r&#45;base&#45;&gt;root</title>
<path fill="none" stroke="black" d="M2017.41,-590.06C1971.06,-576.93 1893.79,-555.03 1847.49,-541.91"/>
<polygon fill="black" stroke="black" points="1848.56,-538.29 1837.98,-538.93 1846.65,-545.02 1848.56,-538.29"/>
</g>
<!-- r&#45;cairo -->
<g id="node33" class="node">
<title>r&#45;cairo</title>
<g id="a_node33"><a xlink:href="https://github.com/conda-forge/r-cairo-feedstock" xlink:title="r cairo">
<ellipse fill="#fde725" stroke="black" cx="2020.01" cy="-530" rx="43.84" ry="18"/>
<text text-anchor="middle" x="2020.01" y="-525.33" font-family="Times,serif" font-size="14.00">r cairo</text>
</a>
</g>
</g>
<!-- r&#45;base&#45;&gt;r&#45;cairo -->
<g id="edge40" class="edge">
<title>r&#45;base&#45;&gt;r&#45;cairo</title>
<path fill="none" stroke="black" d="M2047.29,-584.05C2043.18,-576.06 2038.18,-566.33 2033.58,-557.4"/>
<polygon fill="black" stroke="black" points="2036.33,-556.08 2028.64,-548.79 2030.1,-559.28 2036.33,-556.08"/>
</g>
<!-- r&#45;tiff -->
<g id="node34" class="node">
<title>r&#45;tiff</title>
<g id="a_node34"><a xlink:href="https://github.com/conda-forge/r-tiff-feedstock" xlink:title="r tiff">
<ellipse fill="#fde725" stroke="black" cx="2153.01" cy="-458" rx="33.32" ry="18"/>
<text text-anchor="middle" x="2153.01" y="-453.32" font-family="Times,serif" font-size="14.00">r tiff</text>
</a>
</g>
</g>
<!-- r&#45;base&#45;&gt;r&#45;tiff -->
<g id="edge41" class="edge">
<title>r&#45;base&#45;&gt;r&#45;tiff</title>
<path fill="none" stroke="black" d="M2073.47,-584.84C2083.69,-574.83 2096.44,-561.37 2106.01,-548 2120.03,-528.4 2132.59,-504.08 2141.19,-485.82"/>
<polygon fill="black" stroke="black" points="2144.77,-487.4 2145.77,-476.85 2138.41,-484.48 2144.77,-487.4"/>
</g>
<!-- r&#45;ragg -->
<g id="node35" class="node">
<title>r&#45;ragg</title>
<g id="a_node35"><a xlink:href="https://github.com/conda-forge/r-ragg-feedstock" xlink:title="r ragg">
<ellipse fill="#fde725" stroke="black" cx="1969.01" cy="-386" rx="42.26" ry="18"/>
<text text-anchor="middle" x="1969.01" y="-381.32" font-family="Times,serif" font-size="14.00">r ragg</text>
</a>
</g>
</g>
<!-- r&#45;base&#45;&gt;r&#45;ragg -->
<g id="edge42" class="edge">
<title>r&#45;base&#45;&gt;r&#45;ragg</title>
<path fill="none" stroke="black" d="M2019.58,-589.32C2000.28,-581.05 1978.29,-567.86 1967.01,-548 1943.3,-506.3 1952.28,-448.16 1960.77,-414.36"/>
<polygon fill="black" stroke="black" points="1964.37,-415.46 1963.58,-404.89 1957.61,-413.64 1964.37,-415.46"/>
</g>
<!-- r&#45;rtiff -->
<g id="node36" class="node">
<title>r&#45;rtiff</title>
<g id="a_node36"><a xlink:href="https://github.com/conda-forge/r-rtiff-feedstock" xlink:title="r rtiff">
<ellipse fill="#fde725" stroke="black" cx="2214.01" cy="-314" rx="38.06" ry="18"/>
<text text-anchor="middle" x="2214.01" y="-309.32" font-family="Times,serif" font-size="14.00">r rtiff</text>
</a>
</g>
</g>
<!-- r&#45;base&#45;&gt;r&#45;rtiff -->
<g id="edge43" class="edge">
<title>r&#45;base&#45;&gt;r&#45;rtiff</title>
<path fill="none" stroke="black" d="M2082.76,-586.4C2116.17,-566.47 2171.74,-527.28 2195.01,-476 2214.67,-432.67 2216.65,-376.35 2215.72,-343.1"/>
<polygon fill="black" stroke="black" points="2219.19,-343.21 2215.3,-333.36 2212.2,-343.49 2219.19,-343.21"/>
</g>
<!-- r&#45;imager -->
<g id="node37" class="node">
<title>r&#45;imager</title>
<g id="a_node37"><a xlink:href="https://github.com/conda-forge/r-imager-feedstock" xlink:title="r imager">
<ellipse fill="#fde725" stroke="black" cx="2112.01" cy="-386" rx="54.36" ry="18"/>
<text text-anchor="middle" x="2112.01" y="-381.32" font-family="Times,serif" font-size="14.00">r imager</text>
</a>
</g>
</g>
<!-- r&#45;base&#45;&gt;r&#45;imager -->
<g id="edge44" class="edge">
<title>r&#45;base&#45;&gt;r&#45;imager</title>
<path fill="none" stroke="black" d="M2061.84,-583.91C2065.28,-573.57 2069.61,-560.09 2073.01,-548 2086.1,-501.44 2098.82,-446.57 2106.01,-414.41"/>
<polygon fill="black" stroke="black" points="2109.56,-415.55 2108.31,-405.03 2102.73,-414.03 2109.56,-415.55"/>
</g>
<!-- r&#45;tiff&#45;&gt;r&#45;imager -->
<g id="edge45" class="edge">
<title>r&#45;tiff&#45;&gt;r&#45;imager</title>
<path fill="none" stroke="black" d="M2143.29,-440.41C2138.56,-432.34 2132.76,-422.43 2127.44,-413.35"/>
<polygon fill="black" stroke="black" points="2130.01,-411.82 2121.94,-404.96 2123.97,-415.35 2130.01,-411.82"/>
</g>
<!-- vigra -->
<g id="node38" class="node">
<title>vigra</title>
<g id="a_node38"><a xlink:href="https://github.com/conda-forge/vigra-feedstock" xlink:title="vigra">
<ellipse fill="#35b779" stroke="black" cx="2431.01" cy="-602" rx="37" ry="18"/>
<text text-anchor="middle" x="2431.01" y="-597.33" font-family="Times,serif" font-size="14.00">vigra</text>
</a>
</g>
</g>
<!-- vigra&#45;&gt;hugin -->
<g id="edge47" class="edge">
<title>vigra&#45;&gt;hugin</title>
<path fill="none" stroke="black" d="M2421.21,-584.43C2406.74,-559.98 2379.54,-514 2362.4,-485.02"/>
<polygon fill="black" stroke="black" points="2365.11,-483.73 2357.01,-476.9 2359.08,-487.29 2365.11,-483.73"/>
</g>
<!-- enblend -->
<g id="node39" class="node">
<title>enblend</title>
<g id="a_node39"><a xlink:href="https://github.com/conda-forge/enblend-feedstock" xlink:title="enblend">
<ellipse fill="#fde725" stroke="black" cx="2471.01" cy="-530" rx="51.21" ry="18"/>
<text text-anchor="middle" x="2471.01" y="-525.33" font-family="Times,serif" font-size="14.00">enblend</text>
</a>
</g>
</g>
<!-- vigra&#45;&gt;enblend -->
<g id="edge46" class="edge">
<title>vigra&#45;&gt;enblend</title>
<path fill="none" stroke="black" d="M2440.49,-584.41C2445.1,-576.34 2450.76,-566.43 2455.95,-557.35"/>
<polygon fill="black" stroke="black" points="2459.4,-559.38 2461.32,-548.96 2453.32,-555.9 2459.4,-559.38"/>
</g>
<!-- enblend&#45;&gt;hugin -->
<g id="edge48" class="edge">
<title>enblend&#45;&gt;hugin</title>
<path fill="none" stroke="black" d="M2444.71,-514.15C2426.01,-503.6 2400.75,-489.34 2380.6,-477.96"/>
<polygon fill="black" stroke="black" points="2382.59,-474.5 2372.16,-472.64 2379.15,-480.6 2382.59,-474.5"/>
</g>
<!-- libwebp -->
<g id="node40" class="node">
<title>libwebp</title>
<g id="a_node40"><a xlink:href="https://github.com/conda-forge/libwebp-feedstock/pull/53" xlink:title="libwebp ❎">
<ellipse fill="#31688e" stroke="black" cx="1179.01" cy="-674" rx="65.94" ry="18"/>
<text text-anchor="middle" x="1179.01" y="-669.33" font-family="Times,serif" font-size="14.00" fill="white">libwebp ❎</text>
</a>
</g>
</g>
<!-- libwebp&#45;&gt;imagemagick -->
<g id="edge49" class="edge">
<title>libwebp&#45;&gt;imagemagick</title>
<path fill="none" stroke="black" d="M1181.65,-655.67C1184.67,-637.54 1190.2,-608.38 1198.01,-584 1200.76,-575.4 1204.42,-566.3 1208.01,-558.11"/>
<polygon fill="black" stroke="black" points="1211.5,-559.88 1212.44,-549.33 1205.13,-556.99 1211.5,-559.88"/>
</g>
<!-- libwebp&#45;&gt;libvips -->
<g id="edge50" class="edge">
<title>libwebp&#45;&gt;libvips</title>
<path fill="none" stroke="black" d="M1155.85,-656.67C1126.93,-636.93 1075.36,-603.91 1027.01,-584 967.6,-559.53 931.49,-594.36 887.01,-548 871.63,-531.97 867.41,-506.7 866.73,-487.17"/>
<polygon fill="black" stroke="black" points="870.23,-487.16 866.69,-477.17 863.23,-487.19 870.23,-487.16"/>
</g>
<!-- libwebp&#45;&gt;imread -->
<g id="edge51" class="edge">
<title>libwebp&#45;&gt;imread</title>
<path fill="none" stroke="black" d="M1196.54,-656.41C1205.99,-647.48 1217.79,-636.31 1228.17,-626.5"/>
<polygon fill="black" stroke="black" points="1230.25,-629.4 1235.11,-619.99 1225.44,-624.32 1230.25,-629.4"/>
</g>
<!-- libwebp&#45;&gt;libgd -->
<g id="edge52" class="edge">
<title>libwebp&#45;&gt;libgd</title>
<path fill="none" stroke="black" d="M1242.69,-669C1326.4,-662.85 1477.65,-648.64 1604.01,-620 1607.92,-619.11 1611.96,-618.04 1615.98,-616.88"/>
<polygon fill="black" stroke="black" points="1616.92,-619.94 1625.43,-613.63 1614.84,-613.25 1616.92,-619.94"/>
</g>
<!-- libwebp&#45;&gt;graphicsmagick -->
<g id="edge53" class="edge">
<title>libwebp&#45;&gt;graphicsmagick</title>
<path fill="none" stroke="black" d="M1242.27,-668.66C1336.51,-661.46 1508.7,-645.29 1565.01,-620 1573.95,-615.99 1614.54,-580.2 1642.28,-555.25"/>
<polygon fill="black" stroke="black" points="1644.35,-558.2 1649.43,-548.9 1639.66,-553 1644.35,-558.2"/>
</g>
<!-- libwebp&#45;&gt;opencv -->
<g id="edge54" class="edge">
<title>libwebp&#45;&gt;opencv</title>
<path fill="none" stroke="black" d="M1171.31,-655.63C1161.53,-635.5 1142.76,-602.7 1117.01,-584 1072.3,-551.53 1050.89,-564.03 998.01,-548 994.85,-547.04 991.6,-546.06 988.32,-545.06"/>
<polygon fill="black" stroke="black" points="989.44,-541.44 978.85,-541.89 987.41,-548.14 989.44,-541.44"/>
</g>
<!-- libwebp&#45;&gt;pillow -->
<g id="edge55" class="edge">
<title>libwebp&#45;&gt;pillow</title>
<path fill="none" stroke="black" d="M1116.1,-668.22C1019.74,-660.51 829.96,-643.73 670.01,-620 656.66,-618.02 642.26,-615.43 629.05,-612.87"/>
<polygon fill="black" stroke="black" points="629.77,-609.25 619.28,-610.74 628.41,-616.12 629.77,-609.25"/>
</g>
<!-- libwebp&#45;&gt;leptonica -->
<g id="edge56" class="edge">
<title>libwebp&#45;&gt;leptonica</title>
<path fill="none" stroke="black" d="M1132.05,-661.05C1083.64,-648.72 1008.28,-629.54 957.58,-616.64"/>
<polygon fill="black" stroke="black" points="958.71,-613.06 948.15,-613.98 956.98,-619.84 958.71,-613.06"/>
</g>
<!-- libwebp&#45;&gt;tesseract -->
<g id="edge57" class="edge">
<title>libwebp&#45;&gt;tesseract</title>
<path fill="none" stroke="black" d="M1146.93,-657.82C1106.34,-638.97 1033.99,-606.54 970.01,-584 925.71,-568.4 874.33,-554.17 836.49,-544.39"/>
<polygon fill="black" stroke="black" points="837.74,-540.84 827.19,-541.75 836.01,-547.62 837.74,-540.84"/>
</g>
<!-- libwebp&#45;&gt;imagecodecs -->
<g id="edge58" class="edge">
<title>libwebp&#45;&gt;imagecodecs</title>
<path fill="none" stroke="black" d="M1121.56,-664.89C1053.67,-655.11 937.38,-637.77 838.01,-620 832.24,-618.97 826.26,-617.85 820.27,-616.7"/>
<polygon fill="black" stroke="black" points="821,-613.08 810.52,-614.6 819.66,-619.95 821,-613.08"/>
</g>
<!-- openimageio -->
<g id="node41" class="node">
<title>openimageio</title>
<g id="a_node41"><a xlink:href="https://github.com/conda-forge/openimageio-feedstock" xlink:title="openimageio">
<ellipse fill="#fde725" stroke="black" cx="1551.01" cy="-458" rx="74.88" ry="18"/>
<text text-anchor="middle" x="1551.01" y="-453.32" font-family="Times,serif" font-size="14.00">openimageio</text>
</a>
</g>
</g>
<!-- libwebp&#45;&gt;openimageio -->
<g id="edge59" class="edge">
<title>libwebp&#45;&gt;openimageio</title>
<path fill="none" stroke="black" d="M1244.88,-671.79C1333.82,-668.7 1485.61,-657.87 1524.01,-620 1559.15,-585.34 1558.97,-523.33 1555.27,-487.22"/>
<polygon fill="black" stroke="black" points="1558.65,-486.99 1553.98,-477.47 1551.7,-487.82 1558.65,-486.99"/>
</g>
<!-- sdl_image -->
<g id="node42" class="node">
<title>sdl_image</title>
<g id="a_node42"><a xlink:href="https://github.com/conda-forge/sdl_image-feedstock" xlink:title="sdl_image">
<ellipse fill="#fde725" stroke="black" cx="1848.01" cy="-386" rx="61.2" ry="18"/>
<text text-anchor="middle" x="1848.01" y="-381.32" font-family="Times,serif" font-size="14.00">sdl_image</text>
</a>
</g>
</g>
<!-- libwebp&#45;&gt;sdl_image -->
<g id="edge60" class="edge">
<title>libwebp&#45;&gt;sdl_image</title>
<path fill="none" stroke="black" d="M1245.22,-672.75C1406.5,-671.46 1809.51,-663.82 1850.01,-620 1902.1,-563.63 1875.88,-462.84 1858.81,-414.43"/>
<polygon fill="black" stroke="black" points="1861.76,-413.3 1855.03,-405.12 1855.19,-415.71 1861.76,-413.3"/>
</g>
<!-- tomviz -->
<g id="node43" class="node">
<title>tomviz</title>
<g id="a_node43"><a xlink:href="https://github.com/conda-forge/tomviz-feedstock" xlink:title="tomviz">
<ellipse fill="#fde725" stroke="black" cx="1327.01" cy="-314" rx="44.9" ry="18"/>
<text text-anchor="middle" x="1327.01" y="-309.32" font-family="Times,serif" font-size="14.00">tomviz</text>
</a>
</g>
</g>
<!-- libwebp&#45;&gt;tomviz -->
<g id="edge61" class="edge">
<title>libwebp&#45;&gt;tomviz</title>
<path fill="none" stroke="black" d="M1232.8,-663.18C1259.14,-655.67 1289.15,-642.58 1308.01,-620 1333.93,-588.95 1327.01,-571.45 1327.01,-531 1327.01,-531 1327.01,-531 1327.01,-457 1327.01,-417.57 1327.01,-371.97 1327.01,-343.31"/>
<polygon fill="black" stroke="black" points="1330.51,-343.49 1327.01,-333.49 1323.51,-343.49 1330.51,-343.49"/>
</g>
<!-- netpbm -->
<g id="node46" class="node">
<title>netpbm</title>
<g id="a_node46"><a xlink:href="https://github.com/conda-forge/netpbm-feedstock" xlink:title="netpbm">
<ellipse fill="#35b779" stroke="black" cx="2623.01" cy="-494" rx="49.63" ry="18"/>
<text text-anchor="middle" x="2623.01" y="-489.32" font-family="Times,serif" font-size="14.00">netpbm</text>
</a>
</g>
</g>
<!-- astromatic&#45;stiff&#45;&gt;netpbm -->
<!-- afterimage -->
<g id="node45" class="node">
<title>afterimage</title>
<g id="a_node45"><a xlink:href="https://github.com/conda-forge/afterimage-feedstock" xlink:title="afterimage">
<ellipse fill="#35b779" stroke="black" cx="1775.01" cy="-602" rx="65.94" ry="18"/>
<text text-anchor="middle" x="1775.01" y="-597.33" font-family="Times,serif" font-size="14.00">afterimage</text>
</a>
</g>
</g>
<!-- afterimage&#45;&gt;root -->
<g id="edge63" class="edge">
<title>afterimage&#45;&gt;root</title>
<path fill="none" stroke="black" d="M1783.41,-583.7C1787.26,-575.78 1791.9,-566.23 1796.16,-557.44"/>
<polygon fill="black" stroke="black" points="1799.71,-559.15 1800.93,-548.62 1793.42,-556.09 1799.71,-559.15"/>
</g>
<!-- gnuastro -->
<g id="node47" class="node">
<title>gnuastro</title>
<g id="a_node47"><a xlink:href="https://github.com/conda-forge/gnuastro-feedstock" xlink:title="gnuastro">
<ellipse fill="#35b779" stroke="black" cx="2623.01" cy="-422" rx="55.94" ry="18"/>
<text text-anchor="middle" x="2623.01" y="-417.32" font-family="Times,serif" font-size="14.00">gnuastro</text>
</a>
</g>
</g>
<!-- netpbm&#45;&gt;gnuastro -->
<!-- pylibtiff -->
<g id="node48" class="node">
<title>pylibtiff</title>
<g id="a_node48"><a xlink:href="https://github.com/conda-forge/pylibtiff-feedstock" xlink:title="pylibtiff">
<ellipse fill="#35b779" stroke="black" cx="2623.01" cy="-350" rx="50.16" ry="18"/>
<text text-anchor="middle" x="2623.01" y="-345.32" font-family="Times,serif" font-size="14.00">pylibtiff</text>
</a>
</g>
</g>
<!-- gnuastro&#45;&gt;pylibtiff -->
<!-- openscenegraph -->
<g id="node49" class="node">
<title>openscenegraph</title>
<g id="a_node49"><a xlink:href="https://github.com/conda-forge/openscenegraph-feedstock" xlink:title="openscenegraph">
<ellipse fill="#35b779" stroke="black" cx="2623.01" cy="-278" rx="93.3" ry="18"/>
<text text-anchor="middle" x="2623.01" y="-273.32" font-family="Times,serif" font-size="14.00">openscenegraph</text>
</a>
</g>
</g>
<!-- pylibtiff&#45;&gt;openscenegraph -->
<!-- match&#45;series -->
<g id="node50" class="node">
<title>match&#45;series</title>
<g id="a_node50"><a xlink:href="https://github.com/conda-forge/match-series-feedstock" xlink:title="match series">
<ellipse fill="#35b779" stroke="black" cx="2623.01" cy="-206" rx="75.41" ry="18"/>
<text text-anchor="middle" x="2623.01" y="-201.33" font-family="Times,serif" font-size="14.00">match series</text>
</a>
</g>
</g>
<!-- openscenegraph&#45;&gt;match&#45;series -->
<!-- povray -->
<g id="node52" class="node">
<title>povray</title>
<g id="a_node52"><a xlink:href="https://github.com/conda-forge/povray-feedstock" xlink:title="povray">
<ellipse fill="#35b779" stroke="black" cx="2623.01" cy="-134" rx="45.42" ry="18"/>
<text text-anchor="middle" x="2623.01" y="-129.32" font-family="Times,serif" font-size="14.00">povray</text>
</a>
</g>
</g>
<!-- match&#45;series&#45;&gt;povray -->
<!-- libpano13 -->
<g id="node51" class="node">
<title>libpano13</title>
<g id="a_node51"><a xlink:href="https://github.com/conda-forge/libpano13-feedstock" xlink:title="libpano13">
<ellipse fill="#35b779" stroke="black" cx="2303.01" cy="-530" rx="60.68" ry="18"/>
<text text-anchor="middle" x="2303.01" y="-525.33" font-family="Times,serif" font-size="14.00">libpano13</text>
</a>
</g>
</g>
<!-- libpano13&#45;&gt;hugin -->
<g id="edge69" class="edge">
<title>libpano13&#45;&gt;hugin</title>
<path fill="none" stroke="black" d="M2313.66,-512.05C2318.79,-503.89 2325.06,-493.91 2330.77,-484.82"/>
<polygon fill="black" stroke="black" points="2334.1,-487.12 2336.45,-476.79 2328.17,-483.39 2334.1,-487.12"/>
</g>
<!-- exitwavereconstruction -->
<g id="node53" class="node">
<title>exitwavereconstruction</title>
<g id="a_node53"><a xlink:href="https://github.com/conda-forge/exitwavereconstruction-feedstock" xlink:title="exitwavereconstruction">
<ellipse fill="#35b779" stroke="black" cx="2853.01" cy="-818" rx="129.07" ry="18"/>
<text text-anchor="middle" x="2853.01" y="-813.33" font-family="Times,serif" font-size="14.00">exitwavereconstruction</text>
</a>
</g>
</g>
<!-- pytiff -->
<g id="node54" class="node">
<title>pytiff</title>
<g id="a_node54"><a xlink:href="https://github.com/conda-forge/pytiff-feedstock" xlink:title="pytiff">
<ellipse fill="#35b779" stroke="black" cx="2853.01" cy="-746" rx="37.53" ry="18"/>
<text text-anchor="middle" x="2853.01" y="-741.33" font-family="Times,serif" font-size="14.00">pytiff</text>
</a>
</g>
</g>
<!-- exitwavereconstruction&#45;&gt;pytiff -->
<!-- cudadecon -->
<g id="node55" class="node">
<title>cudadecon</title>
<g id="a_node55"><a xlink:href="https://github.com/conda-forge/cudadecon-feedstock" xlink:title="cudadecon">
<ellipse fill="#35b779" stroke="black" cx="2853.01" cy="-674" rx="64.36" ry="18"/>
<text text-anchor="middle" x="2853.01" y="-669.33" font-family="Times,serif" font-size="14.00">cudadecon</text>
</a>
</g>
</g>
<!-- pytiff&#45;&gt;cudadecon -->
<!-- cudasirecon -->
<g id="node56" class="node">
<title>cudasirecon</title>
<g id="a_node56"><a xlink:href="https://github.com/conda-forge/cudasirecon-feedstock" xlink:title="cudasirecon">
<ellipse fill="#35b779" stroke="black" cx="2853.01" cy="-602" rx="71.2" ry="18"/>
<text text-anchor="middle" x="2853.01" y="-597.33" font-family="Times,serif" font-size="14.00">cudasirecon</text>
</a>
</g>
</g>
<!-- cudadecon&#45;&gt;cudasirecon -->
<!-- podofo -->
<g id="node57" class="node">
<title>podofo</title>
<g id="a_node57"><a xlink:href="https://github.com/conda-forge/podofo-feedstock" xlink:title="podofo">
<ellipse fill="#35b779" stroke="black" cx="2853.01" cy="-530" rx="44.9" ry="18"/>
<text text-anchor="middle" x="2853.01" y="-525.33" font-family="Times,serif" font-size="14.00">podofo</text>
</a>
</g>
</g>
<!-- cudasirecon&#45;&gt;podofo -->
<!-- djvulibre -->
<g id="node58" class="node">
<title>djvulibre</title>
<g id="a_node58"><a xlink:href="https://github.com/conda-forge/djvulibre-feedstock" xlink:title="djvulibre">
<ellipse fill="#35b779" stroke="black" cx="2853.01" cy="-458" rx="55.94" ry="18"/>
<text text-anchor="middle" x="2853.01" y="-453.32" font-family="Times,serif" font-size="14.00">djvulibre</text>
</a>
</g>
</g>
<!-- podofo&#45;&gt;djvulibre -->
<!-- tvips&#45;tools -->
<g id="node59" class="node">
<title>tvips&#45;tools</title>
<g id="a_node59"><a xlink:href="https://github.com/conda-forge/tvips-tools-feedstock" xlink:title="tvips tools">
<ellipse fill="#35b779" stroke="black" cx="2853.01" cy="-386" rx="63.31" ry="18"/>
<text text-anchor="middle" x="2853.01" y="-381.32" font-family="Times,serif" font-size="14.00">tvips tools</text>
</a>
</g>
</g>
<!-- djvulibre&#45;&gt;tvips&#45;tools -->
<!-- microed&#45;tools -->
<g id="node60" class="node">
<title>microed&#45;tools</title>
<g id="a_node60"><a xlink:href="https://github.com/conda-forge/microed-tools-feedstock" xlink:title="microed tools">
<ellipse fill="#35b779" stroke="black" cx="2853.01" cy="-314" rx="79.09" ry="18"/>
<text text-anchor="middle" x="2853.01" y="-309.32" font-family="Times,serif" font-size="14.00">microed tools</text>
</a>
</g>
</g>
<!-- tvips&#45;tools&#45;&gt;microed&#45;tools -->
<!-- diplib -->
<g id="node61" class="node">
<title>diplib</title>
<g id="a_node61"><a xlink:href="https://github.com/conda-forge/diplib-feedstock" xlink:title="diplib">
<ellipse fill="#35b779" stroke="black" cx="2853.01" cy="-242" rx="39.63" ry="18"/>
<text text-anchor="middle" x="2853.01" y="-237.32" font-family="Times,serif" font-size="14.00">diplib</text>
</a>
</g>
</g>
<!-- microed&#45;tools&#45;&gt;diplib -->
<!-- pdfmm -->
<g id="node62" class="node">
<title>pdfmm</title>
<g id="a_node62"><a xlink:href="https://github.com/conda-forge/pdfmm-feedstock" xlink:title="pdfmm">
<ellipse fill="#35b779" stroke="black" cx="2853.01" cy="-170" rx="46.47" ry="18"/>
<text text-anchor="middle" x="2853.01" y="-165.32" font-family="Times,serif" font-size="14.00">pdfmm</text>
</a>
</g>
</g>
<!-- diplib&#45;&gt;pdfmm -->
<!-- nyxus -->
<g id="node63" class="node">
<title>nyxus</title>
<g id="a_node63"><a xlink:href="https://github.com/conda-forge/nyxus-feedstock" xlink:title="nyxus">
<ellipse fill="#fde725" stroke="black" cx="1261.01" cy="-18" rx="40.69" ry="18"/>
<text text-anchor="middle" x="1261.01" y="-13.32" font-family="Times,serif" font-size="14.00">nyxus</text>
</a>
</g>
</g>
<!-- dcmtk -->
<g id="node64" class="node">
<title>dcmtk</title>
<g id="a_node64"><a xlink:href="https://github.com/conda-forge/dcmtk-feedstock" xlink:title="dcmtk">
<ellipse fill="#35b779" stroke="black" cx="1261.01" cy="-90" rx="42.26" ry="18"/>
<text text-anchor="middle" x="1261.01" y="-85.33" font-family="Times,serif" font-size="14.00">dcmtk</text>
</a>
</g>
</g>
<!-- dcmtk&#45;&gt;nyxus -->
<g id="edge80" class="edge">
<title>dcmtk&#45;&gt;nyxus</title>
<path fill="none" stroke="black" d="M1261.01,-71.7C1261.01,-64.24 1261.01,-55.32 1261.01,-46.97"/>
<polygon fill="black" stroke="black" points="1264.51,-47.1 1261.01,-37.1 1257.51,-47.1 1264.51,-47.1"/>
</g>
</g>
</svg>
