<?xml version="1.0" encoding="UTF-8" standalone="no"?>
<!DOCTYPE svg PUBLIC "-//W3C//DTD SVG 1.1//EN"
 "http://www.w3.org/Graphics/SVG/1.1/DTD/svg11.dtd">
<!-- Generated by graphviz version 8.1.0 (20230707.2238)
 -->
<!-- Pages: 1 -->
<svg width="2499pt" height="952pt"
 viewBox="0.00 0.00 2499.46 952.00" xmlns="http://www.w3.org/2000/svg" xmlns:xlink="http://www.w3.org/1999/xlink">
<g id="graph0" class="graph" transform="scale(1 1) rotate(0) translate(4 948)">
<polygon fill="white" stroke="none" points="-4,4 -4,-948 2495.46,-948 2495.46,4 -4,4"/>
<!-- emacs -->
<g id="node1" class="node">
<title>emacs</title>
<g id="a_node1"><a xlink:href="https://github.com/conda-forge/emacs-feedstock" xlink:title="emacs">
<ellipse fill="#35b779" stroke="black" cx="2196.36" cy="-926" rx="42.79" ry="18"/>
<text text-anchor="middle" x="2196.36" y="-921.33" font-family="Times,serif" font-size="14.00">emacs</text>
</a>
</g>
</g>
<!-- libcdms -->
<g id="node2" class="node">
<title>libcdms</title>
<g id="a_node2"><a xlink:href="https://github.com/conda-forge/libcdms-feedstock" xlink:title="libcdms">
<ellipse fill="#35b779" stroke="black" cx="2196.36" cy="-854" rx="50.16" ry="18"/>
<text text-anchor="middle" x="2196.36" y="-849.33" font-family="Times,serif" font-size="14.00">libcdms</text>
</a>
</g>
</g>
<!-- emacs&#45;&gt;libcdms -->
<!-- libitk -->
<g id="node9" class="node">
<title>libitk</title>
<g id="a_node9"><a xlink:href="https://github.com/conda-forge/libitk-feedstock/pull/85" xlink:title="libitk ❎">
<ellipse fill="#31688e" stroke="black" cx="2196.36" cy="-782" rx="52.26" ry="18"/>
<text text-anchor="middle" x="2196.36" y="-777.33" font-family="Times,serif" font-size="14.00" fill="white">libitk ❎</text>
</a>
</g>
</g>
<!-- libcdms&#45;&gt;libitk -->
<!-- freeimage -->
<g id="node3" class="node">
<title>freeimage</title>
<g id="a_node3"><a xlink:href="https://github.com/conda-forge/freeimage-feedstock" xlink:title="freeimage">
<ellipse fill="#fde725" stroke="black" cx="402.36" cy="-674" rx="61.73" ry="18"/>
<text text-anchor="middle" x="402.36" y="-669.33" font-family="Times,serif" font-size="14.00">freeimage</text>
</a>
</g>
</g>
<!-- gdal -->
<g id="node4" class="node">
<title>gdal</title>
<g id="a_node4"><a xlink:href="https://github.com/conda-forge/gdal-feedstock" xlink:title="gdal">
<ellipse fill="#fde725" stroke="black" cx="188.36" cy="-602" rx="32.79" ry="18"/>
<text text-anchor="middle" x="188.36" y="-597.33" font-family="Times,serif" font-size="14.00">gdal</text>
</a>
</g>
</g>
<!-- geotiff -->
<g id="node5" class="node">
<title>geotiff</title>
<g id="a_node5"><a xlink:href="https://github.com/conda-forge/geotiff-feedstock/pull/61" xlink:title="geotiff ✓">
<ellipse fill="#31688e" stroke="black" cx="154.36" cy="-674" rx="51.21" ry="18"/>
<text text-anchor="middle" x="154.36" y="-669.33" font-family="Times,serif" font-size="14.00" fill="white">geotiff ✓</text>
</a>
</g>
</g>
<!-- geotiff&#45;&gt;gdal -->
<g id="edge2" class="edge">
<title>geotiff&#45;&gt;gdal</title>
<path fill="none" stroke="black" d="M162.59,-656.05C166.48,-648.06 171.2,-638.33 175.54,-629.4"/>
<polygon fill="black" stroke="black" points="178.99,-631.31 180.21,-620.79 172.69,-628.25 178.99,-631.31"/>
</g>
<!-- imagemagick -->
<g id="node6" class="node">
<title>imagemagick</title>
<g id="a_node6"><a xlink:href="https://github.com/conda-forge/imagemagick-feedstock" xlink:title="imagemagick">
<ellipse fill="#fde725" stroke="black" cx="1146.36" cy="-602" rx="77.52" ry="18"/>
<text text-anchor="middle" x="1146.36" y="-597.33" font-family="Times,serif" font-size="14.00">imagemagick</text>
</a>
</g>
</g>
<!-- libvips -->
<g id="node7" class="node">
<title>libvips</title>
<g id="a_node7"><a xlink:href="https://github.com/conda-forge/libvips-feedstock" xlink:title="libvips">
<ellipse fill="#fde725" stroke="black" cx="335.36" cy="-530" rx="44.37" ry="18"/>
<text text-anchor="middle" x="335.36" y="-525.33" font-family="Times,serif" font-size="14.00">libvips</text>
</a>
</g>
</g>
<!-- imagemagick&#45;&gt;libvips -->
<g id="edge3" class="edge">
<title>imagemagick&#45;&gt;libvips</title>
<path fill="none" stroke="black" d="M1089.59,-589.51C1077.97,-587.44 1065.8,-585.47 1054.36,-584 807.88,-552.24 511.23,-537.86 390.5,-533.01"/>
<polygon fill="black" stroke="black" points="390.84,-529.48 380.71,-532.58 390.57,-536.48 390.84,-529.48"/>
</g>
<!-- imread -->
<g id="node8" class="node">
<title>imread</title>
<g id="a_node8"><a xlink:href="https://github.com/conda-forge/imread-feedstock" xlink:title="imread">
<ellipse fill="#fde725" stroke="black" cx="1221.36" cy="-674" rx="46.47" ry="18"/>
<text text-anchor="middle" x="1221.36" y="-669.33" font-family="Times,serif" font-size="14.00">imread</text>
</a>
</g>
</g>
<!-- astromatic&#45;stiff -->
<g id="node13" class="node">
<title>astromatic&#45;stiff</title>
<g id="a_node13"><a xlink:href="https://github.com/conda-forge/astromatic-stiff-feedstock" xlink:title="astromatic stiff">
<ellipse fill="#35b779" stroke="black" cx="2196.36" cy="-710" rx="87.51" ry="18"/>
<text text-anchor="middle" x="2196.36" y="-705.33" font-family="Times,serif" font-size="14.00">astromatic stiff</text>
</a>
</g>
</g>
<!-- libitk&#45;&gt;astromatic&#45;stiff -->
<!-- libgd -->
<g id="node10" class="node">
<title>libgd</title>
<g id="a_node10"><a xlink:href="https://github.com/conda-forge/libgd-feedstock" xlink:title="libgd">
<ellipse fill="#fde725" stroke="black" cx="1322.36" cy="-674" rx="36.48" ry="18"/>
<text text-anchor="middle" x="1322.36" y="-669.33" font-family="Times,serif" font-size="14.00">libgd</text>
</a>
</g>
</g>
<!-- libgd&#45;&gt;imagemagick -->
<g id="edge5" class="edge">
<title>libgd&#45;&gt;imagemagick</title>
<path fill="none" stroke="black" d="M1294.48,-661.91C1267.62,-651.23 1226.47,-634.86 1194.35,-622.09"/>
<polygon fill="black" stroke="black" points="1195.86,-618.52 1185.27,-618.08 1193.27,-625.02 1195.86,-618.52"/>
</g>
<!-- graphicsmagick -->
<g id="node11" class="node">
<title>graphicsmagick</title>
<g id="a_node11"><a xlink:href="https://github.com/conda-forge/graphicsmagick-feedstock" xlink:title="graphicsmagick">
<ellipse fill="#fde725" stroke="black" cx="1332.36" cy="-602" rx="90.14" ry="18"/>
<text text-anchor="middle" x="1332.36" y="-597.33" font-family="Times,serif" font-size="14.00">graphicsmagick</text>
</a>
</g>
</g>
<!-- libgd&#45;&gt;graphicsmagick -->
<g id="edge6" class="edge">
<title>libgd&#45;&gt;graphicsmagick</title>
<path fill="none" stroke="black" d="M1324.84,-655.7C1325.9,-648.24 1327.17,-639.32 1328.37,-630.97"/>
<polygon fill="black" stroke="black" points="1331.97,-631.5 1329.92,-621.1 1325.04,-630.51 1331.97,-631.5"/>
</g>
<!-- root -->
<g id="node12" class="node">
<title>root</title>
<g id="a_node12"><a xlink:href="https://github.com/conda-forge/root-feedstock" xlink:title="root">
<ellipse fill="#fde725" stroke="black" cx="1696.36" cy="-602" rx="31.74" ry="18"/>
<text text-anchor="middle" x="1696.36" y="-597.33" font-family="Times,serif" font-size="14.00">root</text>
</a>
</g>
</g>
<!-- libgd&#45;&gt;root -->
<g id="edge7" class="edge">
<title>libgd&#45;&gt;root</title>
<path fill="none" stroke="black" d="M1358.44,-670.06C1420.2,-664.41 1549.74,-649.85 1655.36,-620 1657.65,-619.35 1659.99,-618.61 1662.32,-617.82"/>
<polygon fill="black" stroke="black" points="1663.28,-620.82 1671.42,-614.03 1660.82,-614.26 1663.28,-620.82"/>
</g>
<!-- netpbm -->
<g id="node41" class="node">
<title>netpbm</title>
<g id="a_node41"><a xlink:href="https://github.com/conda-forge/netpbm-feedstock" xlink:title="netpbm">
<ellipse fill="#35b779" stroke="black" cx="2196.36" cy="-638" rx="49.63" ry="18"/>
<text text-anchor="middle" x="2196.36" y="-633.33" font-family="Times,serif" font-size="14.00">netpbm</text>
</a>
</g>
</g>
<!-- astromatic&#45;stiff&#45;&gt;netpbm -->
<!-- opencv -->
<g id="node14" class="node">
<title>opencv</title>
<g id="a_node14"><a xlink:href="https://github.com/conda-forge/opencv-feedstock" xlink:title="opencv">
<ellipse fill="#fde725" stroke="black" cx="1600.36" cy="-602" rx="46.47" ry="18"/>
<text text-anchor="middle" x="1600.36" y="-597.33" font-family="Times,serif" font-size="14.00">opencv</text>
</a>
</g>
</g>
<!-- openjpeg -->
<g id="node15" class="node">
<title>openjpeg</title>
<g id="a_node15"><a xlink:href="https://github.com/conda-forge/openjpeg-feedstock/pull/48" xlink:title="openjpeg ✓">
<ellipse fill="#31688e" stroke="black" cx="447.36" cy="-746" rx="64.89" ry="18"/>
<text text-anchor="middle" x="447.36" y="-741.33" font-family="Times,serif" font-size="14.00" fill="white">openjpeg ✓</text>
</a>
</g>
</g>
<!-- openjpeg&#45;&gt;freeimage -->
<g id="edge9" class="edge">
<title>openjpeg&#45;&gt;freeimage</title>
<path fill="none" stroke="black" d="M436.47,-728.05C431.22,-719.89 424.81,-709.91 418.96,-700.82"/>
<polygon fill="black" stroke="black" points="421.51,-699.31 413.16,-692.79 415.62,-703.09 421.51,-699.31"/>
</g>
<!-- openjpeg&#45;&gt;gdal -->
<g id="edge10" class="edge">
<title>openjpeg&#45;&gt;gdal</title>
<path fill="none" stroke="black" d="M382.12,-744.94C290.49,-743.3 130.76,-734.27 94.36,-692 83.92,-679.88 86.29,-669.82 94.36,-656 101.1,-644.46 129.51,-629.33 153.35,-618.19"/>
<polygon fill="black" stroke="black" points="154.57,-621.02 162.21,-613.68 151.66,-614.66 154.57,-621.02"/>
</g>
<!-- openjpeg&#45;&gt;imagemagick -->
<g id="edge11" class="edge">
<title>openjpeg&#45;&gt;imagemagick</title>
<path fill="none" stroke="black" d="M512.57,-744.66C648.49,-743.08 957.35,-734.74 1052.36,-692 1083.39,-678.04 1110.59,-649.47 1127.64,-628.45"/>
<polygon fill="black" stroke="black" points="1130.88,-630.99 1134.31,-620.97 1125.38,-626.67 1130.88,-630.99"/>
</g>
<!-- openjpeg&#45;&gt;libvips -->
<g id="edge12" class="edge">
<title>openjpeg&#45;&gt;libvips</title>
<path fill="none" stroke="black" d="M383.64,-741.99C289.33,-736.58 118.06,-722.75 65.36,-692 30.58,-671.71 23.27,-658.15 10.36,-620 5.24,-604.84 0,-596.19 10.36,-584 44.34,-544.03 196.61,-534.13 280.12,-531.73"/>
<polygon fill="black" stroke="black" points="280.03,-535.21 289.93,-531.45 279.85,-528.21 280.03,-535.21"/>
</g>
<!-- pillow -->
<g id="node16" class="node">
<title>pillow</title>
<g id="a_node16"><a xlink:href="https://github.com/conda-forge/pillow-feedstock" xlink:title="pillow">
<ellipse fill="#fde725" stroke="black" cx="1002.36" cy="-674" rx="41.21" ry="18"/>
<text text-anchor="middle" x="1002.36" y="-669.33" font-family="Times,serif" font-size="14.00">pillow</text>
</a>
</g>
</g>
<!-- openjpeg&#45;&gt;pillow -->
<g id="edge13" class="edge">
<title>openjpeg&#45;&gt;pillow</title>
<path fill="none" stroke="black" d="M511.47,-742.85C608.08,-738.58 796.3,-726.27 952.36,-692 955.39,-691.34 958.48,-690.55 961.58,-689.69"/>
<polygon fill="black" stroke="black" points="962.44,-692.78 971,-686.53 960.41,-686.08 962.44,-692.78"/>
</g>
<!-- poppler -->
<g id="node17" class="node">
<title>poppler</title>
<g id="a_node17"><a xlink:href="https://github.com/conda-forge/poppler-feedstock" xlink:title="poppler">
<ellipse fill="#fde725" stroke="black" cx="273.36" cy="-674" rx="49.63" ry="18"/>
<text text-anchor="middle" x="273.36" y="-669.33" font-family="Times,serif" font-size="14.00">poppler</text>
</a>
</g>
</g>
<!-- openjpeg&#45;&gt;poppler -->
<g id="edge14" class="edge">
<title>openjpeg&#45;&gt;poppler</title>
<path fill="none" stroke="black" d="M411.73,-730.67C383.89,-719.47 345.12,-703.87 315.7,-692.03"/>
<polygon fill="black" stroke="black" points="317.3,-688.5 306.72,-688.02 314.69,-695 317.3,-688.5"/>
</g>
<!-- leptonica -->
<g id="node18" class="node">
<title>leptonica</title>
<g id="a_node18"><a xlink:href="https://github.com/conda-forge/leptonica-feedstock" xlink:title="leptonica">
<ellipse fill="#fde725" stroke="black" cx="577.36" cy="-674" rx="57" ry="18"/>
<text text-anchor="middle" x="577.36" y="-669.33" font-family="Times,serif" font-size="14.00">leptonica</text>
</a>
</g>
</g>
<!-- openjpeg&#45;&gt;leptonica -->
<g id="edge15" class="edge">
<title>openjpeg&#45;&gt;leptonica</title>
<path fill="none" stroke="black" d="M476.21,-729.46C494.99,-719.36 519.65,-706.07 539.93,-695.16"/>
<polygon fill="black" stroke="black" points="541.34,-697.83 548.49,-690.01 538.02,-691.67 541.34,-697.83"/>
</g>
<!-- tesseract -->
<g id="node19" class="node">
<title>tesseract</title>
<g id="a_node19"><a xlink:href="https://github.com/conda-forge/tesseract-feedstock" xlink:title="tesseract">
<ellipse fill="#fde725" stroke="black" cx="577.36" cy="-602" rx="57.52" ry="18"/>
<text text-anchor="middle" x="577.36" y="-597.33" font-family="Times,serif" font-size="14.00">tesseract</text>
</a>
</g>
</g>
<!-- openjpeg&#45;&gt;tesseract -->
<g id="edge16" class="edge">
<title>openjpeg&#45;&gt;tesseract</title>
<path fill="none" stroke="black" d="M457.68,-727.9C469.42,-709.17 489.76,-678.79 511.36,-656 521.84,-644.95 534.64,-634.17 546.18,-625.24"/>
<polygon fill="black" stroke="black" points="547.82,-627.63 553.69,-618.8 543.6,-622.04 547.82,-627.63"/>
</g>
<!-- openslide -->
<g id="node20" class="node">
<title>openslide</title>
<g id="a_node20"><a xlink:href="https://github.com/conda-forge/openslide-feedstock" xlink:title="openslide">
<ellipse fill="#fde725" stroke="black" cx="78.36" cy="-602" rx="59.1" ry="18"/>
<text text-anchor="middle" x="78.36" y="-597.33" font-family="Times,serif" font-size="14.00">openslide</text>
</a>
</g>
</g>
<!-- openjpeg&#45;&gt;openslide -->
<g id="edge17" class="edge">
<title>openjpeg&#45;&gt;openslide</title>
<path fill="none" stroke="black" d="M382.38,-745C288.65,-743.5 122.44,-734.69 83.36,-692 68.6,-675.87 68.61,-650.44 71.58,-630.89"/>
<polygon fill="black" stroke="black" points="75.19,-631.64 73.59,-621.17 68.31,-630.35 75.19,-631.64"/>
</g>
<!-- imagecodecs -->
<g id="node21" class="node">
<title>imagecodecs</title>
<g id="a_node21"><a xlink:href="https://github.com/conda-forge/imagecodecs-feedstock" xlink:title="imagecodecs">
<ellipse fill="#fde725" stroke="black" cx="765.36" cy="-674" rx="75.41" ry="18"/>
<text text-anchor="middle" x="765.36" y="-669.33" font-family="Times,serif" font-size="14.00">imagecodecs</text>
</a>
</g>
</g>
<!-- openjpeg&#45;&gt;imagecodecs -->
<g id="edge18" class="edge">
<title>openjpeg&#45;&gt;imagecodecs</title>
<path fill="none" stroke="black" d="M497.05,-734.06C551.93,-721.98 640.47,-702.49 700.71,-689.23"/>
<polygon fill="black" stroke="black" points="701.23,-692.48 710.24,-686.91 699.72,-685.65 701.23,-692.48"/>
</g>
<!-- paraview -->
<g id="node22" class="node">
<title>paraview</title>
<g id="a_node22"><a xlink:href="https://github.com/conda-forge/paraview-feedstock" xlink:title="paraview">
<ellipse fill="#fde725" stroke="black" cx="917.36" cy="-602" rx="57" ry="18"/>
<text text-anchor="middle" x="917.36" y="-597.33" font-family="Times,serif" font-size="14.00">paraview</text>
</a>
</g>
</g>
<!-- pillow&#45;&gt;paraview -->
<g id="edge19" class="edge">
<title>pillow&#45;&gt;paraview</title>
<path fill="none" stroke="black" d="M983.92,-657.81C972.65,-648.53 958.02,-636.48 945.35,-626.05"/>
<polygon fill="black" stroke="black" points="947.9,-622.79 937.95,-619.13 943.45,-628.19 947.9,-622.79"/>
</g>
<!-- wxpython -->
<g id="node23" class="node">
<title>wxpython</title>
<g id="a_node23"><a xlink:href="https://github.com/conda-forge/wxpython-feedstock" xlink:title="wxpython">
<ellipse fill="#fde725" stroke="black" cx="1002.36" cy="-530" rx="60.15" ry="18"/>
<text text-anchor="middle" x="1002.36" y="-525.33" font-family="Times,serif" font-size="14.00">wxpython</text>
</a>
</g>
</g>
<!-- pillow&#45;&gt;wxpython -->
<g id="edge20" class="edge">
<title>pillow&#45;&gt;wxpython</title>
<path fill="none" stroke="black" d="M1002.36,-655.59C1002.36,-631.5 1002.36,-587.75 1002.36,-559.03"/>
<polygon fill="black" stroke="black" points="1005.86,-559.11 1002.36,-549.11 998.86,-559.11 1005.86,-559.11"/>
</g>
<!-- puma -->
<g id="node24" class="node">
<title>puma</title>
<g id="a_node24"><a xlink:href="https://github.com/conda-forge/puma-feedstock" xlink:title="puma">
<ellipse fill="#fde725" stroke="black" cx="803.36" cy="-602" rx="39.11" ry="18"/>
<text text-anchor="middle" x="803.36" y="-597.33" font-family="Times,serif" font-size="14.00">puma</text>
</a>
</g>
</g>
<!-- pillow&#45;&gt;puma -->
<g id="edge21" class="edge">
<title>pillow&#45;&gt;puma</title>
<path fill="none" stroke="black" d="M970.83,-661.96C940.28,-651.26 892.63,-634.55 851.36,-620 848.97,-619.16 846.51,-618.29 844.03,-617.41"/>
<polygon fill="black" stroke="black" points="845.42,-613.84 834.83,-613.8 843.09,-620.44 845.42,-613.84"/>
</g>
<!-- poppler&#45;&gt;gdal -->
<g id="edge22" class="edge">
<title>poppler&#45;&gt;gdal</title>
<path fill="none" stroke="black" d="M254.08,-657.12C242.38,-647.48 227.29,-635.06 214.52,-624.54"/>
<polygon fill="black" stroke="black" points="217.07,-621.28 207.13,-617.63 212.62,-626.69 217.07,-621.28"/>
</g>
<!-- poppler&#45;&gt;libvips -->
<g id="edge23" class="edge">
<title>poppler&#45;&gt;libvips</title>
<path fill="none" stroke="black" d="M289.96,-656.76C299.07,-646.93 309.82,-633.68 316.36,-620 325.58,-600.73 330.36,-577 332.82,-558.89"/>
<polygon fill="black" stroke="black" points="336.39,-559.51 334.1,-549.16 329.44,-558.68 336.39,-559.51"/>
</g>
<!-- sane -->
<g id="node25" class="node">
<title>sane</title>
<g id="a_node25"><a xlink:href="https://github.com/conda-forge/sane-feedstock" xlink:title="sane">
<ellipse fill="#fde725" stroke="black" cx="273.36" cy="-602" rx="34.37" ry="18"/>
<text text-anchor="middle" x="273.36" y="-597.33" font-family="Times,serif" font-size="14.00">sane</text>
</a>
</g>
</g>
<!-- poppler&#45;&gt;sane -->
<g id="edge24" class="edge">
<title>poppler&#45;&gt;sane</title>
<path fill="none" stroke="black" d="M273.36,-655.7C273.36,-648.24 273.36,-639.32 273.36,-630.97"/>
<polygon fill="black" stroke="black" points="276.86,-631.1 273.36,-621.1 269.86,-631.1 276.86,-631.1"/>
</g>
<!-- leptonica&#45;&gt;tesseract -->
<g id="edge25" class="edge">
<title>leptonica&#45;&gt;tesseract</title>
<path fill="none" stroke="black" d="M577.36,-655.7C577.36,-648.24 577.36,-639.32 577.36,-630.97"/>
<polygon fill="black" stroke="black" points="580.86,-631.1 577.36,-621.1 573.86,-631.1 580.86,-631.1"/>
</g>
<!-- openslide&#45;&gt;libvips -->
<g id="edge26" class="edge">
<title>openslide&#45;&gt;libvips</title>
<path fill="none" stroke="black" d="M121.38,-589.28C167.74,-576.66 241.28,-556.63 288.93,-543.65"/>
<polygon fill="black" stroke="black" points="289.54,-546.84 298.27,-540.83 287.7,-540.08 289.54,-546.84"/>
</g>
<!-- imagecodecs&#45;&gt;puma -->
<g id="edge27" class="edge">
<title>imagecodecs&#45;&gt;puma</title>
<path fill="none" stroke="black" d="M774.76,-655.7C779.1,-647.7 784.35,-638.02 789.17,-629.15"/>
<polygon fill="black" stroke="black" points="792.64,-631.08 794.34,-620.62 786.49,-627.74 792.64,-631.08"/>
</g>
<!-- r&#45;base -->
<g id="node26" class="node">
<title>r&#45;base</title>
<g id="a_node26"><a xlink:href="https://github.com/conda-forge/r-base-feedstock/pull/274" xlink:title="r base ✓">
<ellipse fill="#31688e" stroke="black" cx="1872.36" cy="-674" rx="50.16" ry="18"/>
<text text-anchor="middle" x="1872.36" y="-669.33" font-family="Times,serif" font-size="14.00" fill="white">r base ✓</text>
</a>
</g>
</g>
<!-- r&#45;base&#45;&gt;root -->
<g id="edge28" class="edge">
<title>r&#45;base&#45;&gt;root</title>
<path fill="none" stroke="black" d="M1839.67,-660C1809.04,-647.81 1763.36,-629.65 1731.85,-617.12"/>
<polygon fill="black" stroke="black" points="1733.34,-613.54 1722.75,-613.1 1730.75,-620.05 1733.34,-613.54"/>
</g>
<!-- r&#45;cairo -->
<g id="node27" class="node">
<title>r&#45;cairo</title>
<g id="a_node27"><a xlink:href="https://github.com/conda-forge/r-cairo-feedstock" xlink:title="r cairo">
<ellipse fill="#fde725" stroke="black" cx="2015.36" cy="-602" rx="43.84" ry="18"/>
<text text-anchor="middle" x="2015.36" y="-597.33" font-family="Times,serif" font-size="14.00">r cairo</text>
</a>
</g>
</g>
<!-- r&#45;base&#45;&gt;r&#45;cairo -->
<g id="edge29" class="edge">
<title>r&#45;base&#45;&gt;r&#45;cairo</title>
<path fill="none" stroke="black" d="M1901.3,-658.83C1923.44,-648 1954.13,-632.97 1978.11,-621.24"/>
<polygon fill="black" stroke="black" points="1979.48,-623.97 1986.92,-616.43 1976.4,-617.69 1979.48,-623.97"/>
</g>
<!-- r&#45;tiff -->
<g id="node28" class="node">
<title>r&#45;tiff</title>
<g id="a_node28"><a xlink:href="https://github.com/conda-forge/r-tiff-feedstock" xlink:title="r tiff">
<ellipse fill="#fde725" stroke="black" cx="1835.36" cy="-530" rx="33.32" ry="18"/>
<text text-anchor="middle" x="1835.36" y="-525.33" font-family="Times,serif" font-size="14.00">r tiff</text>
</a>
</g>
</g>
<!-- r&#45;base&#45;&gt;r&#45;tiff -->
<g id="edge30" class="edge">
<title>r&#45;base&#45;&gt;r&#45;tiff</title>
<path fill="none" stroke="black" d="M1867.83,-655.59C1861.52,-631.4 1850.05,-587.36 1842.57,-558.65"/>
<polygon fill="black" stroke="black" points="1845.73,-557.91 1839.82,-549.11 1838.96,-559.67 1845.73,-557.91"/>
</g>
<!-- r&#45;ragg -->
<g id="node29" class="node">
<title>r&#45;ragg</title>
<g id="a_node29"><a xlink:href="https://github.com/conda-forge/r-ragg-feedstock" xlink:title="r ragg">
<ellipse fill="#fde725" stroke="black" cx="1746.36" cy="-458" rx="42.26" ry="18"/>
<text text-anchor="middle" x="1746.36" y="-453.32" font-family="Times,serif" font-size="14.00">r ragg</text>
</a>
</g>
</g>
<!-- r&#45;base&#45;&gt;r&#45;ragg -->
<g id="edge31" class="edge">
<title>r&#45;base&#45;&gt;r&#45;ragg</title>
<path fill="none" stroke="black" d="M1861.21,-656.27C1845.51,-632.53 1816.26,-587.55 1793.36,-548 1781.44,-527.39 1768.89,-503.51 1759.76,-485.68"/>
<polygon fill="black" stroke="black" points="1762.47,-484.27 1754.82,-476.94 1756.23,-487.44 1762.47,-484.27"/>
</g>
<!-- r&#45;rtiff -->
<g id="node30" class="node">
<title>r&#45;rtiff</title>
<g id="a_node30"><a xlink:href="https://github.com/conda-forge/r-rtiff-feedstock" xlink:title="r rtiff">
<ellipse fill="#fde725" stroke="black" cx="1943.36" cy="-386" rx="38.06" ry="18"/>
<text text-anchor="middle" x="1943.36" y="-381.32" font-family="Times,serif" font-size="14.00">r rtiff</text>
</a>
</g>
</g>
<!-- r&#45;base&#45;&gt;r&#45;rtiff -->
<g id="edge32" class="edge">
<title>r&#45;base&#45;&gt;r&#45;rtiff</title>
<path fill="none" stroke="black" d="M1879.9,-656.07C1884.27,-645.79 1889.63,-632.31 1893.36,-620 1915.42,-547.32 1931.56,-459.05 1938.92,-414.93"/>
<polygon fill="black" stroke="black" points="1942.51,-415.64 1940.68,-405.2 1935.61,-414.5 1942.51,-415.64"/>
</g>
<!-- r&#45;imager -->
<g id="node31" class="node">
<title>r&#45;imager</title>
<g id="a_node31"><a xlink:href="https://github.com/conda-forge/r-imager-feedstock" xlink:title="r imager">
<ellipse fill="#fde725" stroke="black" cx="1861.36" cy="-458" rx="54.36" ry="18"/>
<text text-anchor="middle" x="1861.36" y="-453.32" font-family="Times,serif" font-size="14.00">r imager</text>
</a>
</g>
</g>
<!-- r&#45;base&#45;&gt;r&#45;imager -->
<g id="edge33" class="edge">
<title>r&#45;base&#45;&gt;r&#45;imager</title>
<path fill="none" stroke="black" d="M1874.86,-655.96C1878.75,-626.46 1885.04,-564.01 1877.36,-512 1876.11,-503.5 1873.78,-494.48 1871.28,-486.33"/>
<polygon fill="black" stroke="black" points="1874.3,-485.3 1867.85,-476.9 1867.65,-487.49 1874.3,-485.3"/>
</g>
<!-- r&#45;tiff&#45;&gt;r&#45;imager -->
<g id="edge34" class="edge">
<title>r&#45;tiff&#45;&gt;r&#45;imager</title>
<path fill="none" stroke="black" d="M1841.66,-512.05C1844.52,-504.35 1847.98,-495.03 1851.2,-486.36"/>
<polygon fill="black" stroke="black" points="1854.75,-487.87 1854.95,-477.28 1848.18,-485.43 1854.75,-487.87"/>
</g>
<!-- vigra -->
<g id="node32" class="node">
<title>vigra</title>
<g id="a_node32"><a xlink:href="https://github.com/conda-forge/vigra-feedstock" xlink:title="vigra">
<ellipse fill="#ff8c00" stroke="black" cx="934.36" cy="-162" rx="37" ry="18"/>
<text text-anchor="middle" x="934.36" y="-157.32" font-family="Times,serif" font-size="14.00">vigra</text>
</a>
</g>
</g>
<!-- enblend -->
<g id="node33" class="node">
<title>enblend</title>
<g id="a_node33"><a xlink:href="https://github.com/conda-forge/enblend-feedstock" xlink:title="enblend">
<ellipse fill="#fde725" stroke="black" cx="894.36" cy="-90" rx="51.21" ry="18"/>
<text text-anchor="middle" x="894.36" y="-85.33" font-family="Times,serif" font-size="14.00">enblend</text>
</a>
</g>
</g>
<!-- vigra&#45;&gt;enblend -->
<g id="edge35" class="edge">
<title>vigra&#45;&gt;enblend</title>
<path fill="none" stroke="black" d="M924.88,-144.41C920.27,-136.34 914.61,-126.43 909.42,-117.35"/>
<polygon fill="black" stroke="black" points="912.05,-115.9 904.05,-108.96 905.98,-119.38 912.05,-115.9"/>
</g>
<!-- hugin -->
<g id="node34" class="node">
<title>hugin</title>
<g id="a_node34"><a xlink:href="https://github.com/conda-forge/hugin-feedstock" xlink:title="hugin">
<ellipse fill="#fde725" stroke="black" cx="1017.36" cy="-18" rx="39.63" ry="18"/>
<text text-anchor="middle" x="1017.36" y="-13.32" font-family="Times,serif" font-size="14.00">hugin</text>
</a>
</g>
</g>
<!-- vigra&#45;&gt;hugin -->
<g id="edge36" class="edge">
<title>vigra&#45;&gt;hugin</title>
<path fill="none" stroke="black" d="M944.21,-144.15C958.5,-119.71 985.12,-74.17 1002,-45.29"/>
<polygon fill="black" stroke="black" points="1005.5,-47.22 1007.53,-36.82 999.46,-43.69 1005.5,-47.22"/>
</g>
<!-- enblend&#45;&gt;hugin -->
<g id="edge37" class="edge">
<title>enblend&#45;&gt;hugin</title>
<path fill="none" stroke="black" d="M920.45,-74.15C938.99,-63.6 964.05,-49.34 984.05,-37.96"/>
<polygon fill="black" stroke="black" points="985.44,-40.62 992.4,-32.64 981.98,-34.54 985.44,-40.62"/>
</g>
<!-- vtk -->
<g id="node35" class="node">
<title>vtk</title>
<g id="a_node35"><a xlink:href="https://github.com/conda-forge/vtk-feedstock/pull/309" xlink:title="vtk ❎">
<ellipse fill="#31688e" stroke="black" cx="901.36" cy="-674" rx="42.26" ry="18"/>
<text text-anchor="middle" x="901.36" y="-669.33" font-family="Times,serif" font-size="14.00" fill="white">vtk ❎</text>
</a>
</g>
</g>
<!-- vtk&#45;&gt;puma -->
<g id="edge38" class="edge">
<title>vtk&#45;&gt;puma</title>
<path fill="none" stroke="black" d="M880.58,-658.15C866.58,-648.16 847.93,-634.83 832.46,-623.78"/>
<polygon fill="black" stroke="black" points="834.95,-620.55 824.78,-617.58 830.88,-626.24 834.95,-620.55"/>
</g>
<!-- libwebp -->
<g id="node36" class="node">
<title>libwebp</title>
<g id="a_node36"><a xlink:href="https://github.com/conda-forge/libwebp-feedstock/pull/53" xlink:title="libwebp ✓">
<ellipse fill="#31688e" stroke="black" cx="1221.36" cy="-746" rx="58.57" ry="18"/>
<text text-anchor="middle" x="1221.36" y="-741.33" font-family="Times,serif" font-size="14.00" fill="white">libwebp ✓</text>
</a>
</g>
</g>
<!-- libwebp&#45;&gt;imagemagick -->
<g id="edge39" class="edge">
<title>libwebp&#45;&gt;imagemagick</title>
<path fill="none" stroke="black" d="M1199.28,-728.92C1187.79,-719.42 1174.49,-706.45 1166.36,-692 1155.87,-673.34 1150.88,-649.58 1148.51,-631.3"/>
<polygon fill="black" stroke="black" points="1151.89,-631.01 1147.32,-621.45 1144.93,-631.77 1151.89,-631.01"/>
</g>
<!-- libwebp&#45;&gt;libvips -->
<g id="edge40" class="edge">
<title>libwebp&#45;&gt;libvips</title>
<path fill="none" stroke="black" d="M1199.26,-729.1C1144.92,-690.14 1007.42,-592.46 983.36,-584 874.61,-545.75 526.88,-534.8 390.75,-531.93"/>
<polygon fill="black" stroke="black" points="390.85,-528.41 380.78,-531.71 390.71,-535.41 390.85,-528.41"/>
</g>
<!-- libwebp&#45;&gt;imread -->
<g id="edge41" class="edge">
<title>libwebp&#45;&gt;imread</title>
<path fill="none" stroke="black" d="M1221.36,-727.7C1221.36,-720.24 1221.36,-711.32 1221.36,-702.97"/>
<polygon fill="black" stroke="black" points="1224.86,-703.1 1221.36,-693.1 1217.86,-703.1 1224.86,-703.1"/>
</g>
<!-- libwebp&#45;&gt;libgd -->
<g id="edge42" class="edge">
<title>libwebp&#45;&gt;libgd</title>
<path fill="none" stroke="black" d="M1244.28,-729.12C1258.78,-719.07 1277.65,-705.99 1293.21,-695.2"/>
<polygon fill="black" stroke="black" points="1294.71,-697.73 1300.93,-689.16 1290.72,-691.98 1294.71,-697.73"/>
</g>
<!-- libwebp&#45;&gt;graphicsmagick -->
<g id="edge43" class="edge">
<title>libwebp&#45;&gt;graphicsmagick</title>
<path fill="none" stroke="black" d="M1277.3,-740.12C1309.33,-734.13 1347.09,-720.93 1367.36,-692 1380.96,-672.6 1368.53,-647.19 1354.86,-628.48"/>
<polygon fill="black" stroke="black" points="1357.08,-626.63 1348.16,-620.9 1351.56,-630.93 1357.08,-626.63"/>
</g>
<!-- libwebp&#45;&gt;opencv -->
<g id="edge44" class="edge">
<title>libwebp&#45;&gt;opencv</title>
<path fill="none" stroke="black" d="M1278.11,-740.95C1357.81,-734.38 1497.91,-719.28 1540.36,-692 1563.19,-677.33 1579.46,-650.55 1589.25,-630.19"/>
<polygon fill="black" stroke="black" points="1592.83,-631.77 1593.78,-621.22 1586.46,-628.88 1592.83,-631.77"/>
</g>
<!-- libwebp&#45;&gt;pillow -->
<g id="edge45" class="edge">
<title>libwebp&#45;&gt;pillow</title>
<path fill="none" stroke="black" d="M1181.7,-732.32C1143.2,-720.02 1084.93,-701.39 1045.34,-688.74"/>
<polygon fill="black" stroke="black" points="1046.54,-685.13 1035.95,-685.42 1044.41,-691.79 1046.54,-685.13"/>
</g>
<!-- libwebp&#45;&gt;leptonica -->
<g id="edge46" class="edge">
<title>libwebp&#45;&gt;leptonica</title>
<path fill="none" stroke="black" d="M1163.68,-742.39C1059.97,-737.1 835.4,-722.88 648.36,-692 642.58,-691.05 636.57,-689.88 630.6,-688.61"/>
<polygon fill="black" stroke="black" points="631.49,-685 620.96,-686.24 629.96,-691.83 631.49,-685"/>
</g>
<!-- libwebp&#45;&gt;tesseract -->
<g id="edge47" class="edge">
<title>libwebp&#45;&gt;tesseract</title>
<path fill="none" stroke="black" d="M1162.91,-744.01C1041.44,-741.19 765.99,-730.62 681.36,-692 660.2,-682.34 660.89,-671.3 643.36,-656 631.63,-645.76 618.3,-634.91 606.7,-625.72"/>
<polygon fill="black" stroke="black" points="609.25,-622.49 599.23,-619.05 604.92,-627.98 609.25,-622.49"/>
</g>
<!-- libwebp&#45;&gt;imagecodecs -->
<g id="edge48" class="edge">
<title>libwebp&#45;&gt;imagecodecs</title>
<path fill="none" stroke="black" d="M1167.77,-738.29C1095.51,-729.03 962.91,-711.28 850.36,-692 844.19,-690.94 837.77,-689.78 831.36,-688.57"/>
<polygon fill="black" stroke="black" points="832.09,-684.96 821.61,-686.51 830.77,-691.83 832.09,-684.96"/>
</g>
<!-- openimageio -->
<g id="node37" class="node">
<title>openimageio</title>
<g id="a_node37"><a xlink:href="https://github.com/conda-forge/openimageio-feedstock" xlink:title="openimageio">
<ellipse fill="#fde725" stroke="black" cx="1385.36" cy="-530" rx="74.88" ry="18"/>
<text text-anchor="middle" x="1385.36" y="-525.33" font-family="Times,serif" font-size="14.00">openimageio</text>
</a>
</g>
</g>
<!-- libwebp&#45;&gt;openimageio -->
<g id="edge49" class="edge">
<title>libwebp&#45;&gt;openimageio</title>
<path fill="none" stroke="black" d="M1272.91,-737.18C1306.95,-729.97 1351.08,-716.52 1383.36,-692 1425.2,-660.23 1449.74,-633.21 1431.36,-584 1427.4,-573.39 1420.24,-563.49 1412.74,-555.19"/>
<polygon fill="black" stroke="black" points="1415.7,-553.19 1406.23,-548.45 1410.68,-558.06 1415.7,-553.19"/>
</g>
<!-- sdl_image -->
<g id="node38" class="node">
<title>sdl_image</title>
<g id="a_node38"><a xlink:href="https://github.com/conda-forge/sdl_image-feedstock" xlink:title="sdl_image">
<ellipse fill="#fde725" stroke="black" cx="1437.36" cy="-458" rx="61.2" ry="18"/>
<text text-anchor="middle" x="1437.36" y="-453.32" font-family="Times,serif" font-size="14.00">sdl_image</text>
</a>
</g>
</g>
<!-- libwebp&#45;&gt;sdl_image -->
<g id="edge50" class="edge">
<title>libwebp&#45;&gt;sdl_image</title>
<path fill="none" stroke="black" d="M1279.1,-742.28C1321.51,-737.46 1378.15,-724.78 1416.36,-692 1479.66,-637.7 1491.74,-592.34 1469.36,-512 1466.75,-502.62 1461.98,-493.25 1456.91,-485.05"/>
<polygon fill="black" stroke="black" points="1459.37,-483.43 1450.93,-477.03 1453.54,-487.3 1459.37,-483.43"/>
</g>
<!-- tomviz -->
<g id="node39" class="node">
<title>tomviz</title>
<g id="a_node39"><a xlink:href="https://github.com/conda-forge/tomviz-feedstock" xlink:title="tomviz">
<ellipse fill="#fde725" stroke="black" cx="1526.36" cy="-386" rx="44.9" ry="18"/>
<text text-anchor="middle" x="1526.36" y="-381.32" font-family="Times,serif" font-size="14.00">tomviz</text>
</a>
</g>
</g>
<!-- libwebp&#45;&gt;tomviz -->
<g id="edge51" class="edge">
<title>libwebp&#45;&gt;tomviz</title>
<path fill="none" stroke="black" d="M1279.45,-743.18C1367.94,-736.95 1526.36,-710.76 1526.36,-603 1526.36,-603 1526.36,-603 1526.36,-529 1526.36,-489.57 1526.36,-443.97 1526.36,-415.31"/>
<polygon fill="black" stroke="black" points="1529.86,-415.49 1526.36,-405.49 1522.86,-415.49 1529.86,-415.49"/>
</g>
<!-- afterimage -->
<g id="node40" class="node">
<title>afterimage</title>
<g id="a_node40"><a xlink:href="https://github.com/conda-forge/afterimage-feedstock" xlink:title="afterimage">
<ellipse fill="#ff8c00" stroke="black" cx="1696.36" cy="-674" rx="65.94" ry="18"/>
<text text-anchor="middle" x="1696.36" y="-669.33" font-family="Times,serif" font-size="14.00">afterimage</text>
</a>
</g>
</g>
<!-- afterimage&#45;&gt;root -->
<g id="edge52" class="edge">
<title>afterimage&#45;&gt;root</title>
<path fill="none" stroke="black" d="M1696.36,-655.7C1696.36,-648.24 1696.36,-639.32 1696.36,-630.97"/>
<polygon fill="black" stroke="black" points="1699.86,-631.1 1696.36,-621.1 1692.86,-631.1 1699.86,-631.1"/>
</g>
<!-- gnuastro -->
<g id="node42" class="node">
<title>gnuastro</title>
<g id="a_node42"><a xlink:href="https://github.com/conda-forge/gnuastro-feedstock" xlink:title="gnuastro">
<ellipse fill="#35b779" stroke="black" cx="2196.36" cy="-566" rx="55.94" ry="18"/>
<text text-anchor="middle" x="2196.36" y="-561.33" font-family="Times,serif" font-size="14.00">gnuastro</text>
</a>
</g>
</g>
<!-- netpbm&#45;&gt;gnuastro -->
<!-- pylibtiff -->
<g id="node43" class="node">
<title>pylibtiff</title>
<g id="a_node43"><a xlink:href="https://github.com/conda-forge/pylibtiff-feedstock" xlink:title="pylibtiff">
<ellipse fill="#35b779" stroke="black" cx="2196.36" cy="-494" rx="50.16" ry="18"/>
<text text-anchor="middle" x="2196.36" y="-489.32" font-family="Times,serif" font-size="14.00">pylibtiff</text>
</a>
</g>
</g>
<!-- gnuastro&#45;&gt;pylibtiff -->
<!-- openscenegraph -->
<g id="node44" class="node">
<title>openscenegraph</title>
<g id="a_node44"><a xlink:href="https://github.com/conda-forge/openscenegraph-feedstock" xlink:title="openscenegraph">
<ellipse fill="#35b779" stroke="black" cx="2196.36" cy="-422" rx="93.3" ry="18"/>
<text text-anchor="middle" x="2196.36" y="-417.32" font-family="Times,serif" font-size="14.00">openscenegraph</text>
</a>
</g>
</g>
<!-- pylibtiff&#45;&gt;openscenegraph -->
<!-- match&#45;series -->
<g id="node45" class="node">
<title>match&#45;series</title>
<g id="a_node45"><a xlink:href="https://github.com/conda-forge/match-series-feedstock" xlink:title="match series">
<ellipse fill="#35b779" stroke="black" cx="2196.36" cy="-350" rx="75.41" ry="18"/>
<text text-anchor="middle" x="2196.36" y="-345.32" font-family="Times,serif" font-size="14.00">match series</text>
</a>
</g>
</g>
<!-- openscenegraph&#45;&gt;match&#45;series -->
<!-- povray -->
<g id="node47" class="node">
<title>povray</title>
<g id="a_node47"><a xlink:href="https://github.com/conda-forge/povray-feedstock" xlink:title="povray">
<ellipse fill="#35b779" stroke="black" cx="2196.36" cy="-278" rx="45.42" ry="18"/>
<text text-anchor="middle" x="2196.36" y="-273.32" font-family="Times,serif" font-size="14.00">povray</text>
</a>
</g>
</g>
<!-- match&#45;series&#45;&gt;povray -->
<!-- libpano13 -->
<g id="node46" class="node">
<title>libpano13</title>
<g id="a_node46"><a xlink:href="https://github.com/conda-forge/libpano13-feedstock" xlink:title="libpano13">
<ellipse fill="#35b779" stroke="black" cx="1062.36" cy="-90" rx="60.68" ry="18"/>
<text text-anchor="middle" x="1062.36" y="-85.33" font-family="Times,serif" font-size="14.00">libpano13</text>
</a>
</g>
</g>
<!-- libpano13&#45;&gt;hugin -->
<g id="edge58" class="edge">
<title>libpano13&#45;&gt;hugin</title>
<path fill="none" stroke="black" d="M1051.47,-72.05C1046.22,-63.89 1039.81,-53.91 1033.96,-44.82"/>
<polygon fill="black" stroke="black" points="1036.51,-43.31 1028.16,-36.79 1030.62,-47.09 1036.51,-43.31"/>
</g>
<!-- exitwavereconstruction -->
<g id="node49" class="node">
<title>exitwavereconstruction</title>
<g id="a_node49"><a xlink:href="https://github.com/conda-forge/exitwavereconstruction-feedstock" xlink:title="exitwavereconstruction">
<ellipse fill="#35b779" stroke="black" cx="2196.36" cy="-206" rx="129.07" ry="18"/>
<text text-anchor="middle" x="2196.36" y="-201.32" font-family="Times,serif" font-size="14.00">exitwavereconstruction</text>
</a>
</g>
</g>
<!-- povray&#45;&gt;exitwavereconstruction -->
<!-- wxwidgets -->
<g id="node48" class="node">
<title>wxwidgets</title>
<g id="a_node48"><a xlink:href="https://github.com/conda-forge/wxwidgets-feedstock" xlink:title="wxwidgets">
<ellipse fill="#35b779" stroke="black" cx="1151.36" cy="-162" rx="64.89" ry="18"/>
<text text-anchor="middle" x="1151.36" y="-157.32" font-family="Times,serif" font-size="14.00">wxwidgets</text>
</a>
</g>
</g>
<!-- wxwidgets&#45;&gt;hugin -->
<g id="edge60" class="edge">
<title>wxwidgets&#45;&gt;hugin</title>
<path fill="none" stroke="black" d="M1152.05,-143.68C1151.91,-124.2 1148.84,-92.61 1132.36,-72 1115.2,-50.54 1087.38,-37.4 1063.4,-29.57"/>
<polygon fill="black" stroke="black" points="1064.64,-25.99 1054.05,-26.44 1062.61,-32.69 1064.64,-25.99"/>
</g>
<!-- pytiff -->
<g id="node50" class="node">
<title>pytiff</title>
<g id="a_node50"><a xlink:href="https://github.com/conda-forge/pytiff-feedstock" xlink:title="pytiff">
<ellipse fill="#35b779" stroke="black" cx="2412.36" cy="-890" rx="37.53" ry="18"/>
<text text-anchor="middle" x="2412.36" y="-885.33" font-family="Times,serif" font-size="14.00">pytiff</text>
</a>
</g>
</g>
<!-- gtk4 -->
<g id="node51" class="node">
<title>gtk4</title>
<g id="a_node51"><a xlink:href="https://github.com/conda-forge/gtk4-feedstock" xlink:title="gtk4">
<ellipse fill="#35b779" stroke="black" cx="2412.36" cy="-818" rx="33.85" ry="18"/>
<text text-anchor="middle" x="2412.36" y="-813.33" font-family="Times,serif" font-size="14.00">gtk4</text>
</a>
</g>
</g>
<!-- pytiff&#45;&gt;gtk4 -->
<!-- cudadecon -->
<g id="node52" class="node">
<title>cudadecon</title>
<g id="a_node52"><a xlink:href="https://github.com/conda-forge/cudadecon-feedstock" xlink:title="cudadecon">
<ellipse fill="#35b779" stroke="black" cx="2412.36" cy="-746" rx="64.36" ry="18"/>
<text text-anchor="middle" x="2412.36" y="-741.33" font-family="Times,serif" font-size="14.00">cudadecon</text>
</a>
</g>
</g>
<!-- gtk4&#45;&gt;cudadecon -->
<!-- cudasirecon -->
<g id="node53" class="node">
<title>cudasirecon</title>
<g id="a_node53"><a xlink:href="https://github.com/conda-forge/cudasirecon-feedstock" xlink:title="cudasirecon">
<ellipse fill="#35b779" stroke="black" cx="2412.36" cy="-674" rx="71.2" ry="18"/>
<text text-anchor="middle" x="2412.36" y="-669.33" font-family="Times,serif" font-size="14.00">cudasirecon</text>
</a>
</g>
</g>
<!-- cudadecon&#45;&gt;cudasirecon -->
<!-- podofo -->
<g id="node54" class="node">
<title>podofo</title>
<g id="a_node54"><a xlink:href="https://github.com/conda-forge/podofo-feedstock" xlink:title="podofo">
<ellipse fill="#35b779" stroke="black" cx="2412.36" cy="-602" rx="44.9" ry="18"/>
<text text-anchor="middle" x="2412.36" y="-597.33" font-family="Times,serif" font-size="14.00">podofo</text>
</a>
</g>
</g>
<!-- cudasirecon&#45;&gt;podofo -->
<!-- djvulibre -->
<g id="node55" class="node">
<title>djvulibre</title>
<g id="a_node55"><a xlink:href="https://github.com/conda-forge/djvulibre-feedstock" xlink:title="djvulibre">
<ellipse fill="#35b779" stroke="black" cx="2412.36" cy="-530" rx="55.94" ry="18"/>
<text text-anchor="middle" x="2412.36" y="-525.33" font-family="Times,serif" font-size="14.00">djvulibre</text>
</a>
</g>
</g>
<!-- podofo&#45;&gt;djvulibre -->
<!-- tvips&#45;tools -->
<g id="node56" class="node">
<title>tvips&#45;tools</title>
<g id="a_node56"><a xlink:href="https://github.com/conda-forge/tvips-tools-feedstock" xlink:title="tvips tools">
<ellipse fill="#35b779" stroke="black" cx="2412.36" cy="-458" rx="63.31" ry="18"/>
<text text-anchor="middle" x="2412.36" y="-453.32" font-family="Times,serif" font-size="14.00">tvips tools</text>
</a>
</g>
</g>
<!-- djvulibre&#45;&gt;tvips&#45;tools -->
<!-- microed&#45;tools -->
<g id="node57" class="node">
<title>microed&#45;tools</title>
<g id="a_node57"><a xlink:href="https://github.com/conda-forge/microed-tools-feedstock" xlink:title="microed tools">
<ellipse fill="#35b779" stroke="black" cx="2412.36" cy="-386" rx="79.09" ry="18"/>
<text text-anchor="middle" x="2412.36" y="-381.32" font-family="Times,serif" font-size="14.00">microed tools</text>
</a>
</g>
</g>
<!-- tvips&#45;tools&#45;&gt;microed&#45;tools -->
<!-- diplib -->
<g id="node58" class="node">
<title>diplib</title>
<g id="a_node58"><a xlink:href="https://github.com/conda-forge/diplib-feedstock" xlink:title="diplib">
<ellipse fill="#35b779" stroke="black" cx="2412.36" cy="-314" rx="39.63" ry="18"/>
<text text-anchor="middle" x="2412.36" y="-309.32" font-family="Times,serif" font-size="14.00">diplib</text>
</a>
</g>
</g>
<!-- microed&#45;tools&#45;&gt;diplib -->
<!-- pdfmm -->
<g id="node59" class="node">
<title>pdfmm</title>
<g id="a_node59"><a xlink:href="https://github.com/conda-forge/pdfmm-feedstock" xlink:title="pdfmm">
<ellipse fill="#35b779" stroke="black" cx="2412.36" cy="-242" rx="46.47" ry="18"/>
<text text-anchor="middle" x="2412.36" y="-237.32" font-family="Times,serif" font-size="14.00">pdfmm</text>
</a>
</g>
</g>
<!-- diplib&#45;&gt;pdfmm -->
<!-- nyxus -->
<g id="node60" class="node">
<title>nyxus</title>
<g id="a_node60"><a xlink:href="https://github.com/conda-forge/nyxus-feedstock" xlink:title="nyxus">
<ellipse fill="#fde725" stroke="black" cx="2196.36" cy="-54" rx="40.69" ry="18"/>
<text text-anchor="middle" x="2196.36" y="-49.33" font-family="Times,serif" font-size="14.00">nyxus</text>
</a>
</g>
</g>
<!-- dcmtk -->
<g id="node61" class="node">
<title>dcmtk</title>
<g id="a_node61"><a xlink:href="https://github.com/conda-forge/dcmtk-feedstock" xlink:title="dcmtk">
<ellipse fill="#35b779" stroke="black" cx="2196.36" cy="-126" rx="42.26" ry="18"/>
<text text-anchor="middle" x="2196.36" y="-121.33" font-family="Times,serif" font-size="14.00">dcmtk</text>
</a>
</g>
</g>
<!-- dcmtk&#45;&gt;nyxus -->
<g id="edge71" class="edge">
<title>dcmtk&#45;&gt;nyxus</title>
<path fill="none" stroke="black" d="M2196.36,-107.7C2196.36,-100.24 2196.36,-91.32 2196.36,-82.97"/>
<polygon fill="black" stroke="black" points="2199.86,-83.1 2196.36,-73.1 2192.86,-83.1 2199.86,-83.1"/>
</g>
</g>
</svg>
