<?xml version="1.0" encoding="UTF-8" standalone="no"?>
<!DOCTYPE svg PUBLIC "-//W3C//DTD SVG 1.1//EN"
 "http://www.w3.org/Graphics/SVG/1.1/DTD/svg11.dtd">
<!-- Generated by graphviz version 8.1.0 (20230707.2238)
 -->
<!-- Pages: 1 -->
<svg width="2376pt" height="952pt"
 viewBox="0.00 0.00 2376.46 952.00" xmlns="http://www.w3.org/2000/svg" xmlns:xlink="http://www.w3.org/1999/xlink">
<g id="graph0" class="graph" transform="scale(1 1) rotate(0) translate(4 948)">
<polygon fill="white" stroke="none" points="-4,4 -4,-948 2372.46,-948 2372.46,4 -4,4"/>
<!-- emacs -->
<g id="node1" class="node">
<title>emacs</title>
<g id="a_node1"><a xlink:href="https://github.com/conda-forge/emacs-feedstock" xlink:title="emacs">
<ellipse fill="#35b779" stroke="black" cx="2073.37" cy="-926" rx="42.79" ry="18"/>
<text text-anchor="middle" x="2073.37" y="-921.33" font-family="Times,serif" font-size="14.00">emacs</text>
</a>
</g>
</g>
<!-- libcdms -->
<g id="node2" class="node">
<title>libcdms</title>
<g id="a_node2"><a xlink:href="https://github.com/conda-forge/libcdms-feedstock" xlink:title="libcdms">
<ellipse fill="#35b779" stroke="black" cx="2073.37" cy="-854" rx="50.16" ry="18"/>
<text text-anchor="middle" x="2073.37" y="-849.33" font-family="Times,serif" font-size="14.00">libcdms</text>
</a>
</g>
</g>
<!-- emacs&#45;&gt;libcdms -->
<!-- libitk -->
<g id="node8" class="node">
<title>libitk</title>
<g id="a_node8"><a xlink:href="https://github.com/conda-forge/libitk-feedstock/pull/85" xlink:title="libitk ❎">
<ellipse fill="#31688e" stroke="black" cx="2073.37" cy="-782" rx="52.26" ry="18"/>
<text text-anchor="middle" x="2073.37" y="-777.33" font-family="Times,serif" font-size="14.00" fill="white">libitk ❎</text>
</a>
</g>
</g>
<!-- libcdms&#45;&gt;libitk -->
<!-- freeimage -->
<g id="node3" class="node">
<title>freeimage</title>
<g id="a_node3"><a xlink:href="https://github.com/conda-forge/freeimage-feedstock" xlink:title="freeimage">
<ellipse fill="#fde725" stroke="black" cx="285.37" cy="-674" rx="61.73" ry="18"/>
<text text-anchor="middle" x="285.37" y="-669.33" font-family="Times,serif" font-size="14.00">freeimage</text>
</a>
</g>
</g>
<!-- gdal -->
<g id="node4" class="node">
<title>gdal</title>
<g id="a_node4"><a xlink:href="https://github.com/conda-forge/gdal-feedstock" xlink:title="gdal">
<ellipse fill="#fde725" stroke="black" cx="157.37" cy="-602" rx="32.79" ry="18"/>
<text text-anchor="middle" x="157.37" y="-597.33" font-family="Times,serif" font-size="14.00">gdal</text>
</a>
</g>
</g>
<!-- imagemagick -->
<g id="node5" class="node">
<title>imagemagick</title>
<g id="a_node5"><a xlink:href="https://github.com/conda-forge/imagemagick-feedstock" xlink:title="imagemagick">
<ellipse fill="#fde725" stroke="black" cx="993.37" cy="-602" rx="77.52" ry="18"/>
<text text-anchor="middle" x="993.37" y="-597.33" font-family="Times,serif" font-size="14.00">imagemagick</text>
</a>
</g>
</g>
<!-- libvips -->
<g id="node6" class="node">
<title>libvips</title>
<g id="a_node6"><a xlink:href="https://github.com/conda-forge/libvips-feedstock" xlink:title="libvips">
<ellipse fill="#fde725" stroke="black" cx="375.37" cy="-530" rx="44.37" ry="18"/>
<text text-anchor="middle" x="375.37" y="-525.33" font-family="Times,serif" font-size="14.00">libvips</text>
</a>
</g>
</g>
<!-- imagemagick&#45;&gt;libvips -->
<g id="edge2" class="edge">
<title>imagemagick&#45;&gt;libvips</title>
<path fill="none" stroke="black" d="M936.07,-589.66C924.61,-587.6 912.63,-585.6 901.37,-584 729.84,-559.55 525.27,-542.34 429.65,-534.99"/>
<polygon fill="black" stroke="black" points="430.05,-531.43 419.82,-534.16 429.52,-538.41 430.05,-531.43"/>
</g>
<!-- imread -->
<g id="node7" class="node">
<title>imread</title>
<g id="a_node7"><a xlink:href="https://github.com/conda-forge/imread-feedstock" xlink:title="imread">
<ellipse fill="#fde725" stroke="black" cx="1326.37" cy="-674" rx="46.47" ry="18"/>
<text text-anchor="middle" x="1326.37" y="-669.33" font-family="Times,serif" font-size="14.00">imread</text>
</a>
</g>
</g>
<!-- astromatic&#45;stiff -->
<g id="node12" class="node">
<title>astromatic&#45;stiff</title>
<g id="a_node12"><a xlink:href="https://github.com/conda-forge/astromatic-stiff-feedstock" xlink:title="astromatic stiff">
<ellipse fill="#35b779" stroke="black" cx="2073.37" cy="-710" rx="87.51" ry="18"/>
<text text-anchor="middle" x="2073.37" y="-705.33" font-family="Times,serif" font-size="14.00">astromatic stiff</text>
</a>
</g>
</g>
<!-- libitk&#45;&gt;astromatic&#45;stiff -->
<!-- libgd -->
<g id="node9" class="node">
<title>libgd</title>
<g id="a_node9"><a xlink:href="https://github.com/conda-forge/libgd-feedstock" xlink:title="libgd">
<ellipse fill="#fde725" stroke="black" cx="1179.37" cy="-674" rx="36.48" ry="18"/>
<text text-anchor="middle" x="1179.37" y="-669.33" font-family="Times,serif" font-size="14.00">libgd</text>
</a>
</g>
</g>
<!-- libgd&#45;&gt;imagemagick -->
<g id="edge4" class="edge">
<title>libgd&#45;&gt;imagemagick</title>
<path fill="none" stroke="black" d="M1151.12,-662.37C1122.45,-651.58 1077.47,-634.65 1042.87,-621.63"/>
<polygon fill="black" stroke="black" points="1044.54,-618.14 1033.95,-617.89 1042.08,-624.69 1044.54,-618.14"/>
</g>
<!-- graphicsmagick -->
<g id="node10" class="node">
<title>graphicsmagick</title>
<g id="a_node10"><a xlink:href="https://github.com/conda-forge/graphicsmagick-feedstock" xlink:title="graphicsmagick">
<ellipse fill="#fde725" stroke="black" cx="1179.37" cy="-602" rx="90.14" ry="18"/>
<text text-anchor="middle" x="1179.37" y="-597.33" font-family="Times,serif" font-size="14.00">graphicsmagick</text>
</a>
</g>
</g>
<!-- libgd&#45;&gt;graphicsmagick -->
<g id="edge5" class="edge">
<title>libgd&#45;&gt;graphicsmagick</title>
<path fill="none" stroke="black" d="M1179.37,-655.7C1179.37,-648.24 1179.37,-639.32 1179.37,-630.97"/>
<polygon fill="black" stroke="black" points="1182.87,-631.1 1179.37,-621.1 1175.87,-631.1 1182.87,-631.1"/>
</g>
<!-- root -->
<g id="node11" class="node">
<title>root</title>
<g id="a_node11"><a xlink:href="https://github.com/conda-forge/root-feedstock" xlink:title="root">
<ellipse fill="#fde725" stroke="black" cx="1586.37" cy="-602" rx="31.74" ry="18"/>
<text text-anchor="middle" x="1586.37" y="-597.33" font-family="Times,serif" font-size="14.00">root</text>
</a>
</g>
</g>
<!-- libgd&#45;&gt;root -->
<g id="edge6" class="edge">
<title>libgd&#45;&gt;root</title>
<path fill="none" stroke="black" d="M1213,-666.65C1230.41,-663.4 1252.02,-659.42 1271.37,-656 1369.57,-638.67 1485.22,-619.54 1545.37,-609.68"/>
<polygon fill="black" stroke="black" points="1545.63,-613.02 1554.94,-607.95 1544.5,-606.12 1545.63,-613.02"/>
</g>
<!-- netpbm -->
<g id="node40" class="node">
<title>netpbm</title>
<g id="a_node40"><a xlink:href="https://github.com/conda-forge/netpbm-feedstock" xlink:title="netpbm">
<ellipse fill="#35b779" stroke="black" cx="2073.37" cy="-638" rx="49.63" ry="18"/>
<text text-anchor="middle" x="2073.37" y="-633.33" font-family="Times,serif" font-size="14.00">netpbm</text>
</a>
</g>
</g>
<!-- astromatic&#45;stiff&#45;&gt;netpbm -->
<!-- opencv -->
<g id="node13" class="node">
<title>opencv</title>
<g id="a_node13"><a xlink:href="https://github.com/conda-forge/opencv-feedstock" xlink:title="opencv">
<ellipse fill="#fde725" stroke="black" cx="1334.37" cy="-602" rx="46.47" ry="18"/>
<text text-anchor="middle" x="1334.37" y="-597.33" font-family="Times,serif" font-size="14.00">opencv</text>
</a>
</g>
</g>
<!-- openjpeg -->
<g id="node14" class="node">
<title>openjpeg</title>
<g id="a_node14"><a xlink:href="https://github.com/conda-forge/openjpeg-feedstock/pull/48" xlink:title="openjpeg ✓">
<ellipse fill="#31688e" stroke="black" cx="478.37" cy="-746" rx="64.89" ry="18"/>
<text text-anchor="middle" x="478.37" y="-741.33" font-family="Times,serif" font-size="14.00" fill="white">openjpeg ✓</text>
</a>
</g>
</g>
<!-- openjpeg&#45;&gt;freeimage -->
<g id="edge8" class="edge">
<title>openjpeg&#45;&gt;freeimage</title>
<path fill="none" stroke="black" d="M440.24,-731.17C409.61,-720.06 366.41,-704.39 333.42,-692.43"/>
<polygon fill="black" stroke="black" points="334.69,-688.8 324.1,-688.68 332.3,-695.38 334.69,-688.8"/>
</g>
<!-- openjpeg&#45;&gt;gdal -->
<g id="edge9" class="edge">
<title>openjpeg&#45;&gt;gdal</title>
<path fill="none" stroke="black" d="M417.33,-739.45C346.88,-732 236.47,-716.75 203.37,-692 183.27,-676.97 171.22,-650.61 164.53,-630.47"/>
<polygon fill="black" stroke="black" points="167.61,-629.57 161.34,-621.03 160.91,-631.61 167.61,-629.57"/>
</g>
<!-- openjpeg&#45;&gt;imagemagick -->
<g id="edge10" class="edge">
<title>openjpeg&#45;&gt;imagemagick</title>
<path fill="none" stroke="black" d="M543.32,-744.23C653.73,-741.83 872.3,-732.01 936.37,-692 959.04,-677.85 974.36,-651 983.36,-630.48"/>
<polygon fill="black" stroke="black" points="986.93,-632 987.5,-621.42 980.45,-629.34 986.93,-632"/>
</g>
<!-- openjpeg&#45;&gt;libvips -->
<g id="edge11" class="edge">
<title>openjpeg&#45;&gt;libvips</title>
<path fill="none" stroke="black" d="M441.79,-730.84C424.56,-722.24 405.41,-709.5 394.37,-692 368.61,-651.15 368.85,-592.72 371.8,-558.64"/>
<polygon fill="black" stroke="black" points="375.35,-559.38 372.88,-549.07 368.39,-558.67 375.35,-559.38"/>
</g>
<!-- pillow -->
<g id="node15" class="node">
<title>pillow</title>
<g id="a_node15"><a xlink:href="https://github.com/conda-forge/pillow-feedstock" xlink:title="pillow">
<ellipse fill="#fde725" stroke="black" cx="716.37" cy="-674" rx="41.21" ry="18"/>
<text text-anchor="middle" x="716.37" y="-669.33" font-family="Times,serif" font-size="14.00">pillow</text>
</a>
</g>
</g>
<!-- openjpeg&#45;&gt;pillow -->
<g id="edge12" class="edge">
<title>openjpeg&#45;&gt;pillow</title>
<path fill="none" stroke="black" d="M523.89,-732.72C561.86,-722.33 617.32,-706.81 665.37,-692 668.3,-691.1 671.31,-690.15 674.34,-689.18"/>
<polygon fill="black" stroke="black" points="675.19,-692.26 683.61,-685.83 673.02,-685.6 675.19,-692.26"/>
</g>
<!-- poppler -->
<g id="node16" class="node">
<title>poppler</title>
<g id="a_node16"><a xlink:href="https://github.com/conda-forge/poppler-feedstock" xlink:title="poppler">
<ellipse fill="#fde725" stroke="black" cx="79.37" cy="-674" rx="49.63" ry="18"/>
<text text-anchor="middle" x="79.37" y="-669.33" font-family="Times,serif" font-size="14.00">poppler</text>
</a>
</g>
</g>
<!-- openjpeg&#45;&gt;poppler -->
<g id="edge13" class="edge">
<title>openjpeg&#45;&gt;poppler</title>
<path fill="none" stroke="black" d="M420.24,-737.65C353.17,-728.74 239.73,-712.36 143.37,-692 138.36,-690.94 133.16,-689.74 127.98,-688.47"/>
<polygon fill="black" stroke="black" points="129.01,-684.87 118.46,-685.8 127.3,-691.65 129.01,-684.87"/>
</g>
<!-- leptonica -->
<g id="node17" class="node">
<title>leptonica</title>
<g id="a_node17"><a xlink:href="https://github.com/conda-forge/leptonica-feedstock" xlink:title="leptonica">
<ellipse fill="#fde725" stroke="black" cx="870.37" cy="-674" rx="57" ry="18"/>
<text text-anchor="middle" x="870.37" y="-669.33" font-family="Times,serif" font-size="14.00">leptonica</text>
</a>
</g>
</g>
<!-- openjpeg&#45;&gt;leptonica -->
<g id="edge14" class="edge">
<title>openjpeg&#45;&gt;leptonica</title>
<path fill="none" stroke="black" d="M535.13,-736.88C599.46,-727.39 707.33,-710.59 799.37,-692 804.96,-690.87 810.78,-689.61 816.58,-688.31"/>
<polygon fill="black" stroke="black" points="816.97,-691.58 825.93,-685.92 815.39,-684.76 816.97,-691.58"/>
</g>
<!-- tesseract -->
<g id="node18" class="node">
<title>tesseract</title>
<g id="a_node18"><a xlink:href="https://github.com/conda-forge/tesseract-feedstock" xlink:title="tesseract">
<ellipse fill="#fde725" stroke="black" cx="801.37" cy="-602" rx="57.52" ry="18"/>
<text text-anchor="middle" x="801.37" y="-597.33" font-family="Times,serif" font-size="14.00">tesseract</text>
</a>
</g>
</g>
<!-- openjpeg&#45;&gt;tesseract -->
<g id="edge15" class="edge">
<title>openjpeg&#45;&gt;tesseract</title>
<path fill="none" stroke="black" d="M540.79,-740.55C614.91,-734.08 732.72,-719.72 766.37,-692 784.67,-676.93 793.44,-650.99 797.63,-630.98"/>
<polygon fill="black" stroke="black" points="801.22,-631.77 799.55,-621.31 794.33,-630.53 801.22,-631.77"/>
</g>
<!-- openslide -->
<g id="node19" class="node">
<title>openslide</title>
<g id="a_node19"><a xlink:href="https://github.com/conda-forge/openslide-feedstock" xlink:title="openslide">
<ellipse fill="#fde725" stroke="black" cx="278.37" cy="-602" rx="59.1" ry="18"/>
<text text-anchor="middle" x="278.37" y="-597.33" font-family="Times,serif" font-size="14.00">openslide</text>
</a>
</g>
</g>
<!-- openjpeg&#45;&gt;openslide -->
<g id="edge16" class="edge">
<title>openjpeg&#45;&gt;openslide</title>
<path fill="none" stroke="black" d="M415.37,-741.31C345.49,-735.75 239.29,-722.42 214.37,-692 204.23,-679.62 207.56,-670.48 214.37,-656 220.28,-643.43 230.8,-632.82 241.62,-624.47"/>
<polygon fill="black" stroke="black" points="243.19,-626.94 249.28,-618.27 239.11,-621.25 243.19,-626.94"/>
</g>
<!-- imagecodecs -->
<g id="node20" class="node">
<title>imagecodecs</title>
<g id="a_node20"><a xlink:href="https://github.com/conda-forge/imagecodecs-feedstock" xlink:title="imagecodecs">
<ellipse fill="#fde725" stroke="black" cx="581.37" cy="-674" rx="75.41" ry="18"/>
<text text-anchor="middle" x="581.37" y="-669.33" font-family="Times,serif" font-size="14.00">imagecodecs</text>
</a>
</g>
</g>
<!-- openjpeg&#45;&gt;imagecodecs -->
<g id="edge17" class="edge">
<title>openjpeg&#45;&gt;imagecodecs</title>
<path fill="none" stroke="black" d="M502,-728.94C515.68,-719.65 533.1,-707.81 548.14,-697.59"/>
<polygon fill="black" stroke="black" points="549.83,-699.99 556.14,-691.47 545.9,-694.2 549.83,-699.99"/>
</g>
<!-- paraview -->
<g id="node21" class="node">
<title>paraview</title>
<g id="a_node21"><a xlink:href="https://github.com/conda-forge/paraview-feedstock" xlink:title="paraview">
<ellipse fill="#fde725" stroke="black" cx="630.37" cy="-602" rx="57" ry="18"/>
<text text-anchor="middle" x="630.37" y="-597.33" font-family="Times,serif" font-size="14.00">paraview</text>
</a>
</g>
</g>
<!-- pillow&#45;&gt;paraview -->
<g id="edge18" class="edge">
<title>pillow&#45;&gt;paraview</title>
<path fill="none" stroke="black" d="M697.71,-657.81C686.31,-648.53 671.51,-636.48 658.69,-626.05"/>
<polygon fill="black" stroke="black" points="661.16,-622.73 651.19,-619.13 656.74,-628.16 661.16,-622.73"/>
</g>
<!-- wxpython -->
<g id="node22" class="node">
<title>wxpython</title>
<g id="a_node22"><a xlink:href="https://github.com/conda-forge/wxpython-feedstock" xlink:title="wxpython">
<ellipse fill="#fde725" stroke="black" cx="715.37" cy="-530" rx="60.15" ry="18"/>
<text text-anchor="middle" x="715.37" y="-525.33" font-family="Times,serif" font-size="14.00">wxpython</text>
</a>
</g>
</g>
<!-- pillow&#45;&gt;wxpython -->
<g id="edge19" class="edge">
<title>pillow&#45;&gt;wxpython</title>
<path fill="none" stroke="black" d="M716.25,-655.59C716.08,-631.5 715.77,-587.75 715.57,-559.03"/>
<polygon fill="black" stroke="black" points="719.06,-559.09 715.49,-549.11 712.06,-559.14 719.06,-559.09"/>
</g>
<!-- puma -->
<g id="node23" class="node">
<title>puma</title>
<g id="a_node23"><a xlink:href="https://github.com/conda-forge/puma-feedstock" xlink:title="puma">
<ellipse fill="#fde725" stroke="black" cx="516.37" cy="-602" rx="39.11" ry="18"/>
<text text-anchor="middle" x="516.37" y="-597.33" font-family="Times,serif" font-size="14.00">puma</text>
</a>
</g>
</g>
<!-- pillow&#45;&gt;puma -->
<g id="edge20" class="edge">
<title>pillow&#45;&gt;puma</title>
<path fill="none" stroke="black" d="M684.92,-662.08C654.17,-651.4 606.03,-634.64 564.37,-620 561.98,-619.16 559.52,-618.29 557.04,-617.42"/>
<polygon fill="black" stroke="black" points="558.43,-613.84 547.84,-613.81 556.1,-620.44 558.43,-613.84"/>
</g>
<!-- poppler&#45;&gt;gdal -->
<g id="edge21" class="edge">
<title>poppler&#45;&gt;gdal</title>
<path fill="none" stroke="black" d="M97.46,-656.76C107.97,-647.34 121.34,-635.34 132.79,-625.06"/>
<polygon fill="black" stroke="black" points="134.61,-628.24 139.71,-618.95 129.93,-623.03 134.61,-628.24"/>
</g>
<!-- poppler&#45;&gt;libvips -->
<g id="edge22" class="edge">
<title>poppler&#45;&gt;libvips</title>
<path fill="none" stroke="black" d="M81.46,-655.75C84.86,-635.42 93.59,-602.12 115.37,-584 146.11,-558.43 254.71,-543.17 321.44,-535.99"/>
<polygon fill="black" stroke="black" points="321.6,-539.39 331.18,-534.87 320.87,-532.43 321.6,-539.39"/>
</g>
<!-- sane -->
<g id="node24" class="node">
<title>sane</title>
<g id="a_node24"><a xlink:href="https://github.com/conda-forge/sane-feedstock" xlink:title="sane">
<ellipse fill="#fde725" stroke="black" cx="34.37" cy="-602" rx="34.37" ry="18"/>
<text text-anchor="middle" x="34.37" y="-597.33" font-family="Times,serif" font-size="14.00">sane</text>
</a>
</g>
</g>
<!-- poppler&#45;&gt;sane -->
<g id="edge23" class="edge">
<title>poppler&#45;&gt;sane</title>
<path fill="none" stroke="black" d="M68.48,-656.05C63.15,-647.77 56.63,-637.62 50.72,-628.42"/>
<polygon fill="black" stroke="black" points="53.21,-626.83 44.86,-620.31 47.32,-630.61 53.21,-626.83"/>
</g>
<!-- leptonica&#45;&gt;tesseract -->
<g id="edge24" class="edge">
<title>leptonica&#45;&gt;tesseract</title>
<path fill="none" stroke="black" d="M854.02,-656.41C845.43,-647.69 834.73,-636.85 825.23,-627.21"/>
<polygon fill="black" stroke="black" points="828.12,-625.13 818.61,-620.47 823.13,-630.05 828.12,-625.13"/>
</g>
<!-- openslide&#45;&gt;libvips -->
<g id="edge25" class="edge">
<title>openslide&#45;&gt;libvips</title>
<path fill="none" stroke="black" d="M300.38,-585.12C313.81,-575.43 331.14,-562.92 345.75,-552.37"/>
<polygon fill="black" stroke="black" points="347.39,-554.79 353.45,-546.1 343.29,-549.12 347.39,-554.79"/>
</g>
<!-- imagecodecs&#45;&gt;puma -->
<g id="edge26" class="edge">
<title>imagecodecs&#45;&gt;puma</title>
<path fill="none" stroke="black" d="M565.64,-656.05C557.5,-647.29 547.43,-636.45 538.52,-626.86"/>
<polygon fill="black" stroke="black" points="541.44,-624.78 532.07,-619.83 536.31,-629.54 541.44,-624.78"/>
</g>
<!-- r&#45;base -->
<g id="node25" class="node">
<title>r&#45;base</title>
<g id="a_node25"><a xlink:href="https://github.com/conda-forge/r-base-feedstock/pull/274" xlink:title="r base ✓">
<ellipse fill="#31688e" stroke="black" cx="1755.37" cy="-674" rx="50.16" ry="18"/>
<text text-anchor="middle" x="1755.37" y="-669.33" font-family="Times,serif" font-size="14.00" fill="white">r base ✓</text>
</a>
</g>
</g>
<!-- r&#45;base&#45;&gt;root -->
<g id="edge27" class="edge">
<title>r&#45;base&#45;&gt;root</title>
<path fill="none" stroke="black" d="M1723.58,-659.83C1694.5,-647.79 1651.56,-630 1621.48,-617.54"/>
<polygon fill="black" stroke="black" points="1623,-613.97 1612.42,-613.37 1620.32,-620.43 1623,-613.97"/>
</g>
<!-- r&#45;cairo -->
<g id="node26" class="node">
<title>r&#45;cairo</title>
<g id="a_node26"><a xlink:href="https://github.com/conda-forge/r-cairo-feedstock" xlink:title="r cairo">
<ellipse fill="#fde725" stroke="black" cx="1718.37" cy="-602" rx="43.84" ry="18"/>
<text text-anchor="middle" x="1718.37" y="-597.33" font-family="Times,serif" font-size="14.00">r cairo</text>
</a>
</g>
</g>
<!-- r&#45;base&#45;&gt;r&#45;cairo -->
<g id="edge28" class="edge">
<title>r&#45;base&#45;&gt;r&#45;cairo</title>
<path fill="none" stroke="black" d="M1746.42,-656.05C1742.19,-648.06 1737.05,-638.33 1732.33,-629.4"/>
<polygon fill="black" stroke="black" points="1735.01,-627.99 1727.25,-620.79 1728.83,-631.27 1735.01,-627.99"/>
</g>
<!-- r&#45;tiff -->
<g id="node27" class="node">
<title>r&#45;tiff</title>
<g id="a_node27"><a xlink:href="https://github.com/conda-forge/r-tiff-feedstock" xlink:title="r tiff">
<ellipse fill="#fde725" stroke="black" cx="1737.37" cy="-530" rx="33.32" ry="18"/>
<text text-anchor="middle" x="1737.37" y="-525.33" font-family="Times,serif" font-size="14.00">r tiff</text>
</a>
</g>
</g>
<!-- r&#45;base&#45;&gt;r&#45;tiff -->
<g id="edge29" class="edge">
<title>r&#45;base&#45;&gt;r&#45;tiff</title>
<path fill="none" stroke="black" d="M1763.02,-656.02C1770.12,-637.92 1778.57,-608.56 1771.37,-584 1768.39,-573.83 1762.79,-563.76 1756.99,-555.18"/>
<polygon fill="black" stroke="black" points="1759.41,-553.56 1750.72,-547.51 1753.74,-557.67 1759.41,-553.56"/>
</g>
<!-- r&#45;ragg -->
<g id="node28" class="node">
<title>r&#45;ragg</title>
<g id="a_node28"><a xlink:href="https://github.com/conda-forge/r-ragg-feedstock" xlink:title="r ragg">
<ellipse fill="#fde725" stroke="black" cx="1828.37" cy="-458" rx="42.26" ry="18"/>
<text text-anchor="middle" x="1828.37" y="-453.32" font-family="Times,serif" font-size="14.00">r ragg</text>
</a>
</g>
</g>
<!-- r&#45;base&#45;&gt;r&#45;ragg -->
<g id="edge30" class="edge">
<title>r&#45;base&#45;&gt;r&#45;ragg</title>
<path fill="none" stroke="black" d="M1766.66,-656.43C1773.16,-646.27 1781.08,-632.81 1786.37,-620 1804.94,-575.11 1817.24,-519.72 1823.49,-487"/>
<polygon fill="black" stroke="black" points="1827.07,-487.89 1825.45,-477.42 1820.19,-486.62 1827.07,-487.89"/>
</g>
<!-- r&#45;rtiff -->
<g id="node29" class="node">
<title>r&#45;rtiff</title>
<g id="a_node29"><a xlink:href="https://github.com/conda-forge/r-rtiff-feedstock" xlink:title="r rtiff">
<ellipse fill="#fde725" stroke="black" cx="1898.37" cy="-386" rx="38.06" ry="18"/>
<text text-anchor="middle" x="1898.37" y="-381.32" font-family="Times,serif" font-size="14.00">r rtiff</text>
</a>
</g>
</g>
<!-- r&#45;base&#45;&gt;r&#45;rtiff -->
<g id="edge31" class="edge">
<title>r&#45;base&#45;&gt;r&#45;rtiff</title>
<path fill="none" stroke="black" d="M1773.29,-656.96C1783.76,-646.99 1796.76,-633.53 1806.37,-620 1847.93,-561.5 1855.46,-543.65 1879.37,-476 1886.37,-456.2 1891.22,-432.98 1894.27,-415.22"/>
<polygon fill="black" stroke="black" points="1897.88,-415.86 1896.02,-405.43 1890.97,-414.74 1897.88,-415.86"/>
</g>
<!-- r&#45;imager -->
<g id="node30" class="node">
<title>r&#45;imager</title>
<g id="a_node30"><a xlink:href="https://github.com/conda-forge/r-imager-feedstock" xlink:title="r imager">
<ellipse fill="#fde725" stroke="black" cx="1679.37" cy="-458" rx="54.36" ry="18"/>
<text text-anchor="middle" x="1679.37" y="-453.32" font-family="Times,serif" font-size="14.00">r imager</text>
</a>
</g>
</g>
<!-- r&#45;base&#45;&gt;r&#45;imager -->
<g id="edge32" class="edge">
<title>r&#45;base&#45;&gt;r&#45;imager</title>
<path fill="none" stroke="black" d="M1718.55,-661.42C1699.04,-653.19 1676.8,-639.99 1665.37,-620 1641.38,-578.02 1656.03,-519.59 1668.18,-485.89"/>
<polygon fill="black" stroke="black" points="1671.7,-487.46 1671.98,-476.87 1665.16,-484.98 1671.7,-487.46"/>
</g>
<!-- r&#45;tiff&#45;&gt;r&#45;imager -->
<g id="edge33" class="edge">
<title>r&#45;tiff&#45;&gt;r&#45;imager</title>
<path fill="none" stroke="black" d="M1724.21,-513.12C1717.15,-504.59 1708.28,-493.89 1700.29,-484.25"/>
<polygon fill="black" stroke="black" points="1702.37,-482.26 1693.29,-476.8 1696.98,-486.73 1702.37,-482.26"/>
</g>
<!-- vigra -->
<g id="node31" class="node">
<title>vigra</title>
<g id="a_node31"><a xlink:href="https://github.com/conda-forge/vigra-feedstock" xlink:title="vigra">
<ellipse fill="#ff8c00" stroke="black" cx="872.37" cy="-162" rx="37" ry="18"/>
<text text-anchor="middle" x="872.37" y="-157.32" font-family="Times,serif" font-size="14.00">vigra</text>
</a>
</g>
</g>
<!-- enblend -->
<g id="node32" class="node">
<title>enblend</title>
<g id="a_node32"><a xlink:href="https://github.com/conda-forge/enblend-feedstock" xlink:title="enblend">
<ellipse fill="#fde725" stroke="black" cx="832.37" cy="-90" rx="51.21" ry="18"/>
<text text-anchor="middle" x="832.37" y="-85.33" font-family="Times,serif" font-size="14.00">enblend</text>
</a>
</g>
</g>
<!-- vigra&#45;&gt;enblend -->
<g id="edge34" class="edge">
<title>vigra&#45;&gt;enblend</title>
<path fill="none" stroke="black" d="M862.89,-144.41C858.28,-136.34 852.62,-126.43 847.43,-117.35"/>
<polygon fill="black" stroke="black" points="850.06,-115.9 842.06,-108.96 843.98,-119.38 850.06,-115.9"/>
</g>
<!-- hugin -->
<g id="node33" class="node">
<title>hugin</title>
<g id="a_node33"><a xlink:href="https://github.com/conda-forge/hugin-feedstock" xlink:title="hugin">
<ellipse fill="#fde725" stroke="black" cx="955.37" cy="-18" rx="39.63" ry="18"/>
<text text-anchor="middle" x="955.37" y="-13.32" font-family="Times,serif" font-size="14.00">hugin</text>
</a>
</g>
</g>
<!-- vigra&#45;&gt;hugin -->
<g id="edge35" class="edge">
<title>vigra&#45;&gt;hugin</title>
<path fill="none" stroke="black" d="M882.22,-144.15C896.51,-119.71 923.12,-74.17 940.01,-45.29"/>
<polygon fill="black" stroke="black" points="943.51,-47.22 945.54,-36.82 937.47,-43.69 943.51,-47.22"/>
</g>
<!-- enblend&#45;&gt;hugin -->
<g id="edge36" class="edge">
<title>enblend&#45;&gt;hugin</title>
<path fill="none" stroke="black" d="M858.46,-74.15C877,-63.6 902.06,-49.34 922.05,-37.96"/>
<polygon fill="black" stroke="black" points="923.45,-40.62 930.41,-32.64 919.99,-34.54 923.45,-40.62"/>
</g>
<!-- vtk -->
<g id="node34" class="node">
<title>vtk</title>
<g id="a_node34"><a xlink:href="https://github.com/conda-forge/vtk-feedstock/pull/309" xlink:title="vtk ❎">
<ellipse fill="#31688e" stroke="black" cx="445.37" cy="-674" rx="42.26" ry="18"/>
<text text-anchor="middle" x="445.37" y="-669.33" font-family="Times,serif" font-size="14.00" fill="white">vtk ❎</text>
</a>
</g>
</g>
<!-- vtk&#45;&gt;puma -->
<g id="edge37" class="edge">
<title>vtk&#45;&gt;puma</title>
<path fill="none" stroke="black" d="M461.48,-657.12C470.65,-648.08 482.31,-636.58 492.52,-626.52"/>
<polygon fill="black" stroke="black" points="494.66,-629.33 499.33,-619.82 489.75,-624.35 494.66,-629.33"/>
</g>
<!-- libwebp -->
<g id="node35" class="node">
<title>libwebp</title>
<g id="a_node35"><a xlink:href="https://github.com/conda-forge/libwebp-feedstock/pull/53" xlink:title="libwebp ✓">
<ellipse fill="#31688e" stroke="black" cx="1115.37" cy="-746" rx="58.57" ry="18"/>
<text text-anchor="middle" x="1115.37" y="-741.33" font-family="Times,serif" font-size="14.00" fill="white">libwebp ✓</text>
</a>
</g>
</g>
<!-- libwebp&#45;&gt;imagemagick -->
<g id="edge38" class="edge">
<title>libwebp&#45;&gt;imagemagick</title>
<path fill="none" stroke="black" d="M1103,-728.16C1089.4,-709.93 1066.66,-680.21 1045.37,-656 1036.9,-646.36 1027.16,-636.21 1018.41,-627.4"/>
<polygon fill="black" stroke="black" points="1021.28,-625.31 1011.72,-620.73 1016.33,-630.27 1021.28,-625.31"/>
</g>
<!-- libwebp&#45;&gt;libvips -->
<g id="edge39" class="edge">
<title>libwebp&#45;&gt;libvips</title>
<path fill="none" stroke="black" d="M1094.88,-728.93C1070.25,-710.04 1027.23,-678.45 987.37,-656 953.05,-636.67 939.14,-641.86 906.37,-620 887.02,-607.09 889.49,-593.76 868.37,-584 829.25,-565.93 549.68,-543.7 429.77,-534.87"/>
<polygon fill="black" stroke="black" points="430.24,-531.33 420.02,-534.09 429.73,-538.31 430.24,-531.33"/>
</g>
<!-- libwebp&#45;&gt;imread -->
<g id="edge40" class="edge">
<title>libwebp&#45;&gt;imread</title>
<path fill="none" stroke="black" d="M1154.07,-732.16C1190.07,-720.22 1243.69,-702.43 1281.53,-689.88"/>
<polygon fill="black" stroke="black" points="1282.37,-692.95 1290.76,-686.48 1280.17,-686.31 1282.37,-692.95"/>
</g>
<!-- libwebp&#45;&gt;libgd -->
<g id="edge41" class="edge">
<title>libwebp&#45;&gt;libgd</title>
<path fill="none" stroke="black" d="M1130.54,-728.41C1138.54,-719.66 1148.51,-708.75 1157.35,-699.08"/>
<polygon fill="black" stroke="black" points="1159.59,-701.73 1163.75,-691.99 1154.42,-697.01 1159.59,-701.73"/>
</g>
<!-- libwebp&#45;&gt;graphicsmagick -->
<g id="edge42" class="edge">
<title>libwebp&#45;&gt;graphicsmagick</title>
<path fill="none" stroke="black" d="M1116.54,-727.79C1118.35,-709.24 1122.94,-679.25 1134.37,-656 1139.28,-646.03 1146.47,-636.38 1153.67,-628.11"/>
<polygon fill="black" stroke="black" points="1155.9,-630.76 1160.09,-621.03 1150.75,-626.03 1155.9,-630.76"/>
</g>
<!-- libwebp&#45;&gt;opencv -->
<g id="edge43" class="edge">
<title>libwebp&#45;&gt;opencv</title>
<path fill="none" stroke="black" d="M1149.34,-730.89C1171.4,-721.15 1200.4,-707.24 1224.37,-692 1241.21,-681.29 1280.96,-648.35 1307.77,-625.69"/>
<polygon fill="black" stroke="black" points="1309.61,-627.87 1314.98,-618.74 1305.09,-622.53 1309.61,-627.87"/>
</g>
<!-- libwebp&#45;&gt;pillow -->
<g id="edge44" class="edge">
<title>libwebp&#45;&gt;pillow</title>
<path fill="none" stroke="black" d="M1064.4,-736.67C1002.75,-726.51 895.85,-708.63 804.37,-692 791.22,-689.61 776.98,-686.91 763.86,-684.37"/>
<polygon fill="black" stroke="black" points="764.64,-680.77 754.16,-682.29 763.31,-687.64 764.64,-680.77"/>
</g>
<!-- libwebp&#45;&gt;leptonica -->
<g id="edge45" class="edge">
<title>libwebp&#45;&gt;leptonica</title>
<path fill="none" stroke="black" d="M1073.53,-733.05C1031.65,-721.08 967.13,-702.65 922.07,-689.77"/>
<polygon fill="black" stroke="black" points="923.21,-686.17 912.63,-686.79 921.28,-692.9 923.21,-686.17"/>
</g>
<!-- libwebp&#45;&gt;tesseract -->
<g id="edge46" class="edge">
<title>libwebp&#45;&gt;tesseract</title>
<path fill="none" stroke="black" d="M1086.91,-729.88C1051.9,-711.51 990.46,-680.01 936.37,-656 907.32,-643.1 874.09,-630.04 847.87,-620.11"/>
<polygon fill="black" stroke="black" points="849.42,-616.57 838.83,-616.32 846.95,-623.12 849.42,-616.57"/>
</g>
<!-- libwebp&#45;&gt;imagecodecs -->
<g id="edge47" class="edge">
<title>libwebp&#45;&gt;imagecodecs</title>
<path fill="none" stroke="black" d="M1059.88,-739.89C974.88,-731.74 807.46,-714.4 666.37,-692 659.93,-690.98 653.24,-689.82 646.57,-688.59"/>
<polygon fill="black" stroke="black" points="647.6,-685.03 637.13,-686.62 646.3,-691.91 647.6,-685.03"/>
</g>
<!-- openimageio -->
<g id="node36" class="node">
<title>openimageio</title>
<g id="a_node36"><a xlink:href="https://github.com/conda-forge/openimageio-feedstock" xlink:title="openimageio">
<ellipse fill="#fde725" stroke="black" cx="1343.37" cy="-530" rx="74.88" ry="18"/>
<text text-anchor="middle" x="1343.37" y="-525.33" font-family="Times,serif" font-size="14.00">openimageio</text>
</a>
</g>
</g>
<!-- libwebp&#45;&gt;openimageio -->
<g id="edge48" class="edge">
<title>libwebp&#45;&gt;openimageio</title>
<path fill="none" stroke="black" d="M1172.44,-741.36C1242.04,-735.67 1353.84,-722.01 1381.37,-692 1413.91,-656.53 1406.21,-629.09 1389.37,-584 1385.41,-573.39 1378.25,-563.49 1370.75,-555.19"/>
<polygon fill="black" stroke="black" points="1373.71,-553.19 1364.23,-548.45 1368.69,-558.06 1373.71,-553.19"/>
</g>
<!-- sdl_image -->
<g id="node37" class="node">
<title>sdl_image</title>
<g id="a_node37"><a xlink:href="https://github.com/conda-forge/sdl_image-feedstock" xlink:title="sdl_image">
<ellipse fill="#fde725" stroke="black" cx="1420.37" cy="-458" rx="61.2" ry="18"/>
<text text-anchor="middle" x="1420.37" y="-453.32" font-family="Times,serif" font-size="14.00">sdl_image</text>
</a>
</g>
</g>
<!-- libwebp&#45;&gt;sdl_image -->
<g id="edge49" class="edge">
<title>libwebp&#45;&gt;sdl_image</title>
<path fill="none" stroke="black" d="M1173.12,-742.19C1248.33,-737.28 1373.95,-724.35 1405.37,-692 1458.95,-636.83 1441.36,-535.46 1428.65,-486.67"/>
<polygon fill="black" stroke="black" points="1431.82,-486 1425.81,-477.28 1425.07,-487.84 1431.82,-486"/>
</g>
<!-- tomviz -->
<g id="node38" class="node">
<title>tomviz</title>
<g id="a_node38"><a xlink:href="https://github.com/conda-forge/tomviz-feedstock" xlink:title="tomviz">
<ellipse fill="#fde725" stroke="black" cx="1509.37" cy="-386" rx="44.9" ry="18"/>
<text text-anchor="middle" x="1509.37" y="-381.32" font-family="Times,serif" font-size="14.00">tomviz</text>
</a>
</g>
</g>
<!-- libwebp&#45;&gt;tomviz -->
<g id="edge50" class="edge">
<title>libwebp&#45;&gt;tomviz</title>
<path fill="none" stroke="black" d="M1171.28,-740.09C1249.48,-732.47 1386.83,-716.11 1430.37,-692 1476.64,-666.38 1509.37,-655.89 1509.37,-603 1509.37,-603 1509.37,-603 1509.37,-529 1509.37,-489.57 1509.37,-443.97 1509.37,-415.31"/>
<polygon fill="black" stroke="black" points="1512.87,-415.49 1509.37,-405.49 1505.87,-415.49 1512.87,-415.49"/>
</g>
<!-- afterimage -->
<g id="node39" class="node">
<title>afterimage</title>
<g id="a_node39"><a xlink:href="https://github.com/conda-forge/afterimage-feedstock" xlink:title="afterimage">
<ellipse fill="#ff8c00" stroke="black" cx="1603.37" cy="-674" rx="65.94" ry="18"/>
<text text-anchor="middle" x="1603.37" y="-669.33" font-family="Times,serif" font-size="14.00">afterimage</text>
</a>
</g>
</g>
<!-- afterimage&#45;&gt;root -->
<g id="edge51" class="edge">
<title>afterimage&#45;&gt;root</title>
<path fill="none" stroke="black" d="M1599.17,-655.7C1597.34,-648.15 1595.14,-639.12 1593.09,-630.68"/>
<polygon fill="black" stroke="black" points="1596.29,-630 1590.53,-621.1 1589.49,-631.65 1596.29,-630"/>
</g>
<!-- gnuastro -->
<g id="node41" class="node">
<title>gnuastro</title>
<g id="a_node41"><a xlink:href="https://github.com/conda-forge/gnuastro-feedstock" xlink:title="gnuastro">
<ellipse fill="#35b779" stroke="black" cx="2073.37" cy="-566" rx="55.94" ry="18"/>
<text text-anchor="middle" x="2073.37" y="-561.33" font-family="Times,serif" font-size="14.00">gnuastro</text>
</a>
</g>
</g>
<!-- netpbm&#45;&gt;gnuastro -->
<!-- pylibtiff -->
<g id="node42" class="node">
<title>pylibtiff</title>
<g id="a_node42"><a xlink:href="https://github.com/conda-forge/pylibtiff-feedstock" xlink:title="pylibtiff">
<ellipse fill="#35b779" stroke="black" cx="2073.37" cy="-494" rx="50.16" ry="18"/>
<text text-anchor="middle" x="2073.37" y="-489.32" font-family="Times,serif" font-size="14.00">pylibtiff</text>
</a>
</g>
</g>
<!-- gnuastro&#45;&gt;pylibtiff -->
<!-- openscenegraph -->
<g id="node43" class="node">
<title>openscenegraph</title>
<g id="a_node43"><a xlink:href="https://github.com/conda-forge/openscenegraph-feedstock" xlink:title="openscenegraph">
<ellipse fill="#35b779" stroke="black" cx="2073.37" cy="-422" rx="93.3" ry="18"/>
<text text-anchor="middle" x="2073.37" y="-417.32" font-family="Times,serif" font-size="14.00">openscenegraph</text>
</a>
</g>
</g>
<!-- pylibtiff&#45;&gt;openscenegraph -->
<!-- match&#45;series -->
<g id="node44" class="node">
<title>match&#45;series</title>
<g id="a_node44"><a xlink:href="https://github.com/conda-forge/match-series-feedstock" xlink:title="match series">
<ellipse fill="#35b779" stroke="black" cx="2073.37" cy="-350" rx="75.41" ry="18"/>
<text text-anchor="middle" x="2073.37" y="-345.32" font-family="Times,serif" font-size="14.00">match series</text>
</a>
</g>
</g>
<!-- openscenegraph&#45;&gt;match&#45;series -->
<!-- povray -->
<g id="node46" class="node">
<title>povray</title>
<g id="a_node46"><a xlink:href="https://github.com/conda-forge/povray-feedstock" xlink:title="povray">
<ellipse fill="#35b779" stroke="black" cx="2073.37" cy="-278" rx="45.42" ry="18"/>
<text text-anchor="middle" x="2073.37" y="-273.32" font-family="Times,serif" font-size="14.00">povray</text>
</a>
</g>
</g>
<!-- match&#45;series&#45;&gt;povray -->
<!-- libpano13 -->
<g id="node45" class="node">
<title>libpano13</title>
<g id="a_node45"><a xlink:href="https://github.com/conda-forge/libpano13-feedstock" xlink:title="libpano13">
<ellipse fill="#35b779" stroke="black" cx="1000.37" cy="-90" rx="60.68" ry="18"/>
<text text-anchor="middle" x="1000.37" y="-85.33" font-family="Times,serif" font-size="14.00">libpano13</text>
</a>
</g>
</g>
<!-- libpano13&#45;&gt;hugin -->
<g id="edge57" class="edge">
<title>libpano13&#45;&gt;hugin</title>
<path fill="none" stroke="black" d="M989.48,-72.05C984.23,-63.89 977.82,-53.91 971.97,-44.82"/>
<polygon fill="black" stroke="black" points="974.52,-43.31 966.17,-36.79 968.63,-47.09 974.52,-43.31"/>
</g>
<!-- exitwavereconstruction -->
<g id="node48" class="node">
<title>exitwavereconstruction</title>
<g id="a_node48"><a xlink:href="https://github.com/conda-forge/exitwavereconstruction-feedstock" xlink:title="exitwavereconstruction">
<ellipse fill="#35b779" stroke="black" cx="2073.37" cy="-206" rx="129.07" ry="18"/>
<text text-anchor="middle" x="2073.37" y="-201.32" font-family="Times,serif" font-size="14.00">exitwavereconstruction</text>
</a>
</g>
</g>
<!-- povray&#45;&gt;exitwavereconstruction -->
<!-- wxwidgets -->
<g id="node47" class="node">
<title>wxwidgets</title>
<g id="a_node47"><a xlink:href="https://github.com/conda-forge/wxwidgets-feedstock" xlink:title="wxwidgets">
<ellipse fill="#35b779" stroke="black" cx="1089.37" cy="-162" rx="64.89" ry="18"/>
<text text-anchor="middle" x="1089.37" y="-157.32" font-family="Times,serif" font-size="14.00">wxwidgets</text>
</a>
</g>
</g>
<!-- wxwidgets&#45;&gt;hugin -->
<g id="edge59" class="edge">
<title>wxwidgets&#45;&gt;hugin</title>
<path fill="none" stroke="black" d="M1090.06,-143.68C1089.92,-124.2 1086.85,-92.61 1070.37,-72 1053.21,-50.54 1025.39,-37.4 1001.41,-29.57"/>
<polygon fill="black" stroke="black" points="1002.65,-25.99 992.06,-26.44 1000.62,-32.69 1002.65,-25.99"/>
</g>
<!-- pytiff -->
<g id="node49" class="node">
<title>pytiff</title>
<g id="a_node49"><a xlink:href="https://github.com/conda-forge/pytiff-feedstock" xlink:title="pytiff">
<ellipse fill="#35b779" stroke="black" cx="2289.37" cy="-890" rx="37.53" ry="18"/>
<text text-anchor="middle" x="2289.37" y="-885.33" font-family="Times,serif" font-size="14.00">pytiff</text>
</a>
</g>
</g>
<!-- gtk4 -->
<g id="node50" class="node">
<title>gtk4</title>
<g id="a_node50"><a xlink:href="https://github.com/conda-forge/gtk4-feedstock" xlink:title="gtk4">
<ellipse fill="#35b779" stroke="black" cx="2289.37" cy="-818" rx="33.85" ry="18"/>
<text text-anchor="middle" x="2289.37" y="-813.33" font-family="Times,serif" font-size="14.00">gtk4</text>
</a>
</g>
</g>
<!-- pytiff&#45;&gt;gtk4 -->
<!-- cudadecon -->
<g id="node51" class="node">
<title>cudadecon</title>
<g id="a_node51"><a xlink:href="https://github.com/conda-forge/cudadecon-feedstock" xlink:title="cudadecon">
<ellipse fill="#35b779" stroke="black" cx="2289.37" cy="-746" rx="64.36" ry="18"/>
<text text-anchor="middle" x="2289.37" y="-741.33" font-family="Times,serif" font-size="14.00">cudadecon</text>
</a>
</g>
</g>
<!-- gtk4&#45;&gt;cudadecon -->
<!-- cudasirecon -->
<g id="node52" class="node">
<title>cudasirecon</title>
<g id="a_node52"><a xlink:href="https://github.com/conda-forge/cudasirecon-feedstock" xlink:title="cudasirecon">
<ellipse fill="#35b779" stroke="black" cx="2289.37" cy="-674" rx="71.2" ry="18"/>
<text text-anchor="middle" x="2289.37" y="-669.33" font-family="Times,serif" font-size="14.00">cudasirecon</text>
</a>
</g>
</g>
<!-- cudadecon&#45;&gt;cudasirecon -->
<!-- podofo -->
<g id="node53" class="node">
<title>podofo</title>
<g id="a_node53"><a xlink:href="https://github.com/conda-forge/podofo-feedstock" xlink:title="podofo">
<ellipse fill="#35b779" stroke="black" cx="2289.37" cy="-602" rx="44.9" ry="18"/>
<text text-anchor="middle" x="2289.37" y="-597.33" font-family="Times,serif" font-size="14.00">podofo</text>
</a>
</g>
</g>
<!-- cudasirecon&#45;&gt;podofo -->
<!-- djvulibre -->
<g id="node54" class="node">
<title>djvulibre</title>
<g id="a_node54"><a xlink:href="https://github.com/conda-forge/djvulibre-feedstock" xlink:title="djvulibre">
<ellipse fill="#35b779" stroke="black" cx="2289.37" cy="-530" rx="55.94" ry="18"/>
<text text-anchor="middle" x="2289.37" y="-525.33" font-family="Times,serif" font-size="14.00">djvulibre</text>
</a>
</g>
</g>
<!-- podofo&#45;&gt;djvulibre -->
<!-- tvips&#45;tools -->
<g id="node55" class="node">
<title>tvips&#45;tools</title>
<g id="a_node55"><a xlink:href="https://github.com/conda-forge/tvips-tools-feedstock" xlink:title="tvips tools">
<ellipse fill="#35b779" stroke="black" cx="2289.37" cy="-458" rx="63.31" ry="18"/>
<text text-anchor="middle" x="2289.37" y="-453.32" font-family="Times,serif" font-size="14.00">tvips tools</text>
</a>
</g>
</g>
<!-- djvulibre&#45;&gt;tvips&#45;tools -->
<!-- microed&#45;tools -->
<g id="node56" class="node">
<title>microed&#45;tools</title>
<g id="a_node56"><a xlink:href="https://github.com/conda-forge/microed-tools-feedstock" xlink:title="microed tools">
<ellipse fill="#35b779" stroke="black" cx="2289.37" cy="-386" rx="79.09" ry="18"/>
<text text-anchor="middle" x="2289.37" y="-381.32" font-family="Times,serif" font-size="14.00">microed tools</text>
</a>
</g>
</g>
<!-- tvips&#45;tools&#45;&gt;microed&#45;tools -->
<!-- diplib -->
<g id="node57" class="node">
<title>diplib</title>
<g id="a_node57"><a xlink:href="https://github.com/conda-forge/diplib-feedstock" xlink:title="diplib">
<ellipse fill="#35b779" stroke="black" cx="2289.37" cy="-314" rx="39.63" ry="18"/>
<text text-anchor="middle" x="2289.37" y="-309.32" font-family="Times,serif" font-size="14.00">diplib</text>
</a>
</g>
</g>
<!-- microed&#45;tools&#45;&gt;diplib -->
<!-- pdfmm -->
<g id="node58" class="node">
<title>pdfmm</title>
<g id="a_node58"><a xlink:href="https://github.com/conda-forge/pdfmm-feedstock" xlink:title="pdfmm">
<ellipse fill="#35b779" stroke="black" cx="2289.37" cy="-242" rx="46.47" ry="18"/>
<text text-anchor="middle" x="2289.37" y="-237.32" font-family="Times,serif" font-size="14.00">pdfmm</text>
</a>
</g>
</g>
<!-- diplib&#45;&gt;pdfmm -->
<!-- nyxus -->
<g id="node59" class="node">
<title>nyxus</title>
<g id="a_node59"><a xlink:href="https://github.com/conda-forge/nyxus-feedstock" xlink:title="nyxus">
<ellipse fill="#fde725" stroke="black" cx="2073.37" cy="-54" rx="40.69" ry="18"/>
<text text-anchor="middle" x="2073.37" y="-49.33" font-family="Times,serif" font-size="14.00">nyxus</text>
</a>
</g>
</g>
<!-- dcmtk -->
<g id="node60" class="node">
<title>dcmtk</title>
<g id="a_node60"><a xlink:href="https://github.com/conda-forge/dcmtk-feedstock" xlink:title="dcmtk">
<ellipse fill="#35b779" stroke="black" cx="2073.37" cy="-126" rx="42.26" ry="18"/>
<text text-anchor="middle" x="2073.37" y="-121.33" font-family="Times,serif" font-size="14.00">dcmtk</text>
</a>
</g>
</g>
<!-- dcmtk&#45;&gt;nyxus -->
<g id="edge70" class="edge">
<title>dcmtk&#45;&gt;nyxus</title>
<path fill="none" stroke="black" d="M2073.37,-107.7C2073.37,-100.24 2073.37,-91.32 2073.37,-82.97"/>
<polygon fill="black" stroke="black" points="2076.87,-83.1 2073.37,-73.1 2069.87,-83.1 2076.87,-83.1"/>
</g>
</g>
</svg>
