<?xml version="1.0" encoding="UTF-8" standalone="no"?>
<!DOCTYPE svg PUBLIC "-//W3C//DTD SVG 1.1//EN"
 "http://www.w3.org/Graphics/SVG/1.1/DTD/svg11.dtd">
<!-- Generated by graphviz version 8.1.0 (20230707.2238)
 -->
<!-- Pages: 1 -->
<svg width="2365pt" height="952pt"
 viewBox="0.00 0.00 2365.46 952.00" xmlns="http://www.w3.org/2000/svg" xmlns:xlink="http://www.w3.org/1999/xlink">
<g id="graph0" class="graph" transform="scale(1 1) rotate(0) translate(4 948)">
<polygon fill="white" stroke="none" points="-4,4 -4,-948 2361.46,-948 2361.46,4 -4,4"/>
<!-- emacs -->
<g id="node1" class="node">
<title>emacs</title>
<g id="a_node1"><a xlink:href="https://github.com/conda-forge/emacs-feedstock" xlink:title="emacs">
<ellipse fill="#35b779" stroke="black" cx="2062.37" cy="-926" rx="42.79" ry="18"/>
<text text-anchor="middle" x="2062.37" y="-921.33" font-family="Times,serif" font-size="14.00">emacs</text>
</a>
</g>
</g>
<!-- libitk -->
<g id="node2" class="node">
<title>libitk</title>
<g id="a_node2"><a xlink:href="https://github.com/conda-forge/libitk-feedstock/pull/85" xlink:title="libitk ❎">
<ellipse fill="#31688e" stroke="black" cx="2062.37" cy="-854" rx="52.26" ry="18"/>
<text text-anchor="middle" x="2062.37" y="-849.33" font-family="Times,serif" font-size="14.00" fill="white">libitk ❎</text>
</a>
</g>
</g>
<!-- emacs&#45;&gt;libitk -->
<!-- astromatic&#45;stiff -->
<g id="node11" class="node">
<title>astromatic&#45;stiff</title>
<g id="a_node11"><a xlink:href="https://github.com/conda-forge/astromatic-stiff-feedstock" xlink:title="astromatic stiff">
<ellipse fill="#35b779" stroke="black" cx="2062.37" cy="-782" rx="87.51" ry="18"/>
<text text-anchor="middle" x="2062.37" y="-777.33" font-family="Times,serif" font-size="14.00">astromatic stiff</text>
</a>
</g>
</g>
<!-- libitk&#45;&gt;astromatic&#45;stiff -->
<!-- freeimage -->
<g id="node3" class="node">
<title>freeimage</title>
<g id="a_node3"><a xlink:href="https://github.com/conda-forge/freeimage-feedstock" xlink:title="freeimage">
<ellipse fill="#fde725" stroke="black" cx="285.37" cy="-674" rx="61.73" ry="18"/>
<text text-anchor="middle" x="285.37" y="-669.33" font-family="Times,serif" font-size="14.00">freeimage</text>
</a>
</g>
</g>
<!-- gdal -->
<g id="node4" class="node">
<title>gdal</title>
<g id="a_node4"><a xlink:href="https://github.com/conda-forge/gdal-feedstock" xlink:title="gdal">
<ellipse fill="#fde725" stroke="black" cx="157.37" cy="-602" rx="32.79" ry="18"/>
<text text-anchor="middle" x="157.37" y="-597.33" font-family="Times,serif" font-size="14.00">gdal</text>
</a>
</g>
</g>
<!-- imagemagick -->
<g id="node5" class="node">
<title>imagemagick</title>
<g id="a_node5"><a xlink:href="https://github.com/conda-forge/imagemagick-feedstock" xlink:title="imagemagick">
<ellipse fill="#fde725" stroke="black" cx="978.37" cy="-602" rx="77.52" ry="18"/>
<text text-anchor="middle" x="978.37" y="-597.33" font-family="Times,serif" font-size="14.00">imagemagick</text>
</a>
</g>
</g>
<!-- libvips -->
<g id="node6" class="node">
<title>libvips</title>
<g id="a_node6"><a xlink:href="https://github.com/conda-forge/libvips-feedstock" xlink:title="libvips">
<ellipse fill="#fde725" stroke="black" cx="375.37" cy="-530" rx="44.37" ry="18"/>
<text text-anchor="middle" x="375.37" y="-525.33" font-family="Times,serif" font-size="14.00">libvips</text>
</a>
</g>
</g>
<!-- imagemagick&#45;&gt;libvips -->
<g id="edge2" class="edge">
<title>imagemagick&#45;&gt;libvips</title>
<path fill="none" stroke="black" d="M920.58,-589.6C909.26,-587.57 897.47,-585.6 886.37,-584 720.74,-560.15 523.41,-542.79 429.81,-535.22"/>
<polygon fill="black" stroke="black" points="430.17,-531.66 419.92,-534.34 429.61,-538.63 430.17,-531.66"/>
</g>
<!-- imread -->
<g id="node7" class="node">
<title>imread</title>
<g id="a_node7"><a xlink:href="https://github.com/conda-forge/imread-feedstock" xlink:title="imread">
<ellipse fill="#fde725" stroke="black" cx="1311.37" cy="-674" rx="46.47" ry="18"/>
<text text-anchor="middle" x="1311.37" y="-669.33" font-family="Times,serif" font-size="14.00">imread</text>
</a>
</g>
</g>
<!-- libgd -->
<g id="node8" class="node">
<title>libgd</title>
<g id="a_node8"><a xlink:href="https://github.com/conda-forge/libgd-feedstock" xlink:title="libgd">
<ellipse fill="#fde725" stroke="black" cx="1164.37" cy="-674" rx="36.48" ry="18"/>
<text text-anchor="middle" x="1164.37" y="-669.33" font-family="Times,serif" font-size="14.00">libgd</text>
</a>
</g>
</g>
<!-- libgd&#45;&gt;imagemagick -->
<g id="edge3" class="edge">
<title>libgd&#45;&gt;imagemagick</title>
<path fill="none" stroke="black" d="M1136.12,-662.37C1107.45,-651.58 1062.47,-634.65 1027.87,-621.63"/>
<polygon fill="black" stroke="black" points="1029.54,-618.14 1018.95,-617.89 1027.08,-624.69 1029.54,-618.14"/>
</g>
<!-- graphicsmagick -->
<g id="node9" class="node">
<title>graphicsmagick</title>
<g id="a_node9"><a xlink:href="https://github.com/conda-forge/graphicsmagick-feedstock" xlink:title="graphicsmagick">
<ellipse fill="#fde725" stroke="black" cx="1164.37" cy="-602" rx="90.14" ry="18"/>
<text text-anchor="middle" x="1164.37" y="-597.33" font-family="Times,serif" font-size="14.00">graphicsmagick</text>
</a>
</g>
</g>
<!-- libgd&#45;&gt;graphicsmagick -->
<g id="edge4" class="edge">
<title>libgd&#45;&gt;graphicsmagick</title>
<path fill="none" stroke="black" d="M1164.37,-655.7C1164.37,-648.24 1164.37,-639.32 1164.37,-630.97"/>
<polygon fill="black" stroke="black" points="1167.87,-631.1 1164.37,-621.1 1160.87,-631.1 1167.87,-631.1"/>
</g>
<!-- root -->
<g id="node10" class="node">
<title>root</title>
<g id="a_node10"><a xlink:href="https://github.com/conda-forge/root-feedstock" xlink:title="root">
<ellipse fill="#fde725" stroke="black" cx="1575.37" cy="-602" rx="31.74" ry="18"/>
<text text-anchor="middle" x="1575.37" y="-597.33" font-family="Times,serif" font-size="14.00">root</text>
</a>
</g>
</g>
<!-- libgd&#45;&gt;root -->
<g id="edge5" class="edge">
<title>libgd&#45;&gt;root</title>
<path fill="none" stroke="black" d="M1197.99,-666.64C1215.4,-663.38 1237.01,-659.4 1256.37,-656 1356.06,-638.51 1473.54,-619.37 1534.32,-609.58"/>
<polygon fill="black" stroke="black" points="1534.68,-612.9 1543.99,-607.86 1533.56,-605.99 1534.68,-612.9"/>
</g>
<!-- netpbm -->
<g id="node39" class="node">
<title>netpbm</title>
<g id="a_node39"><a xlink:href="https://github.com/conda-forge/netpbm-feedstock" xlink:title="netpbm">
<ellipse fill="#35b779" stroke="black" cx="2062.37" cy="-710" rx="49.63" ry="18"/>
<text text-anchor="middle" x="2062.37" y="-705.33" font-family="Times,serif" font-size="14.00">netpbm</text>
</a>
</g>
</g>
<!-- astromatic&#45;stiff&#45;&gt;netpbm -->
<!-- opencv -->
<g id="node12" class="node">
<title>opencv</title>
<g id="a_node12"><a xlink:href="https://github.com/conda-forge/opencv-feedstock" xlink:title="opencv">
<ellipse fill="#fde725" stroke="black" cx="1319.37" cy="-602" rx="46.47" ry="18"/>
<text text-anchor="middle" x="1319.37" y="-597.33" font-family="Times,serif" font-size="14.00">opencv</text>
</a>
</g>
</g>
<!-- openjpeg -->
<g id="node13" class="node">
<title>openjpeg</title>
<g id="a_node13"><a xlink:href="https://github.com/conda-forge/openjpeg-feedstock/pull/48" xlink:title="openjpeg ✓">
<ellipse fill="#31688e" stroke="black" cx="471.37" cy="-746" rx="64.89" ry="18"/>
<text text-anchor="middle" x="471.37" y="-741.33" font-family="Times,serif" font-size="14.00" fill="white">openjpeg ✓</text>
</a>
</g>
</g>
<!-- openjpeg&#45;&gt;freeimage -->
<g id="edge7" class="edge">
<title>openjpeg&#45;&gt;freeimage</title>
<path fill="none" stroke="black" d="M434.18,-731C404.81,-719.95 363.66,-704.46 332.08,-692.58"/>
<polygon fill="black" stroke="black" points="333.78,-689.1 323.18,-688.85 331.31,-695.65 333.78,-689.1"/>
</g>
<!-- openjpeg&#45;&gt;gdal -->
<g id="edge8" class="edge">
<title>openjpeg&#45;&gt;gdal</title>
<path fill="none" stroke="black" d="M410.65,-739.14C341.94,-731.46 235.41,-716.08 203.37,-692 183.31,-676.92 171.25,-650.57 164.55,-630.44"/>
<polygon fill="black" stroke="black" points="167.63,-629.55 161.36,-621.01 160.93,-631.6 167.63,-629.55"/>
</g>
<!-- openjpeg&#45;&gt;imagemagick -->
<g id="edge9" class="edge">
<title>openjpeg&#45;&gt;imagemagick</title>
<path fill="none" stroke="black" d="M536.05,-744.08C644.82,-741.45 858.61,-731.28 921.37,-692 944.02,-677.83 959.35,-650.98 968.35,-630.46"/>
<polygon fill="black" stroke="black" points="971.92,-631.99 972.49,-621.41 965.45,-629.33 971.92,-631.99"/>
</g>
<!-- openjpeg&#45;&gt;libvips -->
<g id="edge10" class="edge">
<title>openjpeg&#45;&gt;libvips</title>
<path fill="none" stroke="black" d="M437.78,-730.14C421.98,-721.36 404.43,-708.68 394.37,-692 369.56,-650.86 369.39,-593 372.03,-559.01"/>
<polygon fill="black" stroke="black" points="375.57,-559.73 373,-549.45 368.6,-559.09 375.57,-559.73"/>
</g>
<!-- pillow -->
<g id="node14" class="node">
<title>pillow</title>
<g id="a_node14"><a xlink:href="https://github.com/conda-forge/pillow-feedstock" xlink:title="pillow">
<ellipse fill="#fde725" stroke="black" cx="701.37" cy="-674" rx="41.21" ry="18"/>
<text text-anchor="middle" x="701.37" y="-669.33" font-family="Times,serif" font-size="14.00">pillow</text>
</a>
</g>
</g>
<!-- openjpeg&#45;&gt;pillow -->
<g id="edge11" class="edge">
<title>openjpeg&#45;&gt;pillow</title>
<path fill="none" stroke="black" d="M515.27,-732.45C551.58,-721.96 604.46,-706.44 650.37,-692 653.29,-691.08 656.3,-690.12 659.33,-689.14"/>
<polygon fill="black" stroke="black" points="660.18,-692.22 668.6,-685.78 658,-685.56 660.18,-692.22"/>
</g>
<!-- poppler -->
<g id="node15" class="node">
<title>poppler</title>
<g id="a_node15"><a xlink:href="https://github.com/conda-forge/poppler-feedstock" xlink:title="poppler">
<ellipse fill="#fde725" stroke="black" cx="79.37" cy="-674" rx="49.63" ry="18"/>
<text text-anchor="middle" x="79.37" y="-669.33" font-family="Times,serif" font-size="14.00">poppler</text>
</a>
</g>
</g>
<!-- openjpeg&#45;&gt;poppler -->
<g id="edge12" class="edge">
<title>openjpeg&#45;&gt;poppler</title>
<path fill="none" stroke="black" d="M413.58,-737.43C347.8,-728.41 237.31,-712.01 143.37,-692 138.43,-690.95 133.3,-689.76 128.19,-688.5"/>
<polygon fill="black" stroke="black" points="129.36,-684.93 118.8,-685.87 127.64,-691.72 129.36,-684.93"/>
</g>
<!-- leptonica -->
<g id="node16" class="node">
<title>leptonica</title>
<g id="a_node16"><a xlink:href="https://github.com/conda-forge/leptonica-feedstock" xlink:title="leptonica">
<ellipse fill="#fde725" stroke="black" cx="855.37" cy="-674" rx="57" ry="18"/>
<text text-anchor="middle" x="855.37" y="-669.33" font-family="Times,serif" font-size="14.00">leptonica</text>
</a>
</g>
</g>
<!-- openjpeg&#45;&gt;leptonica -->
<g id="edge13" class="edge">
<title>openjpeg&#45;&gt;leptonica</title>
<path fill="none" stroke="black" d="M527.56,-736.65C590.37,-727.05 695,-710.24 784.37,-692 789.96,-690.86 795.78,-689.59 801.57,-688.28"/>
<polygon fill="black" stroke="black" points="801.96,-691.55 810.92,-685.89 800.39,-684.73 801.96,-691.55"/>
</g>
<!-- tesseract -->
<g id="node17" class="node">
<title>tesseract</title>
<g id="a_node17"><a xlink:href="https://github.com/conda-forge/tesseract-feedstock" xlink:title="tesseract">
<ellipse fill="#fde725" stroke="black" cx="786.37" cy="-602" rx="57.52" ry="18"/>
<text text-anchor="middle" x="786.37" y="-597.33" font-family="Times,serif" font-size="14.00">tesseract</text>
</a>
</g>
</g>
<!-- openjpeg&#45;&gt;tesseract -->
<g id="edge14" class="edge">
<title>openjpeg&#45;&gt;tesseract</title>
<path fill="none" stroke="black" d="M533.34,-740.21C605.47,-733.48 718.89,-718.9 751.37,-692 769.63,-676.88 778.41,-650.94 782.6,-630.96"/>
<polygon fill="black" stroke="black" points="786.2,-631.75 784.54,-621.29 779.31,-630.5 786.2,-631.75"/>
</g>
<!-- openslide -->
<g id="node18" class="node">
<title>openslide</title>
<g id="a_node18"><a xlink:href="https://github.com/conda-forge/openslide-feedstock" xlink:title="openslide">
<ellipse fill="#fde725" stroke="black" cx="278.37" cy="-602" rx="59.1" ry="18"/>
<text text-anchor="middle" x="278.37" y="-597.33" font-family="Times,serif" font-size="14.00">openslide</text>
</a>
</g>
</g>
<!-- openjpeg&#45;&gt;openslide -->
<g id="edge15" class="edge">
<title>openjpeg&#45;&gt;openslide</title>
<path fill="none" stroke="black" d="M408.5,-740.93C340.45,-735.06 238.4,-721.49 214.37,-692 204.27,-679.6 207.56,-670.48 214.37,-656 220.28,-643.43 230.8,-632.82 241.62,-624.47"/>
<polygon fill="black" stroke="black" points="243.19,-626.94 249.28,-618.27 239.11,-621.25 243.19,-626.94"/>
</g>
<!-- imagecodecs -->
<g id="node19" class="node">
<title>imagecodecs</title>
<g id="a_node19"><a xlink:href="https://github.com/conda-forge/imagecodecs-feedstock" xlink:title="imagecodecs">
<ellipse fill="#fde725" stroke="black" cx="566.37" cy="-674" rx="75.41" ry="18"/>
<text text-anchor="middle" x="566.37" y="-669.33" font-family="Times,serif" font-size="14.00">imagecodecs</text>
</a>
</g>
</g>
<!-- openjpeg&#45;&gt;imagecodecs -->
<g id="edge16" class="edge">
<title>openjpeg&#45;&gt;imagecodecs</title>
<path fill="none" stroke="black" d="M493.41,-728.76C505.82,-719.62 521.52,-708.05 535.18,-697.99"/>
<polygon fill="black" stroke="black" points="536.82,-700.38 542.8,-691.63 532.67,-694.75 536.82,-700.38"/>
</g>
<!-- paraview -->
<g id="node20" class="node">
<title>paraview</title>
<g id="a_node20"><a xlink:href="https://github.com/conda-forge/paraview-feedstock" xlink:title="paraview">
<ellipse fill="#fde725" stroke="black" cx="615.37" cy="-602" rx="57" ry="18"/>
<text text-anchor="middle" x="615.37" y="-597.33" font-family="Times,serif" font-size="14.00">paraview</text>
</a>
</g>
</g>
<!-- pillow&#45;&gt;paraview -->
<g id="edge17" class="edge">
<title>pillow&#45;&gt;paraview</title>
<path fill="none" stroke="black" d="M682.71,-657.81C671.31,-648.53 656.51,-636.48 643.69,-626.05"/>
<polygon fill="black" stroke="black" points="646.16,-622.73 636.19,-619.13 641.74,-628.16 646.16,-622.73"/>
</g>
<!-- wxpython -->
<g id="node21" class="node">
<title>wxpython</title>
<g id="a_node21"><a xlink:href="https://github.com/conda-forge/wxpython-feedstock" xlink:title="wxpython">
<ellipse fill="#fde725" stroke="black" cx="700.37" cy="-530" rx="60.15" ry="18"/>
<text text-anchor="middle" x="700.37" y="-525.33" font-family="Times,serif" font-size="14.00">wxpython</text>
</a>
</g>
</g>
<!-- pillow&#45;&gt;wxpython -->
<g id="edge18" class="edge">
<title>pillow&#45;&gt;wxpython</title>
<path fill="none" stroke="black" d="M701.25,-655.59C701.08,-631.5 700.77,-587.75 700.57,-559.03"/>
<polygon fill="black" stroke="black" points="704.06,-559.09 700.49,-549.11 697.06,-559.14 704.06,-559.09"/>
</g>
<!-- puma -->
<g id="node22" class="node">
<title>puma</title>
<g id="a_node22"><a xlink:href="https://github.com/conda-forge/puma-feedstock" xlink:title="puma">
<ellipse fill="#fde725" stroke="black" cx="501.37" cy="-602" rx="39.11" ry="18"/>
<text text-anchor="middle" x="501.37" y="-597.33" font-family="Times,serif" font-size="14.00">puma</text>
</a>
</g>
</g>
<!-- pillow&#45;&gt;puma -->
<g id="edge19" class="edge">
<title>pillow&#45;&gt;puma</title>
<path fill="none" stroke="black" d="M669.92,-662.08C639.17,-651.4 591.03,-634.64 549.37,-620 546.98,-619.16 544.52,-618.29 542.04,-617.42"/>
<polygon fill="black" stroke="black" points="543.43,-613.84 532.84,-613.81 541.1,-620.44 543.43,-613.84"/>
</g>
<!-- poppler&#45;&gt;gdal -->
<g id="edge20" class="edge">
<title>poppler&#45;&gt;gdal</title>
<path fill="none" stroke="black" d="M97.46,-656.76C107.97,-647.34 121.34,-635.34 132.79,-625.06"/>
<polygon fill="black" stroke="black" points="134.61,-628.24 139.71,-618.95 129.93,-623.03 134.61,-628.24"/>
</g>
<!-- poppler&#45;&gt;libvips -->
<g id="edge21" class="edge">
<title>poppler&#45;&gt;libvips</title>
<path fill="none" stroke="black" d="M81.46,-655.75C84.86,-635.42 93.59,-602.12 115.37,-584 146.11,-558.43 254.71,-543.17 321.44,-535.99"/>
<polygon fill="black" stroke="black" points="321.6,-539.39 331.18,-534.87 320.87,-532.43 321.6,-539.39"/>
</g>
<!-- sane -->
<g id="node23" class="node">
<title>sane</title>
<g id="a_node23"><a xlink:href="https://github.com/conda-forge/sane-feedstock" xlink:title="sane">
<ellipse fill="#fde725" stroke="black" cx="34.37" cy="-602" rx="34.37" ry="18"/>
<text text-anchor="middle" x="34.37" y="-597.33" font-family="Times,serif" font-size="14.00">sane</text>
</a>
</g>
</g>
<!-- poppler&#45;&gt;sane -->
<g id="edge22" class="edge">
<title>poppler&#45;&gt;sane</title>
<path fill="none" stroke="black" d="M68.48,-656.05C63.15,-647.77 56.63,-637.62 50.72,-628.42"/>
<polygon fill="black" stroke="black" points="53.21,-626.83 44.86,-620.31 47.32,-630.61 53.21,-626.83"/>
</g>
<!-- leptonica&#45;&gt;tesseract -->
<g id="edge23" class="edge">
<title>leptonica&#45;&gt;tesseract</title>
<path fill="none" stroke="black" d="M839.02,-656.41C830.43,-647.69 819.73,-636.85 810.23,-627.21"/>
<polygon fill="black" stroke="black" points="813.12,-625.13 803.61,-620.47 808.13,-630.05 813.12,-625.13"/>
</g>
<!-- openslide&#45;&gt;libvips -->
<g id="edge24" class="edge">
<title>openslide&#45;&gt;libvips</title>
<path fill="none" stroke="black" d="M300.38,-585.12C313.81,-575.43 331.14,-562.92 345.75,-552.37"/>
<polygon fill="black" stroke="black" points="347.39,-554.79 353.45,-546.1 343.29,-549.12 347.39,-554.79"/>
</g>
<!-- imagecodecs&#45;&gt;puma -->
<g id="edge25" class="edge">
<title>imagecodecs&#45;&gt;puma</title>
<path fill="none" stroke="black" d="M550.64,-656.05C542.5,-647.29 532.43,-636.45 523.52,-626.86"/>
<polygon fill="black" stroke="black" points="526.44,-624.78 517.07,-619.83 521.31,-629.54 526.44,-624.78"/>
</g>
<!-- r&#45;base -->
<g id="node24" class="node">
<title>r&#45;base</title>
<g id="a_node24"><a xlink:href="https://github.com/conda-forge/r-base-feedstock/pull/274" xlink:title="r base ✓">
<ellipse fill="#31688e" stroke="black" cx="1748.37" cy="-674" rx="50.16" ry="18"/>
<text text-anchor="middle" x="1748.37" y="-669.33" font-family="Times,serif" font-size="14.00" fill="white">r base ✓</text>
</a>
</g>
</g>
<!-- r&#45;base&#45;&gt;root -->
<g id="edge26" class="edge">
<title>r&#45;base&#45;&gt;root</title>
<path fill="none" stroke="black" d="M1715.83,-659.83C1685.85,-647.7 1641.45,-629.74 1610.63,-617.27"/>
<polygon fill="black" stroke="black" points="1612.32,-613.77 1601.74,-613.26 1609.7,-620.26 1612.32,-613.77"/>
</g>
<!-- r&#45;cairo -->
<g id="node25" class="node">
<title>r&#45;cairo</title>
<g id="a_node25"><a xlink:href="https://github.com/conda-forge/r-cairo-feedstock" xlink:title="r cairo">
<ellipse fill="#fde725" stroke="black" cx="1707.37" cy="-602" rx="43.84" ry="18"/>
<text text-anchor="middle" x="1707.37" y="-597.33" font-family="Times,serif" font-size="14.00">r cairo</text>
</a>
</g>
</g>
<!-- r&#45;base&#45;&gt;r&#45;cairo -->
<g id="edge27" class="edge">
<title>r&#45;base&#45;&gt;r&#45;cairo</title>
<path fill="none" stroke="black" d="M1738.45,-656.05C1733.71,-647.97 1727.94,-638.12 1722.67,-629.11"/>
<polygon fill="black" stroke="black" points="1725.28,-627.65 1717.21,-620.79 1719.24,-631.19 1725.28,-627.65"/>
</g>
<!-- r&#45;tiff -->
<g id="node26" class="node">
<title>r&#45;tiff</title>
<g id="a_node26"><a xlink:href="https://github.com/conda-forge/r-tiff-feedstock" xlink:title="r tiff">
<ellipse fill="#fde725" stroke="black" cx="1726.37" cy="-530" rx="33.32" ry="18"/>
<text text-anchor="middle" x="1726.37" y="-525.33" font-family="Times,serif" font-size="14.00">r tiff</text>
</a>
</g>
</g>
<!-- r&#45;base&#45;&gt;r&#45;tiff -->
<g id="edge28" class="edge">
<title>r&#45;base&#45;&gt;r&#45;tiff</title>
<path fill="none" stroke="black" d="M1754.8,-655.95C1760.7,-637.8 1767.52,-608.39 1760.37,-584 1757.39,-573.83 1751.79,-563.76 1745.99,-555.18"/>
<polygon fill="black" stroke="black" points="1748.41,-553.56 1739.72,-547.51 1742.74,-557.67 1748.41,-553.56"/>
</g>
<!-- r&#45;ragg -->
<g id="node27" class="node">
<title>r&#45;ragg</title>
<g id="a_node27"><a xlink:href="https://github.com/conda-forge/r-ragg-feedstock" xlink:title="r ragg">
<ellipse fill="#fde725" stroke="black" cx="1817.37" cy="-458" rx="42.26" ry="18"/>
<text text-anchor="middle" x="1817.37" y="-453.32" font-family="Times,serif" font-size="14.00">r ragg</text>
</a>
</g>
</g>
<!-- r&#45;base&#45;&gt;r&#45;ragg -->
<g id="edge29" class="edge">
<title>r&#45;base&#45;&gt;r&#45;ragg</title>
<path fill="none" stroke="black" d="M1758.09,-656.24C1763.72,-646.02 1770.6,-632.55 1775.37,-620 1792.63,-574.59 1805.34,-519.36 1812.03,-486.81"/>
<polygon fill="black" stroke="black" points="1815.6,-487.79 1814.14,-477.3 1808.74,-486.41 1815.6,-487.79"/>
</g>
<!-- r&#45;rtiff -->
<g id="node28" class="node">
<title>r&#45;rtiff</title>
<g id="a_node28"><a xlink:href="https://github.com/conda-forge/r-rtiff-feedstock" xlink:title="r rtiff">
<ellipse fill="#fde725" stroke="black" cx="1887.37" cy="-386" rx="38.06" ry="18"/>
<text text-anchor="middle" x="1887.37" y="-381.32" font-family="Times,serif" font-size="14.00">r rtiff</text>
</a>
</g>
</g>
<!-- r&#45;base&#45;&gt;r&#45;rtiff -->
<g id="edge30" class="edge">
<title>r&#45;base&#45;&gt;r&#45;rtiff</title>
<path fill="none" stroke="black" d="M1764.38,-656.66C1773.77,-646.58 1785.5,-633.12 1794.37,-620 1834.69,-560.4 1844.21,-543.78 1868.37,-476 1875.42,-456.22 1880.27,-433 1883.31,-415.23"/>
<polygon fill="black" stroke="black" points="1886.91,-415.86 1885.05,-405.44 1880,-414.75 1886.91,-415.86"/>
</g>
<!-- r&#45;imager -->
<g id="node29" class="node">
<title>r&#45;imager</title>
<g id="a_node29"><a xlink:href="https://github.com/conda-forge/r-imager-feedstock" xlink:title="r imager">
<ellipse fill="#fde725" stroke="black" cx="1668.37" cy="-458" rx="54.36" ry="18"/>
<text text-anchor="middle" x="1668.37" y="-453.32" font-family="Times,serif" font-size="14.00">r imager</text>
</a>
</g>
</g>
<!-- r&#45;base&#45;&gt;r&#45;imager -->
<g id="edge31" class="edge">
<title>r&#45;base&#45;&gt;r&#45;imager</title>
<path fill="none" stroke="black" d="M1710.44,-662.03C1689.97,-653.96 1666.47,-640.71 1654.37,-620 1629.98,-578.25 1644.78,-519.74 1657.05,-485.96"/>
<polygon fill="black" stroke="black" points="1660.59,-487.51 1660.9,-476.92 1654.05,-485.01 1660.59,-487.51"/>
</g>
<!-- r&#45;tiff&#45;&gt;r&#45;imager -->
<g id="edge32" class="edge">
<title>r&#45;tiff&#45;&gt;r&#45;imager</title>
<path fill="none" stroke="black" d="M1713.21,-513.12C1706.15,-504.59 1697.28,-493.89 1689.29,-484.25"/>
<polygon fill="black" stroke="black" points="1691.37,-482.26 1682.29,-476.8 1685.98,-486.73 1691.37,-482.26"/>
</g>
<!-- vigra -->
<g id="node30" class="node">
<title>vigra</title>
<g id="a_node30"><a xlink:href="https://github.com/conda-forge/vigra-feedstock" xlink:title="vigra">
<ellipse fill="#ff8c00" stroke="black" cx="867.37" cy="-162" rx="37" ry="18"/>
<text text-anchor="middle" x="867.37" y="-157.32" font-family="Times,serif" font-size="14.00">vigra</text>
</a>
</g>
</g>
<!-- enblend -->
<g id="node31" class="node">
<title>enblend</title>
<g id="a_node31"><a xlink:href="https://github.com/conda-forge/enblend-feedstock" xlink:title="enblend">
<ellipse fill="#fde725" stroke="black" cx="827.37" cy="-90" rx="51.21" ry="18"/>
<text text-anchor="middle" x="827.37" y="-85.33" font-family="Times,serif" font-size="14.00">enblend</text>
</a>
</g>
</g>
<!-- vigra&#45;&gt;enblend -->
<g id="edge33" class="edge">
<title>vigra&#45;&gt;enblend</title>
<path fill="none" stroke="black" d="M857.89,-144.41C853.28,-136.34 847.62,-126.43 842.43,-117.35"/>
<polygon fill="black" stroke="black" points="845.06,-115.9 837.06,-108.96 838.98,-119.38 845.06,-115.9"/>
</g>
<!-- hugin -->
<g id="node32" class="node">
<title>hugin</title>
<g id="a_node32"><a xlink:href="https://github.com/conda-forge/hugin-feedstock" xlink:title="hugin">
<ellipse fill="#fde725" stroke="black" cx="950.37" cy="-18" rx="39.63" ry="18"/>
<text text-anchor="middle" x="950.37" y="-13.32" font-family="Times,serif" font-size="14.00">hugin</text>
</a>
</g>
</g>
<!-- vigra&#45;&gt;hugin -->
<g id="edge34" class="edge">
<title>vigra&#45;&gt;hugin</title>
<path fill="none" stroke="black" d="M877.22,-144.15C891.51,-119.71 918.12,-74.17 935.01,-45.29"/>
<polygon fill="black" stroke="black" points="938.51,-47.22 940.54,-36.82 932.47,-43.69 938.51,-47.22"/>
</g>
<!-- enblend&#45;&gt;hugin -->
<g id="edge35" class="edge">
<title>enblend&#45;&gt;hugin</title>
<path fill="none" stroke="black" d="M853.46,-74.15C872,-63.6 897.06,-49.34 917.05,-37.96"/>
<polygon fill="black" stroke="black" points="918.45,-40.62 925.41,-32.64 914.99,-34.54 918.45,-40.62"/>
</g>
<!-- vtk -->
<g id="node33" class="node">
<title>vtk</title>
<g id="a_node33"><a xlink:href="https://github.com/conda-forge/vtk-feedstock/pull/309" xlink:title="vtk ✓">
<ellipse fill="#31688e" stroke="black" cx="438.37" cy="-674" rx="34.9" ry="18"/>
<text text-anchor="middle" x="438.37" y="-669.33" font-family="Times,serif" font-size="14.00" fill="white">vtk ✓</text>
</a>
</g>
</g>
<!-- vtk&#45;&gt;puma -->
<g id="edge36" class="edge">
<title>vtk&#45;&gt;puma</title>
<path fill="none" stroke="black" d="M452.67,-657.12C460.72,-648.17 470.94,-636.81 479.94,-626.81"/>
<polygon fill="black" stroke="black" points="482.05,-629.6 486.13,-619.82 476.84,-624.91 482.05,-629.6"/>
</g>
<!-- libwebp -->
<g id="node34" class="node">
<title>libwebp</title>
<g id="a_node34"><a xlink:href="https://github.com/conda-forge/libwebp-feedstock/pull/53" xlink:title="libwebp ✓">
<ellipse fill="#31688e" stroke="black" cx="1100.37" cy="-746" rx="58.57" ry="18"/>
<text text-anchor="middle" x="1100.37" y="-741.33" font-family="Times,serif" font-size="14.00" fill="white">libwebp ✓</text>
</a>
</g>
</g>
<!-- libwebp&#45;&gt;imagemagick -->
<g id="edge37" class="edge">
<title>libwebp&#45;&gt;imagemagick</title>
<path fill="none" stroke="black" d="M1088,-728.16C1074.4,-709.93 1051.66,-680.21 1030.37,-656 1021.9,-646.36 1012.16,-636.21 1003.41,-627.4"/>
<polygon fill="black" stroke="black" points="1006.28,-625.31 996.72,-620.73 1001.33,-630.27 1006.28,-625.31"/>
</g>
<!-- libwebp&#45;&gt;libvips -->
<g id="edge38" class="edge">
<title>libwebp&#45;&gt;libvips</title>
<path fill="none" stroke="black" d="M1079.88,-728.93C1055.25,-710.04 1012.23,-678.45 972.37,-656 938.05,-636.67 924.14,-641.86 891.37,-620 872.02,-607.09 874.48,-593.79 853.37,-584 815.63,-566.49 546.89,-544.12 429.74,-535.07"/>
<polygon fill="black" stroke="black" points="430.13,-531.51 419.89,-534.24 429.59,-538.49 430.13,-531.51"/>
</g>
<!-- libwebp&#45;&gt;imread -->
<g id="edge39" class="edge">
<title>libwebp&#45;&gt;imread</title>
<path fill="none" stroke="black" d="M1139.07,-732.16C1175.07,-720.22 1228.69,-702.43 1266.53,-689.88"/>
<polygon fill="black" stroke="black" points="1267.37,-692.95 1275.76,-686.48 1265.17,-686.31 1267.37,-692.95"/>
</g>
<!-- libwebp&#45;&gt;libgd -->
<g id="edge40" class="edge">
<title>libwebp&#45;&gt;libgd</title>
<path fill="none" stroke="black" d="M1115.54,-728.41C1123.54,-719.66 1133.51,-708.75 1142.35,-699.08"/>
<polygon fill="black" stroke="black" points="1144.59,-701.73 1148.75,-691.99 1139.42,-697.01 1144.59,-701.73"/>
</g>
<!-- libwebp&#45;&gt;graphicsmagick -->
<g id="edge41" class="edge">
<title>libwebp&#45;&gt;graphicsmagick</title>
<path fill="none" stroke="black" d="M1101.54,-727.79C1103.35,-709.24 1107.94,-679.25 1119.37,-656 1124.28,-646.03 1131.47,-636.38 1138.67,-628.11"/>
<polygon fill="black" stroke="black" points="1140.9,-630.76 1145.09,-621.03 1135.75,-626.03 1140.9,-630.76"/>
</g>
<!-- libwebp&#45;&gt;opencv -->
<g id="edge42" class="edge">
<title>libwebp&#45;&gt;opencv</title>
<path fill="none" stroke="black" d="M1134.34,-730.89C1156.4,-721.15 1185.4,-707.24 1209.37,-692 1226.21,-681.29 1265.96,-648.35 1292.77,-625.69"/>
<polygon fill="black" stroke="black" points="1294.61,-627.87 1299.98,-618.74 1290.09,-622.53 1294.61,-627.87"/>
</g>
<!-- libwebp&#45;&gt;pillow -->
<g id="edge43" class="edge">
<title>libwebp&#45;&gt;pillow</title>
<path fill="none" stroke="black" d="M1049.4,-736.67C987.75,-726.51 880.85,-708.63 789.37,-692 776.22,-689.61 761.98,-686.91 748.86,-684.37"/>
<polygon fill="black" stroke="black" points="749.64,-680.77 739.16,-682.29 748.31,-687.64 749.64,-680.77"/>
</g>
<!-- libwebp&#45;&gt;leptonica -->
<g id="edge44" class="edge">
<title>libwebp&#45;&gt;leptonica</title>
<path fill="none" stroke="black" d="M1058.53,-733.05C1016.65,-721.08 952.13,-702.65 907.07,-689.77"/>
<polygon fill="black" stroke="black" points="908.21,-686.17 897.63,-686.79 906.28,-692.9 908.21,-686.17"/>
</g>
<!-- libwebp&#45;&gt;tesseract -->
<g id="edge45" class="edge">
<title>libwebp&#45;&gt;tesseract</title>
<path fill="none" stroke="black" d="M1071.91,-729.88C1036.9,-711.51 975.46,-680.01 921.37,-656 892.32,-643.1 859.09,-630.04 832.87,-620.11"/>
<polygon fill="black" stroke="black" points="834.42,-616.57 823.83,-616.32 831.95,-623.12 834.42,-616.57"/>
</g>
<!-- libwebp&#45;&gt;imagecodecs -->
<g id="edge46" class="edge">
<title>libwebp&#45;&gt;imagecodecs</title>
<path fill="none" stroke="black" d="M1044.88,-739.89C959.88,-731.74 792.46,-714.4 651.37,-692 644.93,-690.98 638.24,-689.82 631.57,-688.59"/>
<polygon fill="black" stroke="black" points="632.6,-685.03 622.13,-686.62 631.3,-691.91 632.6,-685.03"/>
</g>
<!-- openimageio -->
<g id="node35" class="node">
<title>openimageio</title>
<g id="a_node35"><a xlink:href="https://github.com/conda-forge/openimageio-feedstock" xlink:title="openimageio">
<ellipse fill="#fde725" stroke="black" cx="1328.37" cy="-530" rx="74.88" ry="18"/>
<text text-anchor="middle" x="1328.37" y="-525.33" font-family="Times,serif" font-size="14.00">openimageio</text>
</a>
</g>
</g>
<!-- libwebp&#45;&gt;openimageio -->
<g id="edge47" class="edge">
<title>libwebp&#45;&gt;openimageio</title>
<path fill="none" stroke="black" d="M1157.44,-741.36C1227.04,-735.67 1338.84,-722.01 1366.37,-692 1398.91,-656.53 1391.21,-629.09 1374.37,-584 1370.41,-573.39 1363.25,-563.49 1355.75,-555.19"/>
<polygon fill="black" stroke="black" points="1358.71,-553.19 1349.23,-548.45 1353.69,-558.06 1358.71,-553.19"/>
</g>
<!-- sdl_image -->
<g id="node36" class="node">
<title>sdl_image</title>
<g id="a_node36"><a xlink:href="https://github.com/conda-forge/sdl_image-feedstock" xlink:title="sdl_image">
<ellipse fill="#fde725" stroke="black" cx="1405.37" cy="-458" rx="61.2" ry="18"/>
<text text-anchor="middle" x="1405.37" y="-453.32" font-family="Times,serif" font-size="14.00">sdl_image</text>
</a>
</g>
</g>
<!-- libwebp&#45;&gt;sdl_image -->
<g id="edge48" class="edge">
<title>libwebp&#45;&gt;sdl_image</title>
<path fill="none" stroke="black" d="M1158.12,-742.19C1233.33,-737.28 1358.95,-724.35 1390.37,-692 1443.95,-636.83 1426.36,-535.46 1413.65,-486.67"/>
<polygon fill="black" stroke="black" points="1416.82,-486 1410.81,-477.28 1410.07,-487.84 1416.82,-486"/>
</g>
<!-- tomviz -->
<g id="node37" class="node">
<title>tomviz</title>
<g id="a_node37"><a xlink:href="https://github.com/conda-forge/tomviz-feedstock" xlink:title="tomviz">
<ellipse fill="#fde725" stroke="black" cx="1494.37" cy="-386" rx="44.9" ry="18"/>
<text text-anchor="middle" x="1494.37" y="-381.32" font-family="Times,serif" font-size="14.00">tomviz</text>
</a>
</g>
</g>
<!-- libwebp&#45;&gt;tomviz -->
<g id="edge49" class="edge">
<title>libwebp&#45;&gt;tomviz</title>
<path fill="none" stroke="black" d="M1156.28,-740.09C1234.48,-732.47 1371.83,-716.11 1415.37,-692 1461.64,-666.38 1494.37,-655.89 1494.37,-603 1494.37,-603 1494.37,-603 1494.37,-529 1494.37,-489.57 1494.37,-443.97 1494.37,-415.31"/>
<polygon fill="black" stroke="black" points="1497.87,-415.49 1494.37,-405.49 1490.87,-415.49 1497.87,-415.49"/>
</g>
<!-- afterimage -->
<g id="node38" class="node">
<title>afterimage</title>
<g id="a_node38"><a xlink:href="https://github.com/conda-forge/afterimage-feedstock/pull/15" xlink:title="afterimage ✓">
<ellipse fill="#31688e" stroke="black" cx="1596.37" cy="-674" rx="73.83" ry="18"/>
<text text-anchor="middle" x="1596.37" y="-669.33" font-family="Times,serif" font-size="14.00" fill="white">afterimage ✓</text>
</a>
</g>
</g>
<!-- afterimage&#45;&gt;root -->
<g id="edge50" class="edge">
<title>afterimage&#45;&gt;root</title>
<path fill="none" stroke="black" d="M1591.18,-655.7C1588.89,-648.07 1586.15,-638.92 1583.59,-630.4"/>
<polygon fill="black" stroke="black" points="1586.73,-629.68 1580.5,-621.1 1580.02,-631.69 1586.73,-629.68"/>
</g>
<!-- gnuastro -->
<g id="node40" class="node">
<title>gnuastro</title>
<g id="a_node40"><a xlink:href="https://github.com/conda-forge/gnuastro-feedstock" xlink:title="gnuastro">
<ellipse fill="#35b779" stroke="black" cx="2062.37" cy="-638" rx="55.94" ry="18"/>
<text text-anchor="middle" x="2062.37" y="-633.33" font-family="Times,serif" font-size="14.00">gnuastro</text>
</a>
</g>
</g>
<!-- netpbm&#45;&gt;gnuastro -->
<!-- pylibtiff -->
<g id="node41" class="node">
<title>pylibtiff</title>
<g id="a_node41"><a xlink:href="https://github.com/conda-forge/pylibtiff-feedstock" xlink:title="pylibtiff">
<ellipse fill="#35b779" stroke="black" cx="2062.37" cy="-566" rx="50.16" ry="18"/>
<text text-anchor="middle" x="2062.37" y="-561.33" font-family="Times,serif" font-size="14.00">pylibtiff</text>
</a>
</g>
</g>
<!-- gnuastro&#45;&gt;pylibtiff -->
<!-- openscenegraph -->
<g id="node42" class="node">
<title>openscenegraph</title>
<g id="a_node42"><a xlink:href="https://github.com/conda-forge/openscenegraph-feedstock/pull/31" xlink:title="openscenegraph ❎">
<ellipse fill="#31688e" stroke="black" cx="2062.37" cy="-494" rx="108.55" ry="18"/>
<text text-anchor="middle" x="2062.37" y="-489.32" font-family="Times,serif" font-size="14.00" fill="white">openscenegraph ❎</text>
</a>
</g>
</g>
<!-- pylibtiff&#45;&gt;openscenegraph -->
<!-- match&#45;series -->
<g id="node43" class="node">
<title>match&#45;series</title>
<g id="a_node43"><a xlink:href="https://github.com/conda-forge/match-series-feedstock" xlink:title="match series">
<ellipse fill="#35b779" stroke="black" cx="2062.37" cy="-422" rx="75.41" ry="18"/>
<text text-anchor="middle" x="2062.37" y="-417.32" font-family="Times,serif" font-size="14.00">match series</text>
</a>
</g>
</g>
<!-- openscenegraph&#45;&gt;match&#45;series -->
<!-- povray -->
<g id="node45" class="node">
<title>povray</title>
<g id="a_node45"><a xlink:href="https://github.com/conda-forge/povray-feedstock" xlink:title="povray">
<ellipse fill="#35b779" stroke="black" cx="2062.37" cy="-350" rx="45.42" ry="18"/>
<text text-anchor="middle" x="2062.37" y="-345.32" font-family="Times,serif" font-size="14.00">povray</text>
</a>
</g>
</g>
<!-- match&#45;series&#45;&gt;povray -->
<!-- libpano13 -->
<g id="node44" class="node">
<title>libpano13</title>
<g id="a_node44"><a xlink:href="https://github.com/conda-forge/libpano13-feedstock" xlink:title="libpano13">
<ellipse fill="#35b779" stroke="black" cx="995.37" cy="-90" rx="60.68" ry="18"/>
<text text-anchor="middle" x="995.37" y="-85.33" font-family="Times,serif" font-size="14.00">libpano13</text>
</a>
</g>
</g>
<!-- libpano13&#45;&gt;hugin -->
<g id="edge56" class="edge">
<title>libpano13&#45;&gt;hugin</title>
<path fill="none" stroke="black" d="M984.48,-72.05C979.23,-63.89 972.82,-53.91 966.97,-44.82"/>
<polygon fill="black" stroke="black" points="969.52,-43.31 961.17,-36.79 963.63,-47.09 969.52,-43.31"/>
</g>
<!-- exitwavereconstruction -->
<g id="node47" class="node">
<title>exitwavereconstruction</title>
<g id="a_node47"><a xlink:href="https://github.com/conda-forge/exitwavereconstruction-feedstock" xlink:title="exitwavereconstruction">
<ellipse fill="#35b779" stroke="black" cx="2062.37" cy="-278" rx="129.07" ry="18"/>
<text text-anchor="middle" x="2062.37" y="-273.32" font-family="Times,serif" font-size="14.00">exitwavereconstruction</text>
</a>
</g>
</g>
<!-- povray&#45;&gt;exitwavereconstruction -->
<!-- wxwidgets -->
<g id="node46" class="node">
<title>wxwidgets</title>
<g id="a_node46"><a xlink:href="https://github.com/conda-forge/wxwidgets-feedstock" xlink:title="wxwidgets">
<ellipse fill="#35b779" stroke="black" cx="1084.37" cy="-162" rx="64.89" ry="18"/>
<text text-anchor="middle" x="1084.37" y="-157.32" font-family="Times,serif" font-size="14.00">wxwidgets</text>
</a>
</g>
</g>
<!-- wxwidgets&#45;&gt;hugin -->
<g id="edge58" class="edge">
<title>wxwidgets&#45;&gt;hugin</title>
<path fill="none" stroke="black" d="M1085.06,-143.68C1084.92,-124.2 1081.85,-92.61 1065.37,-72 1048.21,-50.54 1020.39,-37.4 996.41,-29.57"/>
<polygon fill="black" stroke="black" points="997.65,-25.99 987.06,-26.44 995.62,-32.69 997.65,-25.99"/>
</g>
<!-- pytiff -->
<g id="node48" class="node">
<title>pytiff</title>
<g id="a_node48"><a xlink:href="https://github.com/conda-forge/pytiff-feedstock" xlink:title="pytiff">
<ellipse fill="#35b779" stroke="black" cx="2062.37" cy="-206" rx="37.53" ry="18"/>
<text text-anchor="middle" x="2062.37" y="-201.32" font-family="Times,serif" font-size="14.00">pytiff</text>
</a>
</g>
</g>
<!-- exitwavereconstruction&#45;&gt;pytiff -->
<!-- gtk4 -->
<g id="node49" class="node">
<title>gtk4</title>
<g id="a_node49"><a xlink:href="https://github.com/conda-forge/gtk4-feedstock" xlink:title="gtk4">
<ellipse fill="#35b779" stroke="black" cx="2278.37" cy="-854" rx="33.85" ry="18"/>
<text text-anchor="middle" x="2278.37" y="-849.33" font-family="Times,serif" font-size="14.00">gtk4</text>
</a>
</g>
</g>
<!-- cudadecon -->
<g id="node50" class="node">
<title>cudadecon</title>
<g id="a_node50"><a xlink:href="https://github.com/conda-forge/cudadecon-feedstock" xlink:title="cudadecon">
<ellipse fill="#35b779" stroke="black" cx="2278.37" cy="-782" rx="64.36" ry="18"/>
<text text-anchor="middle" x="2278.37" y="-777.33" font-family="Times,serif" font-size="14.00">cudadecon</text>
</a>
</g>
</g>
<!-- gtk4&#45;&gt;cudadecon -->
<!-- cudasirecon -->
<g id="node51" class="node">
<title>cudasirecon</title>
<g id="a_node51"><a xlink:href="https://github.com/conda-forge/cudasirecon-feedstock" xlink:title="cudasirecon">
<ellipse fill="#35b779" stroke="black" cx="2278.37" cy="-710" rx="71.2" ry="18"/>
<text text-anchor="middle" x="2278.37" y="-705.33" font-family="Times,serif" font-size="14.00">cudasirecon</text>
</a>
</g>
</g>
<!-- cudadecon&#45;&gt;cudasirecon -->
<!-- podofo -->
<g id="node52" class="node">
<title>podofo</title>
<g id="a_node52"><a xlink:href="https://github.com/conda-forge/podofo-feedstock" xlink:title="podofo">
<ellipse fill="#35b779" stroke="black" cx="2278.37" cy="-638" rx="44.9" ry="18"/>
<text text-anchor="middle" x="2278.37" y="-633.33" font-family="Times,serif" font-size="14.00">podofo</text>
</a>
</g>
</g>
<!-- cudasirecon&#45;&gt;podofo -->
<!-- djvulibre -->
<g id="node53" class="node">
<title>djvulibre</title>
<g id="a_node53"><a xlink:href="https://github.com/conda-forge/djvulibre-feedstock" xlink:title="djvulibre">
<ellipse fill="#35b779" stroke="black" cx="2278.37" cy="-566" rx="55.94" ry="18"/>
<text text-anchor="middle" x="2278.37" y="-561.33" font-family="Times,serif" font-size="14.00">djvulibre</text>
</a>
</g>
</g>
<!-- podofo&#45;&gt;djvulibre -->
<!-- tvips&#45;tools -->
<g id="node54" class="node">
<title>tvips&#45;tools</title>
<g id="a_node54"><a xlink:href="https://github.com/conda-forge/tvips-tools-feedstock" xlink:title="tvips tools">
<ellipse fill="#35b779" stroke="black" cx="2278.37" cy="-494" rx="63.31" ry="18"/>
<text text-anchor="middle" x="2278.37" y="-489.32" font-family="Times,serif" font-size="14.00">tvips tools</text>
</a>
</g>
</g>
<!-- djvulibre&#45;&gt;tvips&#45;tools -->
<!-- microed&#45;tools -->
<g id="node55" class="node">
<title>microed&#45;tools</title>
<g id="a_node55"><a xlink:href="https://github.com/conda-forge/microed-tools-feedstock" xlink:title="microed tools">
<ellipse fill="#35b779" stroke="black" cx="2278.37" cy="-422" rx="79.09" ry="18"/>
<text text-anchor="middle" x="2278.37" y="-417.32" font-family="Times,serif" font-size="14.00">microed tools</text>
</a>
</g>
</g>
<!-- tvips&#45;tools&#45;&gt;microed&#45;tools -->
<!-- diplib -->
<g id="node56" class="node">
<title>diplib</title>
<g id="a_node56"><a xlink:href="https://github.com/conda-forge/diplib-feedstock" xlink:title="diplib">
<ellipse fill="#35b779" stroke="black" cx="2278.37" cy="-350" rx="39.63" ry="18"/>
<text text-anchor="middle" x="2278.37" y="-345.32" font-family="Times,serif" font-size="14.00">diplib</text>
</a>
</g>
</g>
<!-- microed&#45;tools&#45;&gt;diplib -->
<!-- pdfmm -->
<g id="node57" class="node">
<title>pdfmm</title>
<g id="a_node57"><a xlink:href="https://github.com/conda-forge/pdfmm-feedstock" xlink:title="pdfmm">
<ellipse fill="#35b779" stroke="black" cx="2278.37" cy="-278" rx="46.47" ry="18"/>
<text text-anchor="middle" x="2278.37" y="-273.32" font-family="Times,serif" font-size="14.00">pdfmm</text>
</a>
</g>
</g>
<!-- diplib&#45;&gt;pdfmm -->
<!-- nyxus -->
<g id="node58" class="node">
<title>nyxus</title>
<g id="a_node58"><a xlink:href="https://github.com/conda-forge/nyxus-feedstock" xlink:title="nyxus">
<ellipse fill="#fde725" stroke="black" cx="2062.37" cy="-54" rx="40.69" ry="18"/>
<text text-anchor="middle" x="2062.37" y="-49.33" font-family="Times,serif" font-size="14.00">nyxus</text>
</a>
</g>
</g>
<!-- dcmtk -->
<g id="node59" class="node">
<title>dcmtk</title>
<g id="a_node59"><a xlink:href="https://github.com/conda-forge/dcmtk-feedstock" xlink:title="dcmtk">
<ellipse fill="#35b779" stroke="black" cx="2062.37" cy="-126" rx="42.26" ry="18"/>
<text text-anchor="middle" x="2062.37" y="-121.33" font-family="Times,serif" font-size="14.00">dcmtk</text>
</a>
</g>
</g>
<!-- dcmtk&#45;&gt;nyxus -->
<g id="edge69" class="edge">
<title>dcmtk&#45;&gt;nyxus</title>
<path fill="none" stroke="black" d="M2062.37,-107.7C2062.37,-100.24 2062.37,-91.32 2062.37,-82.97"/>
<polygon fill="black" stroke="black" points="2065.87,-83.1 2062.37,-73.1 2058.87,-83.1 2065.87,-83.1"/>
</g>
</g>
</svg>
