<?xml version="1.0" encoding="UTF-8" standalone="no"?>
<!DOCTYPE svg PUBLIC "-//W3C//DTD SVG 1.1//EN"
 "http://www.w3.org/Graphics/SVG/1.1/DTD/svg11.dtd">
<!-- Generated by graphviz version 8.1.0 (20230707.2238)
 -->
<!-- Pages: 1 -->
<svg width="2505pt" height="952pt"
 viewBox="0.00 0.00 2505.47 952.00" xmlns="http://www.w3.org/2000/svg" xmlns:xlink="http://www.w3.org/1999/xlink">
<g id="graph0" class="graph" transform="scale(1 1) rotate(0) translate(4 948)">
<polygon fill="white" stroke="none" points="-4,4 -4,-948 2501.47,-948 2501.47,4 -4,4"/>
<!-- emacs -->
<g id="node1" class="node">
<title>emacs</title>
<g id="a_node1"><a xlink:href="https://github.com/conda-forge/emacs-feedstock" xlink:title="emacs">
<ellipse fill="#35b779" stroke="black" cx="2202.38" cy="-926" rx="42.79" ry="18"/>
<text text-anchor="middle" x="2202.38" y="-921.33" font-family="Times,serif" font-size="14.00">emacs</text>
</a>
</g>
</g>
<!-- libcdms -->
<g id="node2" class="node">
<title>libcdms</title>
<g id="a_node2"><a xlink:href="https://github.com/conda-forge/libcdms-feedstock" xlink:title="libcdms">
<ellipse fill="#35b779" stroke="black" cx="2202.38" cy="-854" rx="50.16" ry="18"/>
<text text-anchor="middle" x="2202.38" y="-849.33" font-family="Times,serif" font-size="14.00">libcdms</text>
</a>
</g>
</g>
<!-- emacs&#45;&gt;libcdms -->
<!-- libitk -->
<g id="node9" class="node">
<title>libitk</title>
<g id="a_node9"><a xlink:href="https://github.com/conda-forge/libitk-feedstock/pull/85" xlink:title="libitk ❎">
<ellipse fill="#31688e" stroke="black" cx="2202.38" cy="-782" rx="52.26" ry="18"/>
<text text-anchor="middle" x="2202.38" y="-777.33" font-family="Times,serif" font-size="14.00" fill="white">libitk ❎</text>
</a>
</g>
</g>
<!-- libcdms&#45;&gt;libitk -->
<!-- freeimage -->
<g id="node3" class="node">
<title>freeimage</title>
<g id="a_node3"><a xlink:href="https://github.com/conda-forge/freeimage-feedstock" xlink:title="freeimage">
<ellipse fill="#fde725" stroke="black" cx="409.38" cy="-674" rx="61.73" ry="18"/>
<text text-anchor="middle" x="409.38" y="-669.33" font-family="Times,serif" font-size="14.00">freeimage</text>
</a>
</g>
</g>
<!-- gdal -->
<g id="node4" class="node">
<title>gdal</title>
<g id="a_node4"><a xlink:href="https://github.com/conda-forge/gdal-feedstock" xlink:title="gdal">
<ellipse fill="#fde725" stroke="black" cx="188.38" cy="-602" rx="32.79" ry="18"/>
<text text-anchor="middle" x="188.38" y="-597.33" font-family="Times,serif" font-size="14.00">gdal</text>
</a>
</g>
</g>
<!-- geotiff -->
<g id="node5" class="node">
<title>geotiff</title>
<g id="a_node5"><a xlink:href="https://github.com/conda-forge/geotiff-feedstock/pull/61" xlink:title="geotiff ❎">
<ellipse fill="#31688e" stroke="black" cx="154.38" cy="-674" rx="58.57" ry="18"/>
<text text-anchor="middle" x="154.38" y="-669.33" font-family="Times,serif" font-size="14.00" fill="white">geotiff ❎</text>
</a>
</g>
</g>
<!-- geotiff&#45;&gt;gdal -->
<g id="edge2" class="edge">
<title>geotiff&#45;&gt;gdal</title>
<path fill="none" stroke="black" d="M162.78,-655.7C166.62,-647.78 171.26,-638.23 175.53,-629.44"/>
<polygon fill="black" stroke="black" points="179.08,-631.15 180.3,-620.62 172.78,-628.09 179.08,-631.15"/>
</g>
<!-- imagemagick -->
<g id="node6" class="node">
<title>imagemagick</title>
<g id="a_node6"><a xlink:href="https://github.com/conda-forge/imagemagick-feedstock" xlink:title="imagemagick">
<ellipse fill="#fde725" stroke="black" cx="1153.38" cy="-602" rx="77.52" ry="18"/>
<text text-anchor="middle" x="1153.38" y="-597.33" font-family="Times,serif" font-size="14.00">imagemagick</text>
</a>
</g>
</g>
<!-- libvips -->
<g id="node7" class="node">
<title>libvips</title>
<g id="a_node7"><a xlink:href="https://github.com/conda-forge/libvips-feedstock" xlink:title="libvips">
<ellipse fill="#fde725" stroke="black" cx="339.38" cy="-530" rx="44.37" ry="18"/>
<text text-anchor="middle" x="339.38" y="-525.33" font-family="Times,serif" font-size="14.00">libvips</text>
</a>
</g>
</g>
<!-- imagemagick&#45;&gt;libvips -->
<g id="edge3" class="edge">
<title>imagemagick&#45;&gt;libvips</title>
<path fill="none" stroke="black" d="M1096.6,-589.5C1084.98,-587.44 1072.81,-585.47 1061.38,-584 813.57,-552.11 515.25,-537.79 394.3,-532.98"/>
<polygon fill="black" stroke="black" points="394.63,-529.45 384.5,-532.56 394.35,-536.44 394.63,-529.45"/>
</g>
<!-- imread -->
<g id="node8" class="node">
<title>imread</title>
<g id="a_node8"><a xlink:href="https://github.com/conda-forge/imread-feedstock" xlink:title="imread">
<ellipse fill="#fde725" stroke="black" cx="1228.38" cy="-674" rx="46.47" ry="18"/>
<text text-anchor="middle" x="1228.38" y="-669.33" font-family="Times,serif" font-size="14.00">imread</text>
</a>
</g>
</g>
<!-- astromatic&#45;stiff -->
<g id="node13" class="node">
<title>astromatic&#45;stiff</title>
<g id="a_node13"><a xlink:href="https://github.com/conda-forge/astromatic-stiff-feedstock" xlink:title="astromatic stiff">
<ellipse fill="#35b779" stroke="black" cx="2202.38" cy="-710" rx="87.51" ry="18"/>
<text text-anchor="middle" x="2202.38" y="-705.33" font-family="Times,serif" font-size="14.00">astromatic stiff</text>
</a>
</g>
</g>
<!-- libitk&#45;&gt;astromatic&#45;stiff -->
<!-- libgd -->
<g id="node10" class="node">
<title>libgd</title>
<g id="a_node10"><a xlink:href="https://github.com/conda-forge/libgd-feedstock" xlink:title="libgd">
<ellipse fill="#fde725" stroke="black" cx="1329.38" cy="-674" rx="36.48" ry="18"/>
<text text-anchor="middle" x="1329.38" y="-669.33" font-family="Times,serif" font-size="14.00">libgd</text>
</a>
</g>
</g>
<!-- libgd&#45;&gt;imagemagick -->
<g id="edge5" class="edge">
<title>libgd&#45;&gt;imagemagick</title>
<path fill="none" stroke="black" d="M1301.49,-661.91C1274.64,-651.23 1233.48,-634.86 1201.36,-622.09"/>
<polygon fill="black" stroke="black" points="1202.87,-618.52 1192.28,-618.08 1200.28,-625.02 1202.87,-618.52"/>
</g>
<!-- graphicsmagick -->
<g id="node11" class="node">
<title>graphicsmagick</title>
<g id="a_node11"><a xlink:href="https://github.com/conda-forge/graphicsmagick-feedstock" xlink:title="graphicsmagick">
<ellipse fill="#fde725" stroke="black" cx="1339.38" cy="-602" rx="90.14" ry="18"/>
<text text-anchor="middle" x="1339.38" y="-597.33" font-family="Times,serif" font-size="14.00">graphicsmagick</text>
</a>
</g>
</g>
<!-- libgd&#45;&gt;graphicsmagick -->
<g id="edge6" class="edge">
<title>libgd&#45;&gt;graphicsmagick</title>
<path fill="none" stroke="black" d="M1331.85,-655.7C1332.91,-648.24 1334.19,-639.32 1335.38,-630.97"/>
<polygon fill="black" stroke="black" points="1338.98,-631.5 1336.93,-621.1 1332.05,-630.51 1338.98,-631.5"/>
</g>
<!-- root -->
<g id="node12" class="node">
<title>root</title>
<g id="a_node12"><a xlink:href="https://github.com/conda-forge/root-feedstock" xlink:title="root">
<ellipse fill="#fde725" stroke="black" cx="1703.38" cy="-602" rx="31.74" ry="18"/>
<text text-anchor="middle" x="1703.38" y="-597.33" font-family="Times,serif" font-size="14.00">root</text>
</a>
</g>
</g>
<!-- libgd&#45;&gt;root -->
<g id="edge7" class="edge">
<title>libgd&#45;&gt;root</title>
<path fill="none" stroke="black" d="M1365.45,-670.06C1427.21,-664.41 1556.75,-649.85 1662.38,-620 1664.66,-619.35 1667,-618.61 1669.33,-617.82"/>
<polygon fill="black" stroke="black" points="1670.29,-620.82 1678.43,-614.03 1667.84,-614.26 1670.29,-620.82"/>
</g>
<!-- netpbm -->
<g id="node41" class="node">
<title>netpbm</title>
<g id="a_node41"><a xlink:href="https://github.com/conda-forge/netpbm-feedstock" xlink:title="netpbm">
<ellipse fill="#35b779" stroke="black" cx="2202.38" cy="-638" rx="49.63" ry="18"/>
<text text-anchor="middle" x="2202.38" y="-633.33" font-family="Times,serif" font-size="14.00">netpbm</text>
</a>
</g>
</g>
<!-- astromatic&#45;stiff&#45;&gt;netpbm -->
<!-- opencv -->
<g id="node14" class="node">
<title>opencv</title>
<g id="a_node14"><a xlink:href="https://github.com/conda-forge/opencv-feedstock" xlink:title="opencv">
<ellipse fill="#fde725" stroke="black" cx="1607.38" cy="-602" rx="46.47" ry="18"/>
<text text-anchor="middle" x="1607.38" y="-597.33" font-family="Times,serif" font-size="14.00">opencv</text>
</a>
</g>
</g>
<!-- openjpeg -->
<g id="node15" class="node">
<title>openjpeg</title>
<g id="a_node15"><a xlink:href="https://github.com/conda-forge/openjpeg-feedstock/pull/48" xlink:title="openjpeg ✓">
<ellipse fill="#31688e" stroke="black" cx="454.38" cy="-746" rx="64.89" ry="18"/>
<text text-anchor="middle" x="454.38" y="-741.33" font-family="Times,serif" font-size="14.00" fill="white">openjpeg ✓</text>
</a>
</g>
</g>
<!-- openjpeg&#45;&gt;freeimage -->
<g id="edge9" class="edge">
<title>openjpeg&#45;&gt;freeimage</title>
<path fill="none" stroke="black" d="M443.48,-728.05C438.23,-719.89 431.82,-709.91 425.98,-700.82"/>
<polygon fill="black" stroke="black" points="428.52,-699.31 420.17,-692.79 422.63,-703.09 428.52,-699.31"/>
</g>
<!-- openjpeg&#45;&gt;gdal -->
<g id="edge10" class="edge">
<title>openjpeg&#45;&gt;gdal</title>
<path fill="none" stroke="black" d="M389.15,-745.4C294.14,-744.43 124.78,-736.34 86.38,-692 75.9,-679.91 78.07,-669.68 86.38,-656 90.32,-649.51 125.67,-631.98 153.66,-618.85"/>
<polygon fill="black" stroke="black" points="154.98,-621.63 162.57,-614.24 152.03,-615.28 154.98,-621.63"/>
</g>
<!-- openjpeg&#45;&gt;imagemagick -->
<g id="edge11" class="edge">
<title>openjpeg&#45;&gt;imagemagick</title>
<path fill="none" stroke="black" d="M519.58,-744.66C655.5,-743.08 964.36,-734.74 1059.38,-692 1090.4,-678.04 1117.6,-649.47 1134.65,-628.45"/>
<polygon fill="black" stroke="black" points="1137.89,-630.99 1141.32,-620.97 1132.39,-626.67 1137.89,-630.99"/>
</g>
<!-- openjpeg&#45;&gt;libvips -->
<g id="edge12" class="edge">
<title>openjpeg&#45;&gt;libvips</title>
<path fill="none" stroke="black" d="M390.27,-742.68C292.92,-738.13 113.39,-725.36 59.38,-692 26.44,-671.66 21.77,-656.99 10.38,-620 5.67,-604.71 0,-596.18 10.38,-584 44.84,-543.54 199.33,-533.85 283.79,-531.61"/>
<polygon fill="black" stroke="black" points="283.81,-535.09 293.72,-531.35 283.64,-528.09 283.81,-535.09"/>
</g>
<!-- pillow -->
<g id="node16" class="node">
<title>pillow</title>
<g id="a_node16"><a xlink:href="https://github.com/conda-forge/pillow-feedstock" xlink:title="pillow">
<ellipse fill="#fde725" stroke="black" cx="1009.38" cy="-674" rx="41.21" ry="18"/>
<text text-anchor="middle" x="1009.38" y="-669.33" font-family="Times,serif" font-size="14.00">pillow</text>
</a>
</g>
</g>
<!-- openjpeg&#45;&gt;pillow -->
<g id="edge13" class="edge">
<title>openjpeg&#45;&gt;pillow</title>
<path fill="none" stroke="black" d="M518.48,-742.85C615.09,-738.58 803.31,-726.27 959.38,-692 962.4,-691.34 965.49,-690.55 968.59,-689.69"/>
<polygon fill="black" stroke="black" points="969.46,-692.78 978.01,-686.53 967.42,-686.08 969.46,-692.78"/>
</g>
<!-- poppler -->
<g id="node17" class="node">
<title>poppler</title>
<g id="a_node17"><a xlink:href="https://github.com/conda-forge/poppler-feedstock" xlink:title="poppler">
<ellipse fill="#fde725" stroke="black" cx="280.38" cy="-674" rx="49.63" ry="18"/>
<text text-anchor="middle" x="280.38" y="-669.33" font-family="Times,serif" font-size="14.00">poppler</text>
</a>
</g>
</g>
<!-- openjpeg&#45;&gt;poppler -->
<g id="edge14" class="edge">
<title>openjpeg&#45;&gt;poppler</title>
<path fill="none" stroke="black" d="M418.74,-730.67C390.91,-719.47 352.14,-703.87 322.71,-692.03"/>
<polygon fill="black" stroke="black" points="324.31,-688.5 313.73,-688.02 321.7,-695 324.31,-688.5"/>
</g>
<!-- leptonica -->
<g id="node18" class="node">
<title>leptonica</title>
<g id="a_node18"><a xlink:href="https://github.com/conda-forge/leptonica-feedstock" xlink:title="leptonica">
<ellipse fill="#fde725" stroke="black" cx="584.38" cy="-674" rx="57" ry="18"/>
<text text-anchor="middle" x="584.38" y="-669.33" font-family="Times,serif" font-size="14.00">leptonica</text>
</a>
</g>
</g>
<!-- openjpeg&#45;&gt;leptonica -->
<g id="edge15" class="edge">
<title>openjpeg&#45;&gt;leptonica</title>
<path fill="none" stroke="black" d="M483.23,-729.46C502,-719.36 526.67,-706.07 546.94,-695.16"/>
<polygon fill="black" stroke="black" points="548.35,-697.83 555.5,-690.01 545.03,-691.67 548.35,-697.83"/>
</g>
<!-- tesseract -->
<g id="node19" class="node">
<title>tesseract</title>
<g id="a_node19"><a xlink:href="https://github.com/conda-forge/tesseract-feedstock" xlink:title="tesseract">
<ellipse fill="#fde725" stroke="black" cx="584.38" cy="-602" rx="57.52" ry="18"/>
<text text-anchor="middle" x="584.38" y="-597.33" font-family="Times,serif" font-size="14.00">tesseract</text>
</a>
</g>
</g>
<!-- openjpeg&#45;&gt;tesseract -->
<g id="edge16" class="edge">
<title>openjpeg&#45;&gt;tesseract</title>
<path fill="none" stroke="black" d="M464.7,-727.9C476.43,-709.17 496.77,-678.79 518.38,-656 528.85,-644.95 541.65,-634.17 553.19,-625.24"/>
<polygon fill="black" stroke="black" points="554.84,-627.63 560.7,-618.8 550.61,-622.04 554.84,-627.63"/>
</g>
<!-- openslide -->
<g id="node20" class="node">
<title>openslide</title>
<g id="a_node20"><a xlink:href="https://github.com/conda-forge/openslide-feedstock" xlink:title="openslide">
<ellipse fill="#fde725" stroke="black" cx="78.38" cy="-602" rx="59.1" ry="18"/>
<text text-anchor="middle" x="78.38" y="-597.33" font-family="Times,serif" font-size="14.00">openslide</text>
</a>
</g>
</g>
<!-- openjpeg&#45;&gt;openslide -->
<g id="edge17" class="edge">
<title>openjpeg&#45;&gt;openslide</title>
<path fill="none" stroke="black" d="M389.06,-745.74C291.37,-745.3 114.39,-737.98 74.38,-692 59.96,-675.44 62.76,-649.88 68.12,-630.4"/>
<polygon fill="black" stroke="black" points="71.72,-631.61 71.36,-621.02 65.04,-629.52 71.72,-631.61"/>
</g>
<!-- imagecodecs -->
<g id="node21" class="node">
<title>imagecodecs</title>
<g id="a_node21"><a xlink:href="https://github.com/conda-forge/imagecodecs-feedstock" xlink:title="imagecodecs">
<ellipse fill="#fde725" stroke="black" cx="772.38" cy="-674" rx="75.41" ry="18"/>
<text text-anchor="middle" x="772.38" y="-669.33" font-family="Times,serif" font-size="14.00">imagecodecs</text>
</a>
</g>
</g>
<!-- openjpeg&#45;&gt;imagecodecs -->
<g id="edge18" class="edge">
<title>openjpeg&#45;&gt;imagecodecs</title>
<path fill="none" stroke="black" d="M504.06,-734.06C558.94,-721.98 647.48,-702.49 707.72,-689.23"/>
<polygon fill="black" stroke="black" points="708.24,-692.48 717.25,-686.91 706.73,-685.65 708.24,-692.48"/>
</g>
<!-- paraview -->
<g id="node22" class="node">
<title>paraview</title>
<g id="a_node22"><a xlink:href="https://github.com/conda-forge/paraview-feedstock" xlink:title="paraview">
<ellipse fill="#fde725" stroke="black" cx="924.38" cy="-602" rx="57" ry="18"/>
<text text-anchor="middle" x="924.38" y="-597.33" font-family="Times,serif" font-size="14.00">paraview</text>
</a>
</g>
</g>
<!-- pillow&#45;&gt;paraview -->
<g id="edge19" class="edge">
<title>pillow&#45;&gt;paraview</title>
<path fill="none" stroke="black" d="M990.93,-657.81C979.66,-648.53 965.03,-636.48 952.36,-626.05"/>
<polygon fill="black" stroke="black" points="954.91,-622.79 944.97,-619.13 950.46,-628.19 954.91,-622.79"/>
</g>
<!-- wxpython -->
<g id="node23" class="node">
<title>wxpython</title>
<g id="a_node23"><a xlink:href="https://github.com/conda-forge/wxpython-feedstock" xlink:title="wxpython">
<ellipse fill="#fde725" stroke="black" cx="1009.38" cy="-530" rx="60.15" ry="18"/>
<text text-anchor="middle" x="1009.38" y="-525.33" font-family="Times,serif" font-size="14.00">wxpython</text>
</a>
</g>
</g>
<!-- pillow&#45;&gt;wxpython -->
<g id="edge20" class="edge">
<title>pillow&#45;&gt;wxpython</title>
<path fill="none" stroke="black" d="M1009.38,-655.59C1009.38,-631.5 1009.38,-587.75 1009.38,-559.03"/>
<polygon fill="black" stroke="black" points="1012.88,-559.11 1009.38,-549.11 1005.88,-559.11 1012.88,-559.11"/>
</g>
<!-- puma -->
<g id="node24" class="node">
<title>puma</title>
<g id="a_node24"><a xlink:href="https://github.com/conda-forge/puma-feedstock" xlink:title="puma">
<ellipse fill="#fde725" stroke="black" cx="810.38" cy="-602" rx="39.11" ry="18"/>
<text text-anchor="middle" x="810.38" y="-597.33" font-family="Times,serif" font-size="14.00">puma</text>
</a>
</g>
</g>
<!-- pillow&#45;&gt;puma -->
<g id="edge21" class="edge">
<title>pillow&#45;&gt;puma</title>
<path fill="none" stroke="black" d="M977.84,-661.96C947.29,-651.26 899.64,-634.55 858.38,-620 855.98,-619.16 853.52,-618.29 851.04,-617.41"/>
<polygon fill="black" stroke="black" points="852.44,-613.84 841.84,-613.8 850.1,-620.44 852.44,-613.84"/>
</g>
<!-- poppler&#45;&gt;gdal -->
<g id="edge22" class="edge">
<title>poppler&#45;&gt;gdal</title>
<path fill="none" stroke="black" d="M259.96,-657.46C246.81,-647.46 229.56,-634.34 215.3,-623.48"/>
<polygon fill="black" stroke="black" points="217.94,-620.34 207.86,-617.07 213.7,-625.91 217.94,-620.34"/>
</g>
<!-- poppler&#45;&gt;libvips -->
<g id="edge23" class="edge">
<title>poppler&#45;&gt;libvips</title>
<path fill="none" stroke="black" d="M295.78,-656.57C304.25,-646.67 314.25,-633.42 320.38,-620 329.19,-600.69 333.99,-577.14 336.56,-559.11"/>
<polygon fill="black" stroke="black" points="340.12,-559.79 337.91,-549.43 333.18,-558.91 340.12,-559.79"/>
</g>
<!-- sane -->
<g id="node25" class="node">
<title>sane</title>
<g id="a_node25"><a xlink:href="https://github.com/conda-forge/sane-feedstock" xlink:title="sane">
<ellipse fill="#fde725" stroke="black" cx="277.38" cy="-602" rx="34.37" ry="18"/>
<text text-anchor="middle" x="277.38" y="-597.33" font-family="Times,serif" font-size="14.00">sane</text>
</a>
</g>
</g>
<!-- poppler&#45;&gt;sane -->
<g id="edge24" class="edge">
<title>poppler&#45;&gt;sane</title>
<path fill="none" stroke="black" d="M279.63,-655.7C279.31,-648.24 278.93,-639.32 278.57,-630.97"/>
<polygon fill="black" stroke="black" points="282.03,-630.95 278.11,-621.1 275.04,-631.25 282.03,-630.95"/>
</g>
<!-- leptonica&#45;&gt;tesseract -->
<g id="edge25" class="edge">
<title>leptonica&#45;&gt;tesseract</title>
<path fill="none" stroke="black" d="M584.38,-655.7C584.38,-648.24 584.38,-639.32 584.38,-630.97"/>
<polygon fill="black" stroke="black" points="587.88,-631.1 584.38,-621.1 580.88,-631.1 587.88,-631.1"/>
</g>
<!-- openslide&#45;&gt;libvips -->
<g id="edge26" class="edge">
<title>openslide&#45;&gt;libvips</title>
<path fill="none" stroke="black" d="M121.77,-589.36C168.93,-576.71 244.04,-556.57 292.52,-543.57"/>
<polygon fill="black" stroke="black" points="293.29,-546.72 302.04,-540.74 291.48,-539.95 293.29,-546.72"/>
</g>
<!-- imagecodecs&#45;&gt;puma -->
<g id="edge27" class="edge">
<title>imagecodecs&#45;&gt;puma</title>
<path fill="none" stroke="black" d="M781.77,-655.7C786.11,-647.7 791.36,-638.02 796.18,-629.15"/>
<polygon fill="black" stroke="black" points="799.66,-631.08 801.35,-620.62 793.5,-627.74 799.66,-631.08"/>
</g>
<!-- r&#45;base -->
<g id="node26" class="node">
<title>r&#45;base</title>
<g id="a_node26"><a xlink:href="https://github.com/conda-forge/r-base-feedstock/pull/274" xlink:title="r base ✓">
<ellipse fill="#31688e" stroke="black" cx="1879.38" cy="-674" rx="50.16" ry="18"/>
<text text-anchor="middle" x="1879.38" y="-669.33" font-family="Times,serif" font-size="14.00" fill="white">r base ✓</text>
</a>
</g>
</g>
<!-- r&#45;base&#45;&gt;root -->
<g id="edge28" class="edge">
<title>r&#45;base&#45;&gt;root</title>
<path fill="none" stroke="black" d="M1846.68,-660C1816.05,-647.81 1770.38,-629.65 1738.86,-617.12"/>
<polygon fill="black" stroke="black" points="1740.35,-613.54 1729.76,-613.1 1737.76,-620.05 1740.35,-613.54"/>
</g>
<!-- r&#45;cairo -->
<g id="node27" class="node">
<title>r&#45;cairo</title>
<g id="a_node27"><a xlink:href="https://github.com/conda-forge/r-cairo-feedstock" xlink:title="r cairo">
<ellipse fill="#fde725" stroke="black" cx="2022.38" cy="-602" rx="43.84" ry="18"/>
<text text-anchor="middle" x="2022.38" y="-597.33" font-family="Times,serif" font-size="14.00">r cairo</text>
</a>
</g>
</g>
<!-- r&#45;base&#45;&gt;r&#45;cairo -->
<g id="edge29" class="edge">
<title>r&#45;base&#45;&gt;r&#45;cairo</title>
<path fill="none" stroke="black" d="M1908.31,-658.83C1930.45,-648 1961.15,-632.97 1985.12,-621.24"/>
<polygon fill="black" stroke="black" points="1986.49,-623.97 1993.94,-616.43 1983.41,-617.69 1986.49,-623.97"/>
</g>
<!-- r&#45;tiff -->
<g id="node28" class="node">
<title>r&#45;tiff</title>
<g id="a_node28"><a xlink:href="https://github.com/conda-forge/r-tiff-feedstock" xlink:title="r tiff">
<ellipse fill="#fde725" stroke="black" cx="1842.38" cy="-530" rx="33.32" ry="18"/>
<text text-anchor="middle" x="1842.38" y="-525.33" font-family="Times,serif" font-size="14.00">r tiff</text>
</a>
</g>
</g>
<!-- r&#45;base&#45;&gt;r&#45;tiff -->
<g id="edge30" class="edge">
<title>r&#45;base&#45;&gt;r&#45;tiff</title>
<path fill="none" stroke="black" d="M1874.84,-655.59C1868.53,-631.4 1857.06,-587.36 1849.58,-558.65"/>
<polygon fill="black" stroke="black" points="1852.74,-557.91 1846.83,-549.11 1845.97,-559.67 1852.74,-557.91"/>
</g>
<!-- r&#45;ragg -->
<g id="node29" class="node">
<title>r&#45;ragg</title>
<g id="a_node29"><a xlink:href="https://github.com/conda-forge/r-ragg-feedstock" xlink:title="r ragg">
<ellipse fill="#fde725" stroke="black" cx="1753.38" cy="-458" rx="42.26" ry="18"/>
<text text-anchor="middle" x="1753.38" y="-453.32" font-family="Times,serif" font-size="14.00">r ragg</text>
</a>
</g>
</g>
<!-- r&#45;base&#45;&gt;r&#45;ragg -->
<g id="edge31" class="edge">
<title>r&#45;base&#45;&gt;r&#45;ragg</title>
<path fill="none" stroke="black" d="M1868.22,-656.27C1852.52,-632.53 1823.27,-587.55 1800.38,-548 1788.45,-527.39 1775.9,-503.51 1766.78,-485.68"/>
<polygon fill="black" stroke="black" points="1769.48,-484.27 1761.83,-476.94 1763.24,-487.44 1769.48,-484.27"/>
</g>
<!-- r&#45;rtiff -->
<g id="node30" class="node">
<title>r&#45;rtiff</title>
<g id="a_node30"><a xlink:href="https://github.com/conda-forge/r-rtiff-feedstock" xlink:title="r rtiff">
<ellipse fill="#fde725" stroke="black" cx="1950.38" cy="-386" rx="38.06" ry="18"/>
<text text-anchor="middle" x="1950.38" y="-381.32" font-family="Times,serif" font-size="14.00">r rtiff</text>
</a>
</g>
</g>
<!-- r&#45;base&#45;&gt;r&#45;rtiff -->
<g id="edge32" class="edge">
<title>r&#45;base&#45;&gt;r&#45;rtiff</title>
<path fill="none" stroke="black" d="M1886.91,-656.07C1891.28,-645.79 1896.64,-632.31 1900.38,-620 1922.43,-547.32 1938.57,-459.05 1945.93,-414.93"/>
<polygon fill="black" stroke="black" points="1949.53,-415.64 1947.69,-405.2 1942.62,-414.5 1949.53,-415.64"/>
</g>
<!-- r&#45;imager -->
<g id="node31" class="node">
<title>r&#45;imager</title>
<g id="a_node31"><a xlink:href="https://github.com/conda-forge/r-imager-feedstock" xlink:title="r imager">
<ellipse fill="#fde725" stroke="black" cx="1868.38" cy="-458" rx="54.36" ry="18"/>
<text text-anchor="middle" x="1868.38" y="-453.32" font-family="Times,serif" font-size="14.00">r imager</text>
</a>
</g>
</g>
<!-- r&#45;base&#45;&gt;r&#45;imager -->
<g id="edge33" class="edge">
<title>r&#45;base&#45;&gt;r&#45;imager</title>
<path fill="none" stroke="black" d="M1881.87,-655.96C1885.76,-626.46 1892.05,-564.01 1884.38,-512 1883.12,-503.5 1880.79,-494.48 1878.29,-486.33"/>
<polygon fill="black" stroke="black" points="1881.31,-485.3 1874.86,-476.9 1874.66,-487.49 1881.31,-485.3"/>
</g>
<!-- r&#45;tiff&#45;&gt;r&#45;imager -->
<g id="edge34" class="edge">
<title>r&#45;tiff&#45;&gt;r&#45;imager</title>
<path fill="none" stroke="black" d="M1848.67,-512.05C1851.53,-504.35 1854.99,-495.03 1858.21,-486.36"/>
<polygon fill="black" stroke="black" points="1861.76,-487.87 1861.96,-477.28 1855.2,-485.43 1861.76,-487.87"/>
</g>
<!-- vigra -->
<g id="node32" class="node">
<title>vigra</title>
<g id="a_node32"><a xlink:href="https://github.com/conda-forge/vigra-feedstock" xlink:title="vigra">
<ellipse fill="#ff8c00" stroke="black" cx="936.38" cy="-162" rx="37" ry="18"/>
<text text-anchor="middle" x="936.38" y="-157.32" font-family="Times,serif" font-size="14.00">vigra</text>
</a>
</g>
</g>
<!-- enblend -->
<g id="node33" class="node">
<title>enblend</title>
<g id="a_node33"><a xlink:href="https://github.com/conda-forge/enblend-feedstock" xlink:title="enblend">
<ellipse fill="#fde725" stroke="black" cx="896.38" cy="-90" rx="51.21" ry="18"/>
<text text-anchor="middle" x="896.38" y="-85.33" font-family="Times,serif" font-size="14.00">enblend</text>
</a>
</g>
</g>
<!-- vigra&#45;&gt;enblend -->
<g id="edge35" class="edge">
<title>vigra&#45;&gt;enblend</title>
<path fill="none" stroke="black" d="M926.9,-144.41C922.28,-136.34 916.62,-126.43 911.43,-117.35"/>
<polygon fill="black" stroke="black" points="914.06,-115.9 906.06,-108.96 907.99,-119.38 914.06,-115.9"/>
</g>
<!-- hugin -->
<g id="node34" class="node">
<title>hugin</title>
<g id="a_node34"><a xlink:href="https://github.com/conda-forge/hugin-feedstock" xlink:title="hugin">
<ellipse fill="#fde725" stroke="black" cx="1019.38" cy="-18" rx="39.63" ry="18"/>
<text text-anchor="middle" x="1019.38" y="-13.32" font-family="Times,serif" font-size="14.00">hugin</text>
</a>
</g>
</g>
<!-- vigra&#45;&gt;hugin -->
<g id="edge36" class="edge">
<title>vigra&#45;&gt;hugin</title>
<path fill="none" stroke="black" d="M946.22,-144.15C960.51,-119.71 987.13,-74.17 1004.01,-45.29"/>
<polygon fill="black" stroke="black" points="1007.52,-47.22 1009.54,-36.82 1001.47,-43.69 1007.52,-47.22"/>
</g>
<!-- enblend&#45;&gt;hugin -->
<g id="edge37" class="edge">
<title>enblend&#45;&gt;hugin</title>
<path fill="none" stroke="black" d="M922.46,-74.15C941,-63.6 966.07,-49.34 986.06,-37.96"/>
<polygon fill="black" stroke="black" points="987.45,-40.62 994.41,-32.64 983.99,-34.54 987.45,-40.62"/>
</g>
<!-- vtk -->
<g id="node35" class="node">
<title>vtk</title>
<g id="a_node35"><a xlink:href="https://github.com/conda-forge/vtk-feedstock/pull/309" xlink:title="vtk ❎">
<ellipse fill="#31688e" stroke="black" cx="908.38" cy="-674" rx="42.26" ry="18"/>
<text text-anchor="middle" x="908.38" y="-669.33" font-family="Times,serif" font-size="14.00" fill="white">vtk ❎</text>
</a>
</g>
</g>
<!-- vtk&#45;&gt;puma -->
<g id="edge38" class="edge">
<title>vtk&#45;&gt;puma</title>
<path fill="none" stroke="black" d="M887.59,-658.15C873.6,-648.16 854.94,-634.83 839.47,-623.78"/>
<polygon fill="black" stroke="black" points="841.96,-620.55 831.79,-617.58 837.9,-626.24 841.96,-620.55"/>
</g>
<!-- libwebp -->
<g id="node36" class="node">
<title>libwebp</title>
<g id="a_node36"><a xlink:href="https://github.com/conda-forge/libwebp-feedstock/pull/53" xlink:title="libwebp ✓">
<ellipse fill="#31688e" stroke="black" cx="1228.38" cy="-746" rx="58.57" ry="18"/>
<text text-anchor="middle" x="1228.38" y="-741.33" font-family="Times,serif" font-size="14.00" fill="white">libwebp ✓</text>
</a>
</g>
</g>
<!-- libwebp&#45;&gt;imagemagick -->
<g id="edge39" class="edge">
<title>libwebp&#45;&gt;imagemagick</title>
<path fill="none" stroke="black" d="M1206.29,-728.92C1194.81,-719.42 1181.5,-706.45 1173.38,-692 1162.88,-673.34 1157.89,-649.58 1155.52,-631.3"/>
<polygon fill="black" stroke="black" points="1158.9,-631.01 1154.33,-621.45 1151.94,-631.77 1158.9,-631.01"/>
</g>
<!-- libwebp&#45;&gt;libvips -->
<g id="edge40" class="edge">
<title>libwebp&#45;&gt;libvips</title>
<path fill="none" stroke="black" d="M1206.28,-729.1C1151.93,-690.14 1014.44,-592.46 990.38,-584 881.01,-545.56 531.07,-534.71 394.61,-531.91"/>
<polygon fill="black" stroke="black" points="395.07,-528.39 385,-531.69 394.93,-535.39 395.07,-528.39"/>
</g>
<!-- libwebp&#45;&gt;imread -->
<g id="edge41" class="edge">
<title>libwebp&#45;&gt;imread</title>
<path fill="none" stroke="black" d="M1228.38,-727.7C1228.38,-720.24 1228.38,-711.32 1228.38,-702.97"/>
<polygon fill="black" stroke="black" points="1231.88,-703.1 1228.38,-693.1 1224.88,-703.1 1231.88,-703.1"/>
</g>
<!-- libwebp&#45;&gt;libgd -->
<g id="edge42" class="edge">
<title>libwebp&#45;&gt;libgd</title>
<path fill="none" stroke="black" d="M1251.29,-729.12C1265.79,-719.07 1284.67,-705.99 1300.23,-695.2"/>
<polygon fill="black" stroke="black" points="1301.72,-697.73 1307.95,-689.16 1297.73,-691.98 1301.72,-697.73"/>
</g>
<!-- libwebp&#45;&gt;graphicsmagick -->
<g id="edge43" class="edge">
<title>libwebp&#45;&gt;graphicsmagick</title>
<path fill="none" stroke="black" d="M1284.31,-740.12C1316.35,-734.13 1354.1,-720.93 1374.38,-692 1387.97,-672.6 1375.54,-647.19 1361.88,-628.48"/>
<polygon fill="black" stroke="black" points="1364.09,-626.63 1355.18,-620.9 1358.57,-630.93 1364.09,-626.63"/>
</g>
<!-- libwebp&#45;&gt;opencv -->
<g id="edge44" class="edge">
<title>libwebp&#45;&gt;opencv</title>
<path fill="none" stroke="black" d="M1285.12,-740.95C1364.82,-734.38 1504.93,-719.28 1547.38,-692 1570.2,-677.33 1586.47,-650.55 1596.26,-630.19"/>
<polygon fill="black" stroke="black" points="1599.84,-631.77 1600.79,-621.22 1593.47,-628.88 1599.84,-631.77"/>
</g>
<!-- libwebp&#45;&gt;pillow -->
<g id="edge45" class="edge">
<title>libwebp&#45;&gt;pillow</title>
<path fill="none" stroke="black" d="M1188.72,-732.32C1150.21,-720.02 1091.94,-701.39 1052.35,-688.74"/>
<polygon fill="black" stroke="black" points="1053.55,-685.13 1042.96,-685.42 1051.42,-691.79 1053.55,-685.13"/>
</g>
<!-- libwebp&#45;&gt;leptonica -->
<g id="edge46" class="edge">
<title>libwebp&#45;&gt;leptonica</title>
<path fill="none" stroke="black" d="M1170.69,-742.39C1066.98,-737.1 842.41,-722.88 655.38,-692 649.59,-691.05 643.58,-689.88 637.61,-688.61"/>
<polygon fill="black" stroke="black" points="638.5,-685 627.98,-686.24 636.97,-691.83 638.5,-685"/>
</g>
<!-- libwebp&#45;&gt;tesseract -->
<g id="edge47" class="edge">
<title>libwebp&#45;&gt;tesseract</title>
<path fill="none" stroke="black" d="M1169.92,-744.01C1048.45,-741.19 773,-730.62 688.38,-692 667.21,-682.34 667.9,-671.3 650.38,-656 638.64,-645.76 625.31,-634.91 613.72,-625.72"/>
<polygon fill="black" stroke="black" points="616.27,-622.49 606.24,-619.05 611.93,-627.98 616.27,-622.49"/>
</g>
<!-- libwebp&#45;&gt;imagecodecs -->
<g id="edge48" class="edge">
<title>libwebp&#45;&gt;imagecodecs</title>
<path fill="none" stroke="black" d="M1174.78,-738.29C1102.52,-729.03 969.92,-711.28 857.38,-692 851.2,-690.94 844.78,-689.78 838.37,-688.57"/>
<polygon fill="black" stroke="black" points="839.1,-684.96 828.62,-686.51 837.78,-691.83 839.1,-684.96"/>
</g>
<!-- openimageio -->
<g id="node37" class="node">
<title>openimageio</title>
<g id="a_node37"><a xlink:href="https://github.com/conda-forge/openimageio-feedstock" xlink:title="openimageio">
<ellipse fill="#fde725" stroke="black" cx="1392.38" cy="-530" rx="74.88" ry="18"/>
<text text-anchor="middle" x="1392.38" y="-525.33" font-family="Times,serif" font-size="14.00">openimageio</text>
</a>
</g>
</g>
<!-- libwebp&#45;&gt;openimageio -->
<g id="edge49" class="edge">
<title>libwebp&#45;&gt;openimageio</title>
<path fill="none" stroke="black" d="M1279.92,-737.18C1313.96,-729.97 1358.09,-716.52 1390.38,-692 1432.21,-660.23 1456.75,-633.21 1438.38,-584 1434.41,-573.39 1427.26,-563.49 1419.75,-555.19"/>
<polygon fill="black" stroke="black" points="1422.72,-553.19 1413.24,-548.45 1417.7,-558.06 1422.72,-553.19"/>
</g>
<!-- sdl_image -->
<g id="node38" class="node">
<title>sdl_image</title>
<g id="a_node38"><a xlink:href="https://github.com/conda-forge/sdl_image-feedstock" xlink:title="sdl_image">
<ellipse fill="#fde725" stroke="black" cx="1444.38" cy="-458" rx="61.2" ry="18"/>
<text text-anchor="middle" x="1444.38" y="-453.32" font-family="Times,serif" font-size="14.00">sdl_image</text>
</a>
</g>
</g>
<!-- libwebp&#45;&gt;sdl_image -->
<g id="edge50" class="edge">
<title>libwebp&#45;&gt;sdl_image</title>
<path fill="none" stroke="black" d="M1286.11,-742.28C1328.52,-737.46 1385.16,-724.78 1423.38,-692 1486.67,-637.7 1498.75,-592.34 1476.38,-512 1473.76,-502.62 1469,-493.25 1463.92,-485.05"/>
<polygon fill="black" stroke="black" points="1466.38,-483.43 1457.94,-477.03 1460.55,-487.3 1466.38,-483.43"/>
</g>
<!-- tomviz -->
<g id="node39" class="node">
<title>tomviz</title>
<g id="a_node39"><a xlink:href="https://github.com/conda-forge/tomviz-feedstock" xlink:title="tomviz">
<ellipse fill="#fde725" stroke="black" cx="1533.38" cy="-386" rx="44.9" ry="18"/>
<text text-anchor="middle" x="1533.38" y="-381.32" font-family="Times,serif" font-size="14.00">tomviz</text>
</a>
</g>
</g>
<!-- libwebp&#45;&gt;tomviz -->
<g id="edge51" class="edge">
<title>libwebp&#45;&gt;tomviz</title>
<path fill="none" stroke="black" d="M1286.46,-743.18C1374.95,-736.95 1533.38,-710.76 1533.38,-603 1533.38,-603 1533.38,-603 1533.38,-529 1533.38,-489.57 1533.38,-443.97 1533.38,-415.31"/>
<polygon fill="black" stroke="black" points="1536.88,-415.49 1533.38,-405.49 1529.88,-415.49 1536.88,-415.49"/>
</g>
<!-- afterimage -->
<g id="node40" class="node">
<title>afterimage</title>
<g id="a_node40"><a xlink:href="https://github.com/conda-forge/afterimage-feedstock" xlink:title="afterimage">
<ellipse fill="#ff8c00" stroke="black" cx="1703.38" cy="-674" rx="65.94" ry="18"/>
<text text-anchor="middle" x="1703.38" y="-669.33" font-family="Times,serif" font-size="14.00">afterimage</text>
</a>
</g>
</g>
<!-- afterimage&#45;&gt;root -->
<g id="edge52" class="edge">
<title>afterimage&#45;&gt;root</title>
<path fill="none" stroke="black" d="M1703.38,-655.7C1703.38,-648.24 1703.38,-639.32 1703.38,-630.97"/>
<polygon fill="black" stroke="black" points="1706.88,-631.1 1703.38,-621.1 1699.88,-631.1 1706.88,-631.1"/>
</g>
<!-- gnuastro -->
<g id="node42" class="node">
<title>gnuastro</title>
<g id="a_node42"><a xlink:href="https://github.com/conda-forge/gnuastro-feedstock" xlink:title="gnuastro">
<ellipse fill="#35b779" stroke="black" cx="2202.38" cy="-566" rx="55.94" ry="18"/>
<text text-anchor="middle" x="2202.38" y="-561.33" font-family="Times,serif" font-size="14.00">gnuastro</text>
</a>
</g>
</g>
<!-- netpbm&#45;&gt;gnuastro -->
<!-- pylibtiff -->
<g id="node43" class="node">
<title>pylibtiff</title>
<g id="a_node43"><a xlink:href="https://github.com/conda-forge/pylibtiff-feedstock" xlink:title="pylibtiff">
<ellipse fill="#35b779" stroke="black" cx="2202.38" cy="-494" rx="50.16" ry="18"/>
<text text-anchor="middle" x="2202.38" y="-489.32" font-family="Times,serif" font-size="14.00">pylibtiff</text>
</a>
</g>
</g>
<!-- gnuastro&#45;&gt;pylibtiff -->
<!-- openscenegraph -->
<g id="node44" class="node">
<title>openscenegraph</title>
<g id="a_node44"><a xlink:href="https://github.com/conda-forge/openscenegraph-feedstock" xlink:title="openscenegraph">
<ellipse fill="#35b779" stroke="black" cx="2202.38" cy="-422" rx="93.3" ry="18"/>
<text text-anchor="middle" x="2202.38" y="-417.32" font-family="Times,serif" font-size="14.00">openscenegraph</text>
</a>
</g>
</g>
<!-- pylibtiff&#45;&gt;openscenegraph -->
<!-- match&#45;series -->
<g id="node45" class="node">
<title>match&#45;series</title>
<g id="a_node45"><a xlink:href="https://github.com/conda-forge/match-series-feedstock" xlink:title="match series">
<ellipse fill="#35b779" stroke="black" cx="2202.38" cy="-350" rx="75.41" ry="18"/>
<text text-anchor="middle" x="2202.38" y="-345.32" font-family="Times,serif" font-size="14.00">match series</text>
</a>
</g>
</g>
<!-- openscenegraph&#45;&gt;match&#45;series -->
<!-- povray -->
<g id="node47" class="node">
<title>povray</title>
<g id="a_node47"><a xlink:href="https://github.com/conda-forge/povray-feedstock" xlink:title="povray">
<ellipse fill="#35b779" stroke="black" cx="2202.38" cy="-278" rx="45.42" ry="18"/>
<text text-anchor="middle" x="2202.38" y="-273.32" font-family="Times,serif" font-size="14.00">povray</text>
</a>
</g>
</g>
<!-- match&#45;series&#45;&gt;povray -->
<!-- libpano13 -->
<g id="node46" class="node">
<title>libpano13</title>
<g id="a_node46"><a xlink:href="https://github.com/conda-forge/libpano13-feedstock" xlink:title="libpano13">
<ellipse fill="#35b779" stroke="black" cx="1064.38" cy="-90" rx="60.68" ry="18"/>
<text text-anchor="middle" x="1064.38" y="-85.33" font-family="Times,serif" font-size="14.00">libpano13</text>
</a>
</g>
</g>
<!-- libpano13&#45;&gt;hugin -->
<g id="edge58" class="edge">
<title>libpano13&#45;&gt;hugin</title>
<path fill="none" stroke="black" d="M1053.48,-72.05C1048.23,-63.89 1041.82,-53.91 1035.98,-44.82"/>
<polygon fill="black" stroke="black" points="1038.52,-43.31 1030.17,-36.79 1032.63,-47.09 1038.52,-43.31"/>
</g>
<!-- exitwavereconstruction -->
<g id="node49" class="node">
<title>exitwavereconstruction</title>
<g id="a_node49"><a xlink:href="https://github.com/conda-forge/exitwavereconstruction-feedstock" xlink:title="exitwavereconstruction">
<ellipse fill="#35b779" stroke="black" cx="2202.38" cy="-206" rx="129.07" ry="18"/>
<text text-anchor="middle" x="2202.38" y="-201.32" font-family="Times,serif" font-size="14.00">exitwavereconstruction</text>
</a>
</g>
</g>
<!-- povray&#45;&gt;exitwavereconstruction -->
<!-- wxwidgets -->
<g id="node48" class="node">
<title>wxwidgets</title>
<g id="a_node48"><a xlink:href="https://github.com/conda-forge/wxwidgets-feedstock" xlink:title="wxwidgets">
<ellipse fill="#35b779" stroke="black" cx="1153.38" cy="-162" rx="64.89" ry="18"/>
<text text-anchor="middle" x="1153.38" y="-157.32" font-family="Times,serif" font-size="14.00">wxwidgets</text>
</a>
</g>
</g>
<!-- wxwidgets&#45;&gt;hugin -->
<g id="edge60" class="edge">
<title>wxwidgets&#45;&gt;hugin</title>
<path fill="none" stroke="black" d="M1154.06,-143.68C1153.92,-124.2 1150.86,-92.61 1134.38,-72 1117.21,-50.54 1089.39,-37.4 1065.41,-29.57"/>
<polygon fill="black" stroke="black" points="1066.65,-25.99 1056.07,-26.44 1064.62,-32.69 1066.65,-25.99"/>
</g>
<!-- pytiff -->
<g id="node50" class="node">
<title>pytiff</title>
<g id="a_node50"><a xlink:href="https://github.com/conda-forge/pytiff-feedstock" xlink:title="pytiff">
<ellipse fill="#35b779" stroke="black" cx="2418.38" cy="-890" rx="37.53" ry="18"/>
<text text-anchor="middle" x="2418.38" y="-885.33" font-family="Times,serif" font-size="14.00">pytiff</text>
</a>
</g>
</g>
<!-- gtk4 -->
<g id="node51" class="node">
<title>gtk4</title>
<g id="a_node51"><a xlink:href="https://github.com/conda-forge/gtk4-feedstock" xlink:title="gtk4">
<ellipse fill="#35b779" stroke="black" cx="2418.38" cy="-818" rx="33.85" ry="18"/>
<text text-anchor="middle" x="2418.38" y="-813.33" font-family="Times,serif" font-size="14.00">gtk4</text>
</a>
</g>
</g>
<!-- pytiff&#45;&gt;gtk4 -->
<!-- cudadecon -->
<g id="node52" class="node">
<title>cudadecon</title>
<g id="a_node52"><a xlink:href="https://github.com/conda-forge/cudadecon-feedstock" xlink:title="cudadecon">
<ellipse fill="#35b779" stroke="black" cx="2418.38" cy="-746" rx="64.36" ry="18"/>
<text text-anchor="middle" x="2418.38" y="-741.33" font-family="Times,serif" font-size="14.00">cudadecon</text>
</a>
</g>
</g>
<!-- gtk4&#45;&gt;cudadecon -->
<!-- cudasirecon -->
<g id="node53" class="node">
<title>cudasirecon</title>
<g id="a_node53"><a xlink:href="https://github.com/conda-forge/cudasirecon-feedstock" xlink:title="cudasirecon">
<ellipse fill="#35b779" stroke="black" cx="2418.38" cy="-674" rx="71.2" ry="18"/>
<text text-anchor="middle" x="2418.38" y="-669.33" font-family="Times,serif" font-size="14.00">cudasirecon</text>
</a>
</g>
</g>
<!-- cudadecon&#45;&gt;cudasirecon -->
<!-- podofo -->
<g id="node54" class="node">
<title>podofo</title>
<g id="a_node54"><a xlink:href="https://github.com/conda-forge/podofo-feedstock" xlink:title="podofo">
<ellipse fill="#35b779" stroke="black" cx="2418.38" cy="-602" rx="44.9" ry="18"/>
<text text-anchor="middle" x="2418.38" y="-597.33" font-family="Times,serif" font-size="14.00">podofo</text>
</a>
</g>
</g>
<!-- cudasirecon&#45;&gt;podofo -->
<!-- djvulibre -->
<g id="node55" class="node">
<title>djvulibre</title>
<g id="a_node55"><a xlink:href="https://github.com/conda-forge/djvulibre-feedstock" xlink:title="djvulibre">
<ellipse fill="#35b779" stroke="black" cx="2418.38" cy="-530" rx="55.94" ry="18"/>
<text text-anchor="middle" x="2418.38" y="-525.33" font-family="Times,serif" font-size="14.00">djvulibre</text>
</a>
</g>
</g>
<!-- podofo&#45;&gt;djvulibre -->
<!-- tvips&#45;tools -->
<g id="node56" class="node">
<title>tvips&#45;tools</title>
<g id="a_node56"><a xlink:href="https://github.com/conda-forge/tvips-tools-feedstock" xlink:title="tvips tools">
<ellipse fill="#35b779" stroke="black" cx="2418.38" cy="-458" rx="63.31" ry="18"/>
<text text-anchor="middle" x="2418.38" y="-453.32" font-family="Times,serif" font-size="14.00">tvips tools</text>
</a>
</g>
</g>
<!-- djvulibre&#45;&gt;tvips&#45;tools -->
<!-- microed&#45;tools -->
<g id="node57" class="node">
<title>microed&#45;tools</title>
<g id="a_node57"><a xlink:href="https://github.com/conda-forge/microed-tools-feedstock" xlink:title="microed tools">
<ellipse fill="#35b779" stroke="black" cx="2418.38" cy="-386" rx="79.09" ry="18"/>
<text text-anchor="middle" x="2418.38" y="-381.32" font-family="Times,serif" font-size="14.00">microed tools</text>
</a>
</g>
</g>
<!-- tvips&#45;tools&#45;&gt;microed&#45;tools -->
<!-- diplib -->
<g id="node58" class="node">
<title>diplib</title>
<g id="a_node58"><a xlink:href="https://github.com/conda-forge/diplib-feedstock" xlink:title="diplib">
<ellipse fill="#35b779" stroke="black" cx="2418.38" cy="-314" rx="39.63" ry="18"/>
<text text-anchor="middle" x="2418.38" y="-309.32" font-family="Times,serif" font-size="14.00">diplib</text>
</a>
</g>
</g>
<!-- microed&#45;tools&#45;&gt;diplib -->
<!-- pdfmm -->
<g id="node59" class="node">
<title>pdfmm</title>
<g id="a_node59"><a xlink:href="https://github.com/conda-forge/pdfmm-feedstock" xlink:title="pdfmm">
<ellipse fill="#35b779" stroke="black" cx="2418.38" cy="-242" rx="46.47" ry="18"/>
<text text-anchor="middle" x="2418.38" y="-237.32" font-family="Times,serif" font-size="14.00">pdfmm</text>
</a>
</g>
</g>
<!-- diplib&#45;&gt;pdfmm -->
<!-- nyxus -->
<g id="node60" class="node">
<title>nyxus</title>
<g id="a_node60"><a xlink:href="https://github.com/conda-forge/nyxus-feedstock" xlink:title="nyxus">
<ellipse fill="#fde725" stroke="black" cx="2202.38" cy="-54" rx="40.69" ry="18"/>
<text text-anchor="middle" x="2202.38" y="-49.33" font-family="Times,serif" font-size="14.00">nyxus</text>
</a>
</g>
</g>
<!-- dcmtk -->
<g id="node61" class="node">
<title>dcmtk</title>
<g id="a_node61"><a xlink:href="https://github.com/conda-forge/dcmtk-feedstock" xlink:title="dcmtk">
<ellipse fill="#35b779" stroke="black" cx="2202.38" cy="-126" rx="42.26" ry="18"/>
<text text-anchor="middle" x="2202.38" y="-121.33" font-family="Times,serif" font-size="14.00">dcmtk</text>
</a>
</g>
</g>
<!-- dcmtk&#45;&gt;nyxus -->
<g id="edge71" class="edge">
<title>dcmtk&#45;&gt;nyxus</title>
<path fill="none" stroke="black" d="M2202.38,-107.7C2202.38,-100.24 2202.38,-91.32 2202.38,-82.97"/>
<polygon fill="black" stroke="black" points="2205.88,-83.1 2202.38,-73.1 2198.88,-83.1 2205.88,-83.1"/>
</g>
</g>
</svg>
