<?xml version="1.0" encoding="UTF-8" standalone="no"?>
<!DOCTYPE svg PUBLIC "-//W3C//DTD SVG 1.1//EN"
 "http://www.w3.org/Graphics/SVG/1.1/DTD/svg11.dtd">
<!-- Generated by graphviz version 8.0.5 (20230506.1012)
 -->
<!-- Pages: 1 -->
<svg width="2026pt" height="1760pt"
 viewBox="0.00 0.00 2026.42 1760.00" xmlns="http://www.w3.org/2000/svg" xmlns:xlink="http://www.w3.org/1999/xlink">
<g id="graph0" class="graph" transform="scale(1 1) rotate(0) translate(4 1756)">
<polygon fill="white" stroke="none" points="-4,4 -4,-1756 2022.42,-1756 2022.42,4 -4,4"/>
<!-- cdo -->
<g id="node1" class="node">
<title>cdo</title>
<g id="a_node1"><a xlink:href="https://github.com/conda-forge/cdo-feedstock" xlink:title="cdo">
<ellipse fill="#fde725" stroke="black" cx="338.58" cy="-1446" rx="28.59" ry="18"/>
<text text-anchor="middle" x="338.58" y="-1441.33" font-family="Times,serif" font-size="14.00">cdo</text>
</a>
</g>
</g>
<!-- cyclus -->
<g id="node2" class="node">
<title>cyclus</title>
<g id="a_node2"><a xlink:href="https://github.com/conda-forge/cyclus-feedstock" xlink:title="cyclus">
<ellipse fill="#fde725" stroke="black" cx="1898.58" cy="-134" rx="42.26" ry="18"/>
<text text-anchor="middle" x="1898.58" y="-129.32" font-family="Times,serif" font-size="14.00">cyclus</text>
</a>
</g>
</g>
<!-- emacs -->
<g id="node3" class="node">
<title>emacs</title>
<g id="a_node3"><a xlink:href="https://github.com/conda-forge/emacs-feedstock/pull/71" xlink:title="emacs ❎">
<ellipse fill="#31688e" stroke="black" cx="1636.58" cy="-1734" rx="58.05" ry="18"/>
<text text-anchor="middle" x="1636.58" y="-1729.33" font-family="Times,serif" font-size="14.00" fill="white">emacs ❎</text>
</a>
</g>
</g>
<!-- halide -->
<g id="node4" class="node">
<title>halide</title>
<g id="a_node4"><a xlink:href="https://github.com/conda-forge/halide-feedstock/pull/8" xlink:title="halide ❎">
<ellipse fill="#31688e" stroke="black" cx="1636.58" cy="-1662" rx="57" ry="18"/>
<text text-anchor="middle" x="1636.58" y="-1657.33" font-family="Times,serif" font-size="14.00" fill="white">halide ❎</text>
</a>
</g>
</g>
<!-- emacs&#45;&gt;halide -->
<!-- igraph -->
<g id="node9" class="node">
<title>igraph</title>
<g id="a_node9"><a xlink:href="https://github.com/conda-forge/igraph-feedstock/pull/51" xlink:title="igraph ❎">
<ellipse fill="#31688e" stroke="black" cx="1636.58" cy="-1590" rx="59.1" ry="18"/>
<text text-anchor="middle" x="1636.58" y="-1585.33" font-family="Times,serif" font-size="14.00" fill="white">igraph ❎</text>
</a>
</g>
</g>
<!-- halide&#45;&gt;igraph -->
<!-- gdal -->
<g id="node5" class="node">
<title>gdal</title>
<g id="a_node5"><a xlink:href="https://github.com/conda-forge/gdal-feedstock" xlink:title="gdal">
<ellipse fill="#fde725" stroke="black" cx="417.58" cy="-1446" rx="32.79" ry="18"/>
<text text-anchor="middle" x="417.58" y="-1441.33" font-family="Times,serif" font-size="14.00">gdal</text>
</a>
</g>
</g>
<!-- pdal -->
<g id="node6" class="node">
<title>pdal</title>
<g id="a_node6"><a xlink:href="https://github.com/conda-forge/pdal-feedstock" xlink:title="pdal">
<ellipse fill="#fde725" stroke="black" cx="417.58" cy="-1374" rx="32.79" ry="18"/>
<text text-anchor="middle" x="417.58" y="-1369.33" font-family="Times,serif" font-size="14.00">pdal</text>
</a>
</g>
</g>
<!-- gdal&#45;&gt;pdal -->
<g id="edge2" class="edge">
<title>gdal&#45;&gt;pdal</title>
<path fill="none" stroke="black" d="M417.58,-1427.7C417.58,-1420.24 417.58,-1411.32 417.58,-1402.97"/>
<polygon fill="black" stroke="black" points="421.08,-1403.1 417.58,-1393.1 414.08,-1403.1 421.08,-1403.1"/>
</g>
<!-- mdal -->
<g id="node7" class="node">
<title>mdal</title>
<g id="a_node7"><a xlink:href="https://github.com/conda-forge/mdal-feedstock" xlink:title="mdal">
<ellipse fill="#fde725" stroke="black" cx="330.58" cy="-1374" rx="35.95" ry="18"/>
<text text-anchor="middle" x="330.58" y="-1369.33" font-family="Times,serif" font-size="14.00">mdal</text>
</a>
</g>
</g>
<!-- gdal&#45;&gt;mdal -->
<g id="edge3" class="edge">
<title>gdal&#45;&gt;mdal</title>
<path fill="none" stroke="black" d="M399.55,-1430.5C387.39,-1420.71 371.12,-1407.61 357.43,-1396.6"/>
<polygon fill="black" stroke="black" points="359.87,-1393.27 349.88,-1389.73 355.48,-1398.72 359.87,-1393.27"/>
</g>
<!-- mapserver -->
<g id="node8" class="node">
<title>mapserver</title>
<g id="a_node8"><a xlink:href="https://github.com/conda-forge/mapserver-feedstock" xlink:title="mapserver">
<ellipse fill="#fde725" stroke="black" cx="533.58" cy="-1374" rx="64.89" ry="18"/>
<text text-anchor="middle" x="533.58" y="-1369.33" font-family="Times,serif" font-size="14.00">mapserver</text>
</a>
</g>
</g>
<!-- gdal&#45;&gt;mapserver -->
<g id="edge4" class="edge">
<title>gdal&#45;&gt;mapserver</title>
<path fill="none" stroke="black" d="M439.13,-1432C455.61,-1422.05 478.69,-1408.13 497.91,-1396.53"/>
<polygon fill="black" stroke="black" points="499.52,-1399.04 506.27,-1390.88 495.9,-1393.05 499.52,-1399.04"/>
</g>
<!-- libcroco -->
<g id="node10" class="node">
<title>libcroco</title>
<g id="a_node10"><a xlink:href="https://github.com/conda-forge/libcroco-feedstock/pull/8" xlink:title="libcroco ❎">
<ellipse fill="#31688e" stroke="black" cx="1636.58" cy="-1518" rx="65.94" ry="18"/>
<text text-anchor="middle" x="1636.58" y="-1513.33" font-family="Times,serif" font-size="14.00" fill="white">libcroco ❎</text>
</a>
</g>
</g>
<!-- igraph&#45;&gt;libcroco -->
<!-- libdap4 -->
<g id="node11" class="node">
<title>libdap4</title>
<g id="a_node11"><a xlink:href="https://github.com/conda-forge/libdap4-feedstock/pull/43" xlink:title="libdap4 ❎">
<ellipse fill="#31688e" stroke="black" cx="1636.58" cy="-1446" rx="63.84" ry="18"/>
<text text-anchor="middle" x="1636.58" y="-1441.33" font-family="Times,serif" font-size="14.00" fill="white">libdap4 ❎</text>
</a>
</g>
</g>
<!-- libcroco&#45;&gt;libdap4 -->
<!-- libhwloc -->
<g id="node12" class="node">
<title>libhwloc</title>
<g id="a_node12"><a xlink:href="https://github.com/conda-forge/libhwloc-feedstock/pull/45" xlink:title="libhwloc ❎">
<ellipse fill="#31688e" stroke="black" cx="1636.58" cy="-1374" rx="68.04" ry="18"/>
<text text-anchor="middle" x="1636.58" y="-1369.33" font-family="Times,serif" font-size="14.00" fill="white">libhwloc ❎</text>
</a>
</g>
</g>
<!-- libdap4&#45;&gt;libhwloc -->
<!-- lighttpd -->
<g id="node13" class="node">
<title>lighttpd</title>
<g id="a_node13"><a xlink:href="https://github.com/conda-forge/lighttpd-feedstock/pull/18" xlink:title="lighttpd ✓">
<ellipse fill="#31688e" stroke="black" cx="1636.58" cy="-1302" rx="59.1" ry="18"/>
<text text-anchor="middle" x="1636.58" y="-1297.33" font-family="Times,serif" font-size="14.00" fill="white">lighttpd ✓</text>
</a>
</g>
</g>
<!-- libhwloc&#45;&gt;lighttpd -->
<!-- openturns -->
<g id="node21" class="node">
<title>openturns</title>
<g id="a_node21"><a xlink:href="https://github.com/conda-forge/openturns-feedstock" xlink:title="openturns">
<ellipse fill="#ff8c00" stroke="black" cx="1636.58" cy="-1230" rx="62.26" ry="18"/>
<text text-anchor="middle" x="1636.58" y="-1225.33" font-family="Times,serif" font-size="14.00">openturns</text>
</a>
</g>
</g>
<!-- lighttpd&#45;&gt;openturns -->
<!-- libnetcdf -->
<g id="node14" class="node">
<title>libnetcdf</title>
<g id="a_node14"><a xlink:href="https://github.com/conda-forge/libnetcdf-feedstock/pull/176" xlink:title="libnetcdf ✓">
<ellipse fill="#31688e" stroke="black" cx="338.58" cy="-1518" rx="63.31" ry="18"/>
<text text-anchor="middle" x="338.58" y="-1513.33" font-family="Times,serif" font-size="14.00" fill="white">libnetcdf ✓</text>
</a>
</g>
</g>
<!-- libnetcdf&#45;&gt;cdo -->
<g id="edge10" class="edge">
<title>libnetcdf&#45;&gt;cdo</title>
<path fill="none" stroke="black" d="M338.58,-1499.7C338.58,-1492.24 338.58,-1483.32 338.58,-1474.97"/>
<polygon fill="black" stroke="black" points="342.08,-1475.1 338.58,-1465.1 335.08,-1475.1 342.08,-1475.1"/>
</g>
<!-- libnetcdf&#45;&gt;gdal -->
<g id="edge11" class="edge">
<title>libnetcdf&#45;&gt;gdal</title>
<path fill="none" stroke="black" d="M357.3,-1500.41C367.95,-1490.98 381.41,-1479.05 392.92,-1468.86"/>
<polygon fill="black" stroke="black" points="394.71,-1472.06 399.87,-1462.8 390.07,-1466.82 394.71,-1472.06"/>
</g>
<!-- libnetcdf&#45;&gt;mdal -->
<g id="edge12" class="edge">
<title>libnetcdf&#45;&gt;mdal</title>
<path fill="none" stroke="black" d="M322.51,-1500.39C314.22,-1490.63 304.95,-1477.58 300.58,-1464 295.68,-1448.77 296.51,-1443.47 300.58,-1428 303.1,-1418.45 307.77,-1408.81 312.7,-1400.42"/>
<polygon fill="black" stroke="black" points="316.12,-1402.55 318.48,-1392.22 310.19,-1398.82 316.12,-1402.55"/>
</g>
<!-- paraview -->
<g id="node15" class="node">
<title>paraview</title>
<g id="a_node15"><a xlink:href="https://github.com/conda-forge/paraview-feedstock" xlink:title="paraview">
<ellipse fill="#fde725" stroke="black" cx="745.58" cy="-1374" rx="57" ry="18"/>
<text text-anchor="middle" x="745.58" y="-1369.33" font-family="Times,serif" font-size="14.00">paraview</text>
</a>
</g>
</g>
<!-- libnetcdf&#45;&gt;paraview -->
<g id="edge13" class="edge">
<title>libnetcdf&#45;&gt;paraview</title>
<path fill="none" stroke="black" d="M382.21,-1504.5C417.34,-1494.23 467.9,-1478.98 511.58,-1464 578.28,-1441.13 654.42,-1411.5 701.24,-1392.87"/>
<polygon fill="black" stroke="black" points="702.36,-1395.79 710.35,-1388.84 699.76,-1389.29 702.36,-1395.79"/>
</g>
<!-- vtk -->
<g id="node16" class="node">
<title>vtk</title>
<g id="a_node16"><a xlink:href="https://github.com/conda-forge/vtk-feedstock" xlink:title="vtk">
<ellipse fill="#fde725" stroke="black" cx="643.58" cy="-1374" rx="27.01" ry="18"/>
<text text-anchor="middle" x="643.58" y="-1369.33" font-family="Times,serif" font-size="14.00">vtk</text>
</a>
</g>
</g>
<!-- libnetcdf&#45;&gt;vtk -->
<g id="edge14" class="edge">
<title>libnetcdf&#45;&gt;vtk</title>
<path fill="none" stroke="black" d="M372.64,-1502.49C396.97,-1492.03 430.42,-1477.43 459.58,-1464 513.94,-1438.96 576.53,-1408.29 612.92,-1390.27"/>
<polygon fill="black" stroke="black" points="614.05,-1393.12 621.46,-1385.54 610.94,-1386.85 614.05,-1393.12"/>
</g>
<!-- pymol&#45;open&#45;source -->
<g id="node17" class="node">
<title>pymol&#45;open&#45;source</title>
<g id="a_node17"><a xlink:href="https://github.com/conda-forge/pymol-open-source-feedstock" xlink:title="pymol open source">
<ellipse fill="#fde725" stroke="black" cx="171.58" cy="-1374" rx="105.4" ry="18"/>
<text text-anchor="middle" x="171.58" y="-1369.33" font-family="Times,serif" font-size="14.00">pymol open source</text>
</a>
</g>
</g>
<!-- libnetcdf&#45;&gt;pymol&#45;open&#45;source -->
<g id="edge15" class="edge">
<title>libnetcdf&#45;&gt;pymol&#45;open&#45;source</title>
<path fill="none" stroke="black" d="M319.1,-1500.43C289.67,-1475.41 233.73,-1427.85 199.83,-1399.02"/>
<polygon fill="black" stroke="black" points="202.61,-1395.93 192.72,-1392.12 198.07,-1401.27 202.61,-1395.93"/>
</g>
<!-- fimex -->
<g id="node18" class="node">
<title>fimex</title>
<g id="a_node18"><a xlink:href="https://github.com/conda-forge/fimex-feedstock" xlink:title="fimex">
<ellipse fill="#fde725" stroke="black" cx="38.58" cy="-1302" rx="38.58" ry="18"/>
<text text-anchor="middle" x="38.58" y="-1297.33" font-family="Times,serif" font-size="14.00">fimex</text>
</a>
</g>
</g>
<!-- libnetcdf&#45;&gt;fimex -->
<g id="edge16" class="edge">
<title>libnetcdf&#45;&gt;fimex</title>
<path fill="none" stroke="black" d="M284.67,-1508.15C220.52,-1494.68 114.92,-1462.71 57.58,-1392 43.76,-1374.95 39.34,-1350.19 38.19,-1331.11"/>
<polygon fill="black" stroke="black" points="41.67,-1331.24 37.85,-1321.36 34.67,-1331.47 41.67,-1331.24"/>
</g>
<!-- ifcopenshell -->
<g id="node19" class="node">
<title>ifcopenshell</title>
<g id="a_node19"><a xlink:href="https://github.com/conda-forge/ifcopenshell-feedstock" xlink:title="ifcopenshell">
<ellipse fill="#fde725" stroke="black" cx="643.58" cy="-1302" rx="71.2" ry="18"/>
<text text-anchor="middle" x="643.58" y="-1297.33" font-family="Times,serif" font-size="14.00">ifcopenshell</text>
</a>
</g>
</g>
<!-- vtk&#45;&gt;ifcopenshell -->
<g id="edge17" class="edge">
<title>vtk&#45;&gt;ifcopenshell</title>
<path fill="none" stroke="black" d="M643.58,-1355.7C643.58,-1348.24 643.58,-1339.32 643.58,-1330.97"/>
<polygon fill="black" stroke="black" points="647.08,-1331.1 643.58,-1321.1 640.08,-1331.1 647.08,-1331.1"/>
</g>
<!-- libxmlpp -->
<g id="node20" class="node">
<title>libxmlpp</title>
<g id="a_node20"><a xlink:href="https://github.com/conda-forge/libxmlpp-feedstock/pull/22" xlink:title="libxmlpp ✓">
<ellipse fill="#31688e" stroke="black" cx="1898.58" cy="-206" rx="62.78" ry="18"/>
<text text-anchor="middle" x="1898.58" y="-201.33" font-family="Times,serif" font-size="14.00" fill="white">libxmlpp ✓</text>
</a>
</g>
</g>
<!-- libxmlpp&#45;&gt;cyclus -->
<g id="edge18" class="edge">
<title>libxmlpp&#45;&gt;cyclus</title>
<path fill="none" stroke="black" d="M1898.58,-187.7C1898.58,-180.24 1898.58,-171.32 1898.58,-162.97"/>
<polygon fill="black" stroke="black" points="1902.08,-163.1 1898.58,-153.1 1895.08,-163.1 1902.08,-163.1"/>
</g>
<!-- python&#45;igraph -->
<g id="node25" class="node">
<title>python&#45;igraph</title>
<g id="a_node25"><a xlink:href="https://github.com/conda-forge/python-igraph-feedstock/pull/68" xlink:title="python igraph ❎">
<ellipse fill="#31688e" stroke="black" cx="1636.58" cy="-1158" rx="96.98" ry="18"/>
<text text-anchor="middle" x="1636.58" y="-1153.33" font-family="Times,serif" font-size="14.00" fill="white">python igraph ❎</text>
</a>
</g>
</g>
<!-- openturns&#45;&gt;python&#45;igraph -->
<!-- lxml -->
<g id="node22" class="node">
<title>lxml</title>
<g id="a_node22"><a xlink:href="https://github.com/conda-forge/lxml-feedstock/pull/77" xlink:title="lxml ❎">
<ellipse fill="#31688e" stroke="black" cx="1636.58" cy="-90" rx="48.05" ry="18"/>
<text text-anchor="middle" x="1636.58" y="-85.33" font-family="Times,serif" font-size="14.00" fill="white">lxml ❎</text>
</a>
</g>
</g>
<!-- xmlsec -->
<g id="node23" class="node">
<title>xmlsec</title>
<g id="a_node23"><a xlink:href="https://github.com/conda-forge/xmlsec-feedstock" xlink:title="xmlsec">
<ellipse fill="#fde725" stroke="black" cx="1636.58" cy="-18" rx="45.95" ry="18"/>
<text text-anchor="middle" x="1636.58" y="-13.32" font-family="Times,serif" font-size="14.00">xmlsec</text>
</a>
</g>
</g>
<!-- lxml&#45;&gt;xmlsec -->
<g id="edge20" class="edge">
<title>lxml&#45;&gt;xmlsec</title>
<path fill="none" stroke="black" d="M1636.58,-71.7C1636.58,-64.24 1636.58,-55.32 1636.58,-46.97"/>
<polygon fill="black" stroke="black" points="1640.08,-47.1 1636.58,-37.1 1633.08,-47.1 1640.08,-47.1"/>
</g>
<!-- octave -->
<g id="node24" class="node">
<title>octave</title>
<g id="a_node24"><a xlink:href="https://github.com/conda-forge/octave-feedstock" xlink:title="octave">
<ellipse fill="#fde725" stroke="black" cx="925.58" cy="-1230" rx="43.84" ry="18"/>
<text text-anchor="middle" x="925.58" y="-1225.33" font-family="Times,serif" font-size="14.00">octave</text>
</a>
</g>
</g>
<!-- uwsgi -->
<g id="node34" class="node">
<title>uwsgi</title>
<g id="a_node34"><a xlink:href="https://github.com/conda-forge/uwsgi-feedstock" xlink:title="uwsgi">
<ellipse fill="#ff8c00" stroke="black" cx="1636.58" cy="-1086" rx="40.69" ry="18"/>
<text text-anchor="middle" x="1636.58" y="-1081.33" font-family="Times,serif" font-size="14.00">uwsgi</text>
</a>
</g>
</g>
<!-- python&#45;igraph&#45;&gt;uwsgi -->
<!-- postgresql -->
<g id="node26" class="node">
<title>postgresql</title>
<g id="a_node26"><a xlink:href="https://github.com/conda-forge/postgresql-feedstock" xlink:title="postgresql">
<ellipse fill="#ff8c00" stroke="black" cx="519.58" cy="-1518" rx="64.36" ry="18"/>
<text text-anchor="middle" x="519.58" y="-1513.33" font-family="Times,serif" font-size="14.00">postgresql</text>
</a>
</g>
</g>
<!-- postgresql&#45;&gt;gdal -->
<g id="edge22" class="edge">
<title>postgresql&#45;&gt;gdal</title>
<path fill="none" stroke="black" d="M496.18,-1500.94C481.33,-1490.75 462.02,-1477.5 446.25,-1466.68"/>
<polygon fill="black" stroke="black" points="448.66,-1463.4 438.44,-1460.63 444.7,-1469.17 448.66,-1463.4"/>
</g>
<!-- postgresql&#45;&gt;pdal -->
<g id="edge23" class="edge">
<title>postgresql&#45;&gt;pdal</title>
<path fill="none" stroke="black" d="M508.68,-1500C496.94,-1481.89 477.52,-1452.51 459.58,-1428 452.51,-1418.34 444.41,-1407.96 437.22,-1398.97"/>
<polygon fill="black" stroke="black" points="439.4,-1397.11 430.4,-1391.52 433.96,-1401.51 439.4,-1397.11"/>
</g>
<!-- postgresql&#45;&gt;mapserver -->
<g id="edge24" class="edge">
<title>postgresql&#45;&gt;mapserver</title>
<path fill="none" stroke="black" d="M521.3,-1499.59C523.67,-1475.5 527.99,-1431.75 530.82,-1403.03"/>
<polygon fill="black" stroke="black" points="534.4,-1403.41 531.89,-1393.11 527.43,-1402.72 534.4,-1403.41"/>
</g>
<!-- qt&#45;main -->
<g id="node27" class="node">
<title>qt&#45;main</title>
<g id="a_node27"><a xlink:href="https://github.com/conda-forge/qt-main-feedstock" xlink:title="qt main">
<ellipse fill="#fde725" stroke="black" cx="996.58" cy="-1446" rx="49.63" ry="18"/>
<text text-anchor="middle" x="996.58" y="-1441.33" font-family="Times,serif" font-size="14.00">qt main</text>
</a>
</g>
</g>
<!-- postgresql&#45;&gt;qt&#45;main -->
<g id="edge25" class="edge">
<title>postgresql&#45;&gt;qt&#45;main</title>
<path fill="none" stroke="black" d="M575.7,-1508.76C667.52,-1495.29 848.8,-1468.69 940.56,-1455.22"/>
<polygon fill="black" stroke="black" points="940.91,-1458.56 950.29,-1453.65 939.89,-1451.64 940.91,-1458.56"/>
</g>
<!-- qt&#45;main&#45;&gt;paraview -->
<g id="edge26" class="edge">
<title>qt&#45;main&#45;&gt;paraview</title>
<path fill="none" stroke="black" d="M958.19,-1434.29C915.29,-1422.33 845.6,-1402.89 797.77,-1389.56"/>
<polygon fill="black" stroke="black" points="798.89,-1385.96 788.32,-1386.64 797.01,-1392.7 798.89,-1385.96"/>
</g>
<!-- qt&#45;main&#45;&gt;vtk -->
<g id="edge27" class="edge">
<title>qt&#45;main&#45;&gt;vtk</title>
<path fill="none" stroke="black" d="M948.36,-1441.1C885.38,-1435.07 772.24,-1421.01 679.58,-1392 677.81,-1391.45 676.02,-1390.82 674.23,-1390.15"/>
<polygon fill="black" stroke="black" points="675.7,-1386.55 665.13,-1385.89 672.98,-1393 675.7,-1386.55"/>
</g>
<!-- qt&#45;main&#45;&gt;octave -->
<g id="edge28" class="edge">
<title>qt&#45;main&#45;&gt;octave</title>
<path fill="none" stroke="black" d="M993.62,-1427.54C988.13,-1397.4 974.96,-1334.01 953.58,-1284 949.8,-1275.16 945.1,-1265.79 940.64,-1257.43"/>
<polygon fill="black" stroke="black" points="943.26,-1255.93 935.39,-1248.84 937.12,-1259.29 943.26,-1255.93"/>
</g>
<!-- qtwebkit -->
<g id="node28" class="node">
<title>qtwebkit</title>
<g id="a_node28"><a xlink:href="https://github.com/conda-forge/qtwebkit-feedstock" xlink:title="qtwebkit">
<ellipse fill="#fde725" stroke="black" cx="913.58" cy="-1374" rx="55.42" ry="18"/>
<text text-anchor="middle" x="913.58" y="-1369.33" font-family="Times,serif" font-size="14.00">qtwebkit</text>
</a>
</g>
</g>
<!-- qt&#45;main&#45;&gt;qtwebkit -->
<g id="edge29" class="edge">
<title>qt&#45;main&#45;&gt;qtwebkit</title>
<path fill="none" stroke="black" d="M977.75,-1429.12C966.97,-1420.03 953.25,-1408.46 941.27,-1398.35"/>
<polygon fill="black" stroke="black" points="943.82,-1395.08 933.92,-1391.31 939.3,-1400.43 943.82,-1395.08"/>
</g>
<!-- pyside2 -->
<g id="node29" class="node">
<title>pyside2</title>
<g id="a_node29"><a xlink:href="https://github.com/conda-forge/pyside2-feedstock" xlink:title="pyside2">
<ellipse fill="#fde725" stroke="black" cx="1202.58" cy="-1302" rx="50.16" ry="18"/>
<text text-anchor="middle" x="1202.58" y="-1297.33" font-family="Times,serif" font-size="14.00">pyside2</text>
</a>
</g>
</g>
<!-- qt&#45;main&#45;&gt;pyside2 -->
<g id="edge30" class="edge">
<title>qt&#45;main&#45;&gt;pyside2</title>
<path fill="none" stroke="black" d="M1044.74,-1440.99C1106.08,-1434.76 1206.91,-1420.41 1229.58,-1392 1244.06,-1373.86 1233.77,-1348.04 1221.96,-1328.88"/>
<polygon fill="black" stroke="black" points="1224.39,-1327.21 1215.96,-1320.8 1218.56,-1331.07 1224.39,-1327.21"/>
</g>
<!-- graphicsmagick -->
<g id="node30" class="node">
<title>graphicsmagick</title>
<g id="a_node30"><a xlink:href="https://github.com/conda-forge/graphicsmagick-feedstock" xlink:title="graphicsmagick">
<ellipse fill="#fde725" stroke="black" cx="854.58" cy="-1302" rx="90.14" ry="18"/>
<text text-anchor="middle" x="854.58" y="-1297.33" font-family="Times,serif" font-size="14.00">graphicsmagick</text>
</a>
</g>
</g>
<!-- qt&#45;main&#45;&gt;graphicsmagick -->
<g id="edge31" class="edge">
<title>qt&#45;main&#45;&gt;graphicsmagick</title>
<path fill="none" stroke="black" d="M948.27,-1441.58C914.53,-1436.38 871.73,-1423.52 849.58,-1392 837.16,-1374.32 839.78,-1349.46 844.72,-1330.5"/>
<polygon fill="black" stroke="black" points="848.31,-1331.71 847.8,-1321.12 841.6,-1329.71 848.31,-1331.71"/>
</g>
<!-- qt&#45;webengine -->
<g id="node31" class="node">
<title>qt&#45;webengine</title>
<g id="a_node31"><a xlink:href="https://github.com/conda-forge/qt-webengine-feedstock" xlink:title="qt webengine">
<ellipse fill="#fde725" stroke="black" cx="1141.58" cy="-1374" rx="79.09" ry="18"/>
<text text-anchor="middle" x="1141.58" y="-1369.33" font-family="Times,serif" font-size="14.00">qt webengine</text>
</a>
</g>
</g>
<!-- qt&#45;main&#45;&gt;qt&#45;webengine -->
<g id="edge32" class="edge">
<title>qt&#45;main&#45;&gt;qt&#45;webengine</title>
<path fill="none" stroke="black" d="M1025.58,-1431C1046.62,-1420.84 1075.42,-1406.94 1099.06,-1395.53"/>
<polygon fill="black" stroke="black" points="1100.36,-1398.3 1107.84,-1390.81 1097.31,-1392 1100.36,-1398.3"/>
</g>
<!-- tomviz -->
<g id="node32" class="node">
<title>tomviz</title>
<g id="a_node32"><a xlink:href="https://github.com/conda-forge/tomviz-feedstock" xlink:title="tomviz">
<ellipse fill="#fde725" stroke="black" cx="1076.58" cy="-1302" rx="44.9" ry="18"/>
<text text-anchor="middle" x="1076.58" y="-1297.33" font-family="Times,serif" font-size="14.00">tomviz</text>
</a>
</g>
</g>
<!-- qt&#45;main&#45;&gt;tomviz -->
<g id="edge33" class="edge">
<title>qt&#45;main&#45;&gt;tomviz</title>
<path fill="none" stroke="black" d="M1006.23,-1427.87C1020.06,-1403.33 1045.63,-1357.94 1061.84,-1329.17"/>
<polygon fill="black" stroke="black" points="1065.29,-1331.18 1067.15,-1320.75 1059.19,-1327.74 1065.29,-1331.18"/>
</g>
<!-- gimagereader&#45;qt -->
<g id="node33" class="node">
<title>gimagereader&#45;qt</title>
<g id="a_node33"><a xlink:href="https://github.com/conda-forge/gimagereader-qt-feedstock" xlink:title="gimagereader qt">
<ellipse fill="#fde725" stroke="black" cx="1286.58" cy="-1230" rx="94.88" ry="18"/>
<text text-anchor="middle" x="1286.58" y="-1225.33" font-family="Times,serif" font-size="14.00">gimagereader qt</text>
</a>
</g>
</g>
<!-- qt&#45;main&#45;&gt;gimagereader&#45;qt -->
<g id="edge34" class="edge">
<title>qt&#45;main&#45;&gt;gimagereader&#45;qt</title>
<path fill="none" stroke="black" d="M1044.7,-1440.82C1109.03,-1434.26 1218.26,-1419.36 1246.58,-1392 1282.66,-1357.15 1288.16,-1295.21 1287.99,-1259.16"/>
<polygon fill="black" stroke="black" points="1291.48,-1259.36 1287.77,-1249.44 1284.48,-1259.51 1291.48,-1259.36"/>
</g>
<!-- graphicsmagick&#45;&gt;octave -->
<g id="edge45" class="edge">
<title>graphicsmagick&#45;&gt;octave</title>
<path fill="none" stroke="black" d="M871.77,-1284.05C880.84,-1275.12 892.1,-1264.01 901.97,-1254.28"/>
<polygon fill="black" stroke="black" points="903.86,-1257.34 908.53,-1247.83 898.95,-1252.36 903.86,-1257.34"/>
</g>
<!-- qt&#45;webengine&#45;&gt;pyside2 -->
<g id="edge68" class="edge">
<title>qt&#45;webengine&#45;&gt;pyside2</title>
<path fill="none" stroke="black" d="M1156.35,-1356.05C1163.8,-1347.5 1172.97,-1336.97 1181.18,-1327.56"/>
<polygon fill="black" stroke="black" points="1184.44,-1330.15 1188.37,-1320.31 1179.16,-1325.55 1184.44,-1330.15"/>
</g>
<!-- qt&#45;webengine&#45;&gt;tomviz -->
<g id="edge69" class="edge">
<title>qt&#45;webengine&#45;&gt;tomviz</title>
<path fill="none" stroke="black" d="M1125.85,-1356.05C1117.83,-1347.42 1107.93,-1336.76 1099.12,-1327.27"/>
<polygon fill="black" stroke="black" points="1102.09,-1325.25 1092.72,-1320.31 1096.96,-1330.02 1102.09,-1325.25"/>
</g>
<!-- postgres&#45;xl -->
<g id="node39" class="node">
<title>postgres&#45;xl</title>
<g id="a_node39"><a xlink:href="https://github.com/conda-forge/postgres-xl-feedstock/pull/11" xlink:title="postgres xl ❎">
<ellipse fill="#31688e" stroke="black" cx="1636.58" cy="-1014" rx="82.25" ry="18"/>
<text text-anchor="middle" x="1636.58" y="-1009.33" font-family="Times,serif" font-size="14.00" fill="white">postgres xl ❎</text>
</a>
</g>
</g>
<!-- uwsgi&#45;&gt;postgres&#45;xl -->
<!-- r&#45;base -->
<g id="node35" class="node">
<title>r&#45;base</title>
<g id="a_node35"><a xlink:href="https://github.com/conda-forge/r-base-feedstock/pull/252" xlink:title="r base ✓">
<ellipse fill="#31688e" stroke="black" cx="1908.58" cy="-718" rx="50.16" ry="18"/>
<text text-anchor="middle" x="1908.58" y="-713.33" font-family="Times,serif" font-size="14.00" fill="white">r base ✓</text>
</a>
</g>
</g>
<!-- r&#45;igraph -->
<g id="node36" class="node">
<title>r&#45;igraph</title>
<g id="a_node36"><a xlink:href="https://github.com/conda-forge/r-igraph-feedstock" xlink:title="r igraph">
<ellipse fill="#fde725" stroke="black" cx="1828.58" cy="-646" rx="51.74" ry="18"/>
<text text-anchor="middle" x="1828.58" y="-641.33" font-family="Times,serif" font-size="14.00">r igraph</text>
</a>
</g>
</g>
<!-- r&#45;base&#45;&gt;r&#45;igraph -->
<g id="edge36" class="edge">
<title>r&#45;base&#45;&gt;r&#45;igraph</title>
<path fill="none" stroke="black" d="M1890.43,-701.12C1879.97,-691.96 1866.63,-680.29 1855.02,-670.13"/>
<polygon fill="black" stroke="black" points="1857.77,-667.01 1847.94,-663.06 1853.16,-672.28 1857.77,-667.01"/>
</g>
<!-- r&#45;xml -->
<g id="node37" class="node">
<title>r&#45;xml</title>
<g id="a_node37"><a xlink:href="https://github.com/conda-forge/r-xml-feedstock" xlink:title="r xml">
<ellipse fill="#fde725" stroke="black" cx="1908.58" cy="-574" rx="37.53" ry="18"/>
<text text-anchor="middle" x="1908.58" y="-569.33" font-family="Times,serif" font-size="14.00">r xml</text>
</a>
</g>
</g>
<!-- r&#45;base&#45;&gt;r&#45;xml -->
<g id="edge37" class="edge">
<title>r&#45;base&#45;&gt;r&#45;xml</title>
<path fill="none" stroke="black" d="M1908.58,-699.59C1908.58,-675.5 1908.58,-631.75 1908.58,-603.03"/>
<polygon fill="black" stroke="black" points="1912.08,-603.11 1908.58,-593.11 1905.08,-603.11 1912.08,-603.11"/>
</g>
<!-- r&#45;xml2 -->
<g id="node38" class="node">
<title>r&#45;xml2</title>
<g id="a_node38"><a xlink:href="https://github.com/conda-forge/r-xml2-feedstock" xlink:title="r xml2">
<ellipse fill="#fde725" stroke="black" cx="1974.58" cy="-502" rx="43.84" ry="18"/>
<text text-anchor="middle" x="1974.58" y="-497.32" font-family="Times,serif" font-size="14.00">r xml2</text>
</a>
</g>
</g>
<!-- r&#45;base&#45;&gt;r&#45;xml2 -->
<g id="edge38" class="edge">
<title>r&#45;base&#45;&gt;r&#45;xml2</title>
<path fill="none" stroke="black" d="M1915.95,-699.89C1925.99,-676.06 1944.04,-631.38 1955.58,-592 1961.48,-571.85 1966.38,-548.64 1969.72,-530.97"/>
<polygon fill="black" stroke="black" points="1973.33,-531.72 1971.69,-521.25 1966.44,-530.46 1973.33,-531.72"/>
</g>
<!-- wxpython -->
<g id="node40" class="node">
<title>wxpython</title>
<g id="a_node40"><a xlink:href="https://github.com/conda-forge/wxpython-feedstock" xlink:title="wxpython">
<ellipse fill="#fde725" stroke="black" cx="1435.58" cy="-1446" rx="60.15" ry="18"/>
<text text-anchor="middle" x="1435.58" y="-1441.33" font-family="Times,serif" font-size="14.00">wxpython</text>
</a>
</g>
</g>
<!-- lldb -->
<g id="node41" class="node">
<title>lldb</title>
<g id="a_node41"><a xlink:href="https://github.com/conda-forge/lldb-feedstock/pull/37" xlink:title="lldb ❎">
<ellipse fill="#31688e" stroke="black" cx="1898.58" cy="-1734" rx="45.42" ry="18"/>
<text text-anchor="middle" x="1898.58" y="-1729.33" font-family="Times,serif" font-size="14.00" fill="white">lldb ❎</text>
</a>
</g>
</g>
<!-- asciidoc -->
<g id="node42" class="node">
<title>asciidoc</title>
<g id="a_node42"><a xlink:href="https://github.com/conda-forge/asciidoc-feedstock/pull/20" xlink:title="asciidoc ❎">
<ellipse fill="#31688e" stroke="black" cx="1898.58" cy="-1662" rx="66.47" ry="18"/>
<text text-anchor="middle" x="1898.58" y="-1657.33" font-family="Times,serif" font-size="14.00" fill="white">asciidoc ❎</text>
</a>
</g>
</g>
<!-- lldb&#45;&gt;asciidoc -->
<!-- libhdfs3 -->
<g id="node43" class="node">
<title>libhdfs3</title>
<g id="a_node43"><a xlink:href="https://github.com/conda-forge/libhdfs3-feedstock/pull/48" xlink:title="libhdfs3 ✓">
<ellipse fill="#31688e" stroke="black" cx="1898.58" cy="-1590" rx="59.63" ry="18"/>
<text text-anchor="middle" x="1898.58" y="-1585.33" font-family="Times,serif" font-size="14.00" fill="white">libhdfs3 ✓</text>
</a>
</g>
</g>
<!-- asciidoc&#45;&gt;libhdfs3 -->
<!-- modsecurity -->
<g id="node44" class="node">
<title>modsecurity</title>
<g id="a_node44"><a xlink:href="https://github.com/conda-forge/modsecurity-feedstock/pull/12" xlink:title="modsecurity ❎">
<ellipse fill="#31688e" stroke="black" cx="1898.58" cy="-1518" rx="88.56" ry="18"/>
<text text-anchor="middle" x="1898.58" y="-1513.33" font-family="Times,serif" font-size="14.00" fill="white">modsecurity ❎</text>
</a>
</g>
</g>
<!-- libhdfs3&#45;&gt;modsecurity -->
<!-- mdsplus -->
<g id="node45" class="node">
<title>mdsplus</title>
<g id="a_node45"><a xlink:href="https://github.com/conda-forge/mdsplus-feedstock" xlink:title="mdsplus">
<ellipse fill="#ff8c00" stroke="black" cx="1898.58" cy="-1446" rx="53.31" ry="18"/>
<text text-anchor="middle" x="1898.58" y="-1441.33" font-family="Times,serif" font-size="14.00">mdsplus</text>
</a>
</g>
</g>
<!-- modsecurity&#45;&gt;mdsplus -->
<!-- ticcutils -->
<g id="node46" class="node">
<title>ticcutils</title>
<g id="a_node46"><a xlink:href="https://github.com/conda-forge/ticcutils-feedstock/pull/28" xlink:title="ticcutils ✓">
<ellipse fill="#31688e" stroke="black" cx="1898.58" cy="-1374" rx="59.1" ry="18"/>
<text text-anchor="middle" x="1898.58" y="-1369.33" font-family="Times,serif" font-size="14.00" fill="white">ticcutils ✓</text>
</a>
</g>
</g>
<!-- mdsplus&#45;&gt;ticcutils -->
<!-- ggobi -->
<g id="node47" class="node">
<title>ggobi</title>
<g id="a_node47"><a xlink:href="https://github.com/conda-forge/ggobi-feedstock/pull/3" xlink:title="ggobi ❎">
<ellipse fill="#31688e" stroke="black" cx="1898.58" cy="-1302" rx="54.36" ry="18"/>
<text text-anchor="middle" x="1898.58" y="-1297.33" font-family="Times,serif" font-size="14.00" fill="white">ggobi ❎</text>
</a>
</g>
</g>
<!-- ticcutils&#45;&gt;ggobi -->
<!-- openbabel -->
<g id="node52" class="node">
<title>openbabel</title>
<g id="a_node52"><a xlink:href="https://github.com/conda-forge/openbabel-feedstock/pull/35" xlink:title="openbabel ❎">
<ellipse fill="#31688e" stroke="black" cx="1898.58" cy="-1230" rx="78.04" ry="18"/>
<text text-anchor="middle" x="1898.58" y="-1225.33" font-family="Times,serif" font-size="14.00" fill="white">openbabel ❎</text>
</a>
</g>
</g>
<!-- ggobi&#45;&gt;openbabel -->
<!-- xrootd -->
<g id="node48" class="node">
<title>xrootd</title>
<g id="a_node48"><a xlink:href="https://github.com/conda-forge/xrootd-feedstock/pull/72" xlink:title="xrootd ✓">
<ellipse fill="#31688e" stroke="black" cx="788.58" cy="-206" rx="51.74" ry="18"/>
<text text-anchor="middle" x="788.58" y="-201.33" font-family="Times,serif" font-size="14.00" fill="white">xrootd ✓</text>
</a>
</g>
</g>
<!-- root -->
<g id="node49" class="node">
<title>root</title>
<g id="a_node49"><a xlink:href="https://github.com/conda-forge/root-feedstock" xlink:title="root">
<ellipse fill="#fde725" stroke="black" cx="665.58" cy="-134" rx="31.74" ry="18"/>
<text text-anchor="middle" x="665.58" y="-129.32" font-family="Times,serif" font-size="14.00">root</text>
</a>
</g>
</g>
<!-- xrootd&#45;&gt;root -->
<g id="edge47" class="edge">
<title>xrootd&#45;&gt;root</title>
<path fill="none" stroke="black" d="M762.5,-190.15C743.35,-179.26 717.25,-164.4 696.96,-152.86"/>
<polygon fill="black" stroke="black" points="698.94,-149.39 688.52,-147.48 695.48,-155.47 698.94,-149.39"/>
</g>
<!-- nordugrid&#45;arc -->
<g id="node50" class="node">
<title>nordugrid&#45;arc</title>
<g id="a_node50"><a xlink:href="https://github.com/conda-forge/nordugrid-arc-feedstock" xlink:title="nordugrid arc">
<ellipse fill="#fde725" stroke="black" cx="795.58" cy="-134" rx="80.14" ry="18"/>
<text text-anchor="middle" x="795.58" y="-129.32" font-family="Times,serif" font-size="14.00">nordugrid arc</text>
</a>
</g>
</g>
<!-- xrootd&#45;&gt;nordugrid&#45;arc -->
<g id="edge48" class="edge">
<title>xrootd&#45;&gt;nordugrid&#45;arc</title>
<path fill="none" stroke="black" d="M790.31,-187.7C791.06,-180.24 791.95,-171.32 792.78,-162.97"/>
<polygon fill="black" stroke="black" points="796.36,-163.4 793.87,-153.1 789.39,-162.71 796.36,-163.4"/>
</g>
<!-- davix -->
<g id="node51" class="node">
<title>davix</title>
<g id="a_node51"><a xlink:href="https://github.com/conda-forge/davix-feedstock/pull/36" xlink:title="davix ✓">
<ellipse fill="#31688e" stroke="black" cx="665.58" cy="-206" rx="45.95" ry="18"/>
<text text-anchor="middle" x="665.58" y="-201.33" font-family="Times,serif" font-size="14.00" fill="white">davix ✓</text>
</a>
</g>
</g>
<!-- davix&#45;&gt;root -->
<g id="edge49" class="edge">
<title>davix&#45;&gt;root</title>
<path fill="none" stroke="black" d="M665.58,-187.7C665.58,-180.24 665.58,-171.32 665.58,-162.97"/>
<polygon fill="black" stroke="black" points="669.08,-163.1 665.58,-153.1 662.08,-163.1 669.08,-163.1"/>
</g>
<!-- scilab -->
<g id="node53" class="node">
<title>scilab</title>
<g id="a_node53"><a xlink:href="https://github.com/conda-forge/scilab-feedstock" xlink:title="scilab">
<ellipse fill="#ff8c00" stroke="black" cx="1898.58" cy="-1158" rx="40.16" ry="18"/>
<text text-anchor="middle" x="1898.58" y="-1153.33" font-family="Times,serif" font-size="14.00">scilab</text>
</a>
</g>
</g>
<!-- openbabel&#45;&gt;scilab -->
<!-- nexus -->
<g id="node54" class="node">
<title>nexus</title>
<g id="a_node54"><a xlink:href="https://github.com/conda-forge/nexus-feedstock/pull/12" xlink:title="nexus ✓">
<ellipse fill="#31688e" stroke="black" cx="1898.58" cy="-1086" rx="48.58" ry="18"/>
<text text-anchor="middle" x="1898.58" y="-1081.33" font-family="Times,serif" font-size="14.00" fill="white">nexus ✓</text>
</a>
</g>
</g>
<!-- scilab&#45;&gt;nexus -->
<!-- ibm_db -->
<g id="node55" class="node">
<title>ibm_db</title>
<g id="a_node55"><a xlink:href="https://github.com/conda-forge/ibm_db-feedstock/pull/58" xlink:title="ibm_db ❎">
<ellipse fill="#31688e" stroke="black" cx="1898.58" cy="-1014" rx="62.78" ry="18"/>
<text text-anchor="middle" x="1898.58" y="-1009.33" font-family="Times,serif" font-size="14.00" fill="white">ibm_db ❎</text>
</a>
</g>
</g>
<!-- nexus&#45;&gt;ibm_db -->
<!-- libical -->
<g id="node56" class="node">
<title>libical</title>
<g id="a_node56"><a xlink:href="https://github.com/conda-forge/libical-feedstock" xlink:title="libical">
<ellipse fill="#ff8c00" stroke="black" cx="747.58" cy="-970" rx="41.21" ry="18"/>
<text text-anchor="middle" x="747.58" y="-965.33" font-family="Times,serif" font-size="14.00">libical</text>
</a>
</g>
</g>
<!-- rb&#45;nokogiri -->
<g id="node57" class="node">
<title>rb&#45;nokogiri</title>
<g id="a_node57"><a xlink:href="https://github.com/conda-forge/rb-nokogiri-feedstock/pull/13" xlink:title="rb nokogiri ❎">
<ellipse fill="#31688e" stroke="black" cx="747.58" cy="-898" rx="81.72" ry="18"/>
<text text-anchor="middle" x="747.58" y="-893.33" font-family="Times,serif" font-size="14.00" fill="white">rb nokogiri ❎</text>
</a>
</g>
</g>
<!-- libical&#45;&gt;rb&#45;nokogiri -->
<!-- libredwg -->
<g id="node60" class="node">
<title>libredwg</title>
<g id="a_node60"><a xlink:href="https://github.com/conda-forge/libredwg-feedstock/pull/84" xlink:title="libredwg ❎">
<ellipse fill="#31688e" stroke="black" cx="747.58" cy="-826" rx="70.68" ry="18"/>
<text text-anchor="middle" x="747.58" y="-821.33" font-family="Times,serif" font-size="14.00" fill="white">libredwg ❎</text>
</a>
</g>
</g>
<!-- rb&#45;nokogiri&#45;&gt;libredwg -->
<!-- libgsf -->
<g id="node58" class="node">
<title>libgsf</title>
<g id="a_node58"><a xlink:href="https://github.com/conda-forge/libgsf-feedstock/pull/12" xlink:title="libgsf ❎">
<ellipse fill="#31688e" stroke="black" cx="747.58" cy="-90" rx="54.36" ry="18"/>
<text text-anchor="middle" x="747.58" y="-85.33" font-family="Times,serif" font-size="14.00" fill="white">libgsf ❎</text>
</a>
</g>
</g>
<!-- msitools -->
<g id="node59" class="node">
<title>msitools</title>
<g id="a_node59"><a xlink:href="https://github.com/conda-forge/msitools-feedstock" xlink:title="msitools">
<ellipse fill="#fde725" stroke="black" cx="747.58" cy="-18" rx="53.31" ry="18"/>
<text text-anchor="middle" x="747.58" y="-13.32" font-family="Times,serif" font-size="14.00">msitools</text>
</a>
</g>
</g>
<!-- libgsf&#45;&gt;msitools -->
<g id="edge55" class="edge">
<title>libgsf&#45;&gt;msitools</title>
<path fill="none" stroke="black" d="M747.58,-71.7C747.58,-64.24 747.58,-55.32 747.58,-46.97"/>
<polygon fill="black" stroke="black" points="751.08,-47.1 747.58,-37.1 744.08,-47.1 751.08,-47.1"/>
</g>
<!-- mlt -->
<g id="node61" class="node">
<title>mlt</title>
<g id="a_node61"><a xlink:href="https://github.com/conda-forge/mlt-feedstock/pull/23" xlink:title="mlt ❎">
<ellipse fill="#31688e" stroke="black" cx="747.58" cy="-754" rx="43.32" ry="18"/>
<text text-anchor="middle" x="747.58" y="-749.33" font-family="Times,serif" font-size="14.00" fill="white">mlt ❎</text>
</a>
</g>
</g>
<!-- libredwg&#45;&gt;mlt -->
<!-- nix -->
<g id="node62" class="node">
<title>nix</title>
<g id="a_node62"><a xlink:href="https://github.com/conda-forge/nix-feedstock/pull/22" xlink:title="nix ✓">
<ellipse fill="#31688e" stroke="black" cx="747.58" cy="-682" rx="34.37" ry="18"/>
<text text-anchor="middle" x="747.58" y="-677.33" font-family="Times,serif" font-size="14.00" fill="white">nix ✓</text>
</a>
</g>
</g>
<!-- mlt&#45;&gt;nix -->
<!-- collada&#45;dom -->
<g id="node63" class="node">
<title>collada&#45;dom</title>
<g id="a_node63"><a xlink:href="https://github.com/conda-forge/collada-dom-feedstock/pull/7" xlink:title="collada dom ✓">
<ellipse fill="#31688e" stroke="black" cx="747.58" cy="-610" rx="79.09" ry="18"/>
<text text-anchor="middle" x="747.58" y="-605.33" font-family="Times,serif" font-size="14.00" fill="white">collada dom ✓</text>
</a>
</g>
</g>
<!-- nix&#45;&gt;collada&#45;dom -->
<!-- librepo -->
<g id="node64" class="node">
<title>librepo</title>
<g id="a_node64"><a xlink:href="https://github.com/conda-forge/librepo-feedstock/pull/30" xlink:title="librepo ❎">
<ellipse fill="#31688e" stroke="black" cx="747.58" cy="-538" rx="61.73" ry="18"/>
<text text-anchor="middle" x="747.58" y="-533.33" font-family="Times,serif" font-size="14.00" fill="white">librepo ❎</text>
</a>
</g>
</g>
<!-- collada&#45;dom&#45;&gt;librepo -->
<!-- createrepo_c -->
<g id="node65" class="node">
<title>createrepo_c</title>
<g id="a_node65"><a xlink:href="https://github.com/conda-forge/createrepo_c-feedstock/pull/27" xlink:title="createrepo_c ✓">
<ellipse fill="#31688e" stroke="black" cx="747.58" cy="-466" rx="83.3" ry="18"/>
<text text-anchor="middle" x="747.58" y="-461.32" font-family="Times,serif" font-size="14.00" fill="white">createrepo_c ✓</text>
</a>
</g>
</g>
<!-- librepo&#45;&gt;createrepo_c -->
<!-- rrdtool -->
<g id="node68" class="node">
<title>rrdtool</title>
<g id="a_node68"><a xlink:href="https://github.com/conda-forge/rrdtool-feedstock/pull/11" xlink:title="rrdtool ✓">
<ellipse fill="#31688e" stroke="black" cx="747.58" cy="-394" rx="53.84" ry="18"/>
<text text-anchor="middle" x="747.58" y="-389.32" font-family="Times,serif" font-size="14.00" fill="white">rrdtool ✓</text>
</a>
</g>
</g>
<!-- createrepo_c&#45;&gt;rrdtool -->
<!-- openconnect -->
<g id="node66" class="node">
<title>openconnect</title>
<g id="a_node66"><a xlink:href="https://github.com/conda-forge/openconnect-feedstock" xlink:title="openconnect">
<ellipse fill="#fde725" stroke="black" cx="1636.58" cy="-134" rx="74.36" ry="18"/>
<text text-anchor="middle" x="1636.58" y="-129.32" font-family="Times,serif" font-size="14.00">openconnect</text>
</a>
</g>
</g>
<!-- stoken -->
<g id="node67" class="node">
<title>stoken</title>
<g id="a_node67"><a xlink:href="https://github.com/conda-forge/stoken-feedstock/pull/12" xlink:title="stoken ✓">
<ellipse fill="#31688e" stroke="black" cx="1636.58" cy="-206" rx="52.26" ry="18"/>
<text text-anchor="middle" x="1636.58" y="-201.33" font-family="Times,serif" font-size="14.00" fill="white">stoken ✓</text>
</a>
</g>
</g>
<!-- stoken&#45;&gt;openconnect -->
<g id="edge62" class="edge">
<title>stoken&#45;&gt;openconnect</title>
<path fill="none" stroke="black" d="M1636.58,-187.7C1636.58,-180.24 1636.58,-171.32 1636.58,-162.97"/>
<polygon fill="black" stroke="black" points="1640.08,-163.1 1636.58,-153.1 1633.08,-163.1 1640.08,-163.1"/>
</g>
<!-- unpaper -->
<g id="node71" class="node">
<title>unpaper</title>
<g id="a_node71"><a xlink:href="https://github.com/conda-forge/unpaper-feedstock/pull/6" xlink:title="unpaper ❎">
<ellipse fill="#31688e" stroke="black" cx="747.58" cy="-322" rx="68.04" ry="18"/>
<text text-anchor="middle" x="747.58" y="-317.32" font-family="Times,serif" font-size="14.00" fill="white">unpaper ❎</text>
</a>
</g>
</g>
<!-- rrdtool&#45;&gt;unpaper -->
<!-- libsoup -->
<g id="node69" class="node">
<title>libsoup</title>
<g id="a_node69"><a xlink:href="https://github.com/conda-forge/libsoup-feedstock" xlink:title="libsoup">
<ellipse fill="#ff8c00" stroke="black" cx="1272.58" cy="-1518" rx="47.53" ry="18"/>
<text text-anchor="middle" x="1272.58" y="-1513.33" font-family="Times,serif" font-size="14.00">libsoup</text>
</a>
</g>
</g>
<!-- libsoup&#45;&gt;qt&#45;main -->
<g id="edge64" class="edge">
<title>libsoup&#45;&gt;qt&#45;main</title>
<path fill="none" stroke="black" d="M1233.91,-1507.19C1184.96,-1494.78 1100.52,-1473.36 1046.67,-1459.7"/>
<polygon fill="black" stroke="black" points="1047.88,-1456.15 1037.33,-1457.08 1046.16,-1462.93 1047.88,-1456.15"/>
</g>
<!-- libsoup&#45;&gt;qt&#45;webengine -->
<g id="edge67" class="edge">
<title>libsoup&#45;&gt;qt&#45;webengine</title>
<path fill="none" stroke="black" d="M1257.55,-1500.71C1234.8,-1476.05 1191.42,-1429.03 1164.65,-1400.01"/>
<polygon fill="black" stroke="black" points="1167.6,-1397.96 1158.24,-1392.98 1162.45,-1402.7 1167.6,-1397.96"/>
</g>
<!-- libsoup&#45;&gt;wxpython -->
<g id="edge65" class="edge">
<title>libsoup&#45;&gt;wxpython</title>
<path fill="none" stroke="black" d="M1303.24,-1503.83C1328.37,-1493.04 1364.25,-1477.63 1392.31,-1465.58"/>
<polygon fill="black" stroke="black" points="1393.45,-1468.47 1401.25,-1461.31 1390.69,-1462.04 1393.45,-1468.47"/>
</g>
<!-- gst&#45;plugins&#45;bad -->
<g id="node70" class="node">
<title>gst&#45;plugins&#45;bad</title>
<g id="a_node70"><a xlink:href="https://github.com/conda-forge/gst-plugins-bad-feedstock" xlink:title="gst plugins bad">
<ellipse fill="#fde725" stroke="black" cx="1403.58" cy="-1374" rx="88.56" ry="18"/>
<text text-anchor="middle" x="1403.58" y="-1369.33" font-family="Times,serif" font-size="14.00">gst plugins bad</text>
</a>
</g>
</g>
<!-- libsoup&#45;&gt;gst&#45;plugins&#45;bad -->
<g id="edge66" class="edge">
<title>libsoup&#45;&gt;gst&#45;plugins&#45;bad</title>
<path fill="none" stroke="black" d="M1287.61,-1500.71C1310.36,-1476.05 1353.74,-1429.03 1380.51,-1400.01"/>
<polygon fill="black" stroke="black" points="1382.71,-1402.7 1386.92,-1392.98 1377.56,-1397.96 1382.71,-1402.7"/>
</g>
<!-- ibm_db_sa -->
<g id="node72" class="node">
<title>ibm_db_sa</title>
<g id="a_node72"><a xlink:href="https://github.com/conda-forge/ibm_db_sa-feedstock/pull/19" xlink:title="ibm_db_sa ❎">
<ellipse fill="#31688e" stroke="black" cx="747.58" cy="-250" rx="78.57" ry="18"/>
<text text-anchor="middle" x="747.58" y="-245.32" font-family="Times,serif" font-size="14.00" fill="white">ibm_db_sa ❎</text>
</a>
</g>
</g>
<!-- unpaper&#45;&gt;ibm_db_sa -->
<!-- xmlrpc&#45;c -->
<g id="node73" class="node">
<title>xmlrpc&#45;c</title>
<g id="a_node73"><a xlink:href="https://github.com/conda-forge/xmlrpc-c-feedstock/pull/3" xlink:title="xmlrpc c ❎">
<ellipse fill="#31688e" stroke="black" cx="1636.58" cy="-826" rx="69.62" ry="18"/>
<text text-anchor="middle" x="1636.58" y="-821.33" font-family="Times,serif" font-size="14.00" fill="white">xmlrpc c ❎</text>
</a>
</g>
</g>
<!-- php -->
<g id="node74" class="node">
<title>php</title>
<g id="a_node74"><a xlink:href="https://github.com/conda-forge/php-feedstock/pull/80" xlink:title="php ❎">
<ellipse fill="#31688e" stroke="black" cx="1636.58" cy="-754" rx="45.42" ry="18"/>
<text text-anchor="middle" x="1636.58" y="-749.33" font-family="Times,serif" font-size="14.00" fill="white">php ❎</text>
</a>
</g>
</g>
<!-- xmlrpc&#45;c&#45;&gt;php -->
<!-- xmlstarlet -->
<g id="node75" class="node">
<title>xmlstarlet</title>
<g id="a_node75"><a xlink:href="https://github.com/conda-forge/xmlstarlet-feedstock/pull/1" xlink:title="xmlstarlet ✓">
<ellipse fill="#31688e" stroke="black" cx="1636.58" cy="-682" rx="70.68" ry="18"/>
<text text-anchor="middle" x="1636.58" y="-677.33" font-family="Times,serif" font-size="14.00" fill="white">xmlstarlet ✓</text>
</a>
</g>
</g>
<!-- php&#45;&gt;xmlstarlet -->
<!-- intel&#45;compiler&#45;repack -->
<g id="node76" class="node">
<title>intel&#45;compiler&#45;repack</title>
<g id="a_node76"><a xlink:href="https://github.com/conda-forge/intel-compiler-repack-feedstock/pull/13" xlink:title="intel compiler repack ❎">
<ellipse fill="#31688e" stroke="black" cx="1636.58" cy="-610" rx="132.76" ry="18"/>
<text text-anchor="middle" x="1636.58" y="-605.33" font-family="Times,serif" font-size="14.00" fill="white">intel compiler repack ❎</text>
</a>
</g>
</g>
<!-- xmlstarlet&#45;&gt;intel&#45;compiler&#45;repack -->
<!-- microed&#45;tools -->
<g id="node77" class="node">
<title>microed&#45;tools</title>
<g id="a_node77"><a xlink:href="https://github.com/conda-forge/microed-tools-feedstock/pull/10" xlink:title="microed tools ✓">
<ellipse fill="#31688e" stroke="black" cx="1636.58" cy="-538" rx="86.98" ry="18"/>
<text text-anchor="middle" x="1636.58" y="-533.33" font-family="Times,serif" font-size="14.00" fill="white">microed tools ✓</text>
</a>
</g>
</g>
<!-- intel&#45;compiler&#45;repack&#45;&gt;microed&#45;tools -->
<!-- pdfmm -->
<g id="node78" class="node">
<title>pdfmm</title>
<g id="a_node78"><a xlink:href="https://github.com/conda-forge/pdfmm-feedstock/pull/5" xlink:title="pdfmm ✓">
<ellipse fill="#31688e" stroke="black" cx="1636.58" cy="-466" rx="54.36" ry="18"/>
<text text-anchor="middle" x="1636.58" y="-461.32" font-family="Times,serif" font-size="14.00" fill="white">pdfmm ✓</text>
</a>
</g>
</g>
<!-- microed&#45;tools&#45;&gt;pdfmm -->
<!-- dcmtk -->
<g id="node79" class="node">
<title>dcmtk</title>
<g id="a_node79"><a xlink:href="https://github.com/conda-forge/dcmtk-feedstock/pull/5" xlink:title="dcmtk ✓">
<ellipse fill="#31688e" stroke="black" cx="1636.58" cy="-394" rx="50.16" ry="18"/>
<text text-anchor="middle" x="1636.58" y="-389.32" font-family="Times,serif" font-size="14.00" fill="white">dcmtk ✓</text>
</a>
</g>
</g>
<!-- pdfmm&#45;&gt;dcmtk -->
</g>
</svg>
