<?xml version="1.0" encoding="UTF-8" standalone="no"?>
<!DOCTYPE svg PUBLIC "-//W3C//DTD SVG 1.1//EN"
 "http://www.w3.org/Graphics/SVG/1.1/DTD/svg11.dtd">
<!-- Generated by graphviz version 9.0.0 (20231125.0833)
 -->
<!-- Pages: 1 -->
<svg width="1402pt" height="1024pt"
 viewBox="0.00 0.00 1401.72 1024.00" xmlns="http://www.w3.org/2000/svg" xmlns:xlink="http://www.w3.org/1999/xlink">
<g id="graph0" class="graph" transform="scale(1 1) rotate(0) translate(4 1020)">
<polygon fill="white" stroke="none" points="-4,4 -4,-1020 1397.72,-1020 1397.72,4 -4,4"/>
<!-- cyclus -->
<g id="node1" class="node">
<title>cyclus</title>
<g id="a_node1"><a xlink:href="https://github.com/conda-forge/cyclus-feedstock" xlink:title="cyclus">
<ellipse fill="#fde725" stroke="black" cx="1305.15" cy="-90" rx="42.26" ry="18"/>
<text text-anchor="middle" x="1305.15" y="-85.33" font-family="Times,serif" font-size="14.00">cyclus</text>
</a>
</g>
</g>
<!-- gstreamer -->
<g id="node2" class="node">
<title>gstreamer</title>
<g id="a_node2"><a xlink:href="https://github.com/conda-forge/gstreamer-feedstock" xlink:title="gstreamer">
<ellipse fill="#fde725" stroke="black" cx="204.15" cy="-818" rx="63.31" ry="18"/>
<text text-anchor="middle" x="204.15" y="-813.33" font-family="Times,serif" font-size="14.00">gstreamer</text>
</a>
</g>
</g>
<!-- wxpython -->
<g id="node3" class="node">
<title>wxpython</title>
<g id="a_node3"><a xlink:href="https://github.com/conda-forge/wxpython-feedstock" xlink:title="wxpython">
<ellipse fill="#fde725" stroke="black" cx="60.15" cy="-746" rx="60.15" ry="18"/>
<text text-anchor="middle" x="60.15" y="-741.33" font-family="Times,serif" font-size="14.00">wxpython</text>
</a>
</g>
</g>
<!-- gstreamer&#45;&gt;wxpython -->
<g id="edge1" class="edge">
<title>gstreamer&#45;&gt;wxpython</title>
<path fill="none" stroke="black" d="M173.26,-801.98C152.05,-791.67 123.68,-777.88 100.65,-766.69"/>
<polygon fill="black" stroke="black" points="102.38,-763.64 91.86,-762.41 99.32,-769.93 102.38,-763.64"/>
</g>
<!-- gst&#45;plugins&#45;bad -->
<g id="node4" class="node">
<title>gst&#45;plugins&#45;bad</title>
<g id="a_node4"><a xlink:href="https://github.com/conda-forge/gst-plugins-bad-feedstock" xlink:title="gst plugins bad">
<ellipse fill="#fde725" stroke="black" cx="111.15" cy="-674" rx="88.56" ry="18"/>
<text text-anchor="middle" x="111.15" y="-669.33" font-family="Times,serif" font-size="14.00">gst plugins bad</text>
</a>
</g>
</g>
<!-- gstreamer&#45;&gt;gst&#45;plugins&#45;bad -->
<g id="edge2" class="edge">
<title>gstreamer&#45;&gt;gst&#45;plugins&#45;bad</title>
<path fill="none" stroke="black" d="M192.93,-799.87C176.94,-775.46 147.45,-730.43 128.6,-701.64"/>
<polygon fill="black" stroke="black" points="131.65,-699.9 123.24,-693.46 125.79,-703.74 131.65,-699.9"/>
</g>
<!-- qt&#45;main -->
<g id="node5" class="node">
<title>qt&#45;main</title>
<g id="a_node5"><a xlink:href="https://github.com/conda-forge/qt-main-feedstock" xlink:title="qt main">
<ellipse fill="#fde725" stroke="black" cx="593.15" cy="-746" rx="49.63" ry="18"/>
<text text-anchor="middle" x="593.15" y="-741.33" font-family="Times,serif" font-size="14.00">qt main</text>
</a>
</g>
</g>
<!-- gstreamer&#45;&gt;qt&#45;main -->
<g id="edge3" class="edge">
<title>gstreamer&#45;&gt;qt&#45;main</title>
<path fill="none" stroke="black" d="M256.61,-807.56C330.19,-794.32 463.39,-770.35 538.26,-756.88"/>
<polygon fill="black" stroke="black" points="538.6,-760.37 547.82,-755.16 537.36,-753.48 538.6,-760.37"/>
</g>
<!-- qt&#45;webengine -->
<g id="node6" class="node">
<title>qt&#45;webengine</title>
<g id="a_node6"><a xlink:href="https://github.com/conda-forge/qt-webengine-feedstock" xlink:title="qt webengine">
<ellipse fill="#fde725" stroke="black" cx="297.15" cy="-674" rx="79.09" ry="18"/>
<text text-anchor="middle" x="297.15" y="-669.33" font-family="Times,serif" font-size="14.00">qt webengine</text>
</a>
</g>
</g>
<!-- gstreamer&#45;&gt;qt&#45;webengine -->
<g id="edge4" class="edge">
<title>gstreamer&#45;&gt;qt&#45;webengine</title>
<path fill="none" stroke="black" d="M215.37,-799.87C231.36,-775.46 260.85,-730.43 279.71,-701.64"/>
<polygon fill="black" stroke="black" points="282.51,-703.74 285.07,-693.46 276.66,-699.9 282.51,-703.74"/>
</g>
<!-- qt&#45;main&#45;&gt;qt&#45;webengine -->
<g id="edge5" class="edge">
<title>qt&#45;main&#45;&gt;qt&#45;webengine</title>
<path fill="none" stroke="black" d="M552.31,-735.34C502.99,-723.68 419.46,-703.92 361.47,-690.21"/>
<polygon fill="black" stroke="black" points="362.6,-686.88 352.06,-687.99 360.99,-693.69 362.6,-686.88"/>
</g>
<!-- octave -->
<g id="node7" class="node">
<title>octave</title>
<g id="a_node7"><a xlink:href="https://github.com/conda-forge/octave-feedstock" xlink:title="octave">
<ellipse fill="#fde725" stroke="black" cx="769.15" cy="-386" rx="43.84" ry="18"/>
<text text-anchor="middle" x="769.15" y="-381.32" font-family="Times,serif" font-size="14.00">octave</text>
</a>
</g>
</g>
<!-- qt&#45;main&#45;&gt;octave -->
<g id="edge6" class="edge">
<title>qt&#45;main&#45;&gt;octave</title>
<path fill="none" stroke="black" d="M617.97,-730.09C652.31,-707.34 710.15,-660.5 710.15,-603 710.15,-603 710.15,-603 710.15,-529 710.15,-488.55 712.35,-476.79 729.15,-440 733.68,-430.1 740.31,-420.29 746.87,-411.85"/>
<polygon fill="black" stroke="black" points="749.56,-414.1 753.19,-404.14 744.14,-409.66 749.56,-414.1"/>
</g>
<!-- paraview -->
<g id="node8" class="node">
<title>paraview</title>
<g id="a_node8"><a xlink:href="https://github.com/conda-forge/paraview-feedstock" xlink:title="paraview">
<ellipse fill="#fde725" stroke="black" cx="489.15" cy="-674" rx="57" ry="18"/>
<text text-anchor="middle" x="489.15" y="-669.33" font-family="Times,serif" font-size="14.00">paraview</text>
</a>
</g>
</g>
<!-- qt&#45;main&#45;&gt;paraview -->
<g id="edge7" class="edge">
<title>qt&#45;main&#45;&gt;paraview</title>
<path fill="none" stroke="black" d="M570.33,-729.64C556.17,-720.11 537.74,-707.7 522.02,-697.12"/>
<polygon fill="black" stroke="black" points="524.15,-694.34 513.9,-691.66 520.24,-700.14 524.15,-694.34"/>
</g>
<!-- vtk -->
<g id="node9" class="node">
<title>vtk</title>
<g id="a_node9"><a xlink:href="https://github.com/conda-forge/vtk-feedstock" xlink:title="vtk">
<ellipse fill="#fde725" stroke="black" cx="584.15" cy="-602" rx="27.01" ry="18"/>
<text text-anchor="middle" x="584.15" y="-597.33" font-family="Times,serif" font-size="14.00">vtk</text>
</a>
</g>
</g>
<!-- qt&#45;main&#45;&gt;vtk -->
<g id="edge8" class="edge">
<title>qt&#45;main&#45;&gt;vtk</title>
<path fill="none" stroke="black" d="M592.27,-727.6C591.34,-709.65 589.79,-680.86 588.15,-656 587.63,-648.05 587,-639.44 586.41,-631.51"/>
<polygon fill="black" stroke="black" points="589.91,-631.39 585.65,-621.69 582.93,-631.93 589.91,-631.39"/>
</g>
<!-- qtwebkit -->
<g id="node10" class="node">
<title>qtwebkit</title>
<g id="a_node10"><a xlink:href="https://github.com/conda-forge/qtwebkit-feedstock" xlink:title="qtwebkit">
<ellipse fill="#fde725" stroke="black" cx="627.15" cy="-530" rx="55.42" ry="18"/>
<text text-anchor="middle" x="627.15" y="-525.33" font-family="Times,serif" font-size="14.00">qtwebkit</text>
</a>
</g>
</g>
<!-- qt&#45;main&#45;&gt;qtwebkit -->
<g id="edge9" class="edge">
<title>qt&#45;main&#45;&gt;qtwebkit</title>
<path fill="none" stroke="black" d="M597.65,-727.74C603.73,-703.75 614.45,-658.88 620.15,-620 623.08,-600.04 624.84,-577.36 625.86,-559.9"/>
<polygon fill="black" stroke="black" points="629.35,-560.16 626.39,-549.98 622.36,-559.78 629.35,-560.16"/>
</g>
<!-- pyside2 -->
<g id="node11" class="node">
<title>pyside2</title>
<g id="a_node11"><a xlink:href="https://github.com/conda-forge/pyside2-feedstock" xlink:title="pyside2">
<ellipse fill="#fde725" stroke="black" cx="467.15" cy="-602" rx="50.16" ry="18"/>
<text text-anchor="middle" x="467.15" y="-597.33" font-family="Times,serif" font-size="14.00">pyside2</text>
</a>
</g>
</g>
<!-- qt&#45;main&#45;&gt;pyside2 -->
<g id="edge10" class="edge">
<title>qt&#45;main&#45;&gt;pyside2</title>
<path fill="none" stroke="black" d="M589.25,-727.88C584.13,-708.59 573.57,-677.17 555.15,-656 542.55,-641.52 524.98,-629.84 508.86,-621.17"/>
<polygon fill="black" stroke="black" points="510.91,-618.29 500.41,-616.86 507.72,-624.52 510.91,-618.29"/>
</g>
<!-- graphicsmagick -->
<g id="node12" class="node">
<title>graphicsmagick</title>
<g id="a_node12"><a xlink:href="https://github.com/conda-forge/graphicsmagick-feedstock" xlink:title="graphicsmagick">
<ellipse fill="#fde725" stroke="black" cx="828.15" cy="-458" rx="90.14" ry="18"/>
<text text-anchor="middle" x="828.15" y="-453.32" font-family="Times,serif" font-size="14.00">graphicsmagick</text>
</a>
</g>
</g>
<!-- qt&#45;main&#45;&gt;graphicsmagick -->
<g id="edge11" class="edge">
<title>qt&#45;main&#45;&gt;graphicsmagick</title>
<path fill="none" stroke="black" d="M635.77,-736.5C663.89,-728.98 699.88,-715.43 724.15,-692 783.95,-634.28 811.95,-536.03 822.65,-487.65"/>
<polygon fill="black" stroke="black" points="826.06,-488.47 824.7,-477.96 819.21,-487.02 826.06,-488.47"/>
</g>
<!-- tomviz -->
<g id="node13" class="node">
<title>tomviz</title>
<g id="a_node13"><a xlink:href="https://github.com/conda-forge/tomviz-feedstock" xlink:title="tomviz">
<ellipse fill="#fde725" stroke="black" cx="309.15" cy="-602" rx="44.9" ry="18"/>
<text text-anchor="middle" x="309.15" y="-597.33" font-family="Times,serif" font-size="14.00">tomviz</text>
</a>
</g>
</g>
<!-- qt&#45;main&#45;&gt;tomviz -->
<g id="edge12" class="edge">
<title>qt&#45;main&#45;&gt;tomviz</title>
<path fill="none" stroke="black" d="M549.35,-737.1C513.62,-729.34 462.76,-715.22 423.15,-692 403.08,-680.23 403.19,-670.69 385.15,-656 371.4,-644.8 355.4,-633.42 341.64,-624.09"/>
<polygon fill="black" stroke="black" points="343.59,-621.18 333.33,-618.53 339.7,-627 343.59,-621.18"/>
</g>
<!-- gimagereader&#45;qt -->
<g id="node14" class="node">
<title>gimagereader&#45;qt</title>
<g id="a_node14"><a xlink:href="https://github.com/conda-forge/gimagereader-qt-feedstock" xlink:title="gimagereader qt">
<ellipse fill="#fde725" stroke="black" cx="871.15" cy="-674" rx="94.88" ry="18"/>
<text text-anchor="middle" x="871.15" y="-669.33" font-family="Times,serif" font-size="14.00">gimagereader qt</text>
</a>
</g>
</g>
<!-- qt&#45;main&#45;&gt;gimagereader&#45;qt -->
<g id="edge13" class="edge">
<title>qt&#45;main&#45;&gt;gimagereader&#45;qt</title>
<path fill="none" stroke="black" d="M632.98,-734.97C677.7,-723.71 750.98,-705.26 804.46,-691.79"/>
<polygon fill="black" stroke="black" points="805.24,-695.2 814.09,-689.37 803.54,-688.42 805.24,-695.2"/>
</g>
<!-- qt&#45;webengine&#45;&gt;pyside2 -->
<g id="edge14" class="edge">
<title>qt&#45;webengine&#45;&gt;pyside2</title>
<path fill="none" stroke="black" d="M334.04,-657.81C360.68,-646.84 396.72,-632 424.58,-620.53"/>
<polygon fill="black" stroke="black" points="425.89,-623.78 433.8,-616.73 423.22,-617.3 425.89,-623.78"/>
</g>
<!-- qt&#45;webengine&#45;&gt;tomviz -->
<g id="edge15" class="edge">
<title>qt&#45;webengine&#45;&gt;tomviz</title>
<path fill="none" stroke="black" d="M300.12,-655.7C301.38,-648.32 302.89,-639.52 304.31,-631.25"/>
<polygon fill="black" stroke="black" points="307.72,-632.04 305.96,-621.6 300.83,-630.86 307.72,-632.04"/>
</g>
<!-- ifcopenshell -->
<g id="node21" class="node">
<title>ifcopenshell</title>
<g id="a_node21"><a xlink:href="https://github.com/conda-forge/ifcopenshell-feedstock" xlink:title="ifcopenshell">
<ellipse fill="#fde725" stroke="black" cx="482.15" cy="-530" rx="71.2" ry="18"/>
<text text-anchor="middle" x="482.15" y="-525.33" font-family="Times,serif" font-size="14.00">ifcopenshell</text>
</a>
</g>
</g>
<!-- vtk&#45;&gt;ifcopenshell -->
<g id="edge21" class="edge">
<title>vtk&#45;&gt;ifcopenshell</title>
<path fill="none" stroke="black" d="M565.92,-588.49C551.93,-578.89 532.24,-565.37 515.47,-553.86"/>
<polygon fill="black" stroke="black" points="517.46,-550.99 507.24,-548.22 513.5,-556.76 517.46,-550.99"/>
</g>
<!-- graphicsmagick&#45;&gt;octave -->
<g id="edge24" class="edge">
<title>graphicsmagick&#45;&gt;octave</title>
<path fill="none" stroke="black" d="M813.87,-440.05C806.74,-431.59 797.97,-421.19 790.09,-411.84"/>
<polygon fill="black" stroke="black" points="792.99,-409.85 783.87,-404.46 787.64,-414.37 792.99,-409.85"/>
</g>
<!-- halide -->
<g id="node15" class="node">
<title>halide</title>
<g id="a_node15"><a xlink:href="https://github.com/conda-forge/halide-feedstock/pull/9" xlink:title="halide ❎">
<ellipse fill="#31688e" stroke="black" cx="1305.15" cy="-998" rx="57" ry="18"/>
<text text-anchor="middle" x="1305.15" y="-993.33" font-family="Times,serif" font-size="14.00" fill="white">halide ❎</text>
</a>
</g>
</g>
<!-- libhwloc -->
<g id="node16" class="node">
<title>libhwloc</title>
<g id="a_node16"><a xlink:href="https://github.com/conda-forge/libhwloc-feedstock/pull/71" xlink:title="libhwloc ❎">
<ellipse fill="#31688e" stroke="black" cx="1305.15" cy="-926" rx="68.04" ry="18"/>
<text text-anchor="middle" x="1305.15" y="-921.33" font-family="Times,serif" font-size="14.00" fill="white">libhwloc ❎</text>
</a>
</g>
</g>
<!-- halide&#45;&gt;libhwloc -->
<!-- lighttpd -->
<g id="node17" class="node">
<title>lighttpd</title>
<g id="a_node17"><a xlink:href="https://github.com/conda-forge/lighttpd-feedstock/pull/32" xlink:title="lighttpd ✓">
<ellipse fill="#31688e" stroke="black" cx="1305.15" cy="-854" rx="59.1" ry="18"/>
<text text-anchor="middle" x="1305.15" y="-849.33" font-family="Times,serif" font-size="14.00" fill="white">lighttpd ✓</text>
</a>
</g>
</g>
<!-- libhwloc&#45;&gt;lighttpd -->
<!-- uwsgi -->
<g id="node19" class="node">
<title>uwsgi</title>
<g id="a_node19"><a xlink:href="https://github.com/conda-forge/uwsgi-feedstock/pull/76" xlink:title="uwsgi ❎">
<ellipse fill="#31688e" stroke="black" cx="1305.15" cy="-782" rx="55.94" ry="18"/>
<text text-anchor="middle" x="1305.15" y="-777.33" font-family="Times,serif" font-size="14.00" fill="white">uwsgi ❎</text>
</a>
</g>
</g>
<!-- lighttpd&#45;&gt;uwsgi -->
<!-- libxmlpp -->
<g id="node18" class="node">
<title>libxmlpp</title>
<g id="a_node18"><a xlink:href="https://github.com/conda-forge/libxmlpp-feedstock/pull/24" xlink:title="libxmlpp ❎">
<ellipse fill="#31688e" stroke="black" cx="1305.15" cy="-162" rx="70.15" ry="18"/>
<text text-anchor="middle" x="1305.15" y="-157.32" font-family="Times,serif" font-size="14.00" fill="white">libxmlpp ❎</text>
</a>
</g>
</g>
<!-- libxmlpp&#45;&gt;cyclus -->
<g id="edge18" class="edge">
<title>libxmlpp&#45;&gt;cyclus</title>
<path fill="none" stroke="black" d="M1305.15,-143.7C1305.15,-136.41 1305.15,-127.73 1305.15,-119.54"/>
<polygon fill="black" stroke="black" points="1308.65,-119.62 1305.15,-109.62 1301.65,-119.62 1308.65,-119.62"/>
</g>
<!-- asciidoc -->
<g id="node20" class="node">
<title>asciidoc</title>
<g id="a_node20"><a xlink:href="https://github.com/conda-forge/asciidoc-feedstock/pull/22" xlink:title="asciidoc ❎">
<ellipse fill="#31688e" stroke="black" cx="1305.15" cy="-710" rx="66.47" ry="18"/>
<text text-anchor="middle" x="1305.15" y="-705.33" font-family="Times,serif" font-size="14.00" fill="white">asciidoc ❎</text>
</a>
</g>
</g>
<!-- uwsgi&#45;&gt;asciidoc -->
<!-- modsecurity -->
<g id="node22" class="node">
<title>modsecurity</title>
<g id="a_node22"><a xlink:href="https://github.com/conda-forge/modsecurity-feedstock/pull/13" xlink:title="modsecurity ❎">
<ellipse fill="#31688e" stroke="black" cx="1305.15" cy="-638" rx="88.56" ry="18"/>
<text text-anchor="middle" x="1305.15" y="-633.33" font-family="Times,serif" font-size="14.00" fill="white">modsecurity ❎</text>
</a>
</g>
</g>
<!-- asciidoc&#45;&gt;modsecurity -->
<!-- ticcutils -->
<g id="node23" class="node">
<title>ticcutils</title>
<g id="a_node23"><a xlink:href="https://github.com/conda-forge/ticcutils-feedstock/pull/33" xlink:title="ticcutils ✓">
<ellipse fill="#31688e" stroke="black" cx="1305.15" cy="-566" rx="59.1" ry="18"/>
<text text-anchor="middle" x="1305.15" y="-561.33" font-family="Times,serif" font-size="14.00" fill="white">ticcutils ✓</text>
</a>
</g>
</g>
<!-- modsecurity&#45;&gt;ticcutils -->
<!-- ggobi -->
<g id="node24" class="node">
<title>ggobi</title>
<g id="a_node24"><a xlink:href="https://github.com/conda-forge/ggobi-feedstock/pull/4" xlink:title="ggobi ❎">
<ellipse fill="#31688e" stroke="black" cx="1305.15" cy="-494" rx="54.36" ry="18"/>
<text text-anchor="middle" x="1305.15" y="-489.32" font-family="Times,serif" font-size="14.00" fill="white">ggobi ❎</text>
</a>
</g>
</g>
<!-- ticcutils&#45;&gt;ggobi -->
<!-- scilab -->
<g id="node25" class="node">
<title>scilab</title>
<g id="a_node25"><a xlink:href="https://github.com/conda-forge/scilab-feedstock" xlink:title="scilab">
<ellipse fill="#ff8c00" stroke="black" cx="1305.15" cy="-422" rx="40.16" ry="18"/>
<text text-anchor="middle" x="1305.15" y="-417.32" font-family="Times,serif" font-size="14.00">scilab</text>
</a>
</g>
</g>
<!-- ggobi&#45;&gt;scilab -->
<!-- libical -->
<g id="node26" class="node">
<title>libical</title>
<g id="a_node26"><a xlink:href="https://github.com/conda-forge/libical-feedstock/pull/26" xlink:title="libical ❎">
<ellipse fill="#31688e" stroke="black" cx="1305.15" cy="-350" rx="56.47" ry="18"/>
<text text-anchor="middle" x="1305.15" y="-345.32" font-family="Times,serif" font-size="14.00" fill="white">libical ❎</text>
</a>
</g>
</g>
<!-- scilab&#45;&gt;libical -->
<!-- rb&#45;nokogiri -->
<g id="node27" class="node">
<title>rb&#45;nokogiri</title>
<g id="a_node27"><a xlink:href="https://github.com/conda-forge/rb-nokogiri-feedstock/pull/15" xlink:title="rb nokogiri ❎">
<ellipse fill="#31688e" stroke="black" cx="1305.15" cy="-278" rx="81.72" ry="18"/>
<text text-anchor="middle" x="1305.15" y="-273.32" font-family="Times,serif" font-size="14.00" fill="white">rb nokogiri ❎</text>
</a>
</g>
</g>
<!-- libical&#45;&gt;rb&#45;nokogiri -->
<!-- libredwg -->
<g id="node28" class="node">
<title>libredwg</title>
<g id="a_node28"><a xlink:href="https://github.com/conda-forge/libredwg-feedstock/pull/86" xlink:title="libredwg ❎">
<ellipse fill="#31688e" stroke="black" cx="1113.15" cy="-998" rx="70.68" ry="18"/>
<text text-anchor="middle" x="1113.15" y="-993.33" font-family="Times,serif" font-size="14.00" fill="white">libredwg ❎</text>
</a>
</g>
</g>
<!-- mlt -->
<g id="node29" class="node">
<title>mlt</title>
<g id="a_node29"><a xlink:href="https://github.com/conda-forge/mlt-feedstock/pull/26" xlink:title="mlt ❎">
<ellipse fill="#31688e" stroke="black" cx="1113.15" cy="-926" rx="43.32" ry="18"/>
<text text-anchor="middle" x="1113.15" y="-921.33" font-family="Times,serif" font-size="14.00" fill="white">mlt ❎</text>
</a>
</g>
</g>
<!-- libredwg&#45;&gt;mlt -->
<!-- nix -->
<g id="node30" class="node">
<title>nix</title>
<g id="a_node30"><a xlink:href="https://github.com/conda-forge/nix-feedstock/pull/24" xlink:title="nix ✓">
<ellipse fill="#31688e" stroke="black" cx="1113.15" cy="-854" rx="34.37" ry="18"/>
<text text-anchor="middle" x="1113.15" y="-849.33" font-family="Times,serif" font-size="14.00" fill="white">nix ✓</text>
</a>
</g>
</g>
<!-- mlt&#45;&gt;nix -->
<!-- collada&#45;dom -->
<g id="node31" class="node">
<title>collada&#45;dom</title>
<g id="a_node31"><a xlink:href="https://github.com/conda-forge/collada-dom-feedstock/pull/9" xlink:title="collada dom ❎">
<ellipse fill="#31688e" stroke="black" cx="1113.15" cy="-782" rx="86.46" ry="18"/>
<text text-anchor="middle" x="1113.15" y="-777.33" font-family="Times,serif" font-size="14.00" fill="white">collada dom ❎</text>
</a>
</g>
</g>
<!-- nix&#45;&gt;collada&#45;dom -->
<!-- librepo -->
<g id="node32" class="node">
<title>librepo</title>
<g id="a_node32"><a xlink:href="https://github.com/conda-forge/librepo-feedstock/pull/33" xlink:title="librepo ❎">
<ellipse fill="#31688e" stroke="black" cx="1113.15" cy="-710" rx="61.73" ry="18"/>
<text text-anchor="middle" x="1113.15" y="-705.33" font-family="Times,serif" font-size="14.00" fill="white">librepo ❎</text>
</a>
</g>
</g>
<!-- collada&#45;dom&#45;&gt;librepo -->
<!-- nordugrid&#45;arc -->
<g id="node33" class="node">
<title>nordugrid&#45;arc</title>
<g id="a_node33"><a xlink:href="https://github.com/conda-forge/nordugrid-arc-feedstock/pull/51" xlink:title="nordugrid arc ❎">
<ellipse fill="#31688e" stroke="black" cx="1113.15" cy="-638" rx="95.4" ry="18"/>
<text text-anchor="middle" x="1113.15" y="-633.33" font-family="Times,serif" font-size="14.00" fill="white">nordugrid arc ❎</text>
</a>
</g>
</g>
<!-- librepo&#45;&gt;nordugrid&#45;arc -->
<!-- rrdtool -->
<g id="node36" class="node">
<title>rrdtool</title>
<g id="a_node36"><a xlink:href="https://github.com/conda-forge/rrdtool-feedstock/pull/12" xlink:title="rrdtool ✓">
<ellipse fill="#31688e" stroke="black" cx="1113.15" cy="-566" rx="53.84" ry="18"/>
<text text-anchor="middle" x="1113.15" y="-561.33" font-family="Times,serif" font-size="14.00" fill="white">rrdtool ✓</text>
</a>
</g>
</g>
<!-- nordugrid&#45;arc&#45;&gt;rrdtool -->
<!-- openconnect -->
<g id="node34" class="node">
<title>openconnect</title>
<g id="a_node34"><a xlink:href="https://github.com/conda-forge/openconnect-feedstock" xlink:title="openconnect">
<ellipse fill="#fde725" stroke="black" cx="1113.15" cy="-90" rx="74.36" ry="18"/>
<text text-anchor="middle" x="1113.15" y="-85.33" font-family="Times,serif" font-size="14.00">openconnect</text>
</a>
</g>
</g>
<!-- stoken -->
<g id="node35" class="node">
<title>stoken</title>
<g id="a_node35"><a xlink:href="https://github.com/conda-forge/stoken-feedstock/pull/14" xlink:title="stoken ✓">
<ellipse fill="#31688e" stroke="black" cx="1113.15" cy="-162" rx="52.26" ry="18"/>
<text text-anchor="middle" x="1113.15" y="-157.32" font-family="Times,serif" font-size="14.00" fill="white">stoken ✓</text>
</a>
</g>
</g>
<!-- stoken&#45;&gt;openconnect -->
<g id="edge34" class="edge">
<title>stoken&#45;&gt;openconnect</title>
<path fill="none" stroke="black" d="M1113.15,-143.7C1113.15,-136.41 1113.15,-127.73 1113.15,-119.54"/>
<polygon fill="black" stroke="black" points="1116.65,-119.62 1113.15,-109.62 1109.65,-119.62 1116.65,-119.62"/>
</g>
<!-- s3fs&#45;fuse -->
<g id="node38" class="node">
<title>s3fs&#45;fuse</title>
<g id="a_node38"><a xlink:href="https://github.com/conda-forge/s3fs-fuse-feedstock/pull/14" xlink:title="s3fs fuse ❎">
<ellipse fill="#31688e" stroke="black" cx="1113.15" cy="-494" rx="71.2" ry="18"/>
<text text-anchor="middle" x="1113.15" y="-489.32" font-family="Times,serif" font-size="14.00" fill="white">s3fs fuse ❎</text>
</a>
</g>
</g>
<!-- rrdtool&#45;&gt;s3fs&#45;fuse -->
<!-- libsoup -->
<g id="node37" class="node">
<title>libsoup</title>
<g id="a_node37"><a xlink:href="https://github.com/conda-forge/libsoup-feedstock" xlink:title="libsoup">
<ellipse fill="#000000" stroke="black" cx="204.15" cy="-890" rx="47.53" ry="18"/>
<text text-anchor="middle" x="204.15" y="-885.33" font-family="Times,serif" font-size="14.00" fill="white">libsoup</text>
</a>
</g>
</g>
<!-- libsoup&#45;&gt;gstreamer -->
<g id="edge36" class="edge">
<title>libsoup&#45;&gt;gstreamer</title>
<path fill="none" stroke="black" d="M204.15,-871.7C204.15,-864.41 204.15,-855.73 204.15,-847.54"/>
<polygon fill="black" stroke="black" points="207.65,-847.62 204.15,-837.62 200.65,-847.62 207.65,-847.62"/>
</g>
<!-- unpaper -->
<g id="node39" class="node">
<title>unpaper</title>
<g id="a_node39"><a xlink:href="https://github.com/conda-forge/unpaper-feedstock/pull/7" xlink:title="unpaper ❎">
<ellipse fill="#31688e" stroke="black" cx="1113.15" cy="-422" rx="68.04" ry="18"/>
<text text-anchor="middle" x="1113.15" y="-417.32" font-family="Times,serif" font-size="14.00" fill="white">unpaper ❎</text>
</a>
</g>
</g>
<!-- s3fs&#45;fuse&#45;&gt;unpaper -->
<!-- php -->
<g id="node40" class="node">
<title>php</title>
<g id="a_node40"><a xlink:href="https://github.com/conda-forge/php-feedstock/pull/88" xlink:title="php ❎">
<ellipse fill="#31688e" stroke="black" cx="1113.15" cy="-350" rx="45.42" ry="18"/>
<text text-anchor="middle" x="1113.15" y="-345.32" font-family="Times,serif" font-size="14.00" fill="white">php ❎</text>
</a>
</g>
</g>
<!-- unpaper&#45;&gt;php -->
<!-- xmlstarlet -->
<g id="node41" class="node">
<title>xmlstarlet</title>
<g id="a_node41"><a xlink:href="https://github.com/conda-forge/xmlstarlet-feedstock/pull/2" xlink:title="xmlstarlet ❎">
<ellipse fill="#31688e" stroke="black" cx="1113.15" cy="-278" rx="78.04" ry="18"/>
<text text-anchor="middle" x="1113.15" y="-273.32" font-family="Times,serif" font-size="14.00" fill="white">xmlstarlet ❎</text>
</a>
</g>
</g>
<!-- php&#45;&gt;xmlstarlet -->
<!-- sane -->
<g id="node42" class="node">
<title>sane</title>
<g id="a_node42"><a xlink:href="https://github.com/conda-forge/sane-feedstock/pull/20" xlink:title="sane ❎">
<ellipse fill="#31688e" stroke="black" cx="832.15" cy="-746" rx="49.63" ry="18"/>
<text text-anchor="middle" x="832.15" y="-741.33" font-family="Times,serif" font-size="14.00" fill="white">sane ❎</text>
</a>
</g>
</g>
<!-- sane&#45;&gt;gimagereader&#45;qt -->
<g id="edge41" class="edge">
<title>sane&#45;&gt;gimagereader&#45;qt</title>
<path fill="none" stroke="black" d="M841.59,-728.05C845.94,-720.26 851.19,-710.82 856.07,-702.08"/>
<polygon fill="black" stroke="black" points="858.98,-704.04 860.79,-693.6 852.87,-700.63 858.98,-704.04"/>
</g>
<!-- libxmlplusplus -->
<g id="node43" class="node">
<title>libxmlplusplus</title>
<g id="a_node43"><a xlink:href="https://github.com/conda-forge/libxmlplusplus-feedstock/pull/5" xlink:title="libxmlplusplus ❎">
<ellipse fill="#31688e" stroke="black" cx="910.15" cy="-818" rx="99.61" ry="18"/>
<text text-anchor="middle" x="910.15" y="-813.33" font-family="Times,serif" font-size="14.00" fill="white">libxmlplusplus ❎</text>
</a>
</g>
</g>
<!-- libxmlplusplus&#45;&gt;gimagereader&#45;qt -->
<g id="edge42" class="edge">
<title>libxmlplusplus&#45;&gt;gimagereader&#45;qt</title>
<path fill="none" stroke="black" d="M907.27,-799.75C904.06,-781.68 898.36,-752.56 891.15,-728 888.74,-719.79 885.66,-711.04 882.64,-703.06"/>
<polygon fill="black" stroke="black" points="885.94,-701.89 879.04,-693.85 879.42,-704.44 885.94,-701.89"/>
</g>
<!-- precice -->
<g id="node44" class="node">
<title>precice</title>
<g id="a_node44"><a xlink:href="https://github.com/conda-forge/precice-feedstock/pull/24" xlink:title="precice ❎">
<ellipse fill="#31688e" stroke="black" cx="504.15" cy="-234" rx="62.78" ry="18"/>
<text text-anchor="middle" x="504.15" y="-229.32" font-family="Times,serif" font-size="14.00" fill="white">precice ❎</text>
</a>
</g>
</g>
<!-- pdfmm -->
<g id="node45" class="node">
<title>pdfmm</title>
<g id="a_node45"><a xlink:href="https://github.com/conda-forge/pdfmm-feedstock/pull/7" xlink:title="pdfmm ❎">
<ellipse fill="#31688e" stroke="black" cx="504.15" cy="-162" rx="61.73" ry="18"/>
<text text-anchor="middle" x="504.15" y="-157.32" font-family="Times,serif" font-size="14.00" fill="white">pdfmm ❎</text>
</a>
</g>
</g>
<!-- precice&#45;&gt;pdfmm -->
<!-- dcmtk -->
<g id="node46" class="node">
<title>dcmtk</title>
<g id="a_node46"><a xlink:href="https://github.com/conda-forge/dcmtk-feedstock/pull/7" xlink:title="dcmtk ❎">
<ellipse fill="#31688e" stroke="black" cx="504.15" cy="-90" rx="57.52" ry="18"/>
<text text-anchor="middle" x="504.15" y="-85.33" font-family="Times,serif" font-size="14.00" fill="white">dcmtk ❎</text>
</a>
</g>
</g>
<!-- pdfmm&#45;&gt;dcmtk -->
<!-- r&#45;xslt -->
<g id="node47" class="node">
<title>r&#45;xslt</title>
<g id="a_node47"><a xlink:href="https://github.com/conda-forge/r-xslt-feedstock/pull/3" xlink:title="r xslt ❎">
<ellipse fill="#31688e" stroke="black" cx="504.15" cy="-18" rx="52.79" ry="18"/>
<text text-anchor="middle" x="504.15" y="-13.32" font-family="Times,serif" font-size="14.00" fill="white">r xslt ❎</text>
</a>
</g>
</g>
<!-- dcmtk&#45;&gt;r&#45;xslt -->
</g>
</svg>
