<?xml version="1.0" encoding="UTF-8" standalone="no"?>
<!DOCTYPE svg PUBLIC "-//W3C//DTD SVG 1.1//EN"
 "http://www.w3.org/Graphics/SVG/1.1/DTD/svg11.dtd">
<!-- Generated by graphviz version 9.0.0 (20231125.0833)
 -->
<!-- Pages: 1 -->
<svg width="2302pt" height="1832pt"
 viewBox="0.00 0.00 2302.24 1832.00" xmlns="http://www.w3.org/2000/svg" xmlns:xlink="http://www.w3.org/1999/xlink">
<g id="graph0" class="graph" transform="scale(1 1) rotate(0) translate(4 1828)">
<polygon fill="white" stroke="none" points="-4,4 -4,-1828 2298.24,-1828 2298.24,4 -4,4"/>
<!-- cdo -->
<g id="node1" class="node">
<title>cdo</title>
<g id="a_node1"><a xlink:href="https://github.com/conda-forge/cdo-feedstock" xlink:title="cdo">
<ellipse fill="#fde725" stroke="black" cx="312.09" cy="-1410" rx="28.59" ry="18"/>
<text text-anchor="middle" x="312.09" y="-1405.33" font-family="Times,serif" font-size="14.00">cdo</text>
</a>
</g>
</g>
<!-- cyclus -->
<g id="node2" class="node">
<title>cyclus</title>
<g id="a_node2"><a xlink:href="https://github.com/conda-forge/cyclus-feedstock" xlink:title="cyclus">
<ellipse fill="#fde725" stroke="black" cx="2114.09" cy="-170" rx="42.26" ry="18"/>
<text text-anchor="middle" x="2114.09" y="-165.32" font-family="Times,serif" font-size="14.00">cyclus</text>
</a>
</g>
</g>
<!-- emacs -->
<g id="node3" class="node">
<title>emacs</title>
<g id="a_node3"><a xlink:href="https://github.com/conda-forge/emacs-feedstock/pull/79" xlink:title="emacs ✓">
<ellipse fill="#31688e" stroke="black" cx="826.09" cy="-1042" rx="50.68" ry="18"/>
<text text-anchor="middle" x="826.09" y="-1037.33" font-family="Times,serif" font-size="14.00" fill="white">emacs ✓</text>
</a>
</g>
</g>
<!-- halide -->
<g id="node4" class="node">
<title>halide</title>
<g id="a_node4"><a xlink:href="https://github.com/conda-forge/halide-feedstock/pull/9" xlink:title="halide ❎">
<ellipse fill="#31688e" stroke="black" cx="826.09" cy="-970" rx="57" ry="18"/>
<text text-anchor="middle" x="826.09" y="-965.33" font-family="Times,serif" font-size="14.00" fill="white">halide ❎</text>
</a>
</g>
</g>
<!-- emacs&#45;&gt;halide -->
<!-- libhwloc -->
<g id="node22" class="node">
<title>libhwloc</title>
<g id="a_node22"><a xlink:href="https://github.com/conda-forge/libhwloc-feedstock/pull/71" xlink:title="libhwloc ❎">
<ellipse fill="#31688e" stroke="black" cx="826.09" cy="-898" rx="68.04" ry="18"/>
<text text-anchor="middle" x="826.09" y="-893.33" font-family="Times,serif" font-size="14.00" fill="white">libhwloc ❎</text>
</a>
</g>
</g>
<!-- halide&#45;&gt;libhwloc -->
<!-- gdal -->
<g id="node5" class="node">
<title>gdal</title>
<g id="a_node5"><a xlink:href="https://github.com/conda-forge/gdal-feedstock" xlink:title="gdal">
<ellipse fill="#fde725" stroke="black" cx="209.09" cy="-1410" rx="32.79" ry="18"/>
<text text-anchor="middle" x="209.09" y="-1405.33" font-family="Times,serif" font-size="14.00">gdal</text>
</a>
</g>
</g>
<!-- pdal -->
<g id="node6" class="node">
<title>pdal</title>
<g id="a_node6"><a xlink:href="https://github.com/conda-forge/pdal-feedstock" xlink:title="pdal">
<ellipse fill="#fde725" stroke="black" cx="123.09" cy="-1338" rx="32.79" ry="18"/>
<text text-anchor="middle" x="123.09" y="-1333.33" font-family="Times,serif" font-size="14.00">pdal</text>
</a>
</g>
</g>
<!-- gdal&#45;&gt;pdal -->
<g id="edge2" class="edge">
<title>gdal&#45;&gt;pdal</title>
<path fill="none" stroke="black" d="M191.27,-1394.5C179.28,-1384.73 163.25,-1371.69 149.75,-1360.7"/>
<polygon fill="black" stroke="black" points="152.03,-1358.04 142.06,-1354.44 147.61,-1363.47 152.03,-1358.04"/>
</g>
<!-- mdal -->
<g id="node7" class="node">
<title>mdal</title>
<g id="a_node7"><a xlink:href="https://github.com/conda-forge/mdal-feedstock" xlink:title="mdal">
<ellipse fill="#fde725" stroke="black" cx="248.09" cy="-1338" rx="35.95" ry="18"/>
<text text-anchor="middle" x="248.09" y="-1333.33" font-family="Times,serif" font-size="14.00">mdal</text>
</a>
</g>
</g>
<!-- gdal&#45;&gt;mdal -->
<g id="edge3" class="edge">
<title>gdal&#45;&gt;mdal</title>
<path fill="none" stroke="black" d="M218.33,-1392.41C222.85,-1384.3 228.39,-1374.35 233.47,-1365.25"/>
<polygon fill="black" stroke="black" points="236.37,-1367.23 238.18,-1356.79 230.25,-1363.82 236.37,-1367.23"/>
</g>
<!-- mapserver -->
<g id="node8" class="node">
<title>mapserver</title>
<g id="a_node8"><a xlink:href="https://github.com/conda-forge/mapserver-feedstock" xlink:title="mapserver">
<ellipse fill="#fde725" stroke="black" cx="184.09" cy="-1266" rx="64.89" ry="18"/>
<text text-anchor="middle" x="184.09" y="-1261.33" font-family="Times,serif" font-size="14.00">mapserver</text>
</a>
</g>
</g>
<!-- gdal&#45;&gt;mapserver -->
<g id="edge4" class="edge">
<title>gdal&#45;&gt;mapserver</title>
<path fill="none" stroke="black" d="M206.03,-1391.59C201.81,-1367.61 194.15,-1324.14 189.1,-1295.42"/>
<polygon fill="black" stroke="black" points="192.55,-1294.84 187.37,-1285.6 185.65,-1296.06 192.55,-1294.84"/>
</g>
<!-- gstreamer -->
<g id="node9" class="node">
<title>gstreamer</title>
<g id="a_node9"><a xlink:href="https://github.com/conda-forge/gstreamer-feedstock" xlink:title="gstreamer">
<ellipse fill="#fde725" stroke="black" cx="1105.09" cy="-1554" rx="63.31" ry="18"/>
<text text-anchor="middle" x="1105.09" y="-1549.33" font-family="Times,serif" font-size="14.00">gstreamer</text>
</a>
</g>
</g>
<!-- wxpython -->
<g id="node10" class="node">
<title>wxpython</title>
<g id="a_node10"><a xlink:href="https://github.com/conda-forge/wxpython-feedstock" xlink:title="wxpython">
<ellipse fill="#fde725" stroke="black" cx="1169.09" cy="-1482" rx="60.15" ry="18"/>
<text text-anchor="middle" x="1169.09" y="-1477.33" font-family="Times,serif" font-size="14.00">wxpython</text>
</a>
</g>
</g>
<!-- gstreamer&#45;&gt;wxpython -->
<g id="edge5" class="edge">
<title>gstreamer&#45;&gt;wxpython</title>
<path fill="none" stroke="black" d="M1120.58,-1536.05C1128.21,-1527.71 1137.56,-1517.49 1146,-1508.25"/>
<polygon fill="black" stroke="black" points="1148.56,-1510.65 1152.72,-1500.91 1143.39,-1505.92 1148.56,-1510.65"/>
</g>
<!-- gst&#45;plugins&#45;bad -->
<g id="node11" class="node">
<title>gst&#45;plugins&#45;bad</title>
<g id="a_node11"><a xlink:href="https://github.com/conda-forge/gst-plugins-bad-feedstock" xlink:title="gst plugins bad">
<ellipse fill="#fde725" stroke="black" cx="1317.09" cy="-1410" rx="88.56" ry="18"/>
<text text-anchor="middle" x="1317.09" y="-1405.33" font-family="Times,serif" font-size="14.00">gst plugins bad</text>
</a>
</g>
</g>
<!-- gstreamer&#45;&gt;gst&#45;plugins&#45;bad -->
<g id="edge6" class="edge">
<title>gstreamer&#45;&gt;gst&#45;plugins&#45;bad</title>
<path fill="none" stroke="black" d="M1149.88,-1540.91C1176.98,-1532.25 1211.34,-1518.78 1238.09,-1500 1262.4,-1482.94 1284.31,-1456.99 1298.86,-1437.5"/>
<polygon fill="black" stroke="black" points="1301.64,-1439.62 1304.69,-1429.47 1295.98,-1435.51 1301.64,-1439.62"/>
</g>
<!-- qt&#45;main -->
<g id="node12" class="node">
<title>qt&#45;main</title>
<g id="a_node12"><a xlink:href="https://github.com/conda-forge/qt-main-feedstock" xlink:title="qt main">
<ellipse fill="#fde725" stroke="black" cx="1041.09" cy="-1482" rx="49.63" ry="18"/>
<text text-anchor="middle" x="1041.09" y="-1477.33" font-family="Times,serif" font-size="14.00">qt main</text>
</a>
</g>
</g>
<!-- gstreamer&#45;&gt;qt&#45;main -->
<g id="edge7" class="edge">
<title>gstreamer&#45;&gt;qt&#45;main</title>
<path fill="none" stroke="black" d="M1089.6,-1536.05C1081.78,-1527.5 1072.15,-1516.97 1063.54,-1507.56"/>
<polygon fill="black" stroke="black" points="1066.35,-1505.44 1057.02,-1500.42 1061.19,-1510.17 1066.35,-1505.44"/>
</g>
<!-- qt&#45;webengine -->
<g id="node13" class="node">
<title>qt&#45;webengine</title>
<g id="a_node13"><a xlink:href="https://github.com/conda-forge/qt-webengine-feedstock" xlink:title="qt webengine">
<ellipse fill="#fde725" stroke="black" cx="851.09" cy="-1410" rx="79.09" ry="18"/>
<text text-anchor="middle" x="851.09" y="-1405.33" font-family="Times,serif" font-size="14.00">qt webengine</text>
</a>
</g>
</g>
<!-- gstreamer&#45;&gt;qt&#45;webengine -->
<g id="edge8" class="edge">
<title>gstreamer&#45;&gt;qt&#45;webengine</title>
<path fill="none" stroke="black" d="M1067.9,-1539.12C1043.04,-1529.32 1009.92,-1515.27 982.09,-1500 946.24,-1480.33 907.83,-1453.47 881.93,-1434.42"/>
<polygon fill="black" stroke="black" points="884.32,-1431.83 874.2,-1428.68 880.15,-1437.45 884.32,-1431.83"/>
</g>
<!-- qt&#45;main&#45;&gt;qt&#45;webengine -->
<g id="edge9" class="edge">
<title>qt&#45;main&#45;&gt;qt&#45;webengine</title>
<path fill="none" stroke="black" d="M1007.12,-1468.49C977.84,-1457.7 935.15,-1441.97 901.82,-1429.69"/>
<polygon fill="black" stroke="black" points="903.37,-1426.53 892.78,-1426.36 900.95,-1433.1 903.37,-1426.53"/>
</g>
<!-- paraview -->
<g id="node14" class="node">
<title>paraview</title>
<g id="a_node14"><a xlink:href="https://github.com/conda-forge/paraview-feedstock" xlink:title="paraview">
<ellipse fill="#fde725" stroke="black" cx="625.09" cy="-1410" rx="57" ry="18"/>
<text text-anchor="middle" x="625.09" y="-1405.33" font-family="Times,serif" font-size="14.00">paraview</text>
</a>
</g>
</g>
<!-- qt&#45;main&#45;&gt;paraview -->
<g id="edge10" class="edge">
<title>qt&#45;main&#45;&gt;paraview</title>
<path fill="none" stroke="black" d="M994.4,-1475.47C927.05,-1467.14 798.88,-1449.98 691.09,-1428 686.84,-1427.13 682.46,-1426.17 678.07,-1425.15"/>
<polygon fill="black" stroke="black" points="679.21,-1421.82 668.67,-1422.88 677.57,-1428.63 679.21,-1421.82"/>
</g>
<!-- vtk -->
<g id="node15" class="node">
<title>vtk</title>
<g id="a_node15"><a xlink:href="https://github.com/conda-forge/vtk-feedstock" xlink:title="vtk">
<ellipse fill="#fde725" stroke="black" cx="727.09" cy="-1410" rx="27.01" ry="18"/>
<text text-anchor="middle" x="727.09" y="-1405.33" font-family="Times,serif" font-size="14.00">vtk</text>
</a>
</g>
</g>
<!-- qt&#45;main&#45;&gt;vtk -->
<g id="edge11" class="edge">
<title>qt&#45;main&#45;&gt;vtk</title>
<path fill="none" stroke="black" d="M994.45,-1475.77C938.48,-1468.66 842.28,-1453.78 763.09,-1428 761.53,-1427.49 759.95,-1426.93 758.37,-1426.33"/>
<polygon fill="black" stroke="black" points="760.02,-1423.23 749.44,-1422.57 757.3,-1429.68 760.02,-1423.23"/>
</g>
<!-- octave -->
<g id="node16" class="node">
<title>octave</title>
<g id="a_node16"><a xlink:href="https://github.com/conda-forge/octave-feedstock" xlink:title="octave">
<ellipse fill="#fde725" stroke="black" cx="1221.09" cy="-1266" rx="43.84" ry="18"/>
<text text-anchor="middle" x="1221.09" y="-1261.33" font-family="Times,serif" font-size="14.00">octave</text>
</a>
</g>
</g>
<!-- qt&#45;main&#45;&gt;octave -->
<g id="edge12" class="edge">
<title>qt&#45;main&#45;&gt;octave</title>
<path fill="none" stroke="black" d="M1069.09,-1466.89C1085.67,-1457.53 1106.27,-1444.02 1121.09,-1428 1158.38,-1387.69 1151.15,-1366.03 1181.09,-1320 1187.19,-1310.63 1194.4,-1300.76 1201.01,-1292.11"/>
<polygon fill="black" stroke="black" points="1203.57,-1294.52 1206.94,-1284.48 1198.04,-1290.23 1203.57,-1294.52"/>
</g>
<!-- qtwebkit -->
<g id="node17" class="node">
<title>qtwebkit</title>
<g id="a_node17"><a xlink:href="https://github.com/conda-forge/qtwebkit-feedstock" xlink:title="qtwebkit">
<ellipse fill="#fde725" stroke="black" cx="1041.09" cy="-1410" rx="55.42" ry="18"/>
<text text-anchor="middle" x="1041.09" y="-1405.33" font-family="Times,serif" font-size="14.00">qtwebkit</text>
</a>
</g>
</g>
<!-- qt&#45;main&#45;&gt;qtwebkit -->
<g id="edge13" class="edge">
<title>qt&#45;main&#45;&gt;qtwebkit</title>
<path fill="none" stroke="black" d="M1041.09,-1463.7C1041.09,-1456.41 1041.09,-1447.73 1041.09,-1439.54"/>
<polygon fill="black" stroke="black" points="1044.59,-1439.62 1041.09,-1429.62 1037.59,-1439.62 1044.59,-1439.62"/>
</g>
<!-- pyside2 -->
<g id="node18" class="node">
<title>pyside2</title>
<g id="a_node18"><a xlink:href="https://github.com/conda-forge/pyside2-feedstock" xlink:title="pyside2">
<ellipse fill="#fde725" stroke="black" cx="1078.09" cy="-1338" rx="50.16" ry="18"/>
<text text-anchor="middle" x="1078.09" y="-1333.33" font-family="Times,serif" font-size="14.00">pyside2</text>
</a>
</g>
</g>
<!-- qt&#45;main&#45;&gt;pyside2 -->
<g id="edge14" class="edge">
<title>qt&#45;main&#45;&gt;pyside2</title>
<path fill="none" stroke="black" d="M1067.86,-1466.6C1081.73,-1457.55 1097.36,-1444.45 1105.09,-1428 1114.51,-1407.97 1106.1,-1383.87 1096.25,-1365.8"/>
<polygon fill="black" stroke="black" points="1099.29,-1364.06 1091.18,-1357.24 1093.27,-1367.63 1099.29,-1364.06"/>
</g>
<!-- graphicsmagick -->
<g id="node19" class="node">
<title>graphicsmagick</title>
<g id="a_node19"><a xlink:href="https://github.com/conda-forge/graphicsmagick-feedstock" xlink:title="graphicsmagick">
<ellipse fill="#fde725" stroke="black" cx="1280.09" cy="-1338" rx="90.14" ry="18"/>
<text text-anchor="middle" x="1280.09" y="-1333.33" font-family="Times,serif" font-size="14.00">graphicsmagick</text>
</a>
</g>
</g>
<!-- qt&#45;main&#45;&gt;graphicsmagick -->
<g id="edge15" class="edge">
<title>qt&#45;main&#45;&gt;graphicsmagick</title>
<path fill="none" stroke="black" d="M1078.74,-1469.97C1106.72,-1460.91 1145.23,-1446.54 1176.09,-1428 1180.32,-1425.46 1222.71,-1388.86 1252.05,-1363.4"/>
<polygon fill="black" stroke="black" points="1254.28,-1366.09 1259.54,-1356.89 1249.69,-1360.81 1254.28,-1366.09"/>
</g>
<!-- tomviz -->
<g id="node20" class="node">
<title>tomviz</title>
<g id="a_node20"><a xlink:href="https://github.com/conda-forge/tomviz-feedstock" xlink:title="tomviz">
<ellipse fill="#fde725" stroke="black" cx="910.09" cy="-1338" rx="44.9" ry="18"/>
<text text-anchor="middle" x="910.09" y="-1333.33" font-family="Times,serif" font-size="14.00">tomviz</text>
</a>
</g>
</g>
<!-- qt&#45;main&#45;&gt;tomviz -->
<g id="edge16" class="edge">
<title>qt&#45;main&#45;&gt;tomviz</title>
<path fill="none" stroke="black" d="M1019.85,-1465.44C1006.85,-1455.43 990.24,-1441.77 977.09,-1428 958.39,-1408.41 940.09,-1383.61 927.36,-1365.17"/>
<polygon fill="black" stroke="black" points="930.26,-1363.21 921.74,-1356.91 924.47,-1367.15 930.26,-1363.21"/>
</g>
<!-- gimagereader&#45;qt -->
<g id="node21" class="node">
<title>gimagereader&#45;qt</title>
<g id="a_node21"><a xlink:href="https://github.com/conda-forge/gimagereader-qt-feedstock" xlink:title="gimagereader qt">
<ellipse fill="#fde725" stroke="black" cx="1518.09" cy="-1410" rx="94.88" ry="18"/>
<text text-anchor="middle" x="1518.09" y="-1405.33" font-family="Times,serif" font-size="14.00">gimagereader qt</text>
</a>
</g>
</g>
<!-- qt&#45;main&#45;&gt;gimagereader&#45;qt -->
<g id="edge17" class="edge">
<title>qt&#45;main&#45;&gt;gimagereader&#45;qt</title>
<path fill="none" stroke="black" d="M1077.68,-1469.43C1085.05,-1467.4 1092.77,-1465.46 1100.09,-1464 1238.27,-1436.4 1275.53,-1447.48 1415.09,-1428 1422.57,-1426.96 1430.34,-1425.8 1438.11,-1424.6"/>
<polygon fill="black" stroke="black" points="1438.63,-1428.06 1447.97,-1423.05 1437.55,-1421.15 1438.63,-1428.06"/>
</g>
<!-- qt&#45;webengine&#45;&gt;pyside2 -->
<g id="edge18" class="edge">
<title>qt&#45;webengine&#45;&gt;pyside2</title>
<path fill="none" stroke="black" d="M896.76,-1394.92C935.49,-1382.97 990.87,-1365.9 1030.22,-1353.76"/>
<polygon fill="black" stroke="black" points="1031.15,-1357.14 1039.67,-1350.85 1029.09,-1350.45 1031.15,-1357.14"/>
</g>
<!-- qt&#45;webengine&#45;&gt;tomviz -->
<g id="edge19" class="edge">
<title>qt&#45;webengine&#45;&gt;tomviz</title>
<path fill="none" stroke="black" d="M865.37,-1392.05C872.51,-1383.59 881.27,-1373.19 889.15,-1363.84"/>
<polygon fill="black" stroke="black" points="891.6,-1366.37 895.37,-1356.46 886.25,-1361.85 891.6,-1366.37"/>
</g>
<!-- ifcopenshell -->
<g id="node29" class="node">
<title>ifcopenshell</title>
<g id="a_node29"><a xlink:href="https://github.com/conda-forge/ifcopenshell-feedstock" xlink:title="ifcopenshell">
<ellipse fill="#fde725" stroke="black" cx="727.09" cy="-1338" rx="71.2" ry="18"/>
<text text-anchor="middle" x="727.09" y="-1333.33" font-family="Times,serif" font-size="14.00">ifcopenshell</text>
</a>
</g>
</g>
<!-- vtk&#45;&gt;ifcopenshell -->
<g id="edge31" class="edge">
<title>vtk&#45;&gt;ifcopenshell</title>
<path fill="none" stroke="black" d="M727.09,-1391.7C727.09,-1384.41 727.09,-1375.73 727.09,-1367.54"/>
<polygon fill="black" stroke="black" points="730.59,-1367.62 727.09,-1357.62 723.59,-1367.62 730.59,-1367.62"/>
</g>
<!-- graphicsmagick&#45;&gt;octave -->
<g id="edge44" class="edge">
<title>graphicsmagick&#45;&gt;octave</title>
<path fill="none" stroke="black" d="M1265.81,-1320.05C1258.68,-1311.59 1249.91,-1301.19 1242.03,-1291.84"/>
<polygon fill="black" stroke="black" points="1244.93,-1289.85 1235.81,-1284.46 1239.58,-1294.37 1244.93,-1289.85"/>
</g>
<!-- lighttpd -->
<g id="node25" class="node">
<title>lighttpd</title>
<g id="a_node25"><a xlink:href="https://github.com/conda-forge/lighttpd-feedstock/pull/32" xlink:title="lighttpd ✓">
<ellipse fill="#31688e" stroke="black" cx="826.09" cy="-826" rx="59.1" ry="18"/>
<text text-anchor="middle" x="826.09" y="-821.33" font-family="Times,serif" font-size="14.00" fill="white">lighttpd ✓</text>
</a>
</g>
</g>
<!-- libhwloc&#45;&gt;lighttpd -->
<!-- libarchive -->
<g id="node23" class="node">
<title>libarchive</title>
<g id="a_node23"><a xlink:href="https://github.com/conda-forge/libarchive-feedstock/pull/82" xlink:title="libarchive ✓">
<ellipse fill="#31688e" stroke="black" cx="144.09" cy="-1482" rx="68.57" ry="18"/>
<text text-anchor="middle" x="144.09" y="-1477.33" font-family="Times,serif" font-size="14.00" fill="white">libarchive ✓</text>
</a>
</g>
</g>
<!-- libarchive&#45;&gt;gdal -->
<g id="edge21" class="edge">
<title>libarchive&#45;&gt;gdal</title>
<path fill="none" stroke="black" d="M159.83,-1464.05C168,-1455.26 178.11,-1444.36 187.05,-1434.74"/>
<polygon fill="black" stroke="black" points="189.56,-1437.18 193.8,-1427.47 184.43,-1432.41 189.56,-1437.18"/>
</g>
<!-- microed&#45;tools -->
<g id="node24" class="node">
<title>microed&#45;tools</title>
<g id="a_node24"><a xlink:href="https://github.com/conda-forge/microed-tools-feedstock" xlink:title="microed tools">
<ellipse fill="#fde725" stroke="black" cx="79.09" cy="-1410" rx="79.09" ry="18"/>
<text text-anchor="middle" x="79.09" y="-1405.33" font-family="Times,serif" font-size="14.00">microed tools</text>
</a>
</g>
</g>
<!-- libarchive&#45;&gt;microed&#45;tools -->
<g id="edge22" class="edge">
<title>libarchive&#45;&gt;microed&#45;tools</title>
<path fill="none" stroke="black" d="M128.36,-1464.05C120.53,-1455.63 110.92,-1445.28 102.27,-1435.97"/>
<polygon fill="black" stroke="black" points="105.08,-1433.84 95.71,-1428.9 99.95,-1438.61 105.08,-1433.84"/>
</g>
<!-- openturns -->
<g id="node31" class="node">
<title>openturns</title>
<g id="a_node31"><a xlink:href="https://github.com/conda-forge/openturns-feedstock" xlink:title="openturns">
<ellipse fill="#ff8c00" stroke="black" cx="826.09" cy="-754" rx="62.26" ry="18"/>
<text text-anchor="middle" x="826.09" y="-749.33" font-family="Times,serif" font-size="14.00">openturns</text>
</a>
</g>
</g>
<!-- lighttpd&#45;&gt;openturns -->
<!-- libnetcdf -->
<g id="node26" class="node">
<title>libnetcdf</title>
<g id="a_node26"><a xlink:href="https://github.com/conda-forge/libnetcdf-feedstock/pull/191" xlink:title="libnetcdf ❎">
<ellipse fill="#31688e" stroke="black" cx="407.09" cy="-1482" rx="70.68" ry="18"/>
<text text-anchor="middle" x="407.09" y="-1477.33" font-family="Times,serif" font-size="14.00" fill="white">libnetcdf ❎</text>
</a>
</g>
</g>
<!-- libnetcdf&#45;&gt;cdo -->
<g id="edge24" class="edge">
<title>libnetcdf&#45;&gt;cdo</title>
<path fill="none" stroke="black" d="M385.06,-1464.76C371.39,-1454.69 353.73,-1441.68 339.2,-1430.98"/>
<polygon fill="black" stroke="black" points="341.53,-1428.34 331.4,-1425.23 337.38,-1433.98 341.53,-1428.34"/>
</g>
<!-- libnetcdf&#45;&gt;gdal -->
<g id="edge25" class="edge">
<title>libnetcdf&#45;&gt;gdal</title>
<path fill="none" stroke="black" d="M367.02,-1466.83C331.85,-1454.4 281.06,-1436.44 246.65,-1424.28"/>
<polygon fill="black" stroke="black" points="248.12,-1421.08 237.52,-1421.05 245.78,-1427.68 248.12,-1421.08"/>
</g>
<!-- libnetcdf&#45;&gt;mdal -->
<g id="edge26" class="edge">
<title>libnetcdf&#45;&gt;mdal</title>
<path fill="none" stroke="black" d="M399.42,-1463.7C390.08,-1444.24 372.72,-1412.67 350.09,-1392 331.98,-1375.46 307.75,-1362.58 287.45,-1353.67"/>
<polygon fill="black" stroke="black" points="288.91,-1350.49 278.34,-1349.83 286.2,-1356.94 288.91,-1350.49"/>
</g>
<!-- libnetcdf&#45;&gt;paraview -->
<g id="edge27" class="edge">
<title>libnetcdf&#45;&gt;paraview</title>
<path fill="none" stroke="black" d="M449.9,-1467.25C485.9,-1455.69 537.41,-1439.15 575.26,-1427"/>
<polygon fill="black" stroke="black" points="576.15,-1430.39 584.6,-1424 574.01,-1423.73 576.15,-1430.39"/>
</g>
<!-- libnetcdf&#45;&gt;vtk -->
<g id="edge28" class="edge">
<title>libnetcdf&#45;&gt;vtk</title>
<path fill="none" stroke="black" d="M470.85,-1473.86C529.18,-1466.22 617.36,-1451.85 691.09,-1428 692.69,-1427.48 694.32,-1426.91 695.95,-1426.29"/>
<polygon fill="black" stroke="black" points="697.28,-1429.53 705.13,-1422.41 694.55,-1423.08 697.28,-1429.53"/>
</g>
<!-- pymol&#45;open&#45;source -->
<g id="node27" class="node">
<title>pymol&#45;open&#45;source</title>
<g id="a_node27"><a xlink:href="https://github.com/conda-forge/pymol-open-source-feedstock" xlink:title="pymol open source">
<ellipse fill="#fde725" stroke="black" cx="407.09" cy="-1338" rx="105.4" ry="18"/>
<text text-anchor="middle" x="407.09" y="-1333.33" font-family="Times,serif" font-size="14.00">pymol open source</text>
</a>
</g>
</g>
<!-- libnetcdf&#45;&gt;pymol&#45;open&#45;source -->
<g id="edge29" class="edge">
<title>libnetcdf&#45;&gt;pymol&#45;open&#45;source</title>
<path fill="none" stroke="black" d="M407.09,-1463.59C407.09,-1439.61 407.09,-1396.14 407.09,-1367.42"/>
<polygon fill="black" stroke="black" points="410.59,-1367.62 407.09,-1357.62 403.59,-1367.62 410.59,-1367.62"/>
</g>
<!-- fimex -->
<g id="node28" class="node">
<title>fimex</title>
<g id="a_node28"><a xlink:href="https://github.com/conda-forge/fimex-feedstock" xlink:title="fimex">
<ellipse fill="#fde725" stroke="black" cx="540.09" cy="-1266" rx="38.58" ry="18"/>
<text text-anchor="middle" x="540.09" y="-1261.33" font-family="Times,serif" font-size="14.00">fimex</text>
</a>
</g>
</g>
<!-- libnetcdf&#45;&gt;fimex -->
<g id="edge30" class="edge">
<title>libnetcdf&#45;&gt;fimex</title>
<path fill="none" stroke="black" d="M427.95,-1464.35C453.97,-1442.39 497.86,-1401.19 521.09,-1356 530.76,-1337.19 535.52,-1313.71 537.85,-1295.59"/>
<polygon fill="black" stroke="black" points="541.31,-1296.12 538.92,-1285.8 534.35,-1295.36 541.31,-1296.12"/>
</g>
<!-- libxmlpp -->
<g id="node30" class="node">
<title>libxmlpp</title>
<g id="a_node30"><a xlink:href="https://github.com/conda-forge/libxmlpp-feedstock/pull/24" xlink:title="libxmlpp ❎">
<ellipse fill="#31688e" stroke="black" cx="2114.09" cy="-242" rx="70.15" ry="18"/>
<text text-anchor="middle" x="2114.09" y="-237.32" font-family="Times,serif" font-size="14.00" fill="white">libxmlpp ❎</text>
</a>
</g>
</g>
<!-- libxmlpp&#45;&gt;cyclus -->
<g id="edge32" class="edge">
<title>libxmlpp&#45;&gt;cyclus</title>
<path fill="none" stroke="black" d="M2114.09,-223.7C2114.09,-216.41 2114.09,-207.73 2114.09,-199.54"/>
<polygon fill="black" stroke="black" points="2117.59,-199.62 2114.09,-189.62 2110.59,-199.62 2117.59,-199.62"/>
</g>
<!-- r&#45;igraph -->
<g id="node34" class="node">
<title>r&#45;igraph</title>
<g id="a_node34"><a xlink:href="https://github.com/conda-forge/r-igraph-feedstock" xlink:title="r igraph">
<ellipse fill="#ff8c00" stroke="black" cx="826.09" cy="-682" rx="51.74" ry="18"/>
<text text-anchor="middle" x="826.09" y="-677.33" font-family="Times,serif" font-size="14.00">r igraph</text>
</a>
</g>
</g>
<!-- openturns&#45;&gt;r&#45;igraph -->
<!-- lxml -->
<g id="node32" class="node">
<title>lxml</title>
<g id="a_node32"><a xlink:href="https://github.com/conda-forge/lxml-feedstock/pull/82" xlink:title="lxml ❎">
<ellipse fill="#31688e" stroke="black" cx="772.09" cy="-206" rx="48.05" ry="18"/>
<text text-anchor="middle" x="772.09" y="-201.33" font-family="Times,serif" font-size="14.00" fill="white">lxml ❎</text>
</a>
</g>
</g>
<!-- xmlsec -->
<g id="node33" class="node">
<title>xmlsec</title>
<g id="a_node33"><a xlink:href="https://github.com/conda-forge/xmlsec-feedstock" xlink:title="xmlsec">
<ellipse fill="#fde725" stroke="black" cx="810.09" cy="-134" rx="45.95" ry="18"/>
<text text-anchor="middle" x="810.09" y="-129.32" font-family="Times,serif" font-size="14.00">xmlsec</text>
</a>
</g>
</g>
<!-- lxml&#45;&gt;xmlsec -->
<g id="edge34" class="edge">
<title>lxml&#45;&gt;xmlsec</title>
<path fill="none" stroke="black" d="M781.29,-188.05C785.58,-180.14 790.8,-170.54 795.6,-161.69"/>
<polygon fill="black" stroke="black" points="798.56,-163.58 800.26,-153.12 792.41,-160.24 798.56,-163.58"/>
</g>
<!-- r&#45;xml -->
<g id="node35" class="node">
<title>r&#45;xml</title>
<g id="a_node35"><a xlink:href="https://github.com/conda-forge/r-xml-feedstock" xlink:title="r xml">
<ellipse fill="#ff8c00" stroke="black" cx="826.09" cy="-610" rx="37.53" ry="18"/>
<text text-anchor="middle" x="826.09" y="-605.33" font-family="Times,serif" font-size="14.00">r xml</text>
</a>
</g>
</g>
<!-- r&#45;igraph&#45;&gt;r&#45;xml -->
<!-- uwsgi -->
<g id="node36" class="node">
<title>uwsgi</title>
<g id="a_node36"><a xlink:href="https://github.com/conda-forge/uwsgi-feedstock/pull/74" xlink:title="uwsgi ❎">
<ellipse fill="#31688e" stroke="black" cx="826.09" cy="-538" rx="55.94" ry="18"/>
<text text-anchor="middle" x="826.09" y="-533.33" font-family="Times,serif" font-size="14.00" fill="white">uwsgi ❎</text>
</a>
</g>
</g>
<!-- r&#45;xml&#45;&gt;uwsgi -->
<!-- lldb -->
<g id="node40" class="node">
<title>lldb</title>
<g id="a_node40"><a xlink:href="https://github.com/conda-forge/lldb-feedstock/pull/47" xlink:title="lldb ✓">
<ellipse fill="#31688e" stroke="black" cx="826.09" cy="-466" rx="38.06" ry="18"/>
<text text-anchor="middle" x="826.09" y="-461.32" font-family="Times,serif" font-size="14.00" fill="white">lldb ✓</text>
</a>
</g>
</g>
<!-- uwsgi&#45;&gt;lldb -->
<!-- r&#45;xml2 -->
<g id="node37" class="node">
<title>r&#45;xml2</title>
<g id="a_node37"><a xlink:href="https://github.com/conda-forge/r-xml2-feedstock" xlink:title="r xml2">
<ellipse fill="#ff8c00" stroke="black" cx="1978.09" cy="-718" rx="43.84" ry="18"/>
<text text-anchor="middle" x="1978.09" y="-713.33" font-family="Times,serif" font-size="14.00">r xml2</text>
</a>
</g>
</g>
<!-- root -->
<g id="node38" class="node">
<title>root</title>
<g id="a_node38"><a xlink:href="https://github.com/conda-forge/root-feedstock" xlink:title="root">
<ellipse fill="#fde725" stroke="black" cx="2084.09" cy="-646" rx="31.74" ry="18"/>
<text text-anchor="middle" x="2084.09" y="-641.33" font-family="Times,serif" font-size="14.00">root</text>
</a>
</g>
</g>
<!-- r&#45;xml2&#45;&gt;root -->
<g id="edge38" class="edge">
<title>r&#45;xml2&#45;&gt;root</title>
<path fill="none" stroke="black" d="M2000.57,-702.15C2016.32,-691.75 2037.52,-677.75 2054.62,-666.46"/>
<polygon fill="black" stroke="black" points="2056.47,-669.44 2062.88,-661.01 2052.61,-663.6 2056.47,-669.44"/>
</g>
<!-- r&#45;xslt -->
<g id="node39" class="node">
<title>r&#45;xslt</title>
<g id="a_node39"><a xlink:href="https://github.com/conda-forge/r-xslt-feedstock" xlink:title="r xslt">
<ellipse fill="#fde725" stroke="black" cx="1978.09" cy="-646" rx="37.53" ry="18"/>
<text text-anchor="middle" x="1978.09" y="-641.33" font-family="Times,serif" font-size="14.00">r xslt</text>
</a>
</g>
</g>
<!-- r&#45;xml2&#45;&gt;r&#45;xslt -->
<g id="edge39" class="edge">
<title>r&#45;xml2&#45;&gt;r&#45;xslt</title>
<path fill="none" stroke="black" d="M1978.09,-699.7C1978.09,-692.41 1978.09,-683.73 1978.09,-675.54"/>
<polygon fill="black" stroke="black" points="1981.59,-675.62 1978.09,-665.62 1974.59,-675.62 1981.59,-675.62"/>
</g>
<!-- lld -->
<g id="node41" class="node">
<title>lld</title>
<g id="a_node41"><a xlink:href="https://github.com/conda-forge/lld-feedstock/pull/83" xlink:title="lld ✓">
<ellipse fill="#31688e" stroke="black" cx="826.09" cy="-394" rx="31.74" ry="18"/>
<text text-anchor="middle" x="826.09" y="-389.32" font-family="Times,serif" font-size="14.00" fill="white">lld ✓</text>
</a>
</g>
</g>
<!-- lldb&#45;&gt;lld -->
<!-- asciidoc -->
<g id="node42" class="node">
<title>asciidoc</title>
<g id="a_node42"><a xlink:href="https://github.com/conda-forge/asciidoc-feedstock/pull/22" xlink:title="asciidoc ❎">
<ellipse fill="#31688e" stroke="black" cx="826.09" cy="-322" rx="66.47" ry="18"/>
<text text-anchor="middle" x="826.09" y="-317.32" font-family="Times,serif" font-size="14.00" fill="white">asciidoc ❎</text>
</a>
</g>
</g>
<!-- lld&#45;&gt;asciidoc -->
<!-- modsecurity -->
<g id="node43" class="node">
<title>modsecurity</title>
<g id="a_node43"><a xlink:href="https://github.com/conda-forge/modsecurity-feedstock/pull/13" xlink:title="modsecurity ❎">
<ellipse fill="#31688e" stroke="black" cx="1793.09" cy="-1806" rx="88.56" ry="18"/>
<text text-anchor="middle" x="1793.09" y="-1801.33" font-family="Times,serif" font-size="14.00" fill="white">modsecurity ❎</text>
</a>
</g>
</g>
<!-- ticcutils -->
<g id="node44" class="node">
<title>ticcutils</title>
<g id="a_node44"><a xlink:href="https://github.com/conda-forge/ticcutils-feedstock/pull/33" xlink:title="ticcutils ✓">
<ellipse fill="#31688e" stroke="black" cx="1793.09" cy="-1734" rx="59.1" ry="18"/>
<text text-anchor="middle" x="1793.09" y="-1729.33" font-family="Times,serif" font-size="14.00" fill="white">ticcutils ✓</text>
</a>
</g>
</g>
<!-- modsecurity&#45;&gt;ticcutils -->
<!-- ggobi -->
<g id="node45" class="node">
<title>ggobi</title>
<g id="a_node45"><a xlink:href="https://github.com/conda-forge/ggobi-feedstock/pull/4" xlink:title="ggobi ❎">
<ellipse fill="#31688e" stroke="black" cx="1793.09" cy="-1662" rx="54.36" ry="18"/>
<text text-anchor="middle" x="1793.09" y="-1657.33" font-family="Times,serif" font-size="14.00" fill="white">ggobi ❎</text>
</a>
</g>
</g>
<!-- ticcutils&#45;&gt;ggobi -->
<!-- scilab -->
<g id="node49" class="node">
<title>scilab</title>
<g id="a_node49"><a xlink:href="https://github.com/conda-forge/scilab-feedstock" xlink:title="scilab">
<ellipse fill="#ff8c00" stroke="black" cx="1793.09" cy="-1590" rx="40.16" ry="18"/>
<text text-anchor="middle" x="1793.09" y="-1585.33" font-family="Times,serif" font-size="14.00">scilab</text>
</a>
</g>
</g>
<!-- ggobi&#45;&gt;scilab -->
<!-- xrootd -->
<g id="node46" class="node">
<title>xrootd</title>
<g id="a_node46"><a xlink:href="https://github.com/conda-forge/xrootd-feedstock/pull/82" xlink:title="xrootd ❎">
<ellipse fill="#31688e" stroke="black" cx="2212.09" cy="-718" rx="59.1" ry="18"/>
<text text-anchor="middle" x="2212.09" y="-713.33" font-family="Times,serif" font-size="14.00" fill="white">xrootd ❎</text>
</a>
</g>
</g>
<!-- xrootd&#45;&gt;root -->
<g id="edge46" class="edge">
<title>xrootd&#45;&gt;root</title>
<path fill="none" stroke="black" d="M2184.32,-701.81C2164.32,-690.87 2137.27,-676.08 2116.32,-664.63"/>
<polygon fill="black" stroke="black" points="2118.07,-661.59 2107.61,-659.86 2114.71,-667.73 2118.07,-661.59"/>
</g>
<!-- nordugrid&#45;arc -->
<g id="node47" class="node">
<title>nordugrid&#45;arc</title>
<g id="a_node47"><a xlink:href="https://github.com/conda-forge/nordugrid-arc-feedstock" xlink:title="nordugrid arc">
<ellipse fill="#fde725" stroke="black" cx="2214.09" cy="-646" rx="80.14" ry="18"/>
<text text-anchor="middle" x="2214.09" y="-641.33" font-family="Times,serif" font-size="14.00">nordugrid arc</text>
</a>
</g>
</g>
<!-- xrootd&#45;&gt;nordugrid&#45;arc -->
<g id="edge47" class="edge">
<title>xrootd&#45;&gt;nordugrid&#45;arc</title>
<path fill="none" stroke="black" d="M2212.59,-699.7C2212.79,-692.41 2213.04,-683.73 2213.28,-675.54"/>
<polygon fill="black" stroke="black" points="2216.77,-675.71 2213.56,-665.62 2209.78,-675.51 2216.77,-675.71"/>
</g>
<!-- davix -->
<g id="node48" class="node">
<title>davix</title>
<g id="a_node48"><a xlink:href="https://github.com/conda-forge/davix-feedstock/pull/38" xlink:title="davix ✓">
<ellipse fill="#31688e" stroke="black" cx="2086.09" cy="-718" rx="45.95" ry="18"/>
<text text-anchor="middle" x="2086.09" y="-713.33" font-family="Times,serif" font-size="14.00" fill="white">davix ✓</text>
</a>
</g>
</g>
<!-- davix&#45;&gt;root -->
<g id="edge48" class="edge">
<title>davix&#45;&gt;root</title>
<path fill="none" stroke="black" d="M2085.6,-699.7C2085.39,-692.41 2085.14,-683.73 2084.91,-675.54"/>
<polygon fill="black" stroke="black" points="2088.41,-675.51 2084.62,-665.62 2081.41,-675.71 2088.41,-675.51"/>
</g>
<!-- ibm_db -->
<g id="node50" class="node">
<title>ibm_db</title>
<g id="a_node50"><a xlink:href="https://github.com/conda-forge/ibm_db-feedstock/pull/62" xlink:title="ibm_db ❎">
<ellipse fill="#31688e" stroke="black" cx="1793.09" cy="-1518" rx="62.78" ry="18"/>
<text text-anchor="middle" x="1793.09" y="-1513.33" font-family="Times,serif" font-size="14.00" fill="white">ibm_db ❎</text>
</a>
</g>
</g>
<!-- scilab&#45;&gt;ibm_db -->
<!-- libical -->
<g id="node51" class="node">
<title>libical</title>
<g id="a_node51"><a xlink:href="https://github.com/conda-forge/libical-feedstock/pull/26" xlink:title="libical ❎">
<ellipse fill="#31688e" stroke="black" cx="1793.09" cy="-1446" rx="56.47" ry="18"/>
<text text-anchor="middle" x="1793.09" y="-1441.33" font-family="Times,serif" font-size="14.00" fill="white">libical ❎</text>
</a>
</g>
</g>
<!-- ibm_db&#45;&gt;libical -->
<!-- rb&#45;nokogiri -->
<g id="node52" class="node">
<title>rb&#45;nokogiri</title>
<g id="a_node52"><a xlink:href="https://github.com/conda-forge/rb-nokogiri-feedstock/pull/15" xlink:title="rb nokogiri ❎">
<ellipse fill="#31688e" stroke="black" cx="1793.09" cy="-1374" rx="81.72" ry="18"/>
<text text-anchor="middle" x="1793.09" y="-1369.33" font-family="Times,serif" font-size="14.00" fill="white">rb nokogiri ❎</text>
</a>
</g>
</g>
<!-- libical&#45;&gt;rb&#45;nokogiri -->
<!-- libredwg -->
<g id="node55" class="node">
<title>libredwg</title>
<g id="a_node55"><a xlink:href="https://github.com/conda-forge/libredwg-feedstock/pull/86" xlink:title="libredwg ❎">
<ellipse fill="#31688e" stroke="black" cx="1793.09" cy="-1302" rx="70.68" ry="18"/>
<text text-anchor="middle" x="1793.09" y="-1297.33" font-family="Times,serif" font-size="14.00" fill="white">libredwg ❎</text>
</a>
</g>
</g>
<!-- rb&#45;nokogiri&#45;&gt;libredwg -->
<!-- libgsf -->
<g id="node53" class="node">
<title>libgsf</title>
<g id="a_node53"><a xlink:href="https://github.com/conda-forge/libgsf-feedstock/pull/14" xlink:title="libgsf ❎">
<ellipse fill="#31688e" stroke="black" cx="826.09" cy="-90" rx="54.36" ry="18"/>
<text text-anchor="middle" x="826.09" y="-85.33" font-family="Times,serif" font-size="14.00" fill="white">libgsf ❎</text>
</a>
</g>
</g>
<!-- msitools -->
<g id="node54" class="node">
<title>msitools</title>
<g id="a_node54"><a xlink:href="https://github.com/conda-forge/msitools-feedstock" xlink:title="msitools">
<ellipse fill="#fde725" stroke="black" cx="826.09" cy="-18" rx="53.31" ry="18"/>
<text text-anchor="middle" x="826.09" y="-13.32" font-family="Times,serif" font-size="14.00">msitools</text>
</a>
</g>
</g>
<!-- libgsf&#45;&gt;msitools -->
<g id="edge53" class="edge">
<title>libgsf&#45;&gt;msitools</title>
<path fill="none" stroke="black" d="M826.09,-71.7C826.09,-64.41 826.09,-55.73 826.09,-47.54"/>
<polygon fill="black" stroke="black" points="829.59,-47.62 826.09,-37.62 822.59,-47.62 829.59,-47.62"/>
</g>
<!-- htcondor -->
<g id="node56" class="node">
<title>htcondor</title>
<g id="a_node56"><a xlink:href="https://github.com/conda-forge/htcondor-feedstock/pull/202" xlink:title="htcondor ✓">
<ellipse fill="#31688e" stroke="black" cx="1793.09" cy="-1230" rx="63.84" ry="18"/>
<text text-anchor="middle" x="1793.09" y="-1225.33" font-family="Times,serif" font-size="14.00" fill="white">htcondor ✓</text>
</a>
</g>
</g>
<!-- libredwg&#45;&gt;htcondor -->
<!-- mlt -->
<g id="node57" class="node">
<title>mlt</title>
<g id="a_node57"><a xlink:href="https://github.com/conda-forge/mlt-feedstock/pull/26" xlink:title="mlt ❎">
<ellipse fill="#31688e" stroke="black" cx="1793.09" cy="-1158" rx="43.32" ry="18"/>
<text text-anchor="middle" x="1793.09" y="-1153.33" font-family="Times,serif" font-size="14.00" fill="white">mlt ❎</text>
</a>
</g>
</g>
<!-- htcondor&#45;&gt;mlt -->
<!-- nix -->
<g id="node58" class="node">
<title>nix</title>
<g id="a_node58"><a xlink:href="https://github.com/conda-forge/nix-feedstock/pull/24" xlink:title="nix ✓">
<ellipse fill="#31688e" stroke="black" cx="1793.09" cy="-1086" rx="34.37" ry="18"/>
<text text-anchor="middle" x="1793.09" y="-1081.33" font-family="Times,serif" font-size="14.00" fill="white">nix ✓</text>
</a>
</g>
</g>
<!-- mlt&#45;&gt;nix -->
<!-- collada&#45;dom -->
<g id="node59" class="node">
<title>collada&#45;dom</title>
<g id="a_node59"><a xlink:href="https://github.com/conda-forge/collada-dom-feedstock/pull/9" xlink:title="collada dom ❎">
<ellipse fill="#31688e" stroke="black" cx="2114.09" cy="-1806" rx="86.46" ry="18"/>
<text text-anchor="middle" x="2114.09" y="-1801.33" font-family="Times,serif" font-size="14.00" fill="white">collada dom ❎</text>
</a>
</g>
</g>
<!-- librepo -->
<g id="node60" class="node">
<title>librepo</title>
<g id="a_node60"><a xlink:href="https://github.com/conda-forge/librepo-feedstock/pull/33" xlink:title="librepo ❎">
<ellipse fill="#31688e" stroke="black" cx="2114.09" cy="-1734" rx="61.73" ry="18"/>
<text text-anchor="middle" x="2114.09" y="-1729.33" font-family="Times,serif" font-size="14.00" fill="white">librepo ❎</text>
</a>
</g>
</g>
<!-- collada&#45;dom&#45;&gt;librepo -->
<!-- createrepo_c -->
<g id="node61" class="node">
<title>createrepo_c</title>
<g id="a_node61"><a xlink:href="https://github.com/conda-forge/createrepo_c-feedstock" xlink:title="createrepo_c">
<ellipse fill="#ff8c00" stroke="black" cx="2114.09" cy="-1662" rx="75.41" ry="18"/>
<text text-anchor="middle" x="2114.09" y="-1657.33" font-family="Times,serif" font-size="14.00">createrepo_c</text>
</a>
</g>
</g>
<!-- librepo&#45;&gt;createrepo_c -->
<!-- rrdtool -->
<g id="node64" class="node">
<title>rrdtool</title>
<g id="a_node64"><a xlink:href="https://github.com/conda-forge/rrdtool-feedstock/pull/12" xlink:title="rrdtool ✓">
<ellipse fill="#31688e" stroke="black" cx="2114.09" cy="-1590" rx="53.84" ry="18"/>
<text text-anchor="middle" x="2114.09" y="-1585.33" font-family="Times,serif" font-size="14.00" fill="white">rrdtool ✓</text>
</a>
</g>
</g>
<!-- createrepo_c&#45;&gt;rrdtool -->
<!-- openconnect -->
<g id="node62" class="node">
<title>openconnect</title>
<g id="a_node62"><a xlink:href="https://github.com/conda-forge/openconnect-feedstock" xlink:title="openconnect">
<ellipse fill="#fde725" stroke="black" cx="1793.09" cy="-170" rx="74.36" ry="18"/>
<text text-anchor="middle" x="1793.09" y="-165.32" font-family="Times,serif" font-size="14.00">openconnect</text>
</a>
</g>
</g>
<!-- stoken -->
<g id="node63" class="node">
<title>stoken</title>
<g id="a_node63"><a xlink:href="https://github.com/conda-forge/stoken-feedstock/pull/14" xlink:title="stoken ✓">
<ellipse fill="#31688e" stroke="black" cx="1793.09" cy="-242" rx="52.26" ry="18"/>
<text text-anchor="middle" x="1793.09" y="-237.32" font-family="Times,serif" font-size="14.00" fill="white">stoken ✓</text>
</a>
</g>
</g>
<!-- stoken&#45;&gt;openconnect -->
<g id="edge60" class="edge">
<title>stoken&#45;&gt;openconnect</title>
<path fill="none" stroke="black" d="M1793.09,-223.7C1793.09,-216.41 1793.09,-207.73 1793.09,-199.54"/>
<polygon fill="black" stroke="black" points="1796.59,-199.62 1793.09,-189.62 1789.59,-199.62 1796.59,-199.62"/>
</g>
<!-- s3fs&#45;fuse -->
<g id="node66" class="node">
<title>s3fs&#45;fuse</title>
<g id="a_node66"><a xlink:href="https://github.com/conda-forge/s3fs-fuse-feedstock/pull/14" xlink:title="s3fs fuse ❎">
<ellipse fill="#31688e" stroke="black" cx="2114.09" cy="-1518" rx="71.2" ry="18"/>
<text text-anchor="middle" x="2114.09" y="-1513.33" font-family="Times,serif" font-size="14.00" fill="white">s3fs fuse ❎</text>
</a>
</g>
</g>
<!-- rrdtool&#45;&gt;s3fs&#45;fuse -->
<!-- libsoup -->
<g id="node65" class="node">
<title>libsoup</title>
<g id="a_node65"><a xlink:href="https://github.com/conda-forge/libsoup-feedstock" xlink:title="libsoup">
<ellipse fill="#000000" stroke="black" cx="1105.09" cy="-1626" rx="47.53" ry="18"/>
<text text-anchor="middle" x="1105.09" y="-1621.33" font-family="Times,serif" font-size="14.00" fill="white">libsoup</text>
</a>
</g>
</g>
<!-- libsoup&#45;&gt;gstreamer -->
<g id="edge62" class="edge">
<title>libsoup&#45;&gt;gstreamer</title>
<path fill="none" stroke="black" d="M1105.09,-1607.7C1105.09,-1600.41 1105.09,-1591.73 1105.09,-1583.54"/>
<polygon fill="black" stroke="black" points="1108.59,-1583.62 1105.09,-1573.62 1101.59,-1583.62 1108.59,-1583.62"/>
</g>
<!-- unpaper -->
<g id="node67" class="node">
<title>unpaper</title>
<g id="a_node67"><a xlink:href="https://github.com/conda-forge/unpaper-feedstock/pull/7" xlink:title="unpaper ❎">
<ellipse fill="#31688e" stroke="black" cx="2114.09" cy="-1446" rx="68.04" ry="18"/>
<text text-anchor="middle" x="2114.09" y="-1441.33" font-family="Times,serif" font-size="14.00" fill="white">unpaper ❎</text>
</a>
</g>
</g>
<!-- s3fs&#45;fuse&#45;&gt;unpaper -->
<!-- ibm_db_sa -->
<g id="node68" class="node">
<title>ibm_db_sa</title>
<g id="a_node68"><a xlink:href="https://github.com/conda-forge/ibm_db_sa-feedstock/pull/22" xlink:title="ibm_db_sa ❎">
<ellipse fill="#31688e" stroke="black" cx="2114.09" cy="-1374" rx="78.57" ry="18"/>
<text text-anchor="middle" x="2114.09" y="-1369.33" font-family="Times,serif" font-size="14.00" fill="white">ibm_db_sa ❎</text>
</a>
</g>
</g>
<!-- unpaper&#45;&gt;ibm_db_sa -->
<!-- xmlrpc&#45;c -->
<g id="node70" class="node">
<title>xmlrpc&#45;c</title>
<g id="a_node70"><a xlink:href="https://github.com/conda-forge/xmlrpc-c-feedstock/pull/4" xlink:title="xmlrpc c ❎">
<ellipse fill="#31688e" stroke="black" cx="2114.09" cy="-1302" rx="69.62" ry="18"/>
<text text-anchor="middle" x="2114.09" y="-1297.33" font-family="Times,serif" font-size="14.00" fill="white">xmlrpc c ❎</text>
</a>
</g>
</g>
<!-- ibm_db_sa&#45;&gt;xmlrpc&#45;c -->
<!-- libxmlsec1 -->
<g id="node69" class="node">
<title>libxmlsec1</title>
<g id="a_node69"><a xlink:href="https://github.com/conda-forge/libxmlsec1-feedstock/pull/31" xlink:title="libxmlsec1 ❎">
<ellipse fill="#31688e" stroke="black" cx="848.09" cy="-278" rx="80.14" ry="18"/>
<text text-anchor="middle" x="848.09" y="-273.32" font-family="Times,serif" font-size="14.00" fill="white">libxmlsec1 ❎</text>
</a>
</g>
</g>
<!-- libxmlsec1&#45;&gt;xmlsec -->
<g id="edge66" class="edge">
<title>libxmlsec1&#45;&gt;xmlsec</title>
<path fill="none" stroke="black" d="M845.12,-259.77C841.85,-241.72 836.1,-212.62 829.09,-188 826.73,-179.69 823.73,-170.81 820.82,-162.73"/>
<polygon fill="black" stroke="black" points="824.13,-161.57 817.37,-153.42 817.56,-164.01 824.13,-161.57"/>
</g>
<!-- idyntree -->
<g id="node71" class="node">
<title>idyntree</title>
<g id="a_node71"><a xlink:href="https://github.com/conda-forge/idyntree-feedstock" xlink:title="idyntree">
<ellipse fill="#ff8c00" stroke="black" cx="2114.09" cy="-1230" rx="53.31" ry="18"/>
<text text-anchor="middle" x="2114.09" y="-1225.33" font-family="Times,serif" font-size="14.00">idyntree</text>
</a>
</g>
</g>
<!-- xmlrpc&#45;c&#45;&gt;idyntree -->
<!-- php -->
<g id="node72" class="node">
<title>php</title>
<g id="a_node72"><a xlink:href="https://github.com/conda-forge/php-feedstock/pull/88" xlink:title="php ❎">
<ellipse fill="#31688e" stroke="black" cx="2114.09" cy="-1158" rx="45.42" ry="18"/>
<text text-anchor="middle" x="2114.09" y="-1153.33" font-family="Times,serif" font-size="14.00" fill="white">php ❎</text>
</a>
</g>
</g>
<!-- idyntree&#45;&gt;php -->
<!-- xmlstarlet -->
<g id="node73" class="node">
<title>xmlstarlet</title>
<g id="a_node73"><a xlink:href="https://github.com/conda-forge/xmlstarlet-feedstock/pull/2" xlink:title="xmlstarlet ❎">
<ellipse fill="#31688e" stroke="black" cx="2114.09" cy="-1086" rx="78.04" ry="18"/>
<text text-anchor="middle" x="2114.09" y="-1081.33" font-family="Times,serif" font-size="14.00" fill="white">xmlstarlet ❎</text>
</a>
</g>
</g>
<!-- php&#45;&gt;xmlstarlet -->
<!-- sane -->
<g id="node74" class="node">
<title>sane</title>
<g id="a_node74"><a xlink:href="https://github.com/conda-forge/sane-feedstock/pull/20" xlink:title="sane ✓">
<ellipse fill="#31688e" stroke="black" cx="1483.09" cy="-1482" rx="42.26" ry="18"/>
<text text-anchor="middle" x="1483.09" y="-1477.33" font-family="Times,serif" font-size="14.00" fill="white">sane ✓</text>
</a>
</g>
</g>
<!-- sane&#45;&gt;gimagereader&#45;qt -->
<g id="edge71" class="edge">
<title>sane&#45;&gt;gimagereader&#45;qt</title>
<path fill="none" stroke="black" d="M1491.56,-1464.05C1495.42,-1456.35 1500.08,-1447.03 1504.41,-1438.36"/>
<polygon fill="black" stroke="black" points="1507.44,-1440.14 1508.78,-1429.63 1501.17,-1437.01 1507.44,-1440.14"/>
</g>
<!-- libxmlplusplus -->
<g id="node75" class="node">
<title>libxmlplusplus</title>
<g id="a_node75"><a xlink:href="https://github.com/conda-forge/libxmlplusplus-feedstock/pull/5" xlink:title="libxmlplusplus ❎">
<ellipse fill="#31688e" stroke="black" cx="1553.09" cy="-1554" rx="99.61" ry="18"/>
<text text-anchor="middle" x="1553.09" y="-1549.33" font-family="Times,serif" font-size="14.00" fill="white">libxmlplusplus ❎</text>
</a>
</g>
</g>
<!-- libxmlplusplus&#45;&gt;gimagereader&#45;qt -->
<g id="edge72" class="edge">
<title>libxmlplusplus&#45;&gt;gimagereader&#45;qt</title>
<path fill="none" stroke="black" d="M1549.87,-1535.84C1546.38,-1517.84 1540.47,-1488.79 1534.09,-1464 1531.98,-1455.78 1529.42,-1446.91 1526.97,-1438.84"/>
<polygon fill="black" stroke="black" points="1530.39,-1438.05 1524.09,-1429.53 1523.7,-1440.12 1530.39,-1438.05"/>
</g>
<!-- precice -->
<g id="node76" class="node">
<title>precice</title>
<g id="a_node76"><a xlink:href="https://github.com/conda-forge/precice-feedstock/pull/24" xlink:title="precice ❎">
<ellipse fill="#31688e" stroke="black" cx="1793.09" cy="-826" rx="62.78" ry="18"/>
<text text-anchor="middle" x="1793.09" y="-821.33" font-family="Times,serif" font-size="14.00" fill="white">precice ❎</text>
</a>
</g>
</g>
<!-- intel&#45;compiler&#45;repack -->
<g id="node77" class="node">
<title>intel&#45;compiler&#45;repack</title>
<g id="a_node77"><a xlink:href="https://github.com/conda-forge/intel-compiler-repack-feedstock/pull/29" xlink:title="intel compiler repack ❎">
<ellipse fill="#31688e" stroke="black" cx="1793.09" cy="-754" rx="132.76" ry="18"/>
<text text-anchor="middle" x="1793.09" y="-749.33" font-family="Times,serif" font-size="14.00" fill="white">intel compiler repack ❎</text>
</a>
</g>
</g>
<!-- precice&#45;&gt;intel&#45;compiler&#45;repack -->
<!-- pdfmm -->
<g id="node78" class="node">
<title>pdfmm</title>
<g id="a_node78"><a xlink:href="https://github.com/conda-forge/pdfmm-feedstock/pull/7" xlink:title="pdfmm ❎">
<ellipse fill="#31688e" stroke="black" cx="1793.09" cy="-682" rx="61.73" ry="18"/>
<text text-anchor="middle" x="1793.09" y="-677.33" font-family="Times,serif" font-size="14.00" fill="white">pdfmm ❎</text>
</a>
</g>
</g>
<!-- intel&#45;compiler&#45;repack&#45;&gt;pdfmm -->
<!-- dcmtk -->
<g id="node79" class="node">
<title>dcmtk</title>
<g id="a_node79"><a xlink:href="https://github.com/conda-forge/dcmtk-feedstock/pull/7" xlink:title="dcmtk ❎">
<ellipse fill="#31688e" stroke="black" cx="1793.09" cy="-610" rx="57.52" ry="18"/>
<text text-anchor="middle" x="1793.09" y="-605.33" font-family="Times,serif" font-size="14.00" fill="white">dcmtk ❎</text>
</a>
</g>
</g>
<!-- pdfmm&#45;&gt;dcmtk -->
<!-- visp -->
<g id="node80" class="node">
<title>visp</title>
<g id="a_node80"><a xlink:href="https://github.com/conda-forge/visp-feedstock" xlink:title="visp">
<ellipse fill="#ff8c00" stroke="black" cx="1793.09" cy="-538" rx="31.74" ry="18"/>
<text text-anchor="middle" x="1793.09" y="-533.33" font-family="Times,serif" font-size="14.00">visp</text>
</a>
</g>
</g>
<!-- dcmtk&#45;&gt;visp -->
</g>
</svg>
