<?xml version="1.0" encoding="UTF-8" standalone="no"?>
<!DOCTYPE svg PUBLIC "-//W3C//DTD SVG 1.1//EN"
 "http://www.w3.org/Graphics/SVG/1.1/DTD/svg11.dtd">
<!-- Generated by graphviz version 8.0.5 (20230506.1012)
 -->
<!-- Pages: 1 -->
<svg width="1184pt" height="404pt"
 viewBox="0.00 0.00 1183.72 404.00" xmlns="http://www.w3.org/2000/svg" xmlns:xlink="http://www.w3.org/1999/xlink">
<g id="graph0" class="graph" transform="scale(1 1) rotate(0) translate(4 400)">
<polygon fill="white" stroke="none" points="-4,4 -4,-400 1179.72,-400 1179.72,4 -4,4"/>
<!-- gnuplot -->
<g id="node1" class="node">
<title>gnuplot</title>
<g id="a_node1"><a xlink:href="https://github.com/conda-forge/gnuplot-feedstock" xlink:title="gnuplot">
<ellipse fill="#fde725" stroke="black" cx="374.13" cy="-234" rx="49.63" ry="18"/>
<text text-anchor="middle" x="374.13" y="-229.32" font-family="Times,serif" font-size="14.00">gnuplot</text>
</a>
</g>
</g>
<!-- mesalib -->
<g id="node2" class="node">
<title>mesalib</title>
<g id="a_node2"><a xlink:href="https://github.com/conda-forge/mesalib-feedstock/pull/52" xlink:title="mesalib ❎">
<ellipse fill="#31688e" stroke="black" cx="1016.13" cy="-342" rx="65.41" ry="18"/>
<text text-anchor="middle" x="1016.13" y="-337.32" font-family="Times,serif" font-size="14.00" fill="white">mesalib ❎</text>
</a>
</g>
</g>
<!-- fltk -->
<g id="node3" class="node">
<title>fltk</title>
<g id="a_node3"><a xlink:href="https://github.com/conda-forge/fltk-feedstock" xlink:title="fltk">
<ellipse fill="#35b779" stroke="black" cx="1016.13" cy="-270" rx="27.53" ry="18"/>
<text text-anchor="middle" x="1016.13" y="-265.32" font-family="Times,serif" font-size="14.00">fltk</text>
</a>
</g>
</g>
<!-- mesalib&#45;&gt;fltk -->
<!-- gst&#45;plugins&#45;ugly -->
<g id="node6" class="node">
<title>gst&#45;plugins&#45;ugly</title>
<g id="a_node6"><a xlink:href="https://github.com/conda-forge/gst-plugins-ugly-feedstock" xlink:title="gst plugins ugly">
<ellipse fill="#ff8c00" stroke="black" cx="1016.13" cy="-198" rx="91.72" ry="18"/>
<text text-anchor="middle" x="1016.13" y="-193.32" font-family="Times,serif" font-size="14.00">gst plugins ugly</text>
</a>
</g>
</g>
<!-- fltk&#45;&gt;gst&#45;plugins&#45;ugly -->
<!-- freeglut -->
<g id="node4" class="node">
<title>freeglut</title>
<g id="a_node4"><a xlink:href="https://github.com/conda-forge/freeglut-feedstock" xlink:title="freeglut">
<ellipse fill="#35b779" stroke="black" cx="227.13" cy="-306" rx="51.21" ry="18"/>
<text text-anchor="middle" x="227.13" y="-301.32" font-family="Times,serif" font-size="14.00">freeglut</text>
</a>
</g>
</g>
<!-- gazebo -->
<g id="node5" class="node">
<title>gazebo</title>
<g id="a_node5"><a xlink:href="https://github.com/conda-forge/gazebo-feedstock" xlink:title="gazebo">
<ellipse fill="#fde725" stroke="black" cx="222.13" cy="-234" rx="46.47" ry="18"/>
<text text-anchor="middle" x="222.13" y="-229.32" font-family="Times,serif" font-size="14.00">gazebo</text>
</a>
</g>
</g>
<!-- freeglut&#45;&gt;gazebo -->
<g id="edge2" class="edge">
<title>freeglut&#45;&gt;gazebo</title>
<path fill="none" stroke="black" d="M225.9,-287.7C225.36,-280.24 224.73,-271.32 224.13,-262.97"/>
<polygon fill="black" stroke="black" points="227.56,-262.83 223.35,-253.1 220.58,-263.33 227.56,-262.83"/>
</g>
<!-- gst&#45;plugins&#45;bad -->
<g id="node16" class="node">
<title>gst&#45;plugins&#45;bad</title>
<g id="a_node16"><a xlink:href="https://github.com/conda-forge/gst-plugins-bad-feedstock" xlink:title="gst plugins bad">
<ellipse fill="#ff8c00" stroke="black" cx="1016.13" cy="-126" rx="88.56" ry="18"/>
<text text-anchor="middle" x="1016.13" y="-121.33" font-family="Times,serif" font-size="14.00">gst plugins bad</text>
</a>
</g>
</g>
<!-- gst&#45;plugins&#45;ugly&#45;&gt;gst&#45;plugins&#45;bad -->
<!-- xcb&#45;util&#45;keysyms -->
<g id="node7" class="node">
<title>xcb&#45;util&#45;keysyms</title>
<g id="a_node7"><a xlink:href="https://github.com/conda-forge/xcb-util-keysyms-feedstock/pull/4" xlink:title="xcb util keysyms ❎">
<ellipse fill="#31688e" stroke="black" cx="110.13" cy="-378" rx="110.13" ry="18"/>
<text text-anchor="middle" x="110.13" y="-373.32" font-family="Times,serif" font-size="14.00" fill="white">xcb util keysyms ❎</text>
</a>
</g>
</g>
<!-- kwindowsystem -->
<g id="node8" class="node">
<title>kwindowsystem</title>
<g id="a_node8"><a xlink:href="https://github.com/conda-forge/kwindowsystem-feedstock" xlink:title="kwindowsystem">
<ellipse fill="#fde725" stroke="black" cx="296.13" cy="-162" rx="91.19" ry="18"/>
<text text-anchor="middle" x="296.13" y="-157.32" font-family="Times,serif" font-size="14.00">kwindowsystem</text>
</a>
</g>
</g>
<!-- xcb&#45;util&#45;keysyms&#45;&gt;kwindowsystem -->
<g id="edge4" class="edge">
<title>xcb&#45;util&#45;keysyms&#45;&gt;kwindowsystem</title>
<path fill="none" stroke="black" d="M108.92,-359.56C107.64,-327.13 109.64,-257.14 146.13,-216 163.45,-196.47 188.42,-184.14 213.04,-176.35"/>
<polygon fill="black" stroke="black" points="213.93,-179.45 222.54,-173.28 211.96,-172.73 213.93,-179.45"/>
</g>
<!-- kglobalaccel -->
<g id="node9" class="node">
<title>kglobalaccel</title>
<g id="a_node9"><a xlink:href="https://github.com/conda-forge/kglobalaccel-feedstock" xlink:title="kglobalaccel">
<ellipse fill="#fde725" stroke="black" cx="356.13" cy="-90" rx="72.78" ry="18"/>
<text text-anchor="middle" x="356.13" y="-85.33" font-family="Times,serif" font-size="14.00">kglobalaccel</text>
</a>
</g>
</g>
<!-- xcb&#45;util&#45;keysyms&#45;&gt;kglobalaccel -->
<g id="edge5" class="edge">
<title>xcb&#45;util&#45;keysyms&#45;&gt;kglobalaccel</title>
<path fill="none" stroke="black" d="M106.81,-359.7C101.78,-328.7 95.35,-262.57 121.13,-216 155.69,-153.58 234.04,-120.99 290.79,-104.94"/>
<polygon fill="black" stroke="black" points="291.38,-108.14 300.12,-102.14 289.55,-101.38 291.38,-108.14"/>
</g>
<!-- qt&#45;main -->
<g id="node10" class="node">
<title>qt&#45;main</title>
<g id="a_node10"><a xlink:href="https://github.com/conda-forge/qt-main-feedstock" xlink:title="qt main">
<ellipse fill="#fde725" stroke="black" cx="447.13" cy="-306" rx="49.63" ry="18"/>
<text text-anchor="middle" x="447.13" y="-301.32" font-family="Times,serif" font-size="14.00">qt main</text>
</a>
</g>
</g>
<!-- xcb&#45;util&#45;keysyms&#45;&gt;qt&#45;main -->
<g id="edge6" class="edge">
<title>xcb&#45;util&#45;keysyms&#45;&gt;qt&#45;main</title>
<path fill="none" stroke="black" d="M176.31,-363.25C240.19,-349.98 335.65,-330.16 394.52,-317.93"/>
<polygon fill="black" stroke="black" points="394.99,-321.2 404.06,-315.74 393.56,-314.35 394.99,-321.2"/>
</g>
<!-- kwindowsystem&#45;&gt;kglobalaccel -->
<g id="edge7" class="edge">
<title>kwindowsystem&#45;&gt;kglobalaccel</title>
<path fill="none" stroke="black" d="M310.66,-144.05C317.88,-135.63 326.75,-125.28 334.73,-115.97"/>
<polygon fill="black" stroke="black" points="337.89,-118.66 341.74,-108.79 332.58,-114.1 337.89,-118.66"/>
</g>
<!-- qt&#45;main&#45;&gt;gnuplot -->
<g id="edge8" class="edge">
<title>qt&#45;main&#45;&gt;gnuplot</title>
<path fill="none" stroke="black" d="M430.2,-288.76C420.96,-279.91 409.35,-268.77 399.09,-258.93"/>
<polygon fill="black" stroke="black" points="401.86,-256.78 392.22,-252.39 397.02,-261.84 401.86,-256.78"/>
</g>
<!-- qt&#45;main&#45;&gt;gazebo -->
<g id="edge9" class="edge">
<title>qt&#45;main&#45;&gt;gazebo</title>
<path fill="none" stroke="black" d="M410.23,-293.52C371.35,-281.42 310.05,-262.35 268.07,-249.29"/>
<polygon fill="black" stroke="black" points="269.16,-245.65 258.57,-246.02 267.08,-252.34 269.16,-245.65"/>
</g>
<!-- qt&#45;main&#45;&gt;kwindowsystem -->
<g id="edge10" class="edge">
<title>qt&#45;main&#45;&gt;kwindowsystem</title>
<path fill="none" stroke="black" d="M402.2,-298.07C373.19,-291.24 336.92,-277.88 315.13,-252 301,-235.2 296.61,-210.42 295.55,-191.27"/>
<polygon fill="black" stroke="black" points="299.03,-191.38 295.26,-181.47 292.03,-191.56 299.03,-191.38"/>
</g>
<!-- qt&#45;main&#45;&gt;kglobalaccel -->
<g id="edge11" class="edge">
<title>qt&#45;main&#45;&gt;kglobalaccel</title>
<path fill="none" stroke="black" d="M484.78,-293.89C531.45,-279.95 605.34,-257.23 609.13,-252 618.52,-239.05 617.58,-229.59 609.13,-216 569.07,-151.52 484.82,-119.3 424.55,-103.91"/>
<polygon fill="black" stroke="black" points="425.51,-100.3 414.97,-101.32 423.85,-107.1 425.51,-100.3"/>
</g>
<!-- lyx -->
<g id="node11" class="node">
<title>lyx</title>
<g id="a_node11"><a xlink:href="https://github.com/conda-forge/lyx-feedstock" xlink:title="lyx">
<ellipse fill="#fde725" stroke="black" cx="721.13" cy="-162" rx="27" ry="18"/>
<text text-anchor="middle" x="721.13" y="-157.32" font-family="Times,serif" font-size="14.00">lyx</text>
</a>
</g>
</g>
<!-- qt&#45;main&#45;&gt;lyx -->
<g id="edge12" class="edge">
<title>qt&#45;main&#45;&gt;lyx</title>
<path fill="none" stroke="black" d="M484.14,-293.66C491.09,-291.67 498.31,-289.7 505.13,-288 582.19,-268.82 617.94,-301.37 680.13,-252 699.24,-236.83 709.81,-210.72 715.41,-190.69"/>
<polygon fill="black" stroke="black" points="718.98,-191.85 718.03,-181.3 712.19,-190.14 718.98,-191.85"/>
</g>
<!-- colmap -->
<g id="node12" class="node">
<title>colmap</title>
<g id="a_node12"><a xlink:href="https://github.com/conda-forge/colmap-feedstock" xlink:title="colmap">
<ellipse fill="#fde725" stroke="black" cx="793.13" cy="-90" rx="47" ry="18"/>
<text text-anchor="middle" x="793.13" y="-85.33" font-family="Times,serif" font-size="14.00">colmap</text>
</a>
</g>
</g>
<!-- qt&#45;main&#45;&gt;colmap -->
<g id="edge13" class="edge">
<title>qt&#45;main&#45;&gt;colmap</title>
<path fill="none" stroke="black" d="M484.1,-293.51C491.05,-291.54 498.29,-289.61 505.13,-288 593.91,-267.14 630.36,-301.22 707.13,-252 754.28,-221.78 777.31,-156.56 787.06,-119.06"/>
<polygon fill="black" stroke="black" points="790.7,-119.93 789.67,-109.39 783.9,-118.27 790.7,-119.93"/>
</g>
<!-- qt&#45;webengine -->
<g id="node13" class="node">
<title>qt&#45;webengine</title>
<g id="a_node13"><a xlink:href="https://github.com/conda-forge/qt-webengine-feedstock" xlink:title="qt webengine">
<ellipse fill="#fde725" stroke="black" cx="521.13" cy="-234" rx="79.09" ry="18"/>
<text text-anchor="middle" x="521.13" y="-229.32" font-family="Times,serif" font-size="14.00">qt webengine</text>
</a>
</g>
</g>
<!-- qt&#45;main&#45;&gt;qt&#45;webengine -->
<g id="edge14" class="edge">
<title>qt&#45;main&#45;&gt;qt&#45;webengine</title>
<path fill="none" stroke="black" d="M464.3,-288.76C473.53,-280.03 485.1,-269.09 495.38,-259.36"/>
<polygon fill="black" stroke="black" points="497.43,-262.29 502.29,-252.88 492.62,-257.21 497.43,-262.29"/>
</g>
<!-- adwaita&#45;qt -->
<g id="node14" class="node">
<title>adwaita&#45;qt</title>
<g id="a_node14"><a xlink:href="https://github.com/conda-forge/adwaita-qt-feedstock" xlink:title="adwaita qt">
<ellipse fill="#fde725" stroke="black" cx="666.13" cy="-18" rx="64.36" ry="18"/>
<text text-anchor="middle" x="666.13" y="-13.32" font-family="Times,serif" font-size="14.00">adwaita qt</text>
</a>
</g>
</g>
<!-- qt&#45;main&#45;&gt;adwaita&#45;qt -->
<g id="edge15" class="edge">
<title>qt&#45;main&#45;&gt;adwaita&#45;qt</title>
<path fill="none" stroke="black" d="M484.58,-293.98C536.97,-278.55 625.83,-252.34 626.13,-252 677.51,-194.18 674.92,-95.22 669.98,-47.02"/>
<polygon fill="black" stroke="black" points="673.35,-46.72 668.74,-37.19 666.4,-47.52 673.35,-46.72"/>
</g>
<!-- pyceres -->
<g id="node18" class="node">
<title>pyceres</title>
<g id="a_node18"><a xlink:href="https://github.com/conda-forge/pyceres-feedstock" xlink:title="pyceres">
<ellipse fill="#fde725" stroke="black" cx="799.13" cy="-18" rx="50.16" ry="18"/>
<text text-anchor="middle" x="799.13" y="-13.32" font-family="Times,serif" font-size="14.00">pyceres</text>
</a>
</g>
</g>
<!-- colmap&#45;&gt;pyceres -->
<g id="edge20" class="edge">
<title>colmap&#45;&gt;pyceres</title>
<path fill="none" stroke="black" d="M794.62,-71.7C795.25,-64.24 796.02,-55.32 796.74,-46.97"/>
<polygon fill="black" stroke="black" points="800.3,-47.37 797.67,-37.1 793.32,-46.77 800.3,-47.37"/>
</g>
<!-- qt&#45;webengine&#45;&gt;kwindowsystem -->
<g id="edge21" class="edge">
<title>qt&#45;webengine&#45;&gt;kwindowsystem</title>
<path fill="none" stroke="black" d="M475.6,-218.83C440.51,-207.92 391.74,-192.74 353.9,-180.97"/>
<polygon fill="black" stroke="black" points="355.12,-177.38 344.54,-177.75 353.04,-184.06 355.12,-177.38"/>
</g>
<!-- qt&#45;webengine&#45;&gt;kglobalaccel -->
<g id="edge22" class="edge">
<title>qt&#45;webengine&#45;&gt;kglobalaccel</title>
<path fill="none" stroke="black" d="M501.56,-216.15C472.28,-190.96 416.98,-143.37 383.65,-114.68"/>
<polygon fill="black" stroke="black" points="386.55,-111.7 376.68,-107.82 381.98,-117 386.55,-111.7"/>
</g>
<!-- xcb&#45;util&#45;wm -->
<g id="node15" class="node">
<title>xcb&#45;util&#45;wm</title>
<g id="a_node15"><a xlink:href="https://github.com/conda-forge/xcb-util-wm-feedstock/pull/2" xlink:title="xcb util wm ❎">
<ellipse fill="#31688e" stroke="black" cx="324.13" cy="-378" rx="84.88" ry="18"/>
<text text-anchor="middle" x="324.13" y="-373.32" font-family="Times,serif" font-size="14.00" fill="white">xcb util wm ❎</text>
</a>
</g>
</g>
<!-- xcb&#45;util&#45;wm&#45;&gt;kwindowsystem -->
<g id="edge16" class="edge">
<title>xcb&#45;util&#45;wm&#45;&gt;kwindowsystem</title>
<path fill="none" stroke="black" d="M265.55,-364.7C226.05,-355.08 179.04,-340.59 167.13,-324 139.14,-285.01 140.41,-255.87 167.13,-216 179.24,-197.93 198.73,-186.02 218.94,-178.17"/>
<polygon fill="black" stroke="black" points="219.95,-181.17 228.21,-174.52 217.61,-174.57 219.95,-181.17"/>
</g>
<!-- xcb&#45;util&#45;wm&#45;&gt;qt&#45;main -->
<g id="edge17" class="edge">
<title>xcb&#45;util&#45;wm&#45;&gt;qt&#45;main</title>
<path fill="none" stroke="black" d="M352.97,-360.59C370.63,-350.54 393.34,-337.61 412.04,-326.97"/>
<polygon fill="black" stroke="black" points="413.44,-329.63 420.4,-321.64 409.98,-323.55 413.44,-329.63"/>
</g>
<!-- qt6&#45;advanced&#45;docking&#45;system -->
<g id="node17" class="node">
<title>qt6&#45;advanced&#45;docking&#45;system</title>
<g id="a_node17"><a xlink:href="https://github.com/conda-forge/qt6-advanced-docking-system-feedstock" xlink:title="qt6 advanced docking system">
<ellipse fill="#ff8c00" stroke="black" cx="1016.13" cy="-54" rx="159.59" ry="18"/>
<text text-anchor="middle" x="1016.13" y="-49.33" font-family="Times,serif" font-size="14.00">qt6 advanced docking system</text>
</a>
</g>
</g>
<!-- gst&#45;plugins&#45;bad&#45;&gt;qt6&#45;advanced&#45;docking&#45;system -->
<!-- xcb&#45;util&#45;image -->
<g id="node19" class="node">
<title>xcb&#45;util&#45;image</title>
<g id="a_node19"><a xlink:href="https://github.com/conda-forge/xcb-util-image-feedstock/pull/4" xlink:title="xcb util image ❎">
<ellipse fill="#31688e" stroke="black" cx="524.13" cy="-378" rx="97.51" ry="18"/>
<text text-anchor="middle" x="524.13" y="-373.32" font-family="Times,serif" font-size="14.00" fill="white">xcb util image ❎</text>
</a>
</g>
</g>
<!-- xcb&#45;util&#45;image&#45;&gt;qt&#45;main -->
<g id="edge23" class="edge">
<title>xcb&#45;util&#45;image&#45;&gt;qt&#45;main</title>
<path fill="none" stroke="black" d="M505.49,-360.05C495.63,-351.09 483.38,-339.95 472.65,-330.2"/>
<polygon fill="black" stroke="black" points="475.56,-328.2 465.81,-324.07 470.85,-333.38 475.56,-328.2"/>
</g>
<!-- xcb&#45;util&#45;cursor -->
<g id="node20" class="node">
<title>xcb&#45;util&#45;cursor</title>
<g id="a_node20"><a xlink:href="https://github.com/conda-forge/xcb-util-cursor-feedstock" xlink:title="xcb util cursor">
<ellipse fill="#fde725" stroke="black" cx="598.13" cy="-306" rx="83.83" ry="18"/>
<text text-anchor="middle" x="598.13" y="-301.32" font-family="Times,serif" font-size="14.00">xcb util cursor</text>
</a>
</g>
</g>
<!-- xcb&#45;util&#45;image&#45;&gt;xcb&#45;util&#45;cursor -->
<g id="edge24" class="edge">
<title>xcb&#45;util&#45;image&#45;&gt;xcb&#45;util&#45;cursor</title>
<path fill="none" stroke="black" d="M542.05,-360.05C551.16,-351.43 562.4,-340.8 572.42,-331.32"/>
<polygon fill="black" stroke="black" points="574.27,-334.45 579.13,-325.03 569.46,-329.36 574.27,-334.45"/>
</g>
</g>
</svg>
