<?xml version="1.0" encoding="UTF-8" standalone="no"?>
<!DOCTYPE svg PUBLIC "-//W3C//DTD SVG 1.1//EN"
 "http://www.w3.org/Graphics/SVG/1.1/DTD/svg11.dtd">
<!-- Generated by graphviz version 8.0.5 (20230506.1012)
 -->
<!-- Pages: 1 -->
<svg width="1220pt" height="260pt"
 viewBox="0.00 0.00 1220.42 260.00" xmlns="http://www.w3.org/2000/svg" xmlns:xlink="http://www.w3.org/1999/xlink">
<g id="graph0" class="graph" transform="scale(1 1) rotate(0) translate(4 256)">
<polygon fill="white" stroke="none" points="-4,4 -4,-256 1216.42,-256 1216.42,4 -4,4"/>
<!-- gnuplot -->
<g id="node1" class="node">
<title>gnuplot</title>
<g id="a_node1"><a xlink:href="https://github.com/conda-forge/gnuplot-feedstock" xlink:title="gnuplot">
<ellipse fill="#fde725" stroke="black" cx="49.63" cy="-162" rx="49.63" ry="18"/>
<text text-anchor="middle" x="49.63" y="-157.32" font-family="Times,serif" font-size="14.00">gnuplot</text>
</a>
</g>
</g>
<!-- fltk -->
<g id="node2" class="node">
<title>fltk</title>
<g id="a_node2"><a xlink:href="https://github.com/conda-forge/fltk-feedstock/pull/17" xlink:title="fltk ❎">
<ellipse fill="#31688e" stroke="black" cx="1169.63" cy="-126" rx="42.79" ry="18"/>
<text text-anchor="middle" x="1169.63" y="-121.33" font-family="Times,serif" font-size="14.00" fill="white">fltk ❎</text>
</a>
</g>
</g>
<!-- gazebo -->
<g id="node3" class="node">
<title>gazebo</title>
<g id="a_node3"><a xlink:href="https://github.com/conda-forge/gazebo-feedstock" xlink:title="gazebo">
<ellipse fill="#fde725" stroke="black" cx="163.63" cy="-162" rx="46.47" ry="18"/>
<text text-anchor="middle" x="163.63" y="-157.32" font-family="Times,serif" font-size="14.00">gazebo</text>
</a>
</g>
</g>
<!-- kwindowsystem -->
<g id="node4" class="node">
<title>kwindowsystem</title>
<g id="a_node4"><a xlink:href="https://github.com/conda-forge/kwindowsystem-feedstock" xlink:title="kwindowsystem">
<ellipse fill="#fde725" stroke="black" cx="291.63" cy="-90" rx="91.19" ry="18"/>
<text text-anchor="middle" x="291.63" y="-85.33" font-family="Times,serif" font-size="14.00">kwindowsystem</text>
</a>
</g>
</g>
<!-- kglobalaccel -->
<g id="node5" class="node">
<title>kglobalaccel</title>
<g id="a_node5"><a xlink:href="https://github.com/conda-forge/kglobalaccel-feedstock" xlink:title="kglobalaccel">
<ellipse fill="#fde725" stroke="black" cx="410.63" cy="-18" rx="72.78" ry="18"/>
<text text-anchor="middle" x="410.63" y="-13.32" font-family="Times,serif" font-size="14.00">kglobalaccel</text>
</a>
</g>
</g>
<!-- kwindowsystem&#45;&gt;kglobalaccel -->
<g id="edge1" class="edge">
<title>kwindowsystem&#45;&gt;kglobalaccel</title>
<path fill="none" stroke="black" d="M319.83,-72.41C336.07,-62.86 356.65,-50.75 374.12,-40.48"/>
<polygon fill="black" stroke="black" points="375.61,-43.08 382.45,-34.99 372.06,-37.04 375.61,-43.08"/>
</g>
<!-- lyx -->
<g id="node6" class="node">
<title>lyx</title>
<g id="a_node6"><a xlink:href="https://github.com/conda-forge/lyx-feedstock" xlink:title="lyx">
<ellipse fill="#fde725" stroke="black" cx="468.63" cy="-162" rx="27" ry="18"/>
<text text-anchor="middle" x="468.63" y="-157.32" font-family="Times,serif" font-size="14.00">lyx</text>
</a>
</g>
</g>
<!-- colmap -->
<g id="node7" class="node">
<title>colmap</title>
<g id="a_node7"><a xlink:href="https://github.com/conda-forge/colmap-feedstock" xlink:title="colmap">
<ellipse fill="#fde725" stroke="black" cx="560.63" cy="-162" rx="47" ry="18"/>
<text text-anchor="middle" x="560.63" y="-157.32" font-family="Times,serif" font-size="14.00">colmap</text>
</a>
</g>
</g>
<!-- pyceres -->
<g id="node10" class="node">
<title>pyceres</title>
<g id="a_node10"><a xlink:href="https://github.com/conda-forge/pyceres-feedstock" xlink:title="pyceres">
<ellipse fill="#fde725" stroke="black" cx="557.63" cy="-90" rx="50.16" ry="18"/>
<text text-anchor="middle" x="557.63" y="-85.33" font-family="Times,serif" font-size="14.00">pyceres</text>
</a>
</g>
</g>
<!-- colmap&#45;&gt;pyceres -->
<g id="edge2" class="edge">
<title>colmap&#45;&gt;pyceres</title>
<path fill="none" stroke="black" d="M559.89,-143.7C559.57,-136.24 559.19,-127.32 558.83,-118.97"/>
<polygon fill="black" stroke="black" points="562.29,-118.95 558.36,-109.1 555.29,-119.25 562.29,-118.95"/>
</g>
<!-- qt&#45;main -->
<g id="node8" class="node">
<title>qt&#45;main</title>
<g id="a_node8"><a xlink:href="https://github.com/conda-forge/qt-main-feedstock/pull/162" xlink:title="qt main ❎">
<ellipse fill="#31688e" stroke="black" cx="406.63" cy="-234" rx="64.89" ry="18"/>
<text text-anchor="middle" x="406.63" y="-229.32" font-family="Times,serif" font-size="14.00" fill="white">qt main ❎</text>
</a>
</g>
</g>
<!-- qt&#45;main&#45;&gt;gnuplot -->
<g id="edge6" class="edge">
<title>qt&#45;main&#45;&gt;gnuplot</title>
<path fill="none" stroke="black" d="M350.25,-224.77C290.06,-215.57 192.06,-199.38 108.63,-180 104.82,-179.12 100.9,-178.14 96.96,-177.11"/>
<polygon fill="black" stroke="black" points="98.18,-173.54 87.61,-174.3 96.35,-180.29 98.18,-173.54"/>
</g>
<!-- qt&#45;main&#45;&gt;gazebo -->
<g id="edge5" class="edge">
<title>qt&#45;main&#45;&gt;gazebo</title>
<path fill="none" stroke="black" d="M362.62,-220.32C319.66,-207.95 254.52,-189.18 210.58,-176.53"/>
<polygon fill="black" stroke="black" points="211.75,-172.93 201.17,-173.53 209.81,-179.66 211.75,-172.93"/>
</g>
<!-- qt&#45;main&#45;&gt;kwindowsystem -->
<g id="edge9" class="edge">
<title>qt&#45;main&#45;&gt;kwindowsystem</title>
<path fill="none" stroke="black" d="M345.42,-227.86C313.38,-221.7 276.72,-208.41 256.63,-180 242.95,-160.66 255.39,-135.24 269.08,-116.52"/>
<polygon fill="black" stroke="black" points="272.4,-118.96 275.79,-108.92 266.88,-114.65 272.4,-118.96"/>
</g>
<!-- qt&#45;main&#45;&gt;kglobalaccel -->
<g id="edge10" class="edge">
<title>qt&#45;main&#45;&gt;kglobalaccel</title>
<path fill="none" stroke="black" d="M465.8,-226.17C521.22,-218.41 598.2,-203.66 616.63,-180 646.13,-142.13 646.04,-109.93 616.63,-72 600.36,-51.01 537.34,-36.88 485.24,-28.52"/>
<polygon fill="black" stroke="black" points="486.06,-24.95 475.64,-26.87 484.99,-31.87 486.06,-24.95"/>
</g>
<!-- qt&#45;main&#45;&gt;lyx -->
<g id="edge7" class="edge">
<title>qt&#45;main&#45;&gt;lyx</title>
<path fill="none" stroke="black" d="M421.64,-216.05C429.62,-207.04 439.55,-195.83 448.23,-186.04"/>
<polygon fill="black" stroke="black" points="450.43,-188.69 454.44,-178.89 445.19,-184.05 450.43,-188.69"/>
</g>
<!-- qt&#45;main&#45;&gt;colmap -->
<g id="edge4" class="edge">
<title>qt&#45;main&#45;&gt;colmap</title>
<path fill="none" stroke="black" d="M439.29,-218.15C463.3,-207.24 496.03,-192.37 521.44,-180.81"/>
<polygon fill="black" stroke="black" points="522.49,-183.73 530.14,-176.4 519.59,-177.36 522.49,-183.73"/>
</g>
<!-- qt&#45;webengine -->
<g id="node9" class="node">
<title>qt&#45;webengine</title>
<g id="a_node9"><a xlink:href="https://github.com/conda-forge/qt-webengine-feedstock" xlink:title="qt webengine">
<ellipse fill="#fde725" stroke="black" cx="344.63" cy="-162" rx="79.09" ry="18"/>
<text text-anchor="middle" x="344.63" y="-157.32" font-family="Times,serif" font-size="14.00">qt webengine</text>
</a>
</g>
</g>
<!-- qt&#45;main&#45;&gt;qt&#45;webengine -->
<g id="edge8" class="edge">
<title>qt&#45;main&#45;&gt;qt&#45;webengine</title>
<path fill="none" stroke="black" d="M391.62,-216.05C384.16,-207.63 374.99,-197.28 366.74,-187.97"/>
<polygon fill="black" stroke="black" points="369.75,-185.95 360.5,-180.79 364.51,-190.6 369.75,-185.95"/>
</g>
<!-- adwaita&#45;qt -->
<g id="node12" class="node">
<title>adwaita&#45;qt</title>
<g id="a_node12"><a xlink:href="https://github.com/conda-forge/adwaita-qt-feedstock" xlink:title="adwaita qt">
<ellipse fill="#fde725" stroke="black" cx="727.63" cy="-162" rx="64.36" ry="18"/>
<text text-anchor="middle" x="727.63" y="-157.32" font-family="Times,serif" font-size="14.00">adwaita qt</text>
</a>
</g>
</g>
<!-- qt&#45;main&#45;&gt;adwaita&#45;qt -->
<g id="edge3" class="edge">
<title>qt&#45;main&#45;&gt;adwaita&#45;qt</title>
<path fill="none" stroke="black" d="M456.43,-222.14C513.33,-209.73 606.42,-189.43 667.36,-176.14"/>
<polygon fill="black" stroke="black" points="667.95,-179.38 676.97,-173.83 666.46,-172.54 667.95,-179.38"/>
</g>
<!-- qt&#45;webengine&#45;&gt;kwindowsystem -->
<g id="edge11" class="edge">
<title>qt&#45;webengine&#45;&gt;kwindowsystem</title>
<path fill="none" stroke="black" d="M331.8,-144.05C325.64,-135.92 318.13,-126 311.27,-116.94"/>
<polygon fill="black" stroke="black" points="313.54,-115.14 304.71,-109.28 307.96,-119.36 313.54,-115.14"/>
</g>
<!-- qt&#45;webengine&#45;&gt;kglobalaccel -->
<g id="edge12" class="edge">
<title>qt&#45;webengine&#45;&gt;kglobalaccel</title>
<path fill="none" stroke="black" d="M363.75,-144.11C373.51,-134.47 384.75,-121.61 391.63,-108 401.26,-88.94 406.02,-65.19 408.36,-47.03"/>
<polygon fill="black" stroke="black" points="411.93,-47.59 409.56,-37.26 404.98,-46.81 411.93,-47.59"/>
</g>
<!-- qt6&#45;advanced&#45;docking&#45;system -->
<g id="node11" class="node">
<title>qt6&#45;advanced&#45;docking&#45;system</title>
<g id="a_node11"><a xlink:href="https://github.com/conda-forge/qt6-advanced-docking-system-feedstock" xlink:title="qt6 advanced docking system">
<ellipse fill="#ff8c00" stroke="black" cx="959.63" cy="-126" rx="159.59" ry="18"/>
<text text-anchor="middle" x="959.63" y="-121.33" font-family="Times,serif" font-size="14.00">qt6 advanced docking system</text>
</a>
</g>
</g>
</g>
</svg>
