<?xml version="1.0" encoding="UTF-8" standalone="no"?>
<!DOCTYPE svg PUBLIC "-//W3C//DTD SVG 1.1//EN"
 "http://www.w3.org/Graphics/SVG/1.1/DTD/svg11.dtd">
<!-- Generated by graphviz version 8.0.5 (20230506.1012)
 -->
<!-- Pages: 1 -->
<svg width="732pt" height="232pt"
 viewBox="0.00 0.00 732.08 232.00" xmlns="http://www.w3.org/2000/svg" xmlns:xlink="http://www.w3.org/1999/xlink">
<g id="graph0" class="graph" transform="scale(1 1) rotate(0) translate(4 228)">
<polygon fill="white" stroke="none" points="-4,4 -4,-228 728.08,-228 728.08,4 -4,4"/>
<!-- gnuplot -->
<g id="node1" class="node">
<title>gnuplot</title>
<g id="a_node1"><a xlink:href="https://github.com/conda-forge/gnuplot-feedstock/pull/51" xlink:title="gnuplot ❎">
<ellipse fill="#31688e" stroke="black" cx="659.19" cy="-134" rx="64.89" ry="18"/>
<text text-anchor="middle" x="659.19" y="-129.32" font-family="Times,serif" font-size="14.00" fill="white">gnuplot ❎</text>
</a>
</g>
</g>
<!-- fltk -->
<g id="node2" class="node">
<title>fltk</title>
<g id="a_node2"><a xlink:href="https://github.com/conda-forge/fltk-feedstock/pull/17" xlink:title="fltk ❎">
<ellipse fill="#31688e" stroke="black" cx="412.19" cy="-18" rx="42.79" ry="18"/>
<text text-anchor="middle" x="412.19" y="-13.32" font-family="Times,serif" font-size="14.00" fill="white">fltk ❎</text>
</a>
</g>
</g>
<!-- kwindowsystem -->
<g id="node3" class="node">
<title>kwindowsystem</title>
<g id="a_node3"><a xlink:href="https://github.com/conda-forge/kwindowsystem-feedstock" xlink:title="kwindowsystem">
<ellipse fill="#fde725" stroke="black" cx="91.19" cy="-134" rx="91.19" ry="18"/>
<text text-anchor="middle" x="91.19" y="-129.32" font-family="Times,serif" font-size="14.00">kwindowsystem</text>
</a>
</g>
</g>
<!-- kglobalaccel -->
<g id="node4" class="node">
<title>kglobalaccel</title>
<g id="a_node4"><a xlink:href="https://github.com/conda-forge/kglobalaccel-feedstock" xlink:title="kglobalaccel">
<ellipse fill="#fde725" stroke="black" cx="150.19" cy="-62" rx="72.78" ry="18"/>
<text text-anchor="middle" x="150.19" y="-57.33" font-family="Times,serif" font-size="14.00">kglobalaccel</text>
</a>
</g>
</g>
<!-- kwindowsystem&#45;&gt;kglobalaccel -->
<g id="edge1" class="edge">
<title>kwindowsystem&#45;&gt;kglobalaccel</title>
<path fill="none" stroke="black" d="M105.47,-116.05C112.58,-107.63 121.3,-97.28 129.15,-87.97"/>
<polygon fill="black" stroke="black" points="132.27,-90.69 136.04,-80.79 126.92,-86.18 132.27,-90.69"/>
</g>
<!-- lyx -->
<g id="node5" class="node">
<title>lyx</title>
<g id="a_node5"><a xlink:href="https://github.com/conda-forge/lyx-feedstock/pull/9" xlink:title="lyx ❎">
<ellipse fill="#31688e" stroke="black" cx="659.19" cy="-18" rx="41.21" ry="18"/>
<text text-anchor="middle" x="659.19" y="-13.32" font-family="Times,serif" font-size="14.00" fill="white">lyx ❎</text>
</a>
</g>
</g>
<!-- qt&#45;webengine -->
<g id="node6" class="node">
<title>qt&#45;webengine</title>
<g id="a_node6"><a xlink:href="https://github.com/conda-forge/qt-webengine-feedstock" xlink:title="qt webengine">
<ellipse fill="#ff8c00" stroke="black" cx="150.19" cy="-206" rx="79.09" ry="18"/>
<text text-anchor="middle" x="150.19" y="-201.32" font-family="Times,serif" font-size="14.00">qt webengine</text>
</a>
</g>
</g>
<!-- qt&#45;webengine&#45;&gt;kwindowsystem -->
<g id="edge2" class="edge">
<title>qt&#45;webengine&#45;&gt;kwindowsystem</title>
<path fill="none" stroke="black" d="M135.91,-188.05C128.81,-179.63 120.09,-169.28 112.24,-159.97"/>
<polygon fill="black" stroke="black" points="114.46,-158.18 105.34,-152.79 109.11,-162.69 114.46,-158.18"/>
</g>
<!-- qt&#45;webengine&#45;&gt;kglobalaccel -->
<g id="edge3" class="edge">
<title>qt&#45;webengine&#45;&gt;kglobalaccel</title>
<path fill="none" stroke="black" d="M167.93,-188.15C176.76,-178.51 186.53,-165.65 191.19,-152 196.37,-136.86 196.37,-131.14 191.19,-116 187.77,-105.98 181.59,-96.38 175.05,-88.17"/>
<polygon fill="black" stroke="black" points="177.1,-86.17 167.93,-80.85 171.78,-90.73 177.1,-86.17"/>
</g>
<!-- pyceres -->
<g id="node7" class="node">
<title>pyceres</title>
<g id="a_node7"><a xlink:href="https://github.com/conda-forge/pyceres-feedstock" xlink:title="pyceres">
<ellipse fill="#35b779" stroke="black" cx="114.19" cy="-18" rx="50.16" ry="18"/>
<text text-anchor="middle" x="114.19" y="-13.32" font-family="Times,serif" font-size="14.00">pyceres</text>
</a>
</g>
</g>
<!-- qt6&#45;advanced&#45;docking&#45;system -->
<g id="node8" class="node">
<title>qt6&#45;advanced&#45;docking&#45;system</title>
<g id="a_node8"><a xlink:href="https://github.com/conda-forge/qt6-advanced-docking-system-feedstock/pull/8" xlink:title="qt6 advanced docking system ❎">
<ellipse fill="#31688e" stroke="black" cx="412.19" cy="-134" rx="174.84" ry="18"/>
<text text-anchor="middle" x="412.19" y="-129.32" font-family="Times,serif" font-size="14.00" fill="white">qt6 advanced docking system ❎</text>
</a>
</g>
</g>
</g>
</svg>
