<?xml version="1.0" encoding="UTF-8" standalone="no"?>
<!DOCTYPE svg PUBLIC "-//W3C//DTD SVG 1.1//EN"
 "http://www.w3.org/Graphics/SVG/1.1/DTD/svg11.dtd">
<!-- Generated by graphviz version 8.1.0 (20230707.2238)
 -->
<!-- Pages: 1 -->
<svg width="982pt" height="332pt"
 viewBox="0.00 0.00 981.68 332.00" xmlns="http://www.w3.org/2000/svg" xmlns:xlink="http://www.w3.org/1999/xlink">
<g id="graph0" class="graph" transform="scale(1 1) rotate(0) translate(4 328)">
<polygon fill="white" stroke="none" points="-4,4 -4,-328 977.68,-328 977.68,4 -4,4"/>
<!-- ipopt -->
<g id="node1" class="node">
<title>ipopt</title>
<g id="a_node1"><a xlink:href="https://github.com/conda-forge/ipopt-feedstock" xlink:title="ipopt">
<ellipse fill="#fde725" stroke="black" cx="75.48" cy="-198" rx="37" ry="18"/>
<text text-anchor="middle" x="75.48" y="-193.32" font-family="Times,serif" font-size="14.00">ipopt</text>
</a>
</g>
</g>
<!-- moab -->
<g id="node2" class="node">
<title>moab</title>
<g id="a_node2"><a xlink:href="https://github.com/conda-forge/moab-feedstock" xlink:title="moab">
<ellipse fill="#35b779" stroke="black" cx="922.48" cy="-306" rx="38.58" ry="18"/>
<text text-anchor="middle" x="922.48" y="-301.32" font-family="Times,serif" font-size="14.00">moab</text>
</a>
</g>
</g>
<!-- pymetis -->
<g id="node3" class="node">
<title>pymetis</title>
<g id="a_node3"><a xlink:href="https://github.com/conda-forge/pymetis-feedstock" xlink:title="pymetis">
<ellipse fill="#35b779" stroke="black" cx="922.48" cy="-234" rx="51.21" ry="18"/>
<text text-anchor="middle" x="922.48" y="-229.32" font-family="Times,serif" font-size="14.00">pymetis</text>
</a>
</g>
</g>
<!-- moab&#45;&gt;pymetis -->
<!-- mfem -->
<g id="node14" class="node">
<title>mfem</title>
<g id="a_node14"><a xlink:href="https://github.com/conda-forge/mfem-feedstock" xlink:title="mfem">
<ellipse fill="#35b779" stroke="black" cx="922.48" cy="-162" rx="39.63" ry="18"/>
<text text-anchor="middle" x="922.48" y="-157.32" font-family="Times,serif" font-size="14.00">mfem</text>
</a>
</g>
</g>
<!-- pymetis&#45;&gt;mfem -->
<!-- mumps -->
<g id="node4" class="node">
<title>mumps</title>
<g id="a_node4"><a xlink:href="https://github.com/conda-forge/mumps-feedstock/pull/89" xlink:title="mumps ❎">
<ellipse fill="#31688e" stroke="black" cx="154.48" cy="-270" rx="63.31" ry="18"/>
<text text-anchor="middle" x="154.48" y="-265.32" font-family="Times,serif" font-size="14.00" fill="white">mumps ❎</text>
</a>
</g>
</g>
<!-- mumps&#45;&gt;ipopt -->
<g id="edge2" class="edge">
<title>mumps&#45;&gt;ipopt</title>
<path fill="none" stroke="black" d="M135.76,-252.41C125.25,-243.11 112.01,-231.38 100.62,-221.28"/>
<polygon fill="black" stroke="black" points="103.52,-219.29 93.71,-215.27 98.88,-224.53 103.52,-219.29"/>
</g>
<!-- petsc -->
<g id="node5" class="node">
<title>petsc</title>
<g id="a_node5"><a xlink:href="https://github.com/conda-forge/petsc-feedstock" xlink:title="petsc">
<ellipse fill="#fde725" stroke="black" cx="295.48" cy="-198" rx="38.06" ry="18"/>
<text text-anchor="middle" x="295.48" y="-193.32" font-family="Times,serif" font-size="14.00">petsc</text>
</a>
</g>
</g>
<!-- mumps&#45;&gt;petsc -->
<g id="edge3" class="edge">
<title>mumps&#45;&gt;petsc</title>
<path fill="none" stroke="black" d="M185.07,-253.81C207.23,-242.81 237.22,-227.92 260.35,-216.44"/>
<polygon fill="black" stroke="black" points="261.72,-219.17 269.12,-211.59 258.61,-212.9 261.72,-219.17"/>
</g>
<!-- proteus -->
<g id="node6" class="node">
<title>proteus</title>
<g id="a_node6"><a xlink:href="https://github.com/conda-forge/proteus-feedstock" xlink:title="proteus">
<ellipse fill="#fde725" stroke="black" cx="295.48" cy="-126" rx="49.63" ry="18"/>
<text text-anchor="middle" x="295.48" y="-121.33" font-family="Times,serif" font-size="14.00">proteus</text>
</a>
</g>
</g>
<!-- mumps&#45;&gt;proteus -->
<g id="edge4" class="edge">
<title>mumps&#45;&gt;proteus</title>
<path fill="none" stroke="black" d="M169.9,-252.36C186.74,-234.29 214.64,-204.72 239.48,-180 249.33,-170.19 260.42,-159.61 270.1,-150.5"/>
<polygon fill="black" stroke="black" points="271.94,-153.64 276.85,-144.25 267.16,-148.53 271.94,-153.64"/>
</g>
<!-- petsc&#45;&gt;proteus -->
<g id="edge5" class="edge">
<title>petsc&#45;&gt;proteus</title>
<path fill="none" stroke="black" d="M295.48,-179.7C295.48,-172.24 295.48,-163.32 295.48,-154.97"/>
<polygon fill="black" stroke="black" points="298.98,-155.1 295.48,-145.1 291.98,-155.1 298.98,-155.1"/>
</g>
<!-- suitesparse -->
<g id="node7" class="node">
<title>suitesparse</title>
<g id="a_node7"><a xlink:href="https://github.com/conda-forge/suitesparse-feedstock/pull/83" xlink:title="suitesparse ✓">
<ellipse fill="#31688e" stroke="black" cx="619.48" cy="-270" rx="76.99" ry="18"/>
<text text-anchor="middle" x="619.48" y="-265.32" font-family="Times,serif" font-size="14.00" fill="white">suitesparse ✓</text>
</a>
</g>
</g>
<!-- suitesparse&#45;&gt;petsc -->
<g id="edge6" class="edge">
<title>suitesparse&#45;&gt;petsc</title>
<path fill="none" stroke="black" d="M555.28,-259.67C498.72,-250.75 414.36,-235.74 342.48,-216 339.88,-215.29 337.22,-214.5 334.55,-213.66"/>
<polygon fill="black" stroke="black" points="335.92,-210.09 325.33,-210.25 333.71,-216.73 335.92,-210.09"/>
</g>
<!-- suitesparse&#45;&gt;proteus -->
<g id="edge7" class="edge">
<title>suitesparse&#45;&gt;proteus</title>
<path fill="none" stroke="black" d="M572.38,-255.47C545.43,-246.54 511.68,-233.29 484.48,-216 464.84,-203.52 466.34,-192.12 446.48,-180 415.72,-161.23 377.36,-147.87 347.01,-139.26"/>
<polygon fill="black" stroke="black" points="348.2,-135.69 337.63,-136.41 346.35,-142.44 348.2,-135.69"/>
</g>
<!-- match&#45;series -->
<g id="node8" class="node">
<title>match&#45;series</title>
<g id="a_node8"><a xlink:href="https://github.com/conda-forge/match-series-feedstock" xlink:title="match series">
<ellipse fill="#fde725" stroke="black" cx="568.48" cy="-198" rx="75.41" ry="18"/>
<text text-anchor="middle" x="568.48" y="-193.32" font-family="Times,serif" font-size="14.00">match series</text>
</a>
</g>
</g>
<!-- suitesparse&#45;&gt;match&#45;series -->
<g id="edge8" class="edge">
<title>suitesparse&#45;&gt;match&#45;series</title>
<path fill="none" stroke="black" d="M607.13,-252.05C601.12,-243.8 593.76,-233.7 587.08,-224.54"/>
<polygon fill="black" stroke="black" points="589.43,-222.81 580.71,-216.79 583.77,-226.93 589.43,-222.81"/>
</g>
<!-- colmap -->
<g id="node9" class="node">
<title>colmap</title>
<g id="a_node9"><a xlink:href="https://github.com/conda-forge/colmap-feedstock" xlink:title="colmap">
<ellipse fill="#fde725" stroke="black" cx="746.48" cy="-126" rx="47" ry="18"/>
<text text-anchor="middle" x="746.48" y="-121.33" font-family="Times,serif" font-size="14.00">colmap</text>
</a>
</g>
</g>
<!-- suitesparse&#45;&gt;colmap -->
<g id="edge9" class="edge">
<title>suitesparse&#45;&gt;colmap</title>
<path fill="none" stroke="black" d="M643.2,-252.62C656.45,-242.84 672.79,-229.69 685.48,-216 703.4,-196.67 720.05,-171.7 731.41,-153.13"/>
<polygon fill="black" stroke="black" points="734.86,-155.19 737,-144.81 728.85,-151.59 734.86,-155.19"/>
</g>
<!-- gtsam -->
<g id="node10" class="node">
<title>gtsam</title>
<g id="a_node10"><a xlink:href="https://github.com/conda-forge/gtsam-feedstock" xlink:title="gtsam">
<ellipse fill="#fde725" stroke="black" cx="821.48" cy="-54" rx="42.26" ry="18"/>
<text text-anchor="middle" x="821.48" y="-49.33" font-family="Times,serif" font-size="14.00">gtsam</text>
</a>
</g>
</g>
<!-- suitesparse&#45;&gt;gtsam -->
<g id="edge10" class="edge">
<title>suitesparse&#45;&gt;gtsam</title>
<path fill="none" stroke="black" d="M658.21,-254C701.13,-235.21 768.72,-198.67 802.48,-144 813.77,-125.72 818.42,-101.74 820.31,-83.28"/>
<polygon fill="black" stroke="black" points="823.87,-83.58 821.17,-73.33 816.9,-83.03 823.87,-83.58"/>
</g>
<!-- pycolmap -->
<g id="node11" class="node">
<title>pycolmap</title>
<g id="a_node11"><a xlink:href="https://github.com/conda-forge/pycolmap-feedstock" xlink:title="pycolmap">
<ellipse fill="#fde725" stroke="black" cx="687.48" cy="-54" rx="59.1" ry="18"/>
<text text-anchor="middle" x="687.48" y="-49.33" font-family="Times,serif" font-size="14.00">pycolmap</text>
</a>
</g>
</g>
<!-- suitesparse&#45;&gt;pycolmap -->
<g id="edge11" class="edge">
<title>suitesparse&#45;&gt;pycolmap</title>
<path fill="none" stroke="black" d="M632.06,-252.14C639.01,-242.11 647.26,-228.86 652.48,-216 670.66,-171.19 680.09,-115.35 684.4,-82.59"/>
<polygon fill="black" stroke="black" points="687.95,-83.37 685.72,-73.02 681.01,-82.51 687.95,-83.37"/>
</g>
<!-- colmap&#45;&gt;pycolmap -->
<g id="edge12" class="edge">
<title>colmap&#45;&gt;pycolmap</title>
<path fill="none" stroke="black" d="M732.49,-108.41C725.4,-99.99 716.63,-89.58 708.72,-80.2"/>
<polygon fill="black" stroke="black" points="710.89,-78.35 701.77,-72.96 705.54,-82.86 710.89,-78.35"/>
</g>
<!-- scorec -->
<g id="node12" class="node">
<title>scorec</title>
<g id="a_node12"><a xlink:href="https://github.com/conda-forge/scorec-feedstock" xlink:title="scorec">
<ellipse fill="#35b779" stroke="black" cx="394.48" cy="-198" rx="43.32" ry="18"/>
<text text-anchor="middle" x="394.48" y="-193.32" font-family="Times,serif" font-size="14.00">scorec</text>
</a>
</g>
</g>
<!-- scorec&#45;&gt;proteus -->
<g id="edge13" class="edge">
<title>scorec&#45;&gt;proteus</title>
<path fill="none" stroke="black" d="M373.48,-182.15C359.72,-172.43 341.5,-159.54 326.14,-148.68"/>
<polygon fill="black" stroke="black" points="328.66,-145.47 318.47,-142.55 324.62,-151.18 328.66,-145.47"/>
</g>
<!-- superlu_dist -->
<g id="node13" class="node">
<title>superlu_dist</title>
<g id="a_node13"><a xlink:href="https://github.com/conda-forge/superlu_dist-feedstock" xlink:title="superlu_dist">
<ellipse fill="#35b779" stroke="black" cx="308.48" cy="-270" rx="72.78" ry="18"/>
<text text-anchor="middle" x="308.48" y="-265.32" font-family="Times,serif" font-size="14.00">superlu_dist</text>
</a>
</g>
</g>
<!-- superlu_dist&#45;&gt;petsc -->
<g id="edge14" class="edge">
<title>superlu_dist&#45;&gt;petsc</title>
<path fill="none" stroke="black" d="M305.26,-251.7C303.86,-244.15 302.18,-235.12 300.62,-226.68"/>
<polygon fill="black" stroke="black" points="303.92,-226.3 298.65,-217.1 297.04,-227.58 303.92,-226.3"/>
</g>
<!-- superlu_dist&#45;&gt;proteus -->
<g id="edge15" class="edge">
<title>superlu_dist&#45;&gt;proteus</title>
<path fill="none" stroke="black" d="M281.47,-252.89C268.95,-243.8 255.33,-231.2 248.48,-216 241.9,-201.41 242.8,-194.96 248.48,-180 252.64,-169.02 260.24,-158.86 268.13,-150.43"/>
<polygon fill="black" stroke="black" points="270.06,-153.45 274.68,-143.91 265.12,-148.49 270.06,-153.45"/>
</g>
<!-- kahip -->
<g id="node15" class="node">
<title>kahip</title>
<g id="a_node15"><a xlink:href="https://github.com/conda-forge/kahip-feedstock" xlink:title="kahip">
<ellipse fill="#35b779" stroke="black" cx="922.48" cy="-90" rx="38.58" ry="18"/>
<text text-anchor="middle" x="922.48" y="-85.33" font-family="Times,serif" font-size="14.00">kahip</text>
</a>
</g>
</g>
<!-- mfem&#45;&gt;kahip -->
<!-- dgl -->
<g id="node16" class="node">
<title>dgl</title>
<g id="a_node16"><a xlink:href="https://github.com/conda-forge/dgl-feedstock" xlink:title="dgl">
<ellipse fill="#35b779" stroke="black" cx="922.48" cy="-18" rx="27.01" ry="18"/>
<text text-anchor="middle" x="922.48" y="-13.32" font-family="Times,serif" font-size="14.00">dgl</text>
</a>
</g>
</g>
<!-- kahip&#45;&gt;dgl -->
<!-- spral -->
<g id="node17" class="node">
<title>spral</title>
<g id="a_node17"><a xlink:href="https://github.com/conda-forge/spral-feedstock" xlink:title="spral">
<ellipse fill="#35b779" stroke="black" cx="36.48" cy="-270" rx="36.48" ry="18"/>
<text text-anchor="middle" x="36.48" y="-265.32" font-family="Times,serif" font-size="14.00">spral</text>
</a>
</g>
</g>
<!-- spral&#45;&gt;ipopt -->
<g id="edge19" class="edge">
<title>spral&#45;&gt;ipopt</title>
<path fill="none" stroke="black" d="M45.72,-252.41C50.28,-244.22 55.9,-234.14 61.02,-224.95"/>
<polygon fill="black" stroke="black" points="64.49,-226.91 66.3,-216.47 58.38,-223.5 64.49,-226.91"/>
</g>
</g>
</svg>
