<?xml version="1.0" encoding="UTF-8" standalone="no"?>
<!DOCTYPE svg PUBLIC "-//W3C//DTD SVG 1.1//EN"
 "http://www.w3.org/Graphics/SVG/1.1/DTD/svg11.dtd">
<!-- Generated by graphviz version 8.1.0 (20230707.2238)
 -->
<!-- Pages: 1 -->
<svg width="1063pt" height="260pt"
 viewBox="0.00 0.00 1062.63 260.00" xmlns="http://www.w3.org/2000/svg" xmlns:xlink="http://www.w3.org/1999/xlink">
<g id="graph0" class="graph" transform="scale(1 1) rotate(0) translate(4 256)">
<polygon fill="white" stroke="none" points="-4,4 -4,-256 1058.63,-256 1058.63,4 -4,4"/>
<!-- ipopt -->
<g id="node1" class="node">
<title>ipopt</title>
<g id="a_node1"><a xlink:href="https://github.com/conda-forge/ipopt-feedstock" xlink:title="ipopt">
<ellipse fill="#fde725" stroke="black" cx="101.74" cy="-162" rx="37" ry="18"/>
<text text-anchor="middle" x="101.74" y="-157.32" font-family="Times,serif" font-size="14.00">ipopt</text>
</a>
</g>
</g>
<!-- moab -->
<g id="node2" class="node">
<title>moab</title>
<g id="a_node2"><a xlink:href="https://github.com/conda-forge/moab-feedstock/pull/91" xlink:title="moab ✓">
<ellipse fill="#31688e" stroke="black" cx="999.74" cy="-198" rx="46.47" ry="18"/>
<text text-anchor="middle" x="999.74" y="-193.32" font-family="Times,serif" font-size="14.00" fill="white">moab ✓</text>
</a>
</g>
</g>
<!-- mfem -->
<g id="node3" class="node">
<title>mfem</title>
<g id="a_node3"><a xlink:href="https://github.com/conda-forge/mfem-feedstock/pull/11" xlink:title="mfem ❎">
<ellipse fill="#31688e" stroke="black" cx="999.74" cy="-126" rx="54.89" ry="18"/>
<text text-anchor="middle" x="999.74" y="-121.33" font-family="Times,serif" font-size="14.00" fill="white">mfem ❎</text>
</a>
</g>
</g>
<!-- moab&#45;&gt;mfem -->
<!-- kahip -->
<g id="node14" class="node">
<title>kahip</title>
<g id="a_node14"><a xlink:href="https://github.com/conda-forge/kahip-feedstock/pull/16" xlink:title="kahip ✓">
<ellipse fill="#31688e" stroke="black" cx="999.74" cy="-54" rx="46.47" ry="18"/>
<text text-anchor="middle" x="999.74" y="-49.33" font-family="Times,serif" font-size="14.00" fill="white">kahip ✓</text>
</a>
</g>
</g>
<!-- mfem&#45;&gt;kahip -->
<!-- mumps -->
<g id="node4" class="node">
<title>mumps</title>
<g id="a_node4"><a xlink:href="https://github.com/conda-forge/mumps-feedstock/pull/89" xlink:title="mumps ❎">
<ellipse fill="#31688e" stroke="black" cx="184.74" cy="-234" rx="63.31" ry="18"/>
<text text-anchor="middle" x="184.74" y="-229.32" font-family="Times,serif" font-size="14.00" fill="white">mumps ❎</text>
</a>
</g>
</g>
<!-- mumps&#45;&gt;ipopt -->
<g id="edge2" class="edge">
<title>mumps&#45;&gt;ipopt</title>
<path fill="none" stroke="black" d="M165.07,-216.41C153.96,-207.04 139.93,-195.21 127.9,-185.07"/>
<polygon fill="black" stroke="black" points="130.47,-181.81 120.57,-178.04 125.95,-187.16 130.47,-181.81"/>
</g>
<!-- petsc -->
<g id="node5" class="node">
<title>petsc</title>
<g id="a_node5"><a xlink:href="https://github.com/conda-forge/petsc-feedstock" xlink:title="petsc">
<ellipse fill="#fde725" stroke="black" cx="336.74" cy="-162" rx="38.06" ry="18"/>
<text text-anchor="middle" x="336.74" y="-157.32" font-family="Times,serif" font-size="14.00">petsc</text>
</a>
</g>
</g>
<!-- mumps&#45;&gt;petsc -->
<g id="edge3" class="edge">
<title>mumps&#45;&gt;petsc</title>
<path fill="none" stroke="black" d="M216.97,-218.15C241.33,-206.94 274.78,-191.53 300.14,-179.85"/>
<polygon fill="black" stroke="black" points="301.5,-182.62 309.12,-175.26 298.57,-176.26 301.5,-182.62"/>
</g>
<!-- proteus -->
<g id="node6" class="node">
<title>proteus</title>
<g id="a_node6"><a xlink:href="https://github.com/conda-forge/proteus-feedstock" xlink:title="proteus">
<ellipse fill="#fde725" stroke="black" cx="336.74" cy="-90" rx="49.63" ry="18"/>
<text text-anchor="middle" x="336.74" y="-85.33" font-family="Times,serif" font-size="14.00">proteus</text>
</a>
</g>
</g>
<!-- mumps&#45;&gt;proteus -->
<g id="edge4" class="edge">
<title>mumps&#45;&gt;proteus</title>
<path fill="none" stroke="black" d="M202.47,-216.43C229.5,-191.18 281.1,-142.97 311.87,-114.23"/>
<polygon fill="black" stroke="black" points="313.66,-117.41 318.58,-108.03 308.88,-112.3 313.66,-117.41"/>
</g>
<!-- petsc&#45;&gt;proteus -->
<g id="edge5" class="edge">
<title>petsc&#45;&gt;proteus</title>
<path fill="none" stroke="black" d="M336.74,-143.7C336.74,-136.24 336.74,-127.32 336.74,-118.97"/>
<polygon fill="black" stroke="black" points="340.24,-119.1 336.74,-109.1 333.24,-119.1 340.24,-119.1"/>
</g>
<!-- suitesparse -->
<g id="node7" class="node">
<title>suitesparse</title>
<g id="a_node7"><a xlink:href="https://github.com/conda-forge/suitesparse-feedstock/pull/83" xlink:title="suitesparse ✓">
<ellipse fill="#31688e" stroke="black" cx="692.74" cy="-234" rx="76.99" ry="18"/>
<text text-anchor="middle" x="692.74" y="-229.32" font-family="Times,serif" font-size="14.00" fill="white">suitesparse ✓</text>
</a>
</g>
</g>
<!-- suitesparse&#45;&gt;petsc -->
<g id="edge6" class="edge">
<title>suitesparse&#45;&gt;petsc</title>
<path fill="none" stroke="black" d="M625.4,-224.95C562.3,-216.59 465.69,-201.67 383.74,-180 381.09,-179.3 378.39,-178.52 375.68,-177.68"/>
<polygon fill="black" stroke="black" points="376.91,-174.07 366.31,-174.25 374.71,-180.71 376.91,-174.07"/>
</g>
<!-- suitesparse&#45;&gt;proteus -->
<g id="edge7" class="edge">
<title>suitesparse&#45;&gt;proteus</title>
<path fill="none" stroke="black" d="M645.63,-219.47C618.68,-210.54 584.93,-197.29 557.74,-180 538.1,-167.52 539.92,-155.56 519.74,-144 480.29,-121.41 430.45,-107.8 392.75,-100.04"/>
<polygon fill="black" stroke="black" points="393.45,-96.41 382.97,-97.91 392.1,-103.28 393.45,-96.41"/>
</g>
<!-- match&#45;series -->
<g id="node8" class="node">
<title>match&#45;series</title>
<g id="a_node8"><a xlink:href="https://github.com/conda-forge/match-series-feedstock" xlink:title="match series">
<ellipse fill="#fde725" stroke="black" cx="641.74" cy="-162" rx="75.41" ry="18"/>
<text text-anchor="middle" x="641.74" y="-157.32" font-family="Times,serif" font-size="14.00">match series</text>
</a>
</g>
</g>
<!-- suitesparse&#45;&gt;match&#45;series -->
<g id="edge8" class="edge">
<title>suitesparse&#45;&gt;match&#45;series</title>
<path fill="none" stroke="black" d="M680.39,-216.05C674.38,-207.8 667.02,-197.7 660.34,-188.54"/>
<polygon fill="black" stroke="black" points="662.69,-186.81 653.97,-180.79 657.03,-190.93 662.69,-186.81"/>
</g>
<!-- colmap -->
<g id="node9" class="node">
<title>colmap</title>
<g id="a_node9"><a xlink:href="https://github.com/conda-forge/colmap-feedstock" xlink:title="colmap">
<ellipse fill="#fde725" stroke="black" cx="819.74" cy="-90" rx="47" ry="18"/>
<text text-anchor="middle" x="819.74" y="-85.33" font-family="Times,serif" font-size="14.00">colmap</text>
</a>
</g>
</g>
<!-- suitesparse&#45;&gt;colmap -->
<g id="edge9" class="edge">
<title>suitesparse&#45;&gt;colmap</title>
<path fill="none" stroke="black" d="M716.46,-216.62C729.71,-206.84 746.05,-193.69 758.74,-180 776.65,-160.67 793.3,-135.7 804.67,-117.13"/>
<polygon fill="black" stroke="black" points="808.12,-119.19 810.26,-108.81 802.11,-115.59 808.12,-119.19"/>
</g>
<!-- gtsam -->
<g id="node10" class="node">
<title>gtsam</title>
<g id="a_node10"><a xlink:href="https://github.com/conda-forge/gtsam-feedstock" xlink:title="gtsam">
<ellipse fill="#fde725" stroke="black" cx="894.74" cy="-18" rx="42.26" ry="18"/>
<text text-anchor="middle" x="894.74" y="-13.32" font-family="Times,serif" font-size="14.00">gtsam</text>
</a>
</g>
</g>
<!-- suitesparse&#45;&gt;gtsam -->
<g id="edge10" class="edge">
<title>suitesparse&#45;&gt;gtsam</title>
<path fill="none" stroke="black" d="M731.47,-218C774.39,-199.21 841.98,-162.67 875.74,-108 887.02,-89.72 891.68,-65.74 893.57,-47.28"/>
<polygon fill="black" stroke="black" points="897.13,-47.58 894.43,-37.33 890.16,-47.03 897.13,-47.58"/>
</g>
<!-- pycolmap -->
<g id="node11" class="node">
<title>pycolmap</title>
<g id="a_node11"><a xlink:href="https://github.com/conda-forge/pycolmap-feedstock" xlink:title="pycolmap">
<ellipse fill="#fde725" stroke="black" cx="760.74" cy="-18" rx="59.1" ry="18"/>
<text text-anchor="middle" x="760.74" y="-13.32" font-family="Times,serif" font-size="14.00">pycolmap</text>
</a>
</g>
</g>
<!-- suitesparse&#45;&gt;pycolmap -->
<g id="edge11" class="edge">
<title>suitesparse&#45;&gt;pycolmap</title>
<path fill="none" stroke="black" d="M705.32,-216.14C712.27,-206.11 720.52,-192.86 725.74,-180 743.92,-135.19 753.35,-79.35 757.66,-46.59"/>
<polygon fill="black" stroke="black" points="761.21,-47.37 758.98,-37.02 754.27,-46.51 761.21,-47.37"/>
</g>
<!-- colmap&#45;&gt;pycolmap -->
<g id="edge12" class="edge">
<title>colmap&#45;&gt;pycolmap</title>
<path fill="none" stroke="black" d="M805.75,-72.41C798.66,-63.99 789.89,-53.58 781.98,-44.2"/>
<polygon fill="black" stroke="black" points="784.15,-42.35 775.03,-36.96 778.8,-46.86 784.15,-42.35"/>
</g>
<!-- scorec -->
<g id="node12" class="node">
<title>scorec</title>
<g id="a_node12"><a xlink:href="https://github.com/conda-forge/scorec-feedstock/pull/11" xlink:title="scorec ❎">
<ellipse fill="#31688e" stroke="black" cx="451.74" cy="-162" rx="58.57" ry="18"/>
<text text-anchor="middle" x="451.74" y="-157.32" font-family="Times,serif" font-size="14.00" fill="white">scorec ❎</text>
</a>
</g>
</g>
<!-- scorec&#45;&gt;proteus -->
<g id="edge13" class="edge">
<title>scorec&#45;&gt;proteus</title>
<path fill="none" stroke="black" d="M426.21,-145.46C409.76,-135.45 388.18,-122.32 370.34,-111.46"/>
<polygon fill="black" stroke="black" points="372.76,-108.22 362.4,-106.01 369.12,-114.2 372.76,-108.22"/>
</g>
<!-- superlu_dist -->
<g id="node13" class="node">
<title>superlu_dist</title>
<g id="a_node13"><a xlink:href="https://github.com/conda-forge/superlu_dist-feedstock/pull/44" xlink:title="superlu_dist ❎">
<ellipse fill="#31688e" stroke="black" cx="353.74" cy="-234" rx="88.04" ry="18"/>
<text text-anchor="middle" x="353.74" y="-229.32" font-family="Times,serif" font-size="14.00" fill="white">superlu_dist ❎</text>
</a>
</g>
</g>
<!-- superlu_dist&#45;&gt;petsc -->
<g id="edge14" class="edge">
<title>superlu_dist&#45;&gt;petsc</title>
<path fill="none" stroke="black" d="M349.53,-215.7C347.7,-208.15 345.51,-199.12 343.46,-190.68"/>
<polygon fill="black" stroke="black" points="346.65,-190 340.89,-181.1 339.85,-191.65 346.65,-190"/>
</g>
<!-- superlu_dist&#45;&gt;proteus -->
<g id="edge15" class="edge">
<title>superlu_dist&#45;&gt;proteus</title>
<path fill="none" stroke="black" d="M323.97,-216.6C310.9,-207.66 296.92,-195.27 289.74,-180 282.93,-165.52 284.06,-158.96 289.74,-144 293.9,-133.02 301.5,-122.86 309.39,-114.43"/>
<polygon fill="black" stroke="black" points="311.32,-117.45 315.94,-107.91 306.38,-112.49 311.32,-117.45"/>
</g>
<!-- spral -->
<g id="node15" class="node">
<title>spral</title>
<g id="a_node15"><a xlink:href="https://github.com/conda-forge/spral-feedstock/pull/5" xlink:title="spral ❎">
<ellipse fill="#31688e" stroke="black" cx="51.74" cy="-234" rx="51.74" ry="18"/>
<text text-anchor="middle" x="51.74" y="-229.32" font-family="Times,serif" font-size="14.00" fill="white">spral ❎</text>
</a>
</g>
</g>
<!-- spral&#45;&gt;ipopt -->
<g id="edge17" class="edge">
<title>spral&#45;&gt;ipopt</title>
<path fill="none" stroke="black" d="M63.84,-216.05C69.82,-207.68 77.16,-197.4 83.78,-188.13"/>
<polygon fill="black" stroke="black" points="87.12,-190.48 90.09,-180.31 81.43,-186.41 87.12,-190.48"/>
</g>
</g>
</svg>
