<?xml version="1.0" encoding="UTF-8" standalone="no"?>
<!DOCTYPE svg PUBLIC "-//W3C//DTD SVG 1.1//EN"
 "http://www.w3.org/Graphics/SVG/1.1/DTD/svg11.dtd">
<!-- Generated by graphviz version 8.1.0 (20230707.2238)
 -->
<!-- Pages: 1 -->
<svg width="1056pt" height="260pt"
 viewBox="0.00 0.00 1056.47 260.00" xmlns="http://www.w3.org/2000/svg" xmlns:xlink="http://www.w3.org/1999/xlink">
<g id="graph0" class="graph" transform="scale(1 1) rotate(0) translate(4 256)">
<polygon fill="white" stroke="none" points="-4,4 -4,-256 1052.47,-256 1052.47,4 -4,4"/>
<!-- ipopt -->
<g id="node1" class="node">
<title>ipopt</title>
<g id="a_node1"><a xlink:href="https://github.com/conda-forge/ipopt-feedstock" xlink:title="ipopt">
<ellipse fill="#fde725" stroke="black" cx="91.37" cy="-162" rx="37" ry="18"/>
<text text-anchor="middle" x="91.37" y="-157.32" font-family="Times,serif" font-size="14.00">ipopt</text>
</a>
</g>
</g>
<!-- moab -->
<g id="node2" class="node">
<title>moab</title>
<g id="a_node2"><a xlink:href="https://github.com/conda-forge/moab-feedstock/pull/91" xlink:title="moab ✓">
<ellipse fill="#31688e" stroke="black" cx="989.37" cy="-234" rx="46.47" ry="18"/>
<text text-anchor="middle" x="989.37" y="-229.32" font-family="Times,serif" font-size="14.00" fill="white">moab ✓</text>
</a>
</g>
</g>
<!-- pymetis -->
<g id="node3" class="node">
<title>pymetis</title>
<g id="a_node3"><a xlink:href="https://github.com/conda-forge/pymetis-feedstock/pull/16" xlink:title="pymetis ✓">
<ellipse fill="#31688e" stroke="black" cx="989.37" cy="-162" rx="59.1" ry="18"/>
<text text-anchor="middle" x="989.37" y="-157.32" font-family="Times,serif" font-size="14.00" fill="white">pymetis ✓</text>
</a>
</g>
</g>
<!-- moab&#45;&gt;pymetis -->
<!-- mfem -->
<g id="node14" class="node">
<title>mfem</title>
<g id="a_node14"><a xlink:href="https://github.com/conda-forge/mfem-feedstock/pull/11" xlink:title="mfem ❎">
<ellipse fill="#31688e" stroke="black" cx="989.37" cy="-90" rx="54.89" ry="18"/>
<text text-anchor="middle" x="989.37" y="-85.33" font-family="Times,serif" font-size="14.00" fill="white">mfem ❎</text>
</a>
</g>
</g>
<!-- pymetis&#45;&gt;mfem -->
<!-- mumps -->
<g id="node4" class="node">
<title>mumps</title>
<g id="a_node4"><a xlink:href="https://github.com/conda-forge/mumps-feedstock/pull/89" xlink:title="mumps ❎">
<ellipse fill="#31688e" stroke="black" cx="170.37" cy="-234" rx="63.31" ry="18"/>
<text text-anchor="middle" x="170.37" y="-229.32" font-family="Times,serif" font-size="14.00" fill="white">mumps ❎</text>
</a>
</g>
</g>
<!-- mumps&#45;&gt;ipopt -->
<g id="edge2" class="edge">
<title>mumps&#45;&gt;ipopt</title>
<path fill="none" stroke="black" d="M151.65,-216.41C141.15,-207.11 127.91,-195.38 116.51,-185.28"/>
<polygon fill="black" stroke="black" points="119.41,-183.29 109.61,-179.27 114.77,-188.53 119.41,-183.29"/>
</g>
<!-- petsc -->
<g id="node5" class="node">
<title>petsc</title>
<g id="a_node5"><a xlink:href="https://github.com/conda-forge/petsc-feedstock" xlink:title="petsc">
<ellipse fill="#fde725" stroke="black" cx="322.37" cy="-162" rx="38.06" ry="18"/>
<text text-anchor="middle" x="322.37" y="-157.32" font-family="Times,serif" font-size="14.00">petsc</text>
</a>
</g>
</g>
<!-- mumps&#45;&gt;petsc -->
<g id="edge3" class="edge">
<title>mumps&#45;&gt;petsc</title>
<path fill="none" stroke="black" d="M202.61,-218.15C226.96,-206.94 260.42,-191.53 285.78,-179.85"/>
<polygon fill="black" stroke="black" points="287.13,-182.62 294.75,-175.26 284.21,-176.26 287.13,-182.62"/>
</g>
<!-- proteus -->
<g id="node6" class="node">
<title>proteus</title>
<g id="a_node6"><a xlink:href="https://github.com/conda-forge/proteus-feedstock" xlink:title="proteus">
<ellipse fill="#fde725" stroke="black" cx="322.37" cy="-90" rx="49.63" ry="18"/>
<text text-anchor="middle" x="322.37" y="-85.33" font-family="Times,serif" font-size="14.00">proteus</text>
</a>
</g>
</g>
<!-- mumps&#45;&gt;proteus -->
<g id="edge4" class="edge">
<title>mumps&#45;&gt;proteus</title>
<path fill="none" stroke="black" d="M188.1,-216.43C215.13,-191.18 266.74,-142.97 297.5,-114.23"/>
<polygon fill="black" stroke="black" points="299.3,-117.41 304.22,-108.03 294.52,-112.3 299.3,-117.41"/>
</g>
<!-- petsc&#45;&gt;proteus -->
<g id="edge5" class="edge">
<title>petsc&#45;&gt;proteus</title>
<path fill="none" stroke="black" d="M322.37,-143.7C322.37,-136.24 322.37,-127.32 322.37,-118.97"/>
<polygon fill="black" stroke="black" points="325.87,-119.1 322.37,-109.1 318.87,-119.1 325.87,-119.1"/>
</g>
<!-- suitesparse -->
<g id="node7" class="node">
<title>suitesparse</title>
<g id="a_node7"><a xlink:href="https://github.com/conda-forge/suitesparse-feedstock/pull/83" xlink:title="suitesparse ✓">
<ellipse fill="#31688e" stroke="black" cx="678.37" cy="-234" rx="76.99" ry="18"/>
<text text-anchor="middle" x="678.37" y="-229.32" font-family="Times,serif" font-size="14.00" fill="white">suitesparse ✓</text>
</a>
</g>
</g>
<!-- suitesparse&#45;&gt;petsc -->
<g id="edge6" class="edge">
<title>suitesparse&#45;&gt;petsc</title>
<path fill="none" stroke="black" d="M611.03,-224.95C547.94,-216.59 451.33,-201.67 369.37,-180 366.73,-179.3 364.02,-178.52 361.31,-177.68"/>
<polygon fill="black" stroke="black" points="362.54,-174.07 351.95,-174.25 360.34,-180.71 362.54,-174.07"/>
</g>
<!-- suitesparse&#45;&gt;proteus -->
<g id="edge7" class="edge">
<title>suitesparse&#45;&gt;proteus</title>
<path fill="none" stroke="black" d="M631.27,-219.47C604.32,-210.54 570.57,-197.29 543.37,-180 523.74,-167.52 525.56,-155.56 505.37,-144 465.92,-121.41 416.09,-107.8 378.39,-100.04"/>
<polygon fill="black" stroke="black" points="379.09,-96.41 368.6,-97.91 377.73,-103.28 379.09,-96.41"/>
</g>
<!-- match&#45;series -->
<g id="node8" class="node">
<title>match&#45;series</title>
<g id="a_node8"><a xlink:href="https://github.com/conda-forge/match-series-feedstock" xlink:title="match series">
<ellipse fill="#fde725" stroke="black" cx="627.37" cy="-162" rx="75.41" ry="18"/>
<text text-anchor="middle" x="627.37" y="-157.32" font-family="Times,serif" font-size="14.00">match series</text>
</a>
</g>
</g>
<!-- suitesparse&#45;&gt;match&#45;series -->
<g id="edge8" class="edge">
<title>suitesparse&#45;&gt;match&#45;series</title>
<path fill="none" stroke="black" d="M666.02,-216.05C660.01,-207.8 652.65,-197.7 645.98,-188.54"/>
<polygon fill="black" stroke="black" points="648.32,-186.81 639.6,-180.79 642.66,-190.93 648.32,-186.81"/>
</g>
<!-- colmap -->
<g id="node9" class="node">
<title>colmap</title>
<g id="a_node9"><a xlink:href="https://github.com/conda-forge/colmap-feedstock" xlink:title="colmap">
<ellipse fill="#fde725" stroke="black" cx="805.37" cy="-90" rx="47" ry="18"/>
<text text-anchor="middle" x="805.37" y="-85.33" font-family="Times,serif" font-size="14.00">colmap</text>
</a>
</g>
</g>
<!-- suitesparse&#45;&gt;colmap -->
<g id="edge9" class="edge">
<title>suitesparse&#45;&gt;colmap</title>
<path fill="none" stroke="black" d="M702.09,-216.62C715.34,-206.84 731.68,-193.69 744.37,-180 762.29,-160.67 778.94,-135.7 790.3,-117.13"/>
<polygon fill="black" stroke="black" points="793.75,-119.19 795.89,-108.81 787.75,-115.59 793.75,-119.19"/>
</g>
<!-- gtsam -->
<g id="node10" class="node">
<title>gtsam</title>
<g id="a_node10"><a xlink:href="https://github.com/conda-forge/gtsam-feedstock" xlink:title="gtsam">
<ellipse fill="#fde725" stroke="black" cx="880.37" cy="-18" rx="42.26" ry="18"/>
<text text-anchor="middle" x="880.37" y="-13.32" font-family="Times,serif" font-size="14.00">gtsam</text>
</a>
</g>
</g>
<!-- suitesparse&#45;&gt;gtsam -->
<g id="edge10" class="edge">
<title>suitesparse&#45;&gt;gtsam</title>
<path fill="none" stroke="black" d="M717.1,-218C760.02,-199.21 827.61,-162.67 861.37,-108 872.66,-89.72 877.32,-65.74 879.2,-47.28"/>
<polygon fill="black" stroke="black" points="882.77,-47.58 880.07,-37.33 875.79,-47.03 882.77,-47.58"/>
</g>
<!-- pycolmap -->
<g id="node11" class="node">
<title>pycolmap</title>
<g id="a_node11"><a xlink:href="https://github.com/conda-forge/pycolmap-feedstock" xlink:title="pycolmap">
<ellipse fill="#fde725" stroke="black" cx="746.37" cy="-18" rx="59.1" ry="18"/>
<text text-anchor="middle" x="746.37" y="-13.32" font-family="Times,serif" font-size="14.00">pycolmap</text>
</a>
</g>
</g>
<!-- suitesparse&#45;&gt;pycolmap -->
<g id="edge11" class="edge">
<title>suitesparse&#45;&gt;pycolmap</title>
<path fill="none" stroke="black" d="M690.96,-216.14C697.9,-206.11 706.15,-192.86 711.37,-180 729.55,-135.19 738.98,-79.35 743.29,-46.59"/>
<polygon fill="black" stroke="black" points="746.85,-47.37 744.61,-37.02 739.9,-46.51 746.85,-47.37"/>
</g>
<!-- colmap&#45;&gt;pycolmap -->
<g id="edge12" class="edge">
<title>colmap&#45;&gt;pycolmap</title>
<path fill="none" stroke="black" d="M791.39,-72.41C784.29,-63.99 775.52,-53.58 767.61,-44.2"/>
<polygon fill="black" stroke="black" points="769.78,-42.35 760.66,-36.96 764.43,-46.86 769.78,-42.35"/>
</g>
<!-- scorec -->
<g id="node12" class="node">
<title>scorec</title>
<g id="a_node12"><a xlink:href="https://github.com/conda-forge/scorec-feedstock/pull/11" xlink:title="scorec ❎">
<ellipse fill="#31688e" stroke="black" cx="437.37" cy="-162" rx="58.57" ry="18"/>
<text text-anchor="middle" x="437.37" y="-157.32" font-family="Times,serif" font-size="14.00" fill="white">scorec ❎</text>
</a>
</g>
</g>
<!-- scorec&#45;&gt;proteus -->
<g id="edge13" class="edge">
<title>scorec&#45;&gt;proteus</title>
<path fill="none" stroke="black" d="M411.85,-145.46C395.39,-135.45 373.82,-122.32 355.97,-111.46"/>
<polygon fill="black" stroke="black" points="358.39,-108.22 348.03,-106.01 354.75,-114.2 358.39,-108.22"/>
</g>
<!-- superlu_dist -->
<g id="node13" class="node">
<title>superlu_dist</title>
<g id="a_node13"><a xlink:href="https://github.com/conda-forge/superlu_dist-feedstock/pull/44" xlink:title="superlu_dist ❎">
<ellipse fill="#31688e" stroke="black" cx="339.37" cy="-234" rx="88.04" ry="18"/>
<text text-anchor="middle" x="339.37" y="-229.32" font-family="Times,serif" font-size="14.00" fill="white">superlu_dist ❎</text>
</a>
</g>
</g>
<!-- superlu_dist&#45;&gt;petsc -->
<g id="edge14" class="edge">
<title>superlu_dist&#45;&gt;petsc</title>
<path fill="none" stroke="black" d="M335.17,-215.7C333.34,-208.15 331.14,-199.12 329.09,-190.68"/>
<polygon fill="black" stroke="black" points="332.29,-190 326.52,-181.1 325.48,-191.65 332.29,-190"/>
</g>
<!-- superlu_dist&#45;&gt;proteus -->
<g id="edge15" class="edge">
<title>superlu_dist&#45;&gt;proteus</title>
<path fill="none" stroke="black" d="M309.61,-216.6C296.54,-207.66 282.55,-195.27 275.37,-180 268.56,-165.52 269.69,-158.96 275.37,-144 279.54,-133.02 287.13,-122.86 295.02,-114.43"/>
<polygon fill="black" stroke="black" points="296.96,-117.45 301.57,-107.91 292.02,-112.49 296.96,-117.45"/>
</g>
<!-- kahip -->
<g id="node15" class="node">
<title>kahip</title>
<g id="a_node15"><a xlink:href="https://github.com/conda-forge/kahip-feedstock/pull/16" xlink:title="kahip ✓">
<ellipse fill="#31688e" stroke="black" cx="989.37" cy="-18" rx="46.47" ry="18"/>
<text text-anchor="middle" x="989.37" y="-13.32" font-family="Times,serif" font-size="14.00" fill="white">kahip ✓</text>
</a>
</g>
</g>
<!-- mfem&#45;&gt;kahip -->
<!-- spral -->
<g id="node16" class="node">
<title>spral</title>
<g id="a_node16"><a xlink:href="https://github.com/conda-forge/spral-feedstock/pull/5" xlink:title="spral ✓">
<ellipse fill="#31688e" stroke="black" cx="44.37" cy="-234" rx="44.37" ry="18"/>
<text text-anchor="middle" x="44.37" y="-229.32" font-family="Times,serif" font-size="14.00" fill="white">spral ✓</text>
</a>
</g>
</g>
<!-- spral&#45;&gt;ipopt -->
<g id="edge18" class="edge">
<title>spral&#45;&gt;ipopt</title>
<path fill="none" stroke="black" d="M55.51,-216.41C61.13,-208.04 68.06,-197.71 74.34,-188.37"/>
<polygon fill="black" stroke="black" points="77.64,-190.72 80.31,-180.47 71.83,-186.82 77.64,-190.72"/>
</g>
</g>
</svg>
