<?xml version="1.0" encoding="UTF-8" standalone="no"?>
<!DOCTYPE svg PUBLIC "-//W3C//DTD SVG 1.1//EN"
 "http://www.w3.org/Graphics/SVG/1.1/DTD/svg11.dtd">
<!-- Generated by graphviz version 9.0.0 (20231125.0833)
 -->
<!-- Pages: 1 -->
<svg width="278pt" height="116pt"
 viewBox="0.00 0.00 277.56 116.00" xmlns="http://www.w3.org/2000/svg" xmlns:xlink="http://www.w3.org/1999/xlink">
<g id="graph0" class="graph" transform="scale(1 1) rotate(0) translate(4 112)">
<polygon fill="white" stroke="none" points="-4,4 -4,-112 273.56,-112 273.56,4 -4,4"/>
<!-- gnutls -->
<g id="node1" class="node">
<title>gnutls</title>
<g id="a_node1"><a xlink:href="https://github.com/conda-forge/gnutls-feedstock/pull/40" xlink:title="gnutls ✓">
<ellipse fill="#31688e" stroke="black" cx="63.21" cy="-90" rx="50.68" ry="18"/>
<text text-anchor="middle" x="63.21" y="-85.33" font-family="Times,serif" font-size="14.00" fill="white">gnutls ✓</text>
</a>
</g>
</g>
<!-- lighttpd -->
<g id="node2" class="node">
<title>lighttpd</title>
<g id="a_node2"><a xlink:href="https://github.com/conda-forge/lighttpd-feedstock" xlink:title="lighttpd">
<ellipse fill="#fde725" stroke="black" cx="51.21" cy="-18" rx="51.21" ry="18"/>
<text text-anchor="middle" x="51.21" y="-13.32" font-family="Times,serif" font-size="14.00">lighttpd</text>
</a>
</g>
</g>
<!-- gnutls&#45;&gt;lighttpd -->
<g id="edge1" class="edge">
<title>gnutls&#45;&gt;lighttpd</title>
<path fill="none" stroke="black" d="M60.24,-71.7C58.98,-64.32 57.47,-55.52 56.05,-47.25"/>
<polygon fill="black" stroke="black" points="59.54,-46.86 54.4,-37.6 52.64,-48.04 59.54,-46.86"/>
</g>
<!-- openconnect -->
<g id="node3" class="node">
<title>openconnect</title>
<g id="a_node3"><a xlink:href="https://github.com/conda-forge/openconnect-feedstock" xlink:title="openconnect">
<ellipse fill="#fde725" stroke="black" cx="195.21" cy="-18" rx="74.36" ry="18"/>
<text text-anchor="middle" x="195.21" y="-13.32" font-family="Times,serif" font-size="14.00">openconnect</text>
</a>
</g>
</g>
<!-- gnutls&#45;&gt;openconnect -->
<g id="edge2" class="edge">
<title>gnutls&#45;&gt;openconnect</title>
<path fill="none" stroke="black" d="M90.56,-74.5C109.38,-64.52 134.67,-51.1 155.68,-39.96"/>
<polygon fill="black" stroke="black" points="157.07,-43.19 164.26,-35.41 153.79,-37 157.07,-43.19"/>
</g>
<!-- stoken -->
<g id="node4" class="node">
<title>stoken</title>
<g id="a_node4"><a xlink:href="https://github.com/conda-forge/stoken-feedstock/pull/13" xlink:title="stoken ✓">
<ellipse fill="#31688e" stroke="black" cx="195.21" cy="-90" rx="52.26" ry="18"/>
<text text-anchor="middle" x="195.21" y="-85.33" font-family="Times,serif" font-size="14.00" fill="white">stoken ✓</text>
</a>
</g>
</g>
<!-- stoken&#45;&gt;openconnect -->
<g id="edge3" class="edge">
<title>stoken&#45;&gt;openconnect</title>
<path fill="none" stroke="black" d="M195.21,-71.7C195.21,-64.41 195.21,-55.73 195.21,-47.54"/>
<polygon fill="black" stroke="black" points="198.71,-47.62 195.21,-37.62 191.71,-47.62 198.71,-47.62"/>
</g>
</g>
</svg>
