<?xml version="1.0" encoding="UTF-8" standalone="no"?>
<!DOCTYPE svg PUBLIC "-//W3C//DTD SVG 1.1//EN"
 "http://www.w3.org/Graphics/SVG/1.1/DTD/svg11.dtd">
<!-- Generated by graphviz version 8.1.0 (20230707.2238)
 -->
<!-- Pages: 1 -->
<svg width="492pt" height="232pt"
 viewBox="0.00 0.00 492.50 232.00" xmlns="http://www.w3.org/2000/svg" xmlns:xlink="http://www.w3.org/1999/xlink">
<g id="graph0" class="graph" transform="scale(1 1) rotate(0) translate(4 228)">
<polygon fill="white" stroke="none" points="-4,4 -4,-228 488.5,-228 488.5,4 -4,4"/>
<!-- freeimage -->
<g id="node1" class="node">
<title>freeimage</title>
<g id="a_node1"><a xlink:href="https://github.com/conda-forge/freeimage-feedstock/pull/41" xlink:title="freeimage ✓">
<ellipse fill="#31688e" stroke="black" cx="227.88" cy="-170" rx="69.62" ry="18"/>
<text text-anchor="middle" x="227.88" y="-165.33" font-family="Times,serif" font-size="14.00" fill="white">freeimage ✓</text>
</a>
</g>
</g>
<!-- ogre -->
<g id="node4" class="node">
<title>ogre</title>
<g id="a_node4"><a xlink:href="https://github.com/conda-forge/ogre-feedstock" xlink:title="ogre">
<ellipse fill="#fde725" stroke="black" cx="227.88" cy="-98" rx="33.85" ry="18"/>
<text text-anchor="middle" x="227.88" y="-93.33" font-family="Times,serif" font-size="14.00">ogre</text>
</a>
</g>
</g>
<!-- freeimage&#45;&gt;ogre -->
<g id="edge1" class="edge">
<title>freeimage&#45;&gt;ogre</title>
<path fill="none" stroke="black" d="M227.88,-151.7C227.88,-144.24 227.88,-135.32 227.88,-126.97"/>
<polygon fill="black" stroke="black" points="231.38,-127.1 227.88,-117.1 224.38,-127.1 231.38,-127.1"/>
</g>
<!-- vigra -->
<g id="node2" class="node">
<title>vigra</title>
<g id="a_node2"><a xlink:href="https://github.com/conda-forge/vigra-feedstock/pull/117" xlink:title="vigra ❎">
<ellipse fill="#31688e" stroke="black" cx="93.88" cy="-206" rx="52.26" ry="18"/>
<text text-anchor="middle" x="93.88" y="-201.32" font-family="Times,serif" font-size="14.00" fill="white">vigra ❎</text>
</a>
</g>
</g>
<!-- enblend -->
<g id="node5" class="node">
<title>enblend</title>
<g id="a_node5"><a xlink:href="https://github.com/conda-forge/enblend-feedstock" xlink:title="enblend">
<ellipse fill="#fde725" stroke="black" cx="54.88" cy="-134" rx="51.21" ry="18"/>
<text text-anchor="middle" x="54.88" y="-129.32" font-family="Times,serif" font-size="14.00">enblend</text>
</a>
</g>
</g>
<!-- vigra&#45;&gt;enblend -->
<g id="edge2" class="edge">
<title>vigra&#45;&gt;enblend</title>
<path fill="none" stroke="black" d="M84.44,-188.05C79.94,-179.97 74.45,-170.12 69.43,-161.11"/>
<polygon fill="black" stroke="black" points="72.16,-159.82 64.24,-152.79 66.05,-163.23 72.16,-159.82"/>
</g>
<!-- hugin -->
<g id="node6" class="node">
<title>hugin</title>
<g id="a_node6"><a xlink:href="https://github.com/conda-forge/hugin-feedstock" xlink:title="hugin">
<ellipse fill="#fde725" stroke="black" cx="93.88" cy="-62" rx="39.63" ry="18"/>
<text text-anchor="middle" x="93.88" y="-57.33" font-family="Times,serif" font-size="14.00">hugin</text>
</a>
</g>
</g>
<!-- vigra&#45;&gt;hugin -->
<g id="edge3" class="edge">
<title>vigra&#45;&gt;hugin</title>
<path fill="none" stroke="black" d="M102.6,-187.83C107.26,-177.69 112.51,-164.44 114.88,-152 117.88,-136.28 117.88,-131.72 114.88,-116 113.19,-107.11 110.02,-97.82 106.66,-89.53"/>
<polygon fill="black" stroke="black" points="109.58,-88.47 102.38,-80.69 103.16,-91.26 109.58,-88.47"/>
</g>
<!-- openimageio -->
<g id="node3" class="node">
<title>openimageio</title>
<g id="a_node3"><a xlink:href="https://github.com/conda-forge/openimageio-feedstock" xlink:title="openimageio">
<ellipse fill="#35b779" stroke="black" cx="74.88" cy="-18" rx="74.88" ry="18"/>
<text text-anchor="middle" x="74.88" y="-13.32" font-family="Times,serif" font-size="14.00">openimageio</text>
</a>
</g>
</g>
<!-- enblend&#45;&gt;hugin -->
<g id="edge4" class="edge">
<title>enblend&#45;&gt;hugin</title>
<path fill="none" stroke="black" d="M64.32,-116.05C68.83,-107.97 74.32,-98.12 79.34,-89.11"/>
<polygon fill="black" stroke="black" points="82.72,-91.23 84.53,-80.79 76.6,-87.82 82.72,-91.23"/>
</g>
<!-- openexr&#45;python -->
<g id="node7" class="node">
<title>openexr&#45;python</title>
<g id="a_node7"><a xlink:href="https://github.com/conda-forge/openexr-python-feedstock" xlink:title="openexr python">
<ellipse fill="#35b779" stroke="black" cx="394.88" cy="-134" rx="89.61" ry="18"/>
<text text-anchor="middle" x="394.88" y="-129.32" font-family="Times,serif" font-size="14.00">openexr python</text>
</a>
</g>
</g>
<!-- panda3d -->
<g id="node8" class="node">
<title>panda3d</title>
<g id="a_node8"><a xlink:href="https://github.com/conda-forge/panda3d-feedstock" xlink:title="panda3d">
<ellipse fill="#35b779" stroke="black" cx="394.88" cy="-18" rx="54.36" ry="18"/>
<text text-anchor="middle" x="394.88" y="-13.32" font-family="Times,serif" font-size="14.00">panda3d</text>
</a>
</g>
</g>
<!-- libjxl&#45;split -->
<g id="node9" class="node">
<title>libjxl&#45;split</title>
<g id="a_node9"><a xlink:href="https://github.com/conda-forge/libjxl-split-feedstock" xlink:title="libjxl split">
<ellipse fill="#35b779" stroke="black" cx="227.88" cy="-18" rx="61.2" ry="18"/>
<text text-anchor="middle" x="227.88" y="-13.32" font-family="Times,serif" font-size="14.00">libjxl split</text>
</a>
</g>
</g>
</g>
</svg>
