<?xml version="1.0" encoding="UTF-8" standalone="no"?>
<!DOCTYPE svg PUBLIC "-//W3C//DTD SVG 1.1//EN"
 "http://www.w3.org/Graphics/SVG/1.1/DTD/svg11.dtd">
<!-- Generated by graphviz version 2.42.3 (20191010.1750)
 -->
<!-- Title: %3 Pages: 1 -->
<svg width="2741pt" height="548pt"
 viewBox="0.00 0.00 2741.05 548.00" xmlns="http://www.w3.org/2000/svg" xmlns:xlink="http://www.w3.org/1999/xlink">
<g id="graph0" class="graph" transform="scale(1 1) rotate(0) translate(4 544)">
<title>%3</title>
<polygon fill="white" stroke="transparent" points="-4,4 -4,-544 2737.05,-544 2737.05,4 -4,4"/>
<!-- esmf -->
<g id="node1" class="node">
<title>esmf</title>
<g id="a_node1"><a xlink:href="https://github.com/conda-forge/esmf-feedstock" xlink:title="esmf">
<ellipse fill="#fde725" stroke="black" cx="51.05" cy="-198" rx="28.7" ry="18"/>
<text text-anchor="middle" x="51.05" y="-194.3" font-family="Times,serif" font-size="14.00">esmf</text>
</a>
</g>
</g>
<!-- esmpy -->
<g id="node2" class="node">
<title>esmpy</title>
<g id="a_node2"><a xlink:href="https://github.com/conda-forge/esmpy-feedstock" xlink:title="esmpy">
<ellipse fill="#fde725" stroke="black" cx="618.05" cy="-126" rx="34.5" ry="18"/>
<text text-anchor="middle" x="618.05" y="-122.3" font-family="Times,serif" font-size="14.00">esmpy</text>
</a>
</g>
</g>
<!-- esmf&#45;&gt;esmpy -->
<g id="edge1" class="edge">
<title>esmf&#45;&gt;esmpy</title>
<path fill="none" stroke="black" d="M78.78,-193.58C170.32,-182.28 463.35,-146.1 574.63,-132.36"/>
<polygon fill="black" stroke="black" points="575.32,-135.8 584.82,-131.1 574.46,-128.85 575.32,-135.8"/>
</g>
<!-- h5py -->
<g id="node3" class="node">
<title>h5py</title>
<g id="a_node3"><a xlink:href="https://github.com/conda-forge/h5py-feedstock" xlink:title="h5py">
<ellipse fill="#fde725" stroke="black" cx="1389.05" cy="-342" rx="28.7" ry="18"/>
<text text-anchor="middle" x="1389.05" y="-338.3" font-family="Times,serif" font-size="14.00">h5py</text>
</a>
</g>
</g>
<!-- lalinference -->
<g id="node4" class="node">
<title>lalinference</title>
<g id="a_node4"><a xlink:href="https://github.com/conda-forge/lalinference-feedstock" xlink:title="lalinference">
<ellipse fill="#fde725" stroke="black" cx="1432.05" cy="-270" rx="52" ry="18"/>
<text text-anchor="middle" x="1432.05" y="-266.3" font-family="Times,serif" font-size="14.00">lalinference</text>
</a>
</g>
</g>
<!-- h5py&#45;&gt;lalinference -->
<g id="edge2" class="edge">
<title>h5py&#45;&gt;lalinference</title>
<path fill="none" stroke="black" d="M1399.02,-324.76C1404.14,-316.44 1410.49,-306.1 1416.25,-296.73"/>
<polygon fill="black" stroke="black" points="1419.28,-298.48 1421.53,-288.12 1413.31,-294.81 1419.28,-298.48"/>
</g>
<!-- fluidfft -->
<g id="node5" class="node">
<title>fluidfft</title>
<g id="a_node5"><a xlink:href="https://github.com/conda-forge/fluidfft-feedstock" xlink:title="fluidfft">
<ellipse fill="#fde725" stroke="black" cx="2114.05" cy="-270" rx="36" ry="18"/>
<text text-anchor="middle" x="2114.05" y="-266.3" font-family="Times,serif" font-size="14.00">fluidfft</text>
</a>
</g>
</g>
<!-- h5py&#45;&gt;fluidfft -->
<g id="edge3" class="edge">
<title>h5py&#45;&gt;fluidfft</title>
<path fill="none" stroke="black" d="M1416.61,-336.22C1439.65,-332.39 1473.4,-327.15 1503.05,-324 1753.71,-297.39 1822.65,-341.13 2069.05,-288 2072.06,-287.35 2075.13,-286.54 2078.18,-285.62"/>
<polygon fill="black" stroke="black" points="2079.42,-288.9 2087.8,-282.41 2077.2,-282.26 2079.42,-288.9"/>
</g>
<!-- lfpy -->
<g id="node6" class="node">
<title>lfpy</title>
<g id="a_node6"><a xlink:href="https://github.com/conda-forge/lfpy-feedstock" xlink:title="lfpy">
<ellipse fill="#fde725" stroke="black" cx="1335.05" cy="-270" rx="27" ry="18"/>
<text text-anchor="middle" x="1335.05" y="-266.3" font-family="Times,serif" font-size="14.00">lfpy</text>
</a>
</g>
</g>
<!-- h5py&#45;&gt;lfpy -->
<g id="edge4" class="edge">
<title>h5py&#45;&gt;lfpy</title>
<path fill="none" stroke="black" d="M1377.07,-325.46C1370.07,-316.4 1361.11,-304.79 1353.27,-294.61"/>
<polygon fill="black" stroke="black" points="1355.88,-292.27 1347,-286.49 1350.34,-296.55 1355.88,-292.27"/>
</g>
<!-- cosmosis&#45;standalone -->
<g id="node7" class="node">
<title>cosmosis&#45;standalone</title>
<g id="a_node7"><a xlink:href="https://github.com/conda-forge/cosmosis-standalone-feedstock" xlink:title="cosmosis standalone">
<ellipse fill="#fde725" stroke="black" cx="1585.05" cy="-270" rx="83.39" ry="18"/>
<text text-anchor="middle" x="1585.05" y="-266.3" font-family="Times,serif" font-size="14.00">cosmosis standalone</text>
</a>
</g>
</g>
<!-- h5py&#45;&gt;cosmosis&#45;standalone -->
<g id="edge5" class="edge">
<title>h5py&#45;&gt;cosmosis&#45;standalone</title>
<path fill="none" stroke="black" d="M1412.64,-331.46C1418.92,-328.98 1425.73,-326.34 1432.05,-324 1465.09,-311.75 1502.45,-298.8 1531.98,-288.76"/>
<polygon fill="black" stroke="black" points="1533.33,-292 1541.68,-285.47 1531.08,-285.37 1533.33,-292"/>
</g>
<!-- hdf5 -->
<g id="node8" class="node">
<title>hdf5</title>
<g id="a_node8"><a xlink:href="https://github.com/conda-forge/hdf5-feedstock" xlink:title="hdf5">
<ellipse fill="#ff8c00" stroke="black" cx="886.05" cy="-414" rx="27" ry="18"/>
<text text-anchor="middle" x="886.05" y="-410.3" font-family="Times,serif" font-size="14.00">hdf5</text>
</a>
</g>
</g>
<!-- hdf5&#45;&gt;esmf -->
<g id="edge6" class="edge">
<title>hdf5&#45;&gt;esmf</title>
<path fill="none" stroke="black" d="M858.94,-412.65C771.45,-411.1 488.93,-402.87 260.05,-360 148.5,-339.11 83.05,-378.86 15.05,-288 0,-267.89 15.14,-240.62 30.15,-221.58"/>
<polygon fill="black" stroke="black" points="32.99,-223.64 36.7,-213.72 27.61,-219.16 32.99,-223.64"/>
</g>
<!-- hdf5&#45;&gt;h5py -->
<g id="edge7" class="edge">
<title>hdf5&#45;&gt;h5py</title>
<path fill="none" stroke="black" d="M912.39,-409.34C995.76,-397.73 1254.16,-361.77 1351.47,-348.23"/>
<polygon fill="black" stroke="black" points="1352.02,-351.69 1361.45,-346.84 1351.06,-344.75 1352.02,-351.69"/>
</g>
<!-- hdf5&#45;&gt;lalinference -->
<g id="edge8" class="edge">
<title>hdf5&#45;&gt;lalinference</title>
<path fill="none" stroke="black" d="M912.59,-409.78C964.92,-403.09 1084.85,-386.12 1183.05,-360 1257.71,-340.14 1341.81,-307.94 1390.68,-288.19"/>
<polygon fill="black" stroke="black" points="1392.02,-291.43 1399.97,-284.42 1389.39,-284.94 1392.02,-291.43"/>
</g>
<!-- libnetcdf -->
<g id="node9" class="node">
<title>libnetcdf</title>
<g id="a_node9"><a xlink:href="https://github.com/conda-forge/libnetcdf-feedstock" xlink:title="libnetcdf">
<ellipse fill="#fde725" stroke="black" cx="449.05" cy="-342" rx="42.49" ry="18"/>
<text text-anchor="middle" x="449.05" y="-338.3" font-family="Times,serif" font-size="14.00">libnetcdf</text>
</a>
</g>
</g>
<!-- hdf5&#45;&gt;libnetcdf -->
<g id="edge9" class="edge">
<title>hdf5&#45;&gt;libnetcdf</title>
<path fill="none" stroke="black" d="M859.26,-410.25C797.84,-403.7 642.27,-385.81 514.05,-360 507.29,-358.64 500.18,-357 493.25,-355.28"/>
<polygon fill="black" stroke="black" points="493.84,-351.82 483.29,-352.74 492.11,-358.6 493.84,-351.82"/>
</g>
<!-- moab -->
<g id="node10" class="node">
<title>moab</title>
<g id="a_node10"><a xlink:href="https://github.com/conda-forge/moab-feedstock" xlink:title="moab">
<ellipse fill="#fde725" stroke="black" cx="571.05" cy="-270" rx="30.59" ry="18"/>
<text text-anchor="middle" x="571.05" y="-266.3" font-family="Times,serif" font-size="14.00">moab</text>
</a>
</g>
</g>
<!-- hdf5&#45;&gt;moab -->
<g id="edge10" class="edge">
<title>hdf5&#45;&gt;moab</title>
<path fill="none" stroke="black" d="M859.32,-410.73C798.94,-405.13 654.32,-388.99 616.05,-360 595.95,-344.78 584.16,-318.08 577.72,-297.88"/>
<polygon fill="black" stroke="black" points="581,-296.62 574.83,-288.01 574.29,-298.59 581,-296.62"/>
</g>
<!-- netcdf&#45;cxx4 -->
<g id="node11" class="node">
<title>netcdf&#45;cxx4</title>
<g id="a_node11"><a xlink:href="https://github.com/conda-forge/netcdf-cxx4-feedstock" xlink:title="netcdf cxx4">
<ellipse fill="#fde725" stroke="black" cx="748.05" cy="-270" rx="52" ry="18"/>
<text text-anchor="middle" x="748.05" y="-266.3" font-family="Times,serif" font-size="14.00">netcdf cxx4</text>
</a>
</g>
</g>
<!-- hdf5&#45;&gt;netcdf&#45;cxx4 -->
<g id="edge11" class="edge">
<title>hdf5&#45;&gt;netcdf&#45;cxx4</title>
<path fill="none" stroke="black" d="M872.06,-398.6C848.28,-374.14 799.78,-324.22 770.98,-294.59"/>
<polygon fill="black" stroke="black" points="773.24,-291.9 763.76,-287.17 768.22,-296.78 773.24,-291.9"/>
</g>
<!-- netcdf&#45;fortran -->
<g id="node12" class="node">
<title>netcdf&#45;fortran</title>
<g id="a_node12"><a xlink:href="https://github.com/conda-forge/netcdf-fortran-feedstock" xlink:title="netcdf fortran">
<ellipse fill="#fde725" stroke="black" cx="94.05" cy="-270" rx="59.29" ry="18"/>
<text text-anchor="middle" x="94.05" y="-266.3" font-family="Times,serif" font-size="14.00">netcdf fortran</text>
</a>
</g>
</g>
<!-- hdf5&#45;&gt;netcdf&#45;fortran -->
<g id="edge12" class="edge">
<title>hdf5&#45;&gt;netcdf&#45;fortran</title>
<path fill="none" stroke="black" d="M859.08,-411.75C784.89,-407.93 571.69,-394.56 398.05,-360 305.26,-341.53 199.88,-307.69 140.75,-287.48"/>
<polygon fill="black" stroke="black" points="141.56,-284.05 130.96,-284.11 139.28,-290.67 141.56,-284.05"/>
</g>
<!-- netcdf4 -->
<g id="node13" class="node">
<title>netcdf4</title>
<g id="a_node13"><a xlink:href="https://github.com/conda-forge/netcdf4-feedstock" xlink:title="netcdf4">
<ellipse fill="#fde725" stroke="black" cx="855.05" cy="-270" rx="37.09" ry="18"/>
<text text-anchor="middle" x="855.05" y="-266.3" font-family="Times,serif" font-size="14.00">netcdf4</text>
</a>
</g>
</g>
<!-- hdf5&#45;&gt;netcdf4 -->
<g id="edge13" class="edge">
<title>hdf5&#45;&gt;netcdf4</title>
<path fill="none" stroke="black" d="M881.21,-395.89C878.36,-385.54 874.79,-372.06 872.05,-360 867.37,-339.42 862.93,-315.97 859.76,-298.31"/>
<polygon fill="black" stroke="black" points="863.15,-297.37 857.96,-288.14 856.25,-298.59 863.15,-297.37"/>
</g>
<!-- pytrilinos -->
<g id="node14" class="node">
<title>pytrilinos</title>
<g id="a_node14"><a xlink:href="https://github.com/conda-forge/pytrilinos-feedstock" xlink:title="pytrilinos">
<ellipse fill="#fde725" stroke="black" cx="1012.05" cy="-198" rx="44.39" ry="18"/>
<text text-anchor="middle" x="1012.05" y="-194.3" font-family="Times,serif" font-size="14.00">pytrilinos</text>
</a>
</g>
</g>
<!-- hdf5&#45;&gt;pytrilinos -->
<g id="edge14" class="edge">
<title>hdf5&#45;&gt;pytrilinos</title>
<path fill="none" stroke="black" d="M911.57,-407.57C936.39,-400.86 973.05,-386.88 992.05,-360 1020.15,-320.26 1019.43,-260.81 1015.99,-226.37"/>
<polygon fill="black" stroke="black" points="1019.43,-225.66 1014.81,-216.12 1012.48,-226.46 1019.43,-225.66"/>
</g>
<!-- siesta -->
<g id="node15" class="node">
<title>siesta</title>
<g id="a_node15"><a xlink:href="https://github.com/conda-forge/siesta-feedstock" xlink:title="siesta">
<ellipse fill="#fde725" stroke="black" cx="347.05" cy="-198" rx="30.59" ry="18"/>
<text text-anchor="middle" x="347.05" y="-194.3" font-family="Times,serif" font-size="14.00">siesta</text>
</a>
</g>
</g>
<!-- hdf5&#45;&gt;siesta -->
<g id="edge15" class="edge">
<title>hdf5&#45;&gt;siesta</title>
<path fill="none" stroke="black" d="M859.69,-409.25C824.18,-403.28 760.02,-389.16 713.05,-360 656.96,-325.17 668.8,-284 611.05,-252 539.37,-212.27 442.05,-202.1 387.83,-199.64"/>
<polygon fill="black" stroke="black" points="387.71,-196.13 377.58,-199.24 387.44,-203.12 387.71,-196.13"/>
</g>
<!-- petsc -->
<g id="node16" class="node">
<title>petsc</title>
<g id="a_node16"><a xlink:href="https://github.com/conda-forge/petsc-feedstock" xlink:title="petsc">
<ellipse fill="#fde725" stroke="black" cx="1145.05" cy="-342" rx="28.7" ry="18"/>
<text text-anchor="middle" x="1145.05" y="-338.3" font-family="Times,serif" font-size="14.00">petsc</text>
</a>
</g>
</g>
<!-- hdf5&#45;&gt;petsc -->
<g id="edge16" class="edge">
<title>hdf5&#45;&gt;petsc</title>
<path fill="none" stroke="black" d="M910.88,-406.29C957.04,-393.81 1056.16,-367.02 1109.44,-352.62"/>
<polygon fill="black" stroke="black" points="1110.4,-355.99 1119.14,-350 1108.58,-349.23 1110.4,-355.99"/>
</g>
<!-- trilinos -->
<g id="node17" class="node">
<title>trilinos</title>
<g id="a_node17"><a xlink:href="https://github.com/conda-forge/trilinos-feedstock" xlink:title="trilinos">
<ellipse fill="#fde725" stroke="black" cx="708.05" cy="-198" rx="36" ry="18"/>
<text text-anchor="middle" x="708.05" y="-194.3" font-family="Times,serif" font-size="14.00">trilinos</text>
</a>
</g>
</g>
<!-- hdf5&#45;&gt;trilinos -->
<g id="edge17" class="edge">
<title>hdf5&#45;&gt;trilinos</title>
<path fill="none" stroke="black" d="M861.59,-406.28C817.13,-392.58 724.21,-356.73 687.05,-288 676.31,-268.14 683.99,-242.88 692.93,-224.35"/>
<polygon fill="black" stroke="black" points="696.11,-225.82 697.63,-215.33 689.9,-222.58 696.11,-225.82"/>
</g>
<!-- openpmd&#45;api -->
<g id="node18" class="node">
<title>openpmd&#45;api</title>
<g id="a_node18"><a xlink:href="https://github.com/conda-forge/openpmd-api-feedstock" xlink:title="openpmd api">
<ellipse fill="#fde725" stroke="black" cx="1743.05" cy="-270" rx="57.39" ry="18"/>
<text text-anchor="middle" x="1743.05" y="-266.3" font-family="Times,serif" font-size="14.00">openpmd api</text>
</a>
</g>
</g>
<!-- hdf5&#45;&gt;openpmd&#45;api -->
<g id="edge18" class="edge">
<title>hdf5&#45;&gt;openpmd&#45;api</title>
<path fill="none" stroke="black" d="M912.55,-410.53C1019.54,-400.53 1414.47,-363.48 1427.05,-360 1463.07,-350.03 1467.61,-335.87 1503.05,-324 1577.93,-298.92 1600.12,-305.85 1677.05,-288 1681.64,-286.94 1686.39,-285.79 1691.15,-284.62"/>
<polygon fill="black" stroke="black" points="1692.02,-288.01 1700.87,-282.19 1690.32,-281.22 1692.02,-288.01"/>
</g>
<!-- adios2 -->
<g id="node19" class="node">
<title>adios2</title>
<g id="a_node19"><a xlink:href="https://github.com/conda-forge/adios2-feedstock" xlink:title="adios2">
<ellipse fill="#fde725" stroke="black" cx="1546.05" cy="-342" rx="34" ry="18"/>
<text text-anchor="middle" x="1546.05" y="-338.3" font-family="Times,serif" font-size="14.00">adios2</text>
</a>
</g>
</g>
<!-- hdf5&#45;&gt;adios2 -->
<g id="edge19" class="edge">
<title>hdf5&#45;&gt;adios2</title>
<path fill="none" stroke="black" d="M912.55,-410.48C948.3,-407.1 1013.97,-400.95 1070.05,-396 1260.21,-379.22 1311.44,-400.19 1498.05,-360 1502.02,-359.14 1506.11,-358.05 1510.15,-356.83"/>
<polygon fill="black" stroke="black" points="1511.59,-360.04 1519.99,-353.59 1509.4,-353.39 1511.59,-360.04"/>
</g>
<!-- dakota -->
<g id="node20" class="node">
<title>dakota</title>
<g id="a_node20"><a xlink:href="https://github.com/conda-forge/dakota-feedstock" xlink:title="dakota">
<ellipse fill="#fde725" stroke="black" cx="949.05" cy="-342" rx="34.5" ry="18"/>
<text text-anchor="middle" x="949.05" y="-338.3" font-family="Times,serif" font-size="14.00">dakota</text>
</a>
</g>
</g>
<!-- hdf5&#45;&gt;dakota -->
<g id="edge20" class="edge">
<title>hdf5&#45;&gt;dakota</title>
<path fill="none" stroke="black" d="M899.41,-398.15C907.7,-388.94 918.53,-376.91 927.96,-366.43"/>
<polygon fill="black" stroke="black" points="930.75,-368.57 934.83,-358.8 925.54,-363.89 930.75,-368.57"/>
</g>
<!-- triqs -->
<g id="node21" class="node">
<title>triqs</title>
<g id="a_node21"><a xlink:href="https://github.com/conda-forge/triqs-feedstock" xlink:title="triqs">
<ellipse fill="#fde725" stroke="black" cx="1982.05" cy="-342" rx="27" ry="18"/>
<text text-anchor="middle" x="1982.05" y="-338.3" font-family="Times,serif" font-size="14.00">triqs</text>
</a>
</g>
</g>
<!-- hdf5&#45;&gt;triqs -->
<g id="edge21" class="edge">
<title>hdf5&#45;&gt;triqs</title>
<path fill="none" stroke="black" d="M912.53,-410.14C948.25,-406.38 1013.88,-399.8 1070.05,-396 1442.43,-370.82 1539.26,-410.54 1909.05,-360 1921.84,-358.25 1935.68,-355.3 1947.84,-352.35"/>
<polygon fill="black" stroke="black" points="1948.75,-355.73 1957.6,-349.89 1947.04,-348.94 1948.75,-355.73"/>
</g>
<!-- netcdf&#45;cxx&#45;legacy -->
<g id="node22" class="node">
<title>netcdf&#45;cxx&#45;legacy</title>
<g id="a_node22"><a xlink:href="https://github.com/conda-forge/netcdf-cxx-legacy-feedstock" xlink:title="netcdf cxx legacy">
<ellipse fill="#fde725" stroke="black" cx="449.05" cy="-270" rx="73.5" ry="18"/>
<text text-anchor="middle" x="449.05" y="-266.3" font-family="Times,serif" font-size="14.00">netcdf cxx legacy</text>
</a>
</g>
</g>
<!-- hdf5&#45;&gt;netcdf&#45;cxx&#45;legacy -->
<g id="edge22" class="edge">
<title>hdf5&#45;&gt;netcdf&#45;cxx&#45;legacy</title>
<path fill="none" stroke="black" d="M858.9,-411.87C804.91,-408.84 681.01,-397.98 585.05,-360 544.33,-343.88 503,-314.6 476.76,-294.03"/>
<polygon fill="black" stroke="black" points="478.8,-291.18 468.79,-287.69 474.44,-296.66 478.8,-291.18"/>
</g>
<!-- conduit -->
<g id="node23" class="node">
<title>conduit</title>
<g id="a_node23"><a xlink:href="https://github.com/conda-forge/conduit-feedstock" xlink:title="conduit">
<ellipse fill="#fde725" stroke="black" cx="947.05" cy="-270" rx="37.09" ry="18"/>
<text text-anchor="middle" x="947.05" y="-266.3" font-family="Times,serif" font-size="14.00">conduit</text>
</a>
</g>
</g>
<!-- hdf5&#45;&gt;conduit -->
<g id="edge23" class="edge">
<title>hdf5&#45;&gt;conduit</title>
<path fill="none" stroke="black" d="M887.37,-395.86C889.32,-377.37 894.01,-347.44 905.05,-324 910.11,-313.27 917.72,-302.75 925.08,-293.95"/>
<polygon fill="black" stroke="black" points="927.73,-296.22 931.68,-286.39 922.47,-291.61 927.73,-296.22"/>
</g>
<!-- triqs_cthyb -->
<g id="node24" class="node">
<title>triqs_cthyb</title>
<g id="a_node24"><a xlink:href="https://github.com/conda-forge/triqs_cthyb-feedstock" xlink:title="triqs_cthyb">
<ellipse fill="#fde725" stroke="black" cx="2010.05" cy="-270" rx="50.09" ry="18"/>
<text text-anchor="middle" x="2010.05" y="-266.3" font-family="Times,serif" font-size="14.00">triqs_cthyb</text>
</a>
</g>
</g>
<!-- hdf5&#45;&gt;triqs_cthyb -->
<g id="edge24" class="edge">
<title>hdf5&#45;&gt;triqs_cthyb</title>
<path fill="none" stroke="black" d="M912.53,-410.17C948.25,-406.44 1013.88,-399.9 1070.05,-396 1241.16,-384.11 1675.55,-405.04 1841.05,-360 1893.11,-345.83 1947.26,-313.72 1979.82,-292.2"/>
<polygon fill="black" stroke="black" points="1982.05,-294.91 1988.41,-286.44 1978.15,-289.1 1982.05,-294.91"/>
</g>
<!-- libnetcdf&#45;&gt;esmf -->
<g id="edge25" class="edge">
<title>libnetcdf&#45;&gt;esmf</title>
<path fill="none" stroke="black" d="M407.25,-338.85C305.43,-333.19 51.06,-316.34 26.05,-288 10.12,-269.95 21.45,-242.49 33.55,-222.85"/>
<polygon fill="black" stroke="black" points="36.51,-224.72 39.08,-214.44 30.66,-220.87 36.51,-224.72"/>
</g>
<!-- libnetcdf&#45;&gt;moab -->
<g id="edge26" class="edge">
<title>libnetcdf&#45;&gt;moab</title>
<path fill="none" stroke="black" d="M473.15,-327.17C492.63,-315.99 520.15,-300.21 541.05,-288.21"/>
<polygon fill="black" stroke="black" points="542.92,-291.18 549.85,-283.16 539.43,-285.11 542.92,-291.18"/>
</g>
<!-- libnetcdf&#45;&gt;netcdf&#45;cxx4 -->
<g id="edge27" class="edge">
<title>libnetcdf&#45;&gt;netcdf&#45;cxx4</title>
<path fill="none" stroke="black" d="M485.12,-332.56C537.68,-320.25 635.63,-297.32 696,-283.18"/>
<polygon fill="black" stroke="black" points="697.15,-286.51 706.09,-280.82 695.55,-279.7 697.15,-286.51"/>
</g>
<!-- libnetcdf&#45;&gt;netcdf&#45;fortran -->
<g id="edge28" class="edge">
<title>libnetcdf&#45;&gt;netcdf&#45;fortran</title>
<path fill="none" stroke="black" d="M410.37,-334.64C355.1,-325.39 250.44,-307.19 162.05,-288 157.32,-286.97 152.42,-285.85 147.51,-284.7"/>
<polygon fill="black" stroke="black" points="148.03,-281.22 137.49,-282.29 146.39,-288.03 148.03,-281.22"/>
</g>
<!-- libnetcdf&#45;&gt;netcdf4 -->
<g id="edge29" class="edge">
<title>libnetcdf&#45;&gt;netcdf4</title>
<path fill="none" stroke="black" d="M490.36,-337.73C557.86,-331.76 695.66,-316.96 809.05,-288 812.01,-287.24 815.04,-286.37 818.06,-285.42"/>
<polygon fill="black" stroke="black" points="819.26,-288.71 827.62,-282.2 817.02,-282.08 819.26,-288.71"/>
</g>
<!-- libnetcdf&#45;&gt;siesta -->
<g id="edge30" class="edge">
<title>libnetcdf&#45;&gt;siesta</title>
<path fill="none" stroke="black" d="M419.36,-329.19C401.24,-320.46 379.11,-306.82 366.05,-288 353.5,-269.9 348.98,-245.12 347.47,-226.3"/>
<polygon fill="black" stroke="black" points="350.96,-226.06 346.9,-216.27 343.98,-226.46 350.96,-226.06"/>
</g>
<!-- libnetcdf&#45;&gt;netcdf&#45;cxx&#45;legacy -->
<g id="edge31" class="edge">
<title>libnetcdf&#45;&gt;netcdf&#45;cxx&#45;legacy</title>
<path fill="none" stroke="black" d="M449.05,-323.7C449.05,-315.98 449.05,-306.71 449.05,-298.11"/>
<polygon fill="black" stroke="black" points="452.55,-298.1 449.05,-288.1 445.55,-298.1 452.55,-298.1"/>
</g>
<!-- tempest&#45;extremes -->
<g id="node25" class="node">
<title>tempest&#45;extremes</title>
<g id="a_node25"><a xlink:href="https://github.com/conda-forge/tempest-extremes-feedstock" xlink:title="tempest extremes">
<ellipse fill="#fde725" stroke="black" cx="245.05" cy="-270" rx="73.5" ry="18"/>
<text text-anchor="middle" x="245.05" y="-266.3" font-family="Times,serif" font-size="14.00">tempest extremes</text>
</a>
</g>
</g>
<!-- libnetcdf&#45;&gt;tempest&#45;extremes -->
<g id="edge32" class="edge">
<title>libnetcdf&#45;&gt;tempest&#45;extremes</title>
<path fill="none" stroke="black" d="M417.18,-330.06C384.67,-318.91 333.75,-301.43 295.71,-288.38"/>
<polygon fill="black" stroke="black" points="296.44,-284.93 285.84,-285 294.17,-291.55 296.44,-284.93"/>
</g>
<!-- netcdf&#45;cxx4&#45;&gt;pytrilinos -->
<g id="edge33" class="edge">
<title>netcdf&#45;cxx4&#45;&gt;pytrilinos</title>
<path fill="none" stroke="black" d="M787.07,-258.02C794.37,-256 801.94,-253.92 809.05,-252 862.82,-237.49 924.77,-221.41 965.95,-210.81"/>
<polygon fill="black" stroke="black" points="966.89,-214.18 975.7,-208.3 965.14,-207.4 966.89,-214.18"/>
</g>
<!-- netcdf&#45;cxx4&#45;&gt;trilinos -->
<g id="edge34" class="edge">
<title>netcdf&#45;cxx4&#45;&gt;trilinos</title>
<path fill="none" stroke="black" d="M738.37,-252.05C733.65,-243.8 727.88,-233.7 722.64,-224.54"/>
<polygon fill="black" stroke="black" points="725.64,-222.73 717.64,-215.79 719.57,-226.21 725.64,-222.73"/>
</g>
<!-- netcdf&#45;fortran&#45;&gt;esmf -->
<g id="edge35" class="edge">
<title>netcdf&#45;fortran&#45;&gt;esmf</title>
<path fill="none" stroke="black" d="M83.64,-252.05C78.44,-243.59 72.05,-233.19 66.31,-223.84"/>
<polygon fill="black" stroke="black" points="69.28,-222 61.07,-215.31 63.32,-225.66 69.28,-222"/>
</g>
<!-- netcdf&#45;fortran&#45;&gt;siesta -->
<g id="edge36" class="edge">
<title>netcdf&#45;fortran&#45;&gt;siesta</title>
<path fill="none" stroke="black" d="M136.4,-257.28C184.92,-243.86 263.66,-222.07 309.89,-209.28"/>
<polygon fill="black" stroke="black" points="311.09,-212.58 319.8,-206.54 309.22,-205.83 311.09,-212.58"/>
</g>
<!-- daetk -->
<g id="node26" class="node">
<title>daetk</title>
<g id="a_node26"><a xlink:href="https://github.com/conda-forge/daetk-feedstock" xlink:title="daetk">
<ellipse fill="#fde725" stroke="black" cx="1070.05" cy="-270" rx="30" ry="18"/>
<text text-anchor="middle" x="1070.05" y="-266.3" font-family="Times,serif" font-size="14.00">daetk</text>
</a>
</g>
</g>
<!-- petsc&#45;&gt;daetk -->
<g id="edge37" class="edge">
<title>petsc&#45;&gt;daetk</title>
<path fill="none" stroke="black" d="M1129.51,-326.5C1118.95,-316.64 1104.81,-303.44 1092.96,-292.38"/>
<polygon fill="black" stroke="black" points="1095.27,-289.75 1085.57,-285.49 1090.49,-294.87 1095.27,-289.75"/>
</g>
<!-- petsc4py -->
<g id="node27" class="node">
<title>petsc4py</title>
<g id="a_node27"><a xlink:href="https://github.com/conda-forge/petsc4py-feedstock" xlink:title="petsc4py">
<ellipse fill="#fde725" stroke="black" cx="1293.05" cy="-198" rx="42.49" ry="18"/>
<text text-anchor="middle" x="1293.05" y="-194.3" font-family="Times,serif" font-size="14.00">petsc4py</text>
</a>
</g>
</g>
<!-- petsc&#45;&gt;petsc4py -->
<g id="edge38" class="edge">
<title>petsc&#45;&gt;petsc4py</title>
<path fill="none" stroke="black" d="M1157.98,-325.92C1173.83,-307.73 1201.82,-276.54 1228.05,-252 1239.69,-241.11 1253.25,-229.85 1264.97,-220.52"/>
<polygon fill="black" stroke="black" points="1267.43,-223.04 1273.12,-214.1 1263.1,-217.54 1267.43,-223.04"/>
</g>
<!-- slepc -->
<g id="node28" class="node">
<title>slepc</title>
<g id="a_node28"><a xlink:href="https://github.com/conda-forge/slepc-feedstock" xlink:title="slepc">
<ellipse fill="#fde725" stroke="black" cx="1382.05" cy="-198" rx="28.7" ry="18"/>
<text text-anchor="middle" x="1382.05" y="-194.3" font-family="Times,serif" font-size="14.00">slepc</text>
</a>
</g>
</g>
<!-- petsc&#45;&gt;slepc -->
<g id="edge39" class="edge">
<title>petsc&#45;&gt;slepc</title>
<path fill="none" stroke="black" d="M1165.26,-328.89C1207.32,-303.69 1304.42,-245.51 1353.11,-216.34"/>
<polygon fill="black" stroke="black" points="1355.12,-219.22 1361.89,-211.08 1351.52,-213.21 1355.12,-219.22"/>
</g>
<!-- slepc4py -->
<g id="node29" class="node">
<title>slepc4py</title>
<g id="a_node29"><a xlink:href="https://github.com/conda-forge/slepc4py-feedstock" xlink:title="slepc4py">
<ellipse fill="#fde725" stroke="black" cx="1293.05" cy="-126" rx="42.49" ry="18"/>
<text text-anchor="middle" x="1293.05" y="-122.3" font-family="Times,serif" font-size="14.00">slepc4py</text>
</a>
</g>
</g>
<!-- petsc&#45;&gt;slepc4py -->
<g id="edge40" class="edge">
<title>petsc&#45;&gt;slepc4py</title>
<path fill="none" stroke="black" d="M1152.17,-324.47C1160.26,-306.24 1174.26,-276.29 1189.05,-252 1209.71,-218.06 1216.44,-210.38 1242.05,-180 1250.67,-169.78 1260.76,-159.05 1269.69,-149.95"/>
<polygon fill="black" stroke="black" points="1272.3,-152.29 1276.86,-142.72 1267.33,-147.36 1272.3,-152.29"/>
</g>
<!-- warpx -->
<g id="node30" class="node">
<title>warpx</title>
<g id="a_node30"><a xlink:href="https://github.com/conda-forge/warpx-feedstock" xlink:title="warpx">
<ellipse fill="#fde725" stroke="black" cx="1743.05" cy="-198" rx="32.5" ry="18"/>
<text text-anchor="middle" x="1743.05" y="-194.3" font-family="Times,serif" font-size="14.00">warpx</text>
</a>
</g>
</g>
<!-- openpmd&#45;api&#45;&gt;warpx -->
<g id="edge41" class="edge">
<title>openpmd&#45;api&#45;&gt;warpx</title>
<path fill="none" stroke="black" d="M1743.05,-251.7C1743.05,-243.98 1743.05,-234.71 1743.05,-226.11"/>
<polygon fill="black" stroke="black" points="1746.55,-226.1 1743.05,-216.1 1739.55,-226.1 1746.55,-226.1"/>
</g>
<!-- adios2&#45;&gt;openpmd&#45;api -->
<g id="edge42" class="edge">
<title>adios2&#45;&gt;openpmd&#45;api</title>
<path fill="none" stroke="black" d="M1572.52,-330.6C1578.28,-328.38 1584.36,-326.08 1590.05,-324 1625.42,-311.05 1665.68,-297.13 1696.02,-286.81"/>
<polygon fill="black" stroke="black" points="1697.16,-290.12 1705.51,-283.59 1694.91,-283.49 1697.16,-290.12"/>
</g>
<!-- triqs&#45;&gt;triqs_cthyb -->
<g id="edge43" class="edge">
<title>triqs&#45;&gt;triqs_cthyb</title>
<path fill="none" stroke="black" d="M1988.69,-324.41C1991.92,-316.34 1995.88,-306.43 1999.51,-297.35"/>
<polygon fill="black" stroke="black" points="2002.8,-298.54 2003.27,-287.96 1996.3,-295.94 2002.8,-298.54"/>
</g>
<!-- triqs_tprf -->
<g id="node31" class="node">
<title>triqs_tprf</title>
<g id="a_node31"><a xlink:href="https://github.com/conda-forge/triqs_tprf-feedstock" xlink:title="triqs_tprf">
<ellipse fill="#fde725" stroke="black" cx="2211.05" cy="-270" rx="43.59" ry="18"/>
<text text-anchor="middle" x="2211.05" y="-266.3" font-family="Times,serif" font-size="14.00">triqs_tprf</text>
</a>
</g>
</g>
<!-- triqs&#45;&gt;triqs_tprf -->
<g id="edge44" class="edge">
<title>triqs&#45;&gt;triqs_tprf</title>
<path fill="none" stroke="black" d="M2006.45,-333.91C2040.64,-323.91 2104.71,-305.01 2159.05,-288 2162.13,-287.04 2165.31,-286.03 2168.51,-285"/>
<polygon fill="black" stroke="black" points="2169.64,-288.32 2178.08,-281.92 2167.49,-281.66 2169.64,-288.32"/>
</g>
<!-- triqs_dft_tools -->
<g id="node32" class="node">
<title>triqs_dft_tools</title>
<g id="a_node32"><a xlink:href="https://github.com/conda-forge/triqs_dft_tools-feedstock" xlink:title="triqs_dft_tools">
<ellipse fill="#fde725" stroke="black" cx="1880.05" cy="-270" rx="61.99" ry="18"/>
<text text-anchor="middle" x="1880.05" y="-266.3" font-family="Times,serif" font-size="14.00">triqs_dft_tools</text>
</a>
</g>
</g>
<!-- triqs&#45;&gt;triqs_dft_tools -->
<g id="edge45" class="edge">
<title>triqs&#45;&gt;triqs_dft_tools</title>
<path fill="none" stroke="black" d="M1963.81,-328.49C1949.37,-318.57 1928.85,-304.49 1911.73,-292.74"/>
<polygon fill="black" stroke="black" points="1913.37,-289.62 1903.14,-286.85 1909.4,-295.39 1913.37,-289.62"/>
</g>
<!-- petsc4py&#45;&gt;slepc4py -->
<g id="edge69" class="edge">
<title>petsc4py&#45;&gt;slepc4py</title>
<path fill="none" stroke="black" d="M1293.05,-179.7C1293.05,-171.98 1293.05,-162.71 1293.05,-154.11"/>
<polygon fill="black" stroke="black" points="1296.55,-154.1 1293.05,-144.1 1289.55,-154.1 1296.55,-154.1"/>
</g>
<!-- slepc&#45;&gt;slepc4py -->
<g id="edge70" class="edge">
<title>slepc&#45;&gt;slepc4py</title>
<path fill="none" stroke="black" d="M1364.89,-183.5C1352.31,-173.61 1334.96,-159.96 1320.47,-148.56"/>
<polygon fill="black" stroke="black" points="1322.34,-145.59 1312.32,-142.16 1318.02,-151.09 1322.34,-145.59"/>
</g>
<!-- mpi4py -->
<g id="node33" class="node">
<title>mpi4py</title>
<g id="a_node33"><a xlink:href="https://github.com/conda-forge/mpi4py-feedstock" xlink:title="mpi4py">
<ellipse fill="#000000" stroke="black" cx="1446.05" cy="-414" rx="38.5" ry="18"/>
<text text-anchor="middle" x="1446.05" y="-410.3" font-family="Times,serif" font-size="14.00" fill="white">mpi4py</text>
</a>
</g>
</g>
<!-- mpi4py&#45;&gt;esmpy -->
<g id="edge46" class="edge">
<title>mpi4py&#45;&gt;esmpy</title>
<path fill="none" stroke="black" d="M1418.06,-401.3C1394.82,-391.25 1361.15,-375.9 1333.05,-360 1208.18,-289.33 1199.6,-229.84 1065.05,-180 991.78,-152.86 760.25,-135.78 662.39,-129.61"/>
<polygon fill="black" stroke="black" points="662.44,-126.1 652.24,-128.97 662.01,-133.09 662.44,-126.1"/>
</g>
<!-- mpi4py&#45;&gt;h5py -->
<g id="edge47" class="edge">
<title>mpi4py&#45;&gt;h5py</title>
<path fill="none" stroke="black" d="M1432.83,-396.76C1425.53,-387.8 1416.34,-376.51 1408.26,-366.59"/>
<polygon fill="black" stroke="black" points="1410.84,-364.21 1401.81,-358.67 1405.41,-368.63 1410.84,-364.21"/>
</g>
<!-- mpi4py&#45;&gt;fluidfft -->
<g id="edge48" class="edge">
<title>mpi4py&#45;&gt;fluidfft</title>
<path fill="none" stroke="black" d="M1484.75,-412.63C1597.24,-411.05 1922.21,-402.8 2018.05,-360 2050.11,-345.68 2078.44,-316.23 2095.86,-295.13"/>
<polygon fill="black" stroke="black" points="2098.68,-297.21 2102.21,-287.22 2093.22,-292.83 2098.68,-297.21"/>
</g>
<!-- mpi4py&#45;&gt;lfpy -->
<g id="edge49" class="edge">
<title>mpi4py&#45;&gt;lfpy</title>
<path fill="none" stroke="black" d="M1414.67,-403.47C1393.38,-395.35 1366.41,-381.52 1351.05,-360 1338.26,-342.08 1334.68,-317.08 1334.06,-298.14"/>
<polygon fill="black" stroke="black" points="1337.56,-298.03 1333.98,-288.05 1330.56,-298.08 1337.56,-298.03"/>
</g>
<!-- mpi4py&#45;&gt;cosmosis&#45;standalone -->
<g id="edge50" class="edge">
<title>mpi4py&#45;&gt;cosmosis&#45;standalone</title>
<path fill="none" stroke="black" d="M1454.09,-396.08C1463.76,-376.97 1481.43,-345.71 1503.05,-324 1515.33,-311.67 1530.96,-300.7 1545.26,-291.99"/>
<polygon fill="black" stroke="black" points="1547.12,-294.96 1553.96,-286.86 1543.57,-288.92 1547.12,-294.96"/>
</g>
<!-- mpi4py&#45;&gt;netcdf4 -->
<g id="edge51" class="edge">
<title>mpi4py&#45;&gt;netcdf4</title>
<path fill="none" stroke="black" d="M1408.74,-409.4C1345.83,-402.84 1214.96,-387.05 1107.05,-360 1012.98,-336.41 992.32,-320.81 901.05,-288 898.51,-287.09 895.89,-286.14 893.26,-285.18"/>
<polygon fill="black" stroke="black" points="894.32,-281.84 883.73,-281.69 891.92,-288.42 894.32,-281.84"/>
</g>
<!-- mpi4py&#45;&gt;pytrilinos -->
<g id="edge52" class="edge">
<title>mpi4py&#45;&gt;pytrilinos</title>
<path fill="none" stroke="black" d="M1411.03,-406.14C1373.86,-398.07 1313.99,-382.83 1266.05,-360 1189.59,-323.58 1181.2,-296.36 1109.05,-252 1089.05,-239.7 1066.02,-227.06 1047.41,-217.2"/>
<polygon fill="black" stroke="black" points="1048.88,-214.02 1038.4,-212.46 1045.62,-220.21 1048.88,-214.02"/>
</g>
<!-- mpi4py&#45;&gt;openpmd&#45;api -->
<g id="edge53" class="edge">
<title>mpi4py&#45;&gt;openpmd&#45;api</title>
<path fill="none" stroke="black" d="M1484.73,-413.64C1536.06,-412.6 1627.38,-404.04 1689.05,-360 1710.66,-344.57 1725.26,-317.52 1733.77,-297.29"/>
<polygon fill="black" stroke="black" points="1737.03,-298.57 1737.46,-287.98 1730.52,-295.98 1737.03,-298.57"/>
</g>
<!-- mpi4py&#45;&gt;adios2 -->
<g id="edge54" class="edge">
<title>mpi4py&#45;&gt;adios2</title>
<path fill="none" stroke="black" d="M1466.77,-398.5C1481.54,-388.16 1501.57,-374.13 1517.81,-362.77"/>
<polygon fill="black" stroke="black" points="1520.19,-365.37 1526.38,-356.77 1516.18,-359.64 1520.19,-365.37"/>
</g>
<!-- mpi4py&#45;&gt;triqs -->
<g id="edge55" class="edge">
<title>mpi4py&#45;&gt;triqs</title>
<path fill="none" stroke="black" d="M1483.77,-410.16C1562.96,-403.87 1752.2,-387.15 1909.05,-360 1921.67,-357.82 1935.38,-354.8 1947.47,-351.91"/>
<polygon fill="black" stroke="black" points="1948.31,-355.31 1957.19,-349.54 1946.65,-348.51 1948.31,-355.31"/>
</g>
<!-- mpi4jax -->
<g id="node34" class="node">
<title>mpi4jax</title>
<g id="a_node34"><a xlink:href="https://github.com/conda-forge/mpi4jax-feedstock" xlink:title="mpi4jax">
<ellipse fill="#fde725" stroke="black" cx="1639.05" cy="-342" rx="40.5" ry="18"/>
<text text-anchor="middle" x="1639.05" y="-338.3" font-family="Times,serif" font-size="14.00">mpi4jax</text>
</a>
</g>
</g>
<!-- mpi4py&#45;&gt;mpi4jax -->
<g id="edge56" class="edge">
<title>mpi4py&#45;&gt;mpi4jax</title>
<path fill="none" stroke="black" d="M1475.78,-402.22C1508.88,-390.21 1562.54,-370.75 1599.24,-357.44"/>
<polygon fill="black" stroke="black" points="1600.44,-360.73 1608.65,-354.03 1598.05,-354.15 1600.44,-360.73"/>
</g>
<!-- mumps -->
<g id="node35" class="node">
<title>mumps</title>
<g id="a_node35"><a xlink:href="https://github.com/conda-forge/mumps-feedstock" xlink:title="mumps">
<ellipse fill="#35b779" stroke="black" cx="1117.05" cy="-414" rx="37.89" ry="18"/>
<text text-anchor="middle" x="1117.05" y="-410.3" font-family="Times,serif" font-size="14.00">mumps</text>
</a>
</g>
</g>
<!-- mumps&#45;&gt;petsc -->
<g id="edge57" class="edge">
<title>mumps&#45;&gt;petsc</title>
<path fill="none" stroke="black" d="M1123.83,-396.05C1127.06,-387.97 1131,-378.12 1134.61,-369.11"/>
<polygon fill="black" stroke="black" points="1137.87,-370.37 1138.33,-359.79 1131.37,-367.77 1137.87,-370.37"/>
</g>
<!-- mumps&#45;&gt;daetk -->
<g id="edge58" class="edge">
<title>mumps&#45;&gt;daetk</title>
<path fill="none" stroke="black" d="M1111.47,-396.15C1103.42,-371.81 1088.44,-326.57 1078.88,-297.67"/>
<polygon fill="black" stroke="black" points="1082.08,-296.22 1075.62,-287.82 1075.44,-298.42 1082.08,-296.22"/>
</g>
<!-- fftw -->
<g id="node36" class="node">
<title>fftw</title>
<g id="a_node36"><a xlink:href="https://github.com/conda-forge/fftw-feedstock" xlink:title="fftw">
<ellipse fill="#ff8c00" stroke="black" cx="2211.05" cy="-414" rx="27" ry="18"/>
<text text-anchor="middle" x="2211.05" y="-410.3" font-family="Times,serif" font-size="14.00">fftw</text>
</a>
</g>
</g>
<!-- fftw&#45;&gt;lalinference -->
<g id="edge59" class="edge">
<title>fftw&#45;&gt;lalinference</title>
<path fill="none" stroke="black" d="M2184.06,-412.81C2113.67,-411.66 1919.22,-404.39 1765.05,-360 1729.13,-349.66 1724.62,-335.47 1689.05,-324 1604.76,-296.81 1579.35,-307.91 1493.05,-288 1488.89,-287.04 1484.59,-285.98 1480.29,-284.88"/>
<polygon fill="black" stroke="black" points="1480.88,-281.41 1470.31,-282.23 1479.08,-288.18 1480.88,-281.41"/>
</g>
<!-- fftw&#45;&gt;fluidfft -->
<g id="edge60" class="edge">
<title>fftw&#45;&gt;fluidfft</title>
<path fill="none" stroke="black" d="M2200.3,-397.26C2183.49,-372.66 2150.85,-324.88 2130.9,-295.67"/>
<polygon fill="black" stroke="black" points="2133.68,-293.53 2125.15,-287.25 2127.9,-297.48 2133.68,-293.53"/>
</g>
<!-- fftw&#45;&gt;triqs -->
<g id="edge61" class="edge">
<title>fftw&#45;&gt;triqs</title>
<path fill="none" stroke="black" d="M2186.98,-405.64C2146,-393.12 2062.61,-367.62 2015.82,-353.32"/>
<polygon fill="black" stroke="black" points="2016.73,-349.94 2006.15,-350.37 2014.69,-356.64 2016.73,-349.94"/>
</g>
<!-- fftw&#45;&gt;triqs_cthyb -->
<g id="edge62" class="edge">
<title>fftw&#45;&gt;triqs_cthyb</title>
<path fill="none" stroke="black" d="M2193.21,-400.4C2158.7,-376.01 2082.44,-322.14 2040.01,-292.17"/>
<polygon fill="black" stroke="black" points="2041.94,-289.24 2031.75,-286.33 2037.9,-294.96 2041.94,-289.24"/>
</g>
<!-- fftw&#45;&gt;triqs_tprf -->
<g id="edge66" class="edge">
<title>fftw&#45;&gt;triqs_tprf</title>
<path fill="none" stroke="black" d="M2211.05,-395.87C2211.05,-371.67 2211.05,-327.21 2211.05,-298.39"/>
<polygon fill="black" stroke="black" points="2214.55,-298.19 2211.05,-288.19 2207.55,-298.19 2214.55,-298.19"/>
</g>
<!-- lammps -->
<g id="node37" class="node">
<title>lammps</title>
<g id="a_node37"><a xlink:href="https://github.com/conda-forge/lammps-feedstock" xlink:title="lammps">
<ellipse fill="#fde725" stroke="black" cx="2484.05" cy="-342" rx="39.79" ry="18"/>
<text text-anchor="middle" x="2484.05" y="-338.3" font-family="Times,serif" font-size="14.00">lammps</text>
</a>
</g>
</g>
<!-- fftw&#45;&gt;lammps -->
<g id="edge63" class="edge">
<title>fftw&#45;&gt;lammps</title>
<path fill="none" stroke="black" d="M2236.36,-407.38C2277.12,-398.2 2359.78,-379.11 2429.05,-360 2433.63,-358.74 2438.4,-357.36 2443.14,-355.95"/>
<polygon fill="black" stroke="black" points="2444.18,-359.29 2452.74,-353.04 2442.15,-352.59 2444.18,-359.29"/>
</g>
<!-- r&#45;rmpi -->
<g id="node38" class="node">
<title>r&#45;rmpi</title>
<g id="a_node38"><a xlink:href="https://github.com/conda-forge/r-rmpi-feedstock" xlink:title="r rmpi">
<ellipse fill="#fde725" stroke="black" cx="2306.05" cy="-270" rx="33.29" ry="18"/>
<text text-anchor="middle" x="2306.05" y="-266.3" font-family="Times,serif" font-size="14.00">r rmpi</text>
</a>
</g>
</g>
<!-- fftw&#45;&gt;r&#45;rmpi -->
<g id="edge64" class="edge">
<title>fftw&#45;&gt;r&#45;rmpi</title>
<path fill="none" stroke="black" d="M2221.58,-397.26C2238.04,-372.66 2270.01,-324.88 2289.55,-295.67"/>
<polygon fill="black" stroke="black" points="2292.53,-297.5 2295.18,-287.25 2286.71,-293.61 2292.53,-297.5"/>
</g>
<!-- gpaw -->
<g id="node39" class="node">
<title>gpaw</title>
<g id="a_node39"><a xlink:href="https://github.com/conda-forge/gpaw-feedstock" xlink:title="gpaw">
<ellipse fill="#fde725" stroke="black" cx="2357.05" cy="-198" rx="30" ry="18"/>
<text text-anchor="middle" x="2357.05" y="-194.3" font-family="Times,serif" font-size="14.00">gpaw</text>
</a>
</g>
</g>
<!-- fftw&#45;&gt;gpaw -->
<g id="edge65" class="edge">
<title>fftw&#45;&gt;gpaw</title>
<path fill="none" stroke="black" d="M2231.01,-401.67C2262.26,-382.71 2321.86,-341.32 2348.05,-288 2357.49,-268.77 2359.37,-244.43 2359.1,-226.06"/>
<polygon fill="black" stroke="black" points="2362.6,-225.89 2358.73,-216.02 2355.6,-226.15 2362.6,-225.89"/>
</g>
<!-- qe -->
<g id="node40" class="node">
<title>qe</title>
<g id="a_node40"><a xlink:href="https://github.com/conda-forge/qe-feedstock" xlink:title="qe">
<ellipse fill="#fde725" stroke="black" cx="2415.05" cy="-126" rx="27" ry="18"/>
<text text-anchor="middle" x="2415.05" y="-122.3" font-family="Times,serif" font-size="14.00">qe</text>
</a>
</g>
</g>
<!-- fftw&#45;&gt;qe -->
<g id="edge67" class="edge">
<title>fftw&#45;&gt;qe</title>
<path fill="none" stroke="black" d="M2235.1,-405.42C2258.54,-397.12 2294.18,-382.01 2319.05,-360 2381.5,-304.75 2404.17,-202.62 2411.68,-154.04"/>
<polygon fill="black" stroke="black" points="2415.17,-154.38 2413.14,-143.98 2408.24,-153.38 2415.17,-154.38"/>
</g>
<!-- parsplice -->
<g id="node41" class="node">
<title>parsplice</title>
<g id="a_node41"><a xlink:href="https://github.com/conda-forge/parsplice-feedstock" xlink:title="parsplice">
<ellipse fill="#fde725" stroke="black" cx="2485.05" cy="-270" rx="42.49" ry="18"/>
<text text-anchor="middle" x="2485.05" y="-266.3" font-family="Times,serif" font-size="14.00">parsplice</text>
</a>
</g>
</g>
<!-- lammps&#45;&gt;parsplice -->
<g id="edge68" class="edge">
<title>lammps&#45;&gt;parsplice</title>
<path fill="none" stroke="black" d="M2484.3,-323.7C2484.41,-315.98 2484.54,-306.71 2484.66,-298.11"/>
<polygon fill="black" stroke="black" points="2488.16,-298.15 2484.81,-288.1 2481.16,-298.05 2488.16,-298.15"/>
</g>
<!-- adios -->
<g id="node42" class="node">
<title>adios</title>
<g id="a_node42"><a xlink:href="https://github.com/conda-forge/adios-feedstock" xlink:title="adios">
<ellipse fill="#000000" stroke="black" cx="1803.05" cy="-342" rx="29.5" ry="18"/>
<text text-anchor="middle" x="1803.05" y="-338.3" font-family="Times,serif" font-size="14.00" fill="white">adios</text>
</a>
</g>
</g>
<!-- adios&#45;&gt;openpmd&#45;api -->
<g id="edge71" class="edge">
<title>adios&#45;&gt;openpmd&#45;api</title>
<path fill="none" stroke="black" d="M1790.03,-325.81C1782.42,-316.93 1772.63,-305.5 1763.95,-295.39"/>
<polygon fill="black" stroke="black" points="1766.47,-292.94 1757.3,-287.63 1761.15,-297.5 1766.47,-292.94"/>
</g>
<!-- asap3 -->
<g id="node43" class="node">
<title>asap3</title>
<g id="a_node43"><a xlink:href="https://github.com/conda-forge/asap3-feedstock" xlink:title="asap3">
<ellipse fill="#35b779" stroke="black" cx="2578.05" cy="-522" rx="30.59" ry="18"/>
<text text-anchor="middle" x="2578.05" y="-518.3" font-family="Times,serif" font-size="14.00">asap3</text>
</a>
</g>
</g>
<!-- faunus -->
<g id="node44" class="node">
<title>faunus</title>
<g id="a_node44"><a xlink:href="https://github.com/conda-forge/faunus-feedstock" xlink:title="faunus">
<ellipse fill="#35b779" stroke="black" cx="2578.05" cy="-450" rx="34.5" ry="18"/>
<text text-anchor="middle" x="2578.05" y="-446.3" font-family="Times,serif" font-size="14.00">faunus</text>
</a>
</g>
</g>
<!-- asap3&#45;&gt;faunus -->
<!-- parabem -->
<g id="node45" class="node">
<title>parabem</title>
<g id="a_node45"><a xlink:href="https://github.com/conda-forge/parabem-feedstock" xlink:title="parabem">
<ellipse fill="#35b779" stroke="black" cx="2578.05" cy="-378" rx="41.69" ry="18"/>
<text text-anchor="middle" x="2578.05" y="-374.3" font-family="Times,serif" font-size="14.00">parabem</text>
</a>
</g>
</g>
<!-- faunus&#45;&gt;parabem -->
<!-- scorec -->
<g id="node46" class="node">
<title>scorec</title>
<g id="a_node46"><a xlink:href="https://github.com/conda-forge/scorec-feedstock" xlink:title="scorec">
<ellipse fill="#35b779" stroke="black" cx="2578.05" cy="-306" rx="33.29" ry="18"/>
<text text-anchor="middle" x="2578.05" y="-302.3" font-family="Times,serif" font-size="14.00">scorec</text>
</a>
</g>
</g>
<!-- parabem&#45;&gt;scorec -->
<!-- libmbd -->
<g id="node47" class="node">
<title>libmbd</title>
<g id="a_node47"><a xlink:href="https://github.com/conda-forge/libmbd-feedstock" xlink:title="libmbd">
<ellipse fill="#35b779" stroke="black" cx="2578.05" cy="-234" rx="36.5" ry="18"/>
<text text-anchor="middle" x="2578.05" y="-230.3" font-family="Times,serif" font-size="14.00">libmbd</text>
</a>
</g>
</g>
<!-- scorec&#45;&gt;libmbd -->
<!-- parsmurf -->
<g id="node49" class="node">
<title>parsmurf</title>
<g id="a_node49"><a xlink:href="https://github.com/conda-forge/parsmurf-feedstock" xlink:title="parsmurf">
<ellipse fill="#35b779" stroke="black" cx="2578.05" cy="-162" rx="43" ry="18"/>
<text text-anchor="middle" x="2578.05" y="-158.3" font-family="Times,serif" font-size="14.00">parsmurf</text>
</a>
</g>
</g>
<!-- libmbd&#45;&gt;parsmurf -->
<!-- dftbplus -->
<g id="node48" class="node">
<title>dftbplus</title>
<g id="a_node48"><a xlink:href="https://github.com/conda-forge/dftbplus-feedstock" xlink:title="dftbplus">
<ellipse fill="#fde725" stroke="black" cx="2681.05" cy="-234" rx="39.79" ry="18"/>
<text text-anchor="middle" x="2681.05" y="-230.3" font-family="Times,serif" font-size="14.00">dftbplus</text>
</a>
</g>
</g>
<!-- mrchem -->
<g id="node50" class="node">
<title>mrchem</title>
<g id="a_node50"><a xlink:href="https://github.com/conda-forge/mrchem-feedstock" xlink:title="mrchem">
<ellipse fill="#35b779" stroke="black" cx="2578.05" cy="-90" rx="40.5" ry="18"/>
<text text-anchor="middle" x="2578.05" y="-86.3" font-family="Times,serif" font-size="14.00">mrchem</text>
</a>
</g>
</g>
<!-- parsmurf&#45;&gt;mrchem -->
<!-- libnegf -->
<g id="node52" class="node">
<title>libnegf</title>
<g id="a_node52"><a xlink:href="https://github.com/conda-forge/libnegf-feedstock" xlink:title="libnegf">
<ellipse fill="#35b779" stroke="black" cx="2578.05" cy="-18" rx="36" ry="18"/>
<text text-anchor="middle" x="2578.05" y="-14.3" font-family="Times,serif" font-size="14.00">libnegf</text>
</a>
</g>
</g>
<!-- mrchem&#45;&gt;libnegf -->
<!-- scalapackfx -->
<g id="node51" class="node">
<title>scalapackfx</title>
<g id="a_node51"><a xlink:href="https://github.com/conda-forge/scalapackfx-feedstock" xlink:title="scalapackfx">
<ellipse fill="#35b779" stroke="black" cx="2681.05" cy="-306" rx="52" ry="18"/>
<text text-anchor="middle" x="2681.05" y="-302.3" font-family="Times,serif" font-size="14.00">scalapackfx</text>
</a>
</g>
</g>
<!-- scalapackfx&#45;&gt;dftbplus -->
<g id="edge78" class="edge">
<title>scalapackfx&#45;&gt;dftbplus</title>
<path fill="none" stroke="black" d="M2681.05,-287.7C2681.05,-279.98 2681.05,-270.71 2681.05,-262.11"/>
<polygon fill="black" stroke="black" points="2684.55,-262.1 2681.05,-252.1 2677.55,-262.1 2684.55,-262.1"/>
</g>
</g>
</svg>
