<?xml version="1.0" encoding="UTF-8" standalone="no"?>
<!DOCTYPE svg PUBLIC "-//W3C//DTD SVG 1.1//EN"
 "http://www.w3.org/Graphics/SVG/1.1/DTD/svg11.dtd">
<!-- Generated by graphviz version 8.0.5 (20230506.1012)
 -->
<!-- Pages: 1 -->
<svg width="424pt" height="188pt"
 viewBox="0.00 0.00 424.14 188.00" xmlns="http://www.w3.org/2000/svg" xmlns:xlink="http://www.w3.org/1999/xlink">
<g id="graph0" class="graph" transform="scale(1 1) rotate(0) translate(4 184)">
<polygon fill="white" stroke="none" points="-4,4 -4,-184 420.14,-184 420.14,4 -4,4"/>
<!-- fenics -->
<g id="node1" class="node">
<title>fenics</title>
<g id="a_node1"><a xlink:href="https://github.com/conda-forge/fenics-feedstock" xlink:title="fenics">
<ellipse fill="#ff8c00" stroke="black" cx="130.51" cy="-162" rx="40.69" ry="18"/>
<text text-anchor="middle" x="130.51" y="-157.32" font-family="Times,serif" font-size="14.00">fenics</text>
</a>
</g>
</g>
<!-- fenics&#45;dolfinx -->
<g id="node4" class="node">
<title>fenics&#45;dolfinx</title>
<g id="a_node4"><a xlink:href="https://github.com/conda-forge/fenics-dolfinx-feedstock" xlink:title="fenics dolfinx">
<ellipse fill="#fde725" stroke="black" cx="77.51" cy="-90" rx="77.51" ry="18"/>
<text text-anchor="middle" x="77.51" y="-85.33" font-family="Times,serif" font-size="14.00">fenics dolfinx</text>
</a>
</g>
</g>
<!-- fenics&#45;&gt;fenics&#45;dolfinx -->
<g id="edge1" class="edge">
<title>fenics&#45;&gt;fenics&#45;dolfinx</title>
<path fill="none" stroke="black" d="M117.95,-144.41C111.64,-136.08 103.86,-125.8 96.81,-116.49"/>
<polygon fill="black" stroke="black" points="99.18,-114.82 90.35,-108.96 93.6,-119.04 99.18,-114.82"/>
</g>
<!-- dolfinx_mpc -->
<g id="node5" class="node">
<title>dolfinx_mpc</title>
<g id="a_node5"><a xlink:href="https://github.com/conda-forge/dolfinx_mpc-feedstock" xlink:title="dolfinx_mpc">
<ellipse fill="#fde725" stroke="black" cx="130.51" cy="-18" rx="70.67" ry="18"/>
<text text-anchor="middle" x="130.51" y="-13.32" font-family="Times,serif" font-size="14.00">dolfinx_mpc</text>
</a>
</g>
</g>
<!-- fenics&#45;&gt;dolfinx_mpc -->
<g id="edge2" class="edge">
<title>fenics&#45;&gt;dolfinx_mpc</title>
<path fill="none" stroke="black" d="M144.21,-145.03C151.81,-135.09 160.52,-121.64 164.51,-108 169.01,-92.65 169.01,-87.35 164.51,-72 161.7,-62.4 156.55,-52.88 151.09,-44.62"/>
<polygon fill="black" stroke="black" points="153.55,-43.04 144.91,-36.9 147.84,-47.08 153.55,-43.04"/>
</g>
<!-- proteus -->
<g id="node2" class="node">
<title>proteus</title>
<g id="a_node2"><a xlink:href="https://github.com/conda-forge/proteus-feedstock" xlink:title="proteus">
<ellipse fill="#fde725" stroke="black" cx="258.51" cy="-90" rx="49.63" ry="18"/>
<text text-anchor="middle" x="258.51" y="-85.33" font-family="Times,serif" font-size="14.00">proteus</text>
</a>
</g>
</g>
<!-- damask -->
<g id="node3" class="node">
<title>damask</title>
<g id="a_node3"><a xlink:href="https://github.com/conda-forge/damask-feedstock" xlink:title="damask">
<ellipse fill="#ff8c00" stroke="black" cx="366.51" cy="-90" rx="49.63" ry="18"/>
<text text-anchor="middle" x="366.51" y="-85.33" font-family="Times,serif" font-size="14.00">damask</text>
</a>
</g>
</g>
<!-- fenics&#45;dolfinx&#45;&gt;dolfinx_mpc -->
<g id="edge3" class="edge">
<title>fenics&#45;dolfinx&#45;&gt;dolfinx_mpc</title>
<path fill="none" stroke="black" d="M90.34,-72.05C96.59,-63.8 104.24,-53.7 111.18,-44.54"/>
<polygon fill="black" stroke="black" points="114.56,-46.87 117.8,-36.79 108.98,-42.65 114.56,-46.87"/>
</g>
</g>
</svg>
