<?xml version="1.0" encoding="UTF-8" standalone="no"?>
<!DOCTYPE svg PUBLIC "-//W3C//DTD SVG 1.1//EN"
 "http://www.w3.org/Graphics/SVG/1.1/DTD/svg11.dtd">
<!-- Generated by graphviz version 8.1.0 (20230707.2238)
 -->
<!-- Pages: 1 -->
<svg width="347pt" height="188pt"
 viewBox="0.00 0.00 347.40 188.00" xmlns="http://www.w3.org/2000/svg" xmlns:xlink="http://www.w3.org/1999/xlink">
<g id="graph0" class="graph" transform="scale(1 1) rotate(0) translate(4 184)">
<polygon fill="white" stroke="none" points="-4,4 -4,-184 343.4,-184 343.4,4 -4,4"/>
<!-- fenics -->
<g id="node1" class="node">
<title>fenics</title>
<g id="a_node1"><a xlink:href="https://github.com/conda-forge/fenics-feedstock/pull/183" xlink:title="fenics ❎">
<ellipse fill="#31688e" stroke="black" cx="130.51" cy="-162" rx="55.94" ry="18"/>
<text text-anchor="middle" x="130.51" y="-157.32" font-family="Times,serif" font-size="14.00" fill="white">fenics ❎</text>
</a>
</g>
</g>
<!-- fenics&#45;dolfinx -->
<g id="node3" class="node">
<title>fenics&#45;dolfinx</title>
<g id="a_node3"><a xlink:href="https://github.com/conda-forge/fenics-dolfinx-feedstock" xlink:title="fenics dolfinx">
<ellipse fill="#fde725" stroke="black" cx="77.51" cy="-90" rx="77.51" ry="18"/>
<text text-anchor="middle" x="77.51" y="-85.33" font-family="Times,serif" font-size="14.00">fenics dolfinx</text>
</a>
</g>
</g>
<!-- fenics&#45;&gt;fenics&#45;dolfinx -->
<g id="edge1" class="edge">
<title>fenics&#45;&gt;fenics&#45;dolfinx</title>
<path fill="none" stroke="black" d="M117.68,-144.05C111.43,-135.8 103.79,-125.7 96.85,-116.54"/>
<polygon fill="black" stroke="black" points="99.05,-114.65 90.23,-108.79 93.47,-118.87 99.05,-114.65"/>
</g>
<!-- dolfinx_mpc -->
<g id="node4" class="node">
<title>dolfinx_mpc</title>
<g id="a_node4"><a xlink:href="https://github.com/conda-forge/dolfinx_mpc-feedstock" xlink:title="dolfinx_mpc">
<ellipse fill="#fde725" stroke="black" cx="130.51" cy="-18" rx="70.67" ry="18"/>
<text text-anchor="middle" x="130.51" y="-13.32" font-family="Times,serif" font-size="14.00">dolfinx_mpc</text>
</a>
</g>
</g>
<!-- fenics&#45;&gt;dolfinx_mpc -->
<g id="edge2" class="edge">
<title>fenics&#45;&gt;dolfinx_mpc</title>
<path fill="none" stroke="black" d="M144.56,-144.57C152.08,-134.68 160.58,-121.43 164.51,-108 169.01,-92.65 169.01,-87.35 164.51,-72 161.7,-62.4 156.55,-52.88 151.09,-44.62"/>
<polygon fill="black" stroke="black" points="153.55,-43.04 144.91,-36.9 147.84,-47.08 153.55,-43.04"/>
</g>
<!-- proteus -->
<g id="node2" class="node">
<title>proteus</title>
<g id="a_node2"><a xlink:href="https://github.com/conda-forge/proteus-feedstock/pull/55" xlink:title="proteus ❎">
<ellipse fill="#31688e" stroke="black" cx="274.51" cy="-90" rx="64.89" ry="18"/>
<text text-anchor="middle" x="274.51" y="-85.33" font-family="Times,serif" font-size="14.00" fill="white">proteus ❎</text>
</a>
</g>
</g>
<!-- fenics&#45;dolfinx&#45;&gt;dolfinx_mpc -->
<g id="edge3" class="edge">
<title>fenics&#45;dolfinx&#45;&gt;dolfinx_mpc</title>
<path fill="none" stroke="black" d="M90.34,-72.05C96.59,-63.8 104.24,-53.7 111.18,-44.54"/>
<polygon fill="black" stroke="black" points="114.56,-46.87 117.8,-36.79 108.98,-42.65 114.56,-46.87"/>
</g>
</g>
</svg>
