<?xml version="1.0" encoding="UTF-8" standalone="no"?>
<!DOCTYPE svg PUBLIC "-//W3C//DTD SVG 1.1//EN"
 "http://www.w3.org/Graphics/SVG/1.1/DTD/svg11.dtd">
<!-- Generated by graphviz version 2.49.1 (20211004.0028)
 -->
<!-- Pages: 1 -->
<svg width="413pt" height="232pt"
 viewBox="0.00 0.00 412.74 232.00" xmlns="http://www.w3.org/2000/svg" xmlns:xlink="http://www.w3.org/1999/xlink">
<g id="graph0" class="graph" transform="scale(1 1) rotate(0) translate(4 228)">
<polygon fill="white" stroke="transparent" points="-4,4 -4,-228 408.74,-228 408.74,4 -4,4"/>
<!-- fenics -->
<g id="node1" class="node">
<title>fenics</title>
<g id="a_node1"><a xlink:href="https://github.com/conda-forge/fenics-feedstock" xlink:title="fenics">
<ellipse fill="#35b779" stroke="black" cx="122.14" cy="-206" rx="38.19" ry="18"/>
<text text-anchor="middle" x="122.14" y="-202.3" font-family="Times,serif" font-size="14.00">fenics</text>
</a>
</g>
</g>
<!-- fenics&#45;dolfinx -->
<g id="node7" class="node">
<title>fenics&#45;dolfinx</title>
<g id="a_node7"><a xlink:href="https://github.com/conda-forge/fenics-dolfinx-feedstock" xlink:title="fenics dolfinx">
<ellipse fill="#fde725" stroke="black" cx="72.14" cy="-134" rx="72.29" ry="18"/>
<text text-anchor="middle" x="72.14" y="-130.3" font-family="Times,serif" font-size="14.00">fenics dolfinx</text>
</a>
</g>
</g>
<!-- fenics&#45;&gt;fenics&#45;dolfinx -->
<g id="edge1" class="edge">
<title>fenics&#45;&gt;fenics&#45;dolfinx</title>
<path fill="none" stroke="black" d="M110.55,-188.76C104.54,-180.35 97.07,-169.89 90.31,-160.44"/>
<polygon fill="black" stroke="black" points="93.04,-158.23 84.37,-152.12 87.34,-162.3 93.04,-158.23"/>
</g>
<!-- dolfinx_mpc -->
<g id="node8" class="node">
<title>dolfinx_mpc</title>
<g id="a_node8"><a xlink:href="https://github.com/conda-forge/dolfinx_mpc-feedstock" xlink:title="dolfinx_mpc">
<ellipse fill="#fde725" stroke="black" cx="122.14" cy="-62" rx="65.79" ry="18"/>
<text text-anchor="middle" x="122.14" y="-58.3" font-family="Times,serif" font-size="14.00">dolfinx_mpc</text>
</a>
</g>
</g>
<!-- fenics&#45;&gt;dolfinx_mpc -->
<g id="edge2" class="edge">
<title>fenics&#45;&gt;dolfinx_mpc</title>
<path fill="none" stroke="black" d="M134.65,-188.84C141.58,-178.83 149.52,-165.38 153.14,-152 157.33,-136.56 157.33,-131.44 153.14,-116 150.56,-106.48 145.8,-96.92 140.77,-88.59"/>
<polygon fill="black" stroke="black" points="143.65,-86.6 135.29,-80.09 137.77,-90.39 143.65,-86.6"/>
</g>
<!-- libadjoint -->
<g id="node2" class="node">
<title>libadjoint</title>
<g id="a_node2"><a xlink:href="https://github.com/conda-forge/libadjoint-feedstock" xlink:title="libadjoint">
<ellipse fill="#35b779" stroke="black" cx="350.14" cy="-134" rx="54.69" ry="18"/>
<text text-anchor="middle" x="350.14" y="-130.3" font-family="Times,serif" font-size="14.00">libadjoint</text>
</a>
</g>
</g>
<!-- daetk -->
<g id="node3" class="node">
<title>daetk</title>
<g id="a_node3"><a xlink:href="https://github.com/conda-forge/daetk-feedstock" xlink:title="daetk">
<ellipse fill="#35b779" stroke="black" cx="241.14" cy="-170" rx="36.29" ry="18"/>
<text text-anchor="middle" x="241.14" y="-166.3" font-family="Times,serif" font-size="14.00">daetk</text>
</a>
</g>
</g>
<!-- proteus -->
<g id="node4" class="node">
<title>proteus</title>
<g id="a_node4"><a xlink:href="https://github.com/conda-forge/proteus-feedstock" xlink:title="proteus">
<ellipse fill="#fde725" stroke="black" cx="241.14" cy="-98" rx="46.29" ry="18"/>
<text text-anchor="middle" x="241.14" y="-94.3" font-family="Times,serif" font-size="14.00">proteus</text>
</a>
</g>
</g>
<!-- daetk&#45;&gt;proteus -->
<g id="edge3" class="edge">
<title>daetk&#45;&gt;proteus</title>
<path fill="none" stroke="black" d="M241.14,-151.7C241.14,-143.98 241.14,-134.71 241.14,-126.11"/>
<polygon fill="black" stroke="black" points="244.64,-126.1 241.14,-116.1 237.64,-126.1 244.64,-126.1"/>
</g>
<!-- damask -->
<g id="node5" class="node">
<title>damask</title>
<g id="a_node5"><a xlink:href="https://github.com/conda-forge/damask-feedstock" xlink:title="damask">
<ellipse fill="#35b779" stroke="black" cx="93.14" cy="-18" rx="46.29" ry="18"/>
<text text-anchor="middle" x="93.14" y="-14.3" font-family="Times,serif" font-size="14.00">damask</text>
</a>
</g>
</g>
<!-- precice -->
<g id="node6" class="node">
<title>precice</title>
<g id="a_node6"><a xlink:href="https://github.com/conda-forge/precice-feedstock" xlink:title="precice">
<ellipse fill="#35b779" stroke="black" cx="241.14" cy="-18" rx="44.39" ry="18"/>
<text text-anchor="middle" x="241.14" y="-14.3" font-family="Times,serif" font-size="14.00">precice</text>
</a>
</g>
</g>
<!-- fenics&#45;dolfinx&#45;&gt;dolfinx_mpc -->
<g id="edge4" class="edge">
<title>fenics&#45;dolfinx&#45;&gt;dolfinx_mpc</title>
<path fill="none" stroke="black" d="M84.25,-116.05C90.27,-107.63 97.66,-97.28 104.31,-87.97"/>
<polygon fill="black" stroke="black" points="107.19,-89.96 110.15,-79.79 101.49,-85.89 107.19,-89.96"/>
</g>
</g>
</svg>
