<?xml version="1.0" encoding="UTF-8" standalone="no"?>
<!DOCTYPE svg PUBLIC "-//W3C//DTD SVG 1.1//EN"
 "http://www.w3.org/Graphics/SVG/1.1/DTD/svg11.dtd">
<!-- Generated by graphviz version 8.0.5 (20230506.1012)
 -->
<!-- Pages: 1 -->
<svg width="324pt" height="160pt"
 viewBox="0.00 0.00 324.41 160.00" xmlns="http://www.w3.org/2000/svg" xmlns:xlink="http://www.w3.org/1999/xlink">
<g id="graph0" class="graph" transform="scale(1 1) rotate(0) translate(4 156)">
<polygon fill="white" stroke="none" points="-4,4 -4,-156 320.41,-156 320.41,4 -4,4"/>
<!-- pynio -->
<g id="node1" class="node">
<title>pynio</title>
<g id="a_node1"><a xlink:href="https://github.com/conda-forge/pynio-feedstock" xlink:title="pynio">
<ellipse fill="#ff8c00" stroke="black" cx="58.57" cy="-18" rx="38.58" ry="18"/>
<text text-anchor="middle" x="58.57" y="-13.32" font-family="Times,serif" font-size="14.00">pynio</text>
</a>
</g>
</g>
<!-- pyproj -->
<g id="node2" class="node">
<title>pyproj</title>
<g id="a_node2"><a xlink:href="https://github.com/conda-forge/pyproj-feedstock/pull/136" xlink:title="pyproj ❎">
<ellipse fill="#31688e" stroke="black" cx="58.57" cy="-134" rx="58.57" ry="18"/>
<text text-anchor="middle" x="58.57" y="-129.32" font-family="Times,serif" font-size="14.00" fill="white">pyproj ❎</text>
</a>
</g>
</g>
<!-- qgis -->
<g id="node3" class="node">
<title>qgis</title>
<g id="a_node3"><a xlink:href="https://github.com/conda-forge/qgis-feedstock" xlink:title="qgis">
<ellipse fill="#fde725" stroke="black" cx="58.57" cy="-62" rx="32.27" ry="18"/>
<text text-anchor="middle" x="58.57" y="-57.33" font-family="Times,serif" font-size="14.00">qgis</text>
</a>
</g>
</g>
<!-- pyproj&#45;&gt;qgis -->
<g id="edge1" class="edge">
<title>pyproj&#45;&gt;qgis</title>
<path fill="none" stroke="black" d="M58.57,-115.7C58.57,-108.24 58.57,-99.32 58.57,-90.97"/>
<polygon fill="black" stroke="black" points="62.07,-91.1 58.57,-81.1 55.07,-91.1 62.07,-91.1"/>
</g>
<!-- vtk -->
<g id="node4" class="node">
<title>vtk</title>
<g id="a_node4"><a xlink:href="https://github.com/conda-forge/vtk-feedstock/pull/298" xlink:title="vtk ✓">
<ellipse fill="#31688e" stroke="black" cx="162.57" cy="-134" rx="34.9" ry="18"/>
<text text-anchor="middle" x="162.57" y="-129.32" font-family="Times,serif" font-size="14.00" fill="white">vtk ✓</text>
</a>
</g>
</g>
<!-- visan -->
<g id="node6" class="node">
<title>visan</title>
<g id="a_node6"><a xlink:href="https://github.com/conda-forge/visan-feedstock" xlink:title="visan">
<ellipse fill="#fde725" stroke="black" cx="162.57" cy="-62" rx="37.53" ry="18"/>
<text text-anchor="middle" x="162.57" y="-57.33" font-family="Times,serif" font-size="14.00">visan</text>
</a>
</g>
</g>
<!-- vtk&#45;&gt;visan -->
<g id="edge2" class="edge">
<title>vtk&#45;&gt;visan</title>
<path fill="none" stroke="black" d="M162.57,-115.7C162.57,-108.24 162.57,-99.32 162.57,-90.97"/>
<polygon fill="black" stroke="black" points="166.07,-91.1 162.57,-81.1 159.07,-91.1 166.07,-91.1"/>
</g>
<!-- fimex -->
<g id="node5" class="node">
<title>fimex</title>
<g id="a_node5"><a xlink:href="https://github.com/conda-forge/fimex-feedstock/pull/59" xlink:title="fimex ❎">
<ellipse fill="#31688e" stroke="black" cx="262.57" cy="-98" rx="53.84" ry="18"/>
<text text-anchor="middle" x="262.57" y="-93.33" font-family="Times,serif" font-size="14.00" fill="white">fimex ❎</text>
</a>
</g>
</g>
</g>
</svg>
