<?xml version="1.0" encoding="UTF-8" standalone="no"?>
<!DOCTYPE svg PUBLIC "-//W3C//DTD SVG 1.1//EN"
 "http://www.w3.org/Graphics/SVG/1.1/DTD/svg11.dtd">
<!-- Generated by graphviz version 9.0.0 (20231125.0833)
 -->
<!-- Pages: 1 -->
<svg width="1000pt" height="404pt"
 viewBox="0.00 0.00 1000.26 404.00" xmlns="http://www.w3.org/2000/svg" xmlns:xlink="http://www.w3.org/1999/xlink">
<g id="graph0" class="graph" transform="scale(1 1) rotate(0) translate(4 400)">
<polygon fill="white" stroke="none" points="-4,4 -4,-400 996.26,-400 996.26,4 -4,4"/>
<!-- gdal -->
<g id="node1" class="node">
<title>gdal</title>
<g id="a_node1"><a xlink:href="https://github.com/conda-forge/gdal-feedstock" xlink:title="gdal">
<ellipse fill="#ff8c00" stroke="black" cx="301" cy="-378" rx="32.79" ry="18"/>
<text text-anchor="middle" x="301" y="-373.32" font-family="Times,serif" font-size="14.00">gdal</text>
</a>
</g>
</g>
<!-- ncl -->
<g id="node2" class="node">
<title>ncl</title>
<g id="a_node2"><a xlink:href="https://github.com/conda-forge/ncl-feedstock" xlink:title="ncl">
<ellipse fill="#fde725" stroke="black" cx="27" cy="-306" rx="27" ry="18"/>
<text text-anchor="middle" x="27" y="-301.32" font-family="Times,serif" font-size="14.00">ncl</text>
</a>
</g>
</g>
<!-- gdal&#45;&gt;ncl -->
<g id="edge1" class="edge">
<title>gdal&#45;&gt;ncl</title>
<path fill="none" stroke="black" d="M270.02,-371.68C224.96,-363.56 138.95,-346.6 68,-324 65.24,-323.12 62.4,-322.13 59.57,-321.09"/>
<polygon fill="black" stroke="black" points="60.87,-317.83 50.28,-317.43 58.3,-324.35 60.87,-317.83"/>
</g>
<!-- postgis -->
<g id="node3" class="node">
<title>postgis</title>
<g id="a_node3"><a xlink:href="https://github.com/conda-forge/postgis-feedstock" xlink:title="postgis">
<ellipse fill="#fde725" stroke="black" cx="63" cy="-234" rx="47.53" ry="18"/>
<text text-anchor="middle" x="63" y="-229.32" font-family="Times,serif" font-size="14.00">postgis</text>
</a>
</g>
</g>
<!-- gdal&#45;&gt;postgis -->
<g id="edge2" class="edge">
<title>gdal&#45;&gt;postgis</title>
<path fill="none" stroke="black" d="M268.63,-373.72C231.01,-368.54 168.53,-355.57 125,-324 103.03,-308.07 86.15,-281.87 75.59,-262.02"/>
<polygon fill="black" stroke="black" points="78.85,-260.7 71.2,-253.37 72.61,-263.87 78.85,-260.7"/>
</g>
<!-- pynio -->
<g id="node4" class="node">
<title>pynio</title>
<g id="a_node4"><a xlink:href="https://github.com/conda-forge/pynio-feedstock" xlink:title="pynio">
<ellipse fill="#fde725" stroke="black" cx="110" cy="-162" rx="38.58" ry="18"/>
<text text-anchor="middle" x="110" y="-157.32" font-family="Times,serif" font-size="14.00">pynio</text>
</a>
</g>
</g>
<!-- gdal&#45;&gt;pynio -->
<g id="edge3" class="edge">
<title>gdal&#45;&gt;pynio</title>
<path fill="none" stroke="black" d="M269.28,-372.77C238.15,-367 191.32,-353.73 163,-324 144.62,-304.7 125.72,-232.12 116.23,-191.31"/>
<polygon fill="black" stroke="black" points="119.68,-190.69 114.05,-181.71 112.86,-192.24 119.68,-190.69"/>
</g>
<!-- qgis -->
<g id="node5" class="node">
<title>qgis</title>
<g id="a_node5"><a xlink:href="https://github.com/conda-forge/qgis-feedstock" xlink:title="qgis">
<ellipse fill="#fde725" stroke="black" cx="155" cy="-90" rx="32.27" ry="18"/>
<text text-anchor="middle" x="155" y="-85.33" font-family="Times,serif" font-size="14.00">qgis</text>
</a>
</g>
</g>
<!-- gdal&#45;&gt;qgis -->
<g id="edge4" class="edge">
<title>gdal&#45;&gt;qgis</title>
<path fill="none" stroke="black" d="M271.89,-369.12C249.06,-361.41 218.35,-347.34 201,-324 177.1,-291.85 162.98,-174.28 157.56,-119.47"/>
<polygon fill="black" stroke="black" points="161.06,-119.31 156.63,-109.69 154.1,-119.97 161.06,-119.31"/>
</g>
<!-- r&#45;rgdal -->
<g id="node6" class="node">
<title>r&#45;rgdal</title>
<g id="a_node6"><a xlink:href="https://github.com/conda-forge/r-rgdal-feedstock" xlink:title="r rgdal">
<ellipse fill="#fde725" stroke="black" cx="215" cy="-18" rx="45.42" ry="18"/>
<text text-anchor="middle" x="215" y="-13.32" font-family="Times,serif" font-size="14.00">r rgdal</text>
</a>
</g>
</g>
<!-- gdal&#45;&gt;r&#45;rgdal -->
<g id="edge5" class="edge">
<title>gdal&#45;&gt;r&#45;rgdal</title>
<path fill="none" stroke="black" d="M284.42,-362.21C259.43,-338.19 215,-288.03 215,-235 215,-235 215,-235 215,-161 215,-121.74 215,-76.38 215,-47.69"/>
<polygon fill="black" stroke="black" points="218.5,-48 215,-38 211.5,-48 218.5,-48"/>
</g>
<!-- r&#45;sf -->
<g id="node7" class="node">
<title>r&#45;sf</title>
<g id="a_node7"><a xlink:href="https://github.com/conda-forge/r-sf-feedstock" xlink:title="r sf">
<ellipse fill="#fde725" stroke="black" cx="301" cy="-306" rx="28.06" ry="18"/>
<text text-anchor="middle" x="301" y="-301.32" font-family="Times,serif" font-size="14.00">r sf</text>
</a>
</g>
</g>
<!-- gdal&#45;&gt;r&#45;sf -->
<g id="edge6" class="edge">
<title>gdal&#45;&gt;r&#45;sf</title>
<path fill="none" stroke="black" d="M301,-359.7C301,-352.41 301,-343.73 301,-335.54"/>
<polygon fill="black" stroke="black" points="304.5,-335.62 301,-325.62 297.5,-335.62 304.5,-335.62"/>
</g>
<!-- rasterio -->
<g id="node8" class="node">
<title>rasterio</title>
<g id="a_node8"><a xlink:href="https://github.com/conda-forge/rasterio-feedstock" xlink:title="rasterio">
<ellipse fill="#fde725" stroke="black" cx="428" cy="-234" rx="50.68" ry="18"/>
<text text-anchor="middle" x="428" y="-229.32" font-family="Times,serif" font-size="14.00">rasterio</text>
</a>
</g>
</g>
<!-- gdal&#45;&gt;rasterio -->
<g id="edge7" class="edge">
<title>gdal&#45;&gt;rasterio</title>
<path fill="none" stroke="black" d="M315.08,-361.26C336.97,-336.79 379.36,-289.38 405.52,-260.14"/>
<polygon fill="black" stroke="black" points="408.01,-262.6 412.07,-252.82 402.79,-257.94 408.01,-262.6"/>
</g>
<!-- r&#45;gdalcubes -->
<g id="node9" class="node">
<title>r&#45;gdalcubes</title>
<g id="a_node9"><a xlink:href="https://github.com/conda-forge/r-gdalcubes-feedstock" xlink:title="r gdalcubes">
<ellipse fill="#fde725" stroke="black" cx="447" cy="-162" rx="69.62" ry="18"/>
<text text-anchor="middle" x="447" y="-157.32" font-family="Times,serif" font-size="14.00">r gdalcubes</text>
</a>
</g>
</g>
<!-- gdal&#45;&gt;r&#45;gdalcubes -->
<g id="edge8" class="edge">
<title>gdal&#45;&gt;r&#45;gdalcubes</title>
<path fill="none" stroke="black" d="M328.67,-368.06C371.9,-352.42 454.04,-315.54 488,-252 499.3,-230.85 485.73,-206.02 471.25,-187.96"/>
<polygon fill="black" stroke="black" points="474.32,-186.16 465.16,-180.84 469,-190.71 474.32,-186.16"/>
</g>
<!-- r&#45;terra -->
<g id="node10" class="node">
<title>r&#45;terra</title>
<g id="a_node10"><a xlink:href="https://github.com/conda-forge/r-terra-feedstock" xlink:title="r terra">
<ellipse fill="#fde725" stroke="black" cx="528" cy="-90" rx="44.37" ry="18"/>
<text text-anchor="middle" x="528" y="-85.33" font-family="Times,serif" font-size="14.00">r terra</text>
</a>
</g>
</g>
<!-- gdal&#45;&gt;r&#45;terra -->
<g id="edge9" class="edge">
<title>gdal&#45;&gt;r&#45;terra</title>
<path fill="none" stroke="black" d="M332.4,-371.99C365.35,-365.47 417.36,-351.51 454,-324 511.22,-281.04 515.09,-250.72 526,-180 529.09,-159.99 529.54,-137.16 529.24,-119.63"/>
<polygon fill="black" stroke="black" points="532.74,-119.59 528.97,-109.69 525.75,-119.78 532.74,-119.59"/>
</g>
<!-- mapserver -->
<g id="node11" class="node">
<title>mapserver</title>
<g id="a_node11"><a xlink:href="https://github.com/conda-forge/mapserver-feedstock" xlink:title="mapserver">
<ellipse fill="#fde725" stroke="black" cx="600" cy="-18" rx="64.89" ry="18"/>
<text text-anchor="middle" x="600" y="-13.32" font-family="Times,serif" font-size="14.00">mapserver</text>
</a>
</g>
</g>
<!-- gdal&#45;&gt;mapserver -->
<g id="edge10" class="edge">
<title>gdal&#45;&gt;mapserver</title>
<path fill="none" stroke="black" d="M334.14,-376.26C411.99,-372.59 600,-351.66 600,-235 600,-235 600,-235 600,-161 600,-121.74 600,-76.38 600,-47.69"/>
<polygon fill="black" stroke="black" points="603.5,-48 600,-38 596.5,-48 603.5,-48"/>
</g>
<!-- pygplates -->
<g id="node12" class="node">
<title>pygplates</title>
<g id="a_node12"><a xlink:href="https://github.com/conda-forge/pygplates-feedstock" xlink:title="pygplates">
<ellipse fill="#fde725" stroke="black" cx="688" cy="-306" rx="60.15" ry="18"/>
<text text-anchor="middle" x="688" y="-301.32" font-family="Times,serif" font-size="14.00">pygplates</text>
</a>
</g>
</g>
<!-- gdal&#45;&gt;pygplates -->
<g id="edge11" class="edge">
<title>gdal&#45;&gt;pygplates</title>
<path fill="none" stroke="black" d="M332.21,-372.33C388.63,-363.75 511.3,-344.47 614,-324 619.59,-322.88 625.41,-321.66 631.21,-320.4"/>
<polygon fill="black" stroke="black" points="631.82,-323.85 640.82,-318.26 630.3,-317.02 631.82,-323.85"/>
</g>
<!-- r&#45;lwgeom -->
<g id="node13" class="node">
<title>r&#45;lwgeom</title>
<g id="a_node13"><a xlink:href="https://github.com/conda-forge/r-lwgeom-feedstock" xlink:title="r lwgeom">
<ellipse fill="#fde725" stroke="black" cx="301" cy="-234" rx="58.05" ry="18"/>
<text text-anchor="middle" x="301" y="-229.32" font-family="Times,serif" font-size="14.00">r lwgeom</text>
</a>
</g>
</g>
<!-- r&#45;sf&#45;&gt;r&#45;lwgeom -->
<g id="edge12" class="edge">
<title>r&#45;sf&#45;&gt;r&#45;lwgeom</title>
<path fill="none" stroke="black" d="M301,-287.7C301,-280.41 301,-271.73 301,-263.54"/>
<polygon fill="black" stroke="black" points="304.5,-263.62 301,-253.62 297.5,-263.62 304.5,-263.62"/>
</g>
<!-- paraview -->
<g id="node14" class="node">
<title>paraview</title>
<g id="a_node14"><a xlink:href="https://github.com/conda-forge/paraview-feedstock/pull/218" xlink:title="paraview ❎">
<ellipse fill="#31688e" stroke="black" cx="828" cy="-270" rx="72.25" ry="18"/>
<text text-anchor="middle" x="828" y="-265.32" font-family="Times,serif" font-size="14.00" fill="white">paraview ❎</text>
</a>
</g>
</g>
<!-- usgscsm -->
<g id="node15" class="node">
<title>usgscsm</title>
<g id="a_node15"><a xlink:href="https://github.com/conda-forge/usgscsm-feedstock/pull/18" xlink:title="usgscsm ✓">
<ellipse fill="#31688e" stroke="black" cx="828" cy="-198" rx="62.26" ry="18"/>
<text text-anchor="middle" x="828" y="-193.32" font-family="Times,serif" font-size="14.00" fill="white">usgscsm ✓</text>
</a>
</g>
</g>
<!-- paraview&#45;&gt;usgscsm -->
<!-- fimex -->
<g id="node18" class="node">
<title>fimex</title>
<g id="a_node18"><a xlink:href="https://github.com/conda-forge/fimex-feedstock/pull/71" xlink:title="fimex ✓">
<ellipse fill="#31688e" stroke="black" cx="828" cy="-126" rx="46.47" ry="18"/>
<text text-anchor="middle" x="828" y="-121.33" font-family="Times,serif" font-size="14.00" fill="white">fimex ✓</text>
</a>
</g>
</g>
<!-- usgscsm&#45;&gt;fimex -->
<!-- vtk -->
<g id="node16" class="node">
<title>vtk</title>
<g id="a_node16"><a xlink:href="https://github.com/conda-forge/vtk-feedstock/pull/319" xlink:title="vtk ❎">
<ellipse fill="#31688e" stroke="black" cx="950" cy="-234" rx="42.26" ry="18"/>
<text text-anchor="middle" x="950" y="-229.32" font-family="Times,serif" font-size="14.00" fill="white">vtk ❎</text>
</a>
</g>
</g>
<!-- visan -->
<g id="node17" class="node">
<title>visan</title>
<g id="a_node17"><a xlink:href="https://github.com/conda-forge/visan-feedstock" xlink:title="visan">
<ellipse fill="#fde725" stroke="black" cx="950" cy="-162" rx="37.53" ry="18"/>
<text text-anchor="middle" x="950" y="-157.32" font-family="Times,serif" font-size="14.00">visan</text>
</a>
</g>
</g>
<!-- vtk&#45;&gt;visan -->
<g id="edge14" class="edge">
<title>vtk&#45;&gt;visan</title>
<path fill="none" stroke="black" d="M950,-215.7C950,-208.41 950,-199.73 950,-191.54"/>
<polygon fill="black" stroke="black" points="953.5,-191.62 950,-181.62 946.5,-191.62 953.5,-191.62"/>
</g>
</g>
</svg>
