<?xml version="1.0" encoding="UTF-8" standalone="no"?>
<!DOCTYPE svg PUBLIC "-//W3C//DTD SVG 1.1//EN"
 "http://www.w3.org/Graphics/SVG/1.1/DTD/svg11.dtd">
<!-- Generated by graphviz version 7.1.0 (20230122.1345)
 -->
<!-- Pages: 1 -->
<svg width="1132pt" height="664pt"
 viewBox="0.00 0.00 1132.05 664.00" xmlns="http://www.w3.org/2000/svg" xmlns:xlink="http://www.w3.org/1999/xlink">
<g id="graph0" class="graph" transform="scale(1 1) rotate(0) translate(4 660)">
<polygon fill="white" stroke="none" points="-4,4 -4,-660 1128.05,-660 1128.05,4 -4,4"/>
<!-- cdo -->
<g id="node1" class="node">
<title>cdo</title>
<g id="a_node1"><a xlink:href="https://github.com/conda-forge/cdo-feedstock" xlink:title="cdo">
<ellipse fill="#fde725" stroke="black" cx="1080.5" cy="-350" rx="27" ry="18"/>
<text text-anchor="middle" x="1080.5" y="-346.3" font-family="Times,serif" font-size="14.00">cdo</text>
</a>
</g>
</g>
<!-- gdal -->
<g id="node2" class="node">
<title>gdal</title>
<g id="a_node2"><a xlink:href="https://github.com/conda-forge/gdal-feedstock" xlink:title="gdal">
<ellipse fill="#fde725" stroke="black" cx="330.5" cy="-566" rx="30.59" ry="18"/>
<text text-anchor="middle" x="330.5" y="-562.3" font-family="Times,serif" font-size="14.00">gdal</text>
</a>
</g>
</g>
<!-- ncl -->
<g id="node3" class="node">
<title>ncl</title>
<g id="a_node3"><a xlink:href="https://github.com/conda-forge/ncl-feedstock" xlink:title="ncl">
<ellipse fill="#fde725" stroke="black" cx="764.5" cy="-494" rx="27" ry="18"/>
<text text-anchor="middle" x="764.5" y="-490.3" font-family="Times,serif" font-size="14.00">ncl</text>
</a>
</g>
</g>
<!-- gdal&#45;&gt;ncl -->
<g id="edge1" class="edge">
<title>gdal&#45;&gt;ncl</title>
<path fill="none" stroke="black" d="M361.1,-563.57C427.95,-559.86 591.56,-547.6 723.5,-512 726.3,-511.24 729.16,-510.34 732.01,-509.36"/>
<polygon fill="black" stroke="black" points="733.24,-512.63 741.32,-505.79 730.73,-506.1 733.24,-512.63"/>
</g>
<!-- postgis -->
<g id="node4" class="node">
<title>postgis</title>
<g id="a_node4"><a xlink:href="https://github.com/conda-forge/postgis-feedstock" xlink:title="postgis">
<ellipse fill="#fde725" stroke="black" cx="637.5" cy="-422" rx="44.39" ry="18"/>
<text text-anchor="middle" x="637.5" y="-418.3" font-family="Times,serif" font-size="14.00">postgis</text>
</a>
</g>
</g>
<!-- gdal&#45;&gt;postgis -->
<g id="edge2" class="edge">
<title>gdal&#45;&gt;postgis</title>
<path fill="none" stroke="black" d="M361.37,-565.71C411.53,-565.38 511.9,-558.39 579.5,-512 601.44,-496.94 617.07,-470.59 626.54,-450.45"/>
<polygon fill="black" stroke="black" points="629.7,-451.96 630.55,-441.4 623.3,-449.13 629.7,-451.96"/>
</g>
<!-- pynio -->
<g id="node5" class="node">
<title>pynio</title>
<g id="a_node5"><a xlink:href="https://github.com/conda-forge/pynio-feedstock" xlink:title="pynio">
<ellipse fill="#fde725" stroke="black" cx="709.5" cy="-350" rx="36.5" ry="18"/>
<text text-anchor="middle" x="709.5" y="-346.3" font-family="Times,serif" font-size="14.00">pynio</text>
</a>
</g>
</g>
<!-- gdal&#45;&gt;pynio -->
<g id="edge3" class="edge">
<title>gdal&#45;&gt;pynio</title>
<path fill="none" stroke="black" d="M361.2,-564.52C414.62,-562.57 526.93,-553.4 610.5,-512 653.36,-490.77 666.56,-481.41 690.5,-440 701.15,-421.57 705.85,-397.9 707.92,-379.6"/>
<polygon fill="black" stroke="black" points="711.4,-379.97 708.81,-369.69 704.43,-379.34 711.4,-379.97"/>
</g>
<!-- qgis -->
<g id="node6" class="node">
<title>qgis</title>
<g id="a_node6"><a xlink:href="https://github.com/conda-forge/qgis-feedstock" xlink:title="qgis">
<ellipse fill="#fde725" stroke="black" cx="54.5" cy="-494" rx="30.59" ry="18"/>
<text text-anchor="middle" x="54.5" y="-490.3" font-family="Times,serif" font-size="14.00">qgis</text>
</a>
</g>
</g>
<!-- gdal&#45;&gt;qgis -->
<g id="edge4" class="edge">
<title>gdal&#45;&gt;qgis</title>
<path fill="none" stroke="black" d="M303.59,-556.79C293.56,-553.85 282.05,-550.62 271.5,-548 195.7,-529.18 174.48,-533.87 99.5,-512 96.34,-511.08 93.09,-510.04 89.85,-508.94"/>
<polygon fill="black" stroke="black" points="91.04,-505.65 80.45,-505.56 88.68,-512.24 91.04,-505.65"/>
</g>
<!-- r&#45;rgdal -->
<g id="node7" class="node">
<title>r&#45;rgdal</title>
<g id="a_node7"><a xlink:href="https://github.com/conda-forge/r-rgdal-feedstock" xlink:title="r rgdal">
<ellipse fill="#fde725" stroke="black" cx="233.5" cy="-278" rx="42.49" ry="18"/>
<text text-anchor="middle" x="233.5" y="-274.3" font-family="Times,serif" font-size="14.00">r rgdal</text>
</a>
</g>
</g>
<!-- gdal&#45;&gt;r&#45;rgdal -->
<g id="edge5" class="edge">
<title>gdal&#45;&gt;r&#45;rgdal</title>
<path fill="none" stroke="black" d="M316.03,-549.94C307.16,-539.92 296.24,-526.06 289.5,-512 256.38,-442.93 241.93,-352.69 236.43,-307.46"/>
<polygon fill="black" stroke="black" points="239.93,-307.24 235.31,-297.71 232.98,-308.04 239.93,-307.24"/>
</g>
<!-- r&#45;sf -->
<g id="node8" class="node">
<title>r&#45;sf</title>
<g id="a_node8"><a xlink:href="https://github.com/conda-forge/r-sf-feedstock" xlink:title="r sf">
<ellipse fill="#fde725" stroke="black" cx="303.5" cy="-206" rx="27" ry="18"/>
<text text-anchor="middle" x="303.5" y="-202.3" font-family="Times,serif" font-size="14.00">r sf</text>
</a>
</g>
</g>
<!-- gdal&#45;&gt;r&#45;sf -->
<g id="edge6" class="edge">
<title>gdal&#45;&gt;r&#45;sf</title>
<path fill="none" stroke="black" d="M325.17,-548.15C317.3,-521.75 303.5,-468.92 303.5,-423 303.5,-423 303.5,-423 303.5,-349 303.5,-309.74 303.5,-264.38 303.5,-235.69"/>
<polygon fill="black" stroke="black" points="307,-236 303.5,-226 300,-236 307,-236"/>
</g>
<!-- rasterio -->
<g id="node9" class="node">
<title>rasterio</title>
<g id="a_node9"><a xlink:href="https://github.com/conda-forge/rasterio-feedstock" xlink:title="rasterio">
<ellipse fill="#fde725" stroke="black" cx="189.5" cy="-494" rx="47.5" ry="18"/>
<text text-anchor="middle" x="189.5" y="-490.3" font-family="Times,serif" font-size="14.00">rasterio</text>
</a>
</g>
</g>
<!-- gdal&#45;&gt;rasterio -->
<g id="edge7" class="edge">
<title>gdal&#45;&gt;rasterio</title>
<path fill="none" stroke="black" d="M307.53,-553.6C285.93,-542.87 253.18,-526.61 227.65,-513.94"/>
<polygon fill="black" stroke="black" points="229.43,-510.91 218.91,-509.6 226.31,-517.18 229.43,-510.91"/>
</g>
<!-- geowombat -->
<g id="node10" class="node">
<title>geowombat</title>
<g id="a_node10"><a xlink:href="https://github.com/conda-forge/geowombat-feedstock" xlink:title="geowombat">
<ellipse fill="#fde725" stroke="black" cx="113.5" cy="-422" rx="64.5" ry="18"/>
<text text-anchor="middle" x="113.5" y="-418.3" font-family="Times,serif" font-size="14.00">geowombat</text>
</a>
</g>
</g>
<!-- gdal&#45;&gt;geowombat -->
<g id="edge8" class="edge">
<title>gdal&#45;&gt;geowombat</title>
<path fill="none" stroke="black" d="M303.52,-557.06C293.48,-554.15 281.99,-550.87 271.5,-548 209.94,-531.16 176.64,-558.09 132.5,-512 117.21,-496.03 112.95,-470.92 112.24,-451.44"/>
<polygon fill="black" stroke="black" points="115.75,-451.67 112.2,-441.68 108.75,-451.7 115.75,-451.67"/>
</g>
<!-- r&#45;gdalcubes -->
<g id="node11" class="node">
<title>r&#45;gdalcubes</title>
<g id="a_node11"><a xlink:href="https://github.com/conda-forge/r-gdalcubes-feedstock" xlink:title="r gdalcubes">
<ellipse fill="#fde725" stroke="black" cx="396.5" cy="-422" rx="65" ry="18"/>
<text text-anchor="middle" x="396.5" y="-418.3" font-family="Times,serif" font-size="14.00">r gdalcubes</text>
</a>
</g>
</g>
<!-- gdal&#45;&gt;r&#45;gdalcubes -->
<g id="edge9" class="edge">
<title>gdal&#45;&gt;r&#45;gdalcubes</title>
<path fill="none" stroke="black" d="M338.33,-548.15C349.53,-524.05 370.26,-479.45 383.71,-450.51"/>
<polygon fill="black" stroke="black" points="386.8,-452.18 387.84,-441.64 380.45,-449.23 386.8,-452.18"/>
</g>
<!-- r&#45;terra -->
<g id="node12" class="node">
<title>r&#45;terra</title>
<g id="a_node12"><a xlink:href="https://github.com/conda-forge/r-terra-feedstock" xlink:title="r terra">
<ellipse fill="#fde725" stroke="black" cx="457.5" cy="-350" rx="41.69" ry="18"/>
<text text-anchor="middle" x="457.5" y="-346.3" font-family="Times,serif" font-size="14.00">r terra</text>
</a>
</g>
</g>
<!-- gdal&#45;&gt;r&#45;terra -->
<g id="edge10" class="edge">
<title>gdal&#45;&gt;r&#45;terra</title>
<path fill="none" stroke="black" d="M352.76,-553.27C385.73,-534.47 446.27,-494.13 470.5,-440 479.13,-420.74 475.02,-397 469.22,-378.89"/>
<polygon fill="black" stroke="black" points="472.56,-377.83 465.89,-369.59 465.97,-380.19 472.56,-377.83"/>
</g>
<!-- mapserver -->
<g id="node13" class="node">
<title>mapserver</title>
<g id="a_node13"><a xlink:href="https://github.com/conda-forge/mapserver-feedstock" xlink:title="mapserver">
<ellipse fill="#fde725" stroke="black" cx="476.5" cy="-278" rx="60.5" ry="18"/>
<text text-anchor="middle" x="476.5" y="-274.3" font-family="Times,serif" font-size="14.00">mapserver</text>
</a>
</g>
</g>
<!-- gdal&#45;&gt;mapserver -->
<g id="edge11" class="edge">
<title>gdal&#45;&gt;mapserver</title>
<path fill="none" stroke="black" d="M357.81,-557.61C382.96,-549.69 420.11,-535.06 445.5,-512 472.93,-487.09 472.87,-474.04 487.5,-440 506.81,-395.07 521.62,-379.11 508.5,-332 505.95,-322.83 501.33,-313.65 496.38,-305.58"/>
<polygon fill="black" stroke="black" points="499.33,-303.7 490.9,-297.29 493.49,-307.56 499.33,-303.7"/>
</g>
<!-- pygplates -->
<g id="node14" class="node">
<title>pygplates</title>
<g id="a_node14"><a xlink:href="https://github.com/conda-forge/pygplates-feedstock" xlink:title="pygplates">
<ellipse fill="#fde725" stroke="black" cx="565.5" cy="-206" rx="56" ry="18"/>
<text text-anchor="middle" x="565.5" y="-202.3" font-family="Times,serif" font-size="14.00">pygplates</text>
</a>
</g>
</g>
<!-- gdal&#45;&gt;pygplates -->
<g id="edge12" class="edge">
<title>gdal&#45;&gt;pygplates</title>
<path fill="none" stroke="black" d="M360.26,-561.12C423.5,-551.05 565.5,-517.86 565.5,-423 565.5,-423 565.5,-423 565.5,-349 565.5,-309.74 565.5,-264.38 565.5,-235.69"/>
<polygon fill="black" stroke="black" points="569,-236 565.5,-226 562,-236 569,-236"/>
</g>
<!-- r&#45;lwgeom -->
<g id="node15" class="node">
<title>r&#45;lwgeom</title>
<g id="a_node15"><a xlink:href="https://github.com/conda-forge/r-lwgeom-feedstock" xlink:title="r lwgeom">
<ellipse fill="#fde725" stroke="black" cx="303.5" cy="-134" rx="54" ry="18"/>
<text text-anchor="middle" x="303.5" y="-130.3" font-family="Times,serif" font-size="14.00">r lwgeom</text>
</a>
</g>
</g>
<!-- r&#45;sf&#45;&gt;r&#45;lwgeom -->
<g id="edge13" class="edge">
<title>r&#45;sf&#45;&gt;r&#45;lwgeom</title>
<path fill="none" stroke="black" d="M303.5,-187.7C303.5,-180.41 303.5,-171.73 303.5,-163.54"/>
<polygon fill="black" stroke="black" points="307,-163.62 303.5,-153.62 300,-163.62 307,-163.62"/>
</g>
<!-- rasterio&#45;&gt;geowombat -->
<g id="edge14" class="edge">
<title>rasterio&#45;&gt;geowombat</title>
<path fill="none" stroke="black" d="M172.25,-477.12C162.65,-468.27 150.49,-457.07 139.73,-447.16"/>
<polygon fill="black" stroke="black" points="142.31,-444.78 132.58,-440.58 137.57,-449.93 142.31,-444.78"/>
</g>
<!-- geotiff -->
<g id="node16" class="node">
<title>geotiff</title>
<g id="a_node16"><a xlink:href="https://github.com/conda-forge/geotiff-feedstock" xlink:title="geotiff">
<ellipse fill="#35b779" stroke="black" cx="271.5" cy="-638" rx="40.5" ry="18"/>
<text text-anchor="middle" x="271.5" y="-634.3" font-family="Times,serif" font-size="14.00">geotiff</text>
</a>
</g>
</g>
<!-- geotiff&#45;&gt;gdal -->
<g id="edge15" class="edge">
<title>geotiff&#45;&gt;gdal</title>
<path fill="none" stroke="black" d="M285.18,-620.76C292.59,-611.98 301.87,-600.96 310.11,-591.19"/>
<polygon fill="black" stroke="black" points="312.55,-593.73 316.32,-583.82 307.2,-589.21 312.55,-593.73"/>
</g>
<!-- geotiff&#45;&gt;qgis -->
<g id="edge16" class="edge">
<title>geotiff&#45;&gt;qgis</title>
<path fill="none" stroke="black" d="M249.5,-622.6C210.21,-596.9 128,-543.09 83.91,-514.25"/>
<polygon fill="black" stroke="black" points="85.89,-511.36 75.61,-508.81 82.06,-517.22 85.89,-511.36"/>
</g>
<!-- libspatialite -->
<g id="node17" class="node">
<title>libspatialite</title>
<g id="a_node17"><a xlink:href="https://github.com/conda-forge/libspatialite-feedstock" xlink:title="libspatialite">
<ellipse fill="#35b779" stroke="black" cx="144.5" cy="-638" rx="65.79" ry="18"/>
<text text-anchor="middle" x="144.5" y="-634.3" font-family="Times,serif" font-size="14.00">libspatialite</text>
</a>
</g>
</g>
<!-- libspatialite&#45;&gt;gdal -->
<g id="edge17" class="edge">
<title>libspatialite&#45;&gt;gdal</title>
<path fill="none" stroke="black" d="M182.14,-622.83C214.9,-610.51 262.07,-592.75 294.37,-580.6"/>
<polygon fill="black" stroke="black" points="295.59,-583.88 303.72,-577.08 293.13,-577.33 295.59,-583.88"/>
</g>
<!-- libspatialite&#45;&gt;qgis -->
<g id="edge18" class="edge">
<title>libspatialite&#45;&gt;qgis</title>
<path fill="none" stroke="black" d="M134.11,-619.84C123.16,-601.85 105.34,-572.8 89.5,-548 83.78,-539.05 77.41,-529.33 71.69,-520.69"/>
<polygon fill="black" stroke="black" points="74.64,-518.81 66.19,-512.42 68.81,-522.68 74.64,-518.81"/>
</g>
<!-- magics -->
<g id="node18" class="node">
<title>magics</title>
<g id="a_node18"><a xlink:href="https://github.com/conda-forge/magics-feedstock" xlink:title="magics">
<ellipse fill="#35b779" stroke="black" cx="1080.5" cy="-422" rx="43.59" ry="18"/>
<text text-anchor="middle" x="1080.5" y="-418.3" font-family="Times,serif" font-size="14.00">magics</text>
</a>
</g>
</g>
<!-- magics&#45;&gt;cdo -->
<g id="edge19" class="edge">
<title>magics&#45;&gt;cdo</title>
<path fill="none" stroke="black" d="M1080.5,-403.7C1080.5,-396.41 1080.5,-387.73 1080.5,-379.54"/>
<polygon fill="black" stroke="black" points="1084,-379.62 1080.5,-369.62 1077,-379.62 1084,-379.62"/>
</g>
<!-- paraview -->
<g id="node19" class="node">
<title>paraview</title>
<g id="a_node19"><a xlink:href="https://github.com/conda-forge/paraview-feedstock" xlink:title="paraview">
<ellipse fill="#35b779" stroke="black" cx="914.5" cy="-494" rx="53.5" ry="18"/>
<text text-anchor="middle" x="914.5" y="-490.3" font-family="Times,serif" font-size="14.00">paraview</text>
</a>
</g>
</g>
<!-- magics&#45;metview -->
<g id="node20" class="node">
<title>magics&#45;metview</title>
<g id="a_node20"><a xlink:href="https://github.com/conda-forge/magics-metview-feedstock" xlink:title="magics metview">
<ellipse fill="#35b779" stroke="black" cx="914.5" cy="-422" rx="86" ry="18"/>
<text text-anchor="middle" x="914.5" y="-418.3" font-family="Times,serif" font-size="14.00">magics metview</text>
</a>
</g>
</g>
<!-- paraview&#45;&gt;magics&#45;metview -->
<!-- magics&#45;metview&#45;batch -->
<g id="node26" class="node">
<title>magics&#45;metview&#45;batch</title>
<g id="a_node26"><a xlink:href="https://github.com/conda-forge/magics-metview-batch-feedstock" xlink:title="magics metview batch">
<ellipse fill="#35b779" stroke="black" cx="914.5" cy="-350" rx="114.5" ry="18"/>
<text text-anchor="middle" x="914.5" y="-346.3" font-family="Times,serif" font-size="14.00">magics metview batch</text>
</a>
</g>
</g>
<!-- magics&#45;metview&#45;&gt;magics&#45;metview&#45;batch -->
<!-- pyproj -->
<g id="node21" class="node">
<title>pyproj</title>
<g id="a_node21"><a xlink:href="https://github.com/conda-forge/pyproj-feedstock" xlink:title="pyproj">
<ellipse fill="#35b779" stroke="black" cx="40.5" cy="-566" rx="40.5" ry="18"/>
<text text-anchor="middle" x="40.5" y="-562.3" font-family="Times,serif" font-size="14.00">pyproj</text>
</a>
</g>
</g>
<!-- pyproj&#45;&gt;qgis -->
<g id="edge21" class="edge">
<title>pyproj&#45;&gt;qgis</title>
<path fill="none" stroke="black" d="M43.96,-547.7C45.44,-540.32 47.2,-531.52 48.85,-523.25"/>
<polygon fill="black" stroke="black" points="52.25,-524.08 50.78,-513.59 45.39,-522.71 52.25,-524.08"/>
</g>
<!-- pyproj&#45;&gt;geowombat -->
<g id="edge22" class="edge">
<title>pyproj&#45;&gt;geowombat</title>
<path fill="none" stroke="black" d="M28.25,-548.57C15.96,-529.91 0.69,-499.06 14.5,-476 24.42,-459.43 41.49,-447.75 58.69,-439.65"/>
<polygon fill="black" stroke="black" points="59.59,-443.07 67.38,-435.89 56.82,-436.65 59.59,-443.07"/>
</g>
<!-- r&#45;proj4 -->
<g id="node22" class="node">
<title>r&#45;proj4</title>
<g id="a_node22"><a xlink:href="https://github.com/conda-forge/r-proj4-feedstock" xlink:title="r proj4">
<ellipse fill="#35b779" stroke="black" cx="395.5" cy="-90" rx="42.49" ry="18"/>
<text text-anchor="middle" x="395.5" y="-86.3" font-family="Times,serif" font-size="14.00">r proj4</text>
</a>
</g>
</g>
<!-- r&#45;gribr -->
<g id="node23" class="node">
<title>r&#45;gribr</title>
<g id="a_node23"><a xlink:href="https://github.com/conda-forge/r-gribr-feedstock" xlink:title="r gribr">
<ellipse fill="#fde725" stroke="black" cx="395.5" cy="-18" rx="41.69" ry="18"/>
<text text-anchor="middle" x="395.5" y="-14.3" font-family="Times,serif" font-size="14.00">r gribr</text>
</a>
</g>
</g>
<!-- r&#45;proj4&#45;&gt;r&#45;gribr -->
<g id="edge23" class="edge">
<title>r&#45;proj4&#45;&gt;r&#45;gribr</title>
<path fill="none" stroke="black" d="M395.5,-71.7C395.5,-64.41 395.5,-55.73 395.5,-47.54"/>
<polygon fill="black" stroke="black" points="399,-47.62 395.5,-37.62 392,-47.62 399,-47.62"/>
</g>
<!-- vtk -->
<g id="node24" class="node">
<title>vtk</title>
<g id="a_node24"><a xlink:href="https://github.com/conda-forge/vtk-feedstock" xlink:title="vtk">
<ellipse fill="#35b779" stroke="black" cx="914.5" cy="-90" rx="27" ry="18"/>
<text text-anchor="middle" x="914.5" y="-86.3" font-family="Times,serif" font-size="14.00">vtk</text>
</a>
</g>
</g>
<!-- visan -->
<g id="node25" class="node">
<title>visan</title>
<g id="a_node25"><a xlink:href="https://github.com/conda-forge/visan-feedstock" xlink:title="visan">
<ellipse fill="#fde725" stroke="black" cx="914.5" cy="-18" rx="35.19" ry="18"/>
<text text-anchor="middle" x="914.5" y="-14.3" font-family="Times,serif" font-size="14.00">visan</text>
</a>
</g>
</g>
<!-- vtk&#45;&gt;visan -->
<g id="edge24" class="edge">
<title>vtk&#45;&gt;visan</title>
<path fill="none" stroke="black" d="M914.5,-71.7C914.5,-64.41 914.5,-55.73 914.5,-47.54"/>
<polygon fill="black" stroke="black" points="918,-47.62 914.5,-37.62 911,-47.62 918,-47.62"/>
</g>
<!-- fimex -->
<g id="node27" class="node">
<title>fimex</title>
<g id="a_node27"><a xlink:href="https://github.com/conda-forge/fimex-feedstock" xlink:title="fimex">
<ellipse fill="#35b779" stroke="black" cx="914.5" cy="-278" rx="36.5" ry="18"/>
<text text-anchor="middle" x="914.5" y="-274.3" font-family="Times,serif" font-size="14.00">fimex</text>
</a>
</g>
</g>
<!-- magics&#45;metview&#45;batch&#45;&gt;fimex -->
</g>
</svg>
