<?xml version="1.0" encoding="UTF-8" standalone="no"?>
<!DOCTYPE svg PUBLIC "-//W3C//DTD SVG 1.1//EN"
 "http://www.w3.org/Graphics/SVG/1.1/DTD/svg11.dtd">
<!-- Generated by graphviz version 9.0.0 (20231125.0833)
 -->
<!-- Pages: 1 -->
<svg width="1046pt" height="664pt"
 viewBox="0.00 0.00 1045.74 664.00" xmlns="http://www.w3.org/2000/svg" xmlns:xlink="http://www.w3.org/1999/xlink">
<g id="graph0" class="graph" transform="scale(1 1) rotate(0) translate(4 660)">
<polygon fill="white" stroke="none" points="-4,4 -4,-660 1041.74,-660 1041.74,4 -4,4"/>
<!-- cdo -->
<g id="node1" class="node">
<title>cdo</title>
<g id="a_node1"><a xlink:href="https://github.com/conda-forge/cdo-feedstock" xlink:title="cdo">
<ellipse fill="#fde725" stroke="black" cx="991.27" cy="-350" rx="28.59" ry="18"/>
<text text-anchor="middle" x="991.27" y="-345.32" font-family="Times,serif" font-size="14.00">cdo</text>
</a>
</g>
</g>
<!-- gdal -->
<g id="node2" class="node">
<title>gdal</title>
<g id="a_node2"><a xlink:href="https://github.com/conda-forge/gdal-feedstock" xlink:title="gdal">
<ellipse fill="#fde725" stroke="black" cx="259.27" cy="-566" rx="32.79" ry="18"/>
<text text-anchor="middle" x="259.27" y="-561.33" font-family="Times,serif" font-size="14.00">gdal</text>
</a>
</g>
</g>
<!-- ncl -->
<g id="node3" class="node">
<title>ncl</title>
<g id="a_node3"><a xlink:href="https://github.com/conda-forge/ncl-feedstock" xlink:title="ncl">
<ellipse fill="#fde725" stroke="black" cx="109.27" cy="-494" rx="27" ry="18"/>
<text text-anchor="middle" x="109.27" y="-489.32" font-family="Times,serif" font-size="14.00">ncl</text>
</a>
</g>
</g>
<!-- gdal&#45;&gt;ncl -->
<g id="edge1" class="edge">
<title>gdal&#45;&gt;ncl</title>
<path fill="none" stroke="black" d="M234.83,-553.6C209.22,-541.64 168.87,-522.81 140.85,-509.74"/>
<polygon fill="black" stroke="black" points="142.69,-506.73 132.14,-505.68 139.73,-513.08 142.69,-506.73"/>
</g>
<!-- postgis -->
<g id="node4" class="node">
<title>postgis</title>
<g id="a_node4"><a xlink:href="https://github.com/conda-forge/postgis-feedstock" xlink:title="postgis">
<ellipse fill="#fde725" stroke="black" cx="126.27" cy="-422" rx="47.53" ry="18"/>
<text text-anchor="middle" x="126.27" y="-417.32" font-family="Times,serif" font-size="14.00">postgis</text>
</a>
</g>
</g>
<!-- gdal&#45;&gt;postgis -->
<g id="edge2" class="edge">
<title>gdal&#45;&gt;postgis</title>
<path fill="none" stroke="black" d="M238.29,-551.96C223.36,-542.08 203.35,-527.59 188.27,-512 169.93,-493.05 153.1,-468.19 141.61,-449.57"/>
<polygon fill="black" stroke="black" points="144.75,-447.99 136.59,-441.23 138.76,-451.6 144.75,-447.99"/>
</g>
<!-- pynio -->
<g id="node5" class="node">
<title>pynio</title>
<g id="a_node5"><a xlink:href="https://github.com/conda-forge/pynio-feedstock" xlink:title="pynio">
<ellipse fill="#fde725" stroke="black" cx="173.27" cy="-350" rx="38.58" ry="18"/>
<text text-anchor="middle" x="173.27" y="-345.32" font-family="Times,serif" font-size="14.00">pynio</text>
</a>
</g>
</g>
<!-- gdal&#45;&gt;pynio -->
<g id="edge3" class="edge">
<title>gdal&#45;&gt;pynio</title>
<path fill="none" stroke="black" d="M247.81,-548.86C240.91,-538.65 232.33,-524.96 226.27,-512 205.28,-467.13 188.98,-411.66 180.28,-378.93"/>
<polygon fill="black" stroke="black" points="183.71,-378.22 177.8,-369.42 176.93,-379.98 183.71,-378.22"/>
</g>
<!-- qgis -->
<g id="node6" class="node">
<title>qgis</title>
<g id="a_node6"><a xlink:href="https://github.com/conda-forge/qgis-feedstock" xlink:title="qgis">
<ellipse fill="#fde725" stroke="black" cx="32.27" cy="-494" rx="32.27" ry="18"/>
<text text-anchor="middle" x="32.27" y="-489.32" font-family="Times,serif" font-size="14.00">qgis</text>
</a>
</g>
</g>
<!-- gdal&#45;&gt;qgis -->
<g id="edge4" class="edge">
<title>gdal&#45;&gt;qgis</title>
<path fill="none" stroke="black" d="M229.62,-557.68C192.64,-548.3 127.65,-530.95 73.27,-512 71.47,-511.37 69.63,-510.71 67.78,-510.02"/>
<polygon fill="black" stroke="black" points="69.24,-506.83 58.65,-506.44 66.69,-513.35 69.24,-506.83"/>
</g>
<!-- r&#45;rgdal -->
<g id="node7" class="node">
<title>r&#45;rgdal</title>
<g id="a_node7"><a xlink:href="https://github.com/conda-forge/r-rgdal-feedstock" xlink:title="r rgdal">
<ellipse fill="#fde725" stroke="black" cx="205.27" cy="-278" rx="45.42" ry="18"/>
<text text-anchor="middle" x="205.27" y="-273.32" font-family="Times,serif" font-size="14.00">r rgdal</text>
</a>
</g>
</g>
<!-- gdal&#45;&gt;r&#45;rgdal -->
<g id="edge5" class="edge">
<title>gdal&#45;&gt;r&#45;rgdal</title>
<path fill="none" stroke="black" d="M257.23,-547.6C252.48,-508.66 239.7,-411.66 221.27,-332 219.35,-323.73 216.85,-314.85 214.4,-306.77"/>
<polygon fill="black" stroke="black" points="217.82,-305.97 211.49,-297.48 211.14,-308.07 217.82,-305.97"/>
</g>
<!-- r&#45;sf -->
<g id="node8" class="node">
<title>r&#45;sf</title>
<g id="a_node8"><a xlink:href="https://github.com/conda-forge/r-sf-feedstock" xlink:title="r sf">
<ellipse fill="#fde725" stroke="black" cx="278.27" cy="-206" rx="28.06" ry="18"/>
<text text-anchor="middle" x="278.27" y="-201.33" font-family="Times,serif" font-size="14.00">r sf</text>
</a>
</g>
</g>
<!-- gdal&#45;&gt;r&#45;sf -->
<g id="edge6" class="edge">
<title>gdal&#45;&gt;r&#45;sf</title>
<path fill="none" stroke="black" d="M263.02,-548.05C268.56,-521.52 278.27,-468.52 278.27,-423 278.27,-423 278.27,-423 278.27,-349 278.27,-309.74 278.27,-264.38 278.27,-235.69"/>
<polygon fill="black" stroke="black" points="281.77,-236 278.27,-226 274.77,-236 281.77,-236"/>
</g>
<!-- rasterio -->
<g id="node9" class="node">
<title>rasterio</title>
<g id="a_node9"><a xlink:href="https://github.com/conda-forge/rasterio-feedstock" xlink:title="rasterio">
<ellipse fill="#fde725" stroke="black" cx="357.27" cy="-494" rx="50.68" ry="18"/>
<text text-anchor="middle" x="357.27" y="-489.32" font-family="Times,serif" font-size="14.00">rasterio</text>
</a>
</g>
</g>
<!-- gdal&#45;&gt;rasterio -->
<g id="edge7" class="edge">
<title>gdal&#45;&gt;rasterio</title>
<path fill="none" stroke="black" d="M278.63,-551.17C292.21,-541.47 310.66,-528.29 326.27,-517.14"/>
<polygon fill="black" stroke="black" points="328.22,-520.05 334.33,-511.39 324.16,-514.35 328.22,-520.05"/>
</g>
<!-- r&#45;gdalcubes -->
<g id="node10" class="node">
<title>r&#45;gdalcubes</title>
<g id="a_node10"><a xlink:href="https://github.com/conda-forge/r-gdalcubes-feedstock" xlink:title="r gdalcubes">
<ellipse fill="#fde725" stroke="black" cx="376.27" cy="-422" rx="69.62" ry="18"/>
<text text-anchor="middle" x="376.27" y="-417.32" font-family="Times,serif" font-size="14.00">r gdalcubes</text>
</a>
</g>
</g>
<!-- gdal&#45;&gt;r&#45;gdalcubes -->
<g id="edge8" class="edge">
<title>gdal&#45;&gt;r&#45;gdalcubes</title>
<path fill="none" stroke="black" d="M292.38,-564.51C329.71,-561.95 388.88,-551.46 417.27,-512 431.44,-492.3 417.09,-466.92 401.6,-448.3"/>
<polygon fill="black" stroke="black" points="404.28,-446.06 395.03,-440.9 399.04,-450.7 404.28,-446.06"/>
</g>
<!-- r&#45;terra -->
<g id="node11" class="node">
<title>r&#45;terra</title>
<g id="a_node11"><a xlink:href="https://github.com/conda-forge/r-terra-feedstock" xlink:title="r terra">
<ellipse fill="#fde725" stroke="black" cx="457.27" cy="-350" rx="44.37" ry="18"/>
<text text-anchor="middle" x="457.27" y="-345.32" font-family="Times,serif" font-size="14.00">r terra</text>
</a>
</g>
</g>
<!-- gdal&#45;&gt;r&#45;terra -->
<g id="edge9" class="edge">
<title>gdal&#45;&gt;r&#45;terra</title>
<path fill="none" stroke="black" d="M292.05,-564.09C331.21,-561.21 396.19,-550.47 434.27,-512 468.71,-477.2 467.05,-415.68 462.39,-379.6"/>
<polygon fill="black" stroke="black" points="465.88,-379.3 460.96,-369.91 458.95,-380.32 465.88,-379.3"/>
</g>
<!-- mapserver -->
<g id="node12" class="node">
<title>mapserver</title>
<g id="a_node12"><a xlink:href="https://github.com/conda-forge/mapserver-feedstock" xlink:title="mapserver">
<ellipse fill="#fde725" stroke="black" cx="529.27" cy="-278" rx="64.89" ry="18"/>
<text text-anchor="middle" x="529.27" y="-273.32" font-family="Times,serif" font-size="14.00">mapserver</text>
</a>
</g>
</g>
<!-- gdal&#45;&gt;mapserver -->
<g id="edge10" class="edge">
<title>gdal&#45;&gt;mapserver</title>
<path fill="none" stroke="black" d="M292.41,-565.25C336.12,-563.78 412.92,-554.73 459.27,-512 517.82,-458.03 528.09,-357.19 529.45,-307.78"/>
<polygon fill="black" stroke="black" points="532.94,-307.95 529.6,-297.9 525.94,-307.85 532.94,-307.95"/>
</g>
<!-- pygplates -->
<g id="node13" class="node">
<title>pygplates</title>
<g id="a_node13"><a xlink:href="https://github.com/conda-forge/pygplates-feedstock" xlink:title="pygplates">
<ellipse fill="#fde725" stroke="black" cx="622.27" cy="-206" rx="60.15" ry="18"/>
<text text-anchor="middle" x="622.27" y="-201.33" font-family="Times,serif" font-size="14.00">pygplates</text>
</a>
</g>
</g>
<!-- gdal&#45;&gt;pygplates -->
<g id="edge11" class="edge">
<title>gdal&#45;&gt;pygplates</title>
<path fill="none" stroke="black" d="M290.53,-559.72C378.58,-543.97 622.27,-493.97 622.27,-423 622.27,-423 622.27,-423 622.27,-349 622.27,-309.74 622.27,-264.38 622.27,-235.69"/>
<polygon fill="black" stroke="black" points="625.77,-236 622.27,-226 618.77,-236 625.77,-236"/>
</g>
<!-- r&#45;lwgeom -->
<g id="node14" class="node">
<title>r&#45;lwgeom</title>
<g id="a_node14"><a xlink:href="https://github.com/conda-forge/r-lwgeom-feedstock" xlink:title="r lwgeom">
<ellipse fill="#fde725" stroke="black" cx="278.27" cy="-134" rx="58.05" ry="18"/>
<text text-anchor="middle" x="278.27" y="-129.32" font-family="Times,serif" font-size="14.00">r lwgeom</text>
</a>
</g>
</g>
<!-- r&#45;sf&#45;&gt;r&#45;lwgeom -->
<g id="edge12" class="edge">
<title>r&#45;sf&#45;&gt;r&#45;lwgeom</title>
<path fill="none" stroke="black" d="M278.27,-187.7C278.27,-180.41 278.27,-171.73 278.27,-163.54"/>
<polygon fill="black" stroke="black" points="281.77,-163.62 278.27,-153.62 274.77,-163.62 281.77,-163.62"/>
</g>
<!-- geotiff -->
<g id="node15" class="node">
<title>geotiff</title>
<g id="a_node15"><a xlink:href="https://github.com/conda-forge/geotiff-feedstock/pull/63" xlink:title="geotiff ❎">
<ellipse fill="#31688e" stroke="black" cx="136.27" cy="-638" rx="58.57" ry="18"/>
<text text-anchor="middle" x="136.27" y="-633.33" font-family="Times,serif" font-size="14.00" fill="white">geotiff ❎</text>
</a>
</g>
</g>
<!-- geotiff&#45;&gt;gdal -->
<g id="edge13" class="edge">
<title>geotiff&#45;&gt;gdal</title>
<path fill="none" stroke="black" d="M163.26,-621.64C182.17,-610.88 207.51,-596.45 227.41,-585.13"/>
<polygon fill="black" stroke="black" points="228.99,-588.26 235.95,-580.27 225.52,-582.18 228.99,-588.26"/>
</g>
<!-- geotiff&#45;&gt;qgis -->
<g id="edge14" class="edge">
<title>geotiff&#45;&gt;qgis</title>
<path fill="none" stroke="black" d="M101.23,-623.13C83.66,-614.43 63.55,-601.51 51.27,-584 38.91,-566.39 34.32,-542.33 32.74,-523.67"/>
<polygon fill="black" stroke="black" points="36.24,-523.6 32.16,-513.82 29.25,-524 36.24,-523.6"/>
</g>
<!-- magics -->
<g id="node16" class="node">
<title>magics</title>
<g id="a_node16"><a xlink:href="https://github.com/conda-forge/magics-feedstock" xlink:title="magics">
<ellipse fill="#35b779" stroke="black" cx="991.27" cy="-422" rx="46.47" ry="18"/>
<text text-anchor="middle" x="991.27" y="-417.32" font-family="Times,serif" font-size="14.00">magics</text>
</a>
</g>
</g>
<!-- magics&#45;&gt;cdo -->
<g id="edge15" class="edge">
<title>magics&#45;&gt;cdo</title>
<path fill="none" stroke="black" d="M991.27,-403.7C991.27,-396.41 991.27,-387.73 991.27,-379.54"/>
<polygon fill="black" stroke="black" points="994.77,-379.62 991.27,-369.62 987.77,-379.62 994.77,-379.62"/>
</g>
<!-- paraview -->
<g id="node17" class="node">
<title>paraview</title>
<g id="a_node17"><a xlink:href="https://github.com/conda-forge/paraview-feedstock" xlink:title="paraview">
<ellipse fill="#35b779" stroke="black" cx="813.27" cy="-602" rx="57" ry="18"/>
<text text-anchor="middle" x="813.27" y="-597.33" font-family="Times,serif" font-size="14.00">paraview</text>
</a>
</g>
</g>
<!-- r&#45;proj4 -->
<g id="node18" class="node">
<title>r&#45;proj4</title>
<g id="a_node18"><a xlink:href="https://github.com/conda-forge/r-proj4-feedstock" xlink:title="r proj4">
<ellipse fill="#35b779" stroke="black" cx="813.27" cy="-530" rx="45.42" ry="18"/>
<text text-anchor="middle" x="813.27" y="-525.33" font-family="Times,serif" font-size="14.00">r proj4</text>
</a>
</g>
</g>
<!-- paraview&#45;&gt;r&#45;proj4 -->
<!-- usgscsm -->
<g id="node20" class="node">
<title>usgscsm</title>
<g id="a_node20"><a xlink:href="https://github.com/conda-forge/usgscsm-feedstock" xlink:title="usgscsm">
<ellipse fill="#35b779" stroke="black" cx="813.27" cy="-458" rx="54.36" ry="18"/>
<text text-anchor="middle" x="813.27" y="-453.32" font-family="Times,serif" font-size="14.00">usgscsm</text>
</a>
</g>
</g>
<!-- r&#45;proj4&#45;&gt;usgscsm -->
<!-- pyproj -->
<g id="node19" class="node">
<title>pyproj</title>
<g id="a_node19"><a xlink:href="https://github.com/conda-forge/pyproj-feedstock/pull/147" xlink:title="pyproj ❎">
<ellipse fill="#31688e" stroke="black" cx="119.27" cy="-566" rx="58.57" ry="18"/>
<text text-anchor="middle" x="119.27" y="-561.33" font-family="Times,serif" font-size="14.00" fill="white">pyproj ❎</text>
</a>
</g>
</g>
<!-- pyproj&#45;&gt;qgis -->
<g id="edge17" class="edge">
<title>pyproj&#45;&gt;qgis</title>
<path fill="none" stroke="black" d="M99.09,-548.76C87.13,-539.14 71.84,-526.84 58.9,-516.43"/>
<polygon fill="black" stroke="black" points="61.14,-513.74 51.16,-510.2 56.76,-519.19 61.14,-513.74"/>
</g>
<!-- magics&#45;metview -->
<g id="node23" class="node">
<title>magics&#45;metview</title>
<g id="a_node23"><a xlink:href="https://github.com/conda-forge/magics-metview-feedstock" xlink:title="magics metview">
<ellipse fill="#35b779" stroke="black" cx="813.27" cy="-386" rx="92.25" ry="18"/>
<text text-anchor="middle" x="813.27" y="-381.32" font-family="Times,serif" font-size="14.00">magics metview</text>
</a>
</g>
</g>
<!-- usgscsm&#45;&gt;magics&#45;metview -->
<!-- vtk -->
<g id="node21" class="node">
<title>vtk</title>
<g id="a_node21"><a xlink:href="https://github.com/conda-forge/vtk-feedstock" xlink:title="vtk">
<ellipse fill="#ff8c00" stroke="black" cx="341.27" cy="-90" rx="27.01" ry="18"/>
<text text-anchor="middle" x="341.27" y="-85.33" font-family="Times,serif" font-size="14.00">vtk</text>
</a>
</g>
</g>
<!-- visan -->
<g id="node22" class="node">
<title>visan</title>
<g id="a_node22"><a xlink:href="https://github.com/conda-forge/visan-feedstock" xlink:title="visan">
<ellipse fill="#fde725" stroke="black" cx="341.27" cy="-18" rx="37.53" ry="18"/>
<text text-anchor="middle" x="341.27" y="-13.32" font-family="Times,serif" font-size="14.00">visan</text>
</a>
</g>
</g>
<!-- vtk&#45;&gt;visan -->
<g id="edge19" class="edge">
<title>vtk&#45;&gt;visan</title>
<path fill="none" stroke="black" d="M341.27,-71.7C341.27,-64.41 341.27,-55.73 341.27,-47.54"/>
<polygon fill="black" stroke="black" points="344.77,-47.62 341.27,-37.62 337.77,-47.62 344.77,-47.62"/>
</g>
<!-- magics&#45;metview&#45;batch -->
<g id="node24" class="node">
<title>magics&#45;metview&#45;batch</title>
<g id="a_node24"><a xlink:href="https://github.com/conda-forge/magics-metview-batch-feedstock" xlink:title="magics metview batch">
<ellipse fill="#35b779" stroke="black" cx="813.27" cy="-314" rx="123.29" ry="18"/>
<text text-anchor="middle" x="813.27" y="-309.32" font-family="Times,serif" font-size="14.00">magics metview batch</text>
</a>
</g>
</g>
<!-- magics&#45;metview&#45;&gt;magics&#45;metview&#45;batch -->
<!-- fimex -->
<g id="node25" class="node">
<title>fimex</title>
<g id="a_node25"><a xlink:href="https://github.com/conda-forge/fimex-feedstock" xlink:title="fimex">
<ellipse fill="#35b779" stroke="black" cx="813.27" cy="-242" rx="38.58" ry="18"/>
<text text-anchor="middle" x="813.27" y="-237.32" font-family="Times,serif" font-size="14.00">fimex</text>
</a>
</g>
</g>
<!-- magics&#45;metview&#45;batch&#45;&gt;fimex -->
<!-- r&#45;proj -->
<g id="node26" class="node">
<title>r&#45;proj</title>
<g id="a_node26"><a xlink:href="https://github.com/conda-forge/r-proj-feedstock" xlink:title="r proj">
<ellipse fill="#35b779" stroke="black" cx="813.27" cy="-170" rx="39.11" ry="18"/>
<text text-anchor="middle" x="813.27" y="-165.32" font-family="Times,serif" font-size="14.00">r proj</text>
</a>
</g>
</g>
<!-- fimex&#45;&gt;r&#45;proj -->
</g>
</svg>
