<?xml version="1.0" encoding="UTF-8" standalone="no"?>
<!DOCTYPE svg PUBLIC "-//W3C//DTD SVG 1.1//EN"
 "http://www.w3.org/Graphics/SVG/1.1/DTD/svg11.dtd">
<!-- Generated by graphviz version 8.0.5 (20230506.1012)
 -->
<!-- Pages: 1 -->
<svg width="1237pt" height="1140pt"
 viewBox="0.00 0.00 1237.36 1140.00" xmlns="http://www.w3.org/2000/svg" xmlns:xlink="http://www.w3.org/1999/xlink">
<g id="graph0" class="graph" transform="scale(1 1) rotate(0) translate(4 1136)">
<polygon fill="white" stroke="none" points="-4,4 -4,-1136 1233.36,-1136 1233.36,4 -4,4"/>
<!-- arrow&#45;cpp -->
<g id="node1" class="node">
<title>arrow&#45;cpp</title>
<g id="a_node1"><a xlink:href="https://github.com/conda-forge/arrow-cpp-feedstock" xlink:title="arrow cpp">
<ellipse fill="#fde725" stroke="black" cx="1061.7" cy="-682" rx="61.73" ry="18"/>
<text text-anchor="middle" x="1061.7" y="-677.33" font-family="Times,serif" font-size="14.00">arrow cpp</text>
</a>
</g>
</g>
<!-- bazel -->
<g id="node2" class="node">
<title>bazel</title>
<g id="a_node2"><a xlink:href="https://github.com/conda-forge/bazel-feedstock" xlink:title="bazel">
<ellipse fill="#ff8c00" stroke="black" cx="131.7" cy="-1114" rx="37.53" ry="18"/>
<text text-anchor="middle" x="131.7" y="-1109.33" font-family="Times,serif" font-size="14.00">bazel</text>
</a>
</g>
</g>
<!-- onnx -->
<g id="node3" class="node">
<title>onnx</title>
<g id="a_node3"><a xlink:href="https://github.com/conda-forge/onnx-feedstock/pull/96" xlink:title="onnx ❎">
<ellipse fill="#31688e" stroke="black" cx="131.7" cy="-1042" rx="50.68" ry="18"/>
<text text-anchor="middle" x="131.7" y="-1037.33" font-family="Times,serif" font-size="14.00" fill="white">onnx ❎</text>
</a>
</g>
</g>
<!-- bazel&#45;&gt;onnx -->
<!-- paraview -->
<g id="node6" class="node">
<title>paraview</title>
<g id="a_node6"><a xlink:href="https://github.com/conda-forge/paraview-feedstock/pull/195" xlink:title="paraview ❎">
<ellipse fill="#31688e" stroke="black" cx="131.7" cy="-970" rx="72.25" ry="18"/>
<text text-anchor="middle" x="131.7" y="-965.33" font-family="Times,serif" font-size="14.00" fill="white">paraview ❎</text>
</a>
</g>
</g>
<!-- onnx&#45;&gt;paraview -->
<!-- mysql -->
<g id="node4" class="node">
<title>mysql</title>
<g id="a_node4"><a xlink:href="https://github.com/conda-forge/mysql-feedstock/pull/78" xlink:title="mysql ❎">
<ellipse fill="#31688e" stroke="black" cx="131.7" cy="-90" rx="56.47" ry="18"/>
<text text-anchor="middle" x="131.7" y="-85.33" font-family="Times,serif" font-size="14.00" fill="white">mysql ❎</text>
</a>
</g>
</g>
<!-- mysql&#45;connector&#45;python -->
<g id="node5" class="node">
<title>mysql&#45;connector&#45;python</title>
<g id="a_node5"><a xlink:href="https://github.com/conda-forge/mysql-connector-python-feedstock" xlink:title="mysql connector python">
<ellipse fill="#fde725" stroke="black" cx="131.7" cy="-18" rx="131.7" ry="18"/>
<text text-anchor="middle" x="131.7" y="-13.32" font-family="Times,serif" font-size="14.00">mysql connector python</text>
</a>
</g>
</g>
<!-- mysql&#45;&gt;mysql&#45;connector&#45;python -->
<g id="edge2" class="edge">
<title>mysql&#45;&gt;mysql&#45;connector&#45;python</title>
<path fill="none" stroke="black" d="M131.7,-71.7C131.7,-64.24 131.7,-55.32 131.7,-46.97"/>
<polygon fill="black" stroke="black" points="135.2,-47.1 131.7,-37.1 128.2,-47.1 135.2,-47.1"/>
</g>
<!-- qgis -->
<g id="node10" class="node">
<title>qgis</title>
<g id="a_node10"><a xlink:href="https://github.com/conda-forge/qgis-feedstock/pull/332" xlink:title="qgis ❎">
<ellipse fill="#31688e" stroke="black" cx="131.7" cy="-898" rx="47.53" ry="18"/>
<text text-anchor="middle" x="131.7" y="-893.33" font-family="Times,serif" font-size="14.00" fill="white">qgis ❎</text>
</a>
</g>
</g>
<!-- paraview&#45;&gt;qgis -->
<!-- opencv -->
<g id="node7" class="node">
<title>opencv</title>
<g id="a_node7"><a xlink:href="https://github.com/conda-forge/opencv-feedstock/pull/362" xlink:title="opencv ❎">
<ellipse fill="#31688e" stroke="black" cx="494.7" cy="-278" rx="61.73" ry="18"/>
<text text-anchor="middle" x="494.7" y="-273.32" font-family="Times,serif" font-size="14.00" fill="white">opencv ❎</text>
</a>
</g>
</g>
<!-- imp -->
<g id="node8" class="node">
<title>imp</title>
<g id="a_node8"><a xlink:href="https://github.com/conda-forge/imp-feedstock" xlink:title="imp">
<ellipse fill="#fde725" stroke="black" cx="477.7" cy="-206" rx="30.16" ry="18"/>
<text text-anchor="middle" x="477.7" y="-201.32" font-family="Times,serif" font-size="14.00">imp</text>
</a>
</g>
</g>
<!-- opencv&#45;&gt;imp -->
<g id="edge4" class="edge">
<title>opencv&#45;&gt;imp</title>
<path fill="none" stroke="black" d="M490.5,-259.7C488.67,-252.15 486.47,-243.12 484.43,-234.68"/>
<polygon fill="black" stroke="black" points="487.62,-234 481.86,-225.1 480.82,-235.65 487.62,-234"/>
</g>
<!-- gazebo&#45;yarp&#45;plugins -->
<g id="node9" class="node">
<title>gazebo&#45;yarp&#45;plugins</title>
<g id="a_node9"><a xlink:href="https://github.com/conda-forge/gazebo-yarp-plugins-feedstock" xlink:title="gazebo yarp plugins">
<ellipse fill="#fde725" stroke="black" cx="637.7" cy="-206" rx="112.24" ry="18"/>
<text text-anchor="middle" x="637.7" y="-201.32" font-family="Times,serif" font-size="14.00">gazebo yarp plugins</text>
</a>
</g>
</g>
<!-- opencv&#45;&gt;gazebo&#45;yarp&#45;plugins -->
<g id="edge5" class="edge">
<title>opencv&#45;&gt;gazebo&#45;yarp&#45;plugins</title>
<path fill="none" stroke="black" d="M525.38,-261.98C545.38,-252.19 571.78,-239.27 593.97,-228.41"/>
<polygon fill="black" stroke="black" points="595.38,-231.12 602.82,-223.58 592.3,-224.84 595.38,-231.12"/>
</g>
<!-- tensorflow -->
<g id="node11" class="node">
<title>tensorflow</title>
<g id="a_node11"><a xlink:href="https://github.com/conda-forge/tensorflow-feedstock" xlink:title="tensorflow">
<ellipse fill="#ff8c00" stroke="black" cx="131.7" cy="-826" rx="63.84" ry="18"/>
<text text-anchor="middle" x="131.7" y="-821.33" font-family="Times,serif" font-size="14.00">tensorflow</text>
</a>
</g>
</g>
<!-- qgis&#45;&gt;tensorflow -->
<!-- libhdfs3 -->
<g id="node12" class="node">
<title>libhdfs3</title>
<g id="a_node12"><a xlink:href="https://github.com/conda-forge/libhdfs3-feedstock/pull/50" xlink:title="libhdfs3 ❎">
<ellipse fill="#31688e" stroke="black" cx="131.7" cy="-754" rx="66.99" ry="18"/>
<text text-anchor="middle" x="131.7" y="-749.33" font-family="Times,serif" font-size="14.00" fill="white">libhdfs3 ❎</text>
</a>
</g>
</g>
<!-- tensorflow&#45;&gt;libhdfs3 -->
<!-- jaxlib -->
<g id="node13" class="node">
<title>jaxlib</title>
<g id="a_node13"><a xlink:href="https://github.com/conda-forge/jaxlib-feedstock/pull/179" xlink:title="jaxlib ❎">
<ellipse fill="#31688e" stroke="black" cx="131.7" cy="-682" rx="53.84" ry="18"/>
<text text-anchor="middle" x="131.7" y="-677.33" font-family="Times,serif" font-size="14.00" fill="white">jaxlib ❎</text>
</a>
</g>
</g>
<!-- libhdfs3&#45;&gt;jaxlib -->
<!-- zaber&#45;motion -->
<g id="node15" class="node">
<title>zaber&#45;motion</title>
<g id="a_node15"><a xlink:href="https://github.com/conda-forge/zaber-motion-feedstock/pull/104" xlink:title="zaber motion ❎">
<ellipse fill="#31688e" stroke="black" cx="131.7" cy="-610" rx="92.25" ry="18"/>
<text text-anchor="middle" x="131.7" y="-605.33" font-family="Times,serif" font-size="14.00" fill="white">zaber motion ❎</text>
</a>
</g>
</g>
<!-- jaxlib&#45;&gt;zaber&#45;motion -->
<!-- pytorch&#45;cpu -->
<g id="node14" class="node">
<title>pytorch&#45;cpu</title>
<g id="a_node14"><a xlink:href="https://github.com/conda-forge/pytorch-cpu-feedstock/pull/170" xlink:title="pytorch cpu ❎">
<ellipse fill="#31688e" stroke="black" cx="1004.7" cy="-754" rx="85.93" ry="18"/>
<text text-anchor="middle" x="1004.7" y="-749.33" font-family="Times,serif" font-size="14.00" fill="white">pytorch cpu ❎</text>
</a>
</g>
</g>
<!-- pytorch&#45;cpu&#45;&gt;arrow&#45;cpp -->
<g id="edge10" class="edge">
<title>pytorch&#45;cpu&#45;&gt;arrow&#45;cpp</title>
<path fill="none" stroke="black" d="M1018.5,-736.05C1025.29,-727.71 1033.62,-717.49 1041.14,-708.25"/>
<polygon fill="black" stroke="black" points="1044.43,-710.75 1048.03,-700.79 1039,-706.33 1044.43,-710.75"/>
</g>
<!-- go&#45;cockroach -->
<g id="node24" class="node">
<title>go&#45;cockroach</title>
<g id="a_node24"><a xlink:href="https://github.com/conda-forge/go-cockroach-feedstock" xlink:title="go cockroach">
<ellipse fill="#ff8c00" stroke="black" cx="131.7" cy="-538" rx="76.46" ry="18"/>
<text text-anchor="middle" x="131.7" y="-533.33" font-family="Times,serif" font-size="14.00">go cockroach</text>
</a>
</g>
</g>
<!-- zaber&#45;motion&#45;&gt;go&#45;cockroach -->
<!-- libignition&#45;transport4 -->
<g id="node16" class="node">
<title>libignition&#45;transport4</title>
<g id="a_node16"><a xlink:href="https://github.com/conda-forge/libignition-transport4-feedstock" xlink:title="libignition transport4">
<ellipse fill="#fde725" stroke="black" cx="476.7" cy="-826" rx="119.08" ry="18"/>
<text text-anchor="middle" x="476.7" y="-821.33" font-family="Times,serif" font-size="14.00">libignition transport4</text>
</a>
</g>
</g>
<!-- libignition&#45;sensors -->
<g id="node17" class="node">
<title>libignition&#45;sensors</title>
<g id="a_node17"><a xlink:href="https://github.com/conda-forge/libignition-sensors-feedstock" xlink:title="libignition sensors">
<ellipse fill="#fde725" stroke="black" cx="631.7" cy="-754" rx="103.82" ry="18"/>
<text text-anchor="middle" x="631.7" y="-749.33" font-family="Times,serif" font-size="14.00">libignition sensors</text>
</a>
</g>
</g>
<!-- libignition&#45;transport4&#45;&gt;libignition&#45;sensors -->
<g id="edge12" class="edge">
<title>libignition&#45;transport4&#45;&gt;libignition&#45;sensors</title>
<path fill="none" stroke="black" d="M513.44,-808.41C535.04,-798.66 562.55,-786.23 585.59,-775.82"/>
<polygon fill="black" stroke="black" points="586.83,-778.65 594.5,-771.35 583.95,-772.28 586.83,-778.65"/>
</g>
<!-- libignition&#45;gui -->
<g id="node18" class="node">
<title>libignition&#45;gui</title>
<g id="a_node18"><a xlink:href="https://github.com/conda-forge/libignition-gui-feedstock" xlink:title="libignition gui">
<ellipse fill="#fde725" stroke="black" cx="352.7" cy="-754" rx="81.2" ry="18"/>
<text text-anchor="middle" x="352.7" y="-749.33" font-family="Times,serif" font-size="14.00">libignition gui</text>
</a>
</g>
</g>
<!-- libignition&#45;transport4&#45;&gt;libignition&#45;gui -->
<g id="edge13" class="edge">
<title>libignition&#45;transport4&#45;&gt;libignition&#45;gui</title>
<path fill="none" stroke="black" d="M447,-808.23C430.04,-798.66 408.6,-786.56 390.46,-776.31"/>
<polygon fill="black" stroke="black" points="392.74,-773.02 382.31,-771.15 389.3,-779.11 392.74,-773.02"/>
</g>
<!-- libignition&#45;gazebo -->
<g id="node19" class="node">
<title>libignition&#45;gazebo</title>
<g id="a_node19"><a xlink:href="https://github.com/conda-forge/libignition-gazebo-feedstock" xlink:title="libignition gazebo">
<ellipse fill="#fde725" stroke="black" cx="611.7" cy="-682" rx="100.66" ry="18"/>
<text text-anchor="middle" x="611.7" y="-677.33" font-family="Times,serif" font-size="14.00">libignition gazebo</text>
</a>
</g>
</g>
<!-- libignition&#45;transport4&#45;&gt;libignition&#45;gazebo -->
<g id="edge14" class="edge">
<title>libignition&#45;transport4&#45;&gt;libignition&#45;gazebo</title>
<path fill="none" stroke="black" d="M481.37,-807.8C487.35,-788.43 499.32,-756.94 518.7,-736 530.93,-722.79 547.23,-711.98 562.76,-703.66"/>
<polygon fill="black" stroke="black" points="563.97,-706.46 571.29,-698.8 560.79,-700.22 563.97,-706.46"/>
</g>
<!-- libignition&#45;launch -->
<g id="node20" class="node">
<title>libignition&#45;launch</title>
<g id="a_node20"><a xlink:href="https://github.com/conda-forge/libignition-launch-feedstock" xlink:title="libignition launch">
<ellipse fill="#fde725" stroke="black" cx="546.7" cy="-610" rx="98.56" ry="18"/>
<text text-anchor="middle" x="546.7" y="-605.33" font-family="Times,serif" font-size="14.00">libignition launch</text>
</a>
</g>
</g>
<!-- libignition&#45;transport4&#45;&gt;libignition&#45;launch -->
<g id="edge15" class="edge">
<title>libignition&#45;transport4&#45;&gt;libignition&#45;launch</title>
<path fill="none" stroke="black" d="M476.37,-807.68C476.44,-777.2 479.47,-712.62 501.7,-664 506.32,-653.9 513.44,-644.21 520.66,-635.94"/>
<polygon fill="black" stroke="black" points="522.89,-638.6 527.11,-628.89 517.75,-633.85 522.89,-638.6"/>
</g>
<!-- libignition&#45;sensors&#45;&gt;libignition&#45;gazebo -->
<g id="edge16" class="edge">
<title>libignition&#45;sensors&#45;&gt;libignition&#45;gazebo</title>
<path fill="none" stroke="black" d="M626.76,-735.7C624.6,-728.15 622.02,-719.12 619.61,-710.68"/>
<polygon fill="black" stroke="black" points="622.7,-709.76 616.59,-701.1 615.97,-711.68 622.7,-709.76"/>
</g>
<!-- libignition&#45;gui&#45;&gt;libignition&#45;gazebo -->
<g id="edge17" class="edge">
<title>libignition&#45;gui&#45;&gt;libignition&#45;gazebo</title>
<path fill="none" stroke="black" d="M402.95,-739.42C444.08,-728.3 502.54,-712.5 547.13,-700.45"/>
<polygon fill="black" stroke="black" points="547.84,-703.62 556.58,-697.63 546.01,-696.86 547.84,-703.62"/>
</g>
<!-- libignition&#45;gui&#45;&gt;libignition&#45;launch -->
<g id="edge18" class="edge">
<title>libignition&#45;gui&#45;&gt;libignition&#45;launch</title>
<path fill="none" stroke="black" d="M368.04,-736.18C385.95,-717.17 417.03,-686 447.7,-664 464.55,-651.92 484.47,-640.73 502.02,-631.78"/>
<polygon fill="black" stroke="black" points="503.11,-634.65 510.49,-627.05 499.98,-628.39 503.11,-634.65"/>
</g>
<!-- libignition&#45;gazebo&#45;&gt;libignition&#45;launch -->
<g id="edge19" class="edge">
<title>libignition&#45;gazebo&#45;&gt;libignition&#45;launch</title>
<path fill="none" stroke="black" d="M595.97,-664.05C588.06,-655.54 578.34,-645.07 569.62,-635.68"/>
<polygon fill="black" stroke="black" points="572.66,-633.74 563.29,-628.79 567.53,-638.5 572.66,-633.74"/>
</g>
<!-- libignition&#45;msgs1 -->
<g id="node21" class="node">
<title>libignition&#45;msgs1</title>
<g id="a_node21"><a xlink:href="https://github.com/conda-forge/libignition-msgs1-feedstock/pull/85" xlink:title="libignition msgs1 ❎">
<ellipse fill="#31688e" stroke="black" cx="693.7" cy="-898" rx="113.29" ry="18"/>
<text text-anchor="middle" x="693.7" y="-893.33" font-family="Times,serif" font-size="14.00" fill="white">libignition msgs1 ❎</text>
</a>
</g>
</g>
<!-- libignition&#45;msgs1&#45;&gt;libignition&#45;transport4 -->
<g id="edge20" class="edge">
<title>libignition&#45;msgs1&#45;&gt;libignition&#45;transport4</title>
<path fill="none" stroke="black" d="M645,-881.29C612.73,-870.88 570.19,-857.16 535.95,-846.11"/>
<polygon fill="black" stroke="black" points="537.21,-842.52 526.61,-842.78 535.06,-849.18 537.21,-842.52"/>
</g>
<!-- libignition&#45;msgs1&#45;&gt;libignition&#45;sensors -->
<g id="edge21" class="edge">
<title>libignition&#45;msgs1&#45;&gt;libignition&#45;sensors</title>
<path fill="none" stroke="black" d="M671.66,-879.97C661.1,-870.55 649.35,-857.95 642.7,-844 633.65,-825 631.09,-801.25 630.69,-783.07"/>
<polygon fill="black" stroke="black" points="634.19,-783.29 630.69,-773.29 627.19,-783.29 634.19,-783.29"/>
</g>
<!-- libignition&#45;msgs1&#45;&gt;libignition&#45;gui -->
<g id="edge22" class="edge">
<title>libignition&#45;msgs1&#45;&gt;libignition&#45;gui</title>
<path fill="none" stroke="black" d="M581.79,-895.07C492.79,-890.88 378.45,-878.66 348.7,-844 334.49,-827.44 337.16,-802.1 342.42,-782.69"/>
<polygon fill="black" stroke="black" points="346.01,-783.92 345.61,-773.33 339.32,-781.85 346.01,-783.92"/>
</g>
<!-- libignition&#45;msgs1&#45;&gt;libignition&#45;gazebo -->
<g id="edge23" class="edge">
<title>libignition&#45;msgs1&#45;&gt;libignition&#45;gazebo</title>
<path fill="none" stroke="black" d="M785.88,-887.23C846.61,-876.43 910.53,-854.02 884.7,-808 847.72,-742.12 765.12,-710.77 700.39,-695.97"/>
<polygon fill="black" stroke="black" points="701.28,-692.36 690.76,-693.65 699.79,-699.2 701.28,-692.36"/>
</g>
<!-- libignition&#45;msgs1&#45;&gt;libignition&#45;launch -->
<g id="edge24" class="edge">
<title>libignition&#45;msgs1&#45;&gt;libignition&#45;launch</title>
<path fill="none" stroke="black" d="M778.99,-885.83C829.04,-877.34 885.41,-863.71 900.7,-844 910.51,-831.36 905.83,-823.16 900.7,-808 862.77,-695.85 721.66,-646.01 629.46,-625.03"/>
<polygon fill="black" stroke="black" points="630.27,-621.4 619.75,-622.67 628.76,-628.24 630.27,-621.4"/>
</g>
<!-- libignition&#45;fuel&#45;tools -->
<g id="node22" class="node">
<title>libignition&#45;fuel&#45;tools</title>
<g id="a_node22"><a xlink:href="https://github.com/conda-forge/libignition-fuel-tools-feedstock" xlink:title="libignition fuel tools">
<ellipse fill="#fde725" stroke="black" cx="763.7" cy="-826" rx="111.71" ry="18"/>
<text text-anchor="middle" x="763.7" y="-821.33" font-family="Times,serif" font-size="14.00">libignition fuel tools</text>
</a>
</g>
</g>
<!-- libignition&#45;msgs1&#45;&gt;libignition&#45;fuel&#45;tools -->
<g id="edge25" class="edge">
<title>libignition&#45;msgs1&#45;&gt;libignition&#45;fuel&#45;tools</title>
<path fill="none" stroke="black" d="M710.65,-880.05C719.12,-871.58 729.53,-861.17 738.89,-851.82"/>
<polygon fill="black" stroke="black" points="740.83,-854.82 745.43,-845.28 735.88,-849.87 740.83,-854.82"/>
</g>
<!-- libignition&#45;fuel&#45;tools&#45;&gt;libignition&#45;gazebo -->
<g id="edge26" class="edge">
<title>libignition&#45;fuel&#45;tools&#45;&gt;libignition&#45;gazebo</title>
<path fill="none" stroke="black" d="M764.58,-807.52C764.62,-787.89 761.72,-756.16 744.7,-736 730.31,-718.94 709.64,-707.33 688.88,-699.44"/>
<polygon fill="black" stroke="black" points="690.3,-695.88 679.71,-695.86 687.98,-702.48 690.3,-695.88"/>
</g>
<!-- gazebo -->
<g id="node23" class="node">
<title>gazebo</title>
<g id="a_node23"><a xlink:href="https://github.com/conda-forge/gazebo-feedstock" xlink:title="gazebo">
<ellipse fill="#ff8c00" stroke="black" cx="637.7" cy="-278" rx="46.47" ry="18"/>
<text text-anchor="middle" x="637.7" y="-273.32" font-family="Times,serif" font-size="14.00">gazebo</text>
</a>
</g>
</g>
<!-- gazebo&#45;&gt;gazebo&#45;yarp&#45;plugins -->
<g id="edge27" class="edge">
<title>gazebo&#45;&gt;gazebo&#45;yarp&#45;plugins</title>
<path fill="none" stroke="black" d="M637.7,-259.7C637.7,-252.24 637.7,-243.32 637.7,-234.97"/>
<polygon fill="black" stroke="black" points="641.2,-235.1 637.7,-225.1 634.2,-235.1 641.2,-235.1"/>
</g>
<!-- tomviz -->
<g id="node26" class="node">
<title>tomviz</title>
<g id="a_node26"><a xlink:href="https://github.com/conda-forge/tomviz-feedstock" xlink:title="tomviz">
<ellipse fill="#ff8c00" stroke="black" cx="131.7" cy="-466" rx="44.9" ry="18"/>
<text text-anchor="middle" x="131.7" y="-461.32" font-family="Times,serif" font-size="14.00">tomviz</text>
</a>
</g>
</g>
<!-- go&#45;cockroach&#45;&gt;tomviz -->
<!-- google&#45;cloud&#45;cpp -->
<g id="node25" class="node">
<title>google&#45;cloud&#45;cpp</title>
<g id="a_node25"><a xlink:href="https://github.com/conda-forge/google-cloud-cpp-feedstock/pull/137" xlink:title="google cloud cpp ❎">
<ellipse fill="#31688e" stroke="black" cx="1118.7" cy="-826" rx="110.66" ry="18"/>
<text text-anchor="middle" x="1118.7" y="-821.33" font-family="Times,serif" font-size="14.00" fill="white">google cloud cpp ❎</text>
</a>
</g>
</g>
<!-- google&#45;cloud&#45;cpp&#45;&gt;arrow&#45;cpp -->
<g id="edge29" class="edge">
<title>google&#45;cloud&#45;cpp&#45;&gt;arrow&#45;cpp</title>
<path fill="none" stroke="black" d="M1117.12,-807.62C1114.97,-789.2 1110.11,-759.55 1099.7,-736 1095.4,-726.27 1089.13,-716.53 1082.93,-708.12"/>
<polygon fill="black" stroke="black" points="1085.19,-706.33 1076.31,-700.56 1079.66,-710.61 1085.19,-706.33"/>
</g>
<!-- grpc_java_plugin -->
<g id="node27" class="node">
<title>grpc_java_plugin</title>
<g id="a_node27"><a xlink:href="https://github.com/conda-forge/grpc_java_plugin-feedstock/pull/63" xlink:title="grpc_java_plugin ❎">
<ellipse fill="#31688e" stroke="black" cx="131.7" cy="-394" rx="110.66" ry="18"/>
<text text-anchor="middle" x="131.7" y="-389.32" font-family="Times,serif" font-size="14.00" fill="white">grpc_java_plugin ❎</text>
</a>
</g>
</g>
<!-- tomviz&#45;&gt;grpc_java_plugin -->
<!-- or&#45;tools -->
<g id="node28" class="node">
<title>or&#45;tools</title>
<g id="a_node28"><a xlink:href="https://github.com/conda-forge/or-tools-feedstock/pull/44" xlink:title="or tools ❎">
<ellipse fill="#31688e" stroke="black" cx="131.7" cy="-350" rx="64.36" ry="18"/>
<text text-anchor="middle" x="131.7" y="-345.32" font-family="Times,serif" font-size="14.00" fill="white">or tools ❎</text>
</a>
</g>
</g>
<!-- bear -->
<g id="node29" class="node">
<title>bear</title>
<g id="a_node29"><a xlink:href="https://github.com/conda-forge/bear-feedstock/pull/35" xlink:title="bear ❎">
<ellipse fill="#31688e" stroke="black" cx="131.7" cy="-278" rx="49.1" ry="18"/>
<text text-anchor="middle" x="131.7" y="-273.32" font-family="Times,serif" font-size="14.00" fill="white">bear ❎</text>
</a>
</g>
</g>
<!-- or&#45;tools&#45;&gt;bear -->
<!-- singlejar -->
<g id="node30" class="node">
<title>singlejar</title>
<g id="a_node30"><a xlink:href="https://github.com/conda-forge/singlejar-feedstock/pull/19" xlink:title="singlejar ❎">
<ellipse fill="#31688e" stroke="black" cx="131.7" cy="-206" rx="70.15" ry="18"/>
<text text-anchor="middle" x="131.7" y="-201.33" font-family="Times,serif" font-size="14.00" fill="white">singlejar ❎</text>
</a>
</g>
</g>
<!-- bear&#45;&gt;singlejar -->
<!-- xilinx&#45;runtime -->
<g id="node31" class="node">
<title>xilinx&#45;runtime</title>
<g id="a_node31"><a xlink:href="https://github.com/conda-forge/xilinx-runtime-feedstock/pull/13" xlink:title="xilinx runtime ✓">
<ellipse fill="#31688e" stroke="black" cx="131.7" cy="-134" rx="89.61" ry="18"/>
<text text-anchor="middle" x="131.7" y="-129.32" font-family="Times,serif" font-size="14.00" fill="white">xilinx runtime ✓</text>
</a>
</g>
</g>
<!-- singlejar&#45;&gt;xilinx&#45;runtime -->
<!-- gz&#45;gui -->
<g id="node32" class="node">
<title>gz&#45;gui</title>
<g id="a_node32"><a xlink:href="https://github.com/conda-forge/gz-gui-feedstock" xlink:title="gz gui">
<ellipse fill="#ff8c00" stroke="black" cx="1147.7" cy="-314" rx="41.74" ry="18"/>
<text text-anchor="middle" x="1147.7" y="-309.32" font-family="Times,serif" font-size="14.00">gz gui</text>
</a>
</g>
</g>
<!-- gz&#45;sim -->
<g id="node33" class="node">
<title>gz&#45;sim</title>
<g id="a_node33"><a xlink:href="https://github.com/conda-forge/gz-sim-feedstock" xlink:title="gz sim">
<ellipse fill="#fde725" stroke="black" cx="1075.7" cy="-242" rx="43.84" ry="18"/>
<text text-anchor="middle" x="1075.7" y="-237.32" font-family="Times,serif" font-size="14.00">gz sim</text>
</a>
</g>
</g>
<!-- gz&#45;gui&#45;&gt;gz&#45;sim -->
<g id="edge35" class="edge">
<title>gz&#45;gui&#45;&gt;gz&#45;sim</title>
<path fill="none" stroke="black" d="M1131.36,-297.12C1121.98,-287.99 1110.01,-276.36 1099.58,-266.22"/>
<polygon fill="black" stroke="black" points="1102.59,-264.28 1092.98,-259.82 1097.71,-269.3 1102.59,-264.28"/>
</g>
<!-- gz&#45;launch -->
<g id="node34" class="node">
<title>gz&#45;launch</title>
<g id="a_node34"><a xlink:href="https://github.com/conda-forge/gz-launch-feedstock" xlink:title="gz launch">
<ellipse fill="#fde725" stroke="black" cx="1111.7" cy="-170" rx="59.1" ry="18"/>
<text text-anchor="middle" x="1111.7" y="-165.32" font-family="Times,serif" font-size="14.00">gz launch</text>
</a>
</g>
</g>
<!-- gz&#45;gui&#45;&gt;gz&#45;launch -->
<g id="edge36" class="edge">
<title>gz&#45;gui&#45;&gt;gz&#45;launch</title>
<path fill="none" stroke="black" d="M1144.56,-295.82C1141.15,-277.8 1135.29,-248.73 1128.7,-224 1126.45,-215.56 1123.67,-206.47 1121.02,-198.25"/>
<polygon fill="black" stroke="black" points="1124.11,-197.46 1117.65,-189.06 1117.47,-199.65 1124.11,-197.46"/>
</g>
<!-- gz&#45;sim&#45;&gt;gz&#45;launch -->
<g id="edge37" class="edge">
<title>gz&#45;sim&#45;&gt;gz&#45;launch</title>
<path fill="none" stroke="black" d="M1084.42,-224.05C1088.47,-216.18 1093.39,-206.62 1097.92,-197.79"/>
<polygon fill="black" stroke="black" points="1101.36,-199.77 1102.82,-189.28 1095.13,-196.57 1101.36,-199.77"/>
</g>
<!-- gz&#45;sensors -->
<g id="node35" class="node">
<title>gz&#45;sensors</title>
<g id="a_node35"><a xlink:href="https://github.com/conda-forge/gz-sensors-feedstock" xlink:title="gz sensors">
<ellipse fill="#ff8c00" stroke="black" cx="1023.7" cy="-314" rx="64.36" ry="18"/>
<text text-anchor="middle" x="1023.7" y="-309.32" font-family="Times,serif" font-size="14.00">gz sensors</text>
</a>
</g>
</g>
<!-- gz&#45;sensors&#45;&gt;gz&#45;sim -->
<g id="edge38" class="edge">
<title>gz&#45;sensors&#45;&gt;gz&#45;sim</title>
<path fill="none" stroke="black" d="M1036.29,-296.05C1042.51,-287.68 1050.15,-277.4 1057.03,-268.13"/>
<polygon fill="black" stroke="black" points="1060.44,-270.42 1063.59,-260.31 1054.82,-266.25 1060.44,-270.42"/>
</g>
</g>
</svg>
