<?xml version="1.0" encoding="UTF-8" standalone="no"?>
<!DOCTYPE svg PUBLIC "-//W3C//DTD SVG 1.1//EN"
 "http://www.w3.org/Graphics/SVG/1.1/DTD/svg11.dtd">
<!-- Generated by graphviz version 8.0.5 (20230506.1012)
 -->
<!-- Pages: 1 -->
<svg width="1376pt" height="1284pt"
 viewBox="0.00 0.00 1376.07 1284.00" xmlns="http://www.w3.org/2000/svg" xmlns:xlink="http://www.w3.org/1999/xlink">
<g id="graph0" class="graph" transform="scale(1 1) rotate(0) translate(4 1280)">
<polygon fill="white" stroke="none" points="-4,4 -4,-1280 1372.07,-1280 1372.07,4 -4,4"/>
<!-- arrow&#45;cpp -->
<g id="node1" class="node">
<title>arrow&#45;cpp</title>
<g id="a_node1"><a xlink:href="https://github.com/conda-forge/arrow-cpp-feedstock" xlink:title="arrow cpp">
<ellipse fill="#fde725" stroke="black" cx="329.2" cy="-206" rx="61.73" ry="18"/>
<text text-anchor="middle" x="329.2" y="-201.32" font-family="Times,serif" font-size="14.00">arrow cpp</text>
</a>
</g>
</g>
<!-- bazel -->
<g id="node2" class="node">
<title>bazel</title>
<g id="a_node2"><a xlink:href="https://github.com/conda-forge/bazel-feedstock" xlink:title="bazel">
<ellipse fill="#35b779" stroke="black" cx="757.2" cy="-1258" rx="37.53" ry="18"/>
<text text-anchor="middle" x="757.2" y="-1253.33" font-family="Times,serif" font-size="14.00">bazel</text>
</a>
</g>
</g>
<!-- onnx -->
<g id="node3" class="node">
<title>onnx</title>
<g id="a_node3"><a xlink:href="https://github.com/conda-forge/onnx-feedstock/pull/96" xlink:title="onnx ❎">
<ellipse fill="#31688e" stroke="black" cx="757.2" cy="-1186" rx="50.68" ry="18"/>
<text text-anchor="middle" x="757.2" y="-1181.33" font-family="Times,serif" font-size="14.00" fill="white">onnx ❎</text>
</a>
</g>
</g>
<!-- bazel&#45;&gt;onnx -->
<!-- paraview -->
<g id="node6" class="node">
<title>paraview</title>
<g id="a_node6"><a xlink:href="https://github.com/conda-forge/paraview-feedstock/pull/193" xlink:title="paraview ❎">
<ellipse fill="#31688e" stroke="black" cx="757.2" cy="-1114" rx="72.25" ry="18"/>
<text text-anchor="middle" x="757.2" y="-1109.33" font-family="Times,serif" font-size="14.00" fill="white">paraview ❎</text>
</a>
</g>
</g>
<!-- onnx&#45;&gt;paraview -->
<!-- mysql -->
<g id="node4" class="node">
<title>mysql</title>
<g id="a_node4"><a xlink:href="https://github.com/conda-forge/mysql-feedstock/pull/78" xlink:title="mysql ❎">
<ellipse fill="#31688e" stroke="black" cx="319.2" cy="-90" rx="56.47" ry="18"/>
<text text-anchor="middle" x="319.2" y="-85.33" font-family="Times,serif" font-size="14.00" fill="white">mysql ❎</text>
</a>
</g>
</g>
<!-- mysql&#45;connector&#45;python -->
<g id="node5" class="node">
<title>mysql&#45;connector&#45;python</title>
<g id="a_node5"><a xlink:href="https://github.com/conda-forge/mysql-connector-python-feedstock" xlink:title="mysql connector python">
<ellipse fill="#fde725" stroke="black" cx="319.2" cy="-18" rx="131.7" ry="18"/>
<text text-anchor="middle" x="319.2" y="-13.32" font-family="Times,serif" font-size="14.00">mysql connector python</text>
</a>
</g>
</g>
<!-- mysql&#45;&gt;mysql&#45;connector&#45;python -->
<g id="edge2" class="edge">
<title>mysql&#45;&gt;mysql&#45;connector&#45;python</title>
<path fill="none" stroke="black" d="M319.2,-71.7C319.2,-64.24 319.2,-55.32 319.2,-46.97"/>
<polygon fill="black" stroke="black" points="322.7,-47.1 319.2,-37.1 315.7,-47.1 322.7,-47.1"/>
</g>
<!-- qgis -->
<g id="node10" class="node">
<title>qgis</title>
<g id="a_node10"><a xlink:href="https://github.com/conda-forge/qgis-feedstock/pull/332" xlink:title="qgis ❎">
<ellipse fill="#31688e" stroke="black" cx="757.2" cy="-1042" rx="47.53" ry="18"/>
<text text-anchor="middle" x="757.2" y="-1037.33" font-family="Times,serif" font-size="14.00" fill="white">qgis ❎</text>
</a>
</g>
</g>
<!-- paraview&#45;&gt;qgis -->
<!-- opencv -->
<g id="node7" class="node">
<title>opencv</title>
<g id="a_node7"><a xlink:href="https://github.com/conda-forge/opencv-feedstock/pull/362" xlink:title="opencv ❎">
<ellipse fill="#31688e" stroke="black" cx="1025.2" cy="-350" rx="61.73" ry="18"/>
<text text-anchor="middle" x="1025.2" y="-345.32" font-family="Times,serif" font-size="14.00" fill="white">opencv ❎</text>
</a>
</g>
</g>
<!-- imp -->
<g id="node8" class="node">
<title>imp</title>
<g id="a_node8"><a xlink:href="https://github.com/conda-forge/imp-feedstock" xlink:title="imp">
<ellipse fill="#fde725" stroke="black" cx="1008.2" cy="-278" rx="30.16" ry="18"/>
<text text-anchor="middle" x="1008.2" y="-273.32" font-family="Times,serif" font-size="14.00">imp</text>
</a>
</g>
</g>
<!-- opencv&#45;&gt;imp -->
<g id="edge4" class="edge">
<title>opencv&#45;&gt;imp</title>
<path fill="none" stroke="black" d="M1021,-331.7C1019.16,-324.15 1016.97,-315.12 1014.92,-306.68"/>
<polygon fill="black" stroke="black" points="1018.11,-306 1012.35,-297.1 1011.31,-307.65 1018.11,-306"/>
</g>
<!-- gazebo&#45;yarp&#45;plugins -->
<g id="node9" class="node">
<title>gazebo&#45;yarp&#45;plugins</title>
<g id="a_node9"><a xlink:href="https://github.com/conda-forge/gazebo-yarp-plugins-feedstock" xlink:title="gazebo yarp plugins">
<ellipse fill="#fde725" stroke="black" cx="1168.2" cy="-278" rx="112.24" ry="18"/>
<text text-anchor="middle" x="1168.2" y="-273.32" font-family="Times,serif" font-size="14.00">gazebo yarp plugins</text>
</a>
</g>
</g>
<!-- opencv&#45;&gt;gazebo&#45;yarp&#45;plugins -->
<g id="edge5" class="edge">
<title>opencv&#45;&gt;gazebo&#45;yarp&#45;plugins</title>
<path fill="none" stroke="black" d="M1055.88,-333.98C1075.87,-324.19 1102.28,-311.27 1124.46,-300.41"/>
<polygon fill="black" stroke="black" points="1125.88,-303.12 1133.32,-295.58 1122.8,-296.84 1125.88,-303.12"/>
</g>
<!-- tensorflow -->
<g id="node11" class="node">
<title>tensorflow</title>
<g id="a_node11"><a xlink:href="https://github.com/conda-forge/tensorflow-feedstock" xlink:title="tensorflow">
<ellipse fill="#ff8c00" stroke="black" cx="757.2" cy="-970" rx="63.84" ry="18"/>
<text text-anchor="middle" x="757.2" y="-965.33" font-family="Times,serif" font-size="14.00">tensorflow</text>
</a>
</g>
</g>
<!-- qgis&#45;&gt;tensorflow -->
<!-- libhdfs3 -->
<g id="node12" class="node">
<title>libhdfs3</title>
<g id="a_node12"><a xlink:href="https://github.com/conda-forge/libhdfs3-feedstock/pull/50" xlink:title="libhdfs3 ❎">
<ellipse fill="#31688e" stroke="black" cx="757.2" cy="-898" rx="66.99" ry="18"/>
<text text-anchor="middle" x="757.2" y="-893.33" font-family="Times,serif" font-size="14.00" fill="white">libhdfs3 ❎</text>
</a>
</g>
</g>
<!-- tensorflow&#45;&gt;libhdfs3 -->
<!-- jaxlib -->
<g id="node13" class="node">
<title>jaxlib</title>
<g id="a_node13"><a xlink:href="https://github.com/conda-forge/jaxlib-feedstock/pull/177" xlink:title="jaxlib ❎">
<ellipse fill="#31688e" stroke="black" cx="757.2" cy="-826" rx="53.84" ry="18"/>
<text text-anchor="middle" x="757.2" y="-821.33" font-family="Times,serif" font-size="14.00" fill="white">jaxlib ❎</text>
</a>
</g>
</g>
<!-- libhdfs3&#45;&gt;jaxlib -->
<!-- zaber&#45;motion -->
<g id="node16" class="node">
<title>zaber&#45;motion</title>
<g id="a_node16"><a xlink:href="https://github.com/conda-forge/zaber-motion-feedstock/pull/104" xlink:title="zaber motion ❎">
<ellipse fill="#31688e" stroke="black" cx="757.2" cy="-754" rx="92.25" ry="18"/>
<text text-anchor="middle" x="757.2" y="-749.33" font-family="Times,serif" font-size="14.00" fill="white">zaber motion ❎</text>
</a>
</g>
</g>
<!-- jaxlib&#45;&gt;zaber&#45;motion -->
<!-- pytorch&#45;cpu -->
<g id="node14" class="node">
<title>pytorch&#45;cpu</title>
<g id="a_node14"><a xlink:href="https://github.com/conda-forge/pytorch-cpu-feedstock/pull/170" xlink:title="pytorch cpu ❎">
<ellipse fill="#31688e" stroke="black" cx="215.2" cy="-278" rx="85.93" ry="18"/>
<text text-anchor="middle" x="215.2" y="-273.32" font-family="Times,serif" font-size="14.00" fill="white">pytorch cpu ❎</text>
</a>
</g>
</g>
<!-- pytorch&#45;cpu&#45;&gt;arrow&#45;cpp -->
<g id="edge10" class="edge">
<title>pytorch&#45;cpu&#45;&gt;arrow&#45;cpp</title>
<path fill="none" stroke="black" d="M241.93,-260.59C257.58,-250.97 277.54,-238.72 294.41,-228.36"/>
<polygon fill="black" stroke="black" points="295.73,-231.04 302.42,-222.83 292.07,-225.08 295.73,-231.04"/>
</g>
<!-- orc -->
<g id="node15" class="node">
<title>orc</title>
<g id="a_node15"><a xlink:href="https://github.com/conda-forge/orc-feedstock/pull/59" xlink:title="orc ❎">
<ellipse fill="#31688e" stroke="black" cx="329.2" cy="-350" rx="42.26" ry="18"/>
<text text-anchor="middle" x="329.2" y="-345.32" font-family="Times,serif" font-size="14.00" fill="white">orc ❎</text>
</a>
</g>
</g>
<!-- orc&#45;&gt;arrow&#45;cpp -->
<g id="edge11" class="edge">
<title>orc&#45;&gt;arrow&#45;cpp</title>
<path fill="none" stroke="black" d="M329.2,-331.59C329.2,-307.5 329.2,-263.75 329.2,-235.03"/>
<polygon fill="black" stroke="black" points="332.7,-235.11 329.2,-225.11 325.7,-235.11 332.7,-235.11"/>
</g>
<!-- go&#45;cockroach -->
<g id="node25" class="node">
<title>go&#45;cockroach</title>
<g id="a_node25"><a xlink:href="https://github.com/conda-forge/go-cockroach-feedstock" xlink:title="go cockroach">
<ellipse fill="#ff8c00" stroke="black" cx="757.2" cy="-682" rx="76.46" ry="18"/>
<text text-anchor="middle" x="757.2" y="-677.33" font-family="Times,serif" font-size="14.00">go cockroach</text>
</a>
</g>
</g>
<!-- zaber&#45;motion&#45;&gt;go&#45;cockroach -->
<!-- libignition&#45;transport4 -->
<g id="node17" class="node">
<title>libignition&#45;transport4</title>
<g id="a_node17"><a xlink:href="https://github.com/conda-forge/libignition-transport4-feedstock" xlink:title="libignition transport4">
<ellipse fill="#fde725" stroke="black" cx="205.2" cy="-970" rx="119.08" ry="18"/>
<text text-anchor="middle" x="205.2" y="-965.33" font-family="Times,serif" font-size="14.00">libignition transport4</text>
</a>
</g>
</g>
<!-- libignition&#45;sensors -->
<g id="node18" class="node">
<title>libignition&#45;sensors</title>
<g id="a_node18"><a xlink:href="https://github.com/conda-forge/libignition-sensors-feedstock" xlink:title="libignition sensors">
<ellipse fill="#fde725" stroke="black" cx="360.2" cy="-898" rx="103.82" ry="18"/>
<text text-anchor="middle" x="360.2" y="-893.33" font-family="Times,serif" font-size="14.00">libignition sensors</text>
</a>
</g>
</g>
<!-- libignition&#45;transport4&#45;&gt;libignition&#45;sensors -->
<g id="edge13" class="edge">
<title>libignition&#45;transport4&#45;&gt;libignition&#45;sensors</title>
<path fill="none" stroke="black" d="M241.93,-952.41C263.53,-942.66 291.04,-930.23 314.09,-919.82"/>
<polygon fill="black" stroke="black" points="315.32,-922.65 323,-915.35 312.44,-916.28 315.32,-922.65"/>
</g>
<!-- libignition&#45;gui -->
<g id="node19" class="node">
<title>libignition&#45;gui</title>
<g id="a_node19"><a xlink:href="https://github.com/conda-forge/libignition-gui-feedstock" xlink:title="libignition gui">
<ellipse fill="#fde725" stroke="black" cx="81.2" cy="-898" rx="81.2" ry="18"/>
<text text-anchor="middle" x="81.2" y="-893.33" font-family="Times,serif" font-size="14.00">libignition gui</text>
</a>
</g>
</g>
<!-- libignition&#45;transport4&#45;&gt;libignition&#45;gui -->
<g id="edge14" class="edge">
<title>libignition&#45;transport4&#45;&gt;libignition&#45;gui</title>
<path fill="none" stroke="black" d="M175.5,-952.23C158.54,-942.66 137.1,-930.56 118.95,-920.31"/>
<polygon fill="black" stroke="black" points="121.23,-917.02 110.8,-915.15 117.79,-923.11 121.23,-917.02"/>
</g>
<!-- libignition&#45;gazebo -->
<g id="node20" class="node">
<title>libignition&#45;gazebo</title>
<g id="a_node20"><a xlink:href="https://github.com/conda-forge/libignition-gazebo-feedstock" xlink:title="libignition gazebo">
<ellipse fill="#fde725" stroke="black" cx="340.2" cy="-826" rx="100.66" ry="18"/>
<text text-anchor="middle" x="340.2" y="-821.33" font-family="Times,serif" font-size="14.00">libignition gazebo</text>
</a>
</g>
</g>
<!-- libignition&#45;transport4&#45;&gt;libignition&#45;gazebo -->
<g id="edge15" class="edge">
<title>libignition&#45;transport4&#45;&gt;libignition&#45;gazebo</title>
<path fill="none" stroke="black" d="M209.87,-951.8C215.85,-932.43 227.81,-900.94 247.2,-880 259.43,-866.79 275.72,-855.98 291.26,-847.66"/>
<polygon fill="black" stroke="black" points="292.47,-850.46 299.78,-842.8 289.28,-844.22 292.47,-850.46"/>
</g>
<!-- libignition&#45;launch -->
<g id="node21" class="node">
<title>libignition&#45;launch</title>
<g id="a_node21"><a xlink:href="https://github.com/conda-forge/libignition-launch-feedstock" xlink:title="libignition launch">
<ellipse fill="#fde725" stroke="black" cx="275.2" cy="-754" rx="98.56" ry="18"/>
<text text-anchor="middle" x="275.2" y="-749.33" font-family="Times,serif" font-size="14.00">libignition launch</text>
</a>
</g>
</g>
<!-- libignition&#45;transport4&#45;&gt;libignition&#45;launch -->
<g id="edge16" class="edge">
<title>libignition&#45;transport4&#45;&gt;libignition&#45;launch</title>
<path fill="none" stroke="black" d="M204.87,-951.68C204.93,-921.2 207.96,-856.62 230.2,-808 234.82,-797.9 241.93,-788.21 249.15,-779.94"/>
<polygon fill="black" stroke="black" points="251.38,-782.6 255.61,-772.89 246.25,-777.85 251.38,-782.6"/>
</g>
<!-- libignition&#45;sensors&#45;&gt;libignition&#45;gazebo -->
<g id="edge17" class="edge">
<title>libignition&#45;sensors&#45;&gt;libignition&#45;gazebo</title>
<path fill="none" stroke="black" d="M355.25,-879.7C353.1,-872.15 350.52,-863.12 348.11,-854.68"/>
<polygon fill="black" stroke="black" points="351.2,-853.76 345.08,-845.1 344.47,-855.68 351.2,-853.76"/>
</g>
<!-- libignition&#45;gui&#45;&gt;libignition&#45;gazebo -->
<g id="edge18" class="edge">
<title>libignition&#45;gui&#45;&gt;libignition&#45;gazebo</title>
<path fill="none" stroke="black" d="M131.44,-883.42C172.57,-872.3 231.03,-856.5 275.63,-844.45"/>
<polygon fill="black" stroke="black" points="276.33,-847.62 285.07,-841.63 274.51,-840.86 276.33,-847.62"/>
</g>
<!-- libignition&#45;gui&#45;&gt;libignition&#45;launch -->
<g id="edge19" class="edge">
<title>libignition&#45;gui&#45;&gt;libignition&#45;launch</title>
<path fill="none" stroke="black" d="M96.54,-880.18C114.45,-861.17 145.53,-830 176.2,-808 193.04,-795.92 212.97,-784.73 230.51,-775.78"/>
<polygon fill="black" stroke="black" points="231.6,-778.65 238.98,-771.05 228.47,-772.39 231.6,-778.65"/>
</g>
<!-- libignition&#45;gazebo&#45;&gt;libignition&#45;launch -->
<g id="edge20" class="edge">
<title>libignition&#45;gazebo&#45;&gt;libignition&#45;launch</title>
<path fill="none" stroke="black" d="M324.46,-808.05C316.56,-799.54 306.83,-789.07 298.12,-779.68"/>
<polygon fill="black" stroke="black" points="301.16,-777.74 291.79,-772.79 296.03,-782.5 301.16,-777.74"/>
</g>
<!-- libignition&#45;msgs1 -->
<g id="node22" class="node">
<title>libignition&#45;msgs1</title>
<g id="a_node22"><a xlink:href="https://github.com/conda-forge/libignition-msgs1-feedstock/pull/85" xlink:title="libignition msgs1 ❎">
<ellipse fill="#31688e" stroke="black" cx="422.2" cy="-1042" rx="113.29" ry="18"/>
<text text-anchor="middle" x="422.2" y="-1037.33" font-family="Times,serif" font-size="14.00" fill="white">libignition msgs1 ❎</text>
</a>
</g>
</g>
<!-- libignition&#45;msgs1&#45;&gt;libignition&#45;transport4 -->
<g id="edge21" class="edge">
<title>libignition&#45;msgs1&#45;&gt;libignition&#45;transport4</title>
<path fill="none" stroke="black" d="M373.5,-1025.29C341.22,-1014.88 298.68,-1001.16 264.45,-990.11"/>
<polygon fill="black" stroke="black" points="265.7,-986.52 255.11,-986.78 263.55,-993.18 265.7,-986.52"/>
</g>
<!-- libignition&#45;msgs1&#45;&gt;libignition&#45;sensors -->
<g id="edge22" class="edge">
<title>libignition&#45;msgs1&#45;&gt;libignition&#45;sensors</title>
<path fill="none" stroke="black" d="M400.15,-1023.97C389.6,-1014.55 377.84,-1001.95 371.2,-988 362.15,-969 359.59,-945.25 359.19,-927.07"/>
<polygon fill="black" stroke="black" points="362.69,-927.29 359.18,-917.29 355.69,-927.29 362.69,-927.29"/>
</g>
<!-- libignition&#45;msgs1&#45;&gt;libignition&#45;gui -->
<g id="edge23" class="edge">
<title>libignition&#45;msgs1&#45;&gt;libignition&#45;gui</title>
<path fill="none" stroke="black" d="M310.29,-1039.07C221.29,-1034.88 106.94,-1022.66 77.2,-988 62.99,-971.44 65.66,-946.1 70.91,-926.69"/>
<polygon fill="black" stroke="black" points="74.51,-927.92 74.11,-917.33 67.82,-925.85 74.51,-927.92"/>
</g>
<!-- libignition&#45;msgs1&#45;&gt;libignition&#45;gazebo -->
<g id="edge24" class="edge">
<title>libignition&#45;msgs1&#45;&gt;libignition&#45;gazebo</title>
<path fill="none" stroke="black" d="M514.38,-1031.23C575.1,-1020.43 639.03,-998.02 613.2,-952 576.22,-886.12 493.61,-854.77 428.89,-839.97"/>
<polygon fill="black" stroke="black" points="429.77,-836.36 419.26,-837.65 428.28,-843.2 429.77,-836.36"/>
</g>
<!-- libignition&#45;msgs1&#45;&gt;libignition&#45;launch -->
<g id="edge25" class="edge">
<title>libignition&#45;msgs1&#45;&gt;libignition&#45;launch</title>
<path fill="none" stroke="black" d="M507.48,-1029.83C557.54,-1021.34 613.9,-1007.71 629.2,-988 639.01,-975.36 634.32,-967.16 629.2,-952 591.26,-839.85 450.15,-790.01 357.96,-769.03"/>
<polygon fill="black" stroke="black" points="358.77,-765.4 348.25,-766.67 357.26,-772.24 358.77,-765.4"/>
</g>
<!-- libignition&#45;fuel&#45;tools -->
<g id="node23" class="node">
<title>libignition&#45;fuel&#45;tools</title>
<g id="a_node23"><a xlink:href="https://github.com/conda-forge/libignition-fuel-tools-feedstock" xlink:title="libignition fuel tools">
<ellipse fill="#fde725" stroke="black" cx="492.2" cy="-970" rx="111.71" ry="18"/>
<text text-anchor="middle" x="492.2" y="-965.33" font-family="Times,serif" font-size="14.00">libignition fuel tools</text>
</a>
</g>
</g>
<!-- libignition&#45;msgs1&#45;&gt;libignition&#45;fuel&#45;tools -->
<g id="edge26" class="edge">
<title>libignition&#45;msgs1&#45;&gt;libignition&#45;fuel&#45;tools</title>
<path fill="none" stroke="black" d="M439.14,-1024.05C447.61,-1015.58 458.03,-1005.17 467.38,-995.82"/>
<polygon fill="black" stroke="black" points="469.33,-998.82 473.92,-989.28 464.38,-993.87 469.33,-998.82"/>
</g>
<!-- libignition&#45;fuel&#45;tools&#45;&gt;libignition&#45;gazebo -->
<g id="edge27" class="edge">
<title>libignition&#45;fuel&#45;tools&#45;&gt;libignition&#45;gazebo</title>
<path fill="none" stroke="black" d="M493.08,-951.52C493.12,-931.89 490.22,-900.16 473.2,-880 458.8,-862.94 438.14,-851.33 417.38,-843.44"/>
<polygon fill="black" stroke="black" points="418.8,-839.88 408.2,-839.86 416.48,-846.48 418.8,-839.88"/>
</g>
<!-- gazebo -->
<g id="node24" class="node">
<title>gazebo</title>
<g id="a_node24"><a xlink:href="https://github.com/conda-forge/gazebo-feedstock" xlink:title="gazebo">
<ellipse fill="#ff8c00" stroke="black" cx="1168.2" cy="-350" rx="46.47" ry="18"/>
<text text-anchor="middle" x="1168.2" y="-345.32" font-family="Times,serif" font-size="14.00">gazebo</text>
</a>
</g>
</g>
<!-- gazebo&#45;&gt;gazebo&#45;yarp&#45;plugins -->
<g id="edge28" class="edge">
<title>gazebo&#45;&gt;gazebo&#45;yarp&#45;plugins</title>
<path fill="none" stroke="black" d="M1168.2,-331.7C1168.2,-324.24 1168.2,-315.32 1168.2,-306.97"/>
<polygon fill="black" stroke="black" points="1171.7,-307.1 1168.2,-297.1 1164.7,-307.1 1171.7,-307.1"/>
</g>
<!-- cartographer -->
<g id="node27" class="node">
<title>cartographer</title>
<g id="a_node27"><a xlink:href="https://github.com/conda-forge/cartographer-feedstock/pull/55" xlink:title="cartographer ❎">
<ellipse fill="#31688e" stroke="black" cx="757.2" cy="-610" rx="92.25" ry="18"/>
<text text-anchor="middle" x="757.2" y="-605.33" font-family="Times,serif" font-size="14.00" fill="white">cartographer ❎</text>
</a>
</g>
</g>
<!-- go&#45;cockroach&#45;&gt;cartographer -->
<!-- google&#45;cloud&#45;cpp -->
<g id="node26" class="node">
<title>google&#45;cloud&#45;cpp</title>
<g id="a_node26"><a xlink:href="https://github.com/conda-forge/google-cloud-cpp-feedstock/pull/137" xlink:title="google cloud cpp ❎">
<ellipse fill="#31688e" stroke="black" cx="399.2" cy="-422" rx="110.66" ry="18"/>
<text text-anchor="middle" x="399.2" y="-417.32" font-family="Times,serif" font-size="14.00" fill="white">google cloud cpp ❎</text>
</a>
</g>
</g>
<!-- google&#45;cloud&#45;cpp&#45;&gt;arrow&#45;cpp -->
<g id="edge30" class="edge">
<title>google&#45;cloud&#45;cpp&#45;&gt;arrow&#45;cpp</title>
<path fill="none" stroke="black" d="M396.44,-403.71C393.34,-385.6 387.73,-356.46 380.2,-332 369.51,-297.31 353.09,-258.84 341.78,-233.87"/>
<polygon fill="black" stroke="black" points="344.63,-232.67 337.28,-225.04 338.26,-235.59 344.63,-232.67"/>
</g>
<!-- tomviz -->
<g id="node28" class="node">
<title>tomviz</title>
<g id="a_node28"><a xlink:href="https://github.com/conda-forge/tomviz-feedstock" xlink:title="tomviz">
<ellipse fill="#ff8c00" stroke="black" cx="757.2" cy="-538" rx="44.9" ry="18"/>
<text text-anchor="middle" x="757.2" y="-533.33" font-family="Times,serif" font-size="14.00">tomviz</text>
</a>
</g>
</g>
<!-- cartographer&#45;&gt;tomviz -->
<!-- grpc_java_plugin -->
<g id="node29" class="node">
<title>grpc_java_plugin</title>
<g id="a_node29"><a xlink:href="https://github.com/conda-forge/grpc_java_plugin-feedstock/pull/63" xlink:title="grpc_java_plugin ❎">
<ellipse fill="#31688e" stroke="black" cx="757.2" cy="-494" rx="110.66" ry="18"/>
<text text-anchor="middle" x="757.2" y="-489.32" font-family="Times,serif" font-size="14.00" fill="white">grpc_java_plugin ❎</text>
</a>
</g>
</g>
<!-- or&#45;tools -->
<g id="node30" class="node">
<title>or&#45;tools</title>
<g id="a_node30"><a xlink:href="https://github.com/conda-forge/or-tools-feedstock/pull/42" xlink:title="or tools ❎">
<ellipse fill="#31688e" stroke="black" cx="757.2" cy="-422" rx="64.36" ry="18"/>
<text text-anchor="middle" x="757.2" y="-417.32" font-family="Times,serif" font-size="14.00" fill="white">or tools ❎</text>
</a>
</g>
</g>
<!-- grpc_java_plugin&#45;&gt;or&#45;tools -->
<!-- bear -->
<g id="node31" class="node">
<title>bear</title>
<g id="a_node31"><a xlink:href="https://github.com/conda-forge/bear-feedstock/pull/35" xlink:title="bear ❎">
<ellipse fill="#31688e" stroke="black" cx="757.2" cy="-350" rx="49.1" ry="18"/>
<text text-anchor="middle" x="757.2" y="-345.32" font-family="Times,serif" font-size="14.00" fill="white">bear ❎</text>
</a>
</g>
</g>
<!-- or&#45;tools&#45;&gt;bear -->
<!-- singlejar -->
<g id="node32" class="node">
<title>singlejar</title>
<g id="a_node32"><a xlink:href="https://github.com/conda-forge/singlejar-feedstock/pull/19" xlink:title="singlejar ❎">
<ellipse fill="#31688e" stroke="black" cx="757.2" cy="-278" rx="70.15" ry="18"/>
<text text-anchor="middle" x="757.2" y="-273.32" font-family="Times,serif" font-size="14.00" fill="white">singlejar ❎</text>
</a>
</g>
</g>
<!-- bear&#45;&gt;singlejar -->
<!-- xilinx&#45;runtime -->
<g id="node33" class="node">
<title>xilinx&#45;runtime</title>
<g id="a_node33"><a xlink:href="https://github.com/conda-forge/xilinx-runtime-feedstock/pull/13" xlink:title="xilinx runtime ✓">
<ellipse fill="#31688e" stroke="black" cx="757.2" cy="-206" rx="89.61" ry="18"/>
<text text-anchor="middle" x="757.2" y="-201.33" font-family="Times,serif" font-size="14.00" fill="white">xilinx runtime ✓</text>
</a>
</g>
</g>
<!-- singlejar&#45;&gt;xilinx&#45;runtime -->
<!-- arcticdb -->
<g id="node34" class="node">
<title>arcticdb</title>
<g id="a_node34"><a xlink:href="https://github.com/conda-forge/arcticdb-feedstock/pull/4" xlink:title="arcticdb ✓">
<ellipse fill="#31688e" stroke="black" cx="757.2" cy="-134" rx="60.15" ry="18"/>
<text text-anchor="middle" x="757.2" y="-129.32" font-family="Times,serif" font-size="14.00" fill="white">arcticdb ✓</text>
</a>
</g>
</g>
<!-- xilinx&#45;runtime&#45;&gt;arcticdb -->
<!-- gz&#45;msgs -->
<g id="node35" class="node">
<title>gz&#45;msgs</title>
<g id="a_node35"><a xlink:href="https://github.com/conda-forge/gz-msgs-feedstock/pull/10" xlink:title="gz msgs ❎">
<ellipse fill="#31688e" stroke="black" cx="1083.2" cy="-1042" rx="67.52" ry="18"/>
<text text-anchor="middle" x="1083.2" y="-1037.33" font-family="Times,serif" font-size="14.00" fill="white">gz msgs ❎</text>
</a>
</g>
</g>
<!-- gz&#45;transport -->
<g id="node36" class="node">
<title>gz&#45;transport</title>
<g id="a_node36"><a xlink:href="https://github.com/conda-forge/gz-transport-feedstock" xlink:title="gz transport">
<ellipse fill="#fde725" stroke="black" cx="1033.2" cy="-970" rx="73.3" ry="18"/>
<text text-anchor="middle" x="1033.2" y="-965.33" font-family="Times,serif" font-size="14.00">gz transport</text>
</a>
</g>
</g>
<!-- gz&#45;msgs&#45;&gt;gz&#45;transport -->
<g id="edge38" class="edge">
<title>gz&#45;msgs&#45;&gt;gz&#45;transport</title>
<path fill="none" stroke="black" d="M1071.09,-1024.05C1065.2,-1015.8 1057.98,-1005.7 1051.44,-996.54"/>
<polygon fill="black" stroke="black" points="1053.85,-994.89 1045.19,-988.79 1048.15,-998.96 1053.85,-994.89"/>
</g>
<!-- gz&#45;fuel&#45;tools -->
<g id="node37" class="node">
<title>gz&#45;fuel&#45;tools</title>
<g id="a_node37"><a xlink:href="https://github.com/conda-forge/gz-fuel-tools-feedstock" xlink:title="gz fuel tools">
<ellipse fill="#fde725" stroke="black" cx="1234.2" cy="-970" rx="72.25" ry="18"/>
<text text-anchor="middle" x="1234.2" y="-965.33" font-family="Times,serif" font-size="14.00">gz fuel tools</text>
</a>
</g>
</g>
<!-- gz&#45;msgs&#45;&gt;gz&#45;fuel&#45;tools -->
<g id="edge39" class="edge">
<title>gz&#45;msgs&#45;&gt;gz&#45;fuel&#45;tools</title>
<path fill="none" stroke="black" d="M1115.96,-1025.81C1137.97,-1015.61 1167.21,-1002.06 1191.1,-990.98"/>
<polygon fill="black" stroke="black" points="1192.38,-993.78 1199.98,-986.4 1189.43,-987.43 1192.38,-993.78"/>
</g>
<!-- gz&#45;gui -->
<g id="node38" class="node">
<title>gz&#45;gui</title>
<g id="a_node38"><a xlink:href="https://github.com/conda-forge/gz-gui-feedstock" xlink:title="gz gui">
<ellipse fill="#fde725" stroke="black" cx="942.2" cy="-898" rx="41.74" ry="18"/>
<text text-anchor="middle" x="942.2" y="-893.33" font-family="Times,serif" font-size="14.00">gz gui</text>
</a>
</g>
</g>
<!-- gz&#45;msgs&#45;&gt;gz&#45;gui -->
<g id="edge40" class="edge">
<title>gz&#45;msgs&#45;&gt;gz&#45;gui</title>
<path fill="none" stroke="black" d="M1026.1,-1032.07C999.13,-1024.81 969.01,-1011.68 951.2,-988 938.23,-970.75 936.68,-946.01 937.99,-926.99"/>
<polygon fill="black" stroke="black" points="941.55,-927.57 939.05,-917.28 934.58,-926.88 941.55,-927.57"/>
</g>
<!-- gz&#45;sensors -->
<g id="node39" class="node">
<title>gz&#45;sensors</title>
<g id="a_node39"><a xlink:href="https://github.com/conda-forge/gz-sensors-feedstock" xlink:title="gz sensors">
<ellipse fill="#fde725" stroke="black" cx="1142.2" cy="-898" rx="64.36" ry="18"/>
<text text-anchor="middle" x="1142.2" y="-893.33" font-family="Times,serif" font-size="14.00">gz sensors</text>
</a>
</g>
</g>
<!-- gz&#45;msgs&#45;&gt;gz&#45;sensors -->
<g id="edge41" class="edge">
<title>gz&#45;msgs&#45;&gt;gz&#45;sensors</title>
<path fill="none" stroke="black" d="M1095,-1023.93C1101.6,-1013.82 1109.6,-1000.57 1115.2,-988 1124.02,-968.18 1131.02,-944.65 1135.68,-926.77"/>
<polygon fill="black" stroke="black" points="1139.3,-927.73 1138.34,-917.18 1132.51,-926.03 1139.3,-927.73"/>
</g>
<!-- gz&#45;sim -->
<g id="node40" class="node">
<title>gz&#45;sim</title>
<g id="a_node40"><a xlink:href="https://github.com/conda-forge/gz-sim-feedstock" xlink:title="gz sim">
<ellipse fill="#fde725" stroke="black" cx="1113.2" cy="-826" rx="43.84" ry="18"/>
<text text-anchor="middle" x="1113.2" y="-821.33" font-family="Times,serif" font-size="14.00">gz sim</text>
</a>
</g>
</g>
<!-- gz&#45;msgs&#45;&gt;gz&#45;sim -->
<g id="edge42" class="edge">
<title>gz&#45;msgs&#45;&gt;gz&#45;sim</title>
<path fill="none" stroke="black" d="M1146.48,-1035.3C1207.78,-1028.31 1294.43,-1014.05 1315.2,-988 1368.07,-921.69 1232.6,-865.49 1158.2,-840.65"/>
<polygon fill="black" stroke="black" points="1159.72,-837.14 1149.13,-837.36 1157.55,-843.79 1159.72,-837.14"/>
</g>
<!-- gz&#45;launch -->
<g id="node41" class="node">
<title>gz&#45;launch</title>
<g id="a_node41"><a xlink:href="https://github.com/conda-forge/gz-launch-feedstock" xlink:title="gz launch">
<ellipse fill="#fde725" stroke="black" cx="993.2" cy="-754" rx="59.1" ry="18"/>
<text text-anchor="middle" x="993.2" y="-749.33" font-family="Times,serif" font-size="14.00">gz launch</text>
</a>
</g>
</g>
<!-- gz&#45;msgs&#45;&gt;gz&#45;launch -->
<g id="edge43" class="edge">
<title>gz&#45;msgs&#45;&gt;gz&#45;launch</title>
<path fill="none" stroke="black" d="M1029.17,-1030.95C999.01,-1023.2 962.19,-1009.96 935.2,-988 906.11,-964.33 901.36,-952.1 891.2,-916 875.72,-861 927.52,-806.96 962.89,-777.59"/>
<polygon fill="black" stroke="black" points="964.45,-780.02 970.03,-771.02 960.05,-774.58 964.45,-780.02"/>
</g>
<!-- gz&#45;transport&#45;&gt;gz&#45;gui -->
<g id="edge44" class="edge">
<title>gz&#45;transport&#45;&gt;gz&#45;gui</title>
<path fill="none" stroke="black" d="M1011.63,-952.41C999.3,-942.93 983.69,-930.92 970.4,-920.69"/>
<polygon fill="black" stroke="black" points="973.11,-917.6 963.05,-914.27 968.85,-923.15 973.11,-917.6"/>
</g>
<!-- gz&#45;transport&#45;&gt;gz&#45;sensors -->
<g id="edge45" class="edge">
<title>gz&#45;transport&#45;&gt;gz&#45;sensors</title>
<path fill="none" stroke="black" d="M1058.48,-952.76C1073.3,-943.24 1092.22,-931.09 1108.33,-920.75"/>
<polygon fill="black" stroke="black" points="1109.91,-923.25 1116.43,-914.91 1106.12,-917.36 1109.91,-923.25"/>
</g>
<!-- gz&#45;transport&#45;&gt;gz&#45;sim -->
<g id="edge46" class="edge">
<title>gz&#45;transport&#45;&gt;gz&#45;sim</title>
<path fill="none" stroke="black" d="M1038.37,-951.87C1044.35,-933.39 1055.18,-903.46 1069.2,-880 1075.18,-869.99 1082.99,-859.92 1090.36,-851.28"/>
<polygon fill="black" stroke="black" points="1092.52,-853.99 1096.51,-844.18 1087.27,-849.36 1092.52,-853.99"/>
</g>
<!-- gz&#45;transport&#45;&gt;gz&#45;launch -->
<g id="edge47" class="edge">
<title>gz&#45;transport&#45;&gt;gz&#45;launch</title>
<path fill="none" stroke="black" d="M1029.99,-951.85C1023.1,-914.99 1006.83,-827.92 998.42,-782.96"/>
<polygon fill="black" stroke="black" points="1001.7,-782.42 996.42,-773.23 994.82,-783.71 1001.7,-782.42"/>
</g>
<!-- gz&#45;fuel&#45;tools&#45;&gt;gz&#45;sim -->
<g id="edge48" class="edge">
<title>gz&#45;fuel&#45;tools&#45;&gt;gz&#45;sim</title>
<path fill="none" stroke="black" d="M1234.7,-951.82C1234.4,-932.47 1231.19,-900.99 1215.2,-880 1201.13,-861.53 1178.78,-848.9 1158.58,-840.62"/>
<polygon fill="black" stroke="black" points="1160.17,-837.1 1149.58,-836.79 1157.67,-843.63 1160.17,-837.1"/>
</g>
<!-- gz&#45;gui&#45;&gt;gz&#45;sim -->
<g id="edge49" class="edge">
<title>gz&#45;gui&#45;&gt;gz&#45;sim</title>
<path fill="none" stroke="black" d="M971.59,-884.97C999.56,-873.52 1041.87,-856.2 1072.96,-843.47"/>
<polygon fill="black" stroke="black" points="1074.11,-846.37 1082.04,-839.35 1071.46,-839.9 1074.11,-846.37"/>
</g>
<!-- gz&#45;gui&#45;&gt;gz&#45;launch -->
<g id="edge50" class="edge">
<title>gz&#45;gui&#45;&gt;gz&#45;launch</title>
<path fill="none" stroke="black" d="M948.35,-879.87C957.04,-855.67 973.01,-811.21 983.36,-782.39"/>
<polygon fill="black" stroke="black" points="986.94,-783.78 987.02,-773.19 980.35,-781.42 986.94,-783.78"/>
</g>
<!-- gz&#45;sensors&#45;&gt;gz&#45;sim -->
<g id="edge51" class="edge">
<title>gz&#45;sensors&#45;&gt;gz&#45;sim</title>
<path fill="none" stroke="black" d="M1135.03,-879.7C1131.83,-871.98 1127.99,-862.71 1124.43,-854.11"/>
<polygon fill="black" stroke="black" points="1127.35,-853 1120.28,-845.1 1120.88,-855.68 1127.35,-853"/>
</g>
<!-- gz&#45;sim&#45;&gt;gz&#45;launch -->
<g id="edge52" class="edge">
<title>gz&#45;sim&#45;&gt;gz&#45;launch</title>
<path fill="none" stroke="black" d="M1088.62,-810.67C1071.5,-800.67 1048.37,-787.18 1029.17,-775.98"/>
<polygon fill="black" stroke="black" points="1031.22,-772.55 1020.82,-770.53 1027.7,-778.59 1031.22,-772.55"/>
</g>
</g>
</svg>
