<?xml version="1.0" encoding="UTF-8" standalone="no"?>
<!DOCTYPE svg PUBLIC "-//W3C//DTD SVG 1.1//EN"
 "http://www.w3.org/Graphics/SVG/1.1/DTD/svg11.dtd">
<!-- Generated by graphviz version 8.0.5 (20230506.1012)
 -->
<!-- Pages: 1 -->
<svg width="1922pt" height="1096pt"
 viewBox="0.00 0.00 1921.62 1096.00" xmlns="http://www.w3.org/2000/svg" xmlns:xlink="http://www.w3.org/1999/xlink">
<g id="graph0" class="graph" transform="scale(1 1) rotate(0) translate(4 1092)">
<polygon fill="white" stroke="none" points="-4,4 -4,-1092 1917.62,-1092 1917.62,4 -4,4"/>
<!-- arrow&#45;cpp -->
<g id="node1" class="node">
<title>arrow&#45;cpp</title>
<g id="a_node1"><a xlink:href="https://github.com/conda-forge/arrow-cpp-feedstock" xlink:title="arrow cpp">
<ellipse fill="#fde725" stroke="black" cx="1343.7" cy="-54" rx="61.73" ry="18"/>
<text text-anchor="middle" x="1343.7" y="-49.33" font-family="Times,serif" font-size="14.00">arrow cpp</text>
</a>
</g>
</g>
<!-- bazel -->
<g id="node2" class="node">
<title>bazel</title>
<g id="a_node2"><a xlink:href="https://github.com/conda-forge/bazel-feedstock" xlink:title="bazel">
<ellipse fill="#35b779" stroke="black" cx="1787.7" cy="-1070" rx="37.53" ry="18"/>
<text text-anchor="middle" x="1787.7" y="-1065.33" font-family="Times,serif" font-size="14.00">bazel</text>
</a>
</g>
</g>
<!-- mosh -->
<g id="node3" class="node">
<title>mosh</title>
<g id="a_node3"><a xlink:href="https://github.com/conda-forge/mosh-feedstock" xlink:title="mosh">
<ellipse fill="#35b779" stroke="black" cx="1787.7" cy="-998" rx="38.06" ry="18"/>
<text text-anchor="middle" x="1787.7" y="-993.33" font-family="Times,serif" font-size="14.00">mosh</text>
</a>
</g>
</g>
<!-- bazel&#45;&gt;mosh -->
<!-- paraview -->
<g id="node4" class="node">
<title>paraview</title>
<g id="a_node4"><a xlink:href="https://github.com/conda-forge/paraview-feedstock" xlink:title="paraview">
<ellipse fill="#35b779" stroke="black" cx="1787.7" cy="-926" rx="57" ry="18"/>
<text text-anchor="middle" x="1787.7" y="-921.33" font-family="Times,serif" font-size="14.00">paraview</text>
</a>
</g>
</g>
<!-- mosh&#45;&gt;paraview -->
<!-- qgis -->
<g id="node11" class="node">
<title>qgis</title>
<g id="a_node11"><a xlink:href="https://github.com/conda-forge/qgis-feedstock" xlink:title="qgis">
<ellipse fill="#35b779" stroke="black" cx="1787.7" cy="-854" rx="32.27" ry="18"/>
<text text-anchor="middle" x="1787.7" y="-849.33" font-family="Times,serif" font-size="14.00">qgis</text>
</a>
</g>
</g>
<!-- paraview&#45;&gt;qgis -->
<!-- mysql -->
<g id="node5" class="node">
<title>mysql</title>
<g id="a_node5"><a xlink:href="https://github.com/conda-forge/mysql-feedstock" xlink:title="mysql">
<ellipse fill="#35b779" stroke="black" cx="131.7" cy="-890" rx="41.21" ry="18"/>
<text text-anchor="middle" x="131.7" y="-885.33" font-family="Times,serif" font-size="14.00">mysql</text>
</a>
</g>
</g>
<!-- mysql&#45;connector&#45;python -->
<g id="node6" class="node">
<title>mysql&#45;connector&#45;python</title>
<g id="a_node6"><a xlink:href="https://github.com/conda-forge/mysql-connector-python-feedstock" xlink:title="mysql connector python">
<ellipse fill="#fde725" stroke="black" cx="131.7" cy="-818" rx="131.7" ry="18"/>
<text text-anchor="middle" x="131.7" y="-813.33" font-family="Times,serif" font-size="14.00">mysql connector python</text>
</a>
</g>
</g>
<!-- mysql&#45;&gt;mysql&#45;connector&#45;python -->
<g id="edge3" class="edge">
<title>mysql&#45;&gt;mysql&#45;connector&#45;python</title>
<path fill="none" stroke="black" d="M131.7,-871.7C131.7,-864.24 131.7,-855.32 131.7,-846.97"/>
<polygon fill="black" stroke="black" points="135.2,-847.1 131.7,-837.1 128.2,-847.1 135.2,-847.1"/>
</g>
<!-- onnx -->
<g id="node7" class="node">
<title>onnx</title>
<g id="a_node7"><a xlink:href="https://github.com/conda-forge/onnx-feedstock" xlink:title="onnx">
<ellipse fill="#fde725" stroke="black" cx="316.7" cy="-818" rx="35.42" ry="18"/>
<text text-anchor="middle" x="316.7" y="-813.33" font-family="Times,serif" font-size="14.00">onnx</text>
</a>
</g>
</g>
<!-- opencv -->
<g id="node8" class="node">
<title>opencv</title>
<g id="a_node8"><a xlink:href="https://github.com/conda-forge/opencv-feedstock" xlink:title="opencv">
<ellipse fill="#35b779" stroke="black" cx="757.7" cy="-890" rx="46.47" ry="18"/>
<text text-anchor="middle" x="757.7" y="-885.33" font-family="Times,serif" font-size="14.00">opencv</text>
</a>
</g>
</g>
<!-- imp -->
<g id="node9" class="node">
<title>imp</title>
<g id="a_node9"><a xlink:href="https://github.com/conda-forge/imp-feedstock" xlink:title="imp">
<ellipse fill="#fde725" stroke="black" cx="733.7" cy="-818" rx="30.16" ry="18"/>
<text text-anchor="middle" x="733.7" y="-813.33" font-family="Times,serif" font-size="14.00">imp</text>
</a>
</g>
</g>
<!-- opencv&#45;&gt;imp -->
<g id="edge4" class="edge">
<title>opencv&#45;&gt;imp</title>
<path fill="none" stroke="black" d="M751.77,-871.7C749.15,-864.07 746.02,-854.92 743.1,-846.4"/>
<polygon fill="black" stroke="black" points="746.12,-845.43 739.57,-837.1 739.5,-847.7 746.12,-845.43"/>
</g>
<!-- gazebo&#45;yarp&#45;plugins -->
<g id="node10" class="node">
<title>gazebo&#45;yarp&#45;plugins</title>
<g id="a_node10"><a xlink:href="https://github.com/conda-forge/gazebo-yarp-plugins-feedstock" xlink:title="gazebo yarp plugins">
<ellipse fill="#fde725" stroke="black" cx="893.7" cy="-818" rx="112.24" ry="18"/>
<text text-anchor="middle" x="893.7" y="-813.33" font-family="Times,serif" font-size="14.00">gazebo yarp plugins</text>
</a>
</g>
</g>
<!-- opencv&#45;&gt;gazebo&#45;yarp&#45;plugins -->
<g id="edge5" class="edge">
<title>opencv&#45;&gt;gazebo&#45;yarp&#45;plugins</title>
<path fill="none" stroke="black" d="M784.9,-875C803.99,-865.18 829.89,-851.85 851.63,-840.66"/>
<polygon fill="black" stroke="black" points="853,-843.37 860.29,-835.68 849.79,-837.15 853,-843.37"/>
</g>
<!-- libhdfs3 -->
<g id="node18" class="node">
<title>libhdfs3</title>
<g id="a_node18"><a xlink:href="https://github.com/conda-forge/libhdfs3-feedstock" xlink:title="libhdfs3">
<ellipse fill="#35b779" stroke="black" cx="1787.7" cy="-782" rx="51.74" ry="18"/>
<text text-anchor="middle" x="1787.7" y="-777.33" font-family="Times,serif" font-size="14.00">libhdfs3</text>
</a>
</g>
</g>
<!-- qgis&#45;&gt;libhdfs3 -->
<!-- protobuf -->
<g id="node12" class="node">
<title>protobuf</title>
<g id="a_node12"><a xlink:href="https://github.com/conda-forge/protobuf-feedstock" xlink:title="protobuf">
<ellipse fill="#35b779" stroke="black" cx="436.7" cy="-890" rx="54.36" ry="18"/>
<text text-anchor="middle" x="436.7" y="-885.33" font-family="Times,serif" font-size="14.00">protobuf</text>
</a>
</g>
</g>
<!-- protobuf&#45;&gt;mysql&#45;connector&#45;python -->
<g id="edge7" class="edge">
<title>protobuf&#45;&gt;mysql&#45;connector&#45;python</title>
<path fill="none" stroke="black" d="M393,-878.97C344.78,-867.9 266.26,-849.88 207.87,-836.48"/>
<polygon fill="black" stroke="black" points="208.74,-832.86 198.21,-834.03 207.18,-839.68 208.74,-832.86"/>
</g>
<!-- protobuf&#45;&gt;onnx -->
<g id="edge8" class="edge">
<title>protobuf&#45;&gt;onnx</title>
<path fill="none" stroke="black" d="M410.66,-873.81C392.5,-863.22 368.15,-849.01 348.79,-837.72"/>
<polygon fill="black" stroke="black" points="350.86,-834.29 340.45,-832.27 347.33,-840.33 350.86,-834.29"/>
</g>
<!-- protobuf&#45;&gt;imp -->
<g id="edge9" class="edge">
<title>protobuf&#45;&gt;imp</title>
<path fill="none" stroke="black" d="M485.98,-882.01C538.48,-873.84 623.65,-858.51 694.7,-836 696.66,-835.38 698.65,-834.7 700.64,-833.97"/>
<polygon fill="black" stroke="black" points="701.49,-837 709.5,-830.06 698.91,-830.49 701.49,-837"/>
</g>
<!-- tensorflow -->
<g id="node13" class="node">
<title>tensorflow</title>
<g id="a_node13"><a xlink:href="https://github.com/conda-forge/tensorflow-feedstock" xlink:title="tensorflow">
<ellipse fill="#fde725" stroke="black" cx="325.7" cy="-746" rx="63.84" ry="18"/>
<text text-anchor="middle" x="325.7" y="-741.33" font-family="Times,serif" font-size="14.00">tensorflow</text>
</a>
</g>
</g>
<!-- protobuf&#45;&gt;tensorflow -->
<g id="edge10" class="edge">
<title>protobuf&#45;&gt;tensorflow</title>
<path fill="none" stroke="black" d="M423.53,-872.15C404.17,-847.39 367.89,-800.97 345.37,-772.16"/>
<polygon fill="black" stroke="black" points="347.77,-770.55 338.85,-764.82 342.26,-774.86 347.77,-770.55"/>
</g>
<!-- zaber&#45;motion -->
<g id="node14" class="node">
<title>zaber&#45;motion</title>
<g id="a_node14"><a xlink:href="https://github.com/conda-forge/zaber-motion-feedstock" xlink:title="zaber motion">
<ellipse fill="#fde725" stroke="black" cx="350.7" cy="-674" rx="76.99" ry="18"/>
<text text-anchor="middle" x="350.7" y="-669.33" font-family="Times,serif" font-size="14.00">zaber motion</text>
</a>
</g>
</g>
<!-- protobuf&#45;&gt;zaber&#45;motion -->
<g id="edge11" class="edge">
<title>protobuf&#45;&gt;zaber&#45;motion</title>
<path fill="none" stroke="black" d="M435.45,-871.56C432.63,-840.91 423.95,-776.05 398.7,-728 393.33,-717.78 385.53,-707.99 377.77,-699.67"/>
<polygon fill="black" stroke="black" points="380.62,-697.56 371.12,-692.87 375.62,-702.46 380.62,-697.56"/>
</g>
<!-- protozfits -->
<g id="node15" class="node">
<title>protozfits</title>
<g id="a_node15"><a xlink:href="https://github.com/conda-forge/protozfits-feedstock" xlink:title="protozfits">
<ellipse fill="#fde725" stroke="black" cx="406.7" cy="-602" rx="59.1" ry="18"/>
<text text-anchor="middle" x="406.7" y="-597.33" font-family="Times,serif" font-size="14.00">protozfits</text>
</a>
</g>
</g>
<!-- protobuf&#45;&gt;protozfits -->
<g id="edge12" class="edge">
<title>protobuf&#45;&gt;protozfits</title>
<path fill="none" stroke="black" d="M439.86,-871.61C446.31,-832.28 458.66,-733.87 436.7,-656 434.06,-646.64 429.45,-637.16 424.61,-628.86"/>
<polygon fill="black" stroke="black" points="427.2,-627.38 418.95,-620.73 421.25,-631.07 427.2,-627.38"/>
</g>
<!-- or&#45;tools -->
<g id="node16" class="node">
<title>or&#45;tools</title>
<g id="a_node16"><a xlink:href="https://github.com/conda-forge/or-tools-feedstock" xlink:title="or tools">
<ellipse fill="#fde725" stroke="black" cx="493.7" cy="-530" rx="49.1" ry="18"/>
<text text-anchor="middle" x="493.7" y="-525.33" font-family="Times,serif" font-size="14.00">or tools</text>
</a>
</g>
</g>
<!-- protobuf&#45;&gt;or&#45;tools -->
<g id="edge13" class="edge">
<title>protobuf&#45;&gt;or&#45;tools</title>
<path fill="none" stroke="black" d="M448.51,-871.96C465.21,-846.16 493.7,-795.08 493.7,-747 493.7,-747 493.7,-747 493.7,-673 493.7,-633.57 493.7,-587.97 493.7,-559.31"/>
<polygon fill="black" stroke="black" points="497.2,-559.49 493.7,-549.49 490.2,-559.49 497.2,-559.49"/>
</g>
<!-- xilinx&#45;runtime -->
<g id="node17" class="node">
<title>xilinx&#45;runtime</title>
<g id="a_node17"><a xlink:href="https://github.com/conda-forge/xilinx-runtime-feedstock" xlink:title="xilinx runtime">
<ellipse fill="#fde725" stroke="black" cx="603.7" cy="-818" rx="81.72" ry="18"/>
<text text-anchor="middle" x="603.7" y="-813.33" font-family="Times,serif" font-size="14.00">xilinx runtime</text>
</a>
</g>
</g>
<!-- protobuf&#45;&gt;xilinx&#45;runtime -->
<g id="edge14" class="edge">
<title>protobuf&#45;&gt;xilinx&#45;runtime</title>
<path fill="none" stroke="black" d="M469.3,-875.34C494.24,-864.88 528.97,-850.32 556.89,-838.62"/>
<polygon fill="black" stroke="black" points="557.96,-841.55 565.83,-834.46 555.25,-835.09 557.96,-841.55"/>
</g>
<!-- r&#45;protolite -->
<g id="node19" class="node">
<title>r&#45;protolite</title>
<g id="a_node19"><a xlink:href="https://github.com/conda-forge/r-protolite-feedstock" xlink:title="r protolite">
<ellipse fill="#35b779" stroke="black" cx="1787.7" cy="-710" rx="62.26" ry="18"/>
<text text-anchor="middle" x="1787.7" y="-705.33" font-family="Times,serif" font-size="14.00">r protolite</text>
</a>
</g>
</g>
<!-- libhdfs3&#45;&gt;r&#45;protolite -->
<!-- jaxlib -->
<g id="node20" class="node">
<title>jaxlib</title>
<g id="a_node20"><a xlink:href="https://github.com/conda-forge/jaxlib-feedstock" xlink:title="jaxlib">
<ellipse fill="#35b779" stroke="black" cx="1787.7" cy="-638" rx="38.58" ry="18"/>
<text text-anchor="middle" x="1787.7" y="-633.33" font-family="Times,serif" font-size="14.00">jaxlib</text>
</a>
</g>
</g>
<!-- r&#45;protolite&#45;&gt;jaxlib -->
<!-- go&#45;cockroach -->
<g id="node23" class="node">
<title>go&#45;cockroach</title>
<g id="a_node23"><a xlink:href="https://github.com/conda-forge/go-cockroach-feedstock" xlink:title="go cockroach">
<ellipse fill="#35b779" stroke="black" cx="1787.7" cy="-566" rx="76.46" ry="18"/>
<text text-anchor="middle" x="1787.7" y="-561.33" font-family="Times,serif" font-size="14.00">go cockroach</text>
</a>
</g>
</g>
<!-- jaxlib&#45;&gt;go&#45;cockroach -->
<!-- pytorch&#45;cpu -->
<g id="node21" class="node">
<title>pytorch&#45;cpu</title>
<g id="a_node21"><a xlink:href="https://github.com/conda-forge/pytorch-cpu-feedstock" xlink:title="pytorch cpu">
<ellipse fill="#35b779" stroke="black" cx="1244.7" cy="-126" rx="70.68" ry="18"/>
<text text-anchor="middle" x="1244.7" y="-121.33" font-family="Times,serif" font-size="14.00">pytorch cpu</text>
</a>
</g>
</g>
<!-- pytorch&#45;cpu&#45;&gt;arrow&#45;cpp -->
<g id="edge18" class="edge">
<title>pytorch&#45;cpu&#45;&gt;arrow&#45;cpp</title>
<path fill="none" stroke="black" d="M1267.91,-108.59C1281.17,-99.22 1297.96,-87.34 1312.37,-77.16"/>
<polygon fill="black" stroke="black" points="1313.83,-79.7 1319.98,-71.07 1309.79,-73.98 1313.83,-79.7"/>
</g>
<!-- orc -->
<g id="node22" class="node">
<title>orc</title>
<g id="a_node22"><a xlink:href="https://github.com/conda-forge/orc-feedstock" xlink:title="orc">
<ellipse fill="#35b779" stroke="black" cx="1343.7" cy="-198" rx="27.01" ry="18"/>
<text text-anchor="middle" x="1343.7" y="-193.32" font-family="Times,serif" font-size="14.00">orc</text>
</a>
</g>
</g>
<!-- orc&#45;&gt;arrow&#45;cpp -->
<g id="edge19" class="edge">
<title>orc&#45;&gt;arrow&#45;cpp</title>
<path fill="none" stroke="black" d="M1343.7,-179.59C1343.7,-155.5 1343.7,-111.75 1343.7,-83.03"/>
<polygon fill="black" stroke="black" points="1347.2,-83.11 1343.7,-73.11 1340.2,-83.11 1347.2,-83.11"/>
</g>
<!-- cartographer -->
<g id="node33" class="node">
<title>cartographer</title>
<g id="a_node33"><a xlink:href="https://github.com/conda-forge/cartographer-feedstock" xlink:title="cartographer">
<ellipse fill="#35b779" stroke="black" cx="1787.7" cy="-494" rx="76.99" ry="18"/>
<text text-anchor="middle" x="1787.7" y="-489.32" font-family="Times,serif" font-size="14.00">cartographer</text>
</a>
</g>
</g>
<!-- go&#45;cockroach&#45;&gt;cartographer -->
<!-- libignition&#45;transport4 -->
<g id="node24" class="node">
<title>libignition&#45;transport4</title>
<g id="a_node24"><a xlink:href="https://github.com/conda-forge/libignition-transport4-feedstock" xlink:title="libignition transport4">
<ellipse fill="#fde725" stroke="black" cx="1219.7" cy="-782" rx="119.08" ry="18"/>
<text text-anchor="middle" x="1219.7" y="-777.33" font-family="Times,serif" font-size="14.00">libignition transport4</text>
</a>
</g>
</g>
<!-- libignition&#45;sensors -->
<g id="node25" class="node">
<title>libignition&#45;sensors</title>
<g id="a_node25"><a xlink:href="https://github.com/conda-forge/libignition-sensors-feedstock" xlink:title="libignition sensors">
<ellipse fill="#fde725" stroke="black" cx="1374.7" cy="-710" rx="103.82" ry="18"/>
<text text-anchor="middle" x="1374.7" y="-705.33" font-family="Times,serif" font-size="14.00">libignition sensors</text>
</a>
</g>
</g>
<!-- libignition&#45;transport4&#45;&gt;libignition&#45;sensors -->
<g id="edge21" class="edge">
<title>libignition&#45;transport4&#45;&gt;libignition&#45;sensors</title>
<path fill="none" stroke="black" d="M1256.44,-764.41C1278.04,-754.66 1305.55,-742.23 1328.59,-731.82"/>
<polygon fill="black" stroke="black" points="1329.83,-734.65 1337.5,-727.35 1326.95,-728.28 1329.83,-734.65"/>
</g>
<!-- libignition&#45;gui -->
<g id="node26" class="node">
<title>libignition&#45;gui</title>
<g id="a_node26"><a xlink:href="https://github.com/conda-forge/libignition-gui-feedstock" xlink:title="libignition gui">
<ellipse fill="#fde725" stroke="black" cx="1095.7" cy="-710" rx="81.2" ry="18"/>
<text text-anchor="middle" x="1095.7" y="-705.33" font-family="Times,serif" font-size="14.00">libignition gui</text>
</a>
</g>
</g>
<!-- libignition&#45;transport4&#45;&gt;libignition&#45;gui -->
<g id="edge22" class="edge">
<title>libignition&#45;transport4&#45;&gt;libignition&#45;gui</title>
<path fill="none" stroke="black" d="M1190,-764.23C1173.04,-754.66 1151.6,-742.56 1133.46,-732.31"/>
<polygon fill="black" stroke="black" points="1135.74,-729.02 1125.31,-727.15 1132.3,-735.11 1135.74,-729.02"/>
</g>
<!-- libignition&#45;gazebo -->
<g id="node27" class="node">
<title>libignition&#45;gazebo</title>
<g id="a_node27"><a xlink:href="https://github.com/conda-forge/libignition-gazebo-feedstock" xlink:title="libignition gazebo">
<ellipse fill="#fde725" stroke="black" cx="1354.7" cy="-638" rx="100.66" ry="18"/>
<text text-anchor="middle" x="1354.7" y="-633.33" font-family="Times,serif" font-size="14.00">libignition gazebo</text>
</a>
</g>
</g>
<!-- libignition&#45;transport4&#45;&gt;libignition&#45;gazebo -->
<g id="edge23" class="edge">
<title>libignition&#45;transport4&#45;&gt;libignition&#45;gazebo</title>
<path fill="none" stroke="black" d="M1224.37,-763.8C1230.35,-744.43 1242.32,-712.94 1261.7,-692 1273.93,-678.79 1290.23,-667.98 1305.76,-659.66"/>
<polygon fill="black" stroke="black" points="1306.97,-662.46 1314.29,-654.8 1303.79,-656.22 1306.97,-662.46"/>
</g>
<!-- libignition&#45;launch -->
<g id="node28" class="node">
<title>libignition&#45;launch</title>
<g id="a_node28"><a xlink:href="https://github.com/conda-forge/libignition-launch-feedstock" xlink:title="libignition launch">
<ellipse fill="#fde725" stroke="black" cx="1289.7" cy="-566" rx="98.56" ry="18"/>
<text text-anchor="middle" x="1289.7" y="-561.33" font-family="Times,serif" font-size="14.00">libignition launch</text>
</a>
</g>
</g>
<!-- libignition&#45;transport4&#45;&gt;libignition&#45;launch -->
<g id="edge24" class="edge">
<title>libignition&#45;transport4&#45;&gt;libignition&#45;launch</title>
<path fill="none" stroke="black" d="M1219.37,-763.68C1219.44,-733.2 1222.47,-668.62 1244.7,-620 1249.32,-609.9 1256.44,-600.21 1263.66,-591.94"/>
<polygon fill="black" stroke="black" points="1265.89,-594.6 1270.11,-584.89 1260.75,-589.85 1265.89,-594.6"/>
</g>
<!-- libignition&#45;sensors&#45;&gt;libignition&#45;gazebo -->
<g id="edge25" class="edge">
<title>libignition&#45;sensors&#45;&gt;libignition&#45;gazebo</title>
<path fill="none" stroke="black" d="M1369.76,-691.7C1367.6,-684.15 1365.02,-675.12 1362.61,-666.68"/>
<polygon fill="black" stroke="black" points="1365.7,-665.76 1359.59,-657.1 1358.97,-667.68 1365.7,-665.76"/>
</g>
<!-- libignition&#45;gui&#45;&gt;libignition&#45;gazebo -->
<g id="edge26" class="edge">
<title>libignition&#45;gui&#45;&gt;libignition&#45;gazebo</title>
<path fill="none" stroke="black" d="M1145.95,-695.42C1187.08,-684.3 1245.54,-668.5 1290.13,-656.45"/>
<polygon fill="black" stroke="black" points="1290.84,-659.62 1299.58,-653.63 1289.01,-652.86 1290.84,-659.62"/>
</g>
<!-- libignition&#45;gui&#45;&gt;libignition&#45;launch -->
<g id="edge27" class="edge">
<title>libignition&#45;gui&#45;&gt;libignition&#45;launch</title>
<path fill="none" stroke="black" d="M1111.04,-692.18C1128.95,-673.17 1160.03,-642 1190.7,-620 1207.55,-607.92 1227.47,-596.73 1245.02,-587.78"/>
<polygon fill="black" stroke="black" points="1246.11,-590.65 1253.49,-583.05 1242.98,-584.39 1246.11,-590.65"/>
</g>
<!-- libignition&#45;gazebo&#45;&gt;libignition&#45;launch -->
<g id="edge28" class="edge">
<title>libignition&#45;gazebo&#45;&gt;libignition&#45;launch</title>
<path fill="none" stroke="black" d="M1338.97,-620.05C1331.06,-611.54 1321.34,-601.07 1312.62,-591.68"/>
<polygon fill="black" stroke="black" points="1315.66,-589.74 1306.29,-584.79 1310.53,-594.5 1315.66,-589.74"/>
</g>
<!-- libignition&#45;msgs1 -->
<g id="node29" class="node">
<title>libignition&#45;msgs1</title>
<g id="a_node29"><a xlink:href="https://github.com/conda-forge/libignition-msgs1-feedstock" xlink:title="libignition msgs1">
<ellipse fill="#35b779" stroke="black" cx="1436.7" cy="-854" rx="98.03" ry="18"/>
<text text-anchor="middle" x="1436.7" y="-849.33" font-family="Times,serif" font-size="14.00">libignition msgs1</text>
</a>
</g>
</g>
<!-- libignition&#45;msgs1&#45;&gt;libignition&#45;transport4 -->
<g id="edge29" class="edge">
<title>libignition&#45;msgs1&#45;&gt;libignition&#45;transport4</title>
<path fill="none" stroke="black" d="M1389.62,-837.81C1357.06,-827.31 1313.49,-813.25 1278.63,-802.01"/>
<polygon fill="black" stroke="black" points="1280.17,-798.51 1269.58,-798.77 1278.02,-805.17 1280.17,-798.51"/>
</g>
<!-- libignition&#45;msgs1&#45;&gt;libignition&#45;sensors -->
<g id="edge30" class="edge">
<title>libignition&#45;msgs1&#45;&gt;libignition&#45;sensors</title>
<path fill="none" stroke="black" d="M1414.92,-836.2C1404.3,-826.76 1392.4,-814.06 1385.7,-800 1376.65,-781 1374.09,-757.25 1373.69,-739.07"/>
<polygon fill="black" stroke="black" points="1377.19,-739.29 1373.69,-729.29 1370.19,-739.29 1377.19,-739.29"/>
</g>
<!-- libignition&#45;msgs1&#45;&gt;libignition&#45;gui -->
<g id="edge31" class="edge">
<title>libignition&#45;msgs1&#45;&gt;libignition&#45;gui</title>
<path fill="none" stroke="black" d="M1339.16,-851.69C1248.56,-848.15 1123.08,-836.56 1091.7,-800 1077.49,-783.44 1080.16,-758.1 1085.42,-738.69"/>
<polygon fill="black" stroke="black" points="1089.01,-739.92 1088.61,-729.33 1082.32,-737.85 1089.01,-739.92"/>
</g>
<!-- libignition&#45;msgs1&#45;&gt;libignition&#45;gazebo -->
<g id="edge32" class="edge">
<title>libignition&#45;msgs1&#45;&gt;libignition&#45;gazebo</title>
<path fill="none" stroke="black" d="M1521.33,-844.52C1584.14,-834.26 1654.61,-811.93 1627.7,-764 1590.72,-698.12 1508.12,-666.77 1443.39,-651.97"/>
<polygon fill="black" stroke="black" points="1444.28,-648.36 1433.76,-649.65 1442.79,-655.2 1444.28,-648.36"/>
</g>
<!-- libignition&#45;msgs1&#45;&gt;libignition&#45;launch -->
<g id="edge33" class="edge">
<title>libignition&#45;msgs1&#45;&gt;libignition&#45;launch</title>
<path fill="none" stroke="black" d="M1515.33,-842.94C1566.93,-834.54 1627.72,-820.59 1643.7,-800 1653.51,-787.36 1648.83,-779.16 1643.7,-764 1605.77,-651.85 1464.66,-602.01 1372.46,-581.03"/>
<polygon fill="black" stroke="black" points="1373.27,-577.4 1362.75,-578.67 1371.76,-584.24 1373.27,-577.4"/>
</g>
<!-- libignition&#45;fuel&#45;tools -->
<g id="node30" class="node">
<title>libignition&#45;fuel&#45;tools</title>
<g id="a_node30"><a xlink:href="https://github.com/conda-forge/libignition-fuel-tools-feedstock" xlink:title="libignition fuel tools">
<ellipse fill="#fde725" stroke="black" cx="1506.7" cy="-782" rx="111.71" ry="18"/>
<text text-anchor="middle" x="1506.7" y="-777.33" font-family="Times,serif" font-size="14.00">libignition fuel tools</text>
</a>
</g>
</g>
<!-- libignition&#45;msgs1&#45;&gt;libignition&#45;fuel&#45;tools -->
<g id="edge34" class="edge">
<title>libignition&#45;msgs1&#45;&gt;libignition&#45;fuel&#45;tools</title>
<path fill="none" stroke="black" d="M1453.65,-836.05C1462.12,-827.58 1472.53,-817.17 1481.89,-807.82"/>
<polygon fill="black" stroke="black" points="1483.83,-810.82 1488.43,-801.28 1478.88,-805.87 1483.83,-810.82"/>
</g>
<!-- libignition&#45;fuel&#45;tools&#45;&gt;libignition&#45;gazebo -->
<g id="edge35" class="edge">
<title>libignition&#45;fuel&#45;tools&#45;&gt;libignition&#45;gazebo</title>
<path fill="none" stroke="black" d="M1507.58,-763.52C1507.62,-743.89 1504.72,-712.16 1487.7,-692 1473.31,-674.94 1452.64,-663.33 1431.88,-655.44"/>
<polygon fill="black" stroke="black" points="1433.3,-651.88 1422.71,-651.86 1430.98,-658.48 1433.3,-651.88"/>
</g>
<!-- gazebo -->
<g id="node31" class="node">
<title>gazebo</title>
<g id="a_node31"><a xlink:href="https://github.com/conda-forge/gazebo-feedstock" xlink:title="gazebo">
<ellipse fill="#35b779" stroke="black" cx="893.7" cy="-890" rx="46.47" ry="18"/>
<text text-anchor="middle" x="893.7" y="-885.33" font-family="Times,serif" font-size="14.00">gazebo</text>
</a>
</g>
</g>
<!-- gazebo&#45;&gt;gazebo&#45;yarp&#45;plugins -->
<g id="edge36" class="edge">
<title>gazebo&#45;&gt;gazebo&#45;yarp&#45;plugins</title>
<path fill="none" stroke="black" d="M893.7,-871.7C893.7,-864.24 893.7,-855.32 893.7,-846.97"/>
<polygon fill="black" stroke="black" points="897.2,-847.1 893.7,-837.1 890.2,-847.1 897.2,-847.1"/>
</g>
<!-- google&#45;cloud&#45;cpp -->
<g id="node32" class="node">
<title>google&#45;cloud&#45;cpp</title>
<g id="a_node32"><a xlink:href="https://github.com/conda-forge/google-cloud-cpp-feedstock" xlink:title="google cloud cpp">
<ellipse fill="#35b779" stroke="black" cx="1398.7" cy="-270" rx="95.4" ry="18"/>
<text text-anchor="middle" x="1398.7" y="-265.32" font-family="Times,serif" font-size="14.00">google cloud cpp</text>
</a>
</g>
</g>
<!-- google&#45;cloud&#45;cpp&#45;&gt;arrow&#45;cpp -->
<g id="edge37" class="edge">
<title>google&#45;cloud&#45;cpp&#45;&gt;arrow&#45;cpp</title>
<path fill="none" stroke="black" d="M1395.35,-251.52C1391.8,-233.52 1385.88,-204.68 1379.7,-180 1371.24,-146.22 1359.92,-107.79 1352.24,-82.56"/>
<polygon fill="black" stroke="black" points="1355.37,-81.82 1349.1,-73.29 1348.68,-83.87 1355.37,-81.82"/>
</g>
<!-- sentencepiece -->
<g id="node34" class="node">
<title>sentencepiece</title>
<g id="a_node34"><a xlink:href="https://github.com/conda-forge/sentencepiece-feedstock" xlink:title="sentencepiece">
<ellipse fill="#35b779" stroke="black" cx="1787.7" cy="-422" rx="82.25" ry="18"/>
<text text-anchor="middle" x="1787.7" y="-417.32" font-family="Times,serif" font-size="14.00">sentencepiece</text>
</a>
</g>
</g>
<!-- cartographer&#45;&gt;sentencepiece -->
<!-- tomviz -->
<g id="node35" class="node">
<title>tomviz</title>
<g id="a_node35"><a xlink:href="https://github.com/conda-forge/tomviz-feedstock" xlink:title="tomviz">
<ellipse fill="#35b779" stroke="black" cx="1787.7" cy="-350" rx="44.9" ry="18"/>
<text text-anchor="middle" x="1787.7" y="-345.32" font-family="Times,serif" font-size="14.00">tomviz</text>
</a>
</g>
</g>
<!-- sentencepiece&#45;&gt;tomviz -->
<!-- grpc_java_plugin -->
<g id="node36" class="node">
<title>grpc_java_plugin</title>
<g id="a_node36"><a xlink:href="https://github.com/conda-forge/grpc_java_plugin-feedstock" xlink:title="grpc_java_plugin">
<ellipse fill="#35b779" stroke="black" cx="1787.7" cy="-270" rx="95.4" ry="18"/>
<text text-anchor="middle" x="1787.7" y="-265.32" font-family="Times,serif" font-size="14.00">grpc_java_plugin</text>
</a>
</g>
</g>
<!-- bear -->
<g id="node37" class="node">
<title>bear</title>
<g id="a_node37"><a xlink:href="https://github.com/conda-forge/bear-feedstock" xlink:title="bear">
<ellipse fill="#35b779" stroke="black" cx="1787.7" cy="-198" rx="33.85" ry="18"/>
<text text-anchor="middle" x="1787.7" y="-193.32" font-family="Times,serif" font-size="14.00">bear</text>
</a>
</g>
</g>
<!-- grpc_java_plugin&#45;&gt;bear -->
<!-- cpp&#45;opentelemetry&#45;sdk -->
<g id="node38" class="node">
<title>cpp&#45;opentelemetry&#45;sdk</title>
<g id="a_node38"><a xlink:href="https://github.com/conda-forge/cpp-opentelemetry-sdk-feedstock" xlink:title="cpp opentelemetry sdk">
<ellipse fill="#35b779" stroke="black" cx="1787.7" cy="-126" rx="125.92" ry="18"/>
<text text-anchor="middle" x="1787.7" y="-121.33" font-family="Times,serif" font-size="14.00">cpp opentelemetry sdk</text>
</a>
</g>
</g>
<!-- bear&#45;&gt;cpp&#45;opentelemetry&#45;sdk -->
<!-- singlejar -->
<g id="node39" class="node">
<title>singlejar</title>
<g id="a_node39"><a xlink:href="https://github.com/conda-forge/singlejar-feedstock" xlink:title="singlejar">
<ellipse fill="#35b779" stroke="black" cx="1787.7" cy="-54" rx="54.89" ry="18"/>
<text text-anchor="middle" x="1787.7" y="-49.33" font-family="Times,serif" font-size="14.00">singlejar</text>
</a>
</g>
</g>
<!-- cpp&#45;opentelemetry&#45;sdk&#45;&gt;singlejar -->
<!-- gz&#45;msgs -->
<g id="node40" class="node">
<title>gz&#45;msgs</title>
<g id="a_node40"><a xlink:href="https://github.com/conda-forge/gz-msgs-feedstock" xlink:title="gz msgs">
<ellipse fill="#35b779" stroke="black" cx="464.7" cy="-306" rx="52.26" ry="18"/>
<text text-anchor="middle" x="464.7" y="-301.32" font-family="Times,serif" font-size="14.00">gz msgs</text>
</a>
</g>
</g>
<!-- gz&#45;transport -->
<g id="node41" class="node">
<title>gz&#45;transport</title>
<g id="a_node41"><a xlink:href="https://github.com/conda-forge/gz-transport-feedstock" xlink:title="gz transport">
<ellipse fill="#fde725" stroke="black" cx="414.7" cy="-234" rx="73.3" ry="18"/>
<text text-anchor="middle" x="414.7" y="-229.32" font-family="Times,serif" font-size="14.00">gz transport</text>
</a>
</g>
</g>
<!-- gz&#45;msgs&#45;&gt;gz&#45;transport -->
<g id="edge44" class="edge">
<title>gz&#45;msgs&#45;&gt;gz&#45;transport</title>
<path fill="none" stroke="black" d="M452.6,-288.05C446.7,-279.8 439.49,-269.7 432.94,-260.54"/>
<polygon fill="black" stroke="black" points="435.36,-258.89 426.69,-252.79 429.66,-262.96 435.36,-258.89"/>
</g>
<!-- gz&#45;fuel&#45;tools -->
<g id="node42" class="node">
<title>gz&#45;fuel&#45;tools</title>
<g id="a_node42"><a xlink:href="https://github.com/conda-forge/gz-fuel-tools-feedstock" xlink:title="gz fuel tools">
<ellipse fill="#fde725" stroke="black" cx="615.7" cy="-234" rx="72.25" ry="18"/>
<text text-anchor="middle" x="615.7" y="-229.32" font-family="Times,serif" font-size="14.00">gz fuel tools</text>
</a>
</g>
</g>
<!-- gz&#45;msgs&#45;&gt;gz&#45;fuel&#45;tools -->
<g id="edge45" class="edge">
<title>gz&#45;msgs&#45;&gt;gz&#45;fuel&#45;tools</title>
<path fill="none" stroke="black" d="M494.9,-291C517.14,-280.69 547.7,-266.53 572.52,-255.02"/>
<polygon fill="black" stroke="black" points="573.81,-257.81 581.41,-250.43 570.87,-251.46 573.81,-257.81"/>
</g>
<!-- gz&#45;gui -->
<g id="node43" class="node">
<title>gz&#45;gui</title>
<g id="a_node43"><a xlink:href="https://github.com/conda-forge/gz-gui-feedstock" xlink:title="gz gui">
<ellipse fill="#fde725" stroke="black" cx="323.7" cy="-162" rx="41.74" ry="18"/>
<text text-anchor="middle" x="323.7" y="-157.32" font-family="Times,serif" font-size="14.00">gz gui</text>
</a>
</g>
</g>
<!-- gz&#45;msgs&#45;&gt;gz&#45;gui -->
<g id="edge46" class="edge">
<title>gz&#45;msgs&#45;&gt;gz&#45;gui</title>
<path fill="none" stroke="black" d="M416.89,-298.38C387.83,-291.73 352.59,-278.45 332.7,-252 319.73,-234.75 318.19,-210.01 319.49,-190.99"/>
<polygon fill="black" stroke="black" points="323.05,-191.57 320.56,-181.28 316.08,-190.88 323.05,-191.57"/>
</g>
<!-- gz&#45;sensors -->
<g id="node44" class="node">
<title>gz&#45;sensors</title>
<g id="a_node44"><a xlink:href="https://github.com/conda-forge/gz-sensors-feedstock" xlink:title="gz sensors">
<ellipse fill="#fde725" stroke="black" cx="523.7" cy="-162" rx="64.36" ry="18"/>
<text text-anchor="middle" x="523.7" y="-157.32" font-family="Times,serif" font-size="14.00">gz sensors</text>
</a>
</g>
</g>
<!-- gz&#45;msgs&#45;&gt;gz&#45;sensors -->
<g id="edge47" class="edge">
<title>gz&#45;msgs&#45;&gt;gz&#45;sensors</title>
<path fill="none" stroke="black" d="M476.2,-288.4C482.86,-278.23 491.02,-264.77 496.7,-252 505.53,-232.18 512.52,-208.65 517.18,-190.77"/>
<polygon fill="black" stroke="black" points="520.8,-191.73 519.84,-181.18 514.01,-190.03 520.8,-191.73"/>
</g>
<!-- gz&#45;sim -->
<g id="node45" class="node">
<title>gz&#45;sim</title>
<g id="a_node45"><a xlink:href="https://github.com/conda-forge/gz-sim-feedstock" xlink:title="gz sim">
<ellipse fill="#fde725" stroke="black" cx="494.7" cy="-90" rx="43.84" ry="18"/>
<text text-anchor="middle" x="494.7" y="-85.33" font-family="Times,serif" font-size="14.00">gz sim</text>
</a>
</g>
</g>
<!-- gz&#45;msgs&#45;&gt;gz&#45;sim -->
<g id="edge48" class="edge">
<title>gz&#45;msgs&#45;&gt;gz&#45;sim</title>
<path fill="none" stroke="black" d="M515.03,-300.71C576.31,-294.32 674.42,-279.94 696.7,-252 749.57,-185.69 614.11,-129.49 539.7,-104.65"/>
<polygon fill="black" stroke="black" points="541.23,-101.14 530.64,-101.36 539.05,-107.79 541.23,-101.14"/>
</g>
<!-- gz&#45;launch -->
<g id="node46" class="node">
<title>gz&#45;launch</title>
<g id="a_node46"><a xlink:href="https://github.com/conda-forge/gz-launch-feedstock" xlink:title="gz launch">
<ellipse fill="#fde725" stroke="black" cx="374.7" cy="-18" rx="59.1" ry="18"/>
<text text-anchor="middle" x="374.7" y="-13.32" font-family="Times,serif" font-size="14.00">gz launch</text>
</a>
</g>
</g>
<!-- gz&#45;msgs&#45;&gt;gz&#45;launch -->
<g id="edge49" class="edge">
<title>gz&#45;msgs&#45;&gt;gz&#45;launch</title>
<path fill="none" stroke="black" d="M419,-296.99C387.53,-289.61 346.23,-276.03 316.7,-252 287.61,-228.33 282.86,-216.1 272.7,-180 257.23,-125 309.03,-70.96 344.39,-41.59"/>
<polygon fill="black" stroke="black" points="345.95,-44.02 351.54,-35.02 341.56,-38.58 345.95,-44.02"/>
</g>
<!-- gz&#45;transport&#45;&gt;gz&#45;gui -->
<g id="edge50" class="edge">
<title>gz&#45;transport&#45;&gt;gz&#45;gui</title>
<path fill="none" stroke="black" d="M393.14,-216.41C380.81,-206.93 365.2,-194.92 351.9,-184.69"/>
<polygon fill="black" stroke="black" points="354.62,-181.6 344.56,-178.27 350.35,-187.15 354.62,-181.6"/>
</g>
<!-- gz&#45;transport&#45;&gt;gz&#45;sensors -->
<g id="edge51" class="edge">
<title>gz&#45;transport&#45;&gt;gz&#45;sensors</title>
<path fill="none" stroke="black" d="M439.98,-216.76C454.81,-207.24 473.73,-195.09 489.83,-184.75"/>
<polygon fill="black" stroke="black" points="491.41,-187.25 497.93,-178.91 487.63,-181.36 491.41,-187.25"/>
</g>
<!-- gz&#45;transport&#45;&gt;gz&#45;sim -->
<g id="edge52" class="edge">
<title>gz&#45;transport&#45;&gt;gz&#45;sim</title>
<path fill="none" stroke="black" d="M419.88,-215.87C425.85,-197.39 436.68,-167.46 450.7,-144 456.68,-133.99 464.49,-123.92 471.87,-115.28"/>
<polygon fill="black" stroke="black" points="474.02,-117.99 478.01,-108.18 468.77,-113.36 474.02,-117.99"/>
</g>
<!-- gz&#45;transport&#45;&gt;gz&#45;launch -->
<g id="edge53" class="edge">
<title>gz&#45;transport&#45;&gt;gz&#45;launch</title>
<path fill="none" stroke="black" d="M411.5,-215.85C404.61,-178.99 388.33,-91.92 379.93,-46.96"/>
<polygon fill="black" stroke="black" points="383.2,-46.42 377.92,-37.23 376.32,-47.71 383.2,-46.42"/>
</g>
<!-- gz&#45;fuel&#45;tools&#45;&gt;gz&#45;sim -->
<g id="edge54" class="edge">
<title>gz&#45;fuel&#45;tools&#45;&gt;gz&#45;sim</title>
<path fill="none" stroke="black" d="M616.21,-215.82C615.91,-196.47 612.69,-164.99 596.7,-144 582.63,-125.53 560.29,-112.9 540.09,-104.62"/>
<polygon fill="black" stroke="black" points="541.68,-101.1 531.09,-100.79 539.17,-107.63 541.68,-101.1"/>
</g>
<!-- gz&#45;gui&#45;&gt;gz&#45;sim -->
<g id="edge55" class="edge">
<title>gz&#45;gui&#45;&gt;gz&#45;sim</title>
<path fill="none" stroke="black" d="M353.1,-148.97C381.07,-137.52 423.38,-120.2 454.47,-107.47"/>
<polygon fill="black" stroke="black" points="455.61,-110.37 463.54,-103.35 452.96,-103.9 455.61,-110.37"/>
</g>
<!-- gz&#45;gui&#45;&gt;gz&#45;launch -->
<g id="edge56" class="edge">
<title>gz&#45;gui&#45;&gt;gz&#45;launch</title>
<path fill="none" stroke="black" d="M329.85,-143.87C338.55,-119.67 354.51,-75.21 364.86,-46.39"/>
<polygon fill="black" stroke="black" points="368.44,-47.78 368.53,-37.19 361.86,-45.42 368.44,-47.78"/>
</g>
<!-- gz&#45;sensors&#45;&gt;gz&#45;sim -->
<g id="edge57" class="edge">
<title>gz&#45;sensors&#45;&gt;gz&#45;sim</title>
<path fill="none" stroke="black" d="M516.53,-143.7C513.34,-135.98 509.5,-126.71 505.94,-118.11"/>
<polygon fill="black" stroke="black" points="508.85,-117 501.79,-109.1 502.38,-119.68 508.85,-117"/>
</g>
<!-- gz&#45;sim&#45;&gt;gz&#45;launch -->
<g id="edge58" class="edge">
<title>gz&#45;sim&#45;&gt;gz&#45;launch</title>
<path fill="none" stroke="black" d="M470.13,-74.67C453,-64.67 429.87,-51.18 410.67,-39.98"/>
<polygon fill="black" stroke="black" points="412.73,-36.55 402.33,-34.53 409.2,-42.59 412.73,-36.55"/>
</g>
</g>
</svg>
