<?xml version="1.0" encoding="UTF-8" standalone="no"?>
<!DOCTYPE svg PUBLIC "-//W3C//DTD SVG 1.1//EN"
 "http://www.w3.org/Graphics/SVG/1.1/DTD/svg11.dtd">
<!-- Generated by graphviz version 8.0.5 (20230506.1012)
 -->
<!-- Pages: 1 -->
<svg width="1265pt" height="1212pt"
 viewBox="0.00 0.00 1264.86 1212.00" xmlns="http://www.w3.org/2000/svg" xmlns:xlink="http://www.w3.org/1999/xlink">
<g id="graph0" class="graph" transform="scale(1 1) rotate(0) translate(4 1208)">
<polygon fill="white" stroke="none" points="-4,4 -4,-1208 1260.86,-1208 1260.86,4 -4,4"/>
<!-- arrow&#45;cpp -->
<g id="node1" class="node">
<title>arrow&#45;cpp</title>
<g id="a_node1"><a xlink:href="https://github.com/conda-forge/arrow-cpp-feedstock" xlink:title="arrow cpp">
<ellipse fill="#fde725" stroke="black" cx="1076.2" cy="-718" rx="61.73" ry="18"/>
<text text-anchor="middle" x="1076.2" y="-713.33" font-family="Times,serif" font-size="14.00">arrow cpp</text>
</a>
</g>
</g>
<!-- bazel -->
<g id="node2" class="node">
<title>bazel</title>
<g id="a_node2"><a xlink:href="https://github.com/conda-forge/bazel-feedstock" xlink:title="bazel">
<ellipse fill="#ff8c00" stroke="black" cx="757.2" cy="-1186" rx="37.53" ry="18"/>
<text text-anchor="middle" x="757.2" y="-1181.33" font-family="Times,serif" font-size="14.00">bazel</text>
</a>
</g>
</g>
<!-- onnx -->
<g id="node3" class="node">
<title>onnx</title>
<g id="a_node3"><a xlink:href="https://github.com/conda-forge/onnx-feedstock/pull/96" xlink:title="onnx ❎">
<ellipse fill="#31688e" stroke="black" cx="757.2" cy="-1114" rx="50.68" ry="18"/>
<text text-anchor="middle" x="757.2" y="-1109.33" font-family="Times,serif" font-size="14.00" fill="white">onnx ❎</text>
</a>
</g>
</g>
<!-- bazel&#45;&gt;onnx -->
<!-- paraview -->
<g id="node6" class="node">
<title>paraview</title>
<g id="a_node6"><a xlink:href="https://github.com/conda-forge/paraview-feedstock/pull/193" xlink:title="paraview ❎">
<ellipse fill="#31688e" stroke="black" cx="757.2" cy="-1042" rx="72.25" ry="18"/>
<text text-anchor="middle" x="757.2" y="-1037.33" font-family="Times,serif" font-size="14.00" fill="white">paraview ❎</text>
</a>
</g>
</g>
<!-- onnx&#45;&gt;paraview -->
<!-- mysql -->
<g id="node4" class="node">
<title>mysql</title>
<g id="a_node4"><a xlink:href="https://github.com/conda-forge/mysql-feedstock/pull/78" xlink:title="mysql ❎">
<ellipse fill="#31688e" stroke="black" cx="319.2" cy="-90" rx="56.47" ry="18"/>
<text text-anchor="middle" x="319.2" y="-85.33" font-family="Times,serif" font-size="14.00" fill="white">mysql ❎</text>
</a>
</g>
</g>
<!-- mysql&#45;connector&#45;python -->
<g id="node5" class="node">
<title>mysql&#45;connector&#45;python</title>
<g id="a_node5"><a xlink:href="https://github.com/conda-forge/mysql-connector-python-feedstock" xlink:title="mysql connector python">
<ellipse fill="#fde725" stroke="black" cx="319.2" cy="-18" rx="131.7" ry="18"/>
<text text-anchor="middle" x="319.2" y="-13.32" font-family="Times,serif" font-size="14.00">mysql connector python</text>
</a>
</g>
</g>
<!-- mysql&#45;&gt;mysql&#45;connector&#45;python -->
<g id="edge2" class="edge">
<title>mysql&#45;&gt;mysql&#45;connector&#45;python</title>
<path fill="none" stroke="black" d="M319.2,-71.7C319.2,-64.24 319.2,-55.32 319.2,-46.97"/>
<polygon fill="black" stroke="black" points="322.7,-47.1 319.2,-37.1 315.7,-47.1 322.7,-47.1"/>
</g>
<!-- qgis -->
<g id="node10" class="node">
<title>qgis</title>
<g id="a_node10"><a xlink:href="https://github.com/conda-forge/qgis-feedstock/pull/332" xlink:title="qgis ❎">
<ellipse fill="#31688e" stroke="black" cx="757.2" cy="-970" rx="47.53" ry="18"/>
<text text-anchor="middle" x="757.2" y="-965.33" font-family="Times,serif" font-size="14.00" fill="white">qgis ❎</text>
</a>
</g>
</g>
<!-- paraview&#45;&gt;qgis -->
<!-- opencv -->
<g id="node7" class="node">
<title>opencv</title>
<g id="a_node7"><a xlink:href="https://github.com/conda-forge/opencv-feedstock/pull/362" xlink:title="opencv ❎">
<ellipse fill="#31688e" stroke="black" cx="969.2" cy="-314" rx="61.73" ry="18"/>
<text text-anchor="middle" x="969.2" y="-309.32" font-family="Times,serif" font-size="14.00" fill="white">opencv ❎</text>
</a>
</g>
</g>
<!-- imp -->
<g id="node8" class="node">
<title>imp</title>
<g id="a_node8"><a xlink:href="https://github.com/conda-forge/imp-feedstock" xlink:title="imp">
<ellipse fill="#fde725" stroke="black" cx="952.2" cy="-242" rx="30.16" ry="18"/>
<text text-anchor="middle" x="952.2" y="-237.32" font-family="Times,serif" font-size="14.00">imp</text>
</a>
</g>
</g>
<!-- opencv&#45;&gt;imp -->
<g id="edge4" class="edge">
<title>opencv&#45;&gt;imp</title>
<path fill="none" stroke="black" d="M965,-295.7C963.16,-288.15 960.97,-279.12 958.92,-270.68"/>
<polygon fill="black" stroke="black" points="962.11,-270 956.35,-261.1 955.31,-271.65 962.11,-270"/>
</g>
<!-- gazebo&#45;yarp&#45;plugins -->
<g id="node9" class="node">
<title>gazebo&#45;yarp&#45;plugins</title>
<g id="a_node9"><a xlink:href="https://github.com/conda-forge/gazebo-yarp-plugins-feedstock" xlink:title="gazebo yarp plugins">
<ellipse fill="#fde725" stroke="black" cx="1112.2" cy="-242" rx="112.24" ry="18"/>
<text text-anchor="middle" x="1112.2" y="-237.32" font-family="Times,serif" font-size="14.00">gazebo yarp plugins</text>
</a>
</g>
</g>
<!-- opencv&#45;&gt;gazebo&#45;yarp&#45;plugins -->
<g id="edge5" class="edge">
<title>opencv&#45;&gt;gazebo&#45;yarp&#45;plugins</title>
<path fill="none" stroke="black" d="M999.88,-297.98C1019.87,-288.19 1046.28,-275.27 1068.46,-264.41"/>
<polygon fill="black" stroke="black" points="1069.88,-267.12 1077.32,-259.58 1066.8,-260.84 1069.88,-267.12"/>
</g>
<!-- tensorflow -->
<g id="node11" class="node">
<title>tensorflow</title>
<g id="a_node11"><a xlink:href="https://github.com/conda-forge/tensorflow-feedstock" xlink:title="tensorflow">
<ellipse fill="#ff8c00" stroke="black" cx="757.2" cy="-898" rx="63.84" ry="18"/>
<text text-anchor="middle" x="757.2" y="-893.33" font-family="Times,serif" font-size="14.00">tensorflow</text>
</a>
</g>
</g>
<!-- qgis&#45;&gt;tensorflow -->
<!-- libhdfs3 -->
<g id="node12" class="node">
<title>libhdfs3</title>
<g id="a_node12"><a xlink:href="https://github.com/conda-forge/libhdfs3-feedstock/pull/50" xlink:title="libhdfs3 ❎">
<ellipse fill="#31688e" stroke="black" cx="757.2" cy="-826" rx="66.99" ry="18"/>
<text text-anchor="middle" x="757.2" y="-821.33" font-family="Times,serif" font-size="14.00" fill="white">libhdfs3 ❎</text>
</a>
</g>
</g>
<!-- tensorflow&#45;&gt;libhdfs3 -->
<!-- jaxlib -->
<g id="node13" class="node">
<title>jaxlib</title>
<g id="a_node13"><a xlink:href="https://github.com/conda-forge/jaxlib-feedstock/pull/179" xlink:title="jaxlib ❎">
<ellipse fill="#31688e" stroke="black" cx="757.2" cy="-754" rx="53.84" ry="18"/>
<text text-anchor="middle" x="757.2" y="-749.33" font-family="Times,serif" font-size="14.00" fill="white">jaxlib ❎</text>
</a>
</g>
</g>
<!-- libhdfs3&#45;&gt;jaxlib -->
<!-- zaber&#45;motion -->
<g id="node16" class="node">
<title>zaber&#45;motion</title>
<g id="a_node16"><a xlink:href="https://github.com/conda-forge/zaber-motion-feedstock/pull/104" xlink:title="zaber motion ❎">
<ellipse fill="#31688e" stroke="black" cx="757.2" cy="-682" rx="92.25" ry="18"/>
<text text-anchor="middle" x="757.2" y="-677.33" font-family="Times,serif" font-size="14.00" fill="white">zaber motion ❎</text>
</a>
</g>
</g>
<!-- jaxlib&#45;&gt;zaber&#45;motion -->
<!-- pytorch&#45;cpu -->
<g id="node14" class="node">
<title>pytorch&#45;cpu</title>
<g id="a_node14"><a xlink:href="https://github.com/conda-forge/pytorch-cpu-feedstock/pull/170" xlink:title="pytorch cpu ❎">
<ellipse fill="#31688e" stroke="black" cx="962.2" cy="-790" rx="85.93" ry="18"/>
<text text-anchor="middle" x="962.2" y="-785.33" font-family="Times,serif" font-size="14.00" fill="white">pytorch cpu ❎</text>
</a>
</g>
</g>
<!-- pytorch&#45;cpu&#45;&gt;arrow&#45;cpp -->
<g id="edge10" class="edge">
<title>pytorch&#45;cpu&#45;&gt;arrow&#45;cpp</title>
<path fill="none" stroke="black" d="M988.93,-772.59C1004.58,-762.97 1024.54,-750.72 1041.41,-740.36"/>
<polygon fill="black" stroke="black" points="1042.73,-743.04 1049.42,-734.83 1039.07,-737.08 1042.73,-743.04"/>
</g>
<!-- orc -->
<g id="node15" class="node">
<title>orc</title>
<g id="a_node15"><a xlink:href="https://github.com/conda-forge/orc-feedstock/pull/59" xlink:title="orc ❎">
<ellipse fill="#31688e" stroke="black" cx="1076.2" cy="-862" rx="42.26" ry="18"/>
<text text-anchor="middle" x="1076.2" y="-857.33" font-family="Times,serif" font-size="14.00" fill="white">orc ❎</text>
</a>
</g>
</g>
<!-- orc&#45;&gt;arrow&#45;cpp -->
<g id="edge11" class="edge">
<title>orc&#45;&gt;arrow&#45;cpp</title>
<path fill="none" stroke="black" d="M1076.2,-843.59C1076.2,-819.5 1076.2,-775.75 1076.2,-747.03"/>
<polygon fill="black" stroke="black" points="1079.7,-747.11 1076.2,-737.11 1072.7,-747.11 1079.7,-747.11"/>
</g>
<!-- go&#45;cockroach -->
<g id="node25" class="node">
<title>go&#45;cockroach</title>
<g id="a_node25"><a xlink:href="https://github.com/conda-forge/go-cockroach-feedstock" xlink:title="go cockroach">
<ellipse fill="#ff8c00" stroke="black" cx="757.2" cy="-610" rx="76.46" ry="18"/>
<text text-anchor="middle" x="757.2" y="-605.33" font-family="Times,serif" font-size="14.00">go cockroach</text>
</a>
</g>
</g>
<!-- zaber&#45;motion&#45;&gt;go&#45;cockroach -->
<!-- libignition&#45;transport4 -->
<g id="node17" class="node">
<title>libignition&#45;transport4</title>
<g id="a_node17"><a xlink:href="https://github.com/conda-forge/libignition-transport4-feedstock" xlink:title="libignition transport4">
<ellipse fill="#fde725" stroke="black" cx="205.2" cy="-898" rx="119.08" ry="18"/>
<text text-anchor="middle" x="205.2" y="-893.33" font-family="Times,serif" font-size="14.00">libignition transport4</text>
</a>
</g>
</g>
<!-- libignition&#45;sensors -->
<g id="node18" class="node">
<title>libignition&#45;sensors</title>
<g id="a_node18"><a xlink:href="https://github.com/conda-forge/libignition-sensors-feedstock" xlink:title="libignition sensors">
<ellipse fill="#fde725" stroke="black" cx="360.2" cy="-826" rx="103.82" ry="18"/>
<text text-anchor="middle" x="360.2" y="-821.33" font-family="Times,serif" font-size="14.00">libignition sensors</text>
</a>
</g>
</g>
<!-- libignition&#45;transport4&#45;&gt;libignition&#45;sensors -->
<g id="edge13" class="edge">
<title>libignition&#45;transport4&#45;&gt;libignition&#45;sensors</title>
<path fill="none" stroke="black" d="M241.93,-880.41C263.53,-870.66 291.04,-858.23 314.09,-847.82"/>
<polygon fill="black" stroke="black" points="315.32,-850.65 323,-843.35 312.44,-844.28 315.32,-850.65"/>
</g>
<!-- libignition&#45;gui -->
<g id="node19" class="node">
<title>libignition&#45;gui</title>
<g id="a_node19"><a xlink:href="https://github.com/conda-forge/libignition-gui-feedstock" xlink:title="libignition gui">
<ellipse fill="#fde725" stroke="black" cx="81.2" cy="-826" rx="81.2" ry="18"/>
<text text-anchor="middle" x="81.2" y="-821.33" font-family="Times,serif" font-size="14.00">libignition gui</text>
</a>
</g>
</g>
<!-- libignition&#45;transport4&#45;&gt;libignition&#45;gui -->
<g id="edge14" class="edge">
<title>libignition&#45;transport4&#45;&gt;libignition&#45;gui</title>
<path fill="none" stroke="black" d="M175.5,-880.23C158.54,-870.66 137.1,-858.56 118.95,-848.31"/>
<polygon fill="black" stroke="black" points="121.23,-845.02 110.8,-843.15 117.79,-851.11 121.23,-845.02"/>
</g>
<!-- libignition&#45;gazebo -->
<g id="node20" class="node">
<title>libignition&#45;gazebo</title>
<g id="a_node20"><a xlink:href="https://github.com/conda-forge/libignition-gazebo-feedstock" xlink:title="libignition gazebo">
<ellipse fill="#fde725" stroke="black" cx="340.2" cy="-754" rx="100.66" ry="18"/>
<text text-anchor="middle" x="340.2" y="-749.33" font-family="Times,serif" font-size="14.00">libignition gazebo</text>
</a>
</g>
</g>
<!-- libignition&#45;transport4&#45;&gt;libignition&#45;gazebo -->
<g id="edge15" class="edge">
<title>libignition&#45;transport4&#45;&gt;libignition&#45;gazebo</title>
<path fill="none" stroke="black" d="M209.87,-879.8C215.85,-860.43 227.81,-828.94 247.2,-808 259.43,-794.79 275.72,-783.98 291.26,-775.66"/>
<polygon fill="black" stroke="black" points="292.47,-778.46 299.78,-770.8 289.28,-772.22 292.47,-778.46"/>
</g>
<!-- libignition&#45;launch -->
<g id="node21" class="node">
<title>libignition&#45;launch</title>
<g id="a_node21"><a xlink:href="https://github.com/conda-forge/libignition-launch-feedstock" xlink:title="libignition launch">
<ellipse fill="#fde725" stroke="black" cx="275.2" cy="-682" rx="98.56" ry="18"/>
<text text-anchor="middle" x="275.2" y="-677.33" font-family="Times,serif" font-size="14.00">libignition launch</text>
</a>
</g>
</g>
<!-- libignition&#45;transport4&#45;&gt;libignition&#45;launch -->
<g id="edge16" class="edge">
<title>libignition&#45;transport4&#45;&gt;libignition&#45;launch</title>
<path fill="none" stroke="black" d="M204.87,-879.68C204.93,-849.2 207.96,-784.62 230.2,-736 234.82,-725.9 241.93,-716.21 249.15,-707.94"/>
<polygon fill="black" stroke="black" points="251.38,-710.6 255.61,-700.89 246.25,-705.85 251.38,-710.6"/>
</g>
<!-- libignition&#45;sensors&#45;&gt;libignition&#45;gazebo -->
<g id="edge17" class="edge">
<title>libignition&#45;sensors&#45;&gt;libignition&#45;gazebo</title>
<path fill="none" stroke="black" d="M355.25,-807.7C353.1,-800.15 350.52,-791.12 348.11,-782.68"/>
<polygon fill="black" stroke="black" points="351.2,-781.76 345.08,-773.1 344.47,-783.68 351.2,-781.76"/>
</g>
<!-- libignition&#45;gui&#45;&gt;libignition&#45;gazebo -->
<g id="edge18" class="edge">
<title>libignition&#45;gui&#45;&gt;libignition&#45;gazebo</title>
<path fill="none" stroke="black" d="M131.44,-811.42C172.57,-800.3 231.03,-784.5 275.63,-772.45"/>
<polygon fill="black" stroke="black" points="276.33,-775.62 285.07,-769.63 274.51,-768.86 276.33,-775.62"/>
</g>
<!-- libignition&#45;gui&#45;&gt;libignition&#45;launch -->
<g id="edge19" class="edge">
<title>libignition&#45;gui&#45;&gt;libignition&#45;launch</title>
<path fill="none" stroke="black" d="M96.54,-808.18C114.45,-789.17 145.53,-758 176.2,-736 193.04,-723.92 212.97,-712.73 230.51,-703.78"/>
<polygon fill="black" stroke="black" points="231.6,-706.65 238.98,-699.05 228.47,-700.39 231.6,-706.65"/>
</g>
<!-- libignition&#45;gazebo&#45;&gt;libignition&#45;launch -->
<g id="edge20" class="edge">
<title>libignition&#45;gazebo&#45;&gt;libignition&#45;launch</title>
<path fill="none" stroke="black" d="M324.46,-736.05C316.56,-727.54 306.83,-717.07 298.12,-707.68"/>
<polygon fill="black" stroke="black" points="301.16,-705.74 291.79,-700.79 296.03,-710.5 301.16,-705.74"/>
</g>
<!-- libignition&#45;msgs1 -->
<g id="node22" class="node">
<title>libignition&#45;msgs1</title>
<g id="a_node22"><a xlink:href="https://github.com/conda-forge/libignition-msgs1-feedstock/pull/85" xlink:title="libignition msgs1 ❎">
<ellipse fill="#31688e" stroke="black" cx="422.2" cy="-970" rx="113.29" ry="18"/>
<text text-anchor="middle" x="422.2" y="-965.33" font-family="Times,serif" font-size="14.00" fill="white">libignition msgs1 ❎</text>
</a>
</g>
</g>
<!-- libignition&#45;msgs1&#45;&gt;libignition&#45;transport4 -->
<g id="edge21" class="edge">
<title>libignition&#45;msgs1&#45;&gt;libignition&#45;transport4</title>
<path fill="none" stroke="black" d="M373.5,-953.29C341.22,-942.88 298.68,-929.16 264.45,-918.11"/>
<polygon fill="black" stroke="black" points="265.7,-914.52 255.11,-914.78 263.55,-921.18 265.7,-914.52"/>
</g>
<!-- libignition&#45;msgs1&#45;&gt;libignition&#45;sensors -->
<g id="edge22" class="edge">
<title>libignition&#45;msgs1&#45;&gt;libignition&#45;sensors</title>
<path fill="none" stroke="black" d="M400.15,-951.97C389.6,-942.55 377.84,-929.95 371.2,-916 362.15,-897 359.59,-873.25 359.19,-855.07"/>
<polygon fill="black" stroke="black" points="362.69,-855.29 359.18,-845.29 355.69,-855.29 362.69,-855.29"/>
</g>
<!-- libignition&#45;msgs1&#45;&gt;libignition&#45;gui -->
<g id="edge23" class="edge">
<title>libignition&#45;msgs1&#45;&gt;libignition&#45;gui</title>
<path fill="none" stroke="black" d="M310.29,-967.07C221.29,-962.88 106.94,-950.66 77.2,-916 62.99,-899.44 65.66,-874.1 70.91,-854.69"/>
<polygon fill="black" stroke="black" points="74.51,-855.92 74.11,-845.33 67.82,-853.85 74.51,-855.92"/>
</g>
<!-- libignition&#45;msgs1&#45;&gt;libignition&#45;gazebo -->
<g id="edge24" class="edge">
<title>libignition&#45;msgs1&#45;&gt;libignition&#45;gazebo</title>
<path fill="none" stroke="black" d="M514.38,-959.23C575.1,-948.43 639.03,-926.02 613.2,-880 576.22,-814.12 493.61,-782.77 428.89,-767.97"/>
<polygon fill="black" stroke="black" points="429.77,-764.36 419.26,-765.65 428.28,-771.2 429.77,-764.36"/>
</g>
<!-- libignition&#45;msgs1&#45;&gt;libignition&#45;launch -->
<g id="edge25" class="edge">
<title>libignition&#45;msgs1&#45;&gt;libignition&#45;launch</title>
<path fill="none" stroke="black" d="M507.48,-957.83C557.54,-949.34 613.9,-935.71 629.2,-916 639.01,-903.36 634.32,-895.16 629.2,-880 591.26,-767.85 450.15,-718.01 357.96,-697.03"/>
<polygon fill="black" stroke="black" points="358.77,-693.4 348.25,-694.67 357.26,-700.24 358.77,-693.4"/>
</g>
<!-- libignition&#45;fuel&#45;tools -->
<g id="node23" class="node">
<title>libignition&#45;fuel&#45;tools</title>
<g id="a_node23"><a xlink:href="https://github.com/conda-forge/libignition-fuel-tools-feedstock" xlink:title="libignition fuel tools">
<ellipse fill="#fde725" stroke="black" cx="492.2" cy="-898" rx="111.71" ry="18"/>
<text text-anchor="middle" x="492.2" y="-893.33" font-family="Times,serif" font-size="14.00">libignition fuel tools</text>
</a>
</g>
</g>
<!-- libignition&#45;msgs1&#45;&gt;libignition&#45;fuel&#45;tools -->
<g id="edge26" class="edge">
<title>libignition&#45;msgs1&#45;&gt;libignition&#45;fuel&#45;tools</title>
<path fill="none" stroke="black" d="M439.14,-952.05C447.61,-943.58 458.03,-933.17 467.38,-923.82"/>
<polygon fill="black" stroke="black" points="469.33,-926.82 473.92,-917.28 464.38,-921.87 469.33,-926.82"/>
</g>
<!-- libignition&#45;fuel&#45;tools&#45;&gt;libignition&#45;gazebo -->
<g id="edge27" class="edge">
<title>libignition&#45;fuel&#45;tools&#45;&gt;libignition&#45;gazebo</title>
<path fill="none" stroke="black" d="M493.08,-879.52C493.12,-859.89 490.22,-828.16 473.2,-808 458.8,-790.94 438.14,-779.33 417.38,-771.44"/>
<polygon fill="black" stroke="black" points="418.8,-767.88 408.2,-767.86 416.48,-774.48 418.8,-767.88"/>
</g>
<!-- gazebo -->
<g id="node24" class="node">
<title>gazebo</title>
<g id="a_node24"><a xlink:href="https://github.com/conda-forge/gazebo-feedstock" xlink:title="gazebo">
<ellipse fill="#ff8c00" stroke="black" cx="1112.2" cy="-314" rx="46.47" ry="18"/>
<text text-anchor="middle" x="1112.2" y="-309.32" font-family="Times,serif" font-size="14.00">gazebo</text>
</a>
</g>
</g>
<!-- gazebo&#45;&gt;gazebo&#45;yarp&#45;plugins -->
<g id="edge28" class="edge">
<title>gazebo&#45;&gt;gazebo&#45;yarp&#45;plugins</title>
<path fill="none" stroke="black" d="M1112.2,-295.7C1112.2,-288.24 1112.2,-279.32 1112.2,-270.97"/>
<polygon fill="black" stroke="black" points="1115.7,-271.1 1112.2,-261.1 1108.7,-271.1 1115.7,-271.1"/>
</g>
<!-- cartographer -->
<g id="node27" class="node">
<title>cartographer</title>
<g id="a_node27"><a xlink:href="https://github.com/conda-forge/cartographer-feedstock/pull/55" xlink:title="cartographer ❎">
<ellipse fill="#31688e" stroke="black" cx="757.2" cy="-538" rx="92.25" ry="18"/>
<text text-anchor="middle" x="757.2" y="-533.33" font-family="Times,serif" font-size="14.00" fill="white">cartographer ❎</text>
</a>
</g>
</g>
<!-- go&#45;cockroach&#45;&gt;cartographer -->
<!-- google&#45;cloud&#45;cpp -->
<g id="node26" class="node">
<title>google&#45;cloud&#45;cpp</title>
<g id="a_node26"><a xlink:href="https://github.com/conda-forge/google-cloud-cpp-feedstock/pull/137" xlink:title="google cloud cpp ❎">
<ellipse fill="#31688e" stroke="black" cx="1146.2" cy="-934" rx="110.66" ry="18"/>
<text text-anchor="middle" x="1146.2" y="-929.33" font-family="Times,serif" font-size="14.00" fill="white">google cloud cpp ❎</text>
</a>
</g>
</g>
<!-- google&#45;cloud&#45;cpp&#45;&gt;arrow&#45;cpp -->
<g id="edge30" class="edge">
<title>google&#45;cloud&#45;cpp&#45;&gt;arrow&#45;cpp</title>
<path fill="none" stroke="black" d="M1143.44,-915.71C1140.34,-897.6 1134.73,-868.46 1127.2,-844 1116.51,-809.31 1100.09,-770.84 1088.78,-745.87"/>
<polygon fill="black" stroke="black" points="1091.63,-744.67 1084.28,-737.04 1085.26,-747.59 1091.63,-744.67"/>
</g>
<!-- tomviz -->
<g id="node28" class="node">
<title>tomviz</title>
<g id="a_node28"><a xlink:href="https://github.com/conda-forge/tomviz-feedstock" xlink:title="tomviz">
<ellipse fill="#ff8c00" stroke="black" cx="757.2" cy="-466" rx="44.9" ry="18"/>
<text text-anchor="middle" x="757.2" y="-461.32" font-family="Times,serif" font-size="14.00">tomviz</text>
</a>
</g>
</g>
<!-- cartographer&#45;&gt;tomviz -->
<!-- grpc_java_plugin -->
<g id="node29" class="node">
<title>grpc_java_plugin</title>
<g id="a_node29"><a xlink:href="https://github.com/conda-forge/grpc_java_plugin-feedstock/pull/63" xlink:title="grpc_java_plugin ❎">
<ellipse fill="#31688e" stroke="black" cx="757.2" cy="-422" rx="110.66" ry="18"/>
<text text-anchor="middle" x="757.2" y="-417.32" font-family="Times,serif" font-size="14.00" fill="white">grpc_java_plugin ❎</text>
</a>
</g>
</g>
<!-- or&#45;tools -->
<g id="node30" class="node">
<title>or&#45;tools</title>
<g id="a_node30"><a xlink:href="https://github.com/conda-forge/or-tools-feedstock/pull/44" xlink:title="or tools ❎">
<ellipse fill="#31688e" stroke="black" cx="757.2" cy="-350" rx="64.36" ry="18"/>
<text text-anchor="middle" x="757.2" y="-345.32" font-family="Times,serif" font-size="14.00" fill="white">or tools ❎</text>
</a>
</g>
</g>
<!-- grpc_java_plugin&#45;&gt;or&#45;tools -->
<!-- bear -->
<g id="node31" class="node">
<title>bear</title>
<g id="a_node31"><a xlink:href="https://github.com/conda-forge/bear-feedstock/pull/35" xlink:title="bear ❎">
<ellipse fill="#31688e" stroke="black" cx="757.2" cy="-278" rx="49.1" ry="18"/>
<text text-anchor="middle" x="757.2" y="-273.32" font-family="Times,serif" font-size="14.00" fill="white">bear ❎</text>
</a>
</g>
</g>
<!-- or&#45;tools&#45;&gt;bear -->
<!-- singlejar -->
<g id="node32" class="node">
<title>singlejar</title>
<g id="a_node32"><a xlink:href="https://github.com/conda-forge/singlejar-feedstock/pull/19" xlink:title="singlejar ❎">
<ellipse fill="#31688e" stroke="black" cx="757.2" cy="-206" rx="70.15" ry="18"/>
<text text-anchor="middle" x="757.2" y="-201.33" font-family="Times,serif" font-size="14.00" fill="white">singlejar ❎</text>
</a>
</g>
</g>
<!-- bear&#45;&gt;singlejar -->
<!-- xilinx&#45;runtime -->
<g id="node33" class="node">
<title>xilinx&#45;runtime</title>
<g id="a_node33"><a xlink:href="https://github.com/conda-forge/xilinx-runtime-feedstock/pull/13" xlink:title="xilinx runtime ✓">
<ellipse fill="#31688e" stroke="black" cx="757.2" cy="-134" rx="89.61" ry="18"/>
<text text-anchor="middle" x="757.2" y="-129.32" font-family="Times,serif" font-size="14.00" fill="white">xilinx runtime ✓</text>
</a>
</g>
</g>
<!-- singlejar&#45;&gt;xilinx&#45;runtime -->
<!-- gz&#45;transport -->
<g id="node34" class="node">
<title>gz&#45;transport</title>
<g id="a_node34"><a xlink:href="https://github.com/conda-forge/gz-transport-feedstock/pull/6" xlink:title="gz transport ❎">
<ellipse fill="#31688e" stroke="black" cx="359.2" cy="-386" rx="88.56" ry="18"/>
<text text-anchor="middle" x="359.2" y="-381.32" font-family="Times,serif" font-size="14.00" fill="white">gz transport ❎</text>
</a>
</g>
</g>
<!-- gz&#45;gui -->
<g id="node35" class="node">
<title>gz&#45;gui</title>
<g id="a_node35"><a xlink:href="https://github.com/conda-forge/gz-gui-feedstock" xlink:title="gz gui">
<ellipse fill="#fde725" stroke="black" cx="394.2" cy="-314" rx="41.74" ry="18"/>
<text text-anchor="middle" x="394.2" y="-309.32" font-family="Times,serif" font-size="14.00">gz gui</text>
</a>
</g>
</g>
<!-- gz&#45;transport&#45;&gt;gz&#45;gui -->
<g id="edge37" class="edge">
<title>gz&#45;transport&#45;&gt;gz&#45;gui</title>
<path fill="none" stroke="black" d="M367.85,-367.7C371.75,-359.9 376.44,-350.51 380.78,-341.83"/>
<polygon fill="black" stroke="black" points="384.3,-343.61 385.65,-333.1 378.04,-340.48 384.3,-343.61"/>
</g>
<!-- gz&#45;sensors -->
<g id="node36" class="node">
<title>gz&#45;sensors</title>
<g id="a_node36"><a xlink:href="https://github.com/conda-forge/gz-sensors-feedstock" xlink:title="gz sensors">
<ellipse fill="#fde725" stroke="black" cx="232.2" cy="-314" rx="64.36" ry="18"/>
<text text-anchor="middle" x="232.2" y="-309.32" font-family="Times,serif" font-size="14.00">gz sensors</text>
</a>
</g>
</g>
<!-- gz&#45;transport&#45;&gt;gz&#45;sensors -->
<g id="edge38" class="edge">
<title>gz&#45;transport&#45;&gt;gz&#45;sensors</title>
<path fill="none" stroke="black" d="M329.42,-368.59C311.69,-358.82 289.02,-346.32 270.03,-335.85"/>
<polygon fill="black" stroke="black" points="271.93,-332.35 261.48,-330.59 268.55,-338.48 271.93,-332.35"/>
</g>
<!-- gz&#45;sim -->
<g id="node37" class="node">
<title>gz&#45;sim</title>
<g id="a_node37"><a xlink:href="https://github.com/conda-forge/gz-sim-feedstock" xlink:title="gz sim">
<ellipse fill="#fde725" stroke="black" cx="324.2" cy="-242" rx="43.84" ry="18"/>
<text text-anchor="middle" x="324.2" y="-237.32" font-family="Times,serif" font-size="14.00">gz sim</text>
</a>
</g>
</g>
<!-- gz&#45;transport&#45;&gt;gz&#45;sim -->
<g id="edge39" class="edge">
<title>gz&#45;transport&#45;&gt;gz&#45;sim</title>
<path fill="none" stroke="black" d="M353.65,-367.92C350.39,-357.58 346.31,-344.1 343.2,-332 337.97,-311.67 333.05,-288.46 329.53,-270.84"/>
<polygon fill="black" stroke="black" points="332.79,-270.3 327.42,-261.16 325.92,-271.65 332.79,-270.3"/>
</g>
<!-- gz&#45;launch -->
<g id="node38" class="node">
<title>gz&#45;launch</title>
<g id="a_node38"><a xlink:href="https://github.com/conda-forge/gz-launch-feedstock" xlink:title="gz launch">
<ellipse fill="#fde725" stroke="black" cx="396.2" cy="-170" rx="59.1" ry="18"/>
<text text-anchor="middle" x="396.2" y="-165.32" font-family="Times,serif" font-size="14.00">gz launch</text>
</a>
</g>
</g>
<!-- gz&#45;transport&#45;&gt;gz&#45;launch -->
<g id="edge40" class="edge">
<title>gz&#45;transport&#45;&gt;gz&#45;launch</title>
<path fill="none" stroke="black" d="M401.13,-369.84C417.96,-361.44 435.62,-349.15 445.2,-332 469.94,-287.7 438.56,-229.41 415.82,-196.5"/>
<polygon fill="black" stroke="black" points="418.35,-195.02 409.69,-188.92 412.65,-199.09 418.35,-195.02"/>
</g>
<!-- gz&#45;gui&#45;&gt;gz&#45;sim -->
<g id="edge41" class="edge">
<title>gz&#45;gui&#45;&gt;gz&#45;sim</title>
<path fill="none" stroke="black" d="M378.31,-297.12C369.27,-288.08 357.78,-276.58 347.71,-266.52"/>
<polygon fill="black" stroke="black" points="350.57,-264.42 341.02,-259.82 345.62,-269.37 350.57,-264.42"/>
</g>
<!-- gz&#45;gui&#45;&gt;gz&#45;launch -->
<g id="edge42" class="edge">
<title>gz&#45;gui&#45;&gt;gz&#45;launch</title>
<path fill="none" stroke="black" d="M394.44,-295.59C394.78,-271.5 395.4,-227.75 395.8,-199.03"/>
<polygon fill="black" stroke="black" points="399.32,-199.16 395.96,-189.11 392.32,-199.06 399.32,-199.16"/>
</g>
<!-- gz&#45;sensors&#45;&gt;gz&#45;sim -->
<g id="edge43" class="edge">
<title>gz&#45;sensors&#45;&gt;gz&#45;sim</title>
<path fill="none" stroke="black" d="M253.54,-296.76C265.99,-287.29 281.87,-275.21 295.42,-264.9"/>
<polygon fill="black" stroke="black" points="297.08,-267.27 302.92,-258.43 292.85,-261.7 297.08,-267.27"/>
</g>
<!-- gz&#45;sim&#45;&gt;gz&#45;launch -->
<g id="edge44" class="edge">
<title>gz&#45;sim&#45;&gt;gz&#45;launch</title>
<path fill="none" stroke="black" d="M340.54,-225.12C349.64,-216.27 361.16,-205.07 371.35,-195.16"/>
<polygon fill="black" stroke="black" points="373.44,-198.03 378.17,-188.55 368.56,-193.01 373.44,-198.03"/>
</g>
</g>
</svg>
