<?xml version="1.0" encoding="UTF-8" standalone="no"?>
<!DOCTYPE svg PUBLIC "-//W3C//DTD SVG 1.1//EN"
 "http://www.w3.org/Graphics/SVG/1.1/DTD/svg11.dtd">
<!-- Generated by graphviz version 8.0.5 (20230506.1012)
 -->
<!-- Pages: 1 -->
<svg width="1361pt" height="1212pt"
 viewBox="0.00 0.00 1361.44 1212.00" xmlns="http://www.w3.org/2000/svg" xmlns:xlink="http://www.w3.org/1999/xlink">
<g id="graph0" class="graph" transform="scale(1 1) rotate(0) translate(4 1208)">
<polygon fill="white" stroke="none" points="-4,4 -4,-1208 1357.44,-1208 1357.44,4 -4,4"/>
<!-- arrow&#45;cpp -->
<g id="node1" class="node">
<title>arrow&#45;cpp</title>
<g id="a_node1"><a xlink:href="https://github.com/conda-forge/arrow-cpp-feedstock" xlink:title="arrow cpp">
<ellipse fill="#fde725" stroke="black" cx="848.2" cy="-170" rx="61.73" ry="18"/>
<text text-anchor="middle" x="848.2" y="-165.32" font-family="Times,serif" font-size="14.00">arrow cpp</text>
</a>
</g>
</g>
<!-- bazel -->
<g id="node2" class="node">
<title>bazel</title>
<g id="a_node2"><a xlink:href="https://github.com/conda-forge/bazel-feedstock" xlink:title="bazel">
<ellipse fill="#ff8c00" stroke="black" cx="838.2" cy="-1186" rx="37.53" ry="18"/>
<text text-anchor="middle" x="838.2" y="-1181.33" font-family="Times,serif" font-size="14.00">bazel</text>
</a>
</g>
</g>
<!-- mosh -->
<g id="node3" class="node">
<title>mosh</title>
<g id="a_node3"><a xlink:href="https://github.com/conda-forge/mosh-feedstock" xlink:title="mosh">
<ellipse fill="#35b779" stroke="black" cx="838.2" cy="-1114" rx="38.06" ry="18"/>
<text text-anchor="middle" x="838.2" y="-1109.33" font-family="Times,serif" font-size="14.00">mosh</text>
</a>
</g>
</g>
<!-- bazel&#45;&gt;mosh -->
<!-- onnx -->
<g id="node4" class="node">
<title>onnx</title>
<g id="a_node4"><a xlink:href="https://github.com/conda-forge/onnx-feedstock" xlink:title="onnx">
<ellipse fill="#35b779" stroke="black" cx="838.2" cy="-1042" rx="35.42" ry="18"/>
<text text-anchor="middle" x="838.2" y="-1037.33" font-family="Times,serif" font-size="14.00">onnx</text>
</a>
</g>
</g>
<!-- mosh&#45;&gt;onnx -->
<!-- paraview -->
<g id="node7" class="node">
<title>paraview</title>
<g id="a_node7"><a xlink:href="https://github.com/conda-forge/paraview-feedstock" xlink:title="paraview">
<ellipse fill="#35b779" stroke="black" cx="838.2" cy="-970" rx="57" ry="18"/>
<text text-anchor="middle" x="838.2" y="-965.33" font-family="Times,serif" font-size="14.00">paraview</text>
</a>
</g>
</g>
<!-- onnx&#45;&gt;paraview -->
<!-- mysql -->
<g id="node5" class="node">
<title>mysql</title>
<g id="a_node5"><a xlink:href="https://github.com/conda-forge/mysql-feedstock/pull/77" xlink:title="mysql ❎">
<ellipse fill="#31688e" stroke="black" cx="320.2" cy="-90" rx="56.47" ry="18"/>
<text text-anchor="middle" x="320.2" y="-85.33" font-family="Times,serif" font-size="14.00" fill="white">mysql ❎</text>
</a>
</g>
</g>
<!-- mysql&#45;connector&#45;python -->
<g id="node6" class="node">
<title>mysql&#45;connector&#45;python</title>
<g id="a_node6"><a xlink:href="https://github.com/conda-forge/mysql-connector-python-feedstock" xlink:title="mysql connector python">
<ellipse fill="#fde725" stroke="black" cx="320.2" cy="-18" rx="131.7" ry="18"/>
<text text-anchor="middle" x="320.2" y="-13.32" font-family="Times,serif" font-size="14.00">mysql connector python</text>
</a>
</g>
</g>
<!-- mysql&#45;&gt;mysql&#45;connector&#45;python -->
<g id="edge3" class="edge">
<title>mysql&#45;&gt;mysql&#45;connector&#45;python</title>
<path fill="none" stroke="black" d="M320.2,-71.7C320.2,-64.24 320.2,-55.32 320.2,-46.97"/>
<polygon fill="black" stroke="black" points="323.7,-47.1 320.2,-37.1 316.7,-47.1 323.7,-47.1"/>
</g>
<!-- qgis -->
<g id="node11" class="node">
<title>qgis</title>
<g id="a_node11"><a xlink:href="https://github.com/conda-forge/qgis-feedstock" xlink:title="qgis">
<ellipse fill="#35b779" stroke="black" cx="838.2" cy="-898" rx="32.27" ry="18"/>
<text text-anchor="middle" x="838.2" y="-893.33" font-family="Times,serif" font-size="14.00">qgis</text>
</a>
</g>
</g>
<!-- paraview&#45;&gt;qgis -->
<!-- opencv -->
<g id="node8" class="node">
<title>opencv</title>
<g id="a_node8"><a xlink:href="https://github.com/conda-forge/opencv-feedstock/pull/361" xlink:title="opencv ❎">
<ellipse fill="#31688e" stroke="black" cx="1098.2" cy="-314" rx="61.73" ry="18"/>
<text text-anchor="middle" x="1098.2" y="-309.32" font-family="Times,serif" font-size="14.00" fill="white">opencv ❎</text>
</a>
</g>
</g>
<!-- imp -->
<g id="node9" class="node">
<title>imp</title>
<g id="a_node9"><a xlink:href="https://github.com/conda-forge/imp-feedstock" xlink:title="imp">
<ellipse fill="#fde725" stroke="black" cx="1081.2" cy="-242" rx="30.16" ry="18"/>
<text text-anchor="middle" x="1081.2" y="-237.32" font-family="Times,serif" font-size="14.00">imp</text>
</a>
</g>
</g>
<!-- opencv&#45;&gt;imp -->
<g id="edge5" class="edge">
<title>opencv&#45;&gt;imp</title>
<path fill="none" stroke="black" d="M1094,-295.7C1092.16,-288.15 1089.97,-279.12 1087.92,-270.68"/>
<polygon fill="black" stroke="black" points="1091.11,-270 1085.35,-261.1 1084.31,-271.65 1091.11,-270"/>
</g>
<!-- gazebo&#45;yarp&#45;plugins -->
<g id="node10" class="node">
<title>gazebo&#45;yarp&#45;plugins</title>
<g id="a_node10"><a xlink:href="https://github.com/conda-forge/gazebo-yarp-plugins-feedstock" xlink:title="gazebo yarp plugins">
<ellipse fill="#fde725" stroke="black" cx="1241.2" cy="-242" rx="112.24" ry="18"/>
<text text-anchor="middle" x="1241.2" y="-237.32" font-family="Times,serif" font-size="14.00">gazebo yarp plugins</text>
</a>
</g>
</g>
<!-- opencv&#45;&gt;gazebo&#45;yarp&#45;plugins -->
<g id="edge6" class="edge">
<title>opencv&#45;&gt;gazebo&#45;yarp&#45;plugins</title>
<path fill="none" stroke="black" d="M1128.88,-297.98C1148.87,-288.19 1175.28,-275.27 1197.46,-264.41"/>
<polygon fill="black" stroke="black" points="1198.88,-267.12 1206.32,-259.58 1195.8,-260.84 1198.88,-267.12"/>
</g>
<!-- tensorflow -->
<g id="node12" class="node">
<title>tensorflow</title>
<g id="a_node12"><a xlink:href="https://github.com/conda-forge/tensorflow-feedstock" xlink:title="tensorflow">
<ellipse fill="#ff8c00" stroke="black" cx="838.2" cy="-826" rx="63.84" ry="18"/>
<text text-anchor="middle" x="838.2" y="-821.33" font-family="Times,serif" font-size="14.00">tensorflow</text>
</a>
</g>
</g>
<!-- qgis&#45;&gt;tensorflow -->
<!-- libhdfs3 -->
<g id="node13" class="node">
<title>libhdfs3</title>
<g id="a_node13"><a xlink:href="https://github.com/conda-forge/libhdfs3-feedstock" xlink:title="libhdfs3">
<ellipse fill="#35b779" stroke="black" cx="838.2" cy="-754" rx="51.74" ry="18"/>
<text text-anchor="middle" x="838.2" y="-749.33" font-family="Times,serif" font-size="14.00">libhdfs3</text>
</a>
</g>
</g>
<!-- tensorflow&#45;&gt;libhdfs3 -->
<!-- r&#45;protolite -->
<g id="node14" class="node">
<title>r&#45;protolite</title>
<g id="a_node14"><a xlink:href="https://github.com/conda-forge/r-protolite-feedstock" xlink:title="r protolite">
<ellipse fill="#35b779" stroke="black" cx="838.2" cy="-682" rx="62.26" ry="18"/>
<text text-anchor="middle" x="838.2" y="-677.33" font-family="Times,serif" font-size="14.00">r protolite</text>
</a>
</g>
</g>
<!-- libhdfs3&#45;&gt;r&#45;protolite -->
<!-- jaxlib -->
<g id="node15" class="node">
<title>jaxlib</title>
<g id="a_node15"><a xlink:href="https://github.com/conda-forge/jaxlib-feedstock/pull/176" xlink:title="jaxlib ❎">
<ellipse fill="#31688e" stroke="black" cx="838.2" cy="-610" rx="53.84" ry="18"/>
<text text-anchor="middle" x="838.2" y="-605.33" font-family="Times,serif" font-size="14.00" fill="white">jaxlib ❎</text>
</a>
</g>
</g>
<!-- r&#45;protolite&#45;&gt;jaxlib -->
<!-- zaber&#45;motion -->
<g id="node18" class="node">
<title>zaber&#45;motion</title>
<g id="a_node18"><a xlink:href="https://github.com/conda-forge/zaber-motion-feedstock" xlink:title="zaber motion">
<ellipse fill="#35b779" stroke="black" cx="838.2" cy="-538" rx="76.99" ry="18"/>
<text text-anchor="middle" x="838.2" y="-533.33" font-family="Times,serif" font-size="14.00">zaber motion</text>
</a>
</g>
</g>
<!-- jaxlib&#45;&gt;zaber&#45;motion -->
<!-- pytorch&#45;cpu -->
<g id="node16" class="node">
<title>pytorch&#45;cpu</title>
<g id="a_node16"><a xlink:href="https://github.com/conda-forge/pytorch-cpu-feedstock/pull/169" xlink:title="pytorch cpu ❎">
<ellipse fill="#31688e" stroke="black" cx="734.2" cy="-242" rx="85.93" ry="18"/>
<text text-anchor="middle" x="734.2" y="-237.32" font-family="Times,serif" font-size="14.00" fill="white">pytorch cpu ❎</text>
</a>
</g>
</g>
<!-- pytorch&#45;cpu&#45;&gt;arrow&#45;cpp -->
<g id="edge12" class="edge">
<title>pytorch&#45;cpu&#45;&gt;arrow&#45;cpp</title>
<path fill="none" stroke="black" d="M760.93,-224.59C776.58,-214.97 796.54,-202.72 813.41,-192.36"/>
<polygon fill="black" stroke="black" points="814.73,-195.04 821.42,-186.83 811.07,-189.08 814.73,-195.04"/>
</g>
<!-- orc -->
<g id="node17" class="node">
<title>orc</title>
<g id="a_node17"><a xlink:href="https://github.com/conda-forge/orc-feedstock/pull/58" xlink:title="orc ❎">
<ellipse fill="#31688e" stroke="black" cx="848.2" cy="-314" rx="42.26" ry="18"/>
<text text-anchor="middle" x="848.2" y="-309.32" font-family="Times,serif" font-size="14.00" fill="white">orc ❎</text>
</a>
</g>
</g>
<!-- orc&#45;&gt;arrow&#45;cpp -->
<g id="edge13" class="edge">
<title>orc&#45;&gt;arrow&#45;cpp</title>
<path fill="none" stroke="black" d="M848.2,-295.59C848.2,-271.5 848.2,-227.75 848.2,-199.03"/>
<polygon fill="black" stroke="black" points="851.7,-199.11 848.2,-189.11 844.7,-199.11 851.7,-199.11"/>
</g>
<!-- go&#45;cockroach -->
<g id="node27" class="node">
<title>go&#45;cockroach</title>
<g id="a_node27"><a xlink:href="https://github.com/conda-forge/go-cockroach-feedstock" xlink:title="go cockroach">
<ellipse fill="#35b779" stroke="black" cx="838.2" cy="-466" rx="76.46" ry="18"/>
<text text-anchor="middle" x="838.2" y="-461.32" font-family="Times,serif" font-size="14.00">go cockroach</text>
</a>
</g>
</g>
<!-- zaber&#45;motion&#45;&gt;go&#45;cockroach -->
<!-- libignition&#45;transport4 -->
<g id="node19" class="node">
<title>libignition&#45;transport4</title>
<g id="a_node19"><a xlink:href="https://github.com/conda-forge/libignition-transport4-feedstock" xlink:title="libignition transport4">
<ellipse fill="#fde725" stroke="black" cx="205.2" cy="-898" rx="119.08" ry="18"/>
<text text-anchor="middle" x="205.2" y="-893.33" font-family="Times,serif" font-size="14.00">libignition transport4</text>
</a>
</g>
</g>
<!-- libignition&#45;sensors -->
<g id="node20" class="node">
<title>libignition&#45;sensors</title>
<g id="a_node20"><a xlink:href="https://github.com/conda-forge/libignition-sensors-feedstock" xlink:title="libignition sensors">
<ellipse fill="#fde725" stroke="black" cx="360.2" cy="-826" rx="103.82" ry="18"/>
<text text-anchor="middle" x="360.2" y="-821.33" font-family="Times,serif" font-size="14.00">libignition sensors</text>
</a>
</g>
</g>
<!-- libignition&#45;transport4&#45;&gt;libignition&#45;sensors -->
<g id="edge15" class="edge">
<title>libignition&#45;transport4&#45;&gt;libignition&#45;sensors</title>
<path fill="none" stroke="black" d="M241.93,-880.41C263.53,-870.66 291.04,-858.23 314.09,-847.82"/>
<polygon fill="black" stroke="black" points="315.32,-850.65 323,-843.35 312.44,-844.28 315.32,-850.65"/>
</g>
<!-- libignition&#45;gui -->
<g id="node21" class="node">
<title>libignition&#45;gui</title>
<g id="a_node21"><a xlink:href="https://github.com/conda-forge/libignition-gui-feedstock" xlink:title="libignition gui">
<ellipse fill="#fde725" stroke="black" cx="81.2" cy="-826" rx="81.2" ry="18"/>
<text text-anchor="middle" x="81.2" y="-821.33" font-family="Times,serif" font-size="14.00">libignition gui</text>
</a>
</g>
</g>
<!-- libignition&#45;transport4&#45;&gt;libignition&#45;gui -->
<g id="edge16" class="edge">
<title>libignition&#45;transport4&#45;&gt;libignition&#45;gui</title>
<path fill="none" stroke="black" d="M175.5,-880.23C158.54,-870.66 137.1,-858.56 118.95,-848.31"/>
<polygon fill="black" stroke="black" points="121.23,-845.02 110.8,-843.15 117.79,-851.11 121.23,-845.02"/>
</g>
<!-- libignition&#45;gazebo -->
<g id="node22" class="node">
<title>libignition&#45;gazebo</title>
<g id="a_node22"><a xlink:href="https://github.com/conda-forge/libignition-gazebo-feedstock" xlink:title="libignition gazebo">
<ellipse fill="#fde725" stroke="black" cx="340.2" cy="-754" rx="100.66" ry="18"/>
<text text-anchor="middle" x="340.2" y="-749.33" font-family="Times,serif" font-size="14.00">libignition gazebo</text>
</a>
</g>
</g>
<!-- libignition&#45;transport4&#45;&gt;libignition&#45;gazebo -->
<g id="edge17" class="edge">
<title>libignition&#45;transport4&#45;&gt;libignition&#45;gazebo</title>
<path fill="none" stroke="black" d="M209.87,-879.8C215.85,-860.43 227.81,-828.94 247.2,-808 259.43,-794.79 275.72,-783.98 291.26,-775.66"/>
<polygon fill="black" stroke="black" points="292.47,-778.46 299.78,-770.8 289.28,-772.22 292.47,-778.46"/>
</g>
<!-- libignition&#45;launch -->
<g id="node23" class="node">
<title>libignition&#45;launch</title>
<g id="a_node23"><a xlink:href="https://github.com/conda-forge/libignition-launch-feedstock" xlink:title="libignition launch">
<ellipse fill="#fde725" stroke="black" cx="275.2" cy="-682" rx="98.56" ry="18"/>
<text text-anchor="middle" x="275.2" y="-677.33" font-family="Times,serif" font-size="14.00">libignition launch</text>
</a>
</g>
</g>
<!-- libignition&#45;transport4&#45;&gt;libignition&#45;launch -->
<g id="edge18" class="edge">
<title>libignition&#45;transport4&#45;&gt;libignition&#45;launch</title>
<path fill="none" stroke="black" d="M204.87,-879.68C204.93,-849.2 207.96,-784.62 230.2,-736 234.82,-725.9 241.93,-716.21 249.15,-707.94"/>
<polygon fill="black" stroke="black" points="251.38,-710.6 255.61,-700.89 246.25,-705.85 251.38,-710.6"/>
</g>
<!-- libignition&#45;sensors&#45;&gt;libignition&#45;gazebo -->
<g id="edge19" class="edge">
<title>libignition&#45;sensors&#45;&gt;libignition&#45;gazebo</title>
<path fill="none" stroke="black" d="M355.25,-807.7C353.1,-800.15 350.52,-791.12 348.11,-782.68"/>
<polygon fill="black" stroke="black" points="351.2,-781.76 345.08,-773.1 344.47,-783.68 351.2,-781.76"/>
</g>
<!-- libignition&#45;gui&#45;&gt;libignition&#45;gazebo -->
<g id="edge20" class="edge">
<title>libignition&#45;gui&#45;&gt;libignition&#45;gazebo</title>
<path fill="none" stroke="black" d="M131.44,-811.42C172.57,-800.3 231.03,-784.5 275.63,-772.45"/>
<polygon fill="black" stroke="black" points="276.33,-775.62 285.07,-769.63 274.51,-768.86 276.33,-775.62"/>
</g>
<!-- libignition&#45;gui&#45;&gt;libignition&#45;launch -->
<g id="edge21" class="edge">
<title>libignition&#45;gui&#45;&gt;libignition&#45;launch</title>
<path fill="none" stroke="black" d="M96.54,-808.18C114.45,-789.17 145.53,-758 176.2,-736 193.04,-723.92 212.97,-712.73 230.51,-703.78"/>
<polygon fill="black" stroke="black" points="231.6,-706.65 238.98,-699.05 228.47,-700.39 231.6,-706.65"/>
</g>
<!-- libignition&#45;gazebo&#45;&gt;libignition&#45;launch -->
<g id="edge22" class="edge">
<title>libignition&#45;gazebo&#45;&gt;libignition&#45;launch</title>
<path fill="none" stroke="black" d="M324.46,-736.05C316.56,-727.54 306.83,-717.07 298.12,-707.68"/>
<polygon fill="black" stroke="black" points="301.16,-705.74 291.79,-700.79 296.03,-710.5 301.16,-705.74"/>
</g>
<!-- libignition&#45;msgs1 -->
<g id="node24" class="node">
<title>libignition&#45;msgs1</title>
<g id="a_node24"><a xlink:href="https://github.com/conda-forge/libignition-msgs1-feedstock" xlink:title="libignition msgs1">
<ellipse fill="#35b779" stroke="black" cx="422.2" cy="-970" rx="98.03" ry="18"/>
<text text-anchor="middle" x="422.2" y="-965.33" font-family="Times,serif" font-size="14.00">libignition msgs1</text>
</a>
</g>
</g>
<!-- libignition&#45;msgs1&#45;&gt;libignition&#45;transport4 -->
<g id="edge23" class="edge">
<title>libignition&#45;msgs1&#45;&gt;libignition&#45;transport4</title>
<path fill="none" stroke="black" d="M375.11,-953.81C342.55,-943.31 298.99,-929.25 264.12,-918.01"/>
<polygon fill="black" stroke="black" points="265.66,-914.51 255.07,-914.77 263.51,-921.17 265.66,-914.51"/>
</g>
<!-- libignition&#45;msgs1&#45;&gt;libignition&#45;sensors -->
<g id="edge24" class="edge">
<title>libignition&#45;msgs1&#45;&gt;libignition&#45;sensors</title>
<path fill="none" stroke="black" d="M400.41,-952.2C389.79,-942.76 377.9,-930.06 371.2,-916 362.15,-897 359.59,-873.25 359.19,-855.07"/>
<polygon fill="black" stroke="black" points="362.69,-855.29 359.18,-845.29 355.69,-855.29 362.69,-855.29"/>
</g>
<!-- libignition&#45;msgs1&#45;&gt;libignition&#45;gui -->
<g id="edge25" class="edge">
<title>libignition&#45;msgs1&#45;&gt;libignition&#45;gui</title>
<path fill="none" stroke="black" d="M324.65,-967.69C234.06,-964.15 108.57,-952.56 77.2,-916 62.99,-899.44 65.66,-874.1 70.91,-854.69"/>
<polygon fill="black" stroke="black" points="74.51,-855.92 74.11,-845.33 67.82,-853.85 74.51,-855.92"/>
</g>
<!-- libignition&#45;msgs1&#45;&gt;libignition&#45;gazebo -->
<g id="edge26" class="edge">
<title>libignition&#45;msgs1&#45;&gt;libignition&#45;gazebo</title>
<path fill="none" stroke="black" d="M506.82,-960.52C569.63,-950.26 640.1,-927.93 613.2,-880 576.22,-814.12 493.61,-782.77 428.89,-767.97"/>
<polygon fill="black" stroke="black" points="429.77,-764.36 419.26,-765.65 428.28,-771.2 429.77,-764.36"/>
</g>
<!-- libignition&#45;msgs1&#45;&gt;libignition&#45;launch -->
<g id="edge27" class="edge">
<title>libignition&#45;msgs1&#45;&gt;libignition&#45;launch</title>
<path fill="none" stroke="black" d="M500.83,-958.94C552.43,-950.54 613.22,-936.59 629.2,-916 639.01,-903.36 634.32,-895.16 629.2,-880 591.26,-767.85 450.15,-718.01 357.96,-697.03"/>
<polygon fill="black" stroke="black" points="358.77,-693.4 348.25,-694.67 357.26,-700.24 358.77,-693.4"/>
</g>
<!-- libignition&#45;fuel&#45;tools -->
<g id="node25" class="node">
<title>libignition&#45;fuel&#45;tools</title>
<g id="a_node25"><a xlink:href="https://github.com/conda-forge/libignition-fuel-tools-feedstock" xlink:title="libignition fuel tools">
<ellipse fill="#fde725" stroke="black" cx="492.2" cy="-898" rx="111.71" ry="18"/>
<text text-anchor="middle" x="492.2" y="-893.33" font-family="Times,serif" font-size="14.00">libignition fuel tools</text>
</a>
</g>
</g>
<!-- libignition&#45;msgs1&#45;&gt;libignition&#45;fuel&#45;tools -->
<g id="edge28" class="edge">
<title>libignition&#45;msgs1&#45;&gt;libignition&#45;fuel&#45;tools</title>
<path fill="none" stroke="black" d="M439.14,-952.05C447.61,-943.58 458.03,-933.17 467.38,-923.82"/>
<polygon fill="black" stroke="black" points="469.33,-926.82 473.92,-917.28 464.38,-921.87 469.33,-926.82"/>
</g>
<!-- libignition&#45;fuel&#45;tools&#45;&gt;libignition&#45;gazebo -->
<g id="edge29" class="edge">
<title>libignition&#45;fuel&#45;tools&#45;&gt;libignition&#45;gazebo</title>
<path fill="none" stroke="black" d="M493.08,-879.52C493.12,-859.89 490.22,-828.16 473.2,-808 458.8,-790.94 438.14,-779.33 417.38,-771.44"/>
<polygon fill="black" stroke="black" points="418.8,-767.88 408.2,-767.86 416.48,-774.48 418.8,-767.88"/>
</g>
<!-- gazebo -->
<g id="node26" class="node">
<title>gazebo</title>
<g id="a_node26"><a xlink:href="https://github.com/conda-forge/gazebo-feedstock" xlink:title="gazebo">
<ellipse fill="#35b779" stroke="black" cx="1241.2" cy="-314" rx="46.47" ry="18"/>
<text text-anchor="middle" x="1241.2" y="-309.32" font-family="Times,serif" font-size="14.00">gazebo</text>
</a>
</g>
</g>
<!-- gazebo&#45;&gt;gazebo&#45;yarp&#45;plugins -->
<g id="edge30" class="edge">
<title>gazebo&#45;&gt;gazebo&#45;yarp&#45;plugins</title>
<path fill="none" stroke="black" d="M1241.2,-295.7C1241.2,-288.24 1241.2,-279.32 1241.2,-270.97"/>
<polygon fill="black" stroke="black" points="1244.7,-271.1 1241.2,-261.1 1237.7,-271.1 1244.7,-271.1"/>
</g>
<!-- google&#45;cloud&#45;cpp -->
<g id="node28" class="node">
<title>google&#45;cloud&#45;cpp</title>
<g id="a_node28"><a xlink:href="https://github.com/conda-forge/google-cloud-cpp-feedstock/pull/136" xlink:title="google cloud cpp ❎">
<ellipse fill="#31688e" stroke="black" cx="918.2" cy="-386" rx="110.66" ry="18"/>
<text text-anchor="middle" x="918.2" y="-381.32" font-family="Times,serif" font-size="14.00" fill="white">google cloud cpp ❎</text>
</a>
</g>
</g>
<!-- google&#45;cloud&#45;cpp&#45;&gt;arrow&#45;cpp -->
<g id="edge32" class="edge">
<title>google&#45;cloud&#45;cpp&#45;&gt;arrow&#45;cpp</title>
<path fill="none" stroke="black" d="M915.44,-367.71C912.34,-349.6 906.73,-320.46 899.2,-296 888.51,-261.31 872.09,-222.84 860.78,-197.87"/>
<polygon fill="black" stroke="black" points="863.63,-196.67 856.28,-189.04 857.26,-199.59 863.63,-196.67"/>
</g>
<!-- cartographer -->
<g id="node29" class="node">
<title>cartographer</title>
<g id="a_node29"><a xlink:href="https://github.com/conda-forge/cartographer-feedstock" xlink:title="cartographer">
<ellipse fill="#35b779" stroke="black" cx="1195.2" cy="-1114" rx="76.99" ry="18"/>
<text text-anchor="middle" x="1195.2" y="-1109.33" font-family="Times,serif" font-size="14.00">cartographer</text>
</a>
</g>
</g>
<!-- tomviz -->
<g id="node30" class="node">
<title>tomviz</title>
<g id="a_node30"><a xlink:href="https://github.com/conda-forge/tomviz-feedstock" xlink:title="tomviz">
<ellipse fill="#35b779" stroke="black" cx="1195.2" cy="-1042" rx="44.9" ry="18"/>
<text text-anchor="middle" x="1195.2" y="-1037.33" font-family="Times,serif" font-size="14.00">tomviz</text>
</a>
</g>
</g>
<!-- cartographer&#45;&gt;tomviz -->
<!-- protozfits -->
<g id="node31" class="node">
<title>protozfits</title>
<g id="a_node31"><a xlink:href="https://github.com/conda-forge/protozfits-feedstock" xlink:title="protozfits">
<ellipse fill="#35b779" stroke="black" cx="1195.2" cy="-970" rx="59.1" ry="18"/>
<text text-anchor="middle" x="1195.2" y="-965.33" font-family="Times,serif" font-size="14.00">protozfits</text>
</a>
</g>
</g>
<!-- tomviz&#45;&gt;protozfits -->
<!-- grpc_java_plugin -->
<g id="node32" class="node">
<title>grpc_java_plugin</title>
<g id="a_node32"><a xlink:href="https://github.com/conda-forge/grpc_java_plugin-feedstock/pull/57" xlink:title="grpc_java_plugin ❎">
<ellipse fill="#31688e" stroke="black" cx="1195.2" cy="-898" rx="110.66" ry="18"/>
<text text-anchor="middle" x="1195.2" y="-893.33" font-family="Times,serif" font-size="14.00" fill="white">grpc_java_plugin ❎</text>
</a>
</g>
</g>
<!-- protozfits&#45;&gt;grpc_java_plugin -->
<!-- or&#45;tools -->
<g id="node33" class="node">
<title>or&#45;tools</title>
<g id="a_node33"><a xlink:href="https://github.com/conda-forge/or-tools-feedstock" xlink:title="or tools">
<ellipse fill="#35b779" stroke="black" cx="1195.2" cy="-826" rx="49.1" ry="18"/>
<text text-anchor="middle" x="1195.2" y="-821.33" font-family="Times,serif" font-size="14.00">or tools</text>
</a>
</g>
</g>
<!-- grpc_java_plugin&#45;&gt;or&#45;tools -->
<!-- bear -->
<g id="node34" class="node">
<title>bear</title>
<g id="a_node34"><a xlink:href="https://github.com/conda-forge/bear-feedstock" xlink:title="bear">
<ellipse fill="#35b779" stroke="black" cx="1195.2" cy="-754" rx="33.85" ry="18"/>
<text text-anchor="middle" x="1195.2" y="-749.33" font-family="Times,serif" font-size="14.00">bear</text>
</a>
</g>
</g>
<!-- or&#45;tools&#45;&gt;bear -->
<!-- cpp&#45;opentelemetry&#45;sdk -->
<g id="node35" class="node">
<title>cpp&#45;opentelemetry&#45;sdk</title>
<g id="a_node35"><a xlink:href="https://github.com/conda-forge/cpp-opentelemetry-sdk-feedstock" xlink:title="cpp opentelemetry sdk">
<ellipse fill="#35b779" stroke="black" cx="1195.2" cy="-682" rx="125.92" ry="18"/>
<text text-anchor="middle" x="1195.2" y="-677.33" font-family="Times,serif" font-size="14.00">cpp opentelemetry sdk</text>
</a>
</g>
</g>
<!-- bear&#45;&gt;cpp&#45;opentelemetry&#45;sdk -->
<!-- singlejar -->
<g id="node36" class="node">
<title>singlejar</title>
<g id="a_node36"><a xlink:href="https://github.com/conda-forge/singlejar-feedstock" xlink:title="singlejar">
<ellipse fill="#35b779" stroke="black" cx="1195.2" cy="-610" rx="54.89" ry="18"/>
<text text-anchor="middle" x="1195.2" y="-605.33" font-family="Times,serif" font-size="14.00">singlejar</text>
</a>
</g>
</g>
<!-- cpp&#45;opentelemetry&#45;sdk&#45;&gt;singlejar -->
<!-- xilinx&#45;runtime -->
<g id="node37" class="node">
<title>xilinx&#45;runtime</title>
<g id="a_node37"><a xlink:href="https://github.com/conda-forge/xilinx-runtime-feedstock" xlink:title="xilinx runtime">
<ellipse fill="#35b779" stroke="black" cx="1195.2" cy="-538" rx="81.72" ry="18"/>
<text text-anchor="middle" x="1195.2" y="-533.33" font-family="Times,serif" font-size="14.00">xilinx runtime</text>
</a>
</g>
</g>
<!-- singlejar&#45;&gt;xilinx&#45;runtime -->
<!-- gz&#45;msgs -->
<g id="node38" class="node">
<title>gz&#45;msgs</title>
<g id="a_node38"><a xlink:href="https://github.com/conda-forge/gz-msgs-feedstock" xlink:title="gz msgs">
<ellipse fill="#35b779" stroke="black" cx="281.2" cy="-422" rx="52.26" ry="18"/>
<text text-anchor="middle" x="281.2" y="-417.32" font-family="Times,serif" font-size="14.00">gz msgs</text>
</a>
</g>
</g>
<!-- gz&#45;transport -->
<g id="node39" class="node">
<title>gz&#45;transport</title>
<g id="a_node39"><a xlink:href="https://github.com/conda-forge/gz-transport-feedstock" xlink:title="gz transport">
<ellipse fill="#fde725" stroke="black" cx="231.2" cy="-350" rx="73.3" ry="18"/>
<text text-anchor="middle" x="231.2" y="-345.32" font-family="Times,serif" font-size="14.00">gz transport</text>
</a>
</g>
</g>
<!-- gz&#45;msgs&#45;&gt;gz&#45;transport -->
<g id="edge41" class="edge">
<title>gz&#45;msgs&#45;&gt;gz&#45;transport</title>
<path fill="none" stroke="black" d="M269.09,-404.05C263.2,-395.8 255.98,-385.7 249.44,-376.54"/>
<polygon fill="black" stroke="black" points="251.85,-374.89 243.19,-368.79 246.15,-378.96 251.85,-374.89"/>
</g>
<!-- gz&#45;fuel&#45;tools -->
<g id="node40" class="node">
<title>gz&#45;fuel&#45;tools</title>
<g id="a_node40"><a xlink:href="https://github.com/conda-forge/gz-fuel-tools-feedstock" xlink:title="gz fuel tools">
<ellipse fill="#fde725" stroke="black" cx="432.2" cy="-350" rx="72.25" ry="18"/>
<text text-anchor="middle" x="432.2" y="-345.32" font-family="Times,serif" font-size="14.00">gz fuel tools</text>
</a>
</g>
</g>
<!-- gz&#45;msgs&#45;&gt;gz&#45;fuel&#45;tools -->
<g id="edge42" class="edge">
<title>gz&#45;msgs&#45;&gt;gz&#45;fuel&#45;tools</title>
<path fill="none" stroke="black" d="M311.39,-407C333.63,-396.69 364.19,-382.53 389.01,-371.02"/>
<polygon fill="black" stroke="black" points="390.31,-373.81 397.91,-366.43 387.36,-367.46 390.31,-373.81"/>
</g>
<!-- gz&#45;gui -->
<g id="node41" class="node">
<title>gz&#45;gui</title>
<g id="a_node41"><a xlink:href="https://github.com/conda-forge/gz-gui-feedstock" xlink:title="gz gui">
<ellipse fill="#fde725" stroke="black" cx="140.2" cy="-278" rx="41.74" ry="18"/>
<text text-anchor="middle" x="140.2" y="-273.32" font-family="Times,serif" font-size="14.00">gz gui</text>
</a>
</g>
</g>
<!-- gz&#45;msgs&#45;&gt;gz&#45;gui -->
<g id="edge43" class="edge">
<title>gz&#45;msgs&#45;&gt;gz&#45;gui</title>
<path fill="none" stroke="black" d="M233.39,-414.38C204.32,-407.73 169.09,-394.45 149.2,-368 136.23,-350.75 134.68,-326.01 135.99,-306.99"/>
<polygon fill="black" stroke="black" points="139.55,-307.57 137.05,-297.28 132.58,-306.88 139.55,-307.57"/>
</g>
<!-- gz&#45;sensors -->
<g id="node42" class="node">
<title>gz&#45;sensors</title>
<g id="a_node42"><a xlink:href="https://github.com/conda-forge/gz-sensors-feedstock" xlink:title="gz sensors">
<ellipse fill="#fde725" stroke="black" cx="340.2" cy="-278" rx="64.36" ry="18"/>
<text text-anchor="middle" x="340.2" y="-273.32" font-family="Times,serif" font-size="14.00">gz sensors</text>
</a>
</g>
</g>
<!-- gz&#45;msgs&#45;&gt;gz&#45;sensors -->
<g id="edge44" class="edge">
<title>gz&#45;msgs&#45;&gt;gz&#45;sensors</title>
<path fill="none" stroke="black" d="M292.69,-404.4C299.35,-394.23 307.51,-380.77 313.2,-368 322.02,-348.18 329.02,-324.65 333.68,-306.77"/>
<polygon fill="black" stroke="black" points="337.3,-307.73 336.34,-297.18 330.51,-306.03 337.3,-307.73"/>
</g>
<!-- gz&#45;sim -->
<g id="node43" class="node">
<title>gz&#45;sim</title>
<g id="a_node43"><a xlink:href="https://github.com/conda-forge/gz-sim-feedstock" xlink:title="gz sim">
<ellipse fill="#fde725" stroke="black" cx="311.2" cy="-206" rx="43.84" ry="18"/>
<text text-anchor="middle" x="311.2" y="-201.33" font-family="Times,serif" font-size="14.00">gz sim</text>
</a>
</g>
</g>
<!-- gz&#45;msgs&#45;&gt;gz&#45;sim -->
<g id="edge45" class="edge">
<title>gz&#45;msgs&#45;&gt;gz&#45;sim</title>
<path fill="none" stroke="black" d="M331.52,-416.71C392.8,-410.32 490.92,-395.94 513.2,-368 566.07,-301.69 430.6,-245.49 356.2,-220.65"/>
<polygon fill="black" stroke="black" points="357.72,-217.14 347.13,-217.36 355.55,-223.79 357.72,-217.14"/>
</g>
<!-- gz&#45;launch -->
<g id="node44" class="node">
<title>gz&#45;launch</title>
<g id="a_node44"><a xlink:href="https://github.com/conda-forge/gz-launch-feedstock" xlink:title="gz launch">
<ellipse fill="#fde725" stroke="black" cx="191.2" cy="-134" rx="59.1" ry="18"/>
<text text-anchor="middle" x="191.2" y="-129.32" font-family="Times,serif" font-size="14.00">gz launch</text>
</a>
</g>
</g>
<!-- gz&#45;msgs&#45;&gt;gz&#45;launch -->
<g id="edge46" class="edge">
<title>gz&#45;msgs&#45;&gt;gz&#45;launch</title>
<path fill="none" stroke="black" d="M235.49,-412.99C204.02,-405.61 162.73,-392.03 133.2,-368 104.11,-344.33 99.36,-332.1 89.2,-296 73.72,-241 125.52,-186.96 160.89,-157.59"/>
<polygon fill="black" stroke="black" points="162.45,-160.02 168.03,-151.02 158.05,-154.58 162.45,-160.02"/>
</g>
<!-- gz&#45;transport&#45;&gt;gz&#45;gui -->
<g id="edge47" class="edge">
<title>gz&#45;transport&#45;&gt;gz&#45;gui</title>
<path fill="none" stroke="black" d="M209.63,-332.41C197.3,-322.93 181.69,-310.92 168.4,-300.69"/>
<polygon fill="black" stroke="black" points="171.11,-297.6 161.05,-294.27 166.85,-303.15 171.11,-297.6"/>
</g>
<!-- gz&#45;transport&#45;&gt;gz&#45;sensors -->
<g id="edge48" class="edge">
<title>gz&#45;transport&#45;&gt;gz&#45;sensors</title>
<path fill="none" stroke="black" d="M256.48,-332.76C271.3,-323.24 290.22,-311.09 306.33,-300.75"/>
<polygon fill="black" stroke="black" points="307.91,-303.25 314.43,-294.91 304.12,-297.36 307.91,-303.25"/>
</g>
<!-- gz&#45;transport&#45;&gt;gz&#45;sim -->
<g id="edge49" class="edge">
<title>gz&#45;transport&#45;&gt;gz&#45;sim</title>
<path fill="none" stroke="black" d="M236.37,-331.87C242.35,-313.39 253.18,-283.46 267.2,-260 273.18,-249.99 280.99,-239.92 288.36,-231.28"/>
<polygon fill="black" stroke="black" points="290.52,-233.99 294.51,-224.18 285.27,-229.36 290.52,-233.99"/>
</g>
<!-- gz&#45;transport&#45;&gt;gz&#45;launch -->
<g id="edge50" class="edge">
<title>gz&#45;transport&#45;&gt;gz&#45;launch</title>
<path fill="none" stroke="black" d="M227.99,-331.85C221.1,-294.99 204.83,-207.92 196.42,-162.96"/>
<polygon fill="black" stroke="black" points="199.7,-162.42 194.42,-153.23 192.82,-163.71 199.7,-162.42"/>
</g>
<!-- gz&#45;fuel&#45;tools&#45;&gt;gz&#45;sim -->
<g id="edge51" class="edge">
<title>gz&#45;fuel&#45;tools&#45;&gt;gz&#45;sim</title>
<path fill="none" stroke="black" d="M432.7,-331.82C432.4,-312.47 429.19,-280.99 413.2,-260 399.13,-241.53 376.78,-228.9 356.58,-220.62"/>
<polygon fill="black" stroke="black" points="358.17,-217.1 347.58,-216.79 355.67,-223.63 358.17,-217.1"/>
</g>
<!-- gz&#45;gui&#45;&gt;gz&#45;sim -->
<g id="edge52" class="edge">
<title>gz&#45;gui&#45;&gt;gz&#45;sim</title>
<path fill="none" stroke="black" d="M169.59,-264.97C197.56,-253.52 239.87,-236.2 270.96,-223.47"/>
<polygon fill="black" stroke="black" points="272.11,-226.37 280.04,-219.35 269.46,-219.9 272.11,-226.37"/>
</g>
<!-- gz&#45;gui&#45;&gt;gz&#45;launch -->
<g id="edge53" class="edge">
<title>gz&#45;gui&#45;&gt;gz&#45;launch</title>
<path fill="none" stroke="black" d="M146.35,-259.87C155.04,-235.67 171.01,-191.21 181.36,-162.39"/>
<polygon fill="black" stroke="black" points="184.94,-163.78 185.02,-153.19 178.35,-161.42 184.94,-163.78"/>
</g>
<!-- gz&#45;sensors&#45;&gt;gz&#45;sim -->
<g id="edge54" class="edge">
<title>gz&#45;sensors&#45;&gt;gz&#45;sim</title>
<path fill="none" stroke="black" d="M333.03,-259.7C329.83,-251.98 325.99,-242.71 322.43,-234.11"/>
<polygon fill="black" stroke="black" points="325.35,-233 318.28,-225.1 318.88,-235.68 325.35,-233"/>
</g>
<!-- gz&#45;sim&#45;&gt;gz&#45;launch -->
<g id="edge55" class="edge">
<title>gz&#45;sim&#45;&gt;gz&#45;launch</title>
<path fill="none" stroke="black" d="M286.62,-190.67C269.5,-180.67 246.37,-167.18 227.17,-155.98"/>
<polygon fill="black" stroke="black" points="229.22,-152.55 218.82,-150.53 225.7,-158.59 229.22,-152.55"/>
</g>
</g>
</svg>
