<?xml version="1.0" encoding="UTF-8" standalone="no"?>
<!DOCTYPE svg PUBLIC "-//W3C//DTD SVG 1.1//EN"
 "http://www.w3.org/Graphics/SVG/1.1/DTD/svg11.dtd">
<!-- Generated by graphviz version 8.0.5 (20230506.1012)
 -->
<!-- Pages: 1 -->
<svg width="1376pt" height="1140pt"
 viewBox="0.00 0.00 1376.07 1140.00" xmlns="http://www.w3.org/2000/svg" xmlns:xlink="http://www.w3.org/1999/xlink">
<g id="graph0" class="graph" transform="scale(1 1) rotate(0) translate(4 1136)">
<polygon fill="white" stroke="none" points="-4,4 -4,-1136 1372.07,-1136 1372.07,4 -4,4"/>
<!-- arrow&#45;cpp -->
<g id="node1" class="node">
<title>arrow&#45;cpp</title>
<g id="a_node1"><a xlink:href="https://github.com/conda-forge/arrow-cpp-feedstock" xlink:title="arrow cpp">
<ellipse fill="#fde725" stroke="black" cx="329.2" cy="-134" rx="61.73" ry="18"/>
<text text-anchor="middle" x="329.2" y="-129.32" font-family="Times,serif" font-size="14.00">arrow cpp</text>
</a>
</g>
</g>
<!-- bazel -->
<g id="node2" class="node">
<title>bazel</title>
<g id="a_node2"><a xlink:href="https://github.com/conda-forge/bazel-feedstock" xlink:title="bazel">
<ellipse fill="#ff8c00" stroke="black" cx="757.2" cy="-1114" rx="37.53" ry="18"/>
<text text-anchor="middle" x="757.2" y="-1109.33" font-family="Times,serif" font-size="14.00">bazel</text>
</a>
</g>
</g>
<!-- onnx -->
<g id="node3" class="node">
<title>onnx</title>
<g id="a_node3"><a xlink:href="https://github.com/conda-forge/onnx-feedstock/pull/96" xlink:title="onnx ❎">
<ellipse fill="#31688e" stroke="black" cx="757.2" cy="-1042" rx="50.68" ry="18"/>
<text text-anchor="middle" x="757.2" y="-1037.33" font-family="Times,serif" font-size="14.00" fill="white">onnx ❎</text>
</a>
</g>
</g>
<!-- bazel&#45;&gt;onnx -->
<!-- paraview -->
<g id="node6" class="node">
<title>paraview</title>
<g id="a_node6"><a xlink:href="https://github.com/conda-forge/paraview-feedstock/pull/193" xlink:title="paraview ❎">
<ellipse fill="#31688e" stroke="black" cx="757.2" cy="-970" rx="72.25" ry="18"/>
<text text-anchor="middle" x="757.2" y="-965.33" font-family="Times,serif" font-size="14.00" fill="white">paraview ❎</text>
</a>
</g>
</g>
<!-- onnx&#45;&gt;paraview -->
<!-- mysql -->
<g id="node4" class="node">
<title>mysql</title>
<g id="a_node4"><a xlink:href="https://github.com/conda-forge/mysql-feedstock/pull/78" xlink:title="mysql ❎">
<ellipse fill="#31688e" stroke="black" cx="319.2" cy="-90" rx="56.47" ry="18"/>
<text text-anchor="middle" x="319.2" y="-85.33" font-family="Times,serif" font-size="14.00" fill="white">mysql ❎</text>
</a>
</g>
</g>
<!-- mysql&#45;connector&#45;python -->
<g id="node5" class="node">
<title>mysql&#45;connector&#45;python</title>
<g id="a_node5"><a xlink:href="https://github.com/conda-forge/mysql-connector-python-feedstock" xlink:title="mysql connector python">
<ellipse fill="#fde725" stroke="black" cx="319.2" cy="-18" rx="131.7" ry="18"/>
<text text-anchor="middle" x="319.2" y="-13.32" font-family="Times,serif" font-size="14.00">mysql connector python</text>
</a>
</g>
</g>
<!-- mysql&#45;&gt;mysql&#45;connector&#45;python -->
<g id="edge2" class="edge">
<title>mysql&#45;&gt;mysql&#45;connector&#45;python</title>
<path fill="none" stroke="black" d="M319.2,-71.7C319.2,-64.24 319.2,-55.32 319.2,-46.97"/>
<polygon fill="black" stroke="black" points="322.7,-47.1 319.2,-37.1 315.7,-47.1 322.7,-47.1"/>
</g>
<!-- qgis -->
<g id="node10" class="node">
<title>qgis</title>
<g id="a_node10"><a xlink:href="https://github.com/conda-forge/qgis-feedstock/pull/332" xlink:title="qgis ❎">
<ellipse fill="#31688e" stroke="black" cx="757.2" cy="-898" rx="47.53" ry="18"/>
<text text-anchor="middle" x="757.2" y="-893.33" font-family="Times,serif" font-size="14.00" fill="white">qgis ❎</text>
</a>
</g>
</g>
<!-- paraview&#45;&gt;qgis -->
<!-- opencv -->
<g id="node7" class="node">
<title>opencv</title>
<g id="a_node7"><a xlink:href="https://github.com/conda-forge/opencv-feedstock/pull/362" xlink:title="opencv ❎">
<ellipse fill="#31688e" stroke="black" cx="1025.2" cy="-278" rx="61.73" ry="18"/>
<text text-anchor="middle" x="1025.2" y="-273.32" font-family="Times,serif" font-size="14.00" fill="white">opencv ❎</text>
</a>
</g>
</g>
<!-- imp -->
<g id="node8" class="node">
<title>imp</title>
<g id="a_node8"><a xlink:href="https://github.com/conda-forge/imp-feedstock" xlink:title="imp">
<ellipse fill="#fde725" stroke="black" cx="1008.2" cy="-206" rx="30.16" ry="18"/>
<text text-anchor="middle" x="1008.2" y="-201.32" font-family="Times,serif" font-size="14.00">imp</text>
</a>
</g>
</g>
<!-- opencv&#45;&gt;imp -->
<g id="edge4" class="edge">
<title>opencv&#45;&gt;imp</title>
<path fill="none" stroke="black" d="M1021,-259.7C1019.16,-252.15 1016.97,-243.12 1014.92,-234.68"/>
<polygon fill="black" stroke="black" points="1018.11,-234 1012.35,-225.1 1011.31,-235.65 1018.11,-234"/>
</g>
<!-- gazebo&#45;yarp&#45;plugins -->
<g id="node9" class="node">
<title>gazebo&#45;yarp&#45;plugins</title>
<g id="a_node9"><a xlink:href="https://github.com/conda-forge/gazebo-yarp-plugins-feedstock" xlink:title="gazebo yarp plugins">
<ellipse fill="#fde725" stroke="black" cx="1168.2" cy="-206" rx="112.24" ry="18"/>
<text text-anchor="middle" x="1168.2" y="-201.32" font-family="Times,serif" font-size="14.00">gazebo yarp plugins</text>
</a>
</g>
</g>
<!-- opencv&#45;&gt;gazebo&#45;yarp&#45;plugins -->
<g id="edge5" class="edge">
<title>opencv&#45;&gt;gazebo&#45;yarp&#45;plugins</title>
<path fill="none" stroke="black" d="M1055.88,-261.98C1075.87,-252.19 1102.28,-239.27 1124.46,-228.41"/>
<polygon fill="black" stroke="black" points="1125.88,-231.12 1133.32,-223.58 1122.8,-224.84 1125.88,-231.12"/>
</g>
<!-- tensorflow -->
<g id="node11" class="node">
<title>tensorflow</title>
<g id="a_node11"><a xlink:href="https://github.com/conda-forge/tensorflow-feedstock" xlink:title="tensorflow">
<ellipse fill="#ff8c00" stroke="black" cx="757.2" cy="-826" rx="63.84" ry="18"/>
<text text-anchor="middle" x="757.2" y="-821.33" font-family="Times,serif" font-size="14.00">tensorflow</text>
</a>
</g>
</g>
<!-- qgis&#45;&gt;tensorflow -->
<!-- libhdfs3 -->
<g id="node12" class="node">
<title>libhdfs3</title>
<g id="a_node12"><a xlink:href="https://github.com/conda-forge/libhdfs3-feedstock/pull/50" xlink:title="libhdfs3 ❎">
<ellipse fill="#31688e" stroke="black" cx="757.2" cy="-754" rx="66.99" ry="18"/>
<text text-anchor="middle" x="757.2" y="-749.33" font-family="Times,serif" font-size="14.00" fill="white">libhdfs3 ❎</text>
</a>
</g>
</g>
<!-- tensorflow&#45;&gt;libhdfs3 -->
<!-- jaxlib -->
<g id="node13" class="node">
<title>jaxlib</title>
<g id="a_node13"><a xlink:href="https://github.com/conda-forge/jaxlib-feedstock/pull/179" xlink:title="jaxlib ❎">
<ellipse fill="#31688e" stroke="black" cx="757.2" cy="-682" rx="53.84" ry="18"/>
<text text-anchor="middle" x="757.2" y="-677.33" font-family="Times,serif" font-size="14.00" fill="white">jaxlib ❎</text>
</a>
</g>
</g>
<!-- libhdfs3&#45;&gt;jaxlib -->
<!-- zaber&#45;motion -->
<g id="node16" class="node">
<title>zaber&#45;motion</title>
<g id="a_node16"><a xlink:href="https://github.com/conda-forge/zaber-motion-feedstock/pull/104" xlink:title="zaber motion ❎">
<ellipse fill="#31688e" stroke="black" cx="757.2" cy="-610" rx="92.25" ry="18"/>
<text text-anchor="middle" x="757.2" y="-605.33" font-family="Times,serif" font-size="14.00" fill="white">zaber motion ❎</text>
</a>
</g>
</g>
<!-- jaxlib&#45;&gt;zaber&#45;motion -->
<!-- pytorch&#45;cpu -->
<g id="node14" class="node">
<title>pytorch&#45;cpu</title>
<g id="a_node14"><a xlink:href="https://github.com/conda-forge/pytorch-cpu-feedstock/pull/170" xlink:title="pytorch cpu ❎">
<ellipse fill="#31688e" stroke="black" cx="215.2" cy="-206" rx="85.93" ry="18"/>
<text text-anchor="middle" x="215.2" y="-201.33" font-family="Times,serif" font-size="14.00" fill="white">pytorch cpu ❎</text>
</a>
</g>
</g>
<!-- pytorch&#45;cpu&#45;&gt;arrow&#45;cpp -->
<g id="edge10" class="edge">
<title>pytorch&#45;cpu&#45;&gt;arrow&#45;cpp</title>
<path fill="none" stroke="black" d="M241.93,-188.59C257.58,-178.97 277.54,-166.72 294.41,-156.36"/>
<polygon fill="black" stroke="black" points="295.73,-159.04 302.42,-150.83 292.07,-153.08 295.73,-159.04"/>
</g>
<!-- orc -->
<g id="node15" class="node">
<title>orc</title>
<g id="a_node15"><a xlink:href="https://github.com/conda-forge/orc-feedstock/pull/59" xlink:title="orc ❎">
<ellipse fill="#31688e" stroke="black" cx="329.2" cy="-278" rx="42.26" ry="18"/>
<text text-anchor="middle" x="329.2" y="-273.32" font-family="Times,serif" font-size="14.00" fill="white">orc ❎</text>
</a>
</g>
</g>
<!-- orc&#45;&gt;arrow&#45;cpp -->
<g id="edge11" class="edge">
<title>orc&#45;&gt;arrow&#45;cpp</title>
<path fill="none" stroke="black" d="M329.2,-259.59C329.2,-235.5 329.2,-191.75 329.2,-163.03"/>
<polygon fill="black" stroke="black" points="332.7,-163.11 329.2,-153.11 325.7,-163.11 332.7,-163.11"/>
</g>
<!-- go&#45;cockroach -->
<g id="node25" class="node">
<title>go&#45;cockroach</title>
<g id="a_node25"><a xlink:href="https://github.com/conda-forge/go-cockroach-feedstock" xlink:title="go cockroach">
<ellipse fill="#ff8c00" stroke="black" cx="757.2" cy="-538" rx="76.46" ry="18"/>
<text text-anchor="middle" x="757.2" y="-533.33" font-family="Times,serif" font-size="14.00">go cockroach</text>
</a>
</g>
</g>
<!-- zaber&#45;motion&#45;&gt;go&#45;cockroach -->
<!-- libignition&#45;transport4 -->
<g id="node17" class="node">
<title>libignition&#45;transport4</title>
<g id="a_node17"><a xlink:href="https://github.com/conda-forge/libignition-transport4-feedstock" xlink:title="libignition transport4">
<ellipse fill="#fde725" stroke="black" cx="205.2" cy="-826" rx="119.08" ry="18"/>
<text text-anchor="middle" x="205.2" y="-821.33" font-family="Times,serif" font-size="14.00">libignition transport4</text>
</a>
</g>
</g>
<!-- libignition&#45;sensors -->
<g id="node18" class="node">
<title>libignition&#45;sensors</title>
<g id="a_node18"><a xlink:href="https://github.com/conda-forge/libignition-sensors-feedstock" xlink:title="libignition sensors">
<ellipse fill="#fde725" stroke="black" cx="360.2" cy="-754" rx="103.82" ry="18"/>
<text text-anchor="middle" x="360.2" y="-749.33" font-family="Times,serif" font-size="14.00">libignition sensors</text>
</a>
</g>
</g>
<!-- libignition&#45;transport4&#45;&gt;libignition&#45;sensors -->
<g id="edge13" class="edge">
<title>libignition&#45;transport4&#45;&gt;libignition&#45;sensors</title>
<path fill="none" stroke="black" d="M241.93,-808.41C263.53,-798.66 291.04,-786.23 314.09,-775.82"/>
<polygon fill="black" stroke="black" points="315.32,-778.65 323,-771.35 312.44,-772.28 315.32,-778.65"/>
</g>
<!-- libignition&#45;gui -->
<g id="node19" class="node">
<title>libignition&#45;gui</title>
<g id="a_node19"><a xlink:href="https://github.com/conda-forge/libignition-gui-feedstock" xlink:title="libignition gui">
<ellipse fill="#fde725" stroke="black" cx="81.2" cy="-754" rx="81.2" ry="18"/>
<text text-anchor="middle" x="81.2" y="-749.33" font-family="Times,serif" font-size="14.00">libignition gui</text>
</a>
</g>
</g>
<!-- libignition&#45;transport4&#45;&gt;libignition&#45;gui -->
<g id="edge14" class="edge">
<title>libignition&#45;transport4&#45;&gt;libignition&#45;gui</title>
<path fill="none" stroke="black" d="M175.5,-808.23C158.54,-798.66 137.1,-786.56 118.95,-776.31"/>
<polygon fill="black" stroke="black" points="121.23,-773.02 110.8,-771.15 117.79,-779.11 121.23,-773.02"/>
</g>
<!-- libignition&#45;gazebo -->
<g id="node20" class="node">
<title>libignition&#45;gazebo</title>
<g id="a_node20"><a xlink:href="https://github.com/conda-forge/libignition-gazebo-feedstock" xlink:title="libignition gazebo">
<ellipse fill="#fde725" stroke="black" cx="340.2" cy="-682" rx="100.66" ry="18"/>
<text text-anchor="middle" x="340.2" y="-677.33" font-family="Times,serif" font-size="14.00">libignition gazebo</text>
</a>
</g>
</g>
<!-- libignition&#45;transport4&#45;&gt;libignition&#45;gazebo -->
<g id="edge15" class="edge">
<title>libignition&#45;transport4&#45;&gt;libignition&#45;gazebo</title>
<path fill="none" stroke="black" d="M209.87,-807.8C215.85,-788.43 227.81,-756.94 247.2,-736 259.43,-722.79 275.72,-711.98 291.26,-703.66"/>
<polygon fill="black" stroke="black" points="292.47,-706.46 299.78,-698.8 289.28,-700.22 292.47,-706.46"/>
</g>
<!-- libignition&#45;launch -->
<g id="node21" class="node">
<title>libignition&#45;launch</title>
<g id="a_node21"><a xlink:href="https://github.com/conda-forge/libignition-launch-feedstock" xlink:title="libignition launch">
<ellipse fill="#fde725" stroke="black" cx="275.2" cy="-610" rx="98.56" ry="18"/>
<text text-anchor="middle" x="275.2" y="-605.33" font-family="Times,serif" font-size="14.00">libignition launch</text>
</a>
</g>
</g>
<!-- libignition&#45;transport4&#45;&gt;libignition&#45;launch -->
<g id="edge16" class="edge">
<title>libignition&#45;transport4&#45;&gt;libignition&#45;launch</title>
<path fill="none" stroke="black" d="M204.87,-807.68C204.93,-777.2 207.96,-712.62 230.2,-664 234.82,-653.9 241.93,-644.21 249.15,-635.94"/>
<polygon fill="black" stroke="black" points="251.38,-638.6 255.61,-628.89 246.25,-633.85 251.38,-638.6"/>
</g>
<!-- libignition&#45;sensors&#45;&gt;libignition&#45;gazebo -->
<g id="edge17" class="edge">
<title>libignition&#45;sensors&#45;&gt;libignition&#45;gazebo</title>
<path fill="none" stroke="black" d="M355.25,-735.7C353.1,-728.15 350.52,-719.12 348.11,-710.68"/>
<polygon fill="black" stroke="black" points="351.2,-709.76 345.08,-701.1 344.47,-711.68 351.2,-709.76"/>
</g>
<!-- libignition&#45;gui&#45;&gt;libignition&#45;gazebo -->
<g id="edge18" class="edge">
<title>libignition&#45;gui&#45;&gt;libignition&#45;gazebo</title>
<path fill="none" stroke="black" d="M131.44,-739.42C172.57,-728.3 231.03,-712.5 275.63,-700.45"/>
<polygon fill="black" stroke="black" points="276.33,-703.62 285.07,-697.63 274.51,-696.86 276.33,-703.62"/>
</g>
<!-- libignition&#45;gui&#45;&gt;libignition&#45;launch -->
<g id="edge19" class="edge">
<title>libignition&#45;gui&#45;&gt;libignition&#45;launch</title>
<path fill="none" stroke="black" d="M96.54,-736.18C114.45,-717.17 145.53,-686 176.2,-664 193.04,-651.92 212.97,-640.73 230.51,-631.78"/>
<polygon fill="black" stroke="black" points="231.6,-634.65 238.98,-627.05 228.47,-628.39 231.6,-634.65"/>
</g>
<!-- libignition&#45;gazebo&#45;&gt;libignition&#45;launch -->
<g id="edge20" class="edge">
<title>libignition&#45;gazebo&#45;&gt;libignition&#45;launch</title>
<path fill="none" stroke="black" d="M324.46,-664.05C316.56,-655.54 306.83,-645.07 298.12,-635.68"/>
<polygon fill="black" stroke="black" points="301.16,-633.74 291.79,-628.79 296.03,-638.5 301.16,-633.74"/>
</g>
<!-- libignition&#45;msgs1 -->
<g id="node22" class="node">
<title>libignition&#45;msgs1</title>
<g id="a_node22"><a xlink:href="https://github.com/conda-forge/libignition-msgs1-feedstock/pull/85" xlink:title="libignition msgs1 ❎">
<ellipse fill="#31688e" stroke="black" cx="422.2" cy="-898" rx="113.29" ry="18"/>
<text text-anchor="middle" x="422.2" y="-893.33" font-family="Times,serif" font-size="14.00" fill="white">libignition msgs1 ❎</text>
</a>
</g>
</g>
<!-- libignition&#45;msgs1&#45;&gt;libignition&#45;transport4 -->
<g id="edge21" class="edge">
<title>libignition&#45;msgs1&#45;&gt;libignition&#45;transport4</title>
<path fill="none" stroke="black" d="M373.5,-881.29C341.22,-870.88 298.68,-857.16 264.45,-846.11"/>
<polygon fill="black" stroke="black" points="265.7,-842.52 255.11,-842.78 263.55,-849.18 265.7,-842.52"/>
</g>
<!-- libignition&#45;msgs1&#45;&gt;libignition&#45;sensors -->
<g id="edge22" class="edge">
<title>libignition&#45;msgs1&#45;&gt;libignition&#45;sensors</title>
<path fill="none" stroke="black" d="M400.15,-879.97C389.6,-870.55 377.84,-857.95 371.2,-844 362.15,-825 359.59,-801.25 359.19,-783.07"/>
<polygon fill="black" stroke="black" points="362.69,-783.29 359.18,-773.29 355.69,-783.29 362.69,-783.29"/>
</g>
<!-- libignition&#45;msgs1&#45;&gt;libignition&#45;gui -->
<g id="edge23" class="edge">
<title>libignition&#45;msgs1&#45;&gt;libignition&#45;gui</title>
<path fill="none" stroke="black" d="M310.29,-895.07C221.29,-890.88 106.94,-878.66 77.2,-844 62.99,-827.44 65.66,-802.1 70.91,-782.69"/>
<polygon fill="black" stroke="black" points="74.51,-783.92 74.11,-773.33 67.82,-781.85 74.51,-783.92"/>
</g>
<!-- libignition&#45;msgs1&#45;&gt;libignition&#45;gazebo -->
<g id="edge24" class="edge">
<title>libignition&#45;msgs1&#45;&gt;libignition&#45;gazebo</title>
<path fill="none" stroke="black" d="M514.38,-887.23C575.1,-876.43 639.03,-854.02 613.2,-808 576.22,-742.12 493.61,-710.77 428.89,-695.97"/>
<polygon fill="black" stroke="black" points="429.77,-692.36 419.26,-693.65 428.28,-699.2 429.77,-692.36"/>
</g>
<!-- libignition&#45;msgs1&#45;&gt;libignition&#45;launch -->
<g id="edge25" class="edge">
<title>libignition&#45;msgs1&#45;&gt;libignition&#45;launch</title>
<path fill="none" stroke="black" d="M507.48,-885.83C557.54,-877.34 613.9,-863.71 629.2,-844 639.01,-831.36 634.32,-823.16 629.2,-808 591.26,-695.85 450.15,-646.01 357.96,-625.03"/>
<polygon fill="black" stroke="black" points="358.77,-621.4 348.25,-622.67 357.26,-628.24 358.77,-621.4"/>
</g>
<!-- libignition&#45;fuel&#45;tools -->
<g id="node23" class="node">
<title>libignition&#45;fuel&#45;tools</title>
<g id="a_node23"><a xlink:href="https://github.com/conda-forge/libignition-fuel-tools-feedstock" xlink:title="libignition fuel tools">
<ellipse fill="#fde725" stroke="black" cx="492.2" cy="-826" rx="111.71" ry="18"/>
<text text-anchor="middle" x="492.2" y="-821.33" font-family="Times,serif" font-size="14.00">libignition fuel tools</text>
</a>
</g>
</g>
<!-- libignition&#45;msgs1&#45;&gt;libignition&#45;fuel&#45;tools -->
<g id="edge26" class="edge">
<title>libignition&#45;msgs1&#45;&gt;libignition&#45;fuel&#45;tools</title>
<path fill="none" stroke="black" d="M439.14,-880.05C447.61,-871.58 458.03,-861.17 467.38,-851.82"/>
<polygon fill="black" stroke="black" points="469.33,-854.82 473.92,-845.28 464.38,-849.87 469.33,-854.82"/>
</g>
<!-- libignition&#45;fuel&#45;tools&#45;&gt;libignition&#45;gazebo -->
<g id="edge27" class="edge">
<title>libignition&#45;fuel&#45;tools&#45;&gt;libignition&#45;gazebo</title>
<path fill="none" stroke="black" d="M493.08,-807.52C493.12,-787.89 490.22,-756.16 473.2,-736 458.8,-718.94 438.14,-707.33 417.38,-699.44"/>
<polygon fill="black" stroke="black" points="418.8,-695.88 408.2,-695.86 416.48,-702.48 418.8,-695.88"/>
</g>
<!-- gazebo -->
<g id="node24" class="node">
<title>gazebo</title>
<g id="a_node24"><a xlink:href="https://github.com/conda-forge/gazebo-feedstock" xlink:title="gazebo">
<ellipse fill="#ff8c00" stroke="black" cx="1168.2" cy="-278" rx="46.47" ry="18"/>
<text text-anchor="middle" x="1168.2" y="-273.32" font-family="Times,serif" font-size="14.00">gazebo</text>
</a>
</g>
</g>
<!-- gazebo&#45;&gt;gazebo&#45;yarp&#45;plugins -->
<g id="edge28" class="edge">
<title>gazebo&#45;&gt;gazebo&#45;yarp&#45;plugins</title>
<path fill="none" stroke="black" d="M1168.2,-259.7C1168.2,-252.24 1168.2,-243.32 1168.2,-234.97"/>
<polygon fill="black" stroke="black" points="1171.7,-235.1 1168.2,-225.1 1164.7,-235.1 1171.7,-235.1"/>
</g>
<!-- cartographer -->
<g id="node27" class="node">
<title>cartographer</title>
<g id="a_node27"><a xlink:href="https://github.com/conda-forge/cartographer-feedstock/pull/55" xlink:title="cartographer ❎">
<ellipse fill="#31688e" stroke="black" cx="757.2" cy="-466" rx="92.25" ry="18"/>
<text text-anchor="middle" x="757.2" y="-461.32" font-family="Times,serif" font-size="14.00" fill="white">cartographer ❎</text>
</a>
</g>
</g>
<!-- go&#45;cockroach&#45;&gt;cartographer -->
<!-- google&#45;cloud&#45;cpp -->
<g id="node26" class="node">
<title>google&#45;cloud&#45;cpp</title>
<g id="a_node26"><a xlink:href="https://github.com/conda-forge/google-cloud-cpp-feedstock/pull/137" xlink:title="google cloud cpp ❎">
<ellipse fill="#31688e" stroke="black" cx="399.2" cy="-350" rx="110.66" ry="18"/>
<text text-anchor="middle" x="399.2" y="-345.32" font-family="Times,serif" font-size="14.00" fill="white">google cloud cpp ❎</text>
</a>
</g>
</g>
<!-- google&#45;cloud&#45;cpp&#45;&gt;arrow&#45;cpp -->
<g id="edge30" class="edge">
<title>google&#45;cloud&#45;cpp&#45;&gt;arrow&#45;cpp</title>
<path fill="none" stroke="black" d="M396.44,-331.71C393.34,-313.6 387.73,-284.46 380.2,-260 369.51,-225.31 353.09,-186.84 341.78,-161.87"/>
<polygon fill="black" stroke="black" points="344.63,-160.67 337.28,-153.04 338.26,-163.59 344.63,-160.67"/>
</g>
<!-- tomviz -->
<g id="node28" class="node">
<title>tomviz</title>
<g id="a_node28"><a xlink:href="https://github.com/conda-forge/tomviz-feedstock" xlink:title="tomviz">
<ellipse fill="#ff8c00" stroke="black" cx="757.2" cy="-394" rx="44.9" ry="18"/>
<text text-anchor="middle" x="757.2" y="-389.32" font-family="Times,serif" font-size="14.00">tomviz</text>
</a>
</g>
</g>
<!-- cartographer&#45;&gt;tomviz -->
<!-- grpc_java_plugin -->
<g id="node29" class="node">
<title>grpc_java_plugin</title>
<g id="a_node29"><a xlink:href="https://github.com/conda-forge/grpc_java_plugin-feedstock/pull/63" xlink:title="grpc_java_plugin ❎">
<ellipse fill="#31688e" stroke="black" cx="757.2" cy="-350" rx="110.66" ry="18"/>
<text text-anchor="middle" x="757.2" y="-345.32" font-family="Times,serif" font-size="14.00" fill="white">grpc_java_plugin ❎</text>
</a>
</g>
</g>
<!-- bear -->
<g id="node30" class="node">
<title>bear</title>
<g id="a_node30"><a xlink:href="https://github.com/conda-forge/bear-feedstock/pull/35" xlink:title="bear ❎">
<ellipse fill="#31688e" stroke="black" cx="757.2" cy="-278" rx="49.1" ry="18"/>
<text text-anchor="middle" x="757.2" y="-273.32" font-family="Times,serif" font-size="14.00" fill="white">bear ❎</text>
</a>
</g>
</g>
<!-- grpc_java_plugin&#45;&gt;bear -->
<!-- singlejar -->
<g id="node31" class="node">
<title>singlejar</title>
<g id="a_node31"><a xlink:href="https://github.com/conda-forge/singlejar-feedstock/pull/19" xlink:title="singlejar ❎">
<ellipse fill="#31688e" stroke="black" cx="757.2" cy="-206" rx="70.15" ry="18"/>
<text text-anchor="middle" x="757.2" y="-201.33" font-family="Times,serif" font-size="14.00" fill="white">singlejar ❎</text>
</a>
</g>
</g>
<!-- bear&#45;&gt;singlejar -->
<!-- xilinx&#45;runtime -->
<g id="node32" class="node">
<title>xilinx&#45;runtime</title>
<g id="a_node32"><a xlink:href="https://github.com/conda-forge/xilinx-runtime-feedstock/pull/13" xlink:title="xilinx runtime ✓">
<ellipse fill="#31688e" stroke="black" cx="757.2" cy="-134" rx="89.61" ry="18"/>
<text text-anchor="middle" x="757.2" y="-129.32" font-family="Times,serif" font-size="14.00" fill="white">xilinx runtime ✓</text>
</a>
</g>
</g>
<!-- singlejar&#45;&gt;xilinx&#45;runtime -->
<!-- gz&#45;msgs -->
<g id="node33" class="node">
<title>gz&#45;msgs</title>
<g id="a_node33"><a xlink:href="https://github.com/conda-forge/gz-msgs-feedstock/pull/10" xlink:title="gz msgs ✓">
<ellipse fill="#31688e" stroke="black" cx="1083.2" cy="-898" rx="60.15" ry="18"/>
<text text-anchor="middle" x="1083.2" y="-893.33" font-family="Times,serif" font-size="14.00" fill="white">gz msgs ✓</text>
</a>
</g>
</g>
<!-- gz&#45;transport -->
<g id="node34" class="node">
<title>gz&#45;transport</title>
<g id="a_node34"><a xlink:href="https://github.com/conda-forge/gz-transport-feedstock" xlink:title="gz transport">
<ellipse fill="#fde725" stroke="black" cx="1033.2" cy="-826" rx="73.3" ry="18"/>
<text text-anchor="middle" x="1033.2" y="-821.33" font-family="Times,serif" font-size="14.00">gz transport</text>
</a>
</g>
</g>
<!-- gz&#45;msgs&#45;&gt;gz&#45;transport -->
<g id="edge36" class="edge">
<title>gz&#45;msgs&#45;&gt;gz&#45;transport</title>
<path fill="none" stroke="black" d="M1071.09,-880.05C1065.2,-871.8 1057.98,-861.7 1051.44,-852.54"/>
<polygon fill="black" stroke="black" points="1053.85,-850.89 1045.19,-844.79 1048.15,-854.96 1053.85,-850.89"/>
</g>
<!-- gz&#45;fuel&#45;tools -->
<g id="node35" class="node">
<title>gz&#45;fuel&#45;tools</title>
<g id="a_node35"><a xlink:href="https://github.com/conda-forge/gz-fuel-tools-feedstock" xlink:title="gz fuel tools">
<ellipse fill="#fde725" stroke="black" cx="1234.2" cy="-826" rx="72.25" ry="18"/>
<text text-anchor="middle" x="1234.2" y="-821.33" font-family="Times,serif" font-size="14.00">gz fuel tools</text>
</a>
</g>
</g>
<!-- gz&#45;msgs&#45;&gt;gz&#45;fuel&#45;tools -->
<g id="edge37" class="edge">
<title>gz&#45;msgs&#45;&gt;gz&#45;fuel&#45;tools</title>
<path fill="none" stroke="black" d="M1114.85,-882.33C1137.05,-872.04 1166.98,-858.16 1191.31,-846.88"/>
<polygon fill="black" stroke="black" points="1192.42,-849.76 1200.02,-842.38 1189.47,-843.41 1192.42,-849.76"/>
</g>
<!-- gz&#45;gui -->
<g id="node36" class="node">
<title>gz&#45;gui</title>
<g id="a_node36"><a xlink:href="https://github.com/conda-forge/gz-gui-feedstock" xlink:title="gz gui">
<ellipse fill="#fde725" stroke="black" cx="942.2" cy="-754" rx="41.74" ry="18"/>
<text text-anchor="middle" x="942.2" y="-749.33" font-family="Times,serif" font-size="14.00">gz gui</text>
</a>
</g>
</g>
<!-- gz&#45;msgs&#45;&gt;gz&#45;gui -->
<g id="edge38" class="edge">
<title>gz&#45;msgs&#45;&gt;gz&#45;gui</title>
<path fill="none" stroke="black" d="M1030.12,-889.12C1002.17,-882.09 969.9,-868.87 951.2,-844 938.23,-826.75 936.68,-802.01 937.99,-782.99"/>
<polygon fill="black" stroke="black" points="941.55,-783.57 939.05,-773.28 934.58,-782.88 941.55,-783.57"/>
</g>
<!-- gz&#45;sensors -->
<g id="node37" class="node">
<title>gz&#45;sensors</title>
<g id="a_node37"><a xlink:href="https://github.com/conda-forge/gz-sensors-feedstock" xlink:title="gz sensors">
<ellipse fill="#fde725" stroke="black" cx="1142.2" cy="-754" rx="64.36" ry="18"/>
<text text-anchor="middle" x="1142.2" y="-749.33" font-family="Times,serif" font-size="14.00">gz sensors</text>
</a>
</g>
</g>
<!-- gz&#45;msgs&#45;&gt;gz&#45;sensors -->
<g id="edge39" class="edge">
<title>gz&#45;msgs&#45;&gt;gz&#45;sensors</title>
<path fill="none" stroke="black" d="M1095,-879.93C1101.6,-869.82 1109.6,-856.57 1115.2,-844 1124.02,-824.18 1131.02,-800.65 1135.68,-782.77"/>
<polygon fill="black" stroke="black" points="1139.3,-783.73 1138.34,-773.18 1132.51,-782.03 1139.3,-783.73"/>
</g>
<!-- gz&#45;sim -->
<g id="node38" class="node">
<title>gz&#45;sim</title>
<g id="a_node38"><a xlink:href="https://github.com/conda-forge/gz-sim-feedstock" xlink:title="gz sim">
<ellipse fill="#fde725" stroke="black" cx="1113.2" cy="-682" rx="43.84" ry="18"/>
<text text-anchor="middle" x="1113.2" y="-677.33" font-family="Times,serif" font-size="14.00">gz sim</text>
</a>
</g>
</g>
<!-- gz&#45;msgs&#45;&gt;gz&#45;sim -->
<g id="edge40" class="edge">
<title>gz&#45;msgs&#45;&gt;gz&#45;sim</title>
<path fill="none" stroke="black" d="M1140.3,-891.99C1201.79,-885.27 1293.72,-870.93 1315.2,-844 1368.07,-777.69 1232.6,-721.49 1158.2,-696.65"/>
<polygon fill="black" stroke="black" points="1159.72,-693.14 1149.13,-693.36 1157.55,-699.79 1159.72,-693.14"/>
</g>
<!-- gz&#45;launch -->
<g id="node39" class="node">
<title>gz&#45;launch</title>
<g id="a_node39"><a xlink:href="https://github.com/conda-forge/gz-launch-feedstock" xlink:title="gz launch">
<ellipse fill="#fde725" stroke="black" cx="993.2" cy="-610" rx="59.1" ry="18"/>
<text text-anchor="middle" x="993.2" y="-605.33" font-family="Times,serif" font-size="14.00">gz launch</text>
</a>
</g>
</g>
<!-- gz&#45;msgs&#45;&gt;gz&#45;launch -->
<g id="edge41" class="edge">
<title>gz&#45;msgs&#45;&gt;gz&#45;launch</title>
<path fill="none" stroke="black" d="M1032.68,-887.83C1001.91,-880.22 963.25,-866.82 935.2,-844 906.11,-820.33 901.36,-808.1 891.2,-772 875.72,-717 927.52,-662.96 962.89,-633.59"/>
<polygon fill="black" stroke="black" points="964.45,-636.02 970.03,-627.02 960.05,-630.58 964.45,-636.02"/>
</g>
<!-- gz&#45;transport&#45;&gt;gz&#45;gui -->
<g id="edge42" class="edge">
<title>gz&#45;transport&#45;&gt;gz&#45;gui</title>
<path fill="none" stroke="black" d="M1011.63,-808.41C999.3,-798.93 983.69,-786.92 970.4,-776.69"/>
<polygon fill="black" stroke="black" points="973.11,-773.6 963.05,-770.27 968.85,-779.15 973.11,-773.6"/>
</g>
<!-- gz&#45;transport&#45;&gt;gz&#45;sensors -->
<g id="edge43" class="edge">
<title>gz&#45;transport&#45;&gt;gz&#45;sensors</title>
<path fill="none" stroke="black" d="M1058.48,-808.76C1073.3,-799.24 1092.22,-787.09 1108.33,-776.75"/>
<polygon fill="black" stroke="black" points="1109.91,-779.25 1116.43,-770.91 1106.12,-773.36 1109.91,-779.25"/>
</g>
<!-- gz&#45;transport&#45;&gt;gz&#45;sim -->
<g id="edge44" class="edge">
<title>gz&#45;transport&#45;&gt;gz&#45;sim</title>
<path fill="none" stroke="black" d="M1038.37,-807.87C1044.35,-789.39 1055.18,-759.46 1069.2,-736 1075.18,-725.99 1082.99,-715.92 1090.36,-707.28"/>
<polygon fill="black" stroke="black" points="1092.52,-709.99 1096.51,-700.18 1087.27,-705.36 1092.52,-709.99"/>
</g>
<!-- gz&#45;transport&#45;&gt;gz&#45;launch -->
<g id="edge45" class="edge">
<title>gz&#45;transport&#45;&gt;gz&#45;launch</title>
<path fill="none" stroke="black" d="M1029.99,-807.85C1023.1,-770.99 1006.83,-683.92 998.42,-638.96"/>
<polygon fill="black" stroke="black" points="1001.7,-638.42 996.42,-629.23 994.82,-639.71 1001.7,-638.42"/>
</g>
<!-- gz&#45;fuel&#45;tools&#45;&gt;gz&#45;sim -->
<g id="edge46" class="edge">
<title>gz&#45;fuel&#45;tools&#45;&gt;gz&#45;sim</title>
<path fill="none" stroke="black" d="M1234.7,-807.82C1234.4,-788.47 1231.19,-756.99 1215.2,-736 1201.13,-717.53 1178.78,-704.9 1158.58,-696.62"/>
<polygon fill="black" stroke="black" points="1160.17,-693.1 1149.58,-692.79 1157.67,-699.63 1160.17,-693.1"/>
</g>
<!-- gz&#45;gui&#45;&gt;gz&#45;sim -->
<g id="edge47" class="edge">
<title>gz&#45;gui&#45;&gt;gz&#45;sim</title>
<path fill="none" stroke="black" d="M971.59,-740.97C999.56,-729.52 1041.87,-712.2 1072.96,-699.47"/>
<polygon fill="black" stroke="black" points="1074.11,-702.37 1082.04,-695.35 1071.46,-695.9 1074.11,-702.37"/>
</g>
<!-- gz&#45;gui&#45;&gt;gz&#45;launch -->
<g id="edge48" class="edge">
<title>gz&#45;gui&#45;&gt;gz&#45;launch</title>
<path fill="none" stroke="black" d="M948.35,-735.87C957.04,-711.67 973.01,-667.21 983.36,-638.39"/>
<polygon fill="black" stroke="black" points="986.94,-639.78 987.02,-629.19 980.35,-637.42 986.94,-639.78"/>
</g>
<!-- gz&#45;sensors&#45;&gt;gz&#45;sim -->
<g id="edge49" class="edge">
<title>gz&#45;sensors&#45;&gt;gz&#45;sim</title>
<path fill="none" stroke="black" d="M1135.03,-735.7C1131.83,-727.98 1127.99,-718.71 1124.43,-710.11"/>
<polygon fill="black" stroke="black" points="1127.35,-709 1120.28,-701.1 1120.88,-711.68 1127.35,-709"/>
</g>
<!-- gz&#45;sim&#45;&gt;gz&#45;launch -->
<g id="edge50" class="edge">
<title>gz&#45;sim&#45;&gt;gz&#45;launch</title>
<path fill="none" stroke="black" d="M1088.62,-666.67C1071.5,-656.67 1048.37,-643.18 1029.17,-631.98"/>
<polygon fill="black" stroke="black" points="1031.22,-628.55 1020.82,-626.53 1027.7,-634.59 1031.22,-628.55"/>
</g>
</g>
</svg>
