<?xml version="1.0" encoding="UTF-8" standalone="no"?>
<!DOCTYPE svg PUBLIC "-//W3C//DTD SVG 1.1//EN"
 "http://www.w3.org/Graphics/SVG/1.1/DTD/svg11.dtd">
<!-- Generated by graphviz version 8.1.0 (20230707.2238)
 -->
<!-- Pages: 1 -->
<svg width="1328pt" height="692pt"
 viewBox="0.00 0.00 1327.83 692.00" xmlns="http://www.w3.org/2000/svg" xmlns:xlink="http://www.w3.org/1999/xlink">
<g id="graph0" class="graph" transform="scale(1 1) rotate(0) translate(4 688)">
<polygon fill="white" stroke="none" points="-4,4 -4,-688 1323.83,-688 1323.83,4 -4,4"/>
<!-- xgboost -->
<g id="node1" class="node">
<title>xgboost</title>
<g id="a_node1"><a xlink:href="https://github.com/conda-forge/xgboost-feedstock" xlink:title="xgboost">
<ellipse fill="#ff8c00" stroke="black" cx="483.26" cy="-558" rx="50.68" ry="18"/>
<text text-anchor="middle" x="483.26" y="-553.33" font-family="Times,serif" font-size="14.00">xgboost</text>
</a>
</g>
</g>
<!-- r&#45;mikropml -->
<g id="node2" class="node">
<title>r&#45;mikropml</title>
<g id="a_node2"><a xlink:href="https://github.com/conda-forge/r-mikropml-feedstock" xlink:title="r mikropml">
<ellipse fill="#fde725" stroke="black" cx="157.26" cy="-486" rx="66.99" ry="18"/>
<text text-anchor="middle" x="157.26" y="-481.32" font-family="Times,serif" font-size="14.00">r mikropml</text>
</a>
</g>
</g>
<!-- xgboost&#45;&gt;r&#45;mikropml -->
<g id="edge1" class="edge">
<title>xgboost&#45;&gt;r&#45;mikropml</title>
<path fill="none" stroke="black" d="M440.64,-547.85C384.07,-535.7 283.8,-514.17 218.96,-500.25"/>
<polygon fill="black" stroke="black" points="219.99,-496.68 209.47,-498 218.52,-503.52 219.99,-496.68"/>
</g>
<!-- r&#45;biomod2 -->
<g id="node3" class="node">
<title>r&#45;biomod2</title>
<g id="a_node3"><a xlink:href="https://github.com/conda-forge/r-biomod2-feedstock" xlink:title="r biomod2">
<ellipse fill="#fde725" stroke="black" cx="62.26" cy="-414" rx="62.26" ry="18"/>
<text text-anchor="middle" x="62.26" y="-409.32" font-family="Times,serif" font-size="14.00">r biomod2</text>
</a>
</g>
</g>
<!-- xgboost&#45;&gt;r&#45;biomod2 -->
<g id="edge2" class="edge">
<title>xgboost&#45;&gt;r&#45;biomod2</title>
<path fill="none" stroke="black" d="M435.24,-552.09C390.52,-545.92 323.15,-532.46 271.26,-504 250.86,-492.81 253.34,-479.75 233.26,-468 213.53,-456.46 160.05,-440.69 118.1,-429.36"/>
<polygon fill="black" stroke="black" points="119.28,-425.78 108.71,-426.58 117.47,-432.54 119.28,-425.78"/>
</g>
<!-- r&#45;modeltime -->
<g id="node4" class="node">
<title>r&#45;modeltime</title>
<g id="a_node4"><a xlink:href="https://github.com/conda-forge/r-modeltime-feedstock" xlink:title="r modeltime">
<ellipse fill="#fde725" stroke="black" cx="352.26" cy="-486" rx="72.25" ry="18"/>
<text text-anchor="middle" x="352.26" y="-481.32" font-family="Times,serif" font-size="14.00">r modeltime</text>
</a>
</g>
</g>
<!-- xgboost&#45;&gt;r&#45;modeltime -->
<g id="edge3" class="edge">
<title>xgboost&#45;&gt;r&#45;modeltime</title>
<path fill="none" stroke="black" d="M456.11,-542.5C437.35,-532.47 412.11,-518.98 391.2,-507.81"/>
<polygon fill="black" stroke="black" points="393.11,-504.33 382.64,-502.7 389.81,-510.5 393.11,-504.33"/>
</g>
<!-- r&#45;vetiver -->
<g id="node5" class="node">
<title>r&#45;vetiver</title>
<g id="a_node5"><a xlink:href="https://github.com/conda-forge/r-vetiver-feedstock" xlink:title="r vetiver">
<ellipse fill="#fde725" stroke="black" cx="580.26" cy="-126" rx="54.36" ry="18"/>
<text text-anchor="middle" x="580.26" y="-121.33" font-family="Times,serif" font-size="14.00">r vetiver</text>
</a>
</g>
</g>
<!-- xgboost&#45;&gt;r&#45;vetiver -->
<g id="edge4" class="edge">
<title>xgboost&#45;&gt;r&#45;vetiver</title>
<path fill="none" stroke="black" d="M479.07,-539.71C468.38,-493.05 442.01,-360.77 458.26,-252 463.2,-218.91 458.96,-205.81 480.26,-180 493.66,-163.76 513.36,-151.83 531.74,-143.45"/>
<polygon fill="black" stroke="black" points="532.96,-146.31 540.77,-139.15 530.2,-139.87 532.96,-146.31"/>
</g>
<!-- r&#45;tidybins -->
<g id="node6" class="node">
<title>r&#45;tidybins</title>
<g id="a_node6"><a xlink:href="https://github.com/conda-forge/r-tidybins-feedstock" xlink:title="r tidybins">
<ellipse fill="#fde725" stroke="black" cx="527.26" cy="-270" rx="59.63" ry="18"/>
<text text-anchor="middle" x="527.26" y="-265.32" font-family="Times,serif" font-size="14.00">r tidybins</text>
</a>
</g>
</g>
<!-- xgboost&#45;&gt;r&#45;tidybins -->
<g id="edge5" class="edge">
<title>xgboost&#45;&gt;r&#45;tidybins</title>
<path fill="none" stroke="black" d="M485.94,-539.54C493.32,-491.56 513.97,-357.39 522.97,-298.88"/>
<polygon fill="black" stroke="black" points="526.54,-299.65 524.61,-289.23 519.63,-298.58 526.54,-299.65"/>
</g>
<!-- r&#45;autostats -->
<g id="node7" class="node">
<title>r&#45;autostats</title>
<g id="a_node7"><a xlink:href="https://github.com/conda-forge/r-autostats-feedstock" xlink:title="r autostats">
<ellipse fill="#fde725" stroke="black" cx="671.26" cy="-270" rx="65.94" ry="18"/>
<text text-anchor="middle" x="671.26" y="-265.32" font-family="Times,serif" font-size="14.00">r autostats</text>
</a>
</g>
</g>
<!-- xgboost&#45;&gt;r&#45;autostats -->
<g id="edge6" class="edge">
<title>xgboost&#45;&gt;r&#45;autostats</title>
<path fill="none" stroke="black" d="M494.45,-539.97C526.06,-491.88 616.14,-354.85 654.08,-297.13"/>
<polygon fill="black" stroke="black" points="657.55,-299.22 660.12,-288.94 651.7,-295.38 657.55,-299.22"/>
</g>
<!-- r&#45;bundle -->
<g id="node8" class="node">
<title>r&#45;bundle</title>
<g id="a_node8"><a xlink:href="https://github.com/conda-forge/r-bundle-feedstock" xlink:title="r bundle">
<ellipse fill="#fde725" stroke="black" cx="754.26" cy="-198" rx="53.31" ry="18"/>
<text text-anchor="middle" x="754.26" y="-193.32" font-family="Times,serif" font-size="14.00">r bundle</text>
</a>
</g>
</g>
<!-- xgboost&#45;&gt;r&#45;bundle -->
<g id="edge7" class="edge">
<title>xgboost&#45;&gt;r&#45;bundle</title>
<path fill="none" stroke="black" d="M533.02,-554.02C613.98,-546.18 765.26,-517.78 765.26,-415 765.26,-415 765.26,-415 765.26,-341 765.26,-301.45 760.96,-255.88 757.74,-227.26"/>
<polygon fill="black" stroke="black" points="761.11,-226.98 756.48,-217.45 754.16,-227.79 761.11,-226.98"/>
</g>
<!-- r&#45;twang -->
<g id="node9" class="node">
<title>r&#45;twang</title>
<g id="a_node9"><a xlink:href="https://github.com/conda-forge/r-twang-feedstock" xlink:title="r twang">
<ellipse fill="#fde725" stroke="black" cx="866.26" cy="-486" rx="50.16" ry="18"/>
<text text-anchor="middle" x="866.26" y="-481.32" font-family="Times,serif" font-size="14.00">r twang</text>
</a>
</g>
</g>
<!-- xgboost&#45;&gt;r&#45;twang -->
<g id="edge8" class="edge">
<title>xgboost&#45;&gt;r&#45;twang</title>
<path fill="none" stroke="black" d="M528.18,-549.18C586.21,-539.03 690.35,-520.64 779.26,-504 790.03,-501.98 801.55,-499.77 812.56,-497.63"/>
<polygon fill="black" stroke="black" points="813.21,-500.87 822.36,-495.52 811.87,-494 813.21,-500.87"/>
</g>
<!-- r&#45;ecospat -->
<g id="node10" class="node">
<title>r&#45;ecospat</title>
<g id="a_node10"><a xlink:href="https://github.com/conda-forge/r-ecospat-feedstock" xlink:title="r ecospat">
<ellipse fill="#fde725" stroke="black" cx="62.26" cy="-342" rx="57.52" ry="18"/>
<text text-anchor="middle" x="62.26" y="-337.32" font-family="Times,serif" font-size="14.00">r ecospat</text>
</a>
</g>
</g>
<!-- r&#45;biomod2&#45;&gt;r&#45;ecospat -->
<g id="edge9" class="edge">
<title>r&#45;biomod2&#45;&gt;r&#45;ecospat</title>
<path fill="none" stroke="black" d="M62.26,-395.7C62.26,-388.24 62.26,-379.32 62.26,-370.97"/>
<polygon fill="black" stroke="black" points="65.76,-371.1 62.26,-361.1 58.76,-371.1 65.76,-371.1"/>
</g>
<!-- r&#45;modeltime.resample -->
<g id="node11" class="node">
<title>r&#45;modeltime.resample</title>
<g id="a_node11"><a xlink:href="https://github.com/conda-forge/r-modeltime.resample-feedstock" xlink:title="r modeltime resample">
<ellipse fill="#fde725" stroke="black" cx="264.26" cy="-414" rx="121.71" ry="18"/>
<text text-anchor="middle" x="264.26" y="-409.32" font-family="Times,serif" font-size="14.00">r modeltime resample</text>
</a>
</g>
</g>
<!-- r&#45;modeltime&#45;&gt;r&#45;modeltime.resample -->
<g id="edge10" class="edge">
<title>r&#45;modeltime&#45;&gt;r&#45;modeltime.resample</title>
<path fill="none" stroke="black" d="M331.4,-468.41C320.36,-459.63 306.6,-448.68 294.41,-438.99"/>
<polygon fill="black" stroke="black" points="296.89,-435.69 286.88,-432.2 292.53,-441.17 296.89,-435.69"/>
</g>
<!-- r&#45;modeltime.ensemble -->
<g id="node12" class="node">
<title>r&#45;modeltime.ensemble</title>
<g id="a_node12"><a xlink:href="https://github.com/conda-forge/r-modeltime.ensemble-feedstock" xlink:title="r modeltime ensemble">
<ellipse fill="#fde725" stroke="black" cx="282.26" cy="-342" rx="123.29" ry="18"/>
<text text-anchor="middle" x="282.26" y="-337.32" font-family="Times,serif" font-size="14.00">r modeltime ensemble</text>
</a>
</g>
</g>
<!-- r&#45;modeltime&#45;&gt;r&#45;modeltime.ensemble -->
<g id="edge11" class="edge">
<title>r&#45;modeltime&#45;&gt;r&#45;modeltime.ensemble</title>
<path fill="none" stroke="black" d="M370.45,-468.32C388.19,-449.96 410.44,-419.9 395.26,-396 385.64,-380.87 370.43,-369.98 354.25,-362.17"/>
<polygon fill="black" stroke="black" points="356.21,-358.77 345.65,-357.92 353.38,-365.17 356.21,-358.77"/>
</g>
<!-- r&#45;tidyconsultant -->
<g id="node13" class="node">
<title>r&#45;tidyconsultant</title>
<g id="a_node13"><a xlink:href="https://github.com/conda-forge/r-tidyconsultant-feedstock" xlink:title="r tidyconsultant">
<ellipse fill="#fde725" stroke="black" cx="580.26" cy="-198" rx="91.19" ry="18"/>
<text text-anchor="middle" x="580.26" y="-193.32" font-family="Times,serif" font-size="14.00">r tidyconsultant</text>
</a>
</g>
</g>
<!-- r&#45;tidybins&#45;&gt;r&#45;tidyconsultant -->
<g id="edge12" class="edge">
<title>r&#45;tidybins&#45;&gt;r&#45;tidyconsultant</title>
<path fill="none" stroke="black" d="M540.09,-252.05C546.24,-243.92 553.76,-234 560.61,-224.94"/>
<polygon fill="black" stroke="black" points="563.93,-227.36 567.18,-217.28 558.35,-223.14 563.93,-227.36"/>
</g>
<!-- r&#45;autostats&#45;&gt;r&#45;tidyconsultant -->
<g id="edge13" class="edge">
<title>r&#45;autostats&#45;&gt;r&#45;tidyconsultant</title>
<path fill="none" stroke="black" d="M650.15,-252.76C638.46,-243.77 623.72,-232.44 610.8,-222.49"/>
<polygon fill="black" stroke="black" points="613.26,-219.2 603.2,-215.88 608.99,-224.75 613.26,-219.2"/>
</g>
<!-- r&#45;bundle&#45;&gt;r&#45;vetiver -->
<g id="edge14" class="edge">
<title>r&#45;bundle&#45;&gt;r&#45;vetiver</title>
<path fill="none" stroke="black" d="M721.12,-183.67C693.48,-172.55 653.88,-156.62 623.71,-144.48"/>
<polygon fill="black" stroke="black" points="625.45,-141.01 614.86,-140.52 622.83,-147.5 625.45,-141.01"/>
</g>
<!-- r&#45;cmprskcoxmsm -->
<g id="node14" class="node">
<title>r&#45;cmprskcoxmsm</title>
<g id="a_node14"><a xlink:href="https://github.com/conda-forge/r-cmprskcoxmsm-feedstock" xlink:title="r cmprskcoxmsm">
<ellipse fill="#fde725" stroke="black" cx="890.26" cy="-414" rx="96.98" ry="18"/>
<text text-anchor="middle" x="890.26" y="-409.32" font-family="Times,serif" font-size="14.00">r cmprskcoxmsm</text>
</a>
</g>
</g>
<!-- r&#45;twang&#45;&gt;r&#45;cmprskcoxmsm -->
<g id="edge15" class="edge">
<title>r&#45;twang&#45;&gt;r&#45;cmprskcoxmsm</title>
<path fill="none" stroke="black" d="M872.19,-467.7C874.8,-460.07 877.94,-450.92 880.86,-442.4"/>
<polygon fill="black" stroke="black" points="884.46,-443.7 884.39,-433.1 877.84,-441.43 884.46,-443.7"/>
</g>
<!-- r&#45;modeltime.resample&#45;&gt;r&#45;modeltime.ensemble -->
<g id="edge23" class="edge">
<title>r&#45;modeltime.resample&#45;&gt;r&#45;modeltime.ensemble</title>
<path fill="none" stroke="black" d="M268.71,-395.7C270.65,-388.15 272.97,-379.12 275.14,-370.68"/>
<polygon fill="black" stroke="black" points="278.76,-371.66 277.86,-361.1 271.98,-369.92 278.76,-371.66"/>
</g>
<!-- r&#45;spotifyr -->
<g id="node15" class="node">
<title>r&#45;spotifyr</title>
<g id="a_node15"><a xlink:href="https://github.com/conda-forge/r-spotifyr-feedstock" xlink:title="r spotifyr">
<ellipse fill="#ff8c00" stroke="black" cx="1084.26" cy="-666" rx="58.05" ry="18"/>
<text text-anchor="middle" x="1084.26" y="-661.33" font-family="Times,serif" font-size="14.00">r spotifyr</text>
</a>
</g>
</g>
<!-- yggdrasil -->
<g id="node16" class="node">
<title>yggdrasil</title>
<g id="a_node16"><a xlink:href="https://github.com/conda-forge/yggdrasil-feedstock" xlink:title="yggdrasil">
<ellipse fill="#ff8c00" stroke="black" cx="1084.26" cy="-594" rx="58.05" ry="18"/>
<text text-anchor="middle" x="1084.26" y="-589.33" font-family="Times,serif" font-size="14.00">yggdrasil</text>
</a>
</g>
</g>
<!-- r&#45;spotifyr&#45;&gt;yggdrasil -->
<!-- r&#45;tesseract -->
<g id="node19" class="node">
<title>r&#45;tesseract</title>
<g id="a_node19"><a xlink:href="https://github.com/conda-forge/r-tesseract-feedstock" xlink:title="r tesseract">
<ellipse fill="#ff8c00" stroke="black" cx="1084.26" cy="-522" rx="65.41" ry="18"/>
<text text-anchor="middle" x="1084.26" y="-517.33" font-family="Times,serif" font-size="14.00">r tesseract</text>
</a>
</g>
</g>
<!-- yggdrasil&#45;&gt;r&#45;tesseract -->
<!-- r&#45;tkrplot -->
<g id="node17" class="node">
<title>r&#45;tkrplot</title>
<g id="a_node17"><a xlink:href="https://github.com/conda-forge/r-tkrplot-feedstock/pull/9" xlink:title="r tkrplot ❎">
<ellipse fill="#31688e" stroke="black" cx="1251.26" cy="-378" rx="68.57" ry="18"/>
<text text-anchor="middle" x="1251.26" y="-373.32" font-family="Times,serif" font-size="14.00" fill="white">r tkrplot ❎</text>
</a>
</g>
</g>
<!-- r&#45;asbio -->
<g id="node18" class="node">
<title>r&#45;asbio</title>
<g id="a_node18"><a xlink:href="https://github.com/conda-forge/r-asbio-feedstock" xlink:title="r asbio">
<ellipse fill="#fde725" stroke="black" cx="1251.26" cy="-306" rx="45.42" ry="18"/>
<text text-anchor="middle" x="1251.26" y="-301.32" font-family="Times,serif" font-size="14.00">r asbio</text>
</a>
</g>
</g>
<!-- r&#45;tkrplot&#45;&gt;r&#45;asbio -->
<g id="edge17" class="edge">
<title>r&#45;tkrplot&#45;&gt;r&#45;asbio</title>
<path fill="none" stroke="black" d="M1251.26,-359.7C1251.26,-352.24 1251.26,-343.32 1251.26,-334.97"/>
<polygon fill="black" stroke="black" points="1254.76,-335.1 1251.26,-325.1 1247.76,-335.1 1254.76,-335.1"/>
</g>
<!-- r&#45;ipaddress -->
<g id="node20" class="node">
<title>r&#45;ipaddress</title>
<g id="a_node20"><a xlink:href="https://github.com/conda-forge/r-ipaddress-feedstock/pull/15" xlink:title="r ipaddress ❎">
<ellipse fill="#31688e" stroke="black" cx="1084.26" cy="-450" rx="83.3" ry="18"/>
<text text-anchor="middle" x="1084.26" y="-445.32" font-family="Times,serif" font-size="14.00" fill="white">r ipaddress ❎</text>
</a>
</g>
</g>
<!-- r&#45;tesseract&#45;&gt;r&#45;ipaddress -->
<!-- r&#45;immunarch -->
<g id="node21" class="node">
<title>r&#45;immunarch</title>
<g id="a_node21"><a xlink:href="https://github.com/conda-forge/r-immunarch-feedstock" xlink:title="r immunarch">
<ellipse fill="#ff8c00" stroke="black" cx="1084.26" cy="-378" rx="75.94" ry="18"/>
<text text-anchor="middle" x="1084.26" y="-373.32" font-family="Times,serif" font-size="14.00">r immunarch</text>
</a>
</g>
</g>
<!-- r&#45;ipaddress&#45;&gt;r&#45;immunarch -->
<!-- rhumba -->
<g id="node22" class="node">
<title>rhumba</title>
<g id="a_node22"><a xlink:href="https://github.com/conda-forge/rhumba-feedstock" xlink:title="rhumba">
<ellipse fill="#ff8c00" stroke="black" cx="1084.26" cy="-306" rx="50.16" ry="18"/>
<text text-anchor="middle" x="1084.26" y="-301.32" font-family="Times,serif" font-size="14.00">rhumba</text>
</a>
</g>
</g>
<!-- r&#45;immunarch&#45;&gt;rhumba -->
<!-- jasp -->
<g id="node23" class="node">
<title>jasp</title>
<g id="a_node23"><a xlink:href="https://github.com/conda-forge/jasp-feedstock/pull/22" xlink:title="jasp ❎">
<ellipse fill="#31688e" stroke="black" cx="1084.26" cy="-234" rx="47" ry="18"/>
<text text-anchor="middle" x="1084.26" y="-229.32" font-family="Times,serif" font-size="14.00" fill="white">jasp ❎</text>
</a>
</g>
</g>
<!-- rhumba&#45;&gt;jasp -->
<!-- rstudio -->
<g id="node24" class="node">
<title>rstudio</title>
<g id="a_node24"><a xlink:href="https://github.com/conda-forge/rstudio-feedstock" xlink:title="rstudio">
<ellipse fill="#ff8c00" stroke="black" cx="1084.26" cy="-162" rx="47" ry="18"/>
<text text-anchor="middle" x="1084.26" y="-157.32" font-family="Times,serif" font-size="14.00">rstudio</text>
</a>
</g>
</g>
<!-- jasp&#45;&gt;rstudio -->
<!-- r&#45;dicer -->
<g id="node25" class="node">
<title>r&#45;dicer</title>
<g id="a_node25"><a xlink:href="https://github.com/conda-forge/r-dicer-feedstock" xlink:title="r dicer">
<ellipse fill="#35b779" stroke="black" cx="1084.26" cy="-90" rx="44.37" ry="18"/>
<text text-anchor="middle" x="1084.26" y="-85.33" font-family="Times,serif" font-size="14.00">r dicer</text>
</a>
</g>
</g>
<!-- rstudio&#45;&gt;r&#45;dicer -->
<!-- r&#45;didimputation -->
<g id="node26" class="node">
<title>r&#45;didimputation</title>
<g id="a_node26"><a xlink:href="https://github.com/conda-forge/r-didimputation-feedstock" xlink:title="r didimputation">
<ellipse fill="#ff8c00" stroke="black" cx="1084.26" cy="-18" rx="89.61" ry="18"/>
<text text-anchor="middle" x="1084.26" y="-13.32" font-family="Times,serif" font-size="14.00">r didimputation</text>
</a>
</g>
</g>
<!-- r&#45;dicer&#45;&gt;r&#45;didimputation -->
</g>
</svg>
