<?xml version="1.0" encoding="UTF-8" standalone="no"?>
<!DOCTYPE svg PUBLIC "-//W3C//DTD SVG 1.1//EN"
 "http://www.w3.org/Graphics/SVG/1.1/DTD/svg11.dtd">
<!-- Generated by graphviz version 8.1.0 (20230707.2238)
 -->
<!-- Pages: 1 -->
<svg width="1295pt" height="592pt"
 viewBox="0.00 0.00 1294.72 592.00" xmlns="http://www.w3.org/2000/svg" xmlns:xlink="http://www.w3.org/1999/xlink">
<g id="graph0" class="graph" transform="scale(1 1) rotate(0) translate(4 588)">
<polygon fill="white" stroke="none" points="-4,4 -4,-588 1290.72,-588 1290.72,4 -4,4"/>
<!-- xgboost -->
<g id="node1" class="node">
<title>xgboost</title>
<g id="a_node1"><a xlink:href="https://github.com/conda-forge/xgboost-feedstock" xlink:title="xgboost">
<ellipse fill="#ff8c00" stroke="black" cx="483.26" cy="-566" rx="50.68" ry="18"/>
<text text-anchor="middle" x="483.26" y="-561.33" font-family="Times,serif" font-size="14.00">xgboost</text>
</a>
</g>
</g>
<!-- r&#45;mikropml -->
<g id="node2" class="node">
<title>r&#45;mikropml</title>
<g id="a_node2"><a xlink:href="https://github.com/conda-forge/r-mikropml-feedstock" xlink:title="r mikropml">
<ellipse fill="#fde725" stroke="black" cx="157.26" cy="-494" rx="66.99" ry="18"/>
<text text-anchor="middle" x="157.26" y="-489.32" font-family="Times,serif" font-size="14.00">r mikropml</text>
</a>
</g>
</g>
<!-- xgboost&#45;&gt;r&#45;mikropml -->
<g id="edge1" class="edge">
<title>xgboost&#45;&gt;r&#45;mikropml</title>
<path fill="none" stroke="black" d="M440.64,-555.85C384.07,-543.7 283.8,-522.17 218.96,-508.25"/>
<polygon fill="black" stroke="black" points="219.99,-504.68 209.47,-506 218.52,-511.52 219.99,-504.68"/>
</g>
<!-- r&#45;biomod2 -->
<g id="node3" class="node">
<title>r&#45;biomod2</title>
<g id="a_node3"><a xlink:href="https://github.com/conda-forge/r-biomod2-feedstock" xlink:title="r biomod2">
<ellipse fill="#fde725" stroke="black" cx="62.26" cy="-422" rx="62.26" ry="18"/>
<text text-anchor="middle" x="62.26" y="-417.32" font-family="Times,serif" font-size="14.00">r biomod2</text>
</a>
</g>
</g>
<!-- xgboost&#45;&gt;r&#45;biomod2 -->
<g id="edge2" class="edge">
<title>xgboost&#45;&gt;r&#45;biomod2</title>
<path fill="none" stroke="black" d="M435.24,-560.09C390.52,-553.92 323.15,-540.46 271.26,-512 250.86,-500.81 253.34,-487.75 233.26,-476 213.53,-464.46 160.05,-448.69 118.1,-437.36"/>
<polygon fill="black" stroke="black" points="119.28,-433.78 108.71,-434.58 117.47,-440.54 119.28,-433.78"/>
</g>
<!-- r&#45;modeltime -->
<g id="node4" class="node">
<title>r&#45;modeltime</title>
<g id="a_node4"><a xlink:href="https://github.com/conda-forge/r-modeltime-feedstock" xlink:title="r modeltime">
<ellipse fill="#fde725" stroke="black" cx="352.26" cy="-494" rx="72.25" ry="18"/>
<text text-anchor="middle" x="352.26" y="-489.32" font-family="Times,serif" font-size="14.00">r modeltime</text>
</a>
</g>
</g>
<!-- xgboost&#45;&gt;r&#45;modeltime -->
<g id="edge3" class="edge">
<title>xgboost&#45;&gt;r&#45;modeltime</title>
<path fill="none" stroke="black" d="M456.11,-550.5C437.35,-540.47 412.11,-526.98 391.2,-515.81"/>
<polygon fill="black" stroke="black" points="393.11,-512.33 382.64,-510.7 389.81,-518.5 393.11,-512.33"/>
</g>
<!-- r&#45;vetiver -->
<g id="node5" class="node">
<title>r&#45;vetiver</title>
<g id="a_node5"><a xlink:href="https://github.com/conda-forge/r-vetiver-feedstock" xlink:title="r vetiver">
<ellipse fill="#fde725" stroke="black" cx="580.26" cy="-134" rx="54.36" ry="18"/>
<text text-anchor="middle" x="580.26" y="-129.32" font-family="Times,serif" font-size="14.00">r vetiver</text>
</a>
</g>
</g>
<!-- xgboost&#45;&gt;r&#45;vetiver -->
<g id="edge4" class="edge">
<title>xgboost&#45;&gt;r&#45;vetiver</title>
<path fill="none" stroke="black" d="M479.07,-547.71C468.38,-501.05 442.01,-368.77 458.26,-260 463.2,-226.91 458.96,-213.81 480.26,-188 493.66,-171.76 513.36,-159.83 531.74,-151.45"/>
<polygon fill="black" stroke="black" points="532.96,-154.31 540.77,-147.15 530.2,-147.87 532.96,-154.31"/>
</g>
<!-- r&#45;tidybins -->
<g id="node6" class="node">
<title>r&#45;tidybins</title>
<g id="a_node6"><a xlink:href="https://github.com/conda-forge/r-tidybins-feedstock" xlink:title="r tidybins">
<ellipse fill="#fde725" stroke="black" cx="527.26" cy="-278" rx="59.63" ry="18"/>
<text text-anchor="middle" x="527.26" y="-273.32" font-family="Times,serif" font-size="14.00">r tidybins</text>
</a>
</g>
</g>
<!-- xgboost&#45;&gt;r&#45;tidybins -->
<g id="edge5" class="edge">
<title>xgboost&#45;&gt;r&#45;tidybins</title>
<path fill="none" stroke="black" d="M485.94,-547.54C493.32,-499.56 513.97,-365.39 522.97,-306.88"/>
<polygon fill="black" stroke="black" points="526.54,-307.65 524.61,-297.23 519.63,-306.58 526.54,-307.65"/>
</g>
<!-- r&#45;autostats -->
<g id="node7" class="node">
<title>r&#45;autostats</title>
<g id="a_node7"><a xlink:href="https://github.com/conda-forge/r-autostats-feedstock" xlink:title="r autostats">
<ellipse fill="#fde725" stroke="black" cx="671.26" cy="-278" rx="65.94" ry="18"/>
<text text-anchor="middle" x="671.26" y="-273.32" font-family="Times,serif" font-size="14.00">r autostats</text>
</a>
</g>
</g>
<!-- xgboost&#45;&gt;r&#45;autostats -->
<g id="edge6" class="edge">
<title>xgboost&#45;&gt;r&#45;autostats</title>
<path fill="none" stroke="black" d="M494.45,-547.97C526.06,-499.88 616.14,-362.85 654.08,-305.13"/>
<polygon fill="black" stroke="black" points="657.55,-307.22 660.12,-296.94 651.7,-303.38 657.55,-307.22"/>
</g>
<!-- r&#45;bundle -->
<g id="node8" class="node">
<title>r&#45;bundle</title>
<g id="a_node8"><a xlink:href="https://github.com/conda-forge/r-bundle-feedstock" xlink:title="r bundle">
<ellipse fill="#fde725" stroke="black" cx="754.26" cy="-206" rx="53.31" ry="18"/>
<text text-anchor="middle" x="754.26" y="-201.33" font-family="Times,serif" font-size="14.00">r bundle</text>
</a>
</g>
</g>
<!-- xgboost&#45;&gt;r&#45;bundle -->
<g id="edge7" class="edge">
<title>xgboost&#45;&gt;r&#45;bundle</title>
<path fill="none" stroke="black" d="M533.02,-562.02C613.98,-554.18 765.26,-525.78 765.26,-423 765.26,-423 765.26,-423 765.26,-349 765.26,-309.45 760.96,-263.88 757.74,-235.26"/>
<polygon fill="black" stroke="black" points="761.11,-234.98 756.48,-225.45 754.16,-235.79 761.11,-234.98"/>
</g>
<!-- r&#45;twang -->
<g id="node9" class="node">
<title>r&#45;twang</title>
<g id="a_node9"><a xlink:href="https://github.com/conda-forge/r-twang-feedstock" xlink:title="r twang">
<ellipse fill="#fde725" stroke="black" cx="866.26" cy="-494" rx="50.16" ry="18"/>
<text text-anchor="middle" x="866.26" y="-489.32" font-family="Times,serif" font-size="14.00">r twang</text>
</a>
</g>
</g>
<!-- xgboost&#45;&gt;r&#45;twang -->
<g id="edge8" class="edge">
<title>xgboost&#45;&gt;r&#45;twang</title>
<path fill="none" stroke="black" d="M528.18,-557.18C586.21,-547.03 690.35,-528.64 779.26,-512 790.03,-509.98 801.55,-507.77 812.56,-505.63"/>
<polygon fill="black" stroke="black" points="813.21,-508.87 822.36,-503.52 811.87,-502 813.21,-508.87"/>
</g>
<!-- r&#45;ecospat -->
<g id="node10" class="node">
<title>r&#45;ecospat</title>
<g id="a_node10"><a xlink:href="https://github.com/conda-forge/r-ecospat-feedstock" xlink:title="r ecospat">
<ellipse fill="#fde725" stroke="black" cx="62.26" cy="-350" rx="57.52" ry="18"/>
<text text-anchor="middle" x="62.26" y="-345.32" font-family="Times,serif" font-size="14.00">r ecospat</text>
</a>
</g>
</g>
<!-- r&#45;biomod2&#45;&gt;r&#45;ecospat -->
<g id="edge9" class="edge">
<title>r&#45;biomod2&#45;&gt;r&#45;ecospat</title>
<path fill="none" stroke="black" d="M62.26,-403.7C62.26,-396.24 62.26,-387.32 62.26,-378.97"/>
<polygon fill="black" stroke="black" points="65.76,-379.1 62.26,-369.1 58.76,-379.1 65.76,-379.1"/>
</g>
<!-- r&#45;modeltime.resample -->
<g id="node11" class="node">
<title>r&#45;modeltime.resample</title>
<g id="a_node11"><a xlink:href="https://github.com/conda-forge/r-modeltime.resample-feedstock" xlink:title="r modeltime resample">
<ellipse fill="#fde725" stroke="black" cx="264.26" cy="-422" rx="121.71" ry="18"/>
<text text-anchor="middle" x="264.26" y="-417.32" font-family="Times,serif" font-size="14.00">r modeltime resample</text>
</a>
</g>
</g>
<!-- r&#45;modeltime&#45;&gt;r&#45;modeltime.resample -->
<g id="edge10" class="edge">
<title>r&#45;modeltime&#45;&gt;r&#45;modeltime.resample</title>
<path fill="none" stroke="black" d="M331.4,-476.41C320.36,-467.63 306.6,-456.68 294.41,-446.99"/>
<polygon fill="black" stroke="black" points="296.89,-443.69 286.88,-440.2 292.53,-449.17 296.89,-443.69"/>
</g>
<!-- r&#45;modeltime.ensemble -->
<g id="node12" class="node">
<title>r&#45;modeltime.ensemble</title>
<g id="a_node12"><a xlink:href="https://github.com/conda-forge/r-modeltime.ensemble-feedstock" xlink:title="r modeltime ensemble">
<ellipse fill="#fde725" stroke="black" cx="282.26" cy="-350" rx="123.29" ry="18"/>
<text text-anchor="middle" x="282.26" y="-345.32" font-family="Times,serif" font-size="14.00">r modeltime ensemble</text>
</a>
</g>
</g>
<!-- r&#45;modeltime&#45;&gt;r&#45;modeltime.ensemble -->
<g id="edge11" class="edge">
<title>r&#45;modeltime&#45;&gt;r&#45;modeltime.ensemble</title>
<path fill="none" stroke="black" d="M370.45,-476.32C388.19,-457.96 410.44,-427.9 395.26,-404 385.64,-388.87 370.43,-377.98 354.25,-370.17"/>
<polygon fill="black" stroke="black" points="356.21,-366.77 345.65,-365.92 353.38,-373.17 356.21,-366.77"/>
</g>
<!-- r&#45;tidyconsultant -->
<g id="node13" class="node">
<title>r&#45;tidyconsultant</title>
<g id="a_node13"><a xlink:href="https://github.com/conda-forge/r-tidyconsultant-feedstock" xlink:title="r tidyconsultant">
<ellipse fill="#fde725" stroke="black" cx="580.26" cy="-206" rx="91.19" ry="18"/>
<text text-anchor="middle" x="580.26" y="-201.33" font-family="Times,serif" font-size="14.00">r tidyconsultant</text>
</a>
</g>
</g>
<!-- r&#45;tidybins&#45;&gt;r&#45;tidyconsultant -->
<g id="edge12" class="edge">
<title>r&#45;tidybins&#45;&gt;r&#45;tidyconsultant</title>
<path fill="none" stroke="black" d="M540.09,-260.05C546.24,-251.92 553.76,-242 560.61,-232.94"/>
<polygon fill="black" stroke="black" points="563.93,-235.36 567.18,-225.28 558.35,-231.14 563.93,-235.36"/>
</g>
<!-- r&#45;autostats&#45;&gt;r&#45;tidyconsultant -->
<g id="edge13" class="edge">
<title>r&#45;autostats&#45;&gt;r&#45;tidyconsultant</title>
<path fill="none" stroke="black" d="M650.15,-260.76C638.46,-251.77 623.72,-240.44 610.8,-230.49"/>
<polygon fill="black" stroke="black" points="613.26,-227.2 603.2,-223.88 608.99,-232.75 613.26,-227.2"/>
</g>
<!-- r&#45;bundle&#45;&gt;r&#45;vetiver -->
<g id="edge14" class="edge">
<title>r&#45;bundle&#45;&gt;r&#45;vetiver</title>
<path fill="none" stroke="black" d="M721.12,-191.67C693.48,-180.55 653.88,-164.62 623.71,-152.48"/>
<polygon fill="black" stroke="black" points="625.45,-149.01 614.86,-148.52 622.83,-155.5 625.45,-149.01"/>
</g>
<!-- r&#45;cmprskcoxmsm -->
<g id="node14" class="node">
<title>r&#45;cmprskcoxmsm</title>
<g id="a_node14"><a xlink:href="https://github.com/conda-forge/r-cmprskcoxmsm-feedstock" xlink:title="r cmprskcoxmsm">
<ellipse fill="#fde725" stroke="black" cx="890.26" cy="-422" rx="96.98" ry="18"/>
<text text-anchor="middle" x="890.26" y="-417.32" font-family="Times,serif" font-size="14.00">r cmprskcoxmsm</text>
</a>
</g>
</g>
<!-- r&#45;twang&#45;&gt;r&#45;cmprskcoxmsm -->
<g id="edge15" class="edge">
<title>r&#45;twang&#45;&gt;r&#45;cmprskcoxmsm</title>
<path fill="none" stroke="black" d="M872.19,-475.7C874.8,-468.07 877.94,-458.92 880.86,-450.4"/>
<polygon fill="black" stroke="black" points="884.46,-451.7 884.39,-441.1 877.84,-449.43 884.46,-451.7"/>
</g>
<!-- r&#45;modeltime.resample&#45;&gt;r&#45;modeltime.ensemble -->
<g id="edge19" class="edge">
<title>r&#45;modeltime.resample&#45;&gt;r&#45;modeltime.ensemble</title>
<path fill="none" stroke="black" d="M268.71,-403.7C270.65,-396.15 272.97,-387.12 275.14,-378.68"/>
<polygon fill="black" stroke="black" points="278.76,-379.66 277.86,-369.1 271.98,-377.92 278.76,-379.66"/>
</g>
<!-- r&#45;tkrplot -->
<g id="node15" class="node">
<title>r&#45;tkrplot</title>
<g id="a_node15"><a xlink:href="https://github.com/conda-forge/r-tkrplot-feedstock/pull/9" xlink:title="r tkrplot ❎">
<ellipse fill="#31688e" stroke="black" cx="493.26" cy="-90" rx="68.57" ry="18"/>
<text text-anchor="middle" x="493.26" y="-85.33" font-family="Times,serif" font-size="14.00" fill="white">r tkrplot ❎</text>
</a>
</g>
</g>
<!-- r&#45;asbio -->
<g id="node16" class="node">
<title>r&#45;asbio</title>
<g id="a_node16"><a xlink:href="https://github.com/conda-forge/r-asbio-feedstock" xlink:title="r asbio">
<ellipse fill="#fde725" stroke="black" cx="493.26" cy="-18" rx="45.42" ry="18"/>
<text text-anchor="middle" x="493.26" y="-13.32" font-family="Times,serif" font-size="14.00">r asbio</text>
</a>
</g>
</g>
<!-- r&#45;tkrplot&#45;&gt;r&#45;asbio -->
<g id="edge16" class="edge">
<title>r&#45;tkrplot&#45;&gt;r&#45;asbio</title>
<path fill="none" stroke="black" d="M493.26,-71.7C493.26,-64.24 493.26,-55.32 493.26,-46.97"/>
<polygon fill="black" stroke="black" points="496.76,-47.1 493.26,-37.1 489.76,-47.1 496.76,-47.1"/>
</g>
<!-- yggdrasil -->
<g id="node17" class="node">
<title>yggdrasil</title>
<g id="a_node17"><a xlink:href="https://github.com/conda-forge/yggdrasil-feedstock" xlink:title="yggdrasil">
<ellipse fill="#ff8c00" stroke="black" cx="1060.26" cy="-494" rx="58.05" ry="18"/>
<text text-anchor="middle" x="1060.26" y="-489.32" font-family="Times,serif" font-size="14.00">yggdrasil</text>
</a>
</g>
</g>
<!-- r&#45;tesseract -->
<g id="node18" class="node">
<title>r&#45;tesseract</title>
<g id="a_node18"><a xlink:href="https://github.com/conda-forge/r-tesseract-feedstock" xlink:title="r tesseract">
<ellipse fill="#ff8c00" stroke="black" cx="1060.26" cy="-422" rx="65.41" ry="18"/>
<text text-anchor="middle" x="1060.26" y="-417.32" font-family="Times,serif" font-size="14.00">r tesseract</text>
</a>
</g>
</g>
<!-- yggdrasil&#45;&gt;r&#45;tesseract -->
<!-- jasp -->
<g id="node19" class="node">
<title>jasp</title>
<g id="a_node19"><a xlink:href="https://github.com/conda-forge/jasp-feedstock/pull/22" xlink:title="jasp ❎">
<ellipse fill="#31688e" stroke="black" cx="1060.26" cy="-350" rx="47" ry="18"/>
<text text-anchor="middle" x="1060.26" y="-345.32" font-family="Times,serif" font-size="14.00" fill="white">jasp ❎</text>
</a>
</g>
</g>
<!-- r&#45;tesseract&#45;&gt;jasp -->
<!-- rstudio -->
<g id="node20" class="node">
<title>rstudio</title>
<g id="a_node20"><a xlink:href="https://github.com/conda-forge/rstudio-feedstock" xlink:title="rstudio">
<ellipse fill="#ff8c00" stroke="black" cx="1060.26" cy="-278" rx="47" ry="18"/>
<text text-anchor="middle" x="1060.26" y="-273.32" font-family="Times,serif" font-size="14.00">rstudio</text>
</a>
</g>
</g>
<!-- jasp&#45;&gt;rstudio -->
<!-- r&#45;wrswor -->
<g id="node21" class="node">
<title>r&#45;wrswor</title>
<g id="a_node21"><a xlink:href="https://github.com/conda-forge/r-wrswor-feedstock/pull/1" xlink:title="r wrswor ✓">
<ellipse fill="#31688e" stroke="black" cx="1060.26" cy="-206" rx="64.36" ry="18"/>
<text text-anchor="middle" x="1060.26" y="-201.32" font-family="Times,serif" font-size="14.00" fill="white">r wrswor ✓</text>
</a>
</g>
</g>
<!-- rstudio&#45;&gt;r&#45;wrswor -->
<!-- r&#45;azuregraph -->
<g id="node22" class="node">
<title>r&#45;azuregraph</title>
<g id="a_node22"><a xlink:href="https://github.com/conda-forge/r-azuregraph-feedstock" xlink:title="r azuregraph">
<ellipse fill="#35b779" stroke="black" cx="1210.26" cy="-422" rx="76.46" ry="18"/>
<text text-anchor="middle" x="1210.26" y="-417.32" font-family="Times,serif" font-size="14.00">r azuregraph</text>
</a>
</g>
</g>
<!-- r&#45;azurermr -->
<g id="node23" class="node">
<title>r&#45;azurermr</title>
<g id="a_node23"><a xlink:href="https://github.com/conda-forge/r-azurermr-feedstock" xlink:title="r azurermr">
<ellipse fill="#fde725" stroke="black" cx="1210.26" cy="-350" rx="65.94" ry="18"/>
<text text-anchor="middle" x="1210.26" y="-345.32" font-family="Times,serif" font-size="14.00">r azurermr</text>
</a>
</g>
</g>
<!-- r&#45;azuregraph&#45;&gt;r&#45;azurermr -->
<g id="edge22" class="edge">
<title>r&#45;azuregraph&#45;&gt;r&#45;azurermr</title>
<path fill="none" stroke="black" d="M1210.26,-403.7C1210.26,-396.24 1210.26,-387.32 1210.26,-378.97"/>
<polygon fill="black" stroke="black" points="1213.76,-379.1 1210.26,-369.1 1206.76,-379.1 1213.76,-379.1"/>
</g>
<!-- r&#45;azurestor -->
<g id="node24" class="node">
<title>r&#45;azurestor</title>
<g id="a_node24"><a xlink:href="https://github.com/conda-forge/r-azurestor-feedstock" xlink:title="r azurestor">
<ellipse fill="#fde725" stroke="black" cx="1210.26" cy="-278" rx="66.99" ry="18"/>
<text text-anchor="middle" x="1210.26" y="-273.32" font-family="Times,serif" font-size="14.00">r azurestor</text>
</a>
</g>
</g>
<!-- r&#45;azurermr&#45;&gt;r&#45;azurestor -->
<g id="edge23" class="edge">
<title>r&#45;azurermr&#45;&gt;r&#45;azurestor</title>
<path fill="none" stroke="black" d="M1210.26,-331.7C1210.26,-324.24 1210.26,-315.32 1210.26,-306.97"/>
<polygon fill="black" stroke="black" points="1213.76,-307.1 1210.26,-297.1 1206.76,-307.1 1213.76,-307.1"/>
</g>
</g>
</svg>
