<?xml version="1.0" encoding="UTF-8" standalone="no"?>
<!DOCTYPE svg PUBLIC "-//W3C//DTD SVG 1.1//EN"
 "http://www.w3.org/Graphics/SVG/1.1/DTD/svg11.dtd">
<!-- Generated by graphviz version 8.1.0 (20230707.2238)
 -->
<!-- Pages: 1 -->
<svg width="683pt" height="348pt"
 viewBox="0.00 0.00 683.34 348.00" xmlns="http://www.w3.org/2000/svg" xmlns:xlink="http://www.w3.org/1999/xlink">
<g id="graph0" class="graph" transform="scale(1 1) rotate(0) translate(4 344)">
<polygon fill="white" stroke="none" points="-4,4 -4,-344 679.34,-344 679.34,4 -4,4"/>
<!-- stir -->
<g id="node1" class="node">
<title>stir</title>
<g id="a_node1"><a xlink:href="https://github.com/conda-forge/stir-feedstock/pull/84" xlink:title="stir ❎">
<ellipse fill="#31688e" stroke="black" cx="326.31" cy="-18" rx="43.84" ry="18"/>
<text text-anchor="middle" x="326.31" y="-13.32" font-family="Times,serif" font-size="14.00" fill="white">stir ❎</text>
</a>
</g>
</g>
<!-- rapidsim -->
<g id="node2" class="node">
<title>rapidsim</title>
<g id="a_node2"><a xlink:href="https://github.com/conda-forge/rapidsim-feedstock/pull/23" xlink:title="rapidsim ❎">
<ellipse fill="#31688e" stroke="black" cx="96.31" cy="-62" rx="70.67" ry="18"/>
<text text-anchor="middle" x="96.31" y="-57.33" font-family="Times,serif" font-size="14.00" fill="white">rapidsim ❎</text>
</a>
</g>
</g>
<!-- lhcb&#45;simpletools -->
<g id="node3" class="node">
<title>lhcb&#45;simpletools</title>
<g id="a_node3"><a xlink:href="https://github.com/conda-forge/lhcb-simpletools-feedstock/pull/27" xlink:title="lhcb simpletools ❎">
<ellipse fill="#31688e" stroke="black" cx="567.31" cy="-214" rx="108.03" ry="18"/>
<text text-anchor="middle" x="567.31" y="-209.32" font-family="Times,serif" font-size="14.00" fill="white">lhcb simpletools ❎</text>
</a>
</g>
</g>
<!-- gwollum -->
<g id="node4" class="node">
<title>gwollum</title>
<g id="a_node4"><a xlink:href="https://github.com/conda-forge/gwollum-feedstock" xlink:title="gwollum">
<ellipse fill="#ff8c00" stroke="black" cx="112.31" cy="-322" rx="53.84" ry="18"/>
<text text-anchor="middle" x="112.31" y="-317.32" font-family="Times,serif" font-size="14.00">gwollum</text>
</a>
</g>
</g>
<!-- omicron -->
<g id="node5" class="node">
<title>omicron</title>
<g id="a_node5"><a xlink:href="https://github.com/conda-forge/omicron-feedstock" xlink:title="omicron">
<ellipse fill="#fde725" stroke="black" cx="112.31" cy="-250" rx="51.73" ry="18"/>
<text text-anchor="middle" x="112.31" y="-245.32" font-family="Times,serif" font-size="14.00">omicron</text>
</a>
</g>
</g>
<!-- gwollum&#45;&gt;omicron -->
<g id="edge1" class="edge">
<title>gwollum&#45;&gt;omicron</title>
<path fill="none" stroke="black" d="M112.31,-303.7C112.31,-296.24 112.31,-287.32 112.31,-278.97"/>
<polygon fill="black" stroke="black" points="115.81,-279.1 112.31,-269.1 108.81,-279.1 115.81,-279.1"/>
</g>
<!-- vetoperf -->
<g id="node10" class="node">
<title>vetoperf</title>
<g id="a_node10"><a xlink:href="https://github.com/conda-forge/vetoperf-feedstock" xlink:title="vetoperf">
<ellipse fill="#fde725" stroke="black" cx="53.31" cy="-178" rx="53.31" ry="18"/>
<text text-anchor="middle" x="53.31" y="-173.32" font-family="Times,serif" font-size="14.00">vetoperf</text>
</a>
</g>
</g>
<!-- gwollum&#45;&gt;vetoperf -->
<g id="edge3" class="edge">
<title>gwollum&#45;&gt;vetoperf</title>
<path fill="none" stroke="black" d="M86.14,-305.88C73.07,-296.76 58.53,-283.83 51.31,-268 42.65,-248.99 43.69,-225.24 46.61,-207.06"/>
<polygon fill="black" stroke="black" points="50.22,-207.76 48.65,-197.29 43.35,-206.46 50.22,-207.76"/>
</g>
<!-- upv -->
<g id="node11" class="node">
<title>upv</title>
<g id="a_node11"><a xlink:href="https://github.com/conda-forge/upv-feedstock" xlink:title="upv">
<ellipse fill="#fde725" stroke="black" cx="134.31" cy="-106" rx="29.64" ry="18"/>
<text text-anchor="middle" x="134.31" y="-101.33" font-family="Times,serif" font-size="14.00">upv</text>
</a>
</g>
</g>
<!-- gwollum&#45;&gt;upv -->
<g id="edge2" class="edge">
<title>gwollum&#45;&gt;upv</title>
<path fill="none" stroke="black" d="M138.49,-305.88C151.56,-296.76 166.1,-283.83 173.31,-268 193.96,-222.7 168.86,-165.06 150.43,-132.47"/>
<polygon fill="black" stroke="black" points="153.07,-131.05 144.99,-124.2 147.03,-134.6 153.07,-131.05"/>
</g>
<!-- omicron&#45;&gt;vetoperf -->
<g id="edge5" class="edge">
<title>omicron&#45;&gt;vetoperf</title>
<path fill="none" stroke="black" d="M98.33,-232.41C91.13,-223.87 82.2,-213.28 74.2,-203.79"/>
<polygon fill="black" stroke="black" points="76.32,-201.86 67.19,-196.47 70.96,-206.37 76.32,-201.86"/>
</g>
<!-- omicron&#45;&gt;upv -->
<g id="edge4" class="edge">
<title>omicron&#45;&gt;upv</title>
<path fill="none" stroke="black" d="M115.01,-231.59C118.76,-207.4 125.58,-163.36 130.03,-134.65"/>
<polygon fill="black" stroke="black" points="133.59,-135.53 131.66,-125.11 126.67,-134.46 133.59,-135.53"/>
</g>
<!-- yoda -->
<g id="node6" class="node">
<title>yoda</title>
<g id="a_node6"><a xlink:href="https://github.com/conda-forge/yoda-feedstock/pull/29" xlink:title="yoda ❎">
<ellipse fill="#31688e" stroke="black" cx="567.31" cy="-62" rx="50.16" ry="18"/>
<text text-anchor="middle" x="567.31" y="-57.33" font-family="Times,serif" font-size="14.00" fill="white">yoda ❎</text>
</a>
</g>
</g>
<!-- gds&#45;root&#45;extensions -->
<g id="node7" class="node">
<title>gds&#45;root&#45;extensions</title>
<g id="a_node7"><a xlink:href="https://github.com/conda-forge/gds-root-extensions-feedstock/pull/24" xlink:title="gds root extensions ❎">
<ellipse fill="#31688e" stroke="black" cx="326.31" cy="-250" rx="124.86" ry="18"/>
<text text-anchor="middle" x="326.31" y="-245.32" font-family="Times,serif" font-size="14.00" fill="white">gds root extensions ❎</text>
</a>
</g>
</g>
<!-- cds&#45;crtools -->
<g id="node9" class="node">
<title>cds&#45;crtools</title>
<g id="a_node9"><a xlink:href="https://github.com/conda-forge/cds-crtools-feedstock" xlink:title="cds crtools">
<ellipse fill="#fde725" stroke="black" cx="326.31" cy="-178" rx="65.41" ry="18"/>
<text text-anchor="middle" x="326.31" y="-173.32" font-family="Times,serif" font-size="14.00">cds crtools</text>
</a>
</g>
</g>
<!-- gds&#45;root&#45;extensions&#45;&gt;cds&#45;crtools -->
<g id="edge6" class="edge">
<title>gds&#45;root&#45;extensions&#45;&gt;cds&#45;crtools</title>
<path fill="none" stroke="black" d="M326.31,-231.7C326.31,-224.24 326.31,-215.32 326.31,-206.97"/>
<polygon fill="black" stroke="black" points="329.81,-207.1 326.31,-197.1 322.81,-207.1 329.81,-207.1"/>
</g>
<!-- gds&#45;gui -->
<g id="node8" class="node">
<title>gds&#45;gui</title>
<g id="a_node8"><a xlink:href="https://github.com/conda-forge/gds-gui-feedstock/pull/18" xlink:title="gds gui ✓">
<ellipse fill="#31688e" stroke="black" cx="326.31" cy="-62" rx="55.94" ry="18"/>
<text text-anchor="middle" x="326.31" y="-57.33" font-family="Times,serif" font-size="14.00" fill="white">gds gui ✓</text>
</a>
</g>
</g>
<!-- vetoperf&#45;&gt;upv -->
<g id="edge7" class="edge">
<title>vetoperf&#45;&gt;upv</title>
<path fill="none" stroke="black" d="M72.1,-160.76C83.23,-151.14 97.47,-138.84 109.52,-128.43"/>
<polygon fill="black" stroke="black" points="111.55,-130.44 116.82,-121.25 106.97,-125.14 111.55,-130.44"/>
</g>
<!-- cwb -->
<g id="node12" class="node">
<title>cwb</title>
<g id="a_node12"><a xlink:href="https://github.com/conda-forge/cwb-feedstock/pull/14" xlink:title="cwb ❎">
<ellipse fill="#31688e" stroke="black" cx="96.31" cy="-18" rx="46.47" ry="18"/>
<text text-anchor="middle" x="96.31" y="-13.32" font-family="Times,serif" font-size="14.00" fill="white">cwb ❎</text>
</a>
</g>
</g>
</g>
</svg>
