<?xml version="1.0" encoding="UTF-8" standalone="no"?>
<!DOCTYPE svg PUBLIC "-//W3C//DTD SVG 1.1//EN"
 "http://www.w3.org/Graphics/SVG/1.1/DTD/svg11.dtd">
<!-- Generated by graphviz version 9.0.0 (20231125.0833)
 -->
<!-- Pages: 1 -->
<svg width="512pt" height="232pt"
 viewBox="0.00 0.00 511.73 232.00" xmlns="http://www.w3.org/2000/svg" xmlns:xlink="http://www.w3.org/1999/xlink">
<g id="graph0" class="graph" transform="scale(1 1) rotate(0) translate(4 228)">
<polygon fill="white" stroke="none" points="-4,4 -4,-228 507.73,-228 507.73,4 -4,4"/>
<!-- stir -->
<g id="node1" class="node">
<title>stir</title>
<g id="a_node1"><a xlink:href="https://github.com/conda-forge/stir-feedstock/pull/110" xlink:title="stir ❎">
<ellipse fill="#31688e" stroke="black" cx="266.31" cy="-18" rx="43.84" ry="18"/>
<text text-anchor="middle" x="266.31" y="-13.32" font-family="Times,serif" font-size="14.00" fill="white">stir ❎</text>
</a>
</g>
</g>
<!-- ostaphep -->
<g id="node2" class="node">
<title>ostaphep</title>
<g id="a_node2"><a xlink:href="https://github.com/conda-forge/ostaphep-feedstock/pull/127" xlink:title="ostaphep ✓">
<ellipse fill="#31688e" stroke="black" cx="80.31" cy="-18" rx="64.89" ry="18"/>
<text text-anchor="middle" x="80.31" y="-13.32" font-family="Times,serif" font-size="14.00" fill="white">ostaphep ✓</text>
</a>
</g>
</g>
<!-- omicron -->
<g id="node3" class="node">
<title>omicron</title>
<g id="a_node3"><a xlink:href="https://github.com/conda-forge/omicron-feedstock/pull/37" xlink:title="omicron ❎">
<ellipse fill="#31688e" stroke="black" cx="93.31" cy="-206" rx="66.99" ry="18"/>
<text text-anchor="middle" x="93.31" y="-201.32" font-family="Times,serif" font-size="14.00" fill="white">omicron ❎</text>
</a>
</g>
</g>
<!-- vetoperf -->
<g id="node6" class="node">
<title>vetoperf</title>
<g id="a_node6"><a xlink:href="https://github.com/conda-forge/vetoperf-feedstock" xlink:title="vetoperf">
<ellipse fill="#fde725" stroke="black" cx="53.31" cy="-134" rx="53.31" ry="18"/>
<text text-anchor="middle" x="53.31" y="-129.32" font-family="Times,serif" font-size="14.00">vetoperf</text>
</a>
</g>
</g>
<!-- omicron&#45;&gt;vetoperf -->
<g id="edge2" class="edge">
<title>omicron&#45;&gt;vetoperf</title>
<path fill="none" stroke="black" d="M83.63,-188.05C79.11,-180.14 73.62,-170.54 68.56,-161.69"/>
<polygon fill="black" stroke="black" points="71.66,-160.05 63.66,-153.1 65.58,-163.52 71.66,-160.05"/>
</g>
<!-- upv -->
<g id="node7" class="node">
<title>upv</title>
<g id="a_node7"><a xlink:href="https://github.com/conda-forge/upv-feedstock" xlink:title="upv">
<ellipse fill="#fde725" stroke="black" cx="93.31" cy="-62" rx="29.64" ry="18"/>
<text text-anchor="middle" x="93.31" y="-57.33" font-family="Times,serif" font-size="14.00">upv</text>
</a>
</g>
</g>
<!-- omicron&#45;&gt;upv -->
<g id="edge1" class="edge">
<title>omicron&#45;&gt;upv</title>
<path fill="none" stroke="black" d="M102.44,-187.88C107.32,-177.76 112.82,-164.51 115.31,-152 118.44,-136.31 118.44,-131.69 115.31,-116 113.57,-107.27 110.37,-98.17 106.93,-90.03"/>
<polygon fill="black" stroke="black" points="110.16,-88.69 102.84,-81.03 103.79,-91.58 110.16,-88.69"/>
</g>
<!-- gds&#45;gui -->
<g id="node4" class="node">
<title>gds&#45;gui</title>
<g id="a_node4"><a xlink:href="https://github.com/conda-forge/gds-gui-feedstock/pull/21" xlink:title="gds gui ❎">
<ellipse fill="#31688e" stroke="black" cx="266.31" cy="-170" rx="63.31" ry="18"/>
<text text-anchor="middle" x="266.31" y="-165.33" font-family="Times,serif" font-size="14.00" fill="white">gds gui ❎</text>
</a>
</g>
</g>
<!-- gds&#45;monitor&#45;apps -->
<g id="node8" class="node">
<title>gds&#45;monitor&#45;apps</title>
<g id="a_node8"><a xlink:href="https://github.com/conda-forge/gds-monitor-apps-feedstock" xlink:title="gds monitor apps">
<ellipse fill="#fde725" stroke="black" cx="266.31" cy="-98" rx="98.56" ry="18"/>
<text text-anchor="middle" x="266.31" y="-93.33" font-family="Times,serif" font-size="14.00">gds monitor apps</text>
</a>
</g>
</g>
<!-- gds&#45;gui&#45;&gt;gds&#45;monitor&#45;apps -->
<g id="edge3" class="edge">
<title>gds&#45;gui&#45;&gt;gds&#45;monitor&#45;apps</title>
<path fill="none" stroke="black" d="M266.31,-151.7C266.31,-144.41 266.31,-135.73 266.31,-127.54"/>
<polygon fill="black" stroke="black" points="269.81,-127.62 266.31,-117.62 262.81,-127.62 269.81,-127.62"/>
</g>
<!-- cds&#45;crtools -->
<g id="node5" class="node">
<title>cds&#45;crtools</title>
<g id="a_node5"><a xlink:href="https://github.com/conda-forge/cds-crtools-feedstock" xlink:title="cds crtools">
<ellipse fill="#000000" stroke="black" cx="438.31" cy="-134" rx="65.41" ry="18"/>
<text text-anchor="middle" x="438.31" y="-129.32" font-family="Times,serif" font-size="14.00" fill="white">cds crtools</text>
</a>
</g>
</g>
<!-- vetoperf&#45;&gt;upv -->
<g id="edge4" class="edge">
<title>vetoperf&#45;&gt;upv</title>
<path fill="none" stroke="black" d="M63,-116.05C67.58,-108.03 73.17,-98.26 78.29,-89.3"/>
<polygon fill="black" stroke="black" points="81.32,-91.04 83.24,-80.62 75.24,-87.57 81.32,-91.04"/>
</g>
</g>
</svg>
