<?xml version="1.0" encoding="UTF-8" standalone="no"?>
<!DOCTYPE svg PUBLIC "-//W3C//DTD SVG 1.1//EN"
 "http://www.w3.org/Graphics/SVG/1.1/DTD/svg11.dtd">
<!-- Generated by graphviz version 8.0.5 (20230506.1012)
 -->
<!-- Pages: 1 -->
<svg width="575pt" height="304pt"
 viewBox="0.00 0.00 574.99 304.00" xmlns="http://www.w3.org/2000/svg" xmlns:xlink="http://www.w3.org/1999/xlink">
<g id="graph0" class="graph" transform="scale(1 1) rotate(0) translate(4 300)">
<polygon fill="white" stroke="none" points="-4,4 -4,-300 570.99,-300 570.99,4 -4,4"/>
<!-- rapidsim -->
<g id="node1" class="node">
<title>rapidsim</title>
<g id="a_node1"><a xlink:href="https://github.com/conda-forge/rapidsim-feedstock/pull/22" xlink:title="rapidsim ❎">
<ellipse fill="#31688e" stroke="black" cx="496.31" cy="-170" rx="70.67" ry="18"/>
<text text-anchor="middle" x="496.31" y="-165.32" font-family="Times,serif" font-size="14.00" fill="white">rapidsim ❎</text>
</a>
</g>
</g>
<!-- lhcb&#45;simpletools -->
<g id="node2" class="node">
<title>lhcb&#45;simpletools</title>
<g id="a_node2"><a xlink:href="https://github.com/conda-forge/lhcb-simpletools-feedstock/pull/26" xlink:title="lhcb simpletools ❎">
<ellipse fill="#31688e" stroke="black" cx="309.31" cy="-170" rx="108.03" ry="18"/>
<text text-anchor="middle" x="309.31" y="-165.32" font-family="Times,serif" font-size="14.00" fill="white">lhcb simpletools ❎</text>
</a>
</g>
</g>
<!-- gwollum -->
<g id="node3" class="node">
<title>gwollum</title>
<g id="a_node3"><a xlink:href="https://github.com/conda-forge/gwollum-feedstock/pull/43" xlink:title="gwollum ❎">
<ellipse fill="#31688e" stroke="black" cx="112.31" cy="-278" rx="69.1" ry="18"/>
<text text-anchor="middle" x="112.31" y="-273.32" font-family="Times,serif" font-size="14.00" fill="white">gwollum ❎</text>
</a>
</g>
</g>
<!-- omicron -->
<g id="node4" class="node">
<title>omicron</title>
<g id="a_node4"><a xlink:href="https://github.com/conda-forge/omicron-feedstock" xlink:title="omicron">
<ellipse fill="#fde725" stroke="black" cx="112.31" cy="-206" rx="51.73" ry="18"/>
<text text-anchor="middle" x="112.31" y="-201.32" font-family="Times,serif" font-size="14.00">omicron</text>
</a>
</g>
</g>
<!-- gwollum&#45;&gt;omicron -->
<g id="edge1" class="edge">
<title>gwollum&#45;&gt;omicron</title>
<path fill="none" stroke="black" d="M112.31,-259.7C112.31,-252.24 112.31,-243.32 112.31,-234.97"/>
<polygon fill="black" stroke="black" points="115.81,-235.1 112.31,-225.1 108.81,-235.1 115.81,-235.1"/>
</g>
<!-- vetoperf -->
<g id="node7" class="node">
<title>vetoperf</title>
<g id="a_node7"><a xlink:href="https://github.com/conda-forge/vetoperf-feedstock" xlink:title="vetoperf">
<ellipse fill="#fde725" stroke="black" cx="53.31" cy="-134" rx="53.31" ry="18"/>
<text text-anchor="middle" x="53.31" y="-129.32" font-family="Times,serif" font-size="14.00">vetoperf</text>
</a>
</g>
</g>
<!-- gwollum&#45;&gt;vetoperf -->
<g id="edge3" class="edge">
<title>gwollum&#45;&gt;vetoperf</title>
<path fill="none" stroke="black" d="M85.19,-261.21C72.37,-252.13 58.35,-239.45 51.31,-224 42.65,-204.99 43.69,-181.24 46.61,-163.06"/>
<polygon fill="black" stroke="black" points="50.22,-163.76 48.65,-153.29 43.35,-162.46 50.22,-163.76"/>
</g>
<!-- upv -->
<g id="node8" class="node">
<title>upv</title>
<g id="a_node8"><a xlink:href="https://github.com/conda-forge/upv-feedstock" xlink:title="upv">
<ellipse fill="#fde725" stroke="black" cx="134.31" cy="-62" rx="29.64" ry="18"/>
<text text-anchor="middle" x="134.31" y="-57.33" font-family="Times,serif" font-size="14.00">upv</text>
</a>
</g>
</g>
<!-- gwollum&#45;&gt;upv -->
<g id="edge2" class="edge">
<title>gwollum&#45;&gt;upv</title>
<path fill="none" stroke="black" d="M139.44,-261.21C152.26,-252.13 166.27,-239.45 173.31,-224 193.96,-178.7 168.86,-121.06 150.43,-88.47"/>
<polygon fill="black" stroke="black" points="153.07,-87.05 144.99,-80.2 147.03,-90.6 153.07,-87.05"/>
</g>
<!-- omicron&#45;&gt;vetoperf -->
<g id="edge5" class="edge">
<title>omicron&#45;&gt;vetoperf</title>
<path fill="none" stroke="black" d="M98.33,-188.41C91.13,-179.87 82.2,-169.28 74.2,-159.79"/>
<polygon fill="black" stroke="black" points="76.32,-157.86 67.19,-152.47 70.96,-162.37 76.32,-157.86"/>
</g>
<!-- omicron&#45;&gt;upv -->
<g id="edge4" class="edge">
<title>omicron&#45;&gt;upv</title>
<path fill="none" stroke="black" d="M115.01,-187.59C118.76,-163.4 125.58,-119.36 130.03,-90.65"/>
<polygon fill="black" stroke="black" points="133.59,-91.53 131.66,-81.11 126.67,-90.46 133.59,-91.53"/>
</g>
<!-- hammer -->
<g id="node5" class="node">
<title>hammer</title>
<g id="a_node5"><a xlink:href="https://github.com/conda-forge/hammer-feedstock/pull/32" xlink:title="hammer ❎">
<ellipse fill="#31688e" stroke="black" cx="96.31" cy="-18" rx="68.04" ry="18"/>
<text text-anchor="middle" x="96.31" y="-13.32" font-family="Times,serif" font-size="14.00" fill="white">hammer ❎</text>
</a>
</g>
</g>
<!-- yoda -->
<g id="node6" class="node">
<title>yoda</title>
<g id="a_node6"><a xlink:href="https://github.com/conda-forge/yoda-feedstock/pull/26" xlink:title="yoda ❎">
<ellipse fill="#31688e" stroke="black" cx="309.31" cy="-18" rx="50.16" ry="18"/>
<text text-anchor="middle" x="309.31" y="-13.32" font-family="Times,serif" font-size="14.00" fill="white">yoda ❎</text>
</a>
</g>
</g>
<!-- vetoperf&#45;&gt;upv -->
<g id="edge6" class="edge">
<title>vetoperf&#45;&gt;upv</title>
<path fill="none" stroke="black" d="M72.1,-116.76C83.23,-107.14 97.47,-94.84 109.52,-84.43"/>
<polygon fill="black" stroke="black" points="111.55,-86.44 116.82,-77.25 106.97,-81.14 111.55,-86.44"/>
</g>
</g>
</svg>
