<?xml version="1.0" encoding="UTF-8" standalone="no"?>
<!DOCTYPE svg PUBLIC "-//W3C//DTD SVG 1.1//EN"
 "http://www.w3.org/Graphics/SVG/1.1/DTD/svg11.dtd">
<!-- Generated by graphviz version 7.1.0 (20230122.1345)
 -->
<!-- Pages: 1 -->
<svg width="541pt" height="304pt"
 viewBox="0.00 0.00 540.69 304.00" xmlns="http://www.w3.org/2000/svg" xmlns:xlink="http://www.w3.org/1999/xlink">
<g id="graph0" class="graph" transform="scale(1 1) rotate(0) translate(4 300)">
<polygon fill="white" stroke="none" points="-4,4 -4,-300 536.69,-300 536.69,4 -4,4"/>
<!-- rapidsim -->
<g id="node1" class="node">
<title>rapidsim</title>
<g id="a_node1"><a xlink:href="https://github.com/conda-forge/rapidsim-feedstock/pull/22" xlink:title="rapidsim ❎">
<ellipse fill="#31688e" stroke="black" cx="467.05" cy="-170" rx="65.79" ry="18"/>
<text text-anchor="middle" x="467.05" y="-166.3" font-family="Times,serif" font-size="14.00" fill="white">rapidsim ❎</text>
</a>
</g>
</g>
<!-- lhcb&#45;simpletools -->
<g id="node2" class="node">
<title>lhcb&#45;simpletools</title>
<g id="a_node2"><a xlink:href="https://github.com/conda-forge/lhcb-simpletools-feedstock/pull/26" xlink:title="lhcb simpletools ❎">
<ellipse fill="#31688e" stroke="black" cx="293.05" cy="-170" rx="100.98" ry="18"/>
<text text-anchor="middle" x="293.05" y="-166.3" font-family="Times,serif" font-size="14.00" fill="white">lhcb simpletools ❎</text>
</a>
</g>
</g>
<!-- gwollum -->
<g id="node3" class="node">
<title>gwollum</title>
<g id="a_node3"><a xlink:href="https://github.com/conda-forge/gwollum-feedstock/pull/43" xlink:title="gwollum ❎">
<ellipse fill="#31688e" stroke="black" cx="108.05" cy="-278" rx="64.19" ry="18"/>
<text text-anchor="middle" x="108.05" y="-274.3" font-family="Times,serif" font-size="14.00" fill="white">gwollum ❎</text>
</a>
</g>
</g>
<!-- omicron -->
<g id="node4" class="node">
<title>omicron</title>
<g id="a_node4"><a xlink:href="https://github.com/conda-forge/omicron-feedstock" xlink:title="omicron">
<ellipse fill="#fde725" stroke="black" cx="108.05" cy="-206" rx="48.19" ry="18"/>
<text text-anchor="middle" x="108.05" y="-202.3" font-family="Times,serif" font-size="14.00">omicron</text>
</a>
</g>
</g>
<!-- gwollum&#45;&gt;omicron -->
<g id="edge1" class="edge">
<title>gwollum&#45;&gt;omicron</title>
<path fill="none" stroke="black" d="M108.05,-259.7C108.05,-252.41 108.05,-243.73 108.05,-235.54"/>
<polygon fill="black" stroke="black" points="111.55,-235.62 108.05,-225.62 104.55,-235.62 111.55,-235.62"/>
</g>
<!-- vetoperf -->
<g id="node7" class="node">
<title>vetoperf</title>
<g id="a_node7"><a xlink:href="https://github.com/conda-forge/vetoperf-feedstock" xlink:title="vetoperf">
<ellipse fill="#fde725" stroke="black" cx="50.05" cy="-134" rx="50.09" ry="18"/>
<text text-anchor="middle" x="50.05" y="-130.3" font-family="Times,serif" font-size="14.00">vetoperf</text>
</a>
</g>
</g>
<!-- gwollum&#45;&gt;vetoperf -->
<g id="edge3" class="edge">
<title>gwollum&#45;&gt;vetoperf</title>
<path fill="none" stroke="black" d="M83.02,-261.03C70.97,-251.82 57.71,-239.08 51.05,-224 42.68,-205.08 42.79,-181.61 44.8,-163.52"/>
<polygon fill="black" stroke="black" points="48.25,-164.13 46.16,-153.74 41.31,-163.16 48.25,-164.13"/>
</g>
<!-- upv -->
<g id="node8" class="node">
<title>upv</title>
<g id="a_node8"><a xlink:href="https://github.com/conda-forge/upv-feedstock" xlink:title="upv">
<ellipse fill="#fde725" stroke="black" cx="128.05" cy="-62" rx="27.9" ry="18"/>
<text text-anchor="middle" x="128.05" y="-58.3" font-family="Times,serif" font-size="14.00">upv</text>
</a>
</g>
</g>
<!-- gwollum&#45;&gt;upv -->
<g id="edge2" class="edge">
<title>gwollum&#45;&gt;upv</title>
<path fill="none" stroke="black" d="M133.14,-261.06C145.21,-251.86 158.46,-239.11 165.05,-224 184.79,-178.68 161.18,-121.41 143.64,-88.82"/>
<polygon fill="black" stroke="black" points="146.9,-87.49 138.96,-80.48 140.8,-90.91 146.9,-87.49"/>
</g>
<!-- omicron&#45;&gt;vetoperf -->
<g id="edge5" class="edge">
<title>omicron&#45;&gt;vetoperf</title>
<path fill="none" stroke="black" d="M94.3,-188.41C87.29,-179.95 78.63,-169.49 70.82,-160.08"/>
<polygon fill="black" stroke="black" points="73.73,-158.1 64.66,-152.64 68.34,-162.57 73.73,-158.1"/>
</g>
<!-- omicron&#45;&gt;upv -->
<g id="edge4" class="edge">
<title>omicron&#45;&gt;upv</title>
<path fill="none" stroke="black" d="M110.5,-187.59C113.87,-163.61 120,-120.14 124.04,-91.42"/>
<polygon fill="black" stroke="black" points="127.5,-92 125.42,-81.61 120.56,-91.02 127.5,-92"/>
</g>
<!-- hammer -->
<g id="node5" class="node">
<title>hammer</title>
<g id="a_node5"><a xlink:href="https://github.com/conda-forge/hammer-feedstock/pull/32" xlink:title="hammer ❎">
<ellipse fill="#31688e" stroke="black" cx="92.05" cy="-18" rx="63.89" ry="18"/>
<text text-anchor="middle" x="92.05" y="-14.3" font-family="Times,serif" font-size="14.00" fill="white">hammer ❎</text>
</a>
</g>
</g>
<!-- yoda -->
<g id="node6" class="node">
<title>yoda</title>
<g id="a_node6"><a xlink:href="https://github.com/conda-forge/yoda-feedstock/pull/26" xlink:title="yoda ❎">
<ellipse fill="#31688e" stroke="black" cx="293.05" cy="-18" rx="46.59" ry="18"/>
<text text-anchor="middle" x="293.05" y="-14.3" font-family="Times,serif" font-size="14.00" fill="white">yoda ❎</text>
</a>
</g>
</g>
<!-- vetoperf&#45;&gt;upv -->
<g id="edge6" class="edge">
<title>vetoperf&#45;&gt;upv</title>
<path fill="none" stroke="black" d="M68.14,-116.76C78.75,-107.24 92.3,-95.08 103.83,-84.73"/>
<polygon fill="black" stroke="black" points="105.94,-87.54 111.04,-78.26 101.26,-82.34 105.94,-87.54"/>
</g>
</g>
</svg>
