<?xml version="1.0" encoding="UTF-8" standalone="no"?>
<!DOCTYPE svg PUBLIC "-//W3C//DTD SVG 1.1//EN"
 "http://www.w3.org/Graphics/SVG/1.1/DTD/svg11.dtd">
<!-- Generated by graphviz version 8.0.5 (20230506.1012)
 -->
<!-- Pages: 1 -->
<svg width="252pt" height="260pt"
 viewBox="0.00 0.00 251.67 260.00" xmlns="http://www.w3.org/2000/svg" xmlns:xlink="http://www.w3.org/1999/xlink">
<g id="graph0" class="graph" transform="scale(1 1) rotate(0) translate(4 256)">
<polygon fill="white" stroke="none" points="-4,4 -4,-256 247.67,-256 247.67,4 -4,4"/>
<!-- fenics -->
<g id="node1" class="node">
<title>fenics</title>
<g id="a_node1"><a xlink:href="https://github.com/conda-forge/fenics-feedstock" xlink:title="fenics">
<ellipse fill="#fde725" stroke="black" cx="43.51" cy="-90" rx="40.69" ry="18"/>
<text text-anchor="middle" x="43.51" y="-85.33" font-family="Times,serif" font-size="14.00">fenics</text>
</a>
</g>
</g>
<!-- fenics&#45;dolfinx -->
<g id="node5" class="node">
<title>fenics&#45;dolfinx</title>
<g id="a_node5"><a xlink:href="https://github.com/conda-forge/fenics-dolfinx-feedstock" xlink:title="fenics dolfinx">
<ellipse fill="#fde725" stroke="black" cx="77.51" cy="-18" rx="77.51" ry="18"/>
<text text-anchor="middle" x="77.51" y="-13.32" font-family="Times,serif" font-size="14.00">fenics dolfinx</text>
</a>
</g>
</g>
<!-- fenics&#45;&gt;fenics&#45;dolfinx -->
<g id="edge1" class="edge">
<title>fenics&#45;&gt;fenics&#45;dolfinx</title>
<path fill="none" stroke="black" d="M51.74,-72.05C55.53,-64.26 60.11,-54.82 64.36,-46.08"/>
<polygon fill="black" stroke="black" points="67.9,-47.8 69.12,-37.28 61.61,-44.74 67.9,-47.8"/>
</g>
<!-- mumps -->
<g id="node2" class="node">
<title>mumps</title>
<g id="a_node2"><a xlink:href="https://github.com/conda-forge/mumps-feedstock/pull/84" xlink:title="mumps ❎">
<ellipse fill="#31688e" stroke="black" cx="77.51" cy="-234" rx="63.31" ry="18"/>
<text text-anchor="middle" x="77.51" y="-229.32" font-family="Times,serif" font-size="14.00" fill="white">mumps ❎</text>
</a>
</g>
</g>
<!-- petsc -->
<g id="node3" class="node">
<title>petsc</title>
<g id="a_node3"><a xlink:href="https://github.com/conda-forge/petsc-feedstock" xlink:title="petsc">
<ellipse fill="#fde725" stroke="black" cx="77.51" cy="-162" rx="38.06" ry="18"/>
<text text-anchor="middle" x="77.51" y="-157.32" font-family="Times,serif" font-size="14.00">petsc</text>
</a>
</g>
</g>
<!-- mumps&#45;&gt;petsc -->
<g id="edge2" class="edge">
<title>mumps&#45;&gt;petsc</title>
<path fill="none" stroke="black" d="M77.51,-215.7C77.51,-208.24 77.51,-199.32 77.51,-190.97"/>
<polygon fill="black" stroke="black" points="81.01,-191.1 77.51,-181.1 74.01,-191.1 81.01,-191.1"/>
</g>
<!-- petsc&#45;&gt;fenics -->
<g id="edge3" class="edge">
<title>petsc&#45;&gt;fenics</title>
<path fill="none" stroke="black" d="M69.28,-144.05C65.4,-136.06 60.67,-126.33 56.34,-117.4"/>
<polygon fill="black" stroke="black" points="59.19,-116.25 51.67,-108.79 52.89,-119.31 59.19,-116.25"/>
</g>
<!-- petsc&#45;&gt;fenics&#45;dolfinx -->
<g id="edge4" class="edge">
<title>petsc&#45;&gt;fenics&#45;dolfinx</title>
<path fill="none" stroke="black" d="M84,-144.1C87.59,-133.84 91.69,-120.36 93.51,-108 95.85,-92.17 95.85,-87.83 93.51,-72 92.28,-63.63 90,-54.76 87.55,-46.71"/>
<polygon fill="black" stroke="black" points="90.6,-45.79 84.17,-37.37 83.95,-47.96 90.6,-45.79"/>
</g>
<!-- neper -->
<g id="node4" class="node">
<title>neper</title>
<g id="a_node4"><a xlink:href="https://github.com/conda-forge/neper-feedstock" xlink:title="neper">
<ellipse fill="#ff8c00" stroke="black" cx="203.51" cy="-126" rx="40.16" ry="18"/>
<text text-anchor="middle" x="203.51" y="-121.33" font-family="Times,serif" font-size="14.00">neper</text>
</a>
</g>
</g>
</g>
</svg>
