<?xml version="1.0" encoding="UTF-8" standalone="no"?>
<!DOCTYPE svg PUBLIC "-//W3C//DTD SVG 1.1//EN"
 "http://www.w3.org/Graphics/SVG/1.1/DTD/svg11.dtd">
<!-- Generated by graphviz version 2.42.3 (20191010.1750)
 -->
<!-- Title: %3 Pages: 1 -->
<svg width="289pt" height="188pt"
 viewBox="0.00 0.00 289.14 188.00" xmlns="http://www.w3.org/2000/svg" xmlns:xlink="http://www.w3.org/1999/xlink">
<g id="graph0" class="graph" transform="scale(1 1) rotate(0) translate(4 184)">
<title>%3</title>
<polygon fill="white" stroke="transparent" points="-4,4 -4,-184 285.14,-184 285.14,4 -4,4"/>
<!-- fenics -->
<g id="node1" class="node">
<title>fenics</title>
<g id="a_node1"><a xlink:href="https://github.com/conda-forge/fenics-feedstock" xlink:title="fenics">
<ellipse fill="#fde725" stroke="black" cx="177.79" cy="-90" rx="40.09" ry="18"/>
<text text-anchor="middle" x="177.79" y="-86.3" font-family="Times,serif" font-size="14.00">fenics</text>
</a>
</g>
</g>
<!-- conda&#45;forge&#45;pinning -->
<g id="node4" class="node">
<title>conda&#45;forge&#45;pinning</title>
<ellipse fill="none" stroke="black" cx="177.79" cy="-18" rx="103.18" ry="18"/>
<text text-anchor="middle" x="177.79" y="-14.3" font-family="Times,serif" font-size="14.00">conda&#45;forge&#45;pinning</text>
</g>
<!-- fenics&#45;&gt;conda&#45;forge&#45;pinning -->
<g id="edge1" class="edge">
<title>fenics&#45;&gt;conda&#45;forge&#45;pinning</title>
<path fill="none" stroke="black" d="M177.79,-71.7C177.79,-63.98 177.79,-54.71 177.79,-46.11"/>
<polygon fill="black" stroke="black" points="181.29,-46.1 177.79,-36.1 174.29,-46.1 181.29,-46.1"/>
</g>
<!-- libadjoint -->
<g id="node2" class="node">
<title>libadjoint</title>
<g id="a_node2"><a xlink:href="https://github.com/conda-forge/libadjoint-feedstock/pull/17" xlink:title="libadjoint">
<ellipse fill="#31688e" stroke="black" cx="59.79" cy="-90" rx="59.59" ry="18"/>
<text text-anchor="middle" x="59.79" y="-86.3" font-family="Times,serif" font-size="14.00" fill="white">libadjoint</text>
</a>
</g>
</g>
<!-- libadjoint&#45;&gt;conda&#45;forge&#45;pinning -->
<g id="edge2" class="edge">
<title>libadjoint&#45;&gt;conda&#45;forge&#45;pinning</title>
<path fill="none" stroke="black" d="M85.69,-73.64C101.87,-64.04 122.95,-51.53 140.86,-40.91"/>
<polygon fill="black" stroke="black" points="143.09,-43.66 149.9,-35.55 139.51,-37.64 143.09,-43.66"/>
</g>
<!-- slepc4py -->
<g id="node3" class="node">
<title>slepc4py</title>
<g id="a_node3"><a xlink:href="https://github.com/conda-forge/slepc4py-feedstock/pull/17" xlink:title="slepc4py">
<ellipse fill="#31688e" stroke="black" cx="211.79" cy="-162" rx="50.09" ry="18"/>
<text text-anchor="middle" x="211.79" y="-158.3" font-family="Times,serif" font-size="14.00" fill="white">slepc4py</text>
</a>
</g>
</g>
<!-- slepc4py&#45;&gt;fenics -->
<g id="edge3" class="edge">
<title>slepc4py&#45;&gt;fenics</title>
<path fill="none" stroke="black" d="M203.56,-144.05C199.6,-135.89 194.75,-125.91 190.34,-116.82"/>
<polygon fill="black" stroke="black" points="193.47,-115.25 185.95,-107.79 187.17,-118.31 193.47,-115.25"/>
</g>
<!-- slepc4py&#45;&gt;conda&#45;forge&#45;pinning -->
<g id="edge4" class="edge">
<title>slepc4py&#45;&gt;conda&#45;forge&#45;pinning</title>
<path fill="none" stroke="black" d="M219.84,-144.05C227.37,-125.73 236.16,-95.93 226.79,-72 222.53,-61.1 214.85,-51.1 206.82,-42.79"/>
<polygon fill="black" stroke="black" points="209.06,-40.09 199.44,-35.66 204.2,-45.12 209.06,-40.09"/>
</g>
</g>
</svg>
