<?xml version="1.0" encoding="UTF-8" standalone="no"?>
<!DOCTYPE svg PUBLIC "-//W3C//DTD SVG 1.1//EN"
 "http://www.w3.org/Graphics/SVG/1.1/DTD/svg11.dtd">
<!-- Generated by graphviz version 2.42.3 (20191010.1750)
 -->
<!-- Title: %3 Pages: 1 -->
<svg width="526pt" height="116pt"
 viewBox="0.00 0.00 525.84 116.00" xmlns="http://www.w3.org/2000/svg" xmlns:xlink="http://www.w3.org/1999/xlink">
<g id="graph0" class="graph" transform="scale(1 1) rotate(0) translate(4 112)">
<title>%3</title>
<polygon fill="white" stroke="transparent" points="-4,4 -4,-112 521.84,-112 521.84,4 -4,4"/>
<!-- fenics -->
<g id="node1" class="node">
<title>fenics</title>
<ellipse fill="#fde725" stroke="black" cx="40.3" cy="-18" rx="40.09" ry="18"/>
<text text-anchor="middle" x="40.3" y="-14.3" font-family="Times,serif" font-size="14.00">fenics</text>
</g>
<!-- julia -->
<g id="node2" class="node">
<title>julia</title>
<ellipse fill="#31688e" stroke="black" cx="128.3" cy="-90" rx="35.19" ry="18"/>
<text text-anchor="middle" x="128.3" y="-86.3" font-family="Times,serif" font-size="14.00" fill="white">julia</text>
</g>
<!-- octave -->
<g id="node3" class="node">
<title>octave</title>
<ellipse fill="#31688e" stroke="black" cx="221.3" cy="-90" rx="40.09" ry="18"/>
<text text-anchor="middle" x="221.3" y="-86.3" font-family="Times,serif" font-size="14.00" fill="white">octave</text>
</g>
<!-- slepc -->
<g id="node4" class="node">
<title>slepc</title>
<ellipse fill="#31688e" stroke="black" cx="40.3" cy="-90" rx="35.19" ry="18"/>
<text text-anchor="middle" x="40.3" y="-86.3" font-family="Times,serif" font-size="14.00" fill="white">slepc</text>
</g>
<!-- slepc&#45;&gt;fenics -->
<g id="edge1" class="edge">
<title>slepc&#45;&gt;fenics</title>
<path fill="none" stroke="black" d="M40.3,-71.7C40.3,-63.98 40.3,-54.71 40.3,-46.11"/>
<polygon fill="black" stroke="black" points="43.8,-46.1 40.3,-36.1 36.8,-46.1 43.8,-46.1"/>
</g>
<!-- scilab -->
<g id="node5" class="node">
<title>scilab</title>
<ellipse fill="#31688e" stroke="black" cx="320.3" cy="-90" rx="40.09" ry="18"/>
<text text-anchor="middle" x="320.3" y="-86.3" font-family="Times,serif" font-size="14.00" fill="white">scilab</text>
</g>
<!-- esys&#45;escript -->
<g id="node6" class="node">
<title>esys&#45;escript</title>
<ellipse fill="#31688e" stroke="black" cx="448.3" cy="-90" rx="69.59" ry="18"/>
<text text-anchor="middle" x="448.3" y="-86.3" font-family="Times,serif" font-size="14.00" fill="white">esys escript</text>
</g>
</g>
</svg>
