<?xml version="1.0" encoding="UTF-8" standalone="no"?>
<!DOCTYPE svg PUBLIC "-//W3C//DTD SVG 1.1//EN"
 "http://www.w3.org/Graphics/SVG/1.1/DTD/svg11.dtd">
<!-- Generated by graphviz version 9.0.0 (20231125.0833)
 -->
<!-- Pages: 1 -->
<svg width="1000pt" height="260pt"
 viewBox="0.00 0.00 1000.18 260.00" xmlns="http://www.w3.org/2000/svg" xmlns:xlink="http://www.w3.org/1999/xlink">
<g id="graph0" class="graph" transform="scale(1 1) rotate(0) translate(4 256)">
<polygon fill="white" stroke="none" points="-4,4 -4,-256 996.18,-256 996.18,4 -4,4"/>
<!-- casadi -->
<g id="node1" class="node">
<title>casadi</title>
<g id="a_node1"><a xlink:href="https://github.com/conda-forge/casadi-feedstock/pull/98" xlink:title="casadi ✓">
<ellipse fill="#31688e" stroke="black" cx="694.52" cy="-234" rx="50.68" ry="18"/>
<text text-anchor="middle" x="694.52" y="-229.32" font-family="Times,serif" font-size="14.00" fill="white">casadi ✓</text>
</a>
</g>
</g>
<!-- libmediainfo -->
<g id="node2" class="node">
<title>libmediainfo</title>
<g id="a_node2"><a xlink:href="https://github.com/conda-forge/libmediainfo-feedstock/pull/23" xlink:title="libmediainfo ❎">
<ellipse fill="#31688e" stroke="black" cx="694.52" cy="-162" rx="88.56" ry="18"/>
<text text-anchor="middle" x="694.52" y="-157.32" font-family="Times,serif" font-size="14.00" fill="white">libmediainfo ❎</text>
</a>
</g>
</g>
<!-- casadi&#45;&gt;libmediainfo -->
<!-- fast&#45;dds -->
<g id="node9" class="node">
<title>fast&#45;dds</title>
<g id="a_node9"><a xlink:href="https://github.com/conda-forge/fast-dds-feedstock/pull/16" xlink:title="fast dds ❎">
<ellipse fill="#31688e" stroke="black" cx="694.52" cy="-90" rx="66.47" ry="18"/>
<text text-anchor="middle" x="694.52" y="-85.33" font-family="Times,serif" font-size="14.00" fill="white">fast dds ❎</text>
</a>
</g>
</g>
<!-- libmediainfo&#45;&gt;fast&#45;dds -->
<!-- urdfdom -->
<g id="node3" class="node">
<title>urdfdom</title>
<g id="a_node3"><a xlink:href="https://github.com/conda-forge/urdfdom-feedstock/pull/32" xlink:title="urdfdom ✓">
<ellipse fill="#31688e" stroke="black" cx="65.52" cy="-234" rx="61.73" ry="18"/>
<text text-anchor="middle" x="65.52" y="-229.32" font-family="Times,serif" font-size="14.00" fill="white">urdfdom ✓</text>
</a>
</g>
</g>
<!-- libsdformat -->
<g id="node4" class="node">
<title>libsdformat</title>
<g id="a_node4"><a xlink:href="https://github.com/conda-forge/libsdformat-feedstock" xlink:title="libsdformat">
<ellipse fill="#fde725" stroke="black" cx="202.52" cy="-162" rx="69.1" ry="18"/>
<text text-anchor="middle" x="202.52" y="-157.32" font-family="Times,serif" font-size="14.00">libsdformat</text>
</a>
</g>
</g>
<!-- urdfdom&#45;&gt;libsdformat -->
<g id="edge2" class="edge">
<title>urdfdom&#45;&gt;libsdformat</title>
<path fill="none" stroke="black" d="M95.24,-217.81C114.86,-207.79 140.79,-194.54 162.25,-183.57"/>
<polygon fill="black" stroke="black" points="163.71,-186.76 171.03,-179.09 160.53,-180.52 163.71,-186.76"/>
</g>
<!-- gazebo -->
<g id="node5" class="node">
<title>gazebo</title>
<g id="a_node5"><a xlink:href="https://github.com/conda-forge/gazebo-feedstock" xlink:title="gazebo">
<ellipse fill="#fde725" stroke="black" cx="65.52" cy="-90" rx="46.47" ry="18"/>
<text text-anchor="middle" x="65.52" y="-85.33" font-family="Times,serif" font-size="14.00">gazebo</text>
</a>
</g>
</g>
<!-- urdfdom&#45;&gt;gazebo -->
<g id="edge3" class="edge">
<title>urdfdom&#45;&gt;gazebo</title>
<path fill="none" stroke="black" d="M39.57,-217.25C27.08,-208.1 13.36,-195.34 6.52,-180 0,-165.39 0,-158.61 6.52,-144 12.02,-131.65 21.99,-120.97 32.19,-112.5"/>
<polygon fill="black" stroke="black" points="34.11,-115.44 39.9,-106.57 29.84,-109.89 34.11,-115.44"/>
</g>
<!-- dartsim -->
<g id="node6" class="node">
<title>dartsim</title>
<g id="a_node6"><a xlink:href="https://github.com/conda-forge/dartsim-feedstock" xlink:title="dartsim">
<ellipse fill="#fde725" stroke="black" cx="65.52" cy="-162" rx="50.16" ry="18"/>
<text text-anchor="middle" x="65.52" y="-157.32" font-family="Times,serif" font-size="14.00">dartsim</text>
</a>
</g>
</g>
<!-- urdfdom&#45;&gt;dartsim -->
<g id="edge4" class="edge">
<title>urdfdom&#45;&gt;dartsim</title>
<path fill="none" stroke="black" d="M65.52,-215.7C65.52,-208.41 65.52,-199.73 65.52,-191.54"/>
<polygon fill="black" stroke="black" points="69.02,-191.62 65.52,-181.62 62.02,-191.62 69.02,-191.62"/>
</g>
<!-- libsdformat&#45;&gt;gazebo -->
<g id="edge5" class="edge">
<title>libsdformat&#45;&gt;gazebo</title>
<path fill="none" stroke="black" d="M172.11,-145.46C151.65,-135.01 124.55,-121.16 102.79,-110.04"/>
<polygon fill="black" stroke="black" points="104.43,-106.95 93.94,-105.52 101.25,-113.19 104.43,-106.95"/>
</g>
<!-- gz&#45;sim -->
<g id="node7" class="node">
<title>gz&#45;sim</title>
<g id="a_node7"><a xlink:href="https://github.com/conda-forge/gz-sim-feedstock" xlink:title="gz sim">
<ellipse fill="#fde725" stroke="black" cx="377.52" cy="-90" rx="43.84" ry="18"/>
<text text-anchor="middle" x="377.52" y="-85.33" font-family="Times,serif" font-size="14.00">gz sim</text>
</a>
</g>
</g>
<!-- libsdformat&#45;&gt;gz&#45;sim -->
<g id="edge6" class="edge">
<title>libsdformat&#45;&gt;gz&#45;sim</title>
<path fill="none" stroke="black" d="M239.2,-146.33C267.68,-134.94 307.14,-119.15 336.63,-107.36"/>
<polygon fill="black" stroke="black" points="337.61,-110.73 345.6,-103.77 335.01,-104.23 337.61,-110.73"/>
</g>
<!-- gz&#45;launch -->
<g id="node8" class="node">
<title>gz&#45;launch</title>
<g id="a_node8"><a xlink:href="https://github.com/conda-forge/gz-launch-feedstock" xlink:title="gz launch">
<ellipse fill="#fde725" stroke="black" cx="377.52" cy="-18" rx="59.1" ry="18"/>
<text text-anchor="middle" x="377.52" y="-13.32" font-family="Times,serif" font-size="14.00">gz launch</text>
</a>
</g>
</g>
<!-- libsdformat&#45;&gt;gz&#45;launch -->
<g id="edge7" class="edge">
<title>libsdformat&#45;&gt;gz&#45;launch</title>
<path fill="none" stroke="black" d="M222.93,-144.43C253.97,-119.25 313.15,-71.23 348.6,-42.46"/>
<polygon fill="black" stroke="black" points="350.76,-45.22 356.32,-36.2 346.35,-39.78 350.76,-45.22"/>
</g>
<!-- dartsim&#45;&gt;gazebo -->
<g id="edge8" class="edge">
<title>dartsim&#45;&gt;gazebo</title>
<path fill="none" stroke="black" d="M65.52,-143.7C65.52,-136.41 65.52,-127.73 65.52,-119.54"/>
<polygon fill="black" stroke="black" points="69.02,-119.62 65.52,-109.62 62.02,-119.62 69.02,-119.62"/>
</g>
<!-- gz&#45;sim&#45;&gt;gz&#45;launch -->
<g id="edge9" class="edge">
<title>gz&#45;sim&#45;&gt;gz&#45;launch</title>
<path fill="none" stroke="black" d="M377.52,-71.7C377.52,-64.41 377.52,-55.73 377.52,-47.54"/>
<polygon fill="black" stroke="black" points="381.02,-47.62 377.52,-37.62 374.02,-47.62 381.02,-47.62"/>
</g>
<!-- mujoco -->
<g id="node10" class="node">
<title>mujoco</title>
<g id="a_node10"><a xlink:href="https://github.com/conda-forge/mujoco-feedstock/pull/35" xlink:title="mujoco ✓">
<ellipse fill="#31688e" stroke="black" cx="694.52" cy="-18" rx="54.89" ry="18"/>
<text text-anchor="middle" x="694.52" y="-13.32" font-family="Times,serif" font-size="14.00" fill="white">mujoco ✓</text>
</a>
</g>
</g>
<!-- fast&#45;dds&#45;&gt;mujoco -->
<!-- libignition&#45;gazebo -->
<g id="node11" class="node">
<title>libignition&#45;gazebo</title>
<g id="a_node11"><a xlink:href="https://github.com/conda-forge/libignition-gazebo-feedstock" xlink:title="libignition gazebo">
<ellipse fill="#35b779" stroke="black" cx="891.52" cy="-162" rx="100.66" ry="18"/>
<text text-anchor="middle" x="891.52" y="-157.32" font-family="Times,serif" font-size="14.00">libignition gazebo</text>
</a>
</g>
</g>
<!-- libignition&#45;launch -->
<g id="node12" class="node">
<title>libignition&#45;launch</title>
<g id="a_node12"><a xlink:href="https://github.com/conda-forge/libignition-launch-feedstock" xlink:title="libignition launch">
<ellipse fill="#fde725" stroke="black" cx="891.52" cy="-90" rx="98.56" ry="18"/>
<text text-anchor="middle" x="891.52" y="-85.33" font-family="Times,serif" font-size="14.00">libignition launch</text>
</a>
</g>
</g>
<!-- libignition&#45;gazebo&#45;&gt;libignition&#45;launch -->
<g id="edge12" class="edge">
<title>libignition&#45;gazebo&#45;&gt;libignition&#45;launch</title>
<path fill="none" stroke="black" d="M891.52,-143.7C891.52,-136.41 891.52,-127.73 891.52,-119.54"/>
<polygon fill="black" stroke="black" points="895.02,-119.62 891.52,-109.62 888.02,-119.62 895.02,-119.62"/>
</g>
<!-- gz&#45;fuel&#45;tools -->
<g id="node13" class="node">
<title>gz&#45;fuel&#45;tools</title>
<g id="a_node13"><a xlink:href="https://github.com/conda-forge/gz-fuel-tools-feedstock/pull/19" xlink:title="gz fuel tools ❎">
<ellipse fill="#31688e" stroke="black" cx="377.52" cy="-162" rx="87.51" ry="18"/>
<text text-anchor="middle" x="377.52" y="-157.32" font-family="Times,serif" font-size="14.00" fill="white">gz fuel tools ❎</text>
</a>
</g>
</g>
<!-- gz&#45;fuel&#45;tools&#45;&gt;gz&#45;sim -->
<g id="edge13" class="edge">
<title>gz&#45;fuel&#45;tools&#45;&gt;gz&#45;sim</title>
<path fill="none" stroke="black" d="M377.52,-143.7C377.52,-136.41 377.52,-127.73 377.52,-119.54"/>
<polygon fill="black" stroke="black" points="381.02,-119.62 377.52,-109.62 374.02,-119.62 381.02,-119.62"/>
</g>
<!-- gz&#45;gui -->
<g id="node14" class="node">
<title>gz&#45;gui</title>
<g id="a_node14"><a xlink:href="https://github.com/conda-forge/gz-gui-feedstock/pull/27" xlink:title="gz gui ❎">
<ellipse fill="#31688e" stroke="black" cx="540.52" cy="-162" rx="57" ry="18"/>
<text text-anchor="middle" x="540.52" y="-157.32" font-family="Times,serif" font-size="14.00" fill="white">gz gui ❎</text>
</a>
</g>
</g>
<!-- gz&#45;gui&#45;&gt;gz&#45;sim -->
<g id="edge14" class="edge">
<title>gz&#45;gui&#45;&gt;gz&#45;sim</title>
<path fill="none" stroke="black" d="M507.92,-147C481.92,-135.84 445.39,-120.15 417.6,-108.21"/>
<polygon fill="black" stroke="black" points="419,-105.01 408.43,-104.28 416.24,-111.44 419,-105.01"/>
</g>
<!-- gz&#45;gui&#45;&gt;gz&#45;launch -->
<g id="edge15" class="edge">
<title>gz&#45;gui&#45;&gt;gz&#45;launch</title>
<path fill="none" stroke="black" d="M521.82,-144.71C493.11,-119.7 438.02,-71.71 404.84,-42.8"/>
<polygon fill="black" stroke="black" points="407.48,-40.46 397.64,-36.53 402.88,-45.74 407.48,-40.46"/>
</g>
</g>
</svg>
