<?xml version="1.0" encoding="UTF-8" standalone="no"?>
<!DOCTYPE svg PUBLIC "-//W3C//DTD SVG 1.1//EN"
 "http://www.w3.org/Graphics/SVG/1.1/DTD/svg11.dtd">
<!-- Generated by graphviz version 9.0.0 (20231125.0833)
 -->
<!-- Pages: 1 -->
<svg width="1365pt" height="260pt"
 viewBox="0.00 0.00 1365.46 260.00" xmlns="http://www.w3.org/2000/svg" xmlns:xlink="http://www.w3.org/1999/xlink">
<g id="graph0" class="graph" transform="scale(1 1) rotate(0) translate(4 256)">
<polygon fill="white" stroke="none" points="-4,4 -4,-256 1361.46,-256 1361.46,4 -4,4"/>
<!-- casadi -->
<g id="node1" class="node">
<title>casadi</title>
<g id="a_node1"><a xlink:href="https://github.com/conda-forge/casadi-feedstock/pull/98" xlink:title="casadi ✓">
<ellipse fill="#31688e" stroke="black" cx="1284.16" cy="-234" rx="50.68" ry="18"/>
<text text-anchor="middle" x="1284.16" y="-229.32" font-family="Times,serif" font-size="14.00" fill="white">casadi ✓</text>
</a>
</g>
</g>
<!-- libmediainfo -->
<g id="node2" class="node">
<title>libmediainfo</title>
<g id="a_node2"><a xlink:href="https://github.com/conda-forge/libmediainfo-feedstock" xlink:title="libmediainfo">
<ellipse fill="#35b779" stroke="black" cx="1284.16" cy="-162" rx="73.3" ry="18"/>
<text text-anchor="middle" x="1284.16" y="-157.32" font-family="Times,serif" font-size="14.00">libmediainfo</text>
</a>
</g>
</g>
<!-- casadi&#45;&gt;libmediainfo -->
<!-- fast&#45;dds -->
<g id="node15" class="node">
<title>fast&#45;dds</title>
<g id="a_node15"><a xlink:href="https://github.com/conda-forge/fast-dds-feedstock" xlink:title="fast dds">
<ellipse fill="#35b779" stroke="black" cx="1284.16" cy="-90" rx="51.21" ry="18"/>
<text text-anchor="middle" x="1284.16" y="-85.33" font-family="Times,serif" font-size="14.00">fast dds</text>
</a>
</g>
</g>
<!-- libmediainfo&#45;&gt;fast&#45;dds -->
<!-- urdfdom -->
<g id="node3" class="node">
<title>urdfdom</title>
<g id="a_node3"><a xlink:href="https://github.com/conda-forge/urdfdom-feedstock/pull/32" xlink:title="urdfdom ✓">
<ellipse fill="#31688e" stroke="black" cx="128.16" cy="-234" rx="61.73" ry="18"/>
<text text-anchor="middle" x="128.16" y="-229.32" font-family="Times,serif" font-size="14.00" fill="white">urdfdom ✓</text>
</a>
</g>
</g>
<!-- libsdformat -->
<g id="node4" class="node">
<title>libsdformat</title>
<g id="a_node4"><a xlink:href="https://github.com/conda-forge/libsdformat-feedstock" xlink:title="libsdformat">
<ellipse fill="#fde725" stroke="black" cx="225.16" cy="-162" rx="69.1" ry="18"/>
<text text-anchor="middle" x="225.16" y="-157.32" font-family="Times,serif" font-size="14.00">libsdformat</text>
</a>
</g>
</g>
<!-- urdfdom&#45;&gt;libsdformat -->
<g id="edge2" class="edge">
<title>urdfdom&#45;&gt;libsdformat</title>
<path fill="none" stroke="black" d="M150.65,-216.76C163.29,-207.64 179.28,-196.1 193.2,-186.06"/>
<polygon fill="black" stroke="black" points="195.16,-188.97 201.22,-180.28 191.06,-183.29 195.16,-188.97"/>
</g>
<!-- gazebo -->
<g id="node5" class="node">
<title>gazebo</title>
<g id="a_node5"><a xlink:href="https://github.com/conda-forge/gazebo-feedstock" xlink:title="gazebo">
<ellipse fill="#fde725" stroke="black" cx="128.16" cy="-90" rx="46.47" ry="18"/>
<text text-anchor="middle" x="128.16" y="-85.33" font-family="Times,serif" font-size="14.00">gazebo</text>
</a>
</g>
</g>
<!-- urdfdom&#45;&gt;gazebo -->
<g id="edge3" class="edge">
<title>urdfdom&#45;&gt;gazebo</title>
<path fill="none" stroke="black" d="M128.16,-215.59C128.16,-191.61 128.16,-148.14 128.16,-119.42"/>
<polygon fill="black" stroke="black" points="131.66,-119.62 128.16,-109.62 124.66,-119.62 131.66,-119.62"/>
</g>
<!-- dartsim -->
<g id="node6" class="node">
<title>dartsim</title>
<g id="a_node6"><a xlink:href="https://github.com/conda-forge/dartsim-feedstock" xlink:title="dartsim">
<ellipse fill="#fde725" stroke="black" cx="50.16" cy="-162" rx="50.16" ry="18"/>
<text text-anchor="middle" x="50.16" y="-157.32" font-family="Times,serif" font-size="14.00">dartsim</text>
</a>
</g>
</g>
<!-- urdfdom&#45;&gt;dartsim -->
<g id="edge4" class="edge">
<title>urdfdom&#45;&gt;dartsim</title>
<path fill="none" stroke="black" d="M109.67,-216.41C99.79,-207.54 87.45,-196.47 76.57,-186.71"/>
<polygon fill="black" stroke="black" points="79.15,-184.31 69.37,-180.24 74.47,-189.52 79.15,-184.31"/>
</g>
<!-- libsdformat&#45;&gt;gazebo -->
<g id="edge5" class="edge">
<title>libsdformat&#45;&gt;gazebo</title>
<path fill="none" stroke="black" d="M202.66,-144.76C189.53,-135.29 172.79,-123.21 158.5,-112.9"/>
<polygon fill="black" stroke="black" points="160.92,-110.33 150.76,-107.31 156.82,-116 160.92,-110.33"/>
</g>
<!-- gz&#45;sim -->
<g id="node7" class="node">
<title>gz&#45;sim</title>
<g id="a_node7"><a xlink:href="https://github.com/conda-forge/gz-sim-feedstock" xlink:title="gz sim">
<ellipse fill="#fde725" stroke="black" cx="460.16" cy="-90" rx="43.84" ry="18"/>
<text text-anchor="middle" x="460.16" y="-85.33" font-family="Times,serif" font-size="14.00">gz sim</text>
</a>
</g>
</g>
<!-- libsdformat&#45;&gt;gz&#45;sim -->
<g id="edge6" class="edge">
<title>libsdformat&#45;&gt;gz&#45;sim</title>
<path fill="none" stroke="black" d="M269.36,-147.83C310.77,-135.5 372.4,-117.14 414.33,-104.65"/>
<polygon fill="black" stroke="black" points="415.3,-108.01 423.88,-101.81 413.3,-101.31 415.3,-108.01"/>
</g>
<!-- gz&#45;launch -->
<g id="node8" class="node">
<title>gz&#45;launch</title>
<g id="a_node8"><a xlink:href="https://github.com/conda-forge/gz-launch-feedstock" xlink:title="gz launch">
<ellipse fill="#fde725" stroke="black" cx="460.16" cy="-18" rx="59.1" ry="18"/>
<text text-anchor="middle" x="460.16" y="-13.32" font-family="Times,serif" font-size="14.00">gz launch</text>
</a>
</g>
</g>
<!-- libsdformat&#45;&gt;gz&#45;launch -->
<g id="edge7" class="edge">
<title>libsdformat&#45;&gt;gz&#45;launch</title>
<path fill="none" stroke="black" d="M237.04,-143.91C251.66,-124.04 278.25,-91.5 308.16,-72 336.59,-53.45 372.27,-40.58 401.91,-32.16"/>
<polygon fill="black" stroke="black" points="402.76,-35.56 411.49,-29.55 400.92,-28.8 402.76,-35.56"/>
</g>
<!-- dartsim&#45;&gt;gazebo -->
<g id="edge8" class="edge">
<title>dartsim&#45;&gt;gazebo</title>
<path fill="none" stroke="black" d="M68.25,-144.76C78.26,-135.78 90.89,-124.45 101.96,-114.51"/>
<polygon fill="black" stroke="black" points="104.2,-117.2 109.31,-107.92 99.53,-111.99 104.2,-117.2"/>
</g>
<!-- gz&#45;sim&#45;&gt;gz&#45;launch -->
<g id="edge17" class="edge">
<title>gz&#45;sim&#45;&gt;gz&#45;launch</title>
<path fill="none" stroke="black" d="M460.16,-71.7C460.16,-64.41 460.16,-55.73 460.16,-47.54"/>
<polygon fill="black" stroke="black" points="463.66,-47.62 460.16,-37.62 456.66,-47.62 463.66,-47.62"/>
</g>
<!-- libignition&#45;msgs1 -->
<g id="node9" class="node">
<title>libignition&#45;msgs1</title>
<g id="a_node9"><a xlink:href="https://github.com/conda-forge/libignition-msgs1-feedstock/pull/99" xlink:title="libignition msgs1 ✓">
<ellipse fill="#31688e" stroke="black" cx="808.16" cy="-234" rx="105.92" ry="18"/>
<text text-anchor="middle" x="808.16" y="-229.32" font-family="Times,serif" font-size="14.00" fill="white">libignition msgs1 ✓</text>
</a>
</g>
</g>
<!-- libignition&#45;fuel&#45;tools -->
<g id="node10" class="node">
<title>libignition&#45;fuel&#45;tools</title>
<g id="a_node10"><a xlink:href="https://github.com/conda-forge/libignition-fuel-tools-feedstock" xlink:title="libignition fuel tools">
<ellipse fill="#fde725" stroke="black" cx="1053.16" cy="-162" rx="111.71" ry="18"/>
<text text-anchor="middle" x="1053.16" y="-157.32" font-family="Times,serif" font-size="14.00">libignition fuel tools</text>
</a>
</g>
</g>
<!-- libignition&#45;msgs1&#45;&gt;libignition&#45;fuel&#45;tools -->
<g id="edge9" class="edge">
<title>libignition&#45;msgs1&#45;&gt;libignition&#45;fuel&#45;tools</title>
<path fill="none" stroke="black" d="M860.71,-217.98C898.24,-207.26 948.94,-192.78 988.88,-181.36"/>
<polygon fill="black" stroke="black" points="989.73,-184.76 998.38,-178.65 987.81,-178.03 989.73,-184.76"/>
</g>
<!-- libignition&#45;gui -->
<g id="node11" class="node">
<title>libignition&#45;gui</title>
<g id="a_node11"><a xlink:href="https://github.com/conda-forge/libignition-gui-feedstock" xlink:title="libignition gui">
<ellipse fill="#fde725" stroke="black" cx="842.16" cy="-162" rx="81.2" ry="18"/>
<text text-anchor="middle" x="842.16" y="-157.32" font-family="Times,serif" font-size="14.00">libignition gui</text>
</a>
</g>
</g>
<!-- libignition&#45;msgs1&#45;&gt;libignition&#45;gui -->
<g id="edge10" class="edge">
<title>libignition&#45;msgs1&#45;&gt;libignition&#45;gui</title>
<path fill="none" stroke="black" d="M816.56,-215.7C820.27,-208.07 824.71,-198.92 828.85,-190.4"/>
<polygon fill="black" stroke="black" points="831.97,-191.99 833.19,-181.47 825.67,-188.93 831.97,-191.99"/>
</g>
<!-- libignition&#45;gazebo -->
<g id="node12" class="node">
<title>libignition&#45;gazebo</title>
<g id="a_node12"><a xlink:href="https://github.com/conda-forge/libignition-gazebo-feedstock" xlink:title="libignition gazebo">
<ellipse fill="#fde725" stroke="black" cx="971.16" cy="-90" rx="100.66" ry="18"/>
<text text-anchor="middle" x="971.16" y="-85.33" font-family="Times,serif" font-size="14.00">libignition gazebo</text>
</a>
</g>
</g>
<!-- libignition&#45;msgs1&#45;&gt;libignition&#45;gazebo -->
<g id="edge11" class="edge">
<title>libignition&#45;msgs1&#45;&gt;libignition&#45;gazebo</title>
<path fill="none" stroke="black" d="M784.9,-216.23C762.18,-197.8 733.53,-167.67 752.16,-144 767.99,-123.88 824.88,-110.48 876.71,-102.19"/>
<polygon fill="black" stroke="black" points="877.18,-105.66 886.53,-100.67 876.11,-98.74 877.18,-105.66"/>
</g>
<!-- libignition&#45;launch -->
<g id="node13" class="node">
<title>libignition&#45;launch</title>
<g id="a_node13"><a xlink:href="https://github.com/conda-forge/libignition-launch-feedstock" xlink:title="libignition launch">
<ellipse fill="#fde725" stroke="black" cx="906.16" cy="-18" rx="98.56" ry="18"/>
<text text-anchor="middle" x="906.16" y="-13.32" font-family="Times,serif" font-size="14.00">libignition launch</text>
</a>
</g>
</g>
<!-- libignition&#45;msgs1&#45;&gt;libignition&#45;launch -->
<g id="edge12" class="edge">
<title>libignition&#45;msgs1&#45;&gt;libignition&#45;launch</title>
<path fill="none" stroke="black" d="M776.8,-216.35C763.52,-207.48 749.46,-195.24 742.16,-180 735.24,-165.57 735.06,-158.34 742.16,-144 766.22,-95.41 819.22,-60.56 858.49,-40.2"/>
<polygon fill="black" stroke="black" points="859.94,-43.39 867.3,-35.77 856.8,-37.13 859.94,-43.39"/>
</g>
<!-- libignition&#45;fuel&#45;tools&#45;&gt;libignition&#45;gazebo -->
<g id="edge13" class="edge">
<title>libignition&#45;fuel&#45;tools&#45;&gt;libignition&#45;gazebo</title>
<path fill="none" stroke="black" d="M1033.31,-144.05C1023.21,-135.43 1010.75,-124.8 999.65,-115.32"/>
<polygon fill="black" stroke="black" points="1002.14,-112.84 992.26,-109.01 997.59,-118.17 1002.14,-112.84"/>
</g>
<!-- libignition&#45;gui&#45;&gt;libignition&#45;gazebo -->
<g id="edge14" class="edge">
<title>libignition&#45;gui&#45;&gt;libignition&#45;gazebo</title>
<path fill="none" stroke="black" d="M871.75,-144.94C889.28,-135.43 911.73,-123.25 930.86,-112.87"/>
<polygon fill="black" stroke="black" points="932.35,-116.04 939.47,-108.19 929.01,-109.89 932.35,-116.04"/>
</g>
<!-- libignition&#45;gui&#45;&gt;libignition&#45;launch -->
<g id="edge15" class="edge">
<title>libignition&#45;gui&#45;&gt;libignition&#45;launch</title>
<path fill="none" stroke="black" d="M843.32,-143.79C845.14,-125.24 849.72,-95.25 861.16,-72 866.01,-62.14 873.1,-52.58 880.23,-44.37"/>
<polygon fill="black" stroke="black" points="882.67,-46.88 886.85,-37.15 877.51,-42.15 882.67,-46.88"/>
</g>
<!-- libignition&#45;gazebo&#45;&gt;libignition&#45;launch -->
<g id="edge16" class="edge">
<title>libignition&#45;gazebo&#45;&gt;libignition&#45;launch</title>
<path fill="none" stroke="black" d="M955.42,-72.05C947.6,-63.63 937.99,-53.28 929.34,-43.97"/>
<polygon fill="black" stroke="black" points="932.14,-41.84 922.78,-36.9 927.02,-46.61 932.14,-41.84"/>
</g>
<!-- libignition&#45;common -->
<g id="node14" class="node">
<title>libignition&#45;common</title>
<g id="a_node14"><a xlink:href="https://github.com/conda-forge/libignition-common-feedstock/pull/62" xlink:title="libignition common ✓">
<ellipse fill="#31688e" stroke="black" cx="1087.16" cy="-234" rx="115.39" ry="18"/>
<text text-anchor="middle" x="1087.16" y="-229.32" font-family="Times,serif" font-size="14.00" fill="white">libignition common ✓</text>
</a>
</g>
</g>
<!-- libignition&#45;common&#45;&gt;libignition&#45;fuel&#45;tools -->
<g id="edge18" class="edge">
<title>libignition&#45;common&#45;&gt;libignition&#45;fuel&#45;tools</title>
<path fill="none" stroke="black" d="M1078.75,-215.7C1075.05,-208.07 1070.6,-198.92 1066.46,-190.4"/>
<polygon fill="black" stroke="black" points="1069.64,-188.93 1062.12,-181.47 1063.35,-191.99 1069.64,-188.93"/>
</g>
<!-- libignition&#45;common&#45;&gt;libignition&#45;gui -->
<g id="edge19" class="edge">
<title>libignition&#45;common&#45;&gt;libignition&#45;gui</title>
<path fill="none" stroke="black" d="M1033.39,-217.64C994.38,-206.49 941.61,-191.42 901.39,-179.92"/>
<polygon fill="black" stroke="black" points="902.43,-176.58 891.86,-177.2 900.51,-183.31 902.43,-176.58"/>
</g>
<!-- libignition&#45;common&#45;&gt;libignition&#45;gazebo -->
<g id="edge20" class="edge">
<title>libignition&#45;common&#45;&gt;libignition&#45;gazebo</title>
<path fill="none" stroke="black" d="M1131.39,-217.04C1147.85,-208.69 1164.8,-196.65 1174.16,-180 1181.99,-166.05 1183.94,-156.66 1174.16,-144 1159.83,-125.45 1108.61,-112.16 1061.21,-103.53"/>
<polygon fill="black" stroke="black" points="1061.85,-100.08 1051.4,-101.8 1060.64,-106.98 1061.85,-100.08"/>
</g>
<!-- libignition&#45;common&#45;&gt;libignition&#45;launch -->
<g id="edge21" class="edge">
<title>libignition&#45;common&#45;&gt;libignition&#45;launch</title>
<path fill="none" stroke="black" d="M1142.78,-217.79C1161.47,-209.74 1180.3,-197.71 1191.16,-180 1199.52,-166.36 1198.76,-158.07 1191.16,-144 1153.98,-75.23 1067.78,-44.27 999.85,-30.34"/>
<polygon fill="black" stroke="black" points="1000.66,-26.93 990.17,-28.46 999.32,-33.8 1000.66,-26.93"/>
</g>
<!-- mujoco -->
<g id="node16" class="node">
<title>mujoco</title>
<g id="a_node16"><a xlink:href="https://github.com/conda-forge/mujoco-feedstock/pull/35" xlink:title="mujoco ✓">
<ellipse fill="#31688e" stroke="black" cx="1284.16" cy="-18" rx="54.89" ry="18"/>
<text text-anchor="middle" x="1284.16" y="-13.32" font-family="Times,serif" font-size="14.00" fill="white">mujoco ✓</text>
</a>
</g>
</g>
<!-- fast&#45;dds&#45;&gt;mujoco -->
<!-- gz&#45;common -->
<g id="node17" class="node">
<title>gz&#45;common</title>
<g id="a_node17"><a xlink:href="https://github.com/conda-forge/gz-common-feedstock/pull/25" xlink:title="gz common ❎">
<ellipse fill="#31688e" stroke="black" cx="391.16" cy="-234" rx="83.3" ry="18"/>
<text text-anchor="middle" x="391.16" y="-229.32" font-family="Times,serif" font-size="14.00" fill="white">gz common ❎</text>
</a>
</g>
</g>
<!-- gz&#45;common&#45;&gt;gz&#45;sim -->
<g id="edge24" class="edge">
<title>gz&#45;common&#45;&gt;gz&#45;sim</title>
<path fill="none" stroke="black" d="M383.05,-215.84C375.44,-197.06 366.92,-166.63 379.16,-144 387.75,-128.11 403.4,-116.23 418.67,-107.78"/>
<polygon fill="black" stroke="black" points="419.91,-111.07 427.22,-103.41 416.72,-104.84 419.91,-111.07"/>
</g>
<!-- gz&#45;common&#45;&gt;gz&#45;launch -->
<g id="edge25" class="edge">
<title>gz&#45;common&#45;&gt;gz&#45;launch</title>
<path fill="none" stroke="black" d="M382.03,-215.88C377.15,-205.76 371.65,-192.51 369.16,-180 366.03,-164.31 365.31,-159.53 369.16,-144 377.86,-108.88 385.68,-101.12 407.16,-72 414.65,-61.84 424.07,-51.77 432.89,-43.18"/>
<polygon fill="black" stroke="black" points="435.11,-45.9 439.97,-36.49 430.3,-40.81 435.11,-45.9"/>
</g>
<!-- gz&#45;fuel&#45;tools -->
<g id="node18" class="node">
<title>gz&#45;fuel&#45;tools</title>
<g id="a_node18"><a xlink:href="https://github.com/conda-forge/gz-fuel-tools-feedstock" xlink:title="gz fuel tools">
<ellipse fill="#fde725" stroke="black" cx="460.16" cy="-162" rx="72.25" ry="18"/>
<text text-anchor="middle" x="460.16" y="-157.32" font-family="Times,serif" font-size="14.00">gz fuel tools</text>
</a>
</g>
</g>
<!-- gz&#45;common&#45;&gt;gz&#45;fuel&#45;tools -->
<g id="edge26" class="edge">
<title>gz&#45;common&#45;&gt;gz&#45;fuel&#45;tools</title>
<path fill="none" stroke="black" d="M407.86,-216.05C416.16,-207.63 426.37,-197.28 435.55,-187.97"/>
<polygon fill="black" stroke="black" points="438.02,-190.45 442.54,-180.87 433.03,-185.53 438.02,-190.45"/>
</g>
<!-- gz&#45;gui -->
<g id="node19" class="node">
<title>gz&#45;gui</title>
<g id="a_node19"><a xlink:href="https://github.com/conda-forge/gz-gui-feedstock" xlink:title="gz gui">
<ellipse fill="#fde725" stroke="black" cx="592.16" cy="-162" rx="41.74" ry="18"/>
<text text-anchor="middle" x="592.16" y="-157.32" font-family="Times,serif" font-size="14.00">gz gui</text>
</a>
</g>
</g>
<!-- gz&#45;common&#45;&gt;gz&#45;gui -->
<g id="edge27" class="edge">
<title>gz&#45;common&#45;&gt;gz&#45;gui</title>
<path fill="none" stroke="black" d="M433.78,-218.15C467.99,-206.24 515.78,-189.6 549.89,-177.72"/>
<polygon fill="black" stroke="black" points="550.73,-181.13 559.02,-174.54 548.43,-174.52 550.73,-181.13"/>
</g>
<!-- gz&#45;fuel&#45;tools&#45;&gt;gz&#45;sim -->
<g id="edge28" class="edge">
<title>gz&#45;fuel&#45;tools&#45;&gt;gz&#45;sim</title>
<path fill="none" stroke="black" d="M460.16,-143.7C460.16,-136.41 460.16,-127.73 460.16,-119.54"/>
<polygon fill="black" stroke="black" points="463.66,-119.62 460.16,-109.62 456.66,-119.62 463.66,-119.62"/>
</g>
<!-- gz&#45;gui&#45;&gt;gz&#45;sim -->
<g id="edge29" class="edge">
<title>gz&#45;gui&#45;&gt;gz&#45;sim</title>
<path fill="none" stroke="black" d="M566.7,-147.5C546.66,-136.87 518.46,-121.92 496.1,-110.06"/>
<polygon fill="black" stroke="black" points="497.79,-107 487.32,-105.4 494.51,-113.18 497.79,-107"/>
</g>
<!-- gz&#45;gui&#45;&gt;gz&#45;launch -->
<g id="edge30" class="edge">
<title>gz&#45;gui&#45;&gt;gz&#45;launch</title>
<path fill="none" stroke="black" d="M578.17,-144.66C562.59,-126.61 536.53,-96.81 513.16,-72 504.23,-62.53 494.19,-52.36 485.26,-43.5"/>
<polygon fill="black" stroke="black" points="487.77,-41.06 478.2,-36.52 482.86,-46.04 487.77,-41.06"/>
</g>
<!-- gz&#45;msgs -->
<g id="node20" class="node">
<title>gz&#45;msgs</title>
<g id="a_node20"><a xlink:href="https://github.com/conda-forge/gz-msgs-feedstock/pull/22" xlink:title="gz msgs ❎">
<ellipse fill="#31688e" stroke="black" cx="627.16" cy="-234" rx="67.52" ry="18"/>
<text text-anchor="middle" x="627.16" y="-229.32" font-family="Times,serif" font-size="14.00" fill="white">gz msgs ❎</text>
</a>
</g>
</g>
<!-- gz&#45;msgs&#45;&gt;gz&#45;sim -->
<g id="edge31" class="edge">
<title>gz&#45;msgs&#45;&gt;gz&#45;sim</title>
<path fill="none" stroke="black" d="M637.32,-215.81C647.3,-196.45 658.91,-164.96 643.16,-144 627.34,-122.95 560.39,-107.58 512.05,-98.97"/>
<polygon fill="black" stroke="black" points="512.76,-95.54 502.31,-97.29 511.56,-102.44 512.76,-95.54"/>
</g>
<!-- gz&#45;msgs&#45;&gt;gz&#45;launch -->
<g id="edge32" class="edge">
<title>gz&#45;msgs&#45;&gt;gz&#45;launch</title>
<path fill="none" stroke="black" d="M641.7,-216.27C655.82,-197.88 673.34,-167.78 660.16,-144 628.78,-87.4 559.92,-53.04 511.81,-35.04"/>
<polygon fill="black" stroke="black" points="513.3,-31.85 502.7,-31.74 510.92,-38.44 513.3,-31.85"/>
</g>
<!-- gz&#45;msgs&#45;&gt;gz&#45;fuel&#45;tools -->
<g id="edge33" class="edge">
<title>gz&#45;msgs&#45;&gt;gz&#45;fuel&#45;tools</title>
<path fill="none" stroke="black" d="M592.15,-218.33C567.24,-207.88 533.52,-193.75 506.4,-182.38"/>
<polygon fill="black" stroke="black" points="507.95,-179.24 497.38,-178.6 505.25,-185.7 507.95,-179.24"/>
</g>
<!-- gz&#45;msgs&#45;&gt;gz&#45;gui -->
<g id="edge34" class="edge">
<title>gz&#45;msgs&#45;&gt;gz&#45;gui</title>
<path fill="none" stroke="black" d="M618.5,-215.7C614.69,-208.07 610.11,-198.92 605.85,-190.4"/>
<polygon fill="black" stroke="black" points="608.99,-188.84 601.38,-181.46 602.73,-191.97 608.99,-188.84"/>
</g>
</g>
</svg>
