<?xml version="1.0" encoding="UTF-8" standalone="no"?>
<!DOCTYPE svg PUBLIC "-//W3C//DTD SVG 1.1//EN"
 "http://www.w3.org/Graphics/SVG/1.1/DTD/svg11.dtd">
<!-- Generated by graphviz version 8.1.0 (20230707.2238)
 -->
<!-- Pages: 1 -->
<svg width="246pt" height="188pt"
 viewBox="0.00 0.00 245.91 188.00" xmlns="http://www.w3.org/2000/svg" xmlns:xlink="http://www.w3.org/1999/xlink">
<g id="graph0" class="graph" transform="scale(1 1) rotate(0) translate(4 184)">
<polygon fill="white" stroke="none" points="-4,4 -4,-184 241.91,-184 241.91,4 -4,4"/>
<!-- gnuradio -->
<g id="node1" class="node">
<title>gnuradio</title>
<g id="a_node1"><a xlink:href="https://github.com/conda-forge/gnuradio-feedstock/pull/255" xlink:title="gnuradio ❎">
<ellipse fill="#31688e" stroke="black" cx="166.71" cy="-162" rx="71.2" ry="18"/>
<text text-anchor="middle" x="166.71" y="-157.32" font-family="Times,serif" font-size="14.00" fill="white">gnuradio ❎</text>
</a>
</g>
</g>
<!-- gnuradio&#45;osmosdr -->
<g id="node2" class="node">
<title>gnuradio&#45;osmosdr</title>
<g id="a_node2"><a xlink:href="https://github.com/conda-forge/gnuradio-osmosdr-feedstock" xlink:title="gnuradio osmosdr">
<ellipse fill="#fde725" stroke="black" cx="101.71" cy="-90" rx="101.71" ry="18"/>
<text text-anchor="middle" x="101.71" y="-85.33" font-family="Times,serif" font-size="14.00">gnuradio osmosdr</text>
</a>
</g>
</g>
<!-- gnuradio&#45;&gt;gnuradio&#45;osmosdr -->
<g id="edge2" class="edge">
<title>gnuradio&#45;&gt;gnuradio&#45;osmosdr</title>
<path fill="none" stroke="black" d="M150.98,-144.05C143.08,-135.54 133.35,-125.07 124.63,-115.68"/>
<polygon fill="black" stroke="black" points="127.67,-113.74 118.3,-108.79 122.54,-118.5 127.67,-113.74"/>
</g>
<!-- gnss&#45;sdr -->
<g id="node3" class="node">
<title>gnss&#45;sdr</title>
<g id="a_node3"><a xlink:href="https://github.com/conda-forge/gnss-sdr-feedstock" xlink:title="gnss sdr">
<ellipse fill="#fde725" stroke="black" cx="166.71" cy="-18" rx="53.84" ry="18"/>
<text text-anchor="middle" x="166.71" y="-13.32" font-family="Times,serif" font-size="14.00">gnss sdr</text>
</a>
</g>
</g>
<!-- gnuradio&#45;&gt;gnss&#45;sdr -->
<g id="edge1" class="edge">
<title>gnuradio&#45;&gt;gnss&#45;sdr</title>
<path fill="none" stroke="black" d="M186.58,-144.55C196.47,-135.03 207.43,-122.15 212.71,-108 218.31,-93.01 218.31,-86.99 212.71,-72 208.69,-61.21 201.36,-51.17 193.73,-42.79"/>
<polygon fill="black" stroke="black" points="196.6,-40.69 187.1,-36 191.59,-45.59 196.6,-40.69"/>
</g>
<!-- gnuradio&#45;osmosdr&#45;&gt;gnss&#45;sdr -->
<g id="edge3" class="edge">
<title>gnuradio&#45;osmosdr&#45;&gt;gnss&#45;sdr</title>
<path fill="none" stroke="black" d="M117.45,-72.05C125.47,-63.42 135.37,-52.76 144.18,-43.27"/>
<polygon fill="black" stroke="black" points="146.33,-46.02 150.57,-36.31 141.2,-41.25 146.33,-46.02"/>
</g>
</g>
</svg>
