<?xml version="1.0" encoding="UTF-8" standalone="no"?>
<!DOCTYPE svg PUBLIC "-//W3C//DTD SVG 1.1//EN"
 "http://www.w3.org/Graphics/SVG/1.1/DTD/svg11.dtd">
<!-- Generated by graphviz version 8.1.0 (20230707.2238)
 -->
<!-- Pages: 1 -->
<svg width="641pt" height="276pt"
 viewBox="0.00 0.00 640.77 276.00" xmlns="http://www.w3.org/2000/svg" xmlns:xlink="http://www.w3.org/1999/xlink">
<g id="graph0" class="graph" transform="scale(1 1) rotate(0) translate(4 272)">
<polygon fill="white" stroke="none" points="-4,4 -4,-272 636.77,-272 636.77,4 -4,4"/>
<!-- occt -->
<g id="node1" class="node">
<title>occt</title>
<g id="a_node1"><a xlink:href="https://github.com/conda-forge/occt-feedstock/pull/105" xlink:title="occt ✓">
<ellipse fill="#31688e" stroke="black" cx="114.32" cy="-250" rx="39.63" ry="18"/>
<text text-anchor="middle" x="114.32" y="-245.32" font-family="Times,serif" font-size="14.00" fill="white">occt ✓</text>
</a>
</g>
</g>
<!-- smesh -->
<g id="node2" class="node">
<title>smesh</title>
<g id="a_node2"><a xlink:href="https://github.com/conda-forge/smesh-feedstock" xlink:title="smesh">
<ellipse fill="#fde725" stroke="black" cx="43.32" cy="-178" rx="43.32" ry="18"/>
<text text-anchor="middle" x="43.32" y="-173.32" font-family="Times,serif" font-size="14.00">smesh</text>
</a>
</g>
</g>
<!-- occt&#45;&gt;smesh -->
<g id="edge3" class="edge">
<title>occt&#45;&gt;smesh</title>
<path fill="none" stroke="black" d="M98.21,-233.12C89.04,-224.08 77.38,-212.58 67.17,-202.52"/>
<polygon fill="black" stroke="black" points="69.94,-200.35 60.36,-195.82 65.03,-205.33 69.94,-200.35"/>
</g>
<!-- freecad -->
<g id="node4" class="node">
<title>freecad</title>
<g id="a_node4"><a xlink:href="https://github.com/conda-forge/freecad-feedstock" xlink:title="freecad">
<ellipse fill="#fde725" stroke="black" cx="114.32" cy="-106" rx="48.58" ry="18"/>
<text text-anchor="middle" x="114.32" y="-101.33" font-family="Times,serif" font-size="14.00">freecad</text>
</a>
</g>
</g>
<!-- occt&#45;&gt;freecad -->
<g id="edge1" class="edge">
<title>occt&#45;&gt;freecad</title>
<path fill="none" stroke="black" d="M114.32,-231.59C114.32,-207.5 114.32,-163.75 114.32,-135.03"/>
<polygon fill="black" stroke="black" points="117.82,-135.11 114.32,-125.11 110.82,-135.11 117.82,-135.11"/>
</g>
<!-- ocp -->
<g id="node12" class="node">
<title>ocp</title>
<g id="a_node12"><a xlink:href="https://github.com/conda-forge/ocp-feedstock" xlink:title="ocp">
<ellipse fill="#fde725" stroke="black" cx="171.32" cy="-178" rx="28.59" ry="18"/>
<text text-anchor="middle" x="171.32" y="-173.32" font-family="Times,serif" font-size="14.00">ocp</text>
</a>
</g>
</g>
<!-- occt&#45;&gt;ocp -->
<g id="edge2" class="edge">
<title>occt&#45;&gt;ocp</title>
<path fill="none" stroke="black" d="M127.54,-232.76C134.86,-223.77 144.1,-212.42 152.2,-202.48"/>
<polygon fill="black" stroke="black" points="155.35,-205.15 158.95,-195.19 149.92,-200.73 155.35,-205.15"/>
</g>
<!-- smesh&#45;&gt;freecad -->
<g id="edge4" class="edge">
<title>smesh&#45;&gt;freecad</title>
<path fill="none" stroke="black" d="M59.43,-161.12C68.47,-152.2 79.93,-140.91 90.03,-130.94"/>
<polygon fill="black" stroke="black" points="92.11,-133.82 96.78,-124.31 87.2,-128.84 92.11,-133.82"/>
</g>
<!-- pcl -->
<g id="node3" class="node">
<title>pcl</title>
<g id="a_node3"><a xlink:href="https://github.com/conda-forge/pcl-feedstock/pull/57" xlink:title="pcl ❎">
<ellipse fill="#31688e" stroke="black" cx="259.32" cy="-178" rx="41.21" ry="18"/>
<text text-anchor="middle" x="259.32" y="-173.32" font-family="Times,serif" font-size="14.00" fill="white">pcl ❎</text>
</a>
</g>
</g>
<!-- pcl&#45;&gt;freecad -->
<g id="edge5" class="edge">
<title>pcl&#45;&gt;freecad</title>
<path fill="none" stroke="black" d="M232.38,-164C209.97,-153.18 177.78,-137.64 152.68,-125.52"/>
<polygon fill="black" stroke="black" points="154.62,-122.09 144.09,-120.89 151.58,-128.39 154.62,-122.09"/>
</g>
<!-- bonsu -->
<g id="node5" class="node">
<title>bonsu</title>
<g id="a_node5"><a xlink:href="https://github.com/conda-forge/bonsu-feedstock" xlink:title="bonsu">
<ellipse fill="#35b779" stroke="black" cx="546.32" cy="-18" rx="41.21" ry="18"/>
<text text-anchor="middle" x="546.32" y="-13.32" font-family="Times,serif" font-size="14.00">bonsu</text>
</a>
</g>
</g>
<!-- topologytoolkit -->
<g id="node6" class="node">
<title>topologytoolkit</title>
<g id="a_node6"><a xlink:href="https://github.com/conda-forge/topologytoolkit-feedstock" xlink:title="topologytoolkit">
<ellipse fill="#35b779" stroke="black" cx="546.32" cy="-178" rx="86.46" ry="18"/>
<text text-anchor="middle" x="546.32" y="-173.32" font-family="Times,serif" font-size="14.00">topologytoolkit</text>
</a>
</g>
</g>
<!-- basictools -->
<g id="node7" class="node">
<title>basictools</title>
<g id="a_node7"><a xlink:href="https://github.com/conda-forge/basictools-feedstock" xlink:title="basictools">
<ellipse fill="#fde725" stroke="black" cx="380.32" cy="-142" rx="61.2" ry="18"/>
<text text-anchor="middle" x="380.32" y="-137.32" font-family="Times,serif" font-size="14.00">basictools</text>
</a>
</g>
</g>
<!-- python&#45;mint -->
<g id="node8" class="node">
<title>python&#45;mint</title>
<g id="a_node8"><a xlink:href="https://github.com/conda-forge/python-mint-feedstock" xlink:title="python mint">
<ellipse fill="#35b779" stroke="black" cx="150.32" cy="-62" rx="72.25" ry="18"/>
<text text-anchor="middle" x="150.32" y="-57.33" font-family="Times,serif" font-size="14.00">python mint</text>
</a>
</g>
</g>
<!-- pycgns -->
<g id="node9" class="node">
<title>pycgns</title>
<g id="a_node9"><a xlink:href="https://github.com/conda-forge/pycgns-feedstock/pull/25" xlink:title="pycgns ❎">
<ellipse fill="#31688e" stroke="black" cx="380.32" cy="-214" rx="61.73" ry="18"/>
<text text-anchor="middle" x="380.32" y="-209.32" font-family="Times,serif" font-size="14.00" fill="white">pycgns ❎</text>
</a>
</g>
</g>
<!-- pycgns&#45;&gt;basictools -->
<g id="edge6" class="edge">
<title>pycgns&#45;&gt;basictools</title>
<path fill="none" stroke="black" d="M380.32,-195.7C380.32,-188.24 380.32,-179.32 380.32,-170.97"/>
<polygon fill="black" stroke="black" points="383.82,-171.1 380.32,-161.1 376.82,-171.1 383.82,-171.1"/>
</g>
<!-- visan -->
<g id="node10" class="node">
<title>visan</title>
<g id="a_node10"><a xlink:href="https://github.com/conda-forge/visan-feedstock/pull/19" xlink:title="visan ❎">
<ellipse fill="#31688e" stroke="black" cx="150.32" cy="-18" rx="52.79" ry="18"/>
<text text-anchor="middle" x="150.32" y="-13.32" font-family="Times,serif" font-size="14.00" fill="white">visan ❎</text>
</a>
</g>
</g>
<!-- vmtk -->
<g id="node11" class="node">
<title>vmtk</title>
<g id="a_node11"><a xlink:href="https://github.com/conda-forge/vmtk-feedstock/pull/19" xlink:title="vmtk ❎">
<ellipse fill="#31688e" stroke="black" cx="380.32" cy="-18" rx="51.73" ry="18"/>
<text text-anchor="middle" x="380.32" y="-13.32" font-family="Times,serif" font-size="14.00" fill="white">vmtk ❎</text>
</a>
</g>
</g>
<!-- pyg4ometry -->
<g id="node13" class="node">
<title>pyg4ometry</title>
<g id="a_node13"><a xlink:href="https://github.com/conda-forge/pyg4ometry-feedstock" xlink:title="pyg4ometry">
<ellipse fill="#35b779" stroke="black" cx="380.32" cy="-62" rx="71.73" ry="18"/>
<text text-anchor="middle" x="380.32" y="-57.33" font-family="Times,serif" font-size="14.00">pyg4ometry</text>
</a>
</g>
</g>
<!-- vtkbool -->
<g id="node14" class="node">
<title>vtkbool</title>
<g id="a_node14"><a xlink:href="https://github.com/conda-forge/vtkbool-feedstock/pull/6" xlink:title="vtkbool ❎">
<ellipse fill="#31688e" stroke="black" cx="546.32" cy="-62" rx="63.31" ry="18"/>
<text text-anchor="middle" x="546.32" y="-57.33" font-family="Times,serif" font-size="14.00" fill="white">vtkbool ❎</text>
</a>
</g>
</g>
</g>
</svg>
