<?xml version="1.0" encoding="UTF-8" standalone="no"?>
<!DOCTYPE svg PUBLIC "-//W3C//DTD SVG 1.1//EN"
 "http://www.w3.org/Graphics/SVG/1.1/DTD/svg11.dtd">
<!-- Generated by graphviz version 8.1.0 (20230707.2238)
 -->
<!-- Pages: 1 -->
<svg width="613pt" height="320pt"
 viewBox="0.00 0.00 612.77 320.00" xmlns="http://www.w3.org/2000/svg" xmlns:xlink="http://www.w3.org/1999/xlink">
<g id="graph0" class="graph" transform="scale(1 1) rotate(0) translate(4 316)">
<polygon fill="white" stroke="none" points="-4,4 -4,-316 608.77,-316 608.77,4 -4,4"/>
<!-- mayavi -->
<g id="node1" class="node">
<title>mayavi</title>
<g id="a_node1"><a xlink:href="https://github.com/conda-forge/mayavi-feedstock/pull/76" xlink:title="mayavi ❎">
<ellipse fill="#31688e" stroke="black" cx="518.32" cy="-106" rx="62.26" ry="18"/>
<text text-anchor="middle" x="518.32" y="-101.33" font-family="Times,serif" font-size="14.00" fill="white">mayavi ❎</text>
</a>
</g>
</g>
<!-- occt -->
<g id="node2" class="node">
<title>occt</title>
<g id="a_node2"><a xlink:href="https://github.com/conda-forge/occt-feedstock/pull/105" xlink:title="occt ❎">
<ellipse fill="#31688e" stroke="black" cx="114.32" cy="-294" rx="47" ry="18"/>
<text text-anchor="middle" x="114.32" y="-289.32" font-family="Times,serif" font-size="14.00" fill="white">occt ❎</text>
</a>
</g>
</g>
<!-- smesh -->
<g id="node3" class="node">
<title>smesh</title>
<g id="a_node3"><a xlink:href="https://github.com/conda-forge/smesh-feedstock" xlink:title="smesh">
<ellipse fill="#fde725" stroke="black" cx="43.32" cy="-222" rx="43.32" ry="18"/>
<text text-anchor="middle" x="43.32" y="-217.32" font-family="Times,serif" font-size="14.00">smesh</text>
</a>
</g>
</g>
<!-- occt&#45;&gt;smesh -->
<g id="edge3" class="edge">
<title>occt&#45;&gt;smesh</title>
<path fill="none" stroke="black" d="M97.85,-276.76C88.8,-267.84 77.4,-256.61 67.37,-246.72"/>
<polygon fill="black" stroke="black" points="70.27,-244.68 60.69,-240.15 65.36,-249.66 70.27,-244.68"/>
</g>
<!-- freecad -->
<g id="node5" class="node">
<title>freecad</title>
<g id="a_node5"><a xlink:href="https://github.com/conda-forge/freecad-feedstock" xlink:title="freecad">
<ellipse fill="#fde725" stroke="black" cx="114.32" cy="-150" rx="48.58" ry="18"/>
<text text-anchor="middle" x="114.32" y="-145.32" font-family="Times,serif" font-size="14.00">freecad</text>
</a>
</g>
</g>
<!-- occt&#45;&gt;freecad -->
<g id="edge1" class="edge">
<title>occt&#45;&gt;freecad</title>
<path fill="none" stroke="black" d="M114.32,-275.59C114.32,-251.5 114.32,-207.75 114.32,-179.03"/>
<polygon fill="black" stroke="black" points="117.82,-179.11 114.32,-169.11 110.82,-179.11 117.82,-179.11"/>
</g>
<!-- ocp -->
<g id="node13" class="node">
<title>ocp</title>
<g id="a_node13"><a xlink:href="https://github.com/conda-forge/ocp-feedstock" xlink:title="ocp">
<ellipse fill="#fde725" stroke="black" cx="171.32" cy="-222" rx="28.59" ry="18"/>
<text text-anchor="middle" x="171.32" y="-217.32" font-family="Times,serif" font-size="14.00">ocp</text>
</a>
</g>
</g>
<!-- occt&#45;&gt;ocp -->
<g id="edge2" class="edge">
<title>occt&#45;&gt;ocp</title>
<path fill="none" stroke="black" d="M127.82,-276.41C134.98,-267.62 143.91,-256.66 151.8,-246.96"/>
<polygon fill="black" stroke="black" points="155.09,-249.48 158.69,-239.51 149.66,-245.06 155.09,-249.48"/>
</g>
<!-- smesh&#45;&gt;freecad -->
<g id="edge4" class="edge">
<title>smesh&#45;&gt;freecad</title>
<path fill="none" stroke="black" d="M59.43,-205.12C68.47,-196.2 79.93,-184.91 90.03,-174.94"/>
<polygon fill="black" stroke="black" points="92.11,-177.82 96.78,-168.31 87.2,-172.84 92.11,-177.82"/>
</g>
<!-- pcl -->
<g id="node4" class="node">
<title>pcl</title>
<g id="a_node4"><a xlink:href="https://github.com/conda-forge/pcl-feedstock" xlink:title="pcl">
<ellipse fill="#35b779" stroke="black" cx="245.32" cy="-222" rx="27" ry="18"/>
<text text-anchor="middle" x="245.32" y="-217.32" font-family="Times,serif" font-size="14.00">pcl</text>
</a>
</g>
</g>
<!-- pcl&#45;&gt;freecad -->
<g id="edge5" class="edge">
<title>pcl&#45;&gt;freecad</title>
<path fill="none" stroke="black" d="M224.56,-209.91C204.78,-199.34 174.56,-183.19 150.76,-170.48"/>
<polygon fill="black" stroke="black" points="152.8,-167.06 142.34,-165.44 149.51,-173.24 152.8,-167.06"/>
</g>
<!-- bonsu -->
<g id="node6" class="node">
<title>bonsu</title>
<g id="a_node6"><a xlink:href="https://github.com/conda-forge/bonsu-feedstock" xlink:title="bonsu">
<ellipse fill="#35b779" stroke="black" cx="352.32" cy="-62" rx="41.21" ry="18"/>
<text text-anchor="middle" x="352.32" y="-57.33" font-family="Times,serif" font-size="14.00">bonsu</text>
</a>
</g>
</g>
<!-- topologytoolkit -->
<g id="node7" class="node">
<title>topologytoolkit</title>
<g id="a_node7"><a xlink:href="https://github.com/conda-forge/topologytoolkit-feedstock" xlink:title="topologytoolkit">
<ellipse fill="#35b779" stroke="black" cx="518.32" cy="-222" rx="86.46" ry="18"/>
<text text-anchor="middle" x="518.32" y="-217.32" font-family="Times,serif" font-size="14.00">topologytoolkit</text>
</a>
</g>
</g>
<!-- basictools -->
<g id="node8" class="node">
<title>basictools</title>
<g id="a_node8"><a xlink:href="https://github.com/conda-forge/basictools-feedstock" xlink:title="basictools">
<ellipse fill="#fde725" stroke="black" cx="352.32" cy="-186" rx="61.2" ry="18"/>
<text text-anchor="middle" x="352.32" y="-181.32" font-family="Times,serif" font-size="14.00">basictools</text>
</a>
</g>
</g>
<!-- python&#45;mint -->
<g id="node9" class="node">
<title>python&#45;mint</title>
<g id="a_node9"><a xlink:href="https://github.com/conda-forge/python-mint-feedstock" xlink:title="python mint">
<ellipse fill="#35b779" stroke="black" cx="136.32" cy="-106" rx="72.25" ry="18"/>
<text text-anchor="middle" x="136.32" y="-101.33" font-family="Times,serif" font-size="14.00">python mint</text>
</a>
</g>
</g>
<!-- pycgns -->
<g id="node10" class="node">
<title>pycgns</title>
<g id="a_node10"><a xlink:href="https://github.com/conda-forge/pycgns-feedstock" xlink:title="pycgns">
<ellipse fill="#35b779" stroke="black" cx="352.32" cy="-258" rx="46.47" ry="18"/>
<text text-anchor="middle" x="352.32" y="-253.32" font-family="Times,serif" font-size="14.00">pycgns</text>
</a>
</g>
</g>
<!-- pycgns&#45;&gt;basictools -->
<g id="edge6" class="edge">
<title>pycgns&#45;&gt;basictools</title>
<path fill="none" stroke="black" d="M352.32,-239.7C352.32,-232.24 352.32,-223.32 352.32,-214.97"/>
<polygon fill="black" stroke="black" points="355.82,-215.1 352.32,-205.1 348.82,-215.1 355.82,-215.1"/>
</g>
<!-- visan -->
<g id="node11" class="node">
<title>visan</title>
<g id="a_node11"><a xlink:href="https://github.com/conda-forge/visan-feedstock" xlink:title="visan">
<ellipse fill="#35b779" stroke="black" cx="518.32" cy="-62" rx="37.53" ry="18"/>
<text text-anchor="middle" x="518.32" y="-57.33" font-family="Times,serif" font-size="14.00">visan</text>
</a>
</g>
</g>
<!-- vmtk -->
<g id="node12" class="node">
<title>vmtk</title>
<g id="a_node12"><a xlink:href="https://github.com/conda-forge/vmtk-feedstock" xlink:title="vmtk">
<ellipse fill="#35b779" stroke="black" cx="136.32" cy="-18" rx="36.48" ry="18"/>
<text text-anchor="middle" x="136.32" y="-13.32" font-family="Times,serif" font-size="14.00">vmtk</text>
</a>
</g>
</g>
<!-- pyg4ometry -->
<g id="node14" class="node">
<title>pyg4ometry</title>
<g id="a_node14"><a xlink:href="https://github.com/conda-forge/pyg4ometry-feedstock" xlink:title="pyg4ometry">
<ellipse fill="#35b779" stroke="black" cx="352.32" cy="-106" rx="71.73" ry="18"/>
<text text-anchor="middle" x="352.32" y="-101.33" font-family="Times,serif" font-size="14.00">pyg4ometry</text>
</a>
</g>
</g>
<!-- vtkbool -->
<g id="node15" class="node">
<title>vtkbool</title>
<g id="a_node15"><a xlink:href="https://github.com/conda-forge/vtkbool-feedstock" xlink:title="vtkbool">
<ellipse fill="#35b779" stroke="black" cx="136.32" cy="-62" rx="48.05" ry="18"/>
<text text-anchor="middle" x="136.32" y="-57.33" font-family="Times,serif" font-size="14.00">vtkbool</text>
</a>
</g>
</g>
</g>
</svg>
