<?xml version="1.0" encoding="UTF-8" standalone="no"?>
<!DOCTYPE svg PUBLIC "-//W3C//DTD SVG 1.1//EN"
 "http://www.w3.org/Graphics/SVG/1.1/DTD/svg11.dtd">
<!-- Generated by graphviz version 8.1.0 (20230707.2238)
 -->
<!-- Pages: 1 -->
<svg width="1577pt" height="476pt"
 viewBox="0.00 0.00 1577.44 476.00" xmlns="http://www.w3.org/2000/svg" xmlns:xlink="http://www.w3.org/1999/xlink">
<g id="graph0" class="graph" transform="scale(1 1) rotate(0) translate(4 472)">
<polygon fill="white" stroke="none" points="-4,4 -4,-472 1573.44,-472 1573.44,4 -4,4"/>
<!-- cppzmq -->
<g id="node1" class="node">
<title>cppzmq</title>
<g id="a_node1"><a xlink:href="https://github.com/conda-forge/cppzmq-feedstock/pull/42" xlink:title="cppzmq ✓">
<ellipse fill="#31688e" stroke="black" cx="585.08" cy="-414" rx="58.05" ry="18"/>
<text text-anchor="middle" x="585.08" y="-409.32" font-family="Times,serif" font-size="14.00" fill="white">cppzmq ✓</text>
</a>
</g>
</g>
<!-- libignition&#45;transport4 -->
<g id="node2" class="node">
<title>libignition&#45;transport4</title>
<g id="a_node2"><a xlink:href="https://github.com/conda-forge/libignition-transport4-feedstock" xlink:title="libignition transport4">
<ellipse fill="#fde725" stroke="black" cx="119.08" cy="-342" rx="119.08" ry="18"/>
<text text-anchor="middle" x="119.08" y="-337.32" font-family="Times,serif" font-size="14.00">libignition transport4</text>
</a>
</g>
</g>
<!-- cppzmq&#45;&gt;libignition&#45;transport4 -->
<g id="edge1" class="edge">
<title>cppzmq&#45;&gt;libignition&#45;transport4</title>
<path fill="none" stroke="black" d="M533.87,-405.31C456.51,-393.69 308.6,-371.47 211.92,-356.95"/>
<polygon fill="black" stroke="black" points="212.68,-353.37 202.27,-355.35 211.64,-360.29 212.68,-353.37"/>
</g>
<!-- gnuradio -->
<g id="node3" class="node">
<title>gnuradio</title>
<g id="a_node3"><a xlink:href="https://github.com/conda-forge/gnuradio-feedstock" xlink:title="gnuradio">
<ellipse fill="#fde725" stroke="black" cx="243.08" cy="-270" rx="55.94" ry="18"/>
<text text-anchor="middle" x="243.08" y="-265.32" font-family="Times,serif" font-size="14.00">gnuradio</text>
</a>
</g>
</g>
<!-- cppzmq&#45;&gt;gnuradio -->
<g id="edge2" class="edge">
<title>cppzmq&#45;&gt;gnuradio</title>
<path fill="none" stroke="black" d="M526.73,-413.16C468.59,-410.8 378.77,-400.13 313.08,-360 288.43,-344.94 269.01,-317.84 256.94,-297.49"/>
<polygon fill="black" stroke="black" points="259.6,-296.09 251.62,-289.12 253.52,-299.55 259.6,-296.09"/>
</g>
<!-- cadabra2 -->
<g id="node4" class="node">
<title>cadabra2</title>
<g id="a_node4"><a xlink:href="https://github.com/conda-forge/cadabra2-feedstock" xlink:title="cadabra2">
<ellipse fill="#fde725" stroke="black" cx="327.08" cy="-198" rx="57.52" ry="18"/>
<text text-anchor="middle" x="327.08" y="-193.32" font-family="Times,serif" font-size="14.00">cadabra2</text>
</a>
</g>
</g>
<!-- cppzmq&#45;&gt;cadabra2 -->
<g id="edge3" class="edge">
<title>cppzmq&#45;&gt;cadabra2</title>
<path fill="none" stroke="black" d="M539.49,-402.44C484.31,-387.12 393,-353.17 346.08,-288 333.39,-270.37 328.85,-246.01 327.36,-227.23"/>
<polygon fill="black" stroke="black" points="330.81,-227.17 326.79,-217.37 323.82,-227.54 330.81,-227.17"/>
</g>
<!-- xeus&#45;sqlite -->
<g id="node5" class="node">
<title>xeus&#45;sqlite</title>
<g id="a_node5"><a xlink:href="https://github.com/conda-forge/xeus-sqlite-feedstock" xlink:title="xeus sqlite">
<ellipse fill="#fde725" stroke="black" cx="420.08" cy="-270" rx="65.41" ry="18"/>
<text text-anchor="middle" x="420.08" y="-265.32" font-family="Times,serif" font-size="14.00">xeus sqlite</text>
</a>
</g>
</g>
<!-- cppzmq&#45;&gt;xeus&#45;sqlite -->
<g id="edge4" class="edge">
<title>cppzmq&#45;&gt;xeus&#45;sqlite</title>
<path fill="none" stroke="black" d="M560.69,-397.26C545.64,-387.19 526.21,-373.52 510.08,-360 485.98,-339.8 460.7,-314.38 443.09,-295.88"/>
<polygon fill="black" stroke="black" points="445.98,-293.79 436.57,-288.91 440.89,-298.59 445.98,-293.79"/>
</g>
<!-- gems3k -->
<g id="node6" class="node">
<title>gems3k</title>
<g id="a_node6"><a xlink:href="https://github.com/conda-forge/gems3k-feedstock" xlink:title="gems3k">
<ellipse fill="#fde725" stroke="black" cx="715.08" cy="-126" rx="50.16" ry="18"/>
<text text-anchor="middle" x="715.08" y="-121.33" font-family="Times,serif" font-size="14.00">gems3k</text>
</a>
</g>
</g>
<!-- cppzmq&#45;&gt;gems3k -->
<g id="edge5" class="edge">
<title>cppzmq&#45;&gt;gems3k</title>
<path fill="none" stroke="black" d="M617.53,-398.66C655.46,-379.73 715.67,-342.32 736.08,-288 752.91,-243.19 738.17,-186.99 726.34,-154.23"/>
<polygon fill="black" stroke="black" points="729.31,-153.17 722.49,-145.06 722.76,-155.65 729.31,-153.17"/>
</g>
<!-- xeus&#45;robot -->
<g id="node7" class="node">
<title>xeus&#45;robot</title>
<g id="a_node7"><a xlink:href="https://github.com/conda-forge/xeus-robot-feedstock" xlink:title="xeus robot">
<ellipse fill="#fde725" stroke="black" cx="793.08" cy="-54" rx="64.36" ry="18"/>
<text text-anchor="middle" x="793.08" y="-49.33" font-family="Times,serif" font-size="14.00">xeus robot</text>
</a>
</g>
</g>
<!-- cppzmq&#45;&gt;xeus&#45;robot -->
<g id="edge6" class="edge">
<title>cppzmq&#45;&gt;xeus&#45;robot</title>
<path fill="none" stroke="black" d="M632.02,-402.96C693.36,-386.75 793.08,-348.5 793.08,-271 793.08,-271 793.08,-271 793.08,-197 793.08,-157.57 793.08,-111.97 793.08,-83.31"/>
<polygon fill="black" stroke="black" points="796.58,-83.49 793.08,-73.49 789.58,-83.49 796.58,-83.49"/>
</g>
<!-- cpptango -->
<g id="node8" class="node">
<title>cpptango</title>
<g id="a_node8"><a xlink:href="https://github.com/conda-forge/cpptango-feedstock" xlink:title="cpptango">
<ellipse fill="#fde725" stroke="black" cx="879.08" cy="-342" rx="57.52" ry="18"/>
<text text-anchor="middle" x="879.08" y="-337.32" font-family="Times,serif" font-size="14.00">cpptango</text>
</a>
</g>
</g>
<!-- cppzmq&#45;&gt;cpptango -->
<g id="edge7" class="edge">
<title>cppzmq&#45;&gt;cpptango</title>
<path fill="none" stroke="black" d="M630.05,-402.29C682.18,-389.88 768.11,-369.42 824.15,-356.08"/>
<polygon fill="black" stroke="black" points="824.67,-359.31 833.59,-353.59 823.05,-352.5 824.67,-359.31"/>
</g>
<!-- xeus&#45;zmq -->
<g id="node9" class="node">
<title>xeus&#45;zmq</title>
<g id="a_node9"><a xlink:href="https://github.com/conda-forge/xeus-zmq-feedstock" xlink:title="xeus zmq">
<ellipse fill="#fde725" stroke="black" cx="585.08" cy="-342" rx="58.57" ry="18"/>
<text text-anchor="middle" x="585.08" y="-337.32" font-family="Times,serif" font-size="14.00">xeus zmq</text>
</a>
</g>
</g>
<!-- cppzmq&#45;&gt;xeus&#45;zmq -->
<g id="edge8" class="edge">
<title>cppzmq&#45;&gt;xeus&#45;zmq</title>
<path fill="none" stroke="black" d="M585.08,-395.7C585.08,-388.24 585.08,-379.32 585.08,-370.97"/>
<polygon fill="black" stroke="black" points="588.58,-371.1 585.08,-361.1 581.58,-371.1 588.58,-371.1"/>
</g>
<!-- gz&#45;transport -->
<g id="node10" class="node">
<title>gz&#45;transport</title>
<g id="a_node10"><a xlink:href="https://github.com/conda-forge/gz-transport-feedstock" xlink:title="gz transport">
<ellipse fill="#fde725" stroke="black" cx="965.08" cy="-270" rx="73.3" ry="18"/>
<text text-anchor="middle" x="965.08" y="-265.32" font-family="Times,serif" font-size="14.00">gz transport</text>
</a>
</g>
</g>
<!-- cppzmq&#45;&gt;gz&#45;transport -->
<g id="edge9" class="edge">
<title>cppzmq&#45;&gt;gz&#45;transport</title>
<path fill="none" stroke="black" d="M643.11,-412.28C733.84,-409.91 903.33,-400.07 946.08,-360 962.46,-344.64 966.51,-318.91 966.87,-299.05"/>
<polygon fill="black" stroke="black" points="970.36,-299.12 966.72,-289.16 963.36,-299.21 970.36,-299.12"/>
</g>
<!-- xeus&#45;qt -->
<g id="node11" class="node">
<title>xeus&#45;qt</title>
<g id="a_node11"><a xlink:href="https://github.com/conda-forge/xeus-qt-feedstock" xlink:title="xeus qt">
<ellipse fill="#fde725" stroke="black" cx="551.08" cy="-270" rx="48.05" ry="18"/>
<text text-anchor="middle" x="551.08" y="-265.32" font-family="Times,serif" font-size="14.00">xeus qt</text>
</a>
</g>
</g>
<!-- cppzmq&#45;&gt;xeus&#45;qt -->
<g id="edge10" class="edge">
<title>cppzmq&#45;&gt;xeus&#45;qt</title>
<path fill="none" stroke="black" d="M555.28,-398.12C540.91,-389.21 525.09,-376.41 517.08,-360 506.88,-339.12 518.12,-314.35 530.33,-296.25"/>
<polygon fill="black" stroke="black" points="533.67,-298.6 536.7,-288.45 528,-294.5 533.67,-298.6"/>
</g>
<!-- xeus&#45;cpp -->
<g id="node12" class="node">
<title>xeus&#45;cpp</title>
<g id="a_node12"><a xlink:href="https://github.com/conda-forge/xeus-cpp-feedstock" xlink:title="xeus cpp">
<ellipse fill="#fde725" stroke="black" cx="672.08" cy="-270" rx="55.42" ry="18"/>
<text text-anchor="middle" x="672.08" y="-265.32" font-family="Times,serif" font-size="14.00">xeus cpp</text>
</a>
</g>
</g>
<!-- cppzmq&#45;&gt;xeus&#45;cpp -->
<g id="edge11" class="edge">
<title>cppzmq&#45;&gt;xeus&#45;cpp</title>
<path fill="none" stroke="black" d="M612.81,-397.8C626.96,-388.66 643.23,-375.73 653.08,-360 664.48,-341.79 669.13,-317.81 670.98,-299.33"/>
<polygon fill="black" stroke="black" points="674.55,-299.61 671.83,-289.37 667.57,-299.07 674.55,-299.61"/>
</g>
<!-- xeus&#45;zmq&#45;&gt;xeus&#45;sqlite -->
<g id="edge12" class="edge">
<title>xeus&#45;zmq&#45;&gt;xeus&#45;sqlite</title>
<path fill="none" stroke="black" d="M551.69,-326.83C526.64,-316.21 492.09,-301.55 464.68,-289.92"/>
<polygon fill="black" stroke="black" points="466.13,-286.31 455.55,-285.63 463.39,-292.75 466.13,-286.31"/>
</g>
<!-- xeus&#45;zmq&#45;&gt;xeus&#45;qt -->
<g id="edge13" class="edge">
<title>xeus&#45;zmq&#45;&gt;xeus&#45;qt</title>
<path fill="none" stroke="black" d="M576.67,-323.7C572.88,-315.9 568.32,-306.51 564.11,-297.83"/>
<polygon fill="black" stroke="black" points="566.9,-296.57 559.39,-289.1 560.61,-299.63 566.9,-296.57"/>
</g>
<!-- xeus&#45;zmq&#45;&gt;xeus&#45;cpp -->
<g id="edge14" class="edge">
<title>xeus&#45;zmq&#45;&gt;xeus&#45;cpp</title>
<path fill="none" stroke="black" d="M605.26,-324.76C616.68,-315.58 631.14,-303.94 643.69,-293.84"/>
<polygon fill="black" stroke="black" points="645.41,-296.14 651.01,-287.15 641.02,-290.69 645.41,-296.14"/>
</g>
<!-- gap -->
<g id="node13" class="node">
<title>gap</title>
<g id="a_node13"><a xlink:href="https://github.com/conda-forge/gap-feedstock/pull/76" xlink:title="gap ❎">
<ellipse fill="#31688e" stroke="black" cx="1145.08" cy="-450" rx="44.9" ry="18"/>
<text text-anchor="middle" x="1145.08" y="-445.32" font-family="Times,serif" font-size="14.00" fill="white">gap ❎</text>
</a>
</g>
</g>
<!-- r&#45;rzmq -->
<g id="node14" class="node">
<title>r&#45;rzmq</title>
<g id="a_node14"><a xlink:href="https://github.com/conda-forge/r-rzmq-feedstock/pull/22" xlink:title="r rzmq ✓">
<ellipse fill="#31688e" stroke="black" cx="1145.08" cy="-378" rx="52.79" ry="18"/>
<text text-anchor="middle" x="1145.08" y="-373.32" font-family="Times,serif" font-size="14.00" fill="white">r rzmq ✓</text>
</a>
</g>
</g>
<!-- gap&#45;&gt;r&#45;rzmq -->
<!-- helics -->
<g id="node15" class="node">
<title>helics</title>
<g id="a_node15"><a xlink:href="https://github.com/conda-forge/helics-feedstock" xlink:title="helics">
<ellipse fill="#35b779" stroke="black" cx="1145.08" cy="-306" rx="40.16" ry="18"/>
<text text-anchor="middle" x="1145.08" y="-301.32" font-family="Times,serif" font-size="14.00">helics</text>
</a>
</g>
</g>
<!-- r&#45;rzmq&#45;&gt;helics -->
<!-- r&#45;clustermq -->
<g id="node20" class="node">
<title>r&#45;clustermq</title>
<g id="a_node20"><a xlink:href="https://github.com/conda-forge/r-clustermq-feedstock/pull/22" xlink:title="r clustermq ✓">
<ellipse fill="#31688e" stroke="black" cx="1145.08" cy="-234" rx="77.52" ry="18"/>
<text text-anchor="middle" x="1145.08" y="-229.32" font-family="Times,serif" font-size="14.00" fill="white">r clustermq ✓</text>
</a>
</g>
</g>
<!-- helics&#45;&gt;r&#45;clustermq -->
<!-- czmq -->
<g id="node16" class="node">
<title>czmq</title>
<g id="a_node16"><a xlink:href="https://github.com/conda-forge/czmq-feedstock/pull/22" xlink:title="czmq ❎">
<ellipse fill="#31688e" stroke="black" cx="1429.08" cy="-342" rx="52.79" ry="18"/>
<text text-anchor="middle" x="1429.08" y="-337.32" font-family="Times,serif" font-size="14.00" fill="white">czmq ❎</text>
</a>
</g>
</g>
<!-- cis_interface -->
<g id="node17" class="node">
<title>cis_interface</title>
<g id="a_node17"><a xlink:href="https://github.com/conda-forge/cis_interface-feedstock" xlink:title="cis_interface">
<ellipse fill="#fde725" stroke="black" cx="1327.08" cy="-270" rx="74.36" ry="18"/>
<text text-anchor="middle" x="1327.08" y="-265.32" font-family="Times,serif" font-size="14.00">cis_interface</text>
</a>
</g>
</g>
<!-- czmq&#45;&gt;cis_interface -->
<g id="edge17" class="edge">
<title>czmq&#45;&gt;cis_interface</title>
<path fill="none" stroke="black" d="M1406.44,-325.46C1392.83,-316.13 1375.27,-304.07 1360.13,-293.68"/>
<polygon fill="black" stroke="black" points="1362.3,-290.24 1352.07,-287.47 1358.34,-296.01 1362.3,-290.24"/>
</g>
<!-- yggdrasil -->
<g id="node18" class="node">
<title>yggdrasil</title>
<g id="a_node18"><a xlink:href="https://github.com/conda-forge/yggdrasil-feedstock" xlink:title="yggdrasil">
<ellipse fill="#fde725" stroke="black" cx="1429.08" cy="-198" rx="58.05" ry="18"/>
<text text-anchor="middle" x="1429.08" y="-193.32" font-family="Times,serif" font-size="14.00">yggdrasil</text>
</a>
</g>
</g>
<!-- czmq&#45;&gt;yggdrasil -->
<g id="edge18" class="edge">
<title>czmq&#45;&gt;yggdrasil</title>
<path fill="none" stroke="black" d="M1429.08,-323.59C1429.08,-299.5 1429.08,-255.75 1429.08,-227.03"/>
<polygon fill="black" stroke="black" points="1432.58,-227.11 1429.08,-217.11 1425.58,-227.11 1432.58,-227.11"/>
</g>
<!-- flux&#45;core -->
<g id="node19" class="node">
<title>flux&#45;core</title>
<g id="a_node19"><a xlink:href="https://github.com/conda-forge/flux-core-feedstock" xlink:title="flux core">
<ellipse fill="#fde725" stroke="black" cx="1515.08" cy="-126" rx="54.36" ry="18"/>
<text text-anchor="middle" x="1515.08" y="-121.33" font-family="Times,serif" font-size="14.00">flux core</text>
</a>
</g>
</g>
<!-- czmq&#45;&gt;flux&#45;core -->
<g id="edge19" class="edge">
<title>czmq&#45;&gt;flux&#45;core</title>
<path fill="none" stroke="black" d="M1440.25,-323.93C1455.09,-300.51 1481.17,-256.69 1496.08,-216 1503.3,-196.29 1508.14,-173.06 1511.13,-155.27"/>
<polygon fill="black" stroke="black" points="1514.74,-155.89 1512.83,-145.47 1507.82,-154.8 1514.74,-155.89"/>
</g>
<!-- zmqpp -->
<g id="node21" class="node">
<title>zmqpp</title>
<g id="a_node21"><a xlink:href="https://github.com/conda-forge/zmqpp-feedstock/pull/5" xlink:title="zmqpp ✓">
<ellipse fill="#31688e" stroke="black" cx="1145.08" cy="-162" rx="52.79" ry="18"/>
<text text-anchor="middle" x="1145.08" y="-157.32" font-family="Times,serif" font-size="14.00" fill="white">zmqpp ✓</text>
</a>
</g>
</g>
<!-- r&#45;clustermq&#45;&gt;zmqpp -->
<!-- f77_zmq -->
<g id="node22" class="node">
<title>f77_zmq</title>
<g id="a_node22"><a xlink:href="https://github.com/conda-forge/f77_zmq-feedstock" xlink:title="f77_zmq">
<ellipse fill="#35b779" stroke="black" cx="1145.08" cy="-90" rx="53.31" ry="18"/>
<text text-anchor="middle" x="1145.08" y="-85.33" font-family="Times,serif" font-size="14.00">f77_zmq</text>
</a>
</g>
</g>
<!-- zmqpp&#45;&gt;f77_zmq -->
<!-- libertem&#45;dectris -->
<g id="node23" class="node">
<title>libertem&#45;dectris</title>
<g id="a_node23"><a xlink:href="https://github.com/conda-forge/libertem-dectris-feedstock/pull/4" xlink:title="libertem dectris ✓">
<ellipse fill="#31688e" stroke="black" cx="1145.08" cy="-18" rx="99.61" ry="18"/>
<text text-anchor="middle" x="1145.08" y="-13.32" font-family="Times,serif" font-size="14.00" fill="white">libertem dectris ✓</text>
</a>
</g>
</g>
<!-- f77_zmq&#45;&gt;libertem&#45;dectris -->
</g>
</svg>
